G04 #@! TF.FileFunction,Copper,L2,Bot,Signal*
%FSLAX46Y46*%
G04 Gerber Fmt 4.6, Leading zero omitted, Abs format (unit mm)*
G04 Created by KiCad (PCBNEW 4.0.2-stable) date Tue 18 Apr 2017 08:05:02 AM CEST*
%MOMM*%
G01*
G04 APERTURE LIST*
%ADD10C,0.100000*%
%ADD11C,0.300000*%
%ADD12C,4.000000*%
%ADD13C,5.000000*%
%ADD14C,0.600000*%
%ADD15C,1.600000*%
%ADD16C,0.254000*%
G04 APERTURE END LIST*
D10*
D11*
X71250000Y-62607143D02*
X71464286Y-62535714D01*
X71535714Y-62464286D01*
X71607143Y-62321429D01*
X71607143Y-62107143D01*
X71535714Y-61964286D01*
X71464286Y-61892857D01*
X71321428Y-61821429D01*
X70750000Y-61821429D01*
X70750000Y-63321429D01*
X71250000Y-63321429D01*
X71392857Y-63250000D01*
X71464286Y-63178571D01*
X71535714Y-63035714D01*
X71535714Y-62892857D01*
X71464286Y-62750000D01*
X71392857Y-62678571D01*
X71250000Y-62607143D01*
X70750000Y-62607143D01*
X72535714Y-63321429D02*
X72821428Y-63321429D01*
X72964286Y-63250000D01*
X73107143Y-63107143D01*
X73178571Y-62821429D01*
X73178571Y-62321429D01*
X73107143Y-62035714D01*
X72964286Y-61892857D01*
X72821428Y-61821429D01*
X72535714Y-61821429D01*
X72392857Y-61892857D01*
X72250000Y-62035714D01*
X72178571Y-62321429D01*
X72178571Y-62821429D01*
X72250000Y-63107143D01*
X72392857Y-63250000D01*
X72535714Y-63321429D01*
X73607143Y-63321429D02*
X74464286Y-63321429D01*
X74035715Y-61821429D02*
X74035715Y-63321429D01*
X128750000Y-137392857D02*
X128535714Y-137464286D01*
X128464286Y-137535714D01*
X128392857Y-137678571D01*
X128392857Y-137892857D01*
X128464286Y-138035714D01*
X128535714Y-138107143D01*
X128678572Y-138178571D01*
X129250000Y-138178571D01*
X129250000Y-136678571D01*
X128750000Y-136678571D01*
X128607143Y-136750000D01*
X128535714Y-136821429D01*
X128464286Y-136964286D01*
X128464286Y-137107143D01*
X128535714Y-137250000D01*
X128607143Y-137321429D01*
X128750000Y-137392857D01*
X129250000Y-137392857D01*
X127464286Y-136678571D02*
X127178572Y-136678571D01*
X127035714Y-136750000D01*
X126892857Y-136892857D01*
X126821429Y-137178571D01*
X126821429Y-137678571D01*
X126892857Y-137964286D01*
X127035714Y-138107143D01*
X127178572Y-138178571D01*
X127464286Y-138178571D01*
X127607143Y-138107143D01*
X127750000Y-137964286D01*
X127821429Y-137678571D01*
X127821429Y-137178571D01*
X127750000Y-136892857D01*
X127607143Y-136750000D01*
X127464286Y-136678571D01*
X126392857Y-136678571D02*
X125535714Y-136678571D01*
X125964285Y-138178571D02*
X125964285Y-136678571D01*
D12*
X92258330Y-119562178D03*
X87062178Y-116562178D03*
X86857695Y-83370835D03*
X92053848Y-80370835D03*
X121000000Y-97000000D03*
X121000000Y-103000000D03*
X65000000Y-135000000D03*
X135000000Y-135000000D03*
X65000000Y-65000000D03*
X135000000Y-65000000D03*
D13*
X121500000Y-62760908D03*
X137239092Y-78500000D03*
D14*
X112250000Y-100000000D03*
X112063895Y-102127190D03*
X111511235Y-104189747D03*
X110608811Y-106125000D03*
X109384044Y-107874148D03*
X107874148Y-109384044D03*
X106125000Y-110608811D03*
X104189747Y-111511235D03*
X102127190Y-112063895D03*
X100000000Y-112250000D03*
X97872810Y-112063895D03*
X95810253Y-111511235D03*
X93875000Y-110608811D03*
X92125852Y-109384044D03*
X90615956Y-107874148D03*
X89391189Y-106125000D03*
X88488765Y-104189747D03*
X87936105Y-102127190D03*
X87750000Y-100000000D03*
X87936105Y-97872810D03*
X88488765Y-95810253D03*
X89391189Y-93875000D03*
X90615956Y-92125852D03*
X92125852Y-90615956D03*
X93875000Y-89391189D03*
X95810253Y-88488765D03*
X97872810Y-87936105D03*
X100000000Y-87750000D03*
X102127190Y-87936105D03*
X104189747Y-88488765D03*
X106125000Y-89391189D03*
X107874148Y-90615956D03*
X109384044Y-92125852D03*
X110608811Y-93875000D03*
X111511235Y-95810253D03*
X112063895Y-97872810D03*
D11*
X114000000Y-100000000D02*
X111900000Y-100000000D01*
X114000000Y-114000000D02*
X114000000Y-100000000D01*
X135000000Y-135000000D02*
X114000000Y-114000000D01*
D15*
X112250000Y-100000000D02*
X112244818Y-100356288D01*
X112244818Y-100356288D02*
X112229275Y-100712274D01*
X112229275Y-100712274D02*
X112203385Y-101067658D01*
X112203385Y-101067658D02*
X112167170Y-101422138D01*
X112167170Y-101422138D02*
X112120660Y-101775415D01*
X112120660Y-101775415D02*
X112063895Y-102127190D01*
X112063895Y-102127190D02*
X111996923Y-102477165D01*
X111996923Y-102477165D02*
X111919800Y-102825044D01*
X111919800Y-102825044D02*
X111832591Y-103170533D01*
X111832591Y-103170533D02*
X111735372Y-103513340D01*
X111735372Y-103513340D02*
X111628222Y-103853173D01*
X111628222Y-103853173D02*
X111511235Y-104189747D01*
X111511235Y-104189747D02*
X111384507Y-104522775D01*
X111384507Y-104522775D02*
X111248147Y-104851977D01*
X111248147Y-104851977D02*
X111102270Y-105177074D01*
X111102270Y-105177074D02*
X110947000Y-105497790D01*
X110947000Y-105497790D02*
X110782467Y-105813855D01*
X110782467Y-105813855D02*
X110608811Y-106125000D01*
X110608811Y-106125000D02*
X110426179Y-106430963D01*
X110426179Y-106430963D02*
X110234726Y-106731485D01*
X110234726Y-106731485D02*
X110034613Y-107026311D01*
X110034613Y-107026311D02*
X109826009Y-107315193D01*
X109826009Y-107315193D02*
X109609092Y-107597885D01*
X109609092Y-107597885D02*
X109384044Y-107874148D01*
X109384044Y-107874148D02*
X109151057Y-108143749D01*
X109151057Y-108143749D02*
X108910327Y-108406460D01*
X108910327Y-108406460D02*
X108662058Y-108662058D01*
X108662058Y-108662058D02*
X108406460Y-108910327D01*
X108406460Y-108910327D02*
X108143749Y-109151057D01*
X108143749Y-109151057D02*
X107874148Y-109384044D01*
X107874148Y-109384044D02*
X107597885Y-109609092D01*
X107597885Y-109609092D02*
X107315193Y-109826009D01*
X107315193Y-109826009D02*
X107026311Y-110034613D01*
X107026311Y-110034613D02*
X106731485Y-110234726D01*
X106731485Y-110234726D02*
X106430963Y-110426179D01*
X106430963Y-110426179D02*
X106125000Y-110608811D01*
X106125000Y-110608811D02*
X105813855Y-110782467D01*
X105813855Y-110782467D02*
X105497790Y-110947000D01*
X105497790Y-110947000D02*
X105177074Y-111102270D01*
X105177074Y-111102270D02*
X104851977Y-111248147D01*
X104851977Y-111248147D02*
X104522775Y-111384507D01*
X104522775Y-111384507D02*
X104189747Y-111511235D01*
X104189747Y-111511235D02*
X103853173Y-111628222D01*
X103853173Y-111628222D02*
X103513340Y-111735372D01*
X103513340Y-111735372D02*
X103170533Y-111832591D01*
X103170533Y-111832591D02*
X102825044Y-111919800D01*
X102825044Y-111919800D02*
X102477165Y-111996923D01*
X102477165Y-111996923D02*
X102127190Y-112063895D01*
X102127190Y-112063895D02*
X101775415Y-112120660D01*
X101775415Y-112120660D02*
X101422138Y-112167170D01*
X101422138Y-112167170D02*
X101067658Y-112203385D01*
X101067658Y-112203385D02*
X100712274Y-112229275D01*
X100712274Y-112229275D02*
X100356288Y-112244818D01*
X100356288Y-112244818D02*
X100000000Y-112250000D01*
X100000000Y-112250000D02*
X99643712Y-112244818D01*
X99643712Y-112244818D02*
X99287726Y-112229275D01*
X99287726Y-112229275D02*
X98932342Y-112203385D01*
X98932342Y-112203385D02*
X98577862Y-112167170D01*
X98577862Y-112167170D02*
X98224585Y-112120660D01*
X98224585Y-112120660D02*
X97872810Y-112063895D01*
X97872810Y-112063895D02*
X97522835Y-111996923D01*
X97522835Y-111996923D02*
X97174956Y-111919800D01*
X97174956Y-111919800D02*
X96829467Y-111832591D01*
X96829467Y-111832591D02*
X96486660Y-111735372D01*
X96486660Y-111735372D02*
X96146827Y-111628222D01*
X96146827Y-111628222D02*
X95810253Y-111511235D01*
X95810253Y-111511235D02*
X95477225Y-111384507D01*
X95477225Y-111384507D02*
X95148023Y-111248147D01*
X95148023Y-111248147D02*
X94822926Y-111102270D01*
X94822926Y-111102270D02*
X94502210Y-110947000D01*
X94502210Y-110947000D02*
X94186145Y-110782467D01*
X94186145Y-110782467D02*
X93875000Y-110608811D01*
X93875000Y-110608811D02*
X93569037Y-110426179D01*
X93569037Y-110426179D02*
X93268515Y-110234726D01*
X93268515Y-110234726D02*
X92973689Y-110034613D01*
X92973689Y-110034613D02*
X92684807Y-109826009D01*
X92684807Y-109826009D02*
X92402115Y-109609092D01*
X92402115Y-109609092D02*
X92125852Y-109384044D01*
X92125852Y-109384044D02*
X91856251Y-109151057D01*
X91856251Y-109151057D02*
X91593540Y-108910327D01*
X91593540Y-108910327D02*
X91337942Y-108662058D01*
X91337942Y-108662058D02*
X91089673Y-108406460D01*
X91089673Y-108406460D02*
X90848943Y-108143749D01*
X90848943Y-108143749D02*
X90615956Y-107874148D01*
X90615956Y-107874148D02*
X90390908Y-107597885D01*
X90390908Y-107597885D02*
X90173991Y-107315193D01*
X90173991Y-107315193D02*
X89965387Y-107026311D01*
X89965387Y-107026311D02*
X89765274Y-106731485D01*
X89765274Y-106731485D02*
X89573821Y-106430963D01*
X89573821Y-106430963D02*
X89391189Y-106125000D01*
X89391189Y-106125000D02*
X89217533Y-105813855D01*
X89217533Y-105813855D02*
X89053000Y-105497790D01*
X89053000Y-105497790D02*
X88897730Y-105177074D01*
X88897730Y-105177074D02*
X88751853Y-104851977D01*
X88751853Y-104851977D02*
X88615493Y-104522775D01*
X88615493Y-104522775D02*
X88488765Y-104189747D01*
X88488765Y-104189747D02*
X88371778Y-103853173D01*
X88371778Y-103853173D02*
X88264628Y-103513340D01*
X88264628Y-103513340D02*
X88167409Y-103170533D01*
X88167409Y-103170533D02*
X88080200Y-102825044D01*
X88080200Y-102825044D02*
X88003077Y-102477165D01*
X88003077Y-102477165D02*
X87936105Y-102127190D01*
X87936105Y-102127190D02*
X87879340Y-101775415D01*
X87879340Y-101775415D02*
X87832830Y-101422138D01*
X87832830Y-101422138D02*
X87796615Y-101067658D01*
X87796615Y-101067658D02*
X87770725Y-100712274D01*
X87770725Y-100712274D02*
X87755182Y-100356288D01*
X87755182Y-100356288D02*
X87750000Y-100000000D01*
X87750000Y-100000000D02*
X87755182Y-99643712D01*
X87755182Y-99643712D02*
X87770725Y-99287726D01*
X87770725Y-99287726D02*
X87796615Y-98932342D01*
X87796615Y-98932342D02*
X87832830Y-98577862D01*
X87832830Y-98577862D02*
X87879340Y-98224585D01*
X87879340Y-98224585D02*
X87936105Y-97872810D01*
X87936105Y-97872810D02*
X88003077Y-97522835D01*
X88003077Y-97522835D02*
X88080200Y-97174956D01*
X88080200Y-97174956D02*
X88167409Y-96829467D01*
X88167409Y-96829467D02*
X88264628Y-96486660D01*
X88264628Y-96486660D02*
X88371778Y-96146827D01*
X88371778Y-96146827D02*
X88488765Y-95810253D01*
X88488765Y-95810253D02*
X88615493Y-95477225D01*
X88615493Y-95477225D02*
X88751853Y-95148023D01*
X88751853Y-95148023D02*
X88897730Y-94822926D01*
X88897730Y-94822926D02*
X89053000Y-94502210D01*
X89053000Y-94502210D02*
X89217533Y-94186145D01*
X89217533Y-94186145D02*
X89391189Y-93875000D01*
X89391189Y-93875000D02*
X89573821Y-93569037D01*
X89573821Y-93569037D02*
X89765274Y-93268515D01*
X89765274Y-93268515D02*
X89965387Y-92973689D01*
X89965387Y-92973689D02*
X90173991Y-92684807D01*
X90173991Y-92684807D02*
X90390908Y-92402115D01*
X90390908Y-92402115D02*
X90615956Y-92125852D01*
X90615956Y-92125852D02*
X90848943Y-91856251D01*
X90848943Y-91856251D02*
X91089673Y-91593540D01*
X91089673Y-91593540D02*
X91337942Y-91337942D01*
X91337942Y-91337942D02*
X91593540Y-91089673D01*
X91593540Y-91089673D02*
X91856251Y-90848943D01*
X91856251Y-90848943D02*
X92125852Y-90615956D01*
X92125852Y-90615956D02*
X92402115Y-90390908D01*
X92402115Y-90390908D02*
X92684807Y-90173991D01*
X92684807Y-90173991D02*
X92973689Y-89965387D01*
X92973689Y-89965387D02*
X93268515Y-89765274D01*
X93268515Y-89765274D02*
X93569037Y-89573821D01*
X93569037Y-89573821D02*
X93875000Y-89391189D01*
X93875000Y-89391189D02*
X94186145Y-89217533D01*
X94186145Y-89217533D02*
X94502210Y-89053000D01*
X94502210Y-89053000D02*
X94822926Y-88897730D01*
X94822926Y-88897730D02*
X95148023Y-88751853D01*
X95148023Y-88751853D02*
X95477225Y-88615493D01*
X95477225Y-88615493D02*
X95810253Y-88488765D01*
X95810253Y-88488765D02*
X96146827Y-88371778D01*
X96146827Y-88371778D02*
X96486660Y-88264628D01*
X96486660Y-88264628D02*
X96829467Y-88167409D01*
X96829467Y-88167409D02*
X97174956Y-88080200D01*
X97174956Y-88080200D02*
X97522835Y-88003077D01*
X97522835Y-88003077D02*
X97872810Y-87936105D01*
X97872810Y-87936105D02*
X98224585Y-87879340D01*
X98224585Y-87879340D02*
X98577862Y-87832830D01*
X98577862Y-87832830D02*
X98932342Y-87796615D01*
X98932342Y-87796615D02*
X99287726Y-87770725D01*
X99287726Y-87770725D02*
X99643712Y-87755182D01*
X99643712Y-87755182D02*
X100000000Y-87750000D01*
X100000000Y-87750000D02*
X100356288Y-87755182D01*
X100356288Y-87755182D02*
X100712274Y-87770725D01*
X100712274Y-87770725D02*
X101067658Y-87796615D01*
X101067658Y-87796615D02*
X101422138Y-87832830D01*
X101422138Y-87832830D02*
X101775415Y-87879340D01*
X101775415Y-87879340D02*
X102127190Y-87936105D01*
X102127190Y-87936105D02*
X102477165Y-88003077D01*
X102477165Y-88003077D02*
X102825044Y-88080200D01*
X102825044Y-88080200D02*
X103170533Y-88167409D01*
X103170533Y-88167409D02*
X103513340Y-88264628D01*
X103513340Y-88264628D02*
X103853173Y-88371778D01*
X103853173Y-88371778D02*
X104189747Y-88488765D01*
X104189747Y-88488765D02*
X104522775Y-88615493D01*
X104522775Y-88615493D02*
X104851977Y-88751853D01*
X104851977Y-88751853D02*
X105177074Y-88897730D01*
X105177074Y-88897730D02*
X105497790Y-89053000D01*
X105497790Y-89053000D02*
X105813855Y-89217533D01*
X105813855Y-89217533D02*
X106125000Y-89391189D01*
X106125000Y-89391189D02*
X106430963Y-89573821D01*
X106430963Y-89573821D02*
X106731485Y-89765274D01*
X106731485Y-89765274D02*
X107026311Y-89965387D01*
X107026311Y-89965387D02*
X107315193Y-90173991D01*
X107315193Y-90173991D02*
X107597885Y-90390908D01*
X107597885Y-90390908D02*
X107874148Y-90615956D01*
X107874148Y-90615956D02*
X108143749Y-90848943D01*
X108143749Y-90848943D02*
X108406460Y-91089673D01*
X108406460Y-91089673D02*
X108662058Y-91337942D01*
X108662058Y-91337942D02*
X108910327Y-91593540D01*
X108910327Y-91593540D02*
X109151057Y-91856251D01*
X109151057Y-91856251D02*
X109384044Y-92125852D01*
X109384044Y-92125852D02*
X109609092Y-92402115D01*
X109609092Y-92402115D02*
X109826009Y-92684807D01*
X109826009Y-92684807D02*
X110034613Y-92973689D01*
X110034613Y-92973689D02*
X110234726Y-93268515D01*
X110234726Y-93268515D02*
X110426179Y-93569037D01*
X110426179Y-93569037D02*
X110608811Y-93875000D01*
X110608811Y-93875000D02*
X110782467Y-94186145D01*
X110782467Y-94186145D02*
X110947000Y-94502210D01*
X110947000Y-94502210D02*
X111102270Y-94822926D01*
X111102270Y-94822926D02*
X111248147Y-95148023D01*
X111248147Y-95148023D02*
X111384507Y-95477225D01*
X111384507Y-95477225D02*
X111511235Y-95810253D01*
X111511235Y-95810253D02*
X111628222Y-96146827D01*
X111628222Y-96146827D02*
X111735372Y-96486660D01*
X111735372Y-96486660D02*
X111832591Y-96829467D01*
X111832591Y-96829467D02*
X111919800Y-97174956D01*
X111919800Y-97174956D02*
X111996923Y-97522835D01*
X111996923Y-97522835D02*
X112063895Y-97872810D01*
X112063895Y-97872810D02*
X112120660Y-98224585D01*
X112120660Y-98224585D02*
X112167170Y-98577862D01*
X112167170Y-98577862D02*
X112203385Y-98932342D01*
X112203385Y-98932342D02*
X112229275Y-99287726D01*
X112229275Y-99287726D02*
X112244818Y-99643712D01*
X112244818Y-99643712D02*
X112250000Y-100000000D01*
D16*
G36*
X142172500Y-142172500D02*
X57827500Y-142172500D01*
X57827500Y-135673000D01*
X124915857Y-135673000D01*
X124915857Y-139027000D01*
X130084143Y-139027000D01*
X130084143Y-135673000D01*
X124915857Y-135673000D01*
X57827500Y-135673000D01*
X57827500Y-119757838D01*
X89928272Y-119757838D01*
X90010651Y-120206690D01*
X90178644Y-120630991D01*
X90425852Y-121014582D01*
X90742858Y-121342852D01*
X91117588Y-121603296D01*
X91535768Y-121785994D01*
X91981471Y-121883989D01*
X92437719Y-121893546D01*
X92887134Y-121814302D01*
X93312598Y-121649275D01*
X93697906Y-121404751D01*
X94028381Y-121090045D01*
X94291434Y-120717142D01*
X94477048Y-120300247D01*
X94578151Y-119855240D01*
X94585429Y-119334004D01*
X94496791Y-118886347D01*
X94322890Y-118464432D01*
X94070351Y-118084330D01*
X93748792Y-117760518D01*
X93370463Y-117505332D01*
X92949772Y-117328490D01*
X92502745Y-117236728D01*
X92046408Y-117233542D01*
X91598143Y-117319053D01*
X91175024Y-117490005D01*
X90793168Y-117739884D01*
X90467120Y-118059174D01*
X90209298Y-118435713D01*
X90029523Y-118855159D01*
X89934643Y-119301535D01*
X89928272Y-119757838D01*
X57827500Y-119757838D01*
X57827500Y-116757838D01*
X84732120Y-116757838D01*
X84814499Y-117206690D01*
X84982492Y-117630991D01*
X85229700Y-118014582D01*
X85546706Y-118342852D01*
X85921436Y-118603296D01*
X86339616Y-118785994D01*
X86785319Y-118883989D01*
X87241567Y-118893546D01*
X87690982Y-118814302D01*
X88116446Y-118649275D01*
X88501754Y-118404751D01*
X88832229Y-118090045D01*
X89095282Y-117717142D01*
X89280896Y-117300247D01*
X89381999Y-116855240D01*
X89389277Y-116334004D01*
X89300639Y-115886347D01*
X89126738Y-115464432D01*
X88874199Y-115084330D01*
X88552640Y-114760518D01*
X88174311Y-114505332D01*
X87753620Y-114328490D01*
X87306593Y-114236728D01*
X86850256Y-114233542D01*
X86401991Y-114319053D01*
X85978872Y-114490005D01*
X85597016Y-114739884D01*
X85270968Y-115059174D01*
X85013146Y-115435713D01*
X84833371Y-115855159D01*
X84738491Y-116301535D01*
X84732120Y-116757838D01*
X57827500Y-116757838D01*
X57827500Y-100161647D01*
X88423629Y-100161647D01*
X88675496Y-102407098D01*
X89358711Y-104560862D01*
X90447248Y-106540905D01*
X91899648Y-108271807D01*
X93660587Y-109687639D01*
X95662992Y-110734471D01*
X97830593Y-111372431D01*
X100080826Y-111577218D01*
X102327980Y-111341032D01*
X104486462Y-110672871D01*
X106474056Y-109598182D01*
X108215055Y-108157903D01*
X109643146Y-106406891D01*
X110703932Y-104411842D01*
X111071118Y-103195660D01*
X118669942Y-103195660D01*
X118752321Y-103644512D01*
X118920314Y-104068813D01*
X119167522Y-104452404D01*
X119484528Y-104780674D01*
X119859258Y-105041118D01*
X120277438Y-105223816D01*
X120723141Y-105321811D01*
X121179389Y-105331368D01*
X121628804Y-105252124D01*
X122054268Y-105087097D01*
X122439576Y-104842573D01*
X122770051Y-104527867D01*
X123033104Y-104154964D01*
X123218718Y-103738069D01*
X123319821Y-103293062D01*
X123327099Y-102771826D01*
X123238461Y-102324169D01*
X123064560Y-101902254D01*
X122812021Y-101522152D01*
X122490462Y-101198340D01*
X122112133Y-100943154D01*
X121691442Y-100766312D01*
X121244415Y-100674550D01*
X120788078Y-100671364D01*
X120339813Y-100756875D01*
X119916694Y-100927827D01*
X119534838Y-101177706D01*
X119208790Y-101496996D01*
X118950968Y-101873535D01*
X118771193Y-102292981D01*
X118676313Y-102739357D01*
X118669942Y-103195660D01*
X111071118Y-103195660D01*
X111357008Y-102248748D01*
X111577500Y-100000000D01*
X111572986Y-99676737D01*
X111289792Y-97435022D01*
X111210167Y-97195660D01*
X118669942Y-97195660D01*
X118752321Y-97644512D01*
X118920314Y-98068813D01*
X119167522Y-98452404D01*
X119484528Y-98780674D01*
X119859258Y-99041118D01*
X120277438Y-99223816D01*
X120723141Y-99321811D01*
X121179389Y-99331368D01*
X121628804Y-99252124D01*
X122054268Y-99087097D01*
X122439576Y-98842573D01*
X122770051Y-98527867D01*
X123033104Y-98154964D01*
X123218718Y-97738069D01*
X123319821Y-97293062D01*
X123327099Y-96771826D01*
X123238461Y-96324169D01*
X123064560Y-95902254D01*
X122812021Y-95522152D01*
X122490462Y-95198340D01*
X122112133Y-94943154D01*
X121691442Y-94766312D01*
X121244415Y-94674550D01*
X120788078Y-94671364D01*
X120339813Y-94756875D01*
X119916694Y-94927827D01*
X119534838Y-95177706D01*
X119208790Y-95496996D01*
X118950968Y-95873535D01*
X118771193Y-96292981D01*
X118676313Y-96739357D01*
X118669942Y-97195660D01*
X111210167Y-97195660D01*
X110576573Y-95291007D01*
X109460495Y-93326355D01*
X107984070Y-91615900D01*
X106203535Y-90224793D01*
X104186708Y-89206021D01*
X102010412Y-88598388D01*
X99757539Y-88425039D01*
X97513902Y-88692577D01*
X95364959Y-89390810D01*
X93392564Y-90493145D01*
X91671843Y-91957593D01*
X90268340Y-93728373D01*
X89235513Y-95738038D01*
X88612701Y-97910040D01*
X88423629Y-100161647D01*
X57827500Y-100161647D01*
X57827500Y-83566495D01*
X84527637Y-83566495D01*
X84610016Y-84015347D01*
X84778009Y-84439648D01*
X85025217Y-84823239D01*
X85342223Y-85151509D01*
X85716953Y-85411953D01*
X86135133Y-85594651D01*
X86580836Y-85692646D01*
X87037084Y-85702203D01*
X87486499Y-85622959D01*
X87911963Y-85457932D01*
X88297271Y-85213408D01*
X88627746Y-84898702D01*
X88890799Y-84525799D01*
X89076413Y-84108904D01*
X89177516Y-83663897D01*
X89184794Y-83142661D01*
X89096156Y-82695004D01*
X88922255Y-82273089D01*
X88669716Y-81892987D01*
X88348157Y-81569175D01*
X87969828Y-81313989D01*
X87549137Y-81137147D01*
X87102110Y-81045385D01*
X86645773Y-81042199D01*
X86197508Y-81127710D01*
X85774389Y-81298662D01*
X85392533Y-81548541D01*
X85066485Y-81867831D01*
X84808663Y-82244370D01*
X84628888Y-82663816D01*
X84534008Y-83110192D01*
X84527637Y-83566495D01*
X57827500Y-83566495D01*
X57827500Y-80566495D01*
X89723790Y-80566495D01*
X89806169Y-81015347D01*
X89974162Y-81439648D01*
X90221370Y-81823239D01*
X90538376Y-82151509D01*
X90913106Y-82411953D01*
X91331286Y-82594651D01*
X91776989Y-82692646D01*
X92233237Y-82702203D01*
X92682652Y-82622959D01*
X93108116Y-82457932D01*
X93493424Y-82213408D01*
X93823899Y-81898702D01*
X94086952Y-81525799D01*
X94272566Y-81108904D01*
X94373669Y-80663897D01*
X94380947Y-80142661D01*
X94292309Y-79695004D01*
X94118408Y-79273089D01*
X93865869Y-78892987D01*
X93544310Y-78569175D01*
X93165981Y-78313989D01*
X92745290Y-78137147D01*
X92298263Y-78045385D01*
X91841926Y-78042199D01*
X91393661Y-78127710D01*
X90970542Y-78298662D01*
X90588686Y-78548541D01*
X90262638Y-78867831D01*
X90004816Y-79244370D01*
X89825041Y-79663816D01*
X89730161Y-80110192D01*
X89723790Y-80566495D01*
X57827500Y-80566495D01*
X57827500Y-60973000D01*
X69915857Y-60973000D01*
X69915857Y-64327000D01*
X75084143Y-64327000D01*
X75084143Y-60973000D01*
X69915857Y-60973000D01*
X57827500Y-60973000D01*
X57827500Y-57827500D01*
X142172500Y-57827500D01*
X142172500Y-142172500D01*
X142172500Y-142172500D01*
G37*
X142172500Y-142172500D02*
X57827500Y-142172500D01*
X57827500Y-135673000D01*
X124915857Y-135673000D01*
X124915857Y-139027000D01*
X130084143Y-139027000D01*
X130084143Y-135673000D01*
X124915857Y-135673000D01*
X57827500Y-135673000D01*
X57827500Y-119757838D01*
X89928272Y-119757838D01*
X90010651Y-120206690D01*
X90178644Y-120630991D01*
X90425852Y-121014582D01*
X90742858Y-121342852D01*
X91117588Y-121603296D01*
X91535768Y-121785994D01*
X91981471Y-121883989D01*
X92437719Y-121893546D01*
X92887134Y-121814302D01*
X93312598Y-121649275D01*
X93697906Y-121404751D01*
X94028381Y-121090045D01*
X94291434Y-120717142D01*
X94477048Y-120300247D01*
X94578151Y-119855240D01*
X94585429Y-119334004D01*
X94496791Y-118886347D01*
X94322890Y-118464432D01*
X94070351Y-118084330D01*
X93748792Y-117760518D01*
X93370463Y-117505332D01*
X92949772Y-117328490D01*
X92502745Y-117236728D01*
X92046408Y-117233542D01*
X91598143Y-117319053D01*
X91175024Y-117490005D01*
X90793168Y-117739884D01*
X90467120Y-118059174D01*
X90209298Y-118435713D01*
X90029523Y-118855159D01*
X89934643Y-119301535D01*
X89928272Y-119757838D01*
X57827500Y-119757838D01*
X57827500Y-116757838D01*
X84732120Y-116757838D01*
X84814499Y-117206690D01*
X84982492Y-117630991D01*
X85229700Y-118014582D01*
X85546706Y-118342852D01*
X85921436Y-118603296D01*
X86339616Y-118785994D01*
X86785319Y-118883989D01*
X87241567Y-118893546D01*
X87690982Y-118814302D01*
X88116446Y-118649275D01*
X88501754Y-118404751D01*
X88832229Y-118090045D01*
X89095282Y-117717142D01*
X89280896Y-117300247D01*
X89381999Y-116855240D01*
X89389277Y-116334004D01*
X89300639Y-115886347D01*
X89126738Y-115464432D01*
X88874199Y-115084330D01*
X88552640Y-114760518D01*
X88174311Y-114505332D01*
X87753620Y-114328490D01*
X87306593Y-114236728D01*
X86850256Y-114233542D01*
X86401991Y-114319053D01*
X85978872Y-114490005D01*
X85597016Y-114739884D01*
X85270968Y-115059174D01*
X85013146Y-115435713D01*
X84833371Y-115855159D01*
X84738491Y-116301535D01*
X84732120Y-116757838D01*
X57827500Y-116757838D01*
X57827500Y-100161647D01*
X88423629Y-100161647D01*
X88675496Y-102407098D01*
X89358711Y-104560862D01*
X90447248Y-106540905D01*
X91899648Y-108271807D01*
X93660587Y-109687639D01*
X95662992Y-110734471D01*
X97830593Y-111372431D01*
X100080826Y-111577218D01*
X102327980Y-111341032D01*
X104486462Y-110672871D01*
X106474056Y-109598182D01*
X108215055Y-108157903D01*
X109643146Y-106406891D01*
X110703932Y-104411842D01*
X111071118Y-103195660D01*
X118669942Y-103195660D01*
X118752321Y-103644512D01*
X118920314Y-104068813D01*
X119167522Y-104452404D01*
X119484528Y-104780674D01*
X119859258Y-105041118D01*
X120277438Y-105223816D01*
X120723141Y-105321811D01*
X121179389Y-105331368D01*
X121628804Y-105252124D01*
X122054268Y-105087097D01*
X122439576Y-104842573D01*
X122770051Y-104527867D01*
X123033104Y-104154964D01*
X123218718Y-103738069D01*
X123319821Y-103293062D01*
X123327099Y-102771826D01*
X123238461Y-102324169D01*
X123064560Y-101902254D01*
X122812021Y-101522152D01*
X122490462Y-101198340D01*
X122112133Y-100943154D01*
X121691442Y-100766312D01*
X121244415Y-100674550D01*
X120788078Y-100671364D01*
X120339813Y-100756875D01*
X119916694Y-100927827D01*
X119534838Y-101177706D01*
X119208790Y-101496996D01*
X118950968Y-101873535D01*
X118771193Y-102292981D01*
X118676313Y-102739357D01*
X118669942Y-103195660D01*
X111071118Y-103195660D01*
X111357008Y-102248748D01*
X111577500Y-100000000D01*
X111572986Y-99676737D01*
X111289792Y-97435022D01*
X111210167Y-97195660D01*
X118669942Y-97195660D01*
X118752321Y-97644512D01*
X118920314Y-98068813D01*
X119167522Y-98452404D01*
X119484528Y-98780674D01*
X119859258Y-99041118D01*
X120277438Y-99223816D01*
X120723141Y-99321811D01*
X121179389Y-99331368D01*
X121628804Y-99252124D01*
X122054268Y-99087097D01*
X122439576Y-98842573D01*
X122770051Y-98527867D01*
X123033104Y-98154964D01*
X123218718Y-97738069D01*
X123319821Y-97293062D01*
X123327099Y-96771826D01*
X123238461Y-96324169D01*
X123064560Y-95902254D01*
X122812021Y-95522152D01*
X122490462Y-95198340D01*
X122112133Y-94943154D01*
X121691442Y-94766312D01*
X121244415Y-94674550D01*
X120788078Y-94671364D01*
X120339813Y-94756875D01*
X119916694Y-94927827D01*
X119534838Y-95177706D01*
X119208790Y-95496996D01*
X118950968Y-95873535D01*
X118771193Y-96292981D01*
X118676313Y-96739357D01*
X118669942Y-97195660D01*
X111210167Y-97195660D01*
X110576573Y-95291007D01*
X109460495Y-93326355D01*
X107984070Y-91615900D01*
X106203535Y-90224793D01*
X104186708Y-89206021D01*
X102010412Y-88598388D01*
X99757539Y-88425039D01*
X97513902Y-88692577D01*
X95364959Y-89390810D01*
X93392564Y-90493145D01*
X91671843Y-91957593D01*
X90268340Y-93728373D01*
X89235513Y-95738038D01*
X88612701Y-97910040D01*
X88423629Y-100161647D01*
X57827500Y-100161647D01*
X57827500Y-83566495D01*
X84527637Y-83566495D01*
X84610016Y-84015347D01*
X84778009Y-84439648D01*
X85025217Y-84823239D01*
X85342223Y-85151509D01*
X85716953Y-85411953D01*
X86135133Y-85594651D01*
X86580836Y-85692646D01*
X87037084Y-85702203D01*
X87486499Y-85622959D01*
X87911963Y-85457932D01*
X88297271Y-85213408D01*
X88627746Y-84898702D01*
X88890799Y-84525799D01*
X89076413Y-84108904D01*
X89177516Y-83663897D01*
X89184794Y-83142661D01*
X89096156Y-82695004D01*
X88922255Y-82273089D01*
X88669716Y-81892987D01*
X88348157Y-81569175D01*
X87969828Y-81313989D01*
X87549137Y-81137147D01*
X87102110Y-81045385D01*
X86645773Y-81042199D01*
X86197508Y-81127710D01*
X85774389Y-81298662D01*
X85392533Y-81548541D01*
X85066485Y-81867831D01*
X84808663Y-82244370D01*
X84628888Y-82663816D01*
X84534008Y-83110192D01*
X84527637Y-83566495D01*
X57827500Y-83566495D01*
X57827500Y-80566495D01*
X89723790Y-80566495D01*
X89806169Y-81015347D01*
X89974162Y-81439648D01*
X90221370Y-81823239D01*
X90538376Y-82151509D01*
X90913106Y-82411953D01*
X91331286Y-82594651D01*
X91776989Y-82692646D01*
X92233237Y-82702203D01*
X92682652Y-82622959D01*
X93108116Y-82457932D01*
X93493424Y-82213408D01*
X93823899Y-81898702D01*
X94086952Y-81525799D01*
X94272566Y-81108904D01*
X94373669Y-80663897D01*
X94380947Y-80142661D01*
X94292309Y-79695004D01*
X94118408Y-79273089D01*
X93865869Y-78892987D01*
X93544310Y-78569175D01*
X93165981Y-78313989D01*
X92745290Y-78137147D01*
X92298263Y-78045385D01*
X91841926Y-78042199D01*
X91393661Y-78127710D01*
X90970542Y-78298662D01*
X90588686Y-78548541D01*
X90262638Y-78867831D01*
X90004816Y-79244370D01*
X89825041Y-79663816D01*
X89730161Y-80110192D01*
X89723790Y-80566495D01*
X57827500Y-80566495D01*
X57827500Y-60973000D01*
X69915857Y-60973000D01*
X69915857Y-64327000D01*
X75084143Y-64327000D01*
X75084143Y-60973000D01*
X69915857Y-60973000D01*
X57827500Y-60973000D01*
X57827500Y-57827500D01*
X142172500Y-57827500D01*
X142172500Y-142172500D01*
M02*
