G04 #@! TF.FileFunction,Soldermask,Bot*
%FSLAX46Y46*%
G04 Gerber Fmt 4.6, Leading zero omitted, Abs format (unit mm)*
G04 Created by KiCad (PCBNEW 4.0.2-stable) date Fri 25 Nov 2016 08:04:00 PM CET*
%MOMM*%
G01*
G04 APERTURE LIST*
%ADD10C,0.100000*%
G04 APERTURE END LIST*
D10*
G36*
X124477562Y-128120672D02*
X124672280Y-128160642D01*
X124855525Y-128237670D01*
X125020321Y-128348827D01*
X125160389Y-128489876D01*
X125270388Y-128655439D01*
X125346136Y-128839217D01*
X125384643Y-129033693D01*
X125384643Y-129033705D01*
X125384743Y-129034211D01*
X125381573Y-129261252D01*
X125381459Y-129261753D01*
X125381459Y-129261771D01*
X125337538Y-129455090D01*
X125256688Y-129636682D01*
X125142105Y-129799113D01*
X124998155Y-129936195D01*
X124830319Y-130042706D01*
X124645000Y-130114588D01*
X124449239Y-130149105D01*
X124250500Y-130144942D01*
X124056365Y-130102258D01*
X123874212Y-130022679D01*
X123710985Y-129909233D01*
X123572901Y-129766241D01*
X123465223Y-129599158D01*
X123392049Y-129414341D01*
X123356165Y-129218827D01*
X123358940Y-129020066D01*
X123400268Y-128825635D01*
X123478575Y-128642931D01*
X123590877Y-128478918D01*
X123732904Y-128339836D01*
X123899226Y-128230997D01*
X124083533Y-128156532D01*
X124278794Y-128119284D01*
X124477562Y-128120672D01*
X124477562Y-128120672D01*
G37*
G36*
X172737562Y-128120672D02*
X172932280Y-128160642D01*
X173115525Y-128237670D01*
X173280321Y-128348827D01*
X173420389Y-128489876D01*
X173530388Y-128655439D01*
X173606136Y-128839217D01*
X173644643Y-129033693D01*
X173644643Y-129033705D01*
X173644743Y-129034211D01*
X173641573Y-129261252D01*
X173641459Y-129261753D01*
X173641459Y-129261771D01*
X173597538Y-129455090D01*
X173516688Y-129636682D01*
X173402105Y-129799113D01*
X173258155Y-129936195D01*
X173090319Y-130042706D01*
X172905000Y-130114588D01*
X172709239Y-130149105D01*
X172510500Y-130144942D01*
X172316365Y-130102258D01*
X172134212Y-130022679D01*
X171970985Y-129909233D01*
X171832901Y-129766241D01*
X171725223Y-129599158D01*
X171652049Y-129414341D01*
X171616165Y-129218827D01*
X171618940Y-129020066D01*
X171660268Y-128825635D01*
X171738575Y-128642931D01*
X171850877Y-128478918D01*
X171992904Y-128339836D01*
X172159226Y-128230997D01*
X172343533Y-128156532D01*
X172538794Y-128119284D01*
X172737562Y-128120672D01*
X172737562Y-128120672D01*
G37*
G36*
X165894384Y-127452162D02*
X165894400Y-127452167D01*
X165894457Y-127452173D01*
X166111843Y-127519466D01*
X166312019Y-127627700D01*
X166487359Y-127772755D01*
X166631186Y-127949103D01*
X166738021Y-128150030D01*
X166803794Y-128367881D01*
X166826000Y-128594358D01*
X166826000Y-128605767D01*
X166825908Y-128618873D01*
X166825907Y-128618879D01*
X166825886Y-128621922D01*
X166800520Y-128848067D01*
X166731712Y-129064978D01*
X166622082Y-129264394D01*
X166475807Y-129438717D01*
X166298459Y-129581309D01*
X166096791Y-129686738D01*
X165878487Y-129750989D01*
X165878433Y-129750994D01*
X165878416Y-129750999D01*
X165651863Y-129771617D01*
X165425616Y-129747838D01*
X165425600Y-129747833D01*
X165425543Y-129747827D01*
X165208157Y-129680534D01*
X165007981Y-129572300D01*
X164832641Y-129427245D01*
X164688814Y-129250897D01*
X164581979Y-129049970D01*
X164516206Y-128832119D01*
X164494000Y-128605642D01*
X164494000Y-128594233D01*
X164494092Y-128581127D01*
X164494093Y-128581121D01*
X164494114Y-128578078D01*
X164519480Y-128351933D01*
X164588288Y-128135022D01*
X164697918Y-127935606D01*
X164844193Y-127761283D01*
X165021541Y-127618691D01*
X165223209Y-127513262D01*
X165441513Y-127449011D01*
X165441567Y-127449006D01*
X165441584Y-127449001D01*
X165668137Y-127428383D01*
X165894384Y-127452162D01*
X165894384Y-127452162D01*
G37*
G36*
X151834384Y-127452162D02*
X151834400Y-127452167D01*
X151834457Y-127452173D01*
X152051843Y-127519466D01*
X152252019Y-127627700D01*
X152427359Y-127772755D01*
X152571186Y-127949103D01*
X152678021Y-128150030D01*
X152743794Y-128367881D01*
X152766000Y-128594358D01*
X152766000Y-128605767D01*
X152765908Y-128618873D01*
X152765907Y-128618879D01*
X152765886Y-128621922D01*
X152740520Y-128848067D01*
X152671712Y-129064978D01*
X152562082Y-129264394D01*
X152415807Y-129438717D01*
X152238459Y-129581309D01*
X152036791Y-129686738D01*
X151818487Y-129750989D01*
X151818433Y-129750994D01*
X151818416Y-129750999D01*
X151591863Y-129771617D01*
X151365616Y-129747838D01*
X151365600Y-129747833D01*
X151365543Y-129747827D01*
X151148157Y-129680534D01*
X150947981Y-129572300D01*
X150772641Y-129427245D01*
X150628814Y-129250897D01*
X150521979Y-129049970D01*
X150456206Y-128832119D01*
X150434000Y-128605642D01*
X150434000Y-128594233D01*
X150434092Y-128581127D01*
X150434093Y-128581121D01*
X150434114Y-128578078D01*
X150459480Y-128351933D01*
X150528288Y-128135022D01*
X150637918Y-127935606D01*
X150784193Y-127761283D01*
X150961541Y-127618691D01*
X151163209Y-127513262D01*
X151381513Y-127449011D01*
X151381567Y-127449006D01*
X151381584Y-127449001D01*
X151608137Y-127428383D01*
X151834384Y-127452162D01*
X151834384Y-127452162D01*
G37*
G36*
X142894384Y-127452162D02*
X142894400Y-127452167D01*
X142894457Y-127452173D01*
X143111843Y-127519466D01*
X143312019Y-127627700D01*
X143487359Y-127772755D01*
X143631186Y-127949103D01*
X143738021Y-128150030D01*
X143803794Y-128367881D01*
X143826000Y-128594358D01*
X143826000Y-128605767D01*
X143825908Y-128618873D01*
X143825907Y-128618879D01*
X143825886Y-128621922D01*
X143800520Y-128848067D01*
X143731712Y-129064978D01*
X143622082Y-129264394D01*
X143475807Y-129438717D01*
X143298459Y-129581309D01*
X143096791Y-129686738D01*
X142878487Y-129750989D01*
X142878433Y-129750994D01*
X142878416Y-129750999D01*
X142651863Y-129771617D01*
X142425616Y-129747838D01*
X142425600Y-129747833D01*
X142425543Y-129747827D01*
X142208157Y-129680534D01*
X142007981Y-129572300D01*
X141832641Y-129427245D01*
X141688814Y-129250897D01*
X141581979Y-129049970D01*
X141516206Y-128832119D01*
X141494000Y-128605642D01*
X141494000Y-128594233D01*
X141494092Y-128581127D01*
X141494093Y-128581121D01*
X141494114Y-128578078D01*
X141519480Y-128351933D01*
X141588288Y-128135022D01*
X141697918Y-127935606D01*
X141844193Y-127761283D01*
X142021541Y-127618691D01*
X142223209Y-127513262D01*
X142441513Y-127449011D01*
X142441567Y-127449006D01*
X142441584Y-127449001D01*
X142668137Y-127428383D01*
X142894384Y-127452162D01*
X142894384Y-127452162D01*
G37*
G36*
X146366000Y-129766000D02*
X144034000Y-129766000D01*
X144034000Y-127434000D01*
X146366000Y-127434000D01*
X146366000Y-129766000D01*
X146366000Y-129766000D01*
G37*
G36*
X169366000Y-129766000D02*
X167034000Y-129766000D01*
X167034000Y-127434000D01*
X169366000Y-127434000D01*
X169366000Y-129766000D01*
X169366000Y-129766000D01*
G37*
G36*
X155306000Y-129766000D02*
X152974000Y-129766000D01*
X152974000Y-127434000D01*
X155306000Y-127434000D01*
X155306000Y-129766000D01*
X155306000Y-129766000D01*
G37*
G36*
X124477562Y-125580672D02*
X124672280Y-125620642D01*
X124855525Y-125697670D01*
X125020321Y-125808827D01*
X125160389Y-125949876D01*
X125270388Y-126115439D01*
X125346136Y-126299217D01*
X125384643Y-126493693D01*
X125384643Y-126493705D01*
X125384743Y-126494211D01*
X125381573Y-126721252D01*
X125381459Y-126721753D01*
X125381459Y-126721771D01*
X125337538Y-126915090D01*
X125256688Y-127096682D01*
X125142105Y-127259113D01*
X124998155Y-127396195D01*
X124830319Y-127502706D01*
X124645000Y-127574588D01*
X124449239Y-127609105D01*
X124250500Y-127604942D01*
X124056365Y-127562258D01*
X123874212Y-127482679D01*
X123710985Y-127369233D01*
X123572901Y-127226241D01*
X123465223Y-127059158D01*
X123392049Y-126874341D01*
X123356165Y-126678827D01*
X123358940Y-126480066D01*
X123400268Y-126285635D01*
X123478575Y-126102931D01*
X123590877Y-125938918D01*
X123732904Y-125799836D01*
X123899226Y-125690997D01*
X124083533Y-125616532D01*
X124278794Y-125579284D01*
X124477562Y-125580672D01*
X124477562Y-125580672D01*
G37*
G36*
X172737562Y-125580672D02*
X172932280Y-125620642D01*
X173115525Y-125697670D01*
X173280321Y-125808827D01*
X173420389Y-125949876D01*
X173530388Y-126115439D01*
X173606136Y-126299217D01*
X173644643Y-126493693D01*
X173644643Y-126493705D01*
X173644743Y-126494211D01*
X173641573Y-126721252D01*
X173641459Y-126721753D01*
X173641459Y-126721771D01*
X173597538Y-126915090D01*
X173516688Y-127096682D01*
X173402105Y-127259113D01*
X173258155Y-127396195D01*
X173090319Y-127502706D01*
X172905000Y-127574588D01*
X172709239Y-127609105D01*
X172510500Y-127604942D01*
X172316365Y-127562258D01*
X172134212Y-127482679D01*
X171970985Y-127369233D01*
X171832901Y-127226241D01*
X171725223Y-127059158D01*
X171652049Y-126874341D01*
X171616165Y-126678827D01*
X171618940Y-126480066D01*
X171660268Y-126285635D01*
X171738575Y-126102931D01*
X171850877Y-125938918D01*
X171992904Y-125799836D01*
X172159226Y-125690997D01*
X172343533Y-125616532D01*
X172538794Y-125579284D01*
X172737562Y-125580672D01*
X172737562Y-125580672D01*
G37*
G36*
X172737562Y-123040672D02*
X172932280Y-123080642D01*
X173115525Y-123157670D01*
X173280321Y-123268827D01*
X173420389Y-123409876D01*
X173530388Y-123575439D01*
X173606136Y-123759217D01*
X173644643Y-123953693D01*
X173644643Y-123953705D01*
X173644743Y-123954211D01*
X173641573Y-124181252D01*
X173641459Y-124181753D01*
X173641459Y-124181771D01*
X173597538Y-124375090D01*
X173516688Y-124556682D01*
X173402105Y-124719113D01*
X173258155Y-124856195D01*
X173090319Y-124962706D01*
X172905000Y-125034588D01*
X172709239Y-125069105D01*
X172510500Y-125064942D01*
X172316365Y-125022258D01*
X172134212Y-124942679D01*
X171970985Y-124829233D01*
X171832901Y-124686241D01*
X171725223Y-124519158D01*
X171652049Y-124334341D01*
X171616165Y-124138827D01*
X171618940Y-123940066D01*
X171660268Y-123745635D01*
X171738575Y-123562931D01*
X171850877Y-123398918D01*
X171992904Y-123259836D01*
X172159226Y-123150997D01*
X172343533Y-123076532D01*
X172538794Y-123039284D01*
X172737562Y-123040672D01*
X172737562Y-123040672D01*
G37*
G36*
X124477562Y-123040672D02*
X124672280Y-123080642D01*
X124855525Y-123157670D01*
X125020321Y-123268827D01*
X125160389Y-123409876D01*
X125270388Y-123575439D01*
X125346136Y-123759217D01*
X125384643Y-123953693D01*
X125384643Y-123953705D01*
X125384743Y-123954211D01*
X125381573Y-124181252D01*
X125381459Y-124181753D01*
X125381459Y-124181771D01*
X125337538Y-124375090D01*
X125256688Y-124556682D01*
X125142105Y-124719113D01*
X124998155Y-124856195D01*
X124830319Y-124962706D01*
X124645000Y-125034588D01*
X124449239Y-125069105D01*
X124250500Y-125064942D01*
X124056365Y-125022258D01*
X123874212Y-124942679D01*
X123710985Y-124829233D01*
X123572901Y-124686241D01*
X123465223Y-124519158D01*
X123392049Y-124334341D01*
X123356165Y-124138827D01*
X123358940Y-123940066D01*
X123400268Y-123745635D01*
X123478575Y-123562931D01*
X123590877Y-123398918D01*
X123732904Y-123259836D01*
X123899226Y-123150997D01*
X124083533Y-123076532D01*
X124278794Y-123039284D01*
X124477562Y-123040672D01*
X124477562Y-123040672D01*
G37*
G36*
X141966000Y-124153600D02*
X139634000Y-124153600D01*
X139634000Y-122126400D01*
X141966000Y-122126400D01*
X141966000Y-124153600D01*
X141966000Y-124153600D01*
G37*
G36*
X172737562Y-120500672D02*
X172932280Y-120540642D01*
X173115525Y-120617670D01*
X173280321Y-120728827D01*
X173420389Y-120869876D01*
X173530388Y-121035439D01*
X173606136Y-121219217D01*
X173644643Y-121413693D01*
X173644643Y-121413705D01*
X173644743Y-121414211D01*
X173641573Y-121641252D01*
X173641459Y-121641753D01*
X173641459Y-121641771D01*
X173597538Y-121835090D01*
X173516688Y-122016682D01*
X173402105Y-122179113D01*
X173258155Y-122316195D01*
X173090319Y-122422706D01*
X172905000Y-122494588D01*
X172709239Y-122529105D01*
X172510500Y-122524942D01*
X172316365Y-122482258D01*
X172134212Y-122402679D01*
X171970985Y-122289233D01*
X171832901Y-122146241D01*
X171725223Y-121979158D01*
X171652049Y-121794341D01*
X171616165Y-121598827D01*
X171618940Y-121400066D01*
X171660268Y-121205635D01*
X171738575Y-121022931D01*
X171850877Y-120858918D01*
X171992904Y-120719836D01*
X172159226Y-120610997D01*
X172343533Y-120536532D01*
X172538794Y-120499284D01*
X172737562Y-120500672D01*
X172737562Y-120500672D01*
G37*
G36*
X124477562Y-120500672D02*
X124672280Y-120540642D01*
X124855525Y-120617670D01*
X125020321Y-120728827D01*
X125160389Y-120869876D01*
X125270388Y-121035439D01*
X125346136Y-121219217D01*
X125384643Y-121413693D01*
X125384643Y-121413705D01*
X125384743Y-121414211D01*
X125381573Y-121641252D01*
X125381459Y-121641753D01*
X125381459Y-121641771D01*
X125337538Y-121835090D01*
X125256688Y-122016682D01*
X125142105Y-122179113D01*
X124998155Y-122316195D01*
X124830319Y-122422706D01*
X124645000Y-122494588D01*
X124449239Y-122529105D01*
X124250500Y-122524942D01*
X124056365Y-122482258D01*
X123874212Y-122402679D01*
X123710985Y-122289233D01*
X123572901Y-122146241D01*
X123465223Y-121979158D01*
X123392049Y-121794341D01*
X123356165Y-121598827D01*
X123358940Y-121400066D01*
X123400268Y-121205635D01*
X123478575Y-121022931D01*
X123590877Y-120858918D01*
X123732904Y-120719836D01*
X123899226Y-120610997D01*
X124083533Y-120536532D01*
X124278794Y-120499284D01*
X124477562Y-120500672D01*
X124477562Y-120500672D01*
G37*
G36*
X140969145Y-119586477D02*
X140969151Y-119586478D01*
X140972194Y-119586499D01*
X141168781Y-119608550D01*
X141357342Y-119668364D01*
X141530693Y-119763665D01*
X141682232Y-119890821D01*
X141806186Y-120044990D01*
X141897836Y-120220299D01*
X141953688Y-120410070D01*
X141953693Y-120410122D01*
X141953699Y-120410143D01*
X141971620Y-120607073D01*
X141950951Y-120803738D01*
X141950945Y-120803758D01*
X141950939Y-120803813D01*
X141892442Y-120992786D01*
X141798354Y-121166798D01*
X141672259Y-121319221D01*
X141518960Y-121444249D01*
X141344295Y-121537120D01*
X141154918Y-121594296D01*
X140958042Y-121613600D01*
X140641831Y-121613600D01*
X140630855Y-121613523D01*
X140630849Y-121613522D01*
X140627806Y-121613501D01*
X140431219Y-121591450D01*
X140242658Y-121531636D01*
X140069307Y-121436335D01*
X139917768Y-121309179D01*
X139793814Y-121155010D01*
X139702164Y-120979701D01*
X139646312Y-120789930D01*
X139646307Y-120789878D01*
X139646301Y-120789857D01*
X139628380Y-120592927D01*
X139649049Y-120396262D01*
X139649055Y-120396242D01*
X139649061Y-120396187D01*
X139707558Y-120207214D01*
X139801646Y-120033202D01*
X139927741Y-119880779D01*
X140081040Y-119755751D01*
X140255705Y-119662880D01*
X140445082Y-119605704D01*
X140641958Y-119586400D01*
X140958169Y-119586400D01*
X140969145Y-119586477D01*
X140969145Y-119586477D01*
G37*
G36*
X172737562Y-117960672D02*
X172932280Y-118000642D01*
X173115525Y-118077670D01*
X173280321Y-118188827D01*
X173420389Y-118329876D01*
X173530388Y-118495439D01*
X173606136Y-118679217D01*
X173644643Y-118873693D01*
X173644643Y-118873705D01*
X173644743Y-118874211D01*
X173641573Y-119101252D01*
X173641459Y-119101753D01*
X173641459Y-119101771D01*
X173597538Y-119295090D01*
X173516688Y-119476682D01*
X173402105Y-119639113D01*
X173258155Y-119776195D01*
X173090319Y-119882706D01*
X172905000Y-119954588D01*
X172709239Y-119989105D01*
X172510500Y-119984942D01*
X172316365Y-119942258D01*
X172134212Y-119862679D01*
X171970985Y-119749233D01*
X171832901Y-119606241D01*
X171725223Y-119439158D01*
X171652049Y-119254341D01*
X171616165Y-119058827D01*
X171618940Y-118860066D01*
X171660268Y-118665635D01*
X171738575Y-118482931D01*
X171850877Y-118318918D01*
X171992904Y-118179836D01*
X172159226Y-118070997D01*
X172343533Y-117996532D01*
X172538794Y-117959284D01*
X172737562Y-117960672D01*
X172737562Y-117960672D01*
G37*
G36*
X124477562Y-117960672D02*
X124672280Y-118000642D01*
X124855525Y-118077670D01*
X125020321Y-118188827D01*
X125160389Y-118329876D01*
X125270388Y-118495439D01*
X125346136Y-118679217D01*
X125384643Y-118873693D01*
X125384643Y-118873705D01*
X125384743Y-118874211D01*
X125381573Y-119101252D01*
X125381459Y-119101753D01*
X125381459Y-119101771D01*
X125337538Y-119295090D01*
X125256688Y-119476682D01*
X125142105Y-119639113D01*
X124998155Y-119776195D01*
X124830319Y-119882706D01*
X124645000Y-119954588D01*
X124449239Y-119989105D01*
X124250500Y-119984942D01*
X124056365Y-119942258D01*
X123874212Y-119862679D01*
X123710985Y-119749233D01*
X123572901Y-119606241D01*
X123465223Y-119439158D01*
X123392049Y-119254341D01*
X123356165Y-119058827D01*
X123358940Y-118860066D01*
X123400268Y-118665635D01*
X123478575Y-118482931D01*
X123590877Y-118318918D01*
X123732904Y-118179836D01*
X123899226Y-118070997D01*
X124083533Y-117996532D01*
X124278794Y-117959284D01*
X124477562Y-117960672D01*
X124477562Y-117960672D01*
G37*
G36*
X136225824Y-115351429D02*
X136638847Y-115436210D01*
X137027543Y-115599603D01*
X137377093Y-115835377D01*
X137674198Y-116134562D01*
X137907525Y-116485749D01*
X138068198Y-116875572D01*
X138149993Y-117288663D01*
X138149993Y-117288681D01*
X138150092Y-117289182D01*
X138143368Y-117770770D01*
X138143253Y-117771275D01*
X138143253Y-117771289D01*
X138049958Y-118181929D01*
X137878462Y-118567115D01*
X137635417Y-118911655D01*
X137330081Y-119202422D01*
X136974077Y-119428349D01*
X136580980Y-119580821D01*
X136165744Y-119654039D01*
X135744194Y-119645209D01*
X135332398Y-119554669D01*
X134946027Y-119385868D01*
X134599795Y-119145230D01*
X134306904Y-118841932D01*
X134078499Y-118487518D01*
X133923285Y-118095492D01*
X133847171Y-117680779D01*
X133853057Y-117259180D01*
X133940721Y-116846759D01*
X134106820Y-116459220D01*
X134345034Y-116111317D01*
X134646286Y-115816311D01*
X134999090Y-115585441D01*
X135390027Y-115427492D01*
X135804200Y-115348485D01*
X136225824Y-115351429D01*
X136225824Y-115351429D01*
G37*
G36*
X161225824Y-115351429D02*
X161638847Y-115436210D01*
X162027543Y-115599603D01*
X162377093Y-115835377D01*
X162674198Y-116134562D01*
X162907525Y-116485749D01*
X163068198Y-116875572D01*
X163149993Y-117288663D01*
X163149993Y-117288681D01*
X163150092Y-117289182D01*
X163143368Y-117770770D01*
X163143253Y-117771275D01*
X163143253Y-117771289D01*
X163049958Y-118181929D01*
X162878462Y-118567115D01*
X162635417Y-118911655D01*
X162330081Y-119202422D01*
X161974077Y-119428349D01*
X161580980Y-119580821D01*
X161165744Y-119654039D01*
X160744194Y-119645209D01*
X160332398Y-119554669D01*
X159946027Y-119385868D01*
X159599795Y-119145230D01*
X159306904Y-118841932D01*
X159078499Y-118487518D01*
X158923285Y-118095492D01*
X158847171Y-117680779D01*
X158853057Y-117259180D01*
X158940721Y-116846759D01*
X159106820Y-116459220D01*
X159345034Y-116111317D01*
X159646286Y-115816311D01*
X159999090Y-115585441D01*
X160390027Y-115427492D01*
X160804200Y-115348485D01*
X161225824Y-115351429D01*
X161225824Y-115351429D01*
G37*
G36*
X157267600Y-119467600D02*
X154732400Y-119467600D01*
X154732400Y-116932400D01*
X157267600Y-116932400D01*
X157267600Y-119467600D01*
X157267600Y-119467600D01*
G37*
G36*
X140969145Y-117046477D02*
X140969151Y-117046478D01*
X140972194Y-117046499D01*
X141168781Y-117068550D01*
X141357342Y-117128364D01*
X141530693Y-117223665D01*
X141682232Y-117350821D01*
X141806186Y-117504990D01*
X141897836Y-117680299D01*
X141953688Y-117870070D01*
X141953693Y-117870122D01*
X141953699Y-117870143D01*
X141971620Y-118067073D01*
X141950951Y-118263738D01*
X141950945Y-118263758D01*
X141950939Y-118263813D01*
X141892442Y-118452786D01*
X141798354Y-118626798D01*
X141672259Y-118779221D01*
X141518960Y-118904249D01*
X141344295Y-118997120D01*
X141154918Y-119054296D01*
X140958042Y-119073600D01*
X140641831Y-119073600D01*
X140630855Y-119073523D01*
X140630849Y-119073522D01*
X140627806Y-119073501D01*
X140431219Y-119051450D01*
X140242658Y-118991636D01*
X140069307Y-118896335D01*
X139917768Y-118769179D01*
X139793814Y-118615010D01*
X139702164Y-118439701D01*
X139646312Y-118249930D01*
X139646307Y-118249878D01*
X139646301Y-118249857D01*
X139628380Y-118052927D01*
X139649049Y-117856262D01*
X139649055Y-117856242D01*
X139649061Y-117856187D01*
X139707558Y-117667214D01*
X139801646Y-117493202D01*
X139927741Y-117340779D01*
X140081040Y-117215751D01*
X140255705Y-117122880D01*
X140445082Y-117065704D01*
X140641958Y-117046400D01*
X140958169Y-117046400D01*
X140969145Y-117046477D01*
X140969145Y-117046477D01*
G37*
G36*
X124477562Y-115420672D02*
X124672280Y-115460642D01*
X124855525Y-115537670D01*
X125020321Y-115648827D01*
X125160389Y-115789876D01*
X125270388Y-115955439D01*
X125346136Y-116139217D01*
X125384643Y-116333693D01*
X125384643Y-116333705D01*
X125384743Y-116334211D01*
X125381573Y-116561252D01*
X125381459Y-116561753D01*
X125381459Y-116561771D01*
X125337538Y-116755090D01*
X125256688Y-116936682D01*
X125142105Y-117099113D01*
X124998155Y-117236195D01*
X124830319Y-117342706D01*
X124645000Y-117414588D01*
X124449239Y-117449105D01*
X124250500Y-117444942D01*
X124056365Y-117402258D01*
X123874212Y-117322679D01*
X123710985Y-117209233D01*
X123572901Y-117066241D01*
X123465223Y-116899158D01*
X123392049Y-116714341D01*
X123356165Y-116518827D01*
X123358940Y-116320066D01*
X123400268Y-116125635D01*
X123478575Y-115942931D01*
X123590877Y-115778918D01*
X123732904Y-115639836D01*
X123899226Y-115530997D01*
X124083533Y-115456532D01*
X124278794Y-115419284D01*
X124477562Y-115420672D01*
X124477562Y-115420672D01*
G37*
G36*
X172737562Y-115420672D02*
X172932280Y-115460642D01*
X173115525Y-115537670D01*
X173280321Y-115648827D01*
X173420389Y-115789876D01*
X173530388Y-115955439D01*
X173606136Y-116139217D01*
X173644643Y-116333693D01*
X173644643Y-116333705D01*
X173644743Y-116334211D01*
X173641573Y-116561252D01*
X173641459Y-116561753D01*
X173641459Y-116561771D01*
X173597538Y-116755090D01*
X173516688Y-116936682D01*
X173402105Y-117099113D01*
X173258155Y-117236195D01*
X173090319Y-117342706D01*
X172905000Y-117414588D01*
X172709239Y-117449105D01*
X172510500Y-117444942D01*
X172316365Y-117402258D01*
X172134212Y-117322679D01*
X171970985Y-117209233D01*
X171832901Y-117066241D01*
X171725223Y-116899158D01*
X171652049Y-116714341D01*
X171616165Y-116518827D01*
X171618940Y-116320066D01*
X171660268Y-116125635D01*
X171738575Y-115942931D01*
X171850877Y-115778918D01*
X171992904Y-115639836D01*
X172159226Y-115530997D01*
X172343533Y-115456532D01*
X172538794Y-115419284D01*
X172737562Y-115420672D01*
X172737562Y-115420672D01*
G37*
G36*
X169169145Y-115406477D02*
X169169151Y-115406478D01*
X169172194Y-115406499D01*
X169368781Y-115428550D01*
X169557342Y-115488364D01*
X169730693Y-115583665D01*
X169882232Y-115710821D01*
X170006186Y-115864990D01*
X170097836Y-116040299D01*
X170153688Y-116230070D01*
X170153693Y-116230122D01*
X170153699Y-116230143D01*
X170171620Y-116427073D01*
X170150951Y-116623738D01*
X170150945Y-116623758D01*
X170150939Y-116623813D01*
X170092442Y-116812786D01*
X169998354Y-116986798D01*
X169872259Y-117139221D01*
X169718960Y-117264249D01*
X169544295Y-117357120D01*
X169354918Y-117414296D01*
X169158042Y-117433600D01*
X168841831Y-117433600D01*
X168830855Y-117433523D01*
X168830849Y-117433522D01*
X168827806Y-117433501D01*
X168631219Y-117411450D01*
X168442658Y-117351636D01*
X168269307Y-117256335D01*
X168117768Y-117129179D01*
X167993814Y-116975010D01*
X167902164Y-116799701D01*
X167846312Y-116609930D01*
X167846307Y-116609878D01*
X167846301Y-116609857D01*
X167828380Y-116412927D01*
X167849049Y-116216262D01*
X167849055Y-116216242D01*
X167849061Y-116216187D01*
X167907558Y-116027214D01*
X168001646Y-115853202D01*
X168127741Y-115700779D01*
X168281040Y-115575751D01*
X168455705Y-115482880D01*
X168645082Y-115425704D01*
X168841958Y-115406400D01*
X169158169Y-115406400D01*
X169169145Y-115406477D01*
X169169145Y-115406477D01*
G37*
G36*
X172737562Y-112880672D02*
X172932280Y-112920642D01*
X173115525Y-112997670D01*
X173280321Y-113108827D01*
X173420389Y-113249876D01*
X173530388Y-113415439D01*
X173606136Y-113599217D01*
X173644643Y-113793693D01*
X173644643Y-113793705D01*
X173644743Y-113794211D01*
X173641573Y-114021252D01*
X173641459Y-114021753D01*
X173641459Y-114021771D01*
X173597538Y-114215090D01*
X173516688Y-114396682D01*
X173402105Y-114559113D01*
X173258155Y-114696195D01*
X173090319Y-114802706D01*
X172905000Y-114874588D01*
X172709239Y-114909105D01*
X172510500Y-114904942D01*
X172316365Y-114862258D01*
X172134212Y-114782679D01*
X171970985Y-114669233D01*
X171832901Y-114526241D01*
X171725223Y-114359158D01*
X171652049Y-114174341D01*
X171616165Y-113978827D01*
X171618940Y-113780066D01*
X171660268Y-113585635D01*
X171738575Y-113402931D01*
X171850877Y-113238918D01*
X171992904Y-113099836D01*
X172159226Y-112990997D01*
X172343533Y-112916532D01*
X172538794Y-112879284D01*
X172737562Y-112880672D01*
X172737562Y-112880672D01*
G37*
G36*
X124477562Y-112880672D02*
X124672280Y-112920642D01*
X124855525Y-112997670D01*
X125020321Y-113108827D01*
X125160389Y-113249876D01*
X125270388Y-113415439D01*
X125346136Y-113599217D01*
X125384643Y-113793693D01*
X125384643Y-113793705D01*
X125384743Y-113794211D01*
X125381573Y-114021252D01*
X125381459Y-114021753D01*
X125381459Y-114021771D01*
X125337538Y-114215090D01*
X125256688Y-114396682D01*
X125142105Y-114559113D01*
X124998155Y-114696195D01*
X124830319Y-114802706D01*
X124645000Y-114874588D01*
X124449239Y-114909105D01*
X124250500Y-114904942D01*
X124056365Y-114862258D01*
X123874212Y-114782679D01*
X123710985Y-114669233D01*
X123572901Y-114526241D01*
X123465223Y-114359158D01*
X123392049Y-114174341D01*
X123356165Y-113978827D01*
X123358940Y-113780066D01*
X123400268Y-113585635D01*
X123478575Y-113402931D01*
X123590877Y-113238918D01*
X123732904Y-113099836D01*
X123899226Y-112990997D01*
X124083533Y-112916532D01*
X124278794Y-112879284D01*
X124477562Y-112880672D01*
X124477562Y-112880672D01*
G37*
G36*
X169169145Y-112866477D02*
X169169151Y-112866478D01*
X169172194Y-112866499D01*
X169368781Y-112888550D01*
X169557342Y-112948364D01*
X169730693Y-113043665D01*
X169882232Y-113170821D01*
X170006186Y-113324990D01*
X170097836Y-113500299D01*
X170153688Y-113690070D01*
X170153693Y-113690122D01*
X170153699Y-113690143D01*
X170171620Y-113887073D01*
X170150951Y-114083738D01*
X170150945Y-114083758D01*
X170150939Y-114083813D01*
X170092442Y-114272786D01*
X169998354Y-114446798D01*
X169872259Y-114599221D01*
X169718960Y-114724249D01*
X169544295Y-114817120D01*
X169354918Y-114874296D01*
X169158042Y-114893600D01*
X168841831Y-114893600D01*
X168830855Y-114893523D01*
X168830849Y-114893522D01*
X168827806Y-114893501D01*
X168631219Y-114871450D01*
X168442658Y-114811636D01*
X168269307Y-114716335D01*
X168117768Y-114589179D01*
X167993814Y-114435010D01*
X167902164Y-114259701D01*
X167846312Y-114069930D01*
X167846307Y-114069878D01*
X167846301Y-114069857D01*
X167828380Y-113872927D01*
X167849049Y-113676262D01*
X167849055Y-113676242D01*
X167849061Y-113676187D01*
X167907558Y-113487214D01*
X168001646Y-113313202D01*
X168127741Y-113160779D01*
X168281040Y-113035751D01*
X168455705Y-112942880D01*
X168645082Y-112885704D01*
X168841958Y-112866400D01*
X169158169Y-112866400D01*
X169169145Y-112866477D01*
X169169145Y-112866477D01*
G37*
G36*
X132595791Y-112978604D02*
X132770989Y-113014567D01*
X132935872Y-113083877D01*
X133084147Y-113183889D01*
X133210170Y-113310796D01*
X133309148Y-113459770D01*
X133377303Y-113625125D01*
X133411940Y-113800055D01*
X133411940Y-113800073D01*
X133412039Y-113800574D01*
X133409187Y-114004857D01*
X133409073Y-114005358D01*
X133409073Y-114005375D01*
X133369566Y-114179265D01*
X133296819Y-114342657D01*
X133193723Y-114488806D01*
X133064204Y-114612144D01*
X132913189Y-114707981D01*
X132746445Y-114772658D01*
X132570307Y-114803715D01*
X132391488Y-114799969D01*
X132216812Y-114761564D01*
X132052919Y-114689961D01*
X131906052Y-114587886D01*
X131781809Y-114459227D01*
X131684924Y-114308893D01*
X131619085Y-114142601D01*
X131586798Y-113966685D01*
X131589295Y-113787846D01*
X131626480Y-113612904D01*
X131696938Y-113448512D01*
X131797985Y-113300939D01*
X131925771Y-113175801D01*
X132075424Y-113077871D01*
X132241259Y-113010869D01*
X132416946Y-112977355D01*
X132595791Y-112978604D01*
X132595791Y-112978604D01*
G37*
G36*
X161082470Y-111794773D02*
X161306462Y-111840752D01*
X161517265Y-111929365D01*
X161706833Y-112057230D01*
X161867963Y-112219488D01*
X161994501Y-112409945D01*
X162081638Y-112621355D01*
X162125951Y-112845150D01*
X162125951Y-112845167D01*
X162126050Y-112845668D01*
X162122403Y-113106846D01*
X162122289Y-113107347D01*
X162122289Y-113107364D01*
X162071746Y-113329828D01*
X161978740Y-113538725D01*
X161846930Y-113725578D01*
X161681339Y-113883267D01*
X161488266Y-114005795D01*
X161275082Y-114088484D01*
X161049887Y-114128192D01*
X160821268Y-114123403D01*
X160597942Y-114074301D01*
X160388401Y-113982755D01*
X160200635Y-113852255D01*
X160041787Y-113687762D01*
X159917919Y-113495557D01*
X159833743Y-113282951D01*
X159792464Y-113058042D01*
X159795656Y-112829396D01*
X159843198Y-112605730D01*
X159933279Y-112395555D01*
X160062468Y-112206881D01*
X160225843Y-112046892D01*
X160417178Y-111921686D01*
X160629196Y-111836025D01*
X160853815Y-111793176D01*
X161082470Y-111794773D01*
X161082470Y-111794773D01*
G37*
G36*
X140762470Y-111794773D02*
X140986462Y-111840752D01*
X141197265Y-111929365D01*
X141386833Y-112057230D01*
X141547963Y-112219488D01*
X141674501Y-112409945D01*
X141761638Y-112621355D01*
X141805951Y-112845150D01*
X141805951Y-112845167D01*
X141806050Y-112845668D01*
X141802403Y-113106846D01*
X141802289Y-113107347D01*
X141802289Y-113107364D01*
X141751746Y-113329828D01*
X141658740Y-113538725D01*
X141526930Y-113725578D01*
X141361339Y-113883267D01*
X141168266Y-114005795D01*
X140955082Y-114088484D01*
X140729887Y-114128192D01*
X140501268Y-114123403D01*
X140277942Y-114074301D01*
X140068401Y-113982755D01*
X139880635Y-113852255D01*
X139721787Y-113687762D01*
X139597919Y-113495557D01*
X139513743Y-113282951D01*
X139472464Y-113058042D01*
X139475656Y-112829396D01*
X139523198Y-112605730D01*
X139613279Y-112395555D01*
X139742468Y-112206881D01*
X139905843Y-112046892D01*
X140097178Y-111921686D01*
X140309196Y-111836025D01*
X140533815Y-111793176D01*
X140762470Y-111794773D01*
X140762470Y-111794773D01*
G37*
G36*
X172737562Y-110340672D02*
X172932280Y-110380642D01*
X173115525Y-110457670D01*
X173280321Y-110568827D01*
X173420389Y-110709876D01*
X173530388Y-110875439D01*
X173606136Y-111059217D01*
X173644643Y-111253693D01*
X173644643Y-111253705D01*
X173644743Y-111254211D01*
X173641573Y-111481252D01*
X173641459Y-111481753D01*
X173641459Y-111481771D01*
X173597538Y-111675090D01*
X173516688Y-111856682D01*
X173402105Y-112019113D01*
X173258155Y-112156195D01*
X173090319Y-112262706D01*
X172905000Y-112334588D01*
X172709239Y-112369105D01*
X172510500Y-112364942D01*
X172316365Y-112322258D01*
X172134212Y-112242679D01*
X171970985Y-112129233D01*
X171832901Y-111986241D01*
X171725223Y-111819158D01*
X171652049Y-111634341D01*
X171616165Y-111438827D01*
X171618940Y-111240066D01*
X171660268Y-111045635D01*
X171738575Y-110862931D01*
X171850877Y-110698918D01*
X171992904Y-110559836D01*
X172159226Y-110450997D01*
X172343533Y-110376532D01*
X172538794Y-110339284D01*
X172737562Y-110340672D01*
X172737562Y-110340672D01*
G37*
G36*
X124477562Y-110340672D02*
X124672280Y-110380642D01*
X124855525Y-110457670D01*
X125020321Y-110568827D01*
X125160389Y-110709876D01*
X125270388Y-110875439D01*
X125346136Y-111059217D01*
X125384643Y-111253693D01*
X125384643Y-111253705D01*
X125384743Y-111254211D01*
X125381573Y-111481252D01*
X125381459Y-111481753D01*
X125381459Y-111481771D01*
X125337538Y-111675090D01*
X125256688Y-111856682D01*
X125142105Y-112019113D01*
X124998155Y-112156195D01*
X124830319Y-112262706D01*
X124645000Y-112334588D01*
X124449239Y-112369105D01*
X124250500Y-112364942D01*
X124056365Y-112322258D01*
X123874212Y-112242679D01*
X123710985Y-112129233D01*
X123572901Y-111986241D01*
X123465223Y-111819158D01*
X123392049Y-111634341D01*
X123356165Y-111438827D01*
X123358940Y-111240066D01*
X123400268Y-111045635D01*
X123478575Y-110862931D01*
X123590877Y-110698918D01*
X123732904Y-110559836D01*
X123899226Y-110450997D01*
X124083533Y-110376532D01*
X124278794Y-110339284D01*
X124477562Y-110340672D01*
X124477562Y-110340672D01*
G37*
G36*
X169169145Y-110326477D02*
X169169151Y-110326478D01*
X169172194Y-110326499D01*
X169368781Y-110348550D01*
X169557342Y-110408364D01*
X169730693Y-110503665D01*
X169882232Y-110630821D01*
X170006186Y-110784990D01*
X170097836Y-110960299D01*
X170153688Y-111150070D01*
X170153693Y-111150122D01*
X170153699Y-111150143D01*
X170171620Y-111347073D01*
X170150951Y-111543738D01*
X170150945Y-111543758D01*
X170150939Y-111543813D01*
X170092442Y-111732786D01*
X169998354Y-111906798D01*
X169872259Y-112059221D01*
X169718960Y-112184249D01*
X169544295Y-112277120D01*
X169354918Y-112334296D01*
X169158042Y-112353600D01*
X168841831Y-112353600D01*
X168830855Y-112353523D01*
X168830849Y-112353522D01*
X168827806Y-112353501D01*
X168631219Y-112331450D01*
X168442658Y-112271636D01*
X168269307Y-112176335D01*
X168117768Y-112049179D01*
X167993814Y-111895010D01*
X167902164Y-111719701D01*
X167846312Y-111529930D01*
X167846307Y-111529878D01*
X167846301Y-111529857D01*
X167828380Y-111332927D01*
X167849049Y-111136262D01*
X167849055Y-111136242D01*
X167849061Y-111136187D01*
X167907558Y-110947214D01*
X168001646Y-110773202D01*
X168127741Y-110620779D01*
X168281040Y-110495751D01*
X168455705Y-110402880D01*
X168645082Y-110345704D01*
X168841958Y-110326400D01*
X169158169Y-110326400D01*
X169169145Y-110326477D01*
X169169145Y-110326477D01*
G37*
G36*
X132595791Y-110438604D02*
X132770989Y-110474567D01*
X132935872Y-110543877D01*
X133084147Y-110643889D01*
X133210170Y-110770796D01*
X133309148Y-110919770D01*
X133377303Y-111085125D01*
X133411940Y-111260055D01*
X133411940Y-111260073D01*
X133412039Y-111260574D01*
X133409187Y-111464857D01*
X133409073Y-111465358D01*
X133409073Y-111465375D01*
X133369566Y-111639265D01*
X133296819Y-111802657D01*
X133193723Y-111948806D01*
X133064204Y-112072144D01*
X132913189Y-112167981D01*
X132746445Y-112232658D01*
X132570307Y-112263715D01*
X132391488Y-112259969D01*
X132216812Y-112221564D01*
X132052919Y-112149961D01*
X131906052Y-112047886D01*
X131781809Y-111919227D01*
X131684924Y-111768893D01*
X131619085Y-111602601D01*
X131586798Y-111426685D01*
X131589295Y-111247846D01*
X131626480Y-111072904D01*
X131696938Y-110908512D01*
X131797985Y-110760939D01*
X131925771Y-110635801D01*
X132075424Y-110537871D01*
X132241259Y-110470869D01*
X132416946Y-110437355D01*
X132595791Y-110438604D01*
X132595791Y-110438604D01*
G37*
G36*
X166566000Y-111093600D02*
X164234000Y-111093600D01*
X164234000Y-109066400D01*
X166566000Y-109066400D01*
X166566000Y-111093600D01*
X166566000Y-111093600D01*
G37*
G36*
X172737562Y-107800672D02*
X172932280Y-107840642D01*
X173115525Y-107917670D01*
X173280321Y-108028827D01*
X173420389Y-108169876D01*
X173530388Y-108335439D01*
X173606136Y-108519217D01*
X173644643Y-108713693D01*
X173644643Y-108713705D01*
X173644743Y-108714211D01*
X173641573Y-108941252D01*
X173641459Y-108941753D01*
X173641459Y-108941771D01*
X173597538Y-109135090D01*
X173516688Y-109316682D01*
X173402105Y-109479113D01*
X173258155Y-109616195D01*
X173090319Y-109722706D01*
X172905000Y-109794588D01*
X172709239Y-109829105D01*
X172510500Y-109824942D01*
X172316365Y-109782258D01*
X172134212Y-109702679D01*
X171970985Y-109589233D01*
X171832901Y-109446241D01*
X171725223Y-109279158D01*
X171652049Y-109094341D01*
X171616165Y-108898827D01*
X171618940Y-108700066D01*
X171660268Y-108505635D01*
X171738575Y-108322931D01*
X171850877Y-108158918D01*
X171992904Y-108019836D01*
X172159226Y-107910997D01*
X172343533Y-107836532D01*
X172538794Y-107799284D01*
X172737562Y-107800672D01*
X172737562Y-107800672D01*
G37*
G36*
X124477562Y-107800672D02*
X124672280Y-107840642D01*
X124855525Y-107917670D01*
X125020321Y-108028827D01*
X125160389Y-108169876D01*
X125270388Y-108335439D01*
X125346136Y-108519217D01*
X125384643Y-108713693D01*
X125384643Y-108713705D01*
X125384743Y-108714211D01*
X125381573Y-108941252D01*
X125381459Y-108941753D01*
X125381459Y-108941771D01*
X125337538Y-109135090D01*
X125256688Y-109316682D01*
X125142105Y-109479113D01*
X124998155Y-109616195D01*
X124830319Y-109722706D01*
X124645000Y-109794588D01*
X124449239Y-109829105D01*
X124250500Y-109824942D01*
X124056365Y-109782258D01*
X123874212Y-109702679D01*
X123710985Y-109589233D01*
X123572901Y-109446241D01*
X123465223Y-109279158D01*
X123392049Y-109094341D01*
X123356165Y-108898827D01*
X123358940Y-108700066D01*
X123400268Y-108505635D01*
X123478575Y-108322931D01*
X123590877Y-108158918D01*
X123732904Y-108019836D01*
X123899226Y-107910997D01*
X124083533Y-107836532D01*
X124278794Y-107799284D01*
X124477562Y-107800672D01*
X124477562Y-107800672D01*
G37*
G36*
X170166000Y-109813600D02*
X167834000Y-109813600D01*
X167834000Y-107786400D01*
X170166000Y-107786400D01*
X170166000Y-109813600D01*
X170166000Y-109813600D01*
G37*
G36*
X132595791Y-107898604D02*
X132770989Y-107934567D01*
X132935872Y-108003877D01*
X133084147Y-108103889D01*
X133210170Y-108230796D01*
X133309148Y-108379770D01*
X133377303Y-108545125D01*
X133411940Y-108720055D01*
X133411940Y-108720073D01*
X133412039Y-108720574D01*
X133409187Y-108924857D01*
X133409073Y-108925358D01*
X133409073Y-108925375D01*
X133369566Y-109099265D01*
X133296819Y-109262657D01*
X133193723Y-109408806D01*
X133064204Y-109532144D01*
X132913189Y-109627981D01*
X132746445Y-109692658D01*
X132570307Y-109723715D01*
X132391488Y-109719969D01*
X132216812Y-109681564D01*
X132052919Y-109609961D01*
X131906052Y-109507886D01*
X131781809Y-109379227D01*
X131684924Y-109228893D01*
X131619085Y-109062601D01*
X131586798Y-108886685D01*
X131589295Y-108707846D01*
X131626480Y-108532904D01*
X131696938Y-108368512D01*
X131797985Y-108220939D01*
X131925771Y-108095801D01*
X132075424Y-107997871D01*
X132241259Y-107930869D01*
X132416946Y-107897355D01*
X132595791Y-107898604D01*
X132595791Y-107898604D01*
G37*
G36*
X165569145Y-106526477D02*
X165569151Y-106526478D01*
X165572194Y-106526499D01*
X165768781Y-106548550D01*
X165957342Y-106608364D01*
X166130693Y-106703665D01*
X166282232Y-106830821D01*
X166406186Y-106984990D01*
X166497836Y-107160299D01*
X166553688Y-107350070D01*
X166553693Y-107350122D01*
X166553699Y-107350143D01*
X166571620Y-107547073D01*
X166550951Y-107743738D01*
X166550945Y-107743758D01*
X166550939Y-107743813D01*
X166492442Y-107932786D01*
X166398354Y-108106798D01*
X166272259Y-108259221D01*
X166118960Y-108384249D01*
X165944295Y-108477120D01*
X165754918Y-108534296D01*
X165558042Y-108553600D01*
X165241831Y-108553600D01*
X165230855Y-108553523D01*
X165230849Y-108553522D01*
X165227806Y-108553501D01*
X165031219Y-108531450D01*
X164842658Y-108471636D01*
X164669307Y-108376335D01*
X164517768Y-108249179D01*
X164393814Y-108095010D01*
X164302164Y-107919701D01*
X164246312Y-107729930D01*
X164246307Y-107729878D01*
X164246301Y-107729857D01*
X164228380Y-107532927D01*
X164249049Y-107336262D01*
X164249055Y-107336242D01*
X164249061Y-107336187D01*
X164307558Y-107147214D01*
X164401646Y-106973202D01*
X164527741Y-106820779D01*
X164681040Y-106695751D01*
X164855705Y-106602880D01*
X165045082Y-106545704D01*
X165241958Y-106526400D01*
X165558169Y-106526400D01*
X165569145Y-106526477D01*
X165569145Y-106526477D01*
G37*
G36*
X124477562Y-105260672D02*
X124672280Y-105300642D01*
X124855525Y-105377670D01*
X125020321Y-105488827D01*
X125160389Y-105629876D01*
X125270388Y-105795439D01*
X125346136Y-105979217D01*
X125384643Y-106173693D01*
X125384643Y-106173705D01*
X125384743Y-106174211D01*
X125381573Y-106401252D01*
X125381459Y-106401753D01*
X125381459Y-106401771D01*
X125337538Y-106595090D01*
X125256688Y-106776682D01*
X125142105Y-106939113D01*
X124998155Y-107076195D01*
X124830319Y-107182706D01*
X124645000Y-107254588D01*
X124449239Y-107289105D01*
X124250500Y-107284942D01*
X124056365Y-107242258D01*
X123874212Y-107162679D01*
X123710985Y-107049233D01*
X123572901Y-106906241D01*
X123465223Y-106739158D01*
X123392049Y-106554341D01*
X123356165Y-106358827D01*
X123358940Y-106160066D01*
X123400268Y-105965635D01*
X123478575Y-105782931D01*
X123590877Y-105618918D01*
X123732904Y-105479836D01*
X123899226Y-105370997D01*
X124083533Y-105296532D01*
X124278794Y-105259284D01*
X124477562Y-105260672D01*
X124477562Y-105260672D01*
G37*
G36*
X172737562Y-105260672D02*
X172932280Y-105300642D01*
X173115525Y-105377670D01*
X173280321Y-105488827D01*
X173420389Y-105629876D01*
X173530388Y-105795439D01*
X173606136Y-105979217D01*
X173644643Y-106173693D01*
X173644643Y-106173705D01*
X173644743Y-106174211D01*
X173641573Y-106401252D01*
X173641459Y-106401753D01*
X173641459Y-106401771D01*
X173597538Y-106595090D01*
X173516688Y-106776682D01*
X173402105Y-106939113D01*
X173258155Y-107076195D01*
X173090319Y-107182706D01*
X172905000Y-107254588D01*
X172709239Y-107289105D01*
X172510500Y-107284942D01*
X172316365Y-107242258D01*
X172134212Y-107162679D01*
X171970985Y-107049233D01*
X171832901Y-106906241D01*
X171725223Y-106739158D01*
X171652049Y-106554341D01*
X171616165Y-106358827D01*
X171618940Y-106160066D01*
X171660268Y-105965635D01*
X171738575Y-105782931D01*
X171850877Y-105618918D01*
X171992904Y-105479836D01*
X172159226Y-105370997D01*
X172343533Y-105296532D01*
X172538794Y-105259284D01*
X172737562Y-105260672D01*
X172737562Y-105260672D01*
G37*
G36*
X132595791Y-105358604D02*
X132770989Y-105394567D01*
X132935872Y-105463877D01*
X133084147Y-105563889D01*
X133210170Y-105690796D01*
X133309148Y-105839770D01*
X133377303Y-106005125D01*
X133411940Y-106180055D01*
X133411940Y-106180073D01*
X133412039Y-106180574D01*
X133409187Y-106384857D01*
X133409073Y-106385358D01*
X133409073Y-106385375D01*
X133369566Y-106559265D01*
X133296819Y-106722657D01*
X133193723Y-106868806D01*
X133064204Y-106992144D01*
X132913189Y-107087981D01*
X132746445Y-107152658D01*
X132570307Y-107183715D01*
X132391488Y-107179969D01*
X132216812Y-107141564D01*
X132052919Y-107069961D01*
X131906052Y-106967886D01*
X131781809Y-106839227D01*
X131684924Y-106688893D01*
X131619085Y-106522601D01*
X131586798Y-106346685D01*
X131589295Y-106167846D01*
X131626480Y-105992904D01*
X131696938Y-105828512D01*
X131797985Y-105680939D01*
X131925771Y-105555801D01*
X132075424Y-105457871D01*
X132241259Y-105390869D01*
X132416946Y-105357355D01*
X132595791Y-105358604D01*
X132595791Y-105358604D01*
G37*
G36*
X161082470Y-104174773D02*
X161306462Y-104220752D01*
X161517265Y-104309365D01*
X161706833Y-104437230D01*
X161867963Y-104599488D01*
X161994501Y-104789945D01*
X162081638Y-105001355D01*
X162125951Y-105225150D01*
X162125951Y-105225167D01*
X162126050Y-105225668D01*
X162122403Y-105486846D01*
X162122289Y-105487347D01*
X162122289Y-105487364D01*
X162071746Y-105709828D01*
X161978740Y-105918725D01*
X161846930Y-106105578D01*
X161681339Y-106263267D01*
X161488266Y-106385795D01*
X161275082Y-106468484D01*
X161049887Y-106508192D01*
X160821268Y-106503403D01*
X160597942Y-106454301D01*
X160388401Y-106362755D01*
X160200635Y-106232255D01*
X160041787Y-106067762D01*
X159917919Y-105875557D01*
X159833743Y-105662951D01*
X159792464Y-105438042D01*
X159795656Y-105209396D01*
X159843198Y-104985730D01*
X159933279Y-104775555D01*
X160062468Y-104586881D01*
X160225843Y-104426892D01*
X160417178Y-104301686D01*
X160629196Y-104216025D01*
X160853815Y-104173176D01*
X161082470Y-104174773D01*
X161082470Y-104174773D01*
G37*
G36*
X165569145Y-103986477D02*
X165569151Y-103986478D01*
X165572194Y-103986499D01*
X165768781Y-104008550D01*
X165957342Y-104068364D01*
X166130693Y-104163665D01*
X166282232Y-104290821D01*
X166406186Y-104444990D01*
X166497836Y-104620299D01*
X166553688Y-104810070D01*
X166553693Y-104810122D01*
X166553699Y-104810143D01*
X166571620Y-105007073D01*
X166550951Y-105203738D01*
X166550945Y-105203758D01*
X166550939Y-105203813D01*
X166492442Y-105392786D01*
X166398354Y-105566798D01*
X166272259Y-105719221D01*
X166118960Y-105844249D01*
X165944295Y-105937120D01*
X165754918Y-105994296D01*
X165558042Y-106013600D01*
X165241831Y-106013600D01*
X165230855Y-106013523D01*
X165230849Y-106013522D01*
X165227806Y-106013501D01*
X165031219Y-105991450D01*
X164842658Y-105931636D01*
X164669307Y-105836335D01*
X164517768Y-105709179D01*
X164393814Y-105555010D01*
X164302164Y-105379701D01*
X164246312Y-105189930D01*
X164246307Y-105189878D01*
X164246301Y-105189857D01*
X164228380Y-104992927D01*
X164249049Y-104796262D01*
X164249055Y-104796242D01*
X164249061Y-104796187D01*
X164307558Y-104607214D01*
X164401646Y-104433202D01*
X164527741Y-104280779D01*
X164681040Y-104155751D01*
X164855705Y-104062880D01*
X165045082Y-104005704D01*
X165241958Y-103986400D01*
X165558169Y-103986400D01*
X165569145Y-103986477D01*
X165569145Y-103986477D01*
G37*
G36*
X124477562Y-102720672D02*
X124672280Y-102760642D01*
X124855525Y-102837670D01*
X125020321Y-102948827D01*
X125160389Y-103089876D01*
X125270388Y-103255439D01*
X125346136Y-103439217D01*
X125384643Y-103633693D01*
X125384643Y-103633705D01*
X125384743Y-103634211D01*
X125381573Y-103861252D01*
X125381459Y-103861753D01*
X125381459Y-103861771D01*
X125337538Y-104055090D01*
X125256688Y-104236682D01*
X125142105Y-104399113D01*
X124998155Y-104536195D01*
X124830319Y-104642706D01*
X124645000Y-104714588D01*
X124449239Y-104749105D01*
X124250500Y-104744942D01*
X124056365Y-104702258D01*
X123874212Y-104622679D01*
X123710985Y-104509233D01*
X123572901Y-104366241D01*
X123465223Y-104199158D01*
X123392049Y-104014341D01*
X123356165Y-103818827D01*
X123358940Y-103620066D01*
X123400268Y-103425635D01*
X123478575Y-103242931D01*
X123590877Y-103078918D01*
X123732904Y-102939836D01*
X123899226Y-102830997D01*
X124083533Y-102756532D01*
X124278794Y-102719284D01*
X124477562Y-102720672D01*
X124477562Y-102720672D01*
G37*
G36*
X172737562Y-102720672D02*
X172932280Y-102760642D01*
X173115525Y-102837670D01*
X173280321Y-102948827D01*
X173420389Y-103089876D01*
X173530388Y-103255439D01*
X173606136Y-103439217D01*
X173644643Y-103633693D01*
X173644643Y-103633705D01*
X173644743Y-103634211D01*
X173641573Y-103861252D01*
X173641459Y-103861753D01*
X173641459Y-103861771D01*
X173597538Y-104055090D01*
X173516688Y-104236682D01*
X173402105Y-104399113D01*
X173258155Y-104536195D01*
X173090319Y-104642706D01*
X172905000Y-104714588D01*
X172709239Y-104749105D01*
X172510500Y-104744942D01*
X172316365Y-104702258D01*
X172134212Y-104622679D01*
X171970985Y-104509233D01*
X171832901Y-104366241D01*
X171725223Y-104199158D01*
X171652049Y-104014341D01*
X171616165Y-103818827D01*
X171618940Y-103620066D01*
X171660268Y-103425635D01*
X171738575Y-103242931D01*
X171850877Y-103078918D01*
X171992904Y-102939836D01*
X172159226Y-102830997D01*
X172343533Y-102756532D01*
X172538794Y-102719284D01*
X172737562Y-102720672D01*
X172737562Y-102720672D01*
G37*
G36*
X140762470Y-101634773D02*
X140986462Y-101680752D01*
X141197265Y-101769365D01*
X141386833Y-101897230D01*
X141547963Y-102059488D01*
X141674501Y-102249945D01*
X141761638Y-102461355D01*
X141805951Y-102685150D01*
X141805951Y-102685167D01*
X141806050Y-102685668D01*
X141802403Y-102946846D01*
X141802289Y-102947347D01*
X141802289Y-102947364D01*
X141751746Y-103169828D01*
X141658740Y-103378725D01*
X141526930Y-103565578D01*
X141361339Y-103723267D01*
X141168266Y-103845795D01*
X140955082Y-103928484D01*
X140729887Y-103968192D01*
X140501268Y-103963403D01*
X140277942Y-103914301D01*
X140068401Y-103822755D01*
X139880635Y-103692255D01*
X139721787Y-103527762D01*
X139597919Y-103335557D01*
X139513743Y-103122951D01*
X139472464Y-102898042D01*
X139475656Y-102669396D01*
X139523198Y-102445730D01*
X139613279Y-102235555D01*
X139742468Y-102046881D01*
X139905843Y-101886892D01*
X140097178Y-101761686D01*
X140309196Y-101676025D01*
X140533815Y-101633176D01*
X140762470Y-101634773D01*
X140762470Y-101634773D01*
G37*
G36*
X169169145Y-100206477D02*
X169169151Y-100206478D01*
X169172194Y-100206499D01*
X169368781Y-100228550D01*
X169557342Y-100288364D01*
X169730693Y-100383665D01*
X169882232Y-100510821D01*
X170006186Y-100664990D01*
X170097836Y-100840299D01*
X170153688Y-101030070D01*
X170153693Y-101030122D01*
X170153699Y-101030143D01*
X170171620Y-101227073D01*
X170150951Y-101423738D01*
X170150945Y-101423758D01*
X170150939Y-101423813D01*
X170092442Y-101612786D01*
X169998354Y-101786798D01*
X169872259Y-101939221D01*
X169718960Y-102064249D01*
X169544295Y-102157120D01*
X169354918Y-102214296D01*
X169158042Y-102233600D01*
X168841831Y-102233600D01*
X168830855Y-102233523D01*
X168830849Y-102233522D01*
X168827806Y-102233501D01*
X168631219Y-102211450D01*
X168442658Y-102151636D01*
X168269307Y-102056335D01*
X168117768Y-101929179D01*
X167993814Y-101775010D01*
X167902164Y-101599701D01*
X167846312Y-101409930D01*
X167846307Y-101409878D01*
X167846301Y-101409857D01*
X167828380Y-101212927D01*
X167849049Y-101016262D01*
X167849055Y-101016242D01*
X167849061Y-101016187D01*
X167907558Y-100827214D01*
X168001646Y-100653202D01*
X168127741Y-100500779D01*
X168281040Y-100375751D01*
X168455705Y-100282880D01*
X168645082Y-100225704D01*
X168841958Y-100206400D01*
X169158169Y-100206400D01*
X169169145Y-100206477D01*
X169169145Y-100206477D01*
G37*
G36*
X172737562Y-100180672D02*
X172932280Y-100220642D01*
X173115525Y-100297670D01*
X173280321Y-100408827D01*
X173420389Y-100549876D01*
X173530388Y-100715439D01*
X173606136Y-100899217D01*
X173644643Y-101093693D01*
X173644643Y-101093705D01*
X173644743Y-101094211D01*
X173641573Y-101321252D01*
X173641459Y-101321753D01*
X173641459Y-101321771D01*
X173597538Y-101515090D01*
X173516688Y-101696682D01*
X173402105Y-101859113D01*
X173258155Y-101996195D01*
X173090319Y-102102706D01*
X172905000Y-102174588D01*
X172709239Y-102209105D01*
X172510500Y-102204942D01*
X172316365Y-102162258D01*
X172134212Y-102082679D01*
X171970985Y-101969233D01*
X171832901Y-101826241D01*
X171725223Y-101659158D01*
X171652049Y-101474341D01*
X171616165Y-101278827D01*
X171618940Y-101080066D01*
X171660268Y-100885635D01*
X171738575Y-100702931D01*
X171850877Y-100538918D01*
X171992904Y-100399836D01*
X172159226Y-100290997D01*
X172343533Y-100216532D01*
X172538794Y-100179284D01*
X172737562Y-100180672D01*
X172737562Y-100180672D01*
G37*
G36*
X124477562Y-100180672D02*
X124672280Y-100220642D01*
X124855525Y-100297670D01*
X125020321Y-100408827D01*
X125160389Y-100549876D01*
X125270388Y-100715439D01*
X125346136Y-100899217D01*
X125384643Y-101093693D01*
X125384643Y-101093705D01*
X125384743Y-101094211D01*
X125381573Y-101321252D01*
X125381459Y-101321753D01*
X125381459Y-101321771D01*
X125337538Y-101515090D01*
X125256688Y-101696682D01*
X125142105Y-101859113D01*
X124998155Y-101996195D01*
X124830319Y-102102706D01*
X124645000Y-102174588D01*
X124449239Y-102209105D01*
X124250500Y-102204942D01*
X124056365Y-102162258D01*
X123874212Y-102082679D01*
X123710985Y-101969233D01*
X123572901Y-101826241D01*
X123465223Y-101659158D01*
X123392049Y-101474341D01*
X123356165Y-101278827D01*
X123358940Y-101080066D01*
X123400268Y-100885635D01*
X123478575Y-100702931D01*
X123590877Y-100538918D01*
X123732904Y-100399836D01*
X123899226Y-100290997D01*
X124083533Y-100216532D01*
X124278794Y-100179284D01*
X124477562Y-100180672D01*
X124477562Y-100180672D01*
G37*
G36*
X132595791Y-100278604D02*
X132770989Y-100314567D01*
X132935872Y-100383877D01*
X133084147Y-100483889D01*
X133210170Y-100610796D01*
X133309148Y-100759770D01*
X133377303Y-100925125D01*
X133411940Y-101100055D01*
X133411940Y-101100073D01*
X133412039Y-101100574D01*
X133409187Y-101304857D01*
X133409073Y-101305358D01*
X133409073Y-101305375D01*
X133369566Y-101479265D01*
X133296819Y-101642657D01*
X133193723Y-101788806D01*
X133064204Y-101912144D01*
X132913189Y-102007981D01*
X132746445Y-102072658D01*
X132570307Y-102103715D01*
X132391488Y-102099969D01*
X132216812Y-102061564D01*
X132052919Y-101989961D01*
X131906052Y-101887886D01*
X131781809Y-101759227D01*
X131684924Y-101608893D01*
X131619085Y-101442601D01*
X131586798Y-101266685D01*
X131589295Y-101087846D01*
X131626480Y-100912904D01*
X131696938Y-100748512D01*
X131797985Y-100600939D01*
X131925771Y-100475801D01*
X132075424Y-100377871D01*
X132241259Y-100310869D01*
X132416946Y-100277355D01*
X132595791Y-100278604D01*
X132595791Y-100278604D01*
G37*
G36*
X161082470Y-99094773D02*
X161306462Y-99140752D01*
X161517265Y-99229365D01*
X161706833Y-99357230D01*
X161867963Y-99519488D01*
X161994501Y-99709945D01*
X162081638Y-99921355D01*
X162125951Y-100145150D01*
X162125951Y-100145167D01*
X162126050Y-100145668D01*
X162122403Y-100406846D01*
X162122289Y-100407347D01*
X162122289Y-100407364D01*
X162071746Y-100629828D01*
X161978740Y-100838725D01*
X161846930Y-101025578D01*
X161681339Y-101183267D01*
X161488266Y-101305795D01*
X161275082Y-101388484D01*
X161049887Y-101428192D01*
X160821268Y-101423403D01*
X160597942Y-101374301D01*
X160388401Y-101282755D01*
X160200635Y-101152255D01*
X160041787Y-100987762D01*
X159917919Y-100795557D01*
X159833743Y-100582951D01*
X159792464Y-100358042D01*
X159795656Y-100129396D01*
X159843198Y-99905730D01*
X159933279Y-99695555D01*
X160062468Y-99506881D01*
X160225843Y-99346892D01*
X160417178Y-99221686D01*
X160629196Y-99136025D01*
X160853815Y-99093176D01*
X161082470Y-99094773D01*
X161082470Y-99094773D01*
G37*
G36*
X169169145Y-97666477D02*
X169169151Y-97666478D01*
X169172194Y-97666499D01*
X169368781Y-97688550D01*
X169557342Y-97748364D01*
X169730693Y-97843665D01*
X169882232Y-97970821D01*
X170006186Y-98124990D01*
X170097836Y-98300299D01*
X170153688Y-98490070D01*
X170153693Y-98490122D01*
X170153699Y-98490143D01*
X170171620Y-98687073D01*
X170150951Y-98883738D01*
X170150945Y-98883758D01*
X170150939Y-98883813D01*
X170092442Y-99072786D01*
X169998354Y-99246798D01*
X169872259Y-99399221D01*
X169718960Y-99524249D01*
X169544295Y-99617120D01*
X169354918Y-99674296D01*
X169158042Y-99693600D01*
X168841831Y-99693600D01*
X168830855Y-99693523D01*
X168830849Y-99693522D01*
X168827806Y-99693501D01*
X168631219Y-99671450D01*
X168442658Y-99611636D01*
X168269307Y-99516335D01*
X168117768Y-99389179D01*
X167993814Y-99235010D01*
X167902164Y-99059701D01*
X167846312Y-98869930D01*
X167846307Y-98869878D01*
X167846301Y-98869857D01*
X167828380Y-98672927D01*
X167849049Y-98476262D01*
X167849055Y-98476242D01*
X167849061Y-98476187D01*
X167907558Y-98287214D01*
X168001646Y-98113202D01*
X168127741Y-97960779D01*
X168281040Y-97835751D01*
X168455705Y-97742880D01*
X168645082Y-97685704D01*
X168841958Y-97666400D01*
X169158169Y-97666400D01*
X169169145Y-97666477D01*
X169169145Y-97666477D01*
G37*
G36*
X124477562Y-97640672D02*
X124672280Y-97680642D01*
X124855525Y-97757670D01*
X125020321Y-97868827D01*
X125160389Y-98009876D01*
X125270388Y-98175439D01*
X125346136Y-98359217D01*
X125384643Y-98553693D01*
X125384643Y-98553705D01*
X125384743Y-98554211D01*
X125381573Y-98781252D01*
X125381459Y-98781753D01*
X125381459Y-98781771D01*
X125337538Y-98975090D01*
X125256688Y-99156682D01*
X125142105Y-99319113D01*
X124998155Y-99456195D01*
X124830319Y-99562706D01*
X124645000Y-99634588D01*
X124449239Y-99669105D01*
X124250500Y-99664942D01*
X124056365Y-99622258D01*
X123874212Y-99542679D01*
X123710985Y-99429233D01*
X123572901Y-99286241D01*
X123465223Y-99119158D01*
X123392049Y-98934341D01*
X123356165Y-98738827D01*
X123358940Y-98540066D01*
X123400268Y-98345635D01*
X123478575Y-98162931D01*
X123590877Y-97998918D01*
X123732904Y-97859836D01*
X123899226Y-97750997D01*
X124083533Y-97676532D01*
X124278794Y-97639284D01*
X124477562Y-97640672D01*
X124477562Y-97640672D01*
G37*
G36*
X172737562Y-97640672D02*
X172932280Y-97680642D01*
X173115525Y-97757670D01*
X173280321Y-97868827D01*
X173420389Y-98009876D01*
X173530388Y-98175439D01*
X173606136Y-98359217D01*
X173644643Y-98553693D01*
X173644643Y-98553705D01*
X173644743Y-98554211D01*
X173641573Y-98781252D01*
X173641459Y-98781753D01*
X173641459Y-98781771D01*
X173597538Y-98975090D01*
X173516688Y-99156682D01*
X173402105Y-99319113D01*
X173258155Y-99456195D01*
X173090319Y-99562706D01*
X172905000Y-99634588D01*
X172709239Y-99669105D01*
X172510500Y-99664942D01*
X172316365Y-99622258D01*
X172134212Y-99542679D01*
X171970985Y-99429233D01*
X171832901Y-99286241D01*
X171725223Y-99119158D01*
X171652049Y-98934341D01*
X171616165Y-98738827D01*
X171618940Y-98540066D01*
X171660268Y-98345635D01*
X171738575Y-98162931D01*
X171850877Y-97998918D01*
X171992904Y-97859836D01*
X172159226Y-97750997D01*
X172343533Y-97676532D01*
X172538794Y-97639284D01*
X172737562Y-97640672D01*
X172737562Y-97640672D01*
G37*
G36*
X132595791Y-97738604D02*
X132770989Y-97774567D01*
X132935872Y-97843877D01*
X133084147Y-97943889D01*
X133210170Y-98070796D01*
X133309148Y-98219770D01*
X133377303Y-98385125D01*
X133411940Y-98560055D01*
X133411940Y-98560073D01*
X133412039Y-98560574D01*
X133409187Y-98764857D01*
X133409073Y-98765358D01*
X133409073Y-98765375D01*
X133369566Y-98939265D01*
X133296819Y-99102657D01*
X133193723Y-99248806D01*
X133064204Y-99372144D01*
X132913189Y-99467981D01*
X132746445Y-99532658D01*
X132570307Y-99563715D01*
X132391488Y-99559969D01*
X132216812Y-99521564D01*
X132052919Y-99449961D01*
X131906052Y-99347886D01*
X131781809Y-99219227D01*
X131684924Y-99068893D01*
X131619085Y-98902601D01*
X131586798Y-98726685D01*
X131589295Y-98547846D01*
X131626480Y-98372904D01*
X131696938Y-98208512D01*
X131797985Y-98060939D01*
X131925771Y-97935801D01*
X132075424Y-97837871D01*
X132241259Y-97770869D01*
X132416946Y-97737355D01*
X132595791Y-97738604D01*
X132595791Y-97738604D01*
G37*
G36*
X169169145Y-95126477D02*
X169169151Y-95126478D01*
X169172194Y-95126499D01*
X169368781Y-95148550D01*
X169557342Y-95208364D01*
X169730693Y-95303665D01*
X169882232Y-95430821D01*
X170006186Y-95584990D01*
X170097836Y-95760299D01*
X170153688Y-95950070D01*
X170153693Y-95950122D01*
X170153699Y-95950143D01*
X170171620Y-96147073D01*
X170150951Y-96343738D01*
X170150945Y-96343758D01*
X170150939Y-96343813D01*
X170092442Y-96532786D01*
X169998354Y-96706798D01*
X169872259Y-96859221D01*
X169718960Y-96984249D01*
X169544295Y-97077120D01*
X169354918Y-97134296D01*
X169158042Y-97153600D01*
X168841831Y-97153600D01*
X168830855Y-97153523D01*
X168830849Y-97153522D01*
X168827806Y-97153501D01*
X168631219Y-97131450D01*
X168442658Y-97071636D01*
X168269307Y-96976335D01*
X168117768Y-96849179D01*
X167993814Y-96695010D01*
X167902164Y-96519701D01*
X167846312Y-96329930D01*
X167846307Y-96329878D01*
X167846301Y-96329857D01*
X167828380Y-96132927D01*
X167849049Y-95936262D01*
X167849055Y-95936242D01*
X167849061Y-95936187D01*
X167907558Y-95747214D01*
X168001646Y-95573202D01*
X168127741Y-95420779D01*
X168281040Y-95295751D01*
X168455705Y-95202880D01*
X168645082Y-95145704D01*
X168841958Y-95126400D01*
X169158169Y-95126400D01*
X169169145Y-95126477D01*
X169169145Y-95126477D01*
G37*
G36*
X172737562Y-95100672D02*
X172932280Y-95140642D01*
X173115525Y-95217670D01*
X173280321Y-95328827D01*
X173420389Y-95469876D01*
X173530388Y-95635439D01*
X173606136Y-95819217D01*
X173644643Y-96013693D01*
X173644643Y-96013705D01*
X173644743Y-96014211D01*
X173641573Y-96241252D01*
X173641459Y-96241753D01*
X173641459Y-96241771D01*
X173597538Y-96435090D01*
X173516688Y-96616682D01*
X173402105Y-96779113D01*
X173258155Y-96916195D01*
X173090319Y-97022706D01*
X172905000Y-97094588D01*
X172709239Y-97129105D01*
X172510500Y-97124942D01*
X172316365Y-97082258D01*
X172134212Y-97002679D01*
X171970985Y-96889233D01*
X171832901Y-96746241D01*
X171725223Y-96579158D01*
X171652049Y-96394341D01*
X171616165Y-96198827D01*
X171618940Y-96000066D01*
X171660268Y-95805635D01*
X171738575Y-95622931D01*
X171850877Y-95458918D01*
X171992904Y-95319836D01*
X172159226Y-95210997D01*
X172343533Y-95136532D01*
X172538794Y-95099284D01*
X172737562Y-95100672D01*
X172737562Y-95100672D01*
G37*
G36*
X124477562Y-95100672D02*
X124672280Y-95140642D01*
X124855525Y-95217670D01*
X125020321Y-95328827D01*
X125160389Y-95469876D01*
X125270388Y-95635439D01*
X125346136Y-95819217D01*
X125384643Y-96013693D01*
X125384643Y-96013705D01*
X125384743Y-96014211D01*
X125381573Y-96241252D01*
X125381459Y-96241753D01*
X125381459Y-96241771D01*
X125337538Y-96435090D01*
X125256688Y-96616682D01*
X125142105Y-96779113D01*
X124998155Y-96916195D01*
X124830319Y-97022706D01*
X124645000Y-97094588D01*
X124449239Y-97129105D01*
X124250500Y-97124942D01*
X124056365Y-97082258D01*
X123874212Y-97002679D01*
X123710985Y-96889233D01*
X123572901Y-96746241D01*
X123465223Y-96579158D01*
X123392049Y-96394341D01*
X123356165Y-96198827D01*
X123358940Y-96000066D01*
X123400268Y-95805635D01*
X123478575Y-95622931D01*
X123590877Y-95458918D01*
X123732904Y-95319836D01*
X123899226Y-95210997D01*
X124083533Y-95136532D01*
X124278794Y-95099284D01*
X124477562Y-95100672D01*
X124477562Y-95100672D01*
G37*
G36*
X132595791Y-95198604D02*
X132770989Y-95234567D01*
X132935872Y-95303877D01*
X133084147Y-95403889D01*
X133210170Y-95530796D01*
X133309148Y-95679770D01*
X133377303Y-95845125D01*
X133411940Y-96020055D01*
X133411940Y-96020073D01*
X133412039Y-96020574D01*
X133409187Y-96224857D01*
X133409073Y-96225358D01*
X133409073Y-96225375D01*
X133369566Y-96399265D01*
X133296819Y-96562657D01*
X133193723Y-96708806D01*
X133064204Y-96832144D01*
X132913189Y-96927981D01*
X132746445Y-96992658D01*
X132570307Y-97023715D01*
X132391488Y-97019969D01*
X132216812Y-96981564D01*
X132052919Y-96909961D01*
X131906052Y-96807886D01*
X131781809Y-96679227D01*
X131684924Y-96528893D01*
X131619085Y-96362601D01*
X131586798Y-96186685D01*
X131589295Y-96007846D01*
X131626480Y-95832904D01*
X131696938Y-95668512D01*
X131797985Y-95520939D01*
X131925771Y-95395801D01*
X132075424Y-95297871D01*
X132241259Y-95230869D01*
X132416946Y-95197355D01*
X132595791Y-95198604D01*
X132595791Y-95198604D01*
G37*
G36*
X136225824Y-90351429D02*
X136638847Y-90436210D01*
X137027543Y-90599603D01*
X137377093Y-90835377D01*
X137674198Y-91134562D01*
X137907525Y-91485749D01*
X138068198Y-91875572D01*
X138149993Y-92288663D01*
X138149993Y-92288681D01*
X138150092Y-92289182D01*
X138143368Y-92770770D01*
X138143253Y-92771275D01*
X138143253Y-92771289D01*
X138049958Y-93181929D01*
X137878462Y-93567115D01*
X137635417Y-93911655D01*
X137330081Y-94202422D01*
X136974077Y-94428349D01*
X136580980Y-94580821D01*
X136165744Y-94654039D01*
X135744194Y-94645209D01*
X135332398Y-94554669D01*
X134946027Y-94385868D01*
X134599795Y-94145230D01*
X134306904Y-93841932D01*
X134078499Y-93487518D01*
X133923285Y-93095492D01*
X133847171Y-92680779D01*
X133853057Y-92259180D01*
X133940721Y-91846759D01*
X134106820Y-91459220D01*
X134345034Y-91111317D01*
X134646286Y-90816311D01*
X134999090Y-90585441D01*
X135390027Y-90427492D01*
X135804200Y-90348485D01*
X136225824Y-90351429D01*
X136225824Y-90351429D01*
G37*
G36*
X161225824Y-90351429D02*
X161638847Y-90436210D01*
X162027543Y-90599603D01*
X162377093Y-90835377D01*
X162674198Y-91134562D01*
X162907525Y-91485749D01*
X163068198Y-91875572D01*
X163149993Y-92288663D01*
X163149993Y-92288681D01*
X163150092Y-92289182D01*
X163143368Y-92770770D01*
X163143253Y-92771275D01*
X163143253Y-92771289D01*
X163049958Y-93181929D01*
X162878462Y-93567115D01*
X162635417Y-93911655D01*
X162330081Y-94202422D01*
X161974077Y-94428349D01*
X161580980Y-94580821D01*
X161165744Y-94654039D01*
X160744194Y-94645209D01*
X160332398Y-94554669D01*
X159946027Y-94385868D01*
X159599795Y-94145230D01*
X159306904Y-93841932D01*
X159078499Y-93487518D01*
X158923285Y-93095492D01*
X158847171Y-92680779D01*
X158853057Y-92259180D01*
X158940721Y-91846759D01*
X159106820Y-91459220D01*
X159345034Y-91111317D01*
X159646286Y-90816311D01*
X159999090Y-90585441D01*
X160390027Y-90427492D01*
X160804200Y-90348485D01*
X161225824Y-90351429D01*
X161225824Y-90351429D01*
G37*
G36*
X170166000Y-94613600D02*
X167834000Y-94613600D01*
X167834000Y-92586400D01*
X170166000Y-92586400D01*
X170166000Y-94613600D01*
X170166000Y-94613600D01*
G37*
G36*
X172737562Y-92560672D02*
X172932280Y-92600642D01*
X173115525Y-92677670D01*
X173280321Y-92788827D01*
X173420389Y-92929876D01*
X173530388Y-93095439D01*
X173606136Y-93279217D01*
X173644643Y-93473693D01*
X173644643Y-93473705D01*
X173644743Y-93474211D01*
X173641573Y-93701252D01*
X173641459Y-93701753D01*
X173641459Y-93701771D01*
X173597538Y-93895090D01*
X173516688Y-94076682D01*
X173402105Y-94239113D01*
X173258155Y-94376195D01*
X173090319Y-94482706D01*
X172905000Y-94554588D01*
X172709239Y-94589105D01*
X172510500Y-94584942D01*
X172316365Y-94542258D01*
X172134212Y-94462679D01*
X171970985Y-94349233D01*
X171832901Y-94206241D01*
X171725223Y-94039158D01*
X171652049Y-93854341D01*
X171616165Y-93658827D01*
X171618940Y-93460066D01*
X171660268Y-93265635D01*
X171738575Y-93082931D01*
X171850877Y-92918918D01*
X171992904Y-92779836D01*
X172159226Y-92670997D01*
X172343533Y-92596532D01*
X172538794Y-92559284D01*
X172737562Y-92560672D01*
X172737562Y-92560672D01*
G37*
G36*
X124477562Y-92560672D02*
X124672280Y-92600642D01*
X124855525Y-92677670D01*
X125020321Y-92788827D01*
X125160389Y-92929876D01*
X125270388Y-93095439D01*
X125346136Y-93279217D01*
X125384643Y-93473693D01*
X125384643Y-93473705D01*
X125384743Y-93474211D01*
X125381573Y-93701252D01*
X125381459Y-93701753D01*
X125381459Y-93701771D01*
X125337538Y-93895090D01*
X125256688Y-94076682D01*
X125142105Y-94239113D01*
X124998155Y-94376195D01*
X124830319Y-94482706D01*
X124645000Y-94554588D01*
X124449239Y-94589105D01*
X124250500Y-94584942D01*
X124056365Y-94542258D01*
X123874212Y-94462679D01*
X123710985Y-94349233D01*
X123572901Y-94206241D01*
X123465223Y-94039158D01*
X123392049Y-93854341D01*
X123356165Y-93658827D01*
X123358940Y-93460066D01*
X123400268Y-93265635D01*
X123478575Y-93082931D01*
X123590877Y-92918918D01*
X123732904Y-92779836D01*
X123899226Y-92670997D01*
X124083533Y-92596532D01*
X124278794Y-92559284D01*
X124477562Y-92560672D01*
X124477562Y-92560672D01*
G37*
G36*
X140762470Y-91474773D02*
X140986462Y-91520752D01*
X141197265Y-91609365D01*
X141386833Y-91737230D01*
X141547963Y-91899488D01*
X141674501Y-92089945D01*
X141761638Y-92301355D01*
X141805951Y-92525150D01*
X141805951Y-92525167D01*
X141806050Y-92525668D01*
X141802403Y-92786846D01*
X141802289Y-92787347D01*
X141802289Y-92787364D01*
X141751746Y-93009828D01*
X141658740Y-93218725D01*
X141526930Y-93405578D01*
X141361339Y-93563267D01*
X141168266Y-93685795D01*
X140955082Y-93768484D01*
X140729887Y-93808192D01*
X140501268Y-93803403D01*
X140277942Y-93754301D01*
X140068401Y-93662755D01*
X139880635Y-93532255D01*
X139721787Y-93367762D01*
X139597919Y-93175557D01*
X139513743Y-92962951D01*
X139472464Y-92738042D01*
X139475656Y-92509396D01*
X139523198Y-92285730D01*
X139613279Y-92075555D01*
X139742468Y-91886881D01*
X139905843Y-91726892D01*
X140097178Y-91601686D01*
X140309196Y-91516025D01*
X140533815Y-91473176D01*
X140762470Y-91474773D01*
X140762470Y-91474773D01*
G37*
G36*
X124477562Y-90020672D02*
X124672280Y-90060642D01*
X124855525Y-90137670D01*
X125020321Y-90248827D01*
X125160389Y-90389876D01*
X125270388Y-90555439D01*
X125346136Y-90739217D01*
X125384643Y-90933693D01*
X125384643Y-90933705D01*
X125384743Y-90934211D01*
X125381573Y-91161252D01*
X125381459Y-91161753D01*
X125381459Y-91161771D01*
X125337538Y-91355090D01*
X125256688Y-91536682D01*
X125142105Y-91699113D01*
X124998155Y-91836195D01*
X124830319Y-91942706D01*
X124645000Y-92014588D01*
X124449239Y-92049105D01*
X124250500Y-92044942D01*
X124056365Y-92002258D01*
X123874212Y-91922679D01*
X123710985Y-91809233D01*
X123572901Y-91666241D01*
X123465223Y-91499158D01*
X123392049Y-91314341D01*
X123356165Y-91118827D01*
X123358940Y-90920066D01*
X123400268Y-90725635D01*
X123478575Y-90542931D01*
X123590877Y-90378918D01*
X123732904Y-90239836D01*
X123899226Y-90130997D01*
X124083533Y-90056532D01*
X124278794Y-90019284D01*
X124477562Y-90020672D01*
X124477562Y-90020672D01*
G37*
G36*
X172737562Y-90020672D02*
X172932280Y-90060642D01*
X173115525Y-90137670D01*
X173280321Y-90248827D01*
X173420389Y-90389876D01*
X173530388Y-90555439D01*
X173606136Y-90739217D01*
X173644643Y-90933693D01*
X173644643Y-90933705D01*
X173644743Y-90934211D01*
X173641573Y-91161252D01*
X173641459Y-91161753D01*
X173641459Y-91161771D01*
X173597538Y-91355090D01*
X173516688Y-91536682D01*
X173402105Y-91699113D01*
X173258155Y-91836195D01*
X173090319Y-91942706D01*
X172905000Y-92014588D01*
X172709239Y-92049105D01*
X172510500Y-92044942D01*
X172316365Y-92002258D01*
X172134212Y-91922679D01*
X171970985Y-91809233D01*
X171832901Y-91666241D01*
X171725223Y-91499158D01*
X171652049Y-91314341D01*
X171616165Y-91118827D01*
X171618940Y-90920066D01*
X171660268Y-90725635D01*
X171738575Y-90542931D01*
X171850877Y-90378918D01*
X171992904Y-90239836D01*
X172159226Y-90130997D01*
X172343533Y-90056532D01*
X172538794Y-90019284D01*
X172737562Y-90020672D01*
X172737562Y-90020672D01*
G37*
G36*
X166834384Y-87852162D02*
X166834400Y-87852167D01*
X166834457Y-87852173D01*
X167051843Y-87919466D01*
X167252019Y-88027700D01*
X167427359Y-88172755D01*
X167571186Y-88349103D01*
X167678021Y-88550030D01*
X167743794Y-88767881D01*
X167766000Y-88994358D01*
X167766000Y-89005767D01*
X167765908Y-89018873D01*
X167765907Y-89018879D01*
X167765886Y-89021922D01*
X167740520Y-89248067D01*
X167671712Y-89464978D01*
X167562082Y-89664394D01*
X167415807Y-89838717D01*
X167238459Y-89981309D01*
X167036791Y-90086738D01*
X166818487Y-90150989D01*
X166818433Y-90150994D01*
X166818416Y-90150999D01*
X166591863Y-90171617D01*
X166365616Y-90147838D01*
X166365600Y-90147833D01*
X166365543Y-90147827D01*
X166148157Y-90080534D01*
X165947981Y-89972300D01*
X165772641Y-89827245D01*
X165628814Y-89650897D01*
X165521979Y-89449970D01*
X165456206Y-89232119D01*
X165434000Y-89005642D01*
X165434000Y-88994233D01*
X165434092Y-88981127D01*
X165434093Y-88981121D01*
X165434114Y-88978078D01*
X165459480Y-88751933D01*
X165528288Y-88535022D01*
X165637918Y-88335606D01*
X165784193Y-88161283D01*
X165961541Y-88018691D01*
X166163209Y-87913262D01*
X166381513Y-87849011D01*
X166381567Y-87849006D01*
X166381584Y-87849001D01*
X166608137Y-87828383D01*
X166834384Y-87852162D01*
X166834384Y-87852162D01*
G37*
G36*
X170306000Y-90166000D02*
X167974000Y-90166000D01*
X167974000Y-87834000D01*
X170306000Y-87834000D01*
X170306000Y-90166000D01*
X170306000Y-90166000D01*
G37*
G36*
X124477562Y-87480672D02*
X124672280Y-87520642D01*
X124855525Y-87597670D01*
X125020321Y-87708827D01*
X125160389Y-87849876D01*
X125270388Y-88015439D01*
X125346136Y-88199217D01*
X125384643Y-88393693D01*
X125384643Y-88393705D01*
X125384743Y-88394211D01*
X125381573Y-88621252D01*
X125381459Y-88621753D01*
X125381459Y-88621771D01*
X125337538Y-88815090D01*
X125256688Y-88996682D01*
X125142105Y-89159113D01*
X124998155Y-89296195D01*
X124830319Y-89402706D01*
X124645000Y-89474588D01*
X124449239Y-89509105D01*
X124250500Y-89504942D01*
X124056365Y-89462258D01*
X123874212Y-89382679D01*
X123710985Y-89269233D01*
X123572901Y-89126241D01*
X123465223Y-88959158D01*
X123392049Y-88774341D01*
X123356165Y-88578827D01*
X123358940Y-88380066D01*
X123400268Y-88185635D01*
X123478575Y-88002931D01*
X123590877Y-87838918D01*
X123732904Y-87699836D01*
X123899226Y-87590997D01*
X124083533Y-87516532D01*
X124278794Y-87479284D01*
X124477562Y-87480672D01*
X124477562Y-87480672D01*
G37*
G36*
X172737562Y-87480672D02*
X172932280Y-87520642D01*
X173115525Y-87597670D01*
X173280321Y-87708827D01*
X173420389Y-87849876D01*
X173530388Y-88015439D01*
X173606136Y-88199217D01*
X173644643Y-88393693D01*
X173644643Y-88393705D01*
X173644743Y-88394211D01*
X173641573Y-88621252D01*
X173641459Y-88621753D01*
X173641459Y-88621771D01*
X173597538Y-88815090D01*
X173516688Y-88996682D01*
X173402105Y-89159113D01*
X173258155Y-89296195D01*
X173090319Y-89402706D01*
X172905000Y-89474588D01*
X172709239Y-89509105D01*
X172510500Y-89504942D01*
X172316365Y-89462258D01*
X172134212Y-89382679D01*
X171970985Y-89269233D01*
X171832901Y-89126241D01*
X171725223Y-88959158D01*
X171652049Y-88774341D01*
X171616165Y-88578827D01*
X171618940Y-88380066D01*
X171660268Y-88185635D01*
X171738575Y-88002931D01*
X171850877Y-87838918D01*
X171992904Y-87699836D01*
X172159226Y-87590997D01*
X172343533Y-87516532D01*
X172538794Y-87479284D01*
X172737562Y-87480672D01*
X172737562Y-87480672D01*
G37*
G36*
X124477562Y-84940672D02*
X124672280Y-84980642D01*
X124855525Y-85057670D01*
X125020321Y-85168827D01*
X125160389Y-85309876D01*
X125270388Y-85475439D01*
X125346136Y-85659217D01*
X125384643Y-85853693D01*
X125384643Y-85853705D01*
X125384743Y-85854211D01*
X125381573Y-86081252D01*
X125381459Y-86081753D01*
X125381459Y-86081771D01*
X125337538Y-86275090D01*
X125256688Y-86456682D01*
X125142105Y-86619113D01*
X124998155Y-86756195D01*
X124830319Y-86862706D01*
X124645000Y-86934588D01*
X124449239Y-86969105D01*
X124250500Y-86964942D01*
X124056365Y-86922258D01*
X123874212Y-86842679D01*
X123710985Y-86729233D01*
X123572901Y-86586241D01*
X123465223Y-86419158D01*
X123392049Y-86234341D01*
X123356165Y-86038827D01*
X123358940Y-85840066D01*
X123400268Y-85645635D01*
X123478575Y-85462931D01*
X123590877Y-85298918D01*
X123732904Y-85159836D01*
X123899226Y-85050997D01*
X124083533Y-84976532D01*
X124278794Y-84939284D01*
X124477562Y-84940672D01*
X124477562Y-84940672D01*
G37*
G36*
X172737562Y-84940672D02*
X172932280Y-84980642D01*
X173115525Y-85057670D01*
X173280321Y-85168827D01*
X173420389Y-85309876D01*
X173530388Y-85475439D01*
X173606136Y-85659217D01*
X173644643Y-85853693D01*
X173644643Y-85853705D01*
X173644743Y-85854211D01*
X173641573Y-86081252D01*
X173641459Y-86081753D01*
X173641459Y-86081771D01*
X173597538Y-86275090D01*
X173516688Y-86456682D01*
X173402105Y-86619113D01*
X173258155Y-86756195D01*
X173090319Y-86862706D01*
X172905000Y-86934588D01*
X172709239Y-86969105D01*
X172510500Y-86964942D01*
X172316365Y-86922258D01*
X172134212Y-86842679D01*
X171970985Y-86729233D01*
X171832901Y-86586241D01*
X171725223Y-86419158D01*
X171652049Y-86234341D01*
X171616165Y-86038827D01*
X171618940Y-85840066D01*
X171660268Y-85645635D01*
X171738575Y-85462931D01*
X171850877Y-85298918D01*
X171992904Y-85159836D01*
X172159226Y-85050997D01*
X172343533Y-84976532D01*
X172538794Y-84939284D01*
X172737562Y-84940672D01*
X172737562Y-84940672D01*
G37*
G36*
X137245791Y-85088604D02*
X137420989Y-85124567D01*
X137585872Y-85193877D01*
X137734147Y-85293889D01*
X137860170Y-85420796D01*
X137959148Y-85569770D01*
X138027303Y-85735125D01*
X138061940Y-85910055D01*
X138061940Y-85910073D01*
X138062039Y-85910574D01*
X138059187Y-86114857D01*
X138059073Y-86115358D01*
X138059073Y-86115375D01*
X138019566Y-86289265D01*
X137946819Y-86452657D01*
X137843723Y-86598806D01*
X137714204Y-86722144D01*
X137563189Y-86817981D01*
X137396445Y-86882658D01*
X137220307Y-86913715D01*
X137041488Y-86909969D01*
X136866812Y-86871564D01*
X136702919Y-86799961D01*
X136556052Y-86697886D01*
X136431809Y-86569227D01*
X136334924Y-86418893D01*
X136269085Y-86252601D01*
X136236798Y-86076685D01*
X136239295Y-85897846D01*
X136276480Y-85722904D01*
X136346938Y-85558512D01*
X136447985Y-85410939D01*
X136575771Y-85285801D01*
X136725424Y-85187871D01*
X136891259Y-85120869D01*
X137066946Y-85087355D01*
X137245791Y-85088604D01*
X137245791Y-85088604D01*
G37*
G36*
X139785791Y-85088604D02*
X139960989Y-85124567D01*
X140125872Y-85193877D01*
X140274147Y-85293889D01*
X140400170Y-85420796D01*
X140499148Y-85569770D01*
X140567303Y-85735125D01*
X140601940Y-85910055D01*
X140601940Y-85910073D01*
X140602039Y-85910574D01*
X140599187Y-86114857D01*
X140599073Y-86115358D01*
X140599073Y-86115375D01*
X140559566Y-86289265D01*
X140486819Y-86452657D01*
X140383723Y-86598806D01*
X140254204Y-86722144D01*
X140103189Y-86817981D01*
X139936445Y-86882658D01*
X139760307Y-86913715D01*
X139581488Y-86909969D01*
X139406812Y-86871564D01*
X139242919Y-86799961D01*
X139096052Y-86697886D01*
X138971809Y-86569227D01*
X138874924Y-86418893D01*
X138809085Y-86252601D01*
X138776798Y-86076685D01*
X138779295Y-85897846D01*
X138816480Y-85722904D01*
X138886938Y-85558512D01*
X138987985Y-85410939D01*
X139115771Y-85285801D01*
X139265424Y-85187871D01*
X139431259Y-85120869D01*
X139606946Y-85087355D01*
X139785791Y-85088604D01*
X139785791Y-85088604D01*
G37*
G36*
X134705791Y-85088604D02*
X134880989Y-85124567D01*
X135045872Y-85193877D01*
X135194147Y-85293889D01*
X135320170Y-85420796D01*
X135419148Y-85569770D01*
X135487303Y-85735125D01*
X135521940Y-85910055D01*
X135521940Y-85910073D01*
X135522039Y-85910574D01*
X135519187Y-86114857D01*
X135519073Y-86115358D01*
X135519073Y-86115375D01*
X135479566Y-86289265D01*
X135406819Y-86452657D01*
X135303723Y-86598806D01*
X135174204Y-86722144D01*
X135023189Y-86817981D01*
X134856445Y-86882658D01*
X134680307Y-86913715D01*
X134501488Y-86909969D01*
X134326812Y-86871564D01*
X134162919Y-86799961D01*
X134016052Y-86697886D01*
X133891809Y-86569227D01*
X133794924Y-86418893D01*
X133729085Y-86252601D01*
X133696798Y-86076685D01*
X133699295Y-85897846D01*
X133736480Y-85722904D01*
X133806938Y-85558512D01*
X133907985Y-85410939D01*
X134035771Y-85285801D01*
X134185424Y-85187871D01*
X134351259Y-85120869D01*
X134526946Y-85087355D01*
X134705791Y-85088604D01*
X134705791Y-85088604D01*
G37*
G36*
X142325791Y-85088604D02*
X142500989Y-85124567D01*
X142665872Y-85193877D01*
X142814147Y-85293889D01*
X142940170Y-85420796D01*
X143039148Y-85569770D01*
X143107303Y-85735125D01*
X143141940Y-85910055D01*
X143141940Y-85910073D01*
X143142039Y-85910574D01*
X143139187Y-86114857D01*
X143139073Y-86115358D01*
X143139073Y-86115375D01*
X143099566Y-86289265D01*
X143026819Y-86452657D01*
X142923723Y-86598806D01*
X142794204Y-86722144D01*
X142643189Y-86817981D01*
X142476445Y-86882658D01*
X142300307Y-86913715D01*
X142121488Y-86909969D01*
X141946812Y-86871564D01*
X141782919Y-86799961D01*
X141636052Y-86697886D01*
X141511809Y-86569227D01*
X141414924Y-86418893D01*
X141349085Y-86252601D01*
X141316798Y-86076685D01*
X141319295Y-85897846D01*
X141356480Y-85722904D01*
X141426938Y-85558512D01*
X141527985Y-85410939D01*
X141655771Y-85285801D01*
X141805424Y-85187871D01*
X141971259Y-85120869D01*
X142146946Y-85087355D01*
X142325791Y-85088604D01*
X142325791Y-85088604D01*
G37*
G36*
X147405791Y-85088604D02*
X147580989Y-85124567D01*
X147745872Y-85193877D01*
X147894147Y-85293889D01*
X148020170Y-85420796D01*
X148119148Y-85569770D01*
X148187303Y-85735125D01*
X148221940Y-85910055D01*
X148221940Y-85910073D01*
X148222039Y-85910574D01*
X148219187Y-86114857D01*
X148219073Y-86115358D01*
X148219073Y-86115375D01*
X148179566Y-86289265D01*
X148106819Y-86452657D01*
X148003723Y-86598806D01*
X147874204Y-86722144D01*
X147723189Y-86817981D01*
X147556445Y-86882658D01*
X147380307Y-86913715D01*
X147201488Y-86909969D01*
X147026812Y-86871564D01*
X146862919Y-86799961D01*
X146716052Y-86697886D01*
X146591809Y-86569227D01*
X146494924Y-86418893D01*
X146429085Y-86252601D01*
X146396798Y-86076685D01*
X146399295Y-85897846D01*
X146436480Y-85722904D01*
X146506938Y-85558512D01*
X146607985Y-85410939D01*
X146735771Y-85285801D01*
X146885424Y-85187871D01*
X147051259Y-85120869D01*
X147226946Y-85087355D01*
X147405791Y-85088604D01*
X147405791Y-85088604D01*
G37*
G36*
X149945791Y-85088604D02*
X150120989Y-85124567D01*
X150285872Y-85193877D01*
X150434147Y-85293889D01*
X150560170Y-85420796D01*
X150659148Y-85569770D01*
X150727303Y-85735125D01*
X150761940Y-85910055D01*
X150761940Y-85910073D01*
X150762039Y-85910574D01*
X150759187Y-86114857D01*
X150759073Y-86115358D01*
X150759073Y-86115375D01*
X150719566Y-86289265D01*
X150646819Y-86452657D01*
X150543723Y-86598806D01*
X150414204Y-86722144D01*
X150263189Y-86817981D01*
X150096445Y-86882658D01*
X149920307Y-86913715D01*
X149741488Y-86909969D01*
X149566812Y-86871564D01*
X149402919Y-86799961D01*
X149256052Y-86697886D01*
X149131809Y-86569227D01*
X149034924Y-86418893D01*
X148969085Y-86252601D01*
X148936798Y-86076685D01*
X148939295Y-85897846D01*
X148976480Y-85722904D01*
X149046938Y-85558512D01*
X149147985Y-85410939D01*
X149275771Y-85285801D01*
X149425424Y-85187871D01*
X149591259Y-85120869D01*
X149766946Y-85087355D01*
X149945791Y-85088604D01*
X149945791Y-85088604D01*
G37*
G36*
X152485791Y-85088604D02*
X152660989Y-85124567D01*
X152825872Y-85193877D01*
X152974147Y-85293889D01*
X153100170Y-85420796D01*
X153199148Y-85569770D01*
X153267303Y-85735125D01*
X153301940Y-85910055D01*
X153301940Y-85910073D01*
X153302039Y-85910574D01*
X153299187Y-86114857D01*
X153299073Y-86115358D01*
X153299073Y-86115375D01*
X153259566Y-86289265D01*
X153186819Y-86452657D01*
X153083723Y-86598806D01*
X152954204Y-86722144D01*
X152803189Y-86817981D01*
X152636445Y-86882658D01*
X152460307Y-86913715D01*
X152281488Y-86909969D01*
X152106812Y-86871564D01*
X151942919Y-86799961D01*
X151796052Y-86697886D01*
X151671809Y-86569227D01*
X151574924Y-86418893D01*
X151509085Y-86252601D01*
X151476798Y-86076685D01*
X151479295Y-85897846D01*
X151516480Y-85722904D01*
X151586938Y-85558512D01*
X151687985Y-85410939D01*
X151815771Y-85285801D01*
X151965424Y-85187871D01*
X152131259Y-85120869D01*
X152306946Y-85087355D01*
X152485791Y-85088604D01*
X152485791Y-85088604D01*
G37*
G36*
X172737562Y-82400672D02*
X172932280Y-82440642D01*
X173115525Y-82517670D01*
X173280321Y-82628827D01*
X173420389Y-82769876D01*
X173530388Y-82935439D01*
X173606136Y-83119217D01*
X173644643Y-83313693D01*
X173644643Y-83313705D01*
X173644743Y-83314211D01*
X173641573Y-83541252D01*
X173641459Y-83541753D01*
X173641459Y-83541771D01*
X173597538Y-83735090D01*
X173516688Y-83916682D01*
X173402105Y-84079113D01*
X173258155Y-84216195D01*
X173090319Y-84322706D01*
X172905000Y-84394588D01*
X172709239Y-84429105D01*
X172510500Y-84424942D01*
X172316365Y-84382258D01*
X172134212Y-84302679D01*
X171970985Y-84189233D01*
X171832901Y-84046241D01*
X171725223Y-83879158D01*
X171652049Y-83694341D01*
X171616165Y-83498827D01*
X171618940Y-83300066D01*
X171660268Y-83105635D01*
X171738575Y-82922931D01*
X171850877Y-82758918D01*
X171992904Y-82619836D01*
X172159226Y-82510997D01*
X172343533Y-82436532D01*
X172538794Y-82399284D01*
X172737562Y-82400672D01*
X172737562Y-82400672D01*
G37*
G36*
X124477562Y-82400672D02*
X124672280Y-82440642D01*
X124855525Y-82517670D01*
X125020321Y-82628827D01*
X125160389Y-82769876D01*
X125270388Y-82935439D01*
X125346136Y-83119217D01*
X125384643Y-83313693D01*
X125384643Y-83313705D01*
X125384743Y-83314211D01*
X125381573Y-83541252D01*
X125381459Y-83541753D01*
X125381459Y-83541771D01*
X125337538Y-83735090D01*
X125256688Y-83916682D01*
X125142105Y-84079113D01*
X124998155Y-84216195D01*
X124830319Y-84322706D01*
X124645000Y-84394588D01*
X124449239Y-84429105D01*
X124250500Y-84424942D01*
X124056365Y-84382258D01*
X123874212Y-84302679D01*
X123710985Y-84189233D01*
X123572901Y-84046241D01*
X123465223Y-83879158D01*
X123392049Y-83694341D01*
X123356165Y-83498827D01*
X123358940Y-83300066D01*
X123400268Y-83105635D01*
X123478575Y-82922931D01*
X123590877Y-82758918D01*
X123732904Y-82619836D01*
X123899226Y-82510997D01*
X124083533Y-82436532D01*
X124278794Y-82399284D01*
X124477562Y-82400672D01*
X124477562Y-82400672D01*
G37*
G36*
X159163738Y-80649049D02*
X159163758Y-80649055D01*
X159163813Y-80649061D01*
X159352786Y-80707558D01*
X159526798Y-80801646D01*
X159679221Y-80927741D01*
X159804249Y-81081040D01*
X159897120Y-81255705D01*
X159954296Y-81445082D01*
X159973600Y-81641958D01*
X159973600Y-81958169D01*
X159973523Y-81969145D01*
X159973522Y-81969151D01*
X159973501Y-81972194D01*
X159951450Y-82168781D01*
X159891636Y-82357342D01*
X159796335Y-82530693D01*
X159669179Y-82682232D01*
X159515010Y-82806186D01*
X159339701Y-82897836D01*
X159149930Y-82953688D01*
X159149878Y-82953693D01*
X159149857Y-82953699D01*
X158952927Y-82971620D01*
X158756262Y-82950951D01*
X158756242Y-82950945D01*
X158756187Y-82950939D01*
X158567214Y-82892442D01*
X158393202Y-82798354D01*
X158240779Y-82672259D01*
X158115751Y-82518960D01*
X158022880Y-82344295D01*
X157965704Y-82154918D01*
X157946400Y-81958042D01*
X157946400Y-81641831D01*
X157946477Y-81630855D01*
X157946478Y-81630849D01*
X157946499Y-81627806D01*
X157968550Y-81431219D01*
X158028364Y-81242658D01*
X158123665Y-81069307D01*
X158250821Y-80917768D01*
X158404990Y-80793814D01*
X158580299Y-80702164D01*
X158770070Y-80646312D01*
X158770122Y-80646307D01*
X158770143Y-80646301D01*
X158967073Y-80628380D01*
X159163738Y-80649049D01*
X159163738Y-80649049D01*
G37*
G36*
X164243738Y-80649049D02*
X164243758Y-80649055D01*
X164243813Y-80649061D01*
X164432786Y-80707558D01*
X164606798Y-80801646D01*
X164759221Y-80927741D01*
X164884249Y-81081040D01*
X164977120Y-81255705D01*
X165034296Y-81445082D01*
X165053600Y-81641958D01*
X165053600Y-81958169D01*
X165053523Y-81969145D01*
X165053522Y-81969151D01*
X165053501Y-81972194D01*
X165031450Y-82168781D01*
X164971636Y-82357342D01*
X164876335Y-82530693D01*
X164749179Y-82682232D01*
X164595010Y-82806186D01*
X164419701Y-82897836D01*
X164229930Y-82953688D01*
X164229878Y-82953693D01*
X164229857Y-82953699D01*
X164032927Y-82971620D01*
X163836262Y-82950951D01*
X163836242Y-82950945D01*
X163836187Y-82950939D01*
X163647214Y-82892442D01*
X163473202Y-82798354D01*
X163320779Y-82672259D01*
X163195751Y-82518960D01*
X163102880Y-82344295D01*
X163045704Y-82154918D01*
X163026400Y-81958042D01*
X163026400Y-81641831D01*
X163026477Y-81630855D01*
X163026478Y-81630849D01*
X163026499Y-81627806D01*
X163048550Y-81431219D01*
X163108364Y-81242658D01*
X163203665Y-81069307D01*
X163330821Y-80917768D01*
X163484990Y-80793814D01*
X163660299Y-80702164D01*
X163850070Y-80646312D01*
X163850122Y-80646307D01*
X163850143Y-80646301D01*
X164047073Y-80628380D01*
X164243738Y-80649049D01*
X164243738Y-80649049D01*
G37*
G36*
X166783738Y-80649049D02*
X166783758Y-80649055D01*
X166783813Y-80649061D01*
X166972786Y-80707558D01*
X167146798Y-80801646D01*
X167299221Y-80927741D01*
X167424249Y-81081040D01*
X167517120Y-81255705D01*
X167574296Y-81445082D01*
X167593600Y-81641958D01*
X167593600Y-81958169D01*
X167593523Y-81969145D01*
X167593522Y-81969151D01*
X167593501Y-81972194D01*
X167571450Y-82168781D01*
X167511636Y-82357342D01*
X167416335Y-82530693D01*
X167289179Y-82682232D01*
X167135010Y-82806186D01*
X166959701Y-82897836D01*
X166769930Y-82953688D01*
X166769878Y-82953693D01*
X166769857Y-82953699D01*
X166572927Y-82971620D01*
X166376262Y-82950951D01*
X166376242Y-82950945D01*
X166376187Y-82950939D01*
X166187214Y-82892442D01*
X166013202Y-82798354D01*
X165860779Y-82672259D01*
X165735751Y-82518960D01*
X165642880Y-82344295D01*
X165585704Y-82154918D01*
X165566400Y-81958042D01*
X165566400Y-81641831D01*
X165566477Y-81630855D01*
X165566478Y-81630849D01*
X165566499Y-81627806D01*
X165588550Y-81431219D01*
X165648364Y-81242658D01*
X165743665Y-81069307D01*
X165870821Y-80917768D01*
X166024990Y-80793814D01*
X166200299Y-80702164D01*
X166390070Y-80646312D01*
X166390122Y-80646307D01*
X166390143Y-80646301D01*
X166587073Y-80628380D01*
X166783738Y-80649049D01*
X166783738Y-80649049D01*
G37*
G36*
X161703738Y-80649049D02*
X161703758Y-80649055D01*
X161703813Y-80649061D01*
X161892786Y-80707558D01*
X162066798Y-80801646D01*
X162219221Y-80927741D01*
X162344249Y-81081040D01*
X162437120Y-81255705D01*
X162494296Y-81445082D01*
X162513600Y-81641958D01*
X162513600Y-81958169D01*
X162513523Y-81969145D01*
X162513522Y-81969151D01*
X162513501Y-81972194D01*
X162491450Y-82168781D01*
X162431636Y-82357342D01*
X162336335Y-82530693D01*
X162209179Y-82682232D01*
X162055010Y-82806186D01*
X161879701Y-82897836D01*
X161689930Y-82953688D01*
X161689878Y-82953693D01*
X161689857Y-82953699D01*
X161492927Y-82971620D01*
X161296262Y-82950951D01*
X161296242Y-82950945D01*
X161296187Y-82950939D01*
X161107214Y-82892442D01*
X160933202Y-82798354D01*
X160780779Y-82672259D01*
X160655751Y-82518960D01*
X160562880Y-82344295D01*
X160505704Y-82154918D01*
X160486400Y-81958042D01*
X160486400Y-81641831D01*
X160486477Y-81630855D01*
X160486478Y-81630849D01*
X160486499Y-81627806D01*
X160508550Y-81431219D01*
X160568364Y-81242658D01*
X160663665Y-81069307D01*
X160790821Y-80917768D01*
X160944990Y-80793814D01*
X161120299Y-80702164D01*
X161310070Y-80646312D01*
X161310122Y-80646307D01*
X161310143Y-80646301D01*
X161507073Y-80628380D01*
X161703738Y-80649049D01*
X161703738Y-80649049D01*
G37*
G36*
X169323738Y-80649049D02*
X169323758Y-80649055D01*
X169323813Y-80649061D01*
X169512786Y-80707558D01*
X169686798Y-80801646D01*
X169839221Y-80927741D01*
X169964249Y-81081040D01*
X170057120Y-81255705D01*
X170114296Y-81445082D01*
X170133600Y-81641958D01*
X170133600Y-81958169D01*
X170133523Y-81969145D01*
X170133522Y-81969151D01*
X170133501Y-81972194D01*
X170111450Y-82168781D01*
X170051636Y-82357342D01*
X169956335Y-82530693D01*
X169829179Y-82682232D01*
X169675010Y-82806186D01*
X169499701Y-82897836D01*
X169309930Y-82953688D01*
X169309878Y-82953693D01*
X169309857Y-82953699D01*
X169112927Y-82971620D01*
X168916262Y-82950951D01*
X168916242Y-82950945D01*
X168916187Y-82950939D01*
X168727214Y-82892442D01*
X168553202Y-82798354D01*
X168400779Y-82672259D01*
X168275751Y-82518960D01*
X168182880Y-82344295D01*
X168125704Y-82154918D01*
X168106400Y-81958042D01*
X168106400Y-81641831D01*
X168106477Y-81630855D01*
X168106478Y-81630849D01*
X168106499Y-81627806D01*
X168128550Y-81431219D01*
X168188364Y-81242658D01*
X168283665Y-81069307D01*
X168410821Y-80917768D01*
X168564990Y-80793814D01*
X168740299Y-80702164D01*
X168930070Y-80646312D01*
X168930122Y-80646307D01*
X168930143Y-80646301D01*
X169127073Y-80628380D01*
X169323738Y-80649049D01*
X169323738Y-80649049D01*
G37*
G36*
X157433600Y-82966000D02*
X155406400Y-82966000D01*
X155406400Y-80634000D01*
X157433600Y-80634000D01*
X157433600Y-82966000D01*
X157433600Y-82966000D01*
G37*
G36*
X124477562Y-79860672D02*
X124672280Y-79900642D01*
X124855525Y-79977670D01*
X125020321Y-80088827D01*
X125160389Y-80229876D01*
X125270388Y-80395439D01*
X125346136Y-80579217D01*
X125384643Y-80773693D01*
X125384643Y-80773705D01*
X125384743Y-80774211D01*
X125381573Y-81001252D01*
X125381459Y-81001753D01*
X125381459Y-81001771D01*
X125337538Y-81195090D01*
X125256688Y-81376682D01*
X125142105Y-81539113D01*
X124998155Y-81676195D01*
X124830319Y-81782706D01*
X124645000Y-81854588D01*
X124449239Y-81889105D01*
X124250500Y-81884942D01*
X124056365Y-81842258D01*
X123874212Y-81762679D01*
X123710985Y-81649233D01*
X123572901Y-81506241D01*
X123465223Y-81339158D01*
X123392049Y-81154341D01*
X123356165Y-80958827D01*
X123358940Y-80760066D01*
X123400268Y-80565635D01*
X123478575Y-80382931D01*
X123590877Y-80218918D01*
X123732904Y-80079836D01*
X123899226Y-79970997D01*
X124083533Y-79896532D01*
X124278794Y-79859284D01*
X124477562Y-79860672D01*
X124477562Y-79860672D01*
G37*
G36*
X172737562Y-79860672D02*
X172932280Y-79900642D01*
X173115525Y-79977670D01*
X173280321Y-80088827D01*
X173420389Y-80229876D01*
X173530388Y-80395439D01*
X173606136Y-80579217D01*
X173644643Y-80773693D01*
X173644643Y-80773705D01*
X173644743Y-80774211D01*
X173641573Y-81001252D01*
X173641459Y-81001753D01*
X173641459Y-81001771D01*
X173597538Y-81195090D01*
X173516688Y-81376682D01*
X173402105Y-81539113D01*
X173258155Y-81676195D01*
X173090319Y-81782706D01*
X172905000Y-81854588D01*
X172709239Y-81889105D01*
X172510500Y-81884942D01*
X172316365Y-81842258D01*
X172134212Y-81762679D01*
X171970985Y-81649233D01*
X171832901Y-81506241D01*
X171725223Y-81339158D01*
X171652049Y-81154341D01*
X171616165Y-80958827D01*
X171618940Y-80760066D01*
X171660268Y-80565635D01*
X171738575Y-80382931D01*
X171850877Y-80218918D01*
X171992904Y-80079836D01*
X172159226Y-79970997D01*
X172343533Y-79896532D01*
X172538794Y-79859284D01*
X172737562Y-79860672D01*
X172737562Y-79860672D01*
G37*
M02*
