M48
METRIC,TZ
T1C0.400
T2C0.762
T3C1.016
%
G90
G05
T1
X128778Y-105664
X146939Y-109982
X147039Y-93925
X147039Y-95225
X147039Y-96525
X147039Y-97825
X147039Y-99125
X147099Y-116655
X147099Y-117955
X147099Y-119255
X147099Y-120555
X147099Y-121855
X147828Y-88265
X148336Y-93920
X148336Y-95220
X148336Y-96520
X148336Y-97820
X148336Y-99120
X148407Y-116642
X148407Y-117942
X148407Y-119242
X148407Y-120542
X148407Y-121842
X149639Y-93920
X149639Y-95220
X149639Y-96520
X149639Y-97820
X149639Y-99120
X149699Y-116655
X149699Y-117955
X149699Y-119255
X149699Y-120555
X149699Y-121855
X155194Y-89027
X156845Y-119567
X157734Y-89027
X159385Y-116586
X160274Y-89027
X162179Y-112522
T2
X122555Y-82804
X122555Y-85344
X122555Y-87884
X122555Y-90424
X122555Y-92964
X122555Y-95504
X122555Y-98044
X122555Y-100584
X122555Y-103124
X122555Y-105664
X122555Y-108204
X122555Y-110744
X122555Y-113284
X122555Y-115824
X122555Y-118364
X122555Y-120904
X122555Y-123444
X122555Y-125984
X122555Y-128524
X122555Y-131064
X170815Y-82804
X170815Y-85344
X170815Y-87884
X170815Y-90424
X170815Y-92964
X170815Y-95504
X170815Y-98044
X170815Y-100584
X170815Y-103124
X170815Y-105664
X170815Y-108204
X170815Y-110744
X170815Y-113284
X170815Y-115824
X170815Y-118364
X170815Y-120904
X170815Y-123444
X170815Y-125984
X170815Y-128524
X170815Y-131064
T3
X131459Y-130305
X133999Y-130305
X136539Y-130305
X156819Y-130305
X159359Y-130305
X161899Y-130305
T0
M30
