G04 #@! TF.FileFunction,Legend,Top*
%FSLAX46Y46*%
G04 Gerber Fmt 4.6, Leading zero omitted, Abs format (unit mm)*
G04 Created by KiCad (PCBNEW 4.0.2-stable) date Mon 01 Aug 2016 12:05:57 PM CEST*
%MOMM*%
G01*
G04 APERTURE LIST*
%ADD10C,0.100000*%
%ADD11C,0.187500*%
%ADD12C,0.200000*%
%ADD13C,0.150000*%
G04 APERTURE END LIST*
D10*
D11*
X124408571Y-108257571D02*
X124980000Y-108257571D01*
X124694286Y-108543286D02*
X124694286Y-107971857D01*
X125301428Y-107864714D02*
X125337142Y-107829000D01*
X125408571Y-107793286D01*
X125587142Y-107793286D01*
X125658571Y-107829000D01*
X125694285Y-107864714D01*
X125730000Y-107936143D01*
X125730000Y-108007571D01*
X125694285Y-108114714D01*
X125265714Y-108543286D01*
X125730000Y-108543286D01*
X126372857Y-108043286D02*
X126372857Y-108543286D01*
X126194286Y-107757571D02*
X126015714Y-108293286D01*
X126480000Y-108293286D01*
X126658572Y-107793286D02*
X126908572Y-108543286D01*
X127158572Y-107793286D01*
X124904572Y-105289000D02*
X124833143Y-105253286D01*
X124726000Y-105253286D01*
X124618857Y-105289000D01*
X124547429Y-105360429D01*
X124511714Y-105431857D01*
X124476000Y-105574714D01*
X124476000Y-105681857D01*
X124511714Y-105824714D01*
X124547429Y-105896143D01*
X124618857Y-105967571D01*
X124726000Y-106003286D01*
X124797429Y-106003286D01*
X124904572Y-105967571D01*
X124940286Y-105931857D01*
X124940286Y-105681857D01*
X124797429Y-105681857D01*
X125261714Y-106003286D02*
X125261714Y-105253286D01*
X125690286Y-106003286D01*
X125690286Y-105253286D01*
X126047428Y-106003286D02*
X126047428Y-105253286D01*
X126226000Y-105253286D01*
X126333143Y-105289000D01*
X126404571Y-105360429D01*
X126440286Y-105431857D01*
X126476000Y-105574714D01*
X126476000Y-105681857D01*
X126440286Y-105824714D01*
X126404571Y-105896143D01*
X126333143Y-105967571D01*
X126226000Y-106003286D01*
X126047428Y-106003286D01*
D12*
X152313618Y-106475381D02*
X152313618Y-107284905D01*
X152361237Y-107380143D01*
X152408856Y-107427762D01*
X152504094Y-107475381D01*
X152694571Y-107475381D01*
X152789809Y-107427762D01*
X152837428Y-107380143D01*
X152885047Y-107284905D01*
X152885047Y-106475381D01*
X153361237Y-107475381D02*
X153361237Y-106808714D01*
X153361237Y-106903952D02*
X153408856Y-106856333D01*
X153504094Y-106808714D01*
X153646952Y-106808714D01*
X153742190Y-106856333D01*
X153789809Y-106951571D01*
X153789809Y-107475381D01*
X153789809Y-106951571D02*
X153837428Y-106856333D01*
X153932666Y-106808714D01*
X154075523Y-106808714D01*
X154170761Y-106856333D01*
X154218380Y-106951571D01*
X154218380Y-107475381D01*
X155075523Y-107427762D02*
X154980285Y-107475381D01*
X154789808Y-107475381D01*
X154694570Y-107427762D01*
X154646951Y-107332524D01*
X154646951Y-106951571D01*
X154694570Y-106856333D01*
X154789808Y-106808714D01*
X154980285Y-106808714D01*
X155075523Y-106856333D01*
X155123142Y-106951571D01*
X155123142Y-107046810D01*
X154646951Y-107142048D01*
X155980285Y-107475381D02*
X155980285Y-106951571D01*
X155932666Y-106856333D01*
X155837428Y-106808714D01*
X155646951Y-106808714D01*
X155551713Y-106856333D01*
X155980285Y-107427762D02*
X155885047Y-107475381D01*
X155646951Y-107475381D01*
X155551713Y-107427762D01*
X155504094Y-107332524D01*
X155504094Y-107237286D01*
X155551713Y-107142048D01*
X155646951Y-107094429D01*
X155885047Y-107094429D01*
X155980285Y-107046810D01*
X155742189Y-106570619D02*
X155646951Y-106523000D01*
X155599332Y-106427762D01*
X155646951Y-106332524D01*
X155742189Y-106284905D01*
X155837428Y-106332524D01*
X155885047Y-106427762D01*
X155837428Y-106523000D01*
X155742189Y-106570619D01*
X157694571Y-107475381D02*
X157218380Y-107475381D01*
X157218380Y-106475381D01*
X158456476Y-106808714D02*
X158456476Y-107475381D01*
X158027904Y-106808714D02*
X158027904Y-107332524D01*
X158075523Y-107427762D01*
X158170761Y-107475381D01*
X158313619Y-107475381D01*
X158408857Y-107427762D01*
X158456476Y-107380143D01*
X158932666Y-106808714D02*
X158932666Y-107475381D01*
X158932666Y-106903952D02*
X158980285Y-106856333D01*
X159075523Y-106808714D01*
X159218381Y-106808714D01*
X159313619Y-106856333D01*
X159361238Y-106951571D01*
X159361238Y-107475381D01*
X160266000Y-107475381D02*
X160266000Y-106951571D01*
X160218381Y-106856333D01*
X160123143Y-106808714D01*
X159932666Y-106808714D01*
X159837428Y-106856333D01*
X160266000Y-107427762D02*
X160170762Y-107475381D01*
X159932666Y-107475381D01*
X159837428Y-107427762D01*
X159789809Y-107332524D01*
X159789809Y-107237286D01*
X159837428Y-107142048D01*
X159932666Y-107094429D01*
X160170762Y-107094429D01*
X160266000Y-107046810D01*
X160742190Y-107475381D02*
X160742190Y-106808714D01*
X160742190Y-106999190D02*
X160789809Y-106903952D01*
X160837428Y-106856333D01*
X160932666Y-106808714D01*
X161027905Y-106808714D01*
X161980286Y-106475381D02*
X162313619Y-107475381D01*
X162646953Y-106475381D01*
X163361239Y-107427762D02*
X163266001Y-107475381D01*
X163075524Y-107475381D01*
X162980286Y-107427762D01*
X162932667Y-107332524D01*
X162932667Y-106951571D01*
X162980286Y-106856333D01*
X163075524Y-106808714D01*
X163266001Y-106808714D01*
X163361239Y-106856333D01*
X163408858Y-106951571D01*
X163408858Y-107046810D01*
X162932667Y-107142048D01*
X163837429Y-106808714D02*
X163837429Y-107475381D01*
X163837429Y-106903952D02*
X163885048Y-106856333D01*
X163980286Y-106808714D01*
X164123144Y-106808714D01*
X164218382Y-106856333D01*
X164266001Y-106951571D01*
X164266001Y-107475381D01*
X164599334Y-106808714D02*
X164980286Y-106808714D01*
X164742191Y-106475381D02*
X164742191Y-107332524D01*
X164789810Y-107427762D01*
X164885048Y-107475381D01*
X164980286Y-107475381D01*
X165742192Y-106808714D02*
X165742192Y-107475381D01*
X165313620Y-106808714D02*
X165313620Y-107332524D01*
X165361239Y-107427762D01*
X165456477Y-107475381D01*
X165599335Y-107475381D01*
X165694573Y-107427762D01*
X165742192Y-107380143D01*
X166218382Y-107475381D02*
X166218382Y-106808714D01*
X166218382Y-106999190D02*
X166266001Y-106903952D01*
X166313620Y-106856333D01*
X166408858Y-106808714D01*
X166504097Y-106808714D01*
X167218383Y-107427762D02*
X167123145Y-107475381D01*
X166932668Y-107475381D01*
X166837430Y-107427762D01*
X166789811Y-107332524D01*
X166789811Y-106951571D01*
X166837430Y-106856333D01*
X166932668Y-106808714D01*
X167123145Y-106808714D01*
X167218383Y-106856333D01*
X167266002Y-106951571D01*
X167266002Y-107046810D01*
X166789811Y-107142048D01*
X154266000Y-108551571D02*
X154599334Y-108551571D01*
X154742191Y-109075381D02*
X154266000Y-109075381D01*
X154266000Y-108075381D01*
X154742191Y-108075381D01*
X155123143Y-109027762D02*
X155266000Y-109075381D01*
X155504096Y-109075381D01*
X155599334Y-109027762D01*
X155646953Y-108980143D01*
X155694572Y-108884905D01*
X155694572Y-108789667D01*
X155646953Y-108694429D01*
X155599334Y-108646810D01*
X155504096Y-108599190D01*
X155313619Y-108551571D01*
X155218381Y-108503952D01*
X155170762Y-108456333D01*
X155123143Y-108361095D01*
X155123143Y-108265857D01*
X155170762Y-108170619D01*
X155218381Y-108123000D01*
X155313619Y-108075381D01*
X155551715Y-108075381D01*
X155694572Y-108123000D01*
X156694572Y-108980143D02*
X156646953Y-109027762D01*
X156504096Y-109075381D01*
X156408858Y-109075381D01*
X156266000Y-109027762D01*
X156170762Y-108932524D01*
X156123143Y-108837286D01*
X156075524Y-108646810D01*
X156075524Y-108503952D01*
X156123143Y-108313476D01*
X156170762Y-108218238D01*
X156266000Y-108123000D01*
X156408858Y-108075381D01*
X156504096Y-108075381D01*
X156646953Y-108123000D01*
X156694572Y-108170619D01*
X158456477Y-108980143D02*
X158408858Y-109027762D01*
X158266001Y-109075381D01*
X158170763Y-109075381D01*
X158027905Y-109027762D01*
X157932667Y-108932524D01*
X157885048Y-108837286D01*
X157837429Y-108646810D01*
X157837429Y-108503952D01*
X157885048Y-108313476D01*
X157932667Y-108218238D01*
X158027905Y-108123000D01*
X158170763Y-108075381D01*
X158266001Y-108075381D01*
X158408858Y-108123000D01*
X158456477Y-108170619D01*
X158885048Y-109075381D02*
X158885048Y-108408714D01*
X158885048Y-108075381D02*
X158837429Y-108123000D01*
X158885048Y-108170619D01*
X158932667Y-108123000D01*
X158885048Y-108075381D01*
X158885048Y-108170619D01*
X159361238Y-109075381D02*
X159361238Y-108408714D01*
X159361238Y-108599190D02*
X159408857Y-108503952D01*
X159456476Y-108456333D01*
X159551714Y-108408714D01*
X159646953Y-108408714D01*
X160408858Y-109027762D02*
X160313620Y-109075381D01*
X160123143Y-109075381D01*
X160027905Y-109027762D01*
X159980286Y-108980143D01*
X159932667Y-108884905D01*
X159932667Y-108599190D01*
X159980286Y-108503952D01*
X160027905Y-108456333D01*
X160123143Y-108408714D01*
X160313620Y-108408714D01*
X160408858Y-108456333D01*
X161266001Y-108408714D02*
X161266001Y-109075381D01*
X160837429Y-108408714D02*
X160837429Y-108932524D01*
X160885048Y-109027762D01*
X160980286Y-109075381D01*
X161123144Y-109075381D01*
X161218382Y-109027762D01*
X161266001Y-108980143D01*
X161742191Y-109075381D02*
X161742191Y-108408714D01*
X161742191Y-108075381D02*
X161694572Y-108123000D01*
X161742191Y-108170619D01*
X161789810Y-108123000D01*
X161742191Y-108075381D01*
X161742191Y-108170619D01*
X162075524Y-108408714D02*
X162456476Y-108408714D01*
X162218381Y-108075381D02*
X162218381Y-108932524D01*
X162266000Y-109027762D01*
X162361238Y-109075381D01*
X162456476Y-109075381D01*
X163456477Y-108408714D02*
X163694572Y-109075381D01*
X163932668Y-108408714D01*
X164313620Y-108980143D02*
X164361239Y-109027762D01*
X164313620Y-109075381D01*
X164266001Y-109027762D01*
X164313620Y-108980143D01*
X164313620Y-109075381D01*
X165313620Y-109075381D02*
X164742191Y-109075381D01*
X165027905Y-109075381D02*
X165027905Y-108075381D01*
X164932667Y-108218238D01*
X164837429Y-108313476D01*
X164742191Y-108361095D01*
D10*
X161353571Y-127752286D02*
X161353571Y-128359429D01*
X161389286Y-128430857D01*
X161425000Y-128466571D01*
X161496429Y-128502286D01*
X161639286Y-128502286D01*
X161710714Y-128466571D01*
X161746429Y-128430857D01*
X161782143Y-128359429D01*
X161782143Y-127752286D01*
X162103571Y-127823714D02*
X162139285Y-127788000D01*
X162210714Y-127752286D01*
X162389285Y-127752286D01*
X162460714Y-127788000D01*
X162496428Y-127823714D01*
X162532143Y-127895143D01*
X162532143Y-127966571D01*
X162496428Y-128073714D01*
X162067857Y-128502286D01*
X162532143Y-128502286D01*
X158777858Y-127752286D02*
X159027858Y-128502286D01*
X159277858Y-127752286D01*
X159492143Y-127823714D02*
X159527857Y-127788000D01*
X159599286Y-127752286D01*
X159777857Y-127752286D01*
X159849286Y-127788000D01*
X159885000Y-127823714D01*
X159920715Y-127895143D01*
X159920715Y-127966571D01*
X159885000Y-128073714D01*
X159456429Y-128502286D01*
X159920715Y-128502286D01*
X156166429Y-127752286D02*
X156345000Y-128502286D01*
X156487857Y-127966571D01*
X156630715Y-128502286D01*
X156809286Y-127752286D01*
X157059286Y-127823714D02*
X157095000Y-127788000D01*
X157166429Y-127752286D01*
X157345000Y-127752286D01*
X157416429Y-127788000D01*
X157452143Y-127823714D01*
X157487858Y-127895143D01*
X157487858Y-127966571D01*
X157452143Y-128073714D01*
X157023572Y-128502286D01*
X157487858Y-128502286D01*
X135953571Y-127752286D02*
X135953571Y-128359429D01*
X135989286Y-128430857D01*
X136025000Y-128466571D01*
X136096429Y-128502286D01*
X136239286Y-128502286D01*
X136310714Y-128466571D01*
X136346429Y-128430857D01*
X136382143Y-128359429D01*
X136382143Y-127752286D01*
X137132143Y-128502286D02*
X136703571Y-128502286D01*
X136917857Y-128502286D02*
X136917857Y-127752286D01*
X136846428Y-127859429D01*
X136775000Y-127930857D01*
X136703571Y-127966571D01*
X133377858Y-127752286D02*
X133627858Y-128502286D01*
X133877858Y-127752286D01*
X134520715Y-128502286D02*
X134092143Y-128502286D01*
X134306429Y-128502286D02*
X134306429Y-127752286D01*
X134235000Y-127859429D01*
X134163572Y-127930857D01*
X134092143Y-127966571D01*
X130766429Y-127752286D02*
X130945000Y-128502286D01*
X131087857Y-127966571D01*
X131230715Y-128502286D01*
X131409286Y-127752286D01*
X132087858Y-128502286D02*
X131659286Y-128502286D01*
X131873572Y-128502286D02*
X131873572Y-127752286D01*
X131802143Y-127859429D01*
X131730715Y-127930857D01*
X131659286Y-127966571D01*
D13*
X147836000Y-91401000D02*
X148836000Y-91401000D01*
X148836000Y-89701000D02*
X147836000Y-89701000D01*
X151931000Y-88928000D02*
X151931000Y-89928000D01*
X153631000Y-89928000D02*
X153631000Y-88928000D01*
X141898000Y-87912000D02*
X141898000Y-88912000D01*
X143598000Y-88912000D02*
X143598000Y-87912000D01*
X132362000Y-96354000D02*
X133362000Y-96354000D01*
X133362000Y-94654000D02*
X132362000Y-94654000D01*
X137402000Y-96227000D02*
X138402000Y-96227000D01*
X138402000Y-94527000D02*
X137402000Y-94527000D01*
X138057000Y-99910000D02*
X139057000Y-99910000D01*
X139057000Y-98210000D02*
X138057000Y-98210000D01*
X147729000Y-114261000D02*
X148729000Y-114261000D01*
X148729000Y-112561000D02*
X147729000Y-112561000D01*
X151931000Y-111661000D02*
X151931000Y-112661000D01*
X153631000Y-112661000D02*
X153631000Y-111661000D01*
X141898000Y-111661000D02*
X141898000Y-112661000D01*
X143598000Y-112661000D02*
X143598000Y-111661000D01*
X132215000Y-118833000D02*
X133215000Y-118833000D01*
X133215000Y-117133000D02*
X132215000Y-117133000D01*
X137442000Y-119341000D02*
X138442000Y-119341000D01*
X138442000Y-117641000D02*
X137442000Y-117641000D01*
X137950000Y-122643000D02*
X138950000Y-122643000D01*
X138950000Y-120943000D02*
X137950000Y-120943000D01*
X133984000Y-90625000D02*
X137584000Y-90625000D01*
X137584000Y-87175000D02*
X133984000Y-87175000D01*
X134746000Y-113485000D02*
X138346000Y-113485000D01*
X138346000Y-110035000D02*
X134746000Y-110035000D01*
X146082000Y-115217000D02*
X146082000Y-115242000D01*
X150732000Y-115217000D02*
X150732000Y-115242000D01*
X150732000Y-123267000D02*
X150732000Y-123242000D01*
X146082000Y-123267000D02*
X146082000Y-123242000D01*
X146082000Y-115217000D02*
X150732000Y-115217000D01*
X146082000Y-123267000D02*
X150732000Y-123267000D01*
X146082000Y-115242000D02*
X145007000Y-115242000D01*
X146011000Y-92495000D02*
X146011000Y-92520000D01*
X150661000Y-92495000D02*
X150661000Y-92520000D01*
X150661000Y-100545000D02*
X150661000Y-100520000D01*
X146011000Y-100545000D02*
X146011000Y-100520000D01*
X146011000Y-92495000D02*
X150661000Y-92495000D01*
X146011000Y-100545000D02*
X150661000Y-100545000D01*
X146011000Y-92520000D02*
X144936000Y-92520000D01*
X135269000Y-129035000D02*
X130189000Y-129035000D01*
X130189000Y-129035000D02*
X130189000Y-131575000D01*
X130189000Y-131575000D02*
X135269000Y-131575000D01*
X138089000Y-131855000D02*
X136539000Y-131855000D01*
X135269000Y-131575000D02*
X135269000Y-129035000D01*
X136539000Y-128755000D02*
X138089000Y-128755000D01*
X138089000Y-128755000D02*
X138089000Y-131855000D01*
X160629000Y-129035000D02*
X155549000Y-129035000D01*
X155549000Y-129035000D02*
X155549000Y-131575000D01*
X155549000Y-131575000D02*
X160629000Y-131575000D01*
X163449000Y-131855000D02*
X161899000Y-131855000D01*
X160629000Y-131575000D02*
X160629000Y-129035000D01*
X161899000Y-128755000D02*
X163449000Y-128755000D01*
X163449000Y-128755000D02*
X163449000Y-131855000D01*
X148169334Y-88662143D02*
X148121715Y-88709762D01*
X147978858Y-88757381D01*
X147883620Y-88757381D01*
X147740762Y-88709762D01*
X147645524Y-88614524D01*
X147597905Y-88519286D01*
X147550286Y-88328810D01*
X147550286Y-88185952D01*
X147597905Y-87995476D01*
X147645524Y-87900238D01*
X147740762Y-87805000D01*
X147883620Y-87757381D01*
X147978858Y-87757381D01*
X148121715Y-87805000D01*
X148169334Y-87852619D01*
X149121715Y-88757381D02*
X148550286Y-88757381D01*
X148836000Y-88757381D02*
X148836000Y-87757381D01*
X148740762Y-87900238D01*
X148645524Y-87995476D01*
X148550286Y-88043095D01*
X151038143Y-88221666D02*
X151085762Y-88269285D01*
X151133381Y-88412142D01*
X151133381Y-88507380D01*
X151085762Y-88650238D01*
X150990524Y-88745476D01*
X150895286Y-88793095D01*
X150704810Y-88840714D01*
X150561952Y-88840714D01*
X150371476Y-88793095D01*
X150276238Y-88745476D01*
X150181000Y-88650238D01*
X150133381Y-88507380D01*
X150133381Y-88412142D01*
X150181000Y-88269285D01*
X150228619Y-88221666D01*
X150228619Y-87840714D02*
X150181000Y-87793095D01*
X150133381Y-87697857D01*
X150133381Y-87459761D01*
X150181000Y-87364523D01*
X150228619Y-87316904D01*
X150323857Y-87269285D01*
X150419095Y-87269285D01*
X150561952Y-87316904D01*
X151133381Y-87888333D01*
X151133381Y-87269285D01*
X141256143Y-88578666D02*
X141303762Y-88626285D01*
X141351381Y-88769142D01*
X141351381Y-88864380D01*
X141303762Y-89007238D01*
X141208524Y-89102476D01*
X141113286Y-89150095D01*
X140922810Y-89197714D01*
X140779952Y-89197714D01*
X140589476Y-89150095D01*
X140494238Y-89102476D01*
X140399000Y-89007238D01*
X140351381Y-88864380D01*
X140351381Y-88769142D01*
X140399000Y-88626285D01*
X140446619Y-88578666D01*
X140351381Y-88245333D02*
X140351381Y-87626285D01*
X140732333Y-87959619D01*
X140732333Y-87816761D01*
X140779952Y-87721523D01*
X140827571Y-87673904D01*
X140922810Y-87626285D01*
X141160905Y-87626285D01*
X141256143Y-87673904D01*
X141303762Y-87721523D01*
X141351381Y-87816761D01*
X141351381Y-88102476D01*
X141303762Y-88197714D01*
X141256143Y-88245333D01*
X132732334Y-93662143D02*
X132684715Y-93709762D01*
X132541858Y-93757381D01*
X132446620Y-93757381D01*
X132303762Y-93709762D01*
X132208524Y-93614524D01*
X132160905Y-93519286D01*
X132113286Y-93328810D01*
X132113286Y-93185952D01*
X132160905Y-92995476D01*
X132208524Y-92900238D01*
X132303762Y-92805000D01*
X132446620Y-92757381D01*
X132541858Y-92757381D01*
X132684715Y-92805000D01*
X132732334Y-92852619D01*
X133589477Y-93090714D02*
X133589477Y-93757381D01*
X133351381Y-92709762D02*
X133113286Y-93424048D01*
X133732334Y-93424048D01*
X137735334Y-93662143D02*
X137687715Y-93709762D01*
X137544858Y-93757381D01*
X137449620Y-93757381D01*
X137306762Y-93709762D01*
X137211524Y-93614524D01*
X137163905Y-93519286D01*
X137116286Y-93328810D01*
X137116286Y-93185952D01*
X137163905Y-92995476D01*
X137211524Y-92900238D01*
X137306762Y-92805000D01*
X137449620Y-92757381D01*
X137544858Y-92757381D01*
X137687715Y-92805000D01*
X137735334Y-92852619D01*
X138640096Y-92757381D02*
X138163905Y-92757381D01*
X138116286Y-93233571D01*
X138163905Y-93185952D01*
X138259143Y-93138333D01*
X138497239Y-93138333D01*
X138592477Y-93185952D01*
X138640096Y-93233571D01*
X138687715Y-93328810D01*
X138687715Y-93566905D01*
X138640096Y-93662143D01*
X138592477Y-93709762D01*
X138497239Y-93757381D01*
X138259143Y-93757381D01*
X138163905Y-93709762D01*
X138116286Y-93662143D01*
X138390334Y-101517143D02*
X138342715Y-101564762D01*
X138199858Y-101612381D01*
X138104620Y-101612381D01*
X137961762Y-101564762D01*
X137866524Y-101469524D01*
X137818905Y-101374286D01*
X137771286Y-101183810D01*
X137771286Y-101040952D01*
X137818905Y-100850476D01*
X137866524Y-100755238D01*
X137961762Y-100660000D01*
X138104620Y-100612381D01*
X138199858Y-100612381D01*
X138342715Y-100660000D01*
X138390334Y-100707619D01*
X139247477Y-100612381D02*
X139057000Y-100612381D01*
X138961762Y-100660000D01*
X138914143Y-100707619D01*
X138818905Y-100850476D01*
X138771286Y-101040952D01*
X138771286Y-101421905D01*
X138818905Y-101517143D01*
X138866524Y-101564762D01*
X138961762Y-101612381D01*
X139152239Y-101612381D01*
X139247477Y-101564762D01*
X139295096Y-101517143D01*
X139342715Y-101421905D01*
X139342715Y-101183810D01*
X139295096Y-101088571D01*
X139247477Y-101040952D01*
X139152239Y-100993333D01*
X138961762Y-100993333D01*
X138866524Y-101040952D01*
X138818905Y-101088571D01*
X138771286Y-101183810D01*
X148232334Y-111662143D02*
X148184715Y-111709762D01*
X148041858Y-111757381D01*
X147946620Y-111757381D01*
X147803762Y-111709762D01*
X147708524Y-111614524D01*
X147660905Y-111519286D01*
X147613286Y-111328810D01*
X147613286Y-111185952D01*
X147660905Y-110995476D01*
X147708524Y-110900238D01*
X147803762Y-110805000D01*
X147946620Y-110757381D01*
X148041858Y-110757381D01*
X148184715Y-110805000D01*
X148232334Y-110852619D01*
X148565667Y-110757381D02*
X149232334Y-110757381D01*
X148803762Y-111757381D01*
X151256143Y-110971666D02*
X151303762Y-111019285D01*
X151351381Y-111162142D01*
X151351381Y-111257380D01*
X151303762Y-111400238D01*
X151208524Y-111495476D01*
X151113286Y-111543095D01*
X150922810Y-111590714D01*
X150779952Y-111590714D01*
X150589476Y-111543095D01*
X150494238Y-111495476D01*
X150399000Y-111400238D01*
X150351381Y-111257380D01*
X150351381Y-111162142D01*
X150399000Y-111019285D01*
X150446619Y-110971666D01*
X150779952Y-110400238D02*
X150732333Y-110495476D01*
X150684714Y-110543095D01*
X150589476Y-110590714D01*
X150541857Y-110590714D01*
X150446619Y-110543095D01*
X150399000Y-110495476D01*
X150351381Y-110400238D01*
X150351381Y-110209761D01*
X150399000Y-110114523D01*
X150446619Y-110066904D01*
X150541857Y-110019285D01*
X150589476Y-110019285D01*
X150684714Y-110066904D01*
X150732333Y-110114523D01*
X150779952Y-110209761D01*
X150779952Y-110400238D01*
X150827571Y-110495476D01*
X150875190Y-110543095D01*
X150970429Y-110590714D01*
X151160905Y-110590714D01*
X151256143Y-110543095D01*
X151303762Y-110495476D01*
X151351381Y-110400238D01*
X151351381Y-110209761D01*
X151303762Y-110114523D01*
X151256143Y-110066904D01*
X151160905Y-110019285D01*
X150970429Y-110019285D01*
X150875190Y-110066904D01*
X150827571Y-110114523D01*
X150779952Y-110209761D01*
X143006143Y-108471666D02*
X143053762Y-108519285D01*
X143101381Y-108662142D01*
X143101381Y-108757380D01*
X143053762Y-108900238D01*
X142958524Y-108995476D01*
X142863286Y-109043095D01*
X142672810Y-109090714D01*
X142529952Y-109090714D01*
X142339476Y-109043095D01*
X142244238Y-108995476D01*
X142149000Y-108900238D01*
X142101381Y-108757380D01*
X142101381Y-108662142D01*
X142149000Y-108519285D01*
X142196619Y-108471666D01*
X143101381Y-107995476D02*
X143101381Y-107805000D01*
X143053762Y-107709761D01*
X143006143Y-107662142D01*
X142863286Y-107566904D01*
X142672810Y-107519285D01*
X142291857Y-107519285D01*
X142196619Y-107566904D01*
X142149000Y-107614523D01*
X142101381Y-107709761D01*
X142101381Y-107900238D01*
X142149000Y-107995476D01*
X142196619Y-108043095D01*
X142291857Y-108090714D01*
X142529952Y-108090714D01*
X142625190Y-108043095D01*
X142672810Y-107995476D01*
X142720429Y-107900238D01*
X142720429Y-107709761D01*
X142672810Y-107614523D01*
X142625190Y-107566904D01*
X142529952Y-107519285D01*
X132256143Y-116412143D02*
X132208524Y-116459762D01*
X132065667Y-116507381D01*
X131970429Y-116507381D01*
X131827571Y-116459762D01*
X131732333Y-116364524D01*
X131684714Y-116269286D01*
X131637095Y-116078810D01*
X131637095Y-115935952D01*
X131684714Y-115745476D01*
X131732333Y-115650238D01*
X131827571Y-115555000D01*
X131970429Y-115507381D01*
X132065667Y-115507381D01*
X132208524Y-115555000D01*
X132256143Y-115602619D01*
X133208524Y-116507381D02*
X132637095Y-116507381D01*
X132922809Y-116507381D02*
X132922809Y-115507381D01*
X132827571Y-115650238D01*
X132732333Y-115745476D01*
X132637095Y-115793095D01*
X133827571Y-115507381D02*
X133922810Y-115507381D01*
X134018048Y-115555000D01*
X134065667Y-115602619D01*
X134113286Y-115697857D01*
X134160905Y-115888333D01*
X134160905Y-116126429D01*
X134113286Y-116316905D01*
X134065667Y-116412143D01*
X134018048Y-116459762D01*
X133922810Y-116507381D01*
X133827571Y-116507381D01*
X133732333Y-116459762D01*
X133684714Y-116412143D01*
X133637095Y-116316905D01*
X133589476Y-116126429D01*
X133589476Y-115888333D01*
X133637095Y-115697857D01*
X133684714Y-115602619D01*
X133732333Y-115555000D01*
X133827571Y-115507381D01*
X137256143Y-116912143D02*
X137208524Y-116959762D01*
X137065667Y-117007381D01*
X136970429Y-117007381D01*
X136827571Y-116959762D01*
X136732333Y-116864524D01*
X136684714Y-116769286D01*
X136637095Y-116578810D01*
X136637095Y-116435952D01*
X136684714Y-116245476D01*
X136732333Y-116150238D01*
X136827571Y-116055000D01*
X136970429Y-116007381D01*
X137065667Y-116007381D01*
X137208524Y-116055000D01*
X137256143Y-116102619D01*
X138208524Y-117007381D02*
X137637095Y-117007381D01*
X137922809Y-117007381D02*
X137922809Y-116007381D01*
X137827571Y-116150238D01*
X137732333Y-116245476D01*
X137637095Y-116293095D01*
X139160905Y-117007381D02*
X138589476Y-117007381D01*
X138875190Y-117007381D02*
X138875190Y-116007381D01*
X138779952Y-116150238D01*
X138684714Y-116245476D01*
X138589476Y-116293095D01*
X137807143Y-124250143D02*
X137759524Y-124297762D01*
X137616667Y-124345381D01*
X137521429Y-124345381D01*
X137378571Y-124297762D01*
X137283333Y-124202524D01*
X137235714Y-124107286D01*
X137188095Y-123916810D01*
X137188095Y-123773952D01*
X137235714Y-123583476D01*
X137283333Y-123488238D01*
X137378571Y-123393000D01*
X137521429Y-123345381D01*
X137616667Y-123345381D01*
X137759524Y-123393000D01*
X137807143Y-123440619D01*
X138759524Y-124345381D02*
X138188095Y-124345381D01*
X138473809Y-124345381D02*
X138473809Y-123345381D01*
X138378571Y-123488238D01*
X138283333Y-123583476D01*
X138188095Y-123631095D01*
X139140476Y-123440619D02*
X139188095Y-123393000D01*
X139283333Y-123345381D01*
X139521429Y-123345381D01*
X139616667Y-123393000D01*
X139664286Y-123440619D01*
X139711905Y-123535857D01*
X139711905Y-123631095D01*
X139664286Y-123773952D01*
X139092857Y-124345381D01*
X139711905Y-124345381D01*
X135617334Y-92352381D02*
X135141143Y-92352381D01*
X135141143Y-91352381D01*
X136474477Y-92352381D02*
X135903048Y-92352381D01*
X136188762Y-92352381D02*
X136188762Y-91352381D01*
X136093524Y-91495238D01*
X135998286Y-91590476D01*
X135903048Y-91638095D01*
X136379334Y-115212381D02*
X135903143Y-115212381D01*
X135903143Y-114212381D01*
X136665048Y-114307619D02*
X136712667Y-114260000D01*
X136807905Y-114212381D01*
X137046001Y-114212381D01*
X137141239Y-114260000D01*
X137188858Y-114307619D01*
X137236477Y-114402857D01*
X137236477Y-114498095D01*
X137188858Y-114640952D01*
X136617429Y-115212381D01*
X137236477Y-115212381D01*
X147637095Y-123757381D02*
X147637095Y-124566905D01*
X147684714Y-124662143D01*
X147732333Y-124709762D01*
X147827571Y-124757381D01*
X148018048Y-124757381D01*
X148113286Y-124709762D01*
X148160905Y-124662143D01*
X148208524Y-124566905D01*
X148208524Y-123757381D01*
X148637095Y-123852619D02*
X148684714Y-123805000D01*
X148779952Y-123757381D01*
X149018048Y-123757381D01*
X149113286Y-123805000D01*
X149160905Y-123852619D01*
X149208524Y-123947857D01*
X149208524Y-124043095D01*
X149160905Y-124185952D01*
X148589476Y-124757381D01*
X149208524Y-124757381D01*
X147574095Y-101007381D02*
X147574095Y-101816905D01*
X147621714Y-101912143D01*
X147669333Y-101959762D01*
X147764571Y-102007381D01*
X147955048Y-102007381D01*
X148050286Y-101959762D01*
X148097905Y-101912143D01*
X148145524Y-101816905D01*
X148145524Y-101007381D01*
X149145524Y-102007381D02*
X148574095Y-102007381D01*
X148859809Y-102007381D02*
X148859809Y-101007381D01*
X148764571Y-101150238D01*
X148669333Y-101245476D01*
X148574095Y-101293095D01*
X146160905Y-84507381D02*
X146160905Y-83507381D01*
X146541858Y-83507381D01*
X146637096Y-83555000D01*
X146684715Y-83602619D01*
X146732334Y-83697857D01*
X146732334Y-83840714D01*
X146684715Y-83935952D01*
X146637096Y-83983571D01*
X146541858Y-84031190D01*
X146160905Y-84031190D01*
X147684715Y-84507381D02*
X147113286Y-84507381D01*
X147399000Y-84507381D02*
X147399000Y-83507381D01*
X147303762Y-83650238D01*
X147208524Y-83745476D01*
X147113286Y-83793095D01*
X139851381Y-131043095D02*
X138851381Y-131043095D01*
X138851381Y-130662142D01*
X138899000Y-130566904D01*
X138946619Y-130519285D01*
X139041857Y-130471666D01*
X139184714Y-130471666D01*
X139279952Y-130519285D01*
X139327571Y-130566904D01*
X139375190Y-130662142D01*
X139375190Y-131043095D01*
X138946619Y-130090714D02*
X138899000Y-130043095D01*
X138851381Y-129947857D01*
X138851381Y-129709761D01*
X138899000Y-129614523D01*
X138946619Y-129566904D01*
X139041857Y-129519285D01*
X139137095Y-129519285D01*
X139279952Y-129566904D01*
X139851381Y-130138333D01*
X139851381Y-129519285D01*
X164851381Y-131043095D02*
X163851381Y-131043095D01*
X163851381Y-130662142D01*
X163899000Y-130566904D01*
X163946619Y-130519285D01*
X164041857Y-130471666D01*
X164184714Y-130471666D01*
X164279952Y-130519285D01*
X164327571Y-130566904D01*
X164375190Y-130662142D01*
X164375190Y-131043095D01*
X163851381Y-130138333D02*
X163851381Y-129519285D01*
X164232333Y-129852619D01*
X164232333Y-129709761D01*
X164279952Y-129614523D01*
X164327571Y-129566904D01*
X164422810Y-129519285D01*
X164660905Y-129519285D01*
X164756143Y-129566904D01*
X164803762Y-129614523D01*
X164851381Y-129709761D01*
X164851381Y-129995476D01*
X164803762Y-130090714D01*
X164756143Y-130138333D01*
M02*
