M48
;DRILL file {KiCad 4.0.5+dfsg1-4} date Wed May  9 12:11:00 2018
;FORMAT={3:3/ absolute / metric / suppress leading zeros}
FMAT,2
METRIC,TZ
T1C0.700
%
G90
G05
M71
T1
X76000Y-78000
X76500Y-77000
X77000Y-78750
X77250Y-122250
X77500Y-76250
X77500Y-123500
X78000Y-77750
X78000Y-121250
X78250Y-79500
X78600Y-122600
X78750Y-76500
X78750Y-124000
X79000Y-120500
X79250Y-80500
X79500Y-77750
X79500Y-121500
X79850Y-123600
X80250Y-81500
X80500Y-78750
X80500Y-120500
X81000Y-123250
X81250Y-82500
X81500Y-79750
X81500Y-119500
X81500Y-124250
X81511Y-122261
X81750Y-78250
X82000Y-77000
X82250Y-83500
X82500Y-80750
X82500Y-118500
X82511Y-121261
X82750Y-124000
X82800Y-122600
X83200Y-77800
X83250Y-76250
X83250Y-84500
X83500Y-81750
X83500Y-117500
X83500Y-120500
X83750Y-123500
X84250Y-79000
X84250Y-85500
X84250Y-116650
X84350Y-101598
X84350Y-103000
X84350Y-104250
X84350Y-105500
X84350Y-106750
X84350Y-108000
X84350Y-109250
X84350Y-110500
X84350Y-111750
X84350Y-113000
X84350Y-114250
X84350Y-115500
X84500Y-76750
X84500Y-82750
X84500Y-119500
X84500Y-122250
X84750Y-78000
X84750Y-80000
X84750Y-100250
X85250Y-86500
X85500Y-83750
X85500Y-118500
X85500Y-121250
X85750Y-81000
X85750Y-99500
X86250Y-87500
X86250Y-102650
X86250Y-103850
X86250Y-105000
X86250Y-106250
X86250Y-107500
X86250Y-108750
X86250Y-110000
X86250Y-111250
X86250Y-112500
X86250Y-113750
X86250Y-115000
X86250Y-116250
X86500Y-84750
X86500Y-117500
X86500Y-120250
X86700Y-101600
X86750Y-82000
X86750Y-99000
X87500Y-85750
X87500Y-88000
X87500Y-116500
X87500Y-119250
X87750Y-83000
X88500Y-115500
X88500Y-118250
X88750Y-84000
X88750Y-86000
X88750Y-88000
X89500Y-114500
X89500Y-117250
X90000Y-84000
X90000Y-86000
X90000Y-88000
X90500Y-113500
X90500Y-116250
X91250Y-84000
X91250Y-86000
X91250Y-88000
X91500Y-112500
X91500Y-115250
X91750Y-89250
X92500Y-86000
X92500Y-111500
X92500Y-114250
X92750Y-84000
X93250Y-87000
X93500Y-113250
X94000Y-88000
X94250Y-86250
X94500Y-84000
X94750Y-112500
X95500Y-86250
X96250Y-84000
X96750Y-86250
X97500Y-84000
X98000Y-86250
X98750Y-84000
X99250Y-86250
X100000Y-84000
X100500Y-86250
X101250Y-84000
X101750Y-86250
X102500Y-84000
X103000Y-86250
X103750Y-84000
X104500Y-86500
X105000Y-84000
X105250Y-87500
X105500Y-112000
X106000Y-85000
X106500Y-112750
X107000Y-86000
X107500Y-88750
X107750Y-87250
X107750Y-112750
X108250Y-110750
X109000Y-112750
X109489Y-109739
X110000Y-112000
X110364Y-108864
X111000Y-111000
X111364Y-107864
X112000Y-110000
X112364Y-106864
X112850Y-104750
X112850Y-106000
X112851Y-103464
X113000Y-109000
X113250Y-101000
X113500Y-98250
X113739Y-102239
X114000Y-108000
X114250Y-100500
X114750Y-104500
X114750Y-105750
X114750Y-107000
X115000Y-98500
X115500Y-100500
X115500Y-103500
X116500Y-98500
X116750Y-100500
X116750Y-103500
X117750Y-98500
X118000Y-100500
X118000Y-103500
X119000Y-98500
X119250Y-100500
X119250Y-103500
X120250Y-98500
X120500Y-100500
X120500Y-103500
X121250Y-97750
X121750Y-96750
X121750Y-100000
X121750Y-103500
X122750Y-96000
X122750Y-101000
X122971Y-103734
X123000Y-97400
X123000Y-99250
X123200Y-102400
X124000Y-96250
X124000Y-98500
X124000Y-101250
X124250Y-103500
X124500Y-97500
X124750Y-102250
X126500Y-74250
X127500Y-71250
X127500Y-73250
T0
M30
