G04 #@! TF.FileFunction,Soldermask,Bot*
%FSLAX46Y46*%
G04 Gerber Fmt 4.6, Leading zero omitted, Abs format (unit mm)*
G04 Created by KiCad (PCBNEW 4.0.2-stable) date Tue 13 Dec 2016 10:43:35 AM CET*
%MOMM*%
G01*
G04 APERTURE LIST*
%ADD10C,0.100000*%
%ADD11C,0.200000*%
G04 APERTURE END LIST*
D10*
D11*
X80500000Y-133000000D02*
X79500000Y-133000000D01*
X92500000Y-133000000D02*
X91500000Y-133000000D01*
X91500000Y-67000000D02*
X92500000Y-67000000D01*
X79500000Y-67000000D02*
X80500000Y-67000000D01*
X129000000Y-83000000D02*
X129000000Y-84000000D01*
X129000000Y-71000000D02*
X129000000Y-72000000D01*
D10*
G36*
X81600000Y-139225000D02*
X80400000Y-139225000D01*
X80400000Y-137775000D01*
X81600000Y-137775000D01*
X81600000Y-139225000D01*
X81600000Y-139225000D01*
G37*
G36*
X91600000Y-139225000D02*
X90400000Y-139225000D01*
X90400000Y-137775000D01*
X91600000Y-137775000D01*
X91600000Y-139225000D01*
X91600000Y-139225000D01*
G37*
G36*
X93600000Y-139225000D02*
X92400000Y-139225000D01*
X92400000Y-137775000D01*
X93600000Y-137775000D01*
X93600000Y-139225000D01*
X93600000Y-139225000D01*
G37*
G36*
X79600000Y-139225000D02*
X78400000Y-139225000D01*
X78400000Y-137775000D01*
X79600000Y-137775000D01*
X79600000Y-139225000D01*
X79600000Y-139225000D01*
G37*
G36*
X118250000Y-138900000D02*
X116750000Y-138900000D01*
X116750000Y-138000000D01*
X118250000Y-138000000D01*
X118250000Y-138900000D01*
X118250000Y-138900000D01*
G37*
G36*
X116250000Y-138900000D02*
X114750000Y-138900000D01*
X114750000Y-138000000D01*
X116250000Y-138000000D01*
X116250000Y-138900000D01*
X116250000Y-138900000D01*
G37*
G36*
X114250000Y-138900000D02*
X112750000Y-138900000D01*
X112750000Y-138000000D01*
X114250000Y-138000000D01*
X114250000Y-138900000D01*
X114250000Y-138900000D01*
G37*
G36*
X83600000Y-138225000D02*
X82400000Y-138225000D01*
X82400000Y-136775000D01*
X83600000Y-136775000D01*
X83600000Y-138225000D01*
X83600000Y-138225000D01*
G37*
G36*
X85600000Y-138225000D02*
X84400000Y-138225000D01*
X84400000Y-136775000D01*
X85600000Y-136775000D01*
X85600000Y-138225000D01*
X85600000Y-138225000D01*
G37*
G36*
X87600000Y-138225000D02*
X86400000Y-138225000D01*
X86400000Y-136775000D01*
X87600000Y-136775000D01*
X87600000Y-138225000D01*
X87600000Y-138225000D01*
G37*
G36*
X89600000Y-138225000D02*
X88400000Y-138225000D01*
X88400000Y-136775000D01*
X89600000Y-136775000D01*
X89600000Y-138225000D01*
X89600000Y-138225000D01*
G37*
G36*
X81400000Y-137250000D02*
X80500000Y-137250000D01*
X80500000Y-135750000D01*
X81400000Y-135750000D01*
X81400000Y-137250000D01*
X81400000Y-137250000D01*
G37*
G36*
X91500000Y-137250000D02*
X90600000Y-137250000D01*
X90600000Y-135750000D01*
X91500000Y-135750000D01*
X91500000Y-137250000D01*
X91500000Y-137250000D01*
G37*
G36*
X93400000Y-137250000D02*
X92500000Y-137250000D01*
X92500000Y-135750000D01*
X93400000Y-135750000D01*
X93400000Y-137250000D01*
X93400000Y-137250000D01*
G37*
G36*
X79500000Y-137250000D02*
X78600000Y-137250000D01*
X78600000Y-135750000D01*
X79500000Y-135750000D01*
X79500000Y-137250000D01*
X79500000Y-137250000D01*
G37*
G36*
X135220572Y-132901396D02*
X135623992Y-132984206D01*
X136003642Y-133143796D01*
X136345070Y-133374092D01*
X136635259Y-133666314D01*
X136863164Y-134009341D01*
X137020100Y-134390094D01*
X137100006Y-134793653D01*
X137100006Y-134793659D01*
X137100090Y-134794084D01*
X137093522Y-135264473D01*
X137093427Y-135264890D01*
X137093427Y-135264902D01*
X137002283Y-135666070D01*
X136834776Y-136042297D01*
X136597382Y-136378826D01*
X136299148Y-136662830D01*
X135951423Y-136883503D01*
X135567463Y-137032432D01*
X135161891Y-137103945D01*
X134750150Y-137095319D01*
X134347926Y-137006885D01*
X133970534Y-136842006D01*
X133632362Y-136606972D01*
X133346278Y-136310722D01*
X133123187Y-135964553D01*
X132971580Y-135581638D01*
X132897238Y-135176576D01*
X132902987Y-134764780D01*
X132988612Y-134361951D01*
X133150849Y-133983422D01*
X133383521Y-133643614D01*
X133677764Y-133355469D01*
X134022371Y-133129965D01*
X134404213Y-132975691D01*
X134808753Y-132898521D01*
X135220572Y-132901396D01*
X135220572Y-132901396D01*
G37*
G36*
X100220572Y-132901396D02*
X100623992Y-132984206D01*
X101003642Y-133143796D01*
X101345070Y-133374092D01*
X101635259Y-133666314D01*
X101863164Y-134009341D01*
X102020100Y-134390094D01*
X102100006Y-134793653D01*
X102100006Y-134793659D01*
X102100090Y-134794084D01*
X102093522Y-135264473D01*
X102093427Y-135264890D01*
X102093427Y-135264902D01*
X102002283Y-135666070D01*
X101834776Y-136042297D01*
X101597382Y-136378826D01*
X101299148Y-136662830D01*
X100951423Y-136883503D01*
X100567463Y-137032432D01*
X100161891Y-137103945D01*
X99750150Y-137095319D01*
X99347926Y-137006885D01*
X98970534Y-136842006D01*
X98632362Y-136606972D01*
X98346278Y-136310722D01*
X98123187Y-135964553D01*
X97971580Y-135581638D01*
X97897238Y-135176576D01*
X97902987Y-134764780D01*
X97988612Y-134361951D01*
X98150849Y-133983422D01*
X98383521Y-133643614D01*
X98677764Y-133355469D01*
X99022371Y-133129965D01*
X99404213Y-132975691D01*
X99808753Y-132898521D01*
X100220572Y-132901396D01*
X100220572Y-132901396D01*
G37*
G36*
X65220572Y-132901396D02*
X65623992Y-132984206D01*
X66003642Y-133143796D01*
X66345070Y-133374092D01*
X66635259Y-133666314D01*
X66863164Y-134009341D01*
X67020100Y-134390094D01*
X67100006Y-134793653D01*
X67100006Y-134793659D01*
X67100090Y-134794084D01*
X67093522Y-135264473D01*
X67093427Y-135264890D01*
X67093427Y-135264902D01*
X67002283Y-135666070D01*
X66834776Y-136042297D01*
X66597382Y-136378826D01*
X66299148Y-136662830D01*
X65951423Y-136883503D01*
X65567463Y-137032432D01*
X65161891Y-137103945D01*
X64750150Y-137095319D01*
X64347926Y-137006885D01*
X63970534Y-136842006D01*
X63632362Y-136606972D01*
X63346278Y-136310722D01*
X63123187Y-135964553D01*
X62971580Y-135581638D01*
X62897238Y-135176576D01*
X62902987Y-134764780D01*
X62988612Y-134361951D01*
X63150849Y-133983422D01*
X63383521Y-133643614D01*
X63677764Y-133355469D01*
X64022371Y-133129965D01*
X64404213Y-132975691D01*
X64808753Y-132898521D01*
X65220572Y-132901396D01*
X65220572Y-132901396D01*
G37*
G36*
X116250000Y-137000000D02*
X114750000Y-137000000D01*
X114750000Y-136100000D01*
X116250000Y-136100000D01*
X116250000Y-137000000D01*
X116250000Y-137000000D01*
G37*
G36*
X118250000Y-137000000D02*
X116750000Y-137000000D01*
X116750000Y-136100000D01*
X118250000Y-136100000D01*
X118250000Y-137000000D01*
X118250000Y-137000000D01*
G37*
G36*
X114250000Y-137000000D02*
X112750000Y-137000000D01*
X112750000Y-136100000D01*
X114250000Y-136100000D01*
X114250000Y-137000000D01*
X114250000Y-137000000D01*
G37*
G36*
X116250000Y-135650000D02*
X114750000Y-135650000D01*
X114750000Y-134750000D01*
X116250000Y-134750000D01*
X116250000Y-135650000D01*
X116250000Y-135650000D01*
G37*
G36*
X114250000Y-135650000D02*
X112750000Y-135650000D01*
X112750000Y-134750000D01*
X114250000Y-134750000D01*
X114250000Y-135650000D01*
X114250000Y-135650000D01*
G37*
G36*
X118250000Y-135650000D02*
X116750000Y-135650000D01*
X116750000Y-134750000D01*
X118250000Y-134750000D01*
X118250000Y-135650000D01*
X118250000Y-135650000D01*
G37*
G36*
X84175000Y-135305000D02*
X82425000Y-135305000D01*
X82425000Y-134505000D01*
X84175000Y-134505000D01*
X84175000Y-135305000D01*
X84175000Y-135305000D01*
G37*
G36*
X89575000Y-135305000D02*
X87825000Y-135305000D01*
X87825000Y-134505000D01*
X89575000Y-134505000D01*
X89575000Y-135305000D01*
X89575000Y-135305000D01*
G37*
G36*
X93350000Y-135100000D02*
X90650000Y-135100000D01*
X90650000Y-133900000D01*
X93350000Y-133900000D01*
X93350000Y-135100000D01*
X93350000Y-135100000D01*
G37*
G36*
X81350000Y-135100000D02*
X78650000Y-135100000D01*
X78650000Y-133900000D01*
X81350000Y-133900000D01*
X81350000Y-135100000D01*
X81350000Y-135100000D01*
G37*
G36*
X95750000Y-134400000D02*
X94250000Y-134400000D01*
X94250000Y-133500000D01*
X95750000Y-133500000D01*
X95750000Y-134400000D01*
X95750000Y-134400000D01*
G37*
G36*
X77750000Y-134400000D02*
X76250000Y-134400000D01*
X76250000Y-133500000D01*
X77750000Y-133500000D01*
X77750000Y-134400000D01*
X77750000Y-134400000D01*
G37*
G36*
X84175000Y-134035000D02*
X82425000Y-134035000D01*
X82425000Y-133235000D01*
X84175000Y-133235000D01*
X84175000Y-134035000D01*
X84175000Y-134035000D01*
G37*
G36*
X89575000Y-134035000D02*
X87825000Y-134035000D01*
X87825000Y-133235000D01*
X89575000Y-133235000D01*
X89575000Y-134035000D01*
X89575000Y-134035000D01*
G37*
G36*
X118250000Y-133750000D02*
X116750000Y-133750000D01*
X116750000Y-132850000D01*
X118250000Y-132850000D01*
X118250000Y-133750000D01*
X118250000Y-133750000D01*
G37*
G36*
X116250000Y-133750000D02*
X114750000Y-133750000D01*
X114750000Y-132850000D01*
X116250000Y-132850000D01*
X116250000Y-133750000D01*
X116250000Y-133750000D01*
G37*
G36*
X114250000Y-133750000D02*
X112750000Y-133750000D01*
X112750000Y-132850000D01*
X114250000Y-132850000D01*
X114250000Y-133750000D01*
X114250000Y-133750000D01*
G37*
G36*
X80600000Y-133600000D02*
X79400000Y-133600000D01*
X79400000Y-132400000D01*
X80600000Y-132400000D01*
X80600000Y-133600000D01*
X80600000Y-133600000D01*
G37*
G36*
X92600000Y-133600000D02*
X91400000Y-133600000D01*
X91400000Y-132400000D01*
X92600000Y-132400000D01*
X92600000Y-133600000D01*
X92600000Y-133600000D01*
G37*
G36*
X89575000Y-132765000D02*
X87825000Y-132765000D01*
X87825000Y-131965000D01*
X89575000Y-131965000D01*
X89575000Y-132765000D01*
X89575000Y-132765000D01*
G37*
G36*
X84175000Y-132765000D02*
X82425000Y-132765000D01*
X82425000Y-131965000D01*
X84175000Y-131965000D01*
X84175000Y-132765000D01*
X84175000Y-132765000D01*
G37*
G36*
X127400000Y-132750000D02*
X126500000Y-132750000D01*
X126500000Y-131250000D01*
X127400000Y-131250000D01*
X127400000Y-132750000D01*
X127400000Y-132750000D01*
G37*
G36*
X125500000Y-132750000D02*
X124600000Y-132750000D01*
X124600000Y-131250000D01*
X125500000Y-131250000D01*
X125500000Y-132750000D01*
X125500000Y-132750000D01*
G37*
G36*
X122100000Y-132725000D02*
X120900000Y-132725000D01*
X120900000Y-131275000D01*
X122100000Y-131275000D01*
X122100000Y-132725000D01*
X122100000Y-132725000D01*
G37*
G36*
X124100000Y-132725000D02*
X122900000Y-132725000D01*
X122900000Y-131275000D01*
X124100000Y-131275000D01*
X124100000Y-132725000D01*
X124100000Y-132725000D01*
G37*
G36*
X77750000Y-132500000D02*
X76250000Y-132500000D01*
X76250000Y-131600000D01*
X77750000Y-131600000D01*
X77750000Y-132500000D01*
X77750000Y-132500000D01*
G37*
G36*
X95750000Y-132500000D02*
X94250000Y-132500000D01*
X94250000Y-131600000D01*
X95750000Y-131600000D01*
X95750000Y-132500000D01*
X95750000Y-132500000D01*
G37*
G36*
X81350000Y-132100000D02*
X78650000Y-132100000D01*
X78650000Y-130900000D01*
X81350000Y-130900000D01*
X81350000Y-132100000D01*
X81350000Y-132100000D01*
G37*
G36*
X93350000Y-132100000D02*
X90650000Y-132100000D01*
X90650000Y-130900000D01*
X93350000Y-130900000D01*
X93350000Y-132100000D01*
X93350000Y-132100000D01*
G37*
G36*
X111000000Y-131750000D02*
X110100000Y-131750000D01*
X110100000Y-130250000D01*
X111000000Y-130250000D01*
X111000000Y-131750000D01*
X111000000Y-131750000D01*
G37*
G36*
X112900000Y-131750000D02*
X112000000Y-131750000D01*
X112000000Y-130250000D01*
X112900000Y-130250000D01*
X112900000Y-131750000D01*
X112900000Y-131750000D01*
G37*
G36*
X115225000Y-131600000D02*
X113775000Y-131600000D01*
X113775000Y-130400000D01*
X115225000Y-130400000D01*
X115225000Y-131600000D01*
X115225000Y-131600000D01*
G37*
G36*
X84175000Y-131495000D02*
X82425000Y-131495000D01*
X82425000Y-130695000D01*
X84175000Y-130695000D01*
X84175000Y-131495000D01*
X84175000Y-131495000D01*
G37*
G36*
X89575000Y-131495000D02*
X87825000Y-131495000D01*
X87825000Y-130695000D01*
X89575000Y-130695000D01*
X89575000Y-131495000D01*
X89575000Y-131495000D01*
G37*
G36*
X80940000Y-130285000D02*
X77560000Y-130285000D01*
X77560000Y-128430000D01*
X80940000Y-128430000D01*
X80940000Y-130285000D01*
X80940000Y-130285000D01*
G37*
G36*
X93690000Y-130285000D02*
X90310000Y-130285000D01*
X90310000Y-128430000D01*
X93690000Y-128430000D01*
X93690000Y-130285000D01*
X93690000Y-130285000D01*
G37*
G36*
X111000000Y-129750000D02*
X110100000Y-129750000D01*
X110100000Y-128250000D01*
X111000000Y-128250000D01*
X111000000Y-129750000D01*
X111000000Y-129750000D01*
G37*
G36*
X112900000Y-129750000D02*
X112000000Y-129750000D01*
X112000000Y-128250000D01*
X112900000Y-128250000D01*
X112900000Y-129750000D01*
X112900000Y-129750000D01*
G37*
G36*
X115225000Y-129600000D02*
X113775000Y-129600000D01*
X113775000Y-128400000D01*
X115225000Y-128400000D01*
X115225000Y-129600000D01*
X115225000Y-129600000D01*
G37*
G36*
X122990000Y-129450000D02*
X119010000Y-129450000D01*
X119010000Y-128050000D01*
X122990000Y-128050000D01*
X122990000Y-129450000D01*
X122990000Y-129450000D01*
G37*
G36*
X89575000Y-128805000D02*
X87825000Y-128805000D01*
X87825000Y-128005000D01*
X89575000Y-128005000D01*
X89575000Y-128805000D01*
X89575000Y-128805000D01*
G37*
G36*
X89575000Y-71937500D02*
X89577474Y-71954912D01*
X89584702Y-71970945D01*
X89596110Y-71984331D01*
X89610795Y-71994008D01*
X89627595Y-71999210D01*
X89637500Y-72000000D01*
X94500000Y-72000000D01*
X94500000Y-73687500D01*
X94502474Y-73704912D01*
X94509702Y-73720945D01*
X94521110Y-73734331D01*
X94535795Y-73744008D01*
X94552595Y-73749210D01*
X94562500Y-73750000D01*
X97500000Y-73750000D01*
X97500000Y-76500000D01*
X96002310Y-79380174D01*
X95191930Y-80938596D01*
X95186092Y-80955186D01*
X95185107Y-80972746D01*
X95189054Y-80989884D01*
X95197618Y-81005245D01*
X95210123Y-81017612D01*
X95225578Y-81026005D01*
X95242759Y-81029760D01*
X95266569Y-81026913D01*
X99994038Y-79501923D01*
X99994039Y-79501923D01*
X100000000Y-79500000D01*
X100003335Y-79501076D01*
X100003336Y-79501076D01*
X100232500Y-79575000D01*
X115500000Y-84500000D01*
X118623207Y-94181943D01*
X118630908Y-94197754D01*
X118642708Y-94210795D01*
X118657675Y-94220031D01*
X118674622Y-94224732D01*
X118692208Y-94224526D01*
X118709040Y-94219429D01*
X118728761Y-94204988D01*
X123495767Y-89004618D01*
X123495766Y-89004618D01*
X123500000Y-89000000D01*
X127500000Y-89000000D01*
X127500000Y-96362500D01*
X127502474Y-96379912D01*
X127509702Y-96395945D01*
X127521110Y-96409331D01*
X127535795Y-96419008D01*
X127552595Y-96424210D01*
X127562500Y-96425000D01*
X128035000Y-96425000D01*
X128035000Y-98175000D01*
X127562500Y-98175000D01*
X127545088Y-98177474D01*
X127529055Y-98184702D01*
X127515669Y-98196110D01*
X127505992Y-98210795D01*
X127500790Y-98227595D01*
X127500000Y-98237500D01*
X127500000Y-99687500D01*
X127502474Y-99704912D01*
X127509702Y-99720945D01*
X127521110Y-99734331D01*
X127535795Y-99744008D01*
X127552595Y-99749210D01*
X127562500Y-99750000D01*
X128750000Y-99750000D01*
X128750000Y-101762500D01*
X128752474Y-101779912D01*
X128759702Y-101795945D01*
X128771110Y-101809331D01*
X128785795Y-101819008D01*
X128802595Y-101824210D01*
X128812500Y-101825000D01*
X129305000Y-101825000D01*
X129305000Y-103575000D01*
X128812500Y-103575000D01*
X128795088Y-103577474D01*
X128779055Y-103584702D01*
X128765669Y-103596110D01*
X128755992Y-103610795D01*
X128750790Y-103627595D01*
X128750000Y-103637500D01*
X128750000Y-108500000D01*
X127062500Y-108500000D01*
X127045088Y-108502474D01*
X127029055Y-108509702D01*
X127015669Y-108521110D01*
X127005992Y-108535795D01*
X127000790Y-108552595D01*
X127000000Y-108562500D01*
X127000000Y-111500000D01*
X124000000Y-111500000D01*
X123995131Y-111493913D01*
X123995129Y-111493912D01*
X118934674Y-105168342D01*
X118921865Y-105156291D01*
X118906205Y-105148286D01*
X118888936Y-105144960D01*
X118871423Y-105146578D01*
X118855054Y-105153010D01*
X118841126Y-105163748D01*
X118830740Y-105177941D01*
X118826388Y-105188196D01*
X115500000Y-115500000D01*
X104650000Y-119000000D01*
X100005962Y-120498077D01*
X100005961Y-120498077D01*
X100000000Y-120500000D01*
X99994039Y-120498077D01*
X97081688Y-119558609D01*
X97064357Y-119555619D01*
X97046879Y-119557575D01*
X97030638Y-119564322D01*
X97016920Y-119575328D01*
X97006811Y-119589719D01*
X97001111Y-119606357D01*
X97000000Y-119618091D01*
X97000000Y-127000000D01*
X89637500Y-127000000D01*
X89620088Y-127002474D01*
X89604055Y-127009702D01*
X89590669Y-127021110D01*
X89580992Y-127035795D01*
X89575790Y-127052595D01*
X89575000Y-127062500D01*
X89575000Y-127535000D01*
X87825000Y-127535000D01*
X87825000Y-127062500D01*
X87822526Y-127045088D01*
X87815298Y-127029055D01*
X87803890Y-127015669D01*
X87789205Y-127005992D01*
X87772405Y-127000790D01*
X87762500Y-127000000D01*
X86312500Y-127000000D01*
X86295088Y-127002474D01*
X86279055Y-127009702D01*
X86265669Y-127021110D01*
X86255992Y-127035795D01*
X86250790Y-127052595D01*
X86250000Y-127062500D01*
X86250000Y-128250000D01*
X84237500Y-128250000D01*
X84220088Y-128252474D01*
X84204055Y-128259702D01*
X84190669Y-128271110D01*
X84180992Y-128285795D01*
X84175790Y-128302595D01*
X84175000Y-128312500D01*
X84175000Y-128805000D01*
X82425000Y-128805000D01*
X82425000Y-128312500D01*
X82422526Y-128295088D01*
X82415298Y-128279055D01*
X82403890Y-128265669D01*
X82389205Y-128255992D01*
X82372405Y-128250790D01*
X82362500Y-128250000D01*
X77500000Y-128250000D01*
X77500000Y-126562500D01*
X77497526Y-126545088D01*
X77490298Y-126529055D01*
X77478890Y-126515669D01*
X77464205Y-126505992D01*
X77447405Y-126500790D01*
X77437500Y-126500000D01*
X74500000Y-126500000D01*
X74500000Y-123500000D01*
X82697759Y-116326961D01*
X84280369Y-114942177D01*
X84291843Y-114928849D01*
X84299150Y-114912852D01*
X84301711Y-114895452D01*
X84298694Y-114875953D01*
X79501923Y-100005962D01*
X79501923Y-100005961D01*
X79500000Y-100000000D01*
X80068548Y-98237500D01*
X84329672Y-85028016D01*
X84332662Y-85010685D01*
X84330706Y-84993207D01*
X84323959Y-84976966D01*
X84310697Y-84961232D01*
X75254774Y-77254063D01*
X75250000Y-77250000D01*
X75250000Y-73250000D01*
X82362500Y-73250000D01*
X82379912Y-73247526D01*
X82395945Y-73240298D01*
X82409331Y-73228890D01*
X82419008Y-73214205D01*
X82424210Y-73197405D01*
X82425000Y-73187500D01*
X82425000Y-72715000D01*
X84175000Y-72715000D01*
X84175000Y-73187500D01*
X84177474Y-73204912D01*
X84184702Y-73220945D01*
X84196110Y-73234331D01*
X84210795Y-73244008D01*
X84227595Y-73249210D01*
X84237500Y-73250000D01*
X85687500Y-73250000D01*
X85704912Y-73247526D01*
X85720945Y-73240298D01*
X85734331Y-73228890D01*
X85744008Y-73214205D01*
X85749210Y-73197405D01*
X85750000Y-73187500D01*
X85750000Y-72000000D01*
X87762500Y-72000000D01*
X87779912Y-71997526D01*
X87795945Y-71990298D01*
X87809331Y-71978890D01*
X87819008Y-71964205D01*
X87824210Y-71947405D01*
X87825000Y-71937500D01*
X87825000Y-71445000D01*
X89575000Y-71445000D01*
X89575000Y-71937500D01*
X89575000Y-71937500D01*
G37*
G36*
X77150000Y-128600000D02*
X75350000Y-128600000D01*
X75350000Y-127400000D01*
X77150000Y-127400000D01*
X77150000Y-128600000D01*
X77150000Y-128600000D01*
G37*
G36*
X95900000Y-128600000D02*
X94100000Y-128600000D01*
X94100000Y-127400000D01*
X95900000Y-127400000D01*
X95900000Y-128600000D01*
X95900000Y-128600000D01*
G37*
G36*
X112900000Y-127750000D02*
X112000000Y-127750000D01*
X112000000Y-126250000D01*
X112900000Y-126250000D01*
X112900000Y-127750000D01*
X112900000Y-127750000D01*
G37*
G36*
X111000000Y-127750000D02*
X110100000Y-127750000D01*
X110100000Y-126250000D01*
X111000000Y-126250000D01*
X111000000Y-127750000D01*
X111000000Y-127750000D01*
G37*
G36*
X115225000Y-127600000D02*
X113775000Y-127600000D01*
X113775000Y-126400000D01*
X115225000Y-126400000D01*
X115225000Y-127600000D01*
X115225000Y-127600000D01*
G37*
G36*
X124950000Y-127490000D02*
X123550000Y-127490000D01*
X123550000Y-123510000D01*
X124950000Y-123510000D01*
X124950000Y-127490000D01*
X124950000Y-127490000D01*
G37*
G36*
X118450000Y-127490000D02*
X117050000Y-127490000D01*
X117050000Y-123510000D01*
X118450000Y-123510000D01*
X118450000Y-127490000D01*
X118450000Y-127490000D01*
G37*
G36*
X112900000Y-125750000D02*
X112000000Y-125750000D01*
X112000000Y-124250000D01*
X112900000Y-124250000D01*
X112900000Y-125750000D01*
X112900000Y-125750000D01*
G37*
G36*
X111000000Y-125750000D02*
X110100000Y-125750000D01*
X110100000Y-124250000D01*
X111000000Y-124250000D01*
X111000000Y-125750000D01*
X111000000Y-125750000D01*
G37*
G36*
X115225000Y-125600000D02*
X113775000Y-125600000D01*
X113775000Y-124400000D01*
X115225000Y-124400000D01*
X115225000Y-125600000D01*
X115225000Y-125600000D01*
G37*
G36*
X111000000Y-123750000D02*
X110100000Y-123750000D01*
X110100000Y-122250000D01*
X111000000Y-122250000D01*
X111000000Y-123750000D01*
X111000000Y-123750000D01*
G37*
G36*
X112900000Y-123750000D02*
X112000000Y-123750000D01*
X112000000Y-122250000D01*
X112900000Y-122250000D01*
X112900000Y-123750000D01*
X112900000Y-123750000D01*
G37*
G36*
X115225000Y-123600000D02*
X113775000Y-123600000D01*
X113775000Y-122400000D01*
X115225000Y-122400000D01*
X115225000Y-123600000D01*
X115225000Y-123600000D01*
G37*
G36*
X122990000Y-122950000D02*
X119010000Y-122950000D01*
X119010000Y-121550000D01*
X122990000Y-121550000D01*
X122990000Y-122950000D01*
X122990000Y-122950000D01*
G37*
G36*
X111000000Y-121750000D02*
X110100000Y-121750000D01*
X110100000Y-120250000D01*
X111000000Y-120250000D01*
X111000000Y-121750000D01*
X111000000Y-121750000D01*
G37*
G36*
X112900000Y-121750000D02*
X112000000Y-121750000D01*
X112000000Y-120250000D01*
X112900000Y-120250000D01*
X112900000Y-121750000D01*
X112900000Y-121750000D01*
G37*
G36*
X115225000Y-121600000D02*
X113775000Y-121600000D01*
X113775000Y-120400000D01*
X115225000Y-120400000D01*
X115225000Y-121600000D01*
X115225000Y-121600000D01*
G37*
G36*
X118225000Y-120100000D02*
X116775000Y-120100000D01*
X116775000Y-118900000D01*
X118225000Y-118900000D01*
X118225000Y-120100000D01*
X118225000Y-120100000D01*
G37*
G36*
X122225000Y-120100000D02*
X120775000Y-120100000D01*
X120775000Y-118900000D01*
X122225000Y-118900000D01*
X122225000Y-120100000D01*
X122225000Y-120100000D01*
G37*
G36*
X124225000Y-120100000D02*
X122775000Y-120100000D01*
X122775000Y-118900000D01*
X124225000Y-118900000D01*
X124225000Y-120100000D01*
X124225000Y-120100000D01*
G37*
G36*
X126225000Y-120100000D02*
X124775000Y-120100000D01*
X124775000Y-118900000D01*
X126225000Y-118900000D01*
X126225000Y-120100000D01*
X126225000Y-120100000D01*
G37*
G36*
X120225000Y-120100000D02*
X118775000Y-120100000D01*
X118775000Y-118900000D01*
X120225000Y-118900000D01*
X120225000Y-120100000D01*
X120225000Y-120100000D01*
G37*
G36*
X120225000Y-118100000D02*
X118775000Y-118100000D01*
X118775000Y-116900000D01*
X120225000Y-116900000D01*
X120225000Y-118100000D01*
X120225000Y-118100000D01*
G37*
G36*
X118225000Y-118100000D02*
X116775000Y-118100000D01*
X116775000Y-116900000D01*
X118225000Y-116900000D01*
X118225000Y-118100000D01*
X118225000Y-118100000D01*
G37*
G36*
X126225000Y-118100000D02*
X124775000Y-118100000D01*
X124775000Y-116900000D01*
X126225000Y-116900000D01*
X126225000Y-118100000D01*
X126225000Y-118100000D01*
G37*
G36*
X124225000Y-118100000D02*
X122775000Y-118100000D01*
X122775000Y-116900000D01*
X124225000Y-116900000D01*
X124225000Y-118100000D01*
X124225000Y-118100000D01*
G37*
G36*
X122225000Y-118100000D02*
X120775000Y-118100000D01*
X120775000Y-116900000D01*
X122225000Y-116900000D01*
X122225000Y-118100000D01*
X122225000Y-118100000D01*
G37*
G36*
X142200000Y-112165000D02*
X138600000Y-112165000D01*
X138600000Y-110695000D01*
X142200000Y-110695000D01*
X142200000Y-112165000D01*
X142200000Y-112165000D01*
G37*
G36*
X64200000Y-112165000D02*
X60600000Y-112165000D01*
X60600000Y-110695000D01*
X64200000Y-110695000D01*
X64200000Y-112165000D01*
X64200000Y-112165000D01*
G37*
G36*
X129100000Y-110650000D02*
X127900000Y-110650000D01*
X127900000Y-108850000D01*
X129100000Y-108850000D01*
X129100000Y-110650000D01*
X129100000Y-110650000D01*
G37*
G36*
X61400000Y-109625000D02*
X57800000Y-109625000D01*
X57800000Y-108155000D01*
X61400000Y-108155000D01*
X61400000Y-109625000D01*
X61400000Y-109625000D01*
G37*
G36*
X139400000Y-109625000D02*
X135800000Y-109625000D01*
X135800000Y-108155000D01*
X139400000Y-108155000D01*
X139400000Y-109625000D01*
X139400000Y-109625000D01*
G37*
G36*
X130785000Y-108440000D02*
X128930000Y-108440000D01*
X128930000Y-105060000D01*
X130785000Y-105060000D01*
X130785000Y-108440000D01*
X130785000Y-108440000D01*
G37*
G36*
X64200000Y-107085000D02*
X60600000Y-107085000D01*
X60600000Y-105615000D01*
X64200000Y-105615000D01*
X64200000Y-107085000D01*
X64200000Y-107085000D01*
G37*
G36*
X142200000Y-107085000D02*
X138600000Y-107085000D01*
X138600000Y-105615000D01*
X142200000Y-105615000D01*
X142200000Y-107085000D01*
X142200000Y-107085000D01*
G37*
G36*
X139400000Y-104545000D02*
X135800000Y-104545000D01*
X135800000Y-103075000D01*
X139400000Y-103075000D01*
X139400000Y-104545000D01*
X139400000Y-104545000D01*
G37*
G36*
X61400000Y-104545000D02*
X57800000Y-104545000D01*
X57800000Y-103075000D01*
X61400000Y-103075000D01*
X61400000Y-104545000D01*
X61400000Y-104545000D01*
G37*
G36*
X64200000Y-102005000D02*
X60600000Y-102005000D01*
X60600000Y-100535000D01*
X64200000Y-100535000D01*
X64200000Y-102005000D01*
X64200000Y-102005000D01*
G37*
G36*
X142200000Y-102005000D02*
X138600000Y-102005000D01*
X138600000Y-100535000D01*
X142200000Y-100535000D01*
X142200000Y-102005000D01*
X142200000Y-102005000D01*
G37*
G36*
X61400000Y-99465000D02*
X57800000Y-99465000D01*
X57800000Y-97995000D01*
X61400000Y-97995000D01*
X61400000Y-99465000D01*
X61400000Y-99465000D01*
G37*
G36*
X139400000Y-99465000D02*
X135800000Y-99465000D01*
X135800000Y-97995000D01*
X139400000Y-97995000D01*
X139400000Y-99465000D01*
X139400000Y-99465000D01*
G37*
G36*
X129305000Y-98175000D02*
X128505000Y-98175000D01*
X128505000Y-96425000D01*
X129305000Y-96425000D01*
X129305000Y-98175000D01*
X129305000Y-98175000D01*
G37*
G36*
X64200000Y-96925000D02*
X60600000Y-96925000D01*
X60600000Y-95455000D01*
X64200000Y-95455000D01*
X64200000Y-96925000D01*
X64200000Y-96925000D01*
G37*
G36*
X142200000Y-96925000D02*
X138600000Y-96925000D01*
X138600000Y-95455000D01*
X142200000Y-95455000D01*
X142200000Y-96925000D01*
X142200000Y-96925000D01*
G37*
G36*
X130785000Y-95690000D02*
X128930000Y-95690000D01*
X128930000Y-92310000D01*
X130785000Y-92310000D01*
X130785000Y-95690000D01*
X130785000Y-95690000D01*
G37*
G36*
X73725000Y-95600000D02*
X72275000Y-95600000D01*
X72275000Y-94400000D01*
X73725000Y-94400000D01*
X73725000Y-95600000D01*
X73725000Y-95600000D01*
G37*
G36*
X71250870Y-94950010D02*
X69549730Y-94950010D01*
X69549730Y-92049990D01*
X71250870Y-92049990D01*
X71250870Y-94950010D01*
X71250870Y-94950010D01*
G37*
G36*
X66450270Y-94950010D02*
X64749130Y-94950010D01*
X64749130Y-92049990D01*
X66450270Y-92049990D01*
X66450270Y-94950010D01*
X66450270Y-94950010D01*
G37*
G36*
X134450010Y-94750870D02*
X131549990Y-94750870D01*
X131549990Y-93049730D01*
X134450010Y-93049730D01*
X134450010Y-94750870D01*
X134450010Y-94750870D01*
G37*
G36*
X139400000Y-94385000D02*
X135800000Y-94385000D01*
X135800000Y-92915000D01*
X139400000Y-92915000D01*
X139400000Y-94385000D01*
X139400000Y-94385000D01*
G37*
G36*
X61400000Y-94385000D02*
X57800000Y-94385000D01*
X57800000Y-92915000D01*
X61400000Y-92915000D01*
X61400000Y-94385000D01*
X61400000Y-94385000D01*
G37*
G36*
X73725000Y-93600000D02*
X72275000Y-93600000D01*
X72275000Y-92400000D01*
X73725000Y-92400000D01*
X73725000Y-93600000D01*
X73725000Y-93600000D01*
G37*
G36*
X129100000Y-91900000D02*
X127900000Y-91900000D01*
X127900000Y-90100000D01*
X129100000Y-90100000D01*
X129100000Y-91900000D01*
X129100000Y-91900000D01*
G37*
G36*
X64200000Y-91845000D02*
X60600000Y-91845000D01*
X60600000Y-90375000D01*
X64200000Y-90375000D01*
X64200000Y-91845000D01*
X64200000Y-91845000D01*
G37*
G36*
X142200000Y-91845000D02*
X138600000Y-91845000D01*
X138600000Y-90375000D01*
X142200000Y-90375000D01*
X142200000Y-91845000D01*
X142200000Y-91845000D01*
G37*
G36*
X134450010Y-89950270D02*
X131549990Y-89950270D01*
X131549990Y-88249130D01*
X134450010Y-88249130D01*
X134450010Y-89950270D01*
X134450010Y-89950270D01*
G37*
G36*
X71250870Y-89950010D02*
X69549730Y-89950010D01*
X69549730Y-87049990D01*
X71250870Y-87049990D01*
X71250870Y-89950010D01*
X71250870Y-89950010D01*
G37*
G36*
X66450270Y-89950010D02*
X64749130Y-89950010D01*
X64749130Y-87049990D01*
X66450270Y-87049990D01*
X66450270Y-89950010D01*
X66450270Y-89950010D01*
G37*
G36*
X73725000Y-89600000D02*
X72275000Y-89600000D01*
X72275000Y-88400000D01*
X73725000Y-88400000D01*
X73725000Y-89600000D01*
X73725000Y-89600000D01*
G37*
G36*
X139400000Y-89305000D02*
X135800000Y-89305000D01*
X135800000Y-87835000D01*
X139400000Y-87835000D01*
X139400000Y-89305000D01*
X139400000Y-89305000D01*
G37*
G36*
X61400000Y-89305000D02*
X57800000Y-89305000D01*
X57800000Y-87835000D01*
X61400000Y-87835000D01*
X61400000Y-89305000D01*
X61400000Y-89305000D01*
G37*
G36*
X73725000Y-87600000D02*
X72275000Y-87600000D01*
X72275000Y-86400000D01*
X73725000Y-86400000D01*
X73725000Y-87600000D01*
X73725000Y-87600000D01*
G37*
G36*
X129950000Y-87250000D02*
X129050000Y-87250000D01*
X129050000Y-85750000D01*
X129950000Y-85750000D01*
X129950000Y-87250000D01*
X129950000Y-87250000D01*
G37*
G36*
X128050000Y-87250000D02*
X127150000Y-87250000D01*
X127150000Y-85750000D01*
X128050000Y-85750000D01*
X128050000Y-87250000D01*
X128050000Y-87250000D01*
G37*
G36*
X119250000Y-85650000D02*
X118450000Y-85650000D01*
X118450000Y-84750000D01*
X119250000Y-84750000D01*
X119250000Y-85650000D01*
X119250000Y-85650000D01*
G37*
G36*
X120550000Y-85650000D02*
X119750000Y-85650000D01*
X119750000Y-84750000D01*
X120550000Y-84750000D01*
X120550000Y-85650000D01*
X120550000Y-85650000D01*
G37*
G36*
X122725000Y-85600000D02*
X121275000Y-85600000D01*
X121275000Y-84400000D01*
X122725000Y-84400000D01*
X122725000Y-85600000D01*
X122725000Y-85600000D01*
G37*
G36*
X135225000Y-85100000D02*
X133775000Y-85100000D01*
X133775000Y-83900000D01*
X135225000Y-83900000D01*
X135225000Y-85100000D01*
X135225000Y-85100000D01*
G37*
G36*
X133250000Y-84900000D02*
X131750000Y-84900000D01*
X131750000Y-84000000D01*
X133250000Y-84000000D01*
X133250000Y-84900000D01*
X133250000Y-84900000D01*
G37*
G36*
X131100000Y-84850000D02*
X129900000Y-84850000D01*
X129900000Y-82150000D01*
X131100000Y-82150000D01*
X131100000Y-84850000D01*
X131100000Y-84850000D01*
G37*
G36*
X128100000Y-84850000D02*
X126900000Y-84850000D01*
X126900000Y-82150000D01*
X128100000Y-82150000D01*
X128100000Y-84850000D01*
X128100000Y-84850000D01*
G37*
G36*
X65600000Y-84225000D02*
X64400000Y-84225000D01*
X64400000Y-82775000D01*
X65600000Y-82775000D01*
X65600000Y-84225000D01*
X65600000Y-84225000D01*
G37*
G36*
X63600000Y-84225000D02*
X62400000Y-84225000D01*
X62400000Y-82775000D01*
X63600000Y-82775000D01*
X63600000Y-84225000D01*
X63600000Y-84225000D01*
G37*
G36*
X129600000Y-84100000D02*
X128400000Y-84100000D01*
X128400000Y-82900000D01*
X129600000Y-82900000D01*
X129600000Y-84100000D01*
X129600000Y-84100000D01*
G37*
G36*
X69100000Y-83725000D02*
X67900000Y-83725000D01*
X67900000Y-82275000D01*
X69100000Y-82275000D01*
X69100000Y-83725000D01*
X69100000Y-83725000D01*
G37*
G36*
X71100000Y-83725000D02*
X69900000Y-83725000D01*
X69900000Y-82275000D01*
X71100000Y-82275000D01*
X71100000Y-83725000D01*
X71100000Y-83725000D01*
G37*
G36*
X122725000Y-83600000D02*
X121275000Y-83600000D01*
X121275000Y-82400000D01*
X122725000Y-82400000D01*
X122725000Y-83600000D01*
X122725000Y-83600000D01*
G37*
G36*
X120050000Y-83250000D02*
X118950000Y-83250000D01*
X118950000Y-82350000D01*
X120050000Y-82350000D01*
X120050000Y-83250000D01*
X120050000Y-83250000D01*
G37*
G36*
X117900000Y-83250000D02*
X117000000Y-83250000D01*
X117000000Y-81750000D01*
X117900000Y-81750000D01*
X117900000Y-83250000D01*
X117900000Y-83250000D01*
G37*
G36*
X116000000Y-83250000D02*
X115100000Y-83250000D01*
X115100000Y-81750000D01*
X116000000Y-81750000D01*
X116000000Y-83250000D01*
X116000000Y-83250000D01*
G37*
G36*
X135225000Y-83100000D02*
X133775000Y-83100000D01*
X133775000Y-81900000D01*
X135225000Y-81900000D01*
X135225000Y-83100000D01*
X135225000Y-83100000D01*
G37*
G36*
X133250000Y-83000000D02*
X131750000Y-83000000D01*
X131750000Y-82100000D01*
X133250000Y-82100000D01*
X133250000Y-83000000D01*
X133250000Y-83000000D01*
G37*
G36*
X138739092Y-83000000D02*
X137539092Y-83000000D01*
X137539092Y-80800000D01*
X138739092Y-80800000D01*
X138739092Y-83000000D01*
X138739092Y-83000000D01*
G37*
G36*
X136939092Y-83000000D02*
X135739092Y-83000000D01*
X135739092Y-80800000D01*
X136939092Y-80800000D01*
X136939092Y-83000000D01*
X136939092Y-83000000D01*
G37*
G36*
X141750000Y-82900000D02*
X140250000Y-82900000D01*
X140250000Y-82000000D01*
X141750000Y-82000000D01*
X141750000Y-82900000D01*
X141750000Y-82900000D01*
G37*
G36*
X73225000Y-82100000D02*
X71775000Y-82100000D01*
X71775000Y-80900000D01*
X73225000Y-80900000D01*
X73225000Y-82100000D01*
X73225000Y-82100000D01*
G37*
G36*
X64265000Y-82075000D02*
X63465000Y-82075000D01*
X63465000Y-80325000D01*
X64265000Y-80325000D01*
X64265000Y-82075000D01*
X64265000Y-82075000D01*
G37*
G36*
X66805000Y-82075000D02*
X66005000Y-82075000D01*
X66005000Y-80325000D01*
X66805000Y-80325000D01*
X66805000Y-82075000D01*
X66805000Y-82075000D01*
G37*
G36*
X65535000Y-82075000D02*
X64735000Y-82075000D01*
X64735000Y-80325000D01*
X65535000Y-80325000D01*
X65535000Y-82075000D01*
X65535000Y-82075000D01*
G37*
G36*
X62995000Y-82075000D02*
X62195000Y-82075000D01*
X62195000Y-80325000D01*
X62995000Y-80325000D01*
X62995000Y-82075000D01*
X62995000Y-82075000D01*
G37*
G36*
X120500000Y-81750000D02*
X119600000Y-81750000D01*
X119600000Y-80250000D01*
X120500000Y-80250000D01*
X120500000Y-81750000D01*
X120500000Y-81750000D01*
G37*
G36*
X122400000Y-81750000D02*
X121500000Y-81750000D01*
X121500000Y-80250000D01*
X122400000Y-80250000D01*
X122400000Y-81750000D01*
X122400000Y-81750000D01*
G37*
G36*
X71230000Y-81375000D02*
X69970000Y-81375000D01*
X69970000Y-80525000D01*
X71230000Y-80525000D01*
X71230000Y-81375000D01*
X71230000Y-81375000D01*
G37*
G36*
X69030000Y-81375000D02*
X67770000Y-81375000D01*
X67770000Y-78625000D01*
X69030000Y-78625000D01*
X69030000Y-81375000D01*
X69030000Y-81375000D01*
G37*
G36*
X115500000Y-81250000D02*
X114600000Y-81250000D01*
X114600000Y-79750000D01*
X115500000Y-79750000D01*
X115500000Y-81250000D01*
X115500000Y-81250000D01*
G37*
G36*
X113900000Y-81250000D02*
X113000000Y-81250000D01*
X113000000Y-79750000D01*
X113900000Y-79750000D01*
X113900000Y-81250000D01*
X113900000Y-81250000D01*
G37*
G36*
X117400000Y-81250000D02*
X116500000Y-81250000D01*
X116500000Y-79750000D01*
X117400000Y-79750000D01*
X117400000Y-81250000D01*
X117400000Y-81250000D01*
G37*
G36*
X112000000Y-81250000D02*
X111100000Y-81250000D01*
X111100000Y-79750000D01*
X112000000Y-79750000D01*
X112000000Y-81250000D01*
X112000000Y-81250000D01*
G37*
G36*
X134225000Y-81100000D02*
X132775000Y-81100000D01*
X132775000Y-79900000D01*
X134225000Y-79900000D01*
X134225000Y-81100000D01*
X134225000Y-81100000D01*
G37*
G36*
X128765000Y-81075000D02*
X127965000Y-81075000D01*
X127965000Y-79325000D01*
X128765000Y-79325000D01*
X128765000Y-81075000D01*
X128765000Y-81075000D01*
G37*
G36*
X130035000Y-81075000D02*
X129235000Y-81075000D01*
X129235000Y-79325000D01*
X130035000Y-79325000D01*
X130035000Y-81075000D01*
X130035000Y-81075000D01*
G37*
G36*
X127495000Y-81075000D02*
X126695000Y-81075000D01*
X126695000Y-79325000D01*
X127495000Y-79325000D01*
X127495000Y-81075000D01*
X127495000Y-81075000D01*
G37*
G36*
X131305000Y-81075000D02*
X130505000Y-81075000D01*
X130505000Y-79325000D01*
X131305000Y-79325000D01*
X131305000Y-81075000D01*
X131305000Y-81075000D01*
G37*
G36*
X141750000Y-81000000D02*
X140250000Y-81000000D01*
X140250000Y-80100000D01*
X141750000Y-80100000D01*
X141750000Y-81000000D01*
X141750000Y-81000000D01*
G37*
G36*
X73225000Y-80100000D02*
X71775000Y-80100000D01*
X71775000Y-78900000D01*
X73225000Y-78900000D01*
X73225000Y-80100000D01*
X73225000Y-80100000D01*
G37*
G36*
X71230000Y-79475000D02*
X69970000Y-79475000D01*
X69970000Y-78625000D01*
X71230000Y-78625000D01*
X71230000Y-79475000D01*
X71230000Y-79475000D01*
G37*
G36*
X120500000Y-79250000D02*
X119600000Y-79250000D01*
X119600000Y-77750000D01*
X120500000Y-77750000D01*
X120500000Y-79250000D01*
X120500000Y-79250000D01*
G37*
G36*
X122400000Y-79250000D02*
X121500000Y-79250000D01*
X121500000Y-77750000D01*
X122400000Y-77750000D01*
X122400000Y-79250000D01*
X122400000Y-79250000D01*
G37*
G36*
X134225000Y-79100000D02*
X132775000Y-79100000D01*
X132775000Y-77900000D01*
X134225000Y-77900000D01*
X134225000Y-79100000D01*
X134225000Y-79100000D01*
G37*
G36*
X116394000Y-78973500D02*
X115686000Y-78973500D01*
X115686000Y-77630500D01*
X116394000Y-77630500D01*
X116394000Y-78973500D01*
X116394000Y-78973500D01*
G37*
G36*
X110044000Y-78973500D02*
X109336000Y-78973500D01*
X109336000Y-77630500D01*
X110044000Y-77630500D01*
X110044000Y-78973500D01*
X110044000Y-78973500D01*
G37*
G36*
X111314000Y-78973500D02*
X110606000Y-78973500D01*
X110606000Y-77630500D01*
X111314000Y-77630500D01*
X111314000Y-78973500D01*
X111314000Y-78973500D01*
G37*
G36*
X117664000Y-78973500D02*
X116956000Y-78973500D01*
X116956000Y-77630500D01*
X117664000Y-77630500D01*
X117664000Y-78973500D01*
X117664000Y-78973500D01*
G37*
G36*
X113854000Y-78973500D02*
X113146000Y-78973500D01*
X113146000Y-77630500D01*
X113854000Y-77630500D01*
X113854000Y-78973500D01*
X113854000Y-78973500D01*
G37*
G36*
X115124000Y-78973500D02*
X114416000Y-78973500D01*
X114416000Y-77630500D01*
X115124000Y-77630500D01*
X115124000Y-78973500D01*
X115124000Y-78973500D01*
G37*
G36*
X112584000Y-78973500D02*
X111876000Y-78973500D01*
X111876000Y-77630500D01*
X112584000Y-77630500D01*
X112584000Y-78973500D01*
X112584000Y-78973500D01*
G37*
G36*
X69225000Y-78100000D02*
X67775000Y-78100000D01*
X67775000Y-76900000D01*
X69225000Y-76900000D01*
X69225000Y-78100000D01*
X69225000Y-78100000D01*
G37*
G36*
X73250000Y-77900000D02*
X71750000Y-77900000D01*
X71750000Y-77000000D01*
X73250000Y-77000000D01*
X73250000Y-77900000D01*
X73250000Y-77900000D01*
G37*
G36*
X71250000Y-77900000D02*
X69750000Y-77900000D01*
X69750000Y-77000000D01*
X71250000Y-77000000D01*
X71250000Y-77900000D01*
X71250000Y-77900000D01*
G37*
G36*
X134225000Y-77100000D02*
X132775000Y-77100000D01*
X132775000Y-75900000D01*
X134225000Y-75900000D01*
X134225000Y-77100000D01*
X134225000Y-77100000D01*
G37*
G36*
X64265000Y-76675000D02*
X63465000Y-76675000D01*
X63465000Y-74925000D01*
X64265000Y-74925000D01*
X64265000Y-76675000D01*
X64265000Y-76675000D01*
G37*
G36*
X62995000Y-76675000D02*
X62195000Y-76675000D01*
X62195000Y-74925000D01*
X62995000Y-74925000D01*
X62995000Y-76675000D01*
X62995000Y-76675000D01*
G37*
G36*
X65535000Y-76675000D02*
X64735000Y-76675000D01*
X64735000Y-74925000D01*
X65535000Y-74925000D01*
X65535000Y-76675000D01*
X65535000Y-76675000D01*
G37*
G36*
X66805000Y-76675000D02*
X66005000Y-76675000D01*
X66005000Y-74925000D01*
X66805000Y-74925000D01*
X66805000Y-76675000D01*
X66805000Y-76675000D01*
G37*
G36*
X120725000Y-76600000D02*
X119275000Y-76600000D01*
X119275000Y-75400000D01*
X120725000Y-75400000D01*
X120725000Y-76600000D01*
X120725000Y-76600000D01*
G37*
G36*
X137089092Y-76200000D02*
X135889092Y-76200000D01*
X135889092Y-74000000D01*
X137089092Y-74000000D01*
X137089092Y-76200000D01*
X137089092Y-76200000D01*
G37*
G36*
X138589092Y-76200000D02*
X137389092Y-76200000D01*
X137389092Y-74000000D01*
X138589092Y-74000000D01*
X138589092Y-76200000D01*
X138589092Y-76200000D01*
G37*
G36*
X69225000Y-76100000D02*
X67775000Y-76100000D01*
X67775000Y-74900000D01*
X69225000Y-74900000D01*
X69225000Y-76100000D01*
X69225000Y-76100000D01*
G37*
G36*
X71250000Y-76000000D02*
X69750000Y-76000000D01*
X69750000Y-75100000D01*
X71250000Y-75100000D01*
X71250000Y-76000000D01*
X71250000Y-76000000D01*
G37*
G36*
X73250000Y-76000000D02*
X71750000Y-76000000D01*
X71750000Y-75100000D01*
X73250000Y-75100000D01*
X73250000Y-76000000D01*
X73250000Y-76000000D01*
G37*
G36*
X130035000Y-75675000D02*
X129235000Y-75675000D01*
X129235000Y-73925000D01*
X130035000Y-73925000D01*
X130035000Y-75675000D01*
X130035000Y-75675000D01*
G37*
G36*
X131305000Y-75675000D02*
X130505000Y-75675000D01*
X130505000Y-73925000D01*
X131305000Y-73925000D01*
X131305000Y-75675000D01*
X131305000Y-75675000D01*
G37*
G36*
X127495000Y-75675000D02*
X126695000Y-75675000D01*
X126695000Y-73925000D01*
X127495000Y-73925000D01*
X127495000Y-75675000D01*
X127495000Y-75675000D01*
G37*
G36*
X128765000Y-75675000D02*
X127965000Y-75675000D01*
X127965000Y-73925000D01*
X128765000Y-73925000D01*
X128765000Y-75675000D01*
X128765000Y-75675000D01*
G37*
G36*
X134225000Y-75100000D02*
X132775000Y-75100000D01*
X132775000Y-73900000D01*
X134225000Y-73900000D01*
X134225000Y-75100000D01*
X134225000Y-75100000D01*
G37*
G36*
X120725000Y-74600000D02*
X119275000Y-74600000D01*
X119275000Y-73400000D01*
X120725000Y-73400000D01*
X120725000Y-74600000D01*
X120725000Y-74600000D01*
G37*
G36*
X104750000Y-74550000D02*
X103850000Y-74550000D01*
X103850000Y-73750000D01*
X104750000Y-73750000D01*
X104750000Y-74550000D01*
X104750000Y-74550000D01*
G37*
G36*
X73250000Y-74400000D02*
X71750000Y-74400000D01*
X71750000Y-73500000D01*
X73250000Y-73500000D01*
X73250000Y-74400000D01*
X73250000Y-74400000D01*
G37*
G36*
X107150000Y-74050000D02*
X106250000Y-74050000D01*
X106250000Y-72950000D01*
X107150000Y-72950000D01*
X107150000Y-74050000D01*
X107150000Y-74050000D01*
G37*
G36*
X65250000Y-73900000D02*
X63750000Y-73900000D01*
X63750000Y-73000000D01*
X65250000Y-73000000D01*
X65250000Y-73900000D01*
X65250000Y-73900000D01*
G37*
G36*
X67250000Y-73900000D02*
X65750000Y-73900000D01*
X65750000Y-73000000D01*
X67250000Y-73000000D01*
X67250000Y-73900000D01*
X67250000Y-73900000D01*
G37*
G36*
X63250000Y-73900000D02*
X61750000Y-73900000D01*
X61750000Y-73000000D01*
X63250000Y-73000000D01*
X63250000Y-73900000D01*
X63250000Y-73900000D01*
G37*
G36*
X104750000Y-73250000D02*
X103850000Y-73250000D01*
X103850000Y-72450000D01*
X104750000Y-72450000D01*
X104750000Y-73250000D01*
X104750000Y-73250000D01*
G37*
G36*
X135225000Y-73100000D02*
X133775000Y-73100000D01*
X133775000Y-71900000D01*
X135225000Y-71900000D01*
X135225000Y-73100000D01*
X135225000Y-73100000D01*
G37*
G36*
X133250000Y-72900000D02*
X131750000Y-72900000D01*
X131750000Y-72000000D01*
X133250000Y-72000000D01*
X133250000Y-72900000D01*
X133250000Y-72900000D01*
G37*
G36*
X131100000Y-72850000D02*
X129900000Y-72850000D01*
X129900000Y-70150000D01*
X131100000Y-70150000D01*
X131100000Y-72850000D01*
X131100000Y-72850000D01*
G37*
G36*
X96650000Y-72850000D02*
X94850000Y-72850000D01*
X94850000Y-71650000D01*
X96650000Y-71650000D01*
X96650000Y-72850000D01*
X96650000Y-72850000D01*
G37*
G36*
X77900000Y-72850000D02*
X76100000Y-72850000D01*
X76100000Y-71650000D01*
X77900000Y-71650000D01*
X77900000Y-72850000D01*
X77900000Y-72850000D01*
G37*
G36*
X128100000Y-72850000D02*
X126900000Y-72850000D01*
X126900000Y-70150000D01*
X128100000Y-70150000D01*
X128100000Y-72850000D01*
X128100000Y-72850000D01*
G37*
G36*
X111314000Y-72623500D02*
X110606000Y-72623500D01*
X110606000Y-71280500D01*
X111314000Y-71280500D01*
X111314000Y-72623500D01*
X111314000Y-72623500D01*
G37*
G36*
X116394000Y-72623500D02*
X115686000Y-72623500D01*
X115686000Y-71280500D01*
X116394000Y-71280500D01*
X116394000Y-72623500D01*
X116394000Y-72623500D01*
G37*
G36*
X112584000Y-72623500D02*
X111876000Y-72623500D01*
X111876000Y-71280500D01*
X112584000Y-71280500D01*
X112584000Y-72623500D01*
X112584000Y-72623500D01*
G37*
G36*
X113854000Y-72623500D02*
X113146000Y-72623500D01*
X113146000Y-71280500D01*
X113854000Y-71280500D01*
X113854000Y-72623500D01*
X113854000Y-72623500D01*
G37*
G36*
X117664000Y-72623500D02*
X116956000Y-72623500D01*
X116956000Y-71280500D01*
X117664000Y-71280500D01*
X117664000Y-72623500D01*
X117664000Y-72623500D01*
G37*
G36*
X110044000Y-72623500D02*
X109336000Y-72623500D01*
X109336000Y-71280500D01*
X110044000Y-71280500D01*
X110044000Y-72623500D01*
X110044000Y-72623500D01*
G37*
G36*
X115124000Y-72623500D02*
X114416000Y-72623500D01*
X114416000Y-71280500D01*
X115124000Y-71280500D01*
X115124000Y-72623500D01*
X115124000Y-72623500D01*
G37*
G36*
X73250000Y-72500000D02*
X71750000Y-72500000D01*
X71750000Y-71600000D01*
X73250000Y-71600000D01*
X73250000Y-72500000D01*
X73250000Y-72500000D01*
G37*
G36*
X84175000Y-72245000D02*
X82425000Y-72245000D01*
X82425000Y-71445000D01*
X84175000Y-71445000D01*
X84175000Y-72245000D01*
X84175000Y-72245000D01*
G37*
G36*
X129600000Y-72100000D02*
X128400000Y-72100000D01*
X128400000Y-70900000D01*
X129600000Y-70900000D01*
X129600000Y-72100000D01*
X129600000Y-72100000D01*
G37*
G36*
X67250000Y-72000000D02*
X65750000Y-72000000D01*
X65750000Y-71100000D01*
X67250000Y-71100000D01*
X67250000Y-72000000D01*
X67250000Y-72000000D01*
G37*
G36*
X65250000Y-72000000D02*
X63750000Y-72000000D01*
X63750000Y-71100000D01*
X65250000Y-71100000D01*
X65250000Y-72000000D01*
X65250000Y-72000000D01*
G37*
G36*
X63250000Y-72000000D02*
X61750000Y-72000000D01*
X61750000Y-71100000D01*
X63250000Y-71100000D01*
X63250000Y-72000000D01*
X63250000Y-72000000D01*
G37*
G36*
X81690000Y-71820000D02*
X78310000Y-71820000D01*
X78310000Y-69965000D01*
X81690000Y-69965000D01*
X81690000Y-71820000D01*
X81690000Y-71820000D01*
G37*
G36*
X94440000Y-71820000D02*
X91060000Y-71820000D01*
X91060000Y-69965000D01*
X94440000Y-69965000D01*
X94440000Y-71820000D01*
X94440000Y-71820000D01*
G37*
G36*
X104950000Y-71750000D02*
X104050000Y-71750000D01*
X104050000Y-70250000D01*
X104950000Y-70250000D01*
X104950000Y-71750000D01*
X104950000Y-71750000D01*
G37*
G36*
X106850000Y-71750000D02*
X105950000Y-71750000D01*
X105950000Y-70250000D01*
X106850000Y-70250000D01*
X106850000Y-71750000D01*
X106850000Y-71750000D01*
G37*
G36*
X135225000Y-71100000D02*
X133775000Y-71100000D01*
X133775000Y-69900000D01*
X135225000Y-69900000D01*
X135225000Y-71100000D01*
X135225000Y-71100000D01*
G37*
G36*
X133250000Y-71000000D02*
X131750000Y-71000000D01*
X131750000Y-70100000D01*
X133250000Y-70100000D01*
X133250000Y-71000000D01*
X133250000Y-71000000D01*
G37*
G36*
X115400000Y-70750000D02*
X114500000Y-70750000D01*
X114500000Y-69250000D01*
X115400000Y-69250000D01*
X115400000Y-70750000D01*
X115400000Y-70750000D01*
G37*
G36*
X110000000Y-70750000D02*
X109100000Y-70750000D01*
X109100000Y-69250000D01*
X110000000Y-69250000D01*
X110000000Y-70750000D01*
X110000000Y-70750000D01*
G37*
G36*
X111900000Y-70750000D02*
X111000000Y-70750000D01*
X111000000Y-69250000D01*
X111900000Y-69250000D01*
X111900000Y-70750000D01*
X111900000Y-70750000D01*
G37*
G36*
X113500000Y-70750000D02*
X112600000Y-70750000D01*
X112600000Y-69250000D01*
X113500000Y-69250000D01*
X113500000Y-70750000D01*
X113500000Y-70750000D01*
G37*
G36*
X105000000Y-69750000D02*
X104100000Y-69750000D01*
X104100000Y-68250000D01*
X105000000Y-68250000D01*
X105000000Y-69750000D01*
X105000000Y-69750000D01*
G37*
G36*
X106900000Y-69750000D02*
X106000000Y-69750000D01*
X106000000Y-68250000D01*
X106900000Y-68250000D01*
X106900000Y-69750000D01*
X106900000Y-69750000D01*
G37*
G36*
X89575000Y-69305000D02*
X87825000Y-69305000D01*
X87825000Y-68505000D01*
X89575000Y-68505000D01*
X89575000Y-69305000D01*
X89575000Y-69305000D01*
G37*
G36*
X84175000Y-69305000D02*
X82425000Y-69305000D01*
X82425000Y-68505000D01*
X84175000Y-68505000D01*
X84175000Y-69305000D01*
X84175000Y-69305000D01*
G37*
G36*
X129900000Y-69250000D02*
X129000000Y-69250000D01*
X129000000Y-67750000D01*
X129900000Y-67750000D01*
X129900000Y-69250000D01*
X129900000Y-69250000D01*
G37*
G36*
X128000000Y-69250000D02*
X127100000Y-69250000D01*
X127100000Y-67750000D01*
X128000000Y-67750000D01*
X128000000Y-69250000D01*
X128000000Y-69250000D01*
G37*
G36*
X81350000Y-69100000D02*
X78650000Y-69100000D01*
X78650000Y-67900000D01*
X81350000Y-67900000D01*
X81350000Y-69100000D01*
X81350000Y-69100000D01*
G37*
G36*
X93350000Y-69100000D02*
X90650000Y-69100000D01*
X90650000Y-67900000D01*
X93350000Y-67900000D01*
X93350000Y-69100000D01*
X93350000Y-69100000D01*
G37*
G36*
X115400000Y-68750000D02*
X114500000Y-68750000D01*
X114500000Y-67250000D01*
X115400000Y-67250000D01*
X115400000Y-68750000D01*
X115400000Y-68750000D01*
G37*
G36*
X113500000Y-68750000D02*
X112600000Y-68750000D01*
X112600000Y-67250000D01*
X113500000Y-67250000D01*
X113500000Y-68750000D01*
X113500000Y-68750000D01*
G37*
G36*
X77750000Y-68400000D02*
X76250000Y-68400000D01*
X76250000Y-67500000D01*
X77750000Y-67500000D01*
X77750000Y-68400000D01*
X77750000Y-68400000D01*
G37*
G36*
X95750000Y-68350000D02*
X94250000Y-68350000D01*
X94250000Y-67450000D01*
X95750000Y-67450000D01*
X95750000Y-68350000D01*
X95750000Y-68350000D01*
G37*
G36*
X84175000Y-68035000D02*
X82425000Y-68035000D01*
X82425000Y-67235000D01*
X84175000Y-67235000D01*
X84175000Y-68035000D01*
X84175000Y-68035000D01*
G37*
G36*
X89575000Y-68035000D02*
X87825000Y-68035000D01*
X87825000Y-67235000D01*
X89575000Y-67235000D01*
X89575000Y-68035000D01*
X89575000Y-68035000D01*
G37*
G36*
X80600000Y-67600000D02*
X79400000Y-67600000D01*
X79400000Y-66400000D01*
X80600000Y-66400000D01*
X80600000Y-67600000D01*
X80600000Y-67600000D01*
G37*
G36*
X92600000Y-67600000D02*
X91400000Y-67600000D01*
X91400000Y-66400000D01*
X92600000Y-66400000D01*
X92600000Y-67600000D01*
X92600000Y-67600000D01*
G37*
G36*
X100220572Y-62901396D02*
X100623992Y-62984206D01*
X101003642Y-63143796D01*
X101345070Y-63374092D01*
X101635259Y-63666314D01*
X101863164Y-64009341D01*
X102020100Y-64390094D01*
X102100006Y-64793653D01*
X102100006Y-64793659D01*
X102100090Y-64794084D01*
X102093522Y-65264473D01*
X102093427Y-65264890D01*
X102093427Y-65264902D01*
X102002283Y-65666070D01*
X101834776Y-66042297D01*
X101597382Y-66378826D01*
X101299148Y-66662830D01*
X100951423Y-66883503D01*
X100567463Y-67032432D01*
X100161891Y-67103945D01*
X99750150Y-67095319D01*
X99347926Y-67006885D01*
X98970534Y-66842006D01*
X98632362Y-66606972D01*
X98346278Y-66310722D01*
X98123187Y-65964553D01*
X97971580Y-65581638D01*
X97897238Y-65176576D01*
X97902987Y-64764780D01*
X97988612Y-64361951D01*
X98150849Y-63983422D01*
X98383521Y-63643614D01*
X98677764Y-63355469D01*
X99022371Y-63129965D01*
X99404213Y-62975691D01*
X99808753Y-62898521D01*
X100220572Y-62901396D01*
X100220572Y-62901396D01*
G37*
G36*
X135220572Y-62901396D02*
X135623992Y-62984206D01*
X136003642Y-63143796D01*
X136345070Y-63374092D01*
X136635259Y-63666314D01*
X136863164Y-64009341D01*
X137020100Y-64390094D01*
X137100006Y-64793653D01*
X137100006Y-64793659D01*
X137100090Y-64794084D01*
X137093522Y-65264473D01*
X137093427Y-65264890D01*
X137093427Y-65264902D01*
X137002283Y-65666070D01*
X136834776Y-66042297D01*
X136597382Y-66378826D01*
X136299148Y-66662830D01*
X135951423Y-66883503D01*
X135567463Y-67032432D01*
X135161891Y-67103945D01*
X134750150Y-67095319D01*
X134347926Y-67006885D01*
X133970534Y-66842006D01*
X133632362Y-66606972D01*
X133346278Y-66310722D01*
X133123187Y-65964553D01*
X132971580Y-65581638D01*
X132897238Y-65176576D01*
X132902987Y-64764780D01*
X132988612Y-64361951D01*
X133150849Y-63983422D01*
X133383521Y-63643614D01*
X133677764Y-63355469D01*
X134022371Y-63129965D01*
X134404213Y-62975691D01*
X134808753Y-62898521D01*
X135220572Y-62901396D01*
X135220572Y-62901396D01*
G37*
G36*
X65220572Y-62901396D02*
X65623992Y-62984206D01*
X66003642Y-63143796D01*
X66345070Y-63374092D01*
X66635259Y-63666314D01*
X66863164Y-64009341D01*
X67020100Y-64390094D01*
X67100006Y-64793653D01*
X67100006Y-64793659D01*
X67100090Y-64794084D01*
X67093522Y-65264473D01*
X67093427Y-65264890D01*
X67093427Y-65264902D01*
X67002283Y-65666070D01*
X66834776Y-66042297D01*
X66597382Y-66378826D01*
X66299148Y-66662830D01*
X65951423Y-66883503D01*
X65567463Y-67032432D01*
X65161891Y-67103945D01*
X64750150Y-67095319D01*
X64347926Y-67006885D01*
X63970534Y-66842006D01*
X63632362Y-66606972D01*
X63346278Y-66310722D01*
X63123187Y-65964553D01*
X62971580Y-65581638D01*
X62897238Y-65176576D01*
X62902987Y-64764780D01*
X62988612Y-64361951D01*
X63150849Y-63983422D01*
X63383521Y-63643614D01*
X63677764Y-63355469D01*
X64022371Y-63129965D01*
X64404213Y-62975691D01*
X64808753Y-62898521D01*
X65220572Y-62901396D01*
X65220572Y-62901396D01*
G37*
G36*
X89575000Y-66765000D02*
X87825000Y-66765000D01*
X87825000Y-65965000D01*
X89575000Y-65965000D01*
X89575000Y-66765000D01*
X89575000Y-66765000D01*
G37*
G36*
X84175000Y-66765000D02*
X82425000Y-66765000D01*
X82425000Y-65965000D01*
X84175000Y-65965000D01*
X84175000Y-66765000D01*
X84175000Y-66765000D01*
G37*
G36*
X110000000Y-66750000D02*
X109100000Y-66750000D01*
X109100000Y-65250000D01*
X110000000Y-65250000D01*
X110000000Y-66750000D01*
X110000000Y-66750000D01*
G37*
G36*
X111900000Y-66750000D02*
X111000000Y-66750000D01*
X111000000Y-65250000D01*
X111900000Y-65250000D01*
X111900000Y-66750000D01*
X111900000Y-66750000D01*
G37*
G36*
X108600000Y-66725000D02*
X107400000Y-66725000D01*
X107400000Y-65275000D01*
X108600000Y-65275000D01*
X108600000Y-66725000D01*
X108600000Y-66725000D01*
G37*
G36*
X106600000Y-66725000D02*
X105400000Y-66725000D01*
X105400000Y-65275000D01*
X106600000Y-65275000D01*
X106600000Y-66725000D01*
X106600000Y-66725000D01*
G37*
G36*
X77750000Y-66500000D02*
X76250000Y-66500000D01*
X76250000Y-65600000D01*
X77750000Y-65600000D01*
X77750000Y-66500000D01*
X77750000Y-66500000D01*
G37*
G36*
X95750000Y-66450000D02*
X94250000Y-66450000D01*
X94250000Y-65550000D01*
X95750000Y-65550000D01*
X95750000Y-66450000D01*
X95750000Y-66450000D01*
G37*
G36*
X81350000Y-66100000D02*
X78650000Y-66100000D01*
X78650000Y-64900000D01*
X81350000Y-64900000D01*
X81350000Y-66100000D01*
X81350000Y-66100000D01*
G37*
G36*
X93350000Y-66100000D02*
X90650000Y-66100000D01*
X90650000Y-64900000D01*
X93350000Y-64900000D01*
X93350000Y-66100000D01*
X93350000Y-66100000D01*
G37*
G36*
X89575000Y-65495000D02*
X87825000Y-65495000D01*
X87825000Y-64695000D01*
X89575000Y-64695000D01*
X89575000Y-65495000D01*
X89575000Y-65495000D01*
G37*
G36*
X84175000Y-65495000D02*
X82425000Y-65495000D01*
X82425000Y-64695000D01*
X84175000Y-64695000D01*
X84175000Y-65495000D01*
X84175000Y-65495000D01*
G37*
G36*
X119200000Y-64260908D02*
X117000000Y-64260908D01*
X117000000Y-63060908D01*
X119200000Y-63060908D01*
X119200000Y-64260908D01*
X119200000Y-64260908D01*
G37*
G36*
X81400000Y-64250000D02*
X80500000Y-64250000D01*
X80500000Y-62750000D01*
X81400000Y-62750000D01*
X81400000Y-64250000D01*
X81400000Y-64250000D01*
G37*
G36*
X79500000Y-64250000D02*
X78600000Y-64250000D01*
X78600000Y-62750000D01*
X79500000Y-62750000D01*
X79500000Y-64250000D01*
X79500000Y-64250000D01*
G37*
G36*
X127550000Y-64250000D02*
X126650000Y-64250000D01*
X126650000Y-62750000D01*
X127550000Y-62750000D01*
X127550000Y-64250000D01*
X127550000Y-64250000D01*
G37*
G36*
X93400000Y-64250000D02*
X92500000Y-64250000D01*
X92500000Y-62750000D01*
X93400000Y-62750000D01*
X93400000Y-64250000D01*
X93400000Y-64250000D01*
G37*
G36*
X129450000Y-64250000D02*
X128550000Y-64250000D01*
X128550000Y-62750000D01*
X129450000Y-62750000D01*
X129450000Y-64250000D01*
X129450000Y-64250000D01*
G37*
G36*
X91500000Y-64250000D02*
X90600000Y-64250000D01*
X90600000Y-62750000D01*
X91500000Y-62750000D01*
X91500000Y-64250000D01*
X91500000Y-64250000D01*
G37*
G36*
X126000000Y-64110908D02*
X123800000Y-64110908D01*
X123800000Y-62910908D01*
X126000000Y-62910908D01*
X126000000Y-64110908D01*
X126000000Y-64110908D01*
G37*
G36*
X89600000Y-63225000D02*
X88400000Y-63225000D01*
X88400000Y-61775000D01*
X89600000Y-61775000D01*
X89600000Y-63225000D01*
X89600000Y-63225000D01*
G37*
G36*
X83600000Y-63225000D02*
X82400000Y-63225000D01*
X82400000Y-61775000D01*
X83600000Y-61775000D01*
X83600000Y-63225000D01*
X83600000Y-63225000D01*
G37*
G36*
X85600000Y-63225000D02*
X84400000Y-63225000D01*
X84400000Y-61775000D01*
X85600000Y-61775000D01*
X85600000Y-63225000D01*
X85600000Y-63225000D01*
G37*
G36*
X87600000Y-63225000D02*
X86400000Y-63225000D01*
X86400000Y-61775000D01*
X87600000Y-61775000D01*
X87600000Y-63225000D01*
X87600000Y-63225000D01*
G37*
G36*
X116400000Y-62750000D02*
X115500000Y-62750000D01*
X115500000Y-61250000D01*
X116400000Y-61250000D01*
X116400000Y-62750000D01*
X116400000Y-62750000D01*
G37*
G36*
X114500000Y-62750000D02*
X113600000Y-62750000D01*
X113600000Y-61250000D01*
X114500000Y-61250000D01*
X114500000Y-62750000D01*
X114500000Y-62750000D01*
G37*
G36*
X126000000Y-62610908D02*
X123800000Y-62610908D01*
X123800000Y-61410908D01*
X126000000Y-61410908D01*
X126000000Y-62610908D01*
X126000000Y-62610908D01*
G37*
G36*
X119200000Y-62460908D02*
X117000000Y-62460908D01*
X117000000Y-61260908D01*
X119200000Y-61260908D01*
X119200000Y-62460908D01*
X119200000Y-62460908D01*
G37*
G36*
X79600000Y-62225000D02*
X78400000Y-62225000D01*
X78400000Y-60775000D01*
X79600000Y-60775000D01*
X79600000Y-62225000D01*
X79600000Y-62225000D01*
G37*
G36*
X81600000Y-62225000D02*
X80400000Y-62225000D01*
X80400000Y-60775000D01*
X81600000Y-60775000D01*
X81600000Y-62225000D01*
X81600000Y-62225000D01*
G37*
G36*
X93600000Y-62225000D02*
X92400000Y-62225000D01*
X92400000Y-60775000D01*
X93600000Y-60775000D01*
X93600000Y-62225000D01*
X93600000Y-62225000D01*
G37*
G36*
X91600000Y-62225000D02*
X90400000Y-62225000D01*
X90400000Y-60775000D01*
X91600000Y-60775000D01*
X91600000Y-62225000D01*
X91600000Y-62225000D01*
G37*
M02*
