G04 #@! TF.FileFunction,Profile,NP*
%FSLAX46Y46*%
G04 Gerber Fmt 4.6, Leading zero omitted, Abs format (unit mm)*
G04 Created by KiCad (PCBNEW 4.0.2-stable) date Tue 13 Dec 2016 10:43:35 AM CET*
%MOMM*%
G01*
G04 APERTURE LIST*
%ADD10C,0.100000*%
%ADD11C,0.150000*%
%ADD12C,0.001000*%
G04 APERTURE END LIST*
D10*
D11*
X75500000Y-73000000D02*
G75*
G03X75500000Y-74000000I0J-500000D01*
G01*
X97250000Y-74000000D02*
G75*
G03X97250000Y-73000000I0J500000D01*
G01*
X127750000Y-89500000D02*
G75*
G03X126750000Y-89500000I-500000J0D01*
G01*
X126750000Y-111250000D02*
G75*
G03X127750000Y-111250000I500000J0D01*
G01*
X96500000Y-127250000D02*
G75*
G03X96500000Y-126250000I0J500000D01*
G01*
X74750000Y-126250000D02*
G75*
G03X74750000Y-127250000I0J-500000D01*
G01*
X126750000Y-92500000D02*
X126750000Y-89500000D01*
X127750000Y-92500000D02*
X128500000Y-92500000D01*
X128500000Y-92500000D02*
X128500000Y-95750000D01*
X125750000Y-95750000D02*
X125750000Y-92500000D01*
X125750000Y-92500000D02*
X126750000Y-92500000D01*
X128500000Y-95750000D02*
X125750000Y-95750000D01*
X127750000Y-89500000D02*
X127750000Y-92500000D01*
X128500000Y-105000000D02*
X125750000Y-105000000D01*
X127750000Y-108250000D02*
X128500000Y-108250000D01*
X127750000Y-111250000D02*
X127750000Y-108250000D01*
X125750000Y-108250000D02*
X126750000Y-108250000D01*
X126750000Y-108250000D02*
X126750000Y-111250000D01*
X125750000Y-105000000D02*
X125750000Y-108250000D01*
X128500000Y-108250000D02*
X128500000Y-105000000D01*
X78500000Y-72250000D02*
X81750000Y-72250000D01*
X78500000Y-75000000D02*
X78500000Y-74000000D01*
X78500000Y-73000000D02*
X78500000Y-72250000D01*
X81750000Y-75000000D02*
X78500000Y-75000000D01*
X81750000Y-72250000D02*
X81750000Y-75000000D01*
X94250000Y-74000000D02*
X97250000Y-74000000D01*
X75500000Y-73000000D02*
X78500000Y-73000000D01*
X97250000Y-73000000D02*
X94250000Y-73000000D01*
X78500000Y-74000000D02*
X75500000Y-74000000D01*
X94250000Y-73000000D02*
X94250000Y-72250000D01*
X91000000Y-72250000D02*
X91000000Y-75000000D01*
X94250000Y-72250000D02*
X91000000Y-72250000D01*
X91000000Y-75000000D02*
X94250000Y-75000000D01*
X94250000Y-75000000D02*
X94250000Y-74000000D01*
X81000000Y-128000000D02*
X81000000Y-125250000D01*
X77750000Y-128000000D02*
X81000000Y-128000000D01*
X77750000Y-127250000D02*
X77750000Y-128000000D01*
X74750000Y-127250000D02*
X77750000Y-127250000D01*
X77750000Y-126250000D02*
X74750000Y-126250000D01*
X77750000Y-125250000D02*
X77750000Y-126250000D01*
X81000000Y-125250000D02*
X77750000Y-125250000D01*
X90250000Y-128000000D02*
X90250000Y-125250000D01*
X93500000Y-128000000D02*
X90250000Y-128000000D01*
X93500000Y-127250000D02*
X93500000Y-128000000D01*
X96500000Y-127250000D02*
X93500000Y-127250000D01*
X93500000Y-126250000D02*
X96500000Y-126250000D01*
X93500000Y-125250000D02*
X93500000Y-126250000D01*
X90250000Y-125250000D02*
X93500000Y-125250000D01*
D12*
X111250000Y-100000000D02*
G75*
G03X111250000Y-100000000I-11250000J0D01*
G01*
X57500000Y-142500000D02*
X57500000Y-57500000D01*
X142500000Y-142500000D02*
X57500000Y-142500000D01*
X142500000Y-57500000D02*
X142500000Y-142500000D01*
X57500000Y-57500000D02*
X142500000Y-57500000D01*
M02*
