G04 #@! TF.FileFunction,Copper,L2,Inr,Signal*
%FSLAX46Y46*%
G04 Gerber Fmt 4.6, Leading zero omitted, Abs format (unit mm)*
G04 Created by KiCad (PCBNEW 4.0.2-stable) date Wed 20 Jul 2016 06:47:56 PM CEST*
%MOMM*%
G01*
G04 APERTURE LIST*
%ADD10C,0.100000*%
%ADD11C,0.300000*%
%ADD12C,1.500000*%
%ADD13C,0.254000*%
G04 APERTURE END LIST*
D10*
D11*
X68928571Y-60678571D02*
X68857142Y-60750000D01*
X68714285Y-60821429D01*
X68357142Y-60821429D01*
X68214285Y-60750000D01*
X68142856Y-60678571D01*
X68071428Y-60535714D01*
X68071428Y-60392857D01*
X68142856Y-60178571D01*
X68999999Y-59321429D01*
X68071428Y-59321429D01*
X131071429Y-139321429D02*
X131142858Y-139250000D01*
X131285715Y-139178571D01*
X131642858Y-139178571D01*
X131785715Y-139250000D01*
X131857144Y-139321429D01*
X131928572Y-139464286D01*
X131928572Y-139607143D01*
X131857144Y-139821429D01*
X131000001Y-140678571D01*
X131928572Y-140678571D01*
D12*
X83400000Y-80800000D03*
X90285898Y-73308657D03*
X124600000Y-94900000D03*
X129400000Y-105000000D03*
X78100000Y-123000000D03*
X96600000Y-120200000D03*
X92300000Y-131500000D03*
X92258330Y-119562178D03*
X87062178Y-116562178D03*
X86857695Y-83370835D03*
X92053848Y-80370835D03*
X121000000Y-97000000D03*
X121000000Y-103000000D03*
D13*
G36*
X141864500Y-141864500D02*
X58135500Y-141864500D01*
X58135500Y-137865000D01*
X130000715Y-137865000D01*
X130000715Y-141835000D01*
X132999286Y-141835000D01*
X132999286Y-137865000D01*
X130000715Y-137865000D01*
X58135500Y-137865000D01*
X58135500Y-135029816D01*
X62864708Y-135029816D01*
X62911166Y-135443995D01*
X63037186Y-135841263D01*
X63237970Y-136206487D01*
X63505869Y-136525756D01*
X63830679Y-136786910D01*
X64200028Y-136980001D01*
X64599847Y-137097674D01*
X65014908Y-137135448D01*
X65429402Y-137091883D01*
X65827540Y-136968639D01*
X66194156Y-136770410D01*
X66515288Y-136504746D01*
X66778703Y-136181768D01*
X66974368Y-135813776D01*
X67094830Y-135414787D01*
X67132576Y-135029816D01*
X132864708Y-135029816D01*
X132911166Y-135443995D01*
X133037186Y-135841263D01*
X133237970Y-136206487D01*
X133505869Y-136525756D01*
X133830679Y-136786910D01*
X134200028Y-136980001D01*
X134599847Y-137097674D01*
X135014908Y-137135448D01*
X135429402Y-137091883D01*
X135827540Y-136968639D01*
X136194156Y-136770410D01*
X136515288Y-136504746D01*
X136778703Y-136181768D01*
X136974368Y-135813776D01*
X137094830Y-135414787D01*
X137135500Y-135000000D01*
X137134667Y-134940373D01*
X137082431Y-134526883D01*
X136950876Y-134131414D01*
X136745013Y-133769029D01*
X136472683Y-133453531D01*
X136144258Y-133196938D01*
X135772249Y-133009023D01*
X135370826Y-132896943D01*
X134955277Y-132864968D01*
X134541433Y-132914316D01*
X134145055Y-133043107D01*
X133781241Y-133246436D01*
X133463850Y-133516557D01*
X133204970Y-133843182D01*
X133014462Y-134213870D01*
X132899583Y-134614501D01*
X132864708Y-135029816D01*
X67132576Y-135029816D01*
X67135500Y-135000000D01*
X67134667Y-134940373D01*
X67082431Y-134526883D01*
X66950876Y-134131414D01*
X66745013Y-133769029D01*
X66472683Y-133453531D01*
X66144258Y-133196938D01*
X65772249Y-133009023D01*
X65370826Y-132896943D01*
X64955277Y-132864968D01*
X64541433Y-132914316D01*
X64145055Y-133043107D01*
X63781241Y-133246436D01*
X63463850Y-133516557D01*
X63204970Y-133843182D01*
X63014462Y-134213870D01*
X62899583Y-134614501D01*
X62864708Y-135029816D01*
X58135500Y-135029816D01*
X58135500Y-119678633D01*
X90871510Y-119678633D01*
X90920541Y-119945783D01*
X91020528Y-120198322D01*
X91167663Y-120426630D01*
X91356341Y-120622012D01*
X91579375Y-120777025D01*
X91828271Y-120885764D01*
X92093547Y-120944089D01*
X92365100Y-120949777D01*
X92632586Y-120902612D01*
X92885817Y-120804391D01*
X93115147Y-120658853D01*
X93311841Y-120471544D01*
X93468407Y-120249597D01*
X93578882Y-120001467D01*
X93639057Y-119736604D01*
X93643389Y-119426372D01*
X93590633Y-119159932D01*
X93487129Y-118908814D01*
X93336821Y-118682582D01*
X93145434Y-118489854D01*
X92920257Y-118337970D01*
X92669867Y-118232716D01*
X92403802Y-118178101D01*
X92132197Y-118176205D01*
X91865395Y-118227100D01*
X91613560Y-118328848D01*
X91386285Y-118477573D01*
X91192225Y-118667610D01*
X91038773Y-118891721D01*
X90931774Y-119141370D01*
X90875302Y-119407047D01*
X90871510Y-119678633D01*
X58135500Y-119678633D01*
X58135500Y-116678633D01*
X85675358Y-116678633D01*
X85724389Y-116945783D01*
X85824376Y-117198322D01*
X85971511Y-117426630D01*
X86160189Y-117622012D01*
X86383223Y-117777025D01*
X86632119Y-117885764D01*
X86897395Y-117944089D01*
X87168948Y-117949777D01*
X87436434Y-117902612D01*
X87689665Y-117804391D01*
X87918995Y-117658853D01*
X88115689Y-117471544D01*
X88272255Y-117249597D01*
X88382730Y-117001467D01*
X88442905Y-116736604D01*
X88447237Y-116426372D01*
X88394481Y-116159932D01*
X88290977Y-115908814D01*
X88140669Y-115682582D01*
X87949282Y-115489854D01*
X87724105Y-115337970D01*
X87473715Y-115232716D01*
X87207650Y-115178101D01*
X86936045Y-115176205D01*
X86669243Y-115227100D01*
X86417408Y-115328848D01*
X86190133Y-115477573D01*
X85996073Y-115667610D01*
X85842621Y-115891721D01*
X85735622Y-116141370D01*
X85679150Y-116407047D01*
X85675358Y-116678633D01*
X58135500Y-116678633D01*
X58135500Y-100253211D01*
X81866268Y-100253211D01*
X82260804Y-103770582D01*
X83331021Y-107144334D01*
X85036154Y-110245959D01*
X87311255Y-112957319D01*
X90069667Y-115175139D01*
X93206322Y-116814943D01*
X96601746Y-117814270D01*
X100126609Y-118135058D01*
X103646649Y-117765087D01*
X107027789Y-116718449D01*
X110141243Y-115035011D01*
X112868420Y-112778894D01*
X115105443Y-110036032D01*
X116767105Y-106910902D01*
X117790112Y-103522537D01*
X117829928Y-103116455D01*
X119613180Y-103116455D01*
X119662211Y-103383605D01*
X119762198Y-103636144D01*
X119909333Y-103864452D01*
X120098011Y-104059834D01*
X120321045Y-104214847D01*
X120569941Y-104323586D01*
X120835217Y-104381911D01*
X121106770Y-104387599D01*
X121374256Y-104340434D01*
X121627487Y-104242213D01*
X121856817Y-104096675D01*
X122053511Y-103909366D01*
X122210077Y-103687419D01*
X122320552Y-103439289D01*
X122380727Y-103174426D01*
X122385059Y-102864194D01*
X122332303Y-102597754D01*
X122228799Y-102346636D01*
X122078491Y-102120404D01*
X121887104Y-101927676D01*
X121661927Y-101775792D01*
X121411537Y-101670538D01*
X121145472Y-101615923D01*
X120873867Y-101614027D01*
X120607065Y-101664922D01*
X120355230Y-101766670D01*
X120127955Y-101915395D01*
X119933895Y-102105432D01*
X119780443Y-102329543D01*
X119673444Y-102579192D01*
X119616972Y-102844869D01*
X119613180Y-103116455D01*
X117829928Y-103116455D01*
X118135500Y-100000000D01*
X118128429Y-99493627D01*
X117828123Y-97116455D01*
X119613180Y-97116455D01*
X119662211Y-97383605D01*
X119762198Y-97636144D01*
X119909333Y-97864452D01*
X120098011Y-98059834D01*
X120321045Y-98214847D01*
X120569941Y-98323586D01*
X120835217Y-98381911D01*
X121106770Y-98387599D01*
X121374256Y-98340434D01*
X121627487Y-98242213D01*
X121856817Y-98096675D01*
X122053511Y-97909366D01*
X122210077Y-97687419D01*
X122320552Y-97439289D01*
X122380727Y-97174426D01*
X122385059Y-96864194D01*
X122332303Y-96597754D01*
X122228799Y-96346636D01*
X122078491Y-96120404D01*
X121887104Y-95927676D01*
X121661927Y-95775792D01*
X121411537Y-95670538D01*
X121145472Y-95615923D01*
X120873867Y-95614027D01*
X120607065Y-95664922D01*
X120355230Y-95766670D01*
X120127955Y-95915395D01*
X119933895Y-96105432D01*
X119780443Y-96329543D01*
X119673444Y-96579192D01*
X119616972Y-96844869D01*
X119613180Y-97116455D01*
X117828123Y-97116455D01*
X117684821Y-95982107D01*
X116567604Y-92623628D01*
X114819331Y-89546112D01*
X112506595Y-86866781D01*
X109717487Y-84687691D01*
X106558242Y-83091842D01*
X103149197Y-82140019D01*
X99620199Y-81868477D01*
X96105667Y-82287560D01*
X92739470Y-83381304D01*
X89649824Y-85108049D01*
X86954413Y-87402023D01*
X84755904Y-90175851D01*
X83138039Y-93323877D01*
X82162440Y-96726195D01*
X81866268Y-100253211D01*
X58135500Y-100253211D01*
X58135500Y-83487290D01*
X85470875Y-83487290D01*
X85519906Y-83754440D01*
X85619893Y-84006979D01*
X85767028Y-84235287D01*
X85955706Y-84430669D01*
X86178740Y-84585682D01*
X86427636Y-84694421D01*
X86692912Y-84752746D01*
X86964465Y-84758434D01*
X87231951Y-84711269D01*
X87485182Y-84613048D01*
X87714512Y-84467510D01*
X87911206Y-84280201D01*
X88067772Y-84058254D01*
X88178247Y-83810124D01*
X88238422Y-83545261D01*
X88242754Y-83235029D01*
X88189998Y-82968589D01*
X88086494Y-82717471D01*
X87936186Y-82491239D01*
X87744799Y-82298511D01*
X87519622Y-82146627D01*
X87269232Y-82041373D01*
X87003167Y-81986758D01*
X86731562Y-81984862D01*
X86464760Y-82035757D01*
X86212925Y-82137505D01*
X85985650Y-82286230D01*
X85791590Y-82476267D01*
X85638138Y-82700378D01*
X85531139Y-82950027D01*
X85474667Y-83215704D01*
X85470875Y-83487290D01*
X58135500Y-83487290D01*
X58135500Y-80487290D01*
X90667028Y-80487290D01*
X90716059Y-80754440D01*
X90816046Y-81006979D01*
X90963181Y-81235287D01*
X91151859Y-81430669D01*
X91374893Y-81585682D01*
X91623789Y-81694421D01*
X91889065Y-81752746D01*
X92160618Y-81758434D01*
X92428104Y-81711269D01*
X92681335Y-81613048D01*
X92910665Y-81467510D01*
X93107359Y-81280201D01*
X93263925Y-81058254D01*
X93374400Y-80810124D01*
X93434575Y-80545261D01*
X93438907Y-80235029D01*
X93386151Y-79968589D01*
X93282647Y-79717471D01*
X93132339Y-79491239D01*
X92940952Y-79298511D01*
X92715775Y-79146627D01*
X92465385Y-79041373D01*
X92199320Y-78986758D01*
X91927715Y-78984862D01*
X91660913Y-79035757D01*
X91409078Y-79137505D01*
X91181803Y-79286230D01*
X90987743Y-79476267D01*
X90834291Y-79700378D01*
X90727292Y-79950027D01*
X90670820Y-80215704D01*
X90667028Y-80487290D01*
X58135500Y-80487290D01*
X58135500Y-65029816D01*
X62864708Y-65029816D01*
X62911166Y-65443995D01*
X63037186Y-65841263D01*
X63237970Y-66206487D01*
X63505869Y-66525756D01*
X63830679Y-66786910D01*
X64200028Y-66980001D01*
X64599847Y-67097674D01*
X65014908Y-67135448D01*
X65429402Y-67091883D01*
X65827540Y-66968639D01*
X66194156Y-66770410D01*
X66515288Y-66504746D01*
X66778703Y-66181768D01*
X66974368Y-65813776D01*
X67094830Y-65414787D01*
X67132576Y-65029816D01*
X132864708Y-65029816D01*
X132911166Y-65443995D01*
X133037186Y-65841263D01*
X133237970Y-66206487D01*
X133505869Y-66525756D01*
X133830679Y-66786910D01*
X134200028Y-66980001D01*
X134599847Y-67097674D01*
X135014908Y-67135448D01*
X135429402Y-67091883D01*
X135827540Y-66968639D01*
X136194156Y-66770410D01*
X136515288Y-66504746D01*
X136778703Y-66181768D01*
X136974368Y-65813776D01*
X137094830Y-65414787D01*
X137135500Y-65000000D01*
X137134667Y-64940373D01*
X137082431Y-64526883D01*
X136950876Y-64131414D01*
X136745013Y-63769029D01*
X136472683Y-63453531D01*
X136144258Y-63196938D01*
X135772249Y-63009023D01*
X135370826Y-62896943D01*
X134955277Y-62864968D01*
X134541433Y-62914316D01*
X134145055Y-63043107D01*
X133781241Y-63246436D01*
X133463850Y-63516557D01*
X133204970Y-63843182D01*
X133014462Y-64213870D01*
X132899583Y-64614501D01*
X132864708Y-65029816D01*
X67132576Y-65029816D01*
X67135500Y-65000000D01*
X67134667Y-64940373D01*
X67082431Y-64526883D01*
X66950876Y-64131414D01*
X66745013Y-63769029D01*
X66472683Y-63453531D01*
X66144258Y-63196938D01*
X65772249Y-63009023D01*
X65370826Y-62896943D01*
X64955277Y-62864968D01*
X64541433Y-62914316D01*
X64145055Y-63043107D01*
X63781241Y-63246436D01*
X63463850Y-63516557D01*
X63204970Y-63843182D01*
X63014462Y-64213870D01*
X62899583Y-64614501D01*
X62864708Y-65029816D01*
X58135500Y-65029816D01*
X58135500Y-58165000D01*
X67000714Y-58165000D01*
X67000714Y-62135000D01*
X69999285Y-62135000D01*
X69999285Y-58165000D01*
X67000714Y-58165000D01*
X58135500Y-58165000D01*
X58135500Y-58135500D01*
X141864500Y-58135500D01*
X141864500Y-141864500D01*
X141864500Y-141864500D01*
G37*
X141864500Y-141864500D02*
X58135500Y-141864500D01*
X58135500Y-137865000D01*
X130000715Y-137865000D01*
X130000715Y-141835000D01*
X132999286Y-141835000D01*
X132999286Y-137865000D01*
X130000715Y-137865000D01*
X58135500Y-137865000D01*
X58135500Y-135029816D01*
X62864708Y-135029816D01*
X62911166Y-135443995D01*
X63037186Y-135841263D01*
X63237970Y-136206487D01*
X63505869Y-136525756D01*
X63830679Y-136786910D01*
X64200028Y-136980001D01*
X64599847Y-137097674D01*
X65014908Y-137135448D01*
X65429402Y-137091883D01*
X65827540Y-136968639D01*
X66194156Y-136770410D01*
X66515288Y-136504746D01*
X66778703Y-136181768D01*
X66974368Y-135813776D01*
X67094830Y-135414787D01*
X67132576Y-135029816D01*
X132864708Y-135029816D01*
X132911166Y-135443995D01*
X133037186Y-135841263D01*
X133237970Y-136206487D01*
X133505869Y-136525756D01*
X133830679Y-136786910D01*
X134200028Y-136980001D01*
X134599847Y-137097674D01*
X135014908Y-137135448D01*
X135429402Y-137091883D01*
X135827540Y-136968639D01*
X136194156Y-136770410D01*
X136515288Y-136504746D01*
X136778703Y-136181768D01*
X136974368Y-135813776D01*
X137094830Y-135414787D01*
X137135500Y-135000000D01*
X137134667Y-134940373D01*
X137082431Y-134526883D01*
X136950876Y-134131414D01*
X136745013Y-133769029D01*
X136472683Y-133453531D01*
X136144258Y-133196938D01*
X135772249Y-133009023D01*
X135370826Y-132896943D01*
X134955277Y-132864968D01*
X134541433Y-132914316D01*
X134145055Y-133043107D01*
X133781241Y-133246436D01*
X133463850Y-133516557D01*
X133204970Y-133843182D01*
X133014462Y-134213870D01*
X132899583Y-134614501D01*
X132864708Y-135029816D01*
X67132576Y-135029816D01*
X67135500Y-135000000D01*
X67134667Y-134940373D01*
X67082431Y-134526883D01*
X66950876Y-134131414D01*
X66745013Y-133769029D01*
X66472683Y-133453531D01*
X66144258Y-133196938D01*
X65772249Y-133009023D01*
X65370826Y-132896943D01*
X64955277Y-132864968D01*
X64541433Y-132914316D01*
X64145055Y-133043107D01*
X63781241Y-133246436D01*
X63463850Y-133516557D01*
X63204970Y-133843182D01*
X63014462Y-134213870D01*
X62899583Y-134614501D01*
X62864708Y-135029816D01*
X58135500Y-135029816D01*
X58135500Y-119678633D01*
X90871510Y-119678633D01*
X90920541Y-119945783D01*
X91020528Y-120198322D01*
X91167663Y-120426630D01*
X91356341Y-120622012D01*
X91579375Y-120777025D01*
X91828271Y-120885764D01*
X92093547Y-120944089D01*
X92365100Y-120949777D01*
X92632586Y-120902612D01*
X92885817Y-120804391D01*
X93115147Y-120658853D01*
X93311841Y-120471544D01*
X93468407Y-120249597D01*
X93578882Y-120001467D01*
X93639057Y-119736604D01*
X93643389Y-119426372D01*
X93590633Y-119159932D01*
X93487129Y-118908814D01*
X93336821Y-118682582D01*
X93145434Y-118489854D01*
X92920257Y-118337970D01*
X92669867Y-118232716D01*
X92403802Y-118178101D01*
X92132197Y-118176205D01*
X91865395Y-118227100D01*
X91613560Y-118328848D01*
X91386285Y-118477573D01*
X91192225Y-118667610D01*
X91038773Y-118891721D01*
X90931774Y-119141370D01*
X90875302Y-119407047D01*
X90871510Y-119678633D01*
X58135500Y-119678633D01*
X58135500Y-116678633D01*
X85675358Y-116678633D01*
X85724389Y-116945783D01*
X85824376Y-117198322D01*
X85971511Y-117426630D01*
X86160189Y-117622012D01*
X86383223Y-117777025D01*
X86632119Y-117885764D01*
X86897395Y-117944089D01*
X87168948Y-117949777D01*
X87436434Y-117902612D01*
X87689665Y-117804391D01*
X87918995Y-117658853D01*
X88115689Y-117471544D01*
X88272255Y-117249597D01*
X88382730Y-117001467D01*
X88442905Y-116736604D01*
X88447237Y-116426372D01*
X88394481Y-116159932D01*
X88290977Y-115908814D01*
X88140669Y-115682582D01*
X87949282Y-115489854D01*
X87724105Y-115337970D01*
X87473715Y-115232716D01*
X87207650Y-115178101D01*
X86936045Y-115176205D01*
X86669243Y-115227100D01*
X86417408Y-115328848D01*
X86190133Y-115477573D01*
X85996073Y-115667610D01*
X85842621Y-115891721D01*
X85735622Y-116141370D01*
X85679150Y-116407047D01*
X85675358Y-116678633D01*
X58135500Y-116678633D01*
X58135500Y-100253211D01*
X81866268Y-100253211D01*
X82260804Y-103770582D01*
X83331021Y-107144334D01*
X85036154Y-110245959D01*
X87311255Y-112957319D01*
X90069667Y-115175139D01*
X93206322Y-116814943D01*
X96601746Y-117814270D01*
X100126609Y-118135058D01*
X103646649Y-117765087D01*
X107027789Y-116718449D01*
X110141243Y-115035011D01*
X112868420Y-112778894D01*
X115105443Y-110036032D01*
X116767105Y-106910902D01*
X117790112Y-103522537D01*
X117829928Y-103116455D01*
X119613180Y-103116455D01*
X119662211Y-103383605D01*
X119762198Y-103636144D01*
X119909333Y-103864452D01*
X120098011Y-104059834D01*
X120321045Y-104214847D01*
X120569941Y-104323586D01*
X120835217Y-104381911D01*
X121106770Y-104387599D01*
X121374256Y-104340434D01*
X121627487Y-104242213D01*
X121856817Y-104096675D01*
X122053511Y-103909366D01*
X122210077Y-103687419D01*
X122320552Y-103439289D01*
X122380727Y-103174426D01*
X122385059Y-102864194D01*
X122332303Y-102597754D01*
X122228799Y-102346636D01*
X122078491Y-102120404D01*
X121887104Y-101927676D01*
X121661927Y-101775792D01*
X121411537Y-101670538D01*
X121145472Y-101615923D01*
X120873867Y-101614027D01*
X120607065Y-101664922D01*
X120355230Y-101766670D01*
X120127955Y-101915395D01*
X119933895Y-102105432D01*
X119780443Y-102329543D01*
X119673444Y-102579192D01*
X119616972Y-102844869D01*
X119613180Y-103116455D01*
X117829928Y-103116455D01*
X118135500Y-100000000D01*
X118128429Y-99493627D01*
X117828123Y-97116455D01*
X119613180Y-97116455D01*
X119662211Y-97383605D01*
X119762198Y-97636144D01*
X119909333Y-97864452D01*
X120098011Y-98059834D01*
X120321045Y-98214847D01*
X120569941Y-98323586D01*
X120835217Y-98381911D01*
X121106770Y-98387599D01*
X121374256Y-98340434D01*
X121627487Y-98242213D01*
X121856817Y-98096675D01*
X122053511Y-97909366D01*
X122210077Y-97687419D01*
X122320552Y-97439289D01*
X122380727Y-97174426D01*
X122385059Y-96864194D01*
X122332303Y-96597754D01*
X122228799Y-96346636D01*
X122078491Y-96120404D01*
X121887104Y-95927676D01*
X121661927Y-95775792D01*
X121411537Y-95670538D01*
X121145472Y-95615923D01*
X120873867Y-95614027D01*
X120607065Y-95664922D01*
X120355230Y-95766670D01*
X120127955Y-95915395D01*
X119933895Y-96105432D01*
X119780443Y-96329543D01*
X119673444Y-96579192D01*
X119616972Y-96844869D01*
X119613180Y-97116455D01*
X117828123Y-97116455D01*
X117684821Y-95982107D01*
X116567604Y-92623628D01*
X114819331Y-89546112D01*
X112506595Y-86866781D01*
X109717487Y-84687691D01*
X106558242Y-83091842D01*
X103149197Y-82140019D01*
X99620199Y-81868477D01*
X96105667Y-82287560D01*
X92739470Y-83381304D01*
X89649824Y-85108049D01*
X86954413Y-87402023D01*
X84755904Y-90175851D01*
X83138039Y-93323877D01*
X82162440Y-96726195D01*
X81866268Y-100253211D01*
X58135500Y-100253211D01*
X58135500Y-83487290D01*
X85470875Y-83487290D01*
X85519906Y-83754440D01*
X85619893Y-84006979D01*
X85767028Y-84235287D01*
X85955706Y-84430669D01*
X86178740Y-84585682D01*
X86427636Y-84694421D01*
X86692912Y-84752746D01*
X86964465Y-84758434D01*
X87231951Y-84711269D01*
X87485182Y-84613048D01*
X87714512Y-84467510D01*
X87911206Y-84280201D01*
X88067772Y-84058254D01*
X88178247Y-83810124D01*
X88238422Y-83545261D01*
X88242754Y-83235029D01*
X88189998Y-82968589D01*
X88086494Y-82717471D01*
X87936186Y-82491239D01*
X87744799Y-82298511D01*
X87519622Y-82146627D01*
X87269232Y-82041373D01*
X87003167Y-81986758D01*
X86731562Y-81984862D01*
X86464760Y-82035757D01*
X86212925Y-82137505D01*
X85985650Y-82286230D01*
X85791590Y-82476267D01*
X85638138Y-82700378D01*
X85531139Y-82950027D01*
X85474667Y-83215704D01*
X85470875Y-83487290D01*
X58135500Y-83487290D01*
X58135500Y-80487290D01*
X90667028Y-80487290D01*
X90716059Y-80754440D01*
X90816046Y-81006979D01*
X90963181Y-81235287D01*
X91151859Y-81430669D01*
X91374893Y-81585682D01*
X91623789Y-81694421D01*
X91889065Y-81752746D01*
X92160618Y-81758434D01*
X92428104Y-81711269D01*
X92681335Y-81613048D01*
X92910665Y-81467510D01*
X93107359Y-81280201D01*
X93263925Y-81058254D01*
X93374400Y-80810124D01*
X93434575Y-80545261D01*
X93438907Y-80235029D01*
X93386151Y-79968589D01*
X93282647Y-79717471D01*
X93132339Y-79491239D01*
X92940952Y-79298511D01*
X92715775Y-79146627D01*
X92465385Y-79041373D01*
X92199320Y-78986758D01*
X91927715Y-78984862D01*
X91660913Y-79035757D01*
X91409078Y-79137505D01*
X91181803Y-79286230D01*
X90987743Y-79476267D01*
X90834291Y-79700378D01*
X90727292Y-79950027D01*
X90670820Y-80215704D01*
X90667028Y-80487290D01*
X58135500Y-80487290D01*
X58135500Y-65029816D01*
X62864708Y-65029816D01*
X62911166Y-65443995D01*
X63037186Y-65841263D01*
X63237970Y-66206487D01*
X63505869Y-66525756D01*
X63830679Y-66786910D01*
X64200028Y-66980001D01*
X64599847Y-67097674D01*
X65014908Y-67135448D01*
X65429402Y-67091883D01*
X65827540Y-66968639D01*
X66194156Y-66770410D01*
X66515288Y-66504746D01*
X66778703Y-66181768D01*
X66974368Y-65813776D01*
X67094830Y-65414787D01*
X67132576Y-65029816D01*
X132864708Y-65029816D01*
X132911166Y-65443995D01*
X133037186Y-65841263D01*
X133237970Y-66206487D01*
X133505869Y-66525756D01*
X133830679Y-66786910D01*
X134200028Y-66980001D01*
X134599847Y-67097674D01*
X135014908Y-67135448D01*
X135429402Y-67091883D01*
X135827540Y-66968639D01*
X136194156Y-66770410D01*
X136515288Y-66504746D01*
X136778703Y-66181768D01*
X136974368Y-65813776D01*
X137094830Y-65414787D01*
X137135500Y-65000000D01*
X137134667Y-64940373D01*
X137082431Y-64526883D01*
X136950876Y-64131414D01*
X136745013Y-63769029D01*
X136472683Y-63453531D01*
X136144258Y-63196938D01*
X135772249Y-63009023D01*
X135370826Y-62896943D01*
X134955277Y-62864968D01*
X134541433Y-62914316D01*
X134145055Y-63043107D01*
X133781241Y-63246436D01*
X133463850Y-63516557D01*
X133204970Y-63843182D01*
X133014462Y-64213870D01*
X132899583Y-64614501D01*
X132864708Y-65029816D01*
X67132576Y-65029816D01*
X67135500Y-65000000D01*
X67134667Y-64940373D01*
X67082431Y-64526883D01*
X66950876Y-64131414D01*
X66745013Y-63769029D01*
X66472683Y-63453531D01*
X66144258Y-63196938D01*
X65772249Y-63009023D01*
X65370826Y-62896943D01*
X64955277Y-62864968D01*
X64541433Y-62914316D01*
X64145055Y-63043107D01*
X63781241Y-63246436D01*
X63463850Y-63516557D01*
X63204970Y-63843182D01*
X63014462Y-64213870D01*
X62899583Y-64614501D01*
X62864708Y-65029816D01*
X58135500Y-65029816D01*
X58135500Y-58165000D01*
X67000714Y-58165000D01*
X67000714Y-62135000D01*
X69999285Y-62135000D01*
X69999285Y-58165000D01*
X67000714Y-58165000D01*
X58135500Y-58165000D01*
X58135500Y-58135500D01*
X141864500Y-58135500D01*
X141864500Y-141864500D01*
M02*
