G04 #@! TF.FileFunction,Soldermask,Bot*
%FSLAX46Y46*%
G04 Gerber Fmt 4.6, Leading zero omitted, Abs format (unit mm)*
G04 Created by KiCad (PCBNEW 4.0.2-stable) date Wed 20 Jul 2016 06:47:56 PM CEST*
%MOMM*%
G01*
G04 APERTURE LIST*
%ADD10C,0.100000*%
%ADD11C,3.000000*%
G04 APERTURE END LIST*
D10*
D11*
X118000000Y-100000000D02*
G75*
G03X118000000Y-100000000I-18000000J0D01*
G01*
D10*
G36*
X109587000Y-142162000D02*
X108193000Y-142162000D01*
X108193000Y-138638000D01*
X109587000Y-138638000D01*
X109587000Y-142162000D01*
X109587000Y-142162000D01*
G37*
G36*
X89267000Y-142162000D02*
X87873000Y-142162000D01*
X87873000Y-138638000D01*
X89267000Y-138638000D01*
X89267000Y-142162000D01*
X89267000Y-142162000D01*
G37*
G36*
X94347000Y-142162000D02*
X92953000Y-142162000D01*
X92953000Y-138638000D01*
X94347000Y-138638000D01*
X94347000Y-142162000D01*
X94347000Y-142162000D01*
G37*
G36*
X104507000Y-142162000D02*
X103113000Y-142162000D01*
X103113000Y-138638000D01*
X104507000Y-138638000D01*
X104507000Y-142162000D01*
X104507000Y-142162000D01*
G37*
G36*
X99427000Y-142162000D02*
X98033000Y-142162000D01*
X98033000Y-138638000D01*
X99427000Y-138638000D01*
X99427000Y-142162000D01*
X99427000Y-142162000D01*
G37*
G36*
X91807000Y-139362000D02*
X90413000Y-139362000D01*
X90413000Y-135838000D01*
X91807000Y-135838000D01*
X91807000Y-139362000D01*
X91807000Y-139362000D01*
G37*
G36*
X112127000Y-139362000D02*
X110733000Y-139362000D01*
X110733000Y-135838000D01*
X112127000Y-135838000D01*
X112127000Y-139362000D01*
X112127000Y-139362000D01*
G37*
G36*
X107047000Y-139362000D02*
X105653000Y-139362000D01*
X105653000Y-135838000D01*
X107047000Y-135838000D01*
X107047000Y-139362000D01*
X107047000Y-139362000D01*
G37*
G36*
X96887000Y-139362000D02*
X95493000Y-139362000D01*
X95493000Y-135838000D01*
X96887000Y-135838000D01*
X96887000Y-139362000D01*
X96887000Y-139362000D01*
G37*
G36*
X101967000Y-139362000D02*
X100573000Y-139362000D01*
X100573000Y-135838000D01*
X101967000Y-135838000D01*
X101967000Y-139362000D01*
X101967000Y-139362000D01*
G37*
G36*
X120662000Y-135562000D02*
X118338000Y-135562000D01*
X118338000Y-133438000D01*
X120662000Y-133438000D01*
X120662000Y-135562000D01*
X120662000Y-135562000D01*
G37*
G36*
X82687000Y-134562000D02*
X81313000Y-134562000D01*
X81313000Y-133438000D01*
X82687000Y-133438000D01*
X82687000Y-134562000D01*
X82687000Y-134562000D01*
G37*
G36*
X82687000Y-132562000D02*
X81313000Y-132562000D01*
X81313000Y-131438000D01*
X82687000Y-131438000D01*
X82687000Y-132562000D01*
X82687000Y-132562000D01*
G37*
G36*
X111412000Y-130712000D02*
X110588000Y-130712000D01*
X110588000Y-129288000D01*
X111412000Y-129288000D01*
X111412000Y-130712000D01*
X111412000Y-130712000D01*
G37*
G36*
X109512000Y-130712000D02*
X108688000Y-130712000D01*
X108688000Y-129288000D01*
X109512000Y-129288000D01*
X109512000Y-130712000D01*
X109512000Y-130712000D01*
G37*
G36*
X107862000Y-130712000D02*
X107038000Y-130712000D01*
X107038000Y-129288000D01*
X107862000Y-129288000D01*
X107862000Y-130712000D01*
X107862000Y-130712000D01*
G37*
G36*
X105962000Y-130712000D02*
X105138000Y-130712000D01*
X105138000Y-129288000D01*
X105962000Y-129288000D01*
X105962000Y-130712000D01*
X105962000Y-130712000D01*
G37*
G36*
X81062000Y-128187000D02*
X79938000Y-128187000D01*
X79938000Y-126813000D01*
X81062000Y-126813000D01*
X81062000Y-128187000D01*
X81062000Y-128187000D01*
G37*
G36*
X83062000Y-128187000D02*
X81938000Y-128187000D01*
X81938000Y-126813000D01*
X83062000Y-126813000D01*
X83062000Y-128187000D01*
X83062000Y-128187000D01*
G37*
G36*
X95687000Y-127562000D02*
X94313000Y-127562000D01*
X94313000Y-126438000D01*
X95687000Y-126438000D01*
X95687000Y-127562000D01*
X95687000Y-127562000D01*
G37*
G36*
X91366340Y-126481149D02*
X90804340Y-127454561D01*
X89614422Y-126767561D01*
X90176422Y-125794149D01*
X91366340Y-126481149D01*
X91366340Y-126481149D01*
G37*
G36*
X88818921Y-125443408D02*
X88818921Y-125443409D01*
X88750452Y-125562000D01*
X88631921Y-125767302D01*
X87312099Y-125005302D01*
X87312099Y-125005301D01*
X87460018Y-124749099D01*
X87499099Y-124681408D01*
X88818921Y-125443408D01*
X88818921Y-125443408D01*
G37*
G36*
X92366340Y-124749099D02*
X91804340Y-125722511D01*
X90614422Y-125035511D01*
X91176422Y-124062099D01*
X92366340Y-124749099D01*
X92366340Y-124749099D01*
G37*
G36*
X95687000Y-125562000D02*
X94313000Y-125562000D01*
X94313000Y-124438000D01*
X95687000Y-124438000D01*
X95687000Y-125562000D01*
X95687000Y-125562000D01*
G37*
G36*
X89068921Y-125010396D02*
X89068921Y-125010397D01*
X89054421Y-125035511D01*
X88881921Y-125334290D01*
X87562099Y-124572290D01*
X87562099Y-124572289D01*
X87655599Y-124410343D01*
X87749099Y-124248396D01*
X89068921Y-125010396D01*
X89068921Y-125010396D01*
G37*
G36*
X89318921Y-124577383D02*
X89318921Y-124577384D01*
X89258862Y-124681408D01*
X89131921Y-124901277D01*
X87812099Y-124139277D01*
X87812099Y-124139276D01*
X87905599Y-123977330D01*
X87999099Y-123815383D01*
X89318921Y-124577383D01*
X89318921Y-124577383D01*
G37*
G36*
X89568921Y-124144370D02*
X89568921Y-124144371D01*
X89508862Y-124248396D01*
X89381921Y-124468264D01*
X88062099Y-123706264D01*
X88062099Y-123706263D01*
X88155599Y-123544317D01*
X88249099Y-123382370D01*
X89568921Y-124144370D01*
X89568921Y-124144370D01*
G37*
G36*
X89818921Y-123711358D02*
X89818921Y-123711359D01*
X89758862Y-123815383D01*
X89631921Y-124035252D01*
X88312099Y-123273252D01*
X88312099Y-123273251D01*
X88416838Y-123091839D01*
X88499099Y-122949358D01*
X89818921Y-123711358D01*
X89818921Y-123711358D01*
G37*
G36*
X85008409Y-123243408D02*
X85008409Y-123243409D01*
X84991179Y-123273252D01*
X84821409Y-123567302D01*
X83501587Y-122805302D01*
X83501587Y-122805301D01*
X83595087Y-122643355D01*
X83688587Y-122481408D01*
X85008409Y-123243408D01*
X85008409Y-123243408D01*
G37*
G36*
X85258409Y-122810396D02*
X85258409Y-122810397D01*
X85178179Y-122949358D01*
X85071409Y-123134290D01*
X83751587Y-122372290D01*
X83751587Y-122372289D01*
X83884638Y-122141839D01*
X83938587Y-122048396D01*
X85258409Y-122810396D01*
X85258409Y-122810396D01*
G37*
G36*
X93659882Y-121858619D02*
X92947882Y-123091839D01*
X92234278Y-122679839D01*
X92946278Y-121446619D01*
X93659882Y-121858619D01*
X93659882Y-121858619D01*
G37*
G36*
X85508409Y-122377383D02*
X85508409Y-122377384D01*
X85448350Y-122481408D01*
X85321409Y-122701277D01*
X84001587Y-121939277D01*
X84001587Y-121939276D01*
X84122506Y-121729839D01*
X84188587Y-121615383D01*
X85508409Y-122377383D01*
X85508409Y-122377383D01*
G37*
G36*
X82706086Y-121481149D02*
X82144086Y-122454561D01*
X80954168Y-121767561D01*
X81516168Y-120794149D01*
X82706086Y-121481149D01*
X82706086Y-121481149D01*
G37*
G36*
X85758409Y-121944370D02*
X85758409Y-121944371D01*
X85698350Y-122048396D01*
X85571409Y-122268264D01*
X84251587Y-121506264D01*
X84251587Y-121506263D01*
X84345087Y-121344317D01*
X84438587Y-121182370D01*
X85758409Y-121944370D01*
X85758409Y-121944370D01*
G37*
G36*
X92014434Y-120908619D02*
X91302434Y-122141839D01*
X90588830Y-121729839D01*
X91300830Y-120496619D01*
X92014434Y-120908619D01*
X92014434Y-120908619D01*
G37*
G36*
X86008409Y-121511358D02*
X86008409Y-121511359D01*
X85948350Y-121615383D01*
X85821409Y-121835252D01*
X84501587Y-121073252D01*
X84501587Y-121073251D01*
X84662727Y-120794149D01*
X84688587Y-120749358D01*
X86008409Y-121511358D01*
X86008409Y-121511358D01*
G37*
G36*
X83706086Y-119749099D02*
X83144086Y-120722511D01*
X81954168Y-120035511D01*
X82516168Y-119062099D01*
X83706086Y-119749099D01*
X83706086Y-119749099D01*
G37*
G36*
X86731678Y-117858618D02*
X86019678Y-119091838D01*
X85306074Y-118679838D01*
X86018074Y-117446618D01*
X86731678Y-117858618D01*
X86731678Y-117858618D01*
G37*
G36*
X85086230Y-116908618D02*
X84374230Y-118141838D01*
X83660626Y-117729838D01*
X84372626Y-116496618D01*
X85086230Y-116908618D01*
X85086230Y-116908618D01*
G37*
G36*
X66212000Y-110362000D02*
X64788000Y-110362000D01*
X64788000Y-109538000D01*
X66212000Y-109538000D01*
X66212000Y-110362000D01*
X66212000Y-110362000D01*
G37*
G36*
X68212000Y-110362000D02*
X66788000Y-110362000D01*
X66788000Y-109538000D01*
X68212000Y-109538000D01*
X68212000Y-110362000D01*
X68212000Y-110362000D01*
G37*
G36*
X66212000Y-108462000D02*
X64788000Y-108462000D01*
X64788000Y-107638000D01*
X66212000Y-107638000D01*
X66212000Y-108462000D01*
X66212000Y-108462000D01*
G37*
G36*
X68212000Y-108462000D02*
X66788000Y-108462000D01*
X66788000Y-107638000D01*
X68212000Y-107638000D01*
X68212000Y-108462000D01*
X68212000Y-108462000D01*
G37*
G36*
X65962000Y-106712000D02*
X65138000Y-106712000D01*
X65138000Y-105288000D01*
X65962000Y-105288000D01*
X65962000Y-106712000D01*
X65962000Y-106712000D01*
G37*
G36*
X67862000Y-106712000D02*
X67038000Y-106712000D01*
X67038000Y-105288000D01*
X67862000Y-105288000D01*
X67862000Y-106712000D01*
X67862000Y-106712000D01*
G37*
G36*
X71712000Y-105862000D02*
X70288000Y-105862000D01*
X70288000Y-105038000D01*
X71712000Y-105038000D01*
X71712000Y-105862000D01*
X71712000Y-105862000D01*
G37*
G36*
X73712000Y-105812000D02*
X72288000Y-105812000D01*
X72288000Y-104988000D01*
X73712000Y-104988000D01*
X73712000Y-105812000D01*
X73712000Y-105812000D01*
G37*
G36*
X128562000Y-105687000D02*
X127438000Y-105687000D01*
X127438000Y-104313000D01*
X128562000Y-104313000D01*
X128562000Y-105687000D01*
X128562000Y-105687000D01*
G37*
G36*
X126562000Y-105687000D02*
X125438000Y-105687000D01*
X125438000Y-104313000D01*
X126562000Y-104313000D01*
X126562000Y-105687000D01*
X126562000Y-105687000D01*
G37*
G36*
X123712000Y-105362000D02*
X122288000Y-105362000D01*
X122288000Y-104538000D01*
X123712000Y-104538000D01*
X123712000Y-105362000D01*
X123712000Y-105362000D01*
G37*
G36*
X131562000Y-104687000D02*
X130438000Y-104687000D01*
X130438000Y-103313000D01*
X131562000Y-103313000D01*
X131562000Y-104687000D01*
X131562000Y-104687000D01*
G37*
G36*
X133562000Y-104687000D02*
X132438000Y-104687000D01*
X132438000Y-103313000D01*
X133562000Y-103313000D01*
X133562000Y-104687000D01*
X133562000Y-104687000D01*
G37*
G36*
X71712000Y-103962000D02*
X70288000Y-103962000D01*
X70288000Y-103138000D01*
X71712000Y-103138000D01*
X71712000Y-103962000D01*
X71712000Y-103962000D01*
G37*
G36*
X69126000Y-103935500D02*
X68494000Y-103935500D01*
X68494000Y-102668500D01*
X69126000Y-102668500D01*
X69126000Y-103935500D01*
X69126000Y-103935500D01*
G37*
G36*
X65316000Y-103935500D02*
X64684000Y-103935500D01*
X64684000Y-102668500D01*
X65316000Y-102668500D01*
X65316000Y-103935500D01*
X65316000Y-103935500D01*
G37*
G36*
X67856000Y-103935500D02*
X67224000Y-103935500D01*
X67224000Y-102668500D01*
X67856000Y-102668500D01*
X67856000Y-103935500D01*
X67856000Y-103935500D01*
G37*
G36*
X66586000Y-103935500D02*
X65954000Y-103935500D01*
X65954000Y-102668500D01*
X66586000Y-102668500D01*
X66586000Y-103935500D01*
X66586000Y-103935500D01*
G37*
G36*
X62776000Y-103935500D02*
X62144000Y-103935500D01*
X62144000Y-102668500D01*
X62776000Y-102668500D01*
X62776000Y-103935500D01*
X62776000Y-103935500D01*
G37*
G36*
X64046000Y-103935500D02*
X63414000Y-103935500D01*
X63414000Y-102668500D01*
X64046000Y-102668500D01*
X64046000Y-103935500D01*
X64046000Y-103935500D01*
G37*
G36*
X61506000Y-103935500D02*
X60874000Y-103935500D01*
X60874000Y-102668500D01*
X61506000Y-102668500D01*
X61506000Y-103935500D01*
X61506000Y-103935500D01*
G37*
G36*
X73712000Y-103912000D02*
X72288000Y-103912000D01*
X72288000Y-103088000D01*
X73712000Y-103088000D01*
X73712000Y-103912000D01*
X73712000Y-103912000D01*
G37*
G36*
X123712000Y-103462000D02*
X122288000Y-103462000D01*
X122288000Y-102638000D01*
X123712000Y-102638000D01*
X123712000Y-103462000D01*
X123712000Y-103462000D01*
G37*
G36*
X126187000Y-102962000D02*
X125813000Y-102962000D01*
X125813000Y-101438000D01*
X126187000Y-101438000D01*
X126187000Y-102962000D01*
X126187000Y-102962000D01*
G37*
G36*
X126687000Y-102962000D02*
X126313000Y-102962000D01*
X126313000Y-101438000D01*
X126687000Y-101438000D01*
X126687000Y-102962000D01*
X126687000Y-102962000D01*
G37*
G36*
X127187000Y-102962000D02*
X126813000Y-102962000D01*
X126813000Y-101438000D01*
X127187000Y-101438000D01*
X127187000Y-102962000D01*
X127187000Y-102962000D01*
G37*
G36*
X127687000Y-102962000D02*
X127313000Y-102962000D01*
X127313000Y-101438000D01*
X127687000Y-101438000D01*
X127687000Y-102962000D01*
X127687000Y-102962000D01*
G37*
G36*
X128187000Y-102962000D02*
X127813000Y-102962000D01*
X127813000Y-101438000D01*
X128187000Y-101438000D01*
X128187000Y-102962000D01*
X128187000Y-102962000D01*
G37*
G36*
X73212107Y-100446061D02*
X73212120Y-100446062D01*
X73214644Y-100446080D01*
X73374458Y-100464006D01*
X73527747Y-100512632D01*
X73668672Y-100590106D01*
X73791864Y-100693477D01*
X73892633Y-100818808D01*
X73967138Y-100961324D01*
X74012544Y-101115598D01*
X74012548Y-101115643D01*
X74012551Y-101115653D01*
X74027121Y-101275749D01*
X74010316Y-101435631D01*
X74010314Y-101435636D01*
X74010309Y-101435688D01*
X73962754Y-101589313D01*
X73886266Y-101730775D01*
X73783758Y-101854686D01*
X73659134Y-101956327D01*
X73517141Y-102031826D01*
X73363188Y-102078307D01*
X73203139Y-102094000D01*
X72716705Y-102094000D01*
X72707893Y-102093939D01*
X72707880Y-102093938D01*
X72705356Y-102093920D01*
X72545542Y-102075994D01*
X72392253Y-102027368D01*
X72251328Y-101949894D01*
X72128136Y-101846523D01*
X72027367Y-101721192D01*
X71952862Y-101578676D01*
X71907456Y-101424402D01*
X71907452Y-101424357D01*
X71907449Y-101424347D01*
X71892879Y-101264251D01*
X71909684Y-101104369D01*
X71909686Y-101104364D01*
X71909691Y-101104312D01*
X71957246Y-100950687D01*
X72033734Y-100809225D01*
X72136242Y-100685314D01*
X72260866Y-100583673D01*
X72402859Y-100508174D01*
X72556812Y-100461693D01*
X72716861Y-100446000D01*
X73203295Y-100446000D01*
X73212107Y-100446061D01*
X73212107Y-100446061D01*
G37*
G36*
X75752107Y-100446061D02*
X75752120Y-100446062D01*
X75754644Y-100446080D01*
X75914458Y-100464006D01*
X76067747Y-100512632D01*
X76208672Y-100590106D01*
X76331864Y-100693477D01*
X76432633Y-100818808D01*
X76507138Y-100961324D01*
X76552544Y-101115598D01*
X76552548Y-101115643D01*
X76552551Y-101115653D01*
X76567121Y-101275749D01*
X76550316Y-101435631D01*
X76550314Y-101435636D01*
X76550309Y-101435688D01*
X76502754Y-101589313D01*
X76426266Y-101730775D01*
X76323758Y-101854686D01*
X76199134Y-101956327D01*
X76057141Y-102031826D01*
X75903188Y-102078307D01*
X75743139Y-102094000D01*
X75256705Y-102094000D01*
X75247893Y-102093939D01*
X75247880Y-102093938D01*
X75245356Y-102093920D01*
X75085542Y-102075994D01*
X74932253Y-102027368D01*
X74791328Y-101949894D01*
X74668136Y-101846523D01*
X74567367Y-101721192D01*
X74492862Y-101578676D01*
X74447456Y-101424402D01*
X74447452Y-101424357D01*
X74447449Y-101424347D01*
X74432879Y-101264251D01*
X74449684Y-101104369D01*
X74449686Y-101104364D01*
X74449691Y-101104312D01*
X74497246Y-100950687D01*
X74573734Y-100809225D01*
X74676242Y-100685314D01*
X74800866Y-100583673D01*
X74942859Y-100508174D01*
X75096812Y-100461693D01*
X75256861Y-100446000D01*
X75743295Y-100446000D01*
X75752107Y-100446061D01*
X75752107Y-100446061D01*
G37*
G36*
X75752107Y-97906061D02*
X75752120Y-97906062D01*
X75754644Y-97906080D01*
X75914458Y-97924006D01*
X76067747Y-97972632D01*
X76208672Y-98050106D01*
X76331864Y-98153477D01*
X76432633Y-98278808D01*
X76507138Y-98421324D01*
X76552544Y-98575598D01*
X76552548Y-98575643D01*
X76552551Y-98575653D01*
X76567121Y-98735749D01*
X76550316Y-98895631D01*
X76550314Y-98895636D01*
X76550309Y-98895688D01*
X76502754Y-99049313D01*
X76426266Y-99190775D01*
X76323758Y-99314686D01*
X76199134Y-99416327D01*
X76057141Y-99491826D01*
X75903188Y-99538307D01*
X75743139Y-99554000D01*
X75256705Y-99554000D01*
X75247893Y-99553939D01*
X75247880Y-99553938D01*
X75245356Y-99553920D01*
X75085542Y-99535994D01*
X74932253Y-99487368D01*
X74791328Y-99409894D01*
X74668136Y-99306523D01*
X74567367Y-99181192D01*
X74492862Y-99038676D01*
X74447456Y-98884402D01*
X74447452Y-98884357D01*
X74447449Y-98884347D01*
X74432879Y-98724251D01*
X74449684Y-98564369D01*
X74449686Y-98564364D01*
X74449691Y-98564312D01*
X74497246Y-98410687D01*
X74573734Y-98269225D01*
X74676242Y-98145314D01*
X74800866Y-98043673D01*
X74942859Y-97968174D01*
X75096812Y-97921693D01*
X75256861Y-97906000D01*
X75743295Y-97906000D01*
X75752107Y-97906061D01*
X75752107Y-97906061D01*
G37*
G36*
X73212107Y-97906061D02*
X73212120Y-97906062D01*
X73214644Y-97906080D01*
X73374458Y-97924006D01*
X73527747Y-97972632D01*
X73668672Y-98050106D01*
X73791864Y-98153477D01*
X73892633Y-98278808D01*
X73967138Y-98421324D01*
X74012544Y-98575598D01*
X74012548Y-98575643D01*
X74012551Y-98575653D01*
X74027121Y-98735749D01*
X74010316Y-98895631D01*
X74010314Y-98895636D01*
X74010309Y-98895688D01*
X73962754Y-99049313D01*
X73886266Y-99190775D01*
X73783758Y-99314686D01*
X73659134Y-99416327D01*
X73517141Y-99491826D01*
X73363188Y-99538307D01*
X73203139Y-99554000D01*
X72716705Y-99554000D01*
X72707893Y-99553939D01*
X72707880Y-99553938D01*
X72705356Y-99553920D01*
X72545542Y-99535994D01*
X72392253Y-99487368D01*
X72251328Y-99409894D01*
X72128136Y-99306523D01*
X72027367Y-99181192D01*
X71952862Y-99038676D01*
X71907456Y-98884402D01*
X71907452Y-98884357D01*
X71907449Y-98884347D01*
X71892879Y-98724251D01*
X71909684Y-98564369D01*
X71909686Y-98564364D01*
X71909691Y-98564312D01*
X71957246Y-98410687D01*
X72033734Y-98269225D01*
X72136242Y-98145314D01*
X72260866Y-98043673D01*
X72402859Y-97968174D01*
X72556812Y-97921693D01*
X72716861Y-97906000D01*
X73203295Y-97906000D01*
X73212107Y-97906061D01*
X73212107Y-97906061D01*
G37*
G36*
X126687000Y-98562000D02*
X126313000Y-98562000D01*
X126313000Y-97038000D01*
X126687000Y-97038000D01*
X126687000Y-98562000D01*
X126687000Y-98562000D01*
G37*
G36*
X128187000Y-98562000D02*
X127813000Y-98562000D01*
X127813000Y-97038000D01*
X128187000Y-97038000D01*
X128187000Y-98562000D01*
X128187000Y-98562000D01*
G37*
G36*
X127187000Y-98562000D02*
X126813000Y-98562000D01*
X126813000Y-97038000D01*
X127187000Y-97038000D01*
X127187000Y-98562000D01*
X127187000Y-98562000D01*
G37*
G36*
X127687000Y-98562000D02*
X127313000Y-98562000D01*
X127313000Y-97038000D01*
X127687000Y-97038000D01*
X127687000Y-98562000D01*
X127687000Y-98562000D01*
G37*
G36*
X126187000Y-98562000D02*
X125813000Y-98562000D01*
X125813000Y-97038000D01*
X126187000Y-97038000D01*
X126187000Y-98562000D01*
X126187000Y-98562000D01*
G37*
G36*
X61506000Y-97585500D02*
X60874000Y-97585500D01*
X60874000Y-96318500D01*
X61506000Y-96318500D01*
X61506000Y-97585500D01*
X61506000Y-97585500D01*
G37*
G36*
X62776000Y-97585500D02*
X62144000Y-97585500D01*
X62144000Y-96318500D01*
X62776000Y-96318500D01*
X62776000Y-97585500D01*
X62776000Y-97585500D01*
G37*
G36*
X64046000Y-97585500D02*
X63414000Y-97585500D01*
X63414000Y-96318500D01*
X64046000Y-96318500D01*
X64046000Y-97585500D01*
X64046000Y-97585500D01*
G37*
G36*
X65316000Y-97585500D02*
X64684000Y-97585500D01*
X64684000Y-96318500D01*
X65316000Y-96318500D01*
X65316000Y-97585500D01*
X65316000Y-97585500D01*
G37*
G36*
X66586000Y-97585500D02*
X65954000Y-97585500D01*
X65954000Y-96318500D01*
X66586000Y-96318500D01*
X66586000Y-97585500D01*
X66586000Y-97585500D01*
G37*
G36*
X67856000Y-97585500D02*
X67224000Y-97585500D01*
X67224000Y-96318500D01*
X67856000Y-96318500D01*
X67856000Y-97585500D01*
X67856000Y-97585500D01*
G37*
G36*
X69126000Y-97585500D02*
X68494000Y-97585500D01*
X68494000Y-96318500D01*
X69126000Y-96318500D01*
X69126000Y-97585500D01*
X69126000Y-97585500D01*
G37*
G36*
X123712000Y-97362000D02*
X122288000Y-97362000D01*
X122288000Y-96538000D01*
X123712000Y-96538000D01*
X123712000Y-97362000D01*
X123712000Y-97362000D01*
G37*
G36*
X73712000Y-96412000D02*
X72288000Y-96412000D01*
X72288000Y-95588000D01*
X73712000Y-95588000D01*
X73712000Y-96412000D01*
X73712000Y-96412000D01*
G37*
G36*
X126562000Y-95687000D02*
X125438000Y-95687000D01*
X125438000Y-94313000D01*
X126562000Y-94313000D01*
X126562000Y-95687000D01*
X126562000Y-95687000D01*
G37*
G36*
X128562000Y-95687000D02*
X127438000Y-95687000D01*
X127438000Y-94313000D01*
X128562000Y-94313000D01*
X128562000Y-95687000D01*
X128562000Y-95687000D01*
G37*
G36*
X123712000Y-95462000D02*
X122288000Y-95462000D01*
X122288000Y-94638000D01*
X123712000Y-94638000D01*
X123712000Y-95462000D01*
X123712000Y-95462000D01*
G37*
G36*
X73712000Y-94512000D02*
X72288000Y-94512000D01*
X72288000Y-93688000D01*
X73712000Y-93688000D01*
X73712000Y-94512000D01*
X73712000Y-94512000D01*
G37*
G36*
X84881748Y-83024394D02*
X84168144Y-83436394D01*
X83456144Y-82203174D01*
X84169748Y-81791174D01*
X84881748Y-83024394D01*
X84881748Y-83024394D01*
G37*
G36*
X86527196Y-82074394D02*
X85813592Y-82486394D01*
X85101592Y-81253174D01*
X85815196Y-80841174D01*
X86527196Y-82074394D01*
X86527196Y-82074394D01*
G37*
G36*
X83501603Y-80183913D02*
X82311685Y-80870913D01*
X81749685Y-79897501D01*
X82939603Y-79210501D01*
X83501603Y-80183913D01*
X83501603Y-80183913D01*
G37*
G36*
X91809951Y-79024394D02*
X91096347Y-79436394D01*
X90384347Y-78203174D01*
X91097951Y-77791174D01*
X91809951Y-79024394D01*
X91809951Y-79024394D01*
G37*
G36*
X85656007Y-78165451D02*
X85803926Y-78421653D01*
X85803926Y-78421654D01*
X84484104Y-79183654D01*
X84390604Y-79021707D01*
X84297104Y-78859761D01*
X84297104Y-78859760D01*
X85616926Y-78097760D01*
X85656007Y-78165451D01*
X85656007Y-78165451D01*
G37*
G36*
X82501603Y-78451863D02*
X81311685Y-79138863D01*
X80749685Y-78165451D01*
X81939603Y-77478451D01*
X82501603Y-78451863D01*
X82501603Y-78451863D01*
G37*
G36*
X85439918Y-77791174D02*
X85553926Y-77988641D01*
X85553926Y-77988642D01*
X84234104Y-78750642D01*
X84140604Y-78588695D01*
X84047104Y-78426749D01*
X84047104Y-78426748D01*
X85366926Y-77664748D01*
X85439918Y-77791174D01*
X85439918Y-77791174D01*
G37*
G36*
X93455399Y-78074394D02*
X92741795Y-78486394D01*
X92029795Y-77253174D01*
X92743399Y-76841174D01*
X93455399Y-78074394D01*
X93455399Y-78074394D01*
G37*
G36*
X85210426Y-77393682D02*
X85303926Y-77555628D01*
X85303926Y-77555629D01*
X83984104Y-78317629D01*
X83843672Y-78074394D01*
X83797104Y-77993736D01*
X83797104Y-77993735D01*
X85116926Y-77231735D01*
X85210426Y-77393682D01*
X85210426Y-77393682D01*
G37*
G36*
X84960426Y-76960669D02*
X85053926Y-77122615D01*
X85053926Y-77122616D01*
X83734104Y-77884616D01*
X83607163Y-77664748D01*
X83547104Y-77560723D01*
X83547104Y-77560722D01*
X84866926Y-76798722D01*
X84960426Y-76960669D01*
X84960426Y-76960669D01*
G37*
G36*
X84710426Y-76527657D02*
X84803926Y-76689603D01*
X84803926Y-76689604D01*
X83484104Y-77451604D01*
X83390604Y-77289657D01*
X83297104Y-77127711D01*
X83297104Y-77127710D01*
X84616926Y-76365710D01*
X84710426Y-76527657D01*
X84710426Y-76527657D01*
G37*
G36*
X89520938Y-76059707D02*
X89614438Y-76221653D01*
X89614438Y-76221654D01*
X88294616Y-76983654D01*
X88124846Y-76689604D01*
X88107616Y-76659761D01*
X88107616Y-76659760D01*
X89427438Y-75897760D01*
X89520938Y-76059707D01*
X89520938Y-76059707D01*
G37*
G36*
X89270938Y-75626695D02*
X89364438Y-75788641D01*
X89364438Y-75788642D01*
X88044616Y-76550642D01*
X87937846Y-76365710D01*
X87857616Y-76226749D01*
X87857616Y-76226748D01*
X89177438Y-75464748D01*
X89270938Y-75626695D01*
X89270938Y-75626695D01*
G37*
G36*
X89015298Y-75183913D02*
X89114438Y-75355628D01*
X89114438Y-75355629D01*
X87794616Y-76117629D01*
X87667675Y-75897760D01*
X87607616Y-75793736D01*
X87607616Y-75793735D01*
X88927438Y-75031735D01*
X89015298Y-75183913D01*
X89015298Y-75183913D01*
G37*
G36*
X92161857Y-75183913D02*
X90971939Y-75870913D01*
X90409939Y-74897501D01*
X91599857Y-74210501D01*
X92161857Y-75183913D01*
X92161857Y-75183913D01*
G37*
G36*
X88770938Y-74760669D02*
X88864438Y-74922615D01*
X88864438Y-74922616D01*
X87544616Y-75684616D01*
X87417675Y-75464748D01*
X87357616Y-75360723D01*
X87357616Y-75360722D01*
X88677438Y-74598722D01*
X88770938Y-74760669D01*
X88770938Y-74760669D01*
G37*
G36*
X88453298Y-74210501D02*
X88614438Y-74489603D01*
X88614438Y-74489604D01*
X87294616Y-75251604D01*
X87167675Y-75031735D01*
X87107616Y-74927711D01*
X87107616Y-74927710D01*
X88427438Y-74165710D01*
X88453298Y-74210501D01*
X88453298Y-74210501D01*
G37*
G36*
X91161857Y-73451863D02*
X89971939Y-74138863D01*
X89409939Y-73165451D01*
X90599857Y-72478451D01*
X91161857Y-73451863D01*
X91161857Y-73451863D01*
G37*
G36*
X82964181Y-71813959D02*
X81990769Y-72375959D01*
X81303769Y-71186041D01*
X82277181Y-70624041D01*
X82964181Y-71813959D01*
X82964181Y-71813959D01*
G37*
G36*
X84696231Y-70813959D02*
X83722819Y-71375959D01*
X83035819Y-70186041D01*
X84009231Y-69624041D01*
X84696231Y-70813959D01*
X84696231Y-70813959D01*
G37*
M02*
