G04 #@! TF.FileFunction,Profile,NP*
%FSLAX46Y46*%
G04 Gerber Fmt 4.6, Leading zero omitted, Abs format (unit mm)*
G04 Created by KiCad (PCBNEW 4.0.2+dfsg1-stable) date tor 18 maj 2017 17:38:11*
%MOMM*%
G01*
G04 APERTURE LIST*
%ADD10C,0.100000*%
%ADD11C,0.150000*%
%ADD12C,0.001000*%
G04 APERTURE END LIST*
D10*
D11*
X91500000Y-72250000D02*
X91500000Y-71250000D01*
X132500000Y-91000000D02*
X132500000Y-94000000D01*
X133500000Y-91000000D02*
G75*
G03X132500000Y-91000000I-500000J0D01*
G01*
X133500000Y-94000000D02*
X133500000Y-91000000D01*
X134500000Y-94000000D02*
X133500000Y-94000000D01*
X132500000Y-94000000D02*
X131500000Y-94000000D01*
X131500000Y-94000000D02*
X131500000Y-97000000D01*
X131500000Y-97000000D02*
X134500000Y-97000000D01*
X134500000Y-97000000D02*
X134500000Y-94000000D01*
X132500000Y-113500000D02*
X132500000Y-110500000D01*
X133500000Y-113500000D02*
G75*
G02X132500000Y-113500000I-500000J0D01*
G01*
X133500000Y-110500000D02*
X133500000Y-113500000D01*
X134500000Y-110500000D02*
X133500000Y-110500000D01*
X132500000Y-110500000D02*
X131500000Y-110500000D01*
X131500000Y-110500000D02*
X131500000Y-107500000D01*
X131500000Y-107500000D02*
X134500000Y-107500000D01*
X134500000Y-107500000D02*
X134500000Y-110500000D01*
X75000000Y-70750000D02*
X75000000Y-69750000D01*
X78000000Y-69750000D02*
X78000000Y-72750000D01*
X78000000Y-72750000D02*
X75000000Y-72750000D01*
X75000000Y-72750000D02*
X75000000Y-71750000D01*
X75000000Y-69750000D02*
X78000000Y-69750000D01*
X72000000Y-70750000D02*
X75000000Y-70750000D01*
X75000000Y-71750000D02*
X72000000Y-71750000D01*
X72000000Y-71750000D02*
G75*
G02X72000000Y-70750000I0J500000D01*
G01*
X91500000Y-70250000D02*
X91500000Y-69250000D01*
X88500000Y-69250000D02*
X88500000Y-72250000D01*
X88500000Y-72250000D02*
X91500000Y-72250000D01*
X91500000Y-69250000D02*
X88500000Y-69250000D01*
X94500000Y-70250000D02*
X91500000Y-70250000D01*
X91500000Y-71250000D02*
X94500000Y-71250000D01*
X94500000Y-71250000D02*
G75*
G03X94500000Y-70250000I0J500000D01*
G01*
X94000000Y-129250000D02*
G75*
G03X94000000Y-128250000I0J500000D01*
G01*
X71500000Y-128250000D02*
G75*
G03X71500000Y-129250000I0J-500000D01*
G01*
X77500000Y-130250000D02*
X77500000Y-127250000D01*
X74500000Y-130250000D02*
X77500000Y-130250000D01*
X74500000Y-129250000D02*
X74500000Y-130250000D01*
X71500000Y-129250000D02*
X74500000Y-129250000D01*
X74500000Y-128250000D02*
X71500000Y-128250000D01*
X74500000Y-127250000D02*
X74500000Y-128250000D01*
X77500000Y-127250000D02*
X74500000Y-127250000D01*
X88000000Y-130000000D02*
X88000000Y-127250000D01*
X91000000Y-130000000D02*
X88000000Y-130000000D01*
X91000000Y-129250000D02*
X91000000Y-130000000D01*
X94000000Y-129250000D02*
X91000000Y-129250000D01*
X91000000Y-128250000D02*
X94000000Y-128250000D01*
X91000000Y-127250000D02*
X91000000Y-128250000D01*
X88000000Y-127250000D02*
X91000000Y-127250000D01*
D12*
X111250000Y-100000000D02*
G75*
G03X111250000Y-100000000I-11250000J0D01*
G01*
X57500000Y-142500000D02*
X57500000Y-57500000D01*
X142500000Y-142500000D02*
X57500000Y-142500000D01*
X142500000Y-57500000D02*
X142500000Y-142500000D01*
X57500000Y-57500000D02*
X142500000Y-57500000D01*
M02*
