G04 #@! TF.FileFunction,Legend,Bot*
%FSLAX46Y46*%
G04 Gerber Fmt 4.6, Leading zero omitted, Abs format (unit mm)*
G04 Created by KiCad (PCBNEW 4.0.2+dfsg1-stable) date tor 18 maj 2017 17:38:11*
%MOMM*%
G01*
G04 APERTURE LIST*
%ADD10C,0.100000*%
%ADD11C,0.150000*%
%ADD12C,0.200000*%
%ADD13C,0.120000*%
%ADD14C,0.125000*%
%ADD15R,0.960000X2.000000*%
%ADD16R,2.200000X1.200000*%
%ADD17R,0.900000X1.500000*%
%ADD18R,1.400000X0.480000*%
%ADD19R,0.480000X1.400000*%
%ADD20R,0.800000X1.750000*%
%ADD21R,1.500000X0.900000*%
%ADD22R,1.450000X1.200000*%
%ADD23R,1.200000X1.450000*%
%ADD24R,2.700000X1.200000*%
%ADD25R,1.200000X2.700000*%
%ADD26C,4.200000*%
%ADD27R,3.380000X1.855000*%
%ADD28R,1.855000X3.380000*%
%ADD29R,1.750000X0.800000*%
%ADD30R,1.800000X1.200000*%
%ADD31R,1.200000X1.800000*%
%ADD32R,0.650000X0.790000*%
%ADD33R,2.800000X0.710000*%
%ADD34R,0.710000X2.800000*%
%ADD35R,1.260000X0.850000*%
%ADD36R,1.700000X0.800000*%
%ADD37R,0.708000X1.343000*%
%ADD38R,0.800000X1.700000*%
%ADD39R,2.000000X0.960000*%
%ADD40R,1.398880X1.398880*%
%ADD41R,1.200000X3.200000*%
%ADD42R,1.200000X0.600000*%
%ADD43R,0.600000X1.200000*%
%ADD44C,0.254000*%
G04 APERTURE END LIST*
D10*
D11*
X58952381Y-102154762D02*
X58952381Y-102345238D01*
X58904762Y-102440477D01*
X58857143Y-102488096D01*
X58714286Y-102583334D01*
X58523810Y-102630953D01*
X58142857Y-102630953D01*
X58047619Y-102583334D01*
X58000000Y-102535715D01*
X57952381Y-102440477D01*
X57952381Y-102250000D01*
X58000000Y-102154762D01*
X58047619Y-102107143D01*
X58142857Y-102059524D01*
X58380952Y-102059524D01*
X58476190Y-102107143D01*
X58523810Y-102154762D01*
X58571429Y-102250000D01*
X58571429Y-102440477D01*
X58523810Y-102535715D01*
X58476190Y-102583334D01*
X58380952Y-102630953D01*
X58857143Y-103059524D02*
X58904762Y-103107143D01*
X58952381Y-103059524D01*
X58904762Y-103011905D01*
X58857143Y-103059524D01*
X58952381Y-103059524D01*
X57952381Y-104011905D02*
X57952381Y-103535714D01*
X58428571Y-103488095D01*
X58380952Y-103535714D01*
X58333333Y-103630952D01*
X58333333Y-103869048D01*
X58380952Y-103964286D01*
X58428571Y-104011905D01*
X58523810Y-104059524D01*
X58761905Y-104059524D01*
X58857143Y-104011905D01*
X58904762Y-103964286D01*
X58952381Y-103869048D01*
X58952381Y-103630952D01*
X58904762Y-103535714D01*
X58857143Y-103488095D01*
X57952381Y-104916667D02*
X57952381Y-104726190D01*
X58000000Y-104630952D01*
X58047619Y-104583333D01*
X58190476Y-104488095D01*
X58380952Y-104440476D01*
X58761905Y-104440476D01*
X58857143Y-104488095D01*
X58904762Y-104535714D01*
X58952381Y-104630952D01*
X58952381Y-104821429D01*
X58904762Y-104916667D01*
X58857143Y-104964286D01*
X58761905Y-105011905D01*
X58523810Y-105011905D01*
X58428571Y-104964286D01*
X58380952Y-104916667D01*
X58333333Y-104821429D01*
X58333333Y-104630952D01*
X58380952Y-104535714D01*
X58428571Y-104488095D01*
X58523810Y-104440476D01*
X58952381Y-106202381D02*
X58285714Y-106202381D01*
X58380952Y-106202381D02*
X58333333Y-106250000D01*
X58285714Y-106345238D01*
X58285714Y-106488096D01*
X58333333Y-106583334D01*
X58428571Y-106630953D01*
X58952381Y-106630953D01*
X58428571Y-106630953D02*
X58333333Y-106678572D01*
X58285714Y-106773810D01*
X58285714Y-106916667D01*
X58333333Y-107011905D01*
X58428571Y-107059524D01*
X58952381Y-107059524D01*
X58952381Y-107535714D02*
X58285714Y-107535714D01*
X58380952Y-107535714D02*
X58333333Y-107583333D01*
X58285714Y-107678571D01*
X58285714Y-107821429D01*
X58333333Y-107916667D01*
X58428571Y-107964286D01*
X58952381Y-107964286D01*
X58428571Y-107964286D02*
X58333333Y-108011905D01*
X58285714Y-108107143D01*
X58285714Y-108250000D01*
X58333333Y-108345238D01*
X58428571Y-108392857D01*
X58952381Y-108392857D01*
D12*
X59250000Y-100250000D02*
X59250000Y-109250000D01*
X59250000Y-90750000D02*
X59250000Y-99750000D01*
X60250000Y-109560000D02*
X58250000Y-109560000D01*
X60500000Y-100000000D02*
X58250000Y-100000000D01*
X60250000Y-90440000D02*
X58250000Y-90440000D01*
D11*
X58952381Y-91904762D02*
X58952381Y-92095238D01*
X58904762Y-92190477D01*
X58857143Y-92238096D01*
X58714286Y-92333334D01*
X58523810Y-92380953D01*
X58142857Y-92380953D01*
X58047619Y-92333334D01*
X58000000Y-92285715D01*
X57952381Y-92190477D01*
X57952381Y-92000000D01*
X58000000Y-91904762D01*
X58047619Y-91857143D01*
X58142857Y-91809524D01*
X58380952Y-91809524D01*
X58476190Y-91857143D01*
X58523810Y-91904762D01*
X58571429Y-92000000D01*
X58571429Y-92190477D01*
X58523810Y-92285715D01*
X58476190Y-92333334D01*
X58380952Y-92380953D01*
X58857143Y-92809524D02*
X58904762Y-92857143D01*
X58952381Y-92809524D01*
X58904762Y-92761905D01*
X58857143Y-92809524D01*
X58952381Y-92809524D01*
X57952381Y-93761905D02*
X57952381Y-93285714D01*
X58428571Y-93238095D01*
X58380952Y-93285714D01*
X58333333Y-93380952D01*
X58333333Y-93619048D01*
X58380952Y-93714286D01*
X58428571Y-93761905D01*
X58523810Y-93809524D01*
X58761905Y-93809524D01*
X58857143Y-93761905D01*
X58904762Y-93714286D01*
X58952381Y-93619048D01*
X58952381Y-93380952D01*
X58904762Y-93285714D01*
X58857143Y-93238095D01*
X57952381Y-94666667D02*
X57952381Y-94476190D01*
X58000000Y-94380952D01*
X58047619Y-94333333D01*
X58190476Y-94238095D01*
X58380952Y-94190476D01*
X58761905Y-94190476D01*
X58857143Y-94238095D01*
X58904762Y-94285714D01*
X58952381Y-94380952D01*
X58952381Y-94571429D01*
X58904762Y-94666667D01*
X58857143Y-94714286D01*
X58761905Y-94761905D01*
X58523810Y-94761905D01*
X58428571Y-94714286D01*
X58380952Y-94666667D01*
X58333333Y-94571429D01*
X58333333Y-94380952D01*
X58380952Y-94285714D01*
X58428571Y-94238095D01*
X58523810Y-94190476D01*
X58952381Y-95952381D02*
X58285714Y-95952381D01*
X58380952Y-95952381D02*
X58333333Y-96000000D01*
X58285714Y-96095238D01*
X58285714Y-96238096D01*
X58333333Y-96333334D01*
X58428571Y-96380953D01*
X58952381Y-96380953D01*
X58428571Y-96380953D02*
X58333333Y-96428572D01*
X58285714Y-96523810D01*
X58285714Y-96666667D01*
X58333333Y-96761905D01*
X58428571Y-96809524D01*
X58952381Y-96809524D01*
X58952381Y-97285714D02*
X58285714Y-97285714D01*
X58380952Y-97285714D02*
X58333333Y-97333333D01*
X58285714Y-97428571D01*
X58285714Y-97571429D01*
X58333333Y-97666667D01*
X58428571Y-97714286D01*
X58952381Y-97714286D01*
X58428571Y-97714286D02*
X58333333Y-97761905D01*
X58285714Y-97857143D01*
X58285714Y-98000000D01*
X58333333Y-98095238D01*
X58428571Y-98142857D01*
X58952381Y-98142857D01*
X59000000Y-115238096D02*
X58952381Y-115142858D01*
X58952381Y-115000001D01*
X59000000Y-114857143D01*
X59095238Y-114761905D01*
X59190476Y-114714286D01*
X59380952Y-114666667D01*
X59523810Y-114666667D01*
X59714286Y-114714286D01*
X59809524Y-114761905D01*
X59904762Y-114857143D01*
X59952381Y-115000001D01*
X59952381Y-115095239D01*
X59904762Y-115238096D01*
X59857143Y-115285715D01*
X59523810Y-115285715D01*
X59523810Y-115095239D01*
X59952381Y-115714286D02*
X58952381Y-115714286D01*
X59952381Y-116285715D01*
X58952381Y-116285715D01*
X59952381Y-116761905D02*
X58952381Y-116761905D01*
X58952381Y-117000000D01*
X59000000Y-117142858D01*
X59095238Y-117238096D01*
X59190476Y-117285715D01*
X59380952Y-117333334D01*
X59523810Y-117333334D01*
X59714286Y-117285715D01*
X59809524Y-117238096D01*
X59904762Y-117142858D01*
X59952381Y-117000000D01*
X59952381Y-116761905D01*
X59571429Y-81488095D02*
X59571429Y-82250000D01*
X59952381Y-81869048D02*
X59190476Y-81869048D01*
X59047619Y-82678571D02*
X59000000Y-82726190D01*
X58952381Y-82821428D01*
X58952381Y-83059524D01*
X59000000Y-83154762D01*
X59047619Y-83202381D01*
X59142857Y-83250000D01*
X59238095Y-83250000D01*
X59380952Y-83202381D01*
X59952381Y-82630952D01*
X59952381Y-83250000D01*
X59285714Y-84107143D02*
X59952381Y-84107143D01*
X58904762Y-83869047D02*
X59619048Y-83630952D01*
X59619048Y-84250000D01*
X58952381Y-84488095D02*
X59952381Y-84821428D01*
X58952381Y-85154762D01*
D12*
X104500000Y-77750000D02*
G75*
G03X104500000Y-77750000I-250000J0D01*
G01*
X122853553Y-84500000D02*
G75*
G03X122853553Y-84500000I-353553J0D01*
G01*
X61750000Y-123750000D02*
G75*
G03X61750000Y-123750000I-250000J0D01*
G01*
X73500000Y-106500000D02*
G75*
G03X73500000Y-106500000I-250000J0D01*
G01*
X96600000Y-80100000D02*
X97100000Y-80100000D01*
X96600000Y-86900000D02*
X96600000Y-80100000D01*
X103400000Y-86900000D02*
X96600000Y-86900000D01*
X103400000Y-80100000D02*
X103400000Y-86900000D01*
X102800000Y-80100000D02*
X103400000Y-80100000D01*
D11*
X98500000Y-83258000D02*
X98500000Y-83508000D01*
X98500000Y-83258000D02*
X98750000Y-83258000D01*
X99250000Y-84008000D02*
X98500000Y-83258000D01*
X98500000Y-84758000D02*
X99250000Y-84008000D01*
X99250000Y-84758000D02*
X99250000Y-83258000D01*
X101250000Y-83758000D02*
X101250000Y-83008000D01*
X100750000Y-83758000D02*
X101250000Y-83758000D01*
X101750000Y-83758000D02*
X100750000Y-83758000D01*
X100750000Y-84508000D02*
X101250000Y-84508000D01*
X101250000Y-83758000D02*
X100750000Y-84508000D01*
X101750000Y-84508000D02*
X101250000Y-83758000D01*
X101250000Y-84508000D02*
X101750000Y-84508000D01*
X101250000Y-85258000D02*
X101250000Y-84508000D01*
X112650000Y-65875000D02*
X113850000Y-65875000D01*
X113850000Y-64125000D02*
X112650000Y-64125000D01*
X73875000Y-105875000D02*
X73875000Y-106385000D01*
X68625000Y-105875000D02*
X68625000Y-106385000D01*
X68625000Y-111125000D02*
X68625000Y-110615000D01*
X73875000Y-111125000D02*
X73875000Y-110615000D01*
X73875000Y-105875000D02*
X73365000Y-105875000D01*
X73875000Y-111125000D02*
X73365000Y-111125000D01*
X68625000Y-111125000D02*
X69135000Y-111125000D01*
X68625000Y-105875000D02*
X69135000Y-105875000D01*
X73875000Y-106385000D02*
X75100000Y-106385000D01*
X134575000Y-104075000D02*
X134430000Y-104075000D01*
X134575000Y-99925000D02*
X134430000Y-99925000D01*
X129425000Y-99925000D02*
X129570000Y-99925000D01*
X129425000Y-104075000D02*
X129570000Y-104075000D01*
X134575000Y-104075000D02*
X134575000Y-99925000D01*
X129425000Y-104075000D02*
X129425000Y-99925000D01*
X134430000Y-104075000D02*
X134430000Y-105475000D01*
X75325000Y-114950000D02*
X75325000Y-116150000D01*
X77075000Y-116150000D02*
X77075000Y-114950000D01*
X87100000Y-133500000D02*
X87100000Y-134500000D01*
X85400000Y-134500000D02*
X85400000Y-133500000D01*
X83250000Y-124350000D02*
X82250000Y-124350000D01*
X82250000Y-122650000D02*
X83250000Y-122650000D01*
X133650000Y-121800000D02*
X133650000Y-120800000D01*
X135350000Y-120800000D02*
X135350000Y-121800000D01*
X107225000Y-69700000D02*
X107225000Y-65800000D01*
X104275000Y-65800000D02*
X104275000Y-69700000D01*
X93200000Y-136525000D02*
X89300000Y-136525000D01*
X89300000Y-139475000D02*
X93200000Y-139475000D01*
X115650000Y-75875000D02*
X116850000Y-75875000D01*
X116850000Y-74125000D02*
X115650000Y-74125000D01*
X67150000Y-89000000D02*
X67150000Y-88000000D01*
X68850000Y-88000000D02*
X68850000Y-89000000D01*
X67150000Y-93000000D02*
X67150000Y-92000000D01*
X68850000Y-92000000D02*
X68850000Y-93000000D01*
X99650000Y-75475000D02*
X100850000Y-75475000D01*
X100850000Y-73725000D02*
X99650000Y-73725000D01*
X122625000Y-70850000D02*
X122625000Y-69650000D01*
X120875000Y-69650000D02*
X120875000Y-70850000D01*
X80350000Y-61500000D02*
X80350000Y-62500000D01*
X78650000Y-62500000D02*
X78650000Y-61500000D01*
X87350000Y-61500000D02*
X87350000Y-62500000D01*
X85650000Y-62500000D02*
X85650000Y-61500000D01*
X78650000Y-66500000D02*
X78650000Y-65500000D01*
X80350000Y-65500000D02*
X80350000Y-66500000D01*
X66650000Y-125750000D02*
X66650000Y-124750000D01*
X68350000Y-124750000D02*
X68350000Y-125750000D01*
X114000000Y-63600000D02*
X113000000Y-63600000D01*
X113000000Y-61900000D02*
X114000000Y-61900000D01*
X108750000Y-61900000D02*
X109750000Y-61900000D01*
X109750000Y-63600000D02*
X108750000Y-63600000D01*
X67900000Y-99250000D02*
X67900000Y-98250000D01*
X69600000Y-98250000D02*
X69600000Y-99250000D01*
X120600000Y-69750000D02*
X120600000Y-70750000D01*
X118900000Y-70750000D02*
X118900000Y-69750000D01*
X115750000Y-76150000D02*
X116750000Y-76150000D01*
X116750000Y-77850000D02*
X115750000Y-77850000D01*
X85400000Y-138500000D02*
X85400000Y-137500000D01*
X87100000Y-137500000D02*
X87100000Y-138500000D01*
X78400000Y-138500000D02*
X78400000Y-137500000D01*
X80100000Y-137500000D02*
X80100000Y-138500000D01*
X75900000Y-104500000D02*
X75900000Y-103500000D01*
X77600000Y-103500000D02*
X77600000Y-104500000D01*
X75900000Y-108250000D02*
X75900000Y-107250000D01*
X77600000Y-107250000D02*
X77600000Y-108250000D01*
X75900000Y-112000000D02*
X75900000Y-111000000D01*
X77600000Y-111000000D02*
X77600000Y-112000000D01*
X74600000Y-114750000D02*
X74600000Y-115750000D01*
X72900000Y-115750000D02*
X72900000Y-114750000D01*
X70900000Y-115750000D02*
X70900000Y-114750000D01*
X72600000Y-114750000D02*
X72600000Y-115750000D01*
X68900000Y-115750000D02*
X68900000Y-114750000D01*
X70600000Y-114750000D02*
X70600000Y-115750000D01*
X134500000Y-83850000D02*
X133500000Y-83850000D01*
X133500000Y-82150000D02*
X134500000Y-82150000D01*
X133750000Y-79850000D02*
X132750000Y-79850000D01*
X132750000Y-78150000D02*
X133750000Y-78150000D01*
X84500000Y-121850000D02*
X83500000Y-121850000D01*
X83500000Y-120150000D02*
X84500000Y-120150000D01*
X85650000Y-66500000D02*
X85650000Y-65500000D01*
X87350000Y-65500000D02*
X87350000Y-66500000D01*
X126650000Y-121800000D02*
X126650000Y-120800000D01*
X128350000Y-120800000D02*
X128350000Y-121800000D01*
X82750000Y-75650000D02*
X83750000Y-75650000D01*
X83750000Y-77350000D02*
X82750000Y-77350000D01*
X135350000Y-124550000D02*
X135350000Y-125550000D01*
X133650000Y-125550000D02*
X133650000Y-124550000D01*
X126650000Y-129550000D02*
X126650000Y-128550000D01*
X128350000Y-128550000D02*
X128350000Y-129550000D01*
X71625000Y-102600000D02*
X71625000Y-101400000D01*
X69875000Y-101400000D02*
X69875000Y-102600000D01*
X73625000Y-102600000D02*
X73625000Y-101400000D01*
X71875000Y-101400000D02*
X71875000Y-102600000D01*
X72400000Y-119375000D02*
X73600000Y-119375000D01*
X73600000Y-117625000D02*
X72400000Y-117625000D01*
X75625000Y-102600000D02*
X75625000Y-101400000D01*
X73875000Y-101400000D02*
X73875000Y-102600000D01*
X69875000Y-97900000D02*
X69875000Y-99100000D01*
X71625000Y-99100000D02*
X71625000Y-97900000D01*
X71875000Y-97900000D02*
X71875000Y-99100000D01*
X73625000Y-99100000D02*
X73625000Y-97900000D01*
X137849990Y-80124990D02*
X136649990Y-80124990D01*
X136649990Y-81874990D02*
X137849990Y-81874990D01*
X73875000Y-97900000D02*
X73875000Y-99100000D01*
X75625000Y-99100000D02*
X75625000Y-97900000D01*
X68875000Y-102850000D02*
X68875000Y-101650000D01*
X67125000Y-101650000D02*
X67125000Y-102850000D01*
X80100000Y-102375000D02*
X78900000Y-102375000D01*
X78900000Y-104125000D02*
X80100000Y-104125000D01*
X78900000Y-106625000D02*
X80100000Y-106625000D01*
X80100000Y-104875000D02*
X78900000Y-104875000D01*
X80100000Y-106875000D02*
X78900000Y-106875000D01*
X78900000Y-108625000D02*
X80100000Y-108625000D01*
X78900000Y-110625000D02*
X80100000Y-110625000D01*
X80100000Y-108875000D02*
X78900000Y-108875000D01*
X80100000Y-110875000D02*
X78900000Y-110875000D01*
X78900000Y-112625000D02*
X80100000Y-112625000D01*
X78900000Y-114625000D02*
X80100000Y-114625000D01*
X80100000Y-112875000D02*
X78900000Y-112875000D01*
X80925000Y-131075000D02*
X80925000Y-130930000D01*
X85075000Y-131075000D02*
X85075000Y-130930000D01*
X85075000Y-125925000D02*
X85075000Y-126070000D01*
X80925000Y-125925000D02*
X80925000Y-126070000D01*
X80925000Y-131075000D02*
X85075000Y-131075000D01*
X80925000Y-125925000D02*
X85075000Y-125925000D01*
X80925000Y-130930000D02*
X79525000Y-130930000D01*
X60975000Y-122925000D02*
X61120000Y-122925000D01*
X60975000Y-127075000D02*
X61120000Y-127075000D01*
X66125000Y-127075000D02*
X65980000Y-127075000D01*
X66125000Y-122925000D02*
X65980000Y-122925000D01*
X60975000Y-122925000D02*
X60975000Y-127075000D01*
X66125000Y-122925000D02*
X66125000Y-127075000D01*
X61120000Y-122925000D02*
X61120000Y-121525000D01*
X85075000Y-68925000D02*
X85075000Y-69070000D01*
X80925000Y-68925000D02*
X80925000Y-69070000D01*
X80925000Y-74075000D02*
X80925000Y-73930000D01*
X85075000Y-74075000D02*
X85075000Y-73930000D01*
X85075000Y-68925000D02*
X80925000Y-68925000D01*
X85075000Y-74075000D02*
X80925000Y-74075000D01*
X85075000Y-69070000D02*
X86475000Y-69070000D01*
X71975000Y-129500000D02*
X71975000Y-127500000D01*
X74025000Y-127500000D02*
X74025000Y-129500000D01*
X91475000Y-129500000D02*
X91475000Y-127500000D01*
X93525000Y-127500000D02*
X93525000Y-129500000D01*
X94025000Y-70000000D02*
X94025000Y-72000000D01*
X91975000Y-72000000D02*
X91975000Y-70000000D01*
X74525000Y-70500000D02*
X74525000Y-72500000D01*
X72475000Y-72500000D02*
X72475000Y-70500000D01*
X133750000Y-113025000D02*
X131750000Y-113025000D01*
X131750000Y-110975000D02*
X133750000Y-110975000D01*
X133750000Y-93525000D02*
X131750000Y-93525000D01*
X131750000Y-91475000D02*
X133750000Y-91475000D01*
X108900000Y-65875000D02*
X110100000Y-65875000D01*
X110100000Y-64125000D02*
X108900000Y-64125000D01*
X133650000Y-129550000D02*
X133650000Y-128550000D01*
X135350000Y-128550000D02*
X135350000Y-129550000D01*
X128600000Y-101750000D02*
X128600000Y-102750000D01*
X126900000Y-102750000D02*
X126900000Y-101750000D01*
X126100000Y-100000000D02*
X126100000Y-101000000D01*
X124400000Y-101000000D02*
X124400000Y-100000000D01*
X137000000Y-127300000D02*
X137000000Y-127550000D01*
X137000000Y-126800000D02*
X137000000Y-126550000D01*
X137000000Y-126800000D02*
X136650000Y-127300000D01*
X136650000Y-127300000D02*
X137350000Y-127300000D01*
X137350000Y-127300000D02*
X137000000Y-126800000D01*
X136650000Y-126800000D02*
X137350000Y-126800000D01*
X137800000Y-125750000D02*
X137800000Y-128150000D01*
X136200000Y-125750000D02*
X136200000Y-128150000D01*
X77500000Y-122650000D02*
X78500000Y-122650000D01*
X78500000Y-124350000D02*
X77500000Y-124350000D01*
X86250000Y-122650000D02*
X87250000Y-122650000D01*
X87250000Y-124350000D02*
X86250000Y-124350000D01*
X89000000Y-77100000D02*
X88000000Y-77100000D01*
X88000000Y-75400000D02*
X89000000Y-75400000D01*
X79750000Y-77350000D02*
X78750000Y-77350000D01*
X78750000Y-75650000D02*
X79750000Y-75650000D01*
X126900000Y-107750000D02*
X126900000Y-106750000D01*
X128600000Y-106750000D02*
X128600000Y-107750000D01*
X126900000Y-98750000D02*
X126900000Y-97750000D01*
X128600000Y-97750000D02*
X128600000Y-98750000D01*
X82800000Y-63700000D02*
G75*
G03X82800000Y-63700000I-100000J0D01*
G01*
X83250000Y-63450000D02*
X82750000Y-63450000D01*
X83250000Y-60550000D02*
X83250000Y-63450000D01*
X82750000Y-60550000D02*
X83250000Y-60550000D01*
X82750000Y-63450000D02*
X82750000Y-60550000D01*
X82800000Y-67700000D02*
G75*
G03X82800000Y-67700000I-100000J0D01*
G01*
X83250000Y-67450000D02*
X82750000Y-67450000D01*
X83250000Y-64550000D02*
X83250000Y-67450000D01*
X82750000Y-64550000D02*
X83250000Y-64550000D01*
X82750000Y-67450000D02*
X82750000Y-64550000D01*
X130800000Y-119000000D02*
G75*
G03X130800000Y-119000000I-100000J0D01*
G01*
X131250000Y-118750000D02*
X130750000Y-118750000D01*
X131250000Y-115850000D02*
X131250000Y-118750000D01*
X130750000Y-115850000D02*
X131250000Y-115850000D01*
X130750000Y-118750000D02*
X130750000Y-115850000D01*
X130800000Y-123000000D02*
G75*
G03X130800000Y-123000000I-100000J0D01*
G01*
X131250000Y-122750000D02*
X130750000Y-122750000D01*
X131250000Y-119850000D02*
X131250000Y-122750000D01*
X130750000Y-119850000D02*
X131250000Y-119850000D01*
X130750000Y-122750000D02*
X130750000Y-119850000D01*
X130800000Y-126750000D02*
G75*
G03X130800000Y-126750000I-100000J0D01*
G01*
X131250000Y-126500000D02*
X130750000Y-126500000D01*
X131250000Y-123600000D02*
X131250000Y-126500000D01*
X130750000Y-123600000D02*
X131250000Y-123600000D01*
X130750000Y-126500000D02*
X130750000Y-123600000D01*
X130800000Y-130750000D02*
G75*
G03X130800000Y-130750000I-100000J0D01*
G01*
X131250000Y-130500000D02*
X130750000Y-130500000D01*
X131250000Y-127600000D02*
X131250000Y-130500000D01*
X130750000Y-127600000D02*
X131250000Y-127600000D01*
X130750000Y-130500000D02*
X130750000Y-127600000D01*
X130725000Y-76750000D02*
X130725000Y-78750000D01*
X127775000Y-78750000D02*
X127775000Y-76750000D01*
X80100000Y-133500000D02*
X80100000Y-134500000D01*
X78400000Y-134500000D02*
X78400000Y-133500000D01*
X128350000Y-116800000D02*
X128350000Y-117800000D01*
X126650000Y-117800000D02*
X126650000Y-116800000D01*
X135350000Y-116800000D02*
X135350000Y-117800000D01*
X133650000Y-117800000D02*
X133650000Y-116800000D01*
X128350000Y-124550000D02*
X128350000Y-125550000D01*
X126650000Y-125550000D02*
X126650000Y-124550000D01*
X81000000Y-78150000D02*
X82000000Y-78150000D01*
X82000000Y-79850000D02*
X81000000Y-79850000D01*
X77000000Y-135750000D02*
X77000000Y-135500000D01*
X77000000Y-136250000D02*
X77000000Y-136500000D01*
X77000000Y-136250000D02*
X77350000Y-135750000D01*
X77350000Y-135750000D02*
X76650000Y-135750000D01*
X76650000Y-135750000D02*
X77000000Y-136250000D01*
X77350000Y-136250000D02*
X76650000Y-136250000D01*
X76200000Y-137300000D02*
X76200000Y-134900000D01*
X77800000Y-137300000D02*
X77800000Y-134900000D01*
X89000000Y-64250000D02*
X89000000Y-64500000D01*
X89000000Y-63750000D02*
X89000000Y-63500000D01*
X89000000Y-63750000D02*
X88650000Y-64250000D01*
X88650000Y-64250000D02*
X89350000Y-64250000D01*
X89350000Y-64250000D02*
X89000000Y-63750000D01*
X88650000Y-63750000D02*
X89350000Y-63750000D01*
X89800000Y-62700000D02*
X89800000Y-65100000D01*
X88200000Y-62700000D02*
X88200000Y-65100000D01*
X137000000Y-119550000D02*
X137000000Y-119800000D01*
X137000000Y-119050000D02*
X137000000Y-118800000D01*
X137000000Y-119050000D02*
X136650000Y-119550000D01*
X136650000Y-119550000D02*
X137350000Y-119550000D01*
X137350000Y-119550000D02*
X137000000Y-119050000D01*
X136650000Y-119050000D02*
X137350000Y-119050000D01*
X137800000Y-118000000D02*
X137800000Y-120400000D01*
X136200000Y-118000000D02*
X136200000Y-120400000D01*
X67275000Y-118050000D02*
X67275000Y-121950000D01*
X70225000Y-121950000D02*
X70225000Y-118050000D01*
X65450000Y-118025000D02*
X61550000Y-118025000D01*
X61550000Y-120975000D02*
X65450000Y-120975000D01*
X93200000Y-132525000D02*
X89300000Y-132525000D01*
X89300000Y-135475000D02*
X93200000Y-135475000D01*
X72550000Y-63475000D02*
X76450000Y-63475000D01*
X76450000Y-60525000D02*
X72550000Y-60525000D01*
X72550000Y-67475000D02*
X76450000Y-67475000D01*
X76450000Y-64525000D02*
X72550000Y-64525000D01*
X120550000Y-118775000D02*
X124450000Y-118775000D01*
X124450000Y-115825000D02*
X120550000Y-115825000D01*
X120550000Y-122775000D02*
X124450000Y-122775000D01*
X124450000Y-119825000D02*
X120550000Y-119825000D01*
X120550000Y-126525000D02*
X124450000Y-126525000D01*
X124450000Y-123575000D02*
X120550000Y-123575000D01*
X120550000Y-130525000D02*
X124450000Y-130525000D01*
X124450000Y-127575000D02*
X120550000Y-127575000D01*
X133700000Y-84275000D02*
X129800000Y-84275000D01*
X129800000Y-87225000D02*
X133700000Y-87225000D01*
X136700000Y-74775000D02*
X132800000Y-74775000D01*
X132800000Y-77725000D02*
X136700000Y-77725000D01*
X129700000Y-83700000D02*
G75*
G03X129700000Y-83700000I-100000J0D01*
G01*
X130250000Y-83450000D02*
X129750000Y-83450000D01*
X130250000Y-80550000D02*
X130250000Y-83450000D01*
X129750000Y-80550000D02*
X130250000Y-80550000D01*
X129750000Y-83450000D02*
X129750000Y-80550000D01*
X121675000Y-85200000D02*
X121675000Y-85085000D01*
X125825000Y-85200000D02*
X125825000Y-85085000D01*
X125825000Y-76300000D02*
X125825000Y-76415000D01*
X121675000Y-76300000D02*
X121675000Y-76415000D01*
X121675000Y-85200000D02*
X125825000Y-85200000D01*
X121675000Y-76300000D02*
X125825000Y-76300000D01*
X121675000Y-85085000D02*
X120300000Y-85085000D01*
X118070000Y-72536000D02*
X118070000Y-67710000D01*
X118070000Y-67710000D02*
X107910000Y-67710000D01*
X107910000Y-67710000D02*
X107910000Y-72536000D01*
X107910000Y-72536000D02*
X118070000Y-72536000D01*
X107910000Y-70758000D02*
X108545000Y-70758000D01*
X108545000Y-70758000D02*
X108545000Y-69488000D01*
X108545000Y-69488000D02*
X107910000Y-69488000D01*
X83150000Y-136300000D02*
G75*
G03X83150000Y-136300000I-100000J0D01*
G01*
X82500000Y-136550000D02*
X83000000Y-136550000D01*
X82500000Y-139450000D02*
X82500000Y-136550000D01*
X83000000Y-139450000D02*
X82500000Y-139450000D01*
X83000000Y-136550000D02*
X83000000Y-139450000D01*
X83150000Y-132300000D02*
G75*
G03X83150000Y-132300000I-100000J0D01*
G01*
X82500000Y-132550000D02*
X83000000Y-132550000D01*
X82500000Y-135450000D02*
X82500000Y-132550000D01*
X83000000Y-135450000D02*
X82500000Y-135450000D01*
X83000000Y-132550000D02*
X83000000Y-135450000D01*
D13*
X103751790Y-85000000D02*
X103751790Y-84000000D01*
X105451790Y-84000000D02*
X105451790Y-85000000D01*
X124600000Y-67750000D02*
X124600000Y-68750000D01*
X122900000Y-68750000D02*
X122900000Y-67750000D01*
X110801790Y-85980000D02*
X108801790Y-85980000D01*
X108801790Y-83020000D02*
X110801790Y-83020000D01*
X105751790Y-85000000D02*
X105751790Y-84000000D01*
X107451790Y-84000000D02*
X107451790Y-85000000D01*
X68630000Y-114850000D02*
X68630000Y-113650000D01*
X66870000Y-113650000D02*
X66870000Y-114850000D01*
X113800000Y-85980000D02*
X117700000Y-85980000D01*
X117700000Y-83020000D02*
X113800000Y-83020000D01*
X121350000Y-66370000D02*
X120150000Y-66370000D01*
X120150000Y-68130000D02*
X121350000Y-68130000D01*
X120150000Y-74130000D02*
X121350000Y-74130000D01*
X121350000Y-72370000D02*
X120150000Y-72370000D01*
X117700000Y-80020000D02*
X113800000Y-80020000D01*
X113800000Y-82980000D02*
X117700000Y-82980000D01*
D11*
X103660000Y-76825000D02*
X103685000Y-76825000D01*
X103660000Y-80975000D02*
X103775000Y-80975000D01*
X112560000Y-80975000D02*
X112445000Y-80975000D01*
X112560000Y-76825000D02*
X112445000Y-76825000D01*
X103660000Y-76825000D02*
X103660000Y-80975000D01*
X112560000Y-76825000D02*
X112560000Y-80975000D01*
X103685000Y-76825000D02*
X103685000Y-75450000D01*
X69000000Y-135000000D02*
G75*
G03X69000000Y-135000000I-4000000J0D01*
G01*
X139000000Y-135000000D02*
G75*
G03X139000000Y-135000000I-4000000J0D01*
G01*
X69000000Y-65000000D02*
G75*
G03X69000000Y-65000000I-4000000J0D01*
G01*
X139000000Y-65000000D02*
G75*
G03X139000000Y-65000000I-4000000J0D01*
G01*
X104000000Y-135000000D02*
G75*
G03X104000000Y-135000000I-4000000J0D01*
G01*
X104000000Y-65000000D02*
G75*
G03X104000000Y-65000000I-4000000J0D01*
G01*
X99500000Y-123725000D02*
X97500000Y-123725000D01*
X97500000Y-120775000D02*
X99500000Y-120775000D01*
X100400000Y-69750000D02*
X103100000Y-69750000D01*
X100400000Y-71250000D02*
X103100000Y-71250000D01*
X101900000Y-70350000D02*
X101900000Y-70600000D01*
X101900000Y-70600000D02*
X101750000Y-70450000D01*
X101650000Y-70850000D02*
X101650000Y-70150000D01*
X102000000Y-70500000D02*
X102350000Y-70500000D01*
X101650000Y-70500000D02*
X102000000Y-70850000D01*
X102000000Y-70850000D02*
X102000000Y-70150000D01*
X102000000Y-70150000D02*
X101650000Y-70500000D01*
X97650000Y-71375000D02*
X98850000Y-71375000D01*
X98850000Y-69625000D02*
X97650000Y-69625000D01*
X97702381Y-77773810D02*
X96702381Y-77773810D01*
X97702381Y-78821429D02*
X97226190Y-78488095D01*
X97702381Y-78250000D02*
X96702381Y-78250000D01*
X96702381Y-78630953D01*
X96750000Y-78726191D01*
X96797619Y-78773810D01*
X96892857Y-78821429D01*
X97035714Y-78821429D01*
X97130952Y-78773810D01*
X97178571Y-78726191D01*
X97226190Y-78630953D01*
X97226190Y-78250000D01*
X96797619Y-79202381D02*
X96750000Y-79250000D01*
X96702381Y-79345238D01*
X96702381Y-79583334D01*
X96750000Y-79678572D01*
X96797619Y-79726191D01*
X96892857Y-79773810D01*
X96988095Y-79773810D01*
X97130952Y-79726191D01*
X97702381Y-79154762D01*
X97702381Y-79773810D01*
X122476190Y-60213289D02*
X122476190Y-59213289D01*
X121428571Y-60213289D02*
X121761905Y-59737098D01*
X122000000Y-60213289D02*
X122000000Y-59213289D01*
X121619047Y-59213289D01*
X121523809Y-59260908D01*
X121476190Y-59308527D01*
X121428571Y-59403765D01*
X121428571Y-59546622D01*
X121476190Y-59641860D01*
X121523809Y-59689479D01*
X121619047Y-59737098D01*
X122000000Y-59737098D01*
X120476190Y-60213289D02*
X121047619Y-60213289D01*
X120761905Y-60213289D02*
X120761905Y-59213289D01*
X120857143Y-59356146D01*
X120952381Y-59451384D01*
X121047619Y-59499003D01*
X116892857Y-65452381D02*
X117226191Y-64976190D01*
X117464286Y-65452381D02*
X117464286Y-64452381D01*
X117083333Y-64452381D01*
X116988095Y-64500000D01*
X116940476Y-64547619D01*
X116892857Y-64642857D01*
X116892857Y-64785714D01*
X116940476Y-64880952D01*
X116988095Y-64928571D01*
X117083333Y-64976190D01*
X117464286Y-64976190D01*
X115940476Y-65452381D02*
X116511905Y-65452381D01*
X116226191Y-65452381D02*
X116226191Y-64452381D01*
X116321429Y-64595238D01*
X116416667Y-64690476D01*
X116511905Y-64738095D01*
X115083333Y-64452381D02*
X115273810Y-64452381D01*
X115369048Y-64500000D01*
X115416667Y-64547619D01*
X115511905Y-64690476D01*
X115559524Y-64880952D01*
X115559524Y-65261905D01*
X115511905Y-65357143D01*
X115464286Y-65404762D01*
X115369048Y-65452381D01*
X115178571Y-65452381D01*
X115083333Y-65404762D01*
X115035714Y-65357143D01*
X114988095Y-65261905D01*
X114988095Y-65023810D01*
X115035714Y-64928571D01*
X115083333Y-64880952D01*
X115178571Y-64833333D01*
X115369048Y-64833333D01*
X115464286Y-64880952D01*
X115511905Y-64928571D01*
X115559524Y-65023810D01*
X74311905Y-104640476D02*
X74959524Y-104640476D01*
X75035714Y-104678571D01*
X75073810Y-104716667D01*
X75111905Y-104792857D01*
X75111905Y-104945238D01*
X75073810Y-105021429D01*
X75035714Y-105059524D01*
X74959524Y-105097619D01*
X74311905Y-105097619D01*
X74311905Y-105402381D02*
X74311905Y-105897619D01*
X74616667Y-105630952D01*
X74616667Y-105745238D01*
X74654762Y-105821428D01*
X74692857Y-105859524D01*
X74769048Y-105897619D01*
X74959524Y-105897619D01*
X75035714Y-105859524D01*
X75073810Y-105821428D01*
X75111905Y-105745238D01*
X75111905Y-105516666D01*
X75073810Y-105440476D01*
X75035714Y-105402381D01*
X134952381Y-101238095D02*
X135761905Y-101238095D01*
X135857143Y-101285714D01*
X135904762Y-101333333D01*
X135952381Y-101428571D01*
X135952381Y-101619048D01*
X135904762Y-101714286D01*
X135857143Y-101761905D01*
X135761905Y-101809524D01*
X134952381Y-101809524D01*
X135380952Y-102428571D02*
X135333333Y-102333333D01*
X135285714Y-102285714D01*
X135190476Y-102238095D01*
X135142857Y-102238095D01*
X135047619Y-102285714D01*
X135000000Y-102333333D01*
X134952381Y-102428571D01*
X134952381Y-102619048D01*
X135000000Y-102714286D01*
X135047619Y-102761905D01*
X135142857Y-102809524D01*
X135190476Y-102809524D01*
X135285714Y-102761905D01*
X135333333Y-102714286D01*
X135380952Y-102619048D01*
X135380952Y-102428571D01*
X135428571Y-102333333D01*
X135476190Y-102285714D01*
X135571429Y-102238095D01*
X135761905Y-102238095D01*
X135857143Y-102285714D01*
X135904762Y-102333333D01*
X135952381Y-102428571D01*
X135952381Y-102619048D01*
X135904762Y-102714286D01*
X135857143Y-102761905D01*
X135761905Y-102809524D01*
X135571429Y-102809524D01*
X135476190Y-102761905D01*
X135428571Y-102714286D01*
X135380952Y-102619048D01*
X76702381Y-118083334D02*
X76226190Y-117750000D01*
X76702381Y-117511905D02*
X75702381Y-117511905D01*
X75702381Y-117892858D01*
X75750000Y-117988096D01*
X75797619Y-118035715D01*
X75892857Y-118083334D01*
X76035714Y-118083334D01*
X76130952Y-118035715D01*
X76178571Y-117988096D01*
X76226190Y-117892858D01*
X76226190Y-117511905D01*
X75702381Y-118416667D02*
X75702381Y-119035715D01*
X76083333Y-118702381D01*
X76083333Y-118845239D01*
X76130952Y-118940477D01*
X76178571Y-118988096D01*
X76273810Y-119035715D01*
X76511905Y-119035715D01*
X76607143Y-118988096D01*
X76654762Y-118940477D01*
X76702381Y-118845239D01*
X76702381Y-118559524D01*
X76654762Y-118464286D01*
X76607143Y-118416667D01*
X86732143Y-132017857D02*
X86767857Y-132053571D01*
X86875000Y-132089286D01*
X86946429Y-132089286D01*
X87053572Y-132053571D01*
X87125000Y-131982143D01*
X87160715Y-131910714D01*
X87196429Y-131767857D01*
X87196429Y-131660714D01*
X87160715Y-131517857D01*
X87125000Y-131446429D01*
X87053572Y-131375000D01*
X86946429Y-131339286D01*
X86875000Y-131339286D01*
X86767857Y-131375000D01*
X86732143Y-131410714D01*
X86017857Y-132089286D02*
X86446429Y-132089286D01*
X86232143Y-132089286D02*
X86232143Y-131339286D01*
X86303572Y-131446429D01*
X86375000Y-131517857D01*
X86446429Y-131553571D01*
X85375000Y-131589286D02*
X85375000Y-132089286D01*
X85553571Y-131303571D02*
X85732143Y-131839286D01*
X85267857Y-131839286D01*
X137642857Y-122357143D02*
X137690476Y-122404762D01*
X137833333Y-122452381D01*
X137928571Y-122452381D01*
X138071429Y-122404762D01*
X138166667Y-122309524D01*
X138214286Y-122214286D01*
X138261905Y-122023810D01*
X138261905Y-121880952D01*
X138214286Y-121690476D01*
X138166667Y-121595238D01*
X138071429Y-121500000D01*
X137928571Y-121452381D01*
X137833333Y-121452381D01*
X137690476Y-121500000D01*
X137642857Y-121547619D01*
X137309524Y-121452381D02*
X136690476Y-121452381D01*
X137023810Y-121833333D01*
X136880952Y-121833333D01*
X136785714Y-121880952D01*
X136738095Y-121928571D01*
X136690476Y-122023810D01*
X136690476Y-122261905D01*
X136738095Y-122357143D01*
X136785714Y-122404762D01*
X136880952Y-122452381D01*
X137166667Y-122452381D01*
X137261905Y-122404762D01*
X137309524Y-122357143D01*
X135785714Y-121452381D02*
X136261905Y-121452381D01*
X136309524Y-121928571D01*
X136261905Y-121880952D01*
X136166667Y-121833333D01*
X135928571Y-121833333D01*
X135833333Y-121880952D01*
X135785714Y-121928571D01*
X135738095Y-122023810D01*
X135738095Y-122261905D01*
X135785714Y-122357143D01*
X135833333Y-122404762D01*
X135928571Y-122452381D01*
X136166667Y-122452381D01*
X136261905Y-122404762D01*
X136309524Y-122357143D01*
X106202381Y-67107143D02*
X105726190Y-66773809D01*
X106202381Y-66535714D02*
X105202381Y-66535714D01*
X105202381Y-66916667D01*
X105250000Y-67011905D01*
X105297619Y-67059524D01*
X105392857Y-67107143D01*
X105535714Y-67107143D01*
X105630952Y-67059524D01*
X105678571Y-67011905D01*
X105726190Y-66916667D01*
X105726190Y-66535714D01*
X106202381Y-68059524D02*
X106202381Y-67488095D01*
X106202381Y-67773809D02*
X105202381Y-67773809D01*
X105345238Y-67678571D01*
X105440476Y-67583333D01*
X105488095Y-67488095D01*
X105202381Y-68392857D02*
X105202381Y-69011905D01*
X105583333Y-68678571D01*
X105583333Y-68821429D01*
X105630952Y-68916667D01*
X105678571Y-68964286D01*
X105773810Y-69011905D01*
X106011905Y-69011905D01*
X106107143Y-68964286D01*
X106154762Y-68916667D01*
X106202381Y-68821429D01*
X106202381Y-68535714D01*
X106154762Y-68440476D01*
X106107143Y-68392857D01*
X91611905Y-137485714D02*
X91230952Y-137219047D01*
X91611905Y-137028571D02*
X90811905Y-137028571D01*
X90811905Y-137333333D01*
X90850000Y-137409524D01*
X90888095Y-137447619D01*
X90964286Y-137485714D01*
X91078571Y-137485714D01*
X91154762Y-137447619D01*
X91192857Y-137409524D01*
X91230952Y-137333333D01*
X91230952Y-137028571D01*
X90888095Y-137790476D02*
X90850000Y-137828571D01*
X90811905Y-137904762D01*
X90811905Y-138095238D01*
X90850000Y-138171428D01*
X90888095Y-138209524D01*
X90964286Y-138247619D01*
X91040476Y-138247619D01*
X91154762Y-138209524D01*
X91611905Y-137752381D01*
X91611905Y-138247619D01*
X91611905Y-139009524D02*
X91611905Y-138552381D01*
X91611905Y-138780952D02*
X90811905Y-138780952D01*
X90926190Y-138704762D01*
X91002381Y-138628571D01*
X91040476Y-138552381D01*
X114014286Y-75361905D02*
X114280953Y-74980952D01*
X114471429Y-75361905D02*
X114471429Y-74561905D01*
X114166667Y-74561905D01*
X114090476Y-74600000D01*
X114052381Y-74638095D01*
X114014286Y-74714286D01*
X114014286Y-74828571D01*
X114052381Y-74904762D01*
X114090476Y-74942857D01*
X114166667Y-74980952D01*
X114471429Y-74980952D01*
X113252381Y-75361905D02*
X113709524Y-75361905D01*
X113480953Y-75361905D02*
X113480953Y-74561905D01*
X113557143Y-74676190D01*
X113633334Y-74752381D01*
X113709524Y-74790476D01*
X112871429Y-75361905D02*
X112719048Y-75361905D01*
X112642857Y-75323810D01*
X112604762Y-75285714D01*
X112528571Y-75171429D01*
X112490476Y-75019048D01*
X112490476Y-74714286D01*
X112528571Y-74638095D01*
X112566667Y-74600000D01*
X112642857Y-74561905D01*
X112795238Y-74561905D01*
X112871429Y-74600000D01*
X112909524Y-74638095D01*
X112947619Y-74714286D01*
X112947619Y-74904762D01*
X112909524Y-74980952D01*
X112871429Y-75019048D01*
X112795238Y-75057143D01*
X112642857Y-75057143D01*
X112566667Y-75019048D01*
X112528571Y-74980952D01*
X112490476Y-74904762D01*
X70107143Y-87857143D02*
X70154762Y-87809524D01*
X70202381Y-87666667D01*
X70202381Y-87571429D01*
X70154762Y-87428571D01*
X70059524Y-87333333D01*
X69964286Y-87285714D01*
X69773810Y-87238095D01*
X69630952Y-87238095D01*
X69440476Y-87285714D01*
X69345238Y-87333333D01*
X69250000Y-87428571D01*
X69202381Y-87571429D01*
X69202381Y-87666667D01*
X69250000Y-87809524D01*
X69297619Y-87857143D01*
X69297619Y-88238095D02*
X69250000Y-88285714D01*
X69202381Y-88380952D01*
X69202381Y-88619048D01*
X69250000Y-88714286D01*
X69297619Y-88761905D01*
X69392857Y-88809524D01*
X69488095Y-88809524D01*
X69630952Y-88761905D01*
X70202381Y-88190476D01*
X70202381Y-88809524D01*
X69297619Y-89190476D02*
X69250000Y-89238095D01*
X69202381Y-89333333D01*
X69202381Y-89571429D01*
X69250000Y-89666667D01*
X69297619Y-89714286D01*
X69392857Y-89761905D01*
X69488095Y-89761905D01*
X69630952Y-89714286D01*
X70202381Y-89142857D01*
X70202381Y-89761905D01*
X70107143Y-91857143D02*
X70154762Y-91809524D01*
X70202381Y-91666667D01*
X70202381Y-91571429D01*
X70154762Y-91428571D01*
X70059524Y-91333333D01*
X69964286Y-91285714D01*
X69773810Y-91238095D01*
X69630952Y-91238095D01*
X69440476Y-91285714D01*
X69345238Y-91333333D01*
X69250000Y-91428571D01*
X69202381Y-91571429D01*
X69202381Y-91666667D01*
X69250000Y-91809524D01*
X69297619Y-91857143D01*
X69297619Y-92238095D02*
X69250000Y-92285714D01*
X69202381Y-92380952D01*
X69202381Y-92619048D01*
X69250000Y-92714286D01*
X69297619Y-92761905D01*
X69392857Y-92809524D01*
X69488095Y-92809524D01*
X69630952Y-92761905D01*
X70202381Y-92190476D01*
X70202381Y-92809524D01*
X69202381Y-93142857D02*
X69202381Y-93761905D01*
X69583333Y-93428571D01*
X69583333Y-93571429D01*
X69630952Y-93666667D01*
X69678571Y-93714286D01*
X69773810Y-93761905D01*
X70011905Y-93761905D01*
X70107143Y-93714286D01*
X70154762Y-93666667D01*
X70202381Y-93571429D01*
X70202381Y-93285714D01*
X70154762Y-93190476D01*
X70107143Y-93142857D01*
X97642857Y-74952381D02*
X97976191Y-74476190D01*
X98214286Y-74952381D02*
X98214286Y-73952381D01*
X97833333Y-73952381D01*
X97738095Y-74000000D01*
X97690476Y-74047619D01*
X97642857Y-74142857D01*
X97642857Y-74285714D01*
X97690476Y-74380952D01*
X97738095Y-74428571D01*
X97833333Y-74476190D01*
X98214286Y-74476190D01*
X96690476Y-74952381D02*
X97261905Y-74952381D01*
X96976191Y-74952381D02*
X96976191Y-73952381D01*
X97071429Y-74095238D01*
X97166667Y-74190476D01*
X97261905Y-74238095D01*
X96119048Y-74380952D02*
X96214286Y-74333333D01*
X96261905Y-74285714D01*
X96309524Y-74190476D01*
X96309524Y-74142857D01*
X96261905Y-74047619D01*
X96214286Y-74000000D01*
X96119048Y-73952381D01*
X95928571Y-73952381D01*
X95833333Y-74000000D01*
X95785714Y-74047619D01*
X95738095Y-74142857D01*
X95738095Y-74190476D01*
X95785714Y-74285714D01*
X95833333Y-74333333D01*
X95928571Y-74380952D01*
X96119048Y-74380952D01*
X96214286Y-74428571D01*
X96261905Y-74476190D01*
X96309524Y-74571429D01*
X96309524Y-74761905D01*
X96261905Y-74857143D01*
X96214286Y-74904762D01*
X96119048Y-74952381D01*
X95928571Y-74952381D01*
X95833333Y-74904762D01*
X95785714Y-74857143D01*
X95738095Y-74761905D01*
X95738095Y-74571429D01*
X95785714Y-74476190D01*
X95833333Y-74428571D01*
X95928571Y-74380952D01*
D14*
X122071428Y-70476190D02*
X122238095Y-70238095D01*
X122357142Y-70476190D02*
X122357142Y-69976190D01*
X122166666Y-69976190D01*
X122119047Y-70000000D01*
X122095238Y-70023810D01*
X122071428Y-70071429D01*
X122071428Y-70142857D01*
X122095238Y-70190476D01*
X122119047Y-70214286D01*
X122166666Y-70238095D01*
X122357142Y-70238095D01*
X121880952Y-70023810D02*
X121857142Y-70000000D01*
X121809523Y-69976190D01*
X121690476Y-69976190D01*
X121642857Y-70000000D01*
X121619047Y-70023810D01*
X121595238Y-70071429D01*
X121595238Y-70119048D01*
X121619047Y-70190476D01*
X121904761Y-70476190D01*
X121595238Y-70476190D01*
X121285714Y-69976190D02*
X121238095Y-69976190D01*
X121190476Y-70000000D01*
X121166667Y-70023810D01*
X121142857Y-70071429D01*
X121119048Y-70166667D01*
X121119048Y-70285714D01*
X121142857Y-70380952D01*
X121166667Y-70428571D01*
X121190476Y-70452381D01*
X121238095Y-70476190D01*
X121285714Y-70476190D01*
X121333333Y-70452381D01*
X121357143Y-70428571D01*
X121380952Y-70380952D01*
X121404762Y-70285714D01*
X121404762Y-70166667D01*
X121380952Y-70071429D01*
X121357143Y-70023810D01*
X121333333Y-70000000D01*
X121285714Y-69976190D01*
D11*
X80014286Y-59785714D02*
X80052381Y-59823810D01*
X80166667Y-59861905D01*
X80242857Y-59861905D01*
X80357143Y-59823810D01*
X80433334Y-59747619D01*
X80471429Y-59671429D01*
X80509524Y-59519048D01*
X80509524Y-59404762D01*
X80471429Y-59252381D01*
X80433334Y-59176190D01*
X80357143Y-59100000D01*
X80242857Y-59061905D01*
X80166667Y-59061905D01*
X80052381Y-59100000D01*
X80014286Y-59138095D01*
X79709524Y-59138095D02*
X79671429Y-59100000D01*
X79595238Y-59061905D01*
X79404762Y-59061905D01*
X79328572Y-59100000D01*
X79290476Y-59138095D01*
X79252381Y-59214286D01*
X79252381Y-59290476D01*
X79290476Y-59404762D01*
X79747619Y-59861905D01*
X79252381Y-59861905D01*
X78566667Y-59328571D02*
X78566667Y-59861905D01*
X78757143Y-59023810D02*
X78947619Y-59595238D01*
X78452381Y-59595238D01*
X87014286Y-59785714D02*
X87052381Y-59823810D01*
X87166667Y-59861905D01*
X87242857Y-59861905D01*
X87357143Y-59823810D01*
X87433334Y-59747619D01*
X87471429Y-59671429D01*
X87509524Y-59519048D01*
X87509524Y-59404762D01*
X87471429Y-59252381D01*
X87433334Y-59176190D01*
X87357143Y-59100000D01*
X87242857Y-59061905D01*
X87166667Y-59061905D01*
X87052381Y-59100000D01*
X87014286Y-59138095D01*
X86709524Y-59138095D02*
X86671429Y-59100000D01*
X86595238Y-59061905D01*
X86404762Y-59061905D01*
X86328572Y-59100000D01*
X86290476Y-59138095D01*
X86252381Y-59214286D01*
X86252381Y-59290476D01*
X86290476Y-59404762D01*
X86747619Y-59861905D01*
X86252381Y-59861905D01*
X85528571Y-59061905D02*
X85909524Y-59061905D01*
X85947619Y-59442857D01*
X85909524Y-59404762D01*
X85833333Y-59366667D01*
X85642857Y-59366667D01*
X85566667Y-59404762D01*
X85528571Y-59442857D01*
X85490476Y-59519048D01*
X85490476Y-59709524D01*
X85528571Y-59785714D01*
X85566667Y-59823810D01*
X85642857Y-59861905D01*
X85833333Y-59861905D01*
X85909524Y-59823810D01*
X85947619Y-59785714D01*
X80014286Y-68535714D02*
X80052381Y-68573810D01*
X80166667Y-68611905D01*
X80242857Y-68611905D01*
X80357143Y-68573810D01*
X80433334Y-68497619D01*
X80471429Y-68421429D01*
X80509524Y-68269048D01*
X80509524Y-68154762D01*
X80471429Y-68002381D01*
X80433334Y-67926190D01*
X80357143Y-67850000D01*
X80242857Y-67811905D01*
X80166667Y-67811905D01*
X80052381Y-67850000D01*
X80014286Y-67888095D01*
X79709524Y-67888095D02*
X79671429Y-67850000D01*
X79595238Y-67811905D01*
X79404762Y-67811905D01*
X79328572Y-67850000D01*
X79290476Y-67888095D01*
X79252381Y-67964286D01*
X79252381Y-68040476D01*
X79290476Y-68154762D01*
X79747619Y-68611905D01*
X79252381Y-68611905D01*
X78566667Y-67811905D02*
X78719048Y-67811905D01*
X78795238Y-67850000D01*
X78833333Y-67888095D01*
X78909524Y-68002381D01*
X78947619Y-68154762D01*
X78947619Y-68459524D01*
X78909524Y-68535714D01*
X78871429Y-68573810D01*
X78795238Y-68611905D01*
X78642857Y-68611905D01*
X78566667Y-68573810D01*
X78528571Y-68535714D01*
X78490476Y-68459524D01*
X78490476Y-68269048D01*
X78528571Y-68192857D01*
X78566667Y-68154762D01*
X78642857Y-68116667D01*
X78795238Y-68116667D01*
X78871429Y-68154762D01*
X78909524Y-68192857D01*
X78947619Y-68269048D01*
X69607143Y-125083334D02*
X69654762Y-125035715D01*
X69702381Y-124892858D01*
X69702381Y-124797620D01*
X69654762Y-124654762D01*
X69559524Y-124559524D01*
X69464286Y-124511905D01*
X69273810Y-124464286D01*
X69130952Y-124464286D01*
X68940476Y-124511905D01*
X68845238Y-124559524D01*
X68750000Y-124654762D01*
X68702381Y-124797620D01*
X68702381Y-124892858D01*
X68750000Y-125035715D01*
X68797619Y-125083334D01*
X68797619Y-125464286D02*
X68750000Y-125511905D01*
X68702381Y-125607143D01*
X68702381Y-125845239D01*
X68750000Y-125940477D01*
X68797619Y-125988096D01*
X68892857Y-126035715D01*
X68988095Y-126035715D01*
X69130952Y-125988096D01*
X69702381Y-125416667D01*
X69702381Y-126035715D01*
X113666666Y-61357143D02*
X113714285Y-61404762D01*
X113857142Y-61452381D01*
X113952380Y-61452381D01*
X114095238Y-61404762D01*
X114190476Y-61309524D01*
X114238095Y-61214286D01*
X114285714Y-61023810D01*
X114285714Y-60880952D01*
X114238095Y-60690476D01*
X114190476Y-60595238D01*
X114095238Y-60500000D01*
X113952380Y-60452381D01*
X113857142Y-60452381D01*
X113714285Y-60500000D01*
X113666666Y-60547619D01*
X113333333Y-60452381D02*
X112714285Y-60452381D01*
X113047619Y-60833333D01*
X112904761Y-60833333D01*
X112809523Y-60880952D01*
X112761904Y-60928571D01*
X112714285Y-61023810D01*
X112714285Y-61261905D01*
X112761904Y-61357143D01*
X112809523Y-61404762D01*
X112904761Y-61452381D01*
X113190476Y-61452381D01*
X113285714Y-61404762D01*
X113333333Y-61357143D01*
X109416666Y-61357143D02*
X109464285Y-61404762D01*
X109607142Y-61452381D01*
X109702380Y-61452381D01*
X109845238Y-61404762D01*
X109940476Y-61309524D01*
X109988095Y-61214286D01*
X110035714Y-61023810D01*
X110035714Y-60880952D01*
X109988095Y-60690476D01*
X109940476Y-60595238D01*
X109845238Y-60500000D01*
X109702380Y-60452381D01*
X109607142Y-60452381D01*
X109464285Y-60500000D01*
X109416666Y-60547619D01*
X108559523Y-60785714D02*
X108559523Y-61452381D01*
X108797619Y-60404762D02*
X109035714Y-61119048D01*
X108416666Y-61119048D01*
X69107143Y-95583334D02*
X69154762Y-95535715D01*
X69202381Y-95392858D01*
X69202381Y-95297620D01*
X69154762Y-95154762D01*
X69059524Y-95059524D01*
X68964286Y-95011905D01*
X68773810Y-94964286D01*
X68630952Y-94964286D01*
X68440476Y-95011905D01*
X68345238Y-95059524D01*
X68250000Y-95154762D01*
X68202381Y-95297620D01*
X68202381Y-95392858D01*
X68250000Y-95535715D01*
X68297619Y-95583334D01*
X68202381Y-96488096D02*
X68202381Y-96011905D01*
X68678571Y-95964286D01*
X68630952Y-96011905D01*
X68583333Y-96107143D01*
X68583333Y-96345239D01*
X68630952Y-96440477D01*
X68678571Y-96488096D01*
X68773810Y-96535715D01*
X69011905Y-96535715D01*
X69107143Y-96488096D01*
X69154762Y-96440477D01*
X69202381Y-96345239D01*
X69202381Y-96107143D01*
X69154762Y-96011905D01*
X69107143Y-95964286D01*
D14*
X119833333Y-70428571D02*
X119857143Y-70452381D01*
X119928571Y-70476190D01*
X119976190Y-70476190D01*
X120047619Y-70452381D01*
X120095238Y-70404762D01*
X120119047Y-70357143D01*
X120142857Y-70261905D01*
X120142857Y-70190476D01*
X120119047Y-70095238D01*
X120095238Y-70047619D01*
X120047619Y-70000000D01*
X119976190Y-69976190D01*
X119928571Y-69976190D01*
X119857143Y-70000000D01*
X119833333Y-70023810D01*
X119404762Y-69976190D02*
X119500000Y-69976190D01*
X119547619Y-70000000D01*
X119571428Y-70023810D01*
X119619047Y-70095238D01*
X119642857Y-70190476D01*
X119642857Y-70380952D01*
X119619047Y-70428571D01*
X119595238Y-70452381D01*
X119547619Y-70476190D01*
X119452381Y-70476190D01*
X119404762Y-70452381D01*
X119380952Y-70428571D01*
X119357143Y-70380952D01*
X119357143Y-70261905D01*
X119380952Y-70214286D01*
X119404762Y-70190476D01*
X119452381Y-70166667D01*
X119547619Y-70166667D01*
X119595238Y-70190476D01*
X119619047Y-70214286D01*
X119642857Y-70261905D01*
D11*
X113883333Y-77285714D02*
X113921428Y-77323810D01*
X114035714Y-77361905D01*
X114111904Y-77361905D01*
X114226190Y-77323810D01*
X114302381Y-77247619D01*
X114340476Y-77171429D01*
X114378571Y-77019048D01*
X114378571Y-76904762D01*
X114340476Y-76752381D01*
X114302381Y-76676190D01*
X114226190Y-76600000D01*
X114111904Y-76561905D01*
X114035714Y-76561905D01*
X113921428Y-76600000D01*
X113883333Y-76638095D01*
X113616666Y-76561905D02*
X113083333Y-76561905D01*
X113426190Y-77361905D01*
X86416666Y-140857143D02*
X86464285Y-140904762D01*
X86607142Y-140952381D01*
X86702380Y-140952381D01*
X86845238Y-140904762D01*
X86940476Y-140809524D01*
X86988095Y-140714286D01*
X87035714Y-140523810D01*
X87035714Y-140380952D01*
X86988095Y-140190476D01*
X86940476Y-140095238D01*
X86845238Y-140000000D01*
X86702380Y-139952381D01*
X86607142Y-139952381D01*
X86464285Y-140000000D01*
X86416666Y-140047619D01*
X85845238Y-140380952D02*
X85940476Y-140333333D01*
X85988095Y-140285714D01*
X86035714Y-140190476D01*
X86035714Y-140142857D01*
X85988095Y-140047619D01*
X85940476Y-140000000D01*
X85845238Y-139952381D01*
X85654761Y-139952381D01*
X85559523Y-140000000D01*
X85511904Y-140047619D01*
X85464285Y-140142857D01*
X85464285Y-140190476D01*
X85511904Y-140285714D01*
X85559523Y-140333333D01*
X85654761Y-140380952D01*
X85845238Y-140380952D01*
X85940476Y-140428571D01*
X85988095Y-140476190D01*
X86035714Y-140571429D01*
X86035714Y-140761905D01*
X85988095Y-140857143D01*
X85940476Y-140904762D01*
X85845238Y-140952381D01*
X85654761Y-140952381D01*
X85559523Y-140904762D01*
X85511904Y-140857143D01*
X85464285Y-140761905D01*
X85464285Y-140571429D01*
X85511904Y-140476190D01*
X85559523Y-140428571D01*
X85654761Y-140380952D01*
X79416666Y-140857143D02*
X79464285Y-140904762D01*
X79607142Y-140952381D01*
X79702380Y-140952381D01*
X79845238Y-140904762D01*
X79940476Y-140809524D01*
X79988095Y-140714286D01*
X80035714Y-140523810D01*
X80035714Y-140380952D01*
X79988095Y-140190476D01*
X79940476Y-140095238D01*
X79845238Y-140000000D01*
X79702380Y-139952381D01*
X79607142Y-139952381D01*
X79464285Y-140000000D01*
X79416666Y-140047619D01*
X78940476Y-140952381D02*
X78750000Y-140952381D01*
X78654761Y-140904762D01*
X78607142Y-140857143D01*
X78511904Y-140714286D01*
X78464285Y-140523810D01*
X78464285Y-140142857D01*
X78511904Y-140047619D01*
X78559523Y-140000000D01*
X78654761Y-139952381D01*
X78845238Y-139952381D01*
X78940476Y-140000000D01*
X78988095Y-140047619D01*
X79035714Y-140142857D01*
X79035714Y-140380952D01*
X78988095Y-140476190D01*
X78940476Y-140523810D01*
X78845238Y-140571429D01*
X78654761Y-140571429D01*
X78559523Y-140523810D01*
X78511904Y-140476190D01*
X78464285Y-140380952D01*
D14*
X77071428Y-104178571D02*
X77095238Y-104202381D01*
X77166666Y-104226190D01*
X77214285Y-104226190D01*
X77285714Y-104202381D01*
X77333333Y-104154762D01*
X77357142Y-104107143D01*
X77380952Y-104011905D01*
X77380952Y-103940476D01*
X77357142Y-103845238D01*
X77333333Y-103797619D01*
X77285714Y-103750000D01*
X77214285Y-103726190D01*
X77166666Y-103726190D01*
X77095238Y-103750000D01*
X77071428Y-103773810D01*
X76595238Y-104226190D02*
X76880952Y-104226190D01*
X76738095Y-104226190D02*
X76738095Y-103726190D01*
X76785714Y-103797619D01*
X76833333Y-103845238D01*
X76880952Y-103869048D01*
X76285714Y-103726190D02*
X76238095Y-103726190D01*
X76190476Y-103750000D01*
X76166667Y-103773810D01*
X76142857Y-103821429D01*
X76119048Y-103916667D01*
X76119048Y-104035714D01*
X76142857Y-104130952D01*
X76166667Y-104178571D01*
X76190476Y-104202381D01*
X76238095Y-104226190D01*
X76285714Y-104226190D01*
X76333333Y-104202381D01*
X76357143Y-104178571D01*
X76380952Y-104130952D01*
X76404762Y-104035714D01*
X76404762Y-103916667D01*
X76380952Y-103821429D01*
X76357143Y-103773810D01*
X76333333Y-103750000D01*
X76285714Y-103726190D01*
X77071428Y-107928571D02*
X77095238Y-107952381D01*
X77166666Y-107976190D01*
X77214285Y-107976190D01*
X77285714Y-107952381D01*
X77333333Y-107904762D01*
X77357142Y-107857143D01*
X77380952Y-107761905D01*
X77380952Y-107690476D01*
X77357142Y-107595238D01*
X77333333Y-107547619D01*
X77285714Y-107500000D01*
X77214285Y-107476190D01*
X77166666Y-107476190D01*
X77095238Y-107500000D01*
X77071428Y-107523810D01*
X76595238Y-107976190D02*
X76880952Y-107976190D01*
X76738095Y-107976190D02*
X76738095Y-107476190D01*
X76785714Y-107547619D01*
X76833333Y-107595238D01*
X76880952Y-107619048D01*
X76119048Y-107976190D02*
X76404762Y-107976190D01*
X76261905Y-107976190D02*
X76261905Y-107476190D01*
X76309524Y-107547619D01*
X76357143Y-107595238D01*
X76404762Y-107619048D01*
X77071428Y-111678571D02*
X77095238Y-111702381D01*
X77166666Y-111726190D01*
X77214285Y-111726190D01*
X77285714Y-111702381D01*
X77333333Y-111654762D01*
X77357142Y-111607143D01*
X77380952Y-111511905D01*
X77380952Y-111440476D01*
X77357142Y-111345238D01*
X77333333Y-111297619D01*
X77285714Y-111250000D01*
X77214285Y-111226190D01*
X77166666Y-111226190D01*
X77095238Y-111250000D01*
X77071428Y-111273810D01*
X76595238Y-111726190D02*
X76880952Y-111726190D01*
X76738095Y-111726190D02*
X76738095Y-111226190D01*
X76785714Y-111297619D01*
X76833333Y-111345238D01*
X76880952Y-111369048D01*
X76404762Y-111273810D02*
X76380952Y-111250000D01*
X76333333Y-111226190D01*
X76214286Y-111226190D01*
X76166667Y-111250000D01*
X76142857Y-111273810D01*
X76119048Y-111321429D01*
X76119048Y-111369048D01*
X76142857Y-111440476D01*
X76428571Y-111726190D01*
X76119048Y-111726190D01*
X74135715Y-113214286D02*
X74164286Y-113242857D01*
X74250000Y-113271429D01*
X74307143Y-113271429D01*
X74392858Y-113242857D01*
X74450000Y-113185714D01*
X74478572Y-113128571D01*
X74507143Y-113014286D01*
X74507143Y-112928571D01*
X74478572Y-112814286D01*
X74450000Y-112757143D01*
X74392858Y-112700000D01*
X74307143Y-112671429D01*
X74250000Y-112671429D01*
X74164286Y-112700000D01*
X74135715Y-112728571D01*
X73564286Y-113271429D02*
X73907143Y-113271429D01*
X73735715Y-113271429D02*
X73735715Y-112671429D01*
X73792858Y-112757143D01*
X73850000Y-112814286D01*
X73907143Y-112842857D01*
X73364286Y-112671429D02*
X72992857Y-112671429D01*
X73192857Y-112900000D01*
X73107143Y-112900000D01*
X73050000Y-112928571D01*
X73021429Y-112957143D01*
X72992857Y-113014286D01*
X72992857Y-113157143D01*
X73021429Y-113214286D01*
X73050000Y-113242857D01*
X73107143Y-113271429D01*
X73278571Y-113271429D01*
X73335714Y-113242857D01*
X73364286Y-113214286D01*
D11*
X72135715Y-113214286D02*
X72164286Y-113242857D01*
X72250000Y-113271429D01*
X72307143Y-113271429D01*
X72392858Y-113242857D01*
X72450000Y-113185714D01*
X72478572Y-113128571D01*
X72507143Y-113014286D01*
X72507143Y-112928571D01*
X72478572Y-112814286D01*
X72450000Y-112757143D01*
X72392858Y-112700000D01*
X72307143Y-112671429D01*
X72250000Y-112671429D01*
X72164286Y-112700000D01*
X72135715Y-112728571D01*
X71564286Y-113271429D02*
X71907143Y-113271429D01*
X71735715Y-113271429D02*
X71735715Y-112671429D01*
X71792858Y-112757143D01*
X71850000Y-112814286D01*
X71907143Y-112842857D01*
X71050000Y-112671429D02*
X71164286Y-112671429D01*
X71221429Y-112700000D01*
X71250000Y-112728571D01*
X71307143Y-112814286D01*
X71335714Y-112928571D01*
X71335714Y-113157143D01*
X71307143Y-113214286D01*
X71278571Y-113242857D01*
X71221429Y-113271429D01*
X71107143Y-113271429D01*
X71050000Y-113242857D01*
X71021429Y-113214286D01*
X70992857Y-113157143D01*
X70992857Y-113014286D01*
X71021429Y-112957143D01*
X71050000Y-112928571D01*
X71107143Y-112900000D01*
X71221429Y-112900000D01*
X71278571Y-112928571D01*
X71307143Y-112957143D01*
X71335714Y-113014286D01*
X70135715Y-113214286D02*
X70164286Y-113242857D01*
X70250000Y-113271429D01*
X70307143Y-113271429D01*
X70392858Y-113242857D01*
X70450000Y-113185714D01*
X70478572Y-113128571D01*
X70507143Y-113014286D01*
X70507143Y-112928571D01*
X70478572Y-112814286D01*
X70450000Y-112757143D01*
X70392858Y-112700000D01*
X70307143Y-112671429D01*
X70250000Y-112671429D01*
X70164286Y-112700000D01*
X70135715Y-112728571D01*
X69564286Y-113271429D02*
X69907143Y-113271429D01*
X69735715Y-113271429D02*
X69735715Y-112671429D01*
X69792858Y-112757143D01*
X69850000Y-112814286D01*
X69907143Y-112842857D01*
X69364286Y-112671429D02*
X68964286Y-112671429D01*
X69221429Y-113271429D01*
X137892857Y-83357143D02*
X137940476Y-83404762D01*
X138083333Y-83452381D01*
X138178571Y-83452381D01*
X138321429Y-83404762D01*
X138416667Y-83309524D01*
X138464286Y-83214286D01*
X138511905Y-83023810D01*
X138511905Y-82880952D01*
X138464286Y-82690476D01*
X138416667Y-82595238D01*
X138321429Y-82500000D01*
X138178571Y-82452381D01*
X138083333Y-82452381D01*
X137940476Y-82500000D01*
X137892857Y-82547619D01*
X136940476Y-83452381D02*
X137511905Y-83452381D01*
X137226191Y-83452381D02*
X137226191Y-82452381D01*
X137321429Y-82595238D01*
X137416667Y-82690476D01*
X137511905Y-82738095D01*
X136369048Y-82880952D02*
X136464286Y-82833333D01*
X136511905Y-82785714D01*
X136559524Y-82690476D01*
X136559524Y-82642857D01*
X136511905Y-82547619D01*
X136464286Y-82500000D01*
X136369048Y-82452381D01*
X136178571Y-82452381D01*
X136083333Y-82500000D01*
X136035714Y-82547619D01*
X135988095Y-82642857D01*
X135988095Y-82690476D01*
X136035714Y-82785714D01*
X136083333Y-82833333D01*
X136178571Y-82880952D01*
X136369048Y-82880952D01*
X136464286Y-82928571D01*
X136511905Y-82976190D01*
X136559524Y-83071429D01*
X136559524Y-83261905D01*
X136511905Y-83357143D01*
X136464286Y-83404762D01*
X136369048Y-83452381D01*
X136178571Y-83452381D01*
X136083333Y-83404762D01*
X136035714Y-83357143D01*
X135988095Y-83261905D01*
X135988095Y-83071429D01*
X136035714Y-82976190D01*
X136083333Y-82928571D01*
X136178571Y-82880952D01*
X137642857Y-79357143D02*
X137690476Y-79404762D01*
X137833333Y-79452381D01*
X137928571Y-79452381D01*
X138071429Y-79404762D01*
X138166667Y-79309524D01*
X138214286Y-79214286D01*
X138261905Y-79023810D01*
X138261905Y-78880952D01*
X138214286Y-78690476D01*
X138166667Y-78595238D01*
X138071429Y-78500000D01*
X137928571Y-78452381D01*
X137833333Y-78452381D01*
X137690476Y-78500000D01*
X137642857Y-78547619D01*
X136690476Y-79452381D02*
X137261905Y-79452381D01*
X136976191Y-79452381D02*
X136976191Y-78452381D01*
X137071429Y-78595238D01*
X137166667Y-78690476D01*
X137261905Y-78738095D01*
X136214286Y-79452381D02*
X136023810Y-79452381D01*
X135928571Y-79404762D01*
X135880952Y-79357143D01*
X135785714Y-79214286D01*
X135738095Y-79023810D01*
X135738095Y-78642857D01*
X135785714Y-78547619D01*
X135833333Y-78500000D01*
X135928571Y-78452381D01*
X136119048Y-78452381D01*
X136214286Y-78500000D01*
X136261905Y-78547619D01*
X136309524Y-78642857D01*
X136309524Y-78880952D01*
X136261905Y-78976190D01*
X136214286Y-79023810D01*
X136119048Y-79071429D01*
X135928571Y-79071429D01*
X135833333Y-79023810D01*
X135785714Y-78976190D01*
X135738095Y-78880952D01*
X87014286Y-68535714D02*
X87052381Y-68573810D01*
X87166667Y-68611905D01*
X87242857Y-68611905D01*
X87357143Y-68573810D01*
X87433334Y-68497619D01*
X87471429Y-68421429D01*
X87509524Y-68269048D01*
X87509524Y-68154762D01*
X87471429Y-68002381D01*
X87433334Y-67926190D01*
X87357143Y-67850000D01*
X87242857Y-67811905D01*
X87166667Y-67811905D01*
X87052381Y-67850000D01*
X87014286Y-67888095D01*
X86709524Y-67888095D02*
X86671429Y-67850000D01*
X86595238Y-67811905D01*
X86404762Y-67811905D01*
X86328572Y-67850000D01*
X86290476Y-67888095D01*
X86252381Y-67964286D01*
X86252381Y-68040476D01*
X86290476Y-68154762D01*
X86747619Y-68611905D01*
X86252381Y-68611905D01*
X85795238Y-68154762D02*
X85871429Y-68116667D01*
X85909524Y-68078571D01*
X85947619Y-68002381D01*
X85947619Y-67964286D01*
X85909524Y-67888095D01*
X85871429Y-67850000D01*
X85795238Y-67811905D01*
X85642857Y-67811905D01*
X85566667Y-67850000D01*
X85528571Y-67888095D01*
X85490476Y-67964286D01*
X85490476Y-68002381D01*
X85528571Y-68078571D01*
X85566667Y-68116667D01*
X85642857Y-68154762D01*
X85795238Y-68154762D01*
X85871429Y-68192857D01*
X85909524Y-68230952D01*
X85947619Y-68307143D01*
X85947619Y-68459524D01*
X85909524Y-68535714D01*
X85871429Y-68573810D01*
X85795238Y-68611905D01*
X85642857Y-68611905D01*
X85566667Y-68573810D01*
X85528571Y-68535714D01*
X85490476Y-68459524D01*
X85490476Y-68307143D01*
X85528571Y-68230952D01*
X85566667Y-68192857D01*
X85642857Y-68154762D01*
X128964286Y-119114285D02*
X128992857Y-119085714D01*
X129021429Y-119000000D01*
X129021429Y-118942857D01*
X128992857Y-118857142D01*
X128935714Y-118800000D01*
X128878571Y-118771428D01*
X128764286Y-118742857D01*
X128678571Y-118742857D01*
X128564286Y-118771428D01*
X128507143Y-118800000D01*
X128450000Y-118857142D01*
X128421429Y-118942857D01*
X128421429Y-119000000D01*
X128450000Y-119085714D01*
X128478571Y-119114285D01*
X128421429Y-119314285D02*
X128421429Y-119685714D01*
X128650000Y-119485714D01*
X128650000Y-119571428D01*
X128678571Y-119628571D01*
X128707143Y-119657142D01*
X128764286Y-119685714D01*
X128907143Y-119685714D01*
X128964286Y-119657142D01*
X128992857Y-119628571D01*
X129021429Y-119571428D01*
X129021429Y-119400000D01*
X128992857Y-119342857D01*
X128964286Y-119314285D01*
X128421429Y-119885714D02*
X128421429Y-120257143D01*
X128650000Y-120057143D01*
X128650000Y-120142857D01*
X128678571Y-120200000D01*
X128707143Y-120228571D01*
X128764286Y-120257143D01*
X128907143Y-120257143D01*
X128964286Y-120228571D01*
X128992857Y-120200000D01*
X129021429Y-120142857D01*
X129021429Y-119971429D01*
X128992857Y-119914286D01*
X128964286Y-119885714D01*
X137642857Y-124857143D02*
X137690476Y-124904762D01*
X137833333Y-124952381D01*
X137928571Y-124952381D01*
X138071429Y-124904762D01*
X138166667Y-124809524D01*
X138214286Y-124714286D01*
X138261905Y-124523810D01*
X138261905Y-124380952D01*
X138214286Y-124190476D01*
X138166667Y-124095238D01*
X138071429Y-124000000D01*
X137928571Y-123952381D01*
X137833333Y-123952381D01*
X137690476Y-124000000D01*
X137642857Y-124047619D01*
X137309524Y-123952381D02*
X136690476Y-123952381D01*
X137023810Y-124333333D01*
X136880952Y-124333333D01*
X136785714Y-124380952D01*
X136738095Y-124428571D01*
X136690476Y-124523810D01*
X136690476Y-124761905D01*
X136738095Y-124857143D01*
X136785714Y-124904762D01*
X136880952Y-124952381D01*
X137166667Y-124952381D01*
X137261905Y-124904762D01*
X137309524Y-124857143D01*
X136214286Y-124952381D02*
X136023810Y-124952381D01*
X135928571Y-124904762D01*
X135880952Y-124857143D01*
X135785714Y-124714286D01*
X135738095Y-124523810D01*
X135738095Y-124142857D01*
X135785714Y-124047619D01*
X135833333Y-124000000D01*
X135928571Y-123952381D01*
X136119048Y-123952381D01*
X136214286Y-124000000D01*
X136261905Y-124047619D01*
X136309524Y-124142857D01*
X136309524Y-124380952D01*
X136261905Y-124476190D01*
X136214286Y-124523810D01*
X136119048Y-124571429D01*
X135928571Y-124571429D01*
X135833333Y-124523810D01*
X135785714Y-124476190D01*
X135738095Y-124380952D01*
X128964286Y-126864285D02*
X128992857Y-126835714D01*
X129021429Y-126750000D01*
X129021429Y-126692857D01*
X128992857Y-126607142D01*
X128935714Y-126550000D01*
X128878571Y-126521428D01*
X128764286Y-126492857D01*
X128678571Y-126492857D01*
X128564286Y-126521428D01*
X128507143Y-126550000D01*
X128450000Y-126607142D01*
X128421429Y-126692857D01*
X128421429Y-126750000D01*
X128450000Y-126835714D01*
X128478571Y-126864285D01*
X128621429Y-127378571D02*
X129021429Y-127378571D01*
X128392857Y-127235714D02*
X128821429Y-127092857D01*
X128821429Y-127464285D01*
X128421429Y-127807143D02*
X128421429Y-127864286D01*
X128450000Y-127921429D01*
X128478571Y-127950000D01*
X128535714Y-127978571D01*
X128650000Y-128007143D01*
X128792857Y-128007143D01*
X128907143Y-127978571D01*
X128964286Y-127950000D01*
X128992857Y-127921429D01*
X129021429Y-127864286D01*
X129021429Y-127807143D01*
X128992857Y-127750000D01*
X128964286Y-127721429D01*
X128907143Y-127692857D01*
X128792857Y-127664286D01*
X128650000Y-127664286D01*
X128535714Y-127692857D01*
X128478571Y-127721429D01*
X128450000Y-127750000D01*
X128421429Y-127807143D01*
X70875000Y-104339286D02*
X71125000Y-103982143D01*
X71303572Y-104339286D02*
X71303572Y-103589286D01*
X71017857Y-103589286D01*
X70946429Y-103625000D01*
X70910714Y-103660714D01*
X70875000Y-103732143D01*
X70875000Y-103839286D01*
X70910714Y-103910714D01*
X70946429Y-103946429D01*
X71017857Y-103982143D01*
X71303572Y-103982143D01*
X70589286Y-103660714D02*
X70553572Y-103625000D01*
X70482143Y-103589286D01*
X70303572Y-103589286D01*
X70232143Y-103625000D01*
X70196429Y-103660714D01*
X70160714Y-103732143D01*
X70160714Y-103803571D01*
X70196429Y-103910714D01*
X70625000Y-104339286D01*
X70160714Y-104339286D01*
X72875000Y-104339286D02*
X73125000Y-103982143D01*
X73303572Y-104339286D02*
X73303572Y-103589286D01*
X73017857Y-103589286D01*
X72946429Y-103625000D01*
X72910714Y-103660714D01*
X72875000Y-103732143D01*
X72875000Y-103839286D01*
X72910714Y-103910714D01*
X72946429Y-103946429D01*
X73017857Y-103982143D01*
X73303572Y-103982143D01*
X72232143Y-103839286D02*
X72232143Y-104339286D01*
X72410714Y-103553571D02*
X72589286Y-104089286D01*
X72125000Y-104089286D01*
X73166666Y-120702381D02*
X73500000Y-120226190D01*
X73738095Y-120702381D02*
X73738095Y-119702381D01*
X73357142Y-119702381D01*
X73261904Y-119750000D01*
X73214285Y-119797619D01*
X73166666Y-119892857D01*
X73166666Y-120035714D01*
X73214285Y-120130952D01*
X73261904Y-120178571D01*
X73357142Y-120226190D01*
X73738095Y-120226190D01*
X72261904Y-119702381D02*
X72738095Y-119702381D01*
X72785714Y-120178571D01*
X72738095Y-120130952D01*
X72642857Y-120083333D01*
X72404761Y-120083333D01*
X72309523Y-120130952D01*
X72261904Y-120178571D01*
X72214285Y-120273810D01*
X72214285Y-120511905D01*
X72261904Y-120607143D01*
X72309523Y-120654762D01*
X72404761Y-120702381D01*
X72642857Y-120702381D01*
X72738095Y-120654762D01*
X72785714Y-120607143D01*
X74875000Y-104339286D02*
X75125000Y-103982143D01*
X75303572Y-104339286D02*
X75303572Y-103589286D01*
X75017857Y-103589286D01*
X74946429Y-103625000D01*
X74910714Y-103660714D01*
X74875000Y-103732143D01*
X74875000Y-103839286D01*
X74910714Y-103910714D01*
X74946429Y-103946429D01*
X75017857Y-103982143D01*
X75303572Y-103982143D01*
X74232143Y-103589286D02*
X74375000Y-103589286D01*
X74446429Y-103625000D01*
X74482143Y-103660714D01*
X74553572Y-103767857D01*
X74589286Y-103910714D01*
X74589286Y-104196429D01*
X74553572Y-104267857D01*
X74517857Y-104303571D01*
X74446429Y-104339286D01*
X74303572Y-104339286D01*
X74232143Y-104303571D01*
X74196429Y-104267857D01*
X74160714Y-104196429D01*
X74160714Y-104017857D01*
X74196429Y-103946429D01*
X74232143Y-103910714D01*
X74303572Y-103875000D01*
X74446429Y-103875000D01*
X74517857Y-103910714D01*
X74553572Y-103946429D01*
X74589286Y-104017857D01*
X71202381Y-95583334D02*
X70726190Y-95250000D01*
X71202381Y-95011905D02*
X70202381Y-95011905D01*
X70202381Y-95392858D01*
X70250000Y-95488096D01*
X70297619Y-95535715D01*
X70392857Y-95583334D01*
X70535714Y-95583334D01*
X70630952Y-95535715D01*
X70678571Y-95488096D01*
X70726190Y-95392858D01*
X70726190Y-95011905D01*
X70202381Y-95916667D02*
X70202381Y-96583334D01*
X71202381Y-96154762D01*
X73202381Y-95583334D02*
X72726190Y-95250000D01*
X73202381Y-95011905D02*
X72202381Y-95011905D01*
X72202381Y-95392858D01*
X72250000Y-95488096D01*
X72297619Y-95535715D01*
X72392857Y-95583334D01*
X72535714Y-95583334D01*
X72630952Y-95535715D01*
X72678571Y-95488096D01*
X72726190Y-95392858D01*
X72726190Y-95011905D01*
X72630952Y-96154762D02*
X72583333Y-96059524D01*
X72535714Y-96011905D01*
X72440476Y-95964286D01*
X72392857Y-95964286D01*
X72297619Y-96011905D01*
X72250000Y-96059524D01*
X72202381Y-96154762D01*
X72202381Y-96345239D01*
X72250000Y-96440477D01*
X72297619Y-96488096D01*
X72392857Y-96535715D01*
X72440476Y-96535715D01*
X72535714Y-96488096D01*
X72583333Y-96440477D01*
X72630952Y-96345239D01*
X72630952Y-96154762D01*
X72678571Y-96059524D01*
X72726190Y-96011905D01*
X72821429Y-95964286D01*
X73011905Y-95964286D01*
X73107143Y-96011905D01*
X73154762Y-96059524D01*
X73202381Y-96154762D01*
X73202381Y-96345239D01*
X73154762Y-96440477D01*
X73107143Y-96488096D01*
X73011905Y-96535715D01*
X72821429Y-96535715D01*
X72726190Y-96488096D01*
X72678571Y-96440477D01*
X72630952Y-96345239D01*
X139916666Y-81452381D02*
X140250000Y-80976190D01*
X140488095Y-81452381D02*
X140488095Y-80452381D01*
X140107142Y-80452381D01*
X140011904Y-80500000D01*
X139964285Y-80547619D01*
X139916666Y-80642857D01*
X139916666Y-80785714D01*
X139964285Y-80880952D01*
X140011904Y-80928571D01*
X140107142Y-80976190D01*
X140488095Y-80976190D01*
X139440476Y-81452381D02*
X139250000Y-81452381D01*
X139154761Y-81404762D01*
X139107142Y-81357143D01*
X139011904Y-81214286D01*
X138964285Y-81023810D01*
X138964285Y-80642857D01*
X139011904Y-80547619D01*
X139059523Y-80500000D01*
X139154761Y-80452381D01*
X139345238Y-80452381D01*
X139440476Y-80500000D01*
X139488095Y-80547619D01*
X139535714Y-80642857D01*
X139535714Y-80880952D01*
X139488095Y-80976190D01*
X139440476Y-81023810D01*
X139345238Y-81071429D01*
X139154761Y-81071429D01*
X139059523Y-81023810D01*
X139011904Y-80976190D01*
X138964285Y-80880952D01*
X75202381Y-94857143D02*
X74726190Y-94523809D01*
X75202381Y-94285714D02*
X74202381Y-94285714D01*
X74202381Y-94666667D01*
X74250000Y-94761905D01*
X74297619Y-94809524D01*
X74392857Y-94857143D01*
X74535714Y-94857143D01*
X74630952Y-94809524D01*
X74678571Y-94761905D01*
X74726190Y-94666667D01*
X74726190Y-94285714D01*
X75202381Y-95809524D02*
X75202381Y-95238095D01*
X75202381Y-95523809D02*
X74202381Y-95523809D01*
X74345238Y-95428571D01*
X74440476Y-95333333D01*
X74488095Y-95238095D01*
X74202381Y-96428571D02*
X74202381Y-96523810D01*
X74250000Y-96619048D01*
X74297619Y-96666667D01*
X74392857Y-96714286D01*
X74583333Y-96761905D01*
X74821429Y-96761905D01*
X75011905Y-96714286D01*
X75107143Y-96666667D01*
X75154762Y-96619048D01*
X75202381Y-96523810D01*
X75202381Y-96428571D01*
X75154762Y-96333333D01*
X75107143Y-96285714D01*
X75011905Y-96238095D01*
X74821429Y-96190476D01*
X74583333Y-96190476D01*
X74392857Y-96238095D01*
X74297619Y-96285714D01*
X74250000Y-96333333D01*
X74202381Y-96428571D01*
X68482143Y-104589286D02*
X68732143Y-104232143D01*
X68910715Y-104589286D02*
X68910715Y-103839286D01*
X68625000Y-103839286D01*
X68553572Y-103875000D01*
X68517857Y-103910714D01*
X68482143Y-103982143D01*
X68482143Y-104089286D01*
X68517857Y-104160714D01*
X68553572Y-104196429D01*
X68625000Y-104232143D01*
X68910715Y-104232143D01*
X67767857Y-104589286D02*
X68196429Y-104589286D01*
X67982143Y-104589286D02*
X67982143Y-103839286D01*
X68053572Y-103946429D01*
X68125000Y-104017857D01*
X68196429Y-104053571D01*
X67053571Y-104589286D02*
X67482143Y-104589286D01*
X67267857Y-104589286D02*
X67267857Y-103839286D01*
X67339286Y-103946429D01*
X67410714Y-104017857D01*
X67482143Y-104053571D01*
D14*
X79726190Y-102928572D02*
X79488095Y-102761905D01*
X79726190Y-102642858D02*
X79226190Y-102642858D01*
X79226190Y-102833334D01*
X79250000Y-102880953D01*
X79273810Y-102904762D01*
X79321429Y-102928572D01*
X79392857Y-102928572D01*
X79440476Y-102904762D01*
X79464286Y-102880953D01*
X79488095Y-102833334D01*
X79488095Y-102642858D01*
X79726190Y-103404762D02*
X79726190Y-103119048D01*
X79726190Y-103261905D02*
X79226190Y-103261905D01*
X79297619Y-103214286D01*
X79345238Y-103166667D01*
X79369048Y-103119048D01*
X79226190Y-103857143D02*
X79226190Y-103619048D01*
X79464286Y-103595238D01*
X79440476Y-103619048D01*
X79416667Y-103666667D01*
X79416667Y-103785714D01*
X79440476Y-103833333D01*
X79464286Y-103857143D01*
X79511905Y-103880952D01*
X79630952Y-103880952D01*
X79678571Y-103857143D01*
X79702381Y-103833333D01*
X79726190Y-103785714D01*
X79726190Y-103666667D01*
X79702381Y-103619048D01*
X79678571Y-103595238D01*
X79726190Y-105428572D02*
X79488095Y-105261905D01*
X79726190Y-105142858D02*
X79226190Y-105142858D01*
X79226190Y-105333334D01*
X79250000Y-105380953D01*
X79273810Y-105404762D01*
X79321429Y-105428572D01*
X79392857Y-105428572D01*
X79440476Y-105404762D01*
X79464286Y-105380953D01*
X79488095Y-105333334D01*
X79488095Y-105142858D01*
X79726190Y-105904762D02*
X79726190Y-105619048D01*
X79726190Y-105761905D02*
X79226190Y-105761905D01*
X79297619Y-105714286D01*
X79345238Y-105666667D01*
X79369048Y-105619048D01*
X79226190Y-106071429D02*
X79226190Y-106404762D01*
X79726190Y-106190476D01*
X79726190Y-107428572D02*
X79488095Y-107261905D01*
X79726190Y-107142858D02*
X79226190Y-107142858D01*
X79226190Y-107333334D01*
X79250000Y-107380953D01*
X79273810Y-107404762D01*
X79321429Y-107428572D01*
X79392857Y-107428572D01*
X79440476Y-107404762D01*
X79464286Y-107380953D01*
X79488095Y-107333334D01*
X79488095Y-107142858D01*
X79273810Y-107619048D02*
X79250000Y-107642858D01*
X79226190Y-107690477D01*
X79226190Y-107809524D01*
X79250000Y-107857143D01*
X79273810Y-107880953D01*
X79321429Y-107904762D01*
X79369048Y-107904762D01*
X79440476Y-107880953D01*
X79726190Y-107595239D01*
X79726190Y-107904762D01*
X79226190Y-108333333D02*
X79226190Y-108238095D01*
X79250000Y-108190476D01*
X79273810Y-108166667D01*
X79345238Y-108119048D01*
X79440476Y-108095238D01*
X79630952Y-108095238D01*
X79678571Y-108119048D01*
X79702381Y-108142857D01*
X79726190Y-108190476D01*
X79726190Y-108285714D01*
X79702381Y-108333333D01*
X79678571Y-108357143D01*
X79630952Y-108380952D01*
X79511905Y-108380952D01*
X79464286Y-108357143D01*
X79440476Y-108333333D01*
X79416667Y-108285714D01*
X79416667Y-108190476D01*
X79440476Y-108142857D01*
X79464286Y-108119048D01*
X79511905Y-108095238D01*
X79726190Y-109428572D02*
X79488095Y-109261905D01*
X79726190Y-109142858D02*
X79226190Y-109142858D01*
X79226190Y-109333334D01*
X79250000Y-109380953D01*
X79273810Y-109404762D01*
X79321429Y-109428572D01*
X79392857Y-109428572D01*
X79440476Y-109404762D01*
X79464286Y-109380953D01*
X79488095Y-109333334D01*
X79488095Y-109142858D01*
X79273810Y-109619048D02*
X79250000Y-109642858D01*
X79226190Y-109690477D01*
X79226190Y-109809524D01*
X79250000Y-109857143D01*
X79273810Y-109880953D01*
X79321429Y-109904762D01*
X79369048Y-109904762D01*
X79440476Y-109880953D01*
X79726190Y-109595239D01*
X79726190Y-109904762D01*
X79226190Y-110071429D02*
X79226190Y-110404762D01*
X79726190Y-110190476D01*
X79726190Y-111428572D02*
X79488095Y-111261905D01*
X79726190Y-111142858D02*
X79226190Y-111142858D01*
X79226190Y-111333334D01*
X79250000Y-111380953D01*
X79273810Y-111404762D01*
X79321429Y-111428572D01*
X79392857Y-111428572D01*
X79440476Y-111404762D01*
X79464286Y-111380953D01*
X79488095Y-111333334D01*
X79488095Y-111142858D01*
X79273810Y-111619048D02*
X79250000Y-111642858D01*
X79226190Y-111690477D01*
X79226190Y-111809524D01*
X79250000Y-111857143D01*
X79273810Y-111880953D01*
X79321429Y-111904762D01*
X79369048Y-111904762D01*
X79440476Y-111880953D01*
X79726190Y-111595239D01*
X79726190Y-111904762D01*
X79440476Y-112190476D02*
X79416667Y-112142857D01*
X79392857Y-112119048D01*
X79345238Y-112095238D01*
X79321429Y-112095238D01*
X79273810Y-112119048D01*
X79250000Y-112142857D01*
X79226190Y-112190476D01*
X79226190Y-112285714D01*
X79250000Y-112333333D01*
X79273810Y-112357143D01*
X79321429Y-112380952D01*
X79345238Y-112380952D01*
X79392857Y-112357143D01*
X79416667Y-112333333D01*
X79440476Y-112285714D01*
X79440476Y-112190476D01*
X79464286Y-112142857D01*
X79488095Y-112119048D01*
X79535714Y-112095238D01*
X79630952Y-112095238D01*
X79678571Y-112119048D01*
X79702381Y-112142857D01*
X79726190Y-112190476D01*
X79726190Y-112285714D01*
X79702381Y-112333333D01*
X79678571Y-112357143D01*
X79630952Y-112380952D01*
X79535714Y-112380952D01*
X79488095Y-112357143D01*
X79464286Y-112333333D01*
X79440476Y-112285714D01*
X79726190Y-113428572D02*
X79488095Y-113261905D01*
X79726190Y-113142858D02*
X79226190Y-113142858D01*
X79226190Y-113333334D01*
X79250000Y-113380953D01*
X79273810Y-113404762D01*
X79321429Y-113428572D01*
X79392857Y-113428572D01*
X79440476Y-113404762D01*
X79464286Y-113380953D01*
X79488095Y-113333334D01*
X79488095Y-113142858D01*
X79273810Y-113619048D02*
X79250000Y-113642858D01*
X79226190Y-113690477D01*
X79226190Y-113809524D01*
X79250000Y-113857143D01*
X79273810Y-113880953D01*
X79321429Y-113904762D01*
X79369048Y-113904762D01*
X79440476Y-113880953D01*
X79726190Y-113595239D01*
X79726190Y-113904762D01*
X79726190Y-114142857D02*
X79726190Y-114238095D01*
X79702381Y-114285714D01*
X79678571Y-114309524D01*
X79607143Y-114357143D01*
X79511905Y-114380952D01*
X79321429Y-114380952D01*
X79273810Y-114357143D01*
X79250000Y-114333333D01*
X79226190Y-114285714D01*
X79226190Y-114190476D01*
X79250000Y-114142857D01*
X79273810Y-114119048D01*
X79321429Y-114095238D01*
X79440476Y-114095238D01*
X79488095Y-114119048D01*
X79511905Y-114142857D01*
X79535714Y-114190476D01*
X79535714Y-114285714D01*
X79511905Y-114333333D01*
X79488095Y-114357143D01*
X79440476Y-114380952D01*
D11*
X73392857Y-132202381D02*
X73726191Y-131726190D01*
X73964286Y-132202381D02*
X73964286Y-131202381D01*
X73583333Y-131202381D01*
X73488095Y-131250000D01*
X73440476Y-131297619D01*
X73392857Y-131392857D01*
X73392857Y-131535714D01*
X73440476Y-131630952D01*
X73488095Y-131678571D01*
X73583333Y-131726190D01*
X73964286Y-131726190D01*
X73059524Y-131202381D02*
X72440476Y-131202381D01*
X72773810Y-131583333D01*
X72630952Y-131583333D01*
X72535714Y-131630952D01*
X72488095Y-131678571D01*
X72440476Y-131773810D01*
X72440476Y-132011905D01*
X72488095Y-132107143D01*
X72535714Y-132154762D01*
X72630952Y-132202381D01*
X72916667Y-132202381D01*
X73011905Y-132154762D01*
X73059524Y-132107143D01*
X71821429Y-131202381D02*
X71726190Y-131202381D01*
X71630952Y-131250000D01*
X71583333Y-131297619D01*
X71535714Y-131392857D01*
X71488095Y-131583333D01*
X71488095Y-131821429D01*
X71535714Y-132011905D01*
X71583333Y-132107143D01*
X71630952Y-132154762D01*
X71726190Y-132202381D01*
X71821429Y-132202381D01*
X71916667Y-132154762D01*
X71964286Y-132107143D01*
X72011905Y-132011905D01*
X72059524Y-131821429D01*
X72059524Y-131583333D01*
X72011905Y-131392857D01*
X71964286Y-131297619D01*
X71916667Y-131250000D01*
X71821429Y-131202381D01*
X93392857Y-131952381D02*
X93726191Y-131476190D01*
X93964286Y-131952381D02*
X93964286Y-130952381D01*
X93583333Y-130952381D01*
X93488095Y-131000000D01*
X93440476Y-131047619D01*
X93392857Y-131142857D01*
X93392857Y-131285714D01*
X93440476Y-131380952D01*
X93488095Y-131428571D01*
X93583333Y-131476190D01*
X93964286Y-131476190D01*
X93059524Y-130952381D02*
X92440476Y-130952381D01*
X92773810Y-131333333D01*
X92630952Y-131333333D01*
X92535714Y-131380952D01*
X92488095Y-131428571D01*
X92440476Y-131523810D01*
X92440476Y-131761905D01*
X92488095Y-131857143D01*
X92535714Y-131904762D01*
X92630952Y-131952381D01*
X92916667Y-131952381D01*
X93011905Y-131904762D01*
X93059524Y-131857143D01*
X91535714Y-130952381D02*
X92011905Y-130952381D01*
X92059524Y-131428571D01*
X92011905Y-131380952D01*
X91916667Y-131333333D01*
X91678571Y-131333333D01*
X91583333Y-131380952D01*
X91535714Y-131428571D01*
X91488095Y-131523810D01*
X91488095Y-131761905D01*
X91535714Y-131857143D01*
X91583333Y-131904762D01*
X91678571Y-131952381D01*
X91916667Y-131952381D01*
X92011905Y-131904762D01*
X92059524Y-131857143D01*
X94142857Y-68202381D02*
X94476191Y-67726190D01*
X94714286Y-68202381D02*
X94714286Y-67202381D01*
X94333333Y-67202381D01*
X94238095Y-67250000D01*
X94190476Y-67297619D01*
X94142857Y-67392857D01*
X94142857Y-67535714D01*
X94190476Y-67630952D01*
X94238095Y-67678571D01*
X94333333Y-67726190D01*
X94714286Y-67726190D01*
X93809524Y-67202381D02*
X93190476Y-67202381D01*
X93523810Y-67583333D01*
X93380952Y-67583333D01*
X93285714Y-67630952D01*
X93238095Y-67678571D01*
X93190476Y-67773810D01*
X93190476Y-68011905D01*
X93238095Y-68107143D01*
X93285714Y-68154762D01*
X93380952Y-68202381D01*
X93666667Y-68202381D01*
X93761905Y-68154762D01*
X93809524Y-68107143D01*
X92333333Y-67202381D02*
X92523810Y-67202381D01*
X92619048Y-67250000D01*
X92666667Y-67297619D01*
X92761905Y-67440476D01*
X92809524Y-67630952D01*
X92809524Y-68011905D01*
X92761905Y-68107143D01*
X92714286Y-68154762D01*
X92619048Y-68202381D01*
X92428571Y-68202381D01*
X92333333Y-68154762D01*
X92285714Y-68107143D01*
X92238095Y-68011905D01*
X92238095Y-67773810D01*
X92285714Y-67678571D01*
X92333333Y-67630952D01*
X92428571Y-67583333D01*
X92619048Y-67583333D01*
X92714286Y-67630952D01*
X92761905Y-67678571D01*
X92809524Y-67773810D01*
X73892857Y-68952381D02*
X74226191Y-68476190D01*
X74464286Y-68952381D02*
X74464286Y-67952381D01*
X74083333Y-67952381D01*
X73988095Y-68000000D01*
X73940476Y-68047619D01*
X73892857Y-68142857D01*
X73892857Y-68285714D01*
X73940476Y-68380952D01*
X73988095Y-68428571D01*
X74083333Y-68476190D01*
X74464286Y-68476190D01*
X73035714Y-68285714D02*
X73035714Y-68952381D01*
X73273810Y-67904762D02*
X73511905Y-68619048D01*
X72892857Y-68619048D01*
X71988095Y-68952381D02*
X72559524Y-68952381D01*
X72273810Y-68952381D02*
X72273810Y-67952381D01*
X72369048Y-68095238D01*
X72464286Y-68190476D01*
X72559524Y-68238095D01*
X137952381Y-108357143D02*
X137476190Y-108023809D01*
X137952381Y-107785714D02*
X136952381Y-107785714D01*
X136952381Y-108166667D01*
X137000000Y-108261905D01*
X137047619Y-108309524D01*
X137142857Y-108357143D01*
X137285714Y-108357143D01*
X137380952Y-108309524D01*
X137428571Y-108261905D01*
X137476190Y-108166667D01*
X137476190Y-107785714D01*
X137285714Y-109214286D02*
X137952381Y-109214286D01*
X136904762Y-108976190D02*
X137619048Y-108738095D01*
X137619048Y-109357143D01*
X137047619Y-109690476D02*
X137000000Y-109738095D01*
X136952381Y-109833333D01*
X136952381Y-110071429D01*
X137000000Y-110166667D01*
X137047619Y-110214286D01*
X137142857Y-110261905D01*
X137238095Y-110261905D01*
X137380952Y-110214286D01*
X137952381Y-109642857D01*
X137952381Y-110261905D01*
X137952381Y-94857143D02*
X137476190Y-94523809D01*
X137952381Y-94285714D02*
X136952381Y-94285714D01*
X136952381Y-94666667D01*
X137000000Y-94761905D01*
X137047619Y-94809524D01*
X137142857Y-94857143D01*
X137285714Y-94857143D01*
X137380952Y-94809524D01*
X137428571Y-94761905D01*
X137476190Y-94666667D01*
X137476190Y-94285714D01*
X137285714Y-95714286D02*
X137952381Y-95714286D01*
X136904762Y-95476190D02*
X137619048Y-95238095D01*
X137619048Y-95857143D01*
X136952381Y-96142857D02*
X136952381Y-96809524D01*
X137952381Y-96380952D01*
X80571429Y-131339286D02*
X80571429Y-131946429D01*
X80535714Y-132017857D01*
X80500000Y-132053571D01*
X80428571Y-132089286D01*
X80285714Y-132089286D01*
X80214286Y-132053571D01*
X80178571Y-132017857D01*
X80142857Y-131946429D01*
X80142857Y-131339286D01*
X79464286Y-131589286D02*
X79464286Y-132089286D01*
X79642857Y-131303571D02*
X79821429Y-131839286D01*
X79357143Y-131839286D01*
X59502381Y-124238095D02*
X60311905Y-124238095D01*
X60407143Y-124285714D01*
X60454762Y-124333333D01*
X60502381Y-124428571D01*
X60502381Y-124619048D01*
X60454762Y-124714286D01*
X60407143Y-124761905D01*
X60311905Y-124809524D01*
X59502381Y-124809524D01*
X59502381Y-125761905D02*
X59502381Y-125285714D01*
X59978571Y-125238095D01*
X59930952Y-125285714D01*
X59883333Y-125380952D01*
X59883333Y-125619048D01*
X59930952Y-125714286D01*
X59978571Y-125761905D01*
X60073810Y-125809524D01*
X60311905Y-125809524D01*
X60407143Y-125761905D01*
X60454762Y-125714286D01*
X60502381Y-125619048D01*
X60502381Y-125380952D01*
X60454762Y-125285714D01*
X60407143Y-125238095D01*
X82609524Y-69561905D02*
X82609524Y-70209524D01*
X82571429Y-70285714D01*
X82533333Y-70323810D01*
X82457143Y-70361905D01*
X82304762Y-70361905D01*
X82228571Y-70323810D01*
X82190476Y-70285714D01*
X82152381Y-70209524D01*
X82152381Y-69561905D01*
X81428572Y-69561905D02*
X81580953Y-69561905D01*
X81657143Y-69600000D01*
X81695238Y-69638095D01*
X81771429Y-69752381D01*
X81809524Y-69904762D01*
X81809524Y-70209524D01*
X81771429Y-70285714D01*
X81733334Y-70323810D01*
X81657143Y-70361905D01*
X81504762Y-70361905D01*
X81428572Y-70323810D01*
X81390476Y-70285714D01*
X81352381Y-70209524D01*
X81352381Y-70019048D01*
X81390476Y-69942857D01*
X81428572Y-69904762D01*
X81504762Y-69866667D01*
X81657143Y-69866667D01*
X81733334Y-69904762D01*
X81771429Y-69942857D01*
X81809524Y-70019048D01*
X70892857Y-130607143D02*
X70940476Y-130654762D01*
X71083333Y-130702381D01*
X71178571Y-130702381D01*
X71321429Y-130654762D01*
X71416667Y-130559524D01*
X71464286Y-130464286D01*
X71511905Y-130273810D01*
X71511905Y-130130952D01*
X71464286Y-129940476D01*
X71416667Y-129845238D01*
X71321429Y-129750000D01*
X71178571Y-129702381D01*
X71083333Y-129702381D01*
X70940476Y-129750000D01*
X70892857Y-129797619D01*
X70511905Y-129797619D02*
X70464286Y-129750000D01*
X70369048Y-129702381D01*
X70130952Y-129702381D01*
X70035714Y-129750000D01*
X69988095Y-129797619D01*
X69940476Y-129892857D01*
X69940476Y-129988095D01*
X69988095Y-130130952D01*
X70559524Y-130702381D01*
X69940476Y-130702381D01*
X68988095Y-130702381D02*
X69559524Y-130702381D01*
X69273810Y-130702381D02*
X69273810Y-129702381D01*
X69369048Y-129845238D01*
X69464286Y-129940476D01*
X69559524Y-129988095D01*
X95892857Y-130607143D02*
X95940476Y-130654762D01*
X96083333Y-130702381D01*
X96178571Y-130702381D01*
X96321429Y-130654762D01*
X96416667Y-130559524D01*
X96464286Y-130464286D01*
X96511905Y-130273810D01*
X96511905Y-130130952D01*
X96464286Y-129940476D01*
X96416667Y-129845238D01*
X96321429Y-129750000D01*
X96178571Y-129702381D01*
X96083333Y-129702381D01*
X95940476Y-129750000D01*
X95892857Y-129797619D01*
X95559524Y-129702381D02*
X94940476Y-129702381D01*
X95273810Y-130083333D01*
X95130952Y-130083333D01*
X95035714Y-130130952D01*
X94988095Y-130178571D01*
X94940476Y-130273810D01*
X94940476Y-130511905D01*
X94988095Y-130607143D01*
X95035714Y-130654762D01*
X95130952Y-130702381D01*
X95416667Y-130702381D01*
X95511905Y-130654762D01*
X95559524Y-130607143D01*
X94321429Y-129702381D02*
X94226190Y-129702381D01*
X94130952Y-129750000D01*
X94083333Y-129797619D01*
X94035714Y-129892857D01*
X93988095Y-130083333D01*
X93988095Y-130321429D01*
X94035714Y-130511905D01*
X94083333Y-130607143D01*
X94130952Y-130654762D01*
X94226190Y-130702381D01*
X94321429Y-130702381D01*
X94416667Y-130654762D01*
X94464286Y-130607143D01*
X94511905Y-130511905D01*
X94559524Y-130321429D01*
X94559524Y-130083333D01*
X94511905Y-129892857D01*
X94464286Y-129797619D01*
X94416667Y-129750000D01*
X94321429Y-129702381D01*
X96142857Y-69607143D02*
X96190476Y-69654762D01*
X96333333Y-69702381D01*
X96428571Y-69702381D01*
X96571429Y-69654762D01*
X96666667Y-69559524D01*
X96714286Y-69464286D01*
X96761905Y-69273810D01*
X96761905Y-69130952D01*
X96714286Y-68940476D01*
X96666667Y-68845238D01*
X96571429Y-68750000D01*
X96428571Y-68702381D01*
X96333333Y-68702381D01*
X96190476Y-68750000D01*
X96142857Y-68797619D01*
X95809524Y-68702381D02*
X95190476Y-68702381D01*
X95523810Y-69083333D01*
X95380952Y-69083333D01*
X95285714Y-69130952D01*
X95238095Y-69178571D01*
X95190476Y-69273810D01*
X95190476Y-69511905D01*
X95238095Y-69607143D01*
X95285714Y-69654762D01*
X95380952Y-69702381D01*
X95666667Y-69702381D01*
X95761905Y-69654762D01*
X95809524Y-69607143D01*
X94809524Y-68797619D02*
X94761905Y-68750000D01*
X94666667Y-68702381D01*
X94428571Y-68702381D01*
X94333333Y-68750000D01*
X94285714Y-68797619D01*
X94238095Y-68892857D01*
X94238095Y-68988095D01*
X94285714Y-69130952D01*
X94857143Y-69702381D01*
X94238095Y-69702381D01*
X71642857Y-70357143D02*
X71690476Y-70404762D01*
X71833333Y-70452381D01*
X71928571Y-70452381D01*
X72071429Y-70404762D01*
X72166667Y-70309524D01*
X72214286Y-70214286D01*
X72261905Y-70023810D01*
X72261905Y-69880952D01*
X72214286Y-69690476D01*
X72166667Y-69595238D01*
X72071429Y-69500000D01*
X71928571Y-69452381D01*
X71833333Y-69452381D01*
X71690476Y-69500000D01*
X71642857Y-69547619D01*
X71309524Y-69452381D02*
X70690476Y-69452381D01*
X71023810Y-69833333D01*
X70880952Y-69833333D01*
X70785714Y-69880952D01*
X70738095Y-69928571D01*
X70690476Y-70023810D01*
X70690476Y-70261905D01*
X70738095Y-70357143D01*
X70785714Y-70404762D01*
X70880952Y-70452381D01*
X71166667Y-70452381D01*
X71261905Y-70404762D01*
X71309524Y-70357143D01*
X69833333Y-69452381D02*
X70023810Y-69452381D01*
X70119048Y-69500000D01*
X70166667Y-69547619D01*
X70261905Y-69690476D01*
X70309524Y-69880952D01*
X70309524Y-70261905D01*
X70261905Y-70357143D01*
X70214286Y-70404762D01*
X70119048Y-70452381D01*
X69928571Y-70452381D01*
X69833333Y-70404762D01*
X69785714Y-70357143D01*
X69738095Y-70261905D01*
X69738095Y-70023810D01*
X69785714Y-69928571D01*
X69833333Y-69880952D01*
X69928571Y-69833333D01*
X70119048Y-69833333D01*
X70214286Y-69880952D01*
X70261905Y-69928571D01*
X70309524Y-70023810D01*
X136357143Y-111607143D02*
X136404762Y-111559524D01*
X136452381Y-111416667D01*
X136452381Y-111321429D01*
X136404762Y-111178571D01*
X136309524Y-111083333D01*
X136214286Y-111035714D01*
X136023810Y-110988095D01*
X135880952Y-110988095D01*
X135690476Y-111035714D01*
X135595238Y-111083333D01*
X135500000Y-111178571D01*
X135452381Y-111321429D01*
X135452381Y-111416667D01*
X135500000Y-111559524D01*
X135547619Y-111607143D01*
X135452381Y-111940476D02*
X135452381Y-112559524D01*
X135833333Y-112226190D01*
X135833333Y-112369048D01*
X135880952Y-112464286D01*
X135928571Y-112511905D01*
X136023810Y-112559524D01*
X136261905Y-112559524D01*
X136357143Y-112511905D01*
X136404762Y-112464286D01*
X136452381Y-112369048D01*
X136452381Y-112083333D01*
X136404762Y-111988095D01*
X136357143Y-111940476D01*
X135880952Y-113130952D02*
X135833333Y-113035714D01*
X135785714Y-112988095D01*
X135690476Y-112940476D01*
X135642857Y-112940476D01*
X135547619Y-112988095D01*
X135500000Y-113035714D01*
X135452381Y-113130952D01*
X135452381Y-113321429D01*
X135500000Y-113416667D01*
X135547619Y-113464286D01*
X135642857Y-113511905D01*
X135690476Y-113511905D01*
X135785714Y-113464286D01*
X135833333Y-113416667D01*
X135880952Y-113321429D01*
X135880952Y-113130952D01*
X135928571Y-113035714D01*
X135976190Y-112988095D01*
X136071429Y-112940476D01*
X136261905Y-112940476D01*
X136357143Y-112988095D01*
X136404762Y-113035714D01*
X136452381Y-113130952D01*
X136452381Y-113321429D01*
X136404762Y-113416667D01*
X136357143Y-113464286D01*
X136261905Y-113511905D01*
X136071429Y-113511905D01*
X135976190Y-113464286D01*
X135928571Y-113416667D01*
X135880952Y-113321429D01*
X136357143Y-91607143D02*
X136404762Y-91559524D01*
X136452381Y-91416667D01*
X136452381Y-91321429D01*
X136404762Y-91178571D01*
X136309524Y-91083333D01*
X136214286Y-91035714D01*
X136023810Y-90988095D01*
X135880952Y-90988095D01*
X135690476Y-91035714D01*
X135595238Y-91083333D01*
X135500000Y-91178571D01*
X135452381Y-91321429D01*
X135452381Y-91416667D01*
X135500000Y-91559524D01*
X135547619Y-91607143D01*
X135785714Y-92464286D02*
X136452381Y-92464286D01*
X135404762Y-92226190D02*
X136119048Y-91988095D01*
X136119048Y-92607143D01*
X135547619Y-92940476D02*
X135500000Y-92988095D01*
X135452381Y-93083333D01*
X135452381Y-93321429D01*
X135500000Y-93416667D01*
X135547619Y-93464286D01*
X135642857Y-93511905D01*
X135738095Y-93511905D01*
X135880952Y-93464286D01*
X136452381Y-92892857D01*
X136452381Y-93511905D01*
X106892857Y-64452381D02*
X107226191Y-63976190D01*
X107464286Y-64452381D02*
X107464286Y-63452381D01*
X107083333Y-63452381D01*
X106988095Y-63500000D01*
X106940476Y-63547619D01*
X106892857Y-63642857D01*
X106892857Y-63785714D01*
X106940476Y-63880952D01*
X106988095Y-63928571D01*
X107083333Y-63976190D01*
X107464286Y-63976190D01*
X105940476Y-64452381D02*
X106511905Y-64452381D01*
X106226191Y-64452381D02*
X106226191Y-63452381D01*
X106321429Y-63595238D01*
X106416667Y-63690476D01*
X106511905Y-63738095D01*
X105083333Y-63785714D02*
X105083333Y-64452381D01*
X105321429Y-63404762D02*
X105559524Y-64119048D01*
X104940476Y-64119048D01*
X137642857Y-130107143D02*
X137690476Y-130154762D01*
X137833333Y-130202381D01*
X137928571Y-130202381D01*
X138071429Y-130154762D01*
X138166667Y-130059524D01*
X138214286Y-129964286D01*
X138261905Y-129773810D01*
X138261905Y-129630952D01*
X138214286Y-129440476D01*
X138166667Y-129345238D01*
X138071429Y-129250000D01*
X137928571Y-129202381D01*
X137833333Y-129202381D01*
X137690476Y-129250000D01*
X137642857Y-129297619D01*
X136785714Y-129535714D02*
X136785714Y-130202381D01*
X137023810Y-129154762D02*
X137261905Y-129869048D01*
X136642857Y-129869048D01*
X136357143Y-129202381D02*
X135738095Y-129202381D01*
X136071429Y-129583333D01*
X135928571Y-129583333D01*
X135833333Y-129630952D01*
X135785714Y-129678571D01*
X135738095Y-129773810D01*
X135738095Y-130011905D01*
X135785714Y-130107143D01*
X135833333Y-130154762D01*
X135928571Y-130202381D01*
X136214286Y-130202381D01*
X136309524Y-130154762D01*
X136357143Y-130107143D01*
X139738095Y-127502381D02*
X139738095Y-126502381D01*
X139500000Y-126502381D01*
X139357142Y-126550000D01*
X139261904Y-126645238D01*
X139214285Y-126740476D01*
X139166666Y-126930952D01*
X139166666Y-127073810D01*
X139214285Y-127264286D01*
X139261904Y-127359524D01*
X139357142Y-127454762D01*
X139500000Y-127502381D01*
X139738095Y-127502381D01*
X138309523Y-126835714D02*
X138309523Y-127502381D01*
X138547619Y-126454762D02*
X138785714Y-127169048D01*
X138166666Y-127169048D01*
X85242857Y-61671429D02*
X85242857Y-62157143D01*
X85214285Y-62214286D01*
X85185714Y-62242857D01*
X85128571Y-62271429D01*
X85014285Y-62271429D01*
X84957143Y-62242857D01*
X84928571Y-62214286D01*
X84900000Y-62157143D01*
X84900000Y-61671429D01*
X84300000Y-62271429D02*
X84642857Y-62271429D01*
X84471429Y-62271429D02*
X84471429Y-61671429D01*
X84528572Y-61757143D01*
X84585714Y-61814286D01*
X84642857Y-61842857D01*
X83728571Y-62271429D02*
X84071428Y-62271429D01*
X83900000Y-62271429D02*
X83900000Y-61671429D01*
X83957143Y-61757143D01*
X84014285Y-61814286D01*
X84071428Y-61842857D01*
X85242857Y-65671429D02*
X85242857Y-66157143D01*
X85214285Y-66214286D01*
X85185714Y-66242857D01*
X85128571Y-66271429D01*
X85014285Y-66271429D01*
X84957143Y-66242857D01*
X84928571Y-66214286D01*
X84900000Y-66157143D01*
X84900000Y-65671429D01*
X84300000Y-66271429D02*
X84642857Y-66271429D01*
X84471429Y-66271429D02*
X84471429Y-65671429D01*
X84528572Y-65757143D01*
X84585714Y-65814286D01*
X84642857Y-65842857D01*
X84071428Y-65728571D02*
X84042857Y-65700000D01*
X83985714Y-65671429D01*
X83842857Y-65671429D01*
X83785714Y-65700000D01*
X83757143Y-65728571D01*
X83728571Y-65785714D01*
X83728571Y-65842857D01*
X83757143Y-65928571D01*
X84100000Y-66271429D01*
X83728571Y-66271429D01*
X132992857Y-116921429D02*
X132992857Y-117407143D01*
X132964285Y-117464286D01*
X132935714Y-117492857D01*
X132878571Y-117521429D01*
X132764285Y-117521429D01*
X132707143Y-117492857D01*
X132678571Y-117464286D01*
X132650000Y-117407143D01*
X132650000Y-116921429D01*
X132050000Y-117521429D02*
X132392857Y-117521429D01*
X132221429Y-117521429D02*
X132221429Y-116921429D01*
X132278572Y-117007143D01*
X132335714Y-117064286D01*
X132392857Y-117092857D01*
X131850000Y-116921429D02*
X131478571Y-116921429D01*
X131678571Y-117150000D01*
X131592857Y-117150000D01*
X131535714Y-117178571D01*
X131507143Y-117207143D01*
X131478571Y-117264286D01*
X131478571Y-117407143D01*
X131507143Y-117464286D01*
X131535714Y-117492857D01*
X131592857Y-117521429D01*
X131764285Y-117521429D01*
X131821428Y-117492857D01*
X131850000Y-117464286D01*
X132992857Y-120921429D02*
X132992857Y-121407143D01*
X132964285Y-121464286D01*
X132935714Y-121492857D01*
X132878571Y-121521429D01*
X132764285Y-121521429D01*
X132707143Y-121492857D01*
X132678571Y-121464286D01*
X132650000Y-121407143D01*
X132650000Y-120921429D01*
X132050000Y-121521429D02*
X132392857Y-121521429D01*
X132221429Y-121521429D02*
X132221429Y-120921429D01*
X132278572Y-121007143D01*
X132335714Y-121064286D01*
X132392857Y-121092857D01*
X131535714Y-121121429D02*
X131535714Y-121521429D01*
X131678571Y-120892857D02*
X131821428Y-121321429D01*
X131450000Y-121321429D01*
X132992857Y-124671429D02*
X132992857Y-125157143D01*
X132964285Y-125214286D01*
X132935714Y-125242857D01*
X132878571Y-125271429D01*
X132764285Y-125271429D01*
X132707143Y-125242857D01*
X132678571Y-125214286D01*
X132650000Y-125157143D01*
X132650000Y-124671429D01*
X132050000Y-125271429D02*
X132392857Y-125271429D01*
X132221429Y-125271429D02*
X132221429Y-124671429D01*
X132278572Y-124757143D01*
X132335714Y-124814286D01*
X132392857Y-124842857D01*
X131507143Y-124671429D02*
X131792857Y-124671429D01*
X131821428Y-124957143D01*
X131792857Y-124928571D01*
X131735714Y-124900000D01*
X131592857Y-124900000D01*
X131535714Y-124928571D01*
X131507143Y-124957143D01*
X131478571Y-125014286D01*
X131478571Y-125157143D01*
X131507143Y-125214286D01*
X131535714Y-125242857D01*
X131592857Y-125271429D01*
X131735714Y-125271429D01*
X131792857Y-125242857D01*
X131821428Y-125214286D01*
X132992857Y-128671429D02*
X132992857Y-129157143D01*
X132964285Y-129214286D01*
X132935714Y-129242857D01*
X132878571Y-129271429D01*
X132764285Y-129271429D01*
X132707143Y-129242857D01*
X132678571Y-129214286D01*
X132650000Y-129157143D01*
X132650000Y-128671429D01*
X132050000Y-129271429D02*
X132392857Y-129271429D01*
X132221429Y-129271429D02*
X132221429Y-128671429D01*
X132278572Y-128757143D01*
X132335714Y-128814286D01*
X132392857Y-128842857D01*
X131535714Y-128671429D02*
X131650000Y-128671429D01*
X131707143Y-128700000D01*
X131735714Y-128728571D01*
X131792857Y-128814286D01*
X131821428Y-128928571D01*
X131821428Y-129157143D01*
X131792857Y-129214286D01*
X131764285Y-129242857D01*
X131707143Y-129271429D01*
X131592857Y-129271429D01*
X131535714Y-129242857D01*
X131507143Y-129214286D01*
X131478571Y-129157143D01*
X131478571Y-129014286D01*
X131507143Y-128957143D01*
X131535714Y-128928571D01*
X131592857Y-128900000D01*
X131707143Y-128900000D01*
X131764285Y-128928571D01*
X131792857Y-128957143D01*
X131821428Y-129014286D01*
X129571429Y-77600000D02*
X129614286Y-77557143D01*
X129657143Y-77428572D01*
X129657143Y-77342858D01*
X129614286Y-77214286D01*
X129528571Y-77128572D01*
X129442857Y-77085715D01*
X129271429Y-77042858D01*
X129142857Y-77042858D01*
X128971429Y-77085715D01*
X128885714Y-77128572D01*
X128800000Y-77214286D01*
X128757143Y-77342858D01*
X128757143Y-77428572D01*
X128800000Y-77557143D01*
X128842857Y-77600000D01*
X129657143Y-78457143D02*
X129657143Y-77942858D01*
X129657143Y-78200000D02*
X128757143Y-78200000D01*
X128885714Y-78114286D01*
X128971429Y-78028572D01*
X129014286Y-77942858D01*
X77392857Y-133857143D02*
X77440476Y-133904762D01*
X77583333Y-133952381D01*
X77678571Y-133952381D01*
X77821429Y-133904762D01*
X77916667Y-133809524D01*
X77964286Y-133714286D01*
X78011905Y-133523810D01*
X78011905Y-133380952D01*
X77964286Y-133190476D01*
X77916667Y-133095238D01*
X77821429Y-133000000D01*
X77678571Y-132952381D01*
X77583333Y-132952381D01*
X77440476Y-133000000D01*
X77392857Y-133047619D01*
X77011905Y-133047619D02*
X76964286Y-133000000D01*
X76869048Y-132952381D01*
X76630952Y-132952381D01*
X76535714Y-133000000D01*
X76488095Y-133047619D01*
X76440476Y-133142857D01*
X76440476Y-133238095D01*
X76488095Y-133380952D01*
X77059524Y-133952381D01*
X76440476Y-133952381D01*
X75821429Y-132952381D02*
X75726190Y-132952381D01*
X75630952Y-133000000D01*
X75583333Y-133047619D01*
X75535714Y-133142857D01*
X75488095Y-133333333D01*
X75488095Y-133571429D01*
X75535714Y-133761905D01*
X75583333Y-133857143D01*
X75630952Y-133904762D01*
X75726190Y-133952381D01*
X75821429Y-133952381D01*
X75916667Y-133904762D01*
X75964286Y-133857143D01*
X76011905Y-133761905D01*
X76059524Y-133571429D01*
X76059524Y-133333333D01*
X76011905Y-133142857D01*
X75964286Y-133047619D01*
X75916667Y-133000000D01*
X75821429Y-132952381D01*
X128964286Y-115114285D02*
X128992857Y-115085714D01*
X129021429Y-115000000D01*
X129021429Y-114942857D01*
X128992857Y-114857142D01*
X128935714Y-114800000D01*
X128878571Y-114771428D01*
X128764286Y-114742857D01*
X128678571Y-114742857D01*
X128564286Y-114771428D01*
X128507143Y-114800000D01*
X128450000Y-114857142D01*
X128421429Y-114942857D01*
X128421429Y-115000000D01*
X128450000Y-115085714D01*
X128478571Y-115114285D01*
X128478571Y-115342857D02*
X128450000Y-115371428D01*
X128421429Y-115428571D01*
X128421429Y-115571428D01*
X128450000Y-115628571D01*
X128478571Y-115657142D01*
X128535714Y-115685714D01*
X128592857Y-115685714D01*
X128678571Y-115657142D01*
X129021429Y-115314285D01*
X129021429Y-115685714D01*
X129021429Y-115971429D02*
X129021429Y-116085714D01*
X128992857Y-116142857D01*
X128964286Y-116171429D01*
X128878571Y-116228571D01*
X128764286Y-116257143D01*
X128535714Y-116257143D01*
X128478571Y-116228571D01*
X128450000Y-116200000D01*
X128421429Y-116142857D01*
X128421429Y-116028571D01*
X128450000Y-115971429D01*
X128478571Y-115942857D01*
X128535714Y-115914286D01*
X128678571Y-115914286D01*
X128735714Y-115942857D01*
X128764286Y-115971429D01*
X128792857Y-116028571D01*
X128792857Y-116142857D01*
X128764286Y-116200000D01*
X128735714Y-116228571D01*
X128678571Y-116257143D01*
X137642857Y-117357143D02*
X137690476Y-117404762D01*
X137833333Y-117452381D01*
X137928571Y-117452381D01*
X138071429Y-117404762D01*
X138166667Y-117309524D01*
X138214286Y-117214286D01*
X138261905Y-117023810D01*
X138261905Y-116880952D01*
X138214286Y-116690476D01*
X138166667Y-116595238D01*
X138071429Y-116500000D01*
X137928571Y-116452381D01*
X137833333Y-116452381D01*
X137690476Y-116500000D01*
X137642857Y-116547619D01*
X137309524Y-116452381D02*
X136690476Y-116452381D01*
X137023810Y-116833333D01*
X136880952Y-116833333D01*
X136785714Y-116880952D01*
X136738095Y-116928571D01*
X136690476Y-117023810D01*
X136690476Y-117261905D01*
X136738095Y-117357143D01*
X136785714Y-117404762D01*
X136880952Y-117452381D01*
X137166667Y-117452381D01*
X137261905Y-117404762D01*
X137309524Y-117357143D01*
X135738095Y-117452381D02*
X136309524Y-117452381D01*
X136023810Y-117452381D02*
X136023810Y-116452381D01*
X136119048Y-116595238D01*
X136214286Y-116690476D01*
X136309524Y-116738095D01*
X128964286Y-122864285D02*
X128992857Y-122835714D01*
X129021429Y-122750000D01*
X129021429Y-122692857D01*
X128992857Y-122607142D01*
X128935714Y-122550000D01*
X128878571Y-122521428D01*
X128764286Y-122492857D01*
X128678571Y-122492857D01*
X128564286Y-122521428D01*
X128507143Y-122550000D01*
X128450000Y-122607142D01*
X128421429Y-122692857D01*
X128421429Y-122750000D01*
X128450000Y-122835714D01*
X128478571Y-122864285D01*
X128421429Y-123064285D02*
X128421429Y-123435714D01*
X128650000Y-123235714D01*
X128650000Y-123321428D01*
X128678571Y-123378571D01*
X128707143Y-123407142D01*
X128764286Y-123435714D01*
X128907143Y-123435714D01*
X128964286Y-123407142D01*
X128992857Y-123378571D01*
X129021429Y-123321428D01*
X129021429Y-123150000D01*
X128992857Y-123092857D01*
X128964286Y-123064285D01*
X128421429Y-123635714D02*
X128421429Y-124035714D01*
X129021429Y-123778571D01*
X75452381Y-135261905D02*
X74452381Y-135261905D01*
X74452381Y-135500000D01*
X74500000Y-135642858D01*
X74595238Y-135738096D01*
X74690476Y-135785715D01*
X74880952Y-135833334D01*
X75023810Y-135833334D01*
X75214286Y-135785715D01*
X75309524Y-135738096D01*
X75404762Y-135642858D01*
X75452381Y-135500000D01*
X75452381Y-135261905D01*
X75452381Y-136785715D02*
X75452381Y-136214286D01*
X75452381Y-136500000D02*
X74452381Y-136500000D01*
X74595238Y-136404762D01*
X74690476Y-136309524D01*
X74738095Y-136214286D01*
X91738095Y-64452381D02*
X91738095Y-63452381D01*
X91500000Y-63452381D01*
X91357142Y-63500000D01*
X91261904Y-63595238D01*
X91214285Y-63690476D01*
X91166666Y-63880952D01*
X91166666Y-64023810D01*
X91214285Y-64214286D01*
X91261904Y-64309524D01*
X91357142Y-64404762D01*
X91500000Y-64452381D01*
X91738095Y-64452381D01*
X90785714Y-63547619D02*
X90738095Y-63500000D01*
X90642857Y-63452381D01*
X90404761Y-63452381D01*
X90309523Y-63500000D01*
X90261904Y-63547619D01*
X90214285Y-63642857D01*
X90214285Y-63738095D01*
X90261904Y-63880952D01*
X90833333Y-64452381D01*
X90214285Y-64452381D01*
X139738095Y-119752381D02*
X139738095Y-118752381D01*
X139500000Y-118752381D01*
X139357142Y-118800000D01*
X139261904Y-118895238D01*
X139214285Y-118990476D01*
X139166666Y-119180952D01*
X139166666Y-119323810D01*
X139214285Y-119514286D01*
X139261904Y-119609524D01*
X139357142Y-119704762D01*
X139500000Y-119752381D01*
X139738095Y-119752381D01*
X138833333Y-118752381D02*
X138214285Y-118752381D01*
X138547619Y-119133333D01*
X138404761Y-119133333D01*
X138309523Y-119180952D01*
X138261904Y-119228571D01*
X138214285Y-119323810D01*
X138214285Y-119561905D01*
X138261904Y-119657143D01*
X138309523Y-119704762D01*
X138404761Y-119752381D01*
X138690476Y-119752381D01*
X138785714Y-119704762D01*
X138833333Y-119657143D01*
X69202381Y-119833334D02*
X68726190Y-119500000D01*
X69202381Y-119261905D02*
X68202381Y-119261905D01*
X68202381Y-119642858D01*
X68250000Y-119738096D01*
X68297619Y-119785715D01*
X68392857Y-119833334D01*
X68535714Y-119833334D01*
X68630952Y-119785715D01*
X68678571Y-119738096D01*
X68726190Y-119642858D01*
X68726190Y-119261905D01*
X69202381Y-120785715D02*
X69202381Y-120214286D01*
X69202381Y-120500000D02*
X68202381Y-120500000D01*
X68345238Y-120404762D01*
X68440476Y-120309524D01*
X68488095Y-120214286D01*
X63861905Y-118985714D02*
X63480952Y-118719047D01*
X63861905Y-118528571D02*
X63061905Y-118528571D01*
X63061905Y-118833333D01*
X63100000Y-118909524D01*
X63138095Y-118947619D01*
X63214286Y-118985714D01*
X63328571Y-118985714D01*
X63404762Y-118947619D01*
X63442857Y-118909524D01*
X63480952Y-118833333D01*
X63480952Y-118528571D01*
X63861905Y-119747619D02*
X63861905Y-119290476D01*
X63861905Y-119519047D02*
X63061905Y-119519047D01*
X63176190Y-119442857D01*
X63252381Y-119366666D01*
X63290476Y-119290476D01*
X63138095Y-120052381D02*
X63100000Y-120090476D01*
X63061905Y-120166667D01*
X63061905Y-120357143D01*
X63100000Y-120433333D01*
X63138095Y-120471429D01*
X63214286Y-120509524D01*
X63290476Y-120509524D01*
X63404762Y-120471429D01*
X63861905Y-120014286D01*
X63861905Y-120509524D01*
X91611905Y-133485714D02*
X91230952Y-133219047D01*
X91611905Y-133028571D02*
X90811905Y-133028571D01*
X90811905Y-133333333D01*
X90850000Y-133409524D01*
X90888095Y-133447619D01*
X90964286Y-133485714D01*
X91078571Y-133485714D01*
X91154762Y-133447619D01*
X91192857Y-133409524D01*
X91230952Y-133333333D01*
X91230952Y-133028571D01*
X90888095Y-133790476D02*
X90850000Y-133828571D01*
X90811905Y-133904762D01*
X90811905Y-134095238D01*
X90850000Y-134171428D01*
X90888095Y-134209524D01*
X90964286Y-134247619D01*
X91040476Y-134247619D01*
X91154762Y-134209524D01*
X91611905Y-133752381D01*
X91611905Y-134247619D01*
X90888095Y-134552381D02*
X90850000Y-134590476D01*
X90811905Y-134666667D01*
X90811905Y-134857143D01*
X90850000Y-134933333D01*
X90888095Y-134971429D01*
X90964286Y-135009524D01*
X91040476Y-135009524D01*
X91154762Y-134971429D01*
X91611905Y-134514286D01*
X91611905Y-135009524D01*
X74861905Y-61485714D02*
X74480952Y-61219047D01*
X74861905Y-61028571D02*
X74061905Y-61028571D01*
X74061905Y-61333333D01*
X74100000Y-61409524D01*
X74138095Y-61447619D01*
X74214286Y-61485714D01*
X74328571Y-61485714D01*
X74404762Y-61447619D01*
X74442857Y-61409524D01*
X74480952Y-61333333D01*
X74480952Y-61028571D01*
X74138095Y-61790476D02*
X74100000Y-61828571D01*
X74061905Y-61904762D01*
X74061905Y-62095238D01*
X74100000Y-62171428D01*
X74138095Y-62209524D01*
X74214286Y-62247619D01*
X74290476Y-62247619D01*
X74404762Y-62209524D01*
X74861905Y-61752381D01*
X74861905Y-62247619D01*
X74061905Y-62514286D02*
X74061905Y-63009524D01*
X74366667Y-62742857D01*
X74366667Y-62857143D01*
X74404762Y-62933333D01*
X74442857Y-62971429D01*
X74519048Y-63009524D01*
X74709524Y-63009524D01*
X74785714Y-62971429D01*
X74823810Y-62933333D01*
X74861905Y-62857143D01*
X74861905Y-62628571D01*
X74823810Y-62552381D01*
X74785714Y-62514286D01*
X74861905Y-65485714D02*
X74480952Y-65219047D01*
X74861905Y-65028571D02*
X74061905Y-65028571D01*
X74061905Y-65333333D01*
X74100000Y-65409524D01*
X74138095Y-65447619D01*
X74214286Y-65485714D01*
X74328571Y-65485714D01*
X74404762Y-65447619D01*
X74442857Y-65409524D01*
X74480952Y-65333333D01*
X74480952Y-65028571D01*
X74138095Y-65790476D02*
X74100000Y-65828571D01*
X74061905Y-65904762D01*
X74061905Y-66095238D01*
X74100000Y-66171428D01*
X74138095Y-66209524D01*
X74214286Y-66247619D01*
X74290476Y-66247619D01*
X74404762Y-66209524D01*
X74861905Y-65752381D01*
X74861905Y-66247619D01*
X74328571Y-66933333D02*
X74861905Y-66933333D01*
X74023810Y-66742857D02*
X74595238Y-66552381D01*
X74595238Y-67047619D01*
X122861905Y-116735714D02*
X122480952Y-116469047D01*
X122861905Y-116278571D02*
X122061905Y-116278571D01*
X122061905Y-116583333D01*
X122100000Y-116659524D01*
X122138095Y-116697619D01*
X122214286Y-116735714D01*
X122328571Y-116735714D01*
X122404762Y-116697619D01*
X122442857Y-116659524D01*
X122480952Y-116583333D01*
X122480952Y-116278571D01*
X122138095Y-117040476D02*
X122100000Y-117078571D01*
X122061905Y-117154762D01*
X122061905Y-117345238D01*
X122100000Y-117421428D01*
X122138095Y-117459524D01*
X122214286Y-117497619D01*
X122290476Y-117497619D01*
X122404762Y-117459524D01*
X122861905Y-117002381D01*
X122861905Y-117497619D01*
X122061905Y-118221429D02*
X122061905Y-117840476D01*
X122442857Y-117802381D01*
X122404762Y-117840476D01*
X122366667Y-117916667D01*
X122366667Y-118107143D01*
X122404762Y-118183333D01*
X122442857Y-118221429D01*
X122519048Y-118259524D01*
X122709524Y-118259524D01*
X122785714Y-118221429D01*
X122823810Y-118183333D01*
X122861905Y-118107143D01*
X122861905Y-117916667D01*
X122823810Y-117840476D01*
X122785714Y-117802381D01*
X122861905Y-120735714D02*
X122480952Y-120469047D01*
X122861905Y-120278571D02*
X122061905Y-120278571D01*
X122061905Y-120583333D01*
X122100000Y-120659524D01*
X122138095Y-120697619D01*
X122214286Y-120735714D01*
X122328571Y-120735714D01*
X122404762Y-120697619D01*
X122442857Y-120659524D01*
X122480952Y-120583333D01*
X122480952Y-120278571D01*
X122061905Y-121002381D02*
X122061905Y-121497619D01*
X122366667Y-121230952D01*
X122366667Y-121345238D01*
X122404762Y-121421428D01*
X122442857Y-121459524D01*
X122519048Y-121497619D01*
X122709524Y-121497619D01*
X122785714Y-121459524D01*
X122823810Y-121421428D01*
X122861905Y-121345238D01*
X122861905Y-121116666D01*
X122823810Y-121040476D01*
X122785714Y-121002381D01*
X122861905Y-122259524D02*
X122861905Y-121802381D01*
X122861905Y-122030952D02*
X122061905Y-122030952D01*
X122176190Y-121954762D01*
X122252381Y-121878571D01*
X122290476Y-121802381D01*
X122861905Y-124485714D02*
X122480952Y-124219047D01*
X122861905Y-124028571D02*
X122061905Y-124028571D01*
X122061905Y-124333333D01*
X122100000Y-124409524D01*
X122138095Y-124447619D01*
X122214286Y-124485714D01*
X122328571Y-124485714D01*
X122404762Y-124447619D01*
X122442857Y-124409524D01*
X122480952Y-124333333D01*
X122480952Y-124028571D01*
X122061905Y-124752381D02*
X122061905Y-125247619D01*
X122366667Y-124980952D01*
X122366667Y-125095238D01*
X122404762Y-125171428D01*
X122442857Y-125209524D01*
X122519048Y-125247619D01*
X122709524Y-125247619D01*
X122785714Y-125209524D01*
X122823810Y-125171428D01*
X122861905Y-125095238D01*
X122861905Y-124866666D01*
X122823810Y-124790476D01*
X122785714Y-124752381D01*
X122138095Y-125552381D02*
X122100000Y-125590476D01*
X122061905Y-125666667D01*
X122061905Y-125857143D01*
X122100000Y-125933333D01*
X122138095Y-125971429D01*
X122214286Y-126009524D01*
X122290476Y-126009524D01*
X122404762Y-125971429D01*
X122861905Y-125514286D01*
X122861905Y-126009524D01*
X122861905Y-128485714D02*
X122480952Y-128219047D01*
X122861905Y-128028571D02*
X122061905Y-128028571D01*
X122061905Y-128333333D01*
X122100000Y-128409524D01*
X122138095Y-128447619D01*
X122214286Y-128485714D01*
X122328571Y-128485714D01*
X122404762Y-128447619D01*
X122442857Y-128409524D01*
X122480952Y-128333333D01*
X122480952Y-128028571D01*
X122061905Y-128752381D02*
X122061905Y-129247619D01*
X122366667Y-128980952D01*
X122366667Y-129095238D01*
X122404762Y-129171428D01*
X122442857Y-129209524D01*
X122519048Y-129247619D01*
X122709524Y-129247619D01*
X122785714Y-129209524D01*
X122823810Y-129171428D01*
X122861905Y-129095238D01*
X122861905Y-128866666D01*
X122823810Y-128790476D01*
X122785714Y-128752381D01*
X122061905Y-129514286D02*
X122061905Y-130009524D01*
X122366667Y-129742857D01*
X122366667Y-129857143D01*
X122404762Y-129933333D01*
X122442857Y-129971429D01*
X122519048Y-130009524D01*
X122709524Y-130009524D01*
X122785714Y-129971429D01*
X122823810Y-129933333D01*
X122861905Y-129857143D01*
X122861905Y-129628571D01*
X122823810Y-129552381D01*
X122785714Y-129514286D01*
X132392857Y-86202381D02*
X132726191Y-85726190D01*
X132964286Y-86202381D02*
X132964286Y-85202381D01*
X132583333Y-85202381D01*
X132488095Y-85250000D01*
X132440476Y-85297619D01*
X132392857Y-85392857D01*
X132392857Y-85535714D01*
X132440476Y-85630952D01*
X132488095Y-85678571D01*
X132583333Y-85726190D01*
X132964286Y-85726190D01*
X132059524Y-85202381D02*
X131440476Y-85202381D01*
X131773810Y-85583333D01*
X131630952Y-85583333D01*
X131535714Y-85630952D01*
X131488095Y-85678571D01*
X131440476Y-85773810D01*
X131440476Y-86011905D01*
X131488095Y-86107143D01*
X131535714Y-86154762D01*
X131630952Y-86202381D01*
X131916667Y-86202381D01*
X132011905Y-86154762D01*
X132059524Y-86107143D01*
X130583333Y-85535714D02*
X130583333Y-86202381D01*
X130821429Y-85154762D02*
X131059524Y-85869048D01*
X130440476Y-85869048D01*
X135642857Y-76702381D02*
X135976191Y-76226190D01*
X136214286Y-76702381D02*
X136214286Y-75702381D01*
X135833333Y-75702381D01*
X135738095Y-75750000D01*
X135690476Y-75797619D01*
X135642857Y-75892857D01*
X135642857Y-76035714D01*
X135690476Y-76130952D01*
X135738095Y-76178571D01*
X135833333Y-76226190D01*
X136214286Y-76226190D01*
X135309524Y-75702381D02*
X134690476Y-75702381D01*
X135023810Y-76083333D01*
X134880952Y-76083333D01*
X134785714Y-76130952D01*
X134738095Y-76178571D01*
X134690476Y-76273810D01*
X134690476Y-76511905D01*
X134738095Y-76607143D01*
X134785714Y-76654762D01*
X134880952Y-76702381D01*
X135166667Y-76702381D01*
X135261905Y-76654762D01*
X135309524Y-76607143D01*
X134357143Y-75702381D02*
X133690476Y-75702381D01*
X134119048Y-76702381D01*
X133511905Y-80702381D02*
X133511905Y-81511905D01*
X133464286Y-81607143D01*
X133416667Y-81654762D01*
X133321429Y-81702381D01*
X133130952Y-81702381D01*
X133035714Y-81654762D01*
X132988095Y-81607143D01*
X132940476Y-81511905D01*
X132940476Y-80702381D01*
X131940476Y-81702381D02*
X132511905Y-81702381D01*
X132226191Y-81702381D02*
X132226191Y-80702381D01*
X132321429Y-80845238D01*
X132416667Y-80940476D01*
X132511905Y-80988095D01*
X124511905Y-85577381D02*
X124511905Y-86386905D01*
X124464286Y-86482143D01*
X124416667Y-86529762D01*
X124321429Y-86577381D01*
X124130952Y-86577381D01*
X124035714Y-86529762D01*
X123988095Y-86482143D01*
X123940476Y-86386905D01*
X123940476Y-85577381D01*
X123511905Y-85672619D02*
X123464286Y-85625000D01*
X123369048Y-85577381D01*
X123130952Y-85577381D01*
X123035714Y-85625000D01*
X122988095Y-85672619D01*
X122940476Y-85767857D01*
X122940476Y-85863095D01*
X122988095Y-86005952D01*
X123559524Y-86577381D01*
X122940476Y-86577381D01*
X106702381Y-71238095D02*
X107511905Y-71238095D01*
X107607143Y-71285714D01*
X107654762Y-71333333D01*
X107702381Y-71428571D01*
X107702381Y-71619048D01*
X107654762Y-71714286D01*
X107607143Y-71761905D01*
X107511905Y-71809524D01*
X106702381Y-71809524D01*
X106702381Y-72190476D02*
X106702381Y-72857143D01*
X107702381Y-72428571D01*
X81821429Y-139589286D02*
X81821429Y-140196429D01*
X81785714Y-140267857D01*
X81750000Y-140303571D01*
X81678571Y-140339286D01*
X81535714Y-140339286D01*
X81464286Y-140303571D01*
X81428571Y-140267857D01*
X81392857Y-140196429D01*
X81392857Y-139589286D01*
X81000000Y-140339286D02*
X80857143Y-140339286D01*
X80785715Y-140303571D01*
X80750000Y-140267857D01*
X80678572Y-140160714D01*
X80642857Y-140017857D01*
X80642857Y-139732143D01*
X80678572Y-139660714D01*
X80714286Y-139625000D01*
X80785715Y-139589286D01*
X80928572Y-139589286D01*
X81000000Y-139625000D01*
X81035715Y-139660714D01*
X81071429Y-139732143D01*
X81071429Y-139910714D01*
X81035715Y-139982143D01*
X81000000Y-140017857D01*
X80928572Y-140053571D01*
X80785715Y-140053571D01*
X80714286Y-140017857D01*
X80678572Y-139982143D01*
X80642857Y-139910714D01*
X82178572Y-135589286D02*
X82178572Y-136196429D01*
X82142857Y-136267857D01*
X82107143Y-136303571D01*
X82035714Y-136339286D01*
X81892857Y-136339286D01*
X81821429Y-136303571D01*
X81785714Y-136267857D01*
X81750000Y-136196429D01*
X81750000Y-135589286D01*
X81000000Y-136339286D02*
X81428572Y-136339286D01*
X81214286Y-136339286D02*
X81214286Y-135589286D01*
X81285715Y-135696429D01*
X81357143Y-135767857D01*
X81428572Y-135803571D01*
X80535714Y-135589286D02*
X80464286Y-135589286D01*
X80392857Y-135625000D01*
X80357143Y-135660714D01*
X80321429Y-135732143D01*
X80285714Y-135875000D01*
X80285714Y-136053571D01*
X80321429Y-136196429D01*
X80357143Y-136267857D01*
X80392857Y-136303571D01*
X80464286Y-136339286D01*
X80535714Y-136339286D01*
X80607143Y-136303571D01*
X80642857Y-136267857D01*
X80678572Y-136196429D01*
X80714286Y-136053571D01*
X80714286Y-135875000D01*
X80678572Y-135732143D01*
X80642857Y-135660714D01*
X80607143Y-135625000D01*
X80535714Y-135589286D01*
X104985715Y-86814286D02*
X105014286Y-86842857D01*
X105100000Y-86871429D01*
X105157143Y-86871429D01*
X105242858Y-86842857D01*
X105300000Y-86785714D01*
X105328572Y-86728571D01*
X105357143Y-86614286D01*
X105357143Y-86528571D01*
X105328572Y-86414286D01*
X105300000Y-86357143D01*
X105242858Y-86300000D01*
X105157143Y-86271429D01*
X105100000Y-86271429D01*
X105014286Y-86300000D01*
X104985715Y-86328571D01*
X104471429Y-86471429D02*
X104471429Y-86871429D01*
X104614286Y-86242857D02*
X104757143Y-86671429D01*
X104385715Y-86671429D01*
X103900000Y-86271429D02*
X104014286Y-86271429D01*
X104071429Y-86300000D01*
X104100000Y-86328571D01*
X104157143Y-86414286D01*
X104185714Y-86528571D01*
X104185714Y-86757143D01*
X104157143Y-86814286D01*
X104128571Y-86842857D01*
X104071429Y-86871429D01*
X103957143Y-86871429D01*
X103900000Y-86842857D01*
X103871429Y-86814286D01*
X103842857Y-86757143D01*
X103842857Y-86614286D01*
X103871429Y-86557143D01*
X103900000Y-86528571D01*
X103957143Y-86500000D01*
X104071429Y-86500000D01*
X104128571Y-86528571D01*
X104157143Y-86557143D01*
X104185714Y-86614286D01*
X125857143Y-67607143D02*
X125904762Y-67559524D01*
X125952381Y-67416667D01*
X125952381Y-67321429D01*
X125904762Y-67178571D01*
X125809524Y-67083333D01*
X125714286Y-67035714D01*
X125523810Y-66988095D01*
X125380952Y-66988095D01*
X125190476Y-67035714D01*
X125095238Y-67083333D01*
X125000000Y-67178571D01*
X124952381Y-67321429D01*
X124952381Y-67416667D01*
X125000000Y-67559524D01*
X125047619Y-67607143D01*
X125285714Y-68464286D02*
X125952381Y-68464286D01*
X124904762Y-68226190D02*
X125619048Y-67988095D01*
X125619048Y-68607143D01*
X124952381Y-68892857D02*
X124952381Y-69559524D01*
X125952381Y-69130952D01*
X110107143Y-83857143D02*
X110154762Y-83809524D01*
X110202381Y-83666667D01*
X110202381Y-83571429D01*
X110154762Y-83428571D01*
X110059524Y-83333333D01*
X109964286Y-83285714D01*
X109773810Y-83238095D01*
X109630952Y-83238095D01*
X109440476Y-83285714D01*
X109345238Y-83333333D01*
X109250000Y-83428571D01*
X109202381Y-83571429D01*
X109202381Y-83666667D01*
X109250000Y-83809524D01*
X109297619Y-83857143D01*
X109535714Y-84714286D02*
X110202381Y-84714286D01*
X109154762Y-84476190D02*
X109869048Y-84238095D01*
X109869048Y-84857143D01*
X109630952Y-85380952D02*
X109583333Y-85285714D01*
X109535714Y-85238095D01*
X109440476Y-85190476D01*
X109392857Y-85190476D01*
X109297619Y-85238095D01*
X109250000Y-85285714D01*
X109202381Y-85380952D01*
X109202381Y-85571429D01*
X109250000Y-85666667D01*
X109297619Y-85714286D01*
X109392857Y-85761905D01*
X109440476Y-85761905D01*
X109535714Y-85714286D01*
X109583333Y-85666667D01*
X109630952Y-85571429D01*
X109630952Y-85380952D01*
X109678571Y-85285714D01*
X109726190Y-85238095D01*
X109821429Y-85190476D01*
X110011905Y-85190476D01*
X110107143Y-85238095D01*
X110154762Y-85285714D01*
X110202381Y-85380952D01*
X110202381Y-85571429D01*
X110154762Y-85666667D01*
X110107143Y-85714286D01*
X110011905Y-85761905D01*
X109821429Y-85761905D01*
X109726190Y-85714286D01*
X109678571Y-85666667D01*
X109630952Y-85571429D01*
X106985715Y-86814286D02*
X107014286Y-86842857D01*
X107100000Y-86871429D01*
X107157143Y-86871429D01*
X107242858Y-86842857D01*
X107300000Y-86785714D01*
X107328572Y-86728571D01*
X107357143Y-86614286D01*
X107357143Y-86528571D01*
X107328572Y-86414286D01*
X107300000Y-86357143D01*
X107242858Y-86300000D01*
X107157143Y-86271429D01*
X107100000Y-86271429D01*
X107014286Y-86300000D01*
X106985715Y-86328571D01*
X106471429Y-86471429D02*
X106471429Y-86871429D01*
X106614286Y-86242857D02*
X106757143Y-86671429D01*
X106385715Y-86671429D01*
X106128571Y-86871429D02*
X106014286Y-86871429D01*
X105957143Y-86842857D01*
X105928571Y-86814286D01*
X105871429Y-86728571D01*
X105842857Y-86614286D01*
X105842857Y-86385714D01*
X105871429Y-86328571D01*
X105900000Y-86300000D01*
X105957143Y-86271429D01*
X106071429Y-86271429D01*
X106128571Y-86300000D01*
X106157143Y-86328571D01*
X106185714Y-86385714D01*
X106185714Y-86528571D01*
X106157143Y-86585714D01*
X106128571Y-86614286D01*
X106071429Y-86642857D01*
X105957143Y-86642857D01*
X105900000Y-86614286D01*
X105871429Y-86585714D01*
X105842857Y-86528571D01*
X68232143Y-112589286D02*
X68482143Y-112232143D01*
X68660715Y-112589286D02*
X68660715Y-111839286D01*
X68375000Y-111839286D01*
X68303572Y-111875000D01*
X68267857Y-111910714D01*
X68232143Y-111982143D01*
X68232143Y-112089286D01*
X68267857Y-112160714D01*
X68303572Y-112196429D01*
X68375000Y-112232143D01*
X68660715Y-112232143D01*
X67982143Y-111839286D02*
X67517857Y-111839286D01*
X67767857Y-112125000D01*
X67660715Y-112125000D01*
X67589286Y-112160714D01*
X67553572Y-112196429D01*
X67517857Y-112267857D01*
X67517857Y-112446429D01*
X67553572Y-112517857D01*
X67589286Y-112553571D01*
X67660715Y-112589286D01*
X67875000Y-112589286D01*
X67946429Y-112553571D01*
X67982143Y-112517857D01*
X67089286Y-112160714D02*
X67160714Y-112125000D01*
X67196429Y-112089286D01*
X67232143Y-112017857D01*
X67232143Y-111982143D01*
X67196429Y-111910714D01*
X67160714Y-111875000D01*
X67089286Y-111839286D01*
X66946429Y-111839286D01*
X66875000Y-111875000D01*
X66839286Y-111910714D01*
X66803571Y-111982143D01*
X66803571Y-112017857D01*
X66839286Y-112089286D01*
X66875000Y-112125000D01*
X66946429Y-112160714D01*
X67089286Y-112160714D01*
X67160714Y-112196429D01*
X67196429Y-112232143D01*
X67232143Y-112303571D01*
X67232143Y-112446429D01*
X67196429Y-112517857D01*
X67160714Y-112553571D01*
X67089286Y-112589286D01*
X66946429Y-112589286D01*
X66875000Y-112553571D01*
X66839286Y-112517857D01*
X66803571Y-112446429D01*
X66803571Y-112303571D01*
X66839286Y-112232143D01*
X66875000Y-112196429D01*
X66946429Y-112160714D01*
X116392857Y-84952381D02*
X116726191Y-84476190D01*
X116964286Y-84952381D02*
X116964286Y-83952381D01*
X116583333Y-83952381D01*
X116488095Y-84000000D01*
X116440476Y-84047619D01*
X116392857Y-84142857D01*
X116392857Y-84285714D01*
X116440476Y-84380952D01*
X116488095Y-84428571D01*
X116583333Y-84476190D01*
X116964286Y-84476190D01*
X116059524Y-83952381D02*
X115440476Y-83952381D01*
X115773810Y-84333333D01*
X115630952Y-84333333D01*
X115535714Y-84380952D01*
X115488095Y-84428571D01*
X115440476Y-84523810D01*
X115440476Y-84761905D01*
X115488095Y-84857143D01*
X115535714Y-84904762D01*
X115630952Y-84952381D01*
X115916667Y-84952381D01*
X116011905Y-84904762D01*
X116059524Y-84857143D01*
X114964286Y-84952381D02*
X114773810Y-84952381D01*
X114678571Y-84904762D01*
X114630952Y-84857143D01*
X114535714Y-84714286D01*
X114488095Y-84523810D01*
X114488095Y-84142857D01*
X114535714Y-84047619D01*
X114583333Y-84000000D01*
X114678571Y-83952381D01*
X114869048Y-83952381D01*
X114964286Y-84000000D01*
X115011905Y-84047619D01*
X115059524Y-84142857D01*
X115059524Y-84380952D01*
X115011905Y-84476190D01*
X114964286Y-84523810D01*
X114869048Y-84571429D01*
X114678571Y-84571429D01*
X114583333Y-84523810D01*
X114535714Y-84476190D01*
X114488095Y-84380952D01*
X121392857Y-66202381D02*
X121726191Y-65726190D01*
X121964286Y-66202381D02*
X121964286Y-65202381D01*
X121583333Y-65202381D01*
X121488095Y-65250000D01*
X121440476Y-65297619D01*
X121392857Y-65392857D01*
X121392857Y-65535714D01*
X121440476Y-65630952D01*
X121488095Y-65678571D01*
X121583333Y-65726190D01*
X121964286Y-65726190D01*
X120535714Y-65535714D02*
X120535714Y-66202381D01*
X120773810Y-65154762D02*
X121011905Y-65869048D01*
X120392857Y-65869048D01*
X119821429Y-65202381D02*
X119726190Y-65202381D01*
X119630952Y-65250000D01*
X119583333Y-65297619D01*
X119535714Y-65392857D01*
X119488095Y-65583333D01*
X119488095Y-65821429D01*
X119535714Y-66011905D01*
X119583333Y-66107143D01*
X119630952Y-66154762D01*
X119726190Y-66202381D01*
X119821429Y-66202381D01*
X119916667Y-66154762D01*
X119964286Y-66107143D01*
X120011905Y-66011905D01*
X120059524Y-65821429D01*
X120059524Y-65583333D01*
X120011905Y-65392857D01*
X119964286Y-65297619D01*
X119916667Y-65250000D01*
X119821429Y-65202381D01*
X121392857Y-75452381D02*
X121726191Y-74976190D01*
X121964286Y-75452381D02*
X121964286Y-74452381D01*
X121583333Y-74452381D01*
X121488095Y-74500000D01*
X121440476Y-74547619D01*
X121392857Y-74642857D01*
X121392857Y-74785714D01*
X121440476Y-74880952D01*
X121488095Y-74928571D01*
X121583333Y-74976190D01*
X121964286Y-74976190D01*
X120535714Y-74785714D02*
X120535714Y-75452381D01*
X120773810Y-74404762D02*
X121011905Y-75119048D01*
X120392857Y-75119048D01*
X120107143Y-74452381D02*
X119488095Y-74452381D01*
X119821429Y-74833333D01*
X119678571Y-74833333D01*
X119583333Y-74880952D01*
X119535714Y-74928571D01*
X119488095Y-75023810D01*
X119488095Y-75261905D01*
X119535714Y-75357143D01*
X119583333Y-75404762D01*
X119678571Y-75452381D01*
X119964286Y-75452381D01*
X120059524Y-75404762D01*
X120107143Y-75357143D01*
X116392857Y-82202381D02*
X116726191Y-81726190D01*
X116964286Y-82202381D02*
X116964286Y-81202381D01*
X116583333Y-81202381D01*
X116488095Y-81250000D01*
X116440476Y-81297619D01*
X116392857Y-81392857D01*
X116392857Y-81535714D01*
X116440476Y-81630952D01*
X116488095Y-81678571D01*
X116583333Y-81726190D01*
X116964286Y-81726190D01*
X115535714Y-81535714D02*
X115535714Y-82202381D01*
X115773810Y-81154762D02*
X116011905Y-81869048D01*
X115392857Y-81869048D01*
X114583333Y-81535714D02*
X114583333Y-82202381D01*
X114821429Y-81154762D02*
X115059524Y-81869048D01*
X114440476Y-81869048D01*
X102202381Y-77261905D02*
X103011905Y-77261905D01*
X103107143Y-77309524D01*
X103154762Y-77357143D01*
X103202381Y-77452381D01*
X103202381Y-77642858D01*
X103154762Y-77738096D01*
X103107143Y-77785715D01*
X103011905Y-77833334D01*
X102202381Y-77833334D01*
X103202381Y-78833334D02*
X103202381Y-78261905D01*
X103202381Y-78547619D02*
X102202381Y-78547619D01*
X102345238Y-78452381D01*
X102440476Y-78357143D01*
X102488095Y-78261905D01*
X102202381Y-79166667D02*
X102202381Y-79833334D01*
X103202381Y-79404762D01*
X64714286Y-101202381D02*
X64714286Y-100202381D01*
X64333333Y-100202381D01*
X64238095Y-100250000D01*
X64190476Y-100297619D01*
X64142857Y-100392857D01*
X64142857Y-100535714D01*
X64190476Y-100630952D01*
X64238095Y-100678571D01*
X64333333Y-100726190D01*
X64714286Y-100726190D01*
X63190476Y-101202381D02*
X63761905Y-101202381D01*
X63476191Y-101202381D02*
X63476191Y-100202381D01*
X63571429Y-100345238D01*
X63666667Y-100440476D01*
X63761905Y-100488095D01*
X62857143Y-100202381D02*
X62238095Y-100202381D01*
X62571429Y-100583333D01*
X62428571Y-100583333D01*
X62333333Y-100630952D01*
X62285714Y-100678571D01*
X62238095Y-100773810D01*
X62238095Y-101011905D01*
X62285714Y-101107143D01*
X62333333Y-101154762D01*
X62428571Y-101202381D01*
X62714286Y-101202381D01*
X62809524Y-101154762D01*
X62857143Y-101107143D01*
X64714286Y-82202381D02*
X64714286Y-81202381D01*
X64333333Y-81202381D01*
X64238095Y-81250000D01*
X64190476Y-81297619D01*
X64142857Y-81392857D01*
X64142857Y-81535714D01*
X64190476Y-81630952D01*
X64238095Y-81678571D01*
X64333333Y-81726190D01*
X64714286Y-81726190D01*
X63190476Y-82202381D02*
X63761905Y-82202381D01*
X63476191Y-82202381D02*
X63476191Y-81202381D01*
X63571429Y-81345238D01*
X63666667Y-81440476D01*
X63761905Y-81488095D01*
X62809524Y-81297619D02*
X62761905Y-81250000D01*
X62666667Y-81202381D01*
X62428571Y-81202381D01*
X62333333Y-81250000D01*
X62285714Y-81297619D01*
X62238095Y-81392857D01*
X62238095Y-81488095D01*
X62285714Y-81630952D01*
X62857143Y-82202381D01*
X62238095Y-82202381D01*
X98785714Y-121735714D02*
X98823810Y-121697619D01*
X98861905Y-121583333D01*
X98861905Y-121507143D01*
X98823810Y-121392857D01*
X98747619Y-121316666D01*
X98671429Y-121278571D01*
X98519048Y-121240476D01*
X98404762Y-121240476D01*
X98252381Y-121278571D01*
X98176190Y-121316666D01*
X98100000Y-121392857D01*
X98061905Y-121507143D01*
X98061905Y-121583333D01*
X98100000Y-121697619D01*
X98138095Y-121735714D01*
X98061905Y-122459524D02*
X98061905Y-122078571D01*
X98442857Y-122040476D01*
X98404762Y-122078571D01*
X98366667Y-122154762D01*
X98366667Y-122345238D01*
X98404762Y-122421428D01*
X98442857Y-122459524D01*
X98519048Y-122497619D01*
X98709524Y-122497619D01*
X98785714Y-122459524D01*
X98823810Y-122421428D01*
X98861905Y-122345238D01*
X98861905Y-122154762D01*
X98823810Y-122078571D01*
X98785714Y-122040476D01*
X98061905Y-122992857D02*
X98061905Y-123069048D01*
X98100000Y-123145238D01*
X98138095Y-123183333D01*
X98214286Y-123221429D01*
X98366667Y-123259524D01*
X98557143Y-123259524D01*
X98709524Y-123221429D01*
X98785714Y-123183333D01*
X98823810Y-123145238D01*
X98861905Y-123069048D01*
X98861905Y-122992857D01*
X98823810Y-122916667D01*
X98785714Y-122878571D01*
X98709524Y-122840476D01*
X98557143Y-122802381D01*
X98366667Y-122802381D01*
X98214286Y-122840476D01*
X98138095Y-122878571D01*
X98100000Y-122916667D01*
X98061905Y-122992857D01*
X102738095Y-72702381D02*
X102738095Y-71702381D01*
X102500000Y-71702381D01*
X102357142Y-71750000D01*
X102261904Y-71845238D01*
X102214285Y-71940476D01*
X102166666Y-72130952D01*
X102166666Y-72273810D01*
X102214285Y-72464286D01*
X102261904Y-72559524D01*
X102357142Y-72654762D01*
X102500000Y-72702381D01*
X102738095Y-72702381D01*
X101261904Y-71702381D02*
X101738095Y-71702381D01*
X101785714Y-72178571D01*
X101738095Y-72130952D01*
X101642857Y-72083333D01*
X101404761Y-72083333D01*
X101309523Y-72130952D01*
X101261904Y-72178571D01*
X101214285Y-72273810D01*
X101214285Y-72511905D01*
X101261904Y-72607143D01*
X101309523Y-72654762D01*
X101404761Y-72702381D01*
X101642857Y-72702381D01*
X101738095Y-72654762D01*
X101785714Y-72607143D01*
X98892857Y-72702381D02*
X99226191Y-72226190D01*
X99464286Y-72702381D02*
X99464286Y-71702381D01*
X99083333Y-71702381D01*
X98988095Y-71750000D01*
X98940476Y-71797619D01*
X98892857Y-71892857D01*
X98892857Y-72035714D01*
X98940476Y-72130952D01*
X98988095Y-72178571D01*
X99083333Y-72226190D01*
X99464286Y-72226190D01*
X98035714Y-72035714D02*
X98035714Y-72702381D01*
X98273810Y-71654762D02*
X98511905Y-72369048D01*
X97892857Y-72369048D01*
X97035714Y-71702381D02*
X97511905Y-71702381D01*
X97559524Y-72178571D01*
X97511905Y-72130952D01*
X97416667Y-72083333D01*
X97178571Y-72083333D01*
X97083333Y-72130952D01*
X97035714Y-72178571D01*
X96988095Y-72273810D01*
X96988095Y-72511905D01*
X97035714Y-72607143D01*
X97083333Y-72654762D01*
X97178571Y-72702381D01*
X97416667Y-72702381D01*
X97511905Y-72654762D01*
X97559524Y-72607143D01*
%LPC*%
D12*
X79500000Y-120750000D02*
X78500000Y-120750000D01*
X88000000Y-121000000D02*
X89000000Y-121000000D01*
X86500000Y-78750000D02*
X87500000Y-78750000D01*
X77000000Y-79000000D02*
X76000000Y-79000000D01*
X125250000Y-105000000D02*
X125250000Y-106000000D01*
X125250000Y-97000000D02*
X125250000Y-96000000D01*
D15*
X101270000Y-81100000D03*
X101270000Y-76900000D03*
X100000000Y-81100000D03*
X100000000Y-76900000D03*
X98730000Y-81100000D03*
X98730000Y-76900000D03*
D16*
X118100000Y-63660908D03*
X118100000Y-61860908D03*
X124900000Y-63510908D03*
X124900000Y-62010908D03*
D17*
X114200000Y-65000000D03*
X112300000Y-65000000D03*
D18*
X74500000Y-106750000D03*
X74500000Y-107250000D03*
X74500000Y-107750000D03*
X74500000Y-108250000D03*
X74500000Y-108750000D03*
X74500000Y-109250000D03*
X74500000Y-109750000D03*
X74500000Y-110250000D03*
D19*
X73000000Y-111750000D03*
X72500000Y-111750000D03*
X72000000Y-111750000D03*
X71500000Y-111750000D03*
X71000000Y-111750000D03*
X70500000Y-111750000D03*
X70000000Y-111750000D03*
X69500000Y-111750000D03*
D18*
X68000000Y-110250000D03*
X68000000Y-109750000D03*
X68000000Y-109250000D03*
X68000000Y-108750000D03*
X68000000Y-108250000D03*
X68000000Y-107750000D03*
X68000000Y-107250000D03*
X68000000Y-106750000D03*
D19*
X69500000Y-105250000D03*
X70000000Y-105250000D03*
X70500000Y-105250000D03*
X71000000Y-105250000D03*
X71500000Y-105250000D03*
X72000000Y-105250000D03*
X72500000Y-105250000D03*
X73000000Y-105250000D03*
D20*
X133905000Y-104700000D03*
X132635000Y-104700000D03*
X131365000Y-104700000D03*
X130095000Y-104700000D03*
X130095000Y-99300000D03*
X131365000Y-99300000D03*
X132635000Y-99300000D03*
X133905000Y-99300000D03*
D21*
X76200000Y-116500000D03*
X76200000Y-114600000D03*
D22*
X86250000Y-135000000D03*
X86250000Y-133000000D03*
D23*
X81750000Y-123500000D03*
X83750000Y-123500000D03*
D22*
X134500000Y-120300000D03*
X134500000Y-122300000D03*
D24*
X105750000Y-65300000D03*
X105750000Y-70200000D03*
D25*
X88800000Y-138000000D03*
X93700000Y-138000000D03*
D17*
X117200000Y-75000000D03*
X115300000Y-75000000D03*
D26*
X92053848Y-80370835D03*
X92258330Y-119562178D03*
X87062178Y-116562178D03*
X86857695Y-83370835D03*
X121000000Y-97000000D03*
X121000000Y-103000000D03*
D22*
X68000000Y-87500000D03*
X68000000Y-89500000D03*
X68000000Y-91500000D03*
X68000000Y-93500000D03*
D17*
X101200000Y-74600000D03*
X99300000Y-74600000D03*
D21*
X121750000Y-69300000D03*
X121750000Y-71200000D03*
D22*
X79500000Y-63000000D03*
X79500000Y-61000000D03*
X86500000Y-63000000D03*
X86500000Y-61000000D03*
X79500000Y-65000000D03*
X79500000Y-67000000D03*
X67500000Y-124250000D03*
X67500000Y-126250000D03*
D23*
X112500000Y-62750000D03*
X114500000Y-62750000D03*
X110250000Y-62750000D03*
X108250000Y-62750000D03*
D22*
X68750000Y-97750000D03*
X68750000Y-99750000D03*
X119750000Y-71250000D03*
X119750000Y-69250000D03*
D23*
X117250000Y-77000000D03*
X115250000Y-77000000D03*
D22*
X86250000Y-137000000D03*
X86250000Y-139000000D03*
X79250000Y-137000000D03*
X79250000Y-139000000D03*
X76750000Y-103000000D03*
X76750000Y-105000000D03*
X76750000Y-106750000D03*
X76750000Y-108750000D03*
X76750000Y-110500000D03*
X76750000Y-112500000D03*
X73750000Y-116250000D03*
X73750000Y-114250000D03*
X71750000Y-114250000D03*
X71750000Y-116250000D03*
X69750000Y-114250000D03*
X69750000Y-116250000D03*
D23*
X133000000Y-83000000D03*
X135000000Y-83000000D03*
X132250000Y-79000000D03*
X134250000Y-79000000D03*
X83000000Y-121000000D03*
X85000000Y-121000000D03*
D22*
X86500000Y-65000000D03*
X86500000Y-67000000D03*
X127500000Y-120300000D03*
X127500000Y-122300000D03*
D23*
X84250000Y-76500000D03*
X82250000Y-76500000D03*
D22*
X134500000Y-126050000D03*
X134500000Y-124050000D03*
X127500000Y-128050000D03*
X127500000Y-130050000D03*
D21*
X70750000Y-101050000D03*
X70750000Y-102950000D03*
X72750000Y-101050000D03*
X72750000Y-102950000D03*
D17*
X73950000Y-118500000D03*
X72050000Y-118500000D03*
D21*
X74750000Y-101050000D03*
X74750000Y-102950000D03*
X70750000Y-99450000D03*
X70750000Y-97550000D03*
X72750000Y-99450000D03*
X72750000Y-97550000D03*
D17*
X136299990Y-80999990D03*
X138199990Y-80999990D03*
D21*
X74750000Y-99450000D03*
X74750000Y-97550000D03*
X68000000Y-101300000D03*
X68000000Y-103200000D03*
D17*
X78550000Y-103250000D03*
X80450000Y-103250000D03*
X80450000Y-105750000D03*
X78550000Y-105750000D03*
X78550000Y-107750000D03*
X80450000Y-107750000D03*
X80450000Y-109750000D03*
X78550000Y-109750000D03*
X78550000Y-111750000D03*
X80450000Y-111750000D03*
X80450000Y-113750000D03*
X78550000Y-113750000D03*
D27*
X76000000Y-125642500D03*
X76000000Y-131357500D03*
X89500000Y-125642500D03*
X89500000Y-131357500D03*
X90000000Y-73857500D03*
X90000000Y-68142500D03*
X76500000Y-74357500D03*
X76500000Y-68642500D03*
D28*
X129892500Y-109000000D03*
X135607500Y-109000000D03*
X129892500Y-95500000D03*
X135607500Y-95500000D03*
D29*
X80300000Y-130405000D03*
X80300000Y-129135000D03*
X80300000Y-127865000D03*
X80300000Y-126595000D03*
X85700000Y-126595000D03*
X85700000Y-127865000D03*
X85700000Y-129135000D03*
X85700000Y-130405000D03*
D20*
X61645000Y-122300000D03*
X62915000Y-122300000D03*
X64185000Y-122300000D03*
X65455000Y-122300000D03*
X65455000Y-127700000D03*
X64185000Y-127700000D03*
X62915000Y-127700000D03*
X61645000Y-127700000D03*
D29*
X85700000Y-69595000D03*
X85700000Y-70865000D03*
X85700000Y-72135000D03*
X85700000Y-73405000D03*
X80300000Y-73405000D03*
X80300000Y-72135000D03*
X80300000Y-70865000D03*
X80300000Y-69595000D03*
D30*
X73000000Y-127000000D03*
X73000000Y-130000000D03*
X92500000Y-127000000D03*
X92500000Y-130000000D03*
X93000000Y-72500000D03*
X93000000Y-69500000D03*
X73500000Y-73000000D03*
X73500000Y-70000000D03*
D31*
X131250000Y-112000000D03*
X134250000Y-112000000D03*
X131250000Y-92500000D03*
X134250000Y-92500000D03*
D17*
X110450000Y-65000000D03*
X108550000Y-65000000D03*
D22*
X134500000Y-128050000D03*
X134500000Y-130050000D03*
X127750000Y-103250000D03*
X127750000Y-101250000D03*
X125250000Y-101500000D03*
X125250000Y-99500000D03*
D32*
X137000000Y-125995000D03*
X137000000Y-128105000D03*
D23*
X79000000Y-123500000D03*
X77000000Y-123500000D03*
D33*
X79000000Y-119605000D03*
X79000000Y-121895000D03*
D23*
X87750000Y-123500000D03*
X85750000Y-123500000D03*
D33*
X88500000Y-119855000D03*
X88500000Y-122145000D03*
D23*
X87500000Y-76250000D03*
X89500000Y-76250000D03*
D33*
X87000000Y-79895000D03*
X87000000Y-77605000D03*
D23*
X78250000Y-76500000D03*
X80250000Y-76500000D03*
D33*
X76500000Y-80145000D03*
X76500000Y-77855000D03*
D22*
X127750000Y-106250000D03*
X127750000Y-108250000D03*
D34*
X124105000Y-105500000D03*
X126395000Y-105500000D03*
D22*
X127750000Y-97250000D03*
X127750000Y-99250000D03*
D34*
X124105000Y-96500000D03*
X126395000Y-96500000D03*
D35*
X81900000Y-62950000D03*
X81900000Y-62000000D03*
X81900000Y-61050000D03*
X84100000Y-61050000D03*
X84100000Y-62950000D03*
X81900000Y-66950000D03*
X81900000Y-66000000D03*
X81900000Y-65050000D03*
X84100000Y-65050000D03*
X84100000Y-66950000D03*
X129900000Y-118250000D03*
X129900000Y-117300000D03*
X129900000Y-116350000D03*
X132100000Y-116350000D03*
X132100000Y-118250000D03*
X129900000Y-122250000D03*
X129900000Y-121300000D03*
X129900000Y-120350000D03*
X132100000Y-120350000D03*
X132100000Y-122250000D03*
X129900000Y-126000000D03*
X129900000Y-125050000D03*
X129900000Y-124100000D03*
X132100000Y-124100000D03*
X132100000Y-126000000D03*
X129900000Y-130000000D03*
X129900000Y-129050000D03*
X129900000Y-128100000D03*
X132100000Y-128100000D03*
X132100000Y-130000000D03*
D24*
X129250000Y-79250000D03*
X129250000Y-76250000D03*
D22*
X79250000Y-135000000D03*
X79250000Y-133000000D03*
X127500000Y-118300000D03*
X127500000Y-116300000D03*
X134500000Y-118300000D03*
X134500000Y-116300000D03*
X127500000Y-126050000D03*
X127500000Y-124050000D03*
D23*
X82500000Y-79000000D03*
X80500000Y-79000000D03*
D32*
X77000000Y-137055000D03*
X77000000Y-134945000D03*
X89000000Y-62945000D03*
X89000000Y-65055000D03*
X137000000Y-118245000D03*
X137000000Y-120355000D03*
D24*
X68750000Y-122450000D03*
X68750000Y-117550000D03*
D25*
X61050000Y-119500000D03*
X65950000Y-119500000D03*
X88800000Y-134000000D03*
X93700000Y-134000000D03*
X76950000Y-62000000D03*
X72050000Y-62000000D03*
X76950000Y-66000000D03*
X72050000Y-66000000D03*
X124950000Y-117300000D03*
X120050000Y-117300000D03*
X124950000Y-121300000D03*
X120050000Y-121300000D03*
X124950000Y-125050000D03*
X120050000Y-125050000D03*
X124950000Y-129050000D03*
X120050000Y-129050000D03*
X129300000Y-85750000D03*
X134200000Y-85750000D03*
X132300000Y-76250000D03*
X137200000Y-76250000D03*
D35*
X128900000Y-82950000D03*
X128900000Y-82000000D03*
X128900000Y-81050000D03*
X131100000Y-81050000D03*
X131100000Y-82950000D03*
X131100000Y-82000000D03*
D36*
X121050000Y-84560000D03*
X121050000Y-83290000D03*
X121050000Y-82020000D03*
X121050000Y-80750000D03*
X121050000Y-79480000D03*
X121050000Y-78210000D03*
X121050000Y-76940000D03*
X126450000Y-76940000D03*
X126450000Y-78210000D03*
X126450000Y-79480000D03*
X126450000Y-80750000D03*
X126450000Y-82020000D03*
X126450000Y-83290000D03*
X126450000Y-84560000D03*
D37*
X109180000Y-66948000D03*
X110450000Y-66948000D03*
X111720000Y-66948000D03*
X112990000Y-66948000D03*
X114260000Y-66948000D03*
X115530000Y-66948000D03*
X116800000Y-66948000D03*
X116800000Y-73298000D03*
X115530000Y-73298000D03*
X112990000Y-73298000D03*
X111720000Y-73298000D03*
X110450000Y-73298000D03*
X109180000Y-73298000D03*
X114260000Y-73298000D03*
D35*
X83850000Y-137050000D03*
X83850000Y-138000000D03*
X83850000Y-138950000D03*
X81650000Y-138950000D03*
X81650000Y-137050000D03*
X83850000Y-133050000D03*
X83850000Y-134000000D03*
X83850000Y-134950000D03*
X81650000Y-134950000D03*
X81650000Y-133050000D03*
D22*
X104601790Y-83500000D03*
X104601790Y-85500000D03*
X123750000Y-69250000D03*
X123750000Y-67250000D03*
D25*
X108301790Y-84500000D03*
X111301790Y-84500000D03*
D22*
X106601790Y-83500000D03*
X106601790Y-85500000D03*
D21*
X67750000Y-113300000D03*
X67750000Y-115200000D03*
D25*
X118200000Y-84500000D03*
X113300000Y-84500000D03*
D17*
X119800000Y-67250000D03*
X121700000Y-67250000D03*
X121700000Y-73250000D03*
X119800000Y-73250000D03*
D25*
X113300000Y-81500000D03*
X118200000Y-81500000D03*
D38*
X104300000Y-76200000D03*
X105570000Y-76200000D03*
X106840000Y-76200000D03*
X108110000Y-76200000D03*
X109380000Y-76200000D03*
X110650000Y-76200000D03*
X111920000Y-76200000D03*
X111920000Y-81600000D03*
X110650000Y-81600000D03*
X109380000Y-81600000D03*
X108110000Y-81600000D03*
X106840000Y-81600000D03*
X105570000Y-81600000D03*
X104300000Y-81600000D03*
D26*
X65000000Y-135000000D03*
X135000000Y-135000000D03*
X65000000Y-65000000D03*
X135000000Y-65000000D03*
X100000000Y-135000000D03*
X100000000Y-65000000D03*
D39*
X65620000Y-102575000D03*
X61420000Y-102575000D03*
X65620000Y-103845000D03*
X61420000Y-103845000D03*
X65620000Y-105115000D03*
X61420000Y-105115000D03*
X65620000Y-106385000D03*
X61420000Y-106385000D03*
X65620000Y-107655000D03*
X61420000Y-107655000D03*
X65620000Y-108925000D03*
X61420000Y-108925000D03*
X65620000Y-110195000D03*
X61420000Y-110195000D03*
X65620000Y-111465000D03*
X61420000Y-111465000D03*
X65620000Y-112735000D03*
X61420000Y-112735000D03*
X65620000Y-114005000D03*
X61420000Y-114005000D03*
X65620000Y-115275000D03*
X61420000Y-115275000D03*
X65620000Y-116545000D03*
X61420000Y-116545000D03*
X65620000Y-83455000D03*
X61420000Y-83455000D03*
X65620000Y-84725000D03*
X61420000Y-84725000D03*
X65620000Y-85995000D03*
X61420000Y-85995000D03*
X65620000Y-87265000D03*
X61420000Y-87265000D03*
X65620000Y-88535000D03*
X61420000Y-88535000D03*
X65620000Y-89805000D03*
X61420000Y-89805000D03*
X65620000Y-91075000D03*
X61420000Y-91075000D03*
X65620000Y-92345000D03*
X61420000Y-92345000D03*
X65620000Y-93615000D03*
X61420000Y-93615000D03*
X65620000Y-94885000D03*
X61420000Y-94885000D03*
X65620000Y-96155000D03*
X61420000Y-96155000D03*
X65620000Y-97425000D03*
X61420000Y-97425000D03*
D25*
X97000000Y-122250000D03*
X100000000Y-122250000D03*
D40*
X103049020Y-70500000D03*
X100950980Y-70500000D03*
D41*
X105000000Y-118750000D03*
X103000000Y-118750000D03*
X101000000Y-118750000D03*
X99000000Y-118750000D03*
X97000000Y-118750000D03*
D17*
X99200000Y-70500000D03*
X97300000Y-70500000D03*
D42*
X79000000Y-121050000D03*
X79000000Y-120450000D03*
X88500000Y-120700000D03*
X88500000Y-121300000D03*
X87000000Y-78450000D03*
X87000000Y-79050000D03*
X76500000Y-79300000D03*
X76500000Y-78700000D03*
D43*
X125550000Y-105500000D03*
X124950000Y-105500000D03*
X124950000Y-96500000D03*
X125550000Y-96500000D03*
D12*
G36*
X95650000Y-118552509D02*
X95650000Y-129150000D01*
X85000000Y-129150000D01*
X84961094Y-129157879D01*
X84928319Y-129180273D01*
X84906839Y-129213654D01*
X84900000Y-129250000D01*
X84900000Y-130400000D01*
X77100000Y-130400000D01*
X77100000Y-128500000D01*
X77092121Y-128461094D01*
X77069727Y-128428319D01*
X77036346Y-128406839D01*
X77000000Y-128400000D01*
X71100000Y-128400000D01*
X71100000Y-124792700D01*
X82790154Y-113600000D01*
X88468862Y-113600000D01*
X95650000Y-118552509D01*
X95650000Y-118552509D01*
G37*
X95650000Y-118552509D02*
X95650000Y-129150000D01*
X85000000Y-129150000D01*
X84961094Y-129157879D01*
X84928319Y-129180273D01*
X84906839Y-129213654D01*
X84900000Y-129250000D01*
X84900000Y-130400000D01*
X77100000Y-130400000D01*
X77100000Y-128500000D01*
X77092121Y-128461094D01*
X77069727Y-128428319D01*
X77036346Y-128406839D01*
X77000000Y-128400000D01*
X71100000Y-128400000D01*
X71100000Y-124792700D01*
X82790154Y-113600000D01*
X88468862Y-113600000D01*
X95650000Y-118552509D01*
G36*
X88650000Y-70750000D02*
X88657879Y-70788906D01*
X88680273Y-70821681D01*
X88713654Y-70843161D01*
X88750000Y-70850000D01*
X94400000Y-70850000D01*
X94400000Y-72250000D01*
X94407879Y-72288906D01*
X94430273Y-72321681D01*
X94463654Y-72343161D01*
X94500000Y-72350000D01*
X95150000Y-72350000D01*
X95150000Y-80726393D01*
X94172944Y-82680504D01*
X88720880Y-86150000D01*
X80537919Y-86150000D01*
X71850000Y-78454986D01*
X71850000Y-71600000D01*
X77250000Y-71600000D01*
X77288906Y-71592121D01*
X77321681Y-71569727D01*
X77343161Y-71536346D01*
X77350000Y-71500000D01*
X77350000Y-70850000D01*
X83000000Y-70850000D01*
X83038906Y-70842121D01*
X83071681Y-70819727D01*
X83093161Y-70786346D01*
X83100000Y-70750000D01*
X83100000Y-69850000D01*
X88650000Y-69850000D01*
X88650000Y-70750000D01*
X88650000Y-70750000D01*
G37*
X88650000Y-70750000D02*
X88657879Y-70788906D01*
X88680273Y-70821681D01*
X88713654Y-70843161D01*
X88750000Y-70850000D01*
X94400000Y-70850000D01*
X94400000Y-72250000D01*
X94407879Y-72288906D01*
X94430273Y-72321681D01*
X94463654Y-72343161D01*
X94500000Y-72350000D01*
X95150000Y-72350000D01*
X95150000Y-80726393D01*
X94172944Y-82680504D01*
X88720880Y-86150000D01*
X80537919Y-86150000D01*
X71850000Y-78454986D01*
X71850000Y-71600000D01*
X77250000Y-71600000D01*
X77288906Y-71592121D01*
X77321681Y-71569727D01*
X77343161Y-71536346D01*
X77350000Y-71500000D01*
X77350000Y-70850000D01*
X83000000Y-70850000D01*
X83038906Y-70842121D01*
X83071681Y-70819727D01*
X83093161Y-70786346D01*
X83100000Y-70750000D01*
X83100000Y-69850000D01*
X88650000Y-69850000D01*
X88650000Y-70750000D01*
G36*
X132400000Y-102750000D02*
X132407879Y-102788906D01*
X132430273Y-102821681D01*
X132463654Y-102843161D01*
X132500000Y-102850000D01*
X133650000Y-102850000D01*
X133650000Y-108400000D01*
X133000000Y-108400000D01*
X132961094Y-108407879D01*
X132928319Y-108430273D01*
X132906839Y-108463654D01*
X132900000Y-108500000D01*
X132900000Y-113400000D01*
X125548460Y-113400000D01*
X118100000Y-103965285D01*
X118100000Y-95037811D01*
X121795127Y-90850000D01*
X132400000Y-90850000D01*
X132400000Y-102750000D01*
X132400000Y-102750000D01*
G37*
X132400000Y-102750000D02*
X132407879Y-102788906D01*
X132430273Y-102821681D01*
X132463654Y-102843161D01*
X132500000Y-102850000D01*
X133650000Y-102850000D01*
X133650000Y-108400000D01*
X133000000Y-108400000D01*
X132961094Y-108407879D01*
X132928319Y-108430273D01*
X132906839Y-108463654D01*
X132900000Y-108500000D01*
X132900000Y-113400000D01*
X125548460Y-113400000D01*
X118100000Y-103965285D01*
X118100000Y-95037811D01*
X121795127Y-90850000D01*
X132400000Y-90850000D01*
X132400000Y-102750000D01*
D44*
G36*
X118373000Y-113073000D02*
X81727000Y-113073000D01*
X81727000Y-87227000D01*
X118373000Y-87227000D01*
X118373000Y-113073000D01*
X118373000Y-113073000D01*
G37*
X118373000Y-113073000D02*
X81727000Y-113073000D01*
X81727000Y-87227000D01*
X118373000Y-87227000D01*
X118373000Y-113073000D01*
M02*
