G04 #@! TF.FileFunction,Paste,Bot*
%FSLAX46Y46*%
G04 Gerber Fmt 4.6, Leading zero omitted, Abs format (unit mm)*
G04 Created by KiCad (PCBNEW 4.0.5+dfsg1-4) date Tue May 23 10:56:57 2017*
%MOMM*%
%LPD*%
G01*
G04 APERTURE LIST*
%ADD10C,0.100000*%
%ADD11R,0.760000X1.800000*%
%ADD12R,2.000000X1.000000*%
%ADD13R,0.700000X1.300000*%
%ADD14R,1.200000X0.280000*%
%ADD15R,0.280000X1.200000*%
%ADD16R,0.600000X1.550000*%
%ADD17R,1.300000X0.700000*%
%ADD18R,1.250000X1.000000*%
%ADD19R,1.000000X1.250000*%
%ADD20R,2.500000X1.000000*%
%ADD21R,1.000000X2.500000*%
%ADD22R,3.180000X1.655000*%
%ADD23R,1.655000X3.180000*%
%ADD24R,1.550000X0.600000*%
%ADD25R,1.600000X1.000000*%
%ADD26R,1.000000X1.600000*%
%ADD27R,0.450000X0.590000*%
%ADD28R,2.600000X0.510000*%
%ADD29R,0.510000X2.600000*%
%ADD30R,1.060000X0.650000*%
%ADD31R,1.500000X0.600000*%
%ADD32R,0.508000X1.143000*%
%ADD33R,0.600000X1.500000*%
%ADD34R,1.800000X0.760000*%
%ADD35R,1.198880X1.198880*%
%ADD36R,1.000000X0.400000*%
%ADD37R,0.400000X1.000000*%
G04 APERTURE END LIST*
D10*
D11*
X101270000Y-81100000D03*
X101270000Y-76900000D03*
X100000000Y-81100000D03*
X100000000Y-76900000D03*
X98730000Y-81100000D03*
X98730000Y-76900000D03*
D12*
X118100000Y-63660908D03*
X118100000Y-61860908D03*
X124900000Y-63510908D03*
X124900000Y-62010908D03*
D13*
X114200000Y-65000000D03*
X112300000Y-65000000D03*
D14*
X74500000Y-106750000D03*
X74500000Y-107250000D03*
X74500000Y-107750000D03*
X74500000Y-108250000D03*
X74500000Y-108750000D03*
X74500000Y-109250000D03*
X74500000Y-109750000D03*
X74500000Y-110250000D03*
D15*
X73000000Y-111750000D03*
X72500000Y-111750000D03*
X72000000Y-111750000D03*
X71500000Y-111750000D03*
X71000000Y-111750000D03*
X70500000Y-111750000D03*
X70000000Y-111750000D03*
X69500000Y-111750000D03*
D14*
X68000000Y-110250000D03*
X68000000Y-109750000D03*
X68000000Y-109250000D03*
X68000000Y-108750000D03*
X68000000Y-108250000D03*
X68000000Y-107750000D03*
X68000000Y-107250000D03*
X68000000Y-106750000D03*
D15*
X69500000Y-105250000D03*
X70000000Y-105250000D03*
X70500000Y-105250000D03*
X71000000Y-105250000D03*
X71500000Y-105250000D03*
X72000000Y-105250000D03*
X72500000Y-105250000D03*
X73000000Y-105250000D03*
D16*
X133905000Y-104700000D03*
X132635000Y-104700000D03*
X131365000Y-104700000D03*
X130095000Y-104700000D03*
X130095000Y-99300000D03*
X131365000Y-99300000D03*
X132635000Y-99300000D03*
X133905000Y-99300000D03*
D17*
X76200000Y-116500000D03*
X76200000Y-114600000D03*
D18*
X86250000Y-135000000D03*
X86250000Y-133000000D03*
D19*
X81750000Y-123500000D03*
X83750000Y-123500000D03*
D18*
X134500000Y-120300000D03*
X134500000Y-122300000D03*
D20*
X105750000Y-65300000D03*
X105750000Y-70200000D03*
D21*
X88800000Y-138000000D03*
X93700000Y-138000000D03*
D13*
X117200000Y-75000000D03*
X115300000Y-75000000D03*
D18*
X68000000Y-87500000D03*
X68000000Y-89500000D03*
X68000000Y-91500000D03*
X68000000Y-93500000D03*
D13*
X101200000Y-74600000D03*
X99300000Y-74600000D03*
D17*
X121750000Y-69300000D03*
X121750000Y-71200000D03*
D18*
X79500000Y-63000000D03*
X79500000Y-61000000D03*
X86500000Y-63000000D03*
X86500000Y-61000000D03*
X79500000Y-65000000D03*
X79500000Y-67000000D03*
X67500000Y-124250000D03*
X67500000Y-126250000D03*
D19*
X112500000Y-62750000D03*
X114500000Y-62750000D03*
X110250000Y-62750000D03*
X108250000Y-62750000D03*
D18*
X68750000Y-97750000D03*
X68750000Y-99750000D03*
X119750000Y-71250000D03*
X119750000Y-69250000D03*
D19*
X117250000Y-77000000D03*
X115250000Y-77000000D03*
D18*
X86250000Y-137000000D03*
X86250000Y-139000000D03*
X79250000Y-137000000D03*
X79250000Y-139000000D03*
X76750000Y-103000000D03*
X76750000Y-105000000D03*
X76750000Y-106750000D03*
X76750000Y-108750000D03*
X76750000Y-110500000D03*
X76750000Y-112500000D03*
X73750000Y-116250000D03*
X73750000Y-114250000D03*
X71750000Y-114250000D03*
X71750000Y-116250000D03*
X69750000Y-114250000D03*
X69750000Y-116250000D03*
D19*
X133000000Y-83000000D03*
X135000000Y-83000000D03*
X132250000Y-79000000D03*
X134250000Y-79000000D03*
X83000000Y-121000000D03*
X85000000Y-121000000D03*
D18*
X86500000Y-65000000D03*
X86500000Y-67000000D03*
X127500000Y-120300000D03*
X127500000Y-122300000D03*
D19*
X84250000Y-76500000D03*
X82250000Y-76500000D03*
D18*
X134500000Y-126050000D03*
X134500000Y-124050000D03*
X127500000Y-128050000D03*
X127500000Y-130050000D03*
D17*
X70750000Y-101050000D03*
X70750000Y-102950000D03*
X72750000Y-101050000D03*
X72750000Y-102950000D03*
D13*
X73950000Y-118500000D03*
X72050000Y-118500000D03*
D17*
X74750000Y-101050000D03*
X74750000Y-102950000D03*
X70750000Y-99450000D03*
X70750000Y-97550000D03*
X72750000Y-99450000D03*
X72750000Y-97550000D03*
D13*
X136299990Y-80999990D03*
X138199990Y-80999990D03*
D17*
X74750000Y-99450000D03*
X74750000Y-97550000D03*
X68000000Y-101300000D03*
X68000000Y-103200000D03*
D13*
X78550000Y-103250000D03*
X80450000Y-103250000D03*
X80450000Y-105750000D03*
X78550000Y-105750000D03*
X78550000Y-107750000D03*
X80450000Y-107750000D03*
X80450000Y-109750000D03*
X78550000Y-109750000D03*
X78550000Y-111750000D03*
X80450000Y-111750000D03*
X80450000Y-113750000D03*
X78550000Y-113750000D03*
D22*
X76000000Y-125642500D03*
X76000000Y-131357500D03*
X89500000Y-125642500D03*
X89500000Y-131357500D03*
X90000000Y-73857500D03*
X90000000Y-68142500D03*
X76500000Y-74357500D03*
X76500000Y-68642500D03*
D23*
X129892500Y-109000000D03*
X135607500Y-109000000D03*
X129892500Y-95500000D03*
X135607500Y-95500000D03*
D24*
X80300000Y-130405000D03*
X80300000Y-129135000D03*
X80300000Y-127865000D03*
X80300000Y-126595000D03*
X85700000Y-126595000D03*
X85700000Y-127865000D03*
X85700000Y-129135000D03*
X85700000Y-130405000D03*
D16*
X61645000Y-122300000D03*
X62915000Y-122300000D03*
X64185000Y-122300000D03*
X65455000Y-122300000D03*
X65455000Y-127700000D03*
X64185000Y-127700000D03*
X62915000Y-127700000D03*
X61645000Y-127700000D03*
D24*
X85700000Y-69595000D03*
X85700000Y-70865000D03*
X85700000Y-72135000D03*
X85700000Y-73405000D03*
X80300000Y-73405000D03*
X80300000Y-72135000D03*
X80300000Y-70865000D03*
X80300000Y-69595000D03*
D25*
X73000000Y-127000000D03*
X73000000Y-130000000D03*
X92500000Y-127000000D03*
X92500000Y-130000000D03*
X93000000Y-72500000D03*
X93000000Y-69500000D03*
X73500000Y-73000000D03*
X73500000Y-70000000D03*
D26*
X131250000Y-112000000D03*
X134250000Y-112000000D03*
X131250000Y-92500000D03*
X134250000Y-92500000D03*
D13*
X110450000Y-65000000D03*
X108550000Y-65000000D03*
D18*
X134500000Y-128050000D03*
X134500000Y-130050000D03*
X127750000Y-103250000D03*
X127750000Y-101250000D03*
X125250000Y-101500000D03*
X125250000Y-99500000D03*
D27*
X137000000Y-125995000D03*
X137000000Y-128105000D03*
D19*
X79000000Y-123500000D03*
X77000000Y-123500000D03*
D28*
X79000000Y-119605000D03*
X79000000Y-121895000D03*
D19*
X87750000Y-123500000D03*
X85750000Y-123500000D03*
D28*
X88500000Y-119855000D03*
X88500000Y-122145000D03*
D19*
X87500000Y-76250000D03*
X89500000Y-76250000D03*
D28*
X87000000Y-79895000D03*
X87000000Y-77605000D03*
D19*
X78250000Y-76500000D03*
X80250000Y-76500000D03*
D28*
X76500000Y-80145000D03*
X76500000Y-77855000D03*
D18*
X127750000Y-106250000D03*
X127750000Y-108250000D03*
D29*
X124105000Y-105500000D03*
X126395000Y-105500000D03*
D18*
X127750000Y-97250000D03*
X127750000Y-99250000D03*
D29*
X124105000Y-96500000D03*
X126395000Y-96500000D03*
D30*
X81900000Y-62950000D03*
X81900000Y-62000000D03*
X81900000Y-61050000D03*
X84100000Y-61050000D03*
X84100000Y-62950000D03*
X81900000Y-66950000D03*
X81900000Y-66000000D03*
X81900000Y-65050000D03*
X84100000Y-65050000D03*
X84100000Y-66950000D03*
X129900000Y-118250000D03*
X129900000Y-117300000D03*
X129900000Y-116350000D03*
X132100000Y-116350000D03*
X132100000Y-118250000D03*
X129900000Y-122250000D03*
X129900000Y-121300000D03*
X129900000Y-120350000D03*
X132100000Y-120350000D03*
X132100000Y-122250000D03*
X129900000Y-126000000D03*
X129900000Y-125050000D03*
X129900000Y-124100000D03*
X132100000Y-124100000D03*
X132100000Y-126000000D03*
X129900000Y-130000000D03*
X129900000Y-129050000D03*
X129900000Y-128100000D03*
X132100000Y-128100000D03*
X132100000Y-130000000D03*
D20*
X129250000Y-79250000D03*
X129250000Y-76250000D03*
D18*
X79250000Y-135000000D03*
X79250000Y-133000000D03*
X127500000Y-118300000D03*
X127500000Y-116300000D03*
X134500000Y-118300000D03*
X134500000Y-116300000D03*
X127500000Y-126050000D03*
X127500000Y-124050000D03*
D19*
X82500000Y-79000000D03*
X80500000Y-79000000D03*
D27*
X77000000Y-137055000D03*
X77000000Y-134945000D03*
X89000000Y-62945000D03*
X89000000Y-65055000D03*
X137000000Y-118245000D03*
X137000000Y-120355000D03*
D20*
X68750000Y-122450000D03*
X68750000Y-117550000D03*
D21*
X61050000Y-119500000D03*
X65950000Y-119500000D03*
X88800000Y-134000000D03*
X93700000Y-134000000D03*
X76950000Y-62000000D03*
X72050000Y-62000000D03*
X76950000Y-66000000D03*
X72050000Y-66000000D03*
X124950000Y-117300000D03*
X120050000Y-117300000D03*
X124950000Y-121300000D03*
X120050000Y-121300000D03*
X124950000Y-125050000D03*
X120050000Y-125050000D03*
X124950000Y-129050000D03*
X120050000Y-129050000D03*
X129300000Y-85750000D03*
X134200000Y-85750000D03*
X132300000Y-76250000D03*
X137200000Y-76250000D03*
D30*
X128900000Y-82950000D03*
X128900000Y-82000000D03*
X128900000Y-81050000D03*
X131100000Y-81050000D03*
X131100000Y-82950000D03*
X131100000Y-82000000D03*
D31*
X121050000Y-84560000D03*
X121050000Y-83290000D03*
X121050000Y-82020000D03*
X121050000Y-80750000D03*
X121050000Y-79480000D03*
X121050000Y-78210000D03*
X121050000Y-76940000D03*
X126450000Y-76940000D03*
X126450000Y-78210000D03*
X126450000Y-79480000D03*
X126450000Y-80750000D03*
X126450000Y-82020000D03*
X126450000Y-83290000D03*
X126450000Y-84560000D03*
D32*
X109180000Y-66948000D03*
X110450000Y-66948000D03*
X111720000Y-66948000D03*
X112990000Y-66948000D03*
X114260000Y-66948000D03*
X115530000Y-66948000D03*
X116800000Y-66948000D03*
X116800000Y-73298000D03*
X115530000Y-73298000D03*
X112990000Y-73298000D03*
X111720000Y-73298000D03*
X110450000Y-73298000D03*
X109180000Y-73298000D03*
X114260000Y-73298000D03*
D30*
X83850000Y-137050000D03*
X83850000Y-138000000D03*
X83850000Y-138950000D03*
X81650000Y-138950000D03*
X81650000Y-137050000D03*
X83850000Y-133050000D03*
X83850000Y-134000000D03*
X83850000Y-134950000D03*
X81650000Y-134950000D03*
X81650000Y-133050000D03*
D18*
X104601790Y-83500000D03*
X104601790Y-85500000D03*
X123750000Y-69250000D03*
X123750000Y-67250000D03*
D21*
X108301790Y-84500000D03*
X111301790Y-84500000D03*
D18*
X106601790Y-83500000D03*
X106601790Y-85500000D03*
D17*
X67750000Y-113300000D03*
X67750000Y-115200000D03*
D21*
X118200000Y-84500000D03*
X113300000Y-84500000D03*
D13*
X119800000Y-67250000D03*
X121700000Y-67250000D03*
X121700000Y-73250000D03*
X119800000Y-73250000D03*
D21*
X113300000Y-81500000D03*
X118200000Y-81500000D03*
D33*
X104300000Y-76200000D03*
X105570000Y-76200000D03*
X106840000Y-76200000D03*
X108110000Y-76200000D03*
X109380000Y-76200000D03*
X110650000Y-76200000D03*
X111920000Y-76200000D03*
X111920000Y-81600000D03*
X110650000Y-81600000D03*
X109380000Y-81600000D03*
X108110000Y-81600000D03*
X106840000Y-81600000D03*
X105570000Y-81600000D03*
X104300000Y-81600000D03*
D34*
X65620000Y-102575000D03*
X61420000Y-102575000D03*
X65620000Y-103845000D03*
X61420000Y-103845000D03*
X65620000Y-105115000D03*
X61420000Y-105115000D03*
X65620000Y-106385000D03*
X61420000Y-106385000D03*
X65620000Y-107655000D03*
X61420000Y-107655000D03*
X65620000Y-108925000D03*
X61420000Y-108925000D03*
X65620000Y-110195000D03*
X61420000Y-110195000D03*
X65620000Y-111465000D03*
X61420000Y-111465000D03*
X65620000Y-112735000D03*
X61420000Y-112735000D03*
X65620000Y-114005000D03*
X61420000Y-114005000D03*
X65620000Y-115275000D03*
X61420000Y-115275000D03*
X65620000Y-116545000D03*
X61420000Y-116545000D03*
X65620000Y-83455000D03*
X61420000Y-83455000D03*
X65620000Y-84725000D03*
X61420000Y-84725000D03*
X65620000Y-85995000D03*
X61420000Y-85995000D03*
X65620000Y-87265000D03*
X61420000Y-87265000D03*
X65620000Y-88535000D03*
X61420000Y-88535000D03*
X65620000Y-89805000D03*
X61420000Y-89805000D03*
X65620000Y-91075000D03*
X61420000Y-91075000D03*
X65620000Y-92345000D03*
X61420000Y-92345000D03*
X65620000Y-93615000D03*
X61420000Y-93615000D03*
X65620000Y-94885000D03*
X61420000Y-94885000D03*
X65620000Y-96155000D03*
X61420000Y-96155000D03*
X65620000Y-97425000D03*
X61420000Y-97425000D03*
D21*
X97000000Y-122250000D03*
X100000000Y-122250000D03*
D35*
X103049020Y-70500000D03*
X100950980Y-70500000D03*
D13*
X99200000Y-70500000D03*
X97300000Y-70500000D03*
D36*
X79000000Y-121050000D03*
X79000000Y-120450000D03*
X88500000Y-120700000D03*
X88500000Y-121300000D03*
X87000000Y-78450000D03*
X87000000Y-79050000D03*
X76500000Y-79300000D03*
X76500000Y-78700000D03*
D37*
X125550000Y-105500000D03*
X124950000Y-105500000D03*
X124950000Y-96500000D03*
X125550000Y-96500000D03*
M02*
