G04 #@! TF.FileFunction,Soldermask,Bot*
%FSLAX46Y46*%
G04 Gerber Fmt 4.6, Leading zero omitted, Abs format (unit mm)*
G04 Created by KiCad (PCBNEW 4.0.5+dfsg1-4) date Thu May  3 17:22:11 2018*
%MOMM*%
%LPD*%
G01*
G04 APERTURE LIST*
%ADD10C,0.100000*%
G04 APERTURE END LIST*
D10*
G36*
X90950000Y-140650000D02*
X87450000Y-140650000D01*
X87450000Y-139450000D01*
X89687500Y-139450000D01*
X89704912Y-139447526D01*
X89720945Y-139440298D01*
X89734331Y-139428890D01*
X89744008Y-139414205D01*
X89749210Y-139397405D01*
X89750000Y-139387500D01*
X89750000Y-137150000D01*
X90950000Y-137150000D01*
X90950000Y-140650000D01*
X90950000Y-140650000D01*
G37*
G36*
X85550000Y-140650000D02*
X82450000Y-140650000D01*
X82450000Y-139450000D01*
X85550000Y-139450000D01*
X85550000Y-140650000D01*
X85550000Y-140650000D01*
G37*
G36*
X78050000Y-140650000D02*
X74950000Y-140650000D01*
X74950000Y-139450000D01*
X78050000Y-139450000D01*
X78050000Y-140650000D01*
X78050000Y-140650000D01*
G37*
G36*
X70750000Y-139387500D02*
X70752474Y-139404912D01*
X70759702Y-139420945D01*
X70771110Y-139434331D01*
X70785795Y-139444008D01*
X70802595Y-139449210D01*
X70812500Y-139450000D01*
X73050000Y-139450000D01*
X73050000Y-140650000D01*
X69550000Y-140650000D01*
X69550000Y-137150000D01*
X70750000Y-137150000D01*
X70750000Y-139387500D01*
X70750000Y-139387500D01*
G37*
G36*
X83950000Y-137500000D02*
X81250000Y-137500000D01*
X81250000Y-136300000D01*
X83950000Y-136300000D01*
X83950000Y-137500000D01*
X83950000Y-137500000D01*
G37*
G36*
X79700000Y-137500000D02*
X77000000Y-137500000D01*
X77000000Y-136300000D01*
X79700000Y-136300000D01*
X79700000Y-137500000D01*
X79700000Y-137500000D01*
G37*
G36*
X135220572Y-132901396D02*
X135623992Y-132984206D01*
X136003642Y-133143796D01*
X136345070Y-133374092D01*
X136635259Y-133666314D01*
X136863164Y-134009341D01*
X137020100Y-134390094D01*
X137100006Y-134793653D01*
X137100006Y-134793659D01*
X137100090Y-134794084D01*
X137093522Y-135264473D01*
X137093427Y-135264890D01*
X137093427Y-135264902D01*
X137002283Y-135666070D01*
X136834776Y-136042297D01*
X136597382Y-136378826D01*
X136299148Y-136662830D01*
X135951423Y-136883503D01*
X135567463Y-137032432D01*
X135161891Y-137103945D01*
X134750150Y-137095319D01*
X134347926Y-137006885D01*
X133970534Y-136842006D01*
X133632362Y-136606972D01*
X133346278Y-136310722D01*
X133123187Y-135964553D01*
X132971580Y-135581638D01*
X132897238Y-135176576D01*
X132902987Y-134764780D01*
X132988612Y-134361951D01*
X133150849Y-133983422D01*
X133383521Y-133643614D01*
X133677764Y-133355469D01*
X134022371Y-133129965D01*
X134404213Y-132975691D01*
X134808753Y-132898521D01*
X135220572Y-132901396D01*
X135220572Y-132901396D01*
G37*
G36*
X65220572Y-132901396D02*
X65623992Y-132984206D01*
X66003642Y-133143796D01*
X66345070Y-133374092D01*
X66635259Y-133666314D01*
X66863164Y-134009341D01*
X67020100Y-134390094D01*
X67100006Y-134793653D01*
X67100006Y-134793659D01*
X67100090Y-134794084D01*
X67093522Y-135264473D01*
X67093427Y-135264890D01*
X67093427Y-135264902D01*
X67002283Y-135666070D01*
X66834776Y-136042297D01*
X66597382Y-136378826D01*
X66299148Y-136662830D01*
X65951423Y-136883503D01*
X65567463Y-137032432D01*
X65161891Y-137103945D01*
X64750150Y-137095319D01*
X64347926Y-137006885D01*
X63970534Y-136842006D01*
X63632362Y-136606972D01*
X63346278Y-136310722D01*
X63123187Y-135964553D01*
X62971580Y-135581638D01*
X62897238Y-135176576D01*
X62902987Y-134764780D01*
X62988612Y-134361951D01*
X63150849Y-133983422D01*
X63383521Y-133643614D01*
X63677764Y-133355469D01*
X64022371Y-133129965D01*
X64404213Y-132975691D01*
X64808753Y-132898521D01*
X65220572Y-132901396D01*
X65220572Y-132901396D01*
G37*
G36*
X99850000Y-135900000D02*
X98650000Y-135900000D01*
X98650000Y-134100000D01*
X99850000Y-134100000D01*
X99850000Y-135900000D01*
X99850000Y-135900000D01*
G37*
G36*
X96850000Y-135900000D02*
X95650000Y-135900000D01*
X95650000Y-134100000D01*
X96850000Y-134100000D01*
X96850000Y-135900000D01*
X96850000Y-135900000D01*
G37*
G36*
X70750000Y-135250000D02*
X69550000Y-135250000D01*
X69550000Y-132150000D01*
X70750000Y-132150000D01*
X70750000Y-135250000D01*
X70750000Y-135250000D01*
G37*
G36*
X90950000Y-135250000D02*
X89750000Y-135250000D01*
X89750000Y-132150000D01*
X90950000Y-132150000D01*
X90950000Y-135250000D01*
X90950000Y-135250000D01*
G37*
G36*
X83950000Y-134500000D02*
X81250000Y-134500000D01*
X81250000Y-133300000D01*
X83950000Y-133300000D01*
X83950000Y-134500000D01*
X83950000Y-134500000D01*
G37*
G36*
X79700000Y-134500000D02*
X77000000Y-134500000D01*
X77000000Y-133300000D01*
X79700000Y-133300000D01*
X79700000Y-134500000D01*
X79700000Y-134500000D01*
G37*
G36*
X86250000Y-121687500D02*
X86252474Y-121704912D01*
X86259702Y-121720945D01*
X86271110Y-121734331D01*
X86285795Y-121744008D01*
X86302595Y-121749210D01*
X86312500Y-121750000D01*
X88000000Y-121750000D01*
X88000000Y-127187500D01*
X88002474Y-127204912D01*
X88009702Y-127220945D01*
X88021110Y-127234331D01*
X88035795Y-127244008D01*
X88052595Y-127249210D01*
X88062500Y-127250000D01*
X89500000Y-127250000D01*
X89500000Y-127961373D01*
X89502474Y-127978785D01*
X89509702Y-127994818D01*
X89521110Y-128008204D01*
X89534546Y-128017273D01*
X90000000Y-128250000D01*
X90000000Y-130200000D01*
X89162500Y-130200000D01*
X89145088Y-130202474D01*
X89129055Y-130209702D01*
X89115669Y-130221110D01*
X89105992Y-130235795D01*
X89100790Y-130252595D01*
X89100000Y-130262500D01*
X89100000Y-132150000D01*
X84350000Y-132150000D01*
X84350000Y-130325888D01*
X84347526Y-130308476D01*
X84340298Y-130292443D01*
X84331694Y-130281694D01*
X83968306Y-129918306D01*
X83954244Y-129907743D01*
X83937796Y-129901517D01*
X83924112Y-129900000D01*
X82275888Y-129900000D01*
X82258476Y-129902474D01*
X82242443Y-129909702D01*
X82231694Y-129918306D01*
X82121694Y-130028306D01*
X82111131Y-130042368D01*
X82104905Y-130058816D01*
X82104496Y-130063950D01*
X82087845Y-130068457D01*
X82068306Y-130081694D01*
X82000000Y-130150000D01*
X81700000Y-130150000D01*
X81700000Y-127550000D01*
X82331694Y-126918306D01*
X82342257Y-126904244D01*
X82348483Y-126887796D01*
X82350000Y-126874112D01*
X82350000Y-124712500D01*
X82347526Y-124695088D01*
X82340298Y-124679055D01*
X82328890Y-124665669D01*
X82314205Y-124655992D01*
X82297405Y-124650790D01*
X82287500Y-124650000D01*
X78412500Y-124650000D01*
X78395088Y-124652474D01*
X78379055Y-124659702D01*
X78365669Y-124671110D01*
X78355992Y-124685795D01*
X78350790Y-124702595D01*
X78350000Y-124712500D01*
X78350000Y-127150000D01*
X76412500Y-127150000D01*
X76395088Y-127152474D01*
X76379055Y-127159702D01*
X76365669Y-127171110D01*
X76355992Y-127185795D01*
X76350790Y-127202595D01*
X76350000Y-127212500D01*
X76350000Y-128587500D01*
X76352474Y-128604912D01*
X76359702Y-128620945D01*
X76371110Y-128634331D01*
X76385795Y-128644008D01*
X76402595Y-128649210D01*
X76412500Y-128650000D01*
X79050000Y-128650000D01*
X79050000Y-131350000D01*
X78700000Y-131350000D01*
X78518306Y-131168306D01*
X78504244Y-131157743D01*
X78487796Y-131151517D01*
X78474112Y-131150000D01*
X76875888Y-131150000D01*
X76858476Y-131152474D01*
X76842443Y-131159702D01*
X76831694Y-131168306D01*
X76701694Y-131298306D01*
X76691131Y-131312368D01*
X76688938Y-131318161D01*
X76687845Y-131318457D01*
X76668306Y-131331694D01*
X76618306Y-131381694D01*
X76607743Y-131395756D01*
X76601517Y-131412204D01*
X76600000Y-131425888D01*
X76600000Y-133400000D01*
X71500000Y-133400000D01*
X71500000Y-131062500D01*
X71497526Y-131045088D01*
X71490298Y-131029055D01*
X71478890Y-131015669D01*
X71464205Y-131005992D01*
X71447405Y-131000790D01*
X71437500Y-131000000D01*
X70750000Y-131000000D01*
X70750000Y-129500000D01*
X71250000Y-128500000D01*
X72687500Y-128500000D01*
X72704912Y-128497526D01*
X72720945Y-128490298D01*
X72734331Y-128478890D01*
X72744008Y-128464205D01*
X72749210Y-128447405D01*
X72750000Y-128437500D01*
X72750000Y-121750000D01*
X77287500Y-121750000D01*
X77304912Y-121747526D01*
X77320945Y-121740298D01*
X77334331Y-121728890D01*
X77344008Y-121714205D01*
X77349210Y-121697405D01*
X77350000Y-121687500D01*
X77350000Y-120750000D01*
X86250000Y-120750000D01*
X86250000Y-121687500D01*
X86250000Y-121687500D01*
G37*
G36*
X99850000Y-133400000D02*
X98650000Y-133400000D01*
X98650000Y-131600000D01*
X99850000Y-131600000D01*
X99850000Y-133400000D01*
X99850000Y-133400000D01*
G37*
G36*
X96850000Y-133400000D02*
X95650000Y-133400000D01*
X95650000Y-131600000D01*
X96850000Y-131600000D01*
X96850000Y-133400000D01*
X96850000Y-133400000D01*
G37*
G36*
X78525000Y-132205000D02*
X76775000Y-132205000D01*
X76775000Y-131405000D01*
X78525000Y-131405000D01*
X78525000Y-132205000D01*
X78525000Y-132205000D01*
G37*
G36*
X83925000Y-132205000D02*
X82175000Y-132205000D01*
X82175000Y-131405000D01*
X83925000Y-131405000D01*
X83925000Y-132205000D01*
X83925000Y-132205000D01*
G37*
G36*
X128400000Y-131600000D02*
X126600000Y-131600000D01*
X126600000Y-130400000D01*
X128400000Y-130400000D01*
X128400000Y-131600000D01*
X128400000Y-131600000D01*
G37*
G36*
X83925000Y-130935000D02*
X82175000Y-130935000D01*
X82175000Y-130135000D01*
X83925000Y-130135000D01*
X83925000Y-130935000D01*
X83925000Y-130935000D01*
G37*
G36*
X99850000Y-130900000D02*
X98650000Y-130900000D01*
X98650000Y-129100000D01*
X99850000Y-129100000D01*
X99850000Y-130900000D01*
X99850000Y-130900000D01*
G37*
G36*
X96850000Y-130900000D02*
X95650000Y-130900000D01*
X95650000Y-129100000D01*
X96850000Y-129100000D01*
X96850000Y-130900000D01*
X96850000Y-130900000D01*
G37*
G36*
X114700000Y-130600000D02*
X111600000Y-130600000D01*
X111600000Y-125000000D01*
X114700000Y-125000000D01*
X114700000Y-130600000D01*
X114700000Y-130600000D01*
G37*
G36*
X104800000Y-130600000D02*
X101700000Y-130600000D01*
X101700000Y-125000000D01*
X104800000Y-125000000D01*
X104800000Y-130600000D01*
X104800000Y-130600000D01*
G37*
G36*
X120100000Y-130200000D02*
X119000000Y-130200000D01*
X119000000Y-128300000D01*
X120100000Y-128300000D01*
X120100000Y-130200000D01*
X120100000Y-130200000D01*
G37*
G36*
X123000000Y-130200000D02*
X121900000Y-130200000D01*
X121900000Y-128300000D01*
X123000000Y-128300000D01*
X123000000Y-130200000D01*
X123000000Y-130200000D01*
G37*
G36*
X130900000Y-129350000D02*
X129100000Y-129350000D01*
X129100000Y-128150000D01*
X130900000Y-128150000D01*
X130900000Y-129350000D01*
X130900000Y-129350000D01*
G37*
G36*
X135900000Y-129350000D02*
X134100000Y-129350000D01*
X134100000Y-128150000D01*
X135900000Y-128150000D01*
X135900000Y-129350000D01*
X135900000Y-129350000D01*
G37*
G36*
X138400000Y-129350000D02*
X136600000Y-129350000D01*
X136600000Y-128150000D01*
X138400000Y-128150000D01*
X138400000Y-129350000D01*
X138400000Y-129350000D01*
G37*
G36*
X140900000Y-129350000D02*
X139100000Y-129350000D01*
X139100000Y-128150000D01*
X140900000Y-128150000D01*
X140900000Y-129350000D01*
X140900000Y-129350000D01*
G37*
G36*
X133400000Y-129350000D02*
X131600000Y-129350000D01*
X131600000Y-128150000D01*
X133400000Y-128150000D01*
X133400000Y-129350000D01*
X133400000Y-129350000D01*
G37*
G36*
X128400000Y-128600000D02*
X126600000Y-128600000D01*
X126600000Y-127400000D01*
X128400000Y-127400000D01*
X128400000Y-128600000D01*
X128400000Y-128600000D01*
G37*
G36*
X99850000Y-128400000D02*
X98650000Y-128400000D01*
X98650000Y-126600000D01*
X99850000Y-126600000D01*
X99850000Y-128400000D01*
X99850000Y-128400000D01*
G37*
G36*
X96850000Y-128400000D02*
X95650000Y-128400000D01*
X95650000Y-126600000D01*
X96850000Y-126600000D01*
X96850000Y-128400000D01*
X96850000Y-128400000D01*
G37*
G36*
X78525000Y-128395000D02*
X76775000Y-128395000D01*
X76775000Y-127595000D01*
X78525000Y-127595000D01*
X78525000Y-128395000D01*
X78525000Y-128395000D01*
G37*
G36*
X70750000Y-127750000D02*
X69550000Y-127750000D01*
X69550000Y-124650000D01*
X70750000Y-124650000D01*
X70750000Y-127750000D01*
X70750000Y-127750000D01*
G37*
G36*
X90950000Y-127750000D02*
X89750000Y-127750000D01*
X89750000Y-124650000D01*
X90950000Y-124650000D01*
X90950000Y-127750000D01*
X90950000Y-127750000D01*
G37*
G36*
X93225000Y-127600000D02*
X91775000Y-127600000D01*
X91775000Y-126400000D01*
X93225000Y-126400000D01*
X93225000Y-127600000D01*
X93225000Y-127600000D01*
G37*
G36*
X124600000Y-126900000D02*
X119000000Y-126900000D01*
X119000000Y-123800000D01*
X124600000Y-123800000D01*
X124600000Y-126900000D01*
X124600000Y-126900000D01*
G37*
G36*
X81950000Y-126625000D02*
X80750000Y-126625000D01*
X80750000Y-125175000D01*
X81950000Y-125175000D01*
X81950000Y-126625000D01*
X81950000Y-126625000D01*
G37*
G36*
X79950000Y-126625000D02*
X78750000Y-126625000D01*
X78750000Y-125175000D01*
X79950000Y-125175000D01*
X79950000Y-126625000D01*
X79950000Y-126625000D01*
G37*
G36*
X130900000Y-126350000D02*
X129100000Y-126350000D01*
X129100000Y-125150000D01*
X130900000Y-125150000D01*
X130900000Y-126350000D01*
X130900000Y-126350000D01*
G37*
G36*
X133400000Y-126350000D02*
X131600000Y-126350000D01*
X131600000Y-125150000D01*
X133400000Y-125150000D01*
X133400000Y-126350000D01*
X133400000Y-126350000D01*
G37*
G36*
X135900000Y-126350000D02*
X134100000Y-126350000D01*
X134100000Y-125150000D01*
X135900000Y-125150000D01*
X135900000Y-126350000D01*
X135900000Y-126350000D01*
G37*
G36*
X140900000Y-126350000D02*
X139100000Y-126350000D01*
X139100000Y-125150000D01*
X140900000Y-125150000D01*
X140900000Y-126350000D01*
X140900000Y-126350000D01*
G37*
G36*
X138400000Y-126350000D02*
X136600000Y-126350000D01*
X136600000Y-125150000D01*
X138400000Y-125150000D01*
X138400000Y-126350000D01*
X138400000Y-126350000D01*
G37*
G36*
X96850000Y-125900000D02*
X95650000Y-125900000D01*
X95650000Y-124100000D01*
X96850000Y-124100000D01*
X96850000Y-125900000D01*
X96850000Y-125900000D01*
G37*
G36*
X99850000Y-125900000D02*
X98650000Y-125900000D01*
X98650000Y-124100000D01*
X99850000Y-124100000D01*
X99850000Y-125900000D01*
X99850000Y-125900000D01*
G37*
G36*
X93225000Y-125600000D02*
X91775000Y-125600000D01*
X91775000Y-124400000D01*
X93225000Y-124400000D01*
X93225000Y-125600000D01*
X93225000Y-125600000D01*
G37*
G36*
X137800000Y-124750000D02*
X132200000Y-124750000D01*
X132200000Y-121650000D01*
X137800000Y-121650000D01*
X137800000Y-124750000D01*
X137800000Y-124750000D01*
G37*
G36*
X99850000Y-123400000D02*
X98650000Y-123400000D01*
X98650000Y-121600000D01*
X99850000Y-121600000D01*
X99850000Y-123400000D01*
X99850000Y-123400000D01*
G37*
G36*
X96850000Y-123400000D02*
X95650000Y-123400000D01*
X95650000Y-121600000D01*
X96850000Y-121600000D01*
X96850000Y-123400000D01*
X96850000Y-123400000D01*
G37*
G36*
X65500000Y-123025000D02*
X64300000Y-123025000D01*
X64300000Y-121575000D01*
X65500000Y-121575000D01*
X65500000Y-123025000D01*
X65500000Y-123025000D01*
G37*
G36*
X67500000Y-123025000D02*
X66300000Y-123025000D01*
X66300000Y-121575000D01*
X67500000Y-121575000D01*
X67500000Y-123025000D01*
X67500000Y-123025000D01*
G37*
G36*
X73050000Y-120450000D02*
X70812500Y-120450000D01*
X70795088Y-120452474D01*
X70779055Y-120459702D01*
X70765669Y-120471110D01*
X70755992Y-120485795D01*
X70750790Y-120502595D01*
X70750000Y-120512500D01*
X70750000Y-122750000D01*
X69550000Y-122750000D01*
X69550000Y-119250000D01*
X73050000Y-119250000D01*
X73050000Y-120450000D01*
X73050000Y-120450000D01*
G37*
G36*
X90950000Y-122750000D02*
X89750000Y-122750000D01*
X89750000Y-120512500D01*
X89747526Y-120495088D01*
X89740298Y-120479055D01*
X89728890Y-120465669D01*
X89714205Y-120455992D01*
X89697405Y-120450790D01*
X89687500Y-120450000D01*
X87450000Y-120450000D01*
X87450000Y-119250000D01*
X90950000Y-119250000D01*
X90950000Y-122750000D01*
X90950000Y-122750000D01*
G37*
G36*
X62450000Y-122600000D02*
X60550000Y-122600000D01*
X60550000Y-121500000D01*
X62450000Y-121500000D01*
X62450000Y-122600000D01*
X62450000Y-122600000D01*
G37*
G36*
X65000000Y-121050000D02*
X63800000Y-121050000D01*
X63800000Y-118350000D01*
X65000000Y-118350000D01*
X65000000Y-121050000D01*
X65000000Y-121050000D01*
G37*
G36*
X68000000Y-121050000D02*
X66800000Y-121050000D01*
X66800000Y-118350000D01*
X68000000Y-118350000D01*
X68000000Y-121050000D01*
X68000000Y-121050000D01*
G37*
G36*
X85550000Y-120450000D02*
X82450000Y-120450000D01*
X82450000Y-119250000D01*
X85550000Y-119250000D01*
X85550000Y-120450000D01*
X85550000Y-120450000D01*
G37*
G36*
X78050000Y-120450000D02*
X74950000Y-120450000D01*
X74950000Y-119250000D01*
X78050000Y-119250000D01*
X78050000Y-120450000D01*
X78050000Y-120450000D01*
G37*
G36*
X99600000Y-120350000D02*
X98400000Y-120350000D01*
X98400000Y-117150000D01*
X99600000Y-117150000D01*
X99600000Y-120350000D01*
X99600000Y-120350000D01*
G37*
G36*
X97600000Y-120350000D02*
X96400000Y-120350000D01*
X96400000Y-117150000D01*
X97600000Y-117150000D01*
X97600000Y-120350000D01*
X97600000Y-120350000D01*
G37*
G36*
X105600000Y-120350000D02*
X104400000Y-120350000D01*
X104400000Y-117150000D01*
X105600000Y-117150000D01*
X105600000Y-120350000D01*
X105600000Y-120350000D01*
G37*
G36*
X103600000Y-120350000D02*
X102400000Y-120350000D01*
X102400000Y-117150000D01*
X103600000Y-117150000D01*
X103600000Y-120350000D01*
X103600000Y-120350000D01*
G37*
G36*
X101600000Y-120350000D02*
X100400000Y-120350000D01*
X100400000Y-117150000D01*
X101600000Y-117150000D01*
X101600000Y-120350000D01*
X101600000Y-120350000D01*
G37*
G36*
X62450000Y-119700000D02*
X60550000Y-119700000D01*
X60550000Y-118600000D01*
X62450000Y-118600000D01*
X62450000Y-119700000D01*
X62450000Y-119700000D01*
G37*
G36*
X82550000Y-118600000D02*
X79850000Y-118600000D01*
X79850000Y-117400000D01*
X82550000Y-117400000D01*
X82550000Y-118600000D01*
X82550000Y-118600000D01*
G37*
G36*
X79250000Y-118600000D02*
X76550000Y-118600000D01*
X76550000Y-117400000D01*
X79250000Y-117400000D01*
X79250000Y-118600000D01*
X79250000Y-118600000D01*
G37*
G36*
X73100000Y-118550000D02*
X71900000Y-118550000D01*
X71900000Y-115850000D01*
X73100000Y-115850000D01*
X73100000Y-118550000D01*
X73100000Y-118550000D01*
G37*
G36*
X76100000Y-118550000D02*
X74900000Y-118550000D01*
X74900000Y-115850000D01*
X76100000Y-115850000D01*
X76100000Y-118550000D01*
X76100000Y-118550000D01*
G37*
G36*
X84750000Y-117900000D02*
X83250000Y-117900000D01*
X83250000Y-117000000D01*
X84750000Y-117000000D01*
X84750000Y-117900000D01*
X84750000Y-117900000D01*
G37*
G36*
X86750000Y-117900000D02*
X85250000Y-117900000D01*
X85250000Y-117000000D01*
X86750000Y-117000000D01*
X86750000Y-117900000D01*
X86750000Y-117900000D01*
G37*
G36*
X70500000Y-117625000D02*
X69300000Y-117625000D01*
X69300000Y-116175000D01*
X70500000Y-116175000D01*
X70500000Y-117625000D01*
X70500000Y-117625000D01*
G37*
G36*
X68500000Y-117625000D02*
X67300000Y-117625000D01*
X67300000Y-116175000D01*
X68500000Y-116175000D01*
X68500000Y-117625000D01*
X68500000Y-117625000D01*
G37*
G36*
X66620000Y-117025000D02*
X64620000Y-117025000D01*
X64620000Y-116065000D01*
X66620000Y-116065000D01*
X66620000Y-117025000D01*
X66620000Y-117025000D01*
G37*
G36*
X62420000Y-117025000D02*
X60420000Y-117025000D01*
X60420000Y-116065000D01*
X62420000Y-116065000D01*
X62420000Y-117025000D01*
X62420000Y-117025000D01*
G37*
G36*
X124600000Y-117000000D02*
X119000000Y-117000000D01*
X119000000Y-113900000D01*
X124600000Y-113900000D01*
X124600000Y-117000000D01*
X124600000Y-117000000D01*
G37*
G36*
X86750000Y-116000000D02*
X85250000Y-116000000D01*
X85250000Y-115100000D01*
X86750000Y-115100000D01*
X86750000Y-116000000D01*
X86750000Y-116000000D01*
G37*
G36*
X84750000Y-116000000D02*
X83250000Y-116000000D01*
X83250000Y-115100000D01*
X84750000Y-115100000D01*
X84750000Y-116000000D01*
X84750000Y-116000000D01*
G37*
G36*
X66620000Y-115755000D02*
X64620000Y-115755000D01*
X64620000Y-114795000D01*
X66620000Y-114795000D01*
X66620000Y-115755000D01*
X66620000Y-115755000D01*
G37*
G36*
X62420000Y-115755000D02*
X60420000Y-115755000D01*
X60420000Y-114795000D01*
X62420000Y-114795000D01*
X62420000Y-115755000D01*
X62420000Y-115755000D01*
G37*
G36*
X82550000Y-115600000D02*
X79850000Y-115600000D01*
X79850000Y-114400000D01*
X82550000Y-114400000D01*
X82550000Y-115600000D01*
X82550000Y-115600000D01*
G37*
G36*
X79250000Y-115600000D02*
X76550000Y-115600000D01*
X76550000Y-114400000D01*
X79250000Y-114400000D01*
X79250000Y-115600000D01*
X79250000Y-115600000D01*
G37*
G36*
X71500000Y-115550000D02*
X70300000Y-115550000D01*
X70300000Y-112850000D01*
X71500000Y-112850000D01*
X71500000Y-115550000D01*
X71500000Y-115550000D01*
G37*
G36*
X68500000Y-115550000D02*
X67300000Y-115550000D01*
X67300000Y-112850000D01*
X68500000Y-112850000D01*
X68500000Y-115550000D01*
X68500000Y-115550000D01*
G37*
G36*
X73100000Y-115325000D02*
X71900000Y-115325000D01*
X71900000Y-113875000D01*
X73100000Y-113875000D01*
X73100000Y-115325000D01*
X73100000Y-115325000D01*
G37*
G36*
X75100000Y-115325000D02*
X73900000Y-115325000D01*
X73900000Y-113875000D01*
X75100000Y-113875000D01*
X75100000Y-115325000D01*
X75100000Y-115325000D01*
G37*
G36*
X137800000Y-114850000D02*
X132200000Y-114850000D01*
X132200000Y-111750000D01*
X137800000Y-111750000D01*
X137800000Y-114850000D01*
X137800000Y-114850000D01*
G37*
G36*
X66620000Y-114485000D02*
X64620000Y-114485000D01*
X64620000Y-113525000D01*
X66620000Y-113525000D01*
X66620000Y-114485000D01*
X66620000Y-114485000D01*
G37*
G36*
X62420000Y-114485000D02*
X60420000Y-114485000D01*
X60420000Y-113525000D01*
X62420000Y-113525000D01*
X62420000Y-114485000D01*
X62420000Y-114485000D01*
G37*
G36*
X79000000Y-113500000D02*
X78100000Y-113500000D01*
X78100000Y-112000000D01*
X79000000Y-112000000D01*
X79000000Y-113500000D01*
X79000000Y-113500000D01*
G37*
G36*
X80900000Y-113500000D02*
X80000000Y-113500000D01*
X80000000Y-112000000D01*
X80900000Y-112000000D01*
X80900000Y-113500000D01*
X80900000Y-113500000D01*
G37*
G36*
X62420000Y-113215000D02*
X60420000Y-113215000D01*
X60420000Y-112255000D01*
X62420000Y-112255000D01*
X62420000Y-113215000D01*
X62420000Y-113215000D01*
G37*
G36*
X66620000Y-113215000D02*
X64620000Y-113215000D01*
X64620000Y-112255000D01*
X66620000Y-112255000D01*
X66620000Y-113215000D01*
X66620000Y-113215000D01*
G37*
G36*
X118500000Y-113200000D02*
X81600000Y-113200000D01*
X81600000Y-87100000D01*
X118500000Y-87100000D01*
X118500000Y-113200000D01*
X118500000Y-113200000D01*
G37*
G36*
X77475000Y-113100000D02*
X76025000Y-113100000D01*
X76025000Y-111900000D01*
X77475000Y-111900000D01*
X77475000Y-113100000D01*
X77475000Y-113100000D01*
G37*
G36*
X73240000Y-112450000D02*
X69260000Y-112450000D01*
X69260000Y-111050000D01*
X73240000Y-111050000D01*
X73240000Y-112450000D01*
X73240000Y-112450000D01*
G37*
G36*
X62420000Y-111945000D02*
X60420000Y-111945000D01*
X60420000Y-110985000D01*
X62420000Y-110985000D01*
X62420000Y-111945000D01*
X62420000Y-111945000D01*
G37*
G36*
X66620000Y-111945000D02*
X64620000Y-111945000D01*
X64620000Y-110985000D01*
X66620000Y-110985000D01*
X66620000Y-111945000D01*
X66620000Y-111945000D01*
G37*
G36*
X80900000Y-111500000D02*
X80000000Y-111500000D01*
X80000000Y-110000000D01*
X80900000Y-110000000D01*
X80900000Y-111500000D01*
X80900000Y-111500000D01*
G37*
G36*
X79000000Y-111500000D02*
X78100000Y-111500000D01*
X78100000Y-110000000D01*
X79000000Y-110000000D01*
X79000000Y-111500000D01*
X79000000Y-111500000D01*
G37*
G36*
X77475000Y-111100000D02*
X76025000Y-111100000D01*
X76025000Y-109900000D01*
X77475000Y-109900000D01*
X77475000Y-111100000D01*
X77475000Y-111100000D01*
G37*
G36*
X141200000Y-110700000D02*
X137700000Y-110700000D01*
X137700000Y-109500000D01*
X139937500Y-109500000D01*
X139954912Y-109497526D01*
X139970945Y-109490298D01*
X139984331Y-109478890D01*
X139994008Y-109464205D01*
X139999210Y-109447405D01*
X140000000Y-109437500D01*
X140000000Y-107200000D01*
X141200000Y-107200000D01*
X141200000Y-110700000D01*
X141200000Y-110700000D01*
G37*
G36*
X121000000Y-109437500D02*
X121002474Y-109454912D01*
X121009702Y-109470945D01*
X121021110Y-109484331D01*
X121035795Y-109494008D01*
X121052595Y-109499210D01*
X121062500Y-109500000D01*
X123300000Y-109500000D01*
X123300000Y-110700000D01*
X119800000Y-110700000D01*
X119800000Y-107200000D01*
X121000000Y-107200000D01*
X121000000Y-109437500D01*
X121000000Y-109437500D01*
G37*
G36*
X132750000Y-95996274D02*
X131025810Y-95999945D01*
X131008403Y-96002457D01*
X130992385Y-96009718D01*
X130981749Y-96018251D01*
X130681694Y-96318306D01*
X130671131Y-96332368D01*
X130664905Y-96348816D01*
X130664496Y-96353950D01*
X130647845Y-96358457D01*
X130628306Y-96371694D01*
X130518306Y-96481694D01*
X130507743Y-96495756D01*
X130501517Y-96512204D01*
X130500000Y-96525888D01*
X130500000Y-98124112D01*
X130502474Y-98141524D01*
X130509702Y-98157557D01*
X130518306Y-98168306D01*
X130628306Y-98278306D01*
X130630531Y-98279977D01*
X130631694Y-98281694D01*
X130750000Y-98400000D01*
X130750000Y-98650000D01*
X128100000Y-98650000D01*
X128100000Y-98430038D01*
X128097526Y-98412626D01*
X128090298Y-98396593D01*
X128076544Y-98381235D01*
X127617074Y-98013659D01*
X127601935Y-98004716D01*
X127578135Y-97999965D01*
X125312597Y-97996373D01*
X125295183Y-97998820D01*
X125279138Y-98006022D01*
X125265735Y-98017409D01*
X125256035Y-98032079D01*
X125250806Y-98048870D01*
X125250000Y-98058873D01*
X125250000Y-101933774D01*
X125252474Y-101951186D01*
X125259702Y-101967219D01*
X125271110Y-101980605D01*
X125285795Y-101990282D01*
X125302595Y-101995484D01*
X125312500Y-101996274D01*
X127750000Y-101996274D01*
X127750000Y-103933774D01*
X127752474Y-103951186D01*
X127759702Y-103967219D01*
X127771110Y-103980605D01*
X127785795Y-103990282D01*
X127802595Y-103995484D01*
X127812500Y-103996274D01*
X129187500Y-103996274D01*
X129204912Y-103993800D01*
X129220945Y-103986572D01*
X129234331Y-103975164D01*
X129244008Y-103960479D01*
X129249210Y-103943679D01*
X129250000Y-103933774D01*
X129250000Y-101600000D01*
X129500000Y-101350000D01*
X131900000Y-101350000D01*
X131900000Y-101700000D01*
X131768306Y-101831694D01*
X131757743Y-101845756D01*
X131751517Y-101862204D01*
X131750000Y-101875888D01*
X131750000Y-103683774D01*
X131752474Y-103701186D01*
X131759702Y-103717219D01*
X131771110Y-103730605D01*
X131785795Y-103740282D01*
X131802595Y-103745484D01*
X131812500Y-103746274D01*
X134000000Y-103746274D01*
X134000000Y-109437500D01*
X134002474Y-109454912D01*
X134009702Y-109470945D01*
X134021110Y-109484331D01*
X134035795Y-109494008D01*
X134052595Y-109499210D01*
X134062500Y-109500000D01*
X135800000Y-109500000D01*
X135800000Y-110700000D01*
X132700000Y-110700000D01*
X132700000Y-109562500D01*
X132697526Y-109545088D01*
X132690298Y-109529055D01*
X132678890Y-109515669D01*
X132664205Y-109505992D01*
X132647405Y-109500790D01*
X132637500Y-109500000D01*
X129000000Y-109500000D01*
X129000000Y-107562500D01*
X128997526Y-107545088D01*
X128990298Y-107529055D01*
X128978890Y-107515669D01*
X128964205Y-107505992D01*
X128947405Y-107500790D01*
X128937500Y-107500000D01*
X122500000Y-107500000D01*
X122500000Y-104312500D01*
X122497526Y-104295088D01*
X122490298Y-104279055D01*
X122478890Y-104265669D01*
X122464205Y-104255992D01*
X122447405Y-104250790D01*
X122437500Y-104250000D01*
X121250000Y-104250000D01*
X121250000Y-95000000D01*
X122437500Y-95000000D01*
X122454912Y-94997526D01*
X122470945Y-94990298D01*
X122484331Y-94978890D01*
X122494008Y-94964205D01*
X122499210Y-94947405D01*
X122500000Y-94937500D01*
X122500000Y-92500000D01*
X127687500Y-92500000D01*
X127704912Y-92497526D01*
X127720945Y-92490298D01*
X127734331Y-92478890D01*
X127744008Y-92464205D01*
X127749210Y-92447405D01*
X127750000Y-92437500D01*
X127750000Y-90750000D01*
X132750000Y-90746274D01*
X132750000Y-95996274D01*
X132750000Y-95996274D01*
G37*
G36*
X128300000Y-110700000D02*
X125200000Y-110700000D01*
X125200000Y-109500000D01*
X128300000Y-109500000D01*
X128300000Y-110700000D01*
X128300000Y-110700000D01*
G37*
G36*
X62420000Y-110675000D02*
X60420000Y-110675000D01*
X60420000Y-109715000D01*
X62420000Y-109715000D01*
X62420000Y-110675000D01*
X62420000Y-110675000D01*
G37*
G36*
X66620000Y-110675000D02*
X64620000Y-110675000D01*
X64620000Y-109715000D01*
X66620000Y-109715000D01*
X66620000Y-110675000D01*
X66620000Y-110675000D01*
G37*
G36*
X68700000Y-110490000D02*
X67300000Y-110490000D01*
X67300000Y-106510000D01*
X68700000Y-106510000D01*
X68700000Y-110490000D01*
X68700000Y-110490000D01*
G37*
G36*
X75200000Y-110490000D02*
X73800000Y-110490000D01*
X73800000Y-106510000D01*
X75200000Y-106510000D01*
X75200000Y-110490000D01*
X75200000Y-110490000D01*
G37*
G36*
X80900000Y-109500000D02*
X80000000Y-109500000D01*
X80000000Y-108000000D01*
X80900000Y-108000000D01*
X80900000Y-109500000D01*
X80900000Y-109500000D01*
G37*
G36*
X79000000Y-109500000D02*
X78100000Y-109500000D01*
X78100000Y-108000000D01*
X79000000Y-108000000D01*
X79000000Y-109500000D01*
X79000000Y-109500000D01*
G37*
G36*
X66620000Y-109405000D02*
X64620000Y-109405000D01*
X64620000Y-108445000D01*
X66620000Y-108445000D01*
X66620000Y-109405000D01*
X66620000Y-109405000D01*
G37*
G36*
X62420000Y-109405000D02*
X60420000Y-109405000D01*
X60420000Y-108445000D01*
X62420000Y-108445000D01*
X62420000Y-109405000D01*
X62420000Y-109405000D01*
G37*
G36*
X77475000Y-109350000D02*
X76025000Y-109350000D01*
X76025000Y-108150000D01*
X77475000Y-108150000D01*
X77475000Y-109350000D01*
X77475000Y-109350000D01*
G37*
G36*
X62420000Y-108135000D02*
X60420000Y-108135000D01*
X60420000Y-107175000D01*
X62420000Y-107175000D01*
X62420000Y-108135000D01*
X62420000Y-108135000D01*
G37*
G36*
X66620000Y-108135000D02*
X64620000Y-108135000D01*
X64620000Y-107175000D01*
X66620000Y-107175000D01*
X66620000Y-108135000D01*
X66620000Y-108135000D01*
G37*
G36*
X79000000Y-107500000D02*
X78100000Y-107500000D01*
X78100000Y-106000000D01*
X79000000Y-106000000D01*
X79000000Y-107500000D01*
X79000000Y-107500000D01*
G37*
G36*
X80900000Y-107500000D02*
X80000000Y-107500000D01*
X80000000Y-106000000D01*
X80900000Y-106000000D01*
X80900000Y-107500000D01*
X80900000Y-107500000D01*
G37*
G36*
X77475000Y-107350000D02*
X76025000Y-107350000D01*
X76025000Y-106150000D01*
X77475000Y-106150000D01*
X77475000Y-107350000D01*
X77475000Y-107350000D01*
G37*
G36*
X62420000Y-106865000D02*
X60420000Y-106865000D01*
X60420000Y-105905000D01*
X62420000Y-105905000D01*
X62420000Y-106865000D01*
X62420000Y-106865000D01*
G37*
G36*
X66620000Y-106865000D02*
X64620000Y-106865000D01*
X64620000Y-105905000D01*
X66620000Y-105905000D01*
X66620000Y-106865000D01*
X66620000Y-106865000D01*
G37*
G36*
X73240000Y-105950000D02*
X69260000Y-105950000D01*
X69260000Y-104550000D01*
X73240000Y-104550000D01*
X73240000Y-105950000D01*
X73240000Y-105950000D01*
G37*
G36*
X77475000Y-105600000D02*
X76025000Y-105600000D01*
X76025000Y-104400000D01*
X77475000Y-104400000D01*
X77475000Y-105600000D01*
X77475000Y-105600000D01*
G37*
G36*
X62420000Y-105595000D02*
X60420000Y-105595000D01*
X60420000Y-104635000D01*
X62420000Y-104635000D01*
X62420000Y-105595000D01*
X62420000Y-105595000D01*
G37*
G36*
X66620000Y-105595000D02*
X64620000Y-105595000D01*
X64620000Y-104635000D01*
X66620000Y-104635000D01*
X66620000Y-105595000D01*
X66620000Y-105595000D01*
G37*
G36*
X80900000Y-105500000D02*
X80000000Y-105500000D01*
X80000000Y-104000000D01*
X80900000Y-104000000D01*
X80900000Y-105500000D01*
X80900000Y-105500000D01*
G37*
G36*
X79000000Y-105500000D02*
X78100000Y-105500000D01*
X78100000Y-104000000D01*
X79000000Y-104000000D01*
X79000000Y-105500000D01*
X79000000Y-105500000D01*
G37*
G36*
X121000000Y-105300000D02*
X119800000Y-105300000D01*
X119800000Y-102200000D01*
X121000000Y-102200000D01*
X121000000Y-105300000D01*
X121000000Y-105300000D01*
G37*
G36*
X141200000Y-105300000D02*
X140000000Y-105300000D01*
X140000000Y-102200000D01*
X141200000Y-102200000D01*
X141200000Y-105300000D01*
X141200000Y-105300000D01*
G37*
G36*
X62420000Y-104325000D02*
X60420000Y-104325000D01*
X60420000Y-103365000D01*
X62420000Y-103365000D01*
X62420000Y-104325000D01*
X62420000Y-104325000D01*
G37*
G36*
X66620000Y-104325000D02*
X64620000Y-104325000D01*
X64620000Y-103365000D01*
X66620000Y-103365000D01*
X66620000Y-104325000D01*
X66620000Y-104325000D01*
G37*
G36*
X77475000Y-103600000D02*
X76025000Y-103600000D01*
X76025000Y-102400000D01*
X77475000Y-102400000D01*
X77475000Y-103600000D01*
X77475000Y-103600000D01*
G37*
G36*
X132805000Y-103575000D02*
X132005000Y-103575000D01*
X132005000Y-101825000D01*
X132805000Y-101825000D01*
X132805000Y-103575000D01*
X132805000Y-103575000D01*
G37*
G36*
X128995000Y-103575000D02*
X128195000Y-103575000D01*
X128195000Y-101825000D01*
X128995000Y-101825000D01*
X128995000Y-103575000D01*
X128995000Y-103575000D01*
G37*
G36*
X80900000Y-103500000D02*
X80000000Y-103500000D01*
X80000000Y-102000000D01*
X80900000Y-102000000D01*
X80900000Y-103500000D01*
X80900000Y-103500000D01*
G37*
G36*
X79000000Y-103500000D02*
X78100000Y-103500000D01*
X78100000Y-102000000D01*
X79000000Y-102000000D01*
X79000000Y-103500000D01*
X79000000Y-103500000D01*
G37*
G36*
X71250000Y-103400000D02*
X69750000Y-103400000D01*
X69750000Y-102500000D01*
X71250000Y-102500000D01*
X71250000Y-103400000D01*
X71250000Y-103400000D01*
G37*
G36*
X73250000Y-103400000D02*
X71750000Y-103400000D01*
X71750000Y-102500000D01*
X73250000Y-102500000D01*
X73250000Y-103400000D01*
X73250000Y-103400000D01*
G37*
G36*
X75250000Y-103400000D02*
X73750000Y-103400000D01*
X73750000Y-102500000D01*
X75250000Y-102500000D01*
X75250000Y-103400000D01*
X75250000Y-103400000D01*
G37*
G36*
X135100000Y-103350000D02*
X133900000Y-103350000D01*
X133900000Y-100650000D01*
X135100000Y-100650000D01*
X135100000Y-103350000D01*
X135100000Y-103350000D01*
G37*
G36*
X138100000Y-103350000D02*
X136900000Y-103350000D01*
X136900000Y-100650000D01*
X138100000Y-100650000D01*
X138100000Y-103350000D01*
X138100000Y-103350000D01*
G37*
G36*
X68975000Y-103350000D02*
X67525000Y-103350000D01*
X67525000Y-102150000D01*
X68975000Y-102150000D01*
X68975000Y-103350000D01*
X68975000Y-103350000D01*
G37*
G36*
X66620000Y-103055000D02*
X64620000Y-103055000D01*
X64620000Y-102095000D01*
X66620000Y-102095000D01*
X66620000Y-103055000D01*
X66620000Y-103055000D01*
G37*
G36*
X62420000Y-103055000D02*
X60420000Y-103055000D01*
X60420000Y-102095000D01*
X62420000Y-102095000D01*
X62420000Y-103055000D01*
X62420000Y-103055000D01*
G37*
G36*
X127225000Y-101600000D02*
X125775000Y-101600000D01*
X125775000Y-100400000D01*
X127225000Y-100400000D01*
X127225000Y-101600000D01*
X127225000Y-101600000D01*
G37*
G36*
X75250000Y-101500000D02*
X73750000Y-101500000D01*
X73750000Y-100600000D01*
X75250000Y-100600000D01*
X75250000Y-101500000D01*
X75250000Y-101500000D01*
G37*
G36*
X73250000Y-101500000D02*
X71750000Y-101500000D01*
X71750000Y-100600000D01*
X73250000Y-100600000D01*
X73250000Y-101500000D01*
X73250000Y-101500000D01*
G37*
G36*
X71250000Y-101500000D02*
X69750000Y-101500000D01*
X69750000Y-100600000D01*
X71250000Y-100600000D01*
X71250000Y-101500000D01*
X71250000Y-101500000D01*
G37*
G36*
X66950000Y-101400000D02*
X65450000Y-101400000D01*
X65450000Y-100500000D01*
X66950000Y-100500000D01*
X66950000Y-101400000D01*
X66950000Y-101400000D01*
G37*
G36*
X68975000Y-101350000D02*
X67525000Y-101350000D01*
X67525000Y-100150000D01*
X68975000Y-100150000D01*
X68975000Y-101350000D01*
X68975000Y-101350000D01*
G37*
G36*
X61500000Y-100850000D02*
X60600000Y-100850000D01*
X60600000Y-99350000D01*
X61500000Y-99350000D01*
X61500000Y-100850000D01*
X61500000Y-100850000D01*
G37*
G36*
X63400000Y-100850000D02*
X62500000Y-100850000D01*
X62500000Y-99350000D01*
X63400000Y-99350000D01*
X63400000Y-100850000D01*
X63400000Y-100850000D01*
G37*
G36*
X75250000Y-99900000D02*
X73750000Y-99900000D01*
X73750000Y-99000000D01*
X75250000Y-99000000D01*
X75250000Y-99900000D01*
X75250000Y-99900000D01*
G37*
G36*
X71250000Y-99900000D02*
X69750000Y-99900000D01*
X69750000Y-99000000D01*
X71250000Y-99000000D01*
X71250000Y-99900000D01*
X71250000Y-99900000D01*
G37*
G36*
X73250000Y-99900000D02*
X71750000Y-99900000D01*
X71750000Y-99000000D01*
X73250000Y-99000000D01*
X73250000Y-99900000D01*
X73250000Y-99900000D01*
G37*
G36*
X127225000Y-99600000D02*
X125775000Y-99600000D01*
X125775000Y-98400000D01*
X127225000Y-98400000D01*
X127225000Y-99600000D01*
X127225000Y-99600000D01*
G37*
G36*
X66950000Y-99500000D02*
X65450000Y-99500000D01*
X65450000Y-98600000D01*
X66950000Y-98600000D01*
X66950000Y-99500000D01*
X66950000Y-99500000D01*
G37*
G36*
X135100000Y-99100000D02*
X133900000Y-99100000D01*
X133900000Y-96400000D01*
X135100000Y-96400000D01*
X135100000Y-99100000D01*
X135100000Y-99100000D01*
G37*
G36*
X138100000Y-99100000D02*
X136900000Y-99100000D01*
X136900000Y-96400000D01*
X138100000Y-96400000D01*
X138100000Y-99100000D01*
X138100000Y-99100000D01*
G37*
G36*
X131535000Y-98175000D02*
X130735000Y-98175000D01*
X130735000Y-96425000D01*
X131535000Y-96425000D01*
X131535000Y-98175000D01*
X131535000Y-98175000D01*
G37*
G36*
X132805000Y-98175000D02*
X132005000Y-98175000D01*
X132005000Y-96425000D01*
X132805000Y-96425000D01*
X132805000Y-98175000D01*
X132805000Y-98175000D01*
G37*
G36*
X75250000Y-98000000D02*
X73750000Y-98000000D01*
X73750000Y-97100000D01*
X75250000Y-97100000D01*
X75250000Y-98000000D01*
X75250000Y-98000000D01*
G37*
G36*
X73250000Y-98000000D02*
X71750000Y-98000000D01*
X71750000Y-97100000D01*
X73250000Y-97100000D01*
X73250000Y-98000000D01*
X73250000Y-98000000D01*
G37*
G36*
X71250000Y-98000000D02*
X69750000Y-98000000D01*
X69750000Y-97100000D01*
X71250000Y-97100000D01*
X71250000Y-98000000D01*
X71250000Y-98000000D01*
G37*
G36*
X62420000Y-97905000D02*
X60420000Y-97905000D01*
X60420000Y-96945000D01*
X62420000Y-96945000D01*
X62420000Y-97905000D01*
X62420000Y-97905000D01*
G37*
G36*
X66620000Y-97905000D02*
X64620000Y-97905000D01*
X64620000Y-96945000D01*
X66620000Y-96945000D01*
X66620000Y-97905000D01*
X66620000Y-97905000D01*
G37*
G36*
X141200000Y-97800000D02*
X140000000Y-97800000D01*
X140000000Y-94700000D01*
X141200000Y-94700000D01*
X141200000Y-97800000D01*
X141200000Y-97800000D01*
G37*
G36*
X121000000Y-97800000D02*
X119800000Y-97800000D01*
X119800000Y-94700000D01*
X121000000Y-94700000D01*
X121000000Y-97800000D01*
X121000000Y-97800000D01*
G37*
G36*
X62420000Y-96635000D02*
X60420000Y-96635000D01*
X60420000Y-95675000D01*
X62420000Y-95675000D01*
X62420000Y-96635000D01*
X62420000Y-96635000D01*
G37*
G36*
X66620000Y-96635000D02*
X64620000Y-96635000D01*
X64620000Y-95675000D01*
X66620000Y-95675000D01*
X66620000Y-96635000D01*
X66620000Y-96635000D01*
G37*
G36*
X62420000Y-95365000D02*
X60420000Y-95365000D01*
X60420000Y-94405000D01*
X62420000Y-94405000D01*
X62420000Y-95365000D01*
X62420000Y-95365000D01*
G37*
G36*
X66620000Y-95365000D02*
X64620000Y-95365000D01*
X64620000Y-94405000D01*
X66620000Y-94405000D01*
X66620000Y-95365000D01*
X66620000Y-95365000D01*
G37*
G36*
X75100000Y-94250000D02*
X73400000Y-94250000D01*
X73400000Y-92050000D01*
X75100000Y-92050000D01*
X75100000Y-94250000D01*
X75100000Y-94250000D01*
G37*
G36*
X72800000Y-94250000D02*
X71100000Y-94250000D01*
X71100000Y-92050000D01*
X72800000Y-92050000D01*
X72800000Y-94250000D01*
X72800000Y-94250000D01*
G37*
G36*
X77400000Y-94250000D02*
X75700000Y-94250000D01*
X75700000Y-92050000D01*
X77400000Y-92050000D01*
X77400000Y-94250000D01*
X77400000Y-94250000D01*
G37*
G36*
X66620000Y-94095000D02*
X64620000Y-94095000D01*
X64620000Y-93135000D01*
X66620000Y-93135000D01*
X66620000Y-94095000D01*
X66620000Y-94095000D01*
G37*
G36*
X62420000Y-94095000D02*
X60420000Y-94095000D01*
X60420000Y-93135000D01*
X62420000Y-93135000D01*
X62420000Y-94095000D01*
X62420000Y-94095000D01*
G37*
G36*
X66620000Y-92825000D02*
X64620000Y-92825000D01*
X64620000Y-91865000D01*
X66620000Y-91865000D01*
X66620000Y-92825000D01*
X66620000Y-92825000D01*
G37*
G36*
X62420000Y-92825000D02*
X60420000Y-92825000D01*
X60420000Y-91865000D01*
X62420000Y-91865000D01*
X62420000Y-92825000D01*
X62420000Y-92825000D01*
G37*
G36*
X123300000Y-90500000D02*
X121062500Y-90500000D01*
X121045088Y-90502474D01*
X121029055Y-90509702D01*
X121015669Y-90521110D01*
X121005992Y-90535795D01*
X121000790Y-90552595D01*
X121000000Y-90562500D01*
X121000000Y-92800000D01*
X119800000Y-92800000D01*
X119800000Y-89300000D01*
X123300000Y-89300000D01*
X123300000Y-90500000D01*
X123300000Y-90500000D01*
G37*
G36*
X141200000Y-92800000D02*
X140000000Y-92800000D01*
X140000000Y-90562500D01*
X139997526Y-90545088D01*
X139990298Y-90529055D01*
X139978890Y-90515669D01*
X139964205Y-90505992D01*
X139947405Y-90500790D01*
X139937500Y-90500000D01*
X137700000Y-90500000D01*
X137700000Y-89300000D01*
X141200000Y-89300000D01*
X141200000Y-92800000D01*
X141200000Y-92800000D01*
G37*
G36*
X69975000Y-91850000D02*
X68525000Y-91850000D01*
X68525000Y-90650000D01*
X69975000Y-90650000D01*
X69975000Y-91850000D01*
X69975000Y-91850000D01*
G37*
G36*
X79975000Y-91600000D02*
X78525000Y-91600000D01*
X78525000Y-90400000D01*
X79975000Y-90400000D01*
X79975000Y-91600000D01*
X79975000Y-91600000D01*
G37*
G36*
X66620000Y-91555000D02*
X64620000Y-91555000D01*
X64620000Y-90595000D01*
X66620000Y-90595000D01*
X66620000Y-91555000D01*
X66620000Y-91555000D01*
G37*
G36*
X62420000Y-91555000D02*
X60420000Y-91555000D01*
X60420000Y-90595000D01*
X62420000Y-90595000D01*
X62420000Y-91555000D01*
X62420000Y-91555000D01*
G37*
G36*
X128300000Y-90500000D02*
X125200000Y-90500000D01*
X125200000Y-89300000D01*
X128300000Y-89300000D01*
X128300000Y-90500000D01*
X128300000Y-90500000D01*
G37*
G36*
X135800000Y-90500000D02*
X132700000Y-90500000D01*
X132700000Y-89300000D01*
X135800000Y-89300000D01*
X135800000Y-90500000D01*
X135800000Y-90500000D01*
G37*
G36*
X66620000Y-90285000D02*
X64620000Y-90285000D01*
X64620000Y-89325000D01*
X66620000Y-89325000D01*
X66620000Y-90285000D01*
X66620000Y-90285000D01*
G37*
G36*
X62420000Y-90285000D02*
X60420000Y-90285000D01*
X60420000Y-89325000D01*
X62420000Y-89325000D01*
X62420000Y-90285000D01*
X62420000Y-90285000D01*
G37*
G36*
X69975000Y-89850000D02*
X68525000Y-89850000D01*
X68525000Y-88650000D01*
X69975000Y-88650000D01*
X69975000Y-89850000D01*
X69975000Y-89850000D01*
G37*
G36*
X79975000Y-89600000D02*
X78525000Y-89600000D01*
X78525000Y-88400000D01*
X79975000Y-88400000D01*
X79975000Y-89600000D01*
X79975000Y-89600000D01*
G37*
G36*
X62420000Y-89015000D02*
X60420000Y-89015000D01*
X60420000Y-88055000D01*
X62420000Y-88055000D01*
X62420000Y-89015000D01*
X62420000Y-89015000D01*
G37*
G36*
X66620000Y-89015000D02*
X64620000Y-89015000D01*
X64620000Y-88055000D01*
X66620000Y-88055000D01*
X66620000Y-89015000D01*
X66620000Y-89015000D01*
G37*
G36*
X122000430Y-88598660D02*
X119999570Y-88598660D01*
X119999570Y-85899300D01*
X122000430Y-85899300D01*
X122000430Y-88598660D01*
X122000430Y-88598660D01*
G37*
G36*
X135100000Y-88225000D02*
X133900000Y-88225000D01*
X133900000Y-86775000D01*
X135100000Y-86775000D01*
X135100000Y-88225000D01*
X135100000Y-88225000D01*
G37*
G36*
X137100000Y-88225000D02*
X135900000Y-88225000D01*
X135900000Y-86775000D01*
X137100000Y-86775000D01*
X137100000Y-88225000D01*
X137100000Y-88225000D01*
G37*
G36*
X127600000Y-87975000D02*
X126400000Y-87975000D01*
X126400000Y-86525000D01*
X127600000Y-86525000D01*
X127600000Y-87975000D01*
X127600000Y-87975000D01*
G37*
G36*
X129600000Y-87975000D02*
X128400000Y-87975000D01*
X128400000Y-86525000D01*
X129600000Y-86525000D01*
X129600000Y-87975000D01*
X129600000Y-87975000D01*
G37*
G36*
X76250000Y-87950000D02*
X72250000Y-87950000D01*
X72250000Y-85750000D01*
X76250000Y-85750000D01*
X76250000Y-87950000D01*
X76250000Y-87950000D01*
G37*
G36*
X62420000Y-87745000D02*
X60420000Y-87745000D01*
X60420000Y-86785000D01*
X62420000Y-86785000D01*
X62420000Y-87745000D01*
X62420000Y-87745000D01*
G37*
G36*
X66620000Y-87745000D02*
X64620000Y-87745000D01*
X64620000Y-86785000D01*
X66620000Y-86785000D01*
X66620000Y-87745000D01*
X66620000Y-87745000D01*
G37*
G36*
X105675000Y-86555000D02*
X103925000Y-86555000D01*
X103925000Y-85755000D01*
X105675000Y-85755000D01*
X105675000Y-86555000D01*
X105675000Y-86555000D01*
G37*
G36*
X111075000Y-86555000D02*
X109325000Y-86555000D01*
X109325000Y-85755000D01*
X111075000Y-85755000D01*
X111075000Y-86555000D01*
X111075000Y-86555000D01*
G37*
G36*
X62420000Y-86475000D02*
X60420000Y-86475000D01*
X60420000Y-85515000D01*
X62420000Y-85515000D01*
X62420000Y-86475000D01*
X62420000Y-86475000D01*
G37*
G36*
X66620000Y-86475000D02*
X64620000Y-86475000D01*
X64620000Y-85515000D01*
X66620000Y-85515000D01*
X66620000Y-86475000D01*
X66620000Y-86475000D01*
G37*
G36*
X140725000Y-85800000D02*
X139275000Y-85800000D01*
X139275000Y-84600000D01*
X140725000Y-84600000D01*
X140725000Y-85800000D01*
X140725000Y-85800000D01*
G37*
G36*
X135500430Y-85598660D02*
X133499570Y-85598660D01*
X133499570Y-82899300D01*
X135500430Y-82899300D01*
X135500430Y-85598660D01*
X135500430Y-85598660D01*
G37*
G36*
X138500000Y-85400000D02*
X137000000Y-85400000D01*
X137000000Y-84500000D01*
X138500000Y-84500000D01*
X138500000Y-85400000D01*
X138500000Y-85400000D01*
G37*
G36*
X132000000Y-85400000D02*
X129800000Y-85400000D01*
X129800000Y-83700000D01*
X132000000Y-83700000D01*
X132000000Y-85400000D01*
X132000000Y-85400000D01*
G37*
G36*
X111075000Y-85285000D02*
X109325000Y-85285000D01*
X109325000Y-84485000D01*
X111075000Y-84485000D01*
X111075000Y-85285000D01*
X111075000Y-85285000D01*
G37*
G36*
X105675000Y-85285000D02*
X103925000Y-85285000D01*
X103925000Y-84485000D01*
X105675000Y-84485000D01*
X105675000Y-85285000D01*
X105675000Y-85285000D01*
G37*
G36*
X95850000Y-85250000D02*
X94950000Y-85250000D01*
X94950000Y-83750000D01*
X95850000Y-83750000D01*
X95850000Y-85250000D01*
X95850000Y-85250000D01*
G37*
G36*
X93950000Y-85250000D02*
X93050000Y-85250000D01*
X93050000Y-83750000D01*
X93950000Y-83750000D01*
X93950000Y-85250000D01*
X93950000Y-85250000D01*
G37*
G36*
X66620000Y-85205000D02*
X64620000Y-85205000D01*
X64620000Y-84245000D01*
X66620000Y-84245000D01*
X66620000Y-85205000D01*
X66620000Y-85205000D01*
G37*
G36*
X62420000Y-85205000D02*
X60420000Y-85205000D01*
X60420000Y-84245000D01*
X62420000Y-84245000D01*
X62420000Y-85205000D01*
X62420000Y-85205000D01*
G37*
G36*
X122000430Y-84600700D02*
X119999570Y-84600700D01*
X119999570Y-81901340D01*
X122000430Y-81901340D01*
X122000430Y-84600700D01*
X122000430Y-84600700D01*
G37*
G36*
X73600700Y-84500430D02*
X70901340Y-84500430D01*
X70901340Y-82499570D01*
X73600700Y-82499570D01*
X73600700Y-84500430D01*
X73600700Y-84500430D01*
G37*
G36*
X77598660Y-84500430D02*
X74899300Y-84500430D01*
X74899300Y-82499570D01*
X77598660Y-82499570D01*
X77598660Y-84500430D01*
X77598660Y-84500430D01*
G37*
G36*
X125700000Y-84250000D02*
X123500000Y-84250000D01*
X123500000Y-80250000D01*
X125700000Y-80250000D01*
X125700000Y-84250000D01*
X125700000Y-84250000D01*
G37*
G36*
X105675000Y-84015000D02*
X103925000Y-84015000D01*
X103925000Y-83215000D01*
X105675000Y-83215000D01*
X105675000Y-84015000D01*
X105675000Y-84015000D01*
G37*
G36*
X111075000Y-84015000D02*
X109325000Y-84015000D01*
X109325000Y-83215000D01*
X111075000Y-83215000D01*
X111075000Y-84015000D01*
X111075000Y-84015000D01*
G37*
G36*
X62420000Y-83935000D02*
X60420000Y-83935000D01*
X60420000Y-82975000D01*
X62420000Y-82975000D01*
X62420000Y-83935000D01*
X62420000Y-83935000D01*
G37*
G36*
X66620000Y-83935000D02*
X64620000Y-83935000D01*
X64620000Y-82975000D01*
X66620000Y-82975000D01*
X66620000Y-83935000D01*
X66620000Y-83935000D01*
G37*
G36*
X140725000Y-83800000D02*
X139275000Y-83800000D01*
X139275000Y-82600000D01*
X140725000Y-82600000D01*
X140725000Y-83800000D01*
X140725000Y-83800000D01*
G37*
G36*
X138500000Y-83500000D02*
X137000000Y-83500000D01*
X137000000Y-82600000D01*
X138500000Y-82600000D01*
X138500000Y-83500000D01*
X138500000Y-83500000D01*
G37*
G36*
X132000000Y-83100000D02*
X129800000Y-83100000D01*
X129800000Y-81400000D01*
X132000000Y-81400000D01*
X132000000Y-83100000D01*
X132000000Y-83100000D01*
G37*
G36*
X105675000Y-82745000D02*
X103925000Y-82745000D01*
X103925000Y-81945000D01*
X105675000Y-81945000D01*
X105675000Y-82745000D01*
X105675000Y-82745000D01*
G37*
G36*
X111075000Y-82745000D02*
X109325000Y-82745000D01*
X109325000Y-81945000D01*
X111075000Y-81945000D01*
X111075000Y-82745000D01*
X111075000Y-82745000D01*
G37*
G36*
X101750000Y-82100000D02*
X100790000Y-82100000D01*
X100790000Y-80100000D01*
X101750000Y-80100000D01*
X101750000Y-82100000D01*
X101750000Y-82100000D01*
G37*
G36*
X100480000Y-82100000D02*
X99520000Y-82100000D01*
X99520000Y-80100000D01*
X100480000Y-80100000D01*
X100480000Y-82100000D01*
X100480000Y-82100000D01*
G37*
G36*
X99210000Y-82100000D02*
X98250000Y-82100000D01*
X98250000Y-80100000D01*
X99210000Y-80100000D01*
X99210000Y-82100000D01*
X99210000Y-82100000D01*
G37*
G36*
X140750000Y-81900000D02*
X139250000Y-81900000D01*
X139250000Y-81000000D01*
X140750000Y-81000000D01*
X140750000Y-81900000D01*
X140750000Y-81900000D01*
G37*
G36*
X138500000Y-81900000D02*
X137000000Y-81900000D01*
X137000000Y-81000000D01*
X138500000Y-81000000D01*
X138500000Y-81900000D01*
X138500000Y-81900000D01*
G37*
G36*
X135500430Y-81600700D02*
X133499570Y-81600700D01*
X133499570Y-78901340D01*
X135500430Y-78901340D01*
X135500430Y-81600700D01*
X135500430Y-81600700D01*
G37*
G36*
X122000430Y-81348660D02*
X119999570Y-81348660D01*
X119999570Y-78649300D01*
X122000430Y-78649300D01*
X122000430Y-81348660D01*
X122000430Y-81348660D01*
G37*
G36*
X91000000Y-81000000D02*
X87500000Y-81000000D01*
X87500000Y-79800000D01*
X89737500Y-79800000D01*
X89754912Y-79797526D01*
X89770945Y-79790298D01*
X89784331Y-79778890D01*
X89794008Y-79764205D01*
X89799210Y-79747405D01*
X89800000Y-79737500D01*
X89800000Y-77500000D01*
X91000000Y-77500000D01*
X91000000Y-81000000D01*
X91000000Y-81000000D01*
G37*
G36*
X85600000Y-81000000D02*
X82500000Y-81000000D01*
X82500000Y-79800000D01*
X85600000Y-79800000D01*
X85600000Y-81000000D01*
X85600000Y-81000000D01*
G37*
G36*
X78100000Y-81000000D02*
X75000000Y-81000000D01*
X75000000Y-79800000D01*
X78100000Y-79800000D01*
X78100000Y-81000000D01*
X78100000Y-81000000D01*
G37*
G36*
X70800000Y-79737500D02*
X70802474Y-79754912D01*
X70809702Y-79770945D01*
X70821110Y-79784331D01*
X70835795Y-79794008D01*
X70852595Y-79799210D01*
X70862500Y-79800000D01*
X73100000Y-79800000D01*
X73100000Y-81000000D01*
X69600000Y-81000000D01*
X69600000Y-77500000D01*
X70800000Y-77500000D01*
X70800000Y-79737500D01*
X70800000Y-79737500D01*
G37*
G36*
X107100000Y-80975000D02*
X105900000Y-80975000D01*
X105900000Y-79525000D01*
X107100000Y-79525000D01*
X107100000Y-80975000D01*
X107100000Y-80975000D01*
G37*
G36*
X109100000Y-80975000D02*
X107900000Y-80975000D01*
X107900000Y-79525000D01*
X109100000Y-79525000D01*
X109100000Y-80975000D01*
X109100000Y-80975000D01*
G37*
G36*
X132000000Y-80800000D02*
X129800000Y-80800000D01*
X129800000Y-79100000D01*
X132000000Y-79100000D01*
X132000000Y-80800000D01*
X132000000Y-80800000D01*
G37*
G36*
X93800000Y-80250000D02*
X92900000Y-80250000D01*
X92900000Y-78750000D01*
X93800000Y-78750000D01*
X93800000Y-80250000D01*
X93800000Y-80250000D01*
G37*
G36*
X95700000Y-80250000D02*
X94800000Y-80250000D01*
X94800000Y-78750000D01*
X95700000Y-78750000D01*
X95700000Y-80250000D01*
X95700000Y-80250000D01*
G37*
G36*
X138500000Y-80000000D02*
X137000000Y-80000000D01*
X137000000Y-79100000D01*
X138500000Y-79100000D01*
X138500000Y-80000000D01*
X138500000Y-80000000D01*
G37*
G36*
X140750000Y-80000000D02*
X139250000Y-80000000D01*
X139250000Y-79100000D01*
X140750000Y-79100000D01*
X140750000Y-80000000D01*
X140750000Y-80000000D01*
G37*
G36*
X91000000Y-68100000D02*
X90062500Y-68100000D01*
X90045088Y-68102474D01*
X90029055Y-68109702D01*
X90015669Y-68121110D01*
X90005992Y-68135795D01*
X90000790Y-68152595D01*
X90000000Y-68162500D01*
X90000000Y-72000000D01*
X88062500Y-72000000D01*
X88045088Y-72002474D01*
X88029055Y-72009702D01*
X88015669Y-72021110D01*
X88005992Y-72035795D01*
X88000790Y-72052595D01*
X88000000Y-72062500D01*
X88000000Y-78250000D01*
X85312500Y-78250000D01*
X85295088Y-78252474D01*
X85279055Y-78259702D01*
X85265669Y-78271110D01*
X85255992Y-78285795D01*
X85250790Y-78302595D01*
X85250000Y-78312500D01*
X85250000Y-79500000D01*
X75250000Y-79500000D01*
X75250000Y-78312500D01*
X75247526Y-78295088D01*
X75240298Y-78279055D01*
X75228890Y-78265669D01*
X75214205Y-78255992D01*
X75197405Y-78250790D01*
X75187500Y-78250000D01*
X72750000Y-78250000D01*
X72750000Y-73062500D01*
X72747526Y-73045088D01*
X72740298Y-73029055D01*
X72728890Y-73015669D01*
X72714205Y-73005992D01*
X72697405Y-73000790D01*
X72687500Y-73000000D01*
X71050000Y-73000000D01*
X71050000Y-68050000D01*
X76400000Y-68050000D01*
X76400000Y-69774112D01*
X76402474Y-69791524D01*
X76409702Y-69807557D01*
X76418306Y-69818306D01*
X76718306Y-70118306D01*
X76732368Y-70128869D01*
X76748816Y-70135095D01*
X76753950Y-70135504D01*
X76758457Y-70152155D01*
X76771694Y-70171694D01*
X76881694Y-70281694D01*
X76895756Y-70292257D01*
X76912204Y-70298483D01*
X76925888Y-70300000D01*
X78524112Y-70300000D01*
X78541524Y-70297526D01*
X78557557Y-70290298D01*
X78568306Y-70281694D01*
X78678306Y-70171694D01*
X78679977Y-70169469D01*
X78681694Y-70168306D01*
X78850000Y-70000000D01*
X79050000Y-70000000D01*
X79050000Y-72400000D01*
X78418306Y-73031694D01*
X78407743Y-73045756D01*
X78401517Y-73062204D01*
X78400000Y-73075888D01*
X78400000Y-75487500D01*
X78402474Y-75504912D01*
X78409702Y-75520945D01*
X78421110Y-75534331D01*
X78435795Y-75544008D01*
X78452595Y-75549210D01*
X78462500Y-75550000D01*
X82337500Y-75550000D01*
X82354912Y-75547526D01*
X82370945Y-75540298D01*
X82384331Y-75528890D01*
X82394008Y-75514205D01*
X82399210Y-75497405D01*
X82400000Y-75487500D01*
X82400000Y-73050000D01*
X84337500Y-73050000D01*
X84354912Y-73047526D01*
X84370945Y-73040298D01*
X84384331Y-73028890D01*
X84394008Y-73014205D01*
X84399210Y-72997405D01*
X84400000Y-72987500D01*
X84400000Y-71612500D01*
X84397526Y-71595088D01*
X84390298Y-71579055D01*
X84378890Y-71565669D01*
X84364205Y-71555992D01*
X84347405Y-71550790D01*
X84337500Y-71550000D01*
X82300000Y-71550000D01*
X81800000Y-71350000D01*
X81800000Y-68850000D01*
X82100000Y-68850000D01*
X82118306Y-68868306D01*
X82132368Y-68878869D01*
X82138161Y-68881062D01*
X82138457Y-68882155D01*
X82151694Y-68901694D01*
X82281694Y-69031694D01*
X82295756Y-69042257D01*
X82312204Y-69048483D01*
X82325888Y-69050000D01*
X83924112Y-69050000D01*
X83941524Y-69047526D01*
X83957557Y-69040298D01*
X83968306Y-69031694D01*
X84131694Y-68868306D01*
X84142257Y-68854244D01*
X84148483Y-68837796D01*
X84150000Y-68824112D01*
X84150000Y-66800000D01*
X84155690Y-66799951D01*
X84155692Y-66799951D01*
X89738034Y-66752239D01*
X89755424Y-66749616D01*
X89771395Y-66742251D01*
X89784683Y-66730729D01*
X89794234Y-66715962D01*
X89799293Y-66699118D01*
X89800000Y-66689741D01*
X89800000Y-65000000D01*
X91000000Y-65000000D01*
X91000000Y-68100000D01*
X91000000Y-68100000D01*
G37*
G36*
X111600000Y-78450000D02*
X110500000Y-78450000D01*
X110500000Y-76550000D01*
X111600000Y-76550000D01*
X111600000Y-78450000D01*
X111600000Y-78450000D01*
G37*
G36*
X114500000Y-78450000D02*
X113400000Y-78450000D01*
X113400000Y-76550000D01*
X114500000Y-76550000D01*
X114500000Y-78450000D01*
X114500000Y-78450000D01*
G37*
G36*
X107100000Y-78350000D02*
X105900000Y-78350000D01*
X105900000Y-75650000D01*
X107100000Y-75650000D01*
X107100000Y-78350000D01*
X107100000Y-78350000D01*
G37*
G36*
X104100000Y-78350000D02*
X102900000Y-78350000D01*
X102900000Y-75650000D01*
X104100000Y-75650000D01*
X104100000Y-78350000D01*
X104100000Y-78350000D01*
G37*
G36*
X129600000Y-77975000D02*
X128400000Y-77975000D01*
X128400000Y-76525000D01*
X129600000Y-76525000D01*
X129600000Y-77975000D01*
X129600000Y-77975000D01*
G37*
G36*
X127600000Y-77975000D02*
X126400000Y-77975000D01*
X126400000Y-76525000D01*
X127600000Y-76525000D01*
X127600000Y-77975000D01*
X127600000Y-77975000D01*
G37*
G36*
X96348460Y-77949440D02*
X94949580Y-77949440D01*
X94949580Y-76550560D01*
X96348460Y-76550560D01*
X96348460Y-77949440D01*
X96348460Y-77949440D01*
G37*
G36*
X94250420Y-77949440D02*
X92851540Y-77949440D01*
X92851540Y-76550560D01*
X94250420Y-76550560D01*
X94250420Y-77949440D01*
X94250420Y-77949440D01*
G37*
G36*
X101750000Y-77900000D02*
X100790000Y-77900000D01*
X100790000Y-75900000D01*
X101750000Y-75900000D01*
X101750000Y-77900000D01*
X101750000Y-77900000D01*
G37*
G36*
X99210000Y-77900000D02*
X98250000Y-77900000D01*
X98250000Y-75900000D01*
X99210000Y-75900000D01*
X99210000Y-77900000D01*
X99210000Y-77900000D01*
G37*
G36*
X100480000Y-77900000D02*
X99520000Y-77900000D01*
X99520000Y-75900000D01*
X100480000Y-75900000D01*
X100480000Y-77900000D01*
X100480000Y-77900000D01*
G37*
G36*
X122000430Y-77350700D02*
X119999570Y-77350700D01*
X119999570Y-74651340D01*
X122000430Y-74651340D01*
X122000430Y-77350700D01*
X122000430Y-77350700D01*
G37*
G36*
X93800000Y-75750000D02*
X92900000Y-75750000D01*
X92900000Y-74250000D01*
X93800000Y-74250000D01*
X93800000Y-75750000D01*
X93800000Y-75750000D01*
G37*
G36*
X95700000Y-75750000D02*
X94800000Y-75750000D01*
X94800000Y-74250000D01*
X95700000Y-74250000D01*
X95700000Y-75750000D01*
X95700000Y-75750000D01*
G37*
G36*
X70800000Y-75600000D02*
X69600000Y-75600000D01*
X69600000Y-72500000D01*
X70800000Y-72500000D01*
X70800000Y-75600000D01*
X70800000Y-75600000D01*
G37*
G36*
X91000000Y-75600000D02*
X89800000Y-75600000D01*
X89800000Y-72500000D01*
X91000000Y-72500000D01*
X91000000Y-75600000D01*
X91000000Y-75600000D01*
G37*
G36*
X80000000Y-75025000D02*
X78800000Y-75025000D01*
X78800000Y-73575000D01*
X80000000Y-73575000D01*
X80000000Y-75025000D01*
X80000000Y-75025000D01*
G37*
G36*
X82000000Y-75025000D02*
X80800000Y-75025000D01*
X80800000Y-73575000D01*
X82000000Y-73575000D01*
X82000000Y-75025000D01*
X82000000Y-75025000D01*
G37*
G36*
X66600000Y-74725000D02*
X65400000Y-74725000D01*
X65400000Y-73275000D01*
X66600000Y-73275000D01*
X66600000Y-74725000D01*
X66600000Y-74725000D01*
G37*
G36*
X107600000Y-74725000D02*
X106400000Y-74725000D01*
X106400000Y-73275000D01*
X107600000Y-73275000D01*
X107600000Y-74725000D01*
X107600000Y-74725000D01*
G37*
G36*
X105600000Y-74725000D02*
X104400000Y-74725000D01*
X104400000Y-73275000D01*
X105600000Y-73275000D01*
X105600000Y-74725000D01*
X105600000Y-74725000D01*
G37*
G36*
X68600000Y-74725000D02*
X67400000Y-74725000D01*
X67400000Y-73275000D01*
X68600000Y-73275000D01*
X68600000Y-74725000D01*
X68600000Y-74725000D01*
G37*
G36*
X103800000Y-74710000D02*
X102100000Y-74710000D01*
X102100000Y-73910000D01*
X103800000Y-73910000D01*
X103800000Y-74710000D01*
X103800000Y-74710000D01*
G37*
G36*
X98400000Y-74710000D02*
X96700000Y-74710000D01*
X96700000Y-73910000D01*
X98400000Y-73910000D01*
X98400000Y-74710000D01*
X98400000Y-74710000D01*
G37*
G36*
X93500000Y-73500000D02*
X92600000Y-73500000D01*
X92600000Y-72000000D01*
X93500000Y-72000000D01*
X93500000Y-73500000D01*
X93500000Y-73500000D01*
G37*
G36*
X95400000Y-73500000D02*
X94500000Y-73500000D01*
X94500000Y-72000000D01*
X95400000Y-72000000D01*
X95400000Y-73500000D01*
X95400000Y-73500000D01*
G37*
G36*
X103800000Y-73440000D02*
X102100000Y-73440000D01*
X102100000Y-72640000D01*
X103800000Y-72640000D01*
X103800000Y-73440000D01*
X103800000Y-73440000D01*
G37*
G36*
X98400000Y-73440000D02*
X96700000Y-73440000D01*
X96700000Y-72640000D01*
X98400000Y-72640000D01*
X98400000Y-73440000D01*
X98400000Y-73440000D01*
G37*
G36*
X120000000Y-73250000D02*
X119100000Y-73250000D01*
X119100000Y-71750000D01*
X120000000Y-71750000D01*
X120000000Y-73250000D01*
X120000000Y-73250000D01*
G37*
G36*
X125700000Y-73250000D02*
X124800000Y-73250000D01*
X124800000Y-71750000D01*
X125700000Y-71750000D01*
X125700000Y-73250000D01*
X125700000Y-73250000D01*
G37*
G36*
X121900000Y-73250000D02*
X121000000Y-73250000D01*
X121000000Y-71750000D01*
X121900000Y-71750000D01*
X121900000Y-73250000D01*
X121900000Y-73250000D01*
G37*
G36*
X123800000Y-73250000D02*
X122900000Y-73250000D01*
X122900000Y-71750000D01*
X123800000Y-71750000D01*
X123800000Y-73250000D01*
X123800000Y-73250000D01*
G37*
G36*
X112800000Y-72910000D02*
X111100000Y-72910000D01*
X111100000Y-72110000D01*
X112800000Y-72110000D01*
X112800000Y-72910000D01*
X112800000Y-72910000D01*
G37*
G36*
X118200000Y-72910000D02*
X116500000Y-72910000D01*
X116500000Y-72110000D01*
X118200000Y-72110000D01*
X118200000Y-72910000D01*
X118200000Y-72910000D01*
G37*
G36*
X83975000Y-72605000D02*
X82225000Y-72605000D01*
X82225000Y-71805000D01*
X83975000Y-71805000D01*
X83975000Y-72605000D01*
X83975000Y-72605000D01*
G37*
G36*
X107750000Y-72250000D02*
X105850000Y-72250000D01*
X105850000Y-71150000D01*
X107750000Y-71150000D01*
X107750000Y-72250000D01*
X107750000Y-72250000D01*
G37*
G36*
X98400000Y-72170000D02*
X96700000Y-72170000D01*
X96700000Y-71370000D01*
X98400000Y-71370000D01*
X98400000Y-72170000D01*
X98400000Y-72170000D01*
G37*
G36*
X103800000Y-72170000D02*
X102100000Y-72170000D01*
X102100000Y-71370000D01*
X103800000Y-71370000D01*
X103800000Y-72170000D01*
X103800000Y-72170000D01*
G37*
G36*
X112800000Y-71640000D02*
X111100000Y-71640000D01*
X111100000Y-70840000D01*
X112800000Y-70840000D01*
X112800000Y-71640000D01*
X112800000Y-71640000D01*
G37*
G36*
X118200000Y-71640000D02*
X116500000Y-71640000D01*
X116500000Y-70840000D01*
X118200000Y-70840000D01*
X118200000Y-71640000D01*
X118200000Y-71640000D01*
G37*
G36*
X95600000Y-71225000D02*
X94400000Y-71225000D01*
X94400000Y-69775000D01*
X95600000Y-69775000D01*
X95600000Y-71225000D01*
X95600000Y-71225000D01*
G37*
G36*
X93600000Y-71225000D02*
X92400000Y-71225000D01*
X92400000Y-69775000D01*
X93600000Y-69775000D01*
X93600000Y-71225000D01*
X93600000Y-71225000D01*
G37*
G36*
X98400000Y-70900000D02*
X96700000Y-70900000D01*
X96700000Y-70100000D01*
X98400000Y-70100000D01*
X98400000Y-70900000D01*
X98400000Y-70900000D01*
G37*
G36*
X103800000Y-70900000D02*
X102100000Y-70900000D01*
X102100000Y-70100000D01*
X103800000Y-70100000D01*
X103800000Y-70900000D01*
X103800000Y-70900000D01*
G37*
G36*
X122380000Y-70825000D02*
X121120000Y-70825000D01*
X121120000Y-68075000D01*
X122380000Y-68075000D01*
X122380000Y-70825000D01*
X122380000Y-70825000D01*
G37*
G36*
X120180000Y-70825000D02*
X118920000Y-70825000D01*
X118920000Y-68075000D01*
X120180000Y-68075000D01*
X120180000Y-70825000D01*
X120180000Y-70825000D01*
G37*
G36*
X118200000Y-70370000D02*
X116500000Y-70370000D01*
X116500000Y-69570000D01*
X118200000Y-69570000D01*
X118200000Y-70370000D01*
X118200000Y-70370000D01*
G37*
G36*
X112800000Y-70370000D02*
X111100000Y-70370000D01*
X111100000Y-69570000D01*
X112800000Y-69570000D01*
X112800000Y-70370000D01*
X112800000Y-70370000D01*
G37*
G36*
X78575000Y-70065000D02*
X76825000Y-70065000D01*
X76825000Y-69265000D01*
X78575000Y-69265000D01*
X78575000Y-70065000D01*
X78575000Y-70065000D01*
G37*
G36*
X103800000Y-69630000D02*
X102100000Y-69630000D01*
X102100000Y-68830000D01*
X103800000Y-68830000D01*
X103800000Y-69630000D01*
X103800000Y-69630000D01*
G37*
G36*
X98400000Y-69630000D02*
X96700000Y-69630000D01*
X96700000Y-68830000D01*
X98400000Y-68830000D01*
X98400000Y-69630000D01*
X98400000Y-69630000D01*
G37*
G36*
X127600000Y-69550000D02*
X126700000Y-69550000D01*
X126700000Y-68050000D01*
X127600000Y-68050000D01*
X127600000Y-69550000D01*
X127600000Y-69550000D01*
G37*
G36*
X125700000Y-69550000D02*
X124800000Y-69550000D01*
X124800000Y-68050000D01*
X125700000Y-68050000D01*
X125700000Y-69550000D01*
X125700000Y-69550000D01*
G37*
G36*
X107750000Y-69350000D02*
X105850000Y-69350000D01*
X105850000Y-68250000D01*
X107750000Y-68250000D01*
X107750000Y-69350000D01*
X107750000Y-69350000D01*
G37*
G36*
X112800000Y-69100000D02*
X111100000Y-69100000D01*
X111100000Y-68300000D01*
X112800000Y-68300000D01*
X112800000Y-69100000D01*
X112800000Y-69100000D01*
G37*
G36*
X118200000Y-69100000D02*
X116500000Y-69100000D01*
X116500000Y-68300000D01*
X118200000Y-68300000D01*
X118200000Y-69100000D01*
X118200000Y-69100000D01*
G37*
G36*
X93450000Y-69000000D02*
X92550000Y-69000000D01*
X92550000Y-67500000D01*
X93450000Y-67500000D01*
X93450000Y-69000000D01*
X93450000Y-69000000D01*
G37*
G36*
X95350000Y-69000000D02*
X94450000Y-69000000D01*
X94450000Y-67500000D01*
X95350000Y-67500000D01*
X95350000Y-69000000D01*
X95350000Y-69000000D01*
G37*
G36*
X83975000Y-68795000D02*
X82225000Y-68795000D01*
X82225000Y-67995000D01*
X83975000Y-67995000D01*
X83975000Y-68795000D01*
X83975000Y-68795000D01*
G37*
G36*
X78575000Y-68795000D02*
X76825000Y-68795000D01*
X76825000Y-67995000D01*
X78575000Y-67995000D01*
X78575000Y-68795000D01*
X78575000Y-68795000D01*
G37*
G36*
X98400000Y-68360000D02*
X96700000Y-68360000D01*
X96700000Y-67560000D01*
X98400000Y-67560000D01*
X98400000Y-68360000D01*
X98400000Y-68360000D01*
G37*
G36*
X103800000Y-68360000D02*
X102100000Y-68360000D01*
X102100000Y-67560000D01*
X103800000Y-67560000D01*
X103800000Y-68360000D01*
X103800000Y-68360000D01*
G37*
G36*
X70800000Y-68100000D02*
X69600000Y-68100000D01*
X69600000Y-65000000D01*
X70800000Y-65000000D01*
X70800000Y-68100000D01*
X70800000Y-68100000D01*
G37*
G36*
X118200000Y-67830000D02*
X116500000Y-67830000D01*
X116500000Y-67030000D01*
X118200000Y-67030000D01*
X118200000Y-67830000D01*
X118200000Y-67830000D01*
G37*
G36*
X112800000Y-67830000D02*
X111100000Y-67830000D01*
X111100000Y-67030000D01*
X112800000Y-67030000D01*
X112800000Y-67830000D01*
X112800000Y-67830000D01*
G37*
G36*
X124850000Y-67300000D02*
X122150000Y-67300000D01*
X122150000Y-66100000D01*
X124850000Y-66100000D01*
X124850000Y-67300000D01*
X124850000Y-67300000D01*
G37*
G36*
X121500000Y-67300000D02*
X118800000Y-67300000D01*
X118800000Y-66100000D01*
X121500000Y-66100000D01*
X121500000Y-67300000D01*
X121500000Y-67300000D01*
G37*
G36*
X65220572Y-62901396D02*
X65623992Y-62984206D01*
X66003642Y-63143796D01*
X66345070Y-63374092D01*
X66635259Y-63666314D01*
X66863164Y-64009341D01*
X67020100Y-64390094D01*
X67100006Y-64793653D01*
X67100006Y-64793659D01*
X67100090Y-64794084D01*
X67093522Y-65264473D01*
X67093427Y-65264890D01*
X67093427Y-65264902D01*
X67002283Y-65666070D01*
X66834776Y-66042297D01*
X66597382Y-66378826D01*
X66299148Y-66662830D01*
X65951423Y-66883503D01*
X65567463Y-67032432D01*
X65161891Y-67103945D01*
X64750150Y-67095319D01*
X64347926Y-67006885D01*
X63970534Y-66842006D01*
X63632362Y-66606972D01*
X63346278Y-66310722D01*
X63123187Y-65964553D01*
X62971580Y-65581638D01*
X62897238Y-65176576D01*
X62902987Y-64764780D01*
X62988612Y-64361951D01*
X63150849Y-63983422D01*
X63383521Y-63643614D01*
X63677764Y-63355469D01*
X64022371Y-63129965D01*
X64404213Y-62975691D01*
X64808753Y-62898521D01*
X65220572Y-62901396D01*
X65220572Y-62901396D01*
G37*
G36*
X135220572Y-62901396D02*
X135623992Y-62984206D01*
X136003642Y-63143796D01*
X136345070Y-63374092D01*
X136635259Y-63666314D01*
X136863164Y-64009341D01*
X137020100Y-64390094D01*
X137100006Y-64793653D01*
X137100006Y-64793659D01*
X137100090Y-64794084D01*
X137093522Y-65264473D01*
X137093427Y-65264890D01*
X137093427Y-65264902D01*
X137002283Y-65666070D01*
X136834776Y-66042297D01*
X136597382Y-66378826D01*
X136299148Y-66662830D01*
X135951423Y-66883503D01*
X135567463Y-67032432D01*
X135161891Y-67103945D01*
X134750150Y-67095319D01*
X134347926Y-67006885D01*
X133970534Y-66842006D01*
X133632362Y-66606972D01*
X133346278Y-66310722D01*
X133123187Y-65964553D01*
X132971580Y-65581638D01*
X132897238Y-65176576D01*
X132902987Y-64764780D01*
X132988612Y-64361951D01*
X133150849Y-63983422D01*
X133383521Y-63643614D01*
X133677764Y-63355469D01*
X134022371Y-63129965D01*
X134404213Y-62975691D01*
X134808753Y-62898521D01*
X135220572Y-62901396D01*
X135220572Y-62901396D01*
G37*
G36*
X103800000Y-67090000D02*
X102100000Y-67090000D01*
X102100000Y-66290000D01*
X103800000Y-66290000D01*
X103800000Y-67090000D01*
X103800000Y-67090000D01*
G37*
G36*
X98400000Y-67090000D02*
X96700000Y-67090000D01*
X96700000Y-66290000D01*
X98400000Y-66290000D01*
X98400000Y-67090000D01*
X98400000Y-67090000D01*
G37*
G36*
X83750000Y-66900000D02*
X81050000Y-66900000D01*
X81050000Y-65700000D01*
X83750000Y-65700000D01*
X83750000Y-66900000D01*
X83750000Y-66900000D01*
G37*
G36*
X79500000Y-66900000D02*
X76800000Y-66900000D01*
X76800000Y-65700000D01*
X79500000Y-65700000D01*
X79500000Y-66900000D01*
X79500000Y-66900000D01*
G37*
G36*
X95400000Y-66750000D02*
X94500000Y-66750000D01*
X94500000Y-65250000D01*
X95400000Y-65250000D01*
X95400000Y-66750000D01*
X95400000Y-66750000D01*
G37*
G36*
X93500000Y-66750000D02*
X92600000Y-66750000D01*
X92600000Y-65250000D01*
X93500000Y-65250000D01*
X93500000Y-66750000D01*
X93500000Y-66750000D01*
G37*
G36*
X112800000Y-66560000D02*
X111100000Y-66560000D01*
X111100000Y-65760000D01*
X112800000Y-65760000D01*
X112800000Y-66560000D01*
X112800000Y-66560000D01*
G37*
G36*
X118200000Y-66560000D02*
X116500000Y-66560000D01*
X116500000Y-65760000D01*
X118200000Y-65760000D01*
X118200000Y-66560000D01*
X118200000Y-66560000D01*
G37*
G36*
X112800000Y-65290000D02*
X111100000Y-65290000D01*
X111100000Y-64490000D01*
X112800000Y-64490000D01*
X112800000Y-65290000D01*
X112800000Y-65290000D01*
G37*
G36*
X118200000Y-65290000D02*
X116500000Y-65290000D01*
X116500000Y-64490000D01*
X118200000Y-64490000D01*
X118200000Y-65290000D01*
X118200000Y-65290000D01*
G37*
G36*
X99650000Y-65250000D02*
X98750000Y-65250000D01*
X98750000Y-63750000D01*
X99650000Y-63750000D01*
X99650000Y-65250000D01*
X99650000Y-65250000D01*
G37*
G36*
X97750000Y-65250000D02*
X96850000Y-65250000D01*
X96850000Y-63750000D01*
X97750000Y-63750000D01*
X97750000Y-65250000D01*
X97750000Y-65250000D01*
G37*
G36*
X103650000Y-65250000D02*
X102750000Y-65250000D01*
X102750000Y-63750000D01*
X103650000Y-63750000D01*
X103650000Y-65250000D01*
X103650000Y-65250000D01*
G37*
G36*
X101750000Y-65250000D02*
X100850000Y-65250000D01*
X100850000Y-63750000D01*
X101750000Y-63750000D01*
X101750000Y-65250000D01*
X101750000Y-65250000D01*
G37*
G36*
X95600000Y-64725000D02*
X94400000Y-64725000D01*
X94400000Y-63275000D01*
X95600000Y-63275000D01*
X95600000Y-64725000D01*
X95600000Y-64725000D01*
G37*
G36*
X93600000Y-64725000D02*
X92400000Y-64725000D01*
X92400000Y-63275000D01*
X93600000Y-63275000D01*
X93600000Y-64725000D01*
X93600000Y-64725000D01*
G37*
G36*
X124850000Y-64300000D02*
X122150000Y-64300000D01*
X122150000Y-63100000D01*
X124850000Y-63100000D01*
X124850000Y-64300000D01*
X124850000Y-64300000D01*
G37*
G36*
X121500000Y-64300000D02*
X118800000Y-64300000D01*
X118800000Y-63100000D01*
X121500000Y-63100000D01*
X121500000Y-64300000D01*
X121500000Y-64300000D01*
G37*
G36*
X83750000Y-63900000D02*
X81050000Y-63900000D01*
X81050000Y-62700000D01*
X83750000Y-62700000D01*
X83750000Y-63900000D01*
X83750000Y-63900000D01*
G37*
G36*
X79500000Y-63900000D02*
X76800000Y-63900000D01*
X76800000Y-62700000D01*
X79500000Y-62700000D01*
X79500000Y-63900000D01*
X79500000Y-63900000D01*
G37*
G36*
X112350000Y-63475000D02*
X111150000Y-63475000D01*
X111150000Y-62025000D01*
X112350000Y-62025000D01*
X112350000Y-63475000D01*
X112350000Y-63475000D01*
G37*
G36*
X114350000Y-63475000D02*
X113150000Y-63475000D01*
X113150000Y-62025000D01*
X114350000Y-62025000D01*
X114350000Y-63475000D01*
X114350000Y-63475000D01*
G37*
G36*
X118100000Y-63475000D02*
X116900000Y-63475000D01*
X116900000Y-62025000D01*
X118100000Y-62025000D01*
X118100000Y-63475000D01*
X118100000Y-63475000D01*
G37*
G36*
X116100000Y-63475000D02*
X114900000Y-63475000D01*
X114900000Y-62025000D01*
X116100000Y-62025000D01*
X116100000Y-63475000D01*
X116100000Y-63475000D01*
G37*
G36*
X91000000Y-63100000D02*
X89800000Y-63100000D01*
X89800000Y-60862500D01*
X89797526Y-60845088D01*
X89790298Y-60829055D01*
X89778890Y-60815669D01*
X89764205Y-60805992D01*
X89747405Y-60800790D01*
X89737500Y-60800000D01*
X87500000Y-60800000D01*
X87500000Y-59600000D01*
X91000000Y-59600000D01*
X91000000Y-63100000D01*
X91000000Y-63100000D01*
G37*
G36*
X73100000Y-60800000D02*
X70862500Y-60800000D01*
X70845088Y-60802474D01*
X70829055Y-60809702D01*
X70815669Y-60821110D01*
X70805992Y-60835795D01*
X70800790Y-60852595D01*
X70800000Y-60862500D01*
X70800000Y-63100000D01*
X69600000Y-63100000D01*
X69600000Y-59600000D01*
X73100000Y-59600000D01*
X73100000Y-60800000D01*
X73100000Y-60800000D01*
G37*
G36*
X99650000Y-63000000D02*
X98750000Y-63000000D01*
X98750000Y-61500000D01*
X99650000Y-61500000D01*
X99650000Y-63000000D01*
X99650000Y-63000000D01*
G37*
G36*
X103650000Y-63000000D02*
X102750000Y-63000000D01*
X102750000Y-61500000D01*
X103650000Y-61500000D01*
X103650000Y-63000000D01*
X103650000Y-63000000D01*
G37*
G36*
X97750000Y-63000000D02*
X96850000Y-63000000D01*
X96850000Y-61500000D01*
X97750000Y-61500000D01*
X97750000Y-63000000D01*
X97750000Y-63000000D01*
G37*
G36*
X101750000Y-63000000D02*
X100850000Y-63000000D01*
X100850000Y-61500000D01*
X101750000Y-61500000D01*
X101750000Y-63000000D01*
X101750000Y-63000000D01*
G37*
G36*
X95400000Y-62750000D02*
X94500000Y-62750000D01*
X94500000Y-61250000D01*
X95400000Y-61250000D01*
X95400000Y-62750000D01*
X95400000Y-62750000D01*
G37*
G36*
X93500000Y-62750000D02*
X92600000Y-62750000D01*
X92600000Y-61250000D01*
X93500000Y-61250000D01*
X93500000Y-62750000D01*
X93500000Y-62750000D01*
G37*
G36*
X111350000Y-61200000D02*
X110250000Y-61200000D01*
X110250000Y-59300000D01*
X111350000Y-59300000D01*
X111350000Y-61200000D01*
X111350000Y-61200000D01*
G37*
G36*
X116100000Y-61200000D02*
X115000000Y-61200000D01*
X115000000Y-59300000D01*
X116100000Y-59300000D01*
X116100000Y-61200000D01*
X116100000Y-61200000D01*
G37*
G36*
X114250000Y-61200000D02*
X113150000Y-61200000D01*
X113150000Y-59300000D01*
X114250000Y-59300000D01*
X114250000Y-61200000D01*
X114250000Y-61200000D01*
G37*
G36*
X119000000Y-61200000D02*
X117900000Y-61200000D01*
X117900000Y-59300000D01*
X119000000Y-59300000D01*
X119000000Y-61200000D01*
X119000000Y-61200000D01*
G37*
G36*
X78100000Y-60800000D02*
X75000000Y-60800000D01*
X75000000Y-59600000D01*
X78100000Y-59600000D01*
X78100000Y-60800000D01*
X78100000Y-60800000D01*
G37*
G36*
X85600000Y-60800000D02*
X82500000Y-60800000D01*
X82500000Y-59600000D01*
X85600000Y-59600000D01*
X85600000Y-60800000D01*
X85600000Y-60800000D01*
G37*
G36*
X97600000Y-60725000D02*
X96400000Y-60725000D01*
X96400000Y-59275000D01*
X97600000Y-59275000D01*
X97600000Y-60725000D01*
X97600000Y-60725000D01*
G37*
G36*
X102100000Y-60725000D02*
X100900000Y-60725000D01*
X100900000Y-59275000D01*
X102100000Y-59275000D01*
X102100000Y-60725000D01*
X102100000Y-60725000D01*
G37*
G36*
X104100000Y-60725000D02*
X102900000Y-60725000D01*
X102900000Y-59275000D01*
X104100000Y-59275000D01*
X104100000Y-60725000D01*
X104100000Y-60725000D01*
G37*
G36*
X99600000Y-60725000D02*
X98400000Y-60725000D01*
X98400000Y-59275000D01*
X99600000Y-59275000D01*
X99600000Y-60725000D01*
X99600000Y-60725000D01*
G37*
G36*
X93500000Y-60500000D02*
X92600000Y-60500000D01*
X92600000Y-59000000D01*
X93500000Y-59000000D01*
X93500000Y-60500000D01*
X93500000Y-60500000D01*
G37*
G36*
X95400000Y-60500000D02*
X94500000Y-60500000D01*
X94500000Y-59000000D01*
X95400000Y-59000000D01*
X95400000Y-60500000D01*
X95400000Y-60500000D01*
G37*
M02*
