G04 #@! TF.FileFunction,Legend,Bot*
%FSLAX46Y46*%
G04 Gerber Fmt 4.6, Leading zero omitted, Abs format (unit mm)*
G04 Created by KiCad (PCBNEW 4.0.5+dfsg1-4) date Fri May  4 15:45:56 2018*
%MOMM*%
%LPD*%
G01*
G04 APERTURE LIST*
%ADD10C,0.100000*%
%ADD11C,0.150000*%
%ADD12C,0.200000*%
%ADD13C,0.120000*%
%ADD14C,0.125000*%
%ADD15R,1.398880X1.398880*%
%ADD16R,2.700000X1.200000*%
%ADD17R,1.200000X2.700000*%
%ADD18R,0.960000X2.000000*%
%ADD19R,0.900000X1.500000*%
%ADD20R,1.400000X0.480000*%
%ADD21R,0.480000X1.400000*%
%ADD22R,0.800000X1.750000*%
%ADD23R,1.500000X0.900000*%
%ADD24R,1.200000X1.450000*%
%ADD25R,1.450000X1.200000*%
%ADD26R,1.750000X0.800000*%
%ADD27R,1.260000X0.850000*%
%ADD28R,1.700000X0.800000*%
%ADD29C,4.200000*%
%ADD30R,1.200000X3.200000*%
%ADD31R,1.800000X1.200000*%
%ADD32R,1.200000X1.800000*%
%ADD33R,2.699360X2.000860*%
%ADD34R,2.000860X2.699360*%
%ADD35R,0.950000X1.000000*%
%ADD36R,1.000000X0.950000*%
%ADD37R,5.600000X3.100000*%
%ADD38R,3.100000X5.600000*%
%ADD39R,3.100000X1.200000*%
%ADD40R,3.500000X1.200000*%
%ADD41R,1.200000X3.100000*%
%ADD42R,1.200000X2.500000*%
%ADD43R,1.200000X3.500000*%
%ADD44R,2.500000X1.200000*%
%ADD45R,1.900000X1.100000*%
%ADD46R,1.100000X1.900000*%
%ADD47R,2.200000X4.000000*%
%ADD48R,2.200000X1.700000*%
%ADD49R,4.000000X2.200000*%
%ADD50R,1.700000X2.200000*%
%ADD51R,2.000000X0.960000*%
%ADD52C,0.254000*%
G04 APERTURE END LIST*
D10*
D11*
X59000000Y-115238096D02*
X58952381Y-115142858D01*
X58952381Y-115000001D01*
X59000000Y-114857143D01*
X59095238Y-114761905D01*
X59190476Y-114714286D01*
X59380952Y-114666667D01*
X59523810Y-114666667D01*
X59714286Y-114714286D01*
X59809524Y-114761905D01*
X59904762Y-114857143D01*
X59952381Y-115000001D01*
X59952381Y-115095239D01*
X59904762Y-115238096D01*
X59857143Y-115285715D01*
X59523810Y-115285715D01*
X59523810Y-115095239D01*
X59952381Y-115714286D02*
X58952381Y-115714286D01*
X59952381Y-116285715D01*
X58952381Y-116285715D01*
X59952381Y-116761905D02*
X58952381Y-116761905D01*
X58952381Y-117000000D01*
X59000000Y-117142858D01*
X59095238Y-117238096D01*
X59190476Y-117285715D01*
X59380952Y-117333334D01*
X59523810Y-117333334D01*
X59714286Y-117285715D01*
X59809524Y-117238096D01*
X59904762Y-117142858D01*
X59952381Y-117000000D01*
X59952381Y-116761905D01*
X59571429Y-82238095D02*
X59571429Y-83000000D01*
X59952381Y-82619048D02*
X59190476Y-82619048D01*
X59047619Y-83428571D02*
X59000000Y-83476190D01*
X58952381Y-83571428D01*
X58952381Y-83809524D01*
X59000000Y-83904762D01*
X59047619Y-83952381D01*
X59142857Y-84000000D01*
X59238095Y-84000000D01*
X59380952Y-83952381D01*
X59952381Y-83380952D01*
X59952381Y-84000000D01*
X59285714Y-84857143D02*
X59952381Y-84857143D01*
X58904762Y-84619047D02*
X59619048Y-84380952D01*
X59619048Y-85000000D01*
X58952381Y-85238095D02*
X59952381Y-85571428D01*
X58952381Y-85904762D01*
D12*
X113753553Y-72450000D02*
G75*
G03X113753553Y-72450000I-353553J0D01*
G01*
X73500000Y-106500000D02*
G75*
G03X73500000Y-106500000I-250000J0D01*
G01*
X96600000Y-80100000D02*
X97100000Y-80100000D01*
X96600000Y-86900000D02*
X96600000Y-80100000D01*
X103400000Y-86900000D02*
X96600000Y-86900000D01*
X103400000Y-80100000D02*
X103400000Y-86900000D01*
X102800000Y-80100000D02*
X103400000Y-80100000D01*
D11*
X96200000Y-78000000D02*
X93500000Y-78000000D01*
X96200000Y-76500000D02*
X93500000Y-76500000D01*
X94700000Y-77400000D02*
X94700000Y-77150000D01*
X94700000Y-77150000D02*
X94850000Y-77300000D01*
X94950000Y-76900000D02*
X94950000Y-77600000D01*
X94600000Y-77250000D02*
X94250000Y-77250000D01*
X94950000Y-77250000D02*
X94600000Y-76900000D01*
X94600000Y-76900000D02*
X94600000Y-77600000D01*
X94600000Y-77600000D02*
X94950000Y-77250000D01*
X79725000Y-117500000D02*
X79725000Y-115500000D01*
X82675000Y-115500000D02*
X82675000Y-117500000D01*
X70400000Y-115675000D02*
X68400000Y-115675000D01*
X68400000Y-112725000D02*
X70400000Y-112725000D01*
X98500000Y-83258000D02*
X98500000Y-83508000D01*
X98500000Y-83258000D02*
X98750000Y-83258000D01*
X99250000Y-84008000D02*
X98500000Y-83258000D01*
X98500000Y-84758000D02*
X99250000Y-84008000D01*
X99250000Y-84758000D02*
X99250000Y-83258000D01*
X101250000Y-83758000D02*
X101250000Y-83008000D01*
X100750000Y-83758000D02*
X101250000Y-83758000D01*
X101750000Y-83758000D02*
X100750000Y-83758000D01*
X100750000Y-84508000D02*
X101250000Y-84508000D01*
X101250000Y-83758000D02*
X100750000Y-84508000D01*
X101750000Y-84508000D02*
X101250000Y-83758000D01*
X101250000Y-84508000D02*
X101750000Y-84508000D01*
X101250000Y-85258000D02*
X101250000Y-84508000D01*
X94600000Y-71875000D02*
X93400000Y-71875000D01*
X93400000Y-73625000D02*
X94600000Y-73625000D01*
X73875000Y-105875000D02*
X73875000Y-106385000D01*
X68625000Y-105875000D02*
X68625000Y-106385000D01*
X68625000Y-111125000D02*
X68625000Y-110615000D01*
X73875000Y-111125000D02*
X73875000Y-110615000D01*
X73875000Y-105875000D02*
X73365000Y-105875000D01*
X73875000Y-111125000D02*
X73365000Y-111125000D01*
X68625000Y-111125000D02*
X69135000Y-111125000D01*
X68625000Y-105875000D02*
X69135000Y-105875000D01*
X73875000Y-106385000D02*
X75100000Y-106385000D01*
X133075000Y-102075000D02*
X132930000Y-102075000D01*
X133075000Y-97925000D02*
X132930000Y-97925000D01*
X127925000Y-97925000D02*
X128070000Y-97925000D01*
X127925000Y-102075000D02*
X128070000Y-102075000D01*
X133075000Y-102075000D02*
X133075000Y-97925000D01*
X127925000Y-102075000D02*
X127925000Y-97925000D01*
X132930000Y-102075000D02*
X132930000Y-103475000D01*
X86875000Y-117100000D02*
X86875000Y-115900000D01*
X85125000Y-115900000D02*
X85125000Y-117100000D01*
X116000000Y-61900000D02*
X117000000Y-61900000D01*
X117000000Y-63600000D02*
X116000000Y-63600000D01*
X78850000Y-126750000D02*
X77850000Y-126750000D01*
X77850000Y-125050000D02*
X78850000Y-125050000D01*
X94600000Y-61125000D02*
X93400000Y-61125000D01*
X93400000Y-62875000D02*
X94600000Y-62875000D01*
X70100000Y-89750000D02*
X70100000Y-90750000D01*
X68400000Y-90750000D02*
X68400000Y-89750000D01*
X94500000Y-71350000D02*
X93500000Y-71350000D01*
X93500000Y-69650000D02*
X94500000Y-69650000D01*
X95050000Y-83625000D02*
X93850000Y-83625000D01*
X93850000Y-85375000D02*
X95050000Y-85375000D01*
X93350000Y-69125000D02*
X94550000Y-69125000D01*
X94550000Y-67375000D02*
X93350000Y-67375000D01*
X140850000Y-83700000D02*
X140850000Y-84700000D01*
X139150000Y-84700000D02*
X139150000Y-83700000D01*
X128500000Y-78100000D02*
X127500000Y-78100000D01*
X127500000Y-76400000D02*
X128500000Y-76400000D01*
X128500000Y-88100000D02*
X127500000Y-88100000D01*
X127500000Y-86400000D02*
X128500000Y-86400000D01*
X67400000Y-102250000D02*
X67400000Y-101250000D01*
X69100000Y-101250000D02*
X69100000Y-102250000D01*
X75900000Y-108250000D02*
X75900000Y-107250000D01*
X77600000Y-107250000D02*
X77600000Y-108250000D01*
X78400000Y-90500000D02*
X78400000Y-89500000D01*
X80100000Y-89500000D02*
X80100000Y-90500000D01*
X113250000Y-63600000D02*
X112250000Y-63600000D01*
X112250000Y-61900000D02*
X113250000Y-61900000D01*
X75900000Y-104500000D02*
X75900000Y-103500000D01*
X77600000Y-103500000D02*
X77600000Y-104500000D01*
X75900000Y-112000000D02*
X75900000Y-111000000D01*
X77600000Y-111000000D02*
X77600000Y-112000000D01*
X65400000Y-121450000D02*
X66400000Y-121450000D01*
X66400000Y-123150000D02*
X65400000Y-123150000D01*
X73000000Y-113750000D02*
X74000000Y-113750000D01*
X74000000Y-115450000D02*
X73000000Y-115450000D01*
X69400000Y-117750000D02*
X68400000Y-117750000D01*
X68400000Y-116050000D02*
X69400000Y-116050000D01*
X107000000Y-79400000D02*
X108000000Y-79400000D01*
X108000000Y-81100000D02*
X107000000Y-81100000D01*
X106500000Y-74850000D02*
X105500000Y-74850000D01*
X105500000Y-73150000D02*
X106500000Y-73150000D01*
X98500000Y-60850000D02*
X97500000Y-60850000D01*
X97500000Y-59150000D02*
X98500000Y-59150000D01*
X82850000Y-126750000D02*
X81850000Y-126750000D01*
X81850000Y-125050000D02*
X82850000Y-125050000D01*
X81900000Y-73450000D02*
X82900000Y-73450000D01*
X82900000Y-75150000D02*
X81900000Y-75150000D01*
X71375000Y-102600000D02*
X71375000Y-101400000D01*
X69625000Y-101400000D02*
X69625000Y-102600000D01*
X73375000Y-102600000D02*
X73375000Y-101400000D01*
X71625000Y-101400000D02*
X71625000Y-102600000D01*
X84875000Y-117100000D02*
X84875000Y-115900000D01*
X83125000Y-115900000D02*
X83125000Y-117100000D01*
X75375000Y-102600000D02*
X75375000Y-101400000D01*
X73625000Y-101400000D02*
X73625000Y-102600000D01*
X69625000Y-97900000D02*
X69625000Y-99100000D01*
X71375000Y-99100000D02*
X71375000Y-97900000D01*
X71625000Y-97900000D02*
X71625000Y-99100000D01*
X73375000Y-99100000D02*
X73375000Y-97900000D01*
X126800000Y-67925000D02*
X125600000Y-67925000D01*
X125600000Y-69675000D02*
X126800000Y-69675000D01*
X73625000Y-97900000D02*
X73625000Y-99100000D01*
X75375000Y-99100000D02*
X75375000Y-97900000D01*
X67075000Y-100600000D02*
X67075000Y-99400000D01*
X65325000Y-99400000D02*
X65325000Y-100600000D01*
X80100000Y-101875000D02*
X78900000Y-101875000D01*
X78900000Y-103625000D02*
X80100000Y-103625000D01*
X78900000Y-105625000D02*
X80100000Y-105625000D01*
X80100000Y-103875000D02*
X78900000Y-103875000D01*
X80100000Y-105875000D02*
X78900000Y-105875000D01*
X78900000Y-107625000D02*
X80100000Y-107625000D01*
X78900000Y-109625000D02*
X80100000Y-109625000D01*
X80100000Y-107875000D02*
X78900000Y-107875000D01*
X80100000Y-109875000D02*
X78900000Y-109875000D01*
X78900000Y-111625000D02*
X80100000Y-111625000D01*
X78900000Y-113625000D02*
X80100000Y-113625000D01*
X80100000Y-111875000D02*
X78900000Y-111875000D01*
X78275000Y-132475000D02*
X78275000Y-132330000D01*
X82425000Y-132475000D02*
X82425000Y-132330000D01*
X82425000Y-127325000D02*
X82425000Y-127470000D01*
X78275000Y-127325000D02*
X78275000Y-127470000D01*
X78275000Y-132475000D02*
X82425000Y-132475000D01*
X78275000Y-127325000D02*
X82425000Y-127325000D01*
X78275000Y-132330000D02*
X76875000Y-132330000D01*
X109575000Y-81675000D02*
X109575000Y-81820000D01*
X105425000Y-81675000D02*
X105425000Y-81820000D01*
X105425000Y-86825000D02*
X105425000Y-86680000D01*
X109575000Y-86825000D02*
X109575000Y-86680000D01*
X109575000Y-81675000D02*
X105425000Y-81675000D01*
X109575000Y-86825000D02*
X105425000Y-86825000D01*
X109575000Y-81820000D02*
X110975000Y-81820000D01*
X82475000Y-67725000D02*
X82475000Y-67870000D01*
X78325000Y-67725000D02*
X78325000Y-67870000D01*
X78325000Y-72875000D02*
X78325000Y-72730000D01*
X82475000Y-72875000D02*
X82475000Y-72730000D01*
X82475000Y-67725000D02*
X78325000Y-67725000D01*
X82475000Y-72875000D02*
X78325000Y-72875000D01*
X82475000Y-67870000D02*
X83875000Y-67870000D01*
X94900000Y-74125000D02*
X93700000Y-74125000D01*
X93700000Y-75875000D02*
X94900000Y-75875000D01*
X127350000Y-101500000D02*
X127350000Y-102500000D01*
X125650000Y-102500000D02*
X125650000Y-101500000D01*
X127350000Y-97500000D02*
X127350000Y-98500000D01*
X125650000Y-98500000D02*
X125650000Y-97500000D01*
X121625000Y-64200000D02*
X121625000Y-66200000D01*
X118675000Y-66200000D02*
X118675000Y-64200000D01*
X102000000Y-59150000D02*
X103000000Y-59150000D01*
X103000000Y-60850000D02*
X102000000Y-60850000D01*
X77900000Y-73450000D02*
X78900000Y-73450000D01*
X78900000Y-75150000D02*
X77900000Y-75150000D01*
X120350000Y-71150000D02*
G75*
G03X120350000Y-71150000I-100000J0D01*
G01*
X120900000Y-70900000D02*
X120400000Y-70900000D01*
X120900000Y-68000000D02*
X120900000Y-70900000D01*
X120400000Y-68000000D02*
X120900000Y-68000000D01*
X120400000Y-70900000D02*
X120400000Y-68000000D01*
X112575000Y-73150000D02*
X112575000Y-73035000D01*
X116725000Y-73150000D02*
X116725000Y-73035000D01*
X116725000Y-64250000D02*
X116725000Y-64365000D01*
X112575000Y-64250000D02*
X112575000Y-64365000D01*
X112575000Y-73150000D02*
X116725000Y-73150000D01*
X112575000Y-64250000D02*
X116725000Y-64250000D01*
X112575000Y-73035000D02*
X111200000Y-73035000D01*
D13*
X93500000Y-63150000D02*
X94500000Y-63150000D01*
X94500000Y-64850000D02*
X93500000Y-64850000D01*
X61400000Y-100980000D02*
X62600000Y-100980000D01*
X62600000Y-99220000D02*
X61400000Y-99220000D01*
X93400000Y-66880000D02*
X94600000Y-66880000D01*
X94600000Y-65120000D02*
X93400000Y-65120000D01*
D11*
X69000000Y-135000000D02*
G75*
G03X69000000Y-135000000I-4000000J0D01*
G01*
X139000000Y-135000000D02*
G75*
G03X139000000Y-135000000I-4000000J0D01*
G01*
X69000000Y-65000000D02*
G75*
G03X69000000Y-65000000I-4000000J0D01*
G01*
X139000000Y-65000000D02*
G75*
G03X139000000Y-65000000I-4000000J0D01*
G01*
X93700000Y-80375000D02*
X94900000Y-80375000D01*
X94900000Y-78625000D02*
X93700000Y-78625000D01*
X93400000Y-60625000D02*
X94600000Y-60625000D01*
X94600000Y-58875000D02*
X93400000Y-58875000D01*
X102850000Y-61375000D02*
X101650000Y-61375000D01*
X101650000Y-63125000D02*
X102850000Y-63125000D01*
X102850000Y-63625000D02*
X101650000Y-63625000D01*
X101650000Y-65375000D02*
X102850000Y-65375000D01*
X135000000Y-86650000D02*
X136000000Y-86650000D01*
X136000000Y-88350000D02*
X135000000Y-88350000D01*
X93350000Y-125500000D02*
X93350000Y-126500000D01*
X91650000Y-126500000D02*
X91650000Y-125500000D01*
X66500000Y-73150000D02*
X67500000Y-73150000D01*
X67500000Y-74850000D02*
X66500000Y-74850000D01*
X123700000Y-73375000D02*
X124900000Y-73375000D01*
X124900000Y-71625000D02*
X123700000Y-71625000D01*
X64900000Y-118225000D02*
X66900000Y-118225000D01*
X66900000Y-121175000D02*
X64900000Y-121175000D01*
X81125000Y-136400000D02*
X81125000Y-134400000D01*
X84075000Y-134400000D02*
X84075000Y-136400000D01*
X71750000Y-131650000D02*
X71750000Y-130650000D01*
X73450000Y-130650000D02*
X73450000Y-131650000D01*
X79625000Y-63800000D02*
X79625000Y-65800000D01*
X76675000Y-65800000D02*
X76675000Y-63800000D01*
X137000000Y-99225000D02*
X135000000Y-99225000D01*
X135000000Y-96275000D02*
X137000000Y-96275000D01*
X73000000Y-115725000D02*
X75000000Y-115725000D01*
X75000000Y-118675000D02*
X73000000Y-118675000D01*
X87250000Y-130400000D02*
X87250000Y-129400000D01*
X88950000Y-129400000D02*
X88950000Y-130400000D01*
X89000000Y-68550000D02*
X89000000Y-69550000D01*
X87300000Y-69550000D02*
X87300000Y-68550000D01*
X128975000Y-128250000D02*
X128975000Y-126250000D01*
X131025000Y-126250000D02*
X131025000Y-128250000D01*
X131475000Y-128250000D02*
X131475000Y-126250000D01*
X133525000Y-126250000D02*
X133525000Y-128250000D01*
X73500000Y-69800000D02*
X73500000Y-70800000D01*
X71800000Y-70800000D02*
X71800000Y-69800000D01*
X133975000Y-128250000D02*
X133975000Y-126250000D01*
X136025000Y-126250000D02*
X136025000Y-128250000D01*
X132250000Y-108600000D02*
X131250000Y-108600000D01*
X131250000Y-106900000D02*
X132250000Y-106900000D01*
X136475000Y-128250000D02*
X136475000Y-126250000D01*
X138525000Y-126250000D02*
X138525000Y-128250000D01*
X138975000Y-128250000D02*
X138975000Y-126250000D01*
X141025000Y-126250000D02*
X141025000Y-128250000D01*
X131000000Y-93100000D02*
X130000000Y-93100000D01*
X130000000Y-91400000D02*
X131000000Y-91400000D01*
X96750000Y-121475000D02*
X98750000Y-121475000D01*
X98750000Y-123525000D02*
X96750000Y-123525000D01*
X96750000Y-123975000D02*
X98750000Y-123975000D01*
X98750000Y-126025000D02*
X96750000Y-126025000D01*
X96750000Y-126475000D02*
X98750000Y-126475000D01*
X98750000Y-128525000D02*
X96750000Y-128525000D01*
X96750000Y-128975000D02*
X98750000Y-128975000D01*
X98750000Y-131025000D02*
X96750000Y-131025000D01*
X126475000Y-130500000D02*
X126475000Y-128500000D01*
X128525000Y-128500000D02*
X128525000Y-130500000D01*
X96750000Y-131475000D02*
X98750000Y-131475000D01*
X98750000Y-133525000D02*
X96750000Y-133525000D01*
X96750000Y-133975000D02*
X98750000Y-133975000D01*
X98750000Y-136025000D02*
X96750000Y-136025000D01*
X76425000Y-117500000D02*
X76425000Y-115500000D01*
X79375000Y-115500000D02*
X79375000Y-117500000D01*
X79825000Y-134400000D02*
X79825000Y-136400000D01*
X76875000Y-136400000D02*
X76875000Y-134400000D01*
X80925000Y-65800000D02*
X80925000Y-63800000D01*
X83875000Y-63800000D02*
X83875000Y-65800000D01*
X135000000Y-100525000D02*
X137000000Y-100525000D01*
X137000000Y-103475000D02*
X135000000Y-103475000D01*
X106000000Y-78475000D02*
X104000000Y-78475000D01*
X104000000Y-75525000D02*
X106000000Y-75525000D01*
X124975000Y-64200000D02*
X124975000Y-66200000D01*
X122025000Y-66200000D02*
X122025000Y-64200000D01*
X72450860Y-81749940D02*
X72450860Y-82100460D01*
X72450860Y-85250060D02*
X72450860Y-84899540D01*
X76500440Y-81749940D02*
X76500440Y-82100460D01*
X71999560Y-81749940D02*
X71999560Y-82100460D01*
X71999560Y-85250060D02*
X71999560Y-84899540D01*
X76500440Y-85250060D02*
X76500440Y-84899540D01*
X71999560Y-81749940D02*
X76500440Y-81749940D01*
X71999560Y-85250060D02*
X76500440Y-85250060D01*
X119249940Y-87049140D02*
X119600460Y-87049140D01*
X122750060Y-87049140D02*
X122399540Y-87049140D01*
X119249940Y-82999560D02*
X119600460Y-82999560D01*
X119249940Y-87500440D02*
X119600460Y-87500440D01*
X122750060Y-87500440D02*
X122399540Y-87500440D01*
X122750060Y-82999560D02*
X122399540Y-82999560D01*
X119249940Y-87500440D02*
X119249940Y-82999560D01*
X122750060Y-87500440D02*
X122750060Y-82999560D01*
X136250060Y-80450860D02*
X135899540Y-80450860D01*
X132749940Y-80450860D02*
X133100460Y-80450860D01*
X136250060Y-84500440D02*
X135899540Y-84500440D01*
X136250060Y-79999560D02*
X135899540Y-79999560D01*
X132749940Y-79999560D02*
X133100460Y-79999560D01*
X132749940Y-84500440D02*
X133100460Y-84500440D01*
X136250060Y-79999560D02*
X136250060Y-84500440D01*
X132749940Y-79999560D02*
X132749940Y-84500440D01*
X119249940Y-79799140D02*
X119600460Y-79799140D01*
X122750060Y-79799140D02*
X122399540Y-79799140D01*
X119249940Y-75749560D02*
X119600460Y-75749560D01*
X119249940Y-80250440D02*
X119600460Y-80250440D01*
X122750060Y-80250440D02*
X122399540Y-80250440D01*
X122750060Y-75749560D02*
X122399540Y-75749560D01*
X119249940Y-80250440D02*
X119249940Y-75749560D01*
X122750060Y-80250440D02*
X122750060Y-75749560D01*
X74500000Y-125550000D02*
X74500000Y-126250000D01*
X75700000Y-126250000D02*
X75700000Y-125550000D01*
X75450000Y-122800000D02*
X74750000Y-122800000D01*
X74750000Y-124000000D02*
X75450000Y-124000000D01*
X85000000Y-125550000D02*
X85000000Y-126250000D01*
X86200000Y-126250000D02*
X86200000Y-125550000D01*
X85250000Y-124000000D02*
X85950000Y-124000000D01*
X85950000Y-122800000D02*
X85250000Y-122800000D01*
X86250000Y-74650000D02*
X86250000Y-73950000D01*
X85050000Y-73950000D02*
X85050000Y-74650000D01*
X85300000Y-77400000D02*
X86000000Y-77400000D01*
X86000000Y-76200000D02*
X85300000Y-76200000D01*
X75750000Y-74650000D02*
X75750000Y-73950000D01*
X74550000Y-73950000D02*
X74550000Y-74650000D01*
X75500000Y-76200000D02*
X74800000Y-76200000D01*
X74800000Y-77400000D02*
X75500000Y-77400000D01*
X126150000Y-105850000D02*
X126850000Y-105850000D01*
X126850000Y-104650000D02*
X126150000Y-104650000D01*
X123400000Y-104900000D02*
X123400000Y-105600000D01*
X124600000Y-105600000D02*
X124600000Y-104900000D01*
X126150000Y-95350000D02*
X126850000Y-95350000D01*
X126850000Y-94150000D02*
X126150000Y-94150000D01*
X124600000Y-95100000D02*
X124600000Y-94400000D01*
X123400000Y-94400000D02*
X123400000Y-95100000D01*
X62575000Y-121600000D02*
X62575000Y-119600000D01*
X60425000Y-119600000D02*
X60425000Y-121600000D01*
X113500000Y-76425000D02*
X111500000Y-76425000D01*
X111500000Y-78575000D02*
X113500000Y-78575000D01*
X105725000Y-69250000D02*
X105725000Y-71250000D01*
X107875000Y-71250000D02*
X107875000Y-69250000D01*
X138625000Y-81100000D02*
X138625000Y-79900000D01*
X136875000Y-79900000D02*
X136875000Y-81100000D01*
X140875000Y-81100000D02*
X140875000Y-79900000D01*
X139125000Y-79900000D02*
X139125000Y-81100000D01*
X138625000Y-84600000D02*
X138625000Y-83400000D01*
X136875000Y-83400000D02*
X136875000Y-84600000D01*
X97650000Y-65375000D02*
X98850000Y-65375000D01*
X98850000Y-63625000D02*
X97650000Y-63625000D01*
X98850000Y-61375000D02*
X97650000Y-61375000D01*
X97650000Y-63125000D02*
X98850000Y-63125000D01*
X76175000Y-132150000D02*
X76175000Y-130150000D01*
X74025000Y-130150000D02*
X74025000Y-132150000D01*
X119900000Y-73375000D02*
X121100000Y-73375000D01*
X121100000Y-71625000D02*
X119900000Y-71625000D01*
X86675000Y-130900000D02*
X86675000Y-128900000D01*
X84525000Y-128900000D02*
X84525000Y-130900000D01*
X74075000Y-69300000D02*
X74075000Y-71300000D01*
X76225000Y-71300000D02*
X76225000Y-69300000D01*
X113250000Y-59175000D02*
X111250000Y-59175000D01*
X111250000Y-61325000D02*
X113250000Y-61325000D01*
X131500000Y-93675000D02*
X129500000Y-93675000D01*
X129500000Y-95825000D02*
X131500000Y-95825000D01*
X84575000Y-68050000D02*
X84575000Y-70050000D01*
X86725000Y-70050000D02*
X86725000Y-68050000D01*
X118000000Y-59175000D02*
X116000000Y-59175000D01*
X116000000Y-61325000D02*
X118000000Y-61325000D01*
X120000000Y-130325000D02*
X122000000Y-130325000D01*
X122000000Y-128175000D02*
X120000000Y-128175000D01*
X132750000Y-104175000D02*
X130750000Y-104175000D01*
X130750000Y-106325000D02*
X132750000Y-106325000D01*
X98175000Y-74950000D02*
X98175000Y-74925000D01*
X102325000Y-74950000D02*
X102325000Y-74835000D01*
X102325000Y-66050000D02*
X102325000Y-66165000D01*
X98175000Y-66050000D02*
X98175000Y-66165000D01*
X98175000Y-74950000D02*
X102325000Y-74950000D01*
X98175000Y-66050000D02*
X102325000Y-66050000D01*
X98175000Y-74925000D02*
X96800000Y-74925000D01*
D13*
X125840000Y-85660000D02*
X125840000Y-84400000D01*
X125840000Y-78840000D02*
X125840000Y-80100000D01*
X129600000Y-85660000D02*
X125840000Y-85660000D01*
X131850000Y-78840000D02*
X125840000Y-78840000D01*
X70840000Y-88090000D02*
X72100000Y-88090000D01*
X77660000Y-88090000D02*
X76400000Y-88090000D01*
X70840000Y-91850000D02*
X70840000Y-88090000D01*
X77660000Y-94100000D02*
X77660000Y-88090000D01*
D14*
X92576190Y-76880953D02*
X92076190Y-76880953D01*
X92076190Y-77000000D01*
X92100000Y-77071429D01*
X92147619Y-77119048D01*
X92195238Y-77142857D01*
X92290476Y-77166667D01*
X92361905Y-77166667D01*
X92457143Y-77142857D01*
X92504762Y-77119048D01*
X92552381Y-77071429D01*
X92576190Y-77000000D01*
X92576190Y-76880953D01*
X92076190Y-77619048D02*
X92076190Y-77380953D01*
X92314286Y-77357143D01*
X92290476Y-77380953D01*
X92266667Y-77428572D01*
X92266667Y-77547619D01*
X92290476Y-77595238D01*
X92314286Y-77619048D01*
X92361905Y-77642857D01*
X92480952Y-77642857D01*
X92528571Y-77619048D01*
X92552381Y-77595238D01*
X92576190Y-77547619D01*
X92576190Y-77428572D01*
X92552381Y-77380953D01*
X92528571Y-77357143D01*
D11*
X81682143Y-116767857D02*
X81717857Y-116803571D01*
X81825000Y-116839286D01*
X81896429Y-116839286D01*
X82003572Y-116803571D01*
X82075000Y-116732143D01*
X82110715Y-116660714D01*
X82146429Y-116517857D01*
X82146429Y-116410714D01*
X82110715Y-116267857D01*
X82075000Y-116196429D01*
X82003572Y-116125000D01*
X81896429Y-116089286D01*
X81825000Y-116089286D01*
X81717857Y-116125000D01*
X81682143Y-116160714D01*
X81396429Y-116160714D02*
X81360715Y-116125000D01*
X81289286Y-116089286D01*
X81110715Y-116089286D01*
X81039286Y-116125000D01*
X81003572Y-116160714D01*
X80967857Y-116232143D01*
X80967857Y-116303571D01*
X81003572Y-116410714D01*
X81432143Y-116839286D01*
X80967857Y-116839286D01*
X80325000Y-116339286D02*
X80325000Y-116839286D01*
X80503571Y-116053571D02*
X80682143Y-116589286D01*
X80217857Y-116589286D01*
X69767857Y-113767857D02*
X69803571Y-113732143D01*
X69839286Y-113625000D01*
X69839286Y-113553571D01*
X69803571Y-113446428D01*
X69732143Y-113375000D01*
X69660714Y-113339285D01*
X69517857Y-113303571D01*
X69410714Y-113303571D01*
X69267857Y-113339285D01*
X69196429Y-113375000D01*
X69125000Y-113446428D01*
X69089286Y-113553571D01*
X69089286Y-113625000D01*
X69125000Y-113732143D01*
X69160714Y-113767857D01*
X69160714Y-114053571D02*
X69125000Y-114089285D01*
X69089286Y-114160714D01*
X69089286Y-114339285D01*
X69125000Y-114410714D01*
X69160714Y-114446428D01*
X69232143Y-114482143D01*
X69303571Y-114482143D01*
X69410714Y-114446428D01*
X69839286Y-114017857D01*
X69839286Y-114482143D01*
X69089286Y-115125000D02*
X69089286Y-114982143D01*
X69125000Y-114910714D01*
X69160714Y-114875000D01*
X69267857Y-114803571D01*
X69410714Y-114767857D01*
X69696429Y-114767857D01*
X69767857Y-114803571D01*
X69803571Y-114839286D01*
X69839286Y-114910714D01*
X69839286Y-115053571D01*
X69803571Y-115125000D01*
X69767857Y-115160714D01*
X69696429Y-115196429D01*
X69517857Y-115196429D01*
X69446429Y-115160714D01*
X69410714Y-115125000D01*
X69375000Y-115053571D01*
X69375000Y-114910714D01*
X69410714Y-114839286D01*
X69446429Y-114803571D01*
X69517857Y-114767857D01*
X96252381Y-80823810D02*
X95252381Y-80823810D01*
X96252381Y-81871429D02*
X95776190Y-81538095D01*
X96252381Y-81300000D02*
X95252381Y-81300000D01*
X95252381Y-81680953D01*
X95300000Y-81776191D01*
X95347619Y-81823810D01*
X95442857Y-81871429D01*
X95585714Y-81871429D01*
X95680952Y-81823810D01*
X95728571Y-81776191D01*
X95776190Y-81680953D01*
X95776190Y-81300000D01*
X95347619Y-82252381D02*
X95300000Y-82300000D01*
X95252381Y-82395238D01*
X95252381Y-82633334D01*
X95300000Y-82728572D01*
X95347619Y-82776191D01*
X95442857Y-82823810D01*
X95538095Y-82823810D01*
X95680952Y-82776191D01*
X96252381Y-82204762D01*
X96252381Y-82823810D01*
D14*
X92226190Y-72428572D02*
X91988095Y-72261905D01*
X92226190Y-72142858D02*
X91726190Y-72142858D01*
X91726190Y-72333334D01*
X91750000Y-72380953D01*
X91773810Y-72404762D01*
X91821429Y-72428572D01*
X91892857Y-72428572D01*
X91940476Y-72404762D01*
X91964286Y-72380953D01*
X91988095Y-72333334D01*
X91988095Y-72142858D01*
X92226190Y-72904762D02*
X92226190Y-72619048D01*
X92226190Y-72761905D02*
X91726190Y-72761905D01*
X91797619Y-72714286D01*
X91845238Y-72666667D01*
X91869048Y-72619048D01*
X91726190Y-73333333D02*
X91726190Y-73238095D01*
X91750000Y-73190476D01*
X91773810Y-73166667D01*
X91845238Y-73119048D01*
X91940476Y-73095238D01*
X92130952Y-73095238D01*
X92178571Y-73119048D01*
X92202381Y-73142857D01*
X92226190Y-73190476D01*
X92226190Y-73285714D01*
X92202381Y-73333333D01*
X92178571Y-73357143D01*
X92130952Y-73380952D01*
X92011905Y-73380952D01*
X91964286Y-73357143D01*
X91940476Y-73333333D01*
X91916667Y-73285714D01*
X91916667Y-73190476D01*
X91940476Y-73142857D01*
X91964286Y-73119048D01*
X92011905Y-73095238D01*
D11*
X74311905Y-104640476D02*
X74959524Y-104640476D01*
X75035714Y-104678571D01*
X75073810Y-104716667D01*
X75111905Y-104792857D01*
X75111905Y-104945238D01*
X75073810Y-105021429D01*
X75035714Y-105059524D01*
X74959524Y-105097619D01*
X74311905Y-105097619D01*
X74311905Y-105402381D02*
X74311905Y-105897619D01*
X74616667Y-105630952D01*
X74616667Y-105745238D01*
X74654762Y-105821428D01*
X74692857Y-105859524D01*
X74769048Y-105897619D01*
X74959524Y-105897619D01*
X75035714Y-105859524D01*
X75073810Y-105821428D01*
X75111905Y-105745238D01*
X75111905Y-105516666D01*
X75073810Y-105440476D01*
X75035714Y-105402381D01*
X134571429Y-99339286D02*
X134571429Y-99946429D01*
X134535714Y-100017857D01*
X134500000Y-100053571D01*
X134428571Y-100089286D01*
X134285714Y-100089286D01*
X134214286Y-100053571D01*
X134178571Y-100017857D01*
X134142857Y-99946429D01*
X134142857Y-99339286D01*
X133678572Y-99660714D02*
X133750000Y-99625000D01*
X133785715Y-99589286D01*
X133821429Y-99517857D01*
X133821429Y-99482143D01*
X133785715Y-99410714D01*
X133750000Y-99375000D01*
X133678572Y-99339286D01*
X133535715Y-99339286D01*
X133464286Y-99375000D01*
X133428572Y-99410714D01*
X133392857Y-99482143D01*
X133392857Y-99517857D01*
X133428572Y-99589286D01*
X133464286Y-99625000D01*
X133535715Y-99660714D01*
X133678572Y-99660714D01*
X133750000Y-99696429D01*
X133785715Y-99732143D01*
X133821429Y-99803571D01*
X133821429Y-99946429D01*
X133785715Y-100017857D01*
X133750000Y-100053571D01*
X133678572Y-100089286D01*
X133535715Y-100089286D01*
X133464286Y-100053571D01*
X133428572Y-100017857D01*
X133392857Y-99946429D01*
X133392857Y-99803571D01*
X133428572Y-99732143D01*
X133464286Y-99696429D01*
X133535715Y-99660714D01*
X86116666Y-114702381D02*
X86450000Y-114226190D01*
X86688095Y-114702381D02*
X86688095Y-113702381D01*
X86307142Y-113702381D01*
X86211904Y-113750000D01*
X86164285Y-113797619D01*
X86116666Y-113892857D01*
X86116666Y-114035714D01*
X86164285Y-114130952D01*
X86211904Y-114178571D01*
X86307142Y-114226190D01*
X86688095Y-114226190D01*
X85783333Y-113702381D02*
X85164285Y-113702381D01*
X85497619Y-114083333D01*
X85354761Y-114083333D01*
X85259523Y-114130952D01*
X85211904Y-114178571D01*
X85164285Y-114273810D01*
X85164285Y-114511905D01*
X85211904Y-114607143D01*
X85259523Y-114654762D01*
X85354761Y-114702381D01*
X85640476Y-114702381D01*
X85735714Y-114654762D01*
X85783333Y-114607143D01*
X119982143Y-62517857D02*
X120017857Y-62553571D01*
X120125000Y-62589286D01*
X120196429Y-62589286D01*
X120303572Y-62553571D01*
X120375000Y-62482143D01*
X120410715Y-62410714D01*
X120446429Y-62267857D01*
X120446429Y-62160714D01*
X120410715Y-62017857D01*
X120375000Y-61946429D01*
X120303572Y-61875000D01*
X120196429Y-61839286D01*
X120125000Y-61839286D01*
X120017857Y-61875000D01*
X119982143Y-61910714D01*
X119267857Y-62589286D02*
X119696429Y-62589286D01*
X119482143Y-62589286D02*
X119482143Y-61839286D01*
X119553572Y-61946429D01*
X119625000Y-62017857D01*
X119696429Y-62053571D01*
X118625000Y-62089286D02*
X118625000Y-62589286D01*
X118803571Y-61803571D02*
X118982143Y-62339286D01*
X118517857Y-62339286D01*
D14*
X79821428Y-128178571D02*
X79845238Y-128202381D01*
X79916666Y-128226190D01*
X79964285Y-128226190D01*
X80035714Y-128202381D01*
X80083333Y-128154762D01*
X80107142Y-128107143D01*
X80130952Y-128011905D01*
X80130952Y-127940476D01*
X80107142Y-127845238D01*
X80083333Y-127797619D01*
X80035714Y-127750000D01*
X79964285Y-127726190D01*
X79916666Y-127726190D01*
X79845238Y-127750000D01*
X79821428Y-127773810D01*
X79345238Y-128226190D02*
X79630952Y-128226190D01*
X79488095Y-128226190D02*
X79488095Y-127726190D01*
X79535714Y-127797619D01*
X79583333Y-127845238D01*
X79630952Y-127869048D01*
X78892857Y-127726190D02*
X79130952Y-127726190D01*
X79154762Y-127964286D01*
X79130952Y-127940476D01*
X79083333Y-127916667D01*
X78964286Y-127916667D01*
X78916667Y-127940476D01*
X78892857Y-127964286D01*
X78869048Y-128011905D01*
X78869048Y-128130952D01*
X78892857Y-128178571D01*
X78916667Y-128202381D01*
X78964286Y-128226190D01*
X79083333Y-128226190D01*
X79130952Y-128202381D01*
X79154762Y-128178571D01*
X92226190Y-61678572D02*
X91988095Y-61511905D01*
X92226190Y-61392858D02*
X91726190Y-61392858D01*
X91726190Y-61583334D01*
X91750000Y-61630953D01*
X91773810Y-61654762D01*
X91821429Y-61678572D01*
X91892857Y-61678572D01*
X91940476Y-61654762D01*
X91964286Y-61630953D01*
X91988095Y-61583334D01*
X91988095Y-61392858D01*
X92226190Y-62154762D02*
X92226190Y-61869048D01*
X92226190Y-62011905D02*
X91726190Y-62011905D01*
X91797619Y-61964286D01*
X91845238Y-61916667D01*
X91869048Y-61869048D01*
X92226190Y-62392857D02*
X92226190Y-62488095D01*
X92202381Y-62535714D01*
X92178571Y-62559524D01*
X92107143Y-62607143D01*
X92011905Y-62630952D01*
X91821429Y-62630952D01*
X91773810Y-62607143D01*
X91750000Y-62583333D01*
X91726190Y-62535714D01*
X91726190Y-62440476D01*
X91750000Y-62392857D01*
X91773810Y-62369048D01*
X91821429Y-62345238D01*
X91940476Y-62345238D01*
X91988095Y-62369048D01*
X92011905Y-62392857D01*
X92035714Y-62440476D01*
X92035714Y-62535714D01*
X92011905Y-62583333D01*
X91988095Y-62607143D01*
X91940476Y-62630952D01*
D11*
X67857143Y-89607143D02*
X67904762Y-89559524D01*
X67952381Y-89416667D01*
X67952381Y-89321429D01*
X67904762Y-89178571D01*
X67809524Y-89083333D01*
X67714286Y-89035714D01*
X67523810Y-88988095D01*
X67380952Y-88988095D01*
X67190476Y-89035714D01*
X67095238Y-89083333D01*
X67000000Y-89178571D01*
X66952381Y-89321429D01*
X66952381Y-89416667D01*
X67000000Y-89559524D01*
X67047619Y-89607143D01*
X67047619Y-89988095D02*
X67000000Y-90035714D01*
X66952381Y-90130952D01*
X66952381Y-90369048D01*
X67000000Y-90464286D01*
X67047619Y-90511905D01*
X67142857Y-90559524D01*
X67238095Y-90559524D01*
X67380952Y-90511905D01*
X67952381Y-89940476D01*
X67952381Y-90559524D01*
X67047619Y-90940476D02*
X67000000Y-90988095D01*
X66952381Y-91083333D01*
X66952381Y-91321429D01*
X67000000Y-91416667D01*
X67047619Y-91464286D01*
X67142857Y-91511905D01*
X67238095Y-91511905D01*
X67380952Y-91464286D01*
X67952381Y-90892857D01*
X67952381Y-91511905D01*
D14*
X91928571Y-70178572D02*
X91952381Y-70154762D01*
X91976190Y-70083334D01*
X91976190Y-70035715D01*
X91952381Y-69964286D01*
X91904762Y-69916667D01*
X91857143Y-69892858D01*
X91761905Y-69869048D01*
X91690476Y-69869048D01*
X91595238Y-69892858D01*
X91547619Y-69916667D01*
X91500000Y-69964286D01*
X91476190Y-70035715D01*
X91476190Y-70083334D01*
X91500000Y-70154762D01*
X91523810Y-70178572D01*
X91523810Y-70369048D02*
X91500000Y-70392858D01*
X91476190Y-70440477D01*
X91476190Y-70559524D01*
X91500000Y-70607143D01*
X91523810Y-70630953D01*
X91571429Y-70654762D01*
X91619048Y-70654762D01*
X91690476Y-70630953D01*
X91976190Y-70345239D01*
X91976190Y-70654762D01*
X91476190Y-70821429D02*
X91476190Y-71130952D01*
X91666667Y-70964286D01*
X91666667Y-71035714D01*
X91690476Y-71083333D01*
X91714286Y-71107143D01*
X91761905Y-71130952D01*
X91880952Y-71130952D01*
X91928571Y-71107143D01*
X91952381Y-71083333D01*
X91976190Y-71035714D01*
X91976190Y-70892857D01*
X91952381Y-70845238D01*
X91928571Y-70821429D01*
D11*
X92092857Y-85052381D02*
X92426191Y-84576190D01*
X92664286Y-85052381D02*
X92664286Y-84052381D01*
X92283333Y-84052381D01*
X92188095Y-84100000D01*
X92140476Y-84147619D01*
X92092857Y-84242857D01*
X92092857Y-84385714D01*
X92140476Y-84480952D01*
X92188095Y-84528571D01*
X92283333Y-84576190D01*
X92664286Y-84576190D01*
X91140476Y-85052381D02*
X91711905Y-85052381D01*
X91426191Y-85052381D02*
X91426191Y-84052381D01*
X91521429Y-84195238D01*
X91616667Y-84290476D01*
X91711905Y-84338095D01*
X90569048Y-84480952D02*
X90664286Y-84433333D01*
X90711905Y-84385714D01*
X90759524Y-84290476D01*
X90759524Y-84242857D01*
X90711905Y-84147619D01*
X90664286Y-84100000D01*
X90569048Y-84052381D01*
X90378571Y-84052381D01*
X90283333Y-84100000D01*
X90235714Y-84147619D01*
X90188095Y-84242857D01*
X90188095Y-84290476D01*
X90235714Y-84385714D01*
X90283333Y-84433333D01*
X90378571Y-84480952D01*
X90569048Y-84480952D01*
X90664286Y-84528571D01*
X90711905Y-84576190D01*
X90759524Y-84671429D01*
X90759524Y-84861905D01*
X90711905Y-84957143D01*
X90664286Y-85004762D01*
X90569048Y-85052381D01*
X90378571Y-85052381D01*
X90283333Y-85004762D01*
X90235714Y-84957143D01*
X90188095Y-84861905D01*
X90188095Y-84671429D01*
X90235714Y-84576190D01*
X90283333Y-84528571D01*
X90378571Y-84480952D01*
D14*
X92226190Y-67928572D02*
X91988095Y-67761905D01*
X92226190Y-67642858D02*
X91726190Y-67642858D01*
X91726190Y-67833334D01*
X91750000Y-67880953D01*
X91773810Y-67904762D01*
X91821429Y-67928572D01*
X91892857Y-67928572D01*
X91940476Y-67904762D01*
X91964286Y-67880953D01*
X91988095Y-67833334D01*
X91988095Y-67642858D01*
X91773810Y-68119048D02*
X91750000Y-68142858D01*
X91726190Y-68190477D01*
X91726190Y-68309524D01*
X91750000Y-68357143D01*
X91773810Y-68380953D01*
X91821429Y-68404762D01*
X91869048Y-68404762D01*
X91940476Y-68380953D01*
X92226190Y-68095239D01*
X92226190Y-68404762D01*
X91726190Y-68714286D02*
X91726190Y-68761905D01*
X91750000Y-68809524D01*
X91773810Y-68833333D01*
X91821429Y-68857143D01*
X91916667Y-68880952D01*
X92035714Y-68880952D01*
X92130952Y-68857143D01*
X92178571Y-68833333D01*
X92202381Y-68809524D01*
X92226190Y-68761905D01*
X92226190Y-68714286D01*
X92202381Y-68666667D01*
X92178571Y-68642857D01*
X92130952Y-68619048D01*
X92035714Y-68595238D01*
X91916667Y-68595238D01*
X91821429Y-68619048D01*
X91773810Y-68642857D01*
X91750000Y-68666667D01*
X91726190Y-68714286D01*
D11*
X140357143Y-87033334D02*
X140404762Y-86985715D01*
X140452381Y-86842858D01*
X140452381Y-86747620D01*
X140404762Y-86604762D01*
X140309524Y-86509524D01*
X140214286Y-86461905D01*
X140023810Y-86414286D01*
X139880952Y-86414286D01*
X139690476Y-86461905D01*
X139595238Y-86509524D01*
X139500000Y-86604762D01*
X139452381Y-86747620D01*
X139452381Y-86842858D01*
X139500000Y-86985715D01*
X139547619Y-87033334D01*
X139547619Y-87414286D02*
X139500000Y-87461905D01*
X139452381Y-87557143D01*
X139452381Y-87795239D01*
X139500000Y-87890477D01*
X139547619Y-87938096D01*
X139642857Y-87985715D01*
X139738095Y-87985715D01*
X139880952Y-87938096D01*
X140452381Y-87366667D01*
X140452381Y-87985715D01*
X128166666Y-75607143D02*
X128214285Y-75654762D01*
X128357142Y-75702381D01*
X128452380Y-75702381D01*
X128595238Y-75654762D01*
X128690476Y-75559524D01*
X128738095Y-75464286D01*
X128785714Y-75273810D01*
X128785714Y-75130952D01*
X128738095Y-74940476D01*
X128690476Y-74845238D01*
X128595238Y-74750000D01*
X128452380Y-74702381D01*
X128357142Y-74702381D01*
X128214285Y-74750000D01*
X128166666Y-74797619D01*
X127309523Y-75035714D02*
X127309523Y-75702381D01*
X127547619Y-74654762D02*
X127785714Y-75369048D01*
X127166666Y-75369048D01*
X125166666Y-87607143D02*
X125214285Y-87654762D01*
X125357142Y-87702381D01*
X125452380Y-87702381D01*
X125595238Y-87654762D01*
X125690476Y-87559524D01*
X125738095Y-87464286D01*
X125785714Y-87273810D01*
X125785714Y-87130952D01*
X125738095Y-86940476D01*
X125690476Y-86845238D01*
X125595238Y-86750000D01*
X125452380Y-86702381D01*
X125357142Y-86702381D01*
X125214285Y-86750000D01*
X125166666Y-86797619D01*
X124261904Y-86702381D02*
X124738095Y-86702381D01*
X124785714Y-87178571D01*
X124738095Y-87130952D01*
X124642857Y-87083333D01*
X124404761Y-87083333D01*
X124309523Y-87130952D01*
X124261904Y-87178571D01*
X124214285Y-87273810D01*
X124214285Y-87511905D01*
X124261904Y-87607143D01*
X124309523Y-87654762D01*
X124404761Y-87702381D01*
X124642857Y-87702381D01*
X124738095Y-87654762D01*
X124785714Y-87607143D01*
D14*
X68375000Y-104267857D02*
X68410714Y-104303571D01*
X68517857Y-104339286D01*
X68589286Y-104339286D01*
X68696429Y-104303571D01*
X68767857Y-104232143D01*
X68803572Y-104160714D01*
X68839286Y-104017857D01*
X68839286Y-103910714D01*
X68803572Y-103767857D01*
X68767857Y-103696429D01*
X68696429Y-103625000D01*
X68589286Y-103589286D01*
X68517857Y-103589286D01*
X68410714Y-103625000D01*
X68375000Y-103660714D01*
X67732143Y-103589286D02*
X67875000Y-103589286D01*
X67946429Y-103625000D01*
X67982143Y-103660714D01*
X68053572Y-103767857D01*
X68089286Y-103910714D01*
X68089286Y-104196429D01*
X68053572Y-104267857D01*
X68017857Y-104303571D01*
X67946429Y-104339286D01*
X67803572Y-104339286D01*
X67732143Y-104303571D01*
X67696429Y-104267857D01*
X67660714Y-104196429D01*
X67660714Y-104017857D01*
X67696429Y-103946429D01*
X67732143Y-103910714D01*
X67803572Y-103875000D01*
X67946429Y-103875000D01*
X68017857Y-103910714D01*
X68053572Y-103946429D01*
X68089286Y-104017857D01*
X76833333Y-107928571D02*
X76857143Y-107952381D01*
X76928571Y-107976190D01*
X76976190Y-107976190D01*
X77047619Y-107952381D01*
X77095238Y-107904762D01*
X77119047Y-107857143D01*
X77142857Y-107761905D01*
X77142857Y-107690476D01*
X77119047Y-107595238D01*
X77095238Y-107547619D01*
X77047619Y-107500000D01*
X76976190Y-107476190D01*
X76928571Y-107476190D01*
X76857143Y-107500000D01*
X76833333Y-107523810D01*
X76666666Y-107476190D02*
X76333333Y-107476190D01*
X76547619Y-107976190D01*
D11*
X79416666Y-92857143D02*
X79464285Y-92904762D01*
X79607142Y-92952381D01*
X79702380Y-92952381D01*
X79845238Y-92904762D01*
X79940476Y-92809524D01*
X79988095Y-92714286D01*
X80035714Y-92523810D01*
X80035714Y-92380952D01*
X79988095Y-92190476D01*
X79940476Y-92095238D01*
X79845238Y-92000000D01*
X79702380Y-91952381D01*
X79607142Y-91952381D01*
X79464285Y-92000000D01*
X79416666Y-92047619D01*
X78845238Y-92380952D02*
X78940476Y-92333333D01*
X78988095Y-92285714D01*
X79035714Y-92190476D01*
X79035714Y-92142857D01*
X78988095Y-92047619D01*
X78940476Y-92000000D01*
X78845238Y-91952381D01*
X78654761Y-91952381D01*
X78559523Y-92000000D01*
X78511904Y-92047619D01*
X78464285Y-92142857D01*
X78464285Y-92190476D01*
X78511904Y-92285714D01*
X78559523Y-92333333D01*
X78654761Y-92380952D01*
X78845238Y-92380952D01*
X78940476Y-92428571D01*
X78988095Y-92476190D01*
X79035714Y-92571429D01*
X79035714Y-92761905D01*
X78988095Y-92857143D01*
X78940476Y-92904762D01*
X78845238Y-92952381D01*
X78654761Y-92952381D01*
X78559523Y-92904762D01*
X78511904Y-92857143D01*
X78464285Y-92761905D01*
X78464285Y-92571429D01*
X78511904Y-92476190D01*
X78559523Y-92428571D01*
X78654761Y-92380952D01*
X110607143Y-62583334D02*
X110654762Y-62535715D01*
X110702381Y-62392858D01*
X110702381Y-62297620D01*
X110654762Y-62154762D01*
X110559524Y-62059524D01*
X110464286Y-62011905D01*
X110273810Y-61964286D01*
X110130952Y-61964286D01*
X109940476Y-62011905D01*
X109845238Y-62059524D01*
X109750000Y-62154762D01*
X109702381Y-62297620D01*
X109702381Y-62392858D01*
X109750000Y-62535715D01*
X109797619Y-62583334D01*
X110702381Y-63059524D02*
X110702381Y-63250000D01*
X110654762Y-63345239D01*
X110607143Y-63392858D01*
X110464286Y-63488096D01*
X110273810Y-63535715D01*
X109892857Y-63535715D01*
X109797619Y-63488096D01*
X109750000Y-63440477D01*
X109702381Y-63345239D01*
X109702381Y-63154762D01*
X109750000Y-63059524D01*
X109797619Y-63011905D01*
X109892857Y-62964286D01*
X110130952Y-62964286D01*
X110226190Y-63011905D01*
X110273810Y-63059524D01*
X110321429Y-63154762D01*
X110321429Y-63345239D01*
X110273810Y-63440477D01*
X110226190Y-63488096D01*
X110130952Y-63535715D01*
D14*
X77071428Y-104178571D02*
X77095238Y-104202381D01*
X77166666Y-104226190D01*
X77214285Y-104226190D01*
X77285714Y-104202381D01*
X77333333Y-104154762D01*
X77357142Y-104107143D01*
X77380952Y-104011905D01*
X77380952Y-103940476D01*
X77357142Y-103845238D01*
X77333333Y-103797619D01*
X77285714Y-103750000D01*
X77214285Y-103726190D01*
X77166666Y-103726190D01*
X77095238Y-103750000D01*
X77071428Y-103773810D01*
X76595238Y-104226190D02*
X76880952Y-104226190D01*
X76738095Y-104226190D02*
X76738095Y-103726190D01*
X76785714Y-103797619D01*
X76833333Y-103845238D01*
X76880952Y-103869048D01*
X76285714Y-103726190D02*
X76238095Y-103726190D01*
X76190476Y-103750000D01*
X76166667Y-103773810D01*
X76142857Y-103821429D01*
X76119048Y-103916667D01*
X76119048Y-104035714D01*
X76142857Y-104130952D01*
X76166667Y-104178571D01*
X76190476Y-104202381D01*
X76238095Y-104226190D01*
X76285714Y-104226190D01*
X76333333Y-104202381D01*
X76357143Y-104178571D01*
X76380952Y-104130952D01*
X76404762Y-104035714D01*
X76404762Y-103916667D01*
X76380952Y-103821429D01*
X76357143Y-103773810D01*
X76333333Y-103750000D01*
X76285714Y-103726190D01*
X77071428Y-111678571D02*
X77095238Y-111702381D01*
X77166666Y-111726190D01*
X77214285Y-111726190D01*
X77285714Y-111702381D01*
X77333333Y-111654762D01*
X77357142Y-111607143D01*
X77380952Y-111511905D01*
X77380952Y-111440476D01*
X77357142Y-111345238D01*
X77333333Y-111297619D01*
X77285714Y-111250000D01*
X77214285Y-111226190D01*
X77166666Y-111226190D01*
X77095238Y-111250000D01*
X77071428Y-111273810D01*
X76595238Y-111726190D02*
X76880952Y-111726190D01*
X76738095Y-111726190D02*
X76738095Y-111226190D01*
X76785714Y-111297619D01*
X76833333Y-111345238D01*
X76880952Y-111369048D01*
X76119048Y-111726190D02*
X76404762Y-111726190D01*
X76261905Y-111726190D02*
X76261905Y-111226190D01*
X76309524Y-111297619D01*
X76357143Y-111345238D01*
X76404762Y-111369048D01*
X68607143Y-121857143D02*
X68654762Y-121809524D01*
X68702381Y-121666667D01*
X68702381Y-121571429D01*
X68654762Y-121428571D01*
X68559524Y-121333333D01*
X68464286Y-121285714D01*
X68273810Y-121238095D01*
X68130952Y-121238095D01*
X67940476Y-121285714D01*
X67845238Y-121333333D01*
X67750000Y-121428571D01*
X67702381Y-121571429D01*
X67702381Y-121666667D01*
X67750000Y-121809524D01*
X67797619Y-121857143D01*
X68702381Y-122809524D02*
X68702381Y-122238095D01*
X68702381Y-122523809D02*
X67702381Y-122523809D01*
X67845238Y-122428571D01*
X67940476Y-122333333D01*
X67988095Y-122238095D01*
X67797619Y-123190476D02*
X67750000Y-123238095D01*
X67702381Y-123333333D01*
X67702381Y-123571429D01*
X67750000Y-123666667D01*
X67797619Y-123714286D01*
X67892857Y-123761905D01*
X67988095Y-123761905D01*
X68130952Y-123714286D01*
X68702381Y-123142857D01*
X68702381Y-123761905D01*
X75964286Y-114214285D02*
X75992857Y-114185714D01*
X76021429Y-114100000D01*
X76021429Y-114042857D01*
X75992857Y-113957142D01*
X75935714Y-113900000D01*
X75878571Y-113871428D01*
X75764286Y-113842857D01*
X75678571Y-113842857D01*
X75564286Y-113871428D01*
X75507143Y-113900000D01*
X75450000Y-113957142D01*
X75421429Y-114042857D01*
X75421429Y-114100000D01*
X75450000Y-114185714D01*
X75478571Y-114214285D01*
X76021429Y-114785714D02*
X76021429Y-114442857D01*
X76021429Y-114614285D02*
X75421429Y-114614285D01*
X75507143Y-114557142D01*
X75564286Y-114500000D01*
X75592857Y-114442857D01*
X75421429Y-114985714D02*
X75421429Y-115357143D01*
X75650000Y-115157143D01*
X75650000Y-115242857D01*
X75678571Y-115300000D01*
X75707143Y-115328571D01*
X75764286Y-115357143D01*
X75907143Y-115357143D01*
X75964286Y-115328571D01*
X75992857Y-115300000D01*
X76021429Y-115242857D01*
X76021429Y-115071429D01*
X75992857Y-115014286D01*
X75964286Y-114985714D01*
D11*
X71214286Y-116514285D02*
X71242857Y-116485714D01*
X71271429Y-116400000D01*
X71271429Y-116342857D01*
X71242857Y-116257142D01*
X71185714Y-116200000D01*
X71128571Y-116171428D01*
X71014286Y-116142857D01*
X70928571Y-116142857D01*
X70814286Y-116171428D01*
X70757143Y-116200000D01*
X70700000Y-116257142D01*
X70671429Y-116342857D01*
X70671429Y-116400000D01*
X70700000Y-116485714D01*
X70728571Y-116514285D01*
X71271429Y-117085714D02*
X71271429Y-116742857D01*
X71271429Y-116914285D02*
X70671429Y-116914285D01*
X70757143Y-116857142D01*
X70814286Y-116800000D01*
X70842857Y-116742857D01*
X70671429Y-117600000D02*
X70671429Y-117485714D01*
X70700000Y-117428571D01*
X70728571Y-117400000D01*
X70814286Y-117342857D01*
X70928571Y-117314286D01*
X71157143Y-117314286D01*
X71214286Y-117342857D01*
X71242857Y-117371429D01*
X71271429Y-117428571D01*
X71271429Y-117542857D01*
X71242857Y-117600000D01*
X71214286Y-117628571D01*
X71157143Y-117657143D01*
X71014286Y-117657143D01*
X70957143Y-117628571D01*
X70928571Y-117600000D01*
X70900000Y-117542857D01*
X70900000Y-117428571D01*
X70928571Y-117371429D01*
X70957143Y-117342857D01*
X71014286Y-117314286D01*
X108585715Y-79014286D02*
X108614286Y-79042857D01*
X108700000Y-79071429D01*
X108757143Y-79071429D01*
X108842858Y-79042857D01*
X108900000Y-78985714D01*
X108928572Y-78928571D01*
X108957143Y-78814286D01*
X108957143Y-78728571D01*
X108928572Y-78614286D01*
X108900000Y-78557143D01*
X108842858Y-78500000D01*
X108757143Y-78471429D01*
X108700000Y-78471429D01*
X108614286Y-78500000D01*
X108585715Y-78528571D01*
X108014286Y-79071429D02*
X108357143Y-79071429D01*
X108185715Y-79071429D02*
X108185715Y-78471429D01*
X108242858Y-78557143D01*
X108300000Y-78614286D01*
X108357143Y-78642857D01*
X107814286Y-78471429D02*
X107414286Y-78471429D01*
X107671429Y-79071429D01*
X108857143Y-73357143D02*
X108904762Y-73309524D01*
X108952381Y-73166667D01*
X108952381Y-73071429D01*
X108904762Y-72928571D01*
X108809524Y-72833333D01*
X108714286Y-72785714D01*
X108523810Y-72738095D01*
X108380952Y-72738095D01*
X108190476Y-72785714D01*
X108095238Y-72833333D01*
X108000000Y-72928571D01*
X107952381Y-73071429D01*
X107952381Y-73166667D01*
X108000000Y-73309524D01*
X108047619Y-73357143D01*
X108952381Y-74309524D02*
X108952381Y-73738095D01*
X108952381Y-74023809D02*
X107952381Y-74023809D01*
X108095238Y-73928571D01*
X108190476Y-73833333D01*
X108238095Y-73738095D01*
X108380952Y-74880952D02*
X108333333Y-74785714D01*
X108285714Y-74738095D01*
X108190476Y-74690476D01*
X108142857Y-74690476D01*
X108047619Y-74738095D01*
X108000000Y-74785714D01*
X107952381Y-74880952D01*
X107952381Y-75071429D01*
X108000000Y-75166667D01*
X108047619Y-75214286D01*
X108142857Y-75261905D01*
X108190476Y-75261905D01*
X108285714Y-75214286D01*
X108333333Y-75166667D01*
X108380952Y-75071429D01*
X108380952Y-74880952D01*
X108428571Y-74785714D01*
X108476190Y-74738095D01*
X108571429Y-74690476D01*
X108761905Y-74690476D01*
X108857143Y-74738095D01*
X108904762Y-74785714D01*
X108952381Y-74880952D01*
X108952381Y-75071429D01*
X108904762Y-75166667D01*
X108857143Y-75214286D01*
X108761905Y-75261905D01*
X108571429Y-75261905D01*
X108476190Y-75214286D01*
X108428571Y-75166667D01*
X108380952Y-75071429D01*
D14*
X100428571Y-59678572D02*
X100452381Y-59654762D01*
X100476190Y-59583334D01*
X100476190Y-59535715D01*
X100452381Y-59464286D01*
X100404762Y-59416667D01*
X100357143Y-59392858D01*
X100261905Y-59369048D01*
X100190476Y-59369048D01*
X100095238Y-59392858D01*
X100047619Y-59416667D01*
X100000000Y-59464286D01*
X99976190Y-59535715D01*
X99976190Y-59583334D01*
X100000000Y-59654762D01*
X100023810Y-59678572D01*
X100476190Y-60154762D02*
X100476190Y-59869048D01*
X100476190Y-60011905D02*
X99976190Y-60011905D01*
X100047619Y-59964286D01*
X100095238Y-59916667D01*
X100119048Y-59869048D01*
X100476190Y-60392857D02*
X100476190Y-60488095D01*
X100452381Y-60535714D01*
X100428571Y-60559524D01*
X100357143Y-60607143D01*
X100261905Y-60630952D01*
X100071429Y-60630952D01*
X100023810Y-60607143D01*
X100000000Y-60583333D01*
X99976190Y-60535714D01*
X99976190Y-60440476D01*
X100000000Y-60392857D01*
X100023810Y-60369048D01*
X100071429Y-60345238D01*
X100190476Y-60345238D01*
X100238095Y-60369048D01*
X100261905Y-60392857D01*
X100285714Y-60440476D01*
X100285714Y-60535714D01*
X100261905Y-60583333D01*
X100238095Y-60607143D01*
X100190476Y-60630952D01*
X81321428Y-128178571D02*
X81345238Y-128202381D01*
X81416666Y-128226190D01*
X81464285Y-128226190D01*
X81535714Y-128202381D01*
X81583333Y-128154762D01*
X81607142Y-128107143D01*
X81630952Y-128011905D01*
X81630952Y-127940476D01*
X81607142Y-127845238D01*
X81583333Y-127797619D01*
X81535714Y-127750000D01*
X81464285Y-127726190D01*
X81416666Y-127726190D01*
X81345238Y-127750000D01*
X81321428Y-127773810D01*
X81130952Y-127773810D02*
X81107142Y-127750000D01*
X81059523Y-127726190D01*
X80940476Y-127726190D01*
X80892857Y-127750000D01*
X80869047Y-127773810D01*
X80845238Y-127821429D01*
X80845238Y-127869048D01*
X80869047Y-127940476D01*
X81154761Y-128226190D01*
X80845238Y-128226190D01*
X80678571Y-127726190D02*
X80345238Y-127726190D01*
X80559524Y-128226190D01*
X81571428Y-72428571D02*
X81595238Y-72452381D01*
X81666666Y-72476190D01*
X81714285Y-72476190D01*
X81785714Y-72452381D01*
X81833333Y-72404762D01*
X81857142Y-72357143D01*
X81880952Y-72261905D01*
X81880952Y-72190476D01*
X81857142Y-72095238D01*
X81833333Y-72047619D01*
X81785714Y-72000000D01*
X81714285Y-71976190D01*
X81666666Y-71976190D01*
X81595238Y-72000000D01*
X81571428Y-72023810D01*
X81404761Y-71976190D02*
X81095238Y-71976190D01*
X81261904Y-72166667D01*
X81190476Y-72166667D01*
X81142857Y-72190476D01*
X81119047Y-72214286D01*
X81095238Y-72261905D01*
X81095238Y-72380952D01*
X81119047Y-72428571D01*
X81142857Y-72452381D01*
X81190476Y-72476190D01*
X81333333Y-72476190D01*
X81380952Y-72452381D01*
X81404761Y-72428571D01*
X80666667Y-72142857D02*
X80666667Y-72476190D01*
X80785714Y-71952381D02*
X80904762Y-72309524D01*
X80595238Y-72309524D01*
D11*
X70625000Y-104339286D02*
X70875000Y-103982143D01*
X71053572Y-104339286D02*
X71053572Y-103589286D01*
X70767857Y-103589286D01*
X70696429Y-103625000D01*
X70660714Y-103660714D01*
X70625000Y-103732143D01*
X70625000Y-103839286D01*
X70660714Y-103910714D01*
X70696429Y-103946429D01*
X70767857Y-103982143D01*
X71053572Y-103982143D01*
X70339286Y-103660714D02*
X70303572Y-103625000D01*
X70232143Y-103589286D01*
X70053572Y-103589286D01*
X69982143Y-103625000D01*
X69946429Y-103660714D01*
X69910714Y-103732143D01*
X69910714Y-103803571D01*
X69946429Y-103910714D01*
X70375000Y-104339286D01*
X69910714Y-104339286D01*
X72625000Y-104339286D02*
X72875000Y-103982143D01*
X73053572Y-104339286D02*
X73053572Y-103589286D01*
X72767857Y-103589286D01*
X72696429Y-103625000D01*
X72660714Y-103660714D01*
X72625000Y-103732143D01*
X72625000Y-103839286D01*
X72660714Y-103910714D01*
X72696429Y-103946429D01*
X72767857Y-103982143D01*
X73053572Y-103982143D01*
X71982143Y-103839286D02*
X71982143Y-104339286D01*
X72160714Y-103553571D02*
X72339286Y-104089286D01*
X71875000Y-104089286D01*
X84166666Y-114702381D02*
X84500000Y-114226190D01*
X84738095Y-114702381D02*
X84738095Y-113702381D01*
X84357142Y-113702381D01*
X84261904Y-113750000D01*
X84214285Y-113797619D01*
X84166666Y-113892857D01*
X84166666Y-114035714D01*
X84214285Y-114130952D01*
X84261904Y-114178571D01*
X84357142Y-114226190D01*
X84738095Y-114226190D01*
X83261904Y-113702381D02*
X83738095Y-113702381D01*
X83785714Y-114178571D01*
X83738095Y-114130952D01*
X83642857Y-114083333D01*
X83404761Y-114083333D01*
X83309523Y-114130952D01*
X83261904Y-114178571D01*
X83214285Y-114273810D01*
X83214285Y-114511905D01*
X83261904Y-114607143D01*
X83309523Y-114654762D01*
X83404761Y-114702381D01*
X83642857Y-114702381D01*
X83738095Y-114654762D01*
X83785714Y-114607143D01*
X74625000Y-104339286D02*
X74875000Y-103982143D01*
X75053572Y-104339286D02*
X75053572Y-103589286D01*
X74767857Y-103589286D01*
X74696429Y-103625000D01*
X74660714Y-103660714D01*
X74625000Y-103732143D01*
X74625000Y-103839286D01*
X74660714Y-103910714D01*
X74696429Y-103946429D01*
X74767857Y-103982143D01*
X75053572Y-103982143D01*
X73982143Y-103589286D02*
X74125000Y-103589286D01*
X74196429Y-103625000D01*
X74232143Y-103660714D01*
X74303572Y-103767857D01*
X74339286Y-103910714D01*
X74339286Y-104196429D01*
X74303572Y-104267857D01*
X74267857Y-104303571D01*
X74196429Y-104339286D01*
X74053572Y-104339286D01*
X73982143Y-104303571D01*
X73946429Y-104267857D01*
X73910714Y-104196429D01*
X73910714Y-104017857D01*
X73946429Y-103946429D01*
X73982143Y-103910714D01*
X74053572Y-103875000D01*
X74196429Y-103875000D01*
X74267857Y-103910714D01*
X74303572Y-103946429D01*
X74339286Y-104017857D01*
X70952381Y-95583334D02*
X70476190Y-95250000D01*
X70952381Y-95011905D02*
X69952381Y-95011905D01*
X69952381Y-95392858D01*
X70000000Y-95488096D01*
X70047619Y-95535715D01*
X70142857Y-95583334D01*
X70285714Y-95583334D01*
X70380952Y-95535715D01*
X70428571Y-95488096D01*
X70476190Y-95392858D01*
X70476190Y-95011905D01*
X69952381Y-95916667D02*
X69952381Y-96583334D01*
X70952381Y-96154762D01*
X72952381Y-95583334D02*
X72476190Y-95250000D01*
X72952381Y-95011905D02*
X71952381Y-95011905D01*
X71952381Y-95392858D01*
X72000000Y-95488096D01*
X72047619Y-95535715D01*
X72142857Y-95583334D01*
X72285714Y-95583334D01*
X72380952Y-95535715D01*
X72428571Y-95488096D01*
X72476190Y-95392858D01*
X72476190Y-95011905D01*
X72380952Y-96154762D02*
X72333333Y-96059524D01*
X72285714Y-96011905D01*
X72190476Y-95964286D01*
X72142857Y-95964286D01*
X72047619Y-96011905D01*
X72000000Y-96059524D01*
X71952381Y-96154762D01*
X71952381Y-96345239D01*
X72000000Y-96440477D01*
X72047619Y-96488096D01*
X72142857Y-96535715D01*
X72190476Y-96535715D01*
X72285714Y-96488096D01*
X72333333Y-96440477D01*
X72380952Y-96345239D01*
X72380952Y-96154762D01*
X72428571Y-96059524D01*
X72476190Y-96011905D01*
X72571429Y-95964286D01*
X72761905Y-95964286D01*
X72857143Y-96011905D01*
X72904762Y-96059524D01*
X72952381Y-96154762D01*
X72952381Y-96345239D01*
X72904762Y-96440477D01*
X72857143Y-96488096D01*
X72761905Y-96535715D01*
X72571429Y-96535715D01*
X72476190Y-96488096D01*
X72428571Y-96440477D01*
X72380952Y-96345239D01*
X128866676Y-69252391D02*
X129200010Y-68776200D01*
X129438105Y-69252391D02*
X129438105Y-68252391D01*
X129057152Y-68252391D01*
X128961914Y-68300010D01*
X128914295Y-68347629D01*
X128866676Y-68442867D01*
X128866676Y-68585724D01*
X128914295Y-68680962D01*
X128961914Y-68728581D01*
X129057152Y-68776200D01*
X129438105Y-68776200D01*
X128390486Y-69252391D02*
X128200010Y-69252391D01*
X128104771Y-69204772D01*
X128057152Y-69157153D01*
X127961914Y-69014296D01*
X127914295Y-68823820D01*
X127914295Y-68442867D01*
X127961914Y-68347629D01*
X128009533Y-68300010D01*
X128104771Y-68252391D01*
X128295248Y-68252391D01*
X128390486Y-68300010D01*
X128438105Y-68347629D01*
X128485724Y-68442867D01*
X128485724Y-68680962D01*
X128438105Y-68776200D01*
X128390486Y-68823820D01*
X128295248Y-68871439D01*
X128104771Y-68871439D01*
X128009533Y-68823820D01*
X127961914Y-68776200D01*
X127914295Y-68680962D01*
X75642857Y-96202381D02*
X75976191Y-95726190D01*
X76214286Y-96202381D02*
X76214286Y-95202381D01*
X75833333Y-95202381D01*
X75738095Y-95250000D01*
X75690476Y-95297619D01*
X75642857Y-95392857D01*
X75642857Y-95535714D01*
X75690476Y-95630952D01*
X75738095Y-95678571D01*
X75833333Y-95726190D01*
X76214286Y-95726190D01*
X74690476Y-96202381D02*
X75261905Y-96202381D01*
X74976191Y-96202381D02*
X74976191Y-95202381D01*
X75071429Y-95345238D01*
X75166667Y-95440476D01*
X75261905Y-95488095D01*
X74071429Y-95202381D02*
X73976190Y-95202381D01*
X73880952Y-95250000D01*
X73833333Y-95297619D01*
X73785714Y-95392857D01*
X73738095Y-95583333D01*
X73738095Y-95821429D01*
X73785714Y-96011905D01*
X73833333Y-96107143D01*
X73880952Y-96154762D01*
X73976190Y-96202381D01*
X74071429Y-96202381D01*
X74166667Y-96154762D01*
X74214286Y-96107143D01*
X74261905Y-96011905D01*
X74309524Y-95821429D01*
X74309524Y-95583333D01*
X74261905Y-95392857D01*
X74214286Y-95297619D01*
X74166667Y-95250000D01*
X74071429Y-95202381D01*
X68232143Y-98339286D02*
X68482143Y-97982143D01*
X68660715Y-98339286D02*
X68660715Y-97589286D01*
X68375000Y-97589286D01*
X68303572Y-97625000D01*
X68267857Y-97660714D01*
X68232143Y-97732143D01*
X68232143Y-97839286D01*
X68267857Y-97910714D01*
X68303572Y-97946429D01*
X68375000Y-97982143D01*
X68660715Y-97982143D01*
X67517857Y-98339286D02*
X67946429Y-98339286D01*
X67732143Y-98339286D02*
X67732143Y-97589286D01*
X67803572Y-97696429D01*
X67875000Y-97767857D01*
X67946429Y-97803571D01*
X66803571Y-98339286D02*
X67232143Y-98339286D01*
X67017857Y-98339286D02*
X67017857Y-97589286D01*
X67089286Y-97696429D01*
X67160714Y-97767857D01*
X67232143Y-97803571D01*
D14*
X79726190Y-102428572D02*
X79488095Y-102261905D01*
X79726190Y-102142858D02*
X79226190Y-102142858D01*
X79226190Y-102333334D01*
X79250000Y-102380953D01*
X79273810Y-102404762D01*
X79321429Y-102428572D01*
X79392857Y-102428572D01*
X79440476Y-102404762D01*
X79464286Y-102380953D01*
X79488095Y-102333334D01*
X79488095Y-102142858D01*
X79726190Y-102904762D02*
X79726190Y-102619048D01*
X79726190Y-102761905D02*
X79226190Y-102761905D01*
X79297619Y-102714286D01*
X79345238Y-102666667D01*
X79369048Y-102619048D01*
X79226190Y-103357143D02*
X79226190Y-103119048D01*
X79464286Y-103095238D01*
X79440476Y-103119048D01*
X79416667Y-103166667D01*
X79416667Y-103285714D01*
X79440476Y-103333333D01*
X79464286Y-103357143D01*
X79511905Y-103380952D01*
X79630952Y-103380952D01*
X79678571Y-103357143D01*
X79702381Y-103333333D01*
X79726190Y-103285714D01*
X79726190Y-103166667D01*
X79702381Y-103119048D01*
X79678571Y-103095238D01*
X79726190Y-104428572D02*
X79488095Y-104261905D01*
X79726190Y-104142858D02*
X79226190Y-104142858D01*
X79226190Y-104333334D01*
X79250000Y-104380953D01*
X79273810Y-104404762D01*
X79321429Y-104428572D01*
X79392857Y-104428572D01*
X79440476Y-104404762D01*
X79464286Y-104380953D01*
X79488095Y-104333334D01*
X79488095Y-104142858D01*
X79726190Y-104904762D02*
X79726190Y-104619048D01*
X79726190Y-104761905D02*
X79226190Y-104761905D01*
X79297619Y-104714286D01*
X79345238Y-104666667D01*
X79369048Y-104619048D01*
X79226190Y-105071429D02*
X79226190Y-105404762D01*
X79726190Y-105190476D01*
X79726190Y-106428572D02*
X79488095Y-106261905D01*
X79726190Y-106142858D02*
X79226190Y-106142858D01*
X79226190Y-106333334D01*
X79250000Y-106380953D01*
X79273810Y-106404762D01*
X79321429Y-106428572D01*
X79392857Y-106428572D01*
X79440476Y-106404762D01*
X79464286Y-106380953D01*
X79488095Y-106333334D01*
X79488095Y-106142858D01*
X79273810Y-106619048D02*
X79250000Y-106642858D01*
X79226190Y-106690477D01*
X79226190Y-106809524D01*
X79250000Y-106857143D01*
X79273810Y-106880953D01*
X79321429Y-106904762D01*
X79369048Y-106904762D01*
X79440476Y-106880953D01*
X79726190Y-106595239D01*
X79726190Y-106904762D01*
X79226190Y-107333333D02*
X79226190Y-107238095D01*
X79250000Y-107190476D01*
X79273810Y-107166667D01*
X79345238Y-107119048D01*
X79440476Y-107095238D01*
X79630952Y-107095238D01*
X79678571Y-107119048D01*
X79702381Y-107142857D01*
X79726190Y-107190476D01*
X79726190Y-107285714D01*
X79702381Y-107333333D01*
X79678571Y-107357143D01*
X79630952Y-107380952D01*
X79511905Y-107380952D01*
X79464286Y-107357143D01*
X79440476Y-107333333D01*
X79416667Y-107285714D01*
X79416667Y-107190476D01*
X79440476Y-107142857D01*
X79464286Y-107119048D01*
X79511905Y-107095238D01*
X79726190Y-108428572D02*
X79488095Y-108261905D01*
X79726190Y-108142858D02*
X79226190Y-108142858D01*
X79226190Y-108333334D01*
X79250000Y-108380953D01*
X79273810Y-108404762D01*
X79321429Y-108428572D01*
X79392857Y-108428572D01*
X79440476Y-108404762D01*
X79464286Y-108380953D01*
X79488095Y-108333334D01*
X79488095Y-108142858D01*
X79273810Y-108619048D02*
X79250000Y-108642858D01*
X79226190Y-108690477D01*
X79226190Y-108809524D01*
X79250000Y-108857143D01*
X79273810Y-108880953D01*
X79321429Y-108904762D01*
X79369048Y-108904762D01*
X79440476Y-108880953D01*
X79726190Y-108595239D01*
X79726190Y-108904762D01*
X79226190Y-109071429D02*
X79226190Y-109404762D01*
X79726190Y-109190476D01*
X79726190Y-110428572D02*
X79488095Y-110261905D01*
X79726190Y-110142858D02*
X79226190Y-110142858D01*
X79226190Y-110333334D01*
X79250000Y-110380953D01*
X79273810Y-110404762D01*
X79321429Y-110428572D01*
X79392857Y-110428572D01*
X79440476Y-110404762D01*
X79464286Y-110380953D01*
X79488095Y-110333334D01*
X79488095Y-110142858D01*
X79273810Y-110619048D02*
X79250000Y-110642858D01*
X79226190Y-110690477D01*
X79226190Y-110809524D01*
X79250000Y-110857143D01*
X79273810Y-110880953D01*
X79321429Y-110904762D01*
X79369048Y-110904762D01*
X79440476Y-110880953D01*
X79726190Y-110595239D01*
X79726190Y-110904762D01*
X79440476Y-111190476D02*
X79416667Y-111142857D01*
X79392857Y-111119048D01*
X79345238Y-111095238D01*
X79321429Y-111095238D01*
X79273810Y-111119048D01*
X79250000Y-111142857D01*
X79226190Y-111190476D01*
X79226190Y-111285714D01*
X79250000Y-111333333D01*
X79273810Y-111357143D01*
X79321429Y-111380952D01*
X79345238Y-111380952D01*
X79392857Y-111357143D01*
X79416667Y-111333333D01*
X79440476Y-111285714D01*
X79440476Y-111190476D01*
X79464286Y-111142857D01*
X79488095Y-111119048D01*
X79535714Y-111095238D01*
X79630952Y-111095238D01*
X79678571Y-111119048D01*
X79702381Y-111142857D01*
X79726190Y-111190476D01*
X79726190Y-111285714D01*
X79702381Y-111333333D01*
X79678571Y-111357143D01*
X79630952Y-111380952D01*
X79535714Y-111380952D01*
X79488095Y-111357143D01*
X79464286Y-111333333D01*
X79440476Y-111285714D01*
X79726190Y-112428572D02*
X79488095Y-112261905D01*
X79726190Y-112142858D02*
X79226190Y-112142858D01*
X79226190Y-112333334D01*
X79250000Y-112380953D01*
X79273810Y-112404762D01*
X79321429Y-112428572D01*
X79392857Y-112428572D01*
X79440476Y-112404762D01*
X79464286Y-112380953D01*
X79488095Y-112333334D01*
X79488095Y-112142858D01*
X79273810Y-112619048D02*
X79250000Y-112642858D01*
X79226190Y-112690477D01*
X79226190Y-112809524D01*
X79250000Y-112857143D01*
X79273810Y-112880953D01*
X79321429Y-112904762D01*
X79369048Y-112904762D01*
X79440476Y-112880953D01*
X79726190Y-112595239D01*
X79726190Y-112904762D01*
X79726190Y-113142857D02*
X79726190Y-113238095D01*
X79702381Y-113285714D01*
X79678571Y-113309524D01*
X79607143Y-113357143D01*
X79511905Y-113380952D01*
X79321429Y-113380952D01*
X79273810Y-113357143D01*
X79250000Y-113333333D01*
X79226190Y-113285714D01*
X79226190Y-113190476D01*
X79250000Y-113142857D01*
X79273810Y-113119048D01*
X79321429Y-113095238D01*
X79440476Y-113095238D01*
X79488095Y-113119048D01*
X79511905Y-113142857D01*
X79535714Y-113190476D01*
X79535714Y-113285714D01*
X79511905Y-113333333D01*
X79488095Y-113357143D01*
X79440476Y-113380952D01*
D11*
X80189286Y-132828571D02*
X80796429Y-132828571D01*
X80867857Y-132864286D01*
X80903571Y-132900000D01*
X80939286Y-132971429D01*
X80939286Y-133114286D01*
X80903571Y-133185714D01*
X80867857Y-133221429D01*
X80796429Y-133257143D01*
X80189286Y-133257143D01*
X80439286Y-133935714D02*
X80939286Y-133935714D01*
X80153571Y-133757143D02*
X80689286Y-133578571D01*
X80689286Y-134042857D01*
X111311905Y-80152381D02*
X111311905Y-80961905D01*
X111264286Y-81057143D01*
X111216667Y-81104762D01*
X111121429Y-81152381D01*
X110930952Y-81152381D01*
X110835714Y-81104762D01*
X110788095Y-81057143D01*
X110740476Y-80961905D01*
X110740476Y-80152381D01*
X109788095Y-80152381D02*
X110264286Y-80152381D01*
X110311905Y-80628571D01*
X110264286Y-80580952D01*
X110169048Y-80533333D01*
X109930952Y-80533333D01*
X109835714Y-80580952D01*
X109788095Y-80628571D01*
X109740476Y-80723810D01*
X109740476Y-80961905D01*
X109788095Y-81057143D01*
X109835714Y-81104762D01*
X109930952Y-81152381D01*
X110169048Y-81152381D01*
X110264286Y-81104762D01*
X110311905Y-81057143D01*
X79711905Y-66190476D02*
X80359524Y-66190476D01*
X80435714Y-66228571D01*
X80473810Y-66266667D01*
X80511905Y-66342857D01*
X80511905Y-66495238D01*
X80473810Y-66571429D01*
X80435714Y-66609524D01*
X80359524Y-66647619D01*
X79711905Y-66647619D01*
X79711905Y-67371428D02*
X79711905Y-67219047D01*
X79750000Y-67142857D01*
X79788095Y-67104762D01*
X79902381Y-67028571D01*
X80054762Y-66990476D01*
X80359524Y-66990476D01*
X80435714Y-67028571D01*
X80473810Y-67066666D01*
X80511905Y-67142857D01*
X80511905Y-67295238D01*
X80473810Y-67371428D01*
X80435714Y-67409524D01*
X80359524Y-67447619D01*
X80169048Y-67447619D01*
X80092857Y-67409524D01*
X80054762Y-67371428D01*
X80016667Y-67295238D01*
X80016667Y-67142857D01*
X80054762Y-67066666D01*
X80092857Y-67028571D01*
X80169048Y-66990476D01*
D14*
X92526190Y-74678572D02*
X92288095Y-74511905D01*
X92526190Y-74392858D02*
X92026190Y-74392858D01*
X92026190Y-74583334D01*
X92050000Y-74630953D01*
X92073810Y-74654762D01*
X92121429Y-74678572D01*
X92192857Y-74678572D01*
X92240476Y-74654762D01*
X92264286Y-74630953D01*
X92288095Y-74583334D01*
X92288095Y-74392858D01*
X92526190Y-75154762D02*
X92526190Y-74869048D01*
X92526190Y-75011905D02*
X92026190Y-75011905D01*
X92097619Y-74964286D01*
X92145238Y-74916667D01*
X92169048Y-74869048D01*
X92192857Y-75583333D02*
X92526190Y-75583333D01*
X92002381Y-75464286D02*
X92359524Y-75345238D01*
X92359524Y-75654762D01*
X128678571Y-100678572D02*
X128702381Y-100654762D01*
X128726190Y-100583334D01*
X128726190Y-100535715D01*
X128702381Y-100464286D01*
X128654762Y-100416667D01*
X128607143Y-100392858D01*
X128511905Y-100369048D01*
X128440476Y-100369048D01*
X128345238Y-100392858D01*
X128297619Y-100416667D01*
X128250000Y-100464286D01*
X128226190Y-100535715D01*
X128226190Y-100583334D01*
X128250000Y-100654762D01*
X128273810Y-100678572D01*
X128392857Y-101107143D02*
X128726190Y-101107143D01*
X128202381Y-100988096D02*
X128559524Y-100869048D01*
X128559524Y-101178572D01*
X128392857Y-101583333D02*
X128726190Y-101583333D01*
X128202381Y-101464286D02*
X128559524Y-101345238D01*
X128559524Y-101654762D01*
X128678571Y-99178572D02*
X128702381Y-99154762D01*
X128726190Y-99083334D01*
X128726190Y-99035715D01*
X128702381Y-98964286D01*
X128654762Y-98916667D01*
X128607143Y-98892858D01*
X128511905Y-98869048D01*
X128440476Y-98869048D01*
X128345238Y-98892858D01*
X128297619Y-98916667D01*
X128250000Y-98964286D01*
X128226190Y-99035715D01*
X128226190Y-99083334D01*
X128250000Y-99154762D01*
X128273810Y-99178572D01*
X128392857Y-99607143D02*
X128726190Y-99607143D01*
X128202381Y-99488096D02*
X128559524Y-99369048D01*
X128559524Y-99678572D01*
X128226190Y-100107143D02*
X128226190Y-99869048D01*
X128464286Y-99845238D01*
X128440476Y-99869048D01*
X128416667Y-99916667D01*
X128416667Y-100035714D01*
X128440476Y-100083333D01*
X128464286Y-100107143D01*
X128511905Y-100130952D01*
X128630952Y-100130952D01*
X128678571Y-100107143D01*
X128702381Y-100083333D01*
X128726190Y-100035714D01*
X128726190Y-99916667D01*
X128702381Y-99869048D01*
X128678571Y-99845238D01*
D11*
X121650000Y-62571429D02*
X121692857Y-62614286D01*
X121821428Y-62657143D01*
X121907142Y-62657143D01*
X122035714Y-62614286D01*
X122121428Y-62528571D01*
X122164285Y-62442857D01*
X122207142Y-62271429D01*
X122207142Y-62142857D01*
X122164285Y-61971429D01*
X122121428Y-61885714D01*
X122035714Y-61800000D01*
X121907142Y-61757143D01*
X121821428Y-61757143D01*
X121692857Y-61800000D01*
X121650000Y-61842857D01*
X120792857Y-62657143D02*
X121307142Y-62657143D01*
X121050000Y-62657143D02*
X121050000Y-61757143D01*
X121135714Y-61885714D01*
X121221428Y-61971429D01*
X121307142Y-62014286D01*
D14*
X104928571Y-59678572D02*
X104952381Y-59654762D01*
X104976190Y-59583334D01*
X104976190Y-59535715D01*
X104952381Y-59464286D01*
X104904762Y-59416667D01*
X104857143Y-59392858D01*
X104761905Y-59369048D01*
X104690476Y-59369048D01*
X104595238Y-59392858D01*
X104547619Y-59416667D01*
X104500000Y-59464286D01*
X104476190Y-59535715D01*
X104476190Y-59583334D01*
X104500000Y-59654762D01*
X104523810Y-59678572D01*
X104476190Y-59845239D02*
X104476190Y-60154762D01*
X104666667Y-59988096D01*
X104666667Y-60059524D01*
X104690476Y-60107143D01*
X104714286Y-60130953D01*
X104761905Y-60154762D01*
X104880952Y-60154762D01*
X104928571Y-60130953D01*
X104952381Y-60107143D01*
X104976190Y-60059524D01*
X104976190Y-59916667D01*
X104952381Y-59869048D01*
X104928571Y-59845239D01*
X104976190Y-60630952D02*
X104976190Y-60345238D01*
X104976190Y-60488095D02*
X104476190Y-60488095D01*
X104547619Y-60440476D01*
X104595238Y-60392857D01*
X104619048Y-60345238D01*
X80071428Y-72428571D02*
X80095238Y-72452381D01*
X80166666Y-72476190D01*
X80214285Y-72476190D01*
X80285714Y-72452381D01*
X80333333Y-72404762D01*
X80357142Y-72357143D01*
X80380952Y-72261905D01*
X80380952Y-72190476D01*
X80357142Y-72095238D01*
X80333333Y-72047619D01*
X80285714Y-72000000D01*
X80214285Y-71976190D01*
X80166666Y-71976190D01*
X80095238Y-72000000D01*
X80071428Y-72023810D01*
X79642857Y-72142857D02*
X79642857Y-72476190D01*
X79761904Y-71952381D02*
X79880952Y-72309524D01*
X79571428Y-72309524D01*
X79119048Y-72476190D02*
X79404762Y-72476190D01*
X79261905Y-72476190D02*
X79261905Y-71976190D01*
X79309524Y-72047619D01*
X79357143Y-72095238D01*
X79404762Y-72119048D01*
D11*
X122652381Y-69638095D02*
X123461905Y-69638095D01*
X123557143Y-69685714D01*
X123604762Y-69733333D01*
X123652381Y-69828571D01*
X123652381Y-70019048D01*
X123604762Y-70114286D01*
X123557143Y-70161905D01*
X123461905Y-70209524D01*
X122652381Y-70209524D01*
X123652381Y-71209524D02*
X123652381Y-70638095D01*
X123652381Y-70923809D02*
X122652381Y-70923809D01*
X122795238Y-70828571D01*
X122890476Y-70733333D01*
X122938095Y-70638095D01*
X115411905Y-73527381D02*
X115411905Y-74336905D01*
X115364286Y-74432143D01*
X115316667Y-74479762D01*
X115221429Y-74527381D01*
X115030952Y-74527381D01*
X114935714Y-74479762D01*
X114888095Y-74432143D01*
X114840476Y-74336905D01*
X114840476Y-73527381D01*
X114411905Y-73622619D02*
X114364286Y-73575000D01*
X114269048Y-73527381D01*
X114030952Y-73527381D01*
X113935714Y-73575000D01*
X113888095Y-73622619D01*
X113840476Y-73717857D01*
X113840476Y-73813095D01*
X113888095Y-73955952D01*
X114459524Y-74527381D01*
X113840476Y-74527381D01*
D14*
X91928571Y-63678572D02*
X91952381Y-63654762D01*
X91976190Y-63583334D01*
X91976190Y-63535715D01*
X91952381Y-63464286D01*
X91904762Y-63416667D01*
X91857143Y-63392858D01*
X91761905Y-63369048D01*
X91690476Y-63369048D01*
X91595238Y-63392858D01*
X91547619Y-63416667D01*
X91500000Y-63464286D01*
X91476190Y-63535715D01*
X91476190Y-63583334D01*
X91500000Y-63654762D01*
X91523810Y-63678572D01*
X91642857Y-64107143D02*
X91976190Y-64107143D01*
X91452381Y-63988096D02*
X91809524Y-63869048D01*
X91809524Y-64178572D01*
X91476190Y-64321429D02*
X91476190Y-64654762D01*
X91976190Y-64440476D01*
D11*
X60089286Y-99617857D02*
X59732143Y-99367857D01*
X60089286Y-99189285D02*
X59339286Y-99189285D01*
X59339286Y-99475000D01*
X59375000Y-99546428D01*
X59410714Y-99582143D01*
X59482143Y-99617857D01*
X59589286Y-99617857D01*
X59660714Y-99582143D01*
X59696429Y-99546428D01*
X59732143Y-99475000D01*
X59732143Y-99189285D01*
X59339286Y-99867857D02*
X59339286Y-100332143D01*
X59625000Y-100082143D01*
X59625000Y-100189285D01*
X59660714Y-100260714D01*
X59696429Y-100296428D01*
X59767857Y-100332143D01*
X59946429Y-100332143D01*
X60017857Y-100296428D01*
X60053571Y-100260714D01*
X60089286Y-100189285D01*
X60089286Y-99975000D01*
X60053571Y-99903571D01*
X60017857Y-99867857D01*
X59660714Y-100760714D02*
X59625000Y-100689286D01*
X59589286Y-100653571D01*
X59517857Y-100617857D01*
X59482143Y-100617857D01*
X59410714Y-100653571D01*
X59375000Y-100689286D01*
X59339286Y-100760714D01*
X59339286Y-100903571D01*
X59375000Y-100975000D01*
X59410714Y-101010714D01*
X59482143Y-101046429D01*
X59517857Y-101046429D01*
X59589286Y-101010714D01*
X59625000Y-100975000D01*
X59660714Y-100903571D01*
X59660714Y-100760714D01*
X59696429Y-100689286D01*
X59732143Y-100653571D01*
X59803571Y-100617857D01*
X59946429Y-100617857D01*
X60017857Y-100653571D01*
X60053571Y-100689286D01*
X60089286Y-100760714D01*
X60089286Y-100903571D01*
X60053571Y-100975000D01*
X60017857Y-101010714D01*
X59946429Y-101046429D01*
X59803571Y-101046429D01*
X59732143Y-101010714D01*
X59696429Y-100975000D01*
X59660714Y-100903571D01*
D14*
X92226190Y-65678572D02*
X91988095Y-65511905D01*
X92226190Y-65392858D02*
X91726190Y-65392858D01*
X91726190Y-65583334D01*
X91750000Y-65630953D01*
X91773810Y-65654762D01*
X91821429Y-65678572D01*
X91892857Y-65678572D01*
X91940476Y-65654762D01*
X91964286Y-65630953D01*
X91988095Y-65583334D01*
X91988095Y-65392858D01*
X91892857Y-66107143D02*
X92226190Y-66107143D01*
X91702381Y-65988096D02*
X92059524Y-65869048D01*
X92059524Y-66178572D01*
X91726190Y-66464286D02*
X91726190Y-66511905D01*
X91750000Y-66559524D01*
X91773810Y-66583333D01*
X91821429Y-66607143D01*
X91916667Y-66630952D01*
X92035714Y-66630952D01*
X92130952Y-66607143D01*
X92178571Y-66583333D01*
X92202381Y-66559524D01*
X92226190Y-66511905D01*
X92226190Y-66464286D01*
X92202381Y-66416667D01*
X92178571Y-66392857D01*
X92130952Y-66369048D01*
X92035714Y-66345238D01*
X91916667Y-66345238D01*
X91821429Y-66369048D01*
X91773810Y-66392857D01*
X91750000Y-66416667D01*
X91726190Y-66464286D01*
X92526190Y-79178572D02*
X92288095Y-79011905D01*
X92526190Y-78892858D02*
X92026190Y-78892858D01*
X92026190Y-79083334D01*
X92050000Y-79130953D01*
X92073810Y-79154762D01*
X92121429Y-79178572D01*
X92192857Y-79178572D01*
X92240476Y-79154762D01*
X92264286Y-79130953D01*
X92288095Y-79083334D01*
X92288095Y-78892858D01*
X92192857Y-79607143D02*
X92526190Y-79607143D01*
X92002381Y-79488096D02*
X92359524Y-79369048D01*
X92359524Y-79678572D01*
X92026190Y-80107143D02*
X92026190Y-79869048D01*
X92264286Y-79845238D01*
X92240476Y-79869048D01*
X92216667Y-79916667D01*
X92216667Y-80035714D01*
X92240476Y-80083333D01*
X92264286Y-80107143D01*
X92311905Y-80130952D01*
X92430952Y-80130952D01*
X92478571Y-80107143D01*
X92502381Y-80083333D01*
X92526190Y-80035714D01*
X92526190Y-79916667D01*
X92502381Y-79869048D01*
X92478571Y-79845238D01*
X92226190Y-59428572D02*
X91988095Y-59261905D01*
X92226190Y-59142858D02*
X91726190Y-59142858D01*
X91726190Y-59333334D01*
X91750000Y-59380953D01*
X91773810Y-59404762D01*
X91821429Y-59428572D01*
X91892857Y-59428572D01*
X91940476Y-59404762D01*
X91964286Y-59380953D01*
X91988095Y-59333334D01*
X91988095Y-59142858D01*
X91726190Y-59880953D02*
X91726190Y-59642858D01*
X91964286Y-59619048D01*
X91940476Y-59642858D01*
X91916667Y-59690477D01*
X91916667Y-59809524D01*
X91940476Y-59857143D01*
X91964286Y-59880953D01*
X92011905Y-59904762D01*
X92130952Y-59904762D01*
X92178571Y-59880953D01*
X92202381Y-59857143D01*
X92226190Y-59809524D01*
X92226190Y-59690477D01*
X92202381Y-59642858D01*
X92178571Y-59619048D01*
X91726190Y-60071429D02*
X91726190Y-60380952D01*
X91916667Y-60214286D01*
X91916667Y-60285714D01*
X91940476Y-60333333D01*
X91964286Y-60357143D01*
X92011905Y-60380952D01*
X92130952Y-60380952D01*
X92178571Y-60357143D01*
X92202381Y-60333333D01*
X92226190Y-60285714D01*
X92226190Y-60142857D01*
X92202381Y-60095238D01*
X92178571Y-60071429D01*
X104476190Y-61928572D02*
X104238095Y-61761905D01*
X104476190Y-61642858D02*
X103976190Y-61642858D01*
X103976190Y-61833334D01*
X104000000Y-61880953D01*
X104023810Y-61904762D01*
X104071429Y-61928572D01*
X104142857Y-61928572D01*
X104190476Y-61904762D01*
X104214286Y-61880953D01*
X104238095Y-61833334D01*
X104238095Y-61642858D01*
X103976190Y-62380953D02*
X103976190Y-62142858D01*
X104214286Y-62119048D01*
X104190476Y-62142858D01*
X104166667Y-62190477D01*
X104166667Y-62309524D01*
X104190476Y-62357143D01*
X104214286Y-62380953D01*
X104261905Y-62404762D01*
X104380952Y-62404762D01*
X104428571Y-62380953D01*
X104452381Y-62357143D01*
X104476190Y-62309524D01*
X104476190Y-62190477D01*
X104452381Y-62142858D01*
X104428571Y-62119048D01*
X104142857Y-62833333D02*
X104476190Y-62833333D01*
X103952381Y-62714286D02*
X104309524Y-62595238D01*
X104309524Y-62904762D01*
X104476190Y-64178572D02*
X104238095Y-64011905D01*
X104476190Y-63892858D02*
X103976190Y-63892858D01*
X103976190Y-64083334D01*
X104000000Y-64130953D01*
X104023810Y-64154762D01*
X104071429Y-64178572D01*
X104142857Y-64178572D01*
X104190476Y-64154762D01*
X104214286Y-64130953D01*
X104238095Y-64083334D01*
X104238095Y-63892858D01*
X103976190Y-64630953D02*
X103976190Y-64392858D01*
X104214286Y-64369048D01*
X104190476Y-64392858D01*
X104166667Y-64440477D01*
X104166667Y-64559524D01*
X104190476Y-64607143D01*
X104214286Y-64630953D01*
X104261905Y-64654762D01*
X104380952Y-64654762D01*
X104428571Y-64630953D01*
X104452381Y-64607143D01*
X104476190Y-64559524D01*
X104476190Y-64440477D01*
X104452381Y-64392858D01*
X104428571Y-64369048D01*
X103976190Y-65107143D02*
X103976190Y-64869048D01*
X104214286Y-64845238D01*
X104190476Y-64869048D01*
X104166667Y-64916667D01*
X104166667Y-65035714D01*
X104190476Y-65083333D01*
X104214286Y-65107143D01*
X104261905Y-65130952D01*
X104380952Y-65130952D01*
X104428571Y-65107143D01*
X104452381Y-65083333D01*
X104476190Y-65035714D01*
X104476190Y-64916667D01*
X104452381Y-64869048D01*
X104428571Y-64845238D01*
D11*
X132642857Y-87857143D02*
X132690476Y-87904762D01*
X132833333Y-87952381D01*
X132928571Y-87952381D01*
X133071429Y-87904762D01*
X133166667Y-87809524D01*
X133214286Y-87714286D01*
X133261905Y-87523810D01*
X133261905Y-87380952D01*
X133214286Y-87190476D01*
X133166667Y-87095238D01*
X133071429Y-87000000D01*
X132928571Y-86952381D01*
X132833333Y-86952381D01*
X132690476Y-87000000D01*
X132642857Y-87047619D01*
X131738095Y-86952381D02*
X132214286Y-86952381D01*
X132261905Y-87428571D01*
X132214286Y-87380952D01*
X132119048Y-87333333D01*
X131880952Y-87333333D01*
X131785714Y-87380952D01*
X131738095Y-87428571D01*
X131690476Y-87523810D01*
X131690476Y-87761905D01*
X131738095Y-87857143D01*
X131785714Y-87904762D01*
X131880952Y-87952381D01*
X132119048Y-87952381D01*
X132214286Y-87904762D01*
X132261905Y-87857143D01*
X131309524Y-87047619D02*
X131261905Y-87000000D01*
X131166667Y-86952381D01*
X130928571Y-86952381D01*
X130833333Y-87000000D01*
X130785714Y-87047619D01*
X130738095Y-87142857D01*
X130738095Y-87238095D01*
X130785714Y-87380952D01*
X131357143Y-87952381D01*
X130738095Y-87952381D01*
X92857143Y-121857143D02*
X92904762Y-121809524D01*
X92952381Y-121666667D01*
X92952381Y-121571429D01*
X92904762Y-121428571D01*
X92809524Y-121333333D01*
X92714286Y-121285714D01*
X92523810Y-121238095D01*
X92380952Y-121238095D01*
X92190476Y-121285714D01*
X92095238Y-121333333D01*
X92000000Y-121428571D01*
X91952381Y-121571429D01*
X91952381Y-121666667D01*
X92000000Y-121809524D01*
X92047619Y-121857143D01*
X91952381Y-122761905D02*
X91952381Y-122285714D01*
X92428571Y-122238095D01*
X92380952Y-122285714D01*
X92333333Y-122380952D01*
X92333333Y-122619048D01*
X92380952Y-122714286D01*
X92428571Y-122761905D01*
X92523810Y-122809524D01*
X92761905Y-122809524D01*
X92857143Y-122761905D01*
X92904762Y-122714286D01*
X92952381Y-122619048D01*
X92952381Y-122380952D01*
X92904762Y-122285714D01*
X92857143Y-122238095D01*
X91952381Y-123142857D02*
X91952381Y-123761905D01*
X92333333Y-123428571D01*
X92333333Y-123571429D01*
X92380952Y-123666667D01*
X92428571Y-123714286D01*
X92523810Y-123761905D01*
X92761905Y-123761905D01*
X92857143Y-123714286D01*
X92904762Y-123666667D01*
X92952381Y-123571429D01*
X92952381Y-123285714D01*
X92904762Y-123190476D01*
X92857143Y-123142857D01*
X64142857Y-74357143D02*
X64190476Y-74404762D01*
X64333333Y-74452381D01*
X64428571Y-74452381D01*
X64571429Y-74404762D01*
X64666667Y-74309524D01*
X64714286Y-74214286D01*
X64761905Y-74023810D01*
X64761905Y-73880952D01*
X64714286Y-73690476D01*
X64666667Y-73595238D01*
X64571429Y-73500000D01*
X64428571Y-73452381D01*
X64333333Y-73452381D01*
X64190476Y-73500000D01*
X64142857Y-73547619D01*
X63238095Y-73452381D02*
X63714286Y-73452381D01*
X63761905Y-73928571D01*
X63714286Y-73880952D01*
X63619048Y-73833333D01*
X63380952Y-73833333D01*
X63285714Y-73880952D01*
X63238095Y-73928571D01*
X63190476Y-74023810D01*
X63190476Y-74261905D01*
X63238095Y-74357143D01*
X63285714Y-74404762D01*
X63380952Y-74452381D01*
X63619048Y-74452381D01*
X63714286Y-74404762D01*
X63761905Y-74357143D01*
X62333333Y-73785714D02*
X62333333Y-74452381D01*
X62571429Y-73404762D02*
X62809524Y-74119048D01*
X62190476Y-74119048D01*
X128242857Y-72852381D02*
X128576191Y-72376190D01*
X128814286Y-72852381D02*
X128814286Y-71852381D01*
X128433333Y-71852381D01*
X128338095Y-71900000D01*
X128290476Y-71947619D01*
X128242857Y-72042857D01*
X128242857Y-72185714D01*
X128290476Y-72280952D01*
X128338095Y-72328571D01*
X128433333Y-72376190D01*
X128814286Y-72376190D01*
X127338095Y-71852381D02*
X127814286Y-71852381D01*
X127861905Y-72328571D01*
X127814286Y-72280952D01*
X127719048Y-72233333D01*
X127480952Y-72233333D01*
X127385714Y-72280952D01*
X127338095Y-72328571D01*
X127290476Y-72423810D01*
X127290476Y-72661905D01*
X127338095Y-72757143D01*
X127385714Y-72804762D01*
X127480952Y-72852381D01*
X127719048Y-72852381D01*
X127814286Y-72804762D01*
X127861905Y-72757143D01*
X126433333Y-71852381D02*
X126623810Y-71852381D01*
X126719048Y-71900000D01*
X126766667Y-71947619D01*
X126861905Y-72090476D01*
X126909524Y-72280952D01*
X126909524Y-72661905D01*
X126861905Y-72757143D01*
X126814286Y-72804762D01*
X126719048Y-72852381D01*
X126528571Y-72852381D01*
X126433333Y-72804762D01*
X126385714Y-72757143D01*
X126338095Y-72661905D01*
X126338095Y-72423810D01*
X126385714Y-72328571D01*
X126433333Y-72280952D01*
X126528571Y-72233333D01*
X126719048Y-72233333D01*
X126814286Y-72280952D01*
X126861905Y-72328571D01*
X126909524Y-72423810D01*
X69107143Y-119533334D02*
X69154762Y-119485715D01*
X69202381Y-119342858D01*
X69202381Y-119247620D01*
X69154762Y-119104762D01*
X69059524Y-119009524D01*
X68964286Y-118961905D01*
X68773810Y-118914286D01*
X68630952Y-118914286D01*
X68440476Y-118961905D01*
X68345238Y-119009524D01*
X68250000Y-119104762D01*
X68202381Y-119247620D01*
X68202381Y-119342858D01*
X68250000Y-119485715D01*
X68297619Y-119533334D01*
X68202381Y-119866667D02*
X68202381Y-120485715D01*
X68583333Y-120152381D01*
X68583333Y-120295239D01*
X68630952Y-120390477D01*
X68678571Y-120438096D01*
X68773810Y-120485715D01*
X69011905Y-120485715D01*
X69107143Y-120438096D01*
X69154762Y-120390477D01*
X69202381Y-120295239D01*
X69202381Y-120009524D01*
X69154762Y-119914286D01*
X69107143Y-119866667D01*
X83242857Y-138757143D02*
X83290476Y-138804762D01*
X83433333Y-138852381D01*
X83528571Y-138852381D01*
X83671429Y-138804762D01*
X83766667Y-138709524D01*
X83814286Y-138614286D01*
X83861905Y-138423810D01*
X83861905Y-138280952D01*
X83814286Y-138090476D01*
X83766667Y-137995238D01*
X83671429Y-137900000D01*
X83528571Y-137852381D01*
X83433333Y-137852381D01*
X83290476Y-137900000D01*
X83242857Y-137947619D01*
X82861905Y-137947619D02*
X82814286Y-137900000D01*
X82719048Y-137852381D01*
X82480952Y-137852381D01*
X82385714Y-137900000D01*
X82338095Y-137947619D01*
X82290476Y-138042857D01*
X82290476Y-138138095D01*
X82338095Y-138280952D01*
X82909524Y-138852381D01*
X82290476Y-138852381D01*
X81671429Y-137852381D02*
X81576190Y-137852381D01*
X81480952Y-137900000D01*
X81433333Y-137947619D01*
X81385714Y-138042857D01*
X81338095Y-138233333D01*
X81338095Y-138471429D01*
X81385714Y-138661905D01*
X81433333Y-138757143D01*
X81480952Y-138804762D01*
X81576190Y-138852381D01*
X81671429Y-138852381D01*
X81766667Y-138804762D01*
X81814286Y-138757143D01*
X81861905Y-138661905D01*
X81909524Y-138471429D01*
X81909524Y-138233333D01*
X81861905Y-138042857D01*
X81814286Y-137947619D01*
X81766667Y-137900000D01*
X81671429Y-137852381D01*
X72957143Y-134507143D02*
X73004762Y-134459524D01*
X73052381Y-134316667D01*
X73052381Y-134221429D01*
X73004762Y-134078571D01*
X72909524Y-133983333D01*
X72814286Y-133935714D01*
X72623810Y-133888095D01*
X72480952Y-133888095D01*
X72290476Y-133935714D01*
X72195238Y-133983333D01*
X72100000Y-134078571D01*
X72052381Y-134221429D01*
X72052381Y-134316667D01*
X72100000Y-134459524D01*
X72147619Y-134507143D01*
X72147619Y-134888095D02*
X72100000Y-134935714D01*
X72052381Y-135030952D01*
X72052381Y-135269048D01*
X72100000Y-135364286D01*
X72147619Y-135411905D01*
X72242857Y-135459524D01*
X72338095Y-135459524D01*
X72480952Y-135411905D01*
X73052381Y-134840476D01*
X73052381Y-135459524D01*
X73052381Y-136411905D02*
X73052381Y-135840476D01*
X73052381Y-136126190D02*
X72052381Y-136126190D01*
X72195238Y-136030952D01*
X72290476Y-135935714D01*
X72338095Y-135840476D01*
X78792857Y-62157143D02*
X78840476Y-62204762D01*
X78983333Y-62252381D01*
X79078571Y-62252381D01*
X79221429Y-62204762D01*
X79316667Y-62109524D01*
X79364286Y-62014286D01*
X79411905Y-61823810D01*
X79411905Y-61680952D01*
X79364286Y-61490476D01*
X79316667Y-61395238D01*
X79221429Y-61300000D01*
X79078571Y-61252381D01*
X78983333Y-61252381D01*
X78840476Y-61300000D01*
X78792857Y-61347619D01*
X78411905Y-61347619D02*
X78364286Y-61300000D01*
X78269048Y-61252381D01*
X78030952Y-61252381D01*
X77935714Y-61300000D01*
X77888095Y-61347619D01*
X77840476Y-61442857D01*
X77840476Y-61538095D01*
X77888095Y-61680952D01*
X78459524Y-62252381D01*
X77840476Y-62252381D01*
X76935714Y-61252381D02*
X77411905Y-61252381D01*
X77459524Y-61728571D01*
X77411905Y-61680952D01*
X77316667Y-61633333D01*
X77078571Y-61633333D01*
X76983333Y-61680952D01*
X76935714Y-61728571D01*
X76888095Y-61823810D01*
X76888095Y-62061905D01*
X76935714Y-62157143D01*
X76983333Y-62204762D01*
X77078571Y-62252381D01*
X77316667Y-62252381D01*
X77411905Y-62204762D01*
X77459524Y-62157143D01*
X139357143Y-97157143D02*
X139404762Y-97109524D01*
X139452381Y-96966667D01*
X139452381Y-96871429D01*
X139404762Y-96728571D01*
X139309524Y-96633333D01*
X139214286Y-96585714D01*
X139023810Y-96538095D01*
X138880952Y-96538095D01*
X138690476Y-96585714D01*
X138595238Y-96633333D01*
X138500000Y-96728571D01*
X138452381Y-96871429D01*
X138452381Y-96966667D01*
X138500000Y-97109524D01*
X138547619Y-97157143D01*
X138547619Y-97538095D02*
X138500000Y-97585714D01*
X138452381Y-97680952D01*
X138452381Y-97919048D01*
X138500000Y-98014286D01*
X138547619Y-98061905D01*
X138642857Y-98109524D01*
X138738095Y-98109524D01*
X138880952Y-98061905D01*
X139452381Y-97490476D01*
X139452381Y-98109524D01*
X138880952Y-98680952D02*
X138833333Y-98585714D01*
X138785714Y-98538095D01*
X138690476Y-98490476D01*
X138642857Y-98490476D01*
X138547619Y-98538095D01*
X138500000Y-98585714D01*
X138452381Y-98680952D01*
X138452381Y-98871429D01*
X138500000Y-98966667D01*
X138547619Y-99014286D01*
X138642857Y-99061905D01*
X138690476Y-99061905D01*
X138785714Y-99014286D01*
X138833333Y-98966667D01*
X138880952Y-98871429D01*
X138880952Y-98680952D01*
X138928571Y-98585714D01*
X138976190Y-98538095D01*
X139071429Y-98490476D01*
X139261905Y-98490476D01*
X139357143Y-98538095D01*
X139404762Y-98585714D01*
X139452381Y-98680952D01*
X139452381Y-98871429D01*
X139404762Y-98966667D01*
X139357143Y-99014286D01*
X139261905Y-99061905D01*
X139071429Y-99061905D01*
X138976190Y-99014286D01*
X138928571Y-98966667D01*
X138880952Y-98871429D01*
X74267857Y-116767857D02*
X74303571Y-116732143D01*
X74339286Y-116625000D01*
X74339286Y-116553571D01*
X74303571Y-116446428D01*
X74232143Y-116375000D01*
X74160714Y-116339285D01*
X74017857Y-116303571D01*
X73910714Y-116303571D01*
X73767857Y-116339285D01*
X73696429Y-116375000D01*
X73625000Y-116446428D01*
X73589286Y-116553571D01*
X73589286Y-116625000D01*
X73625000Y-116732143D01*
X73660714Y-116767857D01*
X73660714Y-117053571D02*
X73625000Y-117089285D01*
X73589286Y-117160714D01*
X73589286Y-117339285D01*
X73625000Y-117410714D01*
X73660714Y-117446428D01*
X73732143Y-117482143D01*
X73803571Y-117482143D01*
X73910714Y-117446428D01*
X74339286Y-117017857D01*
X74339286Y-117482143D01*
X74339286Y-117839286D02*
X74339286Y-117982143D01*
X74303571Y-118053571D01*
X74267857Y-118089286D01*
X74160714Y-118160714D01*
X74017857Y-118196429D01*
X73732143Y-118196429D01*
X73660714Y-118160714D01*
X73625000Y-118125000D01*
X73589286Y-118053571D01*
X73589286Y-117910714D01*
X73625000Y-117839286D01*
X73660714Y-117803571D01*
X73732143Y-117767857D01*
X73910714Y-117767857D01*
X73982143Y-117803571D01*
X74017857Y-117839286D01*
X74053571Y-117910714D01*
X74053571Y-118053571D01*
X74017857Y-118125000D01*
X73982143Y-118160714D01*
X73910714Y-118196429D01*
X88457143Y-133257143D02*
X88504762Y-133209524D01*
X88552381Y-133066667D01*
X88552381Y-132971429D01*
X88504762Y-132828571D01*
X88409524Y-132733333D01*
X88314286Y-132685714D01*
X88123810Y-132638095D01*
X87980952Y-132638095D01*
X87790476Y-132685714D01*
X87695238Y-132733333D01*
X87600000Y-132828571D01*
X87552381Y-132971429D01*
X87552381Y-133066667D01*
X87600000Y-133209524D01*
X87647619Y-133257143D01*
X87552381Y-133590476D02*
X87552381Y-134209524D01*
X87933333Y-133876190D01*
X87933333Y-134019048D01*
X87980952Y-134114286D01*
X88028571Y-134161905D01*
X88123810Y-134209524D01*
X88361905Y-134209524D01*
X88457143Y-134161905D01*
X88504762Y-134114286D01*
X88552381Y-134019048D01*
X88552381Y-133733333D01*
X88504762Y-133638095D01*
X88457143Y-133590476D01*
X87552381Y-134828571D02*
X87552381Y-134923810D01*
X87600000Y-135019048D01*
X87647619Y-135066667D01*
X87742857Y-135114286D01*
X87933333Y-135161905D01*
X88171429Y-135161905D01*
X88361905Y-135114286D01*
X88457143Y-135066667D01*
X88504762Y-135019048D01*
X88552381Y-134923810D01*
X88552381Y-134828571D01*
X88504762Y-134733333D01*
X88457143Y-134685714D01*
X88361905Y-134638095D01*
X88171429Y-134590476D01*
X87933333Y-134590476D01*
X87742857Y-134638095D01*
X87647619Y-134685714D01*
X87600000Y-134733333D01*
X87552381Y-134828571D01*
X88607143Y-64607143D02*
X88654762Y-64559524D01*
X88702381Y-64416667D01*
X88702381Y-64321429D01*
X88654762Y-64178571D01*
X88559524Y-64083333D01*
X88464286Y-64035714D01*
X88273810Y-63988095D01*
X88130952Y-63988095D01*
X87940476Y-64035714D01*
X87845238Y-64083333D01*
X87750000Y-64178571D01*
X87702381Y-64321429D01*
X87702381Y-64416667D01*
X87750000Y-64559524D01*
X87797619Y-64607143D01*
X87702381Y-64940476D02*
X87702381Y-65559524D01*
X88083333Y-65226190D01*
X88083333Y-65369048D01*
X88130952Y-65464286D01*
X88178571Y-65511905D01*
X88273810Y-65559524D01*
X88511905Y-65559524D01*
X88607143Y-65511905D01*
X88654762Y-65464286D01*
X88702381Y-65369048D01*
X88702381Y-65083333D01*
X88654762Y-64988095D01*
X88607143Y-64940476D01*
X87797619Y-65940476D02*
X87750000Y-65988095D01*
X87702381Y-66083333D01*
X87702381Y-66321429D01*
X87750000Y-66416667D01*
X87797619Y-66464286D01*
X87892857Y-66511905D01*
X87988095Y-66511905D01*
X88130952Y-66464286D01*
X88702381Y-65892857D01*
X88702381Y-66511905D01*
X130432143Y-130517857D02*
X130467857Y-130553571D01*
X130575000Y-130589286D01*
X130646429Y-130589286D01*
X130753572Y-130553571D01*
X130825000Y-130482143D01*
X130860715Y-130410714D01*
X130896429Y-130267857D01*
X130896429Y-130160714D01*
X130860715Y-130017857D01*
X130825000Y-129946429D01*
X130753572Y-129875000D01*
X130646429Y-129839286D01*
X130575000Y-129839286D01*
X130467857Y-129875000D01*
X130432143Y-129910714D01*
X130182143Y-129839286D02*
X129717857Y-129839286D01*
X129967857Y-130125000D01*
X129860715Y-130125000D01*
X129789286Y-130160714D01*
X129753572Y-130196429D01*
X129717857Y-130267857D01*
X129717857Y-130446429D01*
X129753572Y-130517857D01*
X129789286Y-130553571D01*
X129860715Y-130589286D01*
X130075000Y-130589286D01*
X130146429Y-130553571D01*
X130182143Y-130517857D01*
X129467857Y-129839286D02*
X129003571Y-129839286D01*
X129253571Y-130125000D01*
X129146429Y-130125000D01*
X129075000Y-130160714D01*
X129039286Y-130196429D01*
X129003571Y-130267857D01*
X129003571Y-130446429D01*
X129039286Y-130517857D01*
X129075000Y-130553571D01*
X129146429Y-130589286D01*
X129360714Y-130589286D01*
X129432143Y-130553571D01*
X129467857Y-130517857D01*
X132932143Y-130517857D02*
X132967857Y-130553571D01*
X133075000Y-130589286D01*
X133146429Y-130589286D01*
X133253572Y-130553571D01*
X133325000Y-130482143D01*
X133360715Y-130410714D01*
X133396429Y-130267857D01*
X133396429Y-130160714D01*
X133360715Y-130017857D01*
X133325000Y-129946429D01*
X133253572Y-129875000D01*
X133146429Y-129839286D01*
X133075000Y-129839286D01*
X132967857Y-129875000D01*
X132932143Y-129910714D01*
X132682143Y-129839286D02*
X132217857Y-129839286D01*
X132467857Y-130125000D01*
X132360715Y-130125000D01*
X132289286Y-130160714D01*
X132253572Y-130196429D01*
X132217857Y-130267857D01*
X132217857Y-130446429D01*
X132253572Y-130517857D01*
X132289286Y-130553571D01*
X132360715Y-130589286D01*
X132575000Y-130589286D01*
X132646429Y-130553571D01*
X132682143Y-130517857D01*
X131539286Y-129839286D02*
X131896429Y-129839286D01*
X131932143Y-130196429D01*
X131896429Y-130160714D01*
X131825000Y-130125000D01*
X131646429Y-130125000D01*
X131575000Y-130160714D01*
X131539286Y-130196429D01*
X131503571Y-130267857D01*
X131503571Y-130446429D01*
X131539286Y-130517857D01*
X131575000Y-130553571D01*
X131646429Y-130589286D01*
X131825000Y-130589286D01*
X131896429Y-130553571D01*
X131932143Y-130517857D01*
X73107143Y-65857143D02*
X73154762Y-65809524D01*
X73202381Y-65666667D01*
X73202381Y-65571429D01*
X73154762Y-65428571D01*
X73059524Y-65333333D01*
X72964286Y-65285714D01*
X72773810Y-65238095D01*
X72630952Y-65238095D01*
X72440476Y-65285714D01*
X72345238Y-65333333D01*
X72250000Y-65428571D01*
X72202381Y-65571429D01*
X72202381Y-65666667D01*
X72250000Y-65809524D01*
X72297619Y-65857143D01*
X72202381Y-66190476D02*
X72202381Y-66809524D01*
X72583333Y-66476190D01*
X72583333Y-66619048D01*
X72630952Y-66714286D01*
X72678571Y-66761905D01*
X72773810Y-66809524D01*
X73011905Y-66809524D01*
X73107143Y-66761905D01*
X73154762Y-66714286D01*
X73202381Y-66619048D01*
X73202381Y-66333333D01*
X73154762Y-66238095D01*
X73107143Y-66190476D01*
X72202381Y-67666667D02*
X72202381Y-67476190D01*
X72250000Y-67380952D01*
X72297619Y-67333333D01*
X72440476Y-67238095D01*
X72630952Y-67190476D01*
X73011905Y-67190476D01*
X73107143Y-67238095D01*
X73154762Y-67285714D01*
X73202381Y-67380952D01*
X73202381Y-67571429D01*
X73154762Y-67666667D01*
X73107143Y-67714286D01*
X73011905Y-67761905D01*
X72773810Y-67761905D01*
X72678571Y-67714286D01*
X72630952Y-67666667D01*
X72583333Y-67571429D01*
X72583333Y-67380952D01*
X72630952Y-67285714D01*
X72678571Y-67238095D01*
X72773810Y-67190476D01*
X135432143Y-130517857D02*
X135467857Y-130553571D01*
X135575000Y-130589286D01*
X135646429Y-130589286D01*
X135753572Y-130553571D01*
X135825000Y-130482143D01*
X135860715Y-130410714D01*
X135896429Y-130267857D01*
X135896429Y-130160714D01*
X135860715Y-130017857D01*
X135825000Y-129946429D01*
X135753572Y-129875000D01*
X135646429Y-129839286D01*
X135575000Y-129839286D01*
X135467857Y-129875000D01*
X135432143Y-129910714D01*
X135182143Y-129839286D02*
X134717857Y-129839286D01*
X134967857Y-130125000D01*
X134860715Y-130125000D01*
X134789286Y-130160714D01*
X134753572Y-130196429D01*
X134717857Y-130267857D01*
X134717857Y-130446429D01*
X134753572Y-130517857D01*
X134789286Y-130553571D01*
X134860715Y-130589286D01*
X135075000Y-130589286D01*
X135146429Y-130553571D01*
X135182143Y-130517857D01*
X134467857Y-129839286D02*
X133967857Y-129839286D01*
X134289286Y-130589286D01*
X136392857Y-108107143D02*
X136440476Y-108154762D01*
X136583333Y-108202381D01*
X136678571Y-108202381D01*
X136821429Y-108154762D01*
X136916667Y-108059524D01*
X136964286Y-107964286D01*
X137011905Y-107773810D01*
X137011905Y-107630952D01*
X136964286Y-107440476D01*
X136916667Y-107345238D01*
X136821429Y-107250000D01*
X136678571Y-107202381D01*
X136583333Y-107202381D01*
X136440476Y-107250000D01*
X136392857Y-107297619D01*
X136059524Y-107202381D02*
X135440476Y-107202381D01*
X135773810Y-107583333D01*
X135630952Y-107583333D01*
X135535714Y-107630952D01*
X135488095Y-107678571D01*
X135440476Y-107773810D01*
X135440476Y-108011905D01*
X135488095Y-108107143D01*
X135535714Y-108154762D01*
X135630952Y-108202381D01*
X135916667Y-108202381D01*
X136011905Y-108154762D01*
X136059524Y-108107143D01*
X134869048Y-107630952D02*
X134964286Y-107583333D01*
X135011905Y-107535714D01*
X135059524Y-107440476D01*
X135059524Y-107392857D01*
X135011905Y-107297619D01*
X134964286Y-107250000D01*
X134869048Y-107202381D01*
X134678571Y-107202381D01*
X134583333Y-107250000D01*
X134535714Y-107297619D01*
X134488095Y-107392857D01*
X134488095Y-107440476D01*
X134535714Y-107535714D01*
X134583333Y-107583333D01*
X134678571Y-107630952D01*
X134869048Y-107630952D01*
X134964286Y-107678571D01*
X135011905Y-107726190D01*
X135059524Y-107821429D01*
X135059524Y-108011905D01*
X135011905Y-108107143D01*
X134964286Y-108154762D01*
X134869048Y-108202381D01*
X134678571Y-108202381D01*
X134583333Y-108154762D01*
X134535714Y-108107143D01*
X134488095Y-108011905D01*
X134488095Y-107821429D01*
X134535714Y-107726190D01*
X134583333Y-107678571D01*
X134678571Y-107630952D01*
X137932143Y-130517857D02*
X137967857Y-130553571D01*
X138075000Y-130589286D01*
X138146429Y-130589286D01*
X138253572Y-130553571D01*
X138325000Y-130482143D01*
X138360715Y-130410714D01*
X138396429Y-130267857D01*
X138396429Y-130160714D01*
X138360715Y-130017857D01*
X138325000Y-129946429D01*
X138253572Y-129875000D01*
X138146429Y-129839286D01*
X138075000Y-129839286D01*
X137967857Y-129875000D01*
X137932143Y-129910714D01*
X137682143Y-129839286D02*
X137217857Y-129839286D01*
X137467857Y-130125000D01*
X137360715Y-130125000D01*
X137289286Y-130160714D01*
X137253572Y-130196429D01*
X137217857Y-130267857D01*
X137217857Y-130446429D01*
X137253572Y-130517857D01*
X137289286Y-130553571D01*
X137360715Y-130589286D01*
X137575000Y-130589286D01*
X137646429Y-130553571D01*
X137682143Y-130517857D01*
X136860714Y-130589286D02*
X136717857Y-130589286D01*
X136646429Y-130553571D01*
X136610714Y-130517857D01*
X136539286Y-130410714D01*
X136503571Y-130267857D01*
X136503571Y-129982143D01*
X136539286Y-129910714D01*
X136575000Y-129875000D01*
X136646429Y-129839286D01*
X136789286Y-129839286D01*
X136860714Y-129875000D01*
X136896429Y-129910714D01*
X136932143Y-129982143D01*
X136932143Y-130160714D01*
X136896429Y-130232143D01*
X136860714Y-130267857D01*
X136789286Y-130303571D01*
X136646429Y-130303571D01*
X136575000Y-130267857D01*
X136539286Y-130232143D01*
X136503571Y-130160714D01*
X140432143Y-130517857D02*
X140467857Y-130553571D01*
X140575000Y-130589286D01*
X140646429Y-130589286D01*
X140753572Y-130553571D01*
X140825000Y-130482143D01*
X140860715Y-130410714D01*
X140896429Y-130267857D01*
X140896429Y-130160714D01*
X140860715Y-130017857D01*
X140825000Y-129946429D01*
X140753572Y-129875000D01*
X140646429Y-129839286D01*
X140575000Y-129839286D01*
X140467857Y-129875000D01*
X140432143Y-129910714D01*
X139789286Y-130089286D02*
X139789286Y-130589286D01*
X139967857Y-129803571D02*
X140146429Y-130339286D01*
X139682143Y-130339286D01*
X139253571Y-129839286D02*
X139182143Y-129839286D01*
X139110714Y-129875000D01*
X139075000Y-129910714D01*
X139039286Y-129982143D01*
X139003571Y-130125000D01*
X139003571Y-130303571D01*
X139039286Y-130446429D01*
X139075000Y-130517857D01*
X139110714Y-130553571D01*
X139182143Y-130589286D01*
X139253571Y-130589286D01*
X139325000Y-130553571D01*
X139360714Y-130517857D01*
X139396429Y-130446429D01*
X139432143Y-130303571D01*
X139432143Y-130125000D01*
X139396429Y-129982143D01*
X139360714Y-129910714D01*
X139325000Y-129875000D01*
X139253571Y-129839286D01*
X135142857Y-92607143D02*
X135190476Y-92654762D01*
X135333333Y-92702381D01*
X135428571Y-92702381D01*
X135571429Y-92654762D01*
X135666667Y-92559524D01*
X135714286Y-92464286D01*
X135761905Y-92273810D01*
X135761905Y-92130952D01*
X135714286Y-91940476D01*
X135666667Y-91845238D01*
X135571429Y-91750000D01*
X135428571Y-91702381D01*
X135333333Y-91702381D01*
X135190476Y-91750000D01*
X135142857Y-91797619D01*
X134285714Y-92035714D02*
X134285714Y-92702381D01*
X134523810Y-91654762D02*
X134761905Y-92369048D01*
X134142857Y-92369048D01*
X133809524Y-91797619D02*
X133761905Y-91750000D01*
X133666667Y-91702381D01*
X133428571Y-91702381D01*
X133333333Y-91750000D01*
X133285714Y-91797619D01*
X133238095Y-91892857D01*
X133238095Y-91988095D01*
X133285714Y-92130952D01*
X133857143Y-92702381D01*
X133238095Y-92702381D01*
X95017857Y-121967857D02*
X95053571Y-121932143D01*
X95089286Y-121825000D01*
X95089286Y-121753571D01*
X95053571Y-121646428D01*
X94982143Y-121575000D01*
X94910714Y-121539285D01*
X94767857Y-121503571D01*
X94660714Y-121503571D01*
X94517857Y-121539285D01*
X94446429Y-121575000D01*
X94375000Y-121646428D01*
X94339286Y-121753571D01*
X94339286Y-121825000D01*
X94375000Y-121932143D01*
X94410714Y-121967857D01*
X94589286Y-122610714D02*
X95089286Y-122610714D01*
X94303571Y-122432143D02*
X94839286Y-122253571D01*
X94839286Y-122717857D01*
X94339286Y-122932143D02*
X94339286Y-123396429D01*
X94625000Y-123146429D01*
X94625000Y-123253571D01*
X94660714Y-123325000D01*
X94696429Y-123360714D01*
X94767857Y-123396429D01*
X94946429Y-123396429D01*
X95017857Y-123360714D01*
X95053571Y-123325000D01*
X95089286Y-123253571D01*
X95089286Y-123039286D01*
X95053571Y-122967857D01*
X95017857Y-122932143D01*
X95017857Y-124467857D02*
X95053571Y-124432143D01*
X95089286Y-124325000D01*
X95089286Y-124253571D01*
X95053571Y-124146428D01*
X94982143Y-124075000D01*
X94910714Y-124039285D01*
X94767857Y-124003571D01*
X94660714Y-124003571D01*
X94517857Y-124039285D01*
X94446429Y-124075000D01*
X94375000Y-124146428D01*
X94339286Y-124253571D01*
X94339286Y-124325000D01*
X94375000Y-124432143D01*
X94410714Y-124467857D01*
X94589286Y-125110714D02*
X95089286Y-125110714D01*
X94303571Y-124932143D02*
X94839286Y-124753571D01*
X94839286Y-125217857D01*
X94339286Y-125825000D02*
X94339286Y-125682143D01*
X94375000Y-125610714D01*
X94410714Y-125575000D01*
X94517857Y-125503571D01*
X94660714Y-125467857D01*
X94946429Y-125467857D01*
X95017857Y-125503571D01*
X95053571Y-125539286D01*
X95089286Y-125610714D01*
X95089286Y-125753571D01*
X95053571Y-125825000D01*
X95017857Y-125860714D01*
X94946429Y-125896429D01*
X94767857Y-125896429D01*
X94696429Y-125860714D01*
X94660714Y-125825000D01*
X94625000Y-125753571D01*
X94625000Y-125610714D01*
X94660714Y-125539286D01*
X94696429Y-125503571D01*
X94767857Y-125467857D01*
X95017857Y-126967857D02*
X95053571Y-126932143D01*
X95089286Y-126825000D01*
X95089286Y-126753571D01*
X95053571Y-126646428D01*
X94982143Y-126575000D01*
X94910714Y-126539285D01*
X94767857Y-126503571D01*
X94660714Y-126503571D01*
X94517857Y-126539285D01*
X94446429Y-126575000D01*
X94375000Y-126646428D01*
X94339286Y-126753571D01*
X94339286Y-126825000D01*
X94375000Y-126932143D01*
X94410714Y-126967857D01*
X94589286Y-127610714D02*
X95089286Y-127610714D01*
X94303571Y-127432143D02*
X94839286Y-127253571D01*
X94839286Y-127717857D01*
X94660714Y-128110714D02*
X94625000Y-128039286D01*
X94589286Y-128003571D01*
X94517857Y-127967857D01*
X94482143Y-127967857D01*
X94410714Y-128003571D01*
X94375000Y-128039286D01*
X94339286Y-128110714D01*
X94339286Y-128253571D01*
X94375000Y-128325000D01*
X94410714Y-128360714D01*
X94482143Y-128396429D01*
X94517857Y-128396429D01*
X94589286Y-128360714D01*
X94625000Y-128325000D01*
X94660714Y-128253571D01*
X94660714Y-128110714D01*
X94696429Y-128039286D01*
X94732143Y-128003571D01*
X94803571Y-127967857D01*
X94946429Y-127967857D01*
X95017857Y-128003571D01*
X95053571Y-128039286D01*
X95089286Y-128110714D01*
X95089286Y-128253571D01*
X95053571Y-128325000D01*
X95017857Y-128360714D01*
X94946429Y-128396429D01*
X94803571Y-128396429D01*
X94732143Y-128360714D01*
X94696429Y-128325000D01*
X94660714Y-128253571D01*
X95017857Y-129467857D02*
X95053571Y-129432143D01*
X95089286Y-129325000D01*
X95089286Y-129253571D01*
X95053571Y-129146428D01*
X94982143Y-129075000D01*
X94910714Y-129039285D01*
X94767857Y-129003571D01*
X94660714Y-129003571D01*
X94517857Y-129039285D01*
X94446429Y-129075000D01*
X94375000Y-129146428D01*
X94339286Y-129253571D01*
X94339286Y-129325000D01*
X94375000Y-129432143D01*
X94410714Y-129467857D01*
X94589286Y-130110714D02*
X95089286Y-130110714D01*
X94303571Y-129932143D02*
X94839286Y-129753571D01*
X94839286Y-130217857D01*
X95089286Y-130539286D02*
X95089286Y-130682143D01*
X95053571Y-130753571D01*
X95017857Y-130789286D01*
X94910714Y-130860714D01*
X94767857Y-130896429D01*
X94482143Y-130896429D01*
X94410714Y-130860714D01*
X94375000Y-130825000D01*
X94339286Y-130753571D01*
X94339286Y-130610714D01*
X94375000Y-130539286D01*
X94410714Y-130503571D01*
X94482143Y-130467857D01*
X94660714Y-130467857D01*
X94732143Y-130503571D01*
X94767857Y-130539286D01*
X94803571Y-130610714D01*
X94803571Y-130753571D01*
X94767857Y-130825000D01*
X94732143Y-130860714D01*
X94660714Y-130896429D01*
D14*
X127932143Y-132767857D02*
X127967857Y-132803571D01*
X128075000Y-132839286D01*
X128146429Y-132839286D01*
X128253572Y-132803571D01*
X128325000Y-132732143D01*
X128360715Y-132660714D01*
X128396429Y-132517857D01*
X128396429Y-132410714D01*
X128360715Y-132267857D01*
X128325000Y-132196429D01*
X128253572Y-132125000D01*
X128146429Y-132089286D01*
X128075000Y-132089286D01*
X127967857Y-132125000D01*
X127932143Y-132160714D01*
X127253572Y-132089286D02*
X127610715Y-132089286D01*
X127646429Y-132446429D01*
X127610715Y-132410714D01*
X127539286Y-132375000D01*
X127360715Y-132375000D01*
X127289286Y-132410714D01*
X127253572Y-132446429D01*
X127217857Y-132517857D01*
X127217857Y-132696429D01*
X127253572Y-132767857D01*
X127289286Y-132803571D01*
X127360715Y-132839286D01*
X127539286Y-132839286D01*
X127610715Y-132803571D01*
X127646429Y-132767857D01*
X126753571Y-132089286D02*
X126682143Y-132089286D01*
X126610714Y-132125000D01*
X126575000Y-132160714D01*
X126539286Y-132232143D01*
X126503571Y-132375000D01*
X126503571Y-132553571D01*
X126539286Y-132696429D01*
X126575000Y-132767857D01*
X126610714Y-132803571D01*
X126682143Y-132839286D01*
X126753571Y-132839286D01*
X126825000Y-132803571D01*
X126860714Y-132767857D01*
X126896429Y-132696429D01*
X126932143Y-132553571D01*
X126932143Y-132375000D01*
X126896429Y-132232143D01*
X126860714Y-132160714D01*
X126825000Y-132125000D01*
X126753571Y-132089286D01*
D11*
X95017857Y-131967857D02*
X95053571Y-131932143D01*
X95089286Y-131825000D01*
X95089286Y-131753571D01*
X95053571Y-131646428D01*
X94982143Y-131575000D01*
X94910714Y-131539285D01*
X94767857Y-131503571D01*
X94660714Y-131503571D01*
X94517857Y-131539285D01*
X94446429Y-131575000D01*
X94375000Y-131646428D01*
X94339286Y-131753571D01*
X94339286Y-131825000D01*
X94375000Y-131932143D01*
X94410714Y-131967857D01*
X94339286Y-132646428D02*
X94339286Y-132289285D01*
X94696429Y-132253571D01*
X94660714Y-132289285D01*
X94625000Y-132360714D01*
X94625000Y-132539285D01*
X94660714Y-132610714D01*
X94696429Y-132646428D01*
X94767857Y-132682143D01*
X94946429Y-132682143D01*
X95017857Y-132646428D01*
X95053571Y-132610714D01*
X95089286Y-132539285D01*
X95089286Y-132360714D01*
X95053571Y-132289285D01*
X95017857Y-132253571D01*
X95089286Y-133396429D02*
X95089286Y-132967857D01*
X95089286Y-133182143D02*
X94339286Y-133182143D01*
X94446429Y-133110714D01*
X94517857Y-133039286D01*
X94553571Y-132967857D01*
X95017857Y-134467857D02*
X95053571Y-134432143D01*
X95089286Y-134325000D01*
X95089286Y-134253571D01*
X95053571Y-134146428D01*
X94982143Y-134075000D01*
X94910714Y-134039285D01*
X94767857Y-134003571D01*
X94660714Y-134003571D01*
X94517857Y-134039285D01*
X94446429Y-134075000D01*
X94375000Y-134146428D01*
X94339286Y-134253571D01*
X94339286Y-134325000D01*
X94375000Y-134432143D01*
X94410714Y-134467857D01*
X94339286Y-135146428D02*
X94339286Y-134789285D01*
X94696429Y-134753571D01*
X94660714Y-134789285D01*
X94625000Y-134860714D01*
X94625000Y-135039285D01*
X94660714Y-135110714D01*
X94696429Y-135146428D01*
X94767857Y-135182143D01*
X94946429Y-135182143D01*
X95017857Y-135146428D01*
X95053571Y-135110714D01*
X95089286Y-135039285D01*
X95089286Y-134860714D01*
X95053571Y-134789285D01*
X95017857Y-134753571D01*
X94339286Y-135860714D02*
X94339286Y-135503571D01*
X94696429Y-135467857D01*
X94660714Y-135503571D01*
X94625000Y-135575000D01*
X94625000Y-135753571D01*
X94660714Y-135825000D01*
X94696429Y-135860714D01*
X94767857Y-135896429D01*
X94946429Y-135896429D01*
X95017857Y-135860714D01*
X95053571Y-135825000D01*
X95089286Y-135753571D01*
X95089286Y-135575000D01*
X95053571Y-135503571D01*
X95017857Y-135467857D01*
X78382143Y-116767857D02*
X78417857Y-116803571D01*
X78525000Y-116839286D01*
X78596429Y-116839286D01*
X78703572Y-116803571D01*
X78775000Y-116732143D01*
X78810715Y-116660714D01*
X78846429Y-116517857D01*
X78846429Y-116410714D01*
X78810715Y-116267857D01*
X78775000Y-116196429D01*
X78703572Y-116125000D01*
X78596429Y-116089286D01*
X78525000Y-116089286D01*
X78417857Y-116125000D01*
X78382143Y-116160714D01*
X77703572Y-116089286D02*
X78060715Y-116089286D01*
X78096429Y-116446429D01*
X78060715Y-116410714D01*
X77989286Y-116375000D01*
X77810715Y-116375000D01*
X77739286Y-116410714D01*
X77703572Y-116446429D01*
X77667857Y-116517857D01*
X77667857Y-116696429D01*
X77703572Y-116767857D01*
X77739286Y-116803571D01*
X77810715Y-116839286D01*
X77989286Y-116839286D01*
X78060715Y-116803571D01*
X78096429Y-116767857D01*
X77025000Y-116089286D02*
X77167857Y-116089286D01*
X77239286Y-116125000D01*
X77275000Y-116160714D01*
X77346429Y-116267857D01*
X77382143Y-116410714D01*
X77382143Y-116696429D01*
X77346429Y-116767857D01*
X77310714Y-116803571D01*
X77239286Y-116839286D01*
X77096429Y-116839286D01*
X77025000Y-116803571D01*
X76989286Y-116767857D01*
X76953571Y-116696429D01*
X76953571Y-116517857D01*
X76989286Y-116446429D01*
X77025000Y-116410714D01*
X77096429Y-116375000D01*
X77239286Y-116375000D01*
X77310714Y-116410714D01*
X77346429Y-116446429D01*
X77382143Y-116517857D01*
X78992857Y-138757143D02*
X79040476Y-138804762D01*
X79183333Y-138852381D01*
X79278571Y-138852381D01*
X79421429Y-138804762D01*
X79516667Y-138709524D01*
X79564286Y-138614286D01*
X79611905Y-138423810D01*
X79611905Y-138280952D01*
X79564286Y-138090476D01*
X79516667Y-137995238D01*
X79421429Y-137900000D01*
X79278571Y-137852381D01*
X79183333Y-137852381D01*
X79040476Y-137900000D01*
X78992857Y-137947619D01*
X78088095Y-137852381D02*
X78564286Y-137852381D01*
X78611905Y-138328571D01*
X78564286Y-138280952D01*
X78469048Y-138233333D01*
X78230952Y-138233333D01*
X78135714Y-138280952D01*
X78088095Y-138328571D01*
X78040476Y-138423810D01*
X78040476Y-138661905D01*
X78088095Y-138757143D01*
X78135714Y-138804762D01*
X78230952Y-138852381D01*
X78469048Y-138852381D01*
X78564286Y-138804762D01*
X78611905Y-138757143D01*
X77707143Y-137852381D02*
X77040476Y-137852381D01*
X77469048Y-138852381D01*
X83042857Y-62157143D02*
X83090476Y-62204762D01*
X83233333Y-62252381D01*
X83328571Y-62252381D01*
X83471429Y-62204762D01*
X83566667Y-62109524D01*
X83614286Y-62014286D01*
X83661905Y-61823810D01*
X83661905Y-61680952D01*
X83614286Y-61490476D01*
X83566667Y-61395238D01*
X83471429Y-61300000D01*
X83328571Y-61252381D01*
X83233333Y-61252381D01*
X83090476Y-61300000D01*
X83042857Y-61347619D01*
X82138095Y-61252381D02*
X82614286Y-61252381D01*
X82661905Y-61728571D01*
X82614286Y-61680952D01*
X82519048Y-61633333D01*
X82280952Y-61633333D01*
X82185714Y-61680952D01*
X82138095Y-61728571D01*
X82090476Y-61823810D01*
X82090476Y-62061905D01*
X82138095Y-62157143D01*
X82185714Y-62204762D01*
X82280952Y-62252381D01*
X82519048Y-62252381D01*
X82614286Y-62204762D01*
X82661905Y-62157143D01*
X81519048Y-61680952D02*
X81614286Y-61633333D01*
X81661905Y-61585714D01*
X81709524Y-61490476D01*
X81709524Y-61442857D01*
X81661905Y-61347619D01*
X81614286Y-61300000D01*
X81519048Y-61252381D01*
X81328571Y-61252381D01*
X81233333Y-61300000D01*
X81185714Y-61347619D01*
X81138095Y-61442857D01*
X81138095Y-61490476D01*
X81185714Y-61585714D01*
X81233333Y-61633333D01*
X81328571Y-61680952D01*
X81519048Y-61680952D01*
X81614286Y-61728571D01*
X81661905Y-61776190D01*
X81709524Y-61871429D01*
X81709524Y-62061905D01*
X81661905Y-62157143D01*
X81614286Y-62204762D01*
X81519048Y-62252381D01*
X81328571Y-62252381D01*
X81233333Y-62204762D01*
X81185714Y-62157143D01*
X81138095Y-62061905D01*
X81138095Y-61871429D01*
X81185714Y-61776190D01*
X81233333Y-61728571D01*
X81328571Y-61680952D01*
X139357143Y-101357143D02*
X139404762Y-101309524D01*
X139452381Y-101166667D01*
X139452381Y-101071429D01*
X139404762Y-100928571D01*
X139309524Y-100833333D01*
X139214286Y-100785714D01*
X139023810Y-100738095D01*
X138880952Y-100738095D01*
X138690476Y-100785714D01*
X138595238Y-100833333D01*
X138500000Y-100928571D01*
X138452381Y-101071429D01*
X138452381Y-101166667D01*
X138500000Y-101309524D01*
X138547619Y-101357143D01*
X138452381Y-102261905D02*
X138452381Y-101785714D01*
X138928571Y-101738095D01*
X138880952Y-101785714D01*
X138833333Y-101880952D01*
X138833333Y-102119048D01*
X138880952Y-102214286D01*
X138928571Y-102261905D01*
X139023810Y-102309524D01*
X139261905Y-102309524D01*
X139357143Y-102261905D01*
X139404762Y-102214286D01*
X139452381Y-102119048D01*
X139452381Y-101880952D01*
X139404762Y-101785714D01*
X139357143Y-101738095D01*
X139452381Y-102785714D02*
X139452381Y-102976190D01*
X139404762Y-103071429D01*
X139357143Y-103119048D01*
X139214286Y-103214286D01*
X139023810Y-103261905D01*
X138642857Y-103261905D01*
X138547619Y-103214286D01*
X138500000Y-103166667D01*
X138452381Y-103071429D01*
X138452381Y-102880952D01*
X138500000Y-102785714D01*
X138547619Y-102738095D01*
X138642857Y-102690476D01*
X138880952Y-102690476D01*
X138976190Y-102738095D01*
X139023810Y-102785714D01*
X139071429Y-102880952D01*
X139071429Y-103071429D01*
X139023810Y-103166667D01*
X138976190Y-103214286D01*
X138880952Y-103261905D01*
X104842857Y-79757143D02*
X104890476Y-79804762D01*
X105033333Y-79852381D01*
X105128571Y-79852381D01*
X105271429Y-79804762D01*
X105366667Y-79709524D01*
X105414286Y-79614286D01*
X105461905Y-79423810D01*
X105461905Y-79280952D01*
X105414286Y-79090476D01*
X105366667Y-78995238D01*
X105271429Y-78900000D01*
X105128571Y-78852381D01*
X105033333Y-78852381D01*
X104890476Y-78900000D01*
X104842857Y-78947619D01*
X103985714Y-78852381D02*
X104176191Y-78852381D01*
X104271429Y-78900000D01*
X104319048Y-78947619D01*
X104414286Y-79090476D01*
X104461905Y-79280952D01*
X104461905Y-79661905D01*
X104414286Y-79757143D01*
X104366667Y-79804762D01*
X104271429Y-79852381D01*
X104080952Y-79852381D01*
X103985714Y-79804762D01*
X103938095Y-79757143D01*
X103890476Y-79661905D01*
X103890476Y-79423810D01*
X103938095Y-79328571D01*
X103985714Y-79280952D01*
X104080952Y-79233333D01*
X104271429Y-79233333D01*
X104366667Y-79280952D01*
X104414286Y-79328571D01*
X104461905Y-79423810D01*
X103271429Y-78852381D02*
X103176190Y-78852381D01*
X103080952Y-78900000D01*
X103033333Y-78947619D01*
X102985714Y-79042857D01*
X102938095Y-79233333D01*
X102938095Y-79471429D01*
X102985714Y-79661905D01*
X103033333Y-79757143D01*
X103080952Y-79804762D01*
X103176190Y-79852381D01*
X103271429Y-79852381D01*
X103366667Y-79804762D01*
X103414286Y-79757143D01*
X103461905Y-79661905D01*
X103509524Y-79471429D01*
X103509524Y-79233333D01*
X103461905Y-79042857D01*
X103414286Y-78947619D01*
X103366667Y-78900000D01*
X103271429Y-78852381D01*
X124642857Y-62557143D02*
X124690476Y-62604762D01*
X124833333Y-62652381D01*
X124928571Y-62652381D01*
X125071429Y-62604762D01*
X125166667Y-62509524D01*
X125214286Y-62414286D01*
X125261905Y-62223810D01*
X125261905Y-62080952D01*
X125214286Y-61890476D01*
X125166667Y-61795238D01*
X125071429Y-61700000D01*
X124928571Y-61652381D01*
X124833333Y-61652381D01*
X124690476Y-61700000D01*
X124642857Y-61747619D01*
X123785714Y-61652381D02*
X123976191Y-61652381D01*
X124071429Y-61700000D01*
X124119048Y-61747619D01*
X124214286Y-61890476D01*
X124261905Y-62080952D01*
X124261905Y-62461905D01*
X124214286Y-62557143D01*
X124166667Y-62604762D01*
X124071429Y-62652381D01*
X123880952Y-62652381D01*
X123785714Y-62604762D01*
X123738095Y-62557143D01*
X123690476Y-62461905D01*
X123690476Y-62223810D01*
X123738095Y-62128571D01*
X123785714Y-62080952D01*
X123880952Y-62033333D01*
X124071429Y-62033333D01*
X124166667Y-62080952D01*
X124214286Y-62128571D01*
X124261905Y-62223810D01*
X122738095Y-62652381D02*
X123309524Y-62652381D01*
X123023810Y-62652381D02*
X123023810Y-61652381D01*
X123119048Y-61795238D01*
X123214286Y-61890476D01*
X123309524Y-61938095D01*
X79738095Y-82452381D02*
X79738095Y-81452381D01*
X79500000Y-81452381D01*
X79357142Y-81500000D01*
X79261904Y-81595238D01*
X79214285Y-81690476D01*
X79166666Y-81880952D01*
X79166666Y-82023810D01*
X79214285Y-82214286D01*
X79261904Y-82309524D01*
X79357142Y-82404762D01*
X79500000Y-82452381D01*
X79738095Y-82452381D01*
X78214285Y-82452381D02*
X78785714Y-82452381D01*
X78500000Y-82452381D02*
X78500000Y-81452381D01*
X78595238Y-81595238D01*
X78690476Y-81690476D01*
X78785714Y-81738095D01*
X70511905Y-83952381D02*
X70511905Y-82952381D01*
X69940476Y-83952381D02*
X70369048Y-83380952D01*
X69940476Y-82952381D02*
X70511905Y-83523810D01*
X78738095Y-83666667D02*
X78261904Y-83666667D01*
X78833333Y-83952381D02*
X78500000Y-82952381D01*
X78166666Y-83952381D01*
X118452381Y-83761905D02*
X117452381Y-83761905D01*
X117452381Y-84000000D01*
X117500000Y-84142858D01*
X117595238Y-84238096D01*
X117690476Y-84285715D01*
X117880952Y-84333334D01*
X118023810Y-84333334D01*
X118214286Y-84285715D01*
X118309524Y-84238096D01*
X118404762Y-84142858D01*
X118452381Y-84000000D01*
X118452381Y-83761905D01*
X117547619Y-84714286D02*
X117500000Y-84761905D01*
X117452381Y-84857143D01*
X117452381Y-85095239D01*
X117500000Y-85190477D01*
X117547619Y-85238096D01*
X117642857Y-85285715D01*
X117738095Y-85285715D01*
X117880952Y-85238096D01*
X118452381Y-84666667D01*
X118452381Y-85285715D01*
X118502381Y-86238095D02*
X117502381Y-86238095D01*
X118502381Y-86809524D02*
X117930952Y-86380952D01*
X117502381Y-86809524D02*
X118073810Y-86238095D01*
X118266667Y-82111905D02*
X118266667Y-82588096D01*
X118552381Y-82016667D02*
X117552381Y-82350000D01*
X118552381Y-82683334D01*
X136452381Y-76761905D02*
X135452381Y-76761905D01*
X135452381Y-77000000D01*
X135500000Y-77142858D01*
X135595238Y-77238096D01*
X135690476Y-77285715D01*
X135880952Y-77333334D01*
X136023810Y-77333334D01*
X136214286Y-77285715D01*
X136309524Y-77238096D01*
X136404762Y-77142858D01*
X136452381Y-77000000D01*
X136452381Y-76761905D01*
X135452381Y-77666667D02*
X135452381Y-78285715D01*
X135833333Y-77952381D01*
X135833333Y-78095239D01*
X135880952Y-78190477D01*
X135928571Y-78238096D01*
X136023810Y-78285715D01*
X136261905Y-78285715D01*
X136357143Y-78238096D01*
X136404762Y-78190477D01*
X136452381Y-78095239D01*
X136452381Y-77809524D01*
X136404762Y-77714286D01*
X136357143Y-77666667D01*
X134952381Y-77738095D02*
X133952381Y-77738095D01*
X134952381Y-78309524D02*
X134380952Y-77880952D01*
X133952381Y-78309524D02*
X134523810Y-77738095D01*
X133166667Y-85961905D02*
X133166667Y-86438096D01*
X133452381Y-85866667D02*
X132452381Y-86200000D01*
X133452381Y-86533334D01*
X118702381Y-77261905D02*
X117702381Y-77261905D01*
X117702381Y-77500000D01*
X117750000Y-77642858D01*
X117845238Y-77738096D01*
X117940476Y-77785715D01*
X118130952Y-77833334D01*
X118273810Y-77833334D01*
X118464286Y-77785715D01*
X118559524Y-77738096D01*
X118654762Y-77642858D01*
X118702381Y-77500000D01*
X118702381Y-77261905D01*
X118035714Y-78690477D02*
X118702381Y-78690477D01*
X117654762Y-78452381D02*
X118369048Y-78214286D01*
X118369048Y-78833334D01*
X118702381Y-79738095D02*
X117702381Y-79738095D01*
X118702381Y-80309524D02*
X118130952Y-79880952D01*
X117702381Y-80309524D02*
X118273810Y-79738095D01*
X118416667Y-75511905D02*
X118416667Y-75988096D01*
X118702381Y-75416667D02*
X117702381Y-75750000D01*
X118702381Y-76083334D01*
X72452381Y-125733334D02*
X72452381Y-125257143D01*
X71452381Y-125257143D01*
X72452381Y-126590477D02*
X72452381Y-126019048D01*
X72452381Y-126304762D02*
X71452381Y-126304762D01*
X71595238Y-126209524D01*
X71690476Y-126114286D01*
X71738095Y-126019048D01*
X72452381Y-123333334D02*
X72452381Y-122857143D01*
X71452381Y-122857143D01*
X71547619Y-123619048D02*
X71500000Y-123666667D01*
X71452381Y-123761905D01*
X71452381Y-124000001D01*
X71500000Y-124095239D01*
X71547619Y-124142858D01*
X71642857Y-124190477D01*
X71738095Y-124190477D01*
X71880952Y-124142858D01*
X72452381Y-123571429D01*
X72452381Y-124190477D01*
X89202381Y-125733334D02*
X89202381Y-125257143D01*
X88202381Y-125257143D01*
X88202381Y-125971429D02*
X88202381Y-126590477D01*
X88583333Y-126257143D01*
X88583333Y-126400001D01*
X88630952Y-126495239D01*
X88678571Y-126542858D01*
X88773810Y-126590477D01*
X89011905Y-126590477D01*
X89107143Y-126542858D01*
X89154762Y-126495239D01*
X89202381Y-126400001D01*
X89202381Y-126114286D01*
X89154762Y-126019048D01*
X89107143Y-125971429D01*
X89202381Y-123333334D02*
X89202381Y-122857143D01*
X88202381Y-122857143D01*
X88535714Y-124095239D02*
X89202381Y-124095239D01*
X88154762Y-123857143D02*
X88869048Y-123619048D01*
X88869048Y-124238096D01*
X89202381Y-74133334D02*
X89202381Y-73657143D01*
X88202381Y-73657143D01*
X88202381Y-74942858D02*
X88202381Y-74466667D01*
X88678571Y-74419048D01*
X88630952Y-74466667D01*
X88583333Y-74561905D01*
X88583333Y-74800001D01*
X88630952Y-74895239D01*
X88678571Y-74942858D01*
X88773810Y-74990477D01*
X89011905Y-74990477D01*
X89107143Y-74942858D01*
X89154762Y-74895239D01*
X89202381Y-74800001D01*
X89202381Y-74561905D01*
X89154762Y-74466667D01*
X89107143Y-74419048D01*
X89202381Y-76583334D02*
X89202381Y-76107143D01*
X88202381Y-76107143D01*
X88202381Y-77345239D02*
X88202381Y-77154762D01*
X88250000Y-77059524D01*
X88297619Y-77011905D01*
X88440476Y-76916667D01*
X88630952Y-76869048D01*
X89011905Y-76869048D01*
X89107143Y-76916667D01*
X89154762Y-76964286D01*
X89202381Y-77059524D01*
X89202381Y-77250001D01*
X89154762Y-77345239D01*
X89107143Y-77392858D01*
X89011905Y-77440477D01*
X88773810Y-77440477D01*
X88678571Y-77392858D01*
X88630952Y-77345239D01*
X88583333Y-77250001D01*
X88583333Y-77059524D01*
X88630952Y-76964286D01*
X88678571Y-76916667D01*
X88773810Y-76869048D01*
X72452381Y-74133334D02*
X72452381Y-73657143D01*
X71452381Y-73657143D01*
X71452381Y-74371429D02*
X71452381Y-75038096D01*
X72452381Y-74609524D01*
X72452381Y-76583334D02*
X72452381Y-76107143D01*
X71452381Y-76107143D01*
X71880952Y-77059524D02*
X71833333Y-76964286D01*
X71785714Y-76916667D01*
X71690476Y-76869048D01*
X71642857Y-76869048D01*
X71547619Y-76916667D01*
X71500000Y-76964286D01*
X71452381Y-77059524D01*
X71452381Y-77250001D01*
X71500000Y-77345239D01*
X71547619Y-77392858D01*
X71642857Y-77440477D01*
X71690476Y-77440477D01*
X71785714Y-77392858D01*
X71833333Y-77345239D01*
X71880952Y-77250001D01*
X71880952Y-77059524D01*
X71928571Y-76964286D01*
X71976190Y-76916667D01*
X72071429Y-76869048D01*
X72261905Y-76869048D01*
X72357143Y-76916667D01*
X72404762Y-76964286D01*
X72452381Y-77059524D01*
X72452381Y-77250001D01*
X72404762Y-77345239D01*
X72357143Y-77392858D01*
X72261905Y-77440477D01*
X72071429Y-77440477D01*
X71976190Y-77392858D01*
X71928571Y-77345239D01*
X71880952Y-77250001D01*
X126666666Y-108702381D02*
X127142857Y-108702381D01*
X127142857Y-107702381D01*
X126285714Y-108702381D02*
X126095238Y-108702381D01*
X125999999Y-108654762D01*
X125952380Y-108607143D01*
X125857142Y-108464286D01*
X125809523Y-108273810D01*
X125809523Y-107892857D01*
X125857142Y-107797619D01*
X125904761Y-107750000D01*
X125999999Y-107702381D01*
X126190476Y-107702381D01*
X126285714Y-107750000D01*
X126333333Y-107797619D01*
X126380952Y-107892857D01*
X126380952Y-108130952D01*
X126333333Y-108226190D01*
X126285714Y-108273810D01*
X126190476Y-108321429D01*
X125999999Y-108321429D01*
X125904761Y-108273810D01*
X125857142Y-108226190D01*
X125809523Y-108130952D01*
X124642857Y-108702381D02*
X125119048Y-108702381D01*
X125119048Y-107702381D01*
X123785714Y-108702381D02*
X124357143Y-108702381D01*
X124071429Y-108702381D02*
X124071429Y-107702381D01*
X124166667Y-107845238D01*
X124261905Y-107940476D01*
X124357143Y-107988095D01*
X123166667Y-107702381D02*
X123071428Y-107702381D01*
X122976190Y-107750000D01*
X122928571Y-107797619D01*
X122880952Y-107892857D01*
X122833333Y-108083333D01*
X122833333Y-108321429D01*
X122880952Y-108511905D01*
X122928571Y-108607143D01*
X122976190Y-108654762D01*
X123071428Y-108702381D01*
X123166667Y-108702381D01*
X123261905Y-108654762D01*
X123309524Y-108607143D01*
X123357143Y-108511905D01*
X123404762Y-108321429D01*
X123404762Y-108083333D01*
X123357143Y-107892857D01*
X123309524Y-107797619D01*
X123261905Y-107750000D01*
X123166667Y-107702381D01*
X127142857Y-92202381D02*
X127619048Y-92202381D01*
X127619048Y-91202381D01*
X126285714Y-92202381D02*
X126857143Y-92202381D01*
X126571429Y-92202381D02*
X126571429Y-91202381D01*
X126666667Y-91345238D01*
X126761905Y-91440476D01*
X126857143Y-91488095D01*
X125333333Y-92202381D02*
X125904762Y-92202381D01*
X125619048Y-92202381D02*
X125619048Y-91202381D01*
X125714286Y-91345238D01*
X125809524Y-91440476D01*
X125904762Y-91488095D01*
X124392857Y-92202381D02*
X124869048Y-92202381D01*
X124869048Y-91202381D01*
X123535714Y-92202381D02*
X124107143Y-92202381D01*
X123821429Y-92202381D02*
X123821429Y-91202381D01*
X123916667Y-91345238D01*
X124011905Y-91440476D01*
X124107143Y-91488095D01*
X123154762Y-91297619D02*
X123107143Y-91250000D01*
X123011905Y-91202381D01*
X122773809Y-91202381D01*
X122678571Y-91250000D01*
X122630952Y-91297619D01*
X122583333Y-91392857D01*
X122583333Y-91488095D01*
X122630952Y-91630952D01*
X123202381Y-92202381D01*
X122583333Y-92202381D01*
X127392857Y-113202381D02*
X127869048Y-113202381D01*
X127869048Y-112202381D01*
X126535714Y-113202381D02*
X127107143Y-113202381D01*
X126821429Y-113202381D02*
X126821429Y-112202381D01*
X126916667Y-112345238D01*
X127011905Y-112440476D01*
X127107143Y-112488095D01*
X126202381Y-112202381D02*
X125583333Y-112202381D01*
X125916667Y-112583333D01*
X125773809Y-112583333D01*
X125678571Y-112630952D01*
X125630952Y-112678571D01*
X125583333Y-112773810D01*
X125583333Y-113011905D01*
X125630952Y-113107143D01*
X125678571Y-113154762D01*
X125773809Y-113202381D01*
X126059524Y-113202381D01*
X126154762Y-113154762D01*
X126202381Y-113107143D01*
X122392857Y-113202381D02*
X122869048Y-113202381D01*
X122869048Y-112202381D01*
X121535714Y-113202381D02*
X122107143Y-113202381D01*
X121821429Y-113202381D02*
X121821429Y-112202381D01*
X121916667Y-112345238D01*
X122011905Y-112440476D01*
X122107143Y-112488095D01*
X120678571Y-112535714D02*
X120678571Y-113202381D01*
X120916667Y-112154762D02*
X121154762Y-112869048D01*
X120535714Y-112869048D01*
X108892857Y-120702381D02*
X109369048Y-120702381D01*
X109369048Y-119702381D01*
X108035714Y-120702381D02*
X108607143Y-120702381D01*
X108321429Y-120702381D02*
X108321429Y-119702381D01*
X108416667Y-119845238D01*
X108511905Y-119940476D01*
X108607143Y-119988095D01*
X107130952Y-119702381D02*
X107607143Y-119702381D01*
X107654762Y-120178571D01*
X107607143Y-120130952D01*
X107511905Y-120083333D01*
X107273809Y-120083333D01*
X107178571Y-120130952D01*
X107130952Y-120178571D01*
X107083333Y-120273810D01*
X107083333Y-120511905D01*
X107130952Y-120607143D01*
X107178571Y-120654762D01*
X107273809Y-120702381D01*
X107511905Y-120702381D01*
X107607143Y-120654762D01*
X107654762Y-120607143D01*
X59952381Y-120433334D02*
X59476190Y-120100000D01*
X59952381Y-119861905D02*
X58952381Y-119861905D01*
X58952381Y-120242858D01*
X59000000Y-120338096D01*
X59047619Y-120385715D01*
X59142857Y-120433334D01*
X59285714Y-120433334D01*
X59380952Y-120385715D01*
X59428571Y-120338096D01*
X59476190Y-120242858D01*
X59476190Y-119861905D01*
X59952381Y-121385715D02*
X59952381Y-120814286D01*
X59952381Y-121100000D02*
X58952381Y-121100000D01*
X59095238Y-121004762D01*
X59190476Y-120909524D01*
X59238095Y-120814286D01*
X113142857Y-75702381D02*
X113476191Y-75226190D01*
X113714286Y-75702381D02*
X113714286Y-74702381D01*
X113333333Y-74702381D01*
X113238095Y-74750000D01*
X113190476Y-74797619D01*
X113142857Y-74892857D01*
X113142857Y-75035714D01*
X113190476Y-75130952D01*
X113238095Y-75178571D01*
X113333333Y-75226190D01*
X113714286Y-75226190D01*
X112190476Y-75702381D02*
X112761905Y-75702381D01*
X112476191Y-75702381D02*
X112476191Y-74702381D01*
X112571429Y-74845238D01*
X112666667Y-74940476D01*
X112761905Y-74988095D01*
X111809524Y-74797619D02*
X111761905Y-74750000D01*
X111666667Y-74702381D01*
X111428571Y-74702381D01*
X111333333Y-74750000D01*
X111285714Y-74797619D01*
X111238095Y-74892857D01*
X111238095Y-74988095D01*
X111285714Y-75130952D01*
X111857143Y-75702381D01*
X111238095Y-75702381D01*
X109252381Y-69607143D02*
X108776190Y-69273809D01*
X109252381Y-69035714D02*
X108252381Y-69035714D01*
X108252381Y-69416667D01*
X108300000Y-69511905D01*
X108347619Y-69559524D01*
X108442857Y-69607143D01*
X108585714Y-69607143D01*
X108680952Y-69559524D01*
X108728571Y-69511905D01*
X108776190Y-69416667D01*
X108776190Y-69035714D01*
X109252381Y-70559524D02*
X109252381Y-69988095D01*
X109252381Y-70273809D02*
X108252381Y-70273809D01*
X108395238Y-70178571D01*
X108490476Y-70083333D01*
X108538095Y-69988095D01*
X108252381Y-70892857D02*
X108252381Y-71511905D01*
X108633333Y-71178571D01*
X108633333Y-71321429D01*
X108680952Y-71416667D01*
X108728571Y-71464286D01*
X108823810Y-71511905D01*
X109061905Y-71511905D01*
X109157143Y-71464286D01*
X109204762Y-71416667D01*
X109252381Y-71321429D01*
X109252381Y-71035714D01*
X109204762Y-70940476D01*
X109157143Y-70892857D01*
X138202381Y-76607143D02*
X137726190Y-76273809D01*
X138202381Y-76035714D02*
X137202381Y-76035714D01*
X137202381Y-76416667D01*
X137250000Y-76511905D01*
X137297619Y-76559524D01*
X137392857Y-76607143D01*
X137535714Y-76607143D01*
X137630952Y-76559524D01*
X137678571Y-76511905D01*
X137726190Y-76416667D01*
X137726190Y-76035714D01*
X137297619Y-76988095D02*
X137250000Y-77035714D01*
X137202381Y-77130952D01*
X137202381Y-77369048D01*
X137250000Y-77464286D01*
X137297619Y-77511905D01*
X137392857Y-77559524D01*
X137488095Y-77559524D01*
X137630952Y-77511905D01*
X138202381Y-76940476D01*
X138202381Y-77559524D01*
X138202381Y-78511905D02*
X138202381Y-77940476D01*
X138202381Y-78226190D02*
X137202381Y-78226190D01*
X137345238Y-78130952D01*
X137440476Y-78035714D01*
X137488095Y-77940476D01*
X140452381Y-76607143D02*
X139976190Y-76273809D01*
X140452381Y-76035714D02*
X139452381Y-76035714D01*
X139452381Y-76416667D01*
X139500000Y-76511905D01*
X139547619Y-76559524D01*
X139642857Y-76607143D01*
X139785714Y-76607143D01*
X139880952Y-76559524D01*
X139928571Y-76511905D01*
X139976190Y-76416667D01*
X139976190Y-76035714D01*
X139547619Y-76988095D02*
X139500000Y-77035714D01*
X139452381Y-77130952D01*
X139452381Y-77369048D01*
X139500000Y-77464286D01*
X139547619Y-77511905D01*
X139642857Y-77559524D01*
X139738095Y-77559524D01*
X139880952Y-77511905D01*
X140452381Y-76940476D01*
X140452381Y-77559524D01*
X139547619Y-77940476D02*
X139500000Y-77988095D01*
X139452381Y-78083333D01*
X139452381Y-78321429D01*
X139500000Y-78416667D01*
X139547619Y-78464286D01*
X139642857Y-78511905D01*
X139738095Y-78511905D01*
X139880952Y-78464286D01*
X140452381Y-77892857D01*
X140452381Y-78511905D01*
X138452381Y-86357143D02*
X137976190Y-86023809D01*
X138452381Y-85785714D02*
X137452381Y-85785714D01*
X137452381Y-86166667D01*
X137500000Y-86261905D01*
X137547619Y-86309524D01*
X137642857Y-86357143D01*
X137785714Y-86357143D01*
X137880952Y-86309524D01*
X137928571Y-86261905D01*
X137976190Y-86166667D01*
X137976190Y-85785714D01*
X137547619Y-86738095D02*
X137500000Y-86785714D01*
X137452381Y-86880952D01*
X137452381Y-87119048D01*
X137500000Y-87214286D01*
X137547619Y-87261905D01*
X137642857Y-87309524D01*
X137738095Y-87309524D01*
X137880952Y-87261905D01*
X138452381Y-86690476D01*
X138452381Y-87309524D01*
X137452381Y-87642857D02*
X137452381Y-88261905D01*
X137833333Y-87928571D01*
X137833333Y-88071429D01*
X137880952Y-88166667D01*
X137928571Y-88214286D01*
X138023810Y-88261905D01*
X138261905Y-88261905D01*
X138357143Y-88214286D01*
X138404762Y-88166667D01*
X138452381Y-88071429D01*
X138452381Y-87785714D01*
X138404762Y-87690476D01*
X138357143Y-87642857D01*
D14*
X100476190Y-64178572D02*
X100238095Y-64011905D01*
X100476190Y-63892858D02*
X99976190Y-63892858D01*
X99976190Y-64083334D01*
X100000000Y-64130953D01*
X100023810Y-64154762D01*
X100071429Y-64178572D01*
X100142857Y-64178572D01*
X100190476Y-64154762D01*
X100214286Y-64130953D01*
X100238095Y-64083334D01*
X100238095Y-63892858D01*
X100023810Y-64369048D02*
X100000000Y-64392858D01*
X99976190Y-64440477D01*
X99976190Y-64559524D01*
X100000000Y-64607143D01*
X100023810Y-64630953D01*
X100071429Y-64654762D01*
X100119048Y-64654762D01*
X100190476Y-64630953D01*
X100476190Y-64345239D01*
X100476190Y-64654762D01*
X100142857Y-65083333D02*
X100476190Y-65083333D01*
X99952381Y-64964286D02*
X100309524Y-64845238D01*
X100309524Y-65154762D01*
X100476190Y-61928572D02*
X100238095Y-61761905D01*
X100476190Y-61642858D02*
X99976190Y-61642858D01*
X99976190Y-61833334D01*
X100000000Y-61880953D01*
X100023810Y-61904762D01*
X100071429Y-61928572D01*
X100142857Y-61928572D01*
X100190476Y-61904762D01*
X100214286Y-61880953D01*
X100238095Y-61833334D01*
X100238095Y-61642858D01*
X100023810Y-62119048D02*
X100000000Y-62142858D01*
X99976190Y-62190477D01*
X99976190Y-62309524D01*
X100000000Y-62357143D01*
X100023810Y-62380953D01*
X100071429Y-62404762D01*
X100119048Y-62404762D01*
X100190476Y-62380953D01*
X100476190Y-62095239D01*
X100476190Y-62404762D01*
X99976190Y-62857143D02*
X99976190Y-62619048D01*
X100214286Y-62595238D01*
X100190476Y-62619048D01*
X100166667Y-62666667D01*
X100166667Y-62785714D01*
X100190476Y-62833333D01*
X100214286Y-62857143D01*
X100261905Y-62880952D01*
X100380952Y-62880952D01*
X100428571Y-62857143D01*
X100452381Y-62833333D01*
X100476190Y-62785714D01*
X100476190Y-62666667D01*
X100452381Y-62619048D01*
X100428571Y-62595238D01*
D11*
X75552381Y-134507143D02*
X75076190Y-134173809D01*
X75552381Y-133935714D02*
X74552381Y-133935714D01*
X74552381Y-134316667D01*
X74600000Y-134411905D01*
X74647619Y-134459524D01*
X74742857Y-134507143D01*
X74885714Y-134507143D01*
X74980952Y-134459524D01*
X75028571Y-134411905D01*
X75076190Y-134316667D01*
X75076190Y-133935714D01*
X74552381Y-134840476D02*
X74552381Y-135459524D01*
X74933333Y-135126190D01*
X74933333Y-135269048D01*
X74980952Y-135364286D01*
X75028571Y-135411905D01*
X75123810Y-135459524D01*
X75361905Y-135459524D01*
X75457143Y-135411905D01*
X75504762Y-135364286D01*
X75552381Y-135269048D01*
X75552381Y-134983333D01*
X75504762Y-134888095D01*
X75457143Y-134840476D01*
X74552381Y-136078571D02*
X74552381Y-136173810D01*
X74600000Y-136269048D01*
X74647619Y-136316667D01*
X74742857Y-136364286D01*
X74933333Y-136411905D01*
X75171429Y-136411905D01*
X75361905Y-136364286D01*
X75457143Y-136316667D01*
X75504762Y-136269048D01*
X75552381Y-136173810D01*
X75552381Y-136078571D01*
X75504762Y-135983333D01*
X75457143Y-135935714D01*
X75361905Y-135888095D01*
X75171429Y-135840476D01*
X74933333Y-135840476D01*
X74742857Y-135888095D01*
X74647619Y-135935714D01*
X74600000Y-135983333D01*
X74552381Y-136078571D01*
X118142857Y-74452381D02*
X118476191Y-73976190D01*
X118714286Y-74452381D02*
X118714286Y-73452381D01*
X118333333Y-73452381D01*
X118238095Y-73500000D01*
X118190476Y-73547619D01*
X118142857Y-73642857D01*
X118142857Y-73785714D01*
X118190476Y-73880952D01*
X118238095Y-73928571D01*
X118333333Y-73976190D01*
X118714286Y-73976190D01*
X117809524Y-73452381D02*
X117190476Y-73452381D01*
X117523810Y-73833333D01*
X117380952Y-73833333D01*
X117285714Y-73880952D01*
X117238095Y-73928571D01*
X117190476Y-74023810D01*
X117190476Y-74261905D01*
X117238095Y-74357143D01*
X117285714Y-74404762D01*
X117380952Y-74452381D01*
X117666667Y-74452381D01*
X117761905Y-74404762D01*
X117809524Y-74357143D01*
X116238095Y-74452381D02*
X116809524Y-74452381D01*
X116523810Y-74452381D02*
X116523810Y-73452381D01*
X116619048Y-73595238D01*
X116714286Y-73690476D01*
X116809524Y-73738095D01*
X86052381Y-133257143D02*
X85576190Y-132923809D01*
X86052381Y-132685714D02*
X85052381Y-132685714D01*
X85052381Y-133066667D01*
X85100000Y-133161905D01*
X85147619Y-133209524D01*
X85242857Y-133257143D01*
X85385714Y-133257143D01*
X85480952Y-133209524D01*
X85528571Y-133161905D01*
X85576190Y-133066667D01*
X85576190Y-132685714D01*
X85052381Y-133590476D02*
X85052381Y-134209524D01*
X85433333Y-133876190D01*
X85433333Y-134019048D01*
X85480952Y-134114286D01*
X85528571Y-134161905D01*
X85623810Y-134209524D01*
X85861905Y-134209524D01*
X85957143Y-134161905D01*
X86004762Y-134114286D01*
X86052381Y-134019048D01*
X86052381Y-133733333D01*
X86004762Y-133638095D01*
X85957143Y-133590476D01*
X85147619Y-134590476D02*
X85100000Y-134638095D01*
X85052381Y-134733333D01*
X85052381Y-134971429D01*
X85100000Y-135066667D01*
X85147619Y-135114286D01*
X85242857Y-135161905D01*
X85338095Y-135161905D01*
X85480952Y-135114286D01*
X86052381Y-134542857D01*
X86052381Y-135161905D01*
X75702381Y-65857143D02*
X75226190Y-65523809D01*
X75702381Y-65285714D02*
X74702381Y-65285714D01*
X74702381Y-65666667D01*
X74750000Y-65761905D01*
X74797619Y-65809524D01*
X74892857Y-65857143D01*
X75035714Y-65857143D01*
X75130952Y-65809524D01*
X75178571Y-65761905D01*
X75226190Y-65666667D01*
X75226190Y-65285714D01*
X74702381Y-66190476D02*
X74702381Y-66809524D01*
X75083333Y-66476190D01*
X75083333Y-66619048D01*
X75130952Y-66714286D01*
X75178571Y-66761905D01*
X75273810Y-66809524D01*
X75511905Y-66809524D01*
X75607143Y-66761905D01*
X75654762Y-66714286D01*
X75702381Y-66619048D01*
X75702381Y-66333333D01*
X75654762Y-66238095D01*
X75607143Y-66190476D01*
X74702381Y-67142857D02*
X74702381Y-67761905D01*
X75083333Y-67428571D01*
X75083333Y-67571429D01*
X75130952Y-67666667D01*
X75178571Y-67714286D01*
X75273810Y-67761905D01*
X75511905Y-67761905D01*
X75607143Y-67714286D01*
X75654762Y-67666667D01*
X75702381Y-67571429D01*
X75702381Y-67285714D01*
X75654762Y-67190476D01*
X75607143Y-67142857D01*
X109702381Y-59607143D02*
X109226190Y-59273809D01*
X109702381Y-59035714D02*
X108702381Y-59035714D01*
X108702381Y-59416667D01*
X108750000Y-59511905D01*
X108797619Y-59559524D01*
X108892857Y-59607143D01*
X109035714Y-59607143D01*
X109130952Y-59559524D01*
X109178571Y-59511905D01*
X109226190Y-59416667D01*
X109226190Y-59035714D01*
X108702381Y-59940476D02*
X108702381Y-60559524D01*
X109083333Y-60226190D01*
X109083333Y-60369048D01*
X109130952Y-60464286D01*
X109178571Y-60511905D01*
X109273810Y-60559524D01*
X109511905Y-60559524D01*
X109607143Y-60511905D01*
X109654762Y-60464286D01*
X109702381Y-60369048D01*
X109702381Y-60083333D01*
X109654762Y-59988095D01*
X109607143Y-59940476D01*
X109035714Y-61416667D02*
X109702381Y-61416667D01*
X108654762Y-61178571D02*
X109369048Y-60940476D01*
X109369048Y-61559524D01*
X135142857Y-95202381D02*
X135476191Y-94726190D01*
X135714286Y-95202381D02*
X135714286Y-94202381D01*
X135333333Y-94202381D01*
X135238095Y-94250000D01*
X135190476Y-94297619D01*
X135142857Y-94392857D01*
X135142857Y-94535714D01*
X135190476Y-94630952D01*
X135238095Y-94678571D01*
X135333333Y-94726190D01*
X135714286Y-94726190D01*
X134809524Y-94202381D02*
X134190476Y-94202381D01*
X134523810Y-94583333D01*
X134380952Y-94583333D01*
X134285714Y-94630952D01*
X134238095Y-94678571D01*
X134190476Y-94773810D01*
X134190476Y-95011905D01*
X134238095Y-95107143D01*
X134285714Y-95154762D01*
X134380952Y-95202381D01*
X134666667Y-95202381D01*
X134761905Y-95154762D01*
X134809524Y-95107143D01*
X133285714Y-94202381D02*
X133761905Y-94202381D01*
X133809524Y-94678571D01*
X133761905Y-94630952D01*
X133666667Y-94583333D01*
X133428571Y-94583333D01*
X133333333Y-94630952D01*
X133285714Y-94678571D01*
X133238095Y-94773810D01*
X133238095Y-95011905D01*
X133285714Y-95107143D01*
X133333333Y-95154762D01*
X133428571Y-95202381D01*
X133666667Y-95202381D01*
X133761905Y-95154762D01*
X133809524Y-95107143D01*
X86202381Y-64607143D02*
X85726190Y-64273809D01*
X86202381Y-64035714D02*
X85202381Y-64035714D01*
X85202381Y-64416667D01*
X85250000Y-64511905D01*
X85297619Y-64559524D01*
X85392857Y-64607143D01*
X85535714Y-64607143D01*
X85630952Y-64559524D01*
X85678571Y-64511905D01*
X85726190Y-64416667D01*
X85726190Y-64035714D01*
X85202381Y-64940476D02*
X85202381Y-65559524D01*
X85583333Y-65226190D01*
X85583333Y-65369048D01*
X85630952Y-65464286D01*
X85678571Y-65511905D01*
X85773810Y-65559524D01*
X86011905Y-65559524D01*
X86107143Y-65511905D01*
X86154762Y-65464286D01*
X86202381Y-65369048D01*
X86202381Y-65083333D01*
X86154762Y-64988095D01*
X86107143Y-64940476D01*
X85202381Y-66416667D02*
X85202381Y-66226190D01*
X85250000Y-66130952D01*
X85297619Y-66083333D01*
X85440476Y-65988095D01*
X85630952Y-65940476D01*
X86011905Y-65940476D01*
X86107143Y-65988095D01*
X86154762Y-66035714D01*
X86202381Y-66130952D01*
X86202381Y-66321429D01*
X86154762Y-66416667D01*
X86107143Y-66464286D01*
X86011905Y-66511905D01*
X85773810Y-66511905D01*
X85678571Y-66464286D01*
X85630952Y-66416667D01*
X85583333Y-66321429D01*
X85583333Y-66130952D01*
X85630952Y-66035714D01*
X85678571Y-65988095D01*
X85773810Y-65940476D01*
X121392857Y-60702381D02*
X121726191Y-60226190D01*
X121964286Y-60702381D02*
X121964286Y-59702381D01*
X121583333Y-59702381D01*
X121488095Y-59750000D01*
X121440476Y-59797619D01*
X121392857Y-59892857D01*
X121392857Y-60035714D01*
X121440476Y-60130952D01*
X121488095Y-60178571D01*
X121583333Y-60226190D01*
X121964286Y-60226190D01*
X121059524Y-59702381D02*
X120440476Y-59702381D01*
X120773810Y-60083333D01*
X120630952Y-60083333D01*
X120535714Y-60130952D01*
X120488095Y-60178571D01*
X120440476Y-60273810D01*
X120440476Y-60511905D01*
X120488095Y-60607143D01*
X120535714Y-60654762D01*
X120630952Y-60702381D01*
X120916667Y-60702381D01*
X121011905Y-60654762D01*
X121059524Y-60607143D01*
X120107143Y-59702381D02*
X119440476Y-59702381D01*
X119869048Y-60702381D01*
X121642857Y-132202381D02*
X121976191Y-131726190D01*
X122214286Y-132202381D02*
X122214286Y-131202381D01*
X121833333Y-131202381D01*
X121738095Y-131250000D01*
X121690476Y-131297619D01*
X121642857Y-131392857D01*
X121642857Y-131535714D01*
X121690476Y-131630952D01*
X121738095Y-131678571D01*
X121833333Y-131726190D01*
X122214286Y-131726190D01*
X121309524Y-131202381D02*
X120690476Y-131202381D01*
X121023810Y-131583333D01*
X120880952Y-131583333D01*
X120785714Y-131630952D01*
X120738095Y-131678571D01*
X120690476Y-131773810D01*
X120690476Y-132011905D01*
X120738095Y-132107143D01*
X120785714Y-132154762D01*
X120880952Y-132202381D01*
X121166667Y-132202381D01*
X121261905Y-132154762D01*
X121309524Y-132107143D01*
X120214286Y-132202381D02*
X120023810Y-132202381D01*
X119928571Y-132154762D01*
X119880952Y-132107143D01*
X119785714Y-131964286D01*
X119738095Y-131773810D01*
X119738095Y-131392857D01*
X119785714Y-131297619D01*
X119833333Y-131250000D01*
X119928571Y-131202381D01*
X120119048Y-131202381D01*
X120214286Y-131250000D01*
X120261905Y-131297619D01*
X120309524Y-131392857D01*
X120309524Y-131630952D01*
X120261905Y-131726190D01*
X120214286Y-131773810D01*
X120119048Y-131821429D01*
X119928571Y-131821429D01*
X119833333Y-131773810D01*
X119785714Y-131726190D01*
X119738095Y-131630952D01*
X136392857Y-105702381D02*
X136726191Y-105226190D01*
X136964286Y-105702381D02*
X136964286Y-104702381D01*
X136583333Y-104702381D01*
X136488095Y-104750000D01*
X136440476Y-104797619D01*
X136392857Y-104892857D01*
X136392857Y-105035714D01*
X136440476Y-105130952D01*
X136488095Y-105178571D01*
X136583333Y-105226190D01*
X136964286Y-105226190D01*
X135535714Y-105035714D02*
X135535714Y-105702381D01*
X135773810Y-104654762D02*
X136011905Y-105369048D01*
X135392857Y-105369048D01*
X135059524Y-104797619D02*
X135011905Y-104750000D01*
X134916667Y-104702381D01*
X134678571Y-104702381D01*
X134583333Y-104750000D01*
X134535714Y-104797619D01*
X134488095Y-104892857D01*
X134488095Y-104988095D01*
X134535714Y-105130952D01*
X135107143Y-105702381D01*
X134488095Y-105702381D01*
X97761905Y-75702381D02*
X97761905Y-76511905D01*
X97714286Y-76607143D01*
X97666667Y-76654762D01*
X97571429Y-76702381D01*
X97380952Y-76702381D01*
X97285714Y-76654762D01*
X97238095Y-76607143D01*
X97190476Y-76511905D01*
X97190476Y-75702381D01*
X96809524Y-75702381D02*
X96142857Y-75702381D01*
X96571429Y-76702381D01*
X123952381Y-78238095D02*
X124761905Y-78238095D01*
X124857143Y-78285714D01*
X124904762Y-78333333D01*
X124952381Y-78428571D01*
X124952381Y-78619048D01*
X124904762Y-78714286D01*
X124857143Y-78761905D01*
X124761905Y-78809524D01*
X123952381Y-78809524D01*
X124952381Y-79333333D02*
X124952381Y-79523809D01*
X124904762Y-79619048D01*
X124857143Y-79666667D01*
X124714286Y-79761905D01*
X124523810Y-79809524D01*
X124142857Y-79809524D01*
X124047619Y-79761905D01*
X124000000Y-79714286D01*
X123952381Y-79619048D01*
X123952381Y-79428571D01*
X124000000Y-79333333D01*
X124047619Y-79285714D01*
X124142857Y-79238095D01*
X124380952Y-79238095D01*
X124476190Y-79285714D01*
X124523810Y-79333333D01*
X124571429Y-79428571D01*
X124571429Y-79619048D01*
X124523810Y-79714286D01*
X124476190Y-79761905D01*
X124380952Y-79809524D01*
X79238095Y-86452381D02*
X79238095Y-87261905D01*
X79190476Y-87357143D01*
X79142857Y-87404762D01*
X79047619Y-87452381D01*
X78857142Y-87452381D01*
X78761904Y-87404762D01*
X78714285Y-87357143D01*
X78666666Y-87261905D01*
X78666666Y-86452381D01*
X77666666Y-87452381D02*
X78238095Y-87452381D01*
X77952381Y-87452381D02*
X77952381Y-86452381D01*
X78047619Y-86595238D01*
X78142857Y-86690476D01*
X78238095Y-86738095D01*
X77047619Y-86452381D02*
X76952380Y-86452381D01*
X76857142Y-86500000D01*
X76809523Y-86547619D01*
X76761904Y-86642857D01*
X76714285Y-86833333D01*
X76714285Y-87071429D01*
X76761904Y-87261905D01*
X76809523Y-87357143D01*
X76857142Y-87404762D01*
X76952380Y-87452381D01*
X77047619Y-87452381D01*
X77142857Y-87404762D01*
X77190476Y-87357143D01*
X77238095Y-87261905D01*
X77285714Y-87071429D01*
X77285714Y-86833333D01*
X77238095Y-86642857D01*
X77190476Y-86547619D01*
X77142857Y-86500000D01*
X77047619Y-86452381D01*
X59952381Y-108285714D02*
X58952381Y-108285714D01*
X58952381Y-108666667D01*
X59000000Y-108761905D01*
X59047619Y-108809524D01*
X59142857Y-108857143D01*
X59285714Y-108857143D01*
X59380952Y-108809524D01*
X59428571Y-108761905D01*
X59476190Y-108666667D01*
X59476190Y-108285714D01*
X59952381Y-109809524D02*
X59952381Y-109238095D01*
X59952381Y-109523809D02*
X58952381Y-109523809D01*
X59095238Y-109428571D01*
X59190476Y-109333333D01*
X59238095Y-109238095D01*
X58952381Y-110142857D02*
X58952381Y-110761905D01*
X59333333Y-110428571D01*
X59333333Y-110571429D01*
X59380952Y-110666667D01*
X59428571Y-110714286D01*
X59523810Y-110761905D01*
X59761905Y-110761905D01*
X59857143Y-110714286D01*
X59904762Y-110666667D01*
X59952381Y-110571429D01*
X59952381Y-110285714D01*
X59904762Y-110190476D01*
X59857143Y-110142857D01*
X60202381Y-89285714D02*
X59202381Y-89285714D01*
X59202381Y-89666667D01*
X59250000Y-89761905D01*
X59297619Y-89809524D01*
X59392857Y-89857143D01*
X59535714Y-89857143D01*
X59630952Y-89809524D01*
X59678571Y-89761905D01*
X59726190Y-89666667D01*
X59726190Y-89285714D01*
X60202381Y-90809524D02*
X60202381Y-90238095D01*
X60202381Y-90523809D02*
X59202381Y-90523809D01*
X59345238Y-90428571D01*
X59440476Y-90333333D01*
X59488095Y-90238095D01*
X59297619Y-91190476D02*
X59250000Y-91238095D01*
X59202381Y-91333333D01*
X59202381Y-91571429D01*
X59250000Y-91666667D01*
X59297619Y-91714286D01*
X59392857Y-91761905D01*
X59488095Y-91761905D01*
X59630952Y-91714286D01*
X60202381Y-91142857D01*
X60202381Y-91761905D01*
%LPC*%
D15*
X93550980Y-77250000D03*
X95649020Y-77250000D03*
D16*
X81200000Y-115000000D03*
X81200000Y-118000000D03*
D17*
X67900000Y-114200000D03*
X70900000Y-114200000D03*
D18*
X101270000Y-81100000D03*
X101270000Y-76900000D03*
X100000000Y-81100000D03*
X100000000Y-76900000D03*
X98730000Y-81100000D03*
X98730000Y-76900000D03*
D19*
X93050000Y-72750000D03*
X94950000Y-72750000D03*
D20*
X74500000Y-106750000D03*
X74500000Y-107250000D03*
X74500000Y-107750000D03*
X74500000Y-108250000D03*
X74500000Y-108750000D03*
X74500000Y-109250000D03*
X74500000Y-109750000D03*
X74500000Y-110250000D03*
D21*
X73000000Y-111750000D03*
X72500000Y-111750000D03*
X72000000Y-111750000D03*
X71500000Y-111750000D03*
X71000000Y-111750000D03*
X70500000Y-111750000D03*
X70000000Y-111750000D03*
X69500000Y-111750000D03*
D20*
X68000000Y-110250000D03*
X68000000Y-109750000D03*
X68000000Y-109250000D03*
X68000000Y-108750000D03*
X68000000Y-108250000D03*
X68000000Y-107750000D03*
X68000000Y-107250000D03*
X68000000Y-106750000D03*
D21*
X69500000Y-105250000D03*
X70000000Y-105250000D03*
X70500000Y-105250000D03*
X71000000Y-105250000D03*
X71500000Y-105250000D03*
X72000000Y-105250000D03*
X72500000Y-105250000D03*
X73000000Y-105250000D03*
D22*
X132405000Y-102700000D03*
X131135000Y-102700000D03*
X129865000Y-102700000D03*
X128595000Y-102700000D03*
X128595000Y-97300000D03*
X129865000Y-97300000D03*
X131135000Y-97300000D03*
X132405000Y-97300000D03*
D23*
X86000000Y-115550000D03*
X86000000Y-117450000D03*
D24*
X117500000Y-62750000D03*
X115500000Y-62750000D03*
X77350000Y-125900000D03*
X79350000Y-125900000D03*
D19*
X93050000Y-62000000D03*
X94950000Y-62000000D03*
D25*
X69250000Y-91250000D03*
X69250000Y-89250000D03*
D24*
X93000000Y-70500000D03*
X95000000Y-70500000D03*
D19*
X93500000Y-84500000D03*
X95400000Y-84500000D03*
X94900000Y-68250000D03*
X93000000Y-68250000D03*
D25*
X140000000Y-85200000D03*
X140000000Y-83200000D03*
D24*
X127000000Y-77250000D03*
X129000000Y-77250000D03*
X127000000Y-87250000D03*
X129000000Y-87250000D03*
D25*
X68250000Y-100750000D03*
X68250000Y-102750000D03*
X76750000Y-106750000D03*
X76750000Y-108750000D03*
X79250000Y-89000000D03*
X79250000Y-91000000D03*
D24*
X111750000Y-62750000D03*
X113750000Y-62750000D03*
D25*
X76750000Y-103000000D03*
X76750000Y-105000000D03*
X76750000Y-110500000D03*
X76750000Y-112500000D03*
D24*
X66900000Y-122300000D03*
X64900000Y-122300000D03*
X74500000Y-114600000D03*
X72500000Y-114600000D03*
X67900000Y-116900000D03*
X69900000Y-116900000D03*
X108500000Y-80250000D03*
X106500000Y-80250000D03*
X105000000Y-74000000D03*
X107000000Y-74000000D03*
X97000000Y-60000000D03*
X99000000Y-60000000D03*
X81350000Y-125900000D03*
X83350000Y-125900000D03*
X83400000Y-74300000D03*
X81400000Y-74300000D03*
D23*
X70500000Y-101050000D03*
X70500000Y-102950000D03*
X72500000Y-101050000D03*
X72500000Y-102950000D03*
X84000000Y-115550000D03*
X84000000Y-117450000D03*
X74500000Y-101050000D03*
X74500000Y-102950000D03*
X70500000Y-99450000D03*
X70500000Y-97550000D03*
X72500000Y-99450000D03*
X72500000Y-97550000D03*
D19*
X125250000Y-68800000D03*
X127150000Y-68800000D03*
D23*
X74500000Y-99450000D03*
X74500000Y-97550000D03*
X66200000Y-99050000D03*
X66200000Y-100950000D03*
D19*
X78550000Y-102750000D03*
X80450000Y-102750000D03*
X80450000Y-104750000D03*
X78550000Y-104750000D03*
X78550000Y-106750000D03*
X80450000Y-106750000D03*
X80450000Y-108750000D03*
X78550000Y-108750000D03*
X78550000Y-110750000D03*
X80450000Y-110750000D03*
X80450000Y-112750000D03*
X78550000Y-112750000D03*
D26*
X77650000Y-131805000D03*
X77650000Y-130535000D03*
X77650000Y-129265000D03*
X77650000Y-127995000D03*
X83050000Y-127995000D03*
X83050000Y-129265000D03*
X83050000Y-130535000D03*
X83050000Y-131805000D03*
X110200000Y-82345000D03*
X110200000Y-83615000D03*
X110200000Y-84885000D03*
X110200000Y-86155000D03*
X104800000Y-86155000D03*
X104800000Y-84885000D03*
X104800000Y-83615000D03*
X104800000Y-82345000D03*
X83100000Y-68395000D03*
X83100000Y-69665000D03*
X83100000Y-70935000D03*
X83100000Y-72205000D03*
X77700000Y-72205000D03*
X77700000Y-70935000D03*
X77700000Y-69665000D03*
X77700000Y-68395000D03*
D19*
X93350000Y-75000000D03*
X95250000Y-75000000D03*
D25*
X126500000Y-103000000D03*
X126500000Y-101000000D03*
X126500000Y-99000000D03*
X126500000Y-97000000D03*
D16*
X120150000Y-66700000D03*
X120150000Y-63700000D03*
D24*
X103500000Y-60000000D03*
X101500000Y-60000000D03*
X79400000Y-74300000D03*
X77400000Y-74300000D03*
D27*
X119550000Y-70400000D03*
X119550000Y-69450000D03*
X119550000Y-68500000D03*
X121750000Y-68500000D03*
X121750000Y-70400000D03*
X121750000Y-69450000D03*
D28*
X111950000Y-72510000D03*
X111950000Y-71240000D03*
X111950000Y-69970000D03*
X111950000Y-68700000D03*
X111950000Y-67430000D03*
X111950000Y-66160000D03*
X111950000Y-64890000D03*
X117350000Y-64890000D03*
X117350000Y-66160000D03*
X117350000Y-67430000D03*
X117350000Y-68700000D03*
X117350000Y-69970000D03*
X117350000Y-71240000D03*
X117350000Y-72510000D03*
D24*
X95000000Y-64000000D03*
X93000000Y-64000000D03*
D19*
X62950000Y-100100000D03*
X61050000Y-100100000D03*
X94950000Y-66000000D03*
X93050000Y-66000000D03*
D29*
X65000000Y-135000000D03*
X135000000Y-135000000D03*
X65000000Y-65000000D03*
X135000000Y-65000000D03*
D30*
X105000000Y-118750000D03*
X103000000Y-118750000D03*
X101000000Y-118750000D03*
X99000000Y-118750000D03*
X97000000Y-118750000D03*
D19*
X95250000Y-79500000D03*
X93350000Y-79500000D03*
X94950000Y-59750000D03*
X93050000Y-59750000D03*
X101300000Y-62250000D03*
X103200000Y-62250000D03*
X101300000Y-64500000D03*
X103200000Y-64500000D03*
D24*
X136500000Y-87500000D03*
X134500000Y-87500000D03*
D25*
X92500000Y-127000000D03*
X92500000Y-125000000D03*
D24*
X68000000Y-74000000D03*
X66000000Y-74000000D03*
D19*
X125250000Y-72500000D03*
X123350000Y-72500000D03*
D17*
X67400000Y-119700000D03*
X64400000Y-119700000D03*
D16*
X82600000Y-133900000D03*
X82600000Y-136900000D03*
D25*
X72600000Y-130150000D03*
X72600000Y-132150000D03*
D16*
X78150000Y-66300000D03*
X78150000Y-63300000D03*
D17*
X134500000Y-97750000D03*
X137500000Y-97750000D03*
X75500000Y-117200000D03*
X72500000Y-117200000D03*
D25*
X88100000Y-128900000D03*
X88100000Y-130900000D03*
X88150000Y-70050000D03*
X88150000Y-68050000D03*
D31*
X130000000Y-125750000D03*
X130000000Y-128750000D03*
X132500000Y-125750000D03*
X132500000Y-128750000D03*
D25*
X72650000Y-71300000D03*
X72650000Y-69300000D03*
D31*
X135000000Y-125750000D03*
X135000000Y-128750000D03*
D24*
X130750000Y-107750000D03*
X132750000Y-107750000D03*
D31*
X137500000Y-125750000D03*
X137500000Y-128750000D03*
X140000000Y-125750000D03*
X140000000Y-128750000D03*
D24*
X129500000Y-92250000D03*
X131500000Y-92250000D03*
D32*
X99250000Y-122500000D03*
X96250000Y-122500000D03*
X99250000Y-125000000D03*
X96250000Y-125000000D03*
X99250000Y-127500000D03*
X96250000Y-127500000D03*
X99250000Y-130000000D03*
X96250000Y-130000000D03*
D31*
X127500000Y-128000000D03*
X127500000Y-131000000D03*
D32*
X99250000Y-132500000D03*
X96250000Y-132500000D03*
X99250000Y-135000000D03*
X96250000Y-135000000D03*
D16*
X77900000Y-115000000D03*
X77900000Y-118000000D03*
X78350000Y-136900000D03*
X78350000Y-133900000D03*
X82400000Y-63300000D03*
X82400000Y-66300000D03*
D17*
X137500000Y-102000000D03*
X134500000Y-102000000D03*
X103500000Y-77000000D03*
X106500000Y-77000000D03*
D16*
X123500000Y-66700000D03*
X123500000Y-63700000D03*
D33*
X72251020Y-83500000D03*
X76248980Y-83500000D03*
D34*
X121000000Y-87248980D03*
X121000000Y-83251020D03*
X134500000Y-80251020D03*
X134500000Y-84248980D03*
X121000000Y-79998980D03*
X121000000Y-76001020D03*
D35*
X75100000Y-125150000D03*
X75100000Y-126650000D03*
D36*
X75850000Y-123400000D03*
X74350000Y-123400000D03*
D35*
X85600000Y-125150000D03*
X85600000Y-126650000D03*
D36*
X84850000Y-123400000D03*
X86350000Y-123400000D03*
D35*
X85650000Y-75050000D03*
X85650000Y-73550000D03*
D36*
X84900000Y-76800000D03*
X86400000Y-76800000D03*
D35*
X75150000Y-75050000D03*
X75150000Y-73550000D03*
D36*
X75900000Y-76800000D03*
X74400000Y-76800000D03*
X125750000Y-105250000D03*
X127250000Y-105250000D03*
D35*
X124000000Y-104500000D03*
X124000000Y-106000000D03*
D36*
X125750000Y-94750000D03*
X127250000Y-94750000D03*
D35*
X124000000Y-95500000D03*
X124000000Y-94000000D03*
D37*
X135000000Y-123200000D03*
X135000000Y-113300000D03*
X121800000Y-115450000D03*
X121800000Y-125350000D03*
D38*
X113150000Y-127800000D03*
X103250000Y-127800000D03*
D39*
X84000000Y-140050000D03*
X76500000Y-140050000D03*
X84000000Y-119850000D03*
X76500000Y-119850000D03*
D40*
X89200000Y-140050000D03*
X71300000Y-140050000D03*
X71300000Y-119850000D03*
X89200000Y-119850000D03*
D41*
X90350000Y-133700000D03*
X90350000Y-126200000D03*
X70150000Y-133700000D03*
X70150000Y-126200000D03*
D42*
X90350000Y-138400000D03*
X70150000Y-138400000D03*
X70150000Y-121500000D03*
X90350000Y-121500000D03*
D39*
X76550000Y-60200000D03*
X84050000Y-60200000D03*
X76550000Y-80400000D03*
X84050000Y-80400000D03*
D40*
X71350000Y-60200000D03*
X89250000Y-60200000D03*
X89250000Y-80400000D03*
X71350000Y-80400000D03*
D41*
X70200000Y-66550000D03*
X70200000Y-74050000D03*
X90400000Y-66550000D03*
X90400000Y-74050000D03*
D42*
X70200000Y-61850000D03*
X90400000Y-61850000D03*
X90400000Y-78750000D03*
X70200000Y-78750000D03*
D41*
X140600000Y-96250000D03*
X140600000Y-103750000D03*
X120400000Y-96250000D03*
X120400000Y-103750000D03*
D43*
X140600000Y-91050000D03*
X140600000Y-108950000D03*
X120400000Y-108950000D03*
X120400000Y-91050000D03*
D39*
X134250000Y-89900000D03*
X126750000Y-89900000D03*
X134250000Y-110100000D03*
X126750000Y-110100000D03*
D44*
X138950000Y-89900000D03*
X138950000Y-110100000D03*
X122050000Y-110100000D03*
X122050000Y-89900000D03*
D45*
X61500000Y-119150000D03*
X61500000Y-122050000D03*
D46*
X111050000Y-77500000D03*
X113950000Y-77500000D03*
D45*
X106800000Y-71700000D03*
X106800000Y-68800000D03*
D23*
X137750000Y-79550000D03*
X137750000Y-81450000D03*
X140000000Y-79550000D03*
X140000000Y-81450000D03*
X137750000Y-83050000D03*
X137750000Y-84950000D03*
D19*
X99200000Y-64500000D03*
X97300000Y-64500000D03*
X97300000Y-62250000D03*
X99200000Y-62250000D03*
D45*
X75100000Y-129700000D03*
X75100000Y-132600000D03*
D19*
X121450000Y-72500000D03*
X119550000Y-72500000D03*
D45*
X85600000Y-128450000D03*
X85600000Y-131350000D03*
X75150000Y-71750000D03*
X75150000Y-68850000D03*
D46*
X110800000Y-60250000D03*
X113700000Y-60250000D03*
X129050000Y-94750000D03*
X131950000Y-94750000D03*
D45*
X85650000Y-70500000D03*
X85650000Y-67600000D03*
D46*
X115550000Y-60250000D03*
X118450000Y-60250000D03*
X122450000Y-129250000D03*
X119550000Y-129250000D03*
X130300000Y-105250000D03*
X133200000Y-105250000D03*
D28*
X97550000Y-74310000D03*
X97550000Y-73040000D03*
X97550000Y-71770000D03*
X97550000Y-70500000D03*
X97550000Y-69230000D03*
X97550000Y-67960000D03*
X97550000Y-66690000D03*
X102950000Y-66690000D03*
X102950000Y-67960000D03*
X102950000Y-69230000D03*
X102950000Y-70500000D03*
X102950000Y-71770000D03*
X102950000Y-73040000D03*
X102950000Y-74310000D03*
D47*
X124600000Y-82250000D03*
D48*
X130900000Y-82250000D03*
X130900000Y-84550000D03*
X130900000Y-79950000D03*
D49*
X74250000Y-86850000D03*
D50*
X74250000Y-93150000D03*
X71950000Y-93150000D03*
X76550000Y-93150000D03*
D51*
X65620000Y-102575000D03*
X61420000Y-102575000D03*
X65620000Y-103845000D03*
X61420000Y-103845000D03*
X65620000Y-105115000D03*
X61420000Y-105115000D03*
X65620000Y-106385000D03*
X61420000Y-106385000D03*
X65620000Y-107655000D03*
X61420000Y-107655000D03*
X65620000Y-108925000D03*
X61420000Y-108925000D03*
X65620000Y-110195000D03*
X61420000Y-110195000D03*
X65620000Y-111465000D03*
X61420000Y-111465000D03*
X65620000Y-112735000D03*
X61420000Y-112735000D03*
X65620000Y-114005000D03*
X61420000Y-114005000D03*
X65620000Y-115275000D03*
X61420000Y-115275000D03*
X65620000Y-116545000D03*
X61420000Y-116545000D03*
X65620000Y-83455000D03*
X61420000Y-83455000D03*
X65620000Y-84725000D03*
X61420000Y-84725000D03*
X65620000Y-85995000D03*
X61420000Y-85995000D03*
X65620000Y-87265000D03*
X61420000Y-87265000D03*
X65620000Y-88535000D03*
X61420000Y-88535000D03*
X65620000Y-89805000D03*
X61420000Y-89805000D03*
X65620000Y-91075000D03*
X61420000Y-91075000D03*
X65620000Y-92345000D03*
X61420000Y-92345000D03*
X65620000Y-93615000D03*
X61420000Y-93615000D03*
X65620000Y-94885000D03*
X61420000Y-94885000D03*
X65620000Y-96155000D03*
X61420000Y-96155000D03*
X65620000Y-97425000D03*
X61420000Y-97425000D03*
D52*
G36*
X118373000Y-113073000D02*
X81727000Y-113073000D01*
X81727000Y-87227000D01*
X118373000Y-87227000D01*
X118373000Y-113073000D01*
X118373000Y-113073000D01*
G37*
X118373000Y-113073000D02*
X81727000Y-113073000D01*
X81727000Y-87227000D01*
X118373000Y-87227000D01*
X118373000Y-113073000D01*
G36*
X86123000Y-121750000D02*
X86133006Y-121799410D01*
X86161447Y-121841035D01*
X86203841Y-121868315D01*
X86250000Y-121877000D01*
X87873000Y-121877000D01*
X87873000Y-127250000D01*
X87883006Y-127299410D01*
X87911447Y-127341035D01*
X87953841Y-127368315D01*
X88000000Y-127377000D01*
X89373000Y-127377000D01*
X89373000Y-128000000D01*
X89383006Y-128049410D01*
X89411447Y-128091035D01*
X89443204Y-128113592D01*
X89873000Y-128328490D01*
X89873000Y-130073000D01*
X89100000Y-130073000D01*
X89050590Y-130083006D01*
X89008965Y-130111447D01*
X88981685Y-130153841D01*
X88973000Y-130200000D01*
X88973000Y-132023000D01*
X84477000Y-132023000D01*
X84477000Y-130300000D01*
X84466994Y-130250590D01*
X84439803Y-130210197D01*
X84039803Y-129810197D01*
X83997789Y-129782334D01*
X83950000Y-129773000D01*
X82250000Y-129773000D01*
X82200590Y-129783006D01*
X82160197Y-129810197D01*
X81947394Y-130023000D01*
X81827000Y-130023000D01*
X81827000Y-127602606D01*
X82439803Y-126989803D01*
X82467666Y-126947789D01*
X82477000Y-126900000D01*
X82477000Y-124650000D01*
X82466994Y-124600590D01*
X82438553Y-124558965D01*
X82396159Y-124531685D01*
X82350000Y-124523000D01*
X78350000Y-124523000D01*
X78300590Y-124533006D01*
X78258965Y-124561447D01*
X78231685Y-124603841D01*
X78223000Y-124650000D01*
X78223000Y-127023000D01*
X76350000Y-127023000D01*
X76300590Y-127033006D01*
X76258965Y-127061447D01*
X76231685Y-127103841D01*
X76223000Y-127150000D01*
X76223000Y-128650000D01*
X76233006Y-128699410D01*
X76261447Y-128741035D01*
X76303841Y-128768315D01*
X76350000Y-128777000D01*
X78923000Y-128777000D01*
X78923000Y-131223000D01*
X78752606Y-131223000D01*
X78589803Y-131060197D01*
X78547789Y-131032334D01*
X78500000Y-131023000D01*
X76850000Y-131023000D01*
X76800590Y-131033006D01*
X76760197Y-131060197D01*
X76510197Y-131310197D01*
X76482334Y-131352211D01*
X76473000Y-131400000D01*
X76473000Y-133273000D01*
X71627000Y-133273000D01*
X71627000Y-131000000D01*
X71616994Y-130950590D01*
X71588553Y-130908965D01*
X71546159Y-130881685D01*
X71500000Y-130873000D01*
X70877000Y-130873000D01*
X70877000Y-129529980D01*
X71328490Y-128627000D01*
X72750000Y-128627000D01*
X72799410Y-128616994D01*
X72841035Y-128588553D01*
X72868315Y-128546159D01*
X72877000Y-128500000D01*
X72877000Y-121877000D01*
X77350000Y-121877000D01*
X77399410Y-121866994D01*
X77441035Y-121838553D01*
X77468315Y-121796159D01*
X77477000Y-121750000D01*
X77477000Y-120877000D01*
X86123000Y-120877000D01*
X86123000Y-121750000D01*
X86123000Y-121750000D01*
G37*
X86123000Y-121750000D02*
X86133006Y-121799410D01*
X86161447Y-121841035D01*
X86203841Y-121868315D01*
X86250000Y-121877000D01*
X87873000Y-121877000D01*
X87873000Y-127250000D01*
X87883006Y-127299410D01*
X87911447Y-127341035D01*
X87953841Y-127368315D01*
X88000000Y-127377000D01*
X89373000Y-127377000D01*
X89373000Y-128000000D01*
X89383006Y-128049410D01*
X89411447Y-128091035D01*
X89443204Y-128113592D01*
X89873000Y-128328490D01*
X89873000Y-130073000D01*
X89100000Y-130073000D01*
X89050590Y-130083006D01*
X89008965Y-130111447D01*
X88981685Y-130153841D01*
X88973000Y-130200000D01*
X88973000Y-132023000D01*
X84477000Y-132023000D01*
X84477000Y-130300000D01*
X84466994Y-130250590D01*
X84439803Y-130210197D01*
X84039803Y-129810197D01*
X83997789Y-129782334D01*
X83950000Y-129773000D01*
X82250000Y-129773000D01*
X82200590Y-129783006D01*
X82160197Y-129810197D01*
X81947394Y-130023000D01*
X81827000Y-130023000D01*
X81827000Y-127602606D01*
X82439803Y-126989803D01*
X82467666Y-126947789D01*
X82477000Y-126900000D01*
X82477000Y-124650000D01*
X82466994Y-124600590D01*
X82438553Y-124558965D01*
X82396159Y-124531685D01*
X82350000Y-124523000D01*
X78350000Y-124523000D01*
X78300590Y-124533006D01*
X78258965Y-124561447D01*
X78231685Y-124603841D01*
X78223000Y-124650000D01*
X78223000Y-127023000D01*
X76350000Y-127023000D01*
X76300590Y-127033006D01*
X76258965Y-127061447D01*
X76231685Y-127103841D01*
X76223000Y-127150000D01*
X76223000Y-128650000D01*
X76233006Y-128699410D01*
X76261447Y-128741035D01*
X76303841Y-128768315D01*
X76350000Y-128777000D01*
X78923000Y-128777000D01*
X78923000Y-131223000D01*
X78752606Y-131223000D01*
X78589803Y-131060197D01*
X78547789Y-131032334D01*
X78500000Y-131023000D01*
X76850000Y-131023000D01*
X76800590Y-131033006D01*
X76760197Y-131060197D01*
X76510197Y-131310197D01*
X76482334Y-131352211D01*
X76473000Y-131400000D01*
X76473000Y-133273000D01*
X71627000Y-133273000D01*
X71627000Y-131000000D01*
X71616994Y-130950590D01*
X71588553Y-130908965D01*
X71546159Y-130881685D01*
X71500000Y-130873000D01*
X70877000Y-130873000D01*
X70877000Y-129529980D01*
X71328490Y-128627000D01*
X72750000Y-128627000D01*
X72799410Y-128616994D01*
X72841035Y-128588553D01*
X72868315Y-128546159D01*
X72877000Y-128500000D01*
X72877000Y-121877000D01*
X77350000Y-121877000D01*
X77399410Y-121866994D01*
X77441035Y-121838553D01*
X77468315Y-121796159D01*
X77477000Y-121750000D01*
X77477000Y-120877000D01*
X86123000Y-120877000D01*
X86123000Y-121750000D01*
G36*
X89873000Y-71873000D02*
X88000000Y-71873000D01*
X87950590Y-71883006D01*
X87908965Y-71911447D01*
X87881685Y-71953841D01*
X87873000Y-72000000D01*
X87873000Y-78123000D01*
X85250000Y-78123000D01*
X85200590Y-78133006D01*
X85158965Y-78161447D01*
X85131685Y-78203841D01*
X85123000Y-78250000D01*
X85123000Y-79373000D01*
X75377000Y-79373000D01*
X75377000Y-78250000D01*
X75366994Y-78200590D01*
X75338553Y-78158965D01*
X75296159Y-78131685D01*
X75250000Y-78123000D01*
X72877000Y-78123000D01*
X72877000Y-73000000D01*
X72866994Y-72950590D01*
X72838553Y-72908965D01*
X72796159Y-72881685D01*
X72750000Y-72873000D01*
X71177000Y-72873000D01*
X71177000Y-68177000D01*
X76273000Y-68177000D01*
X76273000Y-69800000D01*
X76283006Y-69849410D01*
X76310197Y-69889803D01*
X76810197Y-70389803D01*
X76852211Y-70417666D01*
X76900000Y-70427000D01*
X78550000Y-70427000D01*
X78599410Y-70416994D01*
X78639803Y-70389803D01*
X78902606Y-70127000D01*
X78923000Y-70127000D01*
X78923000Y-72347394D01*
X78310197Y-72960197D01*
X78282334Y-73002211D01*
X78273000Y-73050000D01*
X78273000Y-75550000D01*
X78283006Y-75599410D01*
X78311447Y-75641035D01*
X78353841Y-75668315D01*
X78400000Y-75677000D01*
X82400000Y-75677000D01*
X82449410Y-75666994D01*
X82491035Y-75638553D01*
X82518315Y-75596159D01*
X82527000Y-75550000D01*
X82527000Y-73177000D01*
X84400000Y-73177000D01*
X84449410Y-73166994D01*
X84491035Y-73138553D01*
X84518315Y-73096159D01*
X84527000Y-73050000D01*
X84527000Y-71550000D01*
X84516994Y-71500590D01*
X84488553Y-71458965D01*
X84446159Y-71431685D01*
X84400000Y-71423000D01*
X82324459Y-71423000D01*
X81927000Y-71264016D01*
X81927000Y-68977000D01*
X82047394Y-68977000D01*
X82210197Y-69139803D01*
X82252211Y-69167666D01*
X82300000Y-69177000D01*
X83950000Y-69177000D01*
X83999410Y-69166994D01*
X84039803Y-69139803D01*
X84239803Y-68939803D01*
X84267666Y-68897789D01*
X84277000Y-68850000D01*
X84277000Y-66925919D01*
X89873000Y-66878090D01*
X89873000Y-71873000D01*
X89873000Y-71873000D01*
G37*
X89873000Y-71873000D02*
X88000000Y-71873000D01*
X87950590Y-71883006D01*
X87908965Y-71911447D01*
X87881685Y-71953841D01*
X87873000Y-72000000D01*
X87873000Y-78123000D01*
X85250000Y-78123000D01*
X85200590Y-78133006D01*
X85158965Y-78161447D01*
X85131685Y-78203841D01*
X85123000Y-78250000D01*
X85123000Y-79373000D01*
X75377000Y-79373000D01*
X75377000Y-78250000D01*
X75366994Y-78200590D01*
X75338553Y-78158965D01*
X75296159Y-78131685D01*
X75250000Y-78123000D01*
X72877000Y-78123000D01*
X72877000Y-73000000D01*
X72866994Y-72950590D01*
X72838553Y-72908965D01*
X72796159Y-72881685D01*
X72750000Y-72873000D01*
X71177000Y-72873000D01*
X71177000Y-68177000D01*
X76273000Y-68177000D01*
X76273000Y-69800000D01*
X76283006Y-69849410D01*
X76310197Y-69889803D01*
X76810197Y-70389803D01*
X76852211Y-70417666D01*
X76900000Y-70427000D01*
X78550000Y-70427000D01*
X78599410Y-70416994D01*
X78639803Y-70389803D01*
X78902606Y-70127000D01*
X78923000Y-70127000D01*
X78923000Y-72347394D01*
X78310197Y-72960197D01*
X78282334Y-73002211D01*
X78273000Y-73050000D01*
X78273000Y-75550000D01*
X78283006Y-75599410D01*
X78311447Y-75641035D01*
X78353841Y-75668315D01*
X78400000Y-75677000D01*
X82400000Y-75677000D01*
X82449410Y-75666994D01*
X82491035Y-75638553D01*
X82518315Y-75596159D01*
X82527000Y-75550000D01*
X82527000Y-73177000D01*
X84400000Y-73177000D01*
X84449410Y-73166994D01*
X84491035Y-73138553D01*
X84518315Y-73096159D01*
X84527000Y-73050000D01*
X84527000Y-71550000D01*
X84516994Y-71500590D01*
X84488553Y-71458965D01*
X84446159Y-71431685D01*
X84400000Y-71423000D01*
X82324459Y-71423000D01*
X81927000Y-71264016D01*
X81927000Y-68977000D01*
X82047394Y-68977000D01*
X82210197Y-69139803D01*
X82252211Y-69167666D01*
X82300000Y-69177000D01*
X83950000Y-69177000D01*
X83999410Y-69166994D01*
X84039803Y-69139803D01*
X84239803Y-68939803D01*
X84267666Y-68897789D01*
X84277000Y-68850000D01*
X84277000Y-66925919D01*
X89873000Y-66878090D01*
X89873000Y-71873000D01*
G36*
X132623000Y-95869544D02*
X130999730Y-95873000D01*
X130950341Y-95883111D01*
X130910197Y-95910197D01*
X130410197Y-96410197D01*
X130382334Y-96452211D01*
X130373000Y-96500000D01*
X130373000Y-98150000D01*
X130383006Y-98199410D01*
X130410197Y-98239803D01*
X130623000Y-98452606D01*
X130623000Y-98523000D01*
X128227000Y-98523000D01*
X128227000Y-98400000D01*
X128216994Y-98350590D01*
X128179336Y-98300830D01*
X127679336Y-97900830D01*
X127634503Y-97877777D01*
X127600201Y-97873000D01*
X125250201Y-97869274D01*
X125200775Y-97879202D01*
X125159106Y-97907576D01*
X125131759Y-97949927D01*
X125123000Y-97996274D01*
X125123000Y-101996274D01*
X125133006Y-102045684D01*
X125161447Y-102087309D01*
X125203841Y-102114589D01*
X125250000Y-102123274D01*
X127623000Y-102123274D01*
X127623000Y-103996274D01*
X127633006Y-104045684D01*
X127661447Y-104087309D01*
X127703841Y-104114589D01*
X127750000Y-104123274D01*
X129250000Y-104123274D01*
X129299410Y-104113268D01*
X129341035Y-104084827D01*
X129368315Y-104042433D01*
X129377000Y-103996274D01*
X129377000Y-101652606D01*
X129552606Y-101477000D01*
X131773000Y-101477000D01*
X131773000Y-101647394D01*
X131660197Y-101760197D01*
X131632334Y-101802211D01*
X131623000Y-101850000D01*
X131623000Y-103746274D01*
X131633006Y-103795684D01*
X131661447Y-103837309D01*
X131703841Y-103864589D01*
X131750000Y-103873274D01*
X133873000Y-103873274D01*
X133873000Y-109373000D01*
X129127000Y-109373000D01*
X129127000Y-107500000D01*
X129116994Y-107450590D01*
X129088553Y-107408965D01*
X129046159Y-107381685D01*
X129000000Y-107373000D01*
X122627000Y-107373000D01*
X122627000Y-104250000D01*
X122616994Y-104200590D01*
X122588553Y-104158965D01*
X122546159Y-104131685D01*
X122500000Y-104123000D01*
X121377000Y-104123000D01*
X121377000Y-95127000D01*
X122500000Y-95127000D01*
X122549410Y-95116994D01*
X122591035Y-95088553D01*
X122618315Y-95046159D01*
X122627000Y-95000000D01*
X122627000Y-92627000D01*
X127750000Y-92627000D01*
X127799410Y-92616994D01*
X127841035Y-92588553D01*
X127868315Y-92546159D01*
X127877000Y-92500000D01*
X127877000Y-90876905D01*
X132623000Y-90873369D01*
X132623000Y-95869544D01*
X132623000Y-95869544D01*
G37*
X132623000Y-95869544D02*
X130999730Y-95873000D01*
X130950341Y-95883111D01*
X130910197Y-95910197D01*
X130410197Y-96410197D01*
X130382334Y-96452211D01*
X130373000Y-96500000D01*
X130373000Y-98150000D01*
X130383006Y-98199410D01*
X130410197Y-98239803D01*
X130623000Y-98452606D01*
X130623000Y-98523000D01*
X128227000Y-98523000D01*
X128227000Y-98400000D01*
X128216994Y-98350590D01*
X128179336Y-98300830D01*
X127679336Y-97900830D01*
X127634503Y-97877777D01*
X127600201Y-97873000D01*
X125250201Y-97869274D01*
X125200775Y-97879202D01*
X125159106Y-97907576D01*
X125131759Y-97949927D01*
X125123000Y-97996274D01*
X125123000Y-101996274D01*
X125133006Y-102045684D01*
X125161447Y-102087309D01*
X125203841Y-102114589D01*
X125250000Y-102123274D01*
X127623000Y-102123274D01*
X127623000Y-103996274D01*
X127633006Y-104045684D01*
X127661447Y-104087309D01*
X127703841Y-104114589D01*
X127750000Y-104123274D01*
X129250000Y-104123274D01*
X129299410Y-104113268D01*
X129341035Y-104084827D01*
X129368315Y-104042433D01*
X129377000Y-103996274D01*
X129377000Y-101652606D01*
X129552606Y-101477000D01*
X131773000Y-101477000D01*
X131773000Y-101647394D01*
X131660197Y-101760197D01*
X131632334Y-101802211D01*
X131623000Y-101850000D01*
X131623000Y-103746274D01*
X131633006Y-103795684D01*
X131661447Y-103837309D01*
X131703841Y-103864589D01*
X131750000Y-103873274D01*
X133873000Y-103873274D01*
X133873000Y-109373000D01*
X129127000Y-109373000D01*
X129127000Y-107500000D01*
X129116994Y-107450590D01*
X129088553Y-107408965D01*
X129046159Y-107381685D01*
X129000000Y-107373000D01*
X122627000Y-107373000D01*
X122627000Y-104250000D01*
X122616994Y-104200590D01*
X122588553Y-104158965D01*
X122546159Y-104131685D01*
X122500000Y-104123000D01*
X121377000Y-104123000D01*
X121377000Y-95127000D01*
X122500000Y-95127000D01*
X122549410Y-95116994D01*
X122591035Y-95088553D01*
X122618315Y-95046159D01*
X122627000Y-95000000D01*
X122627000Y-92627000D01*
X127750000Y-92627000D01*
X127799410Y-92616994D01*
X127841035Y-92588553D01*
X127868315Y-92546159D01*
X127877000Y-92500000D01*
X127877000Y-90876905D01*
X132623000Y-90873369D01*
X132623000Y-95869544D01*
M02*
