G04 #@! TF.FileFunction,Copper,L1,Top,Signal*
%FSLAX46Y46*%
G04 Gerber Fmt 4.6, Leading zero omitted, Abs format (unit mm)*
G04 Created by KiCad (PCBNEW 4.0.2-stable) date Wed 20 Jul 2016 06:47:56 PM CEST*
%MOMM*%
G01*
G04 APERTURE LIST*
%ADD10C,0.100000*%
%ADD11C,0.300000*%
%ADD12C,1.500000*%
%ADD13C,0.254000*%
G04 APERTURE END LIST*
D10*
D11*
X76642857Y-60821429D02*
X75785714Y-60821429D01*
X76214285Y-59321429D02*
X76214285Y-60821429D01*
X75000000Y-60821429D02*
X74714286Y-60821429D01*
X74571428Y-60750000D01*
X74428571Y-60607143D01*
X74357143Y-60321429D01*
X74357143Y-59821429D01*
X74428571Y-59535714D01*
X74571428Y-59392857D01*
X74714286Y-59321429D01*
X75000000Y-59321429D01*
X75142857Y-59392857D01*
X75285714Y-59535714D01*
X75357143Y-59821429D01*
X75357143Y-60321429D01*
X75285714Y-60607143D01*
X75142857Y-60750000D01*
X75000000Y-60821429D01*
X73714285Y-59321429D02*
X73714285Y-60821429D01*
X73142857Y-60821429D01*
X72999999Y-60750000D01*
X72928571Y-60678571D01*
X72857142Y-60535714D01*
X72857142Y-60321429D01*
X72928571Y-60178571D01*
X72999999Y-60107143D01*
X73142857Y-60035714D01*
X73714285Y-60035714D01*
X70285714Y-59321429D02*
X71142857Y-59321429D01*
X70714285Y-59321429D02*
X70714285Y-60821429D01*
X70857142Y-60607143D01*
X71000000Y-60464286D01*
X71142857Y-60392857D01*
X123357143Y-139178571D02*
X124214286Y-139178571D01*
X123785715Y-140678571D02*
X123785715Y-139178571D01*
X125000000Y-139178571D02*
X125285714Y-139178571D01*
X125428572Y-139250000D01*
X125571429Y-139392857D01*
X125642857Y-139678571D01*
X125642857Y-140178571D01*
X125571429Y-140464286D01*
X125428572Y-140607143D01*
X125285714Y-140678571D01*
X125000000Y-140678571D01*
X124857143Y-140607143D01*
X124714286Y-140464286D01*
X124642857Y-140178571D01*
X124642857Y-139678571D01*
X124714286Y-139392857D01*
X124857143Y-139250000D01*
X125000000Y-139178571D01*
X126285715Y-140678571D02*
X126285715Y-139178571D01*
X126857143Y-139178571D01*
X127000001Y-139250000D01*
X127071429Y-139321429D01*
X127142858Y-139464286D01*
X127142858Y-139678571D01*
X127071429Y-139821429D01*
X127000001Y-139892857D01*
X126857143Y-139964286D01*
X126285715Y-139964286D01*
X129714286Y-140678571D02*
X128857143Y-140678571D01*
X129285715Y-140678571D02*
X129285715Y-139178571D01*
X129142858Y-139392857D01*
X129000000Y-139535714D01*
X128857143Y-139607143D01*
D12*
X92258330Y-119562178D03*
X87062178Y-116562178D03*
X86857695Y-83370835D03*
X92053848Y-80370835D03*
X121000000Y-97000000D03*
X121000000Y-103000000D03*
D13*
G36*
X139812570Y-102124450D02*
X139635604Y-104344027D01*
X139309119Y-106681679D01*
X138844889Y-108995905D01*
X138244539Y-111278606D01*
X137510165Y-113521804D01*
X136644356Y-115717597D01*
X135650133Y-117858323D01*
X134530983Y-119936470D01*
X133290823Y-121944767D01*
X131934024Y-123876135D01*
X130465306Y-125723857D01*
X128889831Y-127481438D01*
X127213134Y-129142701D01*
X125441059Y-130701859D01*
X123579826Y-132153436D01*
X121746113Y-133416473D01*
X111336037Y-115402480D01*
X112036446Y-114864874D01*
X112041610Y-114860690D01*
X112797638Y-114214814D01*
X112802577Y-114210366D01*
X113523780Y-113525822D01*
X113528479Y-113521122D01*
X114212881Y-112799785D01*
X114217328Y-112794845D01*
X114863055Y-112038690D01*
X114867238Y-112033525D01*
X115472522Y-111244624D01*
X115476428Y-111239246D01*
X116039610Y-110419759D01*
X116043230Y-110414185D01*
X116562769Y-109566356D01*
X116566092Y-109560600D01*
X117040563Y-108686752D01*
X117043581Y-108680830D01*
X117471687Y-107783356D01*
X117474390Y-107777285D01*
X117854957Y-106858644D01*
X117857340Y-106852439D01*
X118189325Y-105915145D01*
X118191379Y-105908824D01*
X118473875Y-104955446D01*
X118475596Y-104949026D01*
X118707827Y-103982174D01*
X118709209Y-103975673D01*
X118890540Y-102997996D01*
X118891581Y-102991431D01*
X119006957Y-102116056D01*
X139812570Y-102124450D01*
X139812570Y-102124450D01*
G37*
X139812570Y-102124450D02*
X139635604Y-104344027D01*
X139309119Y-106681679D01*
X138844889Y-108995905D01*
X138244539Y-111278606D01*
X137510165Y-113521804D01*
X136644356Y-115717597D01*
X135650133Y-117858323D01*
X134530983Y-119936470D01*
X133290823Y-121944767D01*
X131934024Y-123876135D01*
X130465306Y-125723857D01*
X128889831Y-127481438D01*
X127213134Y-129142701D01*
X125441059Y-130701859D01*
X123579826Y-132153436D01*
X121746113Y-133416473D01*
X111336037Y-115402480D01*
X112036446Y-114864874D01*
X112041610Y-114860690D01*
X112797638Y-114214814D01*
X112802577Y-114210366D01*
X113523780Y-113525822D01*
X113528479Y-113521122D01*
X114212881Y-112799785D01*
X114217328Y-112794845D01*
X114863055Y-112038690D01*
X114867238Y-112033525D01*
X115472522Y-111244624D01*
X115476428Y-111239246D01*
X116039610Y-110419759D01*
X116043230Y-110414185D01*
X116562769Y-109566356D01*
X116566092Y-109560600D01*
X117040563Y-108686752D01*
X117043581Y-108680830D01*
X117471687Y-107783356D01*
X117474390Y-107777285D01*
X117854957Y-106858644D01*
X117857340Y-106852439D01*
X118189325Y-105915145D01*
X118191379Y-105908824D01*
X118473875Y-104955446D01*
X118475596Y-104949026D01*
X118707827Y-103982174D01*
X118709209Y-103975673D01*
X118890540Y-102997996D01*
X118891581Y-102991431D01*
X119006957Y-102116056D01*
X139812570Y-102124450D01*
G36*
X81108419Y-102991431D02*
X81109460Y-102997996D01*
X81290791Y-103975673D01*
X81292173Y-103982174D01*
X81524404Y-104949026D01*
X81526125Y-104955446D01*
X81808621Y-105908824D01*
X81810675Y-105915145D01*
X82142660Y-106852439D01*
X82145043Y-106858644D01*
X82525610Y-107777285D01*
X82528313Y-107783356D01*
X82956419Y-108680830D01*
X82959437Y-108686752D01*
X83433908Y-109560600D01*
X83437231Y-109566356D01*
X83956770Y-110414185D01*
X83960390Y-110419759D01*
X84523572Y-111239246D01*
X84527478Y-111244624D01*
X85132762Y-112033525D01*
X85136945Y-112038690D01*
X85782672Y-112794845D01*
X85787119Y-112799785D01*
X86471521Y-113521122D01*
X86476220Y-113525822D01*
X87197423Y-114210366D01*
X87202362Y-114214814D01*
X87958390Y-114860690D01*
X87963554Y-114864874D01*
X88663963Y-115402480D01*
X78253887Y-133416473D01*
X76420174Y-132153436D01*
X74558941Y-130701859D01*
X72786866Y-129142701D01*
X71110169Y-127481438D01*
X69534694Y-125723857D01*
X68065976Y-123876135D01*
X66709177Y-121944767D01*
X65469017Y-119936470D01*
X64349867Y-117858323D01*
X63355644Y-115717597D01*
X62489835Y-113521804D01*
X61755461Y-111278606D01*
X61155111Y-108995905D01*
X60690881Y-106681679D01*
X60364396Y-104344027D01*
X60187430Y-102124450D01*
X80993043Y-102116056D01*
X81108419Y-102991431D01*
X81108419Y-102991431D01*
G37*
X81108419Y-102991431D02*
X81109460Y-102997996D01*
X81290791Y-103975673D01*
X81292173Y-103982174D01*
X81524404Y-104949026D01*
X81526125Y-104955446D01*
X81808621Y-105908824D01*
X81810675Y-105915145D01*
X82142660Y-106852439D01*
X82145043Y-106858644D01*
X82525610Y-107777285D01*
X82528313Y-107783356D01*
X82956419Y-108680830D01*
X82959437Y-108686752D01*
X83433908Y-109560600D01*
X83437231Y-109566356D01*
X83956770Y-110414185D01*
X83960390Y-110419759D01*
X84523572Y-111239246D01*
X84527478Y-111244624D01*
X85132762Y-112033525D01*
X85136945Y-112038690D01*
X85782672Y-112794845D01*
X85787119Y-112799785D01*
X86471521Y-113521122D01*
X86476220Y-113525822D01*
X87197423Y-114210366D01*
X87202362Y-114214814D01*
X87958390Y-114860690D01*
X87963554Y-114864874D01*
X88663963Y-115402480D01*
X78253887Y-133416473D01*
X76420174Y-132153436D01*
X74558941Y-130701859D01*
X72786866Y-129142701D01*
X71110169Y-127481438D01*
X69534694Y-125723857D01*
X68065976Y-123876135D01*
X66709177Y-121944767D01*
X65469017Y-119936470D01*
X64349867Y-117858323D01*
X63355644Y-115717597D01*
X62489835Y-113521804D01*
X61755461Y-111278606D01*
X61155111Y-108995905D01*
X60690881Y-106681679D01*
X60364396Y-104344027D01*
X60187430Y-102124450D01*
X80993043Y-102116056D01*
X81108419Y-102991431D01*
G36*
X88663963Y-84597520D02*
X87963554Y-85135126D01*
X87958390Y-85139310D01*
X87202362Y-85785186D01*
X87197423Y-85789634D01*
X86476220Y-86474178D01*
X86471521Y-86478878D01*
X85787119Y-87200215D01*
X85782672Y-87205155D01*
X85136945Y-87961310D01*
X85132762Y-87966475D01*
X84527478Y-88755376D01*
X84523572Y-88760754D01*
X83960390Y-89580241D01*
X83956770Y-89585815D01*
X83437231Y-90433644D01*
X83433908Y-90439400D01*
X82959437Y-91313248D01*
X82956419Y-91319170D01*
X82528313Y-92216644D01*
X82525610Y-92222715D01*
X82145043Y-93141356D01*
X82142660Y-93147561D01*
X81810675Y-94084855D01*
X81808621Y-94091176D01*
X81526125Y-95044554D01*
X81524404Y-95050974D01*
X81292173Y-96017826D01*
X81290791Y-96024327D01*
X81109460Y-97002004D01*
X81108419Y-97008569D01*
X80993043Y-97883944D01*
X60187430Y-97875550D01*
X60364396Y-95655973D01*
X60690881Y-93318321D01*
X61155111Y-91004095D01*
X61755461Y-88721394D01*
X62489835Y-86478196D01*
X63355644Y-84282403D01*
X64349867Y-82141677D01*
X65469017Y-80063530D01*
X66709177Y-78055233D01*
X68065976Y-76123865D01*
X69534694Y-74276143D01*
X71110169Y-72518562D01*
X72786866Y-70857299D01*
X74558941Y-69298141D01*
X76420174Y-67846564D01*
X78253887Y-66583527D01*
X88663963Y-84597520D01*
X88663963Y-84597520D01*
G37*
X88663963Y-84597520D02*
X87963554Y-85135126D01*
X87958390Y-85139310D01*
X87202362Y-85785186D01*
X87197423Y-85789634D01*
X86476220Y-86474178D01*
X86471521Y-86478878D01*
X85787119Y-87200215D01*
X85782672Y-87205155D01*
X85136945Y-87961310D01*
X85132762Y-87966475D01*
X84527478Y-88755376D01*
X84523572Y-88760754D01*
X83960390Y-89580241D01*
X83956770Y-89585815D01*
X83437231Y-90433644D01*
X83433908Y-90439400D01*
X82959437Y-91313248D01*
X82956419Y-91319170D01*
X82528313Y-92216644D01*
X82525610Y-92222715D01*
X82145043Y-93141356D01*
X82142660Y-93147561D01*
X81810675Y-94084855D01*
X81808621Y-94091176D01*
X81526125Y-95044554D01*
X81524404Y-95050974D01*
X81292173Y-96017826D01*
X81290791Y-96024327D01*
X81109460Y-97002004D01*
X81108419Y-97008569D01*
X80993043Y-97883944D01*
X60187430Y-97875550D01*
X60364396Y-95655973D01*
X60690881Y-93318321D01*
X61155111Y-91004095D01*
X61755461Y-88721394D01*
X62489835Y-86478196D01*
X63355644Y-84282403D01*
X64349867Y-82141677D01*
X65469017Y-80063530D01*
X66709177Y-78055233D01*
X68065976Y-76123865D01*
X69534694Y-74276143D01*
X71110169Y-72518562D01*
X72786866Y-70857299D01*
X74558941Y-69298141D01*
X76420174Y-67846564D01*
X78253887Y-66583527D01*
X88663963Y-84597520D01*
G36*
X102359287Y-60196916D02*
X104710349Y-60406260D01*
X107044856Y-60754342D01*
X109354704Y-61239954D01*
X111631759Y-61861386D01*
X113868067Y-62616468D01*
X116055756Y-63502542D01*
X118066457Y-64459079D01*
X107670920Y-82481465D01*
X106855134Y-82143696D01*
X106848929Y-82141315D01*
X105911571Y-81809513D01*
X105905250Y-81807460D01*
X104951816Y-81525152D01*
X104945396Y-81523432D01*
X103978499Y-81291391D01*
X103971997Y-81290010D01*
X102994284Y-81108871D01*
X102987720Y-81107832D01*
X102001869Y-80978092D01*
X101995259Y-80977397D01*
X101003971Y-80899410D01*
X100997333Y-80899062D01*
X100003323Y-80873043D01*
X99996677Y-80873043D01*
X99002667Y-80899062D01*
X98996029Y-80899410D01*
X98004741Y-80977397D01*
X97998131Y-80978092D01*
X97012280Y-81107832D01*
X97005716Y-81108871D01*
X96028003Y-81290010D01*
X96021501Y-81291391D01*
X95054604Y-81523432D01*
X95048184Y-81525152D01*
X94094750Y-81807460D01*
X94088429Y-81809513D01*
X93151071Y-82141315D01*
X93144866Y-82143696D01*
X92329080Y-82481465D01*
X81933543Y-64459079D01*
X83944244Y-63502542D01*
X86131933Y-62616468D01*
X88368241Y-61861386D01*
X90645296Y-61239954D01*
X92955144Y-60754342D01*
X95289651Y-60406260D01*
X97640713Y-60196916D01*
X100000000Y-60127055D01*
X102359287Y-60196916D01*
X102359287Y-60196916D01*
G37*
X102359287Y-60196916D02*
X104710349Y-60406260D01*
X107044856Y-60754342D01*
X109354704Y-61239954D01*
X111631759Y-61861386D01*
X113868067Y-62616468D01*
X116055756Y-63502542D01*
X118066457Y-64459079D01*
X107670920Y-82481465D01*
X106855134Y-82143696D01*
X106848929Y-82141315D01*
X105911571Y-81809513D01*
X105905250Y-81807460D01*
X104951816Y-81525152D01*
X104945396Y-81523432D01*
X103978499Y-81291391D01*
X103971997Y-81290010D01*
X102994284Y-81108871D01*
X102987720Y-81107832D01*
X102001869Y-80978092D01*
X101995259Y-80977397D01*
X101003971Y-80899410D01*
X100997333Y-80899062D01*
X100003323Y-80873043D01*
X99996677Y-80873043D01*
X99002667Y-80899062D01*
X98996029Y-80899410D01*
X98004741Y-80977397D01*
X97998131Y-80978092D01*
X97012280Y-81107832D01*
X97005716Y-81108871D01*
X96028003Y-81290010D01*
X96021501Y-81291391D01*
X95054604Y-81523432D01*
X95048184Y-81525152D01*
X94094750Y-81807460D01*
X94088429Y-81809513D01*
X93151071Y-82141315D01*
X93144866Y-82143696D01*
X92329080Y-82481465D01*
X81933543Y-64459079D01*
X83944244Y-63502542D01*
X86131933Y-62616468D01*
X88368241Y-61861386D01*
X90645296Y-61239954D01*
X92955144Y-60754342D01*
X95289651Y-60406260D01*
X97640713Y-60196916D01*
X100000000Y-60127055D01*
X102359287Y-60196916D01*
G36*
X123579826Y-67846564D02*
X125441059Y-69298141D01*
X127213134Y-70857299D01*
X128889831Y-72518562D01*
X130465306Y-74276143D01*
X131934024Y-76123865D01*
X133290823Y-78055233D01*
X134530983Y-80063530D01*
X135650133Y-82141677D01*
X136644356Y-84282403D01*
X137510165Y-86478196D01*
X138244539Y-88721394D01*
X138844889Y-91004095D01*
X139309119Y-93318321D01*
X139635604Y-95655973D01*
X139812570Y-97875550D01*
X119006957Y-97883944D01*
X118891581Y-97008569D01*
X118890540Y-97002004D01*
X118709209Y-96024327D01*
X118707827Y-96017826D01*
X118475596Y-95050974D01*
X118473875Y-95044554D01*
X118191379Y-94091176D01*
X118189325Y-94084855D01*
X117857340Y-93147561D01*
X117854957Y-93141356D01*
X117474390Y-92222715D01*
X117471687Y-92216644D01*
X117043581Y-91319170D01*
X117040563Y-91313248D01*
X116566092Y-90439400D01*
X116562769Y-90433644D01*
X116043230Y-89585815D01*
X116039610Y-89580241D01*
X115476428Y-88760754D01*
X115472522Y-88755376D01*
X114867238Y-87966475D01*
X114863055Y-87961310D01*
X114217328Y-87205155D01*
X114212881Y-87200215D01*
X113528479Y-86478878D01*
X113523780Y-86474178D01*
X112802577Y-85789634D01*
X112797638Y-85785186D01*
X112041610Y-85139310D01*
X112036446Y-85135126D01*
X111336037Y-84597520D01*
X121746113Y-66583527D01*
X123579826Y-67846564D01*
X123579826Y-67846564D01*
G37*
X123579826Y-67846564D02*
X125441059Y-69298141D01*
X127213134Y-70857299D01*
X128889831Y-72518562D01*
X130465306Y-74276143D01*
X131934024Y-76123865D01*
X133290823Y-78055233D01*
X134530983Y-80063530D01*
X135650133Y-82141677D01*
X136644356Y-84282403D01*
X137510165Y-86478196D01*
X138244539Y-88721394D01*
X138844889Y-91004095D01*
X139309119Y-93318321D01*
X139635604Y-95655973D01*
X139812570Y-97875550D01*
X119006957Y-97883944D01*
X118891581Y-97008569D01*
X118890540Y-97002004D01*
X118709209Y-96024327D01*
X118707827Y-96017826D01*
X118475596Y-95050974D01*
X118473875Y-95044554D01*
X118191379Y-94091176D01*
X118189325Y-94084855D01*
X117857340Y-93147561D01*
X117854957Y-93141356D01*
X117474390Y-92222715D01*
X117471687Y-92216644D01*
X117043581Y-91319170D01*
X117040563Y-91313248D01*
X116566092Y-90439400D01*
X116562769Y-90433644D01*
X116043230Y-89585815D01*
X116039610Y-89580241D01*
X115476428Y-88760754D01*
X115472522Y-88755376D01*
X114867238Y-87966475D01*
X114863055Y-87961310D01*
X114217328Y-87205155D01*
X114212881Y-87200215D01*
X113528479Y-86478878D01*
X113523780Y-86474178D01*
X112802577Y-85789634D01*
X112797638Y-85785186D01*
X112041610Y-85139310D01*
X112036446Y-85135126D01*
X111336037Y-84597520D01*
X121746113Y-66583527D01*
X123579826Y-67846564D01*
G36*
X118066457Y-135540921D02*
X116055756Y-136497458D01*
X113868067Y-137383532D01*
X111631759Y-138138614D01*
X109354704Y-138760046D01*
X107044856Y-139245658D01*
X104710349Y-139593740D01*
X102359287Y-139803084D01*
X100000000Y-139872945D01*
X97640713Y-139803084D01*
X95289651Y-139593740D01*
X92955144Y-139245658D01*
X90645296Y-138760046D01*
X88368241Y-138138614D01*
X86131933Y-137383532D01*
X83944244Y-136497458D01*
X81933543Y-135540921D01*
X92329080Y-117518535D01*
X93144866Y-117856304D01*
X93151071Y-117858685D01*
X94088429Y-118190487D01*
X94094750Y-118192540D01*
X95048184Y-118474848D01*
X95054604Y-118476568D01*
X96021501Y-118708609D01*
X96028003Y-118709990D01*
X97005716Y-118891129D01*
X97012280Y-118892168D01*
X97998131Y-119021908D01*
X98004741Y-119022603D01*
X98996029Y-119100590D01*
X99002667Y-119100938D01*
X99996677Y-119126957D01*
X100003323Y-119126957D01*
X100997333Y-119100938D01*
X101003971Y-119100590D01*
X101995259Y-119022603D01*
X102001869Y-119021908D01*
X102987720Y-118892168D01*
X102994284Y-118891129D01*
X103971997Y-118709990D01*
X103978499Y-118708609D01*
X104945396Y-118476568D01*
X104951816Y-118474848D01*
X105905250Y-118192540D01*
X105911571Y-118190487D01*
X106848929Y-117858685D01*
X106855134Y-117856304D01*
X107670920Y-117518535D01*
X118066457Y-135540921D01*
X118066457Y-135540921D01*
G37*
X118066457Y-135540921D02*
X116055756Y-136497458D01*
X113868067Y-137383532D01*
X111631759Y-138138614D01*
X109354704Y-138760046D01*
X107044856Y-139245658D01*
X104710349Y-139593740D01*
X102359287Y-139803084D01*
X100000000Y-139872945D01*
X97640713Y-139803084D01*
X95289651Y-139593740D01*
X92955144Y-139245658D01*
X90645296Y-138760046D01*
X88368241Y-138138614D01*
X86131933Y-137383532D01*
X83944244Y-136497458D01*
X81933543Y-135540921D01*
X92329080Y-117518535D01*
X93144866Y-117856304D01*
X93151071Y-117858685D01*
X94088429Y-118190487D01*
X94094750Y-118192540D01*
X95048184Y-118474848D01*
X95054604Y-118476568D01*
X96021501Y-118708609D01*
X96028003Y-118709990D01*
X97005716Y-118891129D01*
X97012280Y-118892168D01*
X97998131Y-119021908D01*
X98004741Y-119022603D01*
X98996029Y-119100590D01*
X99002667Y-119100938D01*
X99996677Y-119126957D01*
X100003323Y-119126957D01*
X100997333Y-119100938D01*
X101003971Y-119100590D01*
X101995259Y-119022603D01*
X102001869Y-119021908D01*
X102987720Y-118892168D01*
X102994284Y-118891129D01*
X103971997Y-118709990D01*
X103978499Y-118708609D01*
X104945396Y-118476568D01*
X104951816Y-118474848D01*
X105905250Y-118192540D01*
X105911571Y-118190487D01*
X106848929Y-117858685D01*
X106855134Y-117856304D01*
X107670920Y-117518535D01*
X118066457Y-135540921D01*
M02*
