G04 #@! TF.FileFunction,Copper,L3,Inr,Signal*
%FSLAX46Y46*%
G04 Gerber Fmt 4.6, Leading zero omitted, Abs format (unit mm)*
G04 Created by KiCad (PCBNEW 4.0.2-stable) date Wed 20 Jul 2016 06:47:56 PM CEST*
%MOMM*%
G01*
G04 APERTURE LIST*
%ADD10C,0.100000*%
%ADD11C,0.300000*%
%ADD12C,1.500000*%
%ADD13C,0.500000*%
%ADD14C,0.254000*%
G04 APERTURE END LIST*
D10*
D11*
X66999999Y-60821429D02*
X66071428Y-60821429D01*
X66571428Y-60250000D01*
X66357142Y-60250000D01*
X66214285Y-60178571D01*
X66142856Y-60107143D01*
X66071428Y-59964286D01*
X66071428Y-59607143D01*
X66142856Y-59464286D01*
X66214285Y-59392857D01*
X66357142Y-59321429D01*
X66785714Y-59321429D01*
X66928571Y-59392857D01*
X66999999Y-59464286D01*
X133000001Y-139178571D02*
X133928572Y-139178571D01*
X133428572Y-139750000D01*
X133642858Y-139750000D01*
X133785715Y-139821429D01*
X133857144Y-139892857D01*
X133928572Y-140035714D01*
X133928572Y-140392857D01*
X133857144Y-140535714D01*
X133785715Y-140607143D01*
X133642858Y-140678571D01*
X133214286Y-140678571D01*
X133071429Y-140607143D01*
X133000001Y-140535714D01*
D12*
X83400000Y-80800000D03*
X90285898Y-73308657D03*
X124600000Y-94900000D03*
X129400000Y-105000000D03*
X78100000Y-123000000D03*
X96600000Y-120200000D03*
X92300000Y-131500000D03*
X120000000Y-137500000D03*
X131000000Y-106000002D03*
X96000000Y-129500000D03*
X89500000Y-132500000D03*
X80000000Y-123000000D03*
X95500000Y-122000000D03*
X82000000Y-82000000D03*
X90000000Y-71000000D03*
X124500000Y-93000000D03*
X128000000Y-107000000D03*
X82500000Y-115500000D03*
X124000000Y-109000000D03*
X75500000Y-95500000D03*
X93500000Y-73500000D03*
X130500000Y-102000000D03*
X86500000Y-73000000D03*
X83000000Y-125500000D03*
X98500000Y-122999996D03*
X127500000Y-92500000D03*
X80500000Y-84000000D03*
X75000000Y-91000000D03*
X68500000Y-94100000D03*
X72000000Y-109500000D03*
X86500000Y-131500000D03*
X98500000Y-129500000D03*
X101000000Y-134500000D03*
X87000000Y-69500000D03*
X79000000Y-114000000D03*
X88500000Y-127500000D03*
X108000000Y-125500000D03*
X130500000Y-95500000D03*
X132000000Y-98500000D03*
X77500000Y-117500000D03*
X86500000Y-127000000D03*
X109500000Y-127500000D03*
X84500000Y-128000000D03*
X116500000Y-133665000D03*
X92258330Y-119562178D03*
X87062178Y-116562178D03*
X86857695Y-83370835D03*
X92053848Y-80370835D03*
X121000000Y-97000000D03*
X121000000Y-103000000D03*
X96000000Y-133000000D03*
X70000000Y-107000000D03*
D13*
X82000000Y-82000000D02*
X82200000Y-82000000D01*
X82200000Y-82000000D02*
X83400000Y-80800000D01*
X90000000Y-71000000D02*
X90000000Y-73022759D01*
X90000000Y-73022759D02*
X90285898Y-73308657D01*
X124500000Y-93000000D02*
X124500000Y-94800000D01*
X124500000Y-94800000D02*
X124600000Y-94900000D01*
X128000000Y-107000000D02*
X128000000Y-106400000D01*
X128000000Y-106400000D02*
X129400000Y-105000000D01*
X80000000Y-123000000D02*
X78100000Y-123000000D01*
X95500000Y-122000000D02*
X95500000Y-121300000D01*
X95500000Y-121300000D02*
X96600000Y-120200000D01*
X92300000Y-131500000D02*
X94300000Y-129500000D01*
X91300000Y-132500000D02*
X92300000Y-131500000D01*
X89500000Y-132500000D02*
X91300000Y-132500000D01*
X94300000Y-129500000D02*
X96000000Y-129500000D01*
X130250001Y-106749999D02*
X131000000Y-106000000D01*
X130000000Y-107000000D02*
X130250001Y-106749999D01*
X128000000Y-107000000D02*
X130000000Y-107000000D01*
X124000000Y-109000000D02*
X111500000Y-121500000D01*
X83000000Y-117000000D02*
X82939340Y-117000000D01*
X111500000Y-121500000D02*
X98000000Y-121500000D01*
X82500000Y-116560660D02*
X82500000Y-115500000D01*
X98000000Y-121500000D02*
X96000000Y-123500000D01*
X96000000Y-123500000D02*
X89500000Y-123500000D01*
X89500000Y-123500000D02*
X83000000Y-117000000D01*
X82939340Y-117000000D02*
X82500000Y-116560660D01*
X83700001Y-87299999D02*
X75500000Y-95500000D01*
X93500000Y-73500000D02*
X83700001Y-83299999D01*
X83700001Y-83299999D02*
X83700001Y-87299999D01*
X98500000Y-122999996D02*
X112500004Y-122999996D01*
X112500004Y-122999996D02*
X125500000Y-110000000D01*
X125500000Y-110000000D02*
X125500000Y-99000000D01*
X125500000Y-99000000D02*
X127500000Y-97000000D01*
X127500000Y-97000000D02*
X127500000Y-92500000D01*
X86500000Y-73000000D02*
X86500000Y-75000000D01*
X86500000Y-75000000D02*
X80500000Y-81000000D01*
X80500000Y-81000000D02*
X80500000Y-84000000D01*
X72000000Y-109500000D02*
X74500000Y-107000000D01*
X74500000Y-107000000D02*
X74500000Y-100100000D01*
X74500000Y-100100000D02*
X68500000Y-94100000D01*
X132000000Y-94500000D02*
X130000000Y-92500000D01*
X130000000Y-92500000D02*
X127500000Y-92500000D01*
X132000000Y-96500000D02*
X132000000Y-94500000D01*
X129500000Y-99000000D02*
X132000000Y-96500000D01*
X129500000Y-101000000D02*
X129500000Y-99000000D01*
X130500000Y-102000000D02*
X129500000Y-101000000D01*
X83000000Y-125500000D02*
X77000000Y-125500000D01*
X77000000Y-125500000D02*
X72000000Y-120500000D01*
X72000000Y-120500000D02*
X72000000Y-109500000D01*
X72000000Y-109500000D02*
X77000000Y-109500000D01*
X77000000Y-109500000D02*
X80500000Y-113000000D01*
X80500000Y-113000000D02*
X80500000Y-116000000D01*
X80500000Y-116000000D02*
X89000000Y-124500000D01*
X89000000Y-124500000D02*
X96999996Y-124500000D01*
X96999996Y-124500000D02*
X98500000Y-122999996D01*
X75000000Y-91000000D02*
X80500000Y-85500000D01*
X80500000Y-85500000D02*
X80500000Y-84000000D01*
X87249999Y-130750001D02*
X86500000Y-131500000D01*
X90749999Y-130750001D02*
X87249999Y-130750001D01*
X93560000Y-127940000D02*
X90749999Y-130750001D01*
X96940000Y-127940000D02*
X93560000Y-127940000D01*
X98500000Y-129500000D02*
X96940000Y-127940000D01*
X87000000Y-69500000D02*
X84500000Y-69500000D01*
X84500000Y-69500000D02*
X62500000Y-91500000D01*
X62500000Y-91500000D02*
X62500000Y-118000000D01*
X100250001Y-135249999D02*
X101000000Y-134500000D01*
X62500000Y-118000000D02*
X81000000Y-136500000D01*
X81000000Y-136500000D02*
X99000000Y-136500000D01*
X99000000Y-136500000D02*
X100250001Y-135249999D01*
X130500000Y-95500000D02*
X126500000Y-99500000D01*
X126500000Y-99500000D02*
X126500000Y-111000000D01*
X126500000Y-111000000D02*
X112000000Y-125500000D01*
X112000000Y-125500000D02*
X108000000Y-125500000D01*
X79000000Y-116000000D02*
X79000000Y-114000000D01*
X89500000Y-126500000D02*
X79000000Y-116000000D01*
X88500000Y-127500000D02*
X89500000Y-126500000D01*
X89500000Y-126500000D02*
X90500000Y-125500000D01*
X90500000Y-125500000D02*
X108000000Y-125500000D01*
X109500000Y-127500000D02*
X114000000Y-127500000D01*
X114000000Y-127500000D02*
X132749999Y-108750001D01*
X132749999Y-108750001D02*
X132749999Y-99249999D01*
X132749999Y-99249999D02*
X132000000Y-98500000D01*
X86500000Y-127000000D02*
X86500000Y-128500000D01*
X87500000Y-129500000D02*
X89500000Y-129500000D01*
X108750001Y-126750001D02*
X109500000Y-127500000D01*
X86500000Y-128500000D02*
X87500000Y-129500000D01*
X89500000Y-129500000D02*
X92249999Y-126750001D01*
X92249999Y-126750001D02*
X108750001Y-126750001D01*
X79249999Y-118249999D02*
X86500000Y-125500000D01*
X86500000Y-125500000D02*
X86500000Y-127000000D01*
X77500000Y-117500000D02*
X78249999Y-118249999D01*
X78249999Y-118249999D02*
X79249999Y-118249999D01*
X92000000Y-134000000D02*
X82500000Y-134000000D01*
X82500000Y-134000000D02*
X81500000Y-133000000D01*
X116500000Y-133665000D02*
X113835000Y-131000000D01*
X113835000Y-131000000D02*
X95000000Y-131000000D01*
X81500000Y-133000000D02*
X81500000Y-131000000D01*
X95000000Y-131000000D02*
X92000000Y-134000000D01*
X83750001Y-128749999D02*
X84500000Y-128000000D01*
X81500000Y-131000000D02*
X83750001Y-128749999D01*
X70000000Y-107000000D02*
X68500000Y-108500000D01*
X94939340Y-133000000D02*
X96000000Y-133000000D01*
X68500000Y-108500000D02*
X68500000Y-122500000D01*
X68500000Y-122500000D02*
X81500000Y-135500000D01*
X81500000Y-135500000D02*
X92439340Y-135500000D01*
X92439340Y-135500000D02*
X94939340Y-133000000D01*
D14*
G36*
X141864500Y-141864500D02*
X58135500Y-141864500D01*
X58135500Y-137865000D01*
X132000715Y-137865000D01*
X132000715Y-141835000D01*
X134999286Y-141835000D01*
X134999286Y-137865000D01*
X132000715Y-137865000D01*
X58135500Y-137865000D01*
X58135500Y-135029816D01*
X62864708Y-135029816D01*
X62911166Y-135443995D01*
X63037186Y-135841263D01*
X63237970Y-136206487D01*
X63505869Y-136525756D01*
X63830679Y-136786910D01*
X64200028Y-136980001D01*
X64599847Y-137097674D01*
X65014908Y-137135448D01*
X65429402Y-137091883D01*
X65827540Y-136968639D01*
X66194156Y-136770410D01*
X66515288Y-136504746D01*
X66778703Y-136181768D01*
X66974368Y-135813776D01*
X67094830Y-135414787D01*
X67135500Y-135000000D01*
X67134667Y-134940373D01*
X67082431Y-134526883D01*
X66950876Y-134131414D01*
X66745013Y-133769029D01*
X66472683Y-133453531D01*
X66144258Y-133196938D01*
X65772249Y-133009023D01*
X65370826Y-132896943D01*
X64955277Y-132864968D01*
X64541433Y-132914316D01*
X64145055Y-133043107D01*
X63781241Y-133246436D01*
X63463850Y-133516557D01*
X63204970Y-133843182D01*
X63014462Y-134213870D01*
X62899583Y-134614501D01*
X62864708Y-135029816D01*
X58135500Y-135029816D01*
X58135500Y-91500000D01*
X61615000Y-91500000D01*
X61615000Y-118000000D01*
X61622977Y-118081356D01*
X61630102Y-118162796D01*
X61631401Y-118167267D01*
X61631855Y-118171897D01*
X61655475Y-118250131D01*
X61678290Y-118328660D01*
X61680432Y-118332793D01*
X61681777Y-118337247D01*
X61720123Y-118409366D01*
X61757776Y-118482006D01*
X61760682Y-118485646D01*
X61762865Y-118489752D01*
X61814507Y-118553071D01*
X61865534Y-118616991D01*
X61871927Y-118623474D01*
X61872030Y-118623601D01*
X61872147Y-118623698D01*
X61874210Y-118625790D01*
X80374211Y-137125790D01*
X80437402Y-137177696D01*
X80500004Y-137230225D01*
X80504081Y-137232466D01*
X80507678Y-137235421D01*
X80579708Y-137274043D01*
X80651361Y-137313435D01*
X80655800Y-137314843D01*
X80659899Y-137317041D01*
X80738026Y-137340927D01*
X80815998Y-137365661D01*
X80820626Y-137366180D01*
X80825074Y-137367540D01*
X80906339Y-137375794D01*
X80987643Y-137384914D01*
X80996747Y-137384977D01*
X80996911Y-137384994D01*
X80997064Y-137384980D01*
X81000000Y-137385000D01*
X99000000Y-137385000D01*
X99081356Y-137377023D01*
X99162796Y-137369898D01*
X99167267Y-137368599D01*
X99171897Y-137368145D01*
X99250131Y-137344525D01*
X99328660Y-137321710D01*
X99332793Y-137319568D01*
X99337247Y-137318223D01*
X99409388Y-137279865D01*
X99482006Y-137242224D01*
X99485646Y-137239318D01*
X99489752Y-137237135D01*
X99553071Y-137185493D01*
X99616991Y-137134466D01*
X99623474Y-137128073D01*
X99623601Y-137127970D01*
X99623698Y-137127853D01*
X99625790Y-137125790D01*
X100868961Y-135882618D01*
X101106770Y-135887599D01*
X101374256Y-135840434D01*
X101627487Y-135742213D01*
X101856817Y-135596675D01*
X102053511Y-135409366D01*
X102210077Y-135187419D01*
X102320552Y-134939289D01*
X102380727Y-134674426D01*
X102385059Y-134364194D01*
X102332303Y-134097754D01*
X102228799Y-133846636D01*
X102078491Y-133620404D01*
X101887104Y-133427676D01*
X101661927Y-133275792D01*
X101411537Y-133170538D01*
X101145472Y-133115923D01*
X100873867Y-133114027D01*
X100607065Y-133164922D01*
X100355230Y-133266670D01*
X100127955Y-133415395D01*
X99933895Y-133605432D01*
X99780443Y-133829543D01*
X99673444Y-134079192D01*
X99616972Y-134344869D01*
X99613180Y-134616455D01*
X99616093Y-134632328D01*
X98633420Y-135615000D01*
X93575920Y-135615000D01*
X95117524Y-134073396D01*
X95321045Y-134214847D01*
X95569941Y-134323586D01*
X95835217Y-134381911D01*
X96106770Y-134387599D01*
X96374256Y-134340434D01*
X96627487Y-134242213D01*
X96856817Y-134096675D01*
X97053511Y-133909366D01*
X97210077Y-133687419D01*
X97320552Y-133439289D01*
X97380727Y-133174426D01*
X97385059Y-132864194D01*
X97332303Y-132597754D01*
X97228799Y-132346636D01*
X97078491Y-132120404D01*
X96887104Y-131927676D01*
X96823834Y-131885000D01*
X113468420Y-131885000D01*
X115116646Y-133533225D01*
X115113180Y-133781455D01*
X115162211Y-134048605D01*
X115262198Y-134301144D01*
X115409333Y-134529452D01*
X115598011Y-134724834D01*
X115821045Y-134879847D01*
X116069941Y-134988586D01*
X116335217Y-135046911D01*
X116606770Y-135052599D01*
X116735978Y-135029816D01*
X132864708Y-135029816D01*
X132911166Y-135443995D01*
X133037186Y-135841263D01*
X133237970Y-136206487D01*
X133505869Y-136525756D01*
X133830679Y-136786910D01*
X134200028Y-136980001D01*
X134599847Y-137097674D01*
X135014908Y-137135448D01*
X135429402Y-137091883D01*
X135827540Y-136968639D01*
X136194156Y-136770410D01*
X136515288Y-136504746D01*
X136778703Y-136181768D01*
X136974368Y-135813776D01*
X137094830Y-135414787D01*
X137135500Y-135000000D01*
X137134667Y-134940373D01*
X137082431Y-134526883D01*
X136950876Y-134131414D01*
X136745013Y-133769029D01*
X136472683Y-133453531D01*
X136144258Y-133196938D01*
X135772249Y-133009023D01*
X135370826Y-132896943D01*
X134955277Y-132864968D01*
X134541433Y-132914316D01*
X134145055Y-133043107D01*
X133781241Y-133246436D01*
X133463850Y-133516557D01*
X133204970Y-133843182D01*
X133014462Y-134213870D01*
X132899583Y-134614501D01*
X132864708Y-135029816D01*
X116735978Y-135029816D01*
X116874256Y-135005434D01*
X117127487Y-134907213D01*
X117356817Y-134761675D01*
X117553511Y-134574366D01*
X117710077Y-134352419D01*
X117820552Y-134104289D01*
X117880727Y-133839426D01*
X117885059Y-133529194D01*
X117832303Y-133262754D01*
X117728799Y-133011636D01*
X117578491Y-132785404D01*
X117387104Y-132592676D01*
X117161927Y-132440792D01*
X116911537Y-132335538D01*
X116645472Y-132280923D01*
X116373867Y-132279027D01*
X116366930Y-132280350D01*
X114460790Y-130374210D01*
X114397574Y-130322284D01*
X114334996Y-130269775D01*
X114330919Y-130267534D01*
X114327322Y-130264579D01*
X114255292Y-130225957D01*
X114183639Y-130186565D01*
X114179200Y-130185157D01*
X114175101Y-130182959D01*
X114096974Y-130159073D01*
X114019002Y-130134339D01*
X114014374Y-130133820D01*
X114009926Y-130132460D01*
X113928661Y-130124206D01*
X113847357Y-130115086D01*
X113838253Y-130115023D01*
X113838089Y-130115006D01*
X113837936Y-130115020D01*
X113835000Y-130115000D01*
X99742320Y-130115000D01*
X99820552Y-129939289D01*
X99880727Y-129674426D01*
X99885059Y-129364194D01*
X99832303Y-129097754D01*
X99728799Y-128846636D01*
X99578491Y-128620404D01*
X99387104Y-128427676D01*
X99161927Y-128275792D01*
X98911537Y-128170538D01*
X98645472Y-128115923D01*
X98373867Y-128114027D01*
X98366930Y-128115350D01*
X97886581Y-127635001D01*
X108116584Y-127635001D01*
X108162211Y-127883605D01*
X108262198Y-128136144D01*
X108409333Y-128364452D01*
X108598011Y-128559834D01*
X108821045Y-128714847D01*
X109069941Y-128823586D01*
X109335217Y-128881911D01*
X109606770Y-128887599D01*
X109874256Y-128840434D01*
X110127487Y-128742213D01*
X110356817Y-128596675D01*
X110553511Y-128409366D01*
X110570699Y-128385000D01*
X114000000Y-128385000D01*
X114081356Y-128377023D01*
X114162796Y-128369898D01*
X114167267Y-128368599D01*
X114171897Y-128368145D01*
X114250131Y-128344525D01*
X114328660Y-128321710D01*
X114332793Y-128319568D01*
X114337247Y-128318223D01*
X114409388Y-128279865D01*
X114482006Y-128242224D01*
X114485646Y-128239318D01*
X114489752Y-128237135D01*
X114553071Y-128185493D01*
X114616991Y-128134466D01*
X114623474Y-128128073D01*
X114623601Y-128127970D01*
X114623698Y-128127853D01*
X114625790Y-128125790D01*
X133375789Y-109375790D01*
X133427695Y-109312599D01*
X133480224Y-109249997D01*
X133482465Y-109245920D01*
X133485420Y-109242323D01*
X133524042Y-109170293D01*
X133563434Y-109098640D01*
X133564842Y-109094201D01*
X133567040Y-109090102D01*
X133590926Y-109011975D01*
X133615660Y-108934003D01*
X133616179Y-108929375D01*
X133617539Y-108924927D01*
X133625793Y-108843662D01*
X133634913Y-108762358D01*
X133634976Y-108753254D01*
X133634993Y-108753090D01*
X133634979Y-108752937D01*
X133634999Y-108750001D01*
X133634999Y-99249999D01*
X133627021Y-99168639D01*
X133619897Y-99087203D01*
X133618598Y-99082732D01*
X133618144Y-99078102D01*
X133594538Y-98999914D01*
X133571710Y-98921339D01*
X133569565Y-98917202D01*
X133568222Y-98912752D01*
X133529883Y-98840646D01*
X133492223Y-98767993D01*
X133489317Y-98764353D01*
X133487134Y-98760247D01*
X133435517Y-98696959D01*
X133384466Y-98633008D01*
X133381349Y-98629848D01*
X133385059Y-98364194D01*
X133332303Y-98097754D01*
X133228799Y-97846636D01*
X133078491Y-97620404D01*
X132887104Y-97427676D01*
X132661927Y-97275792D01*
X132530876Y-97220703D01*
X132625790Y-97125789D01*
X132677696Y-97062598D01*
X132730225Y-96999996D01*
X132732466Y-96995919D01*
X132735421Y-96992322D01*
X132774043Y-96920292D01*
X132813435Y-96848639D01*
X132814843Y-96844200D01*
X132817041Y-96840101D01*
X132840927Y-96761974D01*
X132865661Y-96684002D01*
X132866180Y-96679374D01*
X132867540Y-96674926D01*
X132875794Y-96593661D01*
X132884914Y-96512357D01*
X132884977Y-96503253D01*
X132884994Y-96503089D01*
X132884980Y-96502936D01*
X132885000Y-96500000D01*
X132885000Y-94500000D01*
X132877023Y-94418649D01*
X132869898Y-94337203D01*
X132868599Y-94332731D01*
X132868145Y-94328103D01*
X132844528Y-94249881D01*
X132821710Y-94171340D01*
X132819568Y-94167207D01*
X132818223Y-94162753D01*
X132779865Y-94090612D01*
X132742224Y-94017994D01*
X132739318Y-94014354D01*
X132737135Y-94010248D01*
X132685493Y-93946929D01*
X132634466Y-93883009D01*
X132628077Y-93876530D01*
X132627970Y-93876399D01*
X132627849Y-93876299D01*
X132625789Y-93874210D01*
X130625790Y-91874210D01*
X130562574Y-91822284D01*
X130499996Y-91769775D01*
X130495919Y-91767534D01*
X130492322Y-91764579D01*
X130420292Y-91725957D01*
X130348639Y-91686565D01*
X130344200Y-91685157D01*
X130340101Y-91682959D01*
X130261974Y-91659073D01*
X130184002Y-91634339D01*
X130179374Y-91633820D01*
X130174926Y-91632460D01*
X130093661Y-91624206D01*
X130012357Y-91615086D01*
X130003253Y-91615023D01*
X130003089Y-91615006D01*
X130002936Y-91615020D01*
X130000000Y-91615000D01*
X128573125Y-91615000D01*
X128387104Y-91427676D01*
X128161927Y-91275792D01*
X127911537Y-91170538D01*
X127645472Y-91115923D01*
X127373867Y-91114027D01*
X127107065Y-91164922D01*
X126855230Y-91266670D01*
X126627955Y-91415395D01*
X126433895Y-91605432D01*
X126280443Y-91829543D01*
X126173444Y-92079192D01*
X126116972Y-92344869D01*
X126113180Y-92616455D01*
X126162211Y-92883605D01*
X126262198Y-93136144D01*
X126409333Y-93364452D01*
X126598011Y-93559834D01*
X126615000Y-93571642D01*
X126615000Y-96633421D01*
X124874210Y-98374210D01*
X124822284Y-98437426D01*
X124769775Y-98500004D01*
X124767534Y-98504081D01*
X124764579Y-98507678D01*
X124725957Y-98579708D01*
X124686565Y-98651361D01*
X124685157Y-98655800D01*
X124682959Y-98659899D01*
X124659073Y-98738026D01*
X124634339Y-98815998D01*
X124633820Y-98820626D01*
X124632460Y-98825074D01*
X124624206Y-98906339D01*
X124615086Y-98987643D01*
X124615023Y-98996747D01*
X124615006Y-98996911D01*
X124615020Y-98997064D01*
X124615000Y-99000000D01*
X124615000Y-107756066D01*
X124411537Y-107670538D01*
X124145472Y-107615923D01*
X123873867Y-107614027D01*
X123607065Y-107664922D01*
X123355230Y-107766670D01*
X123127955Y-107915395D01*
X122933895Y-108105432D01*
X122780443Y-108329543D01*
X122673444Y-108579192D01*
X122616972Y-108844869D01*
X122613180Y-109116455D01*
X122616093Y-109132328D01*
X111133420Y-120615000D01*
X98000000Y-120615000D01*
X97918649Y-120622977D01*
X97837203Y-120630102D01*
X97832731Y-120631401D01*
X97828103Y-120631855D01*
X97749881Y-120655472D01*
X97671340Y-120678290D01*
X97667207Y-120680432D01*
X97662753Y-120681777D01*
X97590612Y-120720135D01*
X97517994Y-120757776D01*
X97514354Y-120760682D01*
X97510248Y-120762865D01*
X97446929Y-120814507D01*
X97383009Y-120865534D01*
X97376530Y-120871923D01*
X97376399Y-120872030D01*
X97376299Y-120872151D01*
X97374210Y-120874211D01*
X95633420Y-122615000D01*
X89866579Y-122615000D01*
X86930213Y-119678633D01*
X90871510Y-119678633D01*
X90920541Y-119945783D01*
X91020528Y-120198322D01*
X91167663Y-120426630D01*
X91356341Y-120622012D01*
X91579375Y-120777025D01*
X91828271Y-120885764D01*
X92093547Y-120944089D01*
X92365100Y-120949777D01*
X92632586Y-120902612D01*
X92885817Y-120804391D01*
X93115147Y-120658853D01*
X93311841Y-120471544D01*
X93468407Y-120249597D01*
X93578882Y-120001467D01*
X93639057Y-119736604D01*
X93643389Y-119426372D01*
X93590633Y-119159932D01*
X93487129Y-118908814D01*
X93336821Y-118682582D01*
X93145434Y-118489854D01*
X92920257Y-118337970D01*
X92669867Y-118232716D01*
X92403802Y-118178101D01*
X92132197Y-118176205D01*
X91865395Y-118227100D01*
X91613560Y-118328848D01*
X91386285Y-118477573D01*
X91192225Y-118667610D01*
X91038773Y-118891721D01*
X90931774Y-119141370D01*
X90875302Y-119407047D01*
X90871510Y-119678633D01*
X86930213Y-119678633D01*
X83930213Y-116678633D01*
X85675358Y-116678633D01*
X85724389Y-116945783D01*
X85824376Y-117198322D01*
X85971511Y-117426630D01*
X86160189Y-117622012D01*
X86383223Y-117777025D01*
X86632119Y-117885764D01*
X86897395Y-117944089D01*
X87168948Y-117949777D01*
X87436434Y-117902612D01*
X87689665Y-117804391D01*
X87918995Y-117658853D01*
X88115689Y-117471544D01*
X88272255Y-117249597D01*
X88382730Y-117001467D01*
X88442905Y-116736604D01*
X88447237Y-116426372D01*
X88394481Y-116159932D01*
X88290977Y-115908814D01*
X88140669Y-115682582D01*
X87949282Y-115489854D01*
X87724105Y-115337970D01*
X87473715Y-115232716D01*
X87207650Y-115178101D01*
X86936045Y-115176205D01*
X86669243Y-115227100D01*
X86417408Y-115328848D01*
X86190133Y-115477573D01*
X85996073Y-115667610D01*
X85842621Y-115891721D01*
X85735622Y-116141370D01*
X85679150Y-116407047D01*
X85675358Y-116678633D01*
X83930213Y-116678633D01*
X83625790Y-116374210D01*
X83595729Y-116349518D01*
X83710077Y-116187419D01*
X83820552Y-115939289D01*
X83880727Y-115674426D01*
X83885059Y-115364194D01*
X83832303Y-115097754D01*
X83728799Y-114846636D01*
X83578491Y-114620404D01*
X83387104Y-114427676D01*
X83161927Y-114275792D01*
X82911537Y-114170538D01*
X82645472Y-114115923D01*
X82373867Y-114114027D01*
X82107065Y-114164922D01*
X81855230Y-114266670D01*
X81627955Y-114415395D01*
X81433895Y-114605432D01*
X81385000Y-114676841D01*
X81385000Y-113000000D01*
X81377018Y-112918599D01*
X81369897Y-112837203D01*
X81368599Y-112832736D01*
X81368145Y-112828103D01*
X81344520Y-112749852D01*
X81321710Y-112671339D01*
X81319567Y-112667205D01*
X81318223Y-112662753D01*
X81279854Y-112590591D01*
X81242223Y-112517994D01*
X81239320Y-112514358D01*
X81237135Y-112510248D01*
X81185471Y-112446902D01*
X81134466Y-112383009D01*
X81128077Y-112376530D01*
X81127970Y-112376399D01*
X81127849Y-112376299D01*
X81125789Y-112374210D01*
X77625790Y-108874210D01*
X77562574Y-108822284D01*
X77499996Y-108769775D01*
X77495919Y-108767534D01*
X77492322Y-108764579D01*
X77420292Y-108725957D01*
X77348639Y-108686565D01*
X77344200Y-108685157D01*
X77340101Y-108682959D01*
X77261974Y-108659073D01*
X77184002Y-108634339D01*
X77179374Y-108633820D01*
X77174926Y-108632460D01*
X77093661Y-108624206D01*
X77012357Y-108615086D01*
X77003253Y-108615023D01*
X77003089Y-108615006D01*
X77002936Y-108615020D01*
X77000000Y-108615000D01*
X74136579Y-108615000D01*
X75125790Y-107625789D01*
X75177696Y-107562598D01*
X75230225Y-107499996D01*
X75232466Y-107495919D01*
X75235421Y-107492322D01*
X75274043Y-107420292D01*
X75313435Y-107348639D01*
X75314843Y-107344200D01*
X75317041Y-107340101D01*
X75340927Y-107261974D01*
X75365661Y-107184002D01*
X75366180Y-107179374D01*
X75367540Y-107174926D01*
X75375794Y-107093661D01*
X75384914Y-107012357D01*
X75384977Y-107003253D01*
X75384994Y-107003089D01*
X75384980Y-107002936D01*
X75385000Y-107000000D01*
X75385000Y-100253211D01*
X81866268Y-100253211D01*
X82260804Y-103770582D01*
X83331021Y-107144334D01*
X85036154Y-110245959D01*
X87311255Y-112957319D01*
X90069667Y-115175139D01*
X93206322Y-116814943D01*
X96601746Y-117814270D01*
X100126609Y-118135058D01*
X103646649Y-117765087D01*
X107027789Y-116718449D01*
X110141243Y-115035011D01*
X112868420Y-112778894D01*
X115105443Y-110036032D01*
X116767105Y-106910902D01*
X117790112Y-103522537D01*
X117829928Y-103116455D01*
X119613180Y-103116455D01*
X119662211Y-103383605D01*
X119762198Y-103636144D01*
X119909333Y-103864452D01*
X120098011Y-104059834D01*
X120321045Y-104214847D01*
X120569941Y-104323586D01*
X120835217Y-104381911D01*
X121106770Y-104387599D01*
X121374256Y-104340434D01*
X121627487Y-104242213D01*
X121856817Y-104096675D01*
X122053511Y-103909366D01*
X122210077Y-103687419D01*
X122320552Y-103439289D01*
X122380727Y-103174426D01*
X122385059Y-102864194D01*
X122332303Y-102597754D01*
X122228799Y-102346636D01*
X122078491Y-102120404D01*
X121887104Y-101927676D01*
X121661927Y-101775792D01*
X121411537Y-101670538D01*
X121145472Y-101615923D01*
X120873867Y-101614027D01*
X120607065Y-101664922D01*
X120355230Y-101766670D01*
X120127955Y-101915395D01*
X119933895Y-102105432D01*
X119780443Y-102329543D01*
X119673444Y-102579192D01*
X119616972Y-102844869D01*
X119613180Y-103116455D01*
X117829928Y-103116455D01*
X118135500Y-100000000D01*
X118128429Y-99493627D01*
X117828123Y-97116455D01*
X119613180Y-97116455D01*
X119662211Y-97383605D01*
X119762198Y-97636144D01*
X119909333Y-97864452D01*
X120098011Y-98059834D01*
X120321045Y-98214847D01*
X120569941Y-98323586D01*
X120835217Y-98381911D01*
X121106770Y-98387599D01*
X121374256Y-98340434D01*
X121627487Y-98242213D01*
X121856817Y-98096675D01*
X122053511Y-97909366D01*
X122210077Y-97687419D01*
X122320552Y-97439289D01*
X122380727Y-97174426D01*
X122385059Y-96864194D01*
X122332303Y-96597754D01*
X122228799Y-96346636D01*
X122078491Y-96120404D01*
X121887104Y-95927676D01*
X121661927Y-95775792D01*
X121411537Y-95670538D01*
X121145472Y-95615923D01*
X120873867Y-95614027D01*
X120607065Y-95664922D01*
X120355230Y-95766670D01*
X120127955Y-95915395D01*
X119933895Y-96105432D01*
X119780443Y-96329543D01*
X119673444Y-96579192D01*
X119616972Y-96844869D01*
X119613180Y-97116455D01*
X117828123Y-97116455D01*
X117684821Y-95982107D01*
X116567604Y-92623628D01*
X114819331Y-89546112D01*
X112506595Y-86866781D01*
X109717487Y-84687691D01*
X106558242Y-83091842D01*
X103149197Y-82140019D01*
X99620199Y-81868477D01*
X96105667Y-82287560D01*
X92739470Y-83381304D01*
X89649824Y-85108049D01*
X86954413Y-87402023D01*
X84755904Y-90175851D01*
X83138039Y-93323877D01*
X82162440Y-96726195D01*
X81866268Y-100253211D01*
X75385000Y-100253211D01*
X75385000Y-100100000D01*
X75377018Y-100018599D01*
X75369897Y-99937203D01*
X75368599Y-99932736D01*
X75368145Y-99928103D01*
X75344520Y-99849852D01*
X75321710Y-99771339D01*
X75319567Y-99767205D01*
X75318223Y-99762753D01*
X75279875Y-99690630D01*
X75242224Y-99617994D01*
X75239318Y-99614354D01*
X75237135Y-99610248D01*
X75185493Y-99546929D01*
X75134466Y-99483009D01*
X75128077Y-99476530D01*
X75127970Y-99476399D01*
X75127849Y-99476299D01*
X75125789Y-99474210D01*
X71268035Y-95616455D01*
X74113180Y-95616455D01*
X74162211Y-95883605D01*
X74262198Y-96136144D01*
X74409333Y-96364452D01*
X74598011Y-96559834D01*
X74821045Y-96714847D01*
X75069941Y-96823586D01*
X75335217Y-96881911D01*
X75606770Y-96887599D01*
X75874256Y-96840434D01*
X76127487Y-96742213D01*
X76356817Y-96596675D01*
X76553511Y-96409366D01*
X76710077Y-96187419D01*
X76820552Y-95939289D01*
X76880727Y-95674426D01*
X76885026Y-95366554D01*
X84325791Y-87925788D01*
X84377678Y-87862619D01*
X84430226Y-87799995D01*
X84432469Y-87795915D01*
X84435422Y-87792320D01*
X84474033Y-87720312D01*
X84513436Y-87648638D01*
X84514844Y-87644199D01*
X84517042Y-87640100D01*
X84540928Y-87561973D01*
X84565662Y-87484001D01*
X84566181Y-87479373D01*
X84567541Y-87474925D01*
X84575800Y-87393615D01*
X84584915Y-87312356D01*
X84584978Y-87303262D01*
X84584996Y-87303088D01*
X84584981Y-87302925D01*
X84585001Y-87299999D01*
X84585001Y-83666579D01*
X84764289Y-83487290D01*
X85470875Y-83487290D01*
X85519906Y-83754440D01*
X85619893Y-84006979D01*
X85767028Y-84235287D01*
X85955706Y-84430669D01*
X86178740Y-84585682D01*
X86427636Y-84694421D01*
X86692912Y-84752746D01*
X86964465Y-84758434D01*
X87231951Y-84711269D01*
X87485182Y-84613048D01*
X87714512Y-84467510D01*
X87911206Y-84280201D01*
X88067772Y-84058254D01*
X88178247Y-83810124D01*
X88238422Y-83545261D01*
X88242754Y-83235029D01*
X88189998Y-82968589D01*
X88086494Y-82717471D01*
X87936186Y-82491239D01*
X87744799Y-82298511D01*
X87519622Y-82146627D01*
X87269232Y-82041373D01*
X87003167Y-81986758D01*
X86731562Y-81984862D01*
X86464760Y-82035757D01*
X86212925Y-82137505D01*
X85985650Y-82286230D01*
X85791590Y-82476267D01*
X85638138Y-82700378D01*
X85531139Y-82950027D01*
X85474667Y-83215704D01*
X85470875Y-83487290D01*
X84764289Y-83487290D01*
X87764289Y-80487290D01*
X90667028Y-80487290D01*
X90716059Y-80754440D01*
X90816046Y-81006979D01*
X90963181Y-81235287D01*
X91151859Y-81430669D01*
X91374893Y-81585682D01*
X91623789Y-81694421D01*
X91889065Y-81752746D01*
X92160618Y-81758434D01*
X92428104Y-81711269D01*
X92681335Y-81613048D01*
X92910665Y-81467510D01*
X93107359Y-81280201D01*
X93263925Y-81058254D01*
X93374400Y-80810124D01*
X93434575Y-80545261D01*
X93438907Y-80235029D01*
X93386151Y-79968589D01*
X93282647Y-79717471D01*
X93132339Y-79491239D01*
X92940952Y-79298511D01*
X92715775Y-79146627D01*
X92465385Y-79041373D01*
X92199320Y-78986758D01*
X91927715Y-78984862D01*
X91660913Y-79035757D01*
X91409078Y-79137505D01*
X91181803Y-79286230D01*
X90987743Y-79476267D01*
X90834291Y-79700378D01*
X90727292Y-79950027D01*
X90670820Y-80215704D01*
X90667028Y-80487290D01*
X87764289Y-80487290D01*
X93368961Y-74882618D01*
X93606770Y-74887599D01*
X93874256Y-74840434D01*
X94127487Y-74742213D01*
X94356817Y-74596675D01*
X94553511Y-74409366D01*
X94710077Y-74187419D01*
X94820552Y-73939289D01*
X94880727Y-73674426D01*
X94885059Y-73364194D01*
X94832303Y-73097754D01*
X94728799Y-72846636D01*
X94578491Y-72620404D01*
X94387104Y-72427676D01*
X94161927Y-72275792D01*
X93911537Y-72170538D01*
X93645472Y-72115923D01*
X93373867Y-72114027D01*
X93107065Y-72164922D01*
X92855230Y-72266670D01*
X92627955Y-72415395D01*
X92433895Y-72605432D01*
X92280443Y-72829543D01*
X92173444Y-73079192D01*
X92116972Y-73344869D01*
X92113180Y-73616455D01*
X92116093Y-73632328D01*
X83074211Y-82674209D01*
X83022285Y-82737425D01*
X82969776Y-82800003D01*
X82967535Y-82804080D01*
X82964580Y-82807677D01*
X82925958Y-82879707D01*
X82886566Y-82951360D01*
X82885158Y-82955799D01*
X82882960Y-82959898D01*
X82859074Y-83038025D01*
X82834340Y-83115997D01*
X82833821Y-83120625D01*
X82832461Y-83125073D01*
X82824207Y-83206338D01*
X82815087Y-83287642D01*
X82815024Y-83296746D01*
X82815007Y-83296910D01*
X82815021Y-83297063D01*
X82815001Y-83299999D01*
X82815001Y-86933420D01*
X75632587Y-94115833D01*
X75373867Y-94114027D01*
X75107065Y-94164922D01*
X74855230Y-94266670D01*
X74627955Y-94415395D01*
X74433895Y-94605432D01*
X74280443Y-94829543D01*
X74173444Y-95079192D01*
X74116972Y-95344869D01*
X74113180Y-95616455D01*
X71268035Y-95616455D01*
X69881351Y-94229771D01*
X69885059Y-93964194D01*
X69832303Y-93697754D01*
X69728799Y-93446636D01*
X69578491Y-93220404D01*
X69387104Y-93027676D01*
X69161927Y-92875792D01*
X68911537Y-92770538D01*
X68645472Y-92715923D01*
X68373867Y-92714027D01*
X68107065Y-92764922D01*
X67855230Y-92866670D01*
X67627955Y-93015395D01*
X67433895Y-93205432D01*
X67280443Y-93429543D01*
X67173444Y-93679192D01*
X67116972Y-93944869D01*
X67113180Y-94216455D01*
X67162211Y-94483605D01*
X67262198Y-94736144D01*
X67409333Y-94964452D01*
X67598011Y-95159834D01*
X67821045Y-95314847D01*
X68069941Y-95423586D01*
X68335217Y-95481911D01*
X68606770Y-95487599D01*
X68631635Y-95483215D01*
X73615000Y-100466579D01*
X73615000Y-106633421D01*
X72132587Y-108115833D01*
X71873867Y-108114027D01*
X71607065Y-108164922D01*
X71355230Y-108266670D01*
X71127955Y-108415395D01*
X70933895Y-108605432D01*
X70780443Y-108829543D01*
X70673444Y-109079192D01*
X70616972Y-109344869D01*
X70613180Y-109616455D01*
X70662211Y-109883605D01*
X70762198Y-110136144D01*
X70909333Y-110364452D01*
X71098011Y-110559834D01*
X71115000Y-110571642D01*
X71115000Y-120500000D01*
X71122977Y-120581356D01*
X71130102Y-120662796D01*
X71131401Y-120667267D01*
X71131855Y-120671897D01*
X71155475Y-120750131D01*
X71178290Y-120828660D01*
X71180432Y-120832793D01*
X71181777Y-120837247D01*
X71220135Y-120909388D01*
X71257776Y-120982006D01*
X71260682Y-120985646D01*
X71262865Y-120989752D01*
X71314507Y-121053071D01*
X71365534Y-121116991D01*
X71371927Y-121123474D01*
X71372030Y-121123601D01*
X71372147Y-121123698D01*
X71374210Y-121125790D01*
X76374211Y-126125790D01*
X76437402Y-126177696D01*
X76500004Y-126230225D01*
X76504081Y-126232466D01*
X76507678Y-126235421D01*
X76579708Y-126274043D01*
X76651361Y-126313435D01*
X76655800Y-126314843D01*
X76659899Y-126317041D01*
X76738026Y-126340927D01*
X76815998Y-126365661D01*
X76820626Y-126366180D01*
X76825074Y-126367540D01*
X76906339Y-126375794D01*
X76987643Y-126384914D01*
X76996747Y-126384977D01*
X76996911Y-126384994D01*
X76997064Y-126384980D01*
X77000000Y-126385000D01*
X81929176Y-126385000D01*
X82098011Y-126559834D01*
X82321045Y-126714847D01*
X82569941Y-126823586D01*
X82835217Y-126881911D01*
X83106770Y-126887599D01*
X83374256Y-126840434D01*
X83627487Y-126742213D01*
X83856817Y-126596675D01*
X84053511Y-126409366D01*
X84210077Y-126187419D01*
X84320552Y-125939289D01*
X84380727Y-125674426D01*
X84385059Y-125364194D01*
X84332303Y-125097754D01*
X84228799Y-124846636D01*
X84078491Y-124620404D01*
X83887104Y-124427676D01*
X83661927Y-124275792D01*
X83411537Y-124170538D01*
X83145472Y-124115923D01*
X82873867Y-124114027D01*
X82607065Y-124164922D01*
X82355230Y-124266670D01*
X82127955Y-124415395D01*
X81933895Y-124605432D01*
X81927344Y-124615000D01*
X77366579Y-124615000D01*
X72885000Y-120133420D01*
X72885000Y-110569837D01*
X73053511Y-110409366D01*
X73070699Y-110385000D01*
X76633420Y-110385000D01*
X78864277Y-112615856D01*
X78607065Y-112664922D01*
X78355230Y-112766670D01*
X78127955Y-112915395D01*
X77933895Y-113105432D01*
X77780443Y-113329543D01*
X77673444Y-113579192D01*
X77616972Y-113844869D01*
X77613180Y-114116455D01*
X77662211Y-114383605D01*
X77762198Y-114636144D01*
X77909333Y-114864452D01*
X78098011Y-115059834D01*
X78115000Y-115071642D01*
X78115000Y-116000000D01*
X78122977Y-116081356D01*
X78130102Y-116162796D01*
X78131401Y-116167267D01*
X78131855Y-116171897D01*
X78155475Y-116250131D01*
X78163175Y-116276634D01*
X78161927Y-116275792D01*
X77911537Y-116170538D01*
X77645472Y-116115923D01*
X77373867Y-116114027D01*
X77107065Y-116164922D01*
X76855230Y-116266670D01*
X76627955Y-116415395D01*
X76433895Y-116605432D01*
X76280443Y-116829543D01*
X76173444Y-117079192D01*
X76116972Y-117344869D01*
X76113180Y-117616455D01*
X76162211Y-117883605D01*
X76262198Y-118136144D01*
X76409333Y-118364452D01*
X76598011Y-118559834D01*
X76821045Y-118714847D01*
X77069941Y-118823586D01*
X77335217Y-118881911D01*
X77606770Y-118887599D01*
X77632965Y-118882980D01*
X77687401Y-118927695D01*
X77750003Y-118980224D01*
X77754080Y-118982465D01*
X77757677Y-118985420D01*
X77829707Y-119024042D01*
X77901360Y-119063434D01*
X77905799Y-119064842D01*
X77909898Y-119067040D01*
X77988025Y-119090926D01*
X78065997Y-119115660D01*
X78070625Y-119116179D01*
X78075073Y-119117539D01*
X78156383Y-119125798D01*
X78237642Y-119134913D01*
X78246736Y-119134976D01*
X78246910Y-119134994D01*
X78247073Y-119134979D01*
X78249999Y-119134999D01*
X78883419Y-119134999D01*
X85615000Y-125866579D01*
X85615000Y-125928081D01*
X85433895Y-126105432D01*
X85280443Y-126329543D01*
X85173444Y-126579192D01*
X85134138Y-126764111D01*
X84911537Y-126670538D01*
X84645472Y-126615923D01*
X84373867Y-126614027D01*
X84107065Y-126664922D01*
X83855230Y-126766670D01*
X83627955Y-126915395D01*
X83433895Y-127105432D01*
X83280443Y-127329543D01*
X83173444Y-127579192D01*
X83116972Y-127844869D01*
X83113180Y-128116455D01*
X83116093Y-128132328D01*
X80874210Y-130374210D01*
X80822284Y-130437426D01*
X80769775Y-130500004D01*
X80767534Y-130504081D01*
X80764579Y-130507678D01*
X80725957Y-130579708D01*
X80686565Y-130651361D01*
X80685157Y-130655800D01*
X80682959Y-130659899D01*
X80659073Y-130738026D01*
X80634339Y-130815998D01*
X80633820Y-130820626D01*
X80632460Y-130825074D01*
X80624206Y-130906339D01*
X80615086Y-130987643D01*
X80615023Y-130996747D01*
X80615006Y-130996911D01*
X80615020Y-130997064D01*
X80615000Y-131000000D01*
X80615000Y-133000000D01*
X80622977Y-133081356D01*
X80630102Y-133162796D01*
X80631401Y-133167267D01*
X80631855Y-133171897D01*
X80655475Y-133250131D01*
X80678290Y-133328660D01*
X80680432Y-133332793D01*
X80681777Y-133337247D01*
X80720135Y-133409388D01*
X80757776Y-133482006D01*
X80760682Y-133485646D01*
X80762865Y-133489752D01*
X80814507Y-133553071D01*
X80853518Y-133601939D01*
X69385000Y-122133420D01*
X69385000Y-108866580D01*
X69868962Y-108382618D01*
X70106770Y-108387599D01*
X70374256Y-108340434D01*
X70627487Y-108242213D01*
X70856817Y-108096675D01*
X71053511Y-107909366D01*
X71210077Y-107687419D01*
X71320552Y-107439289D01*
X71380727Y-107174426D01*
X71385059Y-106864194D01*
X71332303Y-106597754D01*
X71228799Y-106346636D01*
X71078491Y-106120404D01*
X70887104Y-105927676D01*
X70661927Y-105775792D01*
X70411537Y-105670538D01*
X70145472Y-105615923D01*
X69873867Y-105614027D01*
X69607065Y-105664922D01*
X69355230Y-105766670D01*
X69127955Y-105915395D01*
X68933895Y-106105432D01*
X68780443Y-106329543D01*
X68673444Y-106579192D01*
X68616972Y-106844869D01*
X68613180Y-107116455D01*
X68616093Y-107132327D01*
X67874210Y-107874210D01*
X67822284Y-107937426D01*
X67769775Y-108000004D01*
X67767534Y-108004081D01*
X67764579Y-108007678D01*
X67725957Y-108079708D01*
X67686565Y-108151361D01*
X67685157Y-108155800D01*
X67682959Y-108159899D01*
X67659073Y-108238026D01*
X67634339Y-108315998D01*
X67633820Y-108320626D01*
X67632460Y-108325074D01*
X67624206Y-108406339D01*
X67615086Y-108487643D01*
X67615023Y-108496747D01*
X67615006Y-108496911D01*
X67615020Y-108497064D01*
X67615000Y-108500000D01*
X67615000Y-121863420D01*
X63385000Y-117633420D01*
X63385000Y-91866580D01*
X64135124Y-91116455D01*
X73613180Y-91116455D01*
X73662211Y-91383605D01*
X73762198Y-91636144D01*
X73909333Y-91864452D01*
X74098011Y-92059834D01*
X74321045Y-92214847D01*
X74569941Y-92323586D01*
X74835217Y-92381911D01*
X75106770Y-92387599D01*
X75374256Y-92340434D01*
X75627487Y-92242213D01*
X75856817Y-92096675D01*
X76053511Y-91909366D01*
X76210077Y-91687419D01*
X76320552Y-91439289D01*
X76380727Y-91174426D01*
X76385026Y-90866554D01*
X81125790Y-86125789D01*
X81177677Y-86062620D01*
X81230225Y-85999996D01*
X81232468Y-85995916D01*
X81235421Y-85992321D01*
X81274032Y-85920313D01*
X81313435Y-85848639D01*
X81314843Y-85844200D01*
X81317041Y-85840101D01*
X81340927Y-85761974D01*
X81365661Y-85684002D01*
X81366180Y-85679374D01*
X81367540Y-85674926D01*
X81375799Y-85593616D01*
X81384914Y-85512357D01*
X81384977Y-85503263D01*
X81384995Y-85503089D01*
X81384980Y-85502926D01*
X81385000Y-85500000D01*
X81385000Y-85069837D01*
X81553511Y-84909366D01*
X81710077Y-84687419D01*
X81820552Y-84439289D01*
X81880727Y-84174426D01*
X81885059Y-83864194D01*
X81832303Y-83597754D01*
X81728799Y-83346636D01*
X81578491Y-83120404D01*
X81387104Y-82927676D01*
X81385000Y-82926257D01*
X81385000Y-81366580D01*
X87125789Y-75625790D01*
X87177669Y-75562630D01*
X87230225Y-75499996D01*
X87232468Y-75495915D01*
X87235420Y-75492322D01*
X87274013Y-75420347D01*
X87313435Y-75348639D01*
X87314844Y-75344198D01*
X87317040Y-75340102D01*
X87340917Y-75262006D01*
X87365661Y-75184002D01*
X87366180Y-75179374D01*
X87367540Y-75174926D01*
X87375795Y-75093656D01*
X87384914Y-75012357D01*
X87384977Y-75003254D01*
X87384994Y-75003090D01*
X87384980Y-75002937D01*
X87385000Y-75000000D01*
X87385000Y-74069837D01*
X87553511Y-73909366D01*
X87710077Y-73687419D01*
X87820552Y-73439289D01*
X87880727Y-73174426D01*
X87885059Y-72864194D01*
X87832303Y-72597754D01*
X87728799Y-72346636D01*
X87578491Y-72120404D01*
X87387104Y-71927676D01*
X87161927Y-71775792D01*
X86911537Y-71670538D01*
X86645472Y-71615923D01*
X86373867Y-71614027D01*
X86107065Y-71664922D01*
X85855230Y-71766670D01*
X85627955Y-71915395D01*
X85433895Y-72105432D01*
X85280443Y-72329543D01*
X85173444Y-72579192D01*
X85116972Y-72844869D01*
X85113180Y-73116455D01*
X85162211Y-73383605D01*
X85262198Y-73636144D01*
X85409333Y-73864452D01*
X85598011Y-74059834D01*
X85615000Y-74071642D01*
X85615000Y-74633421D01*
X79874210Y-80374210D01*
X79822284Y-80437426D01*
X79769775Y-80500004D01*
X79767534Y-80504081D01*
X79764579Y-80507678D01*
X79725957Y-80579708D01*
X79686565Y-80651361D01*
X79685157Y-80655800D01*
X79682959Y-80659899D01*
X79659073Y-80738026D01*
X79634339Y-80815998D01*
X79633820Y-80820626D01*
X79632460Y-80825074D01*
X79624206Y-80906339D01*
X79615086Y-80987643D01*
X79615023Y-80996747D01*
X79615006Y-80996911D01*
X79615020Y-80997064D01*
X79615000Y-81000000D01*
X79615000Y-82928081D01*
X79433895Y-83105432D01*
X79280443Y-83329543D01*
X79173444Y-83579192D01*
X79116972Y-83844869D01*
X79113180Y-84116455D01*
X79162211Y-84383605D01*
X79262198Y-84636144D01*
X79409333Y-84864452D01*
X79598011Y-85059834D01*
X79615000Y-85071642D01*
X79615000Y-85133421D01*
X75132587Y-89615833D01*
X74873867Y-89614027D01*
X74607065Y-89664922D01*
X74355230Y-89766670D01*
X74127955Y-89915395D01*
X73933895Y-90105432D01*
X73780443Y-90329543D01*
X73673444Y-90579192D01*
X73616972Y-90844869D01*
X73613180Y-91116455D01*
X64135124Y-91116455D01*
X84866579Y-70385000D01*
X85929176Y-70385000D01*
X86098011Y-70559834D01*
X86321045Y-70714847D01*
X86569941Y-70823586D01*
X86835217Y-70881911D01*
X87106770Y-70887599D01*
X87374256Y-70840434D01*
X87627487Y-70742213D01*
X87856817Y-70596675D01*
X88053511Y-70409366D01*
X88210077Y-70187419D01*
X88320552Y-69939289D01*
X88380727Y-69674426D01*
X88385059Y-69364194D01*
X88332303Y-69097754D01*
X88228799Y-68846636D01*
X88078491Y-68620404D01*
X87887104Y-68427676D01*
X87661927Y-68275792D01*
X87411537Y-68170538D01*
X87145472Y-68115923D01*
X86873867Y-68114027D01*
X86607065Y-68164922D01*
X86355230Y-68266670D01*
X86127955Y-68415395D01*
X85933895Y-68605432D01*
X85927344Y-68615000D01*
X84500000Y-68615000D01*
X84418599Y-68622982D01*
X84337203Y-68630103D01*
X84332736Y-68631401D01*
X84328103Y-68631855D01*
X84249852Y-68655480D01*
X84171339Y-68678290D01*
X84167205Y-68680433D01*
X84162753Y-68681777D01*
X84090630Y-68720125D01*
X84017994Y-68757776D01*
X84014354Y-68760682D01*
X84010248Y-68762865D01*
X83946929Y-68814507D01*
X83883009Y-68865534D01*
X83876530Y-68871923D01*
X83876399Y-68872030D01*
X83876299Y-68872151D01*
X83874210Y-68874211D01*
X61874210Y-90874210D01*
X61822284Y-90937426D01*
X61769775Y-91000004D01*
X61767534Y-91004081D01*
X61764579Y-91007678D01*
X61725957Y-91079708D01*
X61686565Y-91151361D01*
X61685157Y-91155800D01*
X61682959Y-91159899D01*
X61659073Y-91238026D01*
X61634339Y-91315998D01*
X61633820Y-91320626D01*
X61632460Y-91325074D01*
X61624206Y-91406339D01*
X61615086Y-91487643D01*
X61615023Y-91496747D01*
X61615006Y-91496911D01*
X61615020Y-91497064D01*
X61615000Y-91500000D01*
X58135500Y-91500000D01*
X58135500Y-65029816D01*
X62864708Y-65029816D01*
X62911166Y-65443995D01*
X63037186Y-65841263D01*
X63237970Y-66206487D01*
X63505869Y-66525756D01*
X63830679Y-66786910D01*
X64200028Y-66980001D01*
X64599847Y-67097674D01*
X65014908Y-67135448D01*
X65429402Y-67091883D01*
X65827540Y-66968639D01*
X66194156Y-66770410D01*
X66515288Y-66504746D01*
X66778703Y-66181768D01*
X66974368Y-65813776D01*
X67094830Y-65414787D01*
X67132576Y-65029816D01*
X132864708Y-65029816D01*
X132911166Y-65443995D01*
X133037186Y-65841263D01*
X133237970Y-66206487D01*
X133505869Y-66525756D01*
X133830679Y-66786910D01*
X134200028Y-66980001D01*
X134599847Y-67097674D01*
X135014908Y-67135448D01*
X135429402Y-67091883D01*
X135827540Y-66968639D01*
X136194156Y-66770410D01*
X136515288Y-66504746D01*
X136778703Y-66181768D01*
X136974368Y-65813776D01*
X137094830Y-65414787D01*
X137135500Y-65000000D01*
X137134667Y-64940373D01*
X137082431Y-64526883D01*
X136950876Y-64131414D01*
X136745013Y-63769029D01*
X136472683Y-63453531D01*
X136144258Y-63196938D01*
X135772249Y-63009023D01*
X135370826Y-62896943D01*
X134955277Y-62864968D01*
X134541433Y-62914316D01*
X134145055Y-63043107D01*
X133781241Y-63246436D01*
X133463850Y-63516557D01*
X133204970Y-63843182D01*
X133014462Y-64213870D01*
X132899583Y-64614501D01*
X132864708Y-65029816D01*
X67132576Y-65029816D01*
X67135500Y-65000000D01*
X67134667Y-64940373D01*
X67082431Y-64526883D01*
X66950876Y-64131414D01*
X66745013Y-63769029D01*
X66472683Y-63453531D01*
X66144258Y-63196938D01*
X65772249Y-63009023D01*
X65370826Y-62896943D01*
X64955277Y-62864968D01*
X64541433Y-62914316D01*
X64145055Y-63043107D01*
X63781241Y-63246436D01*
X63463850Y-63516557D01*
X63204970Y-63843182D01*
X63014462Y-64213870D01*
X62899583Y-64614501D01*
X62864708Y-65029816D01*
X58135500Y-65029816D01*
X58135500Y-58165000D01*
X65000714Y-58165000D01*
X65000714Y-62135000D01*
X67999285Y-62135000D01*
X67999285Y-58165000D01*
X65000714Y-58165000D01*
X58135500Y-58165000D01*
X58135500Y-58135500D01*
X141864500Y-58135500D01*
X141864500Y-141864500D01*
X141864500Y-141864500D01*
G37*
X141864500Y-141864500D02*
X58135500Y-141864500D01*
X58135500Y-137865000D01*
X132000715Y-137865000D01*
X132000715Y-141835000D01*
X134999286Y-141835000D01*
X134999286Y-137865000D01*
X132000715Y-137865000D01*
X58135500Y-137865000D01*
X58135500Y-135029816D01*
X62864708Y-135029816D01*
X62911166Y-135443995D01*
X63037186Y-135841263D01*
X63237970Y-136206487D01*
X63505869Y-136525756D01*
X63830679Y-136786910D01*
X64200028Y-136980001D01*
X64599847Y-137097674D01*
X65014908Y-137135448D01*
X65429402Y-137091883D01*
X65827540Y-136968639D01*
X66194156Y-136770410D01*
X66515288Y-136504746D01*
X66778703Y-136181768D01*
X66974368Y-135813776D01*
X67094830Y-135414787D01*
X67135500Y-135000000D01*
X67134667Y-134940373D01*
X67082431Y-134526883D01*
X66950876Y-134131414D01*
X66745013Y-133769029D01*
X66472683Y-133453531D01*
X66144258Y-133196938D01*
X65772249Y-133009023D01*
X65370826Y-132896943D01*
X64955277Y-132864968D01*
X64541433Y-132914316D01*
X64145055Y-133043107D01*
X63781241Y-133246436D01*
X63463850Y-133516557D01*
X63204970Y-133843182D01*
X63014462Y-134213870D01*
X62899583Y-134614501D01*
X62864708Y-135029816D01*
X58135500Y-135029816D01*
X58135500Y-91500000D01*
X61615000Y-91500000D01*
X61615000Y-118000000D01*
X61622977Y-118081356D01*
X61630102Y-118162796D01*
X61631401Y-118167267D01*
X61631855Y-118171897D01*
X61655475Y-118250131D01*
X61678290Y-118328660D01*
X61680432Y-118332793D01*
X61681777Y-118337247D01*
X61720123Y-118409366D01*
X61757776Y-118482006D01*
X61760682Y-118485646D01*
X61762865Y-118489752D01*
X61814507Y-118553071D01*
X61865534Y-118616991D01*
X61871927Y-118623474D01*
X61872030Y-118623601D01*
X61872147Y-118623698D01*
X61874210Y-118625790D01*
X80374211Y-137125790D01*
X80437402Y-137177696D01*
X80500004Y-137230225D01*
X80504081Y-137232466D01*
X80507678Y-137235421D01*
X80579708Y-137274043D01*
X80651361Y-137313435D01*
X80655800Y-137314843D01*
X80659899Y-137317041D01*
X80738026Y-137340927D01*
X80815998Y-137365661D01*
X80820626Y-137366180D01*
X80825074Y-137367540D01*
X80906339Y-137375794D01*
X80987643Y-137384914D01*
X80996747Y-137384977D01*
X80996911Y-137384994D01*
X80997064Y-137384980D01*
X81000000Y-137385000D01*
X99000000Y-137385000D01*
X99081356Y-137377023D01*
X99162796Y-137369898D01*
X99167267Y-137368599D01*
X99171897Y-137368145D01*
X99250131Y-137344525D01*
X99328660Y-137321710D01*
X99332793Y-137319568D01*
X99337247Y-137318223D01*
X99409388Y-137279865D01*
X99482006Y-137242224D01*
X99485646Y-137239318D01*
X99489752Y-137237135D01*
X99553071Y-137185493D01*
X99616991Y-137134466D01*
X99623474Y-137128073D01*
X99623601Y-137127970D01*
X99623698Y-137127853D01*
X99625790Y-137125790D01*
X100868961Y-135882618D01*
X101106770Y-135887599D01*
X101374256Y-135840434D01*
X101627487Y-135742213D01*
X101856817Y-135596675D01*
X102053511Y-135409366D01*
X102210077Y-135187419D01*
X102320552Y-134939289D01*
X102380727Y-134674426D01*
X102385059Y-134364194D01*
X102332303Y-134097754D01*
X102228799Y-133846636D01*
X102078491Y-133620404D01*
X101887104Y-133427676D01*
X101661927Y-133275792D01*
X101411537Y-133170538D01*
X101145472Y-133115923D01*
X100873867Y-133114027D01*
X100607065Y-133164922D01*
X100355230Y-133266670D01*
X100127955Y-133415395D01*
X99933895Y-133605432D01*
X99780443Y-133829543D01*
X99673444Y-134079192D01*
X99616972Y-134344869D01*
X99613180Y-134616455D01*
X99616093Y-134632328D01*
X98633420Y-135615000D01*
X93575920Y-135615000D01*
X95117524Y-134073396D01*
X95321045Y-134214847D01*
X95569941Y-134323586D01*
X95835217Y-134381911D01*
X96106770Y-134387599D01*
X96374256Y-134340434D01*
X96627487Y-134242213D01*
X96856817Y-134096675D01*
X97053511Y-133909366D01*
X97210077Y-133687419D01*
X97320552Y-133439289D01*
X97380727Y-133174426D01*
X97385059Y-132864194D01*
X97332303Y-132597754D01*
X97228799Y-132346636D01*
X97078491Y-132120404D01*
X96887104Y-131927676D01*
X96823834Y-131885000D01*
X113468420Y-131885000D01*
X115116646Y-133533225D01*
X115113180Y-133781455D01*
X115162211Y-134048605D01*
X115262198Y-134301144D01*
X115409333Y-134529452D01*
X115598011Y-134724834D01*
X115821045Y-134879847D01*
X116069941Y-134988586D01*
X116335217Y-135046911D01*
X116606770Y-135052599D01*
X116735978Y-135029816D01*
X132864708Y-135029816D01*
X132911166Y-135443995D01*
X133037186Y-135841263D01*
X133237970Y-136206487D01*
X133505869Y-136525756D01*
X133830679Y-136786910D01*
X134200028Y-136980001D01*
X134599847Y-137097674D01*
X135014908Y-137135448D01*
X135429402Y-137091883D01*
X135827540Y-136968639D01*
X136194156Y-136770410D01*
X136515288Y-136504746D01*
X136778703Y-136181768D01*
X136974368Y-135813776D01*
X137094830Y-135414787D01*
X137135500Y-135000000D01*
X137134667Y-134940373D01*
X137082431Y-134526883D01*
X136950876Y-134131414D01*
X136745013Y-133769029D01*
X136472683Y-133453531D01*
X136144258Y-133196938D01*
X135772249Y-133009023D01*
X135370826Y-132896943D01*
X134955277Y-132864968D01*
X134541433Y-132914316D01*
X134145055Y-133043107D01*
X133781241Y-133246436D01*
X133463850Y-133516557D01*
X133204970Y-133843182D01*
X133014462Y-134213870D01*
X132899583Y-134614501D01*
X132864708Y-135029816D01*
X116735978Y-135029816D01*
X116874256Y-135005434D01*
X117127487Y-134907213D01*
X117356817Y-134761675D01*
X117553511Y-134574366D01*
X117710077Y-134352419D01*
X117820552Y-134104289D01*
X117880727Y-133839426D01*
X117885059Y-133529194D01*
X117832303Y-133262754D01*
X117728799Y-133011636D01*
X117578491Y-132785404D01*
X117387104Y-132592676D01*
X117161927Y-132440792D01*
X116911537Y-132335538D01*
X116645472Y-132280923D01*
X116373867Y-132279027D01*
X116366930Y-132280350D01*
X114460790Y-130374210D01*
X114397574Y-130322284D01*
X114334996Y-130269775D01*
X114330919Y-130267534D01*
X114327322Y-130264579D01*
X114255292Y-130225957D01*
X114183639Y-130186565D01*
X114179200Y-130185157D01*
X114175101Y-130182959D01*
X114096974Y-130159073D01*
X114019002Y-130134339D01*
X114014374Y-130133820D01*
X114009926Y-130132460D01*
X113928661Y-130124206D01*
X113847357Y-130115086D01*
X113838253Y-130115023D01*
X113838089Y-130115006D01*
X113837936Y-130115020D01*
X113835000Y-130115000D01*
X99742320Y-130115000D01*
X99820552Y-129939289D01*
X99880727Y-129674426D01*
X99885059Y-129364194D01*
X99832303Y-129097754D01*
X99728799Y-128846636D01*
X99578491Y-128620404D01*
X99387104Y-128427676D01*
X99161927Y-128275792D01*
X98911537Y-128170538D01*
X98645472Y-128115923D01*
X98373867Y-128114027D01*
X98366930Y-128115350D01*
X97886581Y-127635001D01*
X108116584Y-127635001D01*
X108162211Y-127883605D01*
X108262198Y-128136144D01*
X108409333Y-128364452D01*
X108598011Y-128559834D01*
X108821045Y-128714847D01*
X109069941Y-128823586D01*
X109335217Y-128881911D01*
X109606770Y-128887599D01*
X109874256Y-128840434D01*
X110127487Y-128742213D01*
X110356817Y-128596675D01*
X110553511Y-128409366D01*
X110570699Y-128385000D01*
X114000000Y-128385000D01*
X114081356Y-128377023D01*
X114162796Y-128369898D01*
X114167267Y-128368599D01*
X114171897Y-128368145D01*
X114250131Y-128344525D01*
X114328660Y-128321710D01*
X114332793Y-128319568D01*
X114337247Y-128318223D01*
X114409388Y-128279865D01*
X114482006Y-128242224D01*
X114485646Y-128239318D01*
X114489752Y-128237135D01*
X114553071Y-128185493D01*
X114616991Y-128134466D01*
X114623474Y-128128073D01*
X114623601Y-128127970D01*
X114623698Y-128127853D01*
X114625790Y-128125790D01*
X133375789Y-109375790D01*
X133427695Y-109312599D01*
X133480224Y-109249997D01*
X133482465Y-109245920D01*
X133485420Y-109242323D01*
X133524042Y-109170293D01*
X133563434Y-109098640D01*
X133564842Y-109094201D01*
X133567040Y-109090102D01*
X133590926Y-109011975D01*
X133615660Y-108934003D01*
X133616179Y-108929375D01*
X133617539Y-108924927D01*
X133625793Y-108843662D01*
X133634913Y-108762358D01*
X133634976Y-108753254D01*
X133634993Y-108753090D01*
X133634979Y-108752937D01*
X133634999Y-108750001D01*
X133634999Y-99249999D01*
X133627021Y-99168639D01*
X133619897Y-99087203D01*
X133618598Y-99082732D01*
X133618144Y-99078102D01*
X133594538Y-98999914D01*
X133571710Y-98921339D01*
X133569565Y-98917202D01*
X133568222Y-98912752D01*
X133529883Y-98840646D01*
X133492223Y-98767993D01*
X133489317Y-98764353D01*
X133487134Y-98760247D01*
X133435517Y-98696959D01*
X133384466Y-98633008D01*
X133381349Y-98629848D01*
X133385059Y-98364194D01*
X133332303Y-98097754D01*
X133228799Y-97846636D01*
X133078491Y-97620404D01*
X132887104Y-97427676D01*
X132661927Y-97275792D01*
X132530876Y-97220703D01*
X132625790Y-97125789D01*
X132677696Y-97062598D01*
X132730225Y-96999996D01*
X132732466Y-96995919D01*
X132735421Y-96992322D01*
X132774043Y-96920292D01*
X132813435Y-96848639D01*
X132814843Y-96844200D01*
X132817041Y-96840101D01*
X132840927Y-96761974D01*
X132865661Y-96684002D01*
X132866180Y-96679374D01*
X132867540Y-96674926D01*
X132875794Y-96593661D01*
X132884914Y-96512357D01*
X132884977Y-96503253D01*
X132884994Y-96503089D01*
X132884980Y-96502936D01*
X132885000Y-96500000D01*
X132885000Y-94500000D01*
X132877023Y-94418649D01*
X132869898Y-94337203D01*
X132868599Y-94332731D01*
X132868145Y-94328103D01*
X132844528Y-94249881D01*
X132821710Y-94171340D01*
X132819568Y-94167207D01*
X132818223Y-94162753D01*
X132779865Y-94090612D01*
X132742224Y-94017994D01*
X132739318Y-94014354D01*
X132737135Y-94010248D01*
X132685493Y-93946929D01*
X132634466Y-93883009D01*
X132628077Y-93876530D01*
X132627970Y-93876399D01*
X132627849Y-93876299D01*
X132625789Y-93874210D01*
X130625790Y-91874210D01*
X130562574Y-91822284D01*
X130499996Y-91769775D01*
X130495919Y-91767534D01*
X130492322Y-91764579D01*
X130420292Y-91725957D01*
X130348639Y-91686565D01*
X130344200Y-91685157D01*
X130340101Y-91682959D01*
X130261974Y-91659073D01*
X130184002Y-91634339D01*
X130179374Y-91633820D01*
X130174926Y-91632460D01*
X130093661Y-91624206D01*
X130012357Y-91615086D01*
X130003253Y-91615023D01*
X130003089Y-91615006D01*
X130002936Y-91615020D01*
X130000000Y-91615000D01*
X128573125Y-91615000D01*
X128387104Y-91427676D01*
X128161927Y-91275792D01*
X127911537Y-91170538D01*
X127645472Y-91115923D01*
X127373867Y-91114027D01*
X127107065Y-91164922D01*
X126855230Y-91266670D01*
X126627955Y-91415395D01*
X126433895Y-91605432D01*
X126280443Y-91829543D01*
X126173444Y-92079192D01*
X126116972Y-92344869D01*
X126113180Y-92616455D01*
X126162211Y-92883605D01*
X126262198Y-93136144D01*
X126409333Y-93364452D01*
X126598011Y-93559834D01*
X126615000Y-93571642D01*
X126615000Y-96633421D01*
X124874210Y-98374210D01*
X124822284Y-98437426D01*
X124769775Y-98500004D01*
X124767534Y-98504081D01*
X124764579Y-98507678D01*
X124725957Y-98579708D01*
X124686565Y-98651361D01*
X124685157Y-98655800D01*
X124682959Y-98659899D01*
X124659073Y-98738026D01*
X124634339Y-98815998D01*
X124633820Y-98820626D01*
X124632460Y-98825074D01*
X124624206Y-98906339D01*
X124615086Y-98987643D01*
X124615023Y-98996747D01*
X124615006Y-98996911D01*
X124615020Y-98997064D01*
X124615000Y-99000000D01*
X124615000Y-107756066D01*
X124411537Y-107670538D01*
X124145472Y-107615923D01*
X123873867Y-107614027D01*
X123607065Y-107664922D01*
X123355230Y-107766670D01*
X123127955Y-107915395D01*
X122933895Y-108105432D01*
X122780443Y-108329543D01*
X122673444Y-108579192D01*
X122616972Y-108844869D01*
X122613180Y-109116455D01*
X122616093Y-109132328D01*
X111133420Y-120615000D01*
X98000000Y-120615000D01*
X97918649Y-120622977D01*
X97837203Y-120630102D01*
X97832731Y-120631401D01*
X97828103Y-120631855D01*
X97749881Y-120655472D01*
X97671340Y-120678290D01*
X97667207Y-120680432D01*
X97662753Y-120681777D01*
X97590612Y-120720135D01*
X97517994Y-120757776D01*
X97514354Y-120760682D01*
X97510248Y-120762865D01*
X97446929Y-120814507D01*
X97383009Y-120865534D01*
X97376530Y-120871923D01*
X97376399Y-120872030D01*
X97376299Y-120872151D01*
X97374210Y-120874211D01*
X95633420Y-122615000D01*
X89866579Y-122615000D01*
X86930213Y-119678633D01*
X90871510Y-119678633D01*
X90920541Y-119945783D01*
X91020528Y-120198322D01*
X91167663Y-120426630D01*
X91356341Y-120622012D01*
X91579375Y-120777025D01*
X91828271Y-120885764D01*
X92093547Y-120944089D01*
X92365100Y-120949777D01*
X92632586Y-120902612D01*
X92885817Y-120804391D01*
X93115147Y-120658853D01*
X93311841Y-120471544D01*
X93468407Y-120249597D01*
X93578882Y-120001467D01*
X93639057Y-119736604D01*
X93643389Y-119426372D01*
X93590633Y-119159932D01*
X93487129Y-118908814D01*
X93336821Y-118682582D01*
X93145434Y-118489854D01*
X92920257Y-118337970D01*
X92669867Y-118232716D01*
X92403802Y-118178101D01*
X92132197Y-118176205D01*
X91865395Y-118227100D01*
X91613560Y-118328848D01*
X91386285Y-118477573D01*
X91192225Y-118667610D01*
X91038773Y-118891721D01*
X90931774Y-119141370D01*
X90875302Y-119407047D01*
X90871510Y-119678633D01*
X86930213Y-119678633D01*
X83930213Y-116678633D01*
X85675358Y-116678633D01*
X85724389Y-116945783D01*
X85824376Y-117198322D01*
X85971511Y-117426630D01*
X86160189Y-117622012D01*
X86383223Y-117777025D01*
X86632119Y-117885764D01*
X86897395Y-117944089D01*
X87168948Y-117949777D01*
X87436434Y-117902612D01*
X87689665Y-117804391D01*
X87918995Y-117658853D01*
X88115689Y-117471544D01*
X88272255Y-117249597D01*
X88382730Y-117001467D01*
X88442905Y-116736604D01*
X88447237Y-116426372D01*
X88394481Y-116159932D01*
X88290977Y-115908814D01*
X88140669Y-115682582D01*
X87949282Y-115489854D01*
X87724105Y-115337970D01*
X87473715Y-115232716D01*
X87207650Y-115178101D01*
X86936045Y-115176205D01*
X86669243Y-115227100D01*
X86417408Y-115328848D01*
X86190133Y-115477573D01*
X85996073Y-115667610D01*
X85842621Y-115891721D01*
X85735622Y-116141370D01*
X85679150Y-116407047D01*
X85675358Y-116678633D01*
X83930213Y-116678633D01*
X83625790Y-116374210D01*
X83595729Y-116349518D01*
X83710077Y-116187419D01*
X83820552Y-115939289D01*
X83880727Y-115674426D01*
X83885059Y-115364194D01*
X83832303Y-115097754D01*
X83728799Y-114846636D01*
X83578491Y-114620404D01*
X83387104Y-114427676D01*
X83161927Y-114275792D01*
X82911537Y-114170538D01*
X82645472Y-114115923D01*
X82373867Y-114114027D01*
X82107065Y-114164922D01*
X81855230Y-114266670D01*
X81627955Y-114415395D01*
X81433895Y-114605432D01*
X81385000Y-114676841D01*
X81385000Y-113000000D01*
X81377018Y-112918599D01*
X81369897Y-112837203D01*
X81368599Y-112832736D01*
X81368145Y-112828103D01*
X81344520Y-112749852D01*
X81321710Y-112671339D01*
X81319567Y-112667205D01*
X81318223Y-112662753D01*
X81279854Y-112590591D01*
X81242223Y-112517994D01*
X81239320Y-112514358D01*
X81237135Y-112510248D01*
X81185471Y-112446902D01*
X81134466Y-112383009D01*
X81128077Y-112376530D01*
X81127970Y-112376399D01*
X81127849Y-112376299D01*
X81125789Y-112374210D01*
X77625790Y-108874210D01*
X77562574Y-108822284D01*
X77499996Y-108769775D01*
X77495919Y-108767534D01*
X77492322Y-108764579D01*
X77420292Y-108725957D01*
X77348639Y-108686565D01*
X77344200Y-108685157D01*
X77340101Y-108682959D01*
X77261974Y-108659073D01*
X77184002Y-108634339D01*
X77179374Y-108633820D01*
X77174926Y-108632460D01*
X77093661Y-108624206D01*
X77012357Y-108615086D01*
X77003253Y-108615023D01*
X77003089Y-108615006D01*
X77002936Y-108615020D01*
X77000000Y-108615000D01*
X74136579Y-108615000D01*
X75125790Y-107625789D01*
X75177696Y-107562598D01*
X75230225Y-107499996D01*
X75232466Y-107495919D01*
X75235421Y-107492322D01*
X75274043Y-107420292D01*
X75313435Y-107348639D01*
X75314843Y-107344200D01*
X75317041Y-107340101D01*
X75340927Y-107261974D01*
X75365661Y-107184002D01*
X75366180Y-107179374D01*
X75367540Y-107174926D01*
X75375794Y-107093661D01*
X75384914Y-107012357D01*
X75384977Y-107003253D01*
X75384994Y-107003089D01*
X75384980Y-107002936D01*
X75385000Y-107000000D01*
X75385000Y-100253211D01*
X81866268Y-100253211D01*
X82260804Y-103770582D01*
X83331021Y-107144334D01*
X85036154Y-110245959D01*
X87311255Y-112957319D01*
X90069667Y-115175139D01*
X93206322Y-116814943D01*
X96601746Y-117814270D01*
X100126609Y-118135058D01*
X103646649Y-117765087D01*
X107027789Y-116718449D01*
X110141243Y-115035011D01*
X112868420Y-112778894D01*
X115105443Y-110036032D01*
X116767105Y-106910902D01*
X117790112Y-103522537D01*
X117829928Y-103116455D01*
X119613180Y-103116455D01*
X119662211Y-103383605D01*
X119762198Y-103636144D01*
X119909333Y-103864452D01*
X120098011Y-104059834D01*
X120321045Y-104214847D01*
X120569941Y-104323586D01*
X120835217Y-104381911D01*
X121106770Y-104387599D01*
X121374256Y-104340434D01*
X121627487Y-104242213D01*
X121856817Y-104096675D01*
X122053511Y-103909366D01*
X122210077Y-103687419D01*
X122320552Y-103439289D01*
X122380727Y-103174426D01*
X122385059Y-102864194D01*
X122332303Y-102597754D01*
X122228799Y-102346636D01*
X122078491Y-102120404D01*
X121887104Y-101927676D01*
X121661927Y-101775792D01*
X121411537Y-101670538D01*
X121145472Y-101615923D01*
X120873867Y-101614027D01*
X120607065Y-101664922D01*
X120355230Y-101766670D01*
X120127955Y-101915395D01*
X119933895Y-102105432D01*
X119780443Y-102329543D01*
X119673444Y-102579192D01*
X119616972Y-102844869D01*
X119613180Y-103116455D01*
X117829928Y-103116455D01*
X118135500Y-100000000D01*
X118128429Y-99493627D01*
X117828123Y-97116455D01*
X119613180Y-97116455D01*
X119662211Y-97383605D01*
X119762198Y-97636144D01*
X119909333Y-97864452D01*
X120098011Y-98059834D01*
X120321045Y-98214847D01*
X120569941Y-98323586D01*
X120835217Y-98381911D01*
X121106770Y-98387599D01*
X121374256Y-98340434D01*
X121627487Y-98242213D01*
X121856817Y-98096675D01*
X122053511Y-97909366D01*
X122210077Y-97687419D01*
X122320552Y-97439289D01*
X122380727Y-97174426D01*
X122385059Y-96864194D01*
X122332303Y-96597754D01*
X122228799Y-96346636D01*
X122078491Y-96120404D01*
X121887104Y-95927676D01*
X121661927Y-95775792D01*
X121411537Y-95670538D01*
X121145472Y-95615923D01*
X120873867Y-95614027D01*
X120607065Y-95664922D01*
X120355230Y-95766670D01*
X120127955Y-95915395D01*
X119933895Y-96105432D01*
X119780443Y-96329543D01*
X119673444Y-96579192D01*
X119616972Y-96844869D01*
X119613180Y-97116455D01*
X117828123Y-97116455D01*
X117684821Y-95982107D01*
X116567604Y-92623628D01*
X114819331Y-89546112D01*
X112506595Y-86866781D01*
X109717487Y-84687691D01*
X106558242Y-83091842D01*
X103149197Y-82140019D01*
X99620199Y-81868477D01*
X96105667Y-82287560D01*
X92739470Y-83381304D01*
X89649824Y-85108049D01*
X86954413Y-87402023D01*
X84755904Y-90175851D01*
X83138039Y-93323877D01*
X82162440Y-96726195D01*
X81866268Y-100253211D01*
X75385000Y-100253211D01*
X75385000Y-100100000D01*
X75377018Y-100018599D01*
X75369897Y-99937203D01*
X75368599Y-99932736D01*
X75368145Y-99928103D01*
X75344520Y-99849852D01*
X75321710Y-99771339D01*
X75319567Y-99767205D01*
X75318223Y-99762753D01*
X75279875Y-99690630D01*
X75242224Y-99617994D01*
X75239318Y-99614354D01*
X75237135Y-99610248D01*
X75185493Y-99546929D01*
X75134466Y-99483009D01*
X75128077Y-99476530D01*
X75127970Y-99476399D01*
X75127849Y-99476299D01*
X75125789Y-99474210D01*
X71268035Y-95616455D01*
X74113180Y-95616455D01*
X74162211Y-95883605D01*
X74262198Y-96136144D01*
X74409333Y-96364452D01*
X74598011Y-96559834D01*
X74821045Y-96714847D01*
X75069941Y-96823586D01*
X75335217Y-96881911D01*
X75606770Y-96887599D01*
X75874256Y-96840434D01*
X76127487Y-96742213D01*
X76356817Y-96596675D01*
X76553511Y-96409366D01*
X76710077Y-96187419D01*
X76820552Y-95939289D01*
X76880727Y-95674426D01*
X76885026Y-95366554D01*
X84325791Y-87925788D01*
X84377678Y-87862619D01*
X84430226Y-87799995D01*
X84432469Y-87795915D01*
X84435422Y-87792320D01*
X84474033Y-87720312D01*
X84513436Y-87648638D01*
X84514844Y-87644199D01*
X84517042Y-87640100D01*
X84540928Y-87561973D01*
X84565662Y-87484001D01*
X84566181Y-87479373D01*
X84567541Y-87474925D01*
X84575800Y-87393615D01*
X84584915Y-87312356D01*
X84584978Y-87303262D01*
X84584996Y-87303088D01*
X84584981Y-87302925D01*
X84585001Y-87299999D01*
X84585001Y-83666579D01*
X84764289Y-83487290D01*
X85470875Y-83487290D01*
X85519906Y-83754440D01*
X85619893Y-84006979D01*
X85767028Y-84235287D01*
X85955706Y-84430669D01*
X86178740Y-84585682D01*
X86427636Y-84694421D01*
X86692912Y-84752746D01*
X86964465Y-84758434D01*
X87231951Y-84711269D01*
X87485182Y-84613048D01*
X87714512Y-84467510D01*
X87911206Y-84280201D01*
X88067772Y-84058254D01*
X88178247Y-83810124D01*
X88238422Y-83545261D01*
X88242754Y-83235029D01*
X88189998Y-82968589D01*
X88086494Y-82717471D01*
X87936186Y-82491239D01*
X87744799Y-82298511D01*
X87519622Y-82146627D01*
X87269232Y-82041373D01*
X87003167Y-81986758D01*
X86731562Y-81984862D01*
X86464760Y-82035757D01*
X86212925Y-82137505D01*
X85985650Y-82286230D01*
X85791590Y-82476267D01*
X85638138Y-82700378D01*
X85531139Y-82950027D01*
X85474667Y-83215704D01*
X85470875Y-83487290D01*
X84764289Y-83487290D01*
X87764289Y-80487290D01*
X90667028Y-80487290D01*
X90716059Y-80754440D01*
X90816046Y-81006979D01*
X90963181Y-81235287D01*
X91151859Y-81430669D01*
X91374893Y-81585682D01*
X91623789Y-81694421D01*
X91889065Y-81752746D01*
X92160618Y-81758434D01*
X92428104Y-81711269D01*
X92681335Y-81613048D01*
X92910665Y-81467510D01*
X93107359Y-81280201D01*
X93263925Y-81058254D01*
X93374400Y-80810124D01*
X93434575Y-80545261D01*
X93438907Y-80235029D01*
X93386151Y-79968589D01*
X93282647Y-79717471D01*
X93132339Y-79491239D01*
X92940952Y-79298511D01*
X92715775Y-79146627D01*
X92465385Y-79041373D01*
X92199320Y-78986758D01*
X91927715Y-78984862D01*
X91660913Y-79035757D01*
X91409078Y-79137505D01*
X91181803Y-79286230D01*
X90987743Y-79476267D01*
X90834291Y-79700378D01*
X90727292Y-79950027D01*
X90670820Y-80215704D01*
X90667028Y-80487290D01*
X87764289Y-80487290D01*
X93368961Y-74882618D01*
X93606770Y-74887599D01*
X93874256Y-74840434D01*
X94127487Y-74742213D01*
X94356817Y-74596675D01*
X94553511Y-74409366D01*
X94710077Y-74187419D01*
X94820552Y-73939289D01*
X94880727Y-73674426D01*
X94885059Y-73364194D01*
X94832303Y-73097754D01*
X94728799Y-72846636D01*
X94578491Y-72620404D01*
X94387104Y-72427676D01*
X94161927Y-72275792D01*
X93911537Y-72170538D01*
X93645472Y-72115923D01*
X93373867Y-72114027D01*
X93107065Y-72164922D01*
X92855230Y-72266670D01*
X92627955Y-72415395D01*
X92433895Y-72605432D01*
X92280443Y-72829543D01*
X92173444Y-73079192D01*
X92116972Y-73344869D01*
X92113180Y-73616455D01*
X92116093Y-73632328D01*
X83074211Y-82674209D01*
X83022285Y-82737425D01*
X82969776Y-82800003D01*
X82967535Y-82804080D01*
X82964580Y-82807677D01*
X82925958Y-82879707D01*
X82886566Y-82951360D01*
X82885158Y-82955799D01*
X82882960Y-82959898D01*
X82859074Y-83038025D01*
X82834340Y-83115997D01*
X82833821Y-83120625D01*
X82832461Y-83125073D01*
X82824207Y-83206338D01*
X82815087Y-83287642D01*
X82815024Y-83296746D01*
X82815007Y-83296910D01*
X82815021Y-83297063D01*
X82815001Y-83299999D01*
X82815001Y-86933420D01*
X75632587Y-94115833D01*
X75373867Y-94114027D01*
X75107065Y-94164922D01*
X74855230Y-94266670D01*
X74627955Y-94415395D01*
X74433895Y-94605432D01*
X74280443Y-94829543D01*
X74173444Y-95079192D01*
X74116972Y-95344869D01*
X74113180Y-95616455D01*
X71268035Y-95616455D01*
X69881351Y-94229771D01*
X69885059Y-93964194D01*
X69832303Y-93697754D01*
X69728799Y-93446636D01*
X69578491Y-93220404D01*
X69387104Y-93027676D01*
X69161927Y-92875792D01*
X68911537Y-92770538D01*
X68645472Y-92715923D01*
X68373867Y-92714027D01*
X68107065Y-92764922D01*
X67855230Y-92866670D01*
X67627955Y-93015395D01*
X67433895Y-93205432D01*
X67280443Y-93429543D01*
X67173444Y-93679192D01*
X67116972Y-93944869D01*
X67113180Y-94216455D01*
X67162211Y-94483605D01*
X67262198Y-94736144D01*
X67409333Y-94964452D01*
X67598011Y-95159834D01*
X67821045Y-95314847D01*
X68069941Y-95423586D01*
X68335217Y-95481911D01*
X68606770Y-95487599D01*
X68631635Y-95483215D01*
X73615000Y-100466579D01*
X73615000Y-106633421D01*
X72132587Y-108115833D01*
X71873867Y-108114027D01*
X71607065Y-108164922D01*
X71355230Y-108266670D01*
X71127955Y-108415395D01*
X70933895Y-108605432D01*
X70780443Y-108829543D01*
X70673444Y-109079192D01*
X70616972Y-109344869D01*
X70613180Y-109616455D01*
X70662211Y-109883605D01*
X70762198Y-110136144D01*
X70909333Y-110364452D01*
X71098011Y-110559834D01*
X71115000Y-110571642D01*
X71115000Y-120500000D01*
X71122977Y-120581356D01*
X71130102Y-120662796D01*
X71131401Y-120667267D01*
X71131855Y-120671897D01*
X71155475Y-120750131D01*
X71178290Y-120828660D01*
X71180432Y-120832793D01*
X71181777Y-120837247D01*
X71220135Y-120909388D01*
X71257776Y-120982006D01*
X71260682Y-120985646D01*
X71262865Y-120989752D01*
X71314507Y-121053071D01*
X71365534Y-121116991D01*
X71371927Y-121123474D01*
X71372030Y-121123601D01*
X71372147Y-121123698D01*
X71374210Y-121125790D01*
X76374211Y-126125790D01*
X76437402Y-126177696D01*
X76500004Y-126230225D01*
X76504081Y-126232466D01*
X76507678Y-126235421D01*
X76579708Y-126274043D01*
X76651361Y-126313435D01*
X76655800Y-126314843D01*
X76659899Y-126317041D01*
X76738026Y-126340927D01*
X76815998Y-126365661D01*
X76820626Y-126366180D01*
X76825074Y-126367540D01*
X76906339Y-126375794D01*
X76987643Y-126384914D01*
X76996747Y-126384977D01*
X76996911Y-126384994D01*
X76997064Y-126384980D01*
X77000000Y-126385000D01*
X81929176Y-126385000D01*
X82098011Y-126559834D01*
X82321045Y-126714847D01*
X82569941Y-126823586D01*
X82835217Y-126881911D01*
X83106770Y-126887599D01*
X83374256Y-126840434D01*
X83627487Y-126742213D01*
X83856817Y-126596675D01*
X84053511Y-126409366D01*
X84210077Y-126187419D01*
X84320552Y-125939289D01*
X84380727Y-125674426D01*
X84385059Y-125364194D01*
X84332303Y-125097754D01*
X84228799Y-124846636D01*
X84078491Y-124620404D01*
X83887104Y-124427676D01*
X83661927Y-124275792D01*
X83411537Y-124170538D01*
X83145472Y-124115923D01*
X82873867Y-124114027D01*
X82607065Y-124164922D01*
X82355230Y-124266670D01*
X82127955Y-124415395D01*
X81933895Y-124605432D01*
X81927344Y-124615000D01*
X77366579Y-124615000D01*
X72885000Y-120133420D01*
X72885000Y-110569837D01*
X73053511Y-110409366D01*
X73070699Y-110385000D01*
X76633420Y-110385000D01*
X78864277Y-112615856D01*
X78607065Y-112664922D01*
X78355230Y-112766670D01*
X78127955Y-112915395D01*
X77933895Y-113105432D01*
X77780443Y-113329543D01*
X77673444Y-113579192D01*
X77616972Y-113844869D01*
X77613180Y-114116455D01*
X77662211Y-114383605D01*
X77762198Y-114636144D01*
X77909333Y-114864452D01*
X78098011Y-115059834D01*
X78115000Y-115071642D01*
X78115000Y-116000000D01*
X78122977Y-116081356D01*
X78130102Y-116162796D01*
X78131401Y-116167267D01*
X78131855Y-116171897D01*
X78155475Y-116250131D01*
X78163175Y-116276634D01*
X78161927Y-116275792D01*
X77911537Y-116170538D01*
X77645472Y-116115923D01*
X77373867Y-116114027D01*
X77107065Y-116164922D01*
X76855230Y-116266670D01*
X76627955Y-116415395D01*
X76433895Y-116605432D01*
X76280443Y-116829543D01*
X76173444Y-117079192D01*
X76116972Y-117344869D01*
X76113180Y-117616455D01*
X76162211Y-117883605D01*
X76262198Y-118136144D01*
X76409333Y-118364452D01*
X76598011Y-118559834D01*
X76821045Y-118714847D01*
X77069941Y-118823586D01*
X77335217Y-118881911D01*
X77606770Y-118887599D01*
X77632965Y-118882980D01*
X77687401Y-118927695D01*
X77750003Y-118980224D01*
X77754080Y-118982465D01*
X77757677Y-118985420D01*
X77829707Y-119024042D01*
X77901360Y-119063434D01*
X77905799Y-119064842D01*
X77909898Y-119067040D01*
X77988025Y-119090926D01*
X78065997Y-119115660D01*
X78070625Y-119116179D01*
X78075073Y-119117539D01*
X78156383Y-119125798D01*
X78237642Y-119134913D01*
X78246736Y-119134976D01*
X78246910Y-119134994D01*
X78247073Y-119134979D01*
X78249999Y-119134999D01*
X78883419Y-119134999D01*
X85615000Y-125866579D01*
X85615000Y-125928081D01*
X85433895Y-126105432D01*
X85280443Y-126329543D01*
X85173444Y-126579192D01*
X85134138Y-126764111D01*
X84911537Y-126670538D01*
X84645472Y-126615923D01*
X84373867Y-126614027D01*
X84107065Y-126664922D01*
X83855230Y-126766670D01*
X83627955Y-126915395D01*
X83433895Y-127105432D01*
X83280443Y-127329543D01*
X83173444Y-127579192D01*
X83116972Y-127844869D01*
X83113180Y-128116455D01*
X83116093Y-128132328D01*
X80874210Y-130374210D01*
X80822284Y-130437426D01*
X80769775Y-130500004D01*
X80767534Y-130504081D01*
X80764579Y-130507678D01*
X80725957Y-130579708D01*
X80686565Y-130651361D01*
X80685157Y-130655800D01*
X80682959Y-130659899D01*
X80659073Y-130738026D01*
X80634339Y-130815998D01*
X80633820Y-130820626D01*
X80632460Y-130825074D01*
X80624206Y-130906339D01*
X80615086Y-130987643D01*
X80615023Y-130996747D01*
X80615006Y-130996911D01*
X80615020Y-130997064D01*
X80615000Y-131000000D01*
X80615000Y-133000000D01*
X80622977Y-133081356D01*
X80630102Y-133162796D01*
X80631401Y-133167267D01*
X80631855Y-133171897D01*
X80655475Y-133250131D01*
X80678290Y-133328660D01*
X80680432Y-133332793D01*
X80681777Y-133337247D01*
X80720135Y-133409388D01*
X80757776Y-133482006D01*
X80760682Y-133485646D01*
X80762865Y-133489752D01*
X80814507Y-133553071D01*
X80853518Y-133601939D01*
X69385000Y-122133420D01*
X69385000Y-108866580D01*
X69868962Y-108382618D01*
X70106770Y-108387599D01*
X70374256Y-108340434D01*
X70627487Y-108242213D01*
X70856817Y-108096675D01*
X71053511Y-107909366D01*
X71210077Y-107687419D01*
X71320552Y-107439289D01*
X71380727Y-107174426D01*
X71385059Y-106864194D01*
X71332303Y-106597754D01*
X71228799Y-106346636D01*
X71078491Y-106120404D01*
X70887104Y-105927676D01*
X70661927Y-105775792D01*
X70411537Y-105670538D01*
X70145472Y-105615923D01*
X69873867Y-105614027D01*
X69607065Y-105664922D01*
X69355230Y-105766670D01*
X69127955Y-105915395D01*
X68933895Y-106105432D01*
X68780443Y-106329543D01*
X68673444Y-106579192D01*
X68616972Y-106844869D01*
X68613180Y-107116455D01*
X68616093Y-107132327D01*
X67874210Y-107874210D01*
X67822284Y-107937426D01*
X67769775Y-108000004D01*
X67767534Y-108004081D01*
X67764579Y-108007678D01*
X67725957Y-108079708D01*
X67686565Y-108151361D01*
X67685157Y-108155800D01*
X67682959Y-108159899D01*
X67659073Y-108238026D01*
X67634339Y-108315998D01*
X67633820Y-108320626D01*
X67632460Y-108325074D01*
X67624206Y-108406339D01*
X67615086Y-108487643D01*
X67615023Y-108496747D01*
X67615006Y-108496911D01*
X67615020Y-108497064D01*
X67615000Y-108500000D01*
X67615000Y-121863420D01*
X63385000Y-117633420D01*
X63385000Y-91866580D01*
X64135124Y-91116455D01*
X73613180Y-91116455D01*
X73662211Y-91383605D01*
X73762198Y-91636144D01*
X73909333Y-91864452D01*
X74098011Y-92059834D01*
X74321045Y-92214847D01*
X74569941Y-92323586D01*
X74835217Y-92381911D01*
X75106770Y-92387599D01*
X75374256Y-92340434D01*
X75627487Y-92242213D01*
X75856817Y-92096675D01*
X76053511Y-91909366D01*
X76210077Y-91687419D01*
X76320552Y-91439289D01*
X76380727Y-91174426D01*
X76385026Y-90866554D01*
X81125790Y-86125789D01*
X81177677Y-86062620D01*
X81230225Y-85999996D01*
X81232468Y-85995916D01*
X81235421Y-85992321D01*
X81274032Y-85920313D01*
X81313435Y-85848639D01*
X81314843Y-85844200D01*
X81317041Y-85840101D01*
X81340927Y-85761974D01*
X81365661Y-85684002D01*
X81366180Y-85679374D01*
X81367540Y-85674926D01*
X81375799Y-85593616D01*
X81384914Y-85512357D01*
X81384977Y-85503263D01*
X81384995Y-85503089D01*
X81384980Y-85502926D01*
X81385000Y-85500000D01*
X81385000Y-85069837D01*
X81553511Y-84909366D01*
X81710077Y-84687419D01*
X81820552Y-84439289D01*
X81880727Y-84174426D01*
X81885059Y-83864194D01*
X81832303Y-83597754D01*
X81728799Y-83346636D01*
X81578491Y-83120404D01*
X81387104Y-82927676D01*
X81385000Y-82926257D01*
X81385000Y-81366580D01*
X87125789Y-75625790D01*
X87177669Y-75562630D01*
X87230225Y-75499996D01*
X87232468Y-75495915D01*
X87235420Y-75492322D01*
X87274013Y-75420347D01*
X87313435Y-75348639D01*
X87314844Y-75344198D01*
X87317040Y-75340102D01*
X87340917Y-75262006D01*
X87365661Y-75184002D01*
X87366180Y-75179374D01*
X87367540Y-75174926D01*
X87375795Y-75093656D01*
X87384914Y-75012357D01*
X87384977Y-75003254D01*
X87384994Y-75003090D01*
X87384980Y-75002937D01*
X87385000Y-75000000D01*
X87385000Y-74069837D01*
X87553511Y-73909366D01*
X87710077Y-73687419D01*
X87820552Y-73439289D01*
X87880727Y-73174426D01*
X87885059Y-72864194D01*
X87832303Y-72597754D01*
X87728799Y-72346636D01*
X87578491Y-72120404D01*
X87387104Y-71927676D01*
X87161927Y-71775792D01*
X86911537Y-71670538D01*
X86645472Y-71615923D01*
X86373867Y-71614027D01*
X86107065Y-71664922D01*
X85855230Y-71766670D01*
X85627955Y-71915395D01*
X85433895Y-72105432D01*
X85280443Y-72329543D01*
X85173444Y-72579192D01*
X85116972Y-72844869D01*
X85113180Y-73116455D01*
X85162211Y-73383605D01*
X85262198Y-73636144D01*
X85409333Y-73864452D01*
X85598011Y-74059834D01*
X85615000Y-74071642D01*
X85615000Y-74633421D01*
X79874210Y-80374210D01*
X79822284Y-80437426D01*
X79769775Y-80500004D01*
X79767534Y-80504081D01*
X79764579Y-80507678D01*
X79725957Y-80579708D01*
X79686565Y-80651361D01*
X79685157Y-80655800D01*
X79682959Y-80659899D01*
X79659073Y-80738026D01*
X79634339Y-80815998D01*
X79633820Y-80820626D01*
X79632460Y-80825074D01*
X79624206Y-80906339D01*
X79615086Y-80987643D01*
X79615023Y-80996747D01*
X79615006Y-80996911D01*
X79615020Y-80997064D01*
X79615000Y-81000000D01*
X79615000Y-82928081D01*
X79433895Y-83105432D01*
X79280443Y-83329543D01*
X79173444Y-83579192D01*
X79116972Y-83844869D01*
X79113180Y-84116455D01*
X79162211Y-84383605D01*
X79262198Y-84636144D01*
X79409333Y-84864452D01*
X79598011Y-85059834D01*
X79615000Y-85071642D01*
X79615000Y-85133421D01*
X75132587Y-89615833D01*
X74873867Y-89614027D01*
X74607065Y-89664922D01*
X74355230Y-89766670D01*
X74127955Y-89915395D01*
X73933895Y-90105432D01*
X73780443Y-90329543D01*
X73673444Y-90579192D01*
X73616972Y-90844869D01*
X73613180Y-91116455D01*
X64135124Y-91116455D01*
X84866579Y-70385000D01*
X85929176Y-70385000D01*
X86098011Y-70559834D01*
X86321045Y-70714847D01*
X86569941Y-70823586D01*
X86835217Y-70881911D01*
X87106770Y-70887599D01*
X87374256Y-70840434D01*
X87627487Y-70742213D01*
X87856817Y-70596675D01*
X88053511Y-70409366D01*
X88210077Y-70187419D01*
X88320552Y-69939289D01*
X88380727Y-69674426D01*
X88385059Y-69364194D01*
X88332303Y-69097754D01*
X88228799Y-68846636D01*
X88078491Y-68620404D01*
X87887104Y-68427676D01*
X87661927Y-68275792D01*
X87411537Y-68170538D01*
X87145472Y-68115923D01*
X86873867Y-68114027D01*
X86607065Y-68164922D01*
X86355230Y-68266670D01*
X86127955Y-68415395D01*
X85933895Y-68605432D01*
X85927344Y-68615000D01*
X84500000Y-68615000D01*
X84418599Y-68622982D01*
X84337203Y-68630103D01*
X84332736Y-68631401D01*
X84328103Y-68631855D01*
X84249852Y-68655480D01*
X84171339Y-68678290D01*
X84167205Y-68680433D01*
X84162753Y-68681777D01*
X84090630Y-68720125D01*
X84017994Y-68757776D01*
X84014354Y-68760682D01*
X84010248Y-68762865D01*
X83946929Y-68814507D01*
X83883009Y-68865534D01*
X83876530Y-68871923D01*
X83876399Y-68872030D01*
X83876299Y-68872151D01*
X83874210Y-68874211D01*
X61874210Y-90874210D01*
X61822284Y-90937426D01*
X61769775Y-91000004D01*
X61767534Y-91004081D01*
X61764579Y-91007678D01*
X61725957Y-91079708D01*
X61686565Y-91151361D01*
X61685157Y-91155800D01*
X61682959Y-91159899D01*
X61659073Y-91238026D01*
X61634339Y-91315998D01*
X61633820Y-91320626D01*
X61632460Y-91325074D01*
X61624206Y-91406339D01*
X61615086Y-91487643D01*
X61615023Y-91496747D01*
X61615006Y-91496911D01*
X61615020Y-91497064D01*
X61615000Y-91500000D01*
X58135500Y-91500000D01*
X58135500Y-65029816D01*
X62864708Y-65029816D01*
X62911166Y-65443995D01*
X63037186Y-65841263D01*
X63237970Y-66206487D01*
X63505869Y-66525756D01*
X63830679Y-66786910D01*
X64200028Y-66980001D01*
X64599847Y-67097674D01*
X65014908Y-67135448D01*
X65429402Y-67091883D01*
X65827540Y-66968639D01*
X66194156Y-66770410D01*
X66515288Y-66504746D01*
X66778703Y-66181768D01*
X66974368Y-65813776D01*
X67094830Y-65414787D01*
X67132576Y-65029816D01*
X132864708Y-65029816D01*
X132911166Y-65443995D01*
X133037186Y-65841263D01*
X133237970Y-66206487D01*
X133505869Y-66525756D01*
X133830679Y-66786910D01*
X134200028Y-66980001D01*
X134599847Y-67097674D01*
X135014908Y-67135448D01*
X135429402Y-67091883D01*
X135827540Y-66968639D01*
X136194156Y-66770410D01*
X136515288Y-66504746D01*
X136778703Y-66181768D01*
X136974368Y-65813776D01*
X137094830Y-65414787D01*
X137135500Y-65000000D01*
X137134667Y-64940373D01*
X137082431Y-64526883D01*
X136950876Y-64131414D01*
X136745013Y-63769029D01*
X136472683Y-63453531D01*
X136144258Y-63196938D01*
X135772249Y-63009023D01*
X135370826Y-62896943D01*
X134955277Y-62864968D01*
X134541433Y-62914316D01*
X134145055Y-63043107D01*
X133781241Y-63246436D01*
X133463850Y-63516557D01*
X133204970Y-63843182D01*
X133014462Y-64213870D01*
X132899583Y-64614501D01*
X132864708Y-65029816D01*
X67132576Y-65029816D01*
X67135500Y-65000000D01*
X67134667Y-64940373D01*
X67082431Y-64526883D01*
X66950876Y-64131414D01*
X66745013Y-63769029D01*
X66472683Y-63453531D01*
X66144258Y-63196938D01*
X65772249Y-63009023D01*
X65370826Y-62896943D01*
X64955277Y-62864968D01*
X64541433Y-62914316D01*
X64145055Y-63043107D01*
X63781241Y-63246436D01*
X63463850Y-63516557D01*
X63204970Y-63843182D01*
X63014462Y-64213870D01*
X62899583Y-64614501D01*
X62864708Y-65029816D01*
X58135500Y-65029816D01*
X58135500Y-58165000D01*
X65000714Y-58165000D01*
X65000714Y-62135000D01*
X67999285Y-62135000D01*
X67999285Y-58165000D01*
X65000714Y-58165000D01*
X58135500Y-58165000D01*
X58135500Y-58135500D01*
X141864500Y-58135500D01*
X141864500Y-141864500D01*
G36*
X85678290Y-128828660D02*
X85680432Y-128832793D01*
X85681777Y-128837247D01*
X85720123Y-128909366D01*
X85757776Y-128982006D01*
X85760682Y-128985646D01*
X85762865Y-128989752D01*
X85814507Y-129053071D01*
X85865534Y-129116991D01*
X85871927Y-129123474D01*
X85872030Y-129123601D01*
X85872147Y-129123698D01*
X85874210Y-129125790D01*
X86760926Y-130012505D01*
X86760247Y-130012866D01*
X86696959Y-130064483D01*
X86633008Y-130115534D01*
X86632704Y-130115834D01*
X86373867Y-130114027D01*
X86107065Y-130164922D01*
X85855230Y-130266670D01*
X85627955Y-130415395D01*
X85433895Y-130605432D01*
X85280443Y-130829543D01*
X85173444Y-131079192D01*
X85116972Y-131344869D01*
X85113180Y-131616455D01*
X85162211Y-131883605D01*
X85262198Y-132136144D01*
X85409333Y-132364452D01*
X85598011Y-132559834D01*
X85821045Y-132714847D01*
X86069941Y-132823586D01*
X86335217Y-132881911D01*
X86606770Y-132887599D01*
X86874256Y-132840434D01*
X87127487Y-132742213D01*
X87356817Y-132596675D01*
X87553511Y-132409366D01*
X87710077Y-132187419D01*
X87820552Y-131939289D01*
X87880727Y-131674426D01*
X87881278Y-131635001D01*
X90749999Y-131635001D01*
X90831355Y-131627024D01*
X90912795Y-131619899D01*
X90917266Y-131618600D01*
X90921896Y-131618146D01*
X91000130Y-131594526D01*
X91078659Y-131571711D01*
X91082792Y-131569569D01*
X91087246Y-131568224D01*
X91159387Y-131529866D01*
X91232005Y-131492225D01*
X91235645Y-131489319D01*
X91239751Y-131487136D01*
X91303070Y-131435494D01*
X91366990Y-131384467D01*
X91373473Y-131378074D01*
X91373600Y-131377971D01*
X91373697Y-131377854D01*
X91375789Y-131375791D01*
X93926579Y-128825000D01*
X96573420Y-128825000D01*
X97116646Y-129368225D01*
X97113180Y-129616455D01*
X97162211Y-129883605D01*
X97253827Y-130115000D01*
X95000000Y-130115000D01*
X94918640Y-130122978D01*
X94837204Y-130130102D01*
X94832733Y-130131401D01*
X94828103Y-130131855D01*
X94749915Y-130155461D01*
X94671340Y-130178289D01*
X94667203Y-130180434D01*
X94662753Y-130181777D01*
X94590627Y-130220127D01*
X94517995Y-130257776D01*
X94514357Y-130260680D01*
X94510248Y-130262865D01*
X94446938Y-130314500D01*
X94383009Y-130365533D01*
X94376528Y-130371924D01*
X94376399Y-130372030D01*
X94376300Y-130372150D01*
X94374211Y-130374210D01*
X91633420Y-133115000D01*
X82866579Y-133115000D01*
X82385000Y-132633420D01*
X82385000Y-131366580D01*
X84368961Y-129382618D01*
X84606770Y-129387599D01*
X84874256Y-129340434D01*
X85127487Y-129242213D01*
X85356817Y-129096675D01*
X85553511Y-128909366D01*
X85658498Y-128760537D01*
X85678290Y-128828660D01*
X85678290Y-128828660D01*
G37*
X85678290Y-128828660D02*
X85680432Y-128832793D01*
X85681777Y-128837247D01*
X85720123Y-128909366D01*
X85757776Y-128982006D01*
X85760682Y-128985646D01*
X85762865Y-128989752D01*
X85814507Y-129053071D01*
X85865534Y-129116991D01*
X85871927Y-129123474D01*
X85872030Y-129123601D01*
X85872147Y-129123698D01*
X85874210Y-129125790D01*
X86760926Y-130012505D01*
X86760247Y-130012866D01*
X86696959Y-130064483D01*
X86633008Y-130115534D01*
X86632704Y-130115834D01*
X86373867Y-130114027D01*
X86107065Y-130164922D01*
X85855230Y-130266670D01*
X85627955Y-130415395D01*
X85433895Y-130605432D01*
X85280443Y-130829543D01*
X85173444Y-131079192D01*
X85116972Y-131344869D01*
X85113180Y-131616455D01*
X85162211Y-131883605D01*
X85262198Y-132136144D01*
X85409333Y-132364452D01*
X85598011Y-132559834D01*
X85821045Y-132714847D01*
X86069941Y-132823586D01*
X86335217Y-132881911D01*
X86606770Y-132887599D01*
X86874256Y-132840434D01*
X87127487Y-132742213D01*
X87356817Y-132596675D01*
X87553511Y-132409366D01*
X87710077Y-132187419D01*
X87820552Y-131939289D01*
X87880727Y-131674426D01*
X87881278Y-131635001D01*
X90749999Y-131635001D01*
X90831355Y-131627024D01*
X90912795Y-131619899D01*
X90917266Y-131618600D01*
X90921896Y-131618146D01*
X91000130Y-131594526D01*
X91078659Y-131571711D01*
X91082792Y-131569569D01*
X91087246Y-131568224D01*
X91159387Y-131529866D01*
X91232005Y-131492225D01*
X91235645Y-131489319D01*
X91239751Y-131487136D01*
X91303070Y-131435494D01*
X91366990Y-131384467D01*
X91373473Y-131378074D01*
X91373600Y-131377971D01*
X91373697Y-131377854D01*
X91375789Y-131375791D01*
X93926579Y-128825000D01*
X96573420Y-128825000D01*
X97116646Y-129368225D01*
X97113180Y-129616455D01*
X97162211Y-129883605D01*
X97253827Y-130115000D01*
X95000000Y-130115000D01*
X94918640Y-130122978D01*
X94837204Y-130130102D01*
X94832733Y-130131401D01*
X94828103Y-130131855D01*
X94749915Y-130155461D01*
X94671340Y-130178289D01*
X94667203Y-130180434D01*
X94662753Y-130181777D01*
X94590627Y-130220127D01*
X94517995Y-130257776D01*
X94514357Y-130260680D01*
X94510248Y-130262865D01*
X94446938Y-130314500D01*
X94383009Y-130365533D01*
X94376528Y-130371924D01*
X94376399Y-130372030D01*
X94376300Y-130372150D01*
X94374211Y-130374210D01*
X91633420Y-133115000D01*
X82866579Y-133115000D01*
X82385000Y-132633420D01*
X82385000Y-131366580D01*
X84368961Y-129382618D01*
X84606770Y-129387599D01*
X84874256Y-129340434D01*
X85127487Y-129242213D01*
X85356817Y-129096675D01*
X85553511Y-128909366D01*
X85658498Y-128760537D01*
X85678290Y-128828660D01*
G36*
X128822284Y-98437426D02*
X128769775Y-98500004D01*
X128767534Y-98504081D01*
X128764579Y-98507678D01*
X128725957Y-98579708D01*
X128686565Y-98651361D01*
X128685157Y-98655800D01*
X128682959Y-98659899D01*
X128659073Y-98738026D01*
X128634339Y-98815998D01*
X128633820Y-98820626D01*
X128632460Y-98825074D01*
X128624206Y-98906339D01*
X128615086Y-98987643D01*
X128615023Y-98996747D01*
X128615006Y-98996911D01*
X128615020Y-98997064D01*
X128615000Y-99000000D01*
X128615000Y-101000000D01*
X128622977Y-101081356D01*
X128630102Y-101162796D01*
X128631401Y-101167267D01*
X128631855Y-101171897D01*
X128655475Y-101250131D01*
X128678290Y-101328660D01*
X128680432Y-101332793D01*
X128681777Y-101337247D01*
X128720135Y-101409388D01*
X128757776Y-101482006D01*
X128760682Y-101485646D01*
X128762865Y-101489752D01*
X128814507Y-101553071D01*
X128865534Y-101616991D01*
X128871927Y-101623474D01*
X128872030Y-101623601D01*
X128872147Y-101623698D01*
X128874210Y-101625790D01*
X129116646Y-101868226D01*
X129113180Y-102116455D01*
X129162211Y-102383605D01*
X129262198Y-102636144D01*
X129409333Y-102864452D01*
X129598011Y-103059834D01*
X129821045Y-103214847D01*
X130069941Y-103323586D01*
X130335217Y-103381911D01*
X130606770Y-103387599D01*
X130874256Y-103340434D01*
X131127487Y-103242213D01*
X131356817Y-103096675D01*
X131553511Y-102909366D01*
X131710077Y-102687419D01*
X131820552Y-102439289D01*
X131864999Y-102243654D01*
X131864999Y-108383422D01*
X113633420Y-126615000D01*
X110573125Y-126615000D01*
X110387104Y-126427676D01*
X110323834Y-126385000D01*
X112000000Y-126385000D01*
X112081356Y-126377023D01*
X112162796Y-126369898D01*
X112167267Y-126368599D01*
X112171897Y-126368145D01*
X112250131Y-126344525D01*
X112328660Y-126321710D01*
X112332793Y-126319568D01*
X112337247Y-126318223D01*
X112409388Y-126279865D01*
X112482006Y-126242224D01*
X112485646Y-126239318D01*
X112489752Y-126237135D01*
X112553071Y-126185493D01*
X112616991Y-126134466D01*
X112623474Y-126128073D01*
X112623601Y-126127970D01*
X112623698Y-126127853D01*
X112625790Y-126125790D01*
X127125790Y-111625789D01*
X127177677Y-111562620D01*
X127230225Y-111499996D01*
X127232468Y-111495916D01*
X127235421Y-111492321D01*
X127274032Y-111420313D01*
X127313435Y-111348639D01*
X127314843Y-111344200D01*
X127317041Y-111340101D01*
X127340927Y-111261974D01*
X127365661Y-111184002D01*
X127366180Y-111179374D01*
X127367540Y-111174926D01*
X127375799Y-111093616D01*
X127384914Y-111012357D01*
X127384977Y-111003263D01*
X127384995Y-111003089D01*
X127384980Y-111002926D01*
X127385000Y-111000000D01*
X127385000Y-99866580D01*
X128859679Y-98391901D01*
X128822284Y-98437426D01*
X128822284Y-98437426D01*
G37*
X128822284Y-98437426D02*
X128769775Y-98500004D01*
X128767534Y-98504081D01*
X128764579Y-98507678D01*
X128725957Y-98579708D01*
X128686565Y-98651361D01*
X128685157Y-98655800D01*
X128682959Y-98659899D01*
X128659073Y-98738026D01*
X128634339Y-98815998D01*
X128633820Y-98820626D01*
X128632460Y-98825074D01*
X128624206Y-98906339D01*
X128615086Y-98987643D01*
X128615023Y-98996747D01*
X128615006Y-98996911D01*
X128615020Y-98997064D01*
X128615000Y-99000000D01*
X128615000Y-101000000D01*
X128622977Y-101081356D01*
X128630102Y-101162796D01*
X128631401Y-101167267D01*
X128631855Y-101171897D01*
X128655475Y-101250131D01*
X128678290Y-101328660D01*
X128680432Y-101332793D01*
X128681777Y-101337247D01*
X128720135Y-101409388D01*
X128757776Y-101482006D01*
X128760682Y-101485646D01*
X128762865Y-101489752D01*
X128814507Y-101553071D01*
X128865534Y-101616991D01*
X128871927Y-101623474D01*
X128872030Y-101623601D01*
X128872147Y-101623698D01*
X128874210Y-101625790D01*
X129116646Y-101868226D01*
X129113180Y-102116455D01*
X129162211Y-102383605D01*
X129262198Y-102636144D01*
X129409333Y-102864452D01*
X129598011Y-103059834D01*
X129821045Y-103214847D01*
X130069941Y-103323586D01*
X130335217Y-103381911D01*
X130606770Y-103387599D01*
X130874256Y-103340434D01*
X131127487Y-103242213D01*
X131356817Y-103096675D01*
X131553511Y-102909366D01*
X131710077Y-102687419D01*
X131820552Y-102439289D01*
X131864999Y-102243654D01*
X131864999Y-108383422D01*
X113633420Y-126615000D01*
X110573125Y-126615000D01*
X110387104Y-126427676D01*
X110323834Y-126385000D01*
X112000000Y-126385000D01*
X112081356Y-126377023D01*
X112162796Y-126369898D01*
X112167267Y-126368599D01*
X112171897Y-126368145D01*
X112250131Y-126344525D01*
X112328660Y-126321710D01*
X112332793Y-126319568D01*
X112337247Y-126318223D01*
X112409388Y-126279865D01*
X112482006Y-126242224D01*
X112485646Y-126239318D01*
X112489752Y-126237135D01*
X112553071Y-126185493D01*
X112616991Y-126134466D01*
X112623474Y-126128073D01*
X112623601Y-126127970D01*
X112623698Y-126127853D01*
X112625790Y-126125790D01*
X127125790Y-111625789D01*
X127177677Y-111562620D01*
X127230225Y-111499996D01*
X127232468Y-111495916D01*
X127235421Y-111492321D01*
X127274032Y-111420313D01*
X127313435Y-111348639D01*
X127314843Y-111344200D01*
X127317041Y-111340101D01*
X127340927Y-111261974D01*
X127365661Y-111184002D01*
X127366180Y-111179374D01*
X127367540Y-111174926D01*
X127375799Y-111093616D01*
X127384914Y-111012357D01*
X127384977Y-111003263D01*
X127384995Y-111003089D01*
X127384980Y-111002926D01*
X127385000Y-111000000D01*
X127385000Y-99866580D01*
X128859679Y-98391901D01*
X128822284Y-98437426D01*
M02*
