M48
METRIC,TZ
T1C0.200
%
G90
G05
T1
X68500Y-94100
X70000Y-107000
X72000Y-109500
X75000Y-91000
X75500Y-95500
X77500Y-117500
X79000Y-114000
X80000Y-123000
X80500Y-84000
X82000Y-82000
X82500Y-115500
X83000Y-125500
X84500Y-128000
X86500Y-73000
X86500Y-127000
X86500Y-131500
X87000Y-69500
X88500Y-127500
X89500Y-132500
X90000Y-71000
X93500Y-73500
X95500Y-122000
X96000Y-129500
X96000Y-133000
X98500Y-123000
X98500Y-129500
X101000Y-134500
X108000Y-125500
X109500Y-127500
X116500Y-133665
X120000Y-137500
X124000Y-109000
X124500Y-93000
X127500Y-92500
X128000Y-107000
X130500Y-95500
X130500Y-102000
X131000Y-106000
X132000Y-98500
T0
M30
