M48
METRIC,TZ
T1C0.200
T2C3.200
%
G90
G05
T1
X61500Y-81000
X63000Y-98750
X63000Y-104000
X63000Y-108000
X63000Y-126250
X66000Y-96250
X66250Y-113000
X68000Y-129500
X68000Y-115000
X69500Y-98000
X69500Y-125500
X70000Y-101000
X72250Y-110500
X75000Y-88000
X75000Y-118000
X75600Y-96500
X77500Y-119500
X77900Y-64100
X78000Y-93000
X79575Y-134500
X80100Y-63891
X82500Y-65000
X82528Y-132472
X83500Y-134500
X84000Y-66500
X85500Y-65000
X86000Y-135500
X88000Y-135500
X92000Y-76500
X92500Y-136900
X111464Y-74663
X113232Y-66531
X113750Y-75250
X119250Y-76500
X124000Y-62500
X124250Y-72500
X128000Y-82500
X131000Y-109500
X132500Y-90000
X132500Y-111750
X134000Y-100000
X135500Y-98500
X135500Y-101500
X136500Y-94000
X136750Y-95750
X138000Y-90000
T2
X65000Y-65000
X65000Y-135000
X86858Y-83371
X87062Y-116562
X92054Y-80371
X92258Y-119562
X100000Y-65000
X100000Y-135000
X121000Y-97000
X121000Y-103000
X135000Y-65000
X135000Y-135000
T0
M30
