G04 #@! TF.FileFunction,Soldermask,Bot*
%FSLAX46Y46*%
G04 Gerber Fmt 4.6, Leading zero omitted, Abs format (unit mm)*
G04 Created by KiCad (PCBNEW 4.0.2-stable) date Mon 19 Sep 2016 06:41:33 PM CEST*
%MOMM*%
G01*
G04 APERTURE LIST*
%ADD10C,0.100000*%
%ADD11C,3.000000*%
%ADD12C,0.250000*%
%ADD13C,0.200000*%
G04 APERTURE END LIST*
D10*
D11*
X118000000Y-100000000D02*
G75*
G03X118000000Y-100000000I-18000000J0D01*
G01*
D12*
X70000000Y-110500000D02*
X70000000Y-112500000D01*
X128000000Y-101600000D02*
X130000000Y-101600000D01*
X132500000Y-101600000D02*
X130500000Y-101600000D01*
X132500000Y-98400000D02*
X130500000Y-98400000D01*
X128000000Y-98400000D02*
X130000000Y-98400000D01*
X85500000Y-73000000D02*
X85500000Y-71000000D01*
X85500000Y-68500000D02*
X85500000Y-70500000D01*
X82400000Y-68500000D02*
X82400000Y-70500000D01*
X82400000Y-73000000D02*
X82400000Y-71000000D01*
X80400000Y-127000000D02*
X80400000Y-129000000D01*
X80400000Y-131500000D02*
X80400000Y-129500000D01*
X83600000Y-131500000D02*
X83600000Y-129500000D01*
X83600000Y-127000000D02*
X83600000Y-129000000D01*
X117651651Y-67415107D02*
X116237437Y-66000893D01*
X119419418Y-69182874D02*
X118005204Y-67768660D01*
X121187185Y-70950641D02*
X119772971Y-69536427D01*
X82000000Y-118000000D02*
X82000000Y-120000000D01*
X95000000Y-77000000D02*
X93000000Y-77000000D01*
X122000000Y-109000000D02*
X122000000Y-107000000D01*
D13*
X84300000Y-132400000D02*
X84300000Y-133400000D01*
X81900000Y-67100000D02*
X81900000Y-66100000D01*
X133500000Y-98000000D02*
X134500000Y-98000000D01*
D10*
G36*
X85000000Y-138250000D02*
X83400000Y-138250000D01*
X83400000Y-135750000D01*
X85000000Y-135750000D01*
X85000000Y-138250000D01*
X85000000Y-138250000D01*
G37*
G36*
X80600000Y-138250000D02*
X79000000Y-138250000D01*
X79000000Y-135750000D01*
X80600000Y-135750000D01*
X80600000Y-138250000D01*
X80600000Y-138250000D01*
G37*
G36*
X90600000Y-138225000D02*
X89400000Y-138225000D01*
X89400000Y-136775000D01*
X90600000Y-136775000D01*
X90600000Y-138225000D01*
X90600000Y-138225000D01*
G37*
G36*
X88600000Y-138225000D02*
X87400000Y-138225000D01*
X87400000Y-136775000D01*
X88600000Y-136775000D01*
X88600000Y-138225000D01*
X88600000Y-138225000D01*
G37*
G36*
X76100000Y-137725000D02*
X74900000Y-137725000D01*
X74900000Y-136275000D01*
X76100000Y-136275000D01*
X76100000Y-137725000D01*
X76100000Y-137725000D01*
G37*
G36*
X78100000Y-137725000D02*
X76900000Y-137725000D01*
X76900000Y-136275000D01*
X78100000Y-136275000D01*
X78100000Y-137725000D01*
X78100000Y-137725000D01*
G37*
G36*
X135220572Y-132901396D02*
X135623992Y-132984206D01*
X136003642Y-133143796D01*
X136345070Y-133374092D01*
X136635259Y-133666314D01*
X136863164Y-134009341D01*
X137020100Y-134390094D01*
X137100006Y-134793653D01*
X137100006Y-134793659D01*
X137100090Y-134794084D01*
X137093522Y-135264473D01*
X137093427Y-135264890D01*
X137093427Y-135264902D01*
X137002283Y-135666070D01*
X136834776Y-136042297D01*
X136597382Y-136378826D01*
X136299148Y-136662830D01*
X135951423Y-136883503D01*
X135567463Y-137032432D01*
X135161891Y-137103945D01*
X134750150Y-137095319D01*
X134347926Y-137006885D01*
X133970534Y-136842006D01*
X133632362Y-136606972D01*
X133346278Y-136310722D01*
X133123187Y-135964553D01*
X132971580Y-135581638D01*
X132897238Y-135176576D01*
X132902987Y-134764780D01*
X132988612Y-134361951D01*
X133150849Y-133983422D01*
X133383521Y-133643614D01*
X133677764Y-133355469D01*
X134022371Y-133129965D01*
X134404213Y-132975691D01*
X134808753Y-132898521D01*
X135220572Y-132901396D01*
X135220572Y-132901396D01*
G37*
G36*
X100220572Y-132901396D02*
X100623992Y-132984206D01*
X101003642Y-133143796D01*
X101345070Y-133374092D01*
X101635259Y-133666314D01*
X101863164Y-134009341D01*
X102020100Y-134390094D01*
X102100006Y-134793653D01*
X102100006Y-134793659D01*
X102100090Y-134794084D01*
X102093522Y-135264473D01*
X102093427Y-135264890D01*
X102093427Y-135264902D01*
X102002283Y-135666070D01*
X101834776Y-136042297D01*
X101597382Y-136378826D01*
X101299148Y-136662830D01*
X100951423Y-136883503D01*
X100567463Y-137032432D01*
X100161891Y-137103945D01*
X99750150Y-137095319D01*
X99347926Y-137006885D01*
X98970534Y-136842006D01*
X98632362Y-136606972D01*
X98346278Y-136310722D01*
X98123187Y-135964553D01*
X97971580Y-135581638D01*
X97897238Y-135176576D01*
X97902987Y-134764780D01*
X97988612Y-134361951D01*
X98150849Y-133983422D01*
X98383521Y-133643614D01*
X98677764Y-133355469D01*
X99022371Y-133129965D01*
X99404213Y-132975691D01*
X99808753Y-132898521D01*
X100220572Y-132901396D01*
X100220572Y-132901396D01*
G37*
G36*
X65220572Y-132901396D02*
X65623992Y-132984206D01*
X66003642Y-133143796D01*
X66345070Y-133374092D01*
X66635259Y-133666314D01*
X66863164Y-134009341D01*
X67020100Y-134390094D01*
X67100006Y-134793653D01*
X67100006Y-134793659D01*
X67100090Y-134794084D01*
X67093522Y-135264473D01*
X67093427Y-135264890D01*
X67093427Y-135264902D01*
X67002283Y-135666070D01*
X66834776Y-136042297D01*
X66597382Y-136378826D01*
X66299148Y-136662830D01*
X65951423Y-136883503D01*
X65567463Y-137032432D01*
X65161891Y-137103945D01*
X64750150Y-137095319D01*
X64347926Y-137006885D01*
X63970534Y-136842006D01*
X63632362Y-136606972D01*
X63346278Y-136310722D01*
X63123187Y-135964553D01*
X62971580Y-135581638D01*
X62897238Y-135176576D01*
X62902987Y-134764780D01*
X62988612Y-134361951D01*
X63150849Y-133983422D01*
X63383521Y-133643614D01*
X63677764Y-133355469D01*
X64022371Y-133129965D01*
X64404213Y-132975691D01*
X64808753Y-132898521D01*
X65220572Y-132901396D01*
X65220572Y-132901396D01*
G37*
G36*
X78725000Y-135100000D02*
X77275000Y-135100000D01*
X77275000Y-133900000D01*
X78725000Y-133900000D01*
X78725000Y-135100000D01*
X78725000Y-135100000D01*
G37*
G36*
X76750000Y-134900000D02*
X75250000Y-134900000D01*
X75250000Y-134000000D01*
X76750000Y-134000000D01*
X76750000Y-134900000D01*
X76750000Y-134900000D01*
G37*
G36*
X87225000Y-134600000D02*
X85775000Y-134600000D01*
X85775000Y-133400000D01*
X87225000Y-133400000D01*
X87225000Y-134600000D01*
X87225000Y-134600000D01*
G37*
G36*
X89250000Y-134400000D02*
X87750000Y-134400000D01*
X87750000Y-133500000D01*
X89250000Y-133500000D01*
X89250000Y-134400000D01*
X89250000Y-134400000D01*
G37*
G36*
X84900000Y-133500000D02*
X83700000Y-133500000D01*
X83700000Y-132300000D01*
X84900000Y-132300000D01*
X84900000Y-133500000D01*
X84900000Y-133500000D01*
G37*
G36*
X78725000Y-133100000D02*
X77275000Y-133100000D01*
X77275000Y-131900000D01*
X78725000Y-131900000D01*
X78725000Y-133100000D01*
X78725000Y-133100000D01*
G37*
G36*
X76750000Y-133000000D02*
X75250000Y-133000000D01*
X75250000Y-132100000D01*
X76750000Y-132100000D01*
X76750000Y-133000000D01*
X76750000Y-133000000D01*
G37*
G36*
X87225000Y-132600000D02*
X85775000Y-132600000D01*
X85775000Y-131400000D01*
X87225000Y-131400000D01*
X87225000Y-132600000D01*
X87225000Y-132600000D01*
G37*
G36*
X89250000Y-132500000D02*
X87750000Y-132500000D01*
X87750000Y-131600000D01*
X89250000Y-131600000D01*
X89250000Y-132500000D01*
X89250000Y-132500000D01*
G37*
G36*
X81600000Y-131600000D02*
X79200000Y-131600000D01*
X79200000Y-129400000D01*
X81600000Y-129400000D01*
X81600000Y-131600000D01*
X81600000Y-131600000D01*
G37*
G36*
X84800000Y-131600000D02*
X82400000Y-131600000D01*
X82400000Y-129400000D01*
X84800000Y-129400000D01*
X84800000Y-131600000D01*
X84800000Y-131600000D01*
G37*
G36*
X77875000Y-130730000D02*
X77025000Y-130730000D01*
X77025000Y-129470000D01*
X77875000Y-129470000D01*
X77875000Y-130730000D01*
X77875000Y-130730000D01*
G37*
G36*
X89375000Y-130730000D02*
X86625000Y-130730000D01*
X86625000Y-129470000D01*
X89375000Y-129470000D01*
X89375000Y-130730000D01*
X89375000Y-130730000D01*
G37*
G36*
X75975000Y-130730000D02*
X75125000Y-130730000D01*
X75125000Y-129470000D01*
X75975000Y-129470000D01*
X75975000Y-130730000D01*
X75975000Y-130730000D01*
G37*
G36*
X84800000Y-129100000D02*
X82400000Y-129100000D01*
X82400000Y-126900000D01*
X84800000Y-126900000D01*
X84800000Y-129100000D01*
X84800000Y-129100000D01*
G37*
G36*
X81600000Y-129100000D02*
X79200000Y-129100000D01*
X79200000Y-126900000D01*
X81600000Y-126900000D01*
X81600000Y-129100000D01*
X81600000Y-129100000D01*
G37*
G36*
X77875000Y-128530000D02*
X75125000Y-128530000D01*
X75125000Y-127270000D01*
X77875000Y-127270000D01*
X77875000Y-128530000D01*
X77875000Y-128530000D01*
G37*
G36*
X89375000Y-128530000D02*
X88525000Y-128530000D01*
X88525000Y-127270000D01*
X89375000Y-127270000D01*
X89375000Y-128530000D01*
X89375000Y-128530000D01*
G37*
G36*
X87475000Y-128530000D02*
X86625000Y-128530000D01*
X86625000Y-127270000D01*
X87475000Y-127270000D01*
X87475000Y-128530000D01*
X87475000Y-128530000D01*
G37*
G36*
X89400000Y-126250000D02*
X88500000Y-126250000D01*
X88500000Y-124750000D01*
X89400000Y-124750000D01*
X89400000Y-126250000D01*
X89400000Y-126250000D01*
G37*
G36*
X87500000Y-126250000D02*
X86600000Y-126250000D01*
X86600000Y-124750000D01*
X87500000Y-124750000D01*
X87500000Y-126250000D01*
X87500000Y-126250000D01*
G37*
G36*
X81500000Y-126250000D02*
X80600000Y-126250000D01*
X80600000Y-124750000D01*
X81500000Y-124750000D01*
X81500000Y-126250000D01*
X81500000Y-126250000D01*
G37*
G36*
X83400000Y-126250000D02*
X82500000Y-126250000D01*
X82500000Y-124750000D01*
X83400000Y-124750000D01*
X83400000Y-126250000D01*
X83400000Y-126250000D01*
G37*
G36*
X77900000Y-126250000D02*
X77000000Y-126250000D01*
X77000000Y-124750000D01*
X77900000Y-124750000D01*
X77900000Y-126250000D01*
X77900000Y-126250000D01*
G37*
G36*
X76000000Y-126250000D02*
X75100000Y-126250000D01*
X75100000Y-124750000D01*
X76000000Y-124750000D01*
X76000000Y-126250000D01*
X76000000Y-126250000D01*
G37*
G36*
X83600000Y-124225000D02*
X82400000Y-124225000D01*
X82400000Y-122775000D01*
X83600000Y-122775000D01*
X83600000Y-124225000D01*
X83600000Y-124225000D01*
G37*
G36*
X81600000Y-124225000D02*
X80400000Y-124225000D01*
X80400000Y-122775000D01*
X81600000Y-122775000D01*
X81600000Y-124225000D01*
X81600000Y-124225000D01*
G37*
G36*
X78100000Y-124225000D02*
X76900000Y-124225000D01*
X76900000Y-122775000D01*
X78100000Y-122775000D01*
X78100000Y-124225000D01*
X78100000Y-124225000D01*
G37*
G36*
X87600000Y-124225000D02*
X86400000Y-124225000D01*
X86400000Y-122775000D01*
X87600000Y-122775000D01*
X87600000Y-124225000D01*
X87600000Y-124225000D01*
G37*
G36*
X89600000Y-124225000D02*
X88400000Y-124225000D01*
X88400000Y-122775000D01*
X89600000Y-122775000D01*
X89600000Y-124225000D01*
X89600000Y-124225000D01*
G37*
G36*
X76100000Y-124225000D02*
X74900000Y-124225000D01*
X74900000Y-122775000D01*
X76100000Y-122775000D01*
X76100000Y-124225000D01*
X76100000Y-124225000D01*
G37*
G36*
X92478902Y-117463574D02*
X92882322Y-117546384D01*
X93261972Y-117705974D01*
X93603400Y-117936270D01*
X93893589Y-118228492D01*
X94121494Y-118571519D01*
X94278430Y-118952272D01*
X94358336Y-119355831D01*
X94358336Y-119355837D01*
X94358420Y-119356262D01*
X94351852Y-119826651D01*
X94351757Y-119827068D01*
X94351757Y-119827080D01*
X94260613Y-120228248D01*
X94093106Y-120604475D01*
X93855712Y-120941004D01*
X93557478Y-121225008D01*
X93209753Y-121445681D01*
X92825793Y-121594610D01*
X92420221Y-121666123D01*
X92008480Y-121657497D01*
X91606256Y-121569063D01*
X91228864Y-121404184D01*
X90890692Y-121169150D01*
X90604608Y-120872900D01*
X90381517Y-120526731D01*
X90229910Y-120143816D01*
X90155568Y-119738754D01*
X90161317Y-119326958D01*
X90246942Y-118924129D01*
X90409179Y-118545600D01*
X90641851Y-118205792D01*
X90936094Y-117917647D01*
X91280701Y-117692143D01*
X91662543Y-117537869D01*
X92067083Y-117460699D01*
X92478902Y-117463574D01*
X92478902Y-117463574D01*
G37*
G36*
X83200000Y-120100000D02*
X80800000Y-120100000D01*
X80800000Y-117900000D01*
X83200000Y-117900000D01*
X83200000Y-120100000D01*
X83200000Y-120100000D01*
G37*
G36*
X87282750Y-114463574D02*
X87686170Y-114546384D01*
X88065820Y-114705974D01*
X88407248Y-114936270D01*
X88697437Y-115228492D01*
X88925342Y-115571519D01*
X89082278Y-115952272D01*
X89162184Y-116355831D01*
X89162184Y-116355837D01*
X89162268Y-116356262D01*
X89155700Y-116826651D01*
X89155605Y-116827068D01*
X89155605Y-116827080D01*
X89064461Y-117228248D01*
X88896954Y-117604475D01*
X88659560Y-117941004D01*
X88361326Y-118225008D01*
X88013601Y-118445681D01*
X87629641Y-118594610D01*
X87224069Y-118666123D01*
X86812328Y-118657497D01*
X86410104Y-118569063D01*
X86032712Y-118404184D01*
X85694540Y-118169150D01*
X85408456Y-117872900D01*
X85185365Y-117526731D01*
X85033758Y-117143816D01*
X84959416Y-116738754D01*
X84965165Y-116326958D01*
X85050790Y-115924129D01*
X85213027Y-115545600D01*
X85445699Y-115205792D01*
X85739942Y-114917647D01*
X86084549Y-114692143D01*
X86466391Y-114537869D01*
X86870931Y-114460699D01*
X87282750Y-114463574D01*
X87282750Y-114463574D01*
G37*
G36*
X71200000Y-112600000D02*
X68800000Y-112600000D01*
X68800000Y-110400000D01*
X71200000Y-110400000D01*
X71200000Y-112600000D01*
X71200000Y-112600000D01*
G37*
G36*
X64200000Y-112165000D02*
X60600000Y-112165000D01*
X60600000Y-110695000D01*
X64200000Y-110695000D01*
X64200000Y-112165000D01*
X64200000Y-112165000D01*
G37*
G36*
X69500000Y-109750000D02*
X68600000Y-109750000D01*
X68600000Y-108250000D01*
X69500000Y-108250000D01*
X69500000Y-109750000D01*
X69500000Y-109750000D01*
G37*
G36*
X71400000Y-109750000D02*
X70500000Y-109750000D01*
X70500000Y-108250000D01*
X71400000Y-108250000D01*
X71400000Y-109750000D01*
X71400000Y-109750000D01*
G37*
G36*
X61400000Y-109625000D02*
X57800000Y-109625000D01*
X57800000Y-108155000D01*
X61400000Y-108155000D01*
X61400000Y-109625000D01*
X61400000Y-109625000D01*
G37*
G36*
X123200000Y-109100000D02*
X120800000Y-109100000D01*
X120800000Y-106900000D01*
X123200000Y-106900000D01*
X123200000Y-109100000D01*
X123200000Y-109100000D01*
G37*
G36*
X69500000Y-107250000D02*
X68600000Y-107250000D01*
X68600000Y-105750000D01*
X69500000Y-105750000D01*
X69500000Y-107250000D01*
X69500000Y-107250000D01*
G37*
G36*
X71400000Y-107250000D02*
X70500000Y-107250000D01*
X70500000Y-105750000D01*
X71400000Y-105750000D01*
X71400000Y-107250000D01*
X71400000Y-107250000D01*
G37*
G36*
X138725000Y-107100000D02*
X137275000Y-107100000D01*
X137275000Y-105900000D01*
X138725000Y-105900000D01*
X138725000Y-107100000D01*
X138725000Y-107100000D01*
G37*
G36*
X125225000Y-107100000D02*
X123775000Y-107100000D01*
X123775000Y-105900000D01*
X125225000Y-105900000D01*
X125225000Y-107100000D01*
X125225000Y-107100000D01*
G37*
G36*
X64200000Y-107085000D02*
X60600000Y-107085000D01*
X60600000Y-105615000D01*
X64200000Y-105615000D01*
X64200000Y-107085000D01*
X64200000Y-107085000D01*
G37*
G36*
X129430000Y-106925000D02*
X128170000Y-106925000D01*
X128170000Y-104175000D01*
X129430000Y-104175000D01*
X129430000Y-106925000D01*
X129430000Y-106925000D01*
G37*
G36*
X131630000Y-106925000D02*
X130370000Y-106925000D01*
X130370000Y-106075000D01*
X131630000Y-106075000D01*
X131630000Y-106925000D01*
X131630000Y-106925000D01*
G37*
G36*
X127250000Y-106850000D02*
X125750000Y-106850000D01*
X125750000Y-105950000D01*
X127250000Y-105950000D01*
X127250000Y-106850000D01*
X127250000Y-106850000D01*
G37*
G36*
X135900000Y-106750000D02*
X135000000Y-106750000D01*
X135000000Y-105250000D01*
X135900000Y-105250000D01*
X135900000Y-106750000D01*
X135900000Y-106750000D01*
G37*
G36*
X134000000Y-106750000D02*
X133100000Y-106750000D01*
X133100000Y-105250000D01*
X134000000Y-105250000D01*
X134000000Y-106750000D01*
X134000000Y-106750000D01*
G37*
G36*
X121220572Y-100901396D02*
X121623992Y-100984206D01*
X122003642Y-101143796D01*
X122345070Y-101374092D01*
X122635259Y-101666314D01*
X122863164Y-102009341D01*
X123020100Y-102390094D01*
X123100006Y-102793653D01*
X123100006Y-102793659D01*
X123100090Y-102794084D01*
X123093522Y-103264473D01*
X123093427Y-103264890D01*
X123093427Y-103264902D01*
X123002283Y-103666070D01*
X122834776Y-104042297D01*
X122597382Y-104378826D01*
X122299148Y-104662830D01*
X121951423Y-104883503D01*
X121567463Y-105032432D01*
X121161891Y-105103945D01*
X120750150Y-105095319D01*
X120347926Y-105006885D01*
X119970534Y-104842006D01*
X119632362Y-104606972D01*
X119346278Y-104310722D01*
X119123187Y-103964553D01*
X118971580Y-103581638D01*
X118897238Y-103176576D01*
X118902987Y-102764780D01*
X118988612Y-102361951D01*
X119150849Y-101983422D01*
X119383521Y-101643614D01*
X119677764Y-101355469D01*
X120022371Y-101129965D01*
X120404213Y-100975691D01*
X120808753Y-100898521D01*
X121220572Y-100901396D01*
X121220572Y-100901396D01*
G37*
G36*
X138725000Y-105100000D02*
X137275000Y-105100000D01*
X137275000Y-103900000D01*
X138725000Y-103900000D01*
X138725000Y-105100000D01*
X138725000Y-105100000D01*
G37*
G36*
X125225000Y-105100000D02*
X123775000Y-105100000D01*
X123775000Y-103900000D01*
X125225000Y-103900000D01*
X125225000Y-105100000D01*
X125225000Y-105100000D01*
G37*
G36*
X131630000Y-105025000D02*
X130370000Y-105025000D01*
X130370000Y-104175000D01*
X131630000Y-104175000D01*
X131630000Y-105025000D01*
X131630000Y-105025000D01*
G37*
G36*
X127250000Y-104950000D02*
X125750000Y-104950000D01*
X125750000Y-104050000D01*
X127250000Y-104050000D01*
X127250000Y-104950000D01*
X127250000Y-104950000D01*
G37*
G36*
X134100000Y-104725000D02*
X132900000Y-104725000D01*
X132900000Y-103275000D01*
X134100000Y-103275000D01*
X134100000Y-104725000D01*
X134100000Y-104725000D01*
G37*
G36*
X136100000Y-104725000D02*
X134900000Y-104725000D01*
X134900000Y-103275000D01*
X136100000Y-103275000D01*
X136100000Y-104725000D01*
X136100000Y-104725000D01*
G37*
G36*
X61400000Y-104545000D02*
X57800000Y-104545000D01*
X57800000Y-103075000D01*
X61400000Y-103075000D01*
X61400000Y-104545000D01*
X61400000Y-104545000D01*
G37*
G36*
X139250000Y-103000000D02*
X136750000Y-103000000D01*
X136750000Y-101400000D01*
X139250000Y-101400000D01*
X139250000Y-103000000D01*
X139250000Y-103000000D01*
G37*
G36*
X130100000Y-102800000D02*
X127900000Y-102800000D01*
X127900000Y-100400000D01*
X130100000Y-100400000D01*
X130100000Y-102800000D01*
X130100000Y-102800000D01*
G37*
G36*
X132600000Y-102800000D02*
X130400000Y-102800000D01*
X130400000Y-100400000D01*
X132600000Y-100400000D01*
X132600000Y-102800000D01*
X132600000Y-102800000D01*
G37*
G36*
X64200000Y-102005000D02*
X60600000Y-102005000D01*
X60600000Y-100535000D01*
X64200000Y-100535000D01*
X64200000Y-102005000D01*
X64200000Y-102005000D01*
G37*
G36*
X125225000Y-101600000D02*
X123775000Y-101600000D01*
X123775000Y-100400000D01*
X125225000Y-100400000D01*
X125225000Y-101600000D01*
X125225000Y-101600000D01*
G37*
G36*
X127250000Y-101400000D02*
X125750000Y-101400000D01*
X125750000Y-100500000D01*
X127250000Y-100500000D01*
X127250000Y-101400000D01*
X127250000Y-101400000D01*
G37*
G36*
X130100000Y-99600000D02*
X127900000Y-99600000D01*
X127900000Y-97200000D01*
X130100000Y-97200000D01*
X130100000Y-99600000D01*
X130100000Y-99600000D01*
G37*
G36*
X132600000Y-99600000D02*
X130400000Y-99600000D01*
X130400000Y-97200000D01*
X132600000Y-97200000D01*
X132600000Y-99600000D01*
X132600000Y-99600000D01*
G37*
G36*
X125225000Y-99600000D02*
X123775000Y-99600000D01*
X123775000Y-98400000D01*
X125225000Y-98400000D01*
X125225000Y-99600000D01*
X125225000Y-99600000D01*
G37*
G36*
X127250000Y-99500000D02*
X125750000Y-99500000D01*
X125750000Y-98600000D01*
X127250000Y-98600000D01*
X127250000Y-99500000D01*
X127250000Y-99500000D01*
G37*
G36*
X61400000Y-99465000D02*
X57800000Y-99465000D01*
X57800000Y-97995000D01*
X61400000Y-97995000D01*
X61400000Y-99465000D01*
X61400000Y-99465000D01*
G37*
G36*
X121220572Y-94901396D02*
X121623992Y-94984206D01*
X122003642Y-95143796D01*
X122345070Y-95374092D01*
X122635259Y-95666314D01*
X122863164Y-96009341D01*
X123020100Y-96390094D01*
X123100006Y-96793653D01*
X123100006Y-96793659D01*
X123100090Y-96794084D01*
X123093522Y-97264473D01*
X123093427Y-97264890D01*
X123093427Y-97264902D01*
X123002283Y-97666070D01*
X122834776Y-98042297D01*
X122597382Y-98378826D01*
X122299148Y-98662830D01*
X121951423Y-98883503D01*
X121567463Y-99032432D01*
X121161891Y-99103945D01*
X120750150Y-99095319D01*
X120347926Y-99006885D01*
X119970534Y-98842006D01*
X119632362Y-98606972D01*
X119346278Y-98310722D01*
X119123187Y-97964553D01*
X118971580Y-97581638D01*
X118897238Y-97176576D01*
X118902987Y-96764780D01*
X118988612Y-96361951D01*
X119150849Y-95983422D01*
X119383521Y-95643614D01*
X119677764Y-95355469D01*
X120022371Y-95129965D01*
X120404213Y-94975691D01*
X120808753Y-94898521D01*
X121220572Y-94901396D01*
X121220572Y-94901396D01*
G37*
G36*
X139250000Y-98600000D02*
X136750000Y-98600000D01*
X136750000Y-97000000D01*
X139250000Y-97000000D01*
X139250000Y-98600000D01*
X139250000Y-98600000D01*
G37*
G36*
X134600000Y-98600000D02*
X133400000Y-98600000D01*
X133400000Y-97400000D01*
X134600000Y-97400000D01*
X134600000Y-98600000D01*
X134600000Y-98600000D01*
G37*
G36*
X64200000Y-96925000D02*
X60600000Y-96925000D01*
X60600000Y-95455000D01*
X64200000Y-95455000D01*
X64200000Y-96925000D01*
X64200000Y-96925000D01*
G37*
G36*
X135600000Y-96225000D02*
X134400000Y-96225000D01*
X134400000Y-94775000D01*
X135600000Y-94775000D01*
X135600000Y-96225000D01*
X135600000Y-96225000D01*
G37*
G36*
X133600000Y-96225000D02*
X132400000Y-96225000D01*
X132400000Y-94775000D01*
X133600000Y-94775000D01*
X133600000Y-96225000D01*
X133600000Y-96225000D01*
G37*
G36*
X125225000Y-95600000D02*
X123775000Y-95600000D01*
X123775000Y-94400000D01*
X125225000Y-94400000D01*
X125225000Y-95600000D01*
X125225000Y-95600000D01*
G37*
G36*
X127250000Y-95400000D02*
X125750000Y-95400000D01*
X125750000Y-94500000D01*
X127250000Y-94500000D01*
X127250000Y-95400000D01*
X127250000Y-95400000D01*
G37*
G36*
X129530000Y-95375000D02*
X128270000Y-95375000D01*
X128270000Y-94525000D01*
X129530000Y-94525000D01*
X129530000Y-95375000D01*
X129530000Y-95375000D01*
G37*
G36*
X131730000Y-95375000D02*
X130470000Y-95375000D01*
X130470000Y-92625000D01*
X131730000Y-92625000D01*
X131730000Y-95375000D01*
X131730000Y-95375000D01*
G37*
G36*
X139225000Y-94600000D02*
X137775000Y-94600000D01*
X137775000Y-93400000D01*
X139225000Y-93400000D01*
X139225000Y-94600000D01*
X139225000Y-94600000D01*
G37*
G36*
X70225000Y-94600000D02*
X68775000Y-94600000D01*
X68775000Y-93400000D01*
X70225000Y-93400000D01*
X70225000Y-94600000D01*
X70225000Y-94600000D01*
G37*
G36*
X61400000Y-94385000D02*
X57800000Y-94385000D01*
X57800000Y-92915000D01*
X61400000Y-92915000D01*
X61400000Y-94385000D01*
X61400000Y-94385000D01*
G37*
G36*
X133500000Y-94250000D02*
X132600000Y-94250000D01*
X132600000Y-92750000D01*
X133500000Y-92750000D01*
X133500000Y-94250000D01*
X133500000Y-94250000D01*
G37*
G36*
X135400000Y-94250000D02*
X134500000Y-94250000D01*
X134500000Y-92750000D01*
X135400000Y-92750000D01*
X135400000Y-94250000D01*
X135400000Y-94250000D01*
G37*
G36*
X125225000Y-93600000D02*
X123775000Y-93600000D01*
X123775000Y-92400000D01*
X125225000Y-92400000D01*
X125225000Y-93600000D01*
X125225000Y-93600000D01*
G37*
G36*
X127250000Y-93500000D02*
X125750000Y-93500000D01*
X125750000Y-92600000D01*
X127250000Y-92600000D01*
X127250000Y-93500000D01*
X127250000Y-93500000D01*
G37*
G36*
X129530000Y-93475000D02*
X128270000Y-93475000D01*
X128270000Y-92625000D01*
X129530000Y-92625000D01*
X129530000Y-93475000D01*
X129530000Y-93475000D01*
G37*
G36*
X70225000Y-92600000D02*
X68775000Y-92600000D01*
X68775000Y-91400000D01*
X70225000Y-91400000D01*
X70225000Y-92600000D01*
X70225000Y-92600000D01*
G37*
G36*
X139225000Y-92600000D02*
X137775000Y-92600000D01*
X137775000Y-91400000D01*
X139225000Y-91400000D01*
X139225000Y-92600000D01*
X139225000Y-92600000D01*
G37*
G36*
X64200000Y-91845000D02*
X60600000Y-91845000D01*
X60600000Y-90375000D01*
X64200000Y-90375000D01*
X64200000Y-91845000D01*
X64200000Y-91845000D01*
G37*
G36*
X70225000Y-90600000D02*
X68775000Y-90600000D01*
X68775000Y-89400000D01*
X70225000Y-89400000D01*
X70225000Y-90600000D01*
X70225000Y-90600000D01*
G37*
G36*
X61400000Y-89305000D02*
X57800000Y-89305000D01*
X57800000Y-87835000D01*
X61400000Y-87835000D01*
X61400000Y-89305000D01*
X61400000Y-89305000D01*
G37*
G36*
X70225000Y-88600000D02*
X68775000Y-88600000D01*
X68775000Y-87400000D01*
X70225000Y-87400000D01*
X70225000Y-88600000D01*
X70225000Y-88600000D01*
G37*
G36*
X87078267Y-81272231D02*
X87481687Y-81355041D01*
X87861337Y-81514631D01*
X88202765Y-81744927D01*
X88492954Y-82037149D01*
X88720859Y-82380176D01*
X88877795Y-82760929D01*
X88957701Y-83164488D01*
X88957701Y-83164494D01*
X88957785Y-83164919D01*
X88951217Y-83635308D01*
X88951122Y-83635725D01*
X88951122Y-83635737D01*
X88859978Y-84036905D01*
X88692471Y-84413132D01*
X88455077Y-84749661D01*
X88156843Y-85033665D01*
X87809118Y-85254338D01*
X87425158Y-85403267D01*
X87019586Y-85474780D01*
X86607845Y-85466154D01*
X86205621Y-85377720D01*
X85828229Y-85212841D01*
X85490057Y-84977807D01*
X85203973Y-84681557D01*
X84980882Y-84335388D01*
X84829275Y-83952473D01*
X84754933Y-83547411D01*
X84760682Y-83135615D01*
X84846307Y-82732786D01*
X85008544Y-82354257D01*
X85241216Y-82014449D01*
X85535459Y-81726304D01*
X85880066Y-81500800D01*
X86261908Y-81346526D01*
X86666448Y-81269356D01*
X87078267Y-81272231D01*
X87078267Y-81272231D01*
G37*
G36*
X118672080Y-82372463D02*
X118832614Y-82422771D01*
X118980320Y-82503302D01*
X118980353Y-82503329D01*
X118980367Y-82503337D01*
X119109569Y-82610986D01*
X119215407Y-82741684D01*
X119215411Y-82741691D01*
X119215443Y-82741731D01*
X119293904Y-82890547D01*
X119341966Y-83051769D01*
X119357799Y-83219255D01*
X119340798Y-83386626D01*
X119291612Y-83547509D01*
X119212112Y-83695773D01*
X119105330Y-83825772D01*
X118761220Y-84169882D01*
X118752651Y-84178333D01*
X118621173Y-84283290D01*
X118471813Y-84360711D01*
X118310260Y-84407647D01*
X118142668Y-84422309D01*
X117975418Y-84404139D01*
X117814884Y-84353831D01*
X117667178Y-84273300D01*
X117667147Y-84273274D01*
X117667134Y-84273267D01*
X117537928Y-84165616D01*
X117432089Y-84034915D01*
X117432086Y-84034909D01*
X117432055Y-84034871D01*
X117353594Y-83886055D01*
X117305532Y-83724833D01*
X117289699Y-83557347D01*
X117306700Y-83389976D01*
X117355886Y-83229093D01*
X117435386Y-83080829D01*
X117542168Y-82950830D01*
X117886278Y-82606720D01*
X117894847Y-82598269D01*
X118026325Y-82493312D01*
X118175685Y-82415891D01*
X118337238Y-82368955D01*
X118504830Y-82354293D01*
X118672080Y-82372463D01*
X118672080Y-82372463D01*
G37*
G36*
X120468131Y-80576412D02*
X120628665Y-80626720D01*
X120776371Y-80707251D01*
X120776404Y-80707278D01*
X120776418Y-80707286D01*
X120905620Y-80814935D01*
X121011458Y-80945633D01*
X121011462Y-80945640D01*
X121011494Y-80945680D01*
X121089955Y-81094496D01*
X121138017Y-81255718D01*
X121153850Y-81423204D01*
X121136849Y-81590575D01*
X121087663Y-81751458D01*
X121008163Y-81899722D01*
X120901381Y-82029721D01*
X120557271Y-82373831D01*
X120548702Y-82382282D01*
X120417224Y-82487239D01*
X120267864Y-82564660D01*
X120106311Y-82611596D01*
X119938719Y-82626258D01*
X119771469Y-82608088D01*
X119610935Y-82557780D01*
X119463229Y-82477249D01*
X119463198Y-82477223D01*
X119463185Y-82477216D01*
X119333979Y-82369565D01*
X119228140Y-82238864D01*
X119228137Y-82238858D01*
X119228106Y-82238820D01*
X119149645Y-82090004D01*
X119101583Y-81928782D01*
X119085750Y-81761296D01*
X119102751Y-81593925D01*
X119151937Y-81433042D01*
X119231437Y-81284778D01*
X119338219Y-81154779D01*
X119682329Y-80810669D01*
X119690898Y-80802218D01*
X119822376Y-80697261D01*
X119971736Y-80619840D01*
X120133289Y-80572904D01*
X120300881Y-80558242D01*
X120468131Y-80576412D01*
X120468131Y-80576412D01*
G37*
G36*
X116876029Y-80576412D02*
X117036563Y-80626720D01*
X117184269Y-80707251D01*
X117184302Y-80707278D01*
X117184316Y-80707286D01*
X117313518Y-80814935D01*
X117419356Y-80945633D01*
X117419360Y-80945640D01*
X117419392Y-80945680D01*
X117497853Y-81094496D01*
X117545915Y-81255718D01*
X117561748Y-81423204D01*
X117544747Y-81590575D01*
X117495561Y-81751458D01*
X117416061Y-81899722D01*
X117309279Y-82029721D01*
X116965169Y-82373831D01*
X116956600Y-82382282D01*
X116825122Y-82487239D01*
X116675762Y-82564660D01*
X116514209Y-82611596D01*
X116346617Y-82626258D01*
X116179367Y-82608088D01*
X116018833Y-82557780D01*
X115871127Y-82477249D01*
X115871096Y-82477223D01*
X115871083Y-82477216D01*
X115741877Y-82369565D01*
X115636038Y-82238864D01*
X115636035Y-82238858D01*
X115636004Y-82238820D01*
X115557543Y-82090004D01*
X115509481Y-81928782D01*
X115493648Y-81761296D01*
X115510649Y-81593925D01*
X115559835Y-81433042D01*
X115639335Y-81284778D01*
X115746117Y-81154779D01*
X116090227Y-80810669D01*
X116098796Y-80802218D01*
X116230274Y-80697261D01*
X116379634Y-80619840D01*
X116541187Y-80572904D01*
X116708779Y-80558242D01*
X116876029Y-80576412D01*
X116876029Y-80576412D01*
G37*
G36*
X92274420Y-78272231D02*
X92677840Y-78355041D01*
X93057490Y-78514631D01*
X93398918Y-78744927D01*
X93689107Y-79037149D01*
X93917012Y-79380176D01*
X94073948Y-79760929D01*
X94153854Y-80164488D01*
X94153854Y-80164494D01*
X94153938Y-80164919D01*
X94147370Y-80635308D01*
X94147275Y-80635725D01*
X94147275Y-80635737D01*
X94056131Y-81036905D01*
X93888624Y-81413132D01*
X93651230Y-81749661D01*
X93352996Y-82033665D01*
X93005271Y-82254338D01*
X92621311Y-82403267D01*
X92215739Y-82474780D01*
X91803998Y-82466154D01*
X91401774Y-82377720D01*
X91024382Y-82212841D01*
X90686210Y-81977807D01*
X90400126Y-81681557D01*
X90177035Y-81335388D01*
X90025428Y-80952473D01*
X89951086Y-80547411D01*
X89956835Y-80135615D01*
X90042460Y-79732786D01*
X90204697Y-79354257D01*
X90437369Y-79014449D01*
X90731612Y-78726304D01*
X91076219Y-78500800D01*
X91458061Y-78346526D01*
X91862601Y-78269356D01*
X92274420Y-78272231D01*
X92274420Y-78272231D01*
G37*
G36*
X112312994Y-80107673D02*
X111252334Y-81168333D01*
X110615938Y-80531937D01*
X111676598Y-79471277D01*
X112312994Y-80107673D01*
X112312994Y-80107673D01*
G37*
G36*
X122778175Y-80319805D02*
X122141779Y-80956201D01*
X121081119Y-79895541D01*
X121717515Y-79259145D01*
X122778175Y-80319805D01*
X122778175Y-80319805D01*
G37*
G36*
X118672080Y-78780361D02*
X118832614Y-78830669D01*
X118980320Y-78911200D01*
X118980353Y-78911227D01*
X118980367Y-78911235D01*
X119109569Y-79018884D01*
X119215407Y-79149582D01*
X119215411Y-79149589D01*
X119215443Y-79149629D01*
X119293904Y-79298445D01*
X119341966Y-79459667D01*
X119357799Y-79627153D01*
X119340798Y-79794524D01*
X119291612Y-79955407D01*
X119212112Y-80103671D01*
X119105330Y-80233670D01*
X118761220Y-80577780D01*
X118752651Y-80586231D01*
X118621173Y-80691188D01*
X118471813Y-80768609D01*
X118310260Y-80815545D01*
X118142668Y-80830207D01*
X117975418Y-80812037D01*
X117814884Y-80761729D01*
X117667178Y-80681198D01*
X117667147Y-80681172D01*
X117667134Y-80681165D01*
X117537928Y-80573514D01*
X117432089Y-80442813D01*
X117432086Y-80442807D01*
X117432055Y-80442769D01*
X117353594Y-80293953D01*
X117305532Y-80132731D01*
X117289699Y-79965245D01*
X117306700Y-79797874D01*
X117355886Y-79636991D01*
X117435386Y-79488727D01*
X117542168Y-79358728D01*
X117886278Y-79014618D01*
X117894847Y-79006167D01*
X118026325Y-78901210D01*
X118175685Y-78823789D01*
X118337238Y-78776853D01*
X118504830Y-78762191D01*
X118672080Y-78780361D01*
X118672080Y-78780361D01*
G37*
G36*
X110969492Y-78764171D02*
X109908832Y-79824831D01*
X109272436Y-79188435D01*
X110333096Y-78127775D01*
X110969492Y-78764171D01*
X110969492Y-78764171D01*
G37*
G36*
X116944544Y-79082368D02*
X116308148Y-79718764D01*
X115247488Y-78658104D01*
X115883884Y-78021708D01*
X116944544Y-79082368D01*
X116944544Y-79082368D01*
G37*
G36*
X124121677Y-78976303D02*
X123485281Y-79612699D01*
X122424621Y-78552039D01*
X123061017Y-77915643D01*
X124121677Y-78976303D01*
X124121677Y-78976303D01*
G37*
G36*
X121010408Y-78552038D02*
X120374012Y-79188434D01*
X119313352Y-78127774D01*
X119949748Y-77491378D01*
X121010408Y-78552038D01*
X121010408Y-78552038D01*
G37*
G36*
X114128491Y-78678963D02*
X113627859Y-79179595D01*
X112678215Y-78229951D01*
X113178847Y-77729319D01*
X114128491Y-78678963D01*
X114128491Y-78678963D01*
G37*
G36*
X109802765Y-77597444D02*
X108742105Y-78658104D01*
X108105709Y-78021708D01*
X109166369Y-76961048D01*
X109802765Y-77597444D01*
X109802765Y-77597444D01*
G37*
G36*
X118288046Y-77738866D02*
X117651650Y-78375262D01*
X116590990Y-77314602D01*
X117227386Y-76678206D01*
X118288046Y-77738866D01*
X118288046Y-77738866D01*
G37*
G36*
X115026516Y-77780938D02*
X114525884Y-78281570D01*
X113576240Y-77331926D01*
X114076872Y-76831294D01*
X115026516Y-77780938D01*
X115026516Y-77780938D01*
G37*
G36*
X95100000Y-78200000D02*
X92900000Y-78200000D01*
X92900000Y-75800000D01*
X95100000Y-75800000D01*
X95100000Y-78200000D01*
X95100000Y-78200000D01*
G37*
G36*
X122353910Y-77208536D02*
X121717514Y-77844932D01*
X120656854Y-76784272D01*
X121293250Y-76147876D01*
X122353910Y-77208536D01*
X122353910Y-77208536D01*
G37*
G36*
X115924542Y-76882912D02*
X115423910Y-77383544D01*
X114474266Y-76433900D01*
X114974898Y-75933268D01*
X115924542Y-76882912D01*
X115924542Y-76882912D01*
G37*
G36*
X108459263Y-76253942D02*
X107398603Y-77314602D01*
X106762207Y-76678206D01*
X107822867Y-75617546D01*
X108459263Y-76253942D01*
X108459263Y-76253942D01*
G37*
G36*
X83600000Y-77225000D02*
X82400000Y-77225000D01*
X82400000Y-75775000D01*
X83600000Y-75775000D01*
X83600000Y-77225000D01*
X83600000Y-77225000D01*
G37*
G36*
X79600000Y-77225000D02*
X78400000Y-77225000D01*
X78400000Y-75775000D01*
X79600000Y-75775000D01*
X79600000Y-77225000D01*
X79600000Y-77225000D01*
G37*
G36*
X77600000Y-77225000D02*
X76400000Y-77225000D01*
X76400000Y-75775000D01*
X77600000Y-75775000D01*
X77600000Y-77225000D01*
X77600000Y-77225000D01*
G37*
G36*
X85600000Y-77225000D02*
X84400000Y-77225000D01*
X84400000Y-75775000D01*
X85600000Y-75775000D01*
X85600000Y-77225000D01*
X85600000Y-77225000D01*
G37*
G36*
X89100000Y-77225000D02*
X87900000Y-77225000D01*
X87900000Y-75775000D01*
X89100000Y-75775000D01*
X89100000Y-77225000D01*
X89100000Y-77225000D01*
G37*
G36*
X91100000Y-77225000D02*
X89900000Y-77225000D01*
X89900000Y-75775000D01*
X91100000Y-75775000D01*
X91100000Y-77225000D01*
X91100000Y-77225000D01*
G37*
G36*
X116822568Y-75984887D02*
X116321936Y-76485519D01*
X115372292Y-75535875D01*
X115872924Y-75035243D01*
X116822568Y-75984887D01*
X116822568Y-75984887D01*
G37*
G36*
X107451636Y-75281670D02*
X106426331Y-76306975D01*
X105577802Y-75458446D01*
X106603107Y-74433141D01*
X107451636Y-75281670D01*
X107451636Y-75281670D01*
G37*
G36*
X117720593Y-75086861D02*
X117219961Y-75587493D01*
X116270317Y-74637849D01*
X116770949Y-74137217D01*
X117720593Y-75086861D01*
X117720593Y-75086861D01*
G37*
G36*
X79400000Y-75250000D02*
X78500000Y-75250000D01*
X78500000Y-73750000D01*
X79400000Y-73750000D01*
X79400000Y-75250000D01*
X79400000Y-75250000D01*
G37*
G36*
X90900000Y-75250000D02*
X90000000Y-75250000D01*
X90000000Y-73750000D01*
X90900000Y-73750000D01*
X90900000Y-75250000D01*
X90900000Y-75250000D01*
G37*
G36*
X89000000Y-75250000D02*
X88100000Y-75250000D01*
X88100000Y-73750000D01*
X89000000Y-73750000D01*
X89000000Y-75250000D01*
X89000000Y-75250000D01*
G37*
G36*
X77500000Y-75250000D02*
X76600000Y-75250000D01*
X76600000Y-73750000D01*
X77500000Y-73750000D01*
X77500000Y-75250000D01*
X77500000Y-75250000D01*
G37*
G36*
X83450000Y-75250000D02*
X82550000Y-75250000D01*
X82550000Y-73750000D01*
X83450000Y-73750000D01*
X83450000Y-75250000D01*
X83450000Y-75250000D01*
G37*
G36*
X85350000Y-75250000D02*
X84450000Y-75250000D01*
X84450000Y-73750000D01*
X85350000Y-73750000D01*
X85350000Y-75250000D01*
X85350000Y-75250000D01*
G37*
G36*
X121717515Y-74309397D02*
X121081119Y-74945793D01*
X120020459Y-73885133D01*
X120656855Y-73248737D01*
X121717515Y-74309397D01*
X121717515Y-74309397D01*
G37*
G36*
X106037422Y-73867456D02*
X105012117Y-74892761D01*
X104163588Y-74044232D01*
X105188893Y-73018927D01*
X106037422Y-73867456D01*
X106037422Y-73867456D01*
G37*
G36*
X118618619Y-74188835D02*
X118117987Y-74689467D01*
X117168343Y-73739823D01*
X117668975Y-73239191D01*
X118618619Y-74188835D01*
X118618619Y-74188835D01*
G37*
G36*
X109638363Y-74188835D02*
X109137731Y-74689467D01*
X108188087Y-73739823D01*
X108688719Y-73239191D01*
X109638363Y-74188835D01*
X109638363Y-74188835D01*
G37*
G36*
X110536388Y-73290810D02*
X110035756Y-73791442D01*
X109086112Y-72841798D01*
X109586744Y-72341166D01*
X110536388Y-73290810D01*
X110536388Y-73290810D01*
G37*
G36*
X119516644Y-73290810D02*
X119016012Y-73791442D01*
X118066368Y-72841798D01*
X118567000Y-72341166D01*
X119516644Y-73290810D01*
X119516644Y-73290810D01*
G37*
G36*
X123061017Y-72965895D02*
X122424621Y-73602291D01*
X121363961Y-72541631D01*
X122000357Y-71905235D01*
X123061017Y-72965895D01*
X123061017Y-72965895D01*
G37*
G36*
X107981965Y-72453242D02*
X107133436Y-73301771D01*
X106108131Y-72276466D01*
X106956660Y-71427937D01*
X107981965Y-72453242D01*
X107981965Y-72453242D01*
G37*
G36*
X86700000Y-73100000D02*
X84300000Y-73100000D01*
X84300000Y-70900000D01*
X86700000Y-70900000D01*
X86700000Y-73100000D01*
X86700000Y-73100000D01*
G37*
G36*
X83600000Y-73100000D02*
X81200000Y-73100000D01*
X81200000Y-70900000D01*
X83600000Y-70900000D01*
X83600000Y-73100000D01*
X83600000Y-73100000D01*
G37*
G36*
X111434414Y-72392784D02*
X110933782Y-72893416D01*
X109984138Y-71943772D01*
X110484770Y-71443140D01*
X111434414Y-72392784D01*
X111434414Y-72392784D01*
G37*
G36*
X90875000Y-72830000D02*
X88125000Y-72830000D01*
X88125000Y-71570000D01*
X90875000Y-71570000D01*
X90875000Y-72830000D01*
X90875000Y-72830000D01*
G37*
G36*
X77475000Y-72730000D02*
X76625000Y-72730000D01*
X76625000Y-71470000D01*
X77475000Y-71470000D01*
X77475000Y-72730000D01*
X77475000Y-72730000D01*
G37*
G36*
X79375000Y-72730000D02*
X78525000Y-72730000D01*
X78525000Y-71470000D01*
X79375000Y-71470000D01*
X79375000Y-72730000D01*
X79375000Y-72730000D01*
G37*
G36*
X112332440Y-71494759D02*
X111831808Y-71995391D01*
X110882164Y-71045747D01*
X111382796Y-70545115D01*
X112332440Y-71494759D01*
X112332440Y-71494759D01*
G37*
G36*
X109396179Y-71039028D02*
X108547650Y-71887557D01*
X107522345Y-70862252D01*
X108370874Y-70013723D01*
X109396179Y-71039028D01*
X109396179Y-71039028D01*
G37*
G36*
X122106424Y-70172823D02*
X120409367Y-71869880D01*
X118853732Y-70314245D01*
X120550789Y-68617188D01*
X122106424Y-70172823D01*
X122106424Y-70172823D01*
G37*
G36*
X123520637Y-70809219D02*
X122884241Y-71445615D01*
X122106423Y-70667797D01*
X122742819Y-70031401D01*
X123520637Y-70809219D01*
X123520637Y-70809219D01*
G37*
G36*
X113230465Y-70596733D02*
X112729833Y-71097365D01*
X111780189Y-70147721D01*
X112280821Y-69647089D01*
X113230465Y-70596733D01*
X113230465Y-70596733D01*
G37*
G36*
X90875000Y-70630000D02*
X90025000Y-70630000D01*
X90025000Y-69370000D01*
X90875000Y-69370000D01*
X90875000Y-70630000D01*
X90875000Y-70630000D01*
G37*
G36*
X88975000Y-70630000D02*
X88125000Y-70630000D01*
X88125000Y-69370000D01*
X88975000Y-69370000D01*
X88975000Y-70630000D01*
X88975000Y-70630000D01*
G37*
G36*
X86700000Y-70600000D02*
X84300000Y-70600000D01*
X84300000Y-68400000D01*
X86700000Y-68400000D01*
X86700000Y-70600000D01*
X86700000Y-70600000D01*
G37*
G36*
X83600000Y-70600000D02*
X81200000Y-70600000D01*
X81200000Y-68400000D01*
X83600000Y-68400000D01*
X83600000Y-70600000D01*
X83600000Y-70600000D01*
G37*
G36*
X79375000Y-70530000D02*
X76625000Y-70530000D01*
X76625000Y-69270000D01*
X79375000Y-69270000D01*
X79375000Y-70530000D01*
X79375000Y-70530000D01*
G37*
G36*
X110810393Y-69624815D02*
X109961864Y-70473344D01*
X108936559Y-69448039D01*
X109785088Y-68599510D01*
X110810393Y-69624815D01*
X110810393Y-69624815D01*
G37*
G36*
X114128491Y-69698707D02*
X113627859Y-70199339D01*
X112678215Y-69249695D01*
X113178847Y-68749063D01*
X114128491Y-69698707D01*
X114128491Y-69698707D01*
G37*
G36*
X120338657Y-68405056D02*
X118641600Y-70102113D01*
X117085965Y-68546478D01*
X118783022Y-66849421D01*
X120338657Y-68405056D01*
X120338657Y-68405056D01*
G37*
G36*
X125571247Y-69465716D02*
X124934851Y-70102112D01*
X124369165Y-69536426D01*
X125005561Y-68900030D01*
X125571247Y-69465716D01*
X125571247Y-69465716D01*
G37*
G36*
X115026516Y-68800682D02*
X114525884Y-69301314D01*
X113576240Y-68351670D01*
X114076872Y-67851038D01*
X115026516Y-68800682D01*
X115026516Y-68800682D01*
G37*
G36*
X123061017Y-68228279D02*
X122000357Y-69288939D01*
X121363961Y-68652543D01*
X122424621Y-67591883D01*
X123061017Y-68228279D01*
X123061017Y-68228279D01*
G37*
G36*
X124652008Y-68546477D02*
X124015612Y-69182873D01*
X123449926Y-68617187D01*
X124086322Y-67980791D01*
X124652008Y-68546477D01*
X124652008Y-68546477D01*
G37*
G36*
X112224607Y-68210601D02*
X111376078Y-69059130D01*
X110350773Y-68033825D01*
X111199302Y-67185296D01*
X112224607Y-68210601D01*
X112224607Y-68210601D01*
G37*
G36*
X118570890Y-66637289D02*
X116873833Y-68334346D01*
X115318198Y-66778711D01*
X117015255Y-65081654D01*
X118570890Y-66637289D01*
X118570890Y-66637289D01*
G37*
G36*
X88725000Y-68100000D02*
X87275000Y-68100000D01*
X87275000Y-66900000D01*
X88725000Y-66900000D01*
X88725000Y-68100000D01*
X88725000Y-68100000D01*
G37*
G36*
X80225000Y-68100000D02*
X78775000Y-68100000D01*
X78775000Y-66900000D01*
X80225000Y-66900000D01*
X80225000Y-68100000D01*
X80225000Y-68100000D01*
G37*
G36*
X121717515Y-66884777D02*
X120656855Y-67945437D01*
X120020459Y-67309041D01*
X121081119Y-66248381D01*
X121717515Y-66884777D01*
X121717515Y-66884777D01*
G37*
G36*
X90750000Y-67900000D02*
X89250000Y-67900000D01*
X89250000Y-67000000D01*
X90750000Y-67000000D01*
X90750000Y-67900000D01*
X90750000Y-67900000D01*
G37*
G36*
X78250000Y-67900000D02*
X76750000Y-67900000D01*
X76750000Y-67000000D01*
X78250000Y-67000000D01*
X78250000Y-67900000D01*
X78250000Y-67900000D01*
G37*
G36*
X82500000Y-67200000D02*
X81300000Y-67200000D01*
X81300000Y-66000000D01*
X82500000Y-66000000D01*
X82500000Y-67200000D01*
X82500000Y-67200000D01*
G37*
G36*
X65220572Y-62901396D02*
X65623992Y-62984206D01*
X66003642Y-63143796D01*
X66345070Y-63374092D01*
X66635259Y-63666314D01*
X66863164Y-64009341D01*
X67020100Y-64390094D01*
X67100006Y-64793653D01*
X67100006Y-64793659D01*
X67100090Y-64794084D01*
X67093522Y-65264473D01*
X67093427Y-65264890D01*
X67093427Y-65264902D01*
X67002283Y-65666070D01*
X66834776Y-66042297D01*
X66597382Y-66378826D01*
X66299148Y-66662830D01*
X65951423Y-66883503D01*
X65567463Y-67032432D01*
X65161891Y-67103945D01*
X64750150Y-67095319D01*
X64347926Y-67006885D01*
X63970534Y-66842006D01*
X63632362Y-66606972D01*
X63346278Y-66310722D01*
X63123187Y-65964553D01*
X62971580Y-65581638D01*
X62897238Y-65176576D01*
X62902987Y-64764780D01*
X62988612Y-64361951D01*
X63150849Y-63983422D01*
X63383521Y-63643614D01*
X63677764Y-63355469D01*
X64022371Y-63129965D01*
X64404213Y-62975691D01*
X64808753Y-62898521D01*
X65220572Y-62901396D01*
X65220572Y-62901396D01*
G37*
G36*
X100220572Y-62901396D02*
X100623992Y-62984206D01*
X101003642Y-63143796D01*
X101345070Y-63374092D01*
X101635259Y-63666314D01*
X101863164Y-64009341D01*
X102020100Y-64390094D01*
X102100006Y-64793653D01*
X102100006Y-64793659D01*
X102100090Y-64794084D01*
X102093522Y-65264473D01*
X102093427Y-65264890D01*
X102093427Y-65264902D01*
X102002283Y-65666070D01*
X101834776Y-66042297D01*
X101597382Y-66378826D01*
X101299148Y-66662830D01*
X100951423Y-66883503D01*
X100567463Y-67032432D01*
X100161891Y-67103945D01*
X99750150Y-67095319D01*
X99347926Y-67006885D01*
X98970534Y-66842006D01*
X98632362Y-66606972D01*
X98346278Y-66310722D01*
X98123187Y-65964553D01*
X97971580Y-65581638D01*
X97897238Y-65176576D01*
X97902987Y-64764780D01*
X97988612Y-64361951D01*
X98150849Y-63983422D01*
X98383521Y-63643614D01*
X98677764Y-63355469D01*
X99022371Y-63129965D01*
X99404213Y-62975691D01*
X99808753Y-62898521D01*
X100220572Y-62901396D01*
X100220572Y-62901396D01*
G37*
G36*
X135220572Y-62901396D02*
X135623992Y-62984206D01*
X136003642Y-63143796D01*
X136345070Y-63374092D01*
X136635259Y-63666314D01*
X136863164Y-64009341D01*
X137020100Y-64390094D01*
X137100006Y-64793653D01*
X137100006Y-64793659D01*
X137100090Y-64794084D01*
X137093522Y-65264473D01*
X137093427Y-65264890D01*
X137093427Y-65264902D01*
X137002283Y-65666070D01*
X136834776Y-66042297D01*
X136597382Y-66378826D01*
X136299148Y-66662830D01*
X135951423Y-66883503D01*
X135567463Y-67032432D01*
X135161891Y-67103945D01*
X134750150Y-67095319D01*
X134347926Y-67006885D01*
X133970534Y-66842006D01*
X133632362Y-66606972D01*
X133346278Y-66310722D01*
X133123187Y-65964553D01*
X132971580Y-65581638D01*
X132897238Y-65176576D01*
X132902987Y-64764780D01*
X132988612Y-64361951D01*
X133150849Y-63983422D01*
X133383521Y-63643614D01*
X133677764Y-63355469D01*
X134022371Y-63129965D01*
X134404213Y-62975691D01*
X134808753Y-62898521D01*
X135220572Y-62901396D01*
X135220572Y-62901396D01*
G37*
G36*
X120586143Y-65753405D02*
X119525483Y-66814065D01*
X118889087Y-66177669D01*
X119949747Y-65117009D01*
X120586143Y-65753405D01*
X120586143Y-65753405D01*
G37*
G36*
X88725000Y-66100000D02*
X87275000Y-66100000D01*
X87275000Y-64900000D01*
X88725000Y-64900000D01*
X88725000Y-66100000D01*
X88725000Y-66100000D01*
G37*
G36*
X80225000Y-66100000D02*
X78775000Y-66100000D01*
X78775000Y-64900000D01*
X80225000Y-64900000D01*
X80225000Y-66100000D01*
X80225000Y-66100000D01*
G37*
G36*
X90750000Y-66000000D02*
X89250000Y-66000000D01*
X89250000Y-65100000D01*
X90750000Y-65100000D01*
X90750000Y-66000000D01*
X90750000Y-66000000D01*
G37*
G36*
X78250000Y-66000000D02*
X76750000Y-66000000D01*
X76750000Y-65100000D01*
X78250000Y-65100000D01*
X78250000Y-66000000D01*
X78250000Y-66000000D01*
G37*
G36*
X119242641Y-64409903D02*
X118181981Y-65470563D01*
X117545585Y-64834167D01*
X118606245Y-63773507D01*
X119242641Y-64409903D01*
X119242641Y-64409903D01*
G37*
G36*
X87000000Y-63750000D02*
X85400000Y-63750000D01*
X85400000Y-61250000D01*
X87000000Y-61250000D01*
X87000000Y-63750000D01*
X87000000Y-63750000D01*
G37*
G36*
X82600000Y-63750000D02*
X81000000Y-63750000D01*
X81000000Y-61250000D01*
X82600000Y-61250000D01*
X82600000Y-63750000D01*
X82600000Y-63750000D01*
G37*
G36*
X91100000Y-63725000D02*
X89900000Y-63725000D01*
X89900000Y-62275000D01*
X91100000Y-62275000D01*
X91100000Y-63725000D01*
X91100000Y-63725000D01*
G37*
G36*
X89100000Y-63725000D02*
X87900000Y-63725000D01*
X87900000Y-62275000D01*
X89100000Y-62275000D01*
X89100000Y-63725000D01*
X89100000Y-63725000D01*
G37*
G36*
X77100000Y-62725000D02*
X75900000Y-62725000D01*
X75900000Y-61275000D01*
X77100000Y-61275000D01*
X77100000Y-62725000D01*
X77100000Y-62725000D01*
G37*
G36*
X79100000Y-62725000D02*
X77900000Y-62725000D01*
X77900000Y-61275000D01*
X79100000Y-61275000D01*
X79100000Y-62725000D01*
X79100000Y-62725000D01*
G37*
M02*
