G04 #@! TF.FileFunction,Legend,Bot*
%FSLAX46Y46*%
G04 Gerber Fmt 4.6, Leading zero omitted, Abs format (unit mm)*
G04 Created by KiCad (PCBNEW 4.0.5+dfsg1-4) date Tue May 30 16:14:19 2017*
%MOMM*%
%LPD*%
G01*
G04 APERTURE LIST*
%ADD10C,0.100000*%
%ADD11C,0.150000*%
%ADD12C,1.200000*%
%ADD13R,1.200000X2.700000*%
%ADD14R,1.200000X1.450000*%
%ADD15R,0.708000X1.343000*%
%ADD16R,1.927200X1.927200*%
%ADD17O,1.927200X1.927200*%
%ADD18R,2.700000X1.200000*%
%ADD19R,1.450000X1.200000*%
%ADD20R,3.857600X2.232000*%
%ADD21R,1.216000X2.232000*%
%ADD22R,0.900000X1.500000*%
%ADD23C,12.200000*%
%ADD24R,1.500000X0.900000*%
%ADD25R,2.232000X2.232000*%
%ADD26O,2.232000X2.232000*%
%ADD27C,2.232000*%
%ADD28C,1.724000*%
%ADD29R,1.927200X2.232000*%
%ADD30O,1.927200X2.232000*%
G04 APERTURE END LIST*
D10*
D11*
X88224788Y-83525000D02*
X84324788Y-83525000D01*
X84324788Y-86475000D02*
X88224788Y-86475000D01*
X125000000Y-89202346D02*
X124000000Y-89202346D01*
X124000000Y-87502346D02*
X125000000Y-87502346D01*
X69555000Y-82111000D02*
X74635000Y-82111000D01*
X74635000Y-82111000D02*
X74635000Y-77539000D01*
X74635000Y-77539000D02*
X69555000Y-77539000D01*
X69555000Y-77539000D02*
X69555000Y-82111000D01*
X69555000Y-80587000D02*
X70063000Y-80587000D01*
X70063000Y-80587000D02*
X70063000Y-79317000D01*
X70063000Y-79317000D02*
X69555000Y-79317000D01*
X120525000Y-71573638D02*
X120525000Y-69573638D01*
X123475000Y-69573638D02*
X123475000Y-71573638D01*
X124025000Y-71573638D02*
X124025000Y-69573638D01*
X126975000Y-69573638D02*
X126975000Y-71573638D01*
X83475000Y-115500000D02*
X83475000Y-117500000D01*
X80525000Y-117500000D02*
X80525000Y-115500000D01*
X112525000Y-71573638D02*
X112525000Y-69573638D01*
X115475000Y-69573638D02*
X115475000Y-71573638D01*
X86975000Y-115500000D02*
X86975000Y-117500000D01*
X84025000Y-117500000D02*
X84025000Y-115500000D01*
X109025000Y-71573638D02*
X109025000Y-69573638D01*
X111975000Y-69573638D02*
X111975000Y-71573638D01*
X101025000Y-71573638D02*
X101025000Y-69573638D01*
X103975000Y-69573638D02*
X103975000Y-71573638D01*
X97525000Y-71573638D02*
X97525000Y-69573638D01*
X100475000Y-69573638D02*
X100475000Y-71573638D01*
X124025000Y-76573638D02*
X124025000Y-74573638D01*
X126975000Y-74573638D02*
X126975000Y-76573638D01*
X120525000Y-76573638D02*
X120525000Y-74573638D01*
X123475000Y-74573638D02*
X123475000Y-76573638D01*
X112525000Y-76573638D02*
X112525000Y-74573638D01*
X115475000Y-74573638D02*
X115475000Y-76573638D01*
X109025000Y-76573638D02*
X109025000Y-74573638D01*
X111975000Y-74573638D02*
X111975000Y-76573638D01*
X101025000Y-76573638D02*
X101025000Y-74573638D01*
X103975000Y-74573638D02*
X103975000Y-76573638D01*
X97525000Y-76573638D02*
X97525000Y-74573638D01*
X100475000Y-74573638D02*
X100475000Y-76573638D01*
X94975000Y-115500000D02*
X94975000Y-117500000D01*
X92025000Y-117500000D02*
X92025000Y-115500000D01*
X98475000Y-115500000D02*
X98475000Y-117500000D01*
X95525000Y-117500000D02*
X95525000Y-115500000D01*
X75150000Y-80500000D02*
X75150000Y-79500000D01*
X76850000Y-79500000D02*
X76850000Y-80500000D01*
X75202876Y-119340452D02*
X76202876Y-119340452D01*
X76202876Y-121040452D02*
X75202876Y-121040452D01*
X90975000Y-116000000D02*
X90975000Y-118000000D01*
X88025000Y-118000000D02*
X88025000Y-116000000D01*
X117000000Y-69098638D02*
X119000000Y-69098638D01*
X119000000Y-72048638D02*
X117000000Y-72048638D01*
X105500000Y-69098638D02*
X107500000Y-69098638D01*
X107500000Y-72048638D02*
X105500000Y-72048638D01*
X119000000Y-77048638D02*
X117000000Y-77048638D01*
X117000000Y-74098638D02*
X119000000Y-74098638D01*
X107500000Y-77048638D02*
X105500000Y-77048638D01*
X105500000Y-74098638D02*
X107500000Y-74098638D01*
X117694692Y-101008396D02*
X117694692Y-104056396D01*
X117694692Y-104056396D02*
X110582692Y-104056396D01*
X110582692Y-104056396D02*
X110582692Y-101008396D01*
X117694692Y-97960396D02*
X117694692Y-97198396D01*
X117694692Y-97198396D02*
X116170692Y-94912396D01*
X116170692Y-94912396D02*
X112106692Y-94912396D01*
X112106692Y-94912396D02*
X110582692Y-97198396D01*
X110582692Y-97198396D02*
X110582692Y-97960396D01*
X118238692Y-104609396D02*
X117038692Y-104609396D01*
X117038692Y-106359396D02*
X118238692Y-106359396D01*
X114738692Y-104609396D02*
X113538692Y-104609396D01*
X113538692Y-106359396D02*
X114738692Y-106359396D01*
X77525000Y-78050000D02*
X77525000Y-81950000D01*
X80475000Y-81950000D02*
X80475000Y-78050000D01*
X88274788Y-87025000D02*
X84374788Y-87025000D01*
X84374788Y-89975000D02*
X88274788Y-89975000D01*
X121975000Y-87852346D02*
X121975000Y-83952346D01*
X119025000Y-83952346D02*
X119025000Y-87852346D01*
X117975000Y-87802346D02*
X117975000Y-83902346D01*
X115025000Y-83902346D02*
X115025000Y-87802346D01*
X110475000Y-109450000D02*
X110475000Y-105550000D01*
X107525000Y-105550000D02*
X107525000Y-109450000D01*
X106725000Y-109450000D02*
X106725000Y-105550000D01*
X103775000Y-105550000D02*
X103775000Y-109450000D01*
X94625000Y-87583272D02*
X94625000Y-88783272D01*
X96375000Y-88783272D02*
X96375000Y-87583272D01*
X96625000Y-87583272D02*
X96625000Y-88783272D01*
X98375000Y-88783272D02*
X98375000Y-87583272D01*
X100625000Y-87583272D02*
X100625000Y-88783272D01*
X102375000Y-88783272D02*
X102375000Y-87583272D01*
X102625000Y-87583272D02*
X102625000Y-88783272D01*
X104375000Y-88783272D02*
X104375000Y-87583272D01*
X94625000Y-82083272D02*
X94625000Y-83283272D01*
X96375000Y-83283272D02*
X96375000Y-82083272D01*
X96625000Y-82083272D02*
X96625000Y-83283272D01*
X98375000Y-83283272D02*
X98375000Y-82083272D01*
X100625000Y-82083272D02*
X100625000Y-83283272D01*
X102375000Y-83283272D02*
X102375000Y-82083272D01*
X102625000Y-82083272D02*
X102625000Y-83283272D01*
X104375000Y-83283272D02*
X104375000Y-82083272D01*
X98625000Y-87583272D02*
X98625000Y-88783272D01*
X100375000Y-88783272D02*
X100375000Y-87583272D01*
X98625000Y-82083272D02*
X98625000Y-83283272D01*
X100375000Y-83283272D02*
X100375000Y-82083272D01*
X125000000Y-86350000D02*
X124000000Y-86350000D01*
X124000000Y-84650000D02*
X125000000Y-84650000D01*
X86441454Y-85452381D02*
X86774788Y-84976190D01*
X87012883Y-85452381D02*
X87012883Y-84452381D01*
X86631930Y-84452381D01*
X86536692Y-84500000D01*
X86489073Y-84547619D01*
X86441454Y-84642857D01*
X86441454Y-84785714D01*
X86489073Y-84880952D01*
X86536692Y-84928571D01*
X86631930Y-84976190D01*
X87012883Y-84976190D01*
X85965264Y-85452381D02*
X85774788Y-85452381D01*
X85679549Y-85404762D01*
X85631930Y-85357143D01*
X85536692Y-85214286D01*
X85489073Y-85023810D01*
X85489073Y-84642857D01*
X85536692Y-84547619D01*
X85584311Y-84500000D01*
X85679549Y-84452381D01*
X85870026Y-84452381D01*
X85965264Y-84500000D01*
X86012883Y-84547619D01*
X86060502Y-84642857D01*
X86060502Y-84880952D01*
X86012883Y-84976190D01*
X85965264Y-85023810D01*
X85870026Y-85071429D01*
X85679549Y-85071429D01*
X85584311Y-85023810D01*
X85536692Y-84976190D01*
X85489073Y-84880952D01*
X128642857Y-88709489D02*
X128690476Y-88757108D01*
X128833333Y-88804727D01*
X128928571Y-88804727D01*
X129071429Y-88757108D01*
X129166667Y-88661870D01*
X129214286Y-88566632D01*
X129261905Y-88376156D01*
X129261905Y-88233298D01*
X129214286Y-88042822D01*
X129166667Y-87947584D01*
X129071429Y-87852346D01*
X128928571Y-87804727D01*
X128833333Y-87804727D01*
X128690476Y-87852346D01*
X128642857Y-87899965D01*
X127690476Y-88804727D02*
X128261905Y-88804727D01*
X127976191Y-88804727D02*
X127976191Y-87804727D01*
X128071429Y-87947584D01*
X128166667Y-88042822D01*
X128261905Y-88090441D01*
X126738095Y-88804727D02*
X127309524Y-88804727D01*
X127023810Y-88804727D02*
X127023810Y-87804727D01*
X127119048Y-87947584D01*
X127214286Y-88042822D01*
X127309524Y-88090441D01*
X72856905Y-80547381D02*
X72856905Y-81356905D01*
X72809286Y-81452143D01*
X72761667Y-81499762D01*
X72666429Y-81547381D01*
X72475952Y-81547381D01*
X72380714Y-81499762D01*
X72333095Y-81452143D01*
X72285476Y-81356905D01*
X72285476Y-80547381D01*
X71380714Y-80880714D02*
X71380714Y-81547381D01*
X71618810Y-80499762D02*
X71856905Y-81214048D01*
X71237857Y-81214048D01*
X122642857Y-70857143D02*
X122690476Y-70904762D01*
X122833333Y-70952381D01*
X122928571Y-70952381D01*
X123071429Y-70904762D01*
X123166667Y-70809524D01*
X123214286Y-70714286D01*
X123261905Y-70523810D01*
X123261905Y-70380952D01*
X123214286Y-70190476D01*
X123166667Y-70095238D01*
X123071429Y-70000000D01*
X122928571Y-69952381D01*
X122833333Y-69952381D01*
X122690476Y-70000000D01*
X122642857Y-70047619D01*
X121690476Y-70952381D02*
X122261905Y-70952381D01*
X121976191Y-70952381D02*
X121976191Y-69952381D01*
X122071429Y-70095238D01*
X122166667Y-70190476D01*
X122261905Y-70238095D01*
X120785714Y-69952381D02*
X121261905Y-69952381D01*
X121309524Y-70428571D01*
X121261905Y-70380952D01*
X121166667Y-70333333D01*
X120928571Y-70333333D01*
X120833333Y-70380952D01*
X120785714Y-70428571D01*
X120738095Y-70523810D01*
X120738095Y-70761905D01*
X120785714Y-70857143D01*
X120833333Y-70904762D01*
X120928571Y-70952381D01*
X121166667Y-70952381D01*
X121261905Y-70904762D01*
X121309524Y-70857143D01*
X126142857Y-70857143D02*
X126190476Y-70904762D01*
X126333333Y-70952381D01*
X126428571Y-70952381D01*
X126571429Y-70904762D01*
X126666667Y-70809524D01*
X126714286Y-70714286D01*
X126761905Y-70523810D01*
X126761905Y-70380952D01*
X126714286Y-70190476D01*
X126666667Y-70095238D01*
X126571429Y-70000000D01*
X126428571Y-69952381D01*
X126333333Y-69952381D01*
X126190476Y-70000000D01*
X126142857Y-70047619D01*
X125190476Y-70952381D02*
X125761905Y-70952381D01*
X125476191Y-70952381D02*
X125476191Y-69952381D01*
X125571429Y-70095238D01*
X125666667Y-70190476D01*
X125761905Y-70238095D01*
X124333333Y-69952381D02*
X124523810Y-69952381D01*
X124619048Y-70000000D01*
X124666667Y-70047619D01*
X124761905Y-70190476D01*
X124809524Y-70380952D01*
X124809524Y-70761905D01*
X124761905Y-70857143D01*
X124714286Y-70904762D01*
X124619048Y-70952381D01*
X124428571Y-70952381D01*
X124333333Y-70904762D01*
X124285714Y-70857143D01*
X124238095Y-70761905D01*
X124238095Y-70523810D01*
X124285714Y-70428571D01*
X124333333Y-70380952D01*
X124428571Y-70333333D01*
X124619048Y-70333333D01*
X124714286Y-70380952D01*
X124761905Y-70428571D01*
X124809524Y-70523810D01*
X82642857Y-116857143D02*
X82690476Y-116904762D01*
X82833333Y-116952381D01*
X82928571Y-116952381D01*
X83071429Y-116904762D01*
X83166667Y-116809524D01*
X83214286Y-116714286D01*
X83261905Y-116523810D01*
X83261905Y-116380952D01*
X83214286Y-116190476D01*
X83166667Y-116095238D01*
X83071429Y-116000000D01*
X82928571Y-115952381D01*
X82833333Y-115952381D01*
X82690476Y-116000000D01*
X82642857Y-116047619D01*
X81690476Y-116952381D02*
X82261905Y-116952381D01*
X81976191Y-116952381D02*
X81976191Y-115952381D01*
X82071429Y-116095238D01*
X82166667Y-116190476D01*
X82261905Y-116238095D01*
X81357143Y-115952381D02*
X80690476Y-115952381D01*
X81119048Y-116952381D01*
X114642857Y-70857143D02*
X114690476Y-70904762D01*
X114833333Y-70952381D01*
X114928571Y-70952381D01*
X115071429Y-70904762D01*
X115166667Y-70809524D01*
X115214286Y-70714286D01*
X115261905Y-70523810D01*
X115261905Y-70380952D01*
X115214286Y-70190476D01*
X115166667Y-70095238D01*
X115071429Y-70000000D01*
X114928571Y-69952381D01*
X114833333Y-69952381D01*
X114690476Y-70000000D01*
X114642857Y-70047619D01*
X113690476Y-70952381D02*
X114261905Y-70952381D01*
X113976191Y-70952381D02*
X113976191Y-69952381D01*
X114071429Y-70095238D01*
X114166667Y-70190476D01*
X114261905Y-70238095D01*
X113119048Y-70380952D02*
X113214286Y-70333333D01*
X113261905Y-70285714D01*
X113309524Y-70190476D01*
X113309524Y-70142857D01*
X113261905Y-70047619D01*
X113214286Y-70000000D01*
X113119048Y-69952381D01*
X112928571Y-69952381D01*
X112833333Y-70000000D01*
X112785714Y-70047619D01*
X112738095Y-70142857D01*
X112738095Y-70190476D01*
X112785714Y-70285714D01*
X112833333Y-70333333D01*
X112928571Y-70380952D01*
X113119048Y-70380952D01*
X113214286Y-70428571D01*
X113261905Y-70476190D01*
X113309524Y-70571429D01*
X113309524Y-70761905D01*
X113261905Y-70857143D01*
X113214286Y-70904762D01*
X113119048Y-70952381D01*
X112928571Y-70952381D01*
X112833333Y-70904762D01*
X112785714Y-70857143D01*
X112738095Y-70761905D01*
X112738095Y-70571429D01*
X112785714Y-70476190D01*
X112833333Y-70428571D01*
X112928571Y-70380952D01*
X86142857Y-116857143D02*
X86190476Y-116904762D01*
X86333333Y-116952381D01*
X86428571Y-116952381D01*
X86571429Y-116904762D01*
X86666667Y-116809524D01*
X86714286Y-116714286D01*
X86761905Y-116523810D01*
X86761905Y-116380952D01*
X86714286Y-116190476D01*
X86666667Y-116095238D01*
X86571429Y-116000000D01*
X86428571Y-115952381D01*
X86333333Y-115952381D01*
X86190476Y-116000000D01*
X86142857Y-116047619D01*
X85190476Y-116952381D02*
X85761905Y-116952381D01*
X85476191Y-116952381D02*
X85476191Y-115952381D01*
X85571429Y-116095238D01*
X85666667Y-116190476D01*
X85761905Y-116238095D01*
X84714286Y-116952381D02*
X84523810Y-116952381D01*
X84428571Y-116904762D01*
X84380952Y-116857143D01*
X84285714Y-116714286D01*
X84238095Y-116523810D01*
X84238095Y-116142857D01*
X84285714Y-116047619D01*
X84333333Y-116000000D01*
X84428571Y-115952381D01*
X84619048Y-115952381D01*
X84714286Y-116000000D01*
X84761905Y-116047619D01*
X84809524Y-116142857D01*
X84809524Y-116380952D01*
X84761905Y-116476190D01*
X84714286Y-116523810D01*
X84619048Y-116571429D01*
X84428571Y-116571429D01*
X84333333Y-116523810D01*
X84285714Y-116476190D01*
X84238095Y-116380952D01*
X111142857Y-70857143D02*
X111190476Y-70904762D01*
X111333333Y-70952381D01*
X111428571Y-70952381D01*
X111571429Y-70904762D01*
X111666667Y-70809524D01*
X111714286Y-70714286D01*
X111761905Y-70523810D01*
X111761905Y-70380952D01*
X111714286Y-70190476D01*
X111666667Y-70095238D01*
X111571429Y-70000000D01*
X111428571Y-69952381D01*
X111333333Y-69952381D01*
X111190476Y-70000000D01*
X111142857Y-70047619D01*
X110761905Y-70047619D02*
X110714286Y-70000000D01*
X110619048Y-69952381D01*
X110380952Y-69952381D01*
X110285714Y-70000000D01*
X110238095Y-70047619D01*
X110190476Y-70142857D01*
X110190476Y-70238095D01*
X110238095Y-70380952D01*
X110809524Y-70952381D01*
X110190476Y-70952381D01*
X109571429Y-69952381D02*
X109476190Y-69952381D01*
X109380952Y-70000000D01*
X109333333Y-70047619D01*
X109285714Y-70142857D01*
X109238095Y-70333333D01*
X109238095Y-70571429D01*
X109285714Y-70761905D01*
X109333333Y-70857143D01*
X109380952Y-70904762D01*
X109476190Y-70952381D01*
X109571429Y-70952381D01*
X109666667Y-70904762D01*
X109714286Y-70857143D01*
X109761905Y-70761905D01*
X109809524Y-70571429D01*
X109809524Y-70333333D01*
X109761905Y-70142857D01*
X109714286Y-70047619D01*
X109666667Y-70000000D01*
X109571429Y-69952381D01*
X103142857Y-70857143D02*
X103190476Y-70904762D01*
X103333333Y-70952381D01*
X103428571Y-70952381D01*
X103571429Y-70904762D01*
X103666667Y-70809524D01*
X103714286Y-70714286D01*
X103761905Y-70523810D01*
X103761905Y-70380952D01*
X103714286Y-70190476D01*
X103666667Y-70095238D01*
X103571429Y-70000000D01*
X103428571Y-69952381D01*
X103333333Y-69952381D01*
X103190476Y-70000000D01*
X103142857Y-70047619D01*
X102761905Y-70047619D02*
X102714286Y-70000000D01*
X102619048Y-69952381D01*
X102380952Y-69952381D01*
X102285714Y-70000000D01*
X102238095Y-70047619D01*
X102190476Y-70142857D01*
X102190476Y-70238095D01*
X102238095Y-70380952D01*
X102809524Y-70952381D01*
X102190476Y-70952381D01*
X101238095Y-70952381D02*
X101809524Y-70952381D01*
X101523810Y-70952381D02*
X101523810Y-69952381D01*
X101619048Y-70095238D01*
X101714286Y-70190476D01*
X101809524Y-70238095D01*
X99642857Y-70857143D02*
X99690476Y-70904762D01*
X99833333Y-70952381D01*
X99928571Y-70952381D01*
X100071429Y-70904762D01*
X100166667Y-70809524D01*
X100214286Y-70714286D01*
X100261905Y-70523810D01*
X100261905Y-70380952D01*
X100214286Y-70190476D01*
X100166667Y-70095238D01*
X100071429Y-70000000D01*
X99928571Y-69952381D01*
X99833333Y-69952381D01*
X99690476Y-70000000D01*
X99642857Y-70047619D01*
X99261905Y-70047619D02*
X99214286Y-70000000D01*
X99119048Y-69952381D01*
X98880952Y-69952381D01*
X98785714Y-70000000D01*
X98738095Y-70047619D01*
X98690476Y-70142857D01*
X98690476Y-70238095D01*
X98738095Y-70380952D01*
X99309524Y-70952381D01*
X98690476Y-70952381D01*
X98309524Y-70047619D02*
X98261905Y-70000000D01*
X98166667Y-69952381D01*
X97928571Y-69952381D01*
X97833333Y-70000000D01*
X97785714Y-70047619D01*
X97738095Y-70142857D01*
X97738095Y-70238095D01*
X97785714Y-70380952D01*
X98357143Y-70952381D01*
X97738095Y-70952381D01*
X126142857Y-75857143D02*
X126190476Y-75904762D01*
X126333333Y-75952381D01*
X126428571Y-75952381D01*
X126571429Y-75904762D01*
X126666667Y-75809524D01*
X126714286Y-75714286D01*
X126761905Y-75523810D01*
X126761905Y-75380952D01*
X126714286Y-75190476D01*
X126666667Y-75095238D01*
X126571429Y-75000000D01*
X126428571Y-74952381D01*
X126333333Y-74952381D01*
X126190476Y-75000000D01*
X126142857Y-75047619D01*
X125761905Y-75047619D02*
X125714286Y-75000000D01*
X125619048Y-74952381D01*
X125380952Y-74952381D01*
X125285714Y-75000000D01*
X125238095Y-75047619D01*
X125190476Y-75142857D01*
X125190476Y-75238095D01*
X125238095Y-75380952D01*
X125809524Y-75952381D01*
X125190476Y-75952381D01*
X124857143Y-74952381D02*
X124238095Y-74952381D01*
X124571429Y-75333333D01*
X124428571Y-75333333D01*
X124333333Y-75380952D01*
X124285714Y-75428571D01*
X124238095Y-75523810D01*
X124238095Y-75761905D01*
X124285714Y-75857143D01*
X124333333Y-75904762D01*
X124428571Y-75952381D01*
X124714286Y-75952381D01*
X124809524Y-75904762D01*
X124857143Y-75857143D01*
X122642857Y-75857143D02*
X122690476Y-75904762D01*
X122833333Y-75952381D01*
X122928571Y-75952381D01*
X123071429Y-75904762D01*
X123166667Y-75809524D01*
X123214286Y-75714286D01*
X123261905Y-75523810D01*
X123261905Y-75380952D01*
X123214286Y-75190476D01*
X123166667Y-75095238D01*
X123071429Y-75000000D01*
X122928571Y-74952381D01*
X122833333Y-74952381D01*
X122690476Y-75000000D01*
X122642857Y-75047619D01*
X122261905Y-75047619D02*
X122214286Y-75000000D01*
X122119048Y-74952381D01*
X121880952Y-74952381D01*
X121785714Y-75000000D01*
X121738095Y-75047619D01*
X121690476Y-75142857D01*
X121690476Y-75238095D01*
X121738095Y-75380952D01*
X122309524Y-75952381D01*
X121690476Y-75952381D01*
X120833333Y-75285714D02*
X120833333Y-75952381D01*
X121071429Y-74904762D02*
X121309524Y-75619048D01*
X120690476Y-75619048D01*
X114642857Y-75857143D02*
X114690476Y-75904762D01*
X114833333Y-75952381D01*
X114928571Y-75952381D01*
X115071429Y-75904762D01*
X115166667Y-75809524D01*
X115214286Y-75714286D01*
X115261905Y-75523810D01*
X115261905Y-75380952D01*
X115214286Y-75190476D01*
X115166667Y-75095238D01*
X115071429Y-75000000D01*
X114928571Y-74952381D01*
X114833333Y-74952381D01*
X114690476Y-75000000D01*
X114642857Y-75047619D01*
X114261905Y-75047619D02*
X114214286Y-75000000D01*
X114119048Y-74952381D01*
X113880952Y-74952381D01*
X113785714Y-75000000D01*
X113738095Y-75047619D01*
X113690476Y-75142857D01*
X113690476Y-75238095D01*
X113738095Y-75380952D01*
X114309524Y-75952381D01*
X113690476Y-75952381D01*
X112785714Y-74952381D02*
X113261905Y-74952381D01*
X113309524Y-75428571D01*
X113261905Y-75380952D01*
X113166667Y-75333333D01*
X112928571Y-75333333D01*
X112833333Y-75380952D01*
X112785714Y-75428571D01*
X112738095Y-75523810D01*
X112738095Y-75761905D01*
X112785714Y-75857143D01*
X112833333Y-75904762D01*
X112928571Y-75952381D01*
X113166667Y-75952381D01*
X113261905Y-75904762D01*
X113309524Y-75857143D01*
X111142857Y-75857143D02*
X111190476Y-75904762D01*
X111333333Y-75952381D01*
X111428571Y-75952381D01*
X111571429Y-75904762D01*
X111666667Y-75809524D01*
X111714286Y-75714286D01*
X111761905Y-75523810D01*
X111761905Y-75380952D01*
X111714286Y-75190476D01*
X111666667Y-75095238D01*
X111571429Y-75000000D01*
X111428571Y-74952381D01*
X111333333Y-74952381D01*
X111190476Y-75000000D01*
X111142857Y-75047619D01*
X110761905Y-75047619D02*
X110714286Y-75000000D01*
X110619048Y-74952381D01*
X110380952Y-74952381D01*
X110285714Y-75000000D01*
X110238095Y-75047619D01*
X110190476Y-75142857D01*
X110190476Y-75238095D01*
X110238095Y-75380952D01*
X110809524Y-75952381D01*
X110190476Y-75952381D01*
X109333333Y-74952381D02*
X109523810Y-74952381D01*
X109619048Y-75000000D01*
X109666667Y-75047619D01*
X109761905Y-75190476D01*
X109809524Y-75380952D01*
X109809524Y-75761905D01*
X109761905Y-75857143D01*
X109714286Y-75904762D01*
X109619048Y-75952381D01*
X109428571Y-75952381D01*
X109333333Y-75904762D01*
X109285714Y-75857143D01*
X109238095Y-75761905D01*
X109238095Y-75523810D01*
X109285714Y-75428571D01*
X109333333Y-75380952D01*
X109428571Y-75333333D01*
X109619048Y-75333333D01*
X109714286Y-75380952D01*
X109761905Y-75428571D01*
X109809524Y-75523810D01*
X103142857Y-75857143D02*
X103190476Y-75904762D01*
X103333333Y-75952381D01*
X103428571Y-75952381D01*
X103571429Y-75904762D01*
X103666667Y-75809524D01*
X103714286Y-75714286D01*
X103761905Y-75523810D01*
X103761905Y-75380952D01*
X103714286Y-75190476D01*
X103666667Y-75095238D01*
X103571429Y-75000000D01*
X103428571Y-74952381D01*
X103333333Y-74952381D01*
X103190476Y-75000000D01*
X103142857Y-75047619D01*
X102761905Y-75047619D02*
X102714286Y-75000000D01*
X102619048Y-74952381D01*
X102380952Y-74952381D01*
X102285714Y-75000000D01*
X102238095Y-75047619D01*
X102190476Y-75142857D01*
X102190476Y-75238095D01*
X102238095Y-75380952D01*
X102809524Y-75952381D01*
X102190476Y-75952381D01*
X101857143Y-74952381D02*
X101190476Y-74952381D01*
X101619048Y-75952381D01*
X99642857Y-75857143D02*
X99690476Y-75904762D01*
X99833333Y-75952381D01*
X99928571Y-75952381D01*
X100071429Y-75904762D01*
X100166667Y-75809524D01*
X100214286Y-75714286D01*
X100261905Y-75523810D01*
X100261905Y-75380952D01*
X100214286Y-75190476D01*
X100166667Y-75095238D01*
X100071429Y-75000000D01*
X99928571Y-74952381D01*
X99833333Y-74952381D01*
X99690476Y-75000000D01*
X99642857Y-75047619D01*
X99261905Y-75047619D02*
X99214286Y-75000000D01*
X99119048Y-74952381D01*
X98880952Y-74952381D01*
X98785714Y-75000000D01*
X98738095Y-75047619D01*
X98690476Y-75142857D01*
X98690476Y-75238095D01*
X98738095Y-75380952D01*
X99309524Y-75952381D01*
X98690476Y-75952381D01*
X98119048Y-75380952D02*
X98214286Y-75333333D01*
X98261905Y-75285714D01*
X98309524Y-75190476D01*
X98309524Y-75142857D01*
X98261905Y-75047619D01*
X98214286Y-75000000D01*
X98119048Y-74952381D01*
X97928571Y-74952381D01*
X97833333Y-75000000D01*
X97785714Y-75047619D01*
X97738095Y-75142857D01*
X97738095Y-75190476D01*
X97785714Y-75285714D01*
X97833333Y-75333333D01*
X97928571Y-75380952D01*
X98119048Y-75380952D01*
X98214286Y-75428571D01*
X98261905Y-75476190D01*
X98309524Y-75571429D01*
X98309524Y-75761905D01*
X98261905Y-75857143D01*
X98214286Y-75904762D01*
X98119048Y-75952381D01*
X97928571Y-75952381D01*
X97833333Y-75904762D01*
X97785714Y-75857143D01*
X97738095Y-75761905D01*
X97738095Y-75571429D01*
X97785714Y-75476190D01*
X97833333Y-75428571D01*
X97928571Y-75380952D01*
X94142857Y-116857143D02*
X94190476Y-116904762D01*
X94333333Y-116952381D01*
X94428571Y-116952381D01*
X94571429Y-116904762D01*
X94666667Y-116809524D01*
X94714286Y-116714286D01*
X94761905Y-116523810D01*
X94761905Y-116380952D01*
X94714286Y-116190476D01*
X94666667Y-116095238D01*
X94571429Y-116000000D01*
X94428571Y-115952381D01*
X94333333Y-115952381D01*
X94190476Y-116000000D01*
X94142857Y-116047619D01*
X93809524Y-115952381D02*
X93190476Y-115952381D01*
X93523810Y-116333333D01*
X93380952Y-116333333D01*
X93285714Y-116380952D01*
X93238095Y-116428571D01*
X93190476Y-116523810D01*
X93190476Y-116761905D01*
X93238095Y-116857143D01*
X93285714Y-116904762D01*
X93380952Y-116952381D01*
X93666667Y-116952381D01*
X93761905Y-116904762D01*
X93809524Y-116857143D01*
X92809524Y-116047619D02*
X92761905Y-116000000D01*
X92666667Y-115952381D01*
X92428571Y-115952381D01*
X92333333Y-116000000D01*
X92285714Y-116047619D01*
X92238095Y-116142857D01*
X92238095Y-116238095D01*
X92285714Y-116380952D01*
X92857143Y-116952381D01*
X92238095Y-116952381D01*
X97642857Y-116857143D02*
X97690476Y-116904762D01*
X97833333Y-116952381D01*
X97928571Y-116952381D01*
X98071429Y-116904762D01*
X98166667Y-116809524D01*
X98214286Y-116714286D01*
X98261905Y-116523810D01*
X98261905Y-116380952D01*
X98214286Y-116190476D01*
X98166667Y-116095238D01*
X98071429Y-116000000D01*
X97928571Y-115952381D01*
X97833333Y-115952381D01*
X97690476Y-116000000D01*
X97642857Y-116047619D01*
X97309524Y-115952381D02*
X96690476Y-115952381D01*
X97023810Y-116333333D01*
X96880952Y-116333333D01*
X96785714Y-116380952D01*
X96738095Y-116428571D01*
X96690476Y-116523810D01*
X96690476Y-116761905D01*
X96738095Y-116857143D01*
X96785714Y-116904762D01*
X96880952Y-116952381D01*
X97166667Y-116952381D01*
X97261905Y-116904762D01*
X97309524Y-116857143D01*
X96357143Y-115952381D02*
X95738095Y-115952381D01*
X96071429Y-116333333D01*
X95928571Y-116333333D01*
X95833333Y-116380952D01*
X95785714Y-116428571D01*
X95738095Y-116523810D01*
X95738095Y-116761905D01*
X95785714Y-116857143D01*
X95833333Y-116904762D01*
X95928571Y-116952381D01*
X96214286Y-116952381D01*
X96309524Y-116904762D01*
X96357143Y-116857143D01*
X76357143Y-75857143D02*
X76404762Y-75809524D01*
X76452381Y-75666667D01*
X76452381Y-75571429D01*
X76404762Y-75428571D01*
X76309524Y-75333333D01*
X76214286Y-75285714D01*
X76023810Y-75238095D01*
X75880952Y-75238095D01*
X75690476Y-75285714D01*
X75595238Y-75333333D01*
X75500000Y-75428571D01*
X75452381Y-75571429D01*
X75452381Y-75666667D01*
X75500000Y-75809524D01*
X75547619Y-75857143D01*
X75452381Y-76190476D02*
X75452381Y-76809524D01*
X75833333Y-76476190D01*
X75833333Y-76619048D01*
X75880952Y-76714286D01*
X75928571Y-76761905D01*
X76023810Y-76809524D01*
X76261905Y-76809524D01*
X76357143Y-76761905D01*
X76404762Y-76714286D01*
X76452381Y-76619048D01*
X76452381Y-76333333D01*
X76404762Y-76238095D01*
X76357143Y-76190476D01*
X75785714Y-77666667D02*
X76452381Y-77666667D01*
X75404762Y-77428571D02*
X76119048Y-77190476D01*
X76119048Y-77809524D01*
X76345733Y-122547595D02*
X76393352Y-122595214D01*
X76536209Y-122642833D01*
X76631447Y-122642833D01*
X76774305Y-122595214D01*
X76869543Y-122499976D01*
X76917162Y-122404738D01*
X76964781Y-122214262D01*
X76964781Y-122071404D01*
X76917162Y-121880928D01*
X76869543Y-121785690D01*
X76774305Y-121690452D01*
X76631447Y-121642833D01*
X76536209Y-121642833D01*
X76393352Y-121690452D01*
X76345733Y-121738071D01*
X76012400Y-121642833D02*
X75393352Y-121642833D01*
X75726686Y-122023785D01*
X75583828Y-122023785D01*
X75488590Y-122071404D01*
X75440971Y-122119023D01*
X75393352Y-122214262D01*
X75393352Y-122452357D01*
X75440971Y-122547595D01*
X75488590Y-122595214D01*
X75583828Y-122642833D01*
X75869543Y-122642833D01*
X75964781Y-122595214D01*
X76012400Y-122547595D01*
X74488590Y-121642833D02*
X74964781Y-121642833D01*
X75012400Y-122119023D01*
X74964781Y-122071404D01*
X74869543Y-122023785D01*
X74631447Y-122023785D01*
X74536209Y-122071404D01*
X74488590Y-122119023D01*
X74440971Y-122214262D01*
X74440971Y-122452357D01*
X74488590Y-122547595D01*
X74536209Y-122595214D01*
X74631447Y-122642833D01*
X74869543Y-122642833D01*
X74964781Y-122595214D01*
X75012400Y-122547595D01*
X89666666Y-117452381D02*
X90142857Y-117452381D01*
X90142857Y-116452381D01*
X89380952Y-116547619D02*
X89333333Y-116500000D01*
X89238095Y-116452381D01*
X88999999Y-116452381D01*
X88904761Y-116500000D01*
X88857142Y-116547619D01*
X88809523Y-116642857D01*
X88809523Y-116738095D01*
X88857142Y-116880952D01*
X89428571Y-117452381D01*
X88809523Y-117452381D01*
X118452381Y-70333334D02*
X118452381Y-69857143D01*
X117452381Y-69857143D01*
X117785714Y-71095239D02*
X118452381Y-71095239D01*
X117404762Y-70857143D02*
X118119048Y-70619048D01*
X118119048Y-71238096D01*
X106952381Y-70333334D02*
X106952381Y-69857143D01*
X105952381Y-69857143D01*
X105952381Y-71142858D02*
X105952381Y-70666667D01*
X106428571Y-70619048D01*
X106380952Y-70666667D01*
X106333333Y-70761905D01*
X106333333Y-71000001D01*
X106380952Y-71095239D01*
X106428571Y-71142858D01*
X106523810Y-71190477D01*
X106761905Y-71190477D01*
X106857143Y-71142858D01*
X106904762Y-71095239D01*
X106952381Y-71000001D01*
X106952381Y-70761905D01*
X106904762Y-70666667D01*
X106857143Y-70619048D01*
X118452381Y-75333334D02*
X118452381Y-74857143D01*
X117452381Y-74857143D01*
X117452381Y-75571429D02*
X117452381Y-76238096D01*
X118452381Y-75809524D01*
X106952381Y-75333334D02*
X106952381Y-74857143D01*
X105952381Y-74857143D01*
X106380952Y-75809524D02*
X106333333Y-75714286D01*
X106285714Y-75666667D01*
X106190476Y-75619048D01*
X106142857Y-75619048D01*
X106047619Y-75666667D01*
X106000000Y-75714286D01*
X105952381Y-75809524D01*
X105952381Y-76000001D01*
X106000000Y-76095239D01*
X106047619Y-76142858D01*
X106142857Y-76190477D01*
X106190476Y-76190477D01*
X106285714Y-76142858D01*
X106333333Y-76095239D01*
X106380952Y-76000001D01*
X106380952Y-75809524D01*
X106428571Y-75714286D01*
X106476190Y-75666667D01*
X106571429Y-75619048D01*
X106761905Y-75619048D01*
X106857143Y-75666667D01*
X106904762Y-75714286D01*
X106952381Y-75809524D01*
X106952381Y-76000001D01*
X106904762Y-76095239D01*
X106857143Y-76142858D01*
X106761905Y-76190477D01*
X106571429Y-76190477D01*
X106476190Y-76142858D01*
X106428571Y-76095239D01*
X106380952Y-76000001D01*
X114233930Y-99270015D02*
X114329168Y-99222396D01*
X114424406Y-99127158D01*
X114567263Y-98984301D01*
X114662502Y-98936682D01*
X114757740Y-98936682D01*
X114710121Y-99174777D02*
X114805359Y-99127158D01*
X114900597Y-99031920D01*
X114948216Y-98841444D01*
X114948216Y-98508110D01*
X114900597Y-98317634D01*
X114805359Y-98222396D01*
X114710121Y-98174777D01*
X114519644Y-98174777D01*
X114424406Y-98222396D01*
X114329168Y-98317634D01*
X114281549Y-98508110D01*
X114281549Y-98841444D01*
X114329168Y-99031920D01*
X114424406Y-99127158D01*
X114519644Y-99174777D01*
X114710121Y-99174777D01*
X113329168Y-99174777D02*
X113900597Y-99174777D01*
X113614883Y-99174777D02*
X113614883Y-98174777D01*
X113710121Y-98317634D01*
X113805359Y-98412872D01*
X113900597Y-98460491D01*
X117805358Y-108036777D02*
X118138692Y-107560586D01*
X118376787Y-108036777D02*
X118376787Y-107036777D01*
X117995834Y-107036777D01*
X117900596Y-107084396D01*
X117852977Y-107132015D01*
X117805358Y-107227253D01*
X117805358Y-107370110D01*
X117852977Y-107465348D01*
X117900596Y-107512967D01*
X117995834Y-107560586D01*
X118376787Y-107560586D01*
X116900596Y-107036777D02*
X117376787Y-107036777D01*
X117424406Y-107512967D01*
X117376787Y-107465348D01*
X117281549Y-107417729D01*
X117043453Y-107417729D01*
X116948215Y-107465348D01*
X116900596Y-107512967D01*
X116852977Y-107608206D01*
X116852977Y-107846301D01*
X116900596Y-107941539D01*
X116948215Y-107989158D01*
X117043453Y-108036777D01*
X117281549Y-108036777D01*
X117376787Y-107989158D01*
X117424406Y-107941539D01*
X114305358Y-108036777D02*
X114638692Y-107560586D01*
X114876787Y-108036777D02*
X114876787Y-107036777D01*
X114495834Y-107036777D01*
X114400596Y-107084396D01*
X114352977Y-107132015D01*
X114305358Y-107227253D01*
X114305358Y-107370110D01*
X114352977Y-107465348D01*
X114400596Y-107512967D01*
X114495834Y-107560586D01*
X114876787Y-107560586D01*
X113448215Y-107036777D02*
X113638692Y-107036777D01*
X113733930Y-107084396D01*
X113781549Y-107132015D01*
X113876787Y-107274872D01*
X113924406Y-107465348D01*
X113924406Y-107846301D01*
X113876787Y-107941539D01*
X113829168Y-107989158D01*
X113733930Y-108036777D01*
X113543453Y-108036777D01*
X113448215Y-107989158D01*
X113400596Y-107941539D01*
X113352977Y-107846301D01*
X113352977Y-107608206D01*
X113400596Y-107512967D01*
X113448215Y-107465348D01*
X113543453Y-107417729D01*
X113733930Y-107417729D01*
X113829168Y-107465348D01*
X113876787Y-107512967D01*
X113924406Y-107608206D01*
X79452381Y-79833334D02*
X78976190Y-79500000D01*
X79452381Y-79261905D02*
X78452381Y-79261905D01*
X78452381Y-79642858D01*
X78500000Y-79738096D01*
X78547619Y-79785715D01*
X78642857Y-79833334D01*
X78785714Y-79833334D01*
X78880952Y-79785715D01*
X78928571Y-79738096D01*
X78976190Y-79642858D01*
X78976190Y-79261905D01*
X78452381Y-80166667D02*
X78452381Y-80833334D01*
X79452381Y-80404762D01*
X86967645Y-88952381D02*
X87300979Y-88476190D01*
X87539074Y-88952381D02*
X87539074Y-87952381D01*
X87158121Y-87952381D01*
X87062883Y-88000000D01*
X87015264Y-88047619D01*
X86967645Y-88142857D01*
X86967645Y-88285714D01*
X87015264Y-88380952D01*
X87062883Y-88428571D01*
X87158121Y-88476190D01*
X87539074Y-88476190D01*
X86015264Y-88952381D02*
X86586693Y-88952381D01*
X86300979Y-88952381D02*
X86300979Y-87952381D01*
X86396217Y-88095238D01*
X86491455Y-88190476D01*
X86586693Y-88238095D01*
X85396217Y-87952381D02*
X85300978Y-87952381D01*
X85205740Y-88000000D01*
X85158121Y-88047619D01*
X85110502Y-88142857D01*
X85062883Y-88333333D01*
X85062883Y-88571429D01*
X85110502Y-88761905D01*
X85158121Y-88857143D01*
X85205740Y-88904762D01*
X85300978Y-88952381D01*
X85396217Y-88952381D01*
X85491455Y-88904762D01*
X85539074Y-88857143D01*
X85586693Y-88761905D01*
X85634312Y-88571429D01*
X85634312Y-88333333D01*
X85586693Y-88142857D01*
X85539074Y-88047619D01*
X85491455Y-88000000D01*
X85396217Y-87952381D01*
X120952381Y-85259489D02*
X120476190Y-84926155D01*
X120952381Y-84688060D02*
X119952381Y-84688060D01*
X119952381Y-85069013D01*
X120000000Y-85164251D01*
X120047619Y-85211870D01*
X120142857Y-85259489D01*
X120285714Y-85259489D01*
X120380952Y-85211870D01*
X120428571Y-85164251D01*
X120476190Y-85069013D01*
X120476190Y-84688060D01*
X120952381Y-86211870D02*
X120952381Y-85640441D01*
X120952381Y-85926155D02*
X119952381Y-85926155D01*
X120095238Y-85830917D01*
X120190476Y-85735679D01*
X120238095Y-85640441D01*
X120952381Y-87164251D02*
X120952381Y-86592822D01*
X120952381Y-86878536D02*
X119952381Y-86878536D01*
X120095238Y-86783298D01*
X120190476Y-86688060D01*
X120238095Y-86592822D01*
X116952381Y-85209489D02*
X116476190Y-84876155D01*
X116952381Y-84638060D02*
X115952381Y-84638060D01*
X115952381Y-85019013D01*
X116000000Y-85114251D01*
X116047619Y-85161870D01*
X116142857Y-85209489D01*
X116285714Y-85209489D01*
X116380952Y-85161870D01*
X116428571Y-85114251D01*
X116476190Y-85019013D01*
X116476190Y-84638060D01*
X116952381Y-86161870D02*
X116952381Y-85590441D01*
X116952381Y-85876155D02*
X115952381Y-85876155D01*
X116095238Y-85780917D01*
X116190476Y-85685679D01*
X116238095Y-85590441D01*
X116047619Y-86542822D02*
X116000000Y-86590441D01*
X115952381Y-86685679D01*
X115952381Y-86923775D01*
X116000000Y-87019013D01*
X116047619Y-87066632D01*
X116142857Y-87114251D01*
X116238095Y-87114251D01*
X116380952Y-87066632D01*
X116952381Y-86495203D01*
X116952381Y-87114251D01*
X109377380Y-106857143D02*
X108901189Y-106523809D01*
X109377380Y-106285714D02*
X108377380Y-106285714D01*
X108377380Y-106666667D01*
X108424999Y-106761905D01*
X108472618Y-106809524D01*
X108567856Y-106857143D01*
X108710713Y-106857143D01*
X108805951Y-106809524D01*
X108853570Y-106761905D01*
X108901189Y-106666667D01*
X108901189Y-106285714D01*
X109377380Y-107809524D02*
X109377380Y-107238095D01*
X109377380Y-107523809D02*
X108377380Y-107523809D01*
X108520237Y-107428571D01*
X108615475Y-107333333D01*
X108663094Y-107238095D01*
X108805951Y-108380952D02*
X108758332Y-108285714D01*
X108710713Y-108238095D01*
X108615475Y-108190476D01*
X108567856Y-108190476D01*
X108472618Y-108238095D01*
X108424999Y-108285714D01*
X108377380Y-108380952D01*
X108377380Y-108571429D01*
X108424999Y-108666667D01*
X108472618Y-108714286D01*
X108567856Y-108761905D01*
X108615475Y-108761905D01*
X108710713Y-108714286D01*
X108758332Y-108666667D01*
X108805951Y-108571429D01*
X108805951Y-108380952D01*
X108853570Y-108285714D01*
X108901189Y-108238095D01*
X108996428Y-108190476D01*
X109186904Y-108190476D01*
X109282142Y-108238095D01*
X109329761Y-108285714D01*
X109377380Y-108380952D01*
X109377380Y-108571429D01*
X109329761Y-108666667D01*
X109282142Y-108714286D01*
X109186904Y-108761905D01*
X108996428Y-108761905D01*
X108901189Y-108714286D01*
X108853570Y-108666667D01*
X108805951Y-108571429D01*
X105627380Y-106857143D02*
X105151189Y-106523809D01*
X105627380Y-106285714D02*
X104627380Y-106285714D01*
X104627380Y-106666667D01*
X104674999Y-106761905D01*
X104722618Y-106809524D01*
X104817856Y-106857143D01*
X104960713Y-106857143D01*
X105055951Y-106809524D01*
X105103570Y-106761905D01*
X105151189Y-106666667D01*
X105151189Y-106285714D01*
X105627380Y-107809524D02*
X105627380Y-107238095D01*
X105627380Y-107523809D02*
X104627380Y-107523809D01*
X104770237Y-107428571D01*
X104865475Y-107333333D01*
X104913094Y-107238095D01*
X105627380Y-108285714D02*
X105627380Y-108476190D01*
X105579761Y-108571429D01*
X105532142Y-108619048D01*
X105389285Y-108714286D01*
X105198809Y-108761905D01*
X104817856Y-108761905D01*
X104722618Y-108714286D01*
X104674999Y-108666667D01*
X104627380Y-108571429D01*
X104627380Y-108380952D01*
X104674999Y-108285714D01*
X104722618Y-108238095D01*
X104817856Y-108190476D01*
X105055951Y-108190476D01*
X105151189Y-108238095D01*
X105198809Y-108285714D01*
X105246428Y-108380952D01*
X105246428Y-108571429D01*
X105198809Y-108666667D01*
X105151189Y-108714286D01*
X105055951Y-108761905D01*
X95952381Y-90540415D02*
X95476190Y-90207081D01*
X95952381Y-89968986D02*
X94952381Y-89968986D01*
X94952381Y-90349939D01*
X95000000Y-90445177D01*
X95047619Y-90492796D01*
X95142857Y-90540415D01*
X95285714Y-90540415D01*
X95380952Y-90492796D01*
X95428571Y-90445177D01*
X95476190Y-90349939D01*
X95476190Y-89968986D01*
X95047619Y-90921367D02*
X95000000Y-90968986D01*
X94952381Y-91064224D01*
X94952381Y-91302320D01*
X95000000Y-91397558D01*
X95047619Y-91445177D01*
X95142857Y-91492796D01*
X95238095Y-91492796D01*
X95380952Y-91445177D01*
X95952381Y-90873748D01*
X95952381Y-91492796D01*
X94952381Y-92111843D02*
X94952381Y-92207082D01*
X95000000Y-92302320D01*
X95047619Y-92349939D01*
X95142857Y-92397558D01*
X95333333Y-92445177D01*
X95571429Y-92445177D01*
X95761905Y-92397558D01*
X95857143Y-92349939D01*
X95904762Y-92302320D01*
X95952381Y-92207082D01*
X95952381Y-92111843D01*
X95904762Y-92016605D01*
X95857143Y-91968986D01*
X95761905Y-91921367D01*
X95571429Y-91873748D01*
X95333333Y-91873748D01*
X95142857Y-91921367D01*
X95047619Y-91968986D01*
X95000000Y-92016605D01*
X94952381Y-92111843D01*
X97952381Y-90540415D02*
X97476190Y-90207081D01*
X97952381Y-89968986D02*
X96952381Y-89968986D01*
X96952381Y-90349939D01*
X97000000Y-90445177D01*
X97047619Y-90492796D01*
X97142857Y-90540415D01*
X97285714Y-90540415D01*
X97380952Y-90492796D01*
X97428571Y-90445177D01*
X97476190Y-90349939D01*
X97476190Y-89968986D01*
X97047619Y-90921367D02*
X97000000Y-90968986D01*
X96952381Y-91064224D01*
X96952381Y-91302320D01*
X97000000Y-91397558D01*
X97047619Y-91445177D01*
X97142857Y-91492796D01*
X97238095Y-91492796D01*
X97380952Y-91445177D01*
X97952381Y-90873748D01*
X97952381Y-91492796D01*
X97952381Y-92445177D02*
X97952381Y-91873748D01*
X97952381Y-92159462D02*
X96952381Y-92159462D01*
X97095238Y-92064224D01*
X97190476Y-91968986D01*
X97238095Y-91873748D01*
X101952381Y-90540415D02*
X101476190Y-90207081D01*
X101952381Y-89968986D02*
X100952381Y-89968986D01*
X100952381Y-90349939D01*
X101000000Y-90445177D01*
X101047619Y-90492796D01*
X101142857Y-90540415D01*
X101285714Y-90540415D01*
X101380952Y-90492796D01*
X101428571Y-90445177D01*
X101476190Y-90349939D01*
X101476190Y-89968986D01*
X101047619Y-90921367D02*
X101000000Y-90968986D01*
X100952381Y-91064224D01*
X100952381Y-91302320D01*
X101000000Y-91397558D01*
X101047619Y-91445177D01*
X101142857Y-91492796D01*
X101238095Y-91492796D01*
X101380952Y-91445177D01*
X101952381Y-90873748D01*
X101952381Y-91492796D01*
X101047619Y-91873748D02*
X101000000Y-91921367D01*
X100952381Y-92016605D01*
X100952381Y-92254701D01*
X101000000Y-92349939D01*
X101047619Y-92397558D01*
X101142857Y-92445177D01*
X101238095Y-92445177D01*
X101380952Y-92397558D01*
X101952381Y-91826129D01*
X101952381Y-92445177D01*
X103952381Y-90540415D02*
X103476190Y-90207081D01*
X103952381Y-89968986D02*
X102952381Y-89968986D01*
X102952381Y-90349939D01*
X103000000Y-90445177D01*
X103047619Y-90492796D01*
X103142857Y-90540415D01*
X103285714Y-90540415D01*
X103380952Y-90492796D01*
X103428571Y-90445177D01*
X103476190Y-90349939D01*
X103476190Y-89968986D01*
X103047619Y-90921367D02*
X103000000Y-90968986D01*
X102952381Y-91064224D01*
X102952381Y-91302320D01*
X103000000Y-91397558D01*
X103047619Y-91445177D01*
X103142857Y-91492796D01*
X103238095Y-91492796D01*
X103380952Y-91445177D01*
X103952381Y-90873748D01*
X103952381Y-91492796D01*
X102952381Y-91826129D02*
X102952381Y-92445177D01*
X103333333Y-92111843D01*
X103333333Y-92254701D01*
X103380952Y-92349939D01*
X103428571Y-92397558D01*
X103523810Y-92445177D01*
X103761905Y-92445177D01*
X103857143Y-92397558D01*
X103904762Y-92349939D01*
X103952381Y-92254701D01*
X103952381Y-91968986D01*
X103904762Y-91873748D01*
X103857143Y-91826129D01*
X95952381Y-79040415D02*
X95476190Y-78707081D01*
X95952381Y-78468986D02*
X94952381Y-78468986D01*
X94952381Y-78849939D01*
X95000000Y-78945177D01*
X95047619Y-78992796D01*
X95142857Y-79040415D01*
X95285714Y-79040415D01*
X95380952Y-78992796D01*
X95428571Y-78945177D01*
X95476190Y-78849939D01*
X95476190Y-78468986D01*
X95047619Y-79421367D02*
X95000000Y-79468986D01*
X94952381Y-79564224D01*
X94952381Y-79802320D01*
X95000000Y-79897558D01*
X95047619Y-79945177D01*
X95142857Y-79992796D01*
X95238095Y-79992796D01*
X95380952Y-79945177D01*
X95952381Y-79373748D01*
X95952381Y-79992796D01*
X95285714Y-80849939D02*
X95952381Y-80849939D01*
X94904762Y-80611843D02*
X95619048Y-80373748D01*
X95619048Y-80992796D01*
X97952381Y-79040415D02*
X97476190Y-78707081D01*
X97952381Y-78468986D02*
X96952381Y-78468986D01*
X96952381Y-78849939D01*
X97000000Y-78945177D01*
X97047619Y-78992796D01*
X97142857Y-79040415D01*
X97285714Y-79040415D01*
X97380952Y-78992796D01*
X97428571Y-78945177D01*
X97476190Y-78849939D01*
X97476190Y-78468986D01*
X97047619Y-79421367D02*
X97000000Y-79468986D01*
X96952381Y-79564224D01*
X96952381Y-79802320D01*
X97000000Y-79897558D01*
X97047619Y-79945177D01*
X97142857Y-79992796D01*
X97238095Y-79992796D01*
X97380952Y-79945177D01*
X97952381Y-79373748D01*
X97952381Y-79992796D01*
X96952381Y-80897558D02*
X96952381Y-80421367D01*
X97428571Y-80373748D01*
X97380952Y-80421367D01*
X97333333Y-80516605D01*
X97333333Y-80754701D01*
X97380952Y-80849939D01*
X97428571Y-80897558D01*
X97523810Y-80945177D01*
X97761905Y-80945177D01*
X97857143Y-80897558D01*
X97904762Y-80849939D01*
X97952381Y-80754701D01*
X97952381Y-80516605D01*
X97904762Y-80421367D01*
X97857143Y-80373748D01*
X101952381Y-79040415D02*
X101476190Y-78707081D01*
X101952381Y-78468986D02*
X100952381Y-78468986D01*
X100952381Y-78849939D01*
X101000000Y-78945177D01*
X101047619Y-78992796D01*
X101142857Y-79040415D01*
X101285714Y-79040415D01*
X101380952Y-78992796D01*
X101428571Y-78945177D01*
X101476190Y-78849939D01*
X101476190Y-78468986D01*
X101047619Y-79421367D02*
X101000000Y-79468986D01*
X100952381Y-79564224D01*
X100952381Y-79802320D01*
X101000000Y-79897558D01*
X101047619Y-79945177D01*
X101142857Y-79992796D01*
X101238095Y-79992796D01*
X101380952Y-79945177D01*
X101952381Y-79373748D01*
X101952381Y-79992796D01*
X100952381Y-80849939D02*
X100952381Y-80659462D01*
X101000000Y-80564224D01*
X101047619Y-80516605D01*
X101190476Y-80421367D01*
X101380952Y-80373748D01*
X101761905Y-80373748D01*
X101857143Y-80421367D01*
X101904762Y-80468986D01*
X101952381Y-80564224D01*
X101952381Y-80754701D01*
X101904762Y-80849939D01*
X101857143Y-80897558D01*
X101761905Y-80945177D01*
X101523810Y-80945177D01*
X101428571Y-80897558D01*
X101380952Y-80849939D01*
X101333333Y-80754701D01*
X101333333Y-80564224D01*
X101380952Y-80468986D01*
X101428571Y-80421367D01*
X101523810Y-80373748D01*
X103952381Y-79040415D02*
X103476190Y-78707081D01*
X103952381Y-78468986D02*
X102952381Y-78468986D01*
X102952381Y-78849939D01*
X103000000Y-78945177D01*
X103047619Y-78992796D01*
X103142857Y-79040415D01*
X103285714Y-79040415D01*
X103380952Y-78992796D01*
X103428571Y-78945177D01*
X103476190Y-78849939D01*
X103476190Y-78468986D01*
X103047619Y-79421367D02*
X103000000Y-79468986D01*
X102952381Y-79564224D01*
X102952381Y-79802320D01*
X103000000Y-79897558D01*
X103047619Y-79945177D01*
X103142857Y-79992796D01*
X103238095Y-79992796D01*
X103380952Y-79945177D01*
X103952381Y-79373748D01*
X103952381Y-79992796D01*
X102952381Y-80326129D02*
X102952381Y-80992796D01*
X103952381Y-80564224D01*
X99952381Y-90540415D02*
X99476190Y-90207081D01*
X99952381Y-89968986D02*
X98952381Y-89968986D01*
X98952381Y-90349939D01*
X99000000Y-90445177D01*
X99047619Y-90492796D01*
X99142857Y-90540415D01*
X99285714Y-90540415D01*
X99380952Y-90492796D01*
X99428571Y-90445177D01*
X99476190Y-90349939D01*
X99476190Y-89968986D01*
X98952381Y-90873748D02*
X98952381Y-91492796D01*
X99333333Y-91159462D01*
X99333333Y-91302320D01*
X99380952Y-91397558D01*
X99428571Y-91445177D01*
X99523810Y-91492796D01*
X99761905Y-91492796D01*
X99857143Y-91445177D01*
X99904762Y-91397558D01*
X99952381Y-91302320D01*
X99952381Y-91016605D01*
X99904762Y-90921367D01*
X99857143Y-90873748D01*
X98952381Y-91826129D02*
X98952381Y-92492796D01*
X99952381Y-92064224D01*
X99952381Y-79040415D02*
X99476190Y-78707081D01*
X99952381Y-78468986D02*
X98952381Y-78468986D01*
X98952381Y-78849939D01*
X99000000Y-78945177D01*
X99047619Y-78992796D01*
X99142857Y-79040415D01*
X99285714Y-79040415D01*
X99380952Y-78992796D01*
X99428571Y-78945177D01*
X99476190Y-78849939D01*
X99476190Y-78468986D01*
X98952381Y-79373748D02*
X98952381Y-79992796D01*
X99333333Y-79659462D01*
X99333333Y-79802320D01*
X99380952Y-79897558D01*
X99428571Y-79945177D01*
X99523810Y-79992796D01*
X99761905Y-79992796D01*
X99857143Y-79945177D01*
X99904762Y-79897558D01*
X99952381Y-79802320D01*
X99952381Y-79516605D01*
X99904762Y-79421367D01*
X99857143Y-79373748D01*
X99380952Y-80564224D02*
X99333333Y-80468986D01*
X99285714Y-80421367D01*
X99190476Y-80373748D01*
X99142857Y-80373748D01*
X99047619Y-80421367D01*
X99000000Y-80468986D01*
X98952381Y-80564224D01*
X98952381Y-80754701D01*
X99000000Y-80849939D01*
X99047619Y-80897558D01*
X99142857Y-80945177D01*
X99190476Y-80945177D01*
X99285714Y-80897558D01*
X99333333Y-80849939D01*
X99380952Y-80754701D01*
X99380952Y-80564224D01*
X99428571Y-80468986D01*
X99476190Y-80421367D01*
X99571429Y-80373748D01*
X99761905Y-80373748D01*
X99857143Y-80421367D01*
X99904762Y-80468986D01*
X99952381Y-80564224D01*
X99952381Y-80754701D01*
X99904762Y-80849939D01*
X99857143Y-80897558D01*
X99761905Y-80945177D01*
X99571429Y-80945177D01*
X99476190Y-80897558D01*
X99428571Y-80849939D01*
X99380952Y-80754701D01*
X128642857Y-85857143D02*
X128690476Y-85904762D01*
X128833333Y-85952381D01*
X128928571Y-85952381D01*
X129071429Y-85904762D01*
X129166667Y-85809524D01*
X129214286Y-85714286D01*
X129261905Y-85523810D01*
X129261905Y-85380952D01*
X129214286Y-85190476D01*
X129166667Y-85095238D01*
X129071429Y-85000000D01*
X128928571Y-84952381D01*
X128833333Y-84952381D01*
X128690476Y-85000000D01*
X128642857Y-85047619D01*
X127690476Y-85952381D02*
X128261905Y-85952381D01*
X127976191Y-85952381D02*
X127976191Y-84952381D01*
X128071429Y-85095238D01*
X128166667Y-85190476D01*
X128261905Y-85238095D01*
X127071429Y-84952381D02*
X126976190Y-84952381D01*
X126880952Y-85000000D01*
X126833333Y-85047619D01*
X126785714Y-85142857D01*
X126738095Y-85333333D01*
X126738095Y-85571429D01*
X126785714Y-85761905D01*
X126833333Y-85857143D01*
X126880952Y-85904762D01*
X126976190Y-85952381D01*
X127071429Y-85952381D01*
X127166667Y-85904762D01*
X127214286Y-85857143D01*
X127261905Y-85761905D01*
X127309524Y-85571429D01*
X127309524Y-85333333D01*
X127261905Y-85142857D01*
X127214286Y-85047619D01*
X127166667Y-85000000D01*
X127071429Y-84952381D01*
%LPC*%
D12*
X64250000Y-97425000D03*
X62980000Y-97425000D03*
X64250000Y-96155000D03*
X62980000Y-96155000D03*
X64250000Y-94885000D03*
X62980000Y-94885000D03*
X64250000Y-93615000D03*
X62980000Y-93615000D03*
X64250000Y-92345000D03*
X62980000Y-92345000D03*
X64250000Y-91075000D03*
X62980000Y-91075000D03*
X64250000Y-89805000D03*
X62980000Y-89805000D03*
X64250000Y-88535000D03*
X62980000Y-88535000D03*
X64250000Y-87265000D03*
X62980000Y-87265000D03*
X64250000Y-85995000D03*
X62980000Y-85995000D03*
X64250000Y-84725000D03*
X62980000Y-84725000D03*
X64250000Y-83455000D03*
X62980000Y-83455000D03*
X102575000Y-64250000D03*
X102575000Y-62980000D03*
X103845000Y-64250000D03*
X103845000Y-62980000D03*
X105115000Y-64250000D03*
X105115000Y-62980000D03*
X106385000Y-64250000D03*
X106385000Y-62980000D03*
X107655000Y-64250000D03*
X107655000Y-62980000D03*
X108925000Y-64250000D03*
X108925000Y-62980000D03*
X110195000Y-64250000D03*
X110195000Y-62980000D03*
X111465000Y-64250000D03*
X111465000Y-62980000D03*
X112735000Y-64250000D03*
X112735000Y-62980000D03*
X114005000Y-64250000D03*
X114005000Y-62980000D03*
X115275000Y-64250000D03*
X115275000Y-62980000D03*
X116545000Y-64250000D03*
X116545000Y-62980000D03*
D13*
X83824788Y-85000000D03*
X88724788Y-85000000D03*
D14*
X123500000Y-88352346D03*
X125500000Y-88352346D03*
D15*
X70190000Y-83000000D03*
X71460000Y-83000000D03*
X72730000Y-83000000D03*
X74000000Y-83000000D03*
X74000000Y-76650000D03*
X72730000Y-76650000D03*
X71460000Y-76650000D03*
X70190000Y-76650000D03*
D16*
X78040000Y-66960000D03*
D17*
X78040000Y-69500000D03*
X75500000Y-66960000D03*
X75500000Y-69500000D03*
X72960000Y-66960000D03*
X72960000Y-69500000D03*
D18*
X122000000Y-69073638D03*
X122000000Y-72073638D03*
X125500000Y-69073638D03*
X125500000Y-72073638D03*
X82000000Y-118000000D03*
X82000000Y-115000000D03*
X114000000Y-69073638D03*
X114000000Y-72073638D03*
X85500000Y-118000000D03*
X85500000Y-115000000D03*
X110500000Y-69073638D03*
X110500000Y-72073638D03*
X102500000Y-69073638D03*
X102500000Y-72073638D03*
X99000000Y-69073638D03*
X99000000Y-72073638D03*
X125500000Y-74073638D03*
X125500000Y-77073638D03*
X122000000Y-74073638D03*
X122000000Y-77073638D03*
X114000000Y-74073638D03*
X114000000Y-77073638D03*
X110500000Y-74073638D03*
X110500000Y-77073638D03*
X102500000Y-74073638D03*
X102500000Y-77073638D03*
X99000000Y-74073638D03*
X99000000Y-77073638D03*
X93500000Y-118000000D03*
X93500000Y-115000000D03*
X97000000Y-118000000D03*
X97000000Y-115000000D03*
D19*
X76000000Y-79000000D03*
X76000000Y-81000000D03*
D14*
X76702876Y-120190452D03*
X74702876Y-120190452D03*
D18*
X89500000Y-118500000D03*
X89500000Y-115500000D03*
D13*
X119500000Y-70573638D03*
X116500000Y-70573638D03*
X108000000Y-70573638D03*
X105000000Y-70573638D03*
X116500000Y-75573638D03*
X119500000Y-75573638D03*
X105000000Y-75573638D03*
X108000000Y-75573638D03*
D20*
X114138692Y-96182396D03*
D21*
X114138692Y-102786396D03*
X111852692Y-102786396D03*
X116424692Y-102786396D03*
D22*
X116688692Y-105484396D03*
X118588692Y-105484396D03*
X113188692Y-105484396D03*
X115088692Y-105484396D03*
D18*
X79000000Y-82450000D03*
X79000000Y-77550000D03*
D12*
X64250000Y-116545000D03*
X62980000Y-116545000D03*
X64250000Y-115275000D03*
X62980000Y-115275000D03*
X64250000Y-114005000D03*
X62980000Y-114005000D03*
X64250000Y-112735000D03*
X62980000Y-112735000D03*
X64250000Y-111465000D03*
X62980000Y-111465000D03*
X64250000Y-110195000D03*
X62980000Y-110195000D03*
X64250000Y-108925000D03*
X62980000Y-108925000D03*
X64250000Y-107655000D03*
X62980000Y-107655000D03*
X64250000Y-106385000D03*
X62980000Y-106385000D03*
X64250000Y-105115000D03*
X62980000Y-105115000D03*
X64250000Y-103845000D03*
X62980000Y-103845000D03*
X64250000Y-102575000D03*
X62980000Y-102575000D03*
X83455000Y-64250000D03*
X83455000Y-62980000D03*
X84725000Y-64250000D03*
X84725000Y-62980000D03*
X85995000Y-64250000D03*
X85995000Y-62980000D03*
X87265000Y-64250000D03*
X87265000Y-62980000D03*
X88535000Y-64250000D03*
X88535000Y-62980000D03*
X89805000Y-64250000D03*
X89805000Y-62980000D03*
X91075000Y-64250000D03*
X91075000Y-62980000D03*
X92345000Y-64250000D03*
X92345000Y-62980000D03*
X93615000Y-64250000D03*
X93615000Y-62980000D03*
X94885000Y-64250000D03*
X94885000Y-62980000D03*
X96155000Y-64250000D03*
X96155000Y-62980000D03*
X97425000Y-64250000D03*
X97425000Y-62980000D03*
X135750000Y-83455000D03*
X137020000Y-83455000D03*
X135750000Y-84725000D03*
X137020000Y-84725000D03*
X135750000Y-85995000D03*
X137020000Y-85995000D03*
X135750000Y-87265000D03*
X137020000Y-87265000D03*
X135750000Y-88535000D03*
X137020000Y-88535000D03*
X135750000Y-89805000D03*
X137020000Y-89805000D03*
X135750000Y-91075000D03*
X137020000Y-91075000D03*
X135750000Y-92345000D03*
X137020000Y-92345000D03*
X135750000Y-93615000D03*
X137020000Y-93615000D03*
X135750000Y-94885000D03*
X137020000Y-94885000D03*
X135750000Y-96155000D03*
X137020000Y-96155000D03*
X135750000Y-97425000D03*
X137020000Y-97425000D03*
X135750000Y-102575000D03*
X137020000Y-102575000D03*
X135750000Y-103845000D03*
X137020000Y-103845000D03*
X135750000Y-105115000D03*
X137020000Y-105115000D03*
X135750000Y-106385000D03*
X137020000Y-106385000D03*
X135750000Y-107655000D03*
X137020000Y-107655000D03*
X135750000Y-108925000D03*
X137020000Y-108925000D03*
X135750000Y-110195000D03*
X137020000Y-110195000D03*
X135750000Y-111465000D03*
X137020000Y-111465000D03*
X135750000Y-112735000D03*
X137020000Y-112735000D03*
X135750000Y-114005000D03*
X137020000Y-114005000D03*
X135750000Y-115275000D03*
X137020000Y-115275000D03*
X135750000Y-116545000D03*
X137020000Y-116545000D03*
D23*
X65000000Y-125000000D03*
X65000000Y-65000000D03*
X135000000Y-65000000D03*
X135000000Y-135000000D03*
D13*
X83874788Y-88500000D03*
X88774788Y-88500000D03*
D18*
X120500000Y-83452346D03*
X120500000Y-88352346D03*
X116500000Y-83402346D03*
X116500000Y-88302346D03*
X109000000Y-105050000D03*
X109000000Y-109950000D03*
X105250000Y-105050000D03*
X105250000Y-109950000D03*
D24*
X95500000Y-89133272D03*
X95500000Y-87233272D03*
X97500000Y-89133272D03*
X97500000Y-87233272D03*
X101500000Y-89133272D03*
X101500000Y-87233272D03*
X103500000Y-89133272D03*
X103500000Y-87233272D03*
X95500000Y-83633272D03*
X95500000Y-81733272D03*
X97500000Y-83633272D03*
X97500000Y-81733272D03*
X101500000Y-83633272D03*
X101500000Y-81733272D03*
X103500000Y-83633272D03*
X103500000Y-81733272D03*
X99500000Y-89133272D03*
X99500000Y-87233272D03*
X99500000Y-83633272D03*
X99500000Y-81733272D03*
D14*
X123500000Y-85500000D03*
X125500000Y-85500000D03*
D25*
X123000000Y-59000000D03*
D26*
X125540000Y-59000000D03*
D27*
X125160000Y-119000000D03*
X125160000Y-129160000D03*
X125160000Y-139320000D03*
X104840000Y-119000000D03*
X104840000Y-126620000D03*
X104840000Y-131700000D03*
D28*
X99140000Y-120500000D03*
X96600000Y-120500000D03*
X94060000Y-120500000D03*
X88980000Y-120500000D03*
X86440000Y-120500000D03*
X83900000Y-120500000D03*
X81360000Y-120500000D03*
X120500000Y-93920000D03*
X120500000Y-96460000D03*
X120500000Y-99000000D03*
X120500000Y-104080000D03*
X120500000Y-106620000D03*
X120500000Y-109160000D03*
X120500000Y-111700000D03*
D29*
X78290000Y-141250000D03*
D30*
X75750000Y-141250000D03*
X73210000Y-141250000D03*
X70670000Y-141250000D03*
M02*
