G04 #@! TF.FileFunction,Legend,Top*
%FSLAX46Y46*%
G04 Gerber Fmt 4.6, Leading zero omitted, Abs format (unit mm)*
G04 Created by KiCad (PCBNEW 4.0.5+dfsg1-4) date Tue May 30 16:14:19 2017*
%MOMM*%
%LPD*%
G01*
G04 APERTURE LIST*
%ADD10C,0.100000*%
%ADD11C,0.200000*%
%ADD12C,0.150000*%
%ADD13C,0.300000*%
%ADD14C,0.410000*%
%ADD15R,1.200000X2.700000*%
%ADD16C,1.200000*%
%ADD17R,0.960000X2.000000*%
%ADD18R,0.962000X2.150000*%
%ADD19R,0.657200X1.470000*%
%ADD20R,1.000000X1.880000*%
%ADD21R,1.800000X1.700000*%
%ADD22R,1.900000X1.700000*%
%ADD23R,1.490000X1.500000*%
%ADD24R,1.490000X1.600000*%
%ADD25R,1.700000X1.900000*%
%ADD26R,2.300580X5.800700*%
%ADD27R,0.750000X1.700000*%
%ADD28R,1.700000X0.750000*%
%ADD29R,1.100000X3.200000*%
%ADD30R,3.200000X1.100000*%
%ADD31R,1.500000X0.900000*%
%ADD32R,1.450000X1.200000*%
%ADD33R,1.200000X1.450000*%
%ADD34R,1.927200X1.927200*%
%ADD35O,1.927200X1.927200*%
%ADD36R,2.700000X1.200000*%
%ADD37R,1.701140X2.900020*%
%ADD38R,0.600000X1.200000*%
%ADD39R,1.260000X0.850000*%
%ADD40R,0.850000X1.260000*%
%ADD41R,0.800000X1.750000*%
%ADD42C,12.200000*%
%ADD43R,0.900000X1.500000*%
%ADD44R,1.000100X1.000100*%
%ADD45R,0.800000X1.700000*%
%ADD46R,2.699360X2.000860*%
%ADD47R,2.000860X2.699360*%
%ADD48R,2.500000X5.800000*%
%ADD49R,1.398880X1.398880*%
%ADD50R,2.232000X2.232000*%
%ADD51O,2.232000X2.232000*%
%ADD52C,2.232000*%
%ADD53C,1.724000*%
%ADD54R,1.927200X2.232000*%
%ADD55O,1.927200X2.232000*%
G04 APERTURE END LIST*
D10*
D11*
X114000000Y-73000000D02*
X129750000Y-73000000D01*
X114000000Y-90250000D02*
X114000000Y-73000000D01*
X129750000Y-90250000D02*
X114000000Y-90250000D01*
X129750000Y-73000000D02*
X129750000Y-90250000D01*
D12*
X60571429Y-85761905D02*
X60571429Y-85000000D01*
X60952381Y-85380952D02*
X60190476Y-85380952D01*
X60047619Y-84571429D02*
X60000000Y-84523810D01*
X59952381Y-84428572D01*
X59952381Y-84190476D01*
X60000000Y-84095238D01*
X60047619Y-84047619D01*
X60142857Y-84000000D01*
X60238095Y-84000000D01*
X60380952Y-84047619D01*
X60952381Y-84619048D01*
X60952381Y-84000000D01*
X60285714Y-83142857D02*
X60952381Y-83142857D01*
X59904762Y-83380953D02*
X60619048Y-83619048D01*
X60619048Y-83000000D01*
X59952381Y-82761905D02*
X60952381Y-82428572D01*
X59952381Y-82095238D01*
X60000000Y-116761904D02*
X59952381Y-116857142D01*
X59952381Y-116999999D01*
X60000000Y-117142857D01*
X60095238Y-117238095D01*
X60190476Y-117285714D01*
X60380952Y-117333333D01*
X60523810Y-117333333D01*
X60714286Y-117285714D01*
X60809524Y-117238095D01*
X60904762Y-117142857D01*
X60952381Y-116999999D01*
X60952381Y-116904761D01*
X60904762Y-116761904D01*
X60857143Y-116714285D01*
X60523810Y-116714285D01*
X60523810Y-116904761D01*
X60952381Y-116285714D02*
X59952381Y-116285714D01*
X60952381Y-115714285D01*
X59952381Y-115714285D01*
X60952381Y-115238095D02*
X59952381Y-115238095D01*
X59952381Y-115000000D01*
X60000000Y-114857142D01*
X60095238Y-114761904D01*
X60190476Y-114714285D01*
X60380952Y-114666666D01*
X60523810Y-114666666D01*
X60714286Y-114714285D01*
X60809524Y-114761904D01*
X60904762Y-114857142D01*
X60952381Y-115000000D01*
X60952381Y-115238095D01*
X83238096Y-60000000D02*
X83142858Y-59952381D01*
X83000001Y-59952381D01*
X82857143Y-60000000D01*
X82761905Y-60095238D01*
X82714286Y-60190476D01*
X82666667Y-60380952D01*
X82666667Y-60523810D01*
X82714286Y-60714286D01*
X82761905Y-60809524D01*
X82857143Y-60904762D01*
X83000001Y-60952381D01*
X83095239Y-60952381D01*
X83238096Y-60904762D01*
X83285715Y-60857143D01*
X83285715Y-60523810D01*
X83095239Y-60523810D01*
X83714286Y-60952381D02*
X83714286Y-59952381D01*
X84285715Y-60952381D01*
X84285715Y-59952381D01*
X84761905Y-60952381D02*
X84761905Y-59952381D01*
X85000000Y-59952381D01*
X85142858Y-60000000D01*
X85238096Y-60095238D01*
X85285715Y-60190476D01*
X85333334Y-60380952D01*
X85333334Y-60523810D01*
X85285715Y-60714286D01*
X85238096Y-60809524D01*
X85142858Y-60904762D01*
X85000000Y-60952381D01*
X84761905Y-60952381D01*
X114238095Y-60571429D02*
X115000000Y-60571429D01*
X114619048Y-60952381D02*
X114619048Y-60190476D01*
X115428571Y-60047619D02*
X115476190Y-60000000D01*
X115571428Y-59952381D01*
X115809524Y-59952381D01*
X115904762Y-60000000D01*
X115952381Y-60047619D01*
X116000000Y-60142857D01*
X116000000Y-60238095D01*
X115952381Y-60380952D01*
X115380952Y-60952381D01*
X116000000Y-60952381D01*
X116857143Y-60285714D02*
X116857143Y-60952381D01*
X116619047Y-59904762D02*
X116380952Y-60619048D01*
X117000000Y-60619048D01*
X117238095Y-59952381D02*
X117571428Y-60952381D01*
X117904762Y-59952381D01*
X140000000Y-83238096D02*
X140047619Y-83142858D01*
X140047619Y-83000001D01*
X140000000Y-82857143D01*
X139904762Y-82761905D01*
X139809524Y-82714286D01*
X139619048Y-82666667D01*
X139476190Y-82666667D01*
X139285714Y-82714286D01*
X139190476Y-82761905D01*
X139095238Y-82857143D01*
X139047619Y-83000001D01*
X139047619Y-83095239D01*
X139095238Y-83238096D01*
X139142857Y-83285715D01*
X139476190Y-83285715D01*
X139476190Y-83095239D01*
X139047619Y-83714286D02*
X140047619Y-83714286D01*
X139047619Y-84285715D01*
X140047619Y-84285715D01*
X139047619Y-84761905D02*
X140047619Y-84761905D01*
X140047619Y-85000000D01*
X140000000Y-85142858D01*
X139904762Y-85238096D01*
X139809524Y-85285715D01*
X139619048Y-85333334D01*
X139476190Y-85333334D01*
X139285714Y-85285715D01*
X139190476Y-85238096D01*
X139095238Y-85142858D01*
X139047619Y-85000000D01*
X139047619Y-84761905D01*
X139428571Y-114238095D02*
X139428571Y-115000000D01*
X139047619Y-114619048D02*
X139809524Y-114619048D01*
X139952381Y-115428571D02*
X140000000Y-115476190D01*
X140047619Y-115571428D01*
X140047619Y-115809524D01*
X140000000Y-115904762D01*
X139952381Y-115952381D01*
X139857143Y-116000000D01*
X139761905Y-116000000D01*
X139619048Y-115952381D01*
X139047619Y-115380952D01*
X139047619Y-116000000D01*
X139714286Y-116857143D02*
X139047619Y-116857143D01*
X140095238Y-116619047D02*
X139380952Y-116380952D01*
X139380952Y-117000000D01*
X140047619Y-117238095D02*
X139047619Y-117571428D01*
X140047619Y-117904762D01*
D11*
X100250000Y-79750000D02*
G75*
G03X100250000Y-79750000I-250000J0D01*
G01*
X77750000Y-119000000D02*
G75*
G03X77750000Y-119000000I-250000J0D01*
G01*
X110000000Y-104250000D02*
G75*
G03X110000000Y-104250000I-500000J0D01*
G01*
X69353553Y-76250000D02*
G75*
G03X69353553Y-76250000I-353553J0D01*
G01*
D13*
X118428571Y-107499998D02*
X117714286Y-107999998D01*
X118428571Y-108357141D02*
X116928571Y-108357141D01*
X116928571Y-107785713D01*
X117000000Y-107642855D01*
X117071429Y-107571427D01*
X117214286Y-107499998D01*
X117428571Y-107499998D01*
X117571429Y-107571427D01*
X117642857Y-107642855D01*
X117714286Y-107785713D01*
X117714286Y-108357141D01*
X118357143Y-106928570D02*
X118428571Y-106714284D01*
X118428571Y-106357141D01*
X118357143Y-106214284D01*
X118285714Y-106142855D01*
X118142857Y-106071427D01*
X118000000Y-106071427D01*
X117857143Y-106142855D01*
X117785714Y-106214284D01*
X117714286Y-106357141D01*
X117642857Y-106642855D01*
X117571429Y-106785713D01*
X117500000Y-106857141D01*
X117357143Y-106928570D01*
X117214286Y-106928570D01*
X117071429Y-106857141D01*
X117000000Y-106785713D01*
X116928571Y-106642855D01*
X116928571Y-106285713D01*
X117000000Y-106071427D01*
X117857143Y-105428570D02*
X117857143Y-104285713D01*
X117071429Y-103642856D02*
X117000000Y-103571427D01*
X116928571Y-103428570D01*
X116928571Y-103071427D01*
X117000000Y-102928570D01*
X117071429Y-102857141D01*
X117214286Y-102785713D01*
X117357143Y-102785713D01*
X117571429Y-102857141D01*
X118428571Y-103714284D01*
X118428571Y-102785713D01*
X117428571Y-101499999D02*
X118428571Y-101499999D01*
X116857143Y-101857142D02*
X117928571Y-102214285D01*
X117928571Y-101285713D01*
X116928571Y-100428571D02*
X116928571Y-100285714D01*
X117000000Y-100142857D01*
X117071429Y-100071428D01*
X117214286Y-99999999D01*
X117500000Y-99928571D01*
X117857143Y-99928571D01*
X118142857Y-99999999D01*
X118285714Y-100071428D01*
X118357143Y-100142857D01*
X118428571Y-100285714D01*
X118428571Y-100428571D01*
X118357143Y-100571428D01*
X118285714Y-100642857D01*
X118142857Y-100714285D01*
X117857143Y-100785714D01*
X117500000Y-100785714D01*
X117214286Y-100714285D01*
X117071429Y-100642857D01*
X117000000Y-100571428D01*
X116928571Y-100428571D01*
X116928571Y-98571428D02*
X116928571Y-99285714D01*
X117642857Y-99357143D01*
X117571429Y-99285714D01*
X117500000Y-99142857D01*
X117500000Y-98785714D01*
X117571429Y-98642857D01*
X117642857Y-98571428D01*
X117785714Y-98500000D01*
X118142857Y-98500000D01*
X118285714Y-98571428D01*
X118357143Y-98642857D01*
X118428571Y-98785714D01*
X118428571Y-99142857D01*
X118357143Y-99285714D01*
X118285714Y-99357143D01*
X118428571Y-97857143D02*
X116928571Y-97857143D01*
X116928571Y-97500000D01*
X117000000Y-97285715D01*
X117142857Y-97142857D01*
X117285714Y-97071429D01*
X117571429Y-97000000D01*
X117785714Y-97000000D01*
X118071429Y-97071429D01*
X118214286Y-97142857D01*
X118357143Y-97285715D01*
X118428571Y-97500000D01*
X118428571Y-97857143D01*
X116928571Y-96500000D02*
X116928571Y-95500000D01*
X118428571Y-96500000D01*
X118428571Y-95500000D01*
X84678573Y-118678571D02*
X84178573Y-117964286D01*
X83821430Y-118678571D02*
X83821430Y-117178571D01*
X84392858Y-117178571D01*
X84535716Y-117250000D01*
X84607144Y-117321429D01*
X84678573Y-117464286D01*
X84678573Y-117678571D01*
X84607144Y-117821429D01*
X84535716Y-117892857D01*
X84392858Y-117964286D01*
X83821430Y-117964286D01*
X85250001Y-118607143D02*
X85464287Y-118678571D01*
X85821430Y-118678571D01*
X85964287Y-118607143D01*
X86035716Y-118535714D01*
X86107144Y-118392857D01*
X86107144Y-118250000D01*
X86035716Y-118107143D01*
X85964287Y-118035714D01*
X85821430Y-117964286D01*
X85535716Y-117892857D01*
X85392858Y-117821429D01*
X85321430Y-117750000D01*
X85250001Y-117607143D01*
X85250001Y-117464286D01*
X85321430Y-117321429D01*
X85392858Y-117250000D01*
X85535716Y-117178571D01*
X85892858Y-117178571D01*
X86107144Y-117250000D01*
X86750001Y-118107143D02*
X87892858Y-118107143D01*
X88535715Y-117321429D02*
X88607144Y-117250000D01*
X88750001Y-117178571D01*
X89107144Y-117178571D01*
X89250001Y-117250000D01*
X89321430Y-117321429D01*
X89392858Y-117464286D01*
X89392858Y-117607143D01*
X89321430Y-117821429D01*
X88464287Y-118678571D01*
X89392858Y-118678571D01*
X90678572Y-117678571D02*
X90678572Y-118678571D01*
X90321429Y-117107143D02*
X89964286Y-118178571D01*
X90892858Y-118178571D01*
X91321429Y-117178571D02*
X92250000Y-117178571D01*
X91750000Y-117750000D01*
X91964286Y-117750000D01*
X92107143Y-117821429D01*
X92178572Y-117892857D01*
X92250000Y-118035714D01*
X92250000Y-118392857D01*
X92178572Y-118535714D01*
X92107143Y-118607143D01*
X91964286Y-118678571D01*
X91535714Y-118678571D01*
X91392857Y-118607143D01*
X91321429Y-118535714D01*
X92892857Y-118535714D02*
X92964285Y-118607143D01*
X92892857Y-118678571D01*
X92821428Y-118607143D01*
X92892857Y-118535714D01*
X92892857Y-118678571D01*
X93464286Y-117178571D02*
X94392857Y-117178571D01*
X93892857Y-117750000D01*
X94107143Y-117750000D01*
X94250000Y-117821429D01*
X94321429Y-117892857D01*
X94392857Y-118035714D01*
X94392857Y-118392857D01*
X94321429Y-118535714D01*
X94250000Y-118607143D01*
X94107143Y-118678571D01*
X93678571Y-118678571D01*
X93535714Y-118607143D01*
X93464286Y-118535714D01*
X94964285Y-118607143D02*
X95178571Y-118678571D01*
X95535714Y-118678571D01*
X95678571Y-118607143D01*
X95750000Y-118535714D01*
X95821428Y-118392857D01*
X95821428Y-118250000D01*
X95750000Y-118107143D01*
X95678571Y-118035714D01*
X95535714Y-117964286D01*
X95250000Y-117892857D01*
X95107142Y-117821429D01*
X95035714Y-117750000D01*
X94964285Y-117607143D01*
X94964285Y-117464286D01*
X95035714Y-117321429D01*
X95107142Y-117250000D01*
X95250000Y-117178571D01*
X95607142Y-117178571D01*
X95821428Y-117250000D01*
X96321428Y-117178571D02*
X97321428Y-117178571D01*
X96321428Y-118678571D01*
X97321428Y-118678571D01*
D12*
X98500000Y-125275000D02*
X96500000Y-125275000D01*
X96500000Y-128225000D02*
X98500000Y-128225000D01*
X92788026Y-105595000D02*
G75*
G03X92788026Y-105595000I-898026J0D01*
G01*
X93414000Y-103944000D02*
X93414000Y-111056000D01*
X93414000Y-111056000D02*
X72586000Y-111056000D01*
X72586000Y-111056000D02*
X72586000Y-103944000D01*
X72586000Y-103944000D02*
X93414000Y-103944000D01*
X73500640Y-83650380D02*
X73500640Y-95349620D01*
X78499360Y-95349620D02*
X78499360Y-83650380D01*
X73500640Y-95349620D02*
X74349000Y-95349620D01*
X78499360Y-95349620D02*
X77651000Y-95349620D01*
X73500640Y-83650380D02*
X74349000Y-83650380D01*
X78499360Y-83650380D02*
X77651000Y-83650380D01*
X101549529Y-78275019D02*
X100874529Y-78275019D01*
X101549529Y-92625019D02*
X100874529Y-92625019D01*
X87199529Y-92625019D02*
X87874529Y-92625019D01*
X87199529Y-78275019D02*
X87874529Y-78275019D01*
X101549529Y-78275019D02*
X101549529Y-78950019D01*
X87199529Y-78275019D02*
X87199529Y-78950019D01*
X87199529Y-92625019D02*
X87199529Y-91950019D01*
X101549529Y-92625019D02*
X101549529Y-91950019D01*
X100874529Y-78275019D02*
X100874529Y-77000019D01*
X108009529Y-72450019D02*
G75*
G03X108009529Y-72450019I-635000J0D01*
G01*
X71625000Y-83100000D02*
X71625000Y-81900000D01*
X73375000Y-81900000D02*
X73375000Y-83100000D01*
X109650000Y-90000000D02*
X109650000Y-91000000D01*
X111350000Y-91000000D02*
X111350000Y-90000000D01*
X79350000Y-82000000D02*
X79350000Y-81000000D01*
X77650000Y-81000000D02*
X77650000Y-82000000D01*
X111650000Y-105250000D02*
X111650000Y-106250000D01*
X113350000Y-106250000D02*
X113350000Y-105250000D01*
X73000000Y-80350000D02*
X74000000Y-80350000D01*
X74000000Y-78650000D02*
X73000000Y-78650000D01*
X71650000Y-87500000D02*
X71650000Y-88500000D01*
X73350000Y-88500000D02*
X73350000Y-87500000D01*
X73350000Y-92500000D02*
X73350000Y-91500000D01*
X71650000Y-91500000D02*
X71650000Y-92500000D01*
X111350000Y-77000000D02*
X111350000Y-76000000D01*
X109650000Y-76000000D02*
X109650000Y-77000000D01*
X112000000Y-78650000D02*
X111000000Y-78650000D01*
X111000000Y-80350000D02*
X112000000Y-80350000D01*
X110750000Y-74475000D02*
X112750000Y-74475000D01*
X112750000Y-71525000D02*
X110750000Y-71525000D01*
X76770000Y-65690000D02*
X71690000Y-65690000D01*
X79590000Y-65410000D02*
X79590000Y-66960000D01*
X79310000Y-68230000D02*
X76770000Y-68230000D01*
X76770000Y-68230000D02*
X76770000Y-65690000D01*
X71690000Y-65690000D02*
X71690000Y-70770000D01*
X71690000Y-70770000D02*
X76770000Y-70770000D01*
X79590000Y-65410000D02*
X78040000Y-65410000D01*
X79310000Y-70770000D02*
X79310000Y-68230000D01*
X76770000Y-70770000D02*
X79310000Y-70770000D01*
X66750000Y-102600000D02*
X67750000Y-102600000D01*
X67750000Y-100900000D02*
X66750000Y-100900000D01*
X97400000Y-66500000D02*
X97400000Y-67500000D01*
X99100000Y-67500000D02*
X99100000Y-66500000D01*
X133000000Y-96900000D02*
X132000000Y-96900000D01*
X132000000Y-98600000D02*
X133000000Y-98600000D01*
X96500000Y-131725000D02*
X98500000Y-131725000D01*
X98500000Y-128775000D02*
X96500000Y-128775000D01*
X96500000Y-135225000D02*
X98500000Y-135225000D01*
X98500000Y-132275000D02*
X96500000Y-132275000D01*
X128775000Y-125500000D02*
X128775000Y-127500000D01*
X131725000Y-127500000D02*
X131725000Y-125500000D01*
X87150620Y-140750000D02*
X86200660Y-141999680D01*
X86200660Y-141999680D02*
X86200660Y-139500320D01*
X86200660Y-139500320D02*
X87198880Y-140750000D01*
X87198880Y-141999680D02*
X87198880Y-139500320D01*
X84900180Y-141999680D02*
X84801120Y-141999680D01*
X84900180Y-139500320D02*
X84801120Y-139500320D01*
X87198880Y-141999680D02*
X84849380Y-141999680D01*
X87198880Y-139500320D02*
X84950980Y-139500320D01*
X124525000Y-97000000D02*
X124525000Y-99000000D01*
X127475000Y-99000000D02*
X127475000Y-97000000D01*
X133475000Y-101300000D02*
X133475000Y-105200000D01*
X130525000Y-105200000D02*
X130525000Y-101300000D01*
X67650000Y-106450000D02*
G75*
G03X67650000Y-106450000I-100000J0D01*
G01*
X67000000Y-106200000D02*
X67500000Y-106200000D01*
X67000000Y-103300000D02*
X67000000Y-106200000D01*
X67500000Y-103300000D02*
X67000000Y-103300000D01*
X67500000Y-106200000D02*
X67500000Y-103300000D01*
X93650000Y-67300000D02*
G75*
G03X93650000Y-67300000I-100000J0D01*
G01*
X93800000Y-66750000D02*
X93800000Y-67250000D01*
X96700000Y-66750000D02*
X93800000Y-66750000D01*
X96700000Y-67250000D02*
X96700000Y-66750000D01*
X93800000Y-67250000D02*
X96700000Y-67250000D01*
X132200000Y-93100000D02*
G75*
G03X132200000Y-93100000I-100000J0D01*
G01*
X132650000Y-93350000D02*
X132150000Y-93350000D01*
X132650000Y-96250000D02*
X132650000Y-93350000D01*
X132150000Y-96250000D02*
X132650000Y-96250000D01*
X132150000Y-93350000D02*
X132150000Y-96250000D01*
X78277876Y-118115452D02*
X78132876Y-118115452D01*
X78277876Y-122265452D02*
X78132876Y-122265452D01*
X73127876Y-122265452D02*
X73272876Y-122265452D01*
X73127876Y-118115452D02*
X73272876Y-118115452D01*
X78277876Y-118115452D02*
X78277876Y-122265452D01*
X73127876Y-118115452D02*
X73127876Y-122265452D01*
X78132876Y-118115452D02*
X78132876Y-116715452D01*
X75102876Y-128815452D02*
X76302876Y-128815452D01*
X76302876Y-130565452D02*
X75102876Y-130565452D01*
X74625000Y-64100000D02*
X74625000Y-62900000D01*
X76375000Y-62900000D02*
X76375000Y-64100000D01*
X77125000Y-64100000D02*
X77125000Y-62900000D01*
X78875000Y-62900000D02*
X78875000Y-64100000D01*
X76375000Y-72400000D02*
X76375000Y-73600000D01*
X74625000Y-73600000D02*
X74625000Y-72400000D01*
X78552876Y-128815452D02*
X79752876Y-128815452D01*
X79752876Y-130565452D02*
X78552876Y-130565452D01*
X71602876Y-128815452D02*
X72802876Y-128815452D01*
X72802876Y-130565452D02*
X71602876Y-130565452D01*
X68299160Y-86599760D02*
X68250900Y-86599760D01*
X65500180Y-87300800D02*
X65500180Y-86599760D01*
X65500180Y-86599760D02*
X65749100Y-86599760D01*
X68299160Y-86599760D02*
X68499820Y-86599760D01*
X68499820Y-86599760D02*
X68499820Y-87300800D01*
X114150240Y-68299160D02*
X114150240Y-68250900D01*
X113449200Y-65500180D02*
X114150240Y-65500180D01*
X114150240Y-65500180D02*
X114150240Y-65749100D01*
X114150240Y-68299160D02*
X114150240Y-68499820D01*
X114150240Y-68499820D02*
X113449200Y-68499820D01*
X131700840Y-113650240D02*
X131749100Y-113650240D01*
X134499820Y-112949200D02*
X134499820Y-113650240D01*
X134499820Y-113650240D02*
X134250900Y-113650240D01*
X131700840Y-113650240D02*
X131500180Y-113650240D01*
X131500180Y-113650240D02*
X131500180Y-112949200D01*
X67600000Y-85375000D02*
X66400000Y-85375000D01*
X66400000Y-83625000D02*
X67600000Y-83625000D01*
X115625000Y-67600000D02*
X115625000Y-66400000D01*
X117375000Y-66400000D02*
X117375000Y-67600000D01*
X132400000Y-115125000D02*
X133600000Y-115125000D01*
X133600000Y-116875000D02*
X132400000Y-116875000D01*
X66400000Y-89125000D02*
X67600000Y-89125000D01*
X67600000Y-90875000D02*
X66400000Y-90875000D01*
X111375000Y-66400000D02*
X111375000Y-67600000D01*
X109625000Y-67600000D02*
X109625000Y-66400000D01*
X133600000Y-110875000D02*
X132400000Y-110875000D01*
X132400000Y-109125000D02*
X133600000Y-109125000D01*
X77125000Y-73600000D02*
X77125000Y-72400000D01*
X78875000Y-72400000D02*
X78875000Y-73600000D01*
X69975000Y-75425000D02*
X69870000Y-75425000D01*
X69975000Y-79575000D02*
X69870000Y-79575000D01*
X59825000Y-79575000D02*
X59930000Y-79575000D01*
X59825000Y-75425000D02*
X59930000Y-75425000D01*
X69975000Y-75425000D02*
X69975000Y-79575000D01*
X59825000Y-75425000D02*
X59825000Y-79575000D01*
X69870000Y-75425000D02*
X69870000Y-74050000D01*
X91799140Y-124499940D02*
X91799140Y-124850460D01*
X91799140Y-128000060D02*
X91799140Y-127649540D01*
X87749560Y-124499940D02*
X87749560Y-124850460D01*
X92250440Y-124499940D02*
X92250440Y-124850460D01*
X92250440Y-128000060D02*
X92250440Y-127649540D01*
X87749560Y-128000060D02*
X87749560Y-127649540D01*
X92250440Y-124499940D02*
X87749560Y-124499940D01*
X92250440Y-128000060D02*
X87749560Y-128000060D01*
X80903736Y-127940512D02*
X80903736Y-127589992D01*
X80903736Y-124440392D02*
X80903736Y-124790912D01*
X84953316Y-127940512D02*
X84953316Y-127589992D01*
X80452436Y-127940512D02*
X80452436Y-127589992D01*
X80452436Y-124440392D02*
X80452436Y-124790912D01*
X84953316Y-124440392D02*
X84953316Y-124790912D01*
X80452436Y-127940512D02*
X84953316Y-127940512D01*
X80452436Y-124440392D02*
X84953316Y-124440392D01*
X73903736Y-127940512D02*
X73903736Y-127589992D01*
X73903736Y-124440392D02*
X73903736Y-124790912D01*
X77953316Y-127940512D02*
X77953316Y-127589992D01*
X73452436Y-127940512D02*
X73452436Y-127589992D01*
X73452436Y-124440392D02*
X73452436Y-124790912D01*
X77953316Y-124440392D02*
X77953316Y-124790912D01*
X73452436Y-127940512D02*
X77953316Y-127940512D01*
X73452436Y-124440392D02*
X77953316Y-124440392D01*
X72750060Y-118799140D02*
X72399540Y-118799140D01*
X69249940Y-118799140D02*
X69600460Y-118799140D01*
X72750060Y-114749560D02*
X72399540Y-114749560D01*
X72750060Y-119250440D02*
X72399540Y-119250440D01*
X69249940Y-119250440D02*
X69600460Y-119250440D01*
X69249940Y-114749560D02*
X69600460Y-114749560D01*
X72750060Y-119250440D02*
X72750060Y-114749560D01*
X69249940Y-119250440D02*
X69249940Y-114749560D01*
X98917752Y-142293248D02*
X91805752Y-142293248D01*
X98917752Y-136197248D02*
X91805752Y-136197248D01*
X111900000Y-90000000D02*
X111900000Y-91000000D01*
X113600000Y-91000000D02*
X113600000Y-90000000D01*
X123750000Y-64350000D02*
X123750000Y-61650000D01*
X122250000Y-64350000D02*
X122250000Y-61650000D01*
X123150000Y-62850000D02*
X122900000Y-62850000D01*
X122900000Y-62850000D02*
X123050000Y-63000000D01*
X122650000Y-63100000D02*
X123350000Y-63100000D01*
X123000000Y-62750000D02*
X123000000Y-62400000D01*
X123000000Y-63100000D02*
X122650000Y-62750000D01*
X122650000Y-62750000D02*
X123350000Y-62750000D01*
X123350000Y-62750000D02*
X123000000Y-63100000D01*
X126250000Y-64350000D02*
X126250000Y-61650000D01*
X124750000Y-64350000D02*
X124750000Y-61650000D01*
X125650000Y-62850000D02*
X125400000Y-62850000D01*
X125400000Y-62850000D02*
X125550000Y-63000000D01*
X125150000Y-63100000D02*
X125850000Y-63100000D01*
X125500000Y-62750000D02*
X125500000Y-62400000D01*
X125500000Y-63100000D02*
X125150000Y-62750000D01*
X125150000Y-62750000D02*
X125850000Y-62750000D01*
X125850000Y-62750000D02*
X125500000Y-63100000D01*
X124270000Y-57730000D02*
X126810000Y-57730000D01*
X121450000Y-57450000D02*
X123000000Y-57450000D01*
X124270000Y-57730000D02*
X124270000Y-60270000D01*
X123000000Y-60550000D02*
X121450000Y-60550000D01*
X121450000Y-60550000D02*
X121450000Y-57450000D01*
X124270000Y-60270000D02*
X126810000Y-60270000D01*
X126810000Y-60270000D02*
X126810000Y-57730000D01*
X122125000Y-67100000D02*
X122125000Y-65900000D01*
X123875000Y-65900000D02*
X123875000Y-67100000D01*
X124625000Y-67100000D02*
X124625000Y-65900000D01*
X126375000Y-65900000D02*
X126375000Y-67100000D01*
X66400000Y-97875000D02*
X67600000Y-97875000D01*
X67600000Y-99625000D02*
X66400000Y-99625000D01*
X106375000Y-66400000D02*
X106375000Y-67600000D01*
X104625000Y-67600000D02*
X104625000Y-66400000D01*
X67600000Y-97375000D02*
X66400000Y-97375000D01*
X66400000Y-95625000D02*
X67600000Y-95625000D01*
X103375000Y-66400000D02*
X103375000Y-67600000D01*
X101625000Y-67600000D02*
X101625000Y-66400000D01*
X113350000Y-110000000D02*
X113350000Y-109000000D01*
X111650000Y-109000000D02*
X111650000Y-110000000D01*
X70550000Y-75500000D02*
X70550000Y-76500000D01*
X72250000Y-76500000D02*
X72250000Y-75500000D01*
D14*
X102000000Y-116160000D02*
X128000000Y-116160000D01*
X102000000Y-142160000D02*
X102000000Y-116160000D01*
X128000000Y-142160000D02*
X102000000Y-142160000D01*
X128000000Y-116160000D02*
X128000000Y-142160000D01*
X101500000Y-124000000D02*
X79000000Y-124000000D01*
X101500000Y-114250000D02*
X101500000Y-124000000D01*
X79000000Y-114250000D02*
X101500000Y-114250000D01*
X79000000Y-124000000D02*
X79000000Y-114250000D01*
X124000000Y-91560000D02*
X124000000Y-114060000D01*
X114250000Y-91560000D02*
X124000000Y-91560000D01*
X114250000Y-114060000D02*
X114250000Y-91560000D01*
X124000000Y-114060000D02*
X114250000Y-114060000D01*
D12*
X77020000Y-139980000D02*
X69400000Y-139980000D01*
X77020000Y-142520000D02*
X69400000Y-142520000D01*
X79840000Y-142800000D02*
X78290000Y-142800000D01*
X69400000Y-139980000D02*
X69400000Y-142520000D01*
X77020000Y-142520000D02*
X77020000Y-139980000D01*
X78290000Y-139700000D02*
X79840000Y-139700000D01*
X79840000Y-139700000D02*
X79840000Y-142800000D01*
X87150620Y-137250000D02*
X86200660Y-138499680D01*
X86200660Y-138499680D02*
X86200660Y-136000320D01*
X86200660Y-136000320D02*
X87198880Y-137250000D01*
X87198880Y-138499680D02*
X87198880Y-136000320D01*
X84900180Y-138499680D02*
X84801120Y-138499680D01*
X84900180Y-136000320D02*
X84801120Y-136000320D01*
X87198880Y-138499680D02*
X84849380Y-138499680D01*
X87198880Y-136000320D02*
X84950980Y-136000320D01*
X91799140Y-130249940D02*
X91799140Y-130600460D01*
X91799140Y-133750060D02*
X91799140Y-133399540D01*
X87749560Y-130249940D02*
X87749560Y-130600460D01*
X92250440Y-130249940D02*
X92250440Y-130600460D01*
X92250440Y-133750060D02*
X92250440Y-133399540D01*
X87749560Y-133750060D02*
X87749560Y-133399540D01*
X92250440Y-130249940D02*
X87749560Y-130249940D01*
X92250440Y-133750060D02*
X87749560Y-133750060D01*
X94952381Y-126916666D02*
X94952381Y-127392857D01*
X93952381Y-127392857D01*
X93952381Y-126678571D02*
X93952381Y-126059523D01*
X94333333Y-126392857D01*
X94333333Y-126249999D01*
X94380952Y-126154761D01*
X94428571Y-126107142D01*
X94523810Y-126059523D01*
X94761905Y-126059523D01*
X94857143Y-126107142D01*
X94904762Y-126154761D01*
X94952381Y-126249999D01*
X94952381Y-126535714D01*
X94904762Y-126630952D01*
X94857143Y-126678571D01*
X62876905Y-99782381D02*
X62876905Y-98782381D01*
X63257858Y-98782381D01*
X63353096Y-98830000D01*
X63400715Y-98877619D01*
X63448334Y-98972857D01*
X63448334Y-99115714D01*
X63400715Y-99210952D01*
X63353096Y-99258571D01*
X63257858Y-99306190D01*
X62876905Y-99306190D01*
X63781667Y-98782381D02*
X64448334Y-98782381D01*
X64019762Y-99782381D01*
X67452381Y-136988095D02*
X66452381Y-136988095D01*
X66452381Y-136607142D01*
X66500000Y-136511904D01*
X66547619Y-136464285D01*
X66642857Y-136416666D01*
X66785714Y-136416666D01*
X66880952Y-136464285D01*
X66928571Y-136511904D01*
X66976190Y-136607142D01*
X66976190Y-136988095D01*
X66785714Y-135559523D02*
X67452381Y-135559523D01*
X66404762Y-135797619D02*
X67119048Y-136035714D01*
X67119048Y-135416666D01*
X101122381Y-64829286D02*
X100122381Y-64829286D01*
X100122381Y-64448333D01*
X100170000Y-64353095D01*
X100217619Y-64305476D01*
X100312857Y-64257857D01*
X100455714Y-64257857D01*
X100550952Y-64305476D01*
X100598571Y-64353095D01*
X100646190Y-64448333D01*
X100646190Y-64829286D01*
X101122381Y-63305476D02*
X101122381Y-63876905D01*
X101122381Y-63591191D02*
X100122381Y-63591191D01*
X100265238Y-63686429D01*
X100360476Y-63781667D01*
X100408095Y-63876905D01*
X100217619Y-62924524D02*
X100170000Y-62876905D01*
X100122381Y-62781667D01*
X100122381Y-62543571D01*
X100170000Y-62448333D01*
X100217619Y-62400714D01*
X100312857Y-62353095D01*
X100408095Y-62353095D01*
X100550952Y-62400714D01*
X101122381Y-62972143D01*
X101122381Y-62353095D01*
X103663095Y-105132381D02*
X103663095Y-105941905D01*
X103710714Y-106037143D01*
X103758333Y-106084762D01*
X103853571Y-106132381D01*
X104044048Y-106132381D01*
X104139286Y-106084762D01*
X104186905Y-106037143D01*
X104234524Y-105941905D01*
X104234524Y-105132381D01*
X104663095Y-105227619D02*
X104710714Y-105180000D01*
X104805952Y-105132381D01*
X105044048Y-105132381D01*
X105139286Y-105180000D01*
X105186905Y-105227619D01*
X105234524Y-105322857D01*
X105234524Y-105418095D01*
X105186905Y-105560952D01*
X104615476Y-106132381D01*
X105234524Y-106132381D01*
X82238095Y-105047381D02*
X82238095Y-105856905D01*
X82285714Y-105952143D01*
X82333333Y-105999762D01*
X82428571Y-106047381D01*
X82619048Y-106047381D01*
X82714286Y-105999762D01*
X82761905Y-105952143D01*
X82809524Y-105856905D01*
X82809524Y-105047381D01*
X83190476Y-105047381D02*
X83809524Y-105047381D01*
X83476190Y-105428333D01*
X83619048Y-105428333D01*
X83714286Y-105475952D01*
X83761905Y-105523571D01*
X83809524Y-105618810D01*
X83809524Y-105856905D01*
X83761905Y-105952143D01*
X83714286Y-105999762D01*
X83619048Y-106047381D01*
X83333333Y-106047381D01*
X83238095Y-105999762D01*
X83190476Y-105952143D01*
X119785715Y-72357143D02*
X119738096Y-72404762D01*
X119595239Y-72452381D01*
X119500001Y-72452381D01*
X119357143Y-72404762D01*
X119261905Y-72309524D01*
X119214286Y-72214286D01*
X119166667Y-72023810D01*
X119166667Y-71880952D01*
X119214286Y-71690476D01*
X119261905Y-71595238D01*
X119357143Y-71500000D01*
X119500001Y-71452381D01*
X119595239Y-71452381D01*
X119738096Y-71500000D01*
X119785715Y-71547619D01*
X120404762Y-71452381D02*
X120595239Y-71452381D01*
X120690477Y-71500000D01*
X120785715Y-71595238D01*
X120833334Y-71785714D01*
X120833334Y-72119048D01*
X120785715Y-72309524D01*
X120690477Y-72404762D01*
X120595239Y-72452381D01*
X120404762Y-72452381D01*
X120309524Y-72404762D01*
X120214286Y-72309524D01*
X120166667Y-72119048D01*
X120166667Y-71785714D01*
X120214286Y-71595238D01*
X120309524Y-71500000D01*
X120404762Y-71452381D01*
X121261905Y-72452381D02*
X121261905Y-71452381D01*
X121833334Y-72452381D01*
X121833334Y-71452381D01*
X122833334Y-72452381D02*
X122261905Y-72452381D01*
X122547619Y-72452381D02*
X122547619Y-71452381D01*
X122452381Y-71595238D01*
X122357143Y-71690476D01*
X122261905Y-71738095D01*
X75976190Y-89976191D02*
X76452381Y-89976191D01*
X75452381Y-90309524D02*
X75976190Y-89976191D01*
X75452381Y-89642857D01*
X76452381Y-88785714D02*
X76452381Y-89357143D01*
X76452381Y-89071429D02*
X75452381Y-89071429D01*
X75595238Y-89166667D01*
X75690476Y-89261905D01*
X75738095Y-89357143D01*
X104276910Y-86426209D02*
X103276910Y-86426209D01*
X104181672Y-85378590D02*
X104229291Y-85426209D01*
X104276910Y-85569066D01*
X104276910Y-85664304D01*
X104229291Y-85807162D01*
X104134053Y-85902400D01*
X104038815Y-85950019D01*
X103848339Y-85997638D01*
X103705481Y-85997638D01*
X103515005Y-85950019D01*
X103419767Y-85902400D01*
X103324529Y-85807162D01*
X103276910Y-85664304D01*
X103276910Y-85569066D01*
X103324529Y-85426209D01*
X103372148Y-85378590D01*
X103372148Y-84997638D02*
X103324529Y-84950019D01*
X103276910Y-84854781D01*
X103276910Y-84616685D01*
X103324529Y-84521447D01*
X103372148Y-84473828D01*
X103467386Y-84426209D01*
X103562624Y-84426209D01*
X103705481Y-84473828D01*
X104276910Y-85045257D01*
X104276910Y-84426209D01*
X110826910Y-86176209D02*
X109826910Y-86176209D01*
X110731672Y-85128590D02*
X110779291Y-85176209D01*
X110826910Y-85319066D01*
X110826910Y-85414304D01*
X110779291Y-85557162D01*
X110684053Y-85652400D01*
X110588815Y-85700019D01*
X110398339Y-85747638D01*
X110255481Y-85747638D01*
X110065005Y-85700019D01*
X109969767Y-85652400D01*
X109874529Y-85557162D01*
X109826910Y-85414304D01*
X109826910Y-85319066D01*
X109874529Y-85176209D01*
X109922148Y-85128590D01*
X110826910Y-84176209D02*
X110826910Y-84747638D01*
X110826910Y-84461924D02*
X109826910Y-84461924D01*
X109969767Y-84557162D01*
X110065005Y-84652400D01*
X110112624Y-84747638D01*
X107088815Y-73902400D02*
X106898338Y-73902400D01*
X106803100Y-73950019D01*
X106755481Y-73997638D01*
X106660243Y-74140495D01*
X106612624Y-74330971D01*
X106612624Y-74711924D01*
X106660243Y-74807162D01*
X106707862Y-74854781D01*
X106803100Y-74902400D01*
X106993577Y-74902400D01*
X107088815Y-74854781D01*
X107136434Y-74807162D01*
X107184053Y-74711924D01*
X107184053Y-74473829D01*
X107136434Y-74378590D01*
X107088815Y-74330971D01*
X106993577Y-74283352D01*
X106803100Y-74283352D01*
X106707862Y-74330971D01*
X106660243Y-74378590D01*
X106612624Y-74473829D01*
X108041196Y-74235733D02*
X108041196Y-74902400D01*
X107803100Y-73854781D02*
X107565005Y-74569067D01*
X108184053Y-74569067D01*
X107088815Y-96235733D02*
X107088815Y-96902400D01*
X106850719Y-95854781D02*
X106612624Y-96569067D01*
X107231672Y-96569067D01*
X107660243Y-96902400D02*
X107850719Y-96902400D01*
X107945958Y-96854781D01*
X107993577Y-96807162D01*
X108088815Y-96664305D01*
X108136434Y-96473829D01*
X108136434Y-96092876D01*
X108088815Y-95997638D01*
X108041196Y-95950019D01*
X107945958Y-95902400D01*
X107755481Y-95902400D01*
X107660243Y-95950019D01*
X107612624Y-95997638D01*
X107565005Y-96092876D01*
X107565005Y-96330971D01*
X107612624Y-96426209D01*
X107660243Y-96473829D01*
X107755481Y-96521448D01*
X107945958Y-96521448D01*
X108041196Y-96473829D01*
X108088815Y-96426209D01*
X108136434Y-96330971D01*
X105160243Y-98735733D02*
X105826910Y-98735733D01*
X104779291Y-98973829D02*
X105493577Y-99211924D01*
X105493577Y-98592876D01*
X105255481Y-98069067D02*
X105207862Y-98164305D01*
X105160243Y-98211924D01*
X105065005Y-98259543D01*
X105017386Y-98259543D01*
X104922148Y-98211924D01*
X104874529Y-98164305D01*
X104826910Y-98069067D01*
X104826910Y-97878590D01*
X104874529Y-97783352D01*
X104922148Y-97735733D01*
X105017386Y-97688114D01*
X105065005Y-97688114D01*
X105160243Y-97735733D01*
X105207862Y-97783352D01*
X105255481Y-97878590D01*
X105255481Y-98069067D01*
X105303100Y-98164305D01*
X105350719Y-98211924D01*
X105445958Y-98259543D01*
X105636434Y-98259543D01*
X105731672Y-98211924D01*
X105779291Y-98164305D01*
X105826910Y-98069067D01*
X105826910Y-97878590D01*
X105779291Y-97783352D01*
X105731672Y-97735733D01*
X105636434Y-97688114D01*
X105445958Y-97688114D01*
X105350719Y-97735733D01*
X105303100Y-97783352D01*
X105255481Y-97878590D01*
X82826910Y-99259543D02*
X82826910Y-98640495D01*
X83207862Y-98973829D01*
X83207862Y-98830971D01*
X83255481Y-98735733D01*
X83303100Y-98688114D01*
X83398339Y-98640495D01*
X83636434Y-98640495D01*
X83731672Y-98688114D01*
X83779291Y-98735733D01*
X83826910Y-98830971D01*
X83826910Y-99116686D01*
X83779291Y-99211924D01*
X83731672Y-99259543D01*
X82826910Y-98307162D02*
X82826910Y-97688114D01*
X83207862Y-98021448D01*
X83207862Y-97878590D01*
X83255481Y-97783352D01*
X83303100Y-97735733D01*
X83398339Y-97688114D01*
X83636434Y-97688114D01*
X83731672Y-97735733D01*
X83779291Y-97783352D01*
X83826910Y-97878590D01*
X83826910Y-98164305D01*
X83779291Y-98259543D01*
X83731672Y-98307162D01*
X80565005Y-95902400D02*
X81184053Y-95902400D01*
X80850719Y-96283352D01*
X80993577Y-96283352D01*
X81088815Y-96330971D01*
X81136434Y-96378590D01*
X81184053Y-96473829D01*
X81184053Y-96711924D01*
X81136434Y-96807162D01*
X81088815Y-96854781D01*
X80993577Y-96902400D01*
X80707862Y-96902400D01*
X80612624Y-96854781D01*
X80565005Y-96807162D01*
X81565005Y-95997638D02*
X81612624Y-95950019D01*
X81707862Y-95902400D01*
X81945958Y-95902400D01*
X82041196Y-95950019D01*
X82088815Y-95997638D01*
X82136434Y-96092876D01*
X82136434Y-96188114D01*
X82088815Y-96330971D01*
X81517386Y-96902400D01*
X82136434Y-96902400D01*
X81184053Y-74902400D02*
X80612624Y-74902400D01*
X80898338Y-74902400D02*
X80898338Y-73902400D01*
X80803100Y-74045257D01*
X80707862Y-74140495D01*
X80612624Y-74188114D01*
X81517386Y-73902400D02*
X82184053Y-73902400D01*
X81755481Y-74902400D01*
X83826910Y-72640495D02*
X83826910Y-73211924D01*
X83826910Y-72926210D02*
X82826910Y-72926210D01*
X82969767Y-73021448D01*
X83065005Y-73116686D01*
X83112624Y-73211924D01*
X82826910Y-71783352D02*
X82826910Y-71973829D01*
X82874529Y-72069067D01*
X82922148Y-72116686D01*
X83065005Y-72211924D01*
X83255481Y-72259543D01*
X83636434Y-72259543D01*
X83731672Y-72211924D01*
X83779291Y-72164305D01*
X83826910Y-72069067D01*
X83826910Y-71878590D01*
X83779291Y-71783352D01*
X83731672Y-71735733D01*
X83636434Y-71688114D01*
X83398339Y-71688114D01*
X83303100Y-71735733D01*
X83255481Y-71783352D01*
X83207862Y-71878590D01*
X83207862Y-72069067D01*
X83255481Y-72164305D01*
X83303100Y-72211924D01*
X83398339Y-72259543D01*
X105826910Y-72164304D02*
X105826910Y-72735733D01*
X105826910Y-72450019D02*
X104826910Y-72450019D01*
X104969767Y-72545257D01*
X105065005Y-72640495D01*
X105112624Y-72735733D01*
X71252381Y-82566666D02*
X70776190Y-82900000D01*
X71252381Y-83138095D02*
X70252381Y-83138095D01*
X70252381Y-82757142D01*
X70300000Y-82661904D01*
X70347619Y-82614285D01*
X70442857Y-82566666D01*
X70585714Y-82566666D01*
X70680952Y-82614285D01*
X70728571Y-82661904D01*
X70776190Y-82757142D01*
X70776190Y-83138095D01*
X71252381Y-81614285D02*
X71252381Y-82185714D01*
X71252381Y-81900000D02*
X70252381Y-81900000D01*
X70395238Y-81995238D01*
X70490476Y-82090476D01*
X70538095Y-82185714D01*
X110857143Y-93416666D02*
X110904762Y-93464285D01*
X110952381Y-93607142D01*
X110952381Y-93702380D01*
X110904762Y-93845238D01*
X110809524Y-93940476D01*
X110714286Y-93988095D01*
X110523810Y-94035714D01*
X110380952Y-94035714D01*
X110190476Y-93988095D01*
X110095238Y-93940476D01*
X110000000Y-93845238D01*
X109952381Y-93702380D01*
X109952381Y-93607142D01*
X110000000Y-93464285D01*
X110047619Y-93416666D01*
X110952381Y-92464285D02*
X110952381Y-93035714D01*
X110952381Y-92750000D02*
X109952381Y-92750000D01*
X110095238Y-92845238D01*
X110190476Y-92940476D01*
X110238095Y-93035714D01*
X78857143Y-78916666D02*
X78904762Y-78964285D01*
X78952381Y-79107142D01*
X78952381Y-79202380D01*
X78904762Y-79345238D01*
X78809524Y-79440476D01*
X78714286Y-79488095D01*
X78523810Y-79535714D01*
X78380952Y-79535714D01*
X78190476Y-79488095D01*
X78095238Y-79440476D01*
X78000000Y-79345238D01*
X77952381Y-79202380D01*
X77952381Y-79107142D01*
X78000000Y-78964285D01*
X78047619Y-78916666D01*
X78047619Y-78535714D02*
X78000000Y-78488095D01*
X77952381Y-78392857D01*
X77952381Y-78154761D01*
X78000000Y-78059523D01*
X78047619Y-78011904D01*
X78142857Y-77964285D01*
X78238095Y-77964285D01*
X78380952Y-78011904D01*
X78952381Y-78583333D01*
X78952381Y-77964285D01*
X112857143Y-102666666D02*
X112904762Y-102714285D01*
X112952381Y-102857142D01*
X112952381Y-102952380D01*
X112904762Y-103095238D01*
X112809524Y-103190476D01*
X112714286Y-103238095D01*
X112523810Y-103285714D01*
X112380952Y-103285714D01*
X112190476Y-103238095D01*
X112095238Y-103190476D01*
X112000000Y-103095238D01*
X111952381Y-102952380D01*
X111952381Y-102857142D01*
X112000000Y-102714285D01*
X112047619Y-102666666D01*
X111952381Y-102333333D02*
X111952381Y-101714285D01*
X112333333Y-102047619D01*
X112333333Y-101904761D01*
X112380952Y-101809523D01*
X112428571Y-101761904D01*
X112523810Y-101714285D01*
X112761905Y-101714285D01*
X112857143Y-101761904D01*
X112904762Y-101809523D01*
X112952381Y-101904761D01*
X112952381Y-102190476D01*
X112904762Y-102285714D01*
X112857143Y-102333333D01*
X76357143Y-79566666D02*
X76404762Y-79614285D01*
X76452381Y-79757142D01*
X76452381Y-79852380D01*
X76404762Y-79995238D01*
X76309524Y-80090476D01*
X76214286Y-80138095D01*
X76023810Y-80185714D01*
X75880952Y-80185714D01*
X75690476Y-80138095D01*
X75595238Y-80090476D01*
X75500000Y-79995238D01*
X75452381Y-79852380D01*
X75452381Y-79757142D01*
X75500000Y-79614285D01*
X75547619Y-79566666D01*
X75785714Y-78709523D02*
X76452381Y-78709523D01*
X75404762Y-78947619D02*
X76119048Y-79185714D01*
X76119048Y-78566666D01*
X72857143Y-85416666D02*
X72904762Y-85464285D01*
X72952381Y-85607142D01*
X72952381Y-85702380D01*
X72904762Y-85845238D01*
X72809524Y-85940476D01*
X72714286Y-85988095D01*
X72523810Y-86035714D01*
X72380952Y-86035714D01*
X72190476Y-85988095D01*
X72095238Y-85940476D01*
X72000000Y-85845238D01*
X71952381Y-85702380D01*
X71952381Y-85607142D01*
X72000000Y-85464285D01*
X72047619Y-85416666D01*
X71952381Y-84511904D02*
X71952381Y-84988095D01*
X72428571Y-85035714D01*
X72380952Y-84988095D01*
X72333333Y-84892857D01*
X72333333Y-84654761D01*
X72380952Y-84559523D01*
X72428571Y-84511904D01*
X72523810Y-84464285D01*
X72761905Y-84464285D01*
X72857143Y-84511904D01*
X72904762Y-84559523D01*
X72952381Y-84654761D01*
X72952381Y-84892857D01*
X72904762Y-84988095D01*
X72857143Y-85035714D01*
X72857143Y-94916666D02*
X72904762Y-94964285D01*
X72952381Y-95107142D01*
X72952381Y-95202380D01*
X72904762Y-95345238D01*
X72809524Y-95440476D01*
X72714286Y-95488095D01*
X72523810Y-95535714D01*
X72380952Y-95535714D01*
X72190476Y-95488095D01*
X72095238Y-95440476D01*
X72000000Y-95345238D01*
X71952381Y-95202380D01*
X71952381Y-95107142D01*
X72000000Y-94964285D01*
X72047619Y-94916666D01*
X71952381Y-94059523D02*
X71952381Y-94250000D01*
X72000000Y-94345238D01*
X72047619Y-94392857D01*
X72190476Y-94488095D01*
X72380952Y-94535714D01*
X72761905Y-94535714D01*
X72857143Y-94488095D01*
X72904762Y-94440476D01*
X72952381Y-94345238D01*
X72952381Y-94154761D01*
X72904762Y-94059523D01*
X72857143Y-94011904D01*
X72761905Y-93964285D01*
X72523810Y-93964285D01*
X72428571Y-94011904D01*
X72380952Y-94059523D01*
X72333333Y-94154761D01*
X72333333Y-94345238D01*
X72380952Y-94440476D01*
X72428571Y-94488095D01*
X72523810Y-94535714D01*
X112957143Y-76666666D02*
X113004762Y-76714285D01*
X113052381Y-76857142D01*
X113052381Y-76952380D01*
X113004762Y-77095238D01*
X112909524Y-77190476D01*
X112814286Y-77238095D01*
X112623810Y-77285714D01*
X112480952Y-77285714D01*
X112290476Y-77238095D01*
X112195238Y-77190476D01*
X112100000Y-77095238D01*
X112052381Y-76952380D01*
X112052381Y-76857142D01*
X112100000Y-76714285D01*
X112147619Y-76666666D01*
X112052381Y-76333333D02*
X112052381Y-75666666D01*
X113052381Y-76095238D01*
X111333334Y-81857143D02*
X111285715Y-81904762D01*
X111142858Y-81952381D01*
X111047620Y-81952381D01*
X110904762Y-81904762D01*
X110809524Y-81809524D01*
X110761905Y-81714286D01*
X110714286Y-81523810D01*
X110714286Y-81380952D01*
X110761905Y-81190476D01*
X110809524Y-81095238D01*
X110904762Y-81000000D01*
X111047620Y-80952381D01*
X111142858Y-80952381D01*
X111285715Y-81000000D01*
X111333334Y-81047619D01*
X111904762Y-81380952D02*
X111809524Y-81333333D01*
X111761905Y-81285714D01*
X111714286Y-81190476D01*
X111714286Y-81142857D01*
X111761905Y-81047619D01*
X111809524Y-81000000D01*
X111904762Y-80952381D01*
X112095239Y-80952381D01*
X112190477Y-81000000D01*
X112238096Y-81047619D01*
X112285715Y-81142857D01*
X112285715Y-81190476D01*
X112238096Y-81285714D01*
X112190477Y-81333333D01*
X112095239Y-81380952D01*
X111904762Y-81380952D01*
X111809524Y-81428571D01*
X111761905Y-81476190D01*
X111714286Y-81571429D01*
X111714286Y-81761905D01*
X111761905Y-81857143D01*
X111809524Y-81904762D01*
X111904762Y-81952381D01*
X112095239Y-81952381D01*
X112190477Y-81904762D01*
X112238096Y-81857143D01*
X112285715Y-81761905D01*
X112285715Y-81571429D01*
X112238096Y-81476190D01*
X112190477Y-81428571D01*
X112095239Y-81380952D01*
X112202381Y-73166666D02*
X112202381Y-73642857D01*
X111202381Y-73642857D01*
X112202381Y-72309523D02*
X112202381Y-72880952D01*
X112202381Y-72595238D02*
X111202381Y-72595238D01*
X111345238Y-72690476D01*
X111440476Y-72785714D01*
X111488095Y-72880952D01*
X81202381Y-68988095D02*
X80202381Y-68988095D01*
X80202381Y-68607142D01*
X80250000Y-68511904D01*
X80297619Y-68464285D01*
X80392857Y-68416666D01*
X80535714Y-68416666D01*
X80630952Y-68464285D01*
X80678571Y-68511904D01*
X80726190Y-68607142D01*
X80726190Y-68988095D01*
X80297619Y-68035714D02*
X80250000Y-67988095D01*
X80202381Y-67892857D01*
X80202381Y-67654761D01*
X80250000Y-67559523D01*
X80297619Y-67511904D01*
X80392857Y-67464285D01*
X80488095Y-67464285D01*
X80630952Y-67511904D01*
X81202381Y-68083333D01*
X81202381Y-67464285D01*
X70107143Y-102392857D02*
X70154762Y-102440476D01*
X70202381Y-102583333D01*
X70202381Y-102678571D01*
X70154762Y-102821429D01*
X70059524Y-102916667D01*
X69964286Y-102964286D01*
X69773810Y-103011905D01*
X69630952Y-103011905D01*
X69440476Y-102964286D01*
X69345238Y-102916667D01*
X69250000Y-102821429D01*
X69202381Y-102678571D01*
X69202381Y-102583333D01*
X69250000Y-102440476D01*
X69297619Y-102392857D01*
X70202381Y-101440476D02*
X70202381Y-102011905D01*
X70202381Y-101726191D02*
X69202381Y-101726191D01*
X69345238Y-101821429D01*
X69440476Y-101916667D01*
X69488095Y-102011905D01*
X69297619Y-101059524D02*
X69250000Y-101011905D01*
X69202381Y-100916667D01*
X69202381Y-100678571D01*
X69250000Y-100583333D01*
X69297619Y-100535714D01*
X69392857Y-100488095D01*
X69488095Y-100488095D01*
X69630952Y-100535714D01*
X70202381Y-101107143D01*
X70202381Y-100488095D01*
X97607143Y-69857143D02*
X97559524Y-69904762D01*
X97416667Y-69952381D01*
X97321429Y-69952381D01*
X97178571Y-69904762D01*
X97083333Y-69809524D01*
X97035714Y-69714286D01*
X96988095Y-69523810D01*
X96988095Y-69380952D01*
X97035714Y-69190476D01*
X97083333Y-69095238D01*
X97178571Y-69000000D01*
X97321429Y-68952381D01*
X97416667Y-68952381D01*
X97559524Y-69000000D01*
X97607143Y-69047619D01*
X98559524Y-69952381D02*
X97988095Y-69952381D01*
X98273809Y-69952381D02*
X98273809Y-68952381D01*
X98178571Y-69095238D01*
X98083333Y-69190476D01*
X97988095Y-69238095D01*
X98892857Y-68952381D02*
X99511905Y-68952381D01*
X99178571Y-69333333D01*
X99321429Y-69333333D01*
X99416667Y-69380952D01*
X99464286Y-69428571D01*
X99511905Y-69523810D01*
X99511905Y-69761905D01*
X99464286Y-69857143D01*
X99416667Y-69904762D01*
X99321429Y-69952381D01*
X99035714Y-69952381D01*
X98940476Y-69904762D01*
X98892857Y-69857143D01*
X131857143Y-99857143D02*
X131809524Y-99904762D01*
X131666667Y-99952381D01*
X131571429Y-99952381D01*
X131428571Y-99904762D01*
X131333333Y-99809524D01*
X131285714Y-99714286D01*
X131238095Y-99523810D01*
X131238095Y-99380952D01*
X131285714Y-99190476D01*
X131333333Y-99095238D01*
X131428571Y-99000000D01*
X131571429Y-98952381D01*
X131666667Y-98952381D01*
X131809524Y-99000000D01*
X131857143Y-99047619D01*
X132809524Y-99952381D02*
X132238095Y-99952381D01*
X132523809Y-99952381D02*
X132523809Y-98952381D01*
X132428571Y-99095238D01*
X132333333Y-99190476D01*
X132238095Y-99238095D01*
X133666667Y-99285714D02*
X133666667Y-99952381D01*
X133428571Y-98904762D02*
X133190476Y-99619048D01*
X133809524Y-99619048D01*
X94857143Y-130892857D02*
X94904762Y-130940476D01*
X94952381Y-131083333D01*
X94952381Y-131178571D01*
X94904762Y-131321429D01*
X94809524Y-131416667D01*
X94714286Y-131464286D01*
X94523810Y-131511905D01*
X94380952Y-131511905D01*
X94190476Y-131464286D01*
X94095238Y-131416667D01*
X94000000Y-131321429D01*
X93952381Y-131178571D01*
X93952381Y-131083333D01*
X94000000Y-130940476D01*
X94047619Y-130892857D01*
X94047619Y-130511905D02*
X94000000Y-130464286D01*
X93952381Y-130369048D01*
X93952381Y-130130952D01*
X94000000Y-130035714D01*
X94047619Y-129988095D01*
X94142857Y-129940476D01*
X94238095Y-129940476D01*
X94380952Y-129988095D01*
X94952381Y-130559524D01*
X94952381Y-129940476D01*
X94952381Y-129464286D02*
X94952381Y-129273810D01*
X94904762Y-129178571D01*
X94857143Y-129130952D01*
X94714286Y-129035714D01*
X94523810Y-128988095D01*
X94142857Y-128988095D01*
X94047619Y-129035714D01*
X94000000Y-129083333D01*
X93952381Y-129178571D01*
X93952381Y-129369048D01*
X94000000Y-129464286D01*
X94047619Y-129511905D01*
X94142857Y-129559524D01*
X94380952Y-129559524D01*
X94476190Y-129511905D01*
X94523810Y-129464286D01*
X94571429Y-129369048D01*
X94571429Y-129178571D01*
X94523810Y-129083333D01*
X94476190Y-129035714D01*
X94380952Y-128988095D01*
X94857143Y-134392857D02*
X94904762Y-134440476D01*
X94952381Y-134583333D01*
X94952381Y-134678571D01*
X94904762Y-134821429D01*
X94809524Y-134916667D01*
X94714286Y-134964286D01*
X94523810Y-135011905D01*
X94380952Y-135011905D01*
X94190476Y-134964286D01*
X94095238Y-134916667D01*
X94000000Y-134821429D01*
X93952381Y-134678571D01*
X93952381Y-134583333D01*
X94000000Y-134440476D01*
X94047619Y-134392857D01*
X93952381Y-134059524D02*
X93952381Y-133440476D01*
X94333333Y-133773810D01*
X94333333Y-133630952D01*
X94380952Y-133535714D01*
X94428571Y-133488095D01*
X94523810Y-133440476D01*
X94761905Y-133440476D01*
X94857143Y-133488095D01*
X94904762Y-133535714D01*
X94952381Y-133630952D01*
X94952381Y-133916667D01*
X94904762Y-134011905D01*
X94857143Y-134059524D01*
X93952381Y-132821429D02*
X93952381Y-132726190D01*
X94000000Y-132630952D01*
X94047619Y-132583333D01*
X94142857Y-132535714D01*
X94333333Y-132488095D01*
X94571429Y-132488095D01*
X94761905Y-132535714D01*
X94857143Y-132583333D01*
X94904762Y-132630952D01*
X94952381Y-132726190D01*
X94952381Y-132821429D01*
X94904762Y-132916667D01*
X94857143Y-132964286D01*
X94761905Y-133011905D01*
X94571429Y-133059524D01*
X94333333Y-133059524D01*
X94142857Y-133011905D01*
X94047619Y-132964286D01*
X94000000Y-132916667D01*
X93952381Y-132821429D01*
X133357143Y-127142857D02*
X133404762Y-127190476D01*
X133452381Y-127333333D01*
X133452381Y-127428571D01*
X133404762Y-127571429D01*
X133309524Y-127666667D01*
X133214286Y-127714286D01*
X133023810Y-127761905D01*
X132880952Y-127761905D01*
X132690476Y-127714286D01*
X132595238Y-127666667D01*
X132500000Y-127571429D01*
X132452381Y-127428571D01*
X132452381Y-127333333D01*
X132500000Y-127190476D01*
X132547619Y-127142857D01*
X132452381Y-126809524D02*
X132452381Y-126190476D01*
X132833333Y-126523810D01*
X132833333Y-126380952D01*
X132880952Y-126285714D01*
X132928571Y-126238095D01*
X133023810Y-126190476D01*
X133261905Y-126190476D01*
X133357143Y-126238095D01*
X133404762Y-126285714D01*
X133452381Y-126380952D01*
X133452381Y-126666667D01*
X133404762Y-126761905D01*
X133357143Y-126809524D01*
X133452381Y-125238095D02*
X133452381Y-125809524D01*
X133452381Y-125523810D02*
X132452381Y-125523810D01*
X132595238Y-125619048D01*
X132690476Y-125714286D01*
X132738095Y-125809524D01*
X82452381Y-141488095D02*
X81452381Y-141488095D01*
X81452381Y-141250000D01*
X81500000Y-141107142D01*
X81595238Y-141011904D01*
X81690476Y-140964285D01*
X81880952Y-140916666D01*
X82023810Y-140916666D01*
X82214286Y-140964285D01*
X82309524Y-141011904D01*
X82404762Y-141107142D01*
X82452381Y-141250000D01*
X82452381Y-141488095D01*
X81547619Y-140535714D02*
X81500000Y-140488095D01*
X81452381Y-140392857D01*
X81452381Y-140154761D01*
X81500000Y-140059523D01*
X81547619Y-140011904D01*
X81642857Y-139964285D01*
X81738095Y-139964285D01*
X81880952Y-140011904D01*
X82452381Y-140583333D01*
X82452381Y-139964285D01*
X128952381Y-98166666D02*
X128952381Y-98642857D01*
X127952381Y-98642857D01*
X127952381Y-97404761D02*
X127952381Y-97595238D01*
X128000000Y-97690476D01*
X128047619Y-97738095D01*
X128190476Y-97833333D01*
X128380952Y-97880952D01*
X128761905Y-97880952D01*
X128857143Y-97833333D01*
X128904762Y-97785714D01*
X128952381Y-97690476D01*
X128952381Y-97499999D01*
X128904762Y-97404761D01*
X128857143Y-97357142D01*
X128761905Y-97309523D01*
X128523810Y-97309523D01*
X128428571Y-97357142D01*
X128380952Y-97404761D01*
X128333333Y-97499999D01*
X128333333Y-97690476D01*
X128380952Y-97785714D01*
X128428571Y-97833333D01*
X128523810Y-97880952D01*
X132452381Y-103416666D02*
X131976190Y-103750000D01*
X132452381Y-103988095D02*
X131452381Y-103988095D01*
X131452381Y-103607142D01*
X131500000Y-103511904D01*
X131547619Y-103464285D01*
X131642857Y-103416666D01*
X131785714Y-103416666D01*
X131880952Y-103464285D01*
X131928571Y-103511904D01*
X131976190Y-103607142D01*
X131976190Y-103988095D01*
X131547619Y-103035714D02*
X131500000Y-102988095D01*
X131452381Y-102892857D01*
X131452381Y-102654761D01*
X131500000Y-102559523D01*
X131547619Y-102511904D01*
X131642857Y-102464285D01*
X131738095Y-102464285D01*
X131880952Y-102511904D01*
X132452381Y-103083333D01*
X132452381Y-102464285D01*
X66538095Y-106752381D02*
X66538095Y-107561905D01*
X66585714Y-107657143D01*
X66633333Y-107704762D01*
X66728571Y-107752381D01*
X66919048Y-107752381D01*
X67014286Y-107704762D01*
X67061905Y-107657143D01*
X67109524Y-107561905D01*
X67109524Y-106752381D01*
X68061905Y-106752381D02*
X67585714Y-106752381D01*
X67538095Y-107228571D01*
X67585714Y-107180952D01*
X67680952Y-107133333D01*
X67919048Y-107133333D01*
X68014286Y-107180952D01*
X68061905Y-107228571D01*
X68109524Y-107323810D01*
X68109524Y-107561905D01*
X68061905Y-107657143D01*
X68014286Y-107704762D01*
X67919048Y-107752381D01*
X67680952Y-107752381D01*
X67585714Y-107704762D01*
X67538095Y-107657143D01*
X92152381Y-67811905D02*
X92961905Y-67811905D01*
X93057143Y-67764286D01*
X93104762Y-67716667D01*
X93152381Y-67621429D01*
X93152381Y-67430952D01*
X93104762Y-67335714D01*
X93057143Y-67288095D01*
X92961905Y-67240476D01*
X92152381Y-67240476D01*
X92152381Y-66335714D02*
X92152381Y-66526191D01*
X92200000Y-66621429D01*
X92247619Y-66669048D01*
X92390476Y-66764286D01*
X92580952Y-66811905D01*
X92961905Y-66811905D01*
X93057143Y-66764286D01*
X93104762Y-66716667D01*
X93152381Y-66621429D01*
X93152381Y-66430952D01*
X93104762Y-66335714D01*
X93057143Y-66288095D01*
X92961905Y-66240476D01*
X92723810Y-66240476D01*
X92628571Y-66288095D01*
X92580952Y-66335714D01*
X92533333Y-66430952D01*
X92533333Y-66621429D01*
X92580952Y-66716667D01*
X92628571Y-66764286D01*
X92723810Y-66811905D01*
X131588095Y-91702381D02*
X131588095Y-92511905D01*
X131635714Y-92607143D01*
X131683333Y-92654762D01*
X131778571Y-92702381D01*
X131969048Y-92702381D01*
X132064286Y-92654762D01*
X132111905Y-92607143D01*
X132159524Y-92511905D01*
X132159524Y-91702381D01*
X132540476Y-91702381D02*
X133207143Y-91702381D01*
X132778571Y-92702381D01*
X74511905Y-119642833D02*
X74511905Y-120452357D01*
X74559524Y-120547595D01*
X74607143Y-120595214D01*
X74702381Y-120642833D01*
X74892858Y-120642833D01*
X74988096Y-120595214D01*
X75035715Y-120547595D01*
X75083334Y-120452357D01*
X75083334Y-119642833D01*
X76083334Y-120642833D02*
X75511905Y-120642833D01*
X75797619Y-120642833D02*
X75797619Y-119642833D01*
X75702381Y-119785690D01*
X75607143Y-119880928D01*
X75511905Y-119928547D01*
X77035715Y-120642833D02*
X76464286Y-120642833D01*
X76750000Y-120642833D02*
X76750000Y-119642833D01*
X76654762Y-119785690D01*
X76559524Y-119880928D01*
X76464286Y-119928547D01*
X62876905Y-118452381D02*
X62876905Y-117452381D01*
X63257858Y-117452381D01*
X63353096Y-117500000D01*
X63400715Y-117547619D01*
X63448334Y-117642857D01*
X63448334Y-117785714D01*
X63400715Y-117880952D01*
X63353096Y-117928571D01*
X63257858Y-117976190D01*
X62876905Y-117976190D01*
X64400715Y-118452381D02*
X63829286Y-118452381D01*
X64115000Y-118452381D02*
X64115000Y-117452381D01*
X64019762Y-117595238D01*
X63924524Y-117690476D01*
X63829286Y-117738095D01*
X82002381Y-64353095D02*
X81002381Y-64353095D01*
X81002381Y-63972142D01*
X81050000Y-63876904D01*
X81097619Y-63829285D01*
X81192857Y-63781666D01*
X81335714Y-63781666D01*
X81430952Y-63829285D01*
X81478571Y-63876904D01*
X81526190Y-63972142D01*
X81526190Y-64353095D01*
X81002381Y-62876904D02*
X81002381Y-63353095D01*
X81478571Y-63400714D01*
X81430952Y-63353095D01*
X81383333Y-63257857D01*
X81383333Y-63019761D01*
X81430952Y-62924523D01*
X81478571Y-62876904D01*
X81573810Y-62829285D01*
X81811905Y-62829285D01*
X81907143Y-62876904D01*
X81954762Y-62924523D01*
X82002381Y-63019761D01*
X82002381Y-63257857D01*
X81954762Y-63353095D01*
X81907143Y-63400714D01*
X135646905Y-82002381D02*
X135646905Y-81002381D01*
X136027858Y-81002381D01*
X136123096Y-81050000D01*
X136170715Y-81097619D01*
X136218334Y-81192857D01*
X136218334Y-81335714D01*
X136170715Y-81430952D01*
X136123096Y-81478571D01*
X136027858Y-81526190D01*
X135646905Y-81526190D01*
X137075477Y-81002381D02*
X136885000Y-81002381D01*
X136789762Y-81050000D01*
X136742143Y-81097619D01*
X136646905Y-81240476D01*
X136599286Y-81430952D01*
X136599286Y-81811905D01*
X136646905Y-81907143D01*
X136694524Y-81954762D01*
X136789762Y-82002381D01*
X136980239Y-82002381D01*
X137075477Y-81954762D01*
X137123096Y-81907143D01*
X137170715Y-81811905D01*
X137170715Y-81573810D01*
X137123096Y-81478571D01*
X137075477Y-81430952D01*
X136980239Y-81383333D01*
X136789762Y-81383333D01*
X136694524Y-81430952D01*
X136646905Y-81478571D01*
X136599286Y-81573810D01*
X135170714Y-101122381D02*
X135170714Y-100122381D01*
X135551667Y-100122381D01*
X135646905Y-100170000D01*
X135694524Y-100217619D01*
X135742143Y-100312857D01*
X135742143Y-100455714D01*
X135694524Y-100550952D01*
X135646905Y-100598571D01*
X135551667Y-100646190D01*
X135170714Y-100646190D01*
X136694524Y-101122381D02*
X136123095Y-101122381D01*
X136408809Y-101122381D02*
X136408809Y-100122381D01*
X136313571Y-100265238D01*
X136218333Y-100360476D01*
X136123095Y-100408095D01*
X137027857Y-100122381D02*
X137646905Y-100122381D01*
X137313571Y-100503333D01*
X137456429Y-100503333D01*
X137551667Y-100550952D01*
X137599286Y-100598571D01*
X137646905Y-100693810D01*
X137646905Y-100931905D01*
X137599286Y-101027143D01*
X137551667Y-101074762D01*
X137456429Y-101122381D01*
X137170714Y-101122381D01*
X137075476Y-101074762D01*
X137027857Y-101027143D01*
X75833334Y-132242833D02*
X75500000Y-131766642D01*
X75261905Y-132242833D02*
X75261905Y-131242833D01*
X75642858Y-131242833D01*
X75738096Y-131290452D01*
X75785715Y-131338071D01*
X75833334Y-131433309D01*
X75833334Y-131576166D01*
X75785715Y-131671404D01*
X75738096Y-131719023D01*
X75642858Y-131766642D01*
X75261905Y-131766642D01*
X76404762Y-131671404D02*
X76309524Y-131623785D01*
X76261905Y-131576166D01*
X76214286Y-131480928D01*
X76214286Y-131433309D01*
X76261905Y-131338071D01*
X76309524Y-131290452D01*
X76404762Y-131242833D01*
X76595239Y-131242833D01*
X76690477Y-131290452D01*
X76738096Y-131338071D01*
X76785715Y-131433309D01*
X76785715Y-131480928D01*
X76738096Y-131576166D01*
X76690477Y-131623785D01*
X76595239Y-131671404D01*
X76404762Y-131671404D01*
X76309524Y-131719023D01*
X76261905Y-131766642D01*
X76214286Y-131861881D01*
X76214286Y-132052357D01*
X76261905Y-132147595D01*
X76309524Y-132195214D01*
X76404762Y-132242833D01*
X76595239Y-132242833D01*
X76690477Y-132195214D01*
X76738096Y-132147595D01*
X76785715Y-132052357D01*
X76785715Y-131861881D01*
X76738096Y-131766642D01*
X76690477Y-131719023D01*
X76595239Y-131671404D01*
X75952381Y-61142857D02*
X75476190Y-61476191D01*
X75952381Y-61714286D02*
X74952381Y-61714286D01*
X74952381Y-61333333D01*
X75000000Y-61238095D01*
X75047619Y-61190476D01*
X75142857Y-61142857D01*
X75285714Y-61142857D01*
X75380952Y-61190476D01*
X75428571Y-61238095D01*
X75476190Y-61333333D01*
X75476190Y-61714286D01*
X75952381Y-60190476D02*
X75952381Y-60761905D01*
X75952381Y-60476191D02*
X74952381Y-60476191D01*
X75095238Y-60571429D01*
X75190476Y-60666667D01*
X75238095Y-60761905D01*
X74952381Y-59857143D02*
X74952381Y-59238095D01*
X75333333Y-59571429D01*
X75333333Y-59428571D01*
X75380952Y-59333333D01*
X75428571Y-59285714D01*
X75523810Y-59238095D01*
X75761905Y-59238095D01*
X75857143Y-59285714D01*
X75904762Y-59333333D01*
X75952381Y-59428571D01*
X75952381Y-59714286D01*
X75904762Y-59809524D01*
X75857143Y-59857143D01*
X78452381Y-61142857D02*
X77976190Y-61476191D01*
X78452381Y-61714286D02*
X77452381Y-61714286D01*
X77452381Y-61333333D01*
X77500000Y-61238095D01*
X77547619Y-61190476D01*
X77642857Y-61142857D01*
X77785714Y-61142857D01*
X77880952Y-61190476D01*
X77928571Y-61238095D01*
X77976190Y-61333333D01*
X77976190Y-61714286D01*
X78452381Y-60190476D02*
X78452381Y-60761905D01*
X78452381Y-60476191D02*
X77452381Y-60476191D01*
X77595238Y-60571429D01*
X77690476Y-60666667D01*
X77738095Y-60761905D01*
X77452381Y-59333333D02*
X77452381Y-59523810D01*
X77500000Y-59619048D01*
X77547619Y-59666667D01*
X77690476Y-59761905D01*
X77880952Y-59809524D01*
X78261905Y-59809524D01*
X78357143Y-59761905D01*
X78404762Y-59714286D01*
X78452381Y-59619048D01*
X78452381Y-59428571D01*
X78404762Y-59333333D01*
X78357143Y-59285714D01*
X78261905Y-59238095D01*
X78023810Y-59238095D01*
X77928571Y-59285714D01*
X77880952Y-59333333D01*
X77833333Y-59428571D01*
X77833333Y-59619048D01*
X77880952Y-59714286D01*
X77928571Y-59761905D01*
X78023810Y-59809524D01*
X72357143Y-73052381D02*
X72023809Y-72576190D01*
X71785714Y-73052381D02*
X71785714Y-72052381D01*
X72166667Y-72052381D01*
X72261905Y-72100000D01*
X72309524Y-72147619D01*
X72357143Y-72242857D01*
X72357143Y-72385714D01*
X72309524Y-72480952D01*
X72261905Y-72528571D01*
X72166667Y-72576190D01*
X71785714Y-72576190D01*
X73309524Y-73052381D02*
X72738095Y-73052381D01*
X73023809Y-73052381D02*
X73023809Y-72052381D01*
X72928571Y-72195238D01*
X72833333Y-72290476D01*
X72738095Y-72338095D01*
X73642857Y-72052381D02*
X74309524Y-72052381D01*
X73880952Y-73052381D01*
X78607143Y-132202381D02*
X78273809Y-131726190D01*
X78035714Y-132202381D02*
X78035714Y-131202381D01*
X78416667Y-131202381D01*
X78511905Y-131250000D01*
X78559524Y-131297619D01*
X78607143Y-131392857D01*
X78607143Y-131535714D01*
X78559524Y-131630952D01*
X78511905Y-131678571D01*
X78416667Y-131726190D01*
X78035714Y-131726190D01*
X78940476Y-131202381D02*
X79559524Y-131202381D01*
X79226190Y-131583333D01*
X79369048Y-131583333D01*
X79464286Y-131630952D01*
X79511905Y-131678571D01*
X79559524Y-131773810D01*
X79559524Y-132011905D01*
X79511905Y-132107143D01*
X79464286Y-132154762D01*
X79369048Y-132202381D01*
X79083333Y-132202381D01*
X78988095Y-132154762D01*
X78940476Y-132107143D01*
X80416667Y-131535714D02*
X80416667Y-132202381D01*
X80178571Y-131154762D02*
X79940476Y-131869048D01*
X80559524Y-131869048D01*
X71560019Y-132242833D02*
X71226685Y-131766642D01*
X70988590Y-132242833D02*
X70988590Y-131242833D01*
X71369543Y-131242833D01*
X71464781Y-131290452D01*
X71512400Y-131338071D01*
X71560019Y-131433309D01*
X71560019Y-131576166D01*
X71512400Y-131671404D01*
X71464781Y-131719023D01*
X71369543Y-131766642D01*
X70988590Y-131766642D01*
X71893352Y-131242833D02*
X72512400Y-131242833D01*
X72179066Y-131623785D01*
X72321924Y-131623785D01*
X72417162Y-131671404D01*
X72464781Y-131719023D01*
X72512400Y-131814262D01*
X72512400Y-132052357D01*
X72464781Y-132147595D01*
X72417162Y-132195214D01*
X72321924Y-132242833D01*
X72036209Y-132242833D01*
X71940971Y-132195214D01*
X71893352Y-132147595D01*
X73417162Y-131242833D02*
X72940971Y-131242833D01*
X72893352Y-131719023D01*
X72940971Y-131671404D01*
X73036209Y-131623785D01*
X73274305Y-131623785D01*
X73369543Y-131671404D01*
X73417162Y-131719023D01*
X73464781Y-131814262D01*
X73464781Y-132052357D01*
X73417162Y-132147595D01*
X73369543Y-132195214D01*
X73274305Y-132242833D01*
X73036209Y-132242833D01*
X72940971Y-132195214D01*
X72893352Y-132147595D01*
X70047619Y-87345238D02*
X70000000Y-87440476D01*
X69904762Y-87535714D01*
X69761905Y-87678571D01*
X69714286Y-87773810D01*
X69714286Y-87869048D01*
X69952381Y-87821429D02*
X69904762Y-87916667D01*
X69809524Y-88011905D01*
X69619048Y-88059524D01*
X69285714Y-88059524D01*
X69095238Y-88011905D01*
X69000000Y-87916667D01*
X68952381Y-87821429D01*
X68952381Y-87630952D01*
X69000000Y-87535714D01*
X69095238Y-87440476D01*
X69285714Y-87392857D01*
X69619048Y-87392857D01*
X69809524Y-87440476D01*
X69904762Y-87535714D01*
X69952381Y-87630952D01*
X69952381Y-87821429D01*
X69047619Y-87011905D02*
X69000000Y-86964286D01*
X68952381Y-86869048D01*
X68952381Y-86630952D01*
X69000000Y-86535714D01*
X69047619Y-86488095D01*
X69142857Y-86440476D01*
X69238095Y-86440476D01*
X69380952Y-86488095D01*
X69952381Y-87059524D01*
X69952381Y-86440476D01*
X113404762Y-70047619D02*
X113309524Y-70000000D01*
X113214286Y-69904762D01*
X113071429Y-69761905D01*
X112976190Y-69714286D01*
X112880952Y-69714286D01*
X112928571Y-69952381D02*
X112833333Y-69904762D01*
X112738095Y-69809524D01*
X112690476Y-69619048D01*
X112690476Y-69285714D01*
X112738095Y-69095238D01*
X112833333Y-69000000D01*
X112928571Y-68952381D01*
X113119048Y-68952381D01*
X113214286Y-69000000D01*
X113309524Y-69095238D01*
X113357143Y-69285714D01*
X113357143Y-69619048D01*
X113309524Y-69809524D01*
X113214286Y-69904762D01*
X113119048Y-69952381D01*
X112928571Y-69952381D01*
X113690476Y-68952381D02*
X114309524Y-68952381D01*
X113976190Y-69333333D01*
X114119048Y-69333333D01*
X114214286Y-69380952D01*
X114261905Y-69428571D01*
X114309524Y-69523810D01*
X114309524Y-69761905D01*
X114261905Y-69857143D01*
X114214286Y-69904762D01*
X114119048Y-69952381D01*
X113833333Y-69952381D01*
X113738095Y-69904762D01*
X113690476Y-69857143D01*
X129654762Y-113547619D02*
X129559524Y-113500000D01*
X129464286Y-113404762D01*
X129321429Y-113261905D01*
X129226190Y-113214286D01*
X129130952Y-113214286D01*
X129178571Y-113452381D02*
X129083333Y-113404762D01*
X128988095Y-113309524D01*
X128940476Y-113119048D01*
X128940476Y-112785714D01*
X128988095Y-112595238D01*
X129083333Y-112500000D01*
X129178571Y-112452381D01*
X129369048Y-112452381D01*
X129464286Y-112500000D01*
X129559524Y-112595238D01*
X129607143Y-112785714D01*
X129607143Y-113119048D01*
X129559524Y-113309524D01*
X129464286Y-113404762D01*
X129369048Y-113452381D01*
X129178571Y-113452381D01*
X130464286Y-112785714D02*
X130464286Y-113452381D01*
X130226190Y-112404762D02*
X129988095Y-113119048D01*
X130607143Y-113119048D01*
X69952381Y-85142857D02*
X69476190Y-85476191D01*
X69952381Y-85714286D02*
X68952381Y-85714286D01*
X68952381Y-85333333D01*
X69000000Y-85238095D01*
X69047619Y-85190476D01*
X69142857Y-85142857D01*
X69285714Y-85142857D01*
X69380952Y-85190476D01*
X69428571Y-85238095D01*
X69476190Y-85333333D01*
X69476190Y-85714286D01*
X69047619Y-84761905D02*
X69000000Y-84714286D01*
X68952381Y-84619048D01*
X68952381Y-84380952D01*
X69000000Y-84285714D01*
X69047619Y-84238095D01*
X69142857Y-84190476D01*
X69238095Y-84190476D01*
X69380952Y-84238095D01*
X69952381Y-84809524D01*
X69952381Y-84190476D01*
X69380952Y-83619048D02*
X69333333Y-83714286D01*
X69285714Y-83761905D01*
X69190476Y-83809524D01*
X69142857Y-83809524D01*
X69047619Y-83761905D01*
X69000000Y-83714286D01*
X68952381Y-83619048D01*
X68952381Y-83428571D01*
X69000000Y-83333333D01*
X69047619Y-83285714D01*
X69142857Y-83238095D01*
X69190476Y-83238095D01*
X69285714Y-83285714D01*
X69333333Y-83333333D01*
X69380952Y-83428571D01*
X69380952Y-83619048D01*
X69428571Y-83714286D01*
X69476190Y-83761905D01*
X69571429Y-83809524D01*
X69761905Y-83809524D01*
X69857143Y-83761905D01*
X69904762Y-83714286D01*
X69952381Y-83619048D01*
X69952381Y-83428571D01*
X69904762Y-83333333D01*
X69857143Y-83285714D01*
X69761905Y-83238095D01*
X69571429Y-83238095D01*
X69476190Y-83285714D01*
X69428571Y-83333333D01*
X69380952Y-83428571D01*
X115857143Y-69952381D02*
X115523809Y-69476190D01*
X115285714Y-69952381D02*
X115285714Y-68952381D01*
X115666667Y-68952381D01*
X115761905Y-69000000D01*
X115809524Y-69047619D01*
X115857143Y-69142857D01*
X115857143Y-69285714D01*
X115809524Y-69380952D01*
X115761905Y-69428571D01*
X115666667Y-69476190D01*
X115285714Y-69476190D01*
X116238095Y-69047619D02*
X116285714Y-69000000D01*
X116380952Y-68952381D01*
X116619048Y-68952381D01*
X116714286Y-69000000D01*
X116761905Y-69047619D01*
X116809524Y-69142857D01*
X116809524Y-69238095D01*
X116761905Y-69380952D01*
X116190476Y-69952381D01*
X116809524Y-69952381D01*
X117285714Y-69952381D02*
X117476190Y-69952381D01*
X117571429Y-69904762D01*
X117619048Y-69857143D01*
X117714286Y-69714286D01*
X117761905Y-69523810D01*
X117761905Y-69142857D01*
X117714286Y-69047619D01*
X117666667Y-69000000D01*
X117571429Y-68952381D01*
X117380952Y-68952381D01*
X117285714Y-69000000D01*
X117238095Y-69047619D01*
X117190476Y-69142857D01*
X117190476Y-69380952D01*
X117238095Y-69476190D01*
X117285714Y-69523810D01*
X117380952Y-69571429D01*
X117571429Y-69571429D01*
X117666667Y-69523810D01*
X117714286Y-69476190D01*
X117761905Y-69380952D01*
X129107143Y-116452381D02*
X128773809Y-115976190D01*
X128535714Y-116452381D02*
X128535714Y-115452381D01*
X128916667Y-115452381D01*
X129011905Y-115500000D01*
X129059524Y-115547619D01*
X129107143Y-115642857D01*
X129107143Y-115785714D01*
X129059524Y-115880952D01*
X129011905Y-115928571D01*
X128916667Y-115976190D01*
X128535714Y-115976190D01*
X129440476Y-115452381D02*
X130059524Y-115452381D01*
X129726190Y-115833333D01*
X129869048Y-115833333D01*
X129964286Y-115880952D01*
X130011905Y-115928571D01*
X130059524Y-116023810D01*
X130059524Y-116261905D01*
X130011905Y-116357143D01*
X129964286Y-116404762D01*
X129869048Y-116452381D01*
X129583333Y-116452381D01*
X129488095Y-116404762D01*
X129440476Y-116357143D01*
X130678571Y-115452381D02*
X130773810Y-115452381D01*
X130869048Y-115500000D01*
X130916667Y-115547619D01*
X130964286Y-115642857D01*
X131011905Y-115833333D01*
X131011905Y-116071429D01*
X130964286Y-116261905D01*
X130916667Y-116357143D01*
X130869048Y-116404762D01*
X130773810Y-116452381D01*
X130678571Y-116452381D01*
X130583333Y-116404762D01*
X130535714Y-116357143D01*
X130488095Y-116261905D01*
X130440476Y-116071429D01*
X130440476Y-115833333D01*
X130488095Y-115642857D01*
X130535714Y-115547619D01*
X130583333Y-115500000D01*
X130678571Y-115452381D01*
X69952381Y-90642857D02*
X69476190Y-90976191D01*
X69952381Y-91214286D02*
X68952381Y-91214286D01*
X68952381Y-90833333D01*
X69000000Y-90738095D01*
X69047619Y-90690476D01*
X69142857Y-90642857D01*
X69285714Y-90642857D01*
X69380952Y-90690476D01*
X69428571Y-90738095D01*
X69476190Y-90833333D01*
X69476190Y-91214286D01*
X68952381Y-90309524D02*
X68952381Y-89690476D01*
X69333333Y-90023810D01*
X69333333Y-89880952D01*
X69380952Y-89785714D01*
X69428571Y-89738095D01*
X69523810Y-89690476D01*
X69761905Y-89690476D01*
X69857143Y-89738095D01*
X69904762Y-89785714D01*
X69952381Y-89880952D01*
X69952381Y-90166667D01*
X69904762Y-90261905D01*
X69857143Y-90309524D01*
X69952381Y-88738095D02*
X69952381Y-89309524D01*
X69952381Y-89023810D02*
X68952381Y-89023810D01*
X69095238Y-89119048D01*
X69190476Y-89214286D01*
X69238095Y-89309524D01*
X109857143Y-69702381D02*
X109523809Y-69226190D01*
X109285714Y-69702381D02*
X109285714Y-68702381D01*
X109666667Y-68702381D01*
X109761905Y-68750000D01*
X109809524Y-68797619D01*
X109857143Y-68892857D01*
X109857143Y-69035714D01*
X109809524Y-69130952D01*
X109761905Y-69178571D01*
X109666667Y-69226190D01*
X109285714Y-69226190D01*
X110190476Y-68702381D02*
X110809524Y-68702381D01*
X110476190Y-69083333D01*
X110619048Y-69083333D01*
X110714286Y-69130952D01*
X110761905Y-69178571D01*
X110809524Y-69273810D01*
X110809524Y-69511905D01*
X110761905Y-69607143D01*
X110714286Y-69654762D01*
X110619048Y-69702381D01*
X110333333Y-69702381D01*
X110238095Y-69654762D01*
X110190476Y-69607143D01*
X111190476Y-68797619D02*
X111238095Y-68750000D01*
X111333333Y-68702381D01*
X111571429Y-68702381D01*
X111666667Y-68750000D01*
X111714286Y-68797619D01*
X111761905Y-68892857D01*
X111761905Y-68988095D01*
X111714286Y-69130952D01*
X111142857Y-69702381D01*
X111761905Y-69702381D01*
X129107143Y-110452381D02*
X128773809Y-109976190D01*
X128535714Y-110452381D02*
X128535714Y-109452381D01*
X128916667Y-109452381D01*
X129011905Y-109500000D01*
X129059524Y-109547619D01*
X129107143Y-109642857D01*
X129107143Y-109785714D01*
X129059524Y-109880952D01*
X129011905Y-109928571D01*
X128916667Y-109976190D01*
X128535714Y-109976190D01*
X129440476Y-109452381D02*
X130059524Y-109452381D01*
X129726190Y-109833333D01*
X129869048Y-109833333D01*
X129964286Y-109880952D01*
X130011905Y-109928571D01*
X130059524Y-110023810D01*
X130059524Y-110261905D01*
X130011905Y-110357143D01*
X129964286Y-110404762D01*
X129869048Y-110452381D01*
X129583333Y-110452381D01*
X129488095Y-110404762D01*
X129440476Y-110357143D01*
X130392857Y-109452381D02*
X131011905Y-109452381D01*
X130678571Y-109833333D01*
X130821429Y-109833333D01*
X130916667Y-109880952D01*
X130964286Y-109928571D01*
X131011905Y-110023810D01*
X131011905Y-110261905D01*
X130964286Y-110357143D01*
X130916667Y-110404762D01*
X130821429Y-110452381D01*
X130535714Y-110452381D01*
X130440476Y-110404762D01*
X130392857Y-110357143D01*
X79857143Y-72952381D02*
X79523809Y-72476190D01*
X79285714Y-72952381D02*
X79285714Y-71952381D01*
X79666667Y-71952381D01*
X79761905Y-72000000D01*
X79809524Y-72047619D01*
X79857143Y-72142857D01*
X79857143Y-72285714D01*
X79809524Y-72380952D01*
X79761905Y-72428571D01*
X79666667Y-72476190D01*
X79285714Y-72476190D01*
X80190476Y-71952381D02*
X80809524Y-71952381D01*
X80476190Y-72333333D01*
X80619048Y-72333333D01*
X80714286Y-72380952D01*
X80761905Y-72428571D01*
X80809524Y-72523810D01*
X80809524Y-72761905D01*
X80761905Y-72857143D01*
X80714286Y-72904762D01*
X80619048Y-72952381D01*
X80333333Y-72952381D01*
X80238095Y-72904762D01*
X80190476Y-72857143D01*
X81666667Y-71952381D02*
X81476190Y-71952381D01*
X81380952Y-72000000D01*
X81333333Y-72047619D01*
X81238095Y-72190476D01*
X81190476Y-72380952D01*
X81190476Y-72761905D01*
X81238095Y-72857143D01*
X81285714Y-72904762D01*
X81380952Y-72952381D01*
X81571429Y-72952381D01*
X81666667Y-72904762D01*
X81714286Y-72857143D01*
X81761905Y-72761905D01*
X81761905Y-72523810D01*
X81714286Y-72428571D01*
X81666667Y-72380952D01*
X81571429Y-72333333D01*
X81380952Y-72333333D01*
X81285714Y-72380952D01*
X81238095Y-72428571D01*
X81190476Y-72523810D01*
X70352381Y-80011905D02*
X71161905Y-80011905D01*
X71257143Y-79964286D01*
X71304762Y-79916667D01*
X71352381Y-79821429D01*
X71352381Y-79630952D01*
X71304762Y-79535714D01*
X71257143Y-79488095D01*
X71161905Y-79440476D01*
X70352381Y-79440476D01*
X71352381Y-78440476D02*
X71352381Y-79011905D01*
X71352381Y-78726191D02*
X70352381Y-78726191D01*
X70495238Y-78821429D01*
X70590476Y-78916667D01*
X70638095Y-79011905D01*
X89261905Y-129702381D02*
X89261905Y-128702381D01*
X89500000Y-128702381D01*
X89642858Y-128750000D01*
X89738096Y-128845238D01*
X89785715Y-128940476D01*
X89833334Y-129130952D01*
X89833334Y-129273810D01*
X89785715Y-129464286D01*
X89738096Y-129559524D01*
X89642858Y-129654762D01*
X89500000Y-129702381D01*
X89261905Y-129702381D01*
X90166667Y-128702381D02*
X90785715Y-128702381D01*
X90452381Y-129083333D01*
X90595239Y-129083333D01*
X90690477Y-129130952D01*
X90738096Y-129178571D01*
X90785715Y-129273810D01*
X90785715Y-129511905D01*
X90738096Y-129607143D01*
X90690477Y-129654762D01*
X90595239Y-129702381D01*
X90309524Y-129702381D01*
X90214286Y-129654762D01*
X90166667Y-129607143D01*
X82011905Y-129452381D02*
X82011905Y-128452381D01*
X82250000Y-128452381D01*
X82392858Y-128500000D01*
X82488096Y-128595238D01*
X82535715Y-128690476D01*
X82583334Y-128880952D01*
X82583334Y-129023810D01*
X82535715Y-129214286D01*
X82488096Y-129309524D01*
X82392858Y-129404762D01*
X82250000Y-129452381D01*
X82011905Y-129452381D01*
X83440477Y-128785714D02*
X83440477Y-129452381D01*
X83202381Y-128404762D02*
X82964286Y-129119048D01*
X83583334Y-129119048D01*
X72155257Y-127488095D02*
X71155257Y-127488095D01*
X71155257Y-127250000D01*
X71202876Y-127107142D01*
X71298114Y-127011904D01*
X71393352Y-126964285D01*
X71583828Y-126916666D01*
X71726686Y-126916666D01*
X71917162Y-126964285D01*
X72012400Y-127011904D01*
X72107638Y-127107142D01*
X72155257Y-127250000D01*
X72155257Y-127488095D01*
X71155257Y-126011904D02*
X71155257Y-126488095D01*
X71631447Y-126535714D01*
X71583828Y-126488095D01*
X71536209Y-126392857D01*
X71536209Y-126154761D01*
X71583828Y-126059523D01*
X71631447Y-126011904D01*
X71726686Y-125964285D01*
X71964781Y-125964285D01*
X72060019Y-126011904D01*
X72107638Y-126059523D01*
X72155257Y-126154761D01*
X72155257Y-126392857D01*
X72107638Y-126488095D01*
X72060019Y-126535714D01*
X70511905Y-113202381D02*
X70511905Y-112202381D01*
X70750000Y-112202381D01*
X70892858Y-112250000D01*
X70988096Y-112345238D01*
X71035715Y-112440476D01*
X71083334Y-112630952D01*
X71083334Y-112773810D01*
X71035715Y-112964286D01*
X70988096Y-113059524D01*
X70892858Y-113154762D01*
X70750000Y-113202381D01*
X70511905Y-113202381D01*
X71940477Y-112202381D02*
X71750000Y-112202381D01*
X71654762Y-112250000D01*
X71607143Y-112297619D01*
X71511905Y-112440476D01*
X71464286Y-112630952D01*
X71464286Y-113011905D01*
X71511905Y-113107143D01*
X71559524Y-113154762D01*
X71654762Y-113202381D01*
X71845239Y-113202381D01*
X71940477Y-113154762D01*
X71988096Y-113107143D01*
X72035715Y-113011905D01*
X72035715Y-112773810D01*
X71988096Y-112678571D01*
X71940477Y-112630952D01*
X71845239Y-112583333D01*
X71654762Y-112583333D01*
X71559524Y-112630952D01*
X71511905Y-112678571D01*
X71464286Y-112773810D01*
X95028419Y-141173819D02*
X94695085Y-141173819D01*
X94695085Y-141697629D02*
X94695085Y-140697629D01*
X95171276Y-140697629D01*
X96076038Y-141697629D02*
X95504609Y-141697629D01*
X95790323Y-141697629D02*
X95790323Y-140697629D01*
X95695085Y-140840486D01*
X95599847Y-140935724D01*
X95504609Y-140983343D01*
X113107143Y-93666666D02*
X113154762Y-93714285D01*
X113202381Y-93857142D01*
X113202381Y-93952380D01*
X113154762Y-94095238D01*
X113059524Y-94190476D01*
X112964286Y-94238095D01*
X112773810Y-94285714D01*
X112630952Y-94285714D01*
X112440476Y-94238095D01*
X112345238Y-94190476D01*
X112250000Y-94095238D01*
X112202381Y-93952380D01*
X112202381Y-93857142D01*
X112250000Y-93714285D01*
X112297619Y-93666666D01*
X113202381Y-93190476D02*
X113202381Y-93000000D01*
X113154762Y-92904761D01*
X113107143Y-92857142D01*
X112964286Y-92761904D01*
X112773810Y-92714285D01*
X112392857Y-92714285D01*
X112297619Y-92761904D01*
X112250000Y-92809523D01*
X112202381Y-92904761D01*
X112202381Y-93095238D01*
X112250000Y-93190476D01*
X112297619Y-93238095D01*
X112392857Y-93285714D01*
X112630952Y-93285714D01*
X112726190Y-93238095D01*
X112773810Y-93190476D01*
X112821429Y-93095238D01*
X112821429Y-92904761D01*
X112773810Y-92809523D01*
X112726190Y-92761904D01*
X112630952Y-92714285D01*
X121702381Y-63488095D02*
X120702381Y-63488095D01*
X120702381Y-63250000D01*
X120750000Y-63107142D01*
X120845238Y-63011904D01*
X120940476Y-62964285D01*
X121130952Y-62916666D01*
X121273810Y-62916666D01*
X121464286Y-62964285D01*
X121559524Y-63011904D01*
X121654762Y-63107142D01*
X121702381Y-63250000D01*
X121702381Y-63488095D01*
X121702381Y-61964285D02*
X121702381Y-62535714D01*
X121702381Y-62250000D02*
X120702381Y-62250000D01*
X120845238Y-62345238D01*
X120940476Y-62440476D01*
X120988095Y-62535714D01*
X127952381Y-63488095D02*
X126952381Y-63488095D01*
X126952381Y-63250000D01*
X127000000Y-63107142D01*
X127095238Y-63011904D01*
X127190476Y-62964285D01*
X127380952Y-62916666D01*
X127523810Y-62916666D01*
X127714286Y-62964285D01*
X127809524Y-63011904D01*
X127904762Y-63107142D01*
X127952381Y-63250000D01*
X127952381Y-63488095D01*
X126952381Y-62583333D02*
X126952381Y-61916666D01*
X127952381Y-62345238D01*
X128652381Y-59738095D02*
X127652381Y-59738095D01*
X127652381Y-59357142D01*
X127700000Y-59261904D01*
X127747619Y-59214285D01*
X127842857Y-59166666D01*
X127985714Y-59166666D01*
X128080952Y-59214285D01*
X128128571Y-59261904D01*
X128176190Y-59357142D01*
X128176190Y-59738095D01*
X127652381Y-58833333D02*
X127652381Y-58214285D01*
X128033333Y-58547619D01*
X128033333Y-58404761D01*
X128080952Y-58309523D01*
X128128571Y-58261904D01*
X128223810Y-58214285D01*
X128461905Y-58214285D01*
X128557143Y-58261904D01*
X128604762Y-58309523D01*
X128652381Y-58404761D01*
X128652381Y-58690476D01*
X128604762Y-58785714D01*
X128557143Y-58833333D01*
X121702381Y-66666666D02*
X121226190Y-67000000D01*
X121702381Y-67238095D02*
X120702381Y-67238095D01*
X120702381Y-66857142D01*
X120750000Y-66761904D01*
X120797619Y-66714285D01*
X120892857Y-66666666D01*
X121035714Y-66666666D01*
X121130952Y-66714285D01*
X121178571Y-66761904D01*
X121226190Y-66857142D01*
X121226190Y-67238095D01*
X120702381Y-66333333D02*
X120702381Y-65714285D01*
X121083333Y-66047619D01*
X121083333Y-65904761D01*
X121130952Y-65809523D01*
X121178571Y-65761904D01*
X121273810Y-65714285D01*
X121511905Y-65714285D01*
X121607143Y-65761904D01*
X121654762Y-65809523D01*
X121702381Y-65904761D01*
X121702381Y-66190476D01*
X121654762Y-66285714D01*
X121607143Y-66333333D01*
X128052381Y-66666666D02*
X127576190Y-67000000D01*
X128052381Y-67238095D02*
X127052381Y-67238095D01*
X127052381Y-66857142D01*
X127100000Y-66761904D01*
X127147619Y-66714285D01*
X127242857Y-66666666D01*
X127385714Y-66666666D01*
X127480952Y-66714285D01*
X127528571Y-66761904D01*
X127576190Y-66857142D01*
X127576190Y-67238095D01*
X127385714Y-65809523D02*
X128052381Y-65809523D01*
X127004762Y-66047619D02*
X127719048Y-66285714D01*
X127719048Y-65666666D01*
X69607143Y-99202381D02*
X69273809Y-98726190D01*
X69035714Y-99202381D02*
X69035714Y-98202381D01*
X69416667Y-98202381D01*
X69511905Y-98250000D01*
X69559524Y-98297619D01*
X69607143Y-98392857D01*
X69607143Y-98535714D01*
X69559524Y-98630952D01*
X69511905Y-98678571D01*
X69416667Y-98726190D01*
X69035714Y-98726190D01*
X70559524Y-99202381D02*
X69988095Y-99202381D01*
X70273809Y-99202381D02*
X70273809Y-98202381D01*
X70178571Y-98345238D01*
X70083333Y-98440476D01*
X69988095Y-98488095D01*
X71416667Y-98535714D02*
X71416667Y-99202381D01*
X71178571Y-98154762D02*
X70940476Y-98869048D01*
X71559524Y-98869048D01*
X104857143Y-69702381D02*
X104523809Y-69226190D01*
X104285714Y-69702381D02*
X104285714Y-68702381D01*
X104666667Y-68702381D01*
X104761905Y-68750000D01*
X104809524Y-68797619D01*
X104857143Y-68892857D01*
X104857143Y-69035714D01*
X104809524Y-69130952D01*
X104761905Y-69178571D01*
X104666667Y-69226190D01*
X104285714Y-69226190D01*
X105809524Y-69702381D02*
X105238095Y-69702381D01*
X105523809Y-69702381D02*
X105523809Y-68702381D01*
X105428571Y-68845238D01*
X105333333Y-68940476D01*
X105238095Y-68988095D01*
X106714286Y-68702381D02*
X106238095Y-68702381D01*
X106190476Y-69178571D01*
X106238095Y-69130952D01*
X106333333Y-69083333D01*
X106571429Y-69083333D01*
X106666667Y-69130952D01*
X106714286Y-69178571D01*
X106761905Y-69273810D01*
X106761905Y-69511905D01*
X106714286Y-69607143D01*
X106666667Y-69654762D01*
X106571429Y-69702381D01*
X106333333Y-69702381D01*
X106238095Y-69654762D01*
X106190476Y-69607143D01*
X69607143Y-96952381D02*
X69273809Y-96476190D01*
X69035714Y-96952381D02*
X69035714Y-95952381D01*
X69416667Y-95952381D01*
X69511905Y-96000000D01*
X69559524Y-96047619D01*
X69607143Y-96142857D01*
X69607143Y-96285714D01*
X69559524Y-96380952D01*
X69511905Y-96428571D01*
X69416667Y-96476190D01*
X69035714Y-96476190D01*
X69940476Y-95952381D02*
X70559524Y-95952381D01*
X70226190Y-96333333D01*
X70369048Y-96333333D01*
X70464286Y-96380952D01*
X70511905Y-96428571D01*
X70559524Y-96523810D01*
X70559524Y-96761905D01*
X70511905Y-96857143D01*
X70464286Y-96904762D01*
X70369048Y-96952381D01*
X70083333Y-96952381D01*
X69988095Y-96904762D01*
X69940476Y-96857143D01*
X71035714Y-96952381D02*
X71226190Y-96952381D01*
X71321429Y-96904762D01*
X71369048Y-96857143D01*
X71464286Y-96714286D01*
X71511905Y-96523810D01*
X71511905Y-96142857D01*
X71464286Y-96047619D01*
X71416667Y-96000000D01*
X71321429Y-95952381D01*
X71130952Y-95952381D01*
X71035714Y-96000000D01*
X70988095Y-96047619D01*
X70940476Y-96142857D01*
X70940476Y-96380952D01*
X70988095Y-96476190D01*
X71035714Y-96523810D01*
X71130952Y-96571429D01*
X71321429Y-96571429D01*
X71416667Y-96523810D01*
X71464286Y-96476190D01*
X71511905Y-96380952D01*
X101857143Y-69702381D02*
X101523809Y-69226190D01*
X101285714Y-69702381D02*
X101285714Y-68702381D01*
X101666667Y-68702381D01*
X101761905Y-68750000D01*
X101809524Y-68797619D01*
X101857143Y-68892857D01*
X101857143Y-69035714D01*
X101809524Y-69130952D01*
X101761905Y-69178571D01*
X101666667Y-69226190D01*
X101285714Y-69226190D01*
X102714286Y-69035714D02*
X102714286Y-69702381D01*
X102476190Y-68654762D02*
X102238095Y-69369048D01*
X102857143Y-69369048D01*
X103428571Y-68702381D02*
X103523810Y-68702381D01*
X103619048Y-68750000D01*
X103666667Y-68797619D01*
X103714286Y-68892857D01*
X103761905Y-69083333D01*
X103761905Y-69321429D01*
X103714286Y-69511905D01*
X103666667Y-69607143D01*
X103619048Y-69654762D01*
X103523810Y-69702381D01*
X103428571Y-69702381D01*
X103333333Y-69654762D01*
X103285714Y-69607143D01*
X103238095Y-69511905D01*
X103190476Y-69321429D01*
X103190476Y-69083333D01*
X103238095Y-68892857D01*
X103285714Y-68797619D01*
X103333333Y-68750000D01*
X103428571Y-68702381D01*
X112857143Y-113892857D02*
X112904762Y-113940476D01*
X112952381Y-114083333D01*
X112952381Y-114178571D01*
X112904762Y-114321429D01*
X112809524Y-114416667D01*
X112714286Y-114464286D01*
X112523810Y-114511905D01*
X112380952Y-114511905D01*
X112190476Y-114464286D01*
X112095238Y-114416667D01*
X112000000Y-114321429D01*
X111952381Y-114178571D01*
X111952381Y-114083333D01*
X112000000Y-113940476D01*
X112047619Y-113892857D01*
X111952381Y-113559524D02*
X111952381Y-112940476D01*
X112333333Y-113273810D01*
X112333333Y-113130952D01*
X112380952Y-113035714D01*
X112428571Y-112988095D01*
X112523810Y-112940476D01*
X112761905Y-112940476D01*
X112857143Y-112988095D01*
X112904762Y-113035714D01*
X112952381Y-113130952D01*
X112952381Y-113416667D01*
X112904762Y-113511905D01*
X112857143Y-113559524D01*
X111952381Y-112083333D02*
X111952381Y-112273810D01*
X112000000Y-112369048D01*
X112047619Y-112416667D01*
X112190476Y-112511905D01*
X112380952Y-112559524D01*
X112761905Y-112559524D01*
X112857143Y-112511905D01*
X112904762Y-112464286D01*
X112952381Y-112369048D01*
X112952381Y-112178571D01*
X112904762Y-112083333D01*
X112857143Y-112035714D01*
X112761905Y-111988095D01*
X112523810Y-111988095D01*
X112428571Y-112035714D01*
X112380952Y-112083333D01*
X112333333Y-112178571D01*
X112333333Y-112369048D01*
X112380952Y-112464286D01*
X112428571Y-112511905D01*
X112523810Y-112559524D01*
X73757143Y-76642857D02*
X73804762Y-76690476D01*
X73852381Y-76833333D01*
X73852381Y-76928571D01*
X73804762Y-77071429D01*
X73709524Y-77166667D01*
X73614286Y-77214286D01*
X73423810Y-77261905D01*
X73280952Y-77261905D01*
X73090476Y-77214286D01*
X72995238Y-77166667D01*
X72900000Y-77071429D01*
X72852381Y-76928571D01*
X72852381Y-76833333D01*
X72900000Y-76690476D01*
X72947619Y-76642857D01*
X72852381Y-76309524D02*
X72852381Y-75690476D01*
X73233333Y-76023810D01*
X73233333Y-75880952D01*
X73280952Y-75785714D01*
X73328571Y-75738095D01*
X73423810Y-75690476D01*
X73661905Y-75690476D01*
X73757143Y-75738095D01*
X73804762Y-75785714D01*
X73852381Y-75880952D01*
X73852381Y-76166667D01*
X73804762Y-76261905D01*
X73757143Y-76309524D01*
X72852381Y-75357143D02*
X72852381Y-74690476D01*
X73852381Y-75119048D01*
X113761905Y-117182381D02*
X113761905Y-117991905D01*
X113809524Y-118087143D01*
X113857143Y-118134762D01*
X113952381Y-118182381D01*
X114142858Y-118182381D01*
X114238096Y-118134762D01*
X114285715Y-118087143D01*
X114333334Y-117991905D01*
X114333334Y-117182381D01*
X115333334Y-118182381D02*
X114761905Y-118182381D01*
X115047619Y-118182381D02*
X115047619Y-117182381D01*
X114952381Y-117325238D01*
X114857143Y-117420476D01*
X114761905Y-117468095D01*
X115952381Y-117182381D02*
X116047620Y-117182381D01*
X116142858Y-117230000D01*
X116190477Y-117277619D01*
X116238096Y-117372857D01*
X116285715Y-117563333D01*
X116285715Y-117801429D01*
X116238096Y-117991905D01*
X116190477Y-118087143D01*
X116142858Y-118134762D01*
X116047620Y-118182381D01*
X115952381Y-118182381D01*
X115857143Y-118134762D01*
X115809524Y-118087143D01*
X115761905Y-117991905D01*
X115714286Y-117801429D01*
X115714286Y-117563333D01*
X115761905Y-117372857D01*
X115809524Y-117277619D01*
X115857143Y-117230000D01*
X115952381Y-117182381D01*
X89488095Y-115452381D02*
X89488095Y-116261905D01*
X89535714Y-116357143D01*
X89583333Y-116404762D01*
X89678571Y-116452381D01*
X89869048Y-116452381D01*
X89964286Y-116404762D01*
X90011905Y-116357143D01*
X90059524Y-116261905D01*
X90059524Y-115452381D01*
X90678571Y-115880952D02*
X90583333Y-115833333D01*
X90535714Y-115785714D01*
X90488095Y-115690476D01*
X90488095Y-115642857D01*
X90535714Y-115547619D01*
X90583333Y-115500000D01*
X90678571Y-115452381D01*
X90869048Y-115452381D01*
X90964286Y-115500000D01*
X91011905Y-115547619D01*
X91059524Y-115642857D01*
X91059524Y-115690476D01*
X91011905Y-115785714D01*
X90964286Y-115833333D01*
X90869048Y-115880952D01*
X90678571Y-115880952D01*
X90583333Y-115928571D01*
X90535714Y-115976190D01*
X90488095Y-116071429D01*
X90488095Y-116261905D01*
X90535714Y-116357143D01*
X90583333Y-116404762D01*
X90678571Y-116452381D01*
X90869048Y-116452381D01*
X90964286Y-116404762D01*
X91011905Y-116357143D01*
X91059524Y-116261905D01*
X91059524Y-116071429D01*
X91011905Y-115976190D01*
X90964286Y-115928571D01*
X90869048Y-115880952D01*
X115452381Y-103571905D02*
X116261905Y-103571905D01*
X116357143Y-103524286D01*
X116404762Y-103476667D01*
X116452381Y-103381429D01*
X116452381Y-103190952D01*
X116404762Y-103095714D01*
X116357143Y-103048095D01*
X116261905Y-103000476D01*
X115452381Y-103000476D01*
X116452381Y-102476667D02*
X116452381Y-102286191D01*
X116404762Y-102190952D01*
X116357143Y-102143333D01*
X116214286Y-102048095D01*
X116023810Y-102000476D01*
X115642857Y-102000476D01*
X115547619Y-102048095D01*
X115500000Y-102095714D01*
X115452381Y-102190952D01*
X115452381Y-102381429D01*
X115500000Y-102476667D01*
X115547619Y-102524286D01*
X115642857Y-102571905D01*
X115880952Y-102571905D01*
X115976190Y-102524286D01*
X116023810Y-102476667D01*
X116071429Y-102381429D01*
X116071429Y-102190952D01*
X116023810Y-102095714D01*
X115976190Y-102048095D01*
X115880952Y-102000476D01*
X68452381Y-142464286D02*
X67452381Y-142464286D01*
X67452381Y-142083333D01*
X67500000Y-141988095D01*
X67547619Y-141940476D01*
X67642857Y-141892857D01*
X67785714Y-141892857D01*
X67880952Y-141940476D01*
X67928571Y-141988095D01*
X67976190Y-142083333D01*
X67976190Y-142464286D01*
X68452381Y-140940476D02*
X68452381Y-141511905D01*
X68452381Y-141226191D02*
X67452381Y-141226191D01*
X67595238Y-141321429D01*
X67690476Y-141416667D01*
X67738095Y-141511905D01*
X67452381Y-140035714D02*
X67452381Y-140511905D01*
X67928571Y-140559524D01*
X67880952Y-140511905D01*
X67833333Y-140416667D01*
X67833333Y-140178571D01*
X67880952Y-140083333D01*
X67928571Y-140035714D01*
X68023810Y-139988095D01*
X68261905Y-139988095D01*
X68357143Y-140035714D01*
X68404762Y-140083333D01*
X68452381Y-140178571D01*
X68452381Y-140416667D01*
X68404762Y-140511905D01*
X68357143Y-140559524D01*
X82452381Y-137988095D02*
X81452381Y-137988095D01*
X81452381Y-137750000D01*
X81500000Y-137607142D01*
X81595238Y-137511904D01*
X81690476Y-137464285D01*
X81880952Y-137416666D01*
X82023810Y-137416666D01*
X82214286Y-137464285D01*
X82309524Y-137511904D01*
X82404762Y-137607142D01*
X82452381Y-137750000D01*
X82452381Y-137988095D01*
X81880952Y-136845238D02*
X81833333Y-136940476D01*
X81785714Y-136988095D01*
X81690476Y-137035714D01*
X81642857Y-137035714D01*
X81547619Y-136988095D01*
X81500000Y-136940476D01*
X81452381Y-136845238D01*
X81452381Y-136654761D01*
X81500000Y-136559523D01*
X81547619Y-136511904D01*
X81642857Y-136464285D01*
X81690476Y-136464285D01*
X81785714Y-136511904D01*
X81833333Y-136559523D01*
X81880952Y-136654761D01*
X81880952Y-136845238D01*
X81928571Y-136940476D01*
X81976190Y-136988095D01*
X82071429Y-137035714D01*
X82261905Y-137035714D01*
X82357143Y-136988095D01*
X82404762Y-136940476D01*
X82452381Y-136845238D01*
X82452381Y-136654761D01*
X82404762Y-136559523D01*
X82357143Y-136511904D01*
X82261905Y-136464285D01*
X82071429Y-136464285D01*
X81976190Y-136511904D01*
X81928571Y-136559523D01*
X81880952Y-136654761D01*
X89261905Y-135202381D02*
X89261905Y-134202381D01*
X89500000Y-134202381D01*
X89642858Y-134250000D01*
X89738096Y-134345238D01*
X89785715Y-134440476D01*
X89833334Y-134630952D01*
X89833334Y-134773810D01*
X89785715Y-134964286D01*
X89738096Y-135059524D01*
X89642858Y-135154762D01*
X89500000Y-135202381D01*
X89261905Y-135202381D01*
X90309524Y-135202381D02*
X90500000Y-135202381D01*
X90595239Y-135154762D01*
X90642858Y-135107143D01*
X90738096Y-134964286D01*
X90785715Y-134773810D01*
X90785715Y-134392857D01*
X90738096Y-134297619D01*
X90690477Y-134250000D01*
X90595239Y-134202381D01*
X90404762Y-134202381D01*
X90309524Y-134250000D01*
X90261905Y-134297619D01*
X90214286Y-134392857D01*
X90214286Y-134630952D01*
X90261905Y-134726190D01*
X90309524Y-134773810D01*
X90404762Y-134821429D01*
X90595239Y-134821429D01*
X90690477Y-134773810D01*
X90738096Y-134726190D01*
X90785715Y-134630952D01*
X92638095Y-129502381D02*
X92638095Y-128502381D01*
X93209524Y-129502381D02*
X92780952Y-128930952D01*
X93209524Y-128502381D02*
X92638095Y-129073810D01*
X86861905Y-129266667D02*
X87338096Y-129266667D01*
X86766667Y-129552381D02*
X87100000Y-128552381D01*
X87433334Y-129552381D01*
%LPC*%
D11*
X95361752Y-138745248D02*
X95361752Y-139745248D01*
D15*
X96000000Y-126750000D03*
X99000000Y-126750000D03*
D16*
X64250000Y-97425000D03*
X62980000Y-97425000D03*
X64250000Y-96155000D03*
X62980000Y-96155000D03*
X64250000Y-94885000D03*
X62980000Y-94885000D03*
X64250000Y-93615000D03*
X62980000Y-93615000D03*
X64250000Y-92345000D03*
X62980000Y-92345000D03*
X64250000Y-91075000D03*
X62980000Y-91075000D03*
X64250000Y-89805000D03*
X62980000Y-89805000D03*
X64250000Y-88535000D03*
X62980000Y-88535000D03*
X64250000Y-87265000D03*
X62980000Y-87265000D03*
X64250000Y-85995000D03*
X62980000Y-85995000D03*
X64250000Y-84725000D03*
X62980000Y-84725000D03*
X64250000Y-83455000D03*
X62980000Y-83455000D03*
D17*
X68700000Y-138380000D03*
X68700000Y-134180000D03*
X69970000Y-138380000D03*
X69970000Y-134180000D03*
X71240000Y-138380000D03*
X71240000Y-134180000D03*
X72510000Y-138380000D03*
X72510000Y-134180000D03*
X73780000Y-138380000D03*
X73780000Y-134180000D03*
X75050000Y-138380000D03*
X75050000Y-134180000D03*
X76320000Y-138380000D03*
X76320000Y-134180000D03*
X77590000Y-138380000D03*
X77590000Y-134180000D03*
X78860000Y-138380000D03*
X78860000Y-134180000D03*
X80130000Y-138380000D03*
X80130000Y-134180000D03*
D16*
X102575000Y-64250000D03*
X102575000Y-62980000D03*
X103845000Y-64250000D03*
X103845000Y-62980000D03*
X105115000Y-64250000D03*
X105115000Y-62980000D03*
X106385000Y-64250000D03*
X106385000Y-62980000D03*
X107655000Y-64250000D03*
X107655000Y-62980000D03*
X108925000Y-64250000D03*
X108925000Y-62980000D03*
X110195000Y-64250000D03*
X110195000Y-62980000D03*
X111465000Y-64250000D03*
X111465000Y-62980000D03*
X112735000Y-64250000D03*
X112735000Y-62980000D03*
X114005000Y-64250000D03*
X114005000Y-62980000D03*
X115275000Y-64250000D03*
X115275000Y-62980000D03*
X116545000Y-64250000D03*
X116545000Y-62980000D03*
D18*
X110140000Y-102250000D03*
X108870000Y-102250000D03*
X107600000Y-102250000D03*
X106330000Y-102250000D03*
X105060000Y-102250000D03*
X103790000Y-102250000D03*
X102520000Y-102250000D03*
X101250000Y-102250000D03*
X99980000Y-102250000D03*
X98710000Y-102250000D03*
X98710000Y-111650000D03*
X99980000Y-111650000D03*
X101250000Y-111650000D03*
X102520000Y-111650000D03*
X103790000Y-111650000D03*
X105060000Y-111650000D03*
X106330000Y-111650000D03*
X107600000Y-111650000D03*
X108870000Y-111650000D03*
X110140000Y-111650000D03*
D19*
X77285000Y-112199000D03*
X78555000Y-112199000D03*
X79825000Y-112199000D03*
X81095000Y-112199000D03*
X82365000Y-112199000D03*
X87445000Y-112199000D03*
X88715000Y-112199000D03*
X89985000Y-112199000D03*
X91255000Y-112199000D03*
X92525000Y-112199000D03*
X92525000Y-102801000D03*
X91255000Y-102801000D03*
X89985000Y-102801000D03*
X88715000Y-102801000D03*
X87445000Y-102801000D03*
X82365000Y-102801000D03*
X81095000Y-102801000D03*
X79825000Y-102801000D03*
X78555000Y-102801000D03*
X77285000Y-102801000D03*
X76015000Y-102801000D03*
X74745000Y-102801000D03*
X73475000Y-102801000D03*
X86175000Y-102801000D03*
X84905000Y-102801000D03*
X83635000Y-102801000D03*
X86175000Y-112199000D03*
X84905000Y-112199000D03*
X83635000Y-112199000D03*
X76015000Y-112199000D03*
X74745000Y-112199000D03*
X73475000Y-112199000D03*
D20*
X117100000Y-89000000D03*
X118200000Y-89000000D03*
X119300000Y-89000000D03*
X120400000Y-89000000D03*
X121500000Y-89000000D03*
X122600000Y-89000000D03*
X123700000Y-89000000D03*
X124800000Y-89000000D03*
D21*
X115700000Y-89090000D03*
D22*
X128350000Y-89090000D03*
D23*
X115055000Y-87440000D03*
D24*
X115055000Y-80040000D03*
D25*
X115160000Y-74240000D03*
X128660000Y-74240000D03*
D26*
X76000000Y-84651140D03*
X76000000Y-94348860D03*
D27*
X100374529Y-77750019D03*
X99574529Y-77750019D03*
X98774529Y-77750019D03*
X97974529Y-77750019D03*
X97174529Y-77750019D03*
X96374529Y-77750019D03*
X95574529Y-77750019D03*
X94774529Y-77750019D03*
X93974529Y-77750019D03*
X93174529Y-77750019D03*
X92374529Y-77750019D03*
X91574529Y-77750019D03*
X90774529Y-77750019D03*
X89974529Y-77750019D03*
X89174529Y-77750019D03*
X88374529Y-77750019D03*
D28*
X86674529Y-79450019D03*
X86674529Y-80250019D03*
X86674529Y-81050019D03*
X86674529Y-81850019D03*
X86674529Y-82650019D03*
X86674529Y-83450019D03*
X86674529Y-84250019D03*
X86674529Y-85050019D03*
X86674529Y-85850019D03*
X86674529Y-86650019D03*
X86674529Y-87450019D03*
X86674529Y-88250019D03*
X86674529Y-89050019D03*
X86674529Y-89850019D03*
X86674529Y-90650019D03*
X86674529Y-91450019D03*
D27*
X88374529Y-93150019D03*
X89174529Y-93150019D03*
X89974529Y-93150019D03*
X90774529Y-93150019D03*
X91574529Y-93150019D03*
X92374529Y-93150019D03*
X93174529Y-93150019D03*
X93974529Y-93150019D03*
X94774529Y-93150019D03*
X95574529Y-93150019D03*
X96374529Y-93150019D03*
X97174529Y-93150019D03*
X97974529Y-93150019D03*
X98774529Y-93150019D03*
X99574529Y-93150019D03*
X100374529Y-93150019D03*
D28*
X102074529Y-91450019D03*
X102074529Y-90650019D03*
X102074529Y-89850019D03*
X102074529Y-89050019D03*
X102074529Y-88250019D03*
X102074529Y-87450019D03*
X102074529Y-86650019D03*
X102074529Y-85850019D03*
X102074529Y-85050019D03*
X102074529Y-84250019D03*
X102074529Y-83450019D03*
X102074529Y-82650019D03*
X102074529Y-81850019D03*
X102074529Y-81050019D03*
X102074529Y-80250019D03*
X102074529Y-79450019D03*
D29*
X103899529Y-72450019D03*
D30*
X81374529Y-75925019D03*
D29*
X84849529Y-98450019D03*
D30*
X107374529Y-94975019D03*
D29*
X102629529Y-72450019D03*
X101359529Y-72450019D03*
X100089529Y-72450019D03*
X98819529Y-72450019D03*
X97549529Y-72450019D03*
X96279529Y-72450019D03*
X95009529Y-72450019D03*
X93739529Y-72450019D03*
X92469529Y-72450019D03*
X91199529Y-72450019D03*
X89929529Y-72450019D03*
X88659529Y-72450019D03*
X87389529Y-72450019D03*
X86119529Y-72450019D03*
X84849529Y-72450019D03*
D30*
X81374529Y-77195019D03*
X81374529Y-78465019D03*
X81374529Y-79735019D03*
X81374529Y-81005019D03*
X81374529Y-82275019D03*
X81374529Y-83545019D03*
X81374529Y-84815019D03*
X81374529Y-86085019D03*
X81374529Y-87355019D03*
X81374529Y-88625019D03*
X81374529Y-89895019D03*
X81374529Y-91165019D03*
X81374529Y-92435019D03*
X81374529Y-93705019D03*
X81374529Y-94975019D03*
D29*
X86119529Y-98450019D03*
X87389529Y-98450019D03*
X88659529Y-98450019D03*
X89929529Y-98450019D03*
X91199529Y-98450019D03*
X92469529Y-98450019D03*
X93739529Y-98450019D03*
X95009529Y-98450019D03*
X96279529Y-98450019D03*
X97549529Y-98450019D03*
X98819529Y-98450019D03*
X100089529Y-98450019D03*
X101359529Y-98450019D03*
X102629529Y-98450019D03*
X103899529Y-98450019D03*
D30*
X107374529Y-93705019D03*
X107374529Y-92435019D03*
X107374529Y-91165019D03*
X107374529Y-89895019D03*
X107374529Y-88625019D03*
X107374529Y-87355019D03*
X107374529Y-86085019D03*
X107374529Y-84815019D03*
X107374529Y-83545019D03*
X107374529Y-82275019D03*
X107374529Y-81005019D03*
X107374529Y-79735019D03*
X107374529Y-78465019D03*
X107374529Y-77195019D03*
X107374529Y-75925019D03*
D31*
X72500000Y-81550000D03*
X72500000Y-83450000D03*
D32*
X110500000Y-91500000D03*
X110500000Y-89500000D03*
X78500000Y-80500000D03*
X78500000Y-82500000D03*
X112500000Y-106750000D03*
X112500000Y-104750000D03*
D33*
X74500000Y-79500000D03*
X72500000Y-79500000D03*
D32*
X72500000Y-89000000D03*
X72500000Y-87000000D03*
X72500000Y-91000000D03*
X72500000Y-93000000D03*
X110500000Y-75500000D03*
X110500000Y-77500000D03*
D33*
X110500000Y-79500000D03*
X112500000Y-79500000D03*
D15*
X113250000Y-73000000D03*
X110250000Y-73000000D03*
D34*
X78040000Y-66960000D03*
D35*
X78040000Y-69500000D03*
X75500000Y-66960000D03*
X75500000Y-69500000D03*
X72960000Y-66960000D03*
X72960000Y-69500000D03*
D33*
X68250000Y-101750000D03*
X66250000Y-101750000D03*
D32*
X98250000Y-68000000D03*
X98250000Y-66000000D03*
D33*
X131500000Y-97750000D03*
X133500000Y-97750000D03*
D15*
X99000000Y-130250000D03*
X96000000Y-130250000D03*
X99000000Y-133750000D03*
X96000000Y-133750000D03*
D36*
X130250000Y-128000000D03*
X130250000Y-125000000D03*
D37*
X88400300Y-140750000D03*
X83599700Y-140750000D03*
D36*
X126000000Y-99500000D03*
X126000000Y-96500000D03*
D38*
X95061752Y-139245248D03*
X95661752Y-139245248D03*
D36*
X132000000Y-105700000D03*
X132000000Y-100800000D03*
D39*
X68350000Y-105700000D03*
X68350000Y-104750000D03*
X68350000Y-103800000D03*
X66150000Y-103800000D03*
X66150000Y-105700000D03*
D40*
X94300000Y-68100000D03*
X95250000Y-68100000D03*
X96200000Y-68100000D03*
X96200000Y-65900000D03*
X94300000Y-65900000D03*
D39*
X131300000Y-93850000D03*
X131300000Y-94800000D03*
X131300000Y-95750000D03*
X133500000Y-95750000D03*
X133500000Y-93850000D03*
D41*
X77607876Y-117490452D03*
X76337876Y-117490452D03*
X75067876Y-117490452D03*
X73797876Y-117490452D03*
X73797876Y-122890452D03*
X75067876Y-122890452D03*
X76337876Y-122890452D03*
X77607876Y-122890452D03*
D16*
X64250000Y-116545000D03*
X62980000Y-116545000D03*
X64250000Y-115275000D03*
X62980000Y-115275000D03*
X64250000Y-114005000D03*
X62980000Y-114005000D03*
X64250000Y-112735000D03*
X62980000Y-112735000D03*
X64250000Y-111465000D03*
X62980000Y-111465000D03*
X64250000Y-110195000D03*
X62980000Y-110195000D03*
X64250000Y-108925000D03*
X62980000Y-108925000D03*
X64250000Y-107655000D03*
X62980000Y-107655000D03*
X64250000Y-106385000D03*
X62980000Y-106385000D03*
X64250000Y-105115000D03*
X62980000Y-105115000D03*
X64250000Y-103845000D03*
X62980000Y-103845000D03*
X64250000Y-102575000D03*
X62980000Y-102575000D03*
X83455000Y-64250000D03*
X83455000Y-62980000D03*
X84725000Y-64250000D03*
X84725000Y-62980000D03*
X85995000Y-64250000D03*
X85995000Y-62980000D03*
X87265000Y-64250000D03*
X87265000Y-62980000D03*
X88535000Y-64250000D03*
X88535000Y-62980000D03*
X89805000Y-64250000D03*
X89805000Y-62980000D03*
X91075000Y-64250000D03*
X91075000Y-62980000D03*
X92345000Y-64250000D03*
X92345000Y-62980000D03*
X93615000Y-64250000D03*
X93615000Y-62980000D03*
X94885000Y-64250000D03*
X94885000Y-62980000D03*
X96155000Y-64250000D03*
X96155000Y-62980000D03*
X97425000Y-64250000D03*
X97425000Y-62980000D03*
X135750000Y-83455000D03*
X137020000Y-83455000D03*
X135750000Y-84725000D03*
X137020000Y-84725000D03*
X135750000Y-85995000D03*
X137020000Y-85995000D03*
X135750000Y-87265000D03*
X137020000Y-87265000D03*
X135750000Y-88535000D03*
X137020000Y-88535000D03*
X135750000Y-89805000D03*
X137020000Y-89805000D03*
X135750000Y-91075000D03*
X137020000Y-91075000D03*
X135750000Y-92345000D03*
X137020000Y-92345000D03*
X135750000Y-93615000D03*
X137020000Y-93615000D03*
X135750000Y-94885000D03*
X137020000Y-94885000D03*
X135750000Y-96155000D03*
X137020000Y-96155000D03*
X135750000Y-97425000D03*
X137020000Y-97425000D03*
X135750000Y-102575000D03*
X137020000Y-102575000D03*
X135750000Y-103845000D03*
X137020000Y-103845000D03*
X135750000Y-105115000D03*
X137020000Y-105115000D03*
X135750000Y-106385000D03*
X137020000Y-106385000D03*
X135750000Y-107655000D03*
X137020000Y-107655000D03*
X135750000Y-108925000D03*
X137020000Y-108925000D03*
X135750000Y-110195000D03*
X137020000Y-110195000D03*
X135750000Y-111465000D03*
X137020000Y-111465000D03*
X135750000Y-112735000D03*
X137020000Y-112735000D03*
X135750000Y-114005000D03*
X137020000Y-114005000D03*
X135750000Y-115275000D03*
X137020000Y-115275000D03*
X135750000Y-116545000D03*
X137020000Y-116545000D03*
D42*
X65000000Y-125000000D03*
X65000000Y-65000000D03*
X135000000Y-65000000D03*
X135000000Y-135000000D03*
D43*
X76652876Y-129690452D03*
X74752876Y-129690452D03*
D31*
X75500000Y-62550000D03*
X75500000Y-64450000D03*
X78000000Y-62550000D03*
X78000000Y-64450000D03*
X75500000Y-73950000D03*
X75500000Y-72050000D03*
D43*
X80102876Y-129690452D03*
X78202876Y-129690452D03*
X73152876Y-129690452D03*
X71252876Y-129690452D03*
D44*
X66050000Y-88250760D03*
X67950000Y-88250760D03*
X67000000Y-86251780D03*
X112499240Y-66050000D03*
X112499240Y-67950000D03*
X114498220Y-67000000D03*
X133950000Y-111999240D03*
X132050000Y-111999240D03*
X133000000Y-113998220D03*
D43*
X66050000Y-84500000D03*
X67950000Y-84500000D03*
D31*
X116500000Y-66050000D03*
X116500000Y-67950000D03*
D43*
X133950000Y-116000000D03*
X132050000Y-116000000D03*
X67950000Y-90000000D03*
X66050000Y-90000000D03*
D31*
X110500000Y-67950000D03*
X110500000Y-66050000D03*
D43*
X132050000Y-110000000D03*
X133950000Y-110000000D03*
D31*
X78000000Y-72050000D03*
X78000000Y-73950000D03*
D45*
X69345000Y-74800000D03*
X68075000Y-74800000D03*
X66805000Y-74800000D03*
X65535000Y-74800000D03*
X64265000Y-74800000D03*
X62995000Y-74800000D03*
X61725000Y-74800000D03*
X60455000Y-74800000D03*
X60455000Y-80200000D03*
X61725000Y-80200000D03*
X62995000Y-80200000D03*
X64265000Y-80200000D03*
X65535000Y-80200000D03*
X66805000Y-80200000D03*
X68075000Y-80200000D03*
X69345000Y-80200000D03*
D46*
X91998980Y-126250000D03*
X88001020Y-126250000D03*
X80703896Y-126190452D03*
X84701856Y-126190452D03*
X73703896Y-126190452D03*
X77701856Y-126190452D03*
D47*
X71000000Y-118998980D03*
X71000000Y-115001020D03*
D48*
X99061752Y-139245248D03*
X91661752Y-139245248D03*
D32*
X112750000Y-91500000D03*
X112750000Y-89500000D03*
D49*
X123000000Y-61700980D03*
X123000000Y-63799020D03*
X125500000Y-61700980D03*
X125500000Y-63799020D03*
D50*
X123000000Y-59000000D03*
D51*
X125540000Y-59000000D03*
D31*
X123000000Y-65550000D03*
X123000000Y-67450000D03*
X125500000Y-65550000D03*
X125500000Y-67450000D03*
D43*
X67950000Y-98750000D03*
X66050000Y-98750000D03*
D31*
X105500000Y-67950000D03*
X105500000Y-66050000D03*
D43*
X66050000Y-96500000D03*
X67950000Y-96500000D03*
D31*
X102500000Y-67950000D03*
X102500000Y-66050000D03*
D32*
X112500000Y-108500000D03*
X112500000Y-110500000D03*
X71400000Y-77000000D03*
X71400000Y-75000000D03*
D52*
X125160000Y-119000000D03*
X125160000Y-129160000D03*
X125160000Y-139320000D03*
X104840000Y-119000000D03*
X104840000Y-126620000D03*
X104840000Y-131700000D03*
D53*
X99140000Y-120500000D03*
X96600000Y-120500000D03*
X94060000Y-120500000D03*
X88980000Y-120500000D03*
X86440000Y-120500000D03*
X83900000Y-120500000D03*
X81360000Y-120500000D03*
X120500000Y-93920000D03*
X120500000Y-96460000D03*
X120500000Y-99000000D03*
X120500000Y-104080000D03*
X120500000Y-106620000D03*
X120500000Y-109160000D03*
X120500000Y-111700000D03*
D54*
X78290000Y-141250000D03*
D55*
X75750000Y-141250000D03*
X73210000Y-141250000D03*
X70670000Y-141250000D03*
D37*
X88400300Y-137250000D03*
X83599700Y-137250000D03*
D46*
X91998980Y-132000000D03*
X88001020Y-132000000D03*
M02*
