M48
METRIC,TZ
T1C0.300
T2C0.500
T3C0.600
T4C0.762
T5C1.016
T6C1.100
T7C6.000
%
G90
G05
T1
X60750Y-76250
X61250Y-78500
X62500Y-78000
X62800Y-76400
X64750Y-72500
X65500Y-78250
X66500Y-73250
X67000Y-94750
X67180Y-102805
X68000Y-91500
X68400Y-86200
X69200Y-81600
X69600Y-101000
X69750Y-104000
X70457Y-98760
X70750Y-131500
X71250Y-132500
X71750Y-127750
X72500Y-132500
X72750Y-114500
X72750Y-122750
X73718Y-99760
X73750Y-115750
X73901Y-86750
X74000Y-111000
X75000Y-111000
X75000Y-115500
X75250Y-88250
X75500Y-131500
X76000Y-111000
X76250Y-135750
X77444Y-111001
X77500Y-136250
X78000Y-120250
X78234Y-110981
X78250Y-85000
X78250Y-100250
X78260Y-101155
X78606Y-136248
X79066Y-90007
X79066Y-91216
X79066Y-92179
X79121Y-98760
X79250Y-74250
X79250Y-88000
X79250Y-89000
X79990Y-111129
X80500Y-136250
X81458Y-100540
X81500Y-111250
X82500Y-114000
X82561Y-101098
X82750Y-110986
X84000Y-83000
X84000Y-100250
X84250Y-101000
X84692Y-80270
X84912Y-96081
X85000Y-85850
X85440Y-80015
X85780Y-101286
X86250Y-111050
X86250Y-104000
X86250Y-110250
X87500Y-70000
X87853Y-81674
X88000Y-86750
X88014Y-100422
X88080Y-111250
X88153Y-74630
X89000Y-91750
X89027Y-82784
X89320Y-106070
X89500Y-101086
X89730Y-79953
X89750Y-66500
X89750Y-67750
X89750Y-84000
X89750Y-110200
X89765Y-88000
X89980Y-105520
X90000Y-100250
X90250Y-91250
X90750Y-110200
X91000Y-101000
X91200Y-79811
X91250Y-90750
X91750Y-110200
X91901Y-101037
X92000Y-87639
X92000Y-90250
X92321Y-74571
X92400Y-70000
X92500Y-100500
X92500Y-104000
X92750Y-110200
X93059Y-104559
X93189Y-87736
X93250Y-69500
X93370Y-81500
X93420Y-80230
X93911Y-75317
X93990Y-100469
X94060Y-83000
X94200Y-70200
X94346Y-85573
X94899Y-74929
X94909Y-100456
X95291Y-75656
X95579Y-95327
X95750Y-100500
X96031Y-101528
X96450Y-86119
X96750Y-102500
X97000Y-74500
X97125Y-67000
X97282Y-95913
X97500Y-88250
X97600Y-82800
X98000Y-70250
X98227Y-86227
X98524Y-90900
X98662Y-95757
X98740Y-100819
X99000Y-63250
X99000Y-64000
X99000Y-64750
X99464Y-88293
X99550Y-100747
X99750Y-75250
X100000Y-70250
X100000Y-88250
X100024Y-84630
X100250Y-67750
X100500Y-79250
X100670Y-67250
X100750Y-100750
X102000Y-100750
X102578Y-70129
X103500Y-100750
X103750Y-70250
X103750Y-85000
X104375Y-78295
X104700Y-84065
X104953Y-89013
X108750Y-65750
X108750Y-68000
X109500Y-79260
X109500Y-87500
X110250Y-87750
X111000Y-108750
X114500Y-76000
X114750Y-70250
X115750Y-82000
X117000Y-77500
X117510Y-103750
X117958Y-81740
X118500Y-85750
X119363Y-78760
X119500Y-68500
X119750Y-87000
X120750Y-86750
X121250Y-70250
X121827Y-78760
X123250Y-87000
X125500Y-94750
X127750Y-69000
X128750Y-84782
X129500Y-95750
X129500Y-98000
X129750Y-97000
X129940Y-101315
X131750Y-73750
X133250Y-79250
X133750Y-77500
T2
X73780Y-136500
X76500Y-136750
X81500Y-135000
X81500Y-139500
X94500Y-79250
X96750Y-79250
X97500Y-122750
X126000Y-98250
X126500Y-103250
X138750Y-82250
T3
X62980Y-83455
X62980Y-84725
X62980Y-85995
X62980Y-87265
X62980Y-88535
X62980Y-89805
X62980Y-91075
X62980Y-92345
X62980Y-93615
X62980Y-94885
X62980Y-96155
X62980Y-97425
X62980Y-102575
X62980Y-103845
X62980Y-105115
X62980Y-106385
X62980Y-107655
X62980Y-108925
X62980Y-110195
X62980Y-111465
X62980Y-112735
X62980Y-114005
X62980Y-115275
X62980Y-116545
X64250Y-83455
X64250Y-84725
X64250Y-85995
X64250Y-87265
X64250Y-88535
X64250Y-89805
X64250Y-91075
X64250Y-92345
X64250Y-93615
X64250Y-94885
X64250Y-96155
X64250Y-97425
X64250Y-102575
X64250Y-103845
X64250Y-105115
X64250Y-106385
X64250Y-107655
X64250Y-108925
X64250Y-110195
X64250Y-111465
X64250Y-112735
X64250Y-114005
X64250Y-115275
X64250Y-116545
X83455Y-62980
X83455Y-64250
X84725Y-62980
X84725Y-64250
X85995Y-62980
X85995Y-64250
X87265Y-62980
X87265Y-64250
X88535Y-62980
X88535Y-64250
X89805Y-62980
X89805Y-64250
X91075Y-62980
X91075Y-64250
X92345Y-62980
X92345Y-64250
X93615Y-62980
X93615Y-64250
X94885Y-62980
X94885Y-64250
X96155Y-62980
X96155Y-64250
X97425Y-62980
X97425Y-64250
X102575Y-62980
X102575Y-64250
X103845Y-62980
X103845Y-64250
X105115Y-62980
X105115Y-64250
X106385Y-62980
X106385Y-64250
X107655Y-62980
X107655Y-64250
X108925Y-62980
X108925Y-64250
X110195Y-62980
X110195Y-64250
X111465Y-62980
X111465Y-64250
X112735Y-62980
X112735Y-64250
X114005Y-62980
X114005Y-64250
X115275Y-62980
X115275Y-64250
X116545Y-62980
X116545Y-64250
X135750Y-83455
X135750Y-84725
X135750Y-85995
X135750Y-87265
X135750Y-88535
X135750Y-89805
X135750Y-91075
X135750Y-92345
X135750Y-93615
X135750Y-94885
X135750Y-96155
X135750Y-97425
X135750Y-102575
X135750Y-103845
X135750Y-105115
X135750Y-106385
X135750Y-107655
X135750Y-108925
X135750Y-110195
X135750Y-111465
X135750Y-112735
X135750Y-114005
X135750Y-115275
X135750Y-116545
X137020Y-83455
X137020Y-84725
X137020Y-85995
X137020Y-87265
X137020Y-88535
X137020Y-89805
X137020Y-91075
X137020Y-92345
X137020Y-93615
X137020Y-94885
X137020Y-96155
X137020Y-97425
X137020Y-102575
X137020Y-103845
X137020Y-105115
X137020Y-106385
X137020Y-107655
X137020Y-108925
X137020Y-110195
X137020Y-111465
X137020Y-112735
X137020Y-114005
X137020Y-115275
X137020Y-116545
T4
X81360Y-120500
X83900Y-120500
X86440Y-120500
X88980Y-120500
X94060Y-120500
X96600Y-120500
X99140Y-120500
X120500Y-93920
X120500Y-96460
X120500Y-99000
X120500Y-104080
X120500Y-106620
X120500Y-109160
X120500Y-111700
T5
X70670Y-141250
X72960Y-66960
X72960Y-69500
X73210Y-141250
X75500Y-66960
X75500Y-69500
X75750Y-141250
X78040Y-66960
X78040Y-69500
X78290Y-141250
X123000Y-59000
X125540Y-59000
T6
X104840Y-119000
X104840Y-126620
X104840Y-131700
X125160Y-119000
X125160Y-129160
X125160Y-139320
T7
X65000Y-65000
X65000Y-125000
X135000Y-65000
X135000Y-135000
T0
M30
