G04 #@! TF.FileFunction,Paste,Top*
%FSLAX46Y46*%
G04 Gerber Fmt 4.6, Leading zero omitted, Abs format (unit mm)*
G04 Created by KiCad (PCBNEW 4.0.5+dfsg1-4) date Tue May 30 16:14:19 2017*
%MOMM*%
%LPD*%
G01*
G04 APERTURE LIST*
%ADD10C,0.100000*%
%ADD11R,0.850000X2.350000*%
%ADD12R,0.610000X1.650000*%
%ADD13R,0.612000X1.800000*%
%ADD14R,0.307200X1.120000*%
%ADD15R,0.650000X1.530000*%
%ADD16R,1.450000X1.350000*%
%ADD17R,1.550000X1.350000*%
%ADD18R,1.140000X1.150000*%
%ADD19R,1.140000X1.250000*%
%ADD20R,1.350000X1.550000*%
%ADD21R,1.950580X5.450700*%
%ADD22R,0.400000X1.350000*%
%ADD23R,1.350000X0.400000*%
%ADD24R,1.150000X0.550000*%
%ADD25R,1.100000X0.850000*%
%ADD26R,0.850000X1.100000*%
%ADD27R,2.350000X0.850000*%
%ADD28R,1.351140X2.550020*%
%ADD29R,0.910000X0.500000*%
%ADD30R,0.500000X0.910000*%
%ADD31R,0.450000X1.400000*%
%ADD32R,0.550000X1.150000*%
%ADD33R,0.650100X0.650100*%
%ADD34R,0.450000X1.350000*%
%ADD35R,2.349360X1.650860*%
%ADD36R,1.650860X2.349360*%
%ADD37R,2.150000X5.450000*%
%ADD38R,1.048880X1.048880*%
G04 APERTURE END LIST*
D10*
D11*
X96000000Y-126750000D03*
X99000000Y-126750000D03*
D12*
X68700000Y-138380000D03*
X68700000Y-134180000D03*
X69970000Y-138380000D03*
X69970000Y-134180000D03*
X71240000Y-138380000D03*
X71240000Y-134180000D03*
X72510000Y-138380000D03*
X72510000Y-134180000D03*
X73780000Y-138380000D03*
X73780000Y-134180000D03*
X75050000Y-138380000D03*
X75050000Y-134180000D03*
X76320000Y-138380000D03*
X76320000Y-134180000D03*
X77590000Y-138380000D03*
X77590000Y-134180000D03*
X78860000Y-138380000D03*
X78860000Y-134180000D03*
X80130000Y-138380000D03*
X80130000Y-134180000D03*
D13*
X110140000Y-102250000D03*
X108870000Y-102250000D03*
X107600000Y-102250000D03*
X106330000Y-102250000D03*
X105060000Y-102250000D03*
X103790000Y-102250000D03*
X102520000Y-102250000D03*
X101250000Y-102250000D03*
X99980000Y-102250000D03*
X98710000Y-102250000D03*
X98710000Y-111650000D03*
X99980000Y-111650000D03*
X101250000Y-111650000D03*
X102520000Y-111650000D03*
X103790000Y-111650000D03*
X105060000Y-111650000D03*
X106330000Y-111650000D03*
X107600000Y-111650000D03*
X108870000Y-111650000D03*
X110140000Y-111650000D03*
D14*
X77285000Y-112199000D03*
X78555000Y-112199000D03*
X79825000Y-112199000D03*
X81095000Y-112199000D03*
X82365000Y-112199000D03*
X87445000Y-112199000D03*
X88715000Y-112199000D03*
X89985000Y-112199000D03*
X91255000Y-112199000D03*
X92525000Y-112199000D03*
X92525000Y-102801000D03*
X91255000Y-102801000D03*
X89985000Y-102801000D03*
X88715000Y-102801000D03*
X87445000Y-102801000D03*
X82365000Y-102801000D03*
X81095000Y-102801000D03*
X79825000Y-102801000D03*
X78555000Y-102801000D03*
X77285000Y-102801000D03*
X76015000Y-102801000D03*
X74745000Y-102801000D03*
X73475000Y-102801000D03*
X86175000Y-102801000D03*
X84905000Y-102801000D03*
X83635000Y-102801000D03*
X86175000Y-112199000D03*
X84905000Y-112199000D03*
X83635000Y-112199000D03*
X76015000Y-112199000D03*
X74745000Y-112199000D03*
X73475000Y-112199000D03*
D15*
X117100000Y-89000000D03*
X118200000Y-89000000D03*
X119300000Y-89000000D03*
X120400000Y-89000000D03*
X121500000Y-89000000D03*
X122600000Y-89000000D03*
X123700000Y-89000000D03*
X124800000Y-89000000D03*
D16*
X115700000Y-89090000D03*
D17*
X128350000Y-89090000D03*
D18*
X115055000Y-87440000D03*
D19*
X115055000Y-80040000D03*
D20*
X115160000Y-74240000D03*
X128660000Y-74240000D03*
D21*
X76000000Y-84651140D03*
X76000000Y-94348860D03*
D22*
X100374529Y-77750019D03*
X99574529Y-77750019D03*
X98774529Y-77750019D03*
X97974529Y-77750019D03*
X97174529Y-77750019D03*
X96374529Y-77750019D03*
X95574529Y-77750019D03*
X94774529Y-77750019D03*
X93974529Y-77750019D03*
X93174529Y-77750019D03*
X92374529Y-77750019D03*
X91574529Y-77750019D03*
X90774529Y-77750019D03*
X89974529Y-77750019D03*
X89174529Y-77750019D03*
X88374529Y-77750019D03*
D23*
X86674529Y-79450019D03*
X86674529Y-80250019D03*
X86674529Y-81050019D03*
X86674529Y-81850019D03*
X86674529Y-82650019D03*
X86674529Y-83450019D03*
X86674529Y-84250019D03*
X86674529Y-85050019D03*
X86674529Y-85850019D03*
X86674529Y-86650019D03*
X86674529Y-87450019D03*
X86674529Y-88250019D03*
X86674529Y-89050019D03*
X86674529Y-89850019D03*
X86674529Y-90650019D03*
X86674529Y-91450019D03*
D22*
X88374529Y-93150019D03*
X89174529Y-93150019D03*
X89974529Y-93150019D03*
X90774529Y-93150019D03*
X91574529Y-93150019D03*
X92374529Y-93150019D03*
X93174529Y-93150019D03*
X93974529Y-93150019D03*
X94774529Y-93150019D03*
X95574529Y-93150019D03*
X96374529Y-93150019D03*
X97174529Y-93150019D03*
X97974529Y-93150019D03*
X98774529Y-93150019D03*
X99574529Y-93150019D03*
X100374529Y-93150019D03*
D23*
X102074529Y-91450019D03*
X102074529Y-90650019D03*
X102074529Y-89850019D03*
X102074529Y-89050019D03*
X102074529Y-88250019D03*
X102074529Y-87450019D03*
X102074529Y-86650019D03*
X102074529Y-85850019D03*
X102074529Y-85050019D03*
X102074529Y-84250019D03*
X102074529Y-83450019D03*
X102074529Y-82650019D03*
X102074529Y-81850019D03*
X102074529Y-81050019D03*
X102074529Y-80250019D03*
X102074529Y-79450019D03*
D24*
X72500000Y-81550000D03*
X72500000Y-83450000D03*
D25*
X110500000Y-91500000D03*
X110500000Y-89500000D03*
X78500000Y-80500000D03*
X78500000Y-82500000D03*
X112500000Y-106750000D03*
X112500000Y-104750000D03*
D26*
X74500000Y-79500000D03*
X72500000Y-79500000D03*
D25*
X72500000Y-89000000D03*
X72500000Y-87000000D03*
X72500000Y-91000000D03*
X72500000Y-93000000D03*
X110500000Y-75500000D03*
X110500000Y-77500000D03*
D26*
X110500000Y-79500000D03*
X112500000Y-79500000D03*
D11*
X113250000Y-73000000D03*
X110250000Y-73000000D03*
D26*
X68250000Y-101750000D03*
X66250000Y-101750000D03*
D25*
X98250000Y-68000000D03*
X98250000Y-66000000D03*
D26*
X131500000Y-97750000D03*
X133500000Y-97750000D03*
D11*
X99000000Y-130250000D03*
X96000000Y-130250000D03*
X99000000Y-133750000D03*
X96000000Y-133750000D03*
D27*
X130250000Y-128000000D03*
X130250000Y-125000000D03*
D28*
X88400300Y-140750000D03*
X83599700Y-140750000D03*
D27*
X126000000Y-99500000D03*
X126000000Y-96500000D03*
X132000000Y-105700000D03*
X132000000Y-100800000D03*
D29*
X68350000Y-105700000D03*
X68350000Y-104750000D03*
X68350000Y-103800000D03*
X66150000Y-103800000D03*
X66150000Y-105700000D03*
D30*
X94300000Y-68100000D03*
X95250000Y-68100000D03*
X96200000Y-68100000D03*
X96200000Y-65900000D03*
X94300000Y-65900000D03*
D29*
X131300000Y-93850000D03*
X131300000Y-94800000D03*
X131300000Y-95750000D03*
X133500000Y-95750000D03*
X133500000Y-93850000D03*
D31*
X77607876Y-117490452D03*
X76337876Y-117490452D03*
X75067876Y-117490452D03*
X73797876Y-117490452D03*
X73797876Y-122890452D03*
X75067876Y-122890452D03*
X76337876Y-122890452D03*
X77607876Y-122890452D03*
D32*
X76652876Y-129690452D03*
X74752876Y-129690452D03*
D24*
X75500000Y-62550000D03*
X75500000Y-64450000D03*
X78000000Y-62550000D03*
X78000000Y-64450000D03*
X75500000Y-73950000D03*
X75500000Y-72050000D03*
D32*
X80102876Y-129690452D03*
X78202876Y-129690452D03*
X73152876Y-129690452D03*
X71252876Y-129690452D03*
D33*
X66050000Y-88250760D03*
X67950000Y-88250760D03*
X67000000Y-86251780D03*
X112499240Y-66050000D03*
X112499240Y-67950000D03*
X114498220Y-67000000D03*
X133950000Y-111999240D03*
X132050000Y-111999240D03*
X133000000Y-113998220D03*
D32*
X66050000Y-84500000D03*
X67950000Y-84500000D03*
D24*
X116500000Y-66050000D03*
X116500000Y-67950000D03*
D32*
X133950000Y-116000000D03*
X132050000Y-116000000D03*
X67950000Y-90000000D03*
X66050000Y-90000000D03*
D24*
X110500000Y-67950000D03*
X110500000Y-66050000D03*
D32*
X132050000Y-110000000D03*
X133950000Y-110000000D03*
D24*
X78000000Y-72050000D03*
X78000000Y-73950000D03*
D34*
X69345000Y-74800000D03*
X68075000Y-74800000D03*
X66805000Y-74800000D03*
X65535000Y-74800000D03*
X64265000Y-74800000D03*
X62995000Y-74800000D03*
X61725000Y-74800000D03*
X60455000Y-74800000D03*
X60455000Y-80200000D03*
X61725000Y-80200000D03*
X62995000Y-80200000D03*
X64265000Y-80200000D03*
X65535000Y-80200000D03*
X66805000Y-80200000D03*
X68075000Y-80200000D03*
X69345000Y-80200000D03*
D35*
X91998980Y-126250000D03*
X88001020Y-126250000D03*
X80703896Y-126190452D03*
X84701856Y-126190452D03*
X73703896Y-126190452D03*
X77701856Y-126190452D03*
D36*
X71000000Y-118998980D03*
X71000000Y-115001020D03*
D37*
X99061752Y-139245248D03*
X91661752Y-139245248D03*
D25*
X112750000Y-91500000D03*
X112750000Y-89500000D03*
D38*
X123000000Y-61700980D03*
X123000000Y-63799020D03*
X125500000Y-61700980D03*
X125500000Y-63799020D03*
D24*
X123000000Y-65550000D03*
X123000000Y-67450000D03*
X125500000Y-65550000D03*
X125500000Y-67450000D03*
D32*
X67950000Y-98750000D03*
X66050000Y-98750000D03*
D24*
X105500000Y-67950000D03*
X105500000Y-66050000D03*
D32*
X66050000Y-96500000D03*
X67950000Y-96500000D03*
D24*
X102500000Y-67950000D03*
X102500000Y-66050000D03*
D25*
X112500000Y-108500000D03*
X112500000Y-110500000D03*
X71400000Y-77000000D03*
X71400000Y-75000000D03*
D28*
X88400300Y-137250000D03*
X83599700Y-137250000D03*
D35*
X91998980Y-132000000D03*
X88001020Y-132000000D03*
M02*
