M48
;DRILL file {KiCad 4.0.7+dfsg1-1~bpo9+1} date Mon Jul 16 17:38:56 2018
;FORMAT={3:3/ absolute / metric / suppress leading zeros}
FMAT,2
METRIC,TZ
T1C0.300
T2C0.500
T3C0.600
T4C0.762
T5C1.016
T6C1.100
T7C6.000
T8C0.800
%
G90
G05
M71
T1
X67500Y-95250
X69500Y-136500
X70750Y-135750
X71000Y-92500
X71000Y-102250
X71750Y-108500
X71750Y-110000
X72000Y-80250
X72060Y-104513
X72323Y-78223
X72500Y-132500
X73250Y-78250
X73425Y-104442
X74000Y-83750
X74000Y-85000
X74000Y-86500
X74250Y-78250
X74495Y-131250
X74500Y-102575
X74500Y-104500
X75250Y-85000
X75925Y-104558
X76150Y-132350
X76500Y-78500
X76789Y-73301
X77000Y-104500
X77750Y-132500
X78442Y-77325
X78500Y-98000
X78500Y-104500
X79000Y-109750
X79500Y-86000
X79500Y-132500
X79750Y-98750
X79925Y-104442
X80750Y-86000
X81250Y-88500
X82500Y-103750
X82750Y-85000
X83250Y-80750
X83250Y-99250
X83250Y-104250
X83500Y-111000
X83750Y-112750
X84750Y-103750
X84750Y-99750
X86825Y-86363
X87000Y-88250
X87250Y-103250
X88250Y-83750
X88250Y-86775
X88316Y-85382
X88500Y-91750
X88500Y-103250
X88750Y-69250
X89250Y-95000
X89750Y-103250
X90500Y-74750
X90500Y-113000
X91500Y-84250
X91500Y-107250
X91750Y-78750
X91750Y-80250
X92000Y-113250
X92000Y-70750
X92250Y-93000
X92750Y-68500
X93000Y-74000
X93000Y-92250
X93500Y-86750
X93750Y-92750
X93750Y-104250
X94000Y-70750
X94500Y-85250
X94628Y-73674
X94750Y-72250
X94750Y-92250
X95000Y-98250
X95500Y-92750
X96250Y-92250
X96250Y-98250
X96425Y-77264
X96750Y-71500
X97000Y-92750
X97250Y-84250
X97500Y-98250
X97750Y-92250
X98000Y-79000
X98250Y-113750
X98500Y-66500
X98500Y-92750
X98750Y-98250
X99500Y-92250
X99750Y-77500
X100200Y-98320
X100750Y-79000
X101000Y-69250
X101250Y-98250
X102000Y-77500
X102000Y-84500
X102750Y-77000
X102750Y-98250
X103000Y-83500
X103000Y-85500
X103250Y-81000
X103750Y-98250
X104500Y-68750
X105000Y-104250
X105750Y-94500
X106500Y-68750
X106500Y-96500
X108500Y-67500
X112733Y-74250
X112733Y-76250
X112733Y-78250
X120500Y-71500
X128250Y-90750
X128750Y-106750
X133000Y-107000
T2
X68750Y-96250
X69750Y-131750
X72250Y-71500
X74250Y-91500
X75500Y-112500
X75500Y-120000
X79239Y-80325
X79250Y-111250
X81250Y-104000
X81750Y-95000
X82250Y-75250
X87250Y-80750
X88000Y-112250
X91000Y-67500
X93750Y-80750
X98250Y-72250
X106500Y-112500
X107000Y-105500
X109000Y-86500
X111000Y-81750
X113000Y-70250
X118750Y-77250
X119000Y-75250
X119500Y-96250
X121250Y-77750
X128000Y-104750
X128000Y-109500
X130250Y-84000
X131000Y-108250
T3
X62730Y-83455
X62730Y-84725
X62730Y-85995
X62730Y-87265
X62730Y-88535
X62730Y-89805
X62730Y-91075
X62730Y-92345
X62730Y-93615
X62730Y-94885
X62730Y-96155
X62730Y-97425
X62730Y-102575
X62730Y-103845
X62730Y-105115
X62730Y-106385
X62730Y-107655
X62730Y-108925
X62730Y-110195
X62730Y-111465
X62730Y-112735
X62730Y-114005
X62730Y-115275
X62730Y-116545
X64000Y-83455
X64000Y-84725
X64000Y-85995
X64000Y-87265
X64000Y-88535
X64000Y-89805
X64000Y-91075
X64000Y-92345
X64000Y-93615
X64000Y-94885
X64000Y-96155
X64000Y-97425
X64000Y-102575
X64000Y-103845
X64000Y-105115
X64000Y-106385
X64000Y-107655
X64000Y-108925
X64000Y-110195
X64000Y-111465
X64000Y-112735
X64000Y-114005
X64000Y-115275
X64000Y-116545
X65270Y-83455
X65270Y-84725
X65270Y-85995
X65270Y-87265
X65270Y-88535
X65270Y-89805
X65270Y-91075
X65270Y-92345
X65270Y-93615
X65270Y-94885
X65270Y-96155
X65270Y-97425
X65270Y-102575
X65270Y-103845
X65270Y-105115
X65270Y-106385
X65270Y-107655
X65270Y-108925
X65270Y-110195
X65270Y-111465
X65270Y-112735
X65270Y-114005
X65270Y-115275
X65270Y-116545
X83455Y-62730
X83455Y-64000
X83455Y-65270
X84725Y-62730
X84725Y-64000
X84725Y-65270
X85995Y-62730
X85995Y-64000
X85995Y-65270
X87265Y-62730
X87265Y-64000
X87265Y-65270
X88535Y-62730
X88535Y-64000
X88535Y-65270
X89805Y-62730
X89805Y-64000
X89805Y-65270
X91075Y-62730
X91075Y-64000
X91075Y-65270
X92345Y-62730
X92345Y-64000
X92345Y-65270
X93615Y-62730
X93615Y-64000
X93615Y-65270
X94885Y-62730
X94885Y-64000
X94885Y-65270
X96155Y-62730
X96155Y-64000
X96155Y-65270
X97425Y-62730
X97425Y-64000
X97425Y-65270
X102575Y-62730
X102575Y-64000
X102575Y-65270
X103845Y-62730
X103845Y-64000
X103845Y-65270
X105115Y-62730
X105115Y-64000
X105115Y-65270
X106385Y-62730
X106385Y-64000
X106385Y-65270
X107655Y-62730
X107655Y-64000
X107655Y-65270
X108925Y-62730
X108925Y-64000
X108925Y-65270
X110195Y-62730
X110195Y-64000
X110195Y-65270
X111465Y-62730
X111465Y-64000
X111465Y-65270
X112735Y-62730
X112735Y-64000
X112735Y-65270
X114005Y-62730
X114005Y-64000
X114005Y-65270
X115275Y-62730
X115275Y-64000
X115275Y-65270
X116545Y-62730
X116545Y-64000
X116545Y-65270
X134730Y-83455
X134730Y-84725
X134730Y-85995
X134730Y-87265
X134730Y-88535
X134730Y-89805
X134730Y-91075
X134730Y-92345
X134730Y-93615
X134730Y-94885
X134730Y-96155
X134730Y-97425
X134730Y-102575
X134730Y-103845
X134730Y-105115
X134730Y-106385
X134730Y-107655
X134730Y-108925
X134730Y-110195
X134730Y-111465
X134730Y-112735
X134730Y-114005
X134730Y-115275
X134730Y-116545
X136000Y-83455
X136000Y-84725
X136000Y-85995
X136000Y-87265
X136000Y-88535
X136000Y-89805
X136000Y-91075
X136000Y-92345
X136000Y-93615
X136000Y-94885
X136000Y-96155
X136000Y-97425
X136000Y-102575
X136000Y-103845
X136000Y-105115
X136000Y-106385
X136000Y-107655
X136000Y-108925
X136000Y-110195
X136000Y-111465
X136000Y-112735
X136000Y-114005
X136000Y-115275
X136000Y-116545
X137270Y-83455
X137270Y-84725
X137270Y-85995
X137270Y-87265
X137270Y-88535
X137270Y-89805
X137270Y-91075
X137270Y-92345
X137270Y-93615
X137270Y-94885
X137270Y-96155
X137270Y-97425
X137270Y-102575
X137270Y-103845
X137270Y-105115
X137270Y-106385
X137270Y-107655
X137270Y-108925
X137270Y-110195
X137270Y-111465
X137270Y-112735
X137270Y-114005
X137270Y-115275
X137270Y-116545
T4
X80460Y-116500
X83000Y-116500
X85540Y-116500
X115250Y-84110
X115250Y-86650
X115250Y-89190
X115250Y-94270
X115250Y-96810
X115250Y-99350
X115250Y-101890
T5
X72960Y-66960
X72960Y-69500
X75500Y-66960
X75500Y-69500
X78040Y-66960
X78040Y-69500
T6
X105340Y-117090
X105340Y-124710
X105340Y-129790
X125660Y-117090
X125660Y-127250
X125660Y-137410
T7
X65000Y-65000
X65000Y-125000
X135000Y-65000
X135000Y-125000
T8
X67635Y-136265
X80335Y-136265
T0
M30
