M48
METRIC,TZ
T1C0.300
T2C1.016
%
G90
G05
T1
X126000Y-103500
X126000Y-105000
X126250Y-102500
X127500Y-112000
X128500Y-91750
X128500Y-105500
X129000Y-85000
X129000Y-112750
X129500Y-126500
X130000Y-110500
X131000Y-126500
X131750Y-88750
X132000Y-126500
X132750Y-95250
X132750Y-105250
X132750Y-106250
X133250Y-114750
X133500Y-126500
X134000Y-109000
X134000Y-110500
X134500Y-99000
X134500Y-117000
X134500Y-126500
X135500Y-117000
X135500Y-119500
X136000Y-88000
X136000Y-126000
X136373Y-117025
X137500Y-126000
X138500Y-125500
X138500Y-129000
X139000Y-86800
X140000Y-126000
X140500Y-121400
X140850Y-111500
X141000Y-116500
X142500Y-121000
X142500Y-126125
X142875Y-115928
X143000Y-125500
X143500Y-116500
X143500Y-120000
X143562Y-83484
X144000Y-90121
X144090Y-126625
X144183Y-106808
X144250Y-81750
X144692Y-116192
X145375Y-106500
X145500Y-96500
X145652Y-125375
X145750Y-81750
X146000Y-116000
X146375Y-106000
X146500Y-85000
X146500Y-125375
X146750Y-84240
X146934Y-102934
X147000Y-116000
X147500Y-105500
X147500Y-103500
X148000Y-125375
X148500Y-116000
X148500Y-84500
X148700Y-90706
X149000Y-95000
X149008Y-85958
X149975Y-91500
X150000Y-94750
X150000Y-97500
X150000Y-103500
X150000Y-116000
X150000Y-125375
X150125Y-104500
X150775Y-90500
X150885Y-85200
X151000Y-116000
X151000Y-124000
X151500Y-102750
X152000Y-116000
X152176Y-95746
X152500Y-103500
X152933Y-98683
X153000Y-117000
X153000Y-118500
X153500Y-103500
X154500Y-103500
X156000Y-120000
X156067Y-99567
X156750Y-85800
X156793Y-99230
X157000Y-120000
X157250Y-82000
X158000Y-84829
X158500Y-120000
X159500Y-120000
X160375Y-93795
X160925Y-104500
X161148Y-99782
X165000Y-123000
X165500Y-95500
X165500Y-96450
X165500Y-97250
X166140Y-125735
X169250Y-108750
T2
X124371Y-80874
X124371Y-83414
X124371Y-85954
X124371Y-88494
X124371Y-91034
X124371Y-93574
X124371Y-96114
X124371Y-98654
X124371Y-101194
X124371Y-103734
X124371Y-106274
X124371Y-108814
X124371Y-111354
X124371Y-113894
X124371Y-116434
X124371Y-118974
X124371Y-121514
X124371Y-124054
X124371Y-126594
X124371Y-129134
X129000Y-87500
X132080Y-81280
X132080Y-83820
X134620Y-81280
X134620Y-83820
X137160Y-81280
X137160Y-83820
X139700Y-81280
X139700Y-83820
X142240Y-81280
X142240Y-83820
X149860Y-81280
X152400Y-81280
X160020Y-81280
X160020Y-83820
X162560Y-81280
X162560Y-83820
X165100Y-81280
X165100Y-83820
X172631Y-80874
X172631Y-83414
X172631Y-85954
X172631Y-88494
X172631Y-91034
X172631Y-93574
X172631Y-96114
X172631Y-98654
X172631Y-101194
X172631Y-103734
X172631Y-106274
X172631Y-108814
X172631Y-111354
X172631Y-113894
X172631Y-116434
X172631Y-118974
X172631Y-121514
X172631Y-124054
X172631Y-126594
X172631Y-129134
T0
M30
