G04 #@! TF.FileFunction,Soldermask,Bot*
%FSLAX46Y46*%
G04 Gerber Fmt 4.6, Leading zero omitted, Abs format (unit mm)*
G04 Created by KiCad (PCBNEW 4.0.6+dfsg1-1) date Mon Aug 28 12:32:08 2017*
%MOMM*%
%LPD*%
G01*
G04 APERTURE LIST*
%ADD10C,0.100000*%
G04 APERTURE END LIST*
D10*
G36*
X81038272Y-127350430D02*
X81163139Y-127376061D01*
X81280652Y-127425459D01*
X81386332Y-127496741D01*
X81476156Y-127587194D01*
X81546695Y-127693364D01*
X81595271Y-127811218D01*
X81619928Y-127935744D01*
X81619928Y-127935758D01*
X81620028Y-127936264D01*
X81617995Y-128081861D01*
X81617880Y-128082366D01*
X81617880Y-128082379D01*
X81589757Y-128206165D01*
X81537910Y-128322615D01*
X81464428Y-128426783D01*
X81372120Y-128514686D01*
X81283677Y-128570814D01*
X81267626Y-128584517D01*
X81256028Y-128602149D01*
X81249802Y-128622315D01*
X81249440Y-128643416D01*
X81254971Y-128663783D01*
X81265957Y-128681802D01*
X81281924Y-128696317D01*
X81386332Y-128766741D01*
X81476156Y-128857194D01*
X81546695Y-128963364D01*
X81595271Y-129081218D01*
X81619928Y-129205744D01*
X81619928Y-129205758D01*
X81620028Y-129206264D01*
X81617995Y-129351861D01*
X81617880Y-129352366D01*
X81617880Y-129352379D01*
X81589757Y-129476165D01*
X81537910Y-129592615D01*
X81464428Y-129696783D01*
X81372117Y-129784689D01*
X81264491Y-129852991D01*
X81145647Y-129899088D01*
X81020109Y-129921223D01*
X80892660Y-129918553D01*
X80768167Y-129891181D01*
X80651354Y-129840148D01*
X80546683Y-129767400D01*
X80458133Y-129675703D01*
X80398895Y-129583783D01*
X80385080Y-129567828D01*
X80367367Y-129556354D01*
X80347159Y-129550268D01*
X80326056Y-129550053D01*
X80305728Y-129555726D01*
X80287786Y-129566838D01*
X80273649Y-129582508D01*
X80268562Y-129591692D01*
X80194428Y-129696783D01*
X80102117Y-129784689D01*
X79994491Y-129852991D01*
X79875647Y-129899088D01*
X79750109Y-129921223D01*
X79622660Y-129918553D01*
X79498167Y-129891181D01*
X79381354Y-129840148D01*
X79276683Y-129767400D01*
X79188133Y-129675703D01*
X79128895Y-129583783D01*
X79115080Y-129567828D01*
X79097367Y-129556354D01*
X79077159Y-129550268D01*
X79056056Y-129550053D01*
X79035728Y-129555726D01*
X79017786Y-129566838D01*
X79003649Y-129582508D01*
X78998562Y-129591692D01*
X78924428Y-129696783D01*
X78832117Y-129784689D01*
X78724491Y-129852991D01*
X78605647Y-129899088D01*
X78480109Y-129921223D01*
X78352660Y-129918553D01*
X78228167Y-129891181D01*
X78111354Y-129840148D01*
X78006683Y-129767400D01*
X77918133Y-129675703D01*
X77858895Y-129583783D01*
X77845080Y-129567828D01*
X77827367Y-129556354D01*
X77807159Y-129550268D01*
X77786056Y-129550053D01*
X77765728Y-129555726D01*
X77747786Y-129566838D01*
X77733649Y-129582508D01*
X77728562Y-129591692D01*
X77654428Y-129696783D01*
X77562117Y-129784689D01*
X77454491Y-129852991D01*
X77335647Y-129899088D01*
X77210109Y-129921223D01*
X77082660Y-129918553D01*
X76958167Y-129891181D01*
X76841354Y-129840148D01*
X76736683Y-129767400D01*
X76648133Y-129675703D01*
X76588895Y-129583783D01*
X76575080Y-129567828D01*
X76557367Y-129556354D01*
X76537159Y-129550268D01*
X76516056Y-129550053D01*
X76495728Y-129555726D01*
X76477786Y-129566838D01*
X76463649Y-129582508D01*
X76458562Y-129591692D01*
X76384428Y-129696783D01*
X76292117Y-129784689D01*
X76184491Y-129852991D01*
X76065647Y-129899088D01*
X75940109Y-129921223D01*
X75812660Y-129918553D01*
X75688167Y-129891181D01*
X75571354Y-129840148D01*
X75466683Y-129767400D01*
X75378133Y-129675703D01*
X75318895Y-129583783D01*
X75305080Y-129567828D01*
X75287367Y-129556354D01*
X75267159Y-129550268D01*
X75246056Y-129550053D01*
X75225728Y-129555726D01*
X75207786Y-129566838D01*
X75193649Y-129582508D01*
X75188562Y-129591692D01*
X75114428Y-129696783D01*
X75022117Y-129784689D01*
X74914491Y-129852991D01*
X74795647Y-129899088D01*
X74670109Y-129921223D01*
X74542660Y-129918553D01*
X74418167Y-129891181D01*
X74301354Y-129840148D01*
X74196683Y-129767400D01*
X74108133Y-129675703D01*
X74048895Y-129583783D01*
X74035080Y-129567828D01*
X74017367Y-129556354D01*
X73997159Y-129550268D01*
X73976056Y-129550053D01*
X73955728Y-129555726D01*
X73937786Y-129566838D01*
X73923649Y-129582508D01*
X73918562Y-129591692D01*
X73844428Y-129696783D01*
X73752117Y-129784689D01*
X73644491Y-129852991D01*
X73525647Y-129899088D01*
X73400109Y-129921223D01*
X73272660Y-129918553D01*
X73148167Y-129891181D01*
X73031354Y-129840148D01*
X72926683Y-129767400D01*
X72838133Y-129675703D01*
X72778895Y-129583783D01*
X72765080Y-129567828D01*
X72747367Y-129556354D01*
X72727159Y-129550268D01*
X72706056Y-129550053D01*
X72685728Y-129555726D01*
X72667786Y-129566838D01*
X72653649Y-129582508D01*
X72648562Y-129591692D01*
X72574428Y-129696783D01*
X72482117Y-129784689D01*
X72374491Y-129852991D01*
X72255647Y-129899088D01*
X72130109Y-129921223D01*
X72002660Y-129918553D01*
X71878167Y-129891181D01*
X71761354Y-129840148D01*
X71656683Y-129767400D01*
X71568133Y-129675703D01*
X71508895Y-129583783D01*
X71495080Y-129567828D01*
X71477367Y-129556354D01*
X71457159Y-129550268D01*
X71436056Y-129550053D01*
X71415728Y-129555726D01*
X71397786Y-129566838D01*
X71383649Y-129582508D01*
X71378562Y-129591692D01*
X71304428Y-129696783D01*
X71212117Y-129784689D01*
X71104491Y-129852991D01*
X70985647Y-129899088D01*
X70860109Y-129921223D01*
X70732660Y-129918553D01*
X70608167Y-129891181D01*
X70491354Y-129840148D01*
X70386683Y-129767400D01*
X70298133Y-129675703D01*
X70238895Y-129583783D01*
X70225080Y-129567828D01*
X70207367Y-129556354D01*
X70187159Y-129550268D01*
X70166056Y-129550053D01*
X70145728Y-129555726D01*
X70127786Y-129566838D01*
X70113649Y-129582508D01*
X70108562Y-129591692D01*
X70034428Y-129696783D01*
X69942117Y-129784689D01*
X69834491Y-129852991D01*
X69715647Y-129899088D01*
X69590109Y-129921223D01*
X69462660Y-129918553D01*
X69338167Y-129891181D01*
X69221354Y-129840148D01*
X69116683Y-129767400D01*
X69028133Y-129675703D01*
X68968895Y-129583783D01*
X68955080Y-129567828D01*
X68937367Y-129556354D01*
X68917159Y-129550268D01*
X68896056Y-129550053D01*
X68875728Y-129555726D01*
X68857786Y-129566838D01*
X68843649Y-129582508D01*
X68838562Y-129591692D01*
X68764428Y-129696783D01*
X68672117Y-129784689D01*
X68564491Y-129852991D01*
X68445647Y-129899088D01*
X68320109Y-129921223D01*
X68192660Y-129918553D01*
X68068167Y-129891181D01*
X67951354Y-129840148D01*
X67846683Y-129767400D01*
X67758133Y-129675703D01*
X67698895Y-129583783D01*
X67685080Y-129567828D01*
X67667367Y-129556354D01*
X67647159Y-129550268D01*
X67626056Y-129550053D01*
X67605728Y-129555726D01*
X67587786Y-129566838D01*
X67573649Y-129582508D01*
X67568562Y-129591692D01*
X67494428Y-129696783D01*
X67402117Y-129784689D01*
X67294491Y-129852991D01*
X67175647Y-129899088D01*
X67050109Y-129921223D01*
X66922660Y-129918553D01*
X66798167Y-129891181D01*
X66681354Y-129840148D01*
X66576683Y-129767400D01*
X66488133Y-129675703D01*
X66419077Y-129568549D01*
X66372154Y-129450034D01*
X66349143Y-129324655D01*
X66350922Y-129197192D01*
X66377425Y-129072508D01*
X66427642Y-128955344D01*
X66499658Y-128850166D01*
X66590738Y-128760974D01*
X66685816Y-128698757D01*
X66701674Y-128684832D01*
X66713025Y-128667040D01*
X66718969Y-128646790D01*
X66718979Y-128643416D01*
X67279440Y-128643416D01*
X67284971Y-128663783D01*
X67295957Y-128681802D01*
X67311924Y-128696317D01*
X67416332Y-128766741D01*
X67506154Y-128857192D01*
X67572021Y-128956330D01*
X67586057Y-128972090D01*
X67603928Y-128983316D01*
X67624219Y-128989118D01*
X67645324Y-128989038D01*
X67665570Y-128983082D01*
X67683355Y-128971721D01*
X67696374Y-128957197D01*
X67769658Y-128850166D01*
X67860738Y-128760974D01*
X67955816Y-128698757D01*
X67971674Y-128684832D01*
X67983025Y-128667040D01*
X67988969Y-128646790D01*
X67988979Y-128643416D01*
X68549440Y-128643416D01*
X68554971Y-128663783D01*
X68565957Y-128681802D01*
X68581924Y-128696317D01*
X68686332Y-128766741D01*
X68776154Y-128857192D01*
X68842021Y-128956330D01*
X68856057Y-128972090D01*
X68873928Y-128983316D01*
X68894219Y-128989118D01*
X68915324Y-128989038D01*
X68935570Y-128983082D01*
X68953355Y-128971721D01*
X68966374Y-128957197D01*
X69039658Y-128850166D01*
X69130738Y-128760974D01*
X69225816Y-128698757D01*
X69241674Y-128684832D01*
X69253025Y-128667040D01*
X69258969Y-128646790D01*
X69258979Y-128643416D01*
X69819440Y-128643416D01*
X69824971Y-128663783D01*
X69835957Y-128681802D01*
X69851924Y-128696317D01*
X69956332Y-128766741D01*
X70046154Y-128857192D01*
X70112021Y-128956330D01*
X70126057Y-128972090D01*
X70143928Y-128983316D01*
X70164219Y-128989118D01*
X70185324Y-128989038D01*
X70205570Y-128983082D01*
X70223355Y-128971721D01*
X70236374Y-128957197D01*
X70309658Y-128850166D01*
X70400738Y-128760974D01*
X70495816Y-128698757D01*
X70511674Y-128684832D01*
X70523025Y-128667040D01*
X70528969Y-128646790D01*
X70528979Y-128643416D01*
X71089440Y-128643416D01*
X71094971Y-128663783D01*
X71105957Y-128681802D01*
X71121924Y-128696317D01*
X71226332Y-128766741D01*
X71316154Y-128857192D01*
X71382021Y-128956330D01*
X71396057Y-128972090D01*
X71413928Y-128983316D01*
X71434219Y-128989118D01*
X71455324Y-128989038D01*
X71475570Y-128983082D01*
X71493355Y-128971721D01*
X71506374Y-128957197D01*
X71579658Y-128850166D01*
X71670738Y-128760974D01*
X71765816Y-128698757D01*
X71781674Y-128684832D01*
X71793025Y-128667040D01*
X71798969Y-128646790D01*
X71798979Y-128643416D01*
X72359440Y-128643416D01*
X72364971Y-128663783D01*
X72375957Y-128681802D01*
X72391924Y-128696317D01*
X72496332Y-128766741D01*
X72586154Y-128857192D01*
X72652021Y-128956330D01*
X72666057Y-128972090D01*
X72683928Y-128983316D01*
X72704219Y-128989118D01*
X72725324Y-128989038D01*
X72745570Y-128983082D01*
X72763355Y-128971721D01*
X72776374Y-128957197D01*
X72849658Y-128850166D01*
X72940738Y-128760974D01*
X73035816Y-128698757D01*
X73051674Y-128684832D01*
X73063025Y-128667040D01*
X73068969Y-128646790D01*
X73068979Y-128643416D01*
X73629440Y-128643416D01*
X73634971Y-128663783D01*
X73645957Y-128681802D01*
X73661924Y-128696317D01*
X73766332Y-128766741D01*
X73856154Y-128857192D01*
X73922021Y-128956330D01*
X73936057Y-128972090D01*
X73953928Y-128983316D01*
X73974219Y-128989118D01*
X73995324Y-128989038D01*
X74015570Y-128983082D01*
X74033355Y-128971721D01*
X74046374Y-128957197D01*
X74119658Y-128850166D01*
X74210738Y-128760974D01*
X74305816Y-128698757D01*
X74321674Y-128684832D01*
X74333025Y-128667040D01*
X74338969Y-128646790D01*
X74338979Y-128643416D01*
X74899440Y-128643416D01*
X74904971Y-128663783D01*
X74915957Y-128681802D01*
X74931924Y-128696317D01*
X75036332Y-128766741D01*
X75126154Y-128857192D01*
X75192021Y-128956330D01*
X75206057Y-128972090D01*
X75223928Y-128983316D01*
X75244219Y-128989118D01*
X75265324Y-128989038D01*
X75285570Y-128983082D01*
X75303355Y-128971721D01*
X75316374Y-128957197D01*
X75389658Y-128850166D01*
X75480738Y-128760974D01*
X75575816Y-128698757D01*
X75591674Y-128684832D01*
X75603025Y-128667040D01*
X75608969Y-128646790D01*
X75608979Y-128643416D01*
X76169440Y-128643416D01*
X76174971Y-128663783D01*
X76185957Y-128681802D01*
X76201924Y-128696317D01*
X76306332Y-128766741D01*
X76396154Y-128857192D01*
X76462021Y-128956330D01*
X76476057Y-128972090D01*
X76493928Y-128983316D01*
X76514219Y-128989118D01*
X76535324Y-128989038D01*
X76555570Y-128983082D01*
X76573355Y-128971721D01*
X76586374Y-128957197D01*
X76659658Y-128850166D01*
X76750738Y-128760974D01*
X76845816Y-128698757D01*
X76861674Y-128684832D01*
X76873025Y-128667040D01*
X76878969Y-128646790D01*
X76878979Y-128643416D01*
X77439440Y-128643416D01*
X77444971Y-128663783D01*
X77455957Y-128681802D01*
X77471924Y-128696317D01*
X77576332Y-128766741D01*
X77666154Y-128857192D01*
X77732021Y-128956330D01*
X77746057Y-128972090D01*
X77763928Y-128983316D01*
X77784219Y-128989118D01*
X77805324Y-128989038D01*
X77825570Y-128983082D01*
X77843355Y-128971721D01*
X77856374Y-128957197D01*
X77929658Y-128850166D01*
X78020738Y-128760974D01*
X78115816Y-128698757D01*
X78131674Y-128684832D01*
X78143025Y-128667040D01*
X78148969Y-128646790D01*
X78148979Y-128643416D01*
X78709440Y-128643416D01*
X78714971Y-128663783D01*
X78725957Y-128681802D01*
X78741924Y-128696317D01*
X78846332Y-128766741D01*
X78936154Y-128857192D01*
X79002021Y-128956330D01*
X79016057Y-128972090D01*
X79033928Y-128983316D01*
X79054219Y-128989118D01*
X79075324Y-128989038D01*
X79095570Y-128983082D01*
X79113355Y-128971721D01*
X79126374Y-128957197D01*
X79199658Y-128850166D01*
X79290738Y-128760974D01*
X79385816Y-128698757D01*
X79401674Y-128684832D01*
X79413025Y-128667040D01*
X79418969Y-128646790D01*
X79418979Y-128643416D01*
X79979440Y-128643416D01*
X79984971Y-128663783D01*
X79995957Y-128681802D01*
X80011924Y-128696317D01*
X80116332Y-128766741D01*
X80206154Y-128857192D01*
X80272021Y-128956330D01*
X80286057Y-128972090D01*
X80303928Y-128983316D01*
X80324219Y-128989118D01*
X80345324Y-128989038D01*
X80365570Y-128983082D01*
X80383355Y-128971721D01*
X80396374Y-128957197D01*
X80469658Y-128850166D01*
X80560738Y-128760974D01*
X80655816Y-128698757D01*
X80671674Y-128684832D01*
X80683025Y-128667040D01*
X80688969Y-128646790D01*
X80689036Y-128625685D01*
X80683222Y-128605398D01*
X80671985Y-128587533D01*
X80657304Y-128574473D01*
X80657393Y-128574345D01*
X80656328Y-128573605D01*
X80656217Y-128573506D01*
X80656074Y-128573429D01*
X80546683Y-128497400D01*
X80458133Y-128405703D01*
X80398895Y-128313783D01*
X80385080Y-128297828D01*
X80367367Y-128286354D01*
X80347159Y-128280268D01*
X80326056Y-128280053D01*
X80305728Y-128285726D01*
X80287786Y-128296838D01*
X80273649Y-128312508D01*
X80268562Y-128321692D01*
X80194428Y-128426783D01*
X80102120Y-128514686D01*
X80013677Y-128570814D01*
X79997626Y-128584517D01*
X79986028Y-128602149D01*
X79979802Y-128622315D01*
X79979440Y-128643416D01*
X79418979Y-128643416D01*
X79419036Y-128625685D01*
X79413222Y-128605398D01*
X79401985Y-128587533D01*
X79387304Y-128574473D01*
X79387393Y-128574345D01*
X79386328Y-128573605D01*
X79386217Y-128573506D01*
X79386074Y-128573429D01*
X79276683Y-128497400D01*
X79188133Y-128405703D01*
X79128895Y-128313783D01*
X79115080Y-128297828D01*
X79097367Y-128286354D01*
X79077159Y-128280268D01*
X79056056Y-128280053D01*
X79035728Y-128285726D01*
X79017786Y-128296838D01*
X79003649Y-128312508D01*
X78998562Y-128321692D01*
X78924428Y-128426783D01*
X78832120Y-128514686D01*
X78743677Y-128570814D01*
X78727626Y-128584517D01*
X78716028Y-128602149D01*
X78709802Y-128622315D01*
X78709440Y-128643416D01*
X78148979Y-128643416D01*
X78149036Y-128625685D01*
X78143222Y-128605398D01*
X78131985Y-128587533D01*
X78117304Y-128574473D01*
X78117393Y-128574345D01*
X78116328Y-128573605D01*
X78116217Y-128573506D01*
X78116074Y-128573429D01*
X78006683Y-128497400D01*
X77918133Y-128405703D01*
X77858895Y-128313783D01*
X77845080Y-128297828D01*
X77827367Y-128286354D01*
X77807159Y-128280268D01*
X77786056Y-128280053D01*
X77765728Y-128285726D01*
X77747786Y-128296838D01*
X77733649Y-128312508D01*
X77728562Y-128321692D01*
X77654428Y-128426783D01*
X77562120Y-128514686D01*
X77473677Y-128570814D01*
X77457626Y-128584517D01*
X77446028Y-128602149D01*
X77439802Y-128622315D01*
X77439440Y-128643416D01*
X76878979Y-128643416D01*
X76879036Y-128625685D01*
X76873222Y-128605398D01*
X76861985Y-128587533D01*
X76847304Y-128574473D01*
X76847393Y-128574345D01*
X76846328Y-128573605D01*
X76846217Y-128573506D01*
X76846074Y-128573429D01*
X76736683Y-128497400D01*
X76648133Y-128405703D01*
X76588895Y-128313783D01*
X76575080Y-128297828D01*
X76557367Y-128286354D01*
X76537159Y-128280268D01*
X76516056Y-128280053D01*
X76495728Y-128285726D01*
X76477786Y-128296838D01*
X76463649Y-128312508D01*
X76458562Y-128321692D01*
X76384428Y-128426783D01*
X76292120Y-128514686D01*
X76203677Y-128570814D01*
X76187626Y-128584517D01*
X76176028Y-128602149D01*
X76169802Y-128622315D01*
X76169440Y-128643416D01*
X75608979Y-128643416D01*
X75609036Y-128625685D01*
X75603222Y-128605398D01*
X75591985Y-128587533D01*
X75577304Y-128574473D01*
X75577393Y-128574345D01*
X75576328Y-128573605D01*
X75576217Y-128573506D01*
X75576074Y-128573429D01*
X75466683Y-128497400D01*
X75378133Y-128405703D01*
X75318895Y-128313783D01*
X75305080Y-128297828D01*
X75287367Y-128286354D01*
X75267159Y-128280268D01*
X75246056Y-128280053D01*
X75225728Y-128285726D01*
X75207786Y-128296838D01*
X75193649Y-128312508D01*
X75188562Y-128321692D01*
X75114428Y-128426783D01*
X75022120Y-128514686D01*
X74933677Y-128570814D01*
X74917626Y-128584517D01*
X74906028Y-128602149D01*
X74899802Y-128622315D01*
X74899440Y-128643416D01*
X74338979Y-128643416D01*
X74339036Y-128625685D01*
X74333222Y-128605398D01*
X74321985Y-128587533D01*
X74307304Y-128574473D01*
X74307393Y-128574345D01*
X74306328Y-128573605D01*
X74306217Y-128573506D01*
X74306074Y-128573429D01*
X74196683Y-128497400D01*
X74108133Y-128405703D01*
X74048895Y-128313783D01*
X74035080Y-128297828D01*
X74017367Y-128286354D01*
X73997159Y-128280268D01*
X73976056Y-128280053D01*
X73955728Y-128285726D01*
X73937786Y-128296838D01*
X73923649Y-128312508D01*
X73918562Y-128321692D01*
X73844428Y-128426783D01*
X73752120Y-128514686D01*
X73663677Y-128570814D01*
X73647626Y-128584517D01*
X73636028Y-128602149D01*
X73629802Y-128622315D01*
X73629440Y-128643416D01*
X73068979Y-128643416D01*
X73069036Y-128625685D01*
X73063222Y-128605398D01*
X73051985Y-128587533D01*
X73037304Y-128574473D01*
X73037393Y-128574345D01*
X73036328Y-128573605D01*
X73036217Y-128573506D01*
X73036074Y-128573429D01*
X72926683Y-128497400D01*
X72838133Y-128405703D01*
X72778895Y-128313783D01*
X72765080Y-128297828D01*
X72747367Y-128286354D01*
X72727159Y-128280268D01*
X72706056Y-128280053D01*
X72685728Y-128285726D01*
X72667786Y-128296838D01*
X72653649Y-128312508D01*
X72648562Y-128321692D01*
X72574428Y-128426783D01*
X72482120Y-128514686D01*
X72393677Y-128570814D01*
X72377626Y-128584517D01*
X72366028Y-128602149D01*
X72359802Y-128622315D01*
X72359440Y-128643416D01*
X71798979Y-128643416D01*
X71799036Y-128625685D01*
X71793222Y-128605398D01*
X71781985Y-128587533D01*
X71767304Y-128574473D01*
X71767393Y-128574345D01*
X71766328Y-128573605D01*
X71766217Y-128573506D01*
X71766074Y-128573429D01*
X71656683Y-128497400D01*
X71568133Y-128405703D01*
X71508895Y-128313783D01*
X71495080Y-128297828D01*
X71477367Y-128286354D01*
X71457159Y-128280268D01*
X71436056Y-128280053D01*
X71415728Y-128285726D01*
X71397786Y-128296838D01*
X71383649Y-128312508D01*
X71378562Y-128321692D01*
X71304428Y-128426783D01*
X71212120Y-128514686D01*
X71123677Y-128570814D01*
X71107626Y-128584517D01*
X71096028Y-128602149D01*
X71089802Y-128622315D01*
X71089440Y-128643416D01*
X70528979Y-128643416D01*
X70529036Y-128625685D01*
X70523222Y-128605398D01*
X70511985Y-128587533D01*
X70497304Y-128574473D01*
X70497393Y-128574345D01*
X70496328Y-128573605D01*
X70496217Y-128573506D01*
X70496074Y-128573429D01*
X70386683Y-128497400D01*
X70298133Y-128405703D01*
X70238895Y-128313783D01*
X70225080Y-128297828D01*
X70207367Y-128286354D01*
X70187159Y-128280268D01*
X70166056Y-128280053D01*
X70145728Y-128285726D01*
X70127786Y-128296838D01*
X70113649Y-128312508D01*
X70108562Y-128321692D01*
X70034428Y-128426783D01*
X69942120Y-128514686D01*
X69853677Y-128570814D01*
X69837626Y-128584517D01*
X69826028Y-128602149D01*
X69819802Y-128622315D01*
X69819440Y-128643416D01*
X69258979Y-128643416D01*
X69259036Y-128625685D01*
X69253222Y-128605398D01*
X69241985Y-128587533D01*
X69227304Y-128574473D01*
X69227393Y-128574345D01*
X69226328Y-128573605D01*
X69226217Y-128573506D01*
X69226074Y-128573429D01*
X69116683Y-128497400D01*
X69028133Y-128405703D01*
X68968895Y-128313783D01*
X68955080Y-128297828D01*
X68937367Y-128286354D01*
X68917159Y-128280268D01*
X68896056Y-128280053D01*
X68875728Y-128285726D01*
X68857786Y-128296838D01*
X68843649Y-128312508D01*
X68838562Y-128321692D01*
X68764428Y-128426783D01*
X68672120Y-128514686D01*
X68583677Y-128570814D01*
X68567626Y-128584517D01*
X68556028Y-128602149D01*
X68549802Y-128622315D01*
X68549440Y-128643416D01*
X67988979Y-128643416D01*
X67989036Y-128625685D01*
X67983222Y-128605398D01*
X67971985Y-128587533D01*
X67957304Y-128574473D01*
X67957393Y-128574345D01*
X67956328Y-128573605D01*
X67956217Y-128573506D01*
X67956074Y-128573429D01*
X67846683Y-128497400D01*
X67758133Y-128405703D01*
X67698895Y-128313783D01*
X67685080Y-128297828D01*
X67667367Y-128286354D01*
X67647159Y-128280268D01*
X67626056Y-128280053D01*
X67605728Y-128285726D01*
X67587786Y-128296838D01*
X67573649Y-128312508D01*
X67568562Y-128321692D01*
X67494428Y-128426783D01*
X67402120Y-128514686D01*
X67313677Y-128570814D01*
X67297626Y-128584517D01*
X67286028Y-128602149D01*
X67279802Y-128622315D01*
X67279440Y-128643416D01*
X66718979Y-128643416D01*
X66719036Y-128625685D01*
X66713222Y-128605398D01*
X66701985Y-128587533D01*
X66687304Y-128574473D01*
X66687393Y-128574345D01*
X66686328Y-128573605D01*
X66686217Y-128573506D01*
X66686074Y-128573429D01*
X66576683Y-128497400D01*
X66488133Y-128405703D01*
X66419077Y-128298549D01*
X66372154Y-128180034D01*
X66349143Y-128054655D01*
X66350922Y-127927192D01*
X66377425Y-127802508D01*
X66427642Y-127685344D01*
X66499658Y-127580166D01*
X66590738Y-127490974D01*
X66697395Y-127421180D01*
X66815589Y-127373426D01*
X66940807Y-127349539D01*
X67068272Y-127350430D01*
X67193139Y-127376061D01*
X67310652Y-127425459D01*
X67416332Y-127496741D01*
X67506154Y-127587192D01*
X67572021Y-127686330D01*
X67586057Y-127702090D01*
X67603928Y-127713316D01*
X67624219Y-127719118D01*
X67645324Y-127719038D01*
X67665570Y-127713082D01*
X67683355Y-127701721D01*
X67696374Y-127687197D01*
X67769658Y-127580166D01*
X67860738Y-127490974D01*
X67967395Y-127421180D01*
X68085589Y-127373426D01*
X68210807Y-127349539D01*
X68338272Y-127350430D01*
X68463139Y-127376061D01*
X68580652Y-127425459D01*
X68686332Y-127496741D01*
X68776154Y-127587192D01*
X68842021Y-127686330D01*
X68856057Y-127702090D01*
X68873928Y-127713316D01*
X68894219Y-127719118D01*
X68915324Y-127719038D01*
X68935570Y-127713082D01*
X68953355Y-127701721D01*
X68966374Y-127687197D01*
X69039658Y-127580166D01*
X69130738Y-127490974D01*
X69237395Y-127421180D01*
X69355589Y-127373426D01*
X69480807Y-127349539D01*
X69608272Y-127350430D01*
X69733139Y-127376061D01*
X69850652Y-127425459D01*
X69956332Y-127496741D01*
X70046154Y-127587192D01*
X70112021Y-127686330D01*
X70126057Y-127702090D01*
X70143928Y-127713316D01*
X70164219Y-127719118D01*
X70185324Y-127719038D01*
X70205570Y-127713082D01*
X70223355Y-127701721D01*
X70236374Y-127687197D01*
X70309658Y-127580166D01*
X70400738Y-127490974D01*
X70507395Y-127421180D01*
X70625589Y-127373426D01*
X70750807Y-127349539D01*
X70878272Y-127350430D01*
X71003139Y-127376061D01*
X71120652Y-127425459D01*
X71226332Y-127496741D01*
X71316154Y-127587192D01*
X71382021Y-127686330D01*
X71396057Y-127702090D01*
X71413928Y-127713316D01*
X71434219Y-127719118D01*
X71455324Y-127719038D01*
X71475570Y-127713082D01*
X71493355Y-127701721D01*
X71506374Y-127687197D01*
X71579658Y-127580166D01*
X71670738Y-127490974D01*
X71777395Y-127421180D01*
X71895589Y-127373426D01*
X72020807Y-127349539D01*
X72148272Y-127350430D01*
X72273139Y-127376061D01*
X72390652Y-127425459D01*
X72496332Y-127496741D01*
X72586154Y-127587192D01*
X72652021Y-127686330D01*
X72666057Y-127702090D01*
X72683928Y-127713316D01*
X72704219Y-127719118D01*
X72725324Y-127719038D01*
X72745570Y-127713082D01*
X72763355Y-127701721D01*
X72776374Y-127687197D01*
X72849658Y-127580166D01*
X72940738Y-127490974D01*
X73047395Y-127421180D01*
X73165589Y-127373426D01*
X73290807Y-127349539D01*
X73418272Y-127350430D01*
X73543139Y-127376061D01*
X73660652Y-127425459D01*
X73766332Y-127496741D01*
X73856154Y-127587192D01*
X73922021Y-127686330D01*
X73936057Y-127702090D01*
X73953928Y-127713316D01*
X73974219Y-127719118D01*
X73995324Y-127719038D01*
X74015570Y-127713082D01*
X74033355Y-127701721D01*
X74046374Y-127687197D01*
X74119658Y-127580166D01*
X74210738Y-127490974D01*
X74317395Y-127421180D01*
X74435589Y-127373426D01*
X74560807Y-127349539D01*
X74688272Y-127350430D01*
X74813139Y-127376061D01*
X74930652Y-127425459D01*
X75036332Y-127496741D01*
X75126154Y-127587192D01*
X75192021Y-127686330D01*
X75206057Y-127702090D01*
X75223928Y-127713316D01*
X75244219Y-127719118D01*
X75265324Y-127719038D01*
X75285570Y-127713082D01*
X75303355Y-127701721D01*
X75316374Y-127687197D01*
X75389658Y-127580166D01*
X75480738Y-127490974D01*
X75587395Y-127421180D01*
X75705589Y-127373426D01*
X75830807Y-127349539D01*
X75958272Y-127350430D01*
X76083139Y-127376061D01*
X76200652Y-127425459D01*
X76306332Y-127496741D01*
X76396154Y-127587192D01*
X76462021Y-127686330D01*
X76476057Y-127702090D01*
X76493928Y-127713316D01*
X76514219Y-127719118D01*
X76535324Y-127719038D01*
X76555570Y-127713082D01*
X76573355Y-127701721D01*
X76586374Y-127687197D01*
X76659658Y-127580166D01*
X76750738Y-127490974D01*
X76857395Y-127421180D01*
X76975589Y-127373426D01*
X77100807Y-127349539D01*
X77228272Y-127350430D01*
X77353139Y-127376061D01*
X77470652Y-127425459D01*
X77576332Y-127496741D01*
X77666154Y-127587192D01*
X77732021Y-127686330D01*
X77746057Y-127702090D01*
X77763928Y-127713316D01*
X77784219Y-127719118D01*
X77805324Y-127719038D01*
X77825570Y-127713082D01*
X77843355Y-127701721D01*
X77856374Y-127687197D01*
X77929658Y-127580166D01*
X78020738Y-127490974D01*
X78127395Y-127421180D01*
X78245589Y-127373426D01*
X78370807Y-127349539D01*
X78498272Y-127350430D01*
X78623139Y-127376061D01*
X78740652Y-127425459D01*
X78846332Y-127496741D01*
X78936154Y-127587192D01*
X79002021Y-127686330D01*
X79016057Y-127702090D01*
X79033928Y-127713316D01*
X79054219Y-127719118D01*
X79075324Y-127719038D01*
X79095570Y-127713082D01*
X79113355Y-127701721D01*
X79126374Y-127687197D01*
X79199658Y-127580166D01*
X79290738Y-127490974D01*
X79397395Y-127421180D01*
X79515589Y-127373426D01*
X79640807Y-127349539D01*
X79768272Y-127350430D01*
X79893139Y-127376061D01*
X80010652Y-127425459D01*
X80116332Y-127496741D01*
X80206154Y-127587192D01*
X80272021Y-127686330D01*
X80286057Y-127702090D01*
X80303928Y-127713316D01*
X80324219Y-127719118D01*
X80345324Y-127719038D01*
X80365570Y-127713082D01*
X80383355Y-127701721D01*
X80396374Y-127687197D01*
X80469658Y-127580166D01*
X80560738Y-127490974D01*
X80667395Y-127421180D01*
X80785589Y-127373426D01*
X80910807Y-127349539D01*
X81038272Y-127350430D01*
X81038272Y-127350430D01*
G37*
G36*
X80330857Y-116852095D02*
X80935986Y-116976310D01*
X81505467Y-117215697D01*
X82017603Y-117561138D01*
X82452891Y-117999475D01*
X82794745Y-118514007D01*
X83030149Y-119085141D01*
X83150035Y-119690608D01*
X83150035Y-119690616D01*
X83150136Y-119691127D01*
X83140283Y-120396710D01*
X83140168Y-120397215D01*
X83140168Y-120397228D01*
X83003424Y-120999106D01*
X82752164Y-121563447D01*
X82396076Y-122068233D01*
X81948718Y-122494247D01*
X81427136Y-122825253D01*
X80851201Y-123048643D01*
X80242834Y-123155915D01*
X79625218Y-123142978D01*
X79021886Y-123010327D01*
X78455807Y-122763013D01*
X77948539Y-122410453D01*
X77519422Y-121966089D01*
X77184778Y-121446823D01*
X76957373Y-120872462D01*
X76845857Y-120264862D01*
X76854482Y-119647171D01*
X76982919Y-119042926D01*
X77226274Y-118475135D01*
X77575285Y-117965417D01*
X78016646Y-117533204D01*
X78533551Y-117194951D01*
X79106320Y-116963537D01*
X79713130Y-116847782D01*
X80330857Y-116852095D01*
X80330857Y-116852095D01*
G37*
G36*
X120330857Y-116852095D02*
X120935986Y-116976310D01*
X121505467Y-117215697D01*
X122017603Y-117561138D01*
X122452891Y-117999475D01*
X122794745Y-118514007D01*
X123030149Y-119085141D01*
X123150035Y-119690608D01*
X123150035Y-119690616D01*
X123150136Y-119691127D01*
X123140283Y-120396710D01*
X123140168Y-120397215D01*
X123140168Y-120397228D01*
X123003424Y-120999106D01*
X122752164Y-121563447D01*
X122396076Y-122068233D01*
X121948718Y-122494247D01*
X121427136Y-122825253D01*
X120851201Y-123048643D01*
X120242834Y-123155915D01*
X119625218Y-123142978D01*
X119021886Y-123010327D01*
X118455807Y-122763013D01*
X117948539Y-122410453D01*
X117519422Y-121966089D01*
X117184778Y-121446823D01*
X116957373Y-120872462D01*
X116845857Y-120264862D01*
X116854482Y-119647171D01*
X116982919Y-119042926D01*
X117226274Y-118475135D01*
X117575285Y-117965417D01*
X118016646Y-117533204D01*
X118533551Y-117194951D01*
X119106320Y-116963537D01*
X119713130Y-116847782D01*
X120330857Y-116852095D01*
X120330857Y-116852095D01*
G37*
G36*
X84513600Y-111343600D02*
X82486400Y-111343600D01*
X82486400Y-109316400D01*
X84513600Y-109316400D01*
X84513600Y-111343600D01*
X84513600Y-111343600D01*
G37*
G36*
X80976007Y-109316477D02*
X80976013Y-109316478D01*
X80979056Y-109316499D01*
X81175643Y-109338550D01*
X81364204Y-109398364D01*
X81537555Y-109493665D01*
X81689094Y-109620821D01*
X81813048Y-109774990D01*
X81904698Y-109950299D01*
X81960550Y-110140070D01*
X81960555Y-110140122D01*
X81960561Y-110140143D01*
X81978482Y-110337073D01*
X81957813Y-110533738D01*
X81957807Y-110533758D01*
X81957801Y-110533813D01*
X81899304Y-110722786D01*
X81805216Y-110896798D01*
X81679121Y-111049221D01*
X81525822Y-111174249D01*
X81351157Y-111267120D01*
X81161780Y-111324296D01*
X80964904Y-111343600D01*
X80954969Y-111343600D01*
X80943993Y-111343523D01*
X80943987Y-111343522D01*
X80940944Y-111343501D01*
X80744357Y-111321450D01*
X80555796Y-111261636D01*
X80382445Y-111166335D01*
X80230906Y-111039179D01*
X80106952Y-110885010D01*
X80015302Y-110709701D01*
X79959450Y-110519930D01*
X79959445Y-110519878D01*
X79959439Y-110519857D01*
X79941518Y-110322927D01*
X79962187Y-110126262D01*
X79962193Y-110126242D01*
X79962199Y-110126187D01*
X80020696Y-109937214D01*
X80114784Y-109763202D01*
X80240879Y-109610779D01*
X80394178Y-109485751D01*
X80568843Y-109392880D01*
X80758220Y-109335704D01*
X80955096Y-109316400D01*
X80965031Y-109316400D01*
X80976007Y-109316477D01*
X80976007Y-109316477D01*
G37*
G36*
X83516007Y-106776477D02*
X83516013Y-106776478D01*
X83519056Y-106776499D01*
X83715643Y-106798550D01*
X83904204Y-106858364D01*
X84077555Y-106953665D01*
X84229094Y-107080821D01*
X84353048Y-107234990D01*
X84444698Y-107410299D01*
X84500550Y-107600070D01*
X84500555Y-107600122D01*
X84500561Y-107600143D01*
X84518482Y-107797073D01*
X84497813Y-107993738D01*
X84497807Y-107993758D01*
X84497801Y-107993813D01*
X84439304Y-108182786D01*
X84345216Y-108356798D01*
X84219121Y-108509221D01*
X84065822Y-108634249D01*
X83891157Y-108727120D01*
X83701780Y-108784296D01*
X83504904Y-108803600D01*
X83494969Y-108803600D01*
X83483993Y-108803523D01*
X83483987Y-108803522D01*
X83480944Y-108803501D01*
X83284357Y-108781450D01*
X83095796Y-108721636D01*
X82922445Y-108626335D01*
X82770906Y-108499179D01*
X82646952Y-108345010D01*
X82555302Y-108169701D01*
X82499450Y-107979930D01*
X82499445Y-107979878D01*
X82499439Y-107979857D01*
X82481518Y-107782927D01*
X82502187Y-107586262D01*
X82502193Y-107586242D01*
X82502199Y-107586187D01*
X82560696Y-107397214D01*
X82654784Y-107223202D01*
X82780879Y-107070779D01*
X82934178Y-106945751D01*
X83108843Y-106852880D01*
X83298220Y-106795704D01*
X83495096Y-106776400D01*
X83505031Y-106776400D01*
X83516007Y-106776477D01*
X83516007Y-106776477D01*
G37*
G36*
X80976007Y-106776477D02*
X80976013Y-106776478D01*
X80979056Y-106776499D01*
X81175643Y-106798550D01*
X81364204Y-106858364D01*
X81537555Y-106953665D01*
X81689094Y-107080821D01*
X81813048Y-107234990D01*
X81904698Y-107410299D01*
X81960550Y-107600070D01*
X81960555Y-107600122D01*
X81960561Y-107600143D01*
X81978482Y-107797073D01*
X81957813Y-107993738D01*
X81957807Y-107993758D01*
X81957801Y-107993813D01*
X81899304Y-108182786D01*
X81805216Y-108356798D01*
X81679121Y-108509221D01*
X81525822Y-108634249D01*
X81351157Y-108727120D01*
X81161780Y-108784296D01*
X80964904Y-108803600D01*
X80954969Y-108803600D01*
X80943993Y-108803523D01*
X80943987Y-108803522D01*
X80940944Y-108803501D01*
X80744357Y-108781450D01*
X80555796Y-108721636D01*
X80382445Y-108626335D01*
X80230906Y-108499179D01*
X80106952Y-108345010D01*
X80015302Y-108169701D01*
X79959450Y-107979930D01*
X79959445Y-107979878D01*
X79959439Y-107979857D01*
X79941518Y-107782927D01*
X79962187Y-107586262D01*
X79962193Y-107586242D01*
X79962199Y-107586187D01*
X80020696Y-107397214D01*
X80114784Y-107223202D01*
X80240879Y-107070779D01*
X80394178Y-106945751D01*
X80568843Y-106852880D01*
X80758220Y-106795704D01*
X80955096Y-106776400D01*
X80965031Y-106776400D01*
X80976007Y-106776477D01*
X80976007Y-106776477D01*
G37*
G36*
X83516007Y-104236477D02*
X83516013Y-104236478D01*
X83519056Y-104236499D01*
X83715643Y-104258550D01*
X83904204Y-104318364D01*
X84077555Y-104413665D01*
X84229094Y-104540821D01*
X84353048Y-104694990D01*
X84444698Y-104870299D01*
X84500550Y-105060070D01*
X84500555Y-105060122D01*
X84500561Y-105060143D01*
X84518482Y-105257073D01*
X84497813Y-105453738D01*
X84497807Y-105453758D01*
X84497801Y-105453813D01*
X84439304Y-105642786D01*
X84345216Y-105816798D01*
X84219121Y-105969221D01*
X84065822Y-106094249D01*
X83891157Y-106187120D01*
X83701780Y-106244296D01*
X83504904Y-106263600D01*
X83494969Y-106263600D01*
X83483993Y-106263523D01*
X83483987Y-106263522D01*
X83480944Y-106263501D01*
X83284357Y-106241450D01*
X83095796Y-106181636D01*
X82922445Y-106086335D01*
X82770906Y-105959179D01*
X82646952Y-105805010D01*
X82555302Y-105629701D01*
X82499450Y-105439930D01*
X82499445Y-105439878D01*
X82499439Y-105439857D01*
X82481518Y-105242927D01*
X82502187Y-105046262D01*
X82502193Y-105046242D01*
X82502199Y-105046187D01*
X82560696Y-104857214D01*
X82654784Y-104683202D01*
X82780879Y-104530779D01*
X82934178Y-104405751D01*
X83108843Y-104312880D01*
X83298220Y-104255704D01*
X83495096Y-104236400D01*
X83505031Y-104236400D01*
X83516007Y-104236477D01*
X83516007Y-104236477D01*
G37*
G36*
X80976007Y-104236477D02*
X80976013Y-104236478D01*
X80979056Y-104236499D01*
X81175643Y-104258550D01*
X81364204Y-104318364D01*
X81537555Y-104413665D01*
X81689094Y-104540821D01*
X81813048Y-104694990D01*
X81904698Y-104870299D01*
X81960550Y-105060070D01*
X81960555Y-105060122D01*
X81960561Y-105060143D01*
X81978482Y-105257073D01*
X81957813Y-105453738D01*
X81957807Y-105453758D01*
X81957801Y-105453813D01*
X81899304Y-105642786D01*
X81805216Y-105816798D01*
X81679121Y-105969221D01*
X81525822Y-106094249D01*
X81351157Y-106187120D01*
X81161780Y-106244296D01*
X80964904Y-106263600D01*
X80954969Y-106263600D01*
X80943993Y-106263523D01*
X80943987Y-106263522D01*
X80940944Y-106263501D01*
X80744357Y-106241450D01*
X80555796Y-106181636D01*
X80382445Y-106086335D01*
X80230906Y-105959179D01*
X80106952Y-105805010D01*
X80015302Y-105629701D01*
X79959450Y-105439930D01*
X79959445Y-105439878D01*
X79959439Y-105439857D01*
X79941518Y-105242927D01*
X79962187Y-105046262D01*
X79962193Y-105046242D01*
X79962199Y-105046187D01*
X80020696Y-104857214D01*
X80114784Y-104683202D01*
X80240879Y-104530779D01*
X80394178Y-104405751D01*
X80568843Y-104312880D01*
X80758220Y-104255704D01*
X80955096Y-104236400D01*
X80965031Y-104236400D01*
X80976007Y-104236477D01*
X80976007Y-104236477D01*
G37*
G36*
X83516007Y-101696477D02*
X83516013Y-101696478D01*
X83519056Y-101696499D01*
X83715643Y-101718550D01*
X83904204Y-101778364D01*
X84077555Y-101873665D01*
X84229094Y-102000821D01*
X84353048Y-102154990D01*
X84444698Y-102330299D01*
X84500550Y-102520070D01*
X84500555Y-102520122D01*
X84500561Y-102520143D01*
X84518482Y-102717073D01*
X84497813Y-102913738D01*
X84497807Y-102913758D01*
X84497801Y-102913813D01*
X84439304Y-103102786D01*
X84345216Y-103276798D01*
X84219121Y-103429221D01*
X84065822Y-103554249D01*
X83891157Y-103647120D01*
X83701780Y-103704296D01*
X83504904Y-103723600D01*
X83494969Y-103723600D01*
X83483993Y-103723523D01*
X83483987Y-103723522D01*
X83480944Y-103723501D01*
X83284357Y-103701450D01*
X83095796Y-103641636D01*
X82922445Y-103546335D01*
X82770906Y-103419179D01*
X82646952Y-103265010D01*
X82555302Y-103089701D01*
X82499450Y-102899930D01*
X82499445Y-102899878D01*
X82499439Y-102899857D01*
X82481518Y-102702927D01*
X82502187Y-102506262D01*
X82502193Y-102506242D01*
X82502199Y-102506187D01*
X82560696Y-102317214D01*
X82654784Y-102143202D01*
X82780879Y-101990779D01*
X82934178Y-101865751D01*
X83108843Y-101772880D01*
X83298220Y-101715704D01*
X83495096Y-101696400D01*
X83505031Y-101696400D01*
X83516007Y-101696477D01*
X83516007Y-101696477D01*
G37*
G36*
X80976007Y-101696477D02*
X80976013Y-101696478D01*
X80979056Y-101696499D01*
X81175643Y-101718550D01*
X81364204Y-101778364D01*
X81537555Y-101873665D01*
X81689094Y-102000821D01*
X81813048Y-102154990D01*
X81904698Y-102330299D01*
X81960550Y-102520070D01*
X81960555Y-102520122D01*
X81960561Y-102520143D01*
X81978482Y-102717073D01*
X81957813Y-102913738D01*
X81957807Y-102913758D01*
X81957801Y-102913813D01*
X81899304Y-103102786D01*
X81805216Y-103276798D01*
X81679121Y-103429221D01*
X81525822Y-103554249D01*
X81351157Y-103647120D01*
X81161780Y-103704296D01*
X80964904Y-103723600D01*
X80954969Y-103723600D01*
X80943993Y-103723523D01*
X80943987Y-103723522D01*
X80940944Y-103723501D01*
X80744357Y-103701450D01*
X80555796Y-103641636D01*
X80382445Y-103546335D01*
X80230906Y-103419179D01*
X80106952Y-103265010D01*
X80015302Y-103089701D01*
X79959450Y-102899930D01*
X79959445Y-102899878D01*
X79959439Y-102899857D01*
X79941518Y-102702927D01*
X79962187Y-102506262D01*
X79962193Y-102506242D01*
X79962199Y-102506187D01*
X80020696Y-102317214D01*
X80114784Y-102143202D01*
X80240879Y-101990779D01*
X80394178Y-101865751D01*
X80568843Y-101772880D01*
X80758220Y-101715704D01*
X80955096Y-101696400D01*
X80965031Y-101696400D01*
X80976007Y-101696477D01*
X80976007Y-101696477D01*
G37*
G36*
X83516007Y-99156477D02*
X83516013Y-99156478D01*
X83519056Y-99156499D01*
X83715643Y-99178550D01*
X83904204Y-99238364D01*
X84077555Y-99333665D01*
X84229094Y-99460821D01*
X84353048Y-99614990D01*
X84444698Y-99790299D01*
X84500550Y-99980070D01*
X84500555Y-99980122D01*
X84500561Y-99980143D01*
X84518482Y-100177073D01*
X84497813Y-100373738D01*
X84497807Y-100373758D01*
X84497801Y-100373813D01*
X84439304Y-100562786D01*
X84345216Y-100736798D01*
X84219121Y-100889221D01*
X84065822Y-101014249D01*
X83891157Y-101107120D01*
X83701780Y-101164296D01*
X83504904Y-101183600D01*
X83494969Y-101183600D01*
X83483993Y-101183523D01*
X83483987Y-101183522D01*
X83480944Y-101183501D01*
X83284357Y-101161450D01*
X83095796Y-101101636D01*
X82922445Y-101006335D01*
X82770906Y-100879179D01*
X82646952Y-100725010D01*
X82555302Y-100549701D01*
X82499450Y-100359930D01*
X82499445Y-100359878D01*
X82499439Y-100359857D01*
X82481518Y-100162927D01*
X82502187Y-99966262D01*
X82502193Y-99966242D01*
X82502199Y-99966187D01*
X82560696Y-99777214D01*
X82654784Y-99603202D01*
X82780879Y-99450779D01*
X82934178Y-99325751D01*
X83108843Y-99232880D01*
X83298220Y-99175704D01*
X83495096Y-99156400D01*
X83505031Y-99156400D01*
X83516007Y-99156477D01*
X83516007Y-99156477D01*
G37*
G36*
X80976007Y-99156477D02*
X80976013Y-99156478D01*
X80979056Y-99156499D01*
X81175643Y-99178550D01*
X81364204Y-99238364D01*
X81537555Y-99333665D01*
X81689094Y-99460821D01*
X81813048Y-99614990D01*
X81904698Y-99790299D01*
X81960550Y-99980070D01*
X81960555Y-99980122D01*
X81960561Y-99980143D01*
X81978482Y-100177073D01*
X81957813Y-100373738D01*
X81957807Y-100373758D01*
X81957801Y-100373813D01*
X81899304Y-100562786D01*
X81805216Y-100736798D01*
X81679121Y-100889221D01*
X81525822Y-101014249D01*
X81351157Y-101107120D01*
X81161780Y-101164296D01*
X80964904Y-101183600D01*
X80954969Y-101183600D01*
X80943993Y-101183523D01*
X80943987Y-101183522D01*
X80940944Y-101183501D01*
X80744357Y-101161450D01*
X80555796Y-101101636D01*
X80382445Y-101006335D01*
X80230906Y-100879179D01*
X80106952Y-100725010D01*
X80015302Y-100549701D01*
X79959450Y-100359930D01*
X79959445Y-100359878D01*
X79959439Y-100359857D01*
X79941518Y-100162927D01*
X79962187Y-99966262D01*
X79962193Y-99966242D01*
X79962199Y-99966187D01*
X80020696Y-99777214D01*
X80114784Y-99603202D01*
X80240879Y-99450779D01*
X80394178Y-99325751D01*
X80568843Y-99232880D01*
X80758220Y-99175704D01*
X80955096Y-99156400D01*
X80965031Y-99156400D01*
X80976007Y-99156477D01*
X80976007Y-99156477D01*
G37*
G36*
X83516007Y-96566477D02*
X83516013Y-96566478D01*
X83519056Y-96566499D01*
X83715643Y-96588550D01*
X83904204Y-96648364D01*
X84077555Y-96743665D01*
X84229094Y-96870821D01*
X84353048Y-97024990D01*
X84444698Y-97200299D01*
X84500550Y-97390070D01*
X84500555Y-97390122D01*
X84500561Y-97390143D01*
X84518482Y-97587073D01*
X84497813Y-97783738D01*
X84497807Y-97783758D01*
X84497801Y-97783813D01*
X84439304Y-97972786D01*
X84345216Y-98146798D01*
X84219121Y-98299221D01*
X84065822Y-98424249D01*
X83891157Y-98517120D01*
X83701780Y-98574296D01*
X83504904Y-98593600D01*
X83494969Y-98593600D01*
X83483993Y-98593523D01*
X83483987Y-98593522D01*
X83480944Y-98593501D01*
X83284357Y-98571450D01*
X83095796Y-98511636D01*
X82922445Y-98416335D01*
X82770906Y-98289179D01*
X82646952Y-98135010D01*
X82555302Y-97959701D01*
X82499450Y-97769930D01*
X82499445Y-97769878D01*
X82499439Y-97769857D01*
X82481518Y-97572927D01*
X82502187Y-97376262D01*
X82502193Y-97376242D01*
X82502199Y-97376187D01*
X82560696Y-97187214D01*
X82654784Y-97013202D01*
X82780879Y-96860779D01*
X82934178Y-96735751D01*
X83108843Y-96642880D01*
X83298220Y-96585704D01*
X83495096Y-96566400D01*
X83505031Y-96566400D01*
X83516007Y-96566477D01*
X83516007Y-96566477D01*
G37*
G36*
X80976007Y-96566477D02*
X80976013Y-96566478D01*
X80979056Y-96566499D01*
X81175643Y-96588550D01*
X81364204Y-96648364D01*
X81537555Y-96743665D01*
X81689094Y-96870821D01*
X81813048Y-97024990D01*
X81904698Y-97200299D01*
X81960550Y-97390070D01*
X81960555Y-97390122D01*
X81960561Y-97390143D01*
X81978482Y-97587073D01*
X81957813Y-97783738D01*
X81957807Y-97783758D01*
X81957801Y-97783813D01*
X81899304Y-97972786D01*
X81805216Y-98146798D01*
X81679121Y-98299221D01*
X81525822Y-98424249D01*
X81351157Y-98517120D01*
X81161780Y-98574296D01*
X80964904Y-98593600D01*
X80954969Y-98593600D01*
X80943993Y-98593523D01*
X80943987Y-98593522D01*
X80940944Y-98593501D01*
X80744357Y-98571450D01*
X80555796Y-98511636D01*
X80382445Y-98416335D01*
X80230906Y-98289179D01*
X80106952Y-98135010D01*
X80015302Y-97959701D01*
X79959450Y-97769930D01*
X79959445Y-97769878D01*
X79959439Y-97769857D01*
X79941518Y-97572927D01*
X79962187Y-97376262D01*
X79962193Y-97376242D01*
X79962199Y-97376187D01*
X80020696Y-97187214D01*
X80114784Y-97013202D01*
X80240879Y-96860779D01*
X80394178Y-96735751D01*
X80568843Y-96642880D01*
X80758220Y-96585704D01*
X80955096Y-96566400D01*
X80965031Y-96566400D01*
X80976007Y-96566477D01*
X80976007Y-96566477D01*
G37*
G36*
X83516007Y-94026477D02*
X83516013Y-94026478D01*
X83519056Y-94026499D01*
X83715643Y-94048550D01*
X83904204Y-94108364D01*
X84077555Y-94203665D01*
X84229094Y-94330821D01*
X84353048Y-94484990D01*
X84444698Y-94660299D01*
X84500550Y-94850070D01*
X84500555Y-94850122D01*
X84500561Y-94850143D01*
X84518482Y-95047073D01*
X84497813Y-95243738D01*
X84497807Y-95243758D01*
X84497801Y-95243813D01*
X84439304Y-95432786D01*
X84345216Y-95606798D01*
X84219121Y-95759221D01*
X84065822Y-95884249D01*
X83891157Y-95977120D01*
X83701780Y-96034296D01*
X83504904Y-96053600D01*
X83494969Y-96053600D01*
X83483993Y-96053523D01*
X83483987Y-96053522D01*
X83480944Y-96053501D01*
X83284357Y-96031450D01*
X83095796Y-95971636D01*
X82922445Y-95876335D01*
X82770906Y-95749179D01*
X82646952Y-95595010D01*
X82555302Y-95419701D01*
X82499450Y-95229930D01*
X82499445Y-95229878D01*
X82499439Y-95229857D01*
X82481518Y-95032927D01*
X82502187Y-94836262D01*
X82502193Y-94836242D01*
X82502199Y-94836187D01*
X82560696Y-94647214D01*
X82654784Y-94473202D01*
X82780879Y-94320779D01*
X82934178Y-94195751D01*
X83108843Y-94102880D01*
X83298220Y-94045704D01*
X83495096Y-94026400D01*
X83505031Y-94026400D01*
X83516007Y-94026477D01*
X83516007Y-94026477D01*
G37*
G36*
X80976007Y-94026477D02*
X80976013Y-94026478D01*
X80979056Y-94026499D01*
X81175643Y-94048550D01*
X81364204Y-94108364D01*
X81537555Y-94203665D01*
X81689094Y-94330821D01*
X81813048Y-94484990D01*
X81904698Y-94660299D01*
X81960550Y-94850070D01*
X81960555Y-94850122D01*
X81960561Y-94850143D01*
X81978482Y-95047073D01*
X81957813Y-95243738D01*
X81957807Y-95243758D01*
X81957801Y-95243813D01*
X81899304Y-95432786D01*
X81805216Y-95606798D01*
X81679121Y-95759221D01*
X81525822Y-95884249D01*
X81351157Y-95977120D01*
X81161780Y-96034296D01*
X80964904Y-96053600D01*
X80954969Y-96053600D01*
X80943993Y-96053523D01*
X80943987Y-96053522D01*
X80940944Y-96053501D01*
X80744357Y-96031450D01*
X80555796Y-95971636D01*
X80382445Y-95876335D01*
X80230906Y-95749179D01*
X80106952Y-95595010D01*
X80015302Y-95419701D01*
X79959450Y-95229930D01*
X79959445Y-95229878D01*
X79959439Y-95229857D01*
X79941518Y-95032927D01*
X79962187Y-94836262D01*
X79962193Y-94836242D01*
X79962199Y-94836187D01*
X80020696Y-94647214D01*
X80114784Y-94473202D01*
X80240879Y-94320779D01*
X80394178Y-94195751D01*
X80568843Y-94102880D01*
X80758220Y-94045704D01*
X80955096Y-94026400D01*
X80965031Y-94026400D01*
X80976007Y-94026477D01*
X80976007Y-94026477D01*
G37*
G36*
X83516007Y-91486477D02*
X83516013Y-91486478D01*
X83519056Y-91486499D01*
X83715643Y-91508550D01*
X83904204Y-91568364D01*
X84077555Y-91663665D01*
X84229094Y-91790821D01*
X84353048Y-91944990D01*
X84444698Y-92120299D01*
X84500550Y-92310070D01*
X84500555Y-92310122D01*
X84500561Y-92310143D01*
X84518482Y-92507073D01*
X84497813Y-92703738D01*
X84497807Y-92703758D01*
X84497801Y-92703813D01*
X84439304Y-92892786D01*
X84345216Y-93066798D01*
X84219121Y-93219221D01*
X84065822Y-93344249D01*
X83891157Y-93437120D01*
X83701780Y-93494296D01*
X83504904Y-93513600D01*
X83494969Y-93513600D01*
X83483993Y-93513523D01*
X83483987Y-93513522D01*
X83480944Y-93513501D01*
X83284357Y-93491450D01*
X83095796Y-93431636D01*
X82922445Y-93336335D01*
X82770906Y-93209179D01*
X82646952Y-93055010D01*
X82555302Y-92879701D01*
X82499450Y-92689930D01*
X82499445Y-92689878D01*
X82499439Y-92689857D01*
X82481518Y-92492927D01*
X82502187Y-92296262D01*
X82502193Y-92296242D01*
X82502199Y-92296187D01*
X82560696Y-92107214D01*
X82654784Y-91933202D01*
X82780879Y-91780779D01*
X82934178Y-91655751D01*
X83108843Y-91562880D01*
X83298220Y-91505704D01*
X83495096Y-91486400D01*
X83505031Y-91486400D01*
X83516007Y-91486477D01*
X83516007Y-91486477D01*
G37*
G36*
X80976007Y-91486477D02*
X80976013Y-91486478D01*
X80979056Y-91486499D01*
X81175643Y-91508550D01*
X81364204Y-91568364D01*
X81537555Y-91663665D01*
X81689094Y-91790821D01*
X81813048Y-91944990D01*
X81904698Y-92120299D01*
X81960550Y-92310070D01*
X81960555Y-92310122D01*
X81960561Y-92310143D01*
X81978482Y-92507073D01*
X81957813Y-92703738D01*
X81957807Y-92703758D01*
X81957801Y-92703813D01*
X81899304Y-92892786D01*
X81805216Y-93066798D01*
X81679121Y-93219221D01*
X81525822Y-93344249D01*
X81351157Y-93437120D01*
X81161780Y-93494296D01*
X80964904Y-93513600D01*
X80954969Y-93513600D01*
X80943993Y-93513523D01*
X80943987Y-93513522D01*
X80940944Y-93513501D01*
X80744357Y-93491450D01*
X80555796Y-93431636D01*
X80382445Y-93336335D01*
X80230906Y-93209179D01*
X80106952Y-93055010D01*
X80015302Y-92879701D01*
X79959450Y-92689930D01*
X79959445Y-92689878D01*
X79959439Y-92689857D01*
X79941518Y-92492927D01*
X79962187Y-92296262D01*
X79962193Y-92296242D01*
X79962199Y-92296187D01*
X80020696Y-92107214D01*
X80114784Y-91933202D01*
X80240879Y-91780779D01*
X80394178Y-91655751D01*
X80568843Y-91562880D01*
X80758220Y-91505704D01*
X80955096Y-91486400D01*
X80965031Y-91486400D01*
X80976007Y-91486477D01*
X80976007Y-91486477D01*
G37*
G36*
X83516007Y-88946477D02*
X83516013Y-88946478D01*
X83519056Y-88946499D01*
X83715643Y-88968550D01*
X83904204Y-89028364D01*
X84077555Y-89123665D01*
X84229094Y-89250821D01*
X84353048Y-89404990D01*
X84444698Y-89580299D01*
X84500550Y-89770070D01*
X84500555Y-89770122D01*
X84500561Y-89770143D01*
X84518482Y-89967073D01*
X84497813Y-90163738D01*
X84497807Y-90163758D01*
X84497801Y-90163813D01*
X84439304Y-90352786D01*
X84345216Y-90526798D01*
X84219121Y-90679221D01*
X84065822Y-90804249D01*
X83891157Y-90897120D01*
X83701780Y-90954296D01*
X83504904Y-90973600D01*
X83494969Y-90973600D01*
X83483993Y-90973523D01*
X83483987Y-90973522D01*
X83480944Y-90973501D01*
X83284357Y-90951450D01*
X83095796Y-90891636D01*
X82922445Y-90796335D01*
X82770906Y-90669179D01*
X82646952Y-90515010D01*
X82555302Y-90339701D01*
X82499450Y-90149930D01*
X82499445Y-90149878D01*
X82499439Y-90149857D01*
X82481518Y-89952927D01*
X82502187Y-89756262D01*
X82502193Y-89756242D01*
X82502199Y-89756187D01*
X82560696Y-89567214D01*
X82654784Y-89393202D01*
X82780879Y-89240779D01*
X82934178Y-89115751D01*
X83108843Y-89022880D01*
X83298220Y-88965704D01*
X83495096Y-88946400D01*
X83505031Y-88946400D01*
X83516007Y-88946477D01*
X83516007Y-88946477D01*
G37*
G36*
X81973600Y-90973600D02*
X79946400Y-90973600D01*
X79946400Y-88946400D01*
X81973600Y-88946400D01*
X81973600Y-90973600D01*
X81973600Y-90973600D01*
G37*
G36*
X101984384Y-81102162D02*
X101984400Y-81102167D01*
X101984457Y-81102173D01*
X102201843Y-81169466D01*
X102402019Y-81277700D01*
X102577359Y-81422755D01*
X102721186Y-81599103D01*
X102828021Y-81800030D01*
X102893794Y-82017881D01*
X102916000Y-82244358D01*
X102916000Y-82255767D01*
X102915908Y-82268873D01*
X102915907Y-82268879D01*
X102915886Y-82271922D01*
X102890520Y-82498067D01*
X102821712Y-82714978D01*
X102712082Y-82914394D01*
X102565807Y-83088717D01*
X102388459Y-83231309D01*
X102186791Y-83336738D01*
X101968487Y-83400989D01*
X101968433Y-83400994D01*
X101968416Y-83400999D01*
X101741863Y-83421617D01*
X101515616Y-83397838D01*
X101515600Y-83397833D01*
X101515543Y-83397827D01*
X101298157Y-83330534D01*
X101097981Y-83222300D01*
X100922641Y-83077245D01*
X100778814Y-82900897D01*
X100671979Y-82699970D01*
X100606206Y-82482119D01*
X100584000Y-82255642D01*
X100584000Y-82244233D01*
X100584092Y-82231127D01*
X100584093Y-82231121D01*
X100584114Y-82228078D01*
X100609480Y-82001933D01*
X100678288Y-81785022D01*
X100787918Y-81585606D01*
X100934193Y-81411283D01*
X101111541Y-81268691D01*
X101313209Y-81163262D01*
X101531513Y-81099011D01*
X101531567Y-81099006D01*
X101531584Y-81099001D01*
X101758137Y-81078383D01*
X101984384Y-81102162D01*
X101984384Y-81102162D01*
G37*
G36*
X98484384Y-81102162D02*
X98484400Y-81102167D01*
X98484457Y-81102173D01*
X98701843Y-81169466D01*
X98902019Y-81277700D01*
X99077359Y-81422755D01*
X99221186Y-81599103D01*
X99328021Y-81800030D01*
X99393794Y-82017881D01*
X99416000Y-82244358D01*
X99416000Y-82255767D01*
X99415908Y-82268873D01*
X99415907Y-82268879D01*
X99415886Y-82271922D01*
X99390520Y-82498067D01*
X99321712Y-82714978D01*
X99212082Y-82914394D01*
X99065807Y-83088717D01*
X98888459Y-83231309D01*
X98686791Y-83336738D01*
X98468487Y-83400989D01*
X98468433Y-83400994D01*
X98468416Y-83400999D01*
X98241863Y-83421617D01*
X98015616Y-83397838D01*
X98015600Y-83397833D01*
X98015543Y-83397827D01*
X97798157Y-83330534D01*
X97597981Y-83222300D01*
X97422641Y-83077245D01*
X97278814Y-82900897D01*
X97171979Y-82699970D01*
X97106206Y-82482119D01*
X97084000Y-82255642D01*
X97084000Y-82244233D01*
X97084092Y-82231127D01*
X97084093Y-82231121D01*
X97084114Y-82228078D01*
X97109480Y-82001933D01*
X97178288Y-81785022D01*
X97287918Y-81585606D01*
X97434193Y-81411283D01*
X97611541Y-81268691D01*
X97813209Y-81163262D01*
X98031513Y-81099011D01*
X98031567Y-81099006D01*
X98031584Y-81099001D01*
X98258137Y-81078383D01*
X98484384Y-81102162D01*
X98484384Y-81102162D01*
G37*
G36*
X105456000Y-83416000D02*
X103124000Y-83416000D01*
X103124000Y-81084000D01*
X105456000Y-81084000D01*
X105456000Y-83416000D01*
X105456000Y-83416000D01*
G37*
G36*
X96876000Y-83416000D02*
X94544000Y-83416000D01*
X94544000Y-81084000D01*
X96876000Y-81084000D01*
X96876000Y-83416000D01*
X96876000Y-83416000D01*
G37*
G36*
X120330857Y-76852095D02*
X120935986Y-76976310D01*
X121505467Y-77215697D01*
X122017603Y-77561138D01*
X122452891Y-77999475D01*
X122794745Y-78514007D01*
X123030149Y-79085141D01*
X123150035Y-79690608D01*
X123150035Y-79690616D01*
X123150136Y-79691127D01*
X123140283Y-80396710D01*
X123140168Y-80397215D01*
X123140168Y-80397228D01*
X123003424Y-80999106D01*
X122752164Y-81563447D01*
X122396076Y-82068233D01*
X121948718Y-82494247D01*
X121427136Y-82825253D01*
X120851201Y-83048643D01*
X120242834Y-83155915D01*
X119625218Y-83142978D01*
X119021886Y-83010327D01*
X118455807Y-82763013D01*
X117948539Y-82410453D01*
X117519422Y-81966089D01*
X117184778Y-81446823D01*
X116957373Y-80872462D01*
X116845857Y-80264862D01*
X116854482Y-79647171D01*
X116982919Y-79042926D01*
X117226274Y-78475135D01*
X117575285Y-77965417D01*
X118016646Y-77533204D01*
X118533551Y-77194951D01*
X119106320Y-76963537D01*
X119713130Y-76847782D01*
X120330857Y-76852095D01*
X120330857Y-76852095D01*
G37*
G36*
X80330857Y-76852095D02*
X80935986Y-76976310D01*
X81505467Y-77215697D01*
X82017603Y-77561138D01*
X82452891Y-77999475D01*
X82794745Y-78514007D01*
X83030149Y-79085141D01*
X83150035Y-79690608D01*
X83150035Y-79690616D01*
X83150136Y-79691127D01*
X83140283Y-80396710D01*
X83140168Y-80397215D01*
X83140168Y-80397228D01*
X83003424Y-80999106D01*
X82752164Y-81563447D01*
X82396076Y-82068233D01*
X81948718Y-82494247D01*
X81427136Y-82825253D01*
X80851201Y-83048643D01*
X80242834Y-83155915D01*
X79625218Y-83142978D01*
X79021886Y-83010327D01*
X78455807Y-82763013D01*
X77948539Y-82410453D01*
X77519422Y-81966089D01*
X77184778Y-81446823D01*
X76957373Y-80872462D01*
X76845857Y-80264862D01*
X76854482Y-79647171D01*
X76982919Y-79042926D01*
X77226274Y-78475135D01*
X77575285Y-77965417D01*
X78016646Y-77533204D01*
X78533551Y-77194951D01*
X79106320Y-76963537D01*
X79713130Y-76847782D01*
X80330857Y-76852095D01*
X80330857Y-76852095D01*
G37*
G36*
X89450000Y-82300000D02*
X88450000Y-82300000D01*
X88450000Y-80700000D01*
X89450000Y-80700000D01*
X89450000Y-82300000D01*
X89450000Y-82300000D01*
G37*
G36*
X87550000Y-82300000D02*
X86550000Y-82300000D01*
X86550000Y-80700000D01*
X87550000Y-80700000D01*
X87550000Y-82300000D01*
X87550000Y-82300000D01*
G37*
G36*
X90450000Y-79550000D02*
X89450000Y-79550000D01*
X89450000Y-77950000D01*
X90450000Y-77950000D01*
X90450000Y-79550000D01*
X90450000Y-79550000D01*
G37*
G36*
X88550000Y-79550000D02*
X87550000Y-79550000D01*
X87550000Y-77950000D01*
X88550000Y-77950000D01*
X88550000Y-79550000D01*
X88550000Y-79550000D01*
G37*
G36*
X66550000Y-77800000D02*
X65550000Y-77800000D01*
X65550000Y-76200000D01*
X66550000Y-76200000D01*
X66550000Y-77800000D01*
X66550000Y-77800000D01*
G37*
G36*
X68450000Y-77800000D02*
X67450000Y-77800000D01*
X67450000Y-76200000D01*
X68450000Y-76200000D01*
X68450000Y-77800000D01*
X68450000Y-77800000D01*
G37*
G36*
X67450000Y-75550000D02*
X66450000Y-75550000D01*
X66450000Y-73950000D01*
X67450000Y-73950000D01*
X67450000Y-75550000D01*
X67450000Y-75550000D01*
G37*
G36*
X65550000Y-75550000D02*
X64550000Y-75550000D01*
X64550000Y-73950000D01*
X65550000Y-73950000D01*
X65550000Y-75550000D01*
X65550000Y-75550000D01*
G37*
G36*
X81038272Y-70080430D02*
X81163139Y-70106061D01*
X81280652Y-70155459D01*
X81386332Y-70226741D01*
X81476156Y-70317194D01*
X81546695Y-70423364D01*
X81595271Y-70541218D01*
X81619928Y-70665744D01*
X81619928Y-70665758D01*
X81620028Y-70666264D01*
X81617995Y-70811861D01*
X81617880Y-70812366D01*
X81617880Y-70812379D01*
X81589757Y-70936165D01*
X81537910Y-71052615D01*
X81464428Y-71156783D01*
X81372120Y-71244686D01*
X81283677Y-71300814D01*
X81267626Y-71314517D01*
X81256028Y-71332149D01*
X81249802Y-71352315D01*
X81249440Y-71373416D01*
X81254971Y-71393783D01*
X81265957Y-71411802D01*
X81281924Y-71426317D01*
X81386332Y-71496741D01*
X81476156Y-71587194D01*
X81546695Y-71693364D01*
X81595271Y-71811218D01*
X81619928Y-71935744D01*
X81619928Y-71935758D01*
X81620028Y-71936264D01*
X81617995Y-72081861D01*
X81617880Y-72082366D01*
X81617880Y-72082379D01*
X81589757Y-72206165D01*
X81537910Y-72322615D01*
X81464428Y-72426783D01*
X81372117Y-72514689D01*
X81264491Y-72582991D01*
X81145647Y-72629088D01*
X81020109Y-72651223D01*
X80892660Y-72648553D01*
X80768167Y-72621181D01*
X80651354Y-72570148D01*
X80546683Y-72497400D01*
X80458133Y-72405703D01*
X80398895Y-72313783D01*
X80385080Y-72297828D01*
X80367367Y-72286354D01*
X80347159Y-72280268D01*
X80326056Y-72280053D01*
X80305728Y-72285726D01*
X80287786Y-72296838D01*
X80273649Y-72312508D01*
X80268562Y-72321692D01*
X80194428Y-72426783D01*
X80102117Y-72514689D01*
X79994491Y-72582991D01*
X79875647Y-72629088D01*
X79750109Y-72651223D01*
X79622660Y-72648553D01*
X79498167Y-72621181D01*
X79381354Y-72570148D01*
X79276683Y-72497400D01*
X79188133Y-72405703D01*
X79128895Y-72313783D01*
X79115080Y-72297828D01*
X79097367Y-72286354D01*
X79077159Y-72280268D01*
X79056056Y-72280053D01*
X79035728Y-72285726D01*
X79017786Y-72296838D01*
X79003649Y-72312508D01*
X78998562Y-72321692D01*
X78924428Y-72426783D01*
X78832117Y-72514689D01*
X78724491Y-72582991D01*
X78605647Y-72629088D01*
X78480109Y-72651223D01*
X78352660Y-72648553D01*
X78228167Y-72621181D01*
X78111354Y-72570148D01*
X78006683Y-72497400D01*
X77918133Y-72405703D01*
X77858895Y-72313783D01*
X77845080Y-72297828D01*
X77827367Y-72286354D01*
X77807159Y-72280268D01*
X77786056Y-72280053D01*
X77765728Y-72285726D01*
X77747786Y-72296838D01*
X77733649Y-72312508D01*
X77728562Y-72321692D01*
X77654428Y-72426783D01*
X77562117Y-72514689D01*
X77454491Y-72582991D01*
X77335647Y-72629088D01*
X77210109Y-72651223D01*
X77082660Y-72648553D01*
X76958167Y-72621181D01*
X76841354Y-72570148D01*
X76736683Y-72497400D01*
X76648133Y-72405703D01*
X76588895Y-72313783D01*
X76575080Y-72297828D01*
X76557367Y-72286354D01*
X76537159Y-72280268D01*
X76516056Y-72280053D01*
X76495728Y-72285726D01*
X76477786Y-72296838D01*
X76463649Y-72312508D01*
X76458562Y-72321692D01*
X76384428Y-72426783D01*
X76292117Y-72514689D01*
X76184491Y-72582991D01*
X76065647Y-72629088D01*
X75940109Y-72651223D01*
X75812660Y-72648553D01*
X75688167Y-72621181D01*
X75571354Y-72570148D01*
X75466683Y-72497400D01*
X75378133Y-72405703D01*
X75318895Y-72313783D01*
X75305080Y-72297828D01*
X75287367Y-72286354D01*
X75267159Y-72280268D01*
X75246056Y-72280053D01*
X75225728Y-72285726D01*
X75207786Y-72296838D01*
X75193649Y-72312508D01*
X75188562Y-72321692D01*
X75114428Y-72426783D01*
X75022117Y-72514689D01*
X74914491Y-72582991D01*
X74795647Y-72629088D01*
X74670109Y-72651223D01*
X74542660Y-72648553D01*
X74418167Y-72621181D01*
X74301354Y-72570148D01*
X74196683Y-72497400D01*
X74108133Y-72405703D01*
X74048895Y-72313783D01*
X74035080Y-72297828D01*
X74017367Y-72286354D01*
X73997159Y-72280268D01*
X73976056Y-72280053D01*
X73955728Y-72285726D01*
X73937786Y-72296838D01*
X73923649Y-72312508D01*
X73918562Y-72321692D01*
X73844428Y-72426783D01*
X73752117Y-72514689D01*
X73644491Y-72582991D01*
X73525647Y-72629088D01*
X73400109Y-72651223D01*
X73272660Y-72648553D01*
X73148167Y-72621181D01*
X73031354Y-72570148D01*
X72926683Y-72497400D01*
X72838133Y-72405703D01*
X72778895Y-72313783D01*
X72765080Y-72297828D01*
X72747367Y-72286354D01*
X72727159Y-72280268D01*
X72706056Y-72280053D01*
X72685728Y-72285726D01*
X72667786Y-72296838D01*
X72653649Y-72312508D01*
X72648562Y-72321692D01*
X72574428Y-72426783D01*
X72482117Y-72514689D01*
X72374491Y-72582991D01*
X72255647Y-72629088D01*
X72130109Y-72651223D01*
X72002660Y-72648553D01*
X71878167Y-72621181D01*
X71761354Y-72570148D01*
X71656683Y-72497400D01*
X71568133Y-72405703D01*
X71508895Y-72313783D01*
X71495080Y-72297828D01*
X71477367Y-72286354D01*
X71457159Y-72280268D01*
X71436056Y-72280053D01*
X71415728Y-72285726D01*
X71397786Y-72296838D01*
X71383649Y-72312508D01*
X71378562Y-72321692D01*
X71304428Y-72426783D01*
X71212117Y-72514689D01*
X71104491Y-72582991D01*
X70985647Y-72629088D01*
X70860109Y-72651223D01*
X70732660Y-72648553D01*
X70608167Y-72621181D01*
X70491354Y-72570148D01*
X70386683Y-72497400D01*
X70298133Y-72405703D01*
X70238895Y-72313783D01*
X70225080Y-72297828D01*
X70207367Y-72286354D01*
X70187159Y-72280268D01*
X70166056Y-72280053D01*
X70145728Y-72285726D01*
X70127786Y-72296838D01*
X70113649Y-72312508D01*
X70108562Y-72321692D01*
X70034428Y-72426783D01*
X69942117Y-72514689D01*
X69834491Y-72582991D01*
X69715647Y-72629088D01*
X69590109Y-72651223D01*
X69462660Y-72648553D01*
X69338167Y-72621181D01*
X69221354Y-72570148D01*
X69116683Y-72497400D01*
X69028133Y-72405703D01*
X68968895Y-72313783D01*
X68955080Y-72297828D01*
X68937367Y-72286354D01*
X68917159Y-72280268D01*
X68896056Y-72280053D01*
X68875728Y-72285726D01*
X68857786Y-72296838D01*
X68843649Y-72312508D01*
X68838562Y-72321692D01*
X68764428Y-72426783D01*
X68672117Y-72514689D01*
X68564491Y-72582991D01*
X68445647Y-72629088D01*
X68320109Y-72651223D01*
X68192660Y-72648553D01*
X68068167Y-72621181D01*
X67951354Y-72570148D01*
X67846683Y-72497400D01*
X67758133Y-72405703D01*
X67698895Y-72313783D01*
X67685080Y-72297828D01*
X67667367Y-72286354D01*
X67647159Y-72280268D01*
X67626056Y-72280053D01*
X67605728Y-72285726D01*
X67587786Y-72296838D01*
X67573649Y-72312508D01*
X67568562Y-72321692D01*
X67494428Y-72426783D01*
X67402117Y-72514689D01*
X67294491Y-72582991D01*
X67175647Y-72629088D01*
X67050109Y-72651223D01*
X66922660Y-72648553D01*
X66798167Y-72621181D01*
X66681354Y-72570148D01*
X66576683Y-72497400D01*
X66488133Y-72405703D01*
X66419077Y-72298549D01*
X66372154Y-72180034D01*
X66349143Y-72054655D01*
X66350922Y-71927192D01*
X66377425Y-71802508D01*
X66427642Y-71685344D01*
X66499658Y-71580166D01*
X66590738Y-71490974D01*
X66685816Y-71428757D01*
X66701674Y-71414832D01*
X66713025Y-71397040D01*
X66718969Y-71376790D01*
X66718979Y-71373416D01*
X67279440Y-71373416D01*
X67284971Y-71393783D01*
X67295957Y-71411802D01*
X67311924Y-71426317D01*
X67416332Y-71496741D01*
X67506154Y-71587192D01*
X67572021Y-71686330D01*
X67586057Y-71702090D01*
X67603928Y-71713316D01*
X67624219Y-71719118D01*
X67645324Y-71719038D01*
X67665570Y-71713082D01*
X67683355Y-71701721D01*
X67696374Y-71687197D01*
X67769658Y-71580166D01*
X67860738Y-71490974D01*
X67955816Y-71428757D01*
X67971674Y-71414832D01*
X67983025Y-71397040D01*
X67988969Y-71376790D01*
X67988979Y-71373416D01*
X68549440Y-71373416D01*
X68554971Y-71393783D01*
X68565957Y-71411802D01*
X68581924Y-71426317D01*
X68686332Y-71496741D01*
X68776154Y-71587192D01*
X68842021Y-71686330D01*
X68856057Y-71702090D01*
X68873928Y-71713316D01*
X68894219Y-71719118D01*
X68915324Y-71719038D01*
X68935570Y-71713082D01*
X68953355Y-71701721D01*
X68966374Y-71687197D01*
X69039658Y-71580166D01*
X69130738Y-71490974D01*
X69225816Y-71428757D01*
X69241674Y-71414832D01*
X69253025Y-71397040D01*
X69258969Y-71376790D01*
X69258979Y-71373416D01*
X69819440Y-71373416D01*
X69824971Y-71393783D01*
X69835957Y-71411802D01*
X69851924Y-71426317D01*
X69956332Y-71496741D01*
X70046154Y-71587192D01*
X70112021Y-71686330D01*
X70126057Y-71702090D01*
X70143928Y-71713316D01*
X70164219Y-71719118D01*
X70185324Y-71719038D01*
X70205570Y-71713082D01*
X70223355Y-71701721D01*
X70236374Y-71687197D01*
X70309658Y-71580166D01*
X70400738Y-71490974D01*
X70495816Y-71428757D01*
X70511674Y-71414832D01*
X70523025Y-71397040D01*
X70528969Y-71376790D01*
X70528979Y-71373416D01*
X71089440Y-71373416D01*
X71094971Y-71393783D01*
X71105957Y-71411802D01*
X71121924Y-71426317D01*
X71226332Y-71496741D01*
X71316154Y-71587192D01*
X71382021Y-71686330D01*
X71396057Y-71702090D01*
X71413928Y-71713316D01*
X71434219Y-71719118D01*
X71455324Y-71719038D01*
X71475570Y-71713082D01*
X71493355Y-71701721D01*
X71506374Y-71687197D01*
X71579658Y-71580166D01*
X71670738Y-71490974D01*
X71765816Y-71428757D01*
X71781674Y-71414832D01*
X71793025Y-71397040D01*
X71798969Y-71376790D01*
X71798979Y-71373416D01*
X72359440Y-71373416D01*
X72364971Y-71393783D01*
X72375957Y-71411802D01*
X72391924Y-71426317D01*
X72496332Y-71496741D01*
X72586154Y-71587192D01*
X72652021Y-71686330D01*
X72666057Y-71702090D01*
X72683928Y-71713316D01*
X72704219Y-71719118D01*
X72725324Y-71719038D01*
X72745570Y-71713082D01*
X72763355Y-71701721D01*
X72776374Y-71687197D01*
X72849658Y-71580166D01*
X72940738Y-71490974D01*
X73035816Y-71428757D01*
X73051674Y-71414832D01*
X73063025Y-71397040D01*
X73068969Y-71376790D01*
X73068979Y-71373416D01*
X73629440Y-71373416D01*
X73634971Y-71393783D01*
X73645957Y-71411802D01*
X73661924Y-71426317D01*
X73766332Y-71496741D01*
X73856154Y-71587192D01*
X73922021Y-71686330D01*
X73936057Y-71702090D01*
X73953928Y-71713316D01*
X73974219Y-71719118D01*
X73995324Y-71719038D01*
X74015570Y-71713082D01*
X74033355Y-71701721D01*
X74046374Y-71687197D01*
X74119658Y-71580166D01*
X74210738Y-71490974D01*
X74305816Y-71428757D01*
X74321674Y-71414832D01*
X74333025Y-71397040D01*
X74338969Y-71376790D01*
X74338979Y-71373416D01*
X74899440Y-71373416D01*
X74904971Y-71393783D01*
X74915957Y-71411802D01*
X74931924Y-71426317D01*
X75036332Y-71496741D01*
X75126154Y-71587192D01*
X75192021Y-71686330D01*
X75206057Y-71702090D01*
X75223928Y-71713316D01*
X75244219Y-71719118D01*
X75265324Y-71719038D01*
X75285570Y-71713082D01*
X75303355Y-71701721D01*
X75316374Y-71687197D01*
X75389658Y-71580166D01*
X75480738Y-71490974D01*
X75575816Y-71428757D01*
X75591674Y-71414832D01*
X75603025Y-71397040D01*
X75608969Y-71376790D01*
X75608979Y-71373416D01*
X76169440Y-71373416D01*
X76174971Y-71393783D01*
X76185957Y-71411802D01*
X76201924Y-71426317D01*
X76306332Y-71496741D01*
X76396154Y-71587192D01*
X76462021Y-71686330D01*
X76476057Y-71702090D01*
X76493928Y-71713316D01*
X76514219Y-71719118D01*
X76535324Y-71719038D01*
X76555570Y-71713082D01*
X76573355Y-71701721D01*
X76586374Y-71687197D01*
X76659658Y-71580166D01*
X76750738Y-71490974D01*
X76845816Y-71428757D01*
X76861674Y-71414832D01*
X76873025Y-71397040D01*
X76878969Y-71376790D01*
X76878979Y-71373416D01*
X77439440Y-71373416D01*
X77444971Y-71393783D01*
X77455957Y-71411802D01*
X77471924Y-71426317D01*
X77576332Y-71496741D01*
X77666154Y-71587192D01*
X77732021Y-71686330D01*
X77746057Y-71702090D01*
X77763928Y-71713316D01*
X77784219Y-71719118D01*
X77805324Y-71719038D01*
X77825570Y-71713082D01*
X77843355Y-71701721D01*
X77856374Y-71687197D01*
X77929658Y-71580166D01*
X78020738Y-71490974D01*
X78115816Y-71428757D01*
X78131674Y-71414832D01*
X78143025Y-71397040D01*
X78148969Y-71376790D01*
X78148979Y-71373416D01*
X78709440Y-71373416D01*
X78714971Y-71393783D01*
X78725957Y-71411802D01*
X78741924Y-71426317D01*
X78846332Y-71496741D01*
X78936154Y-71587192D01*
X79002021Y-71686330D01*
X79016057Y-71702090D01*
X79033928Y-71713316D01*
X79054219Y-71719118D01*
X79075324Y-71719038D01*
X79095570Y-71713082D01*
X79113355Y-71701721D01*
X79126374Y-71687197D01*
X79199658Y-71580166D01*
X79290738Y-71490974D01*
X79385816Y-71428757D01*
X79401674Y-71414832D01*
X79413025Y-71397040D01*
X79418969Y-71376790D01*
X79418979Y-71373416D01*
X79979440Y-71373416D01*
X79984971Y-71393783D01*
X79995957Y-71411802D01*
X80011924Y-71426317D01*
X80116332Y-71496741D01*
X80206154Y-71587192D01*
X80272021Y-71686330D01*
X80286057Y-71702090D01*
X80303928Y-71713316D01*
X80324219Y-71719118D01*
X80345324Y-71719038D01*
X80365570Y-71713082D01*
X80383355Y-71701721D01*
X80396374Y-71687197D01*
X80469658Y-71580166D01*
X80560738Y-71490974D01*
X80655816Y-71428757D01*
X80671674Y-71414832D01*
X80683025Y-71397040D01*
X80688969Y-71376790D01*
X80689036Y-71355685D01*
X80683222Y-71335398D01*
X80671985Y-71317533D01*
X80657304Y-71304473D01*
X80657393Y-71304345D01*
X80656328Y-71303605D01*
X80656217Y-71303506D01*
X80656074Y-71303429D01*
X80546683Y-71227400D01*
X80458133Y-71135703D01*
X80398895Y-71043783D01*
X80385080Y-71027828D01*
X80367367Y-71016354D01*
X80347159Y-71010268D01*
X80326056Y-71010053D01*
X80305728Y-71015726D01*
X80287786Y-71026838D01*
X80273649Y-71042508D01*
X80268562Y-71051692D01*
X80194428Y-71156783D01*
X80102120Y-71244686D01*
X80013677Y-71300814D01*
X79997626Y-71314517D01*
X79986028Y-71332149D01*
X79979802Y-71352315D01*
X79979440Y-71373416D01*
X79418979Y-71373416D01*
X79419036Y-71355685D01*
X79413222Y-71335398D01*
X79401985Y-71317533D01*
X79387304Y-71304473D01*
X79387393Y-71304345D01*
X79386328Y-71303605D01*
X79386217Y-71303506D01*
X79386074Y-71303429D01*
X79276683Y-71227400D01*
X79188133Y-71135703D01*
X79128895Y-71043783D01*
X79115080Y-71027828D01*
X79097367Y-71016354D01*
X79077159Y-71010268D01*
X79056056Y-71010053D01*
X79035728Y-71015726D01*
X79017786Y-71026838D01*
X79003649Y-71042508D01*
X78998562Y-71051692D01*
X78924428Y-71156783D01*
X78832120Y-71244686D01*
X78743677Y-71300814D01*
X78727626Y-71314517D01*
X78716028Y-71332149D01*
X78709802Y-71352315D01*
X78709440Y-71373416D01*
X78148979Y-71373416D01*
X78149036Y-71355685D01*
X78143222Y-71335398D01*
X78131985Y-71317533D01*
X78117304Y-71304473D01*
X78117393Y-71304345D01*
X78116328Y-71303605D01*
X78116217Y-71303506D01*
X78116074Y-71303429D01*
X78006683Y-71227400D01*
X77918133Y-71135703D01*
X77858895Y-71043783D01*
X77845080Y-71027828D01*
X77827367Y-71016354D01*
X77807159Y-71010268D01*
X77786056Y-71010053D01*
X77765728Y-71015726D01*
X77747786Y-71026838D01*
X77733649Y-71042508D01*
X77728562Y-71051692D01*
X77654428Y-71156783D01*
X77562120Y-71244686D01*
X77473677Y-71300814D01*
X77457626Y-71314517D01*
X77446028Y-71332149D01*
X77439802Y-71352315D01*
X77439440Y-71373416D01*
X76878979Y-71373416D01*
X76879036Y-71355685D01*
X76873222Y-71335398D01*
X76861985Y-71317533D01*
X76847304Y-71304473D01*
X76847393Y-71304345D01*
X76846328Y-71303605D01*
X76846217Y-71303506D01*
X76846074Y-71303429D01*
X76736683Y-71227400D01*
X76648133Y-71135703D01*
X76588895Y-71043783D01*
X76575080Y-71027828D01*
X76557367Y-71016354D01*
X76537159Y-71010268D01*
X76516056Y-71010053D01*
X76495728Y-71015726D01*
X76477786Y-71026838D01*
X76463649Y-71042508D01*
X76458562Y-71051692D01*
X76384428Y-71156783D01*
X76292120Y-71244686D01*
X76203677Y-71300814D01*
X76187626Y-71314517D01*
X76176028Y-71332149D01*
X76169802Y-71352315D01*
X76169440Y-71373416D01*
X75608979Y-71373416D01*
X75609036Y-71355685D01*
X75603222Y-71335398D01*
X75591985Y-71317533D01*
X75577304Y-71304473D01*
X75577393Y-71304345D01*
X75576328Y-71303605D01*
X75576217Y-71303506D01*
X75576074Y-71303429D01*
X75466683Y-71227400D01*
X75378133Y-71135703D01*
X75318895Y-71043783D01*
X75305080Y-71027828D01*
X75287367Y-71016354D01*
X75267159Y-71010268D01*
X75246056Y-71010053D01*
X75225728Y-71015726D01*
X75207786Y-71026838D01*
X75193649Y-71042508D01*
X75188562Y-71051692D01*
X75114428Y-71156783D01*
X75022120Y-71244686D01*
X74933677Y-71300814D01*
X74917626Y-71314517D01*
X74906028Y-71332149D01*
X74899802Y-71352315D01*
X74899440Y-71373416D01*
X74338979Y-71373416D01*
X74339036Y-71355685D01*
X74333222Y-71335398D01*
X74321985Y-71317533D01*
X74307304Y-71304473D01*
X74307393Y-71304345D01*
X74306328Y-71303605D01*
X74306217Y-71303506D01*
X74306074Y-71303429D01*
X74196683Y-71227400D01*
X74108133Y-71135703D01*
X74048895Y-71043783D01*
X74035080Y-71027828D01*
X74017367Y-71016354D01*
X73997159Y-71010268D01*
X73976056Y-71010053D01*
X73955728Y-71015726D01*
X73937786Y-71026838D01*
X73923649Y-71042508D01*
X73918562Y-71051692D01*
X73844428Y-71156783D01*
X73752120Y-71244686D01*
X73663677Y-71300814D01*
X73647626Y-71314517D01*
X73636028Y-71332149D01*
X73629802Y-71352315D01*
X73629440Y-71373416D01*
X73068979Y-71373416D01*
X73069036Y-71355685D01*
X73063222Y-71335398D01*
X73051985Y-71317533D01*
X73037304Y-71304473D01*
X73037393Y-71304345D01*
X73036328Y-71303605D01*
X73036217Y-71303506D01*
X73036074Y-71303429D01*
X72926683Y-71227400D01*
X72838133Y-71135703D01*
X72778895Y-71043783D01*
X72765080Y-71027828D01*
X72747367Y-71016354D01*
X72727159Y-71010268D01*
X72706056Y-71010053D01*
X72685728Y-71015726D01*
X72667786Y-71026838D01*
X72653649Y-71042508D01*
X72648562Y-71051692D01*
X72574428Y-71156783D01*
X72482120Y-71244686D01*
X72393677Y-71300814D01*
X72377626Y-71314517D01*
X72366028Y-71332149D01*
X72359802Y-71352315D01*
X72359440Y-71373416D01*
X71798979Y-71373416D01*
X71799036Y-71355685D01*
X71793222Y-71335398D01*
X71781985Y-71317533D01*
X71767304Y-71304473D01*
X71767393Y-71304345D01*
X71766328Y-71303605D01*
X71766217Y-71303506D01*
X71766074Y-71303429D01*
X71656683Y-71227400D01*
X71568133Y-71135703D01*
X71508895Y-71043783D01*
X71495080Y-71027828D01*
X71477367Y-71016354D01*
X71457159Y-71010268D01*
X71436056Y-71010053D01*
X71415728Y-71015726D01*
X71397786Y-71026838D01*
X71383649Y-71042508D01*
X71378562Y-71051692D01*
X71304428Y-71156783D01*
X71212120Y-71244686D01*
X71123677Y-71300814D01*
X71107626Y-71314517D01*
X71096028Y-71332149D01*
X71089802Y-71352315D01*
X71089440Y-71373416D01*
X70528979Y-71373416D01*
X70529036Y-71355685D01*
X70523222Y-71335398D01*
X70511985Y-71317533D01*
X70497304Y-71304473D01*
X70497393Y-71304345D01*
X70496328Y-71303605D01*
X70496217Y-71303506D01*
X70496074Y-71303429D01*
X70386683Y-71227400D01*
X70298133Y-71135703D01*
X70238895Y-71043783D01*
X70225080Y-71027828D01*
X70207367Y-71016354D01*
X70187159Y-71010268D01*
X70166056Y-71010053D01*
X70145728Y-71015726D01*
X70127786Y-71026838D01*
X70113649Y-71042508D01*
X70108562Y-71051692D01*
X70034428Y-71156783D01*
X69942120Y-71244686D01*
X69853677Y-71300814D01*
X69837626Y-71314517D01*
X69826028Y-71332149D01*
X69819802Y-71352315D01*
X69819440Y-71373416D01*
X69258979Y-71373416D01*
X69259036Y-71355685D01*
X69253222Y-71335398D01*
X69241985Y-71317533D01*
X69227304Y-71304473D01*
X69227393Y-71304345D01*
X69226328Y-71303605D01*
X69226217Y-71303506D01*
X69226074Y-71303429D01*
X69116683Y-71227400D01*
X69028133Y-71135703D01*
X68968895Y-71043783D01*
X68955080Y-71027828D01*
X68937367Y-71016354D01*
X68917159Y-71010268D01*
X68896056Y-71010053D01*
X68875728Y-71015726D01*
X68857786Y-71026838D01*
X68843649Y-71042508D01*
X68838562Y-71051692D01*
X68764428Y-71156783D01*
X68672120Y-71244686D01*
X68583677Y-71300814D01*
X68567626Y-71314517D01*
X68556028Y-71332149D01*
X68549802Y-71352315D01*
X68549440Y-71373416D01*
X67988979Y-71373416D01*
X67989036Y-71355685D01*
X67983222Y-71335398D01*
X67971985Y-71317533D01*
X67957304Y-71304473D01*
X67957393Y-71304345D01*
X67956328Y-71303605D01*
X67956217Y-71303506D01*
X67956074Y-71303429D01*
X67846683Y-71227400D01*
X67758133Y-71135703D01*
X67698895Y-71043783D01*
X67685080Y-71027828D01*
X67667367Y-71016354D01*
X67647159Y-71010268D01*
X67626056Y-71010053D01*
X67605728Y-71015726D01*
X67587786Y-71026838D01*
X67573649Y-71042508D01*
X67568562Y-71051692D01*
X67494428Y-71156783D01*
X67402120Y-71244686D01*
X67313677Y-71300814D01*
X67297626Y-71314517D01*
X67286028Y-71332149D01*
X67279802Y-71352315D01*
X67279440Y-71373416D01*
X66718979Y-71373416D01*
X66719036Y-71355685D01*
X66713222Y-71335398D01*
X66701985Y-71317533D01*
X66687304Y-71304473D01*
X66687393Y-71304345D01*
X66686328Y-71303605D01*
X66686217Y-71303506D01*
X66686074Y-71303429D01*
X66576683Y-71227400D01*
X66488133Y-71135703D01*
X66419077Y-71028549D01*
X66372154Y-70910034D01*
X66349143Y-70784655D01*
X66350922Y-70657192D01*
X66377425Y-70532508D01*
X66427642Y-70415344D01*
X66499658Y-70310166D01*
X66590738Y-70220974D01*
X66697395Y-70151180D01*
X66815589Y-70103426D01*
X66940807Y-70079539D01*
X67068272Y-70080430D01*
X67193139Y-70106061D01*
X67310652Y-70155459D01*
X67416332Y-70226741D01*
X67506154Y-70317192D01*
X67572021Y-70416330D01*
X67586057Y-70432090D01*
X67603928Y-70443316D01*
X67624219Y-70449118D01*
X67645324Y-70449038D01*
X67665570Y-70443082D01*
X67683355Y-70431721D01*
X67696374Y-70417197D01*
X67769658Y-70310166D01*
X67860738Y-70220974D01*
X67967395Y-70151180D01*
X68085589Y-70103426D01*
X68210807Y-70079539D01*
X68338272Y-70080430D01*
X68463139Y-70106061D01*
X68580652Y-70155459D01*
X68686332Y-70226741D01*
X68776154Y-70317192D01*
X68842021Y-70416330D01*
X68856057Y-70432090D01*
X68873928Y-70443316D01*
X68894219Y-70449118D01*
X68915324Y-70449038D01*
X68935570Y-70443082D01*
X68953355Y-70431721D01*
X68966374Y-70417197D01*
X69039658Y-70310166D01*
X69130738Y-70220974D01*
X69237395Y-70151180D01*
X69355589Y-70103426D01*
X69480807Y-70079539D01*
X69608272Y-70080430D01*
X69733139Y-70106061D01*
X69850652Y-70155459D01*
X69956332Y-70226741D01*
X70046154Y-70317192D01*
X70112021Y-70416330D01*
X70126057Y-70432090D01*
X70143928Y-70443316D01*
X70164219Y-70449118D01*
X70185324Y-70449038D01*
X70205570Y-70443082D01*
X70223355Y-70431721D01*
X70236374Y-70417197D01*
X70309658Y-70310166D01*
X70400738Y-70220974D01*
X70507395Y-70151180D01*
X70625589Y-70103426D01*
X70750807Y-70079539D01*
X70878272Y-70080430D01*
X71003139Y-70106061D01*
X71120652Y-70155459D01*
X71226332Y-70226741D01*
X71316154Y-70317192D01*
X71382021Y-70416330D01*
X71396057Y-70432090D01*
X71413928Y-70443316D01*
X71434219Y-70449118D01*
X71455324Y-70449038D01*
X71475570Y-70443082D01*
X71493355Y-70431721D01*
X71506374Y-70417197D01*
X71579658Y-70310166D01*
X71670738Y-70220974D01*
X71777395Y-70151180D01*
X71895589Y-70103426D01*
X72020807Y-70079539D01*
X72148272Y-70080430D01*
X72273139Y-70106061D01*
X72390652Y-70155459D01*
X72496332Y-70226741D01*
X72586154Y-70317192D01*
X72652021Y-70416330D01*
X72666057Y-70432090D01*
X72683928Y-70443316D01*
X72704219Y-70449118D01*
X72725324Y-70449038D01*
X72745570Y-70443082D01*
X72763355Y-70431721D01*
X72776374Y-70417197D01*
X72849658Y-70310166D01*
X72940738Y-70220974D01*
X73047395Y-70151180D01*
X73165589Y-70103426D01*
X73290807Y-70079539D01*
X73418272Y-70080430D01*
X73543139Y-70106061D01*
X73660652Y-70155459D01*
X73766332Y-70226741D01*
X73856154Y-70317192D01*
X73922021Y-70416330D01*
X73936057Y-70432090D01*
X73953928Y-70443316D01*
X73974219Y-70449118D01*
X73995324Y-70449038D01*
X74015570Y-70443082D01*
X74033355Y-70431721D01*
X74046374Y-70417197D01*
X74119658Y-70310166D01*
X74210738Y-70220974D01*
X74317395Y-70151180D01*
X74435589Y-70103426D01*
X74560807Y-70079539D01*
X74688272Y-70080430D01*
X74813139Y-70106061D01*
X74930652Y-70155459D01*
X75036332Y-70226741D01*
X75126154Y-70317192D01*
X75192021Y-70416330D01*
X75206057Y-70432090D01*
X75223928Y-70443316D01*
X75244219Y-70449118D01*
X75265324Y-70449038D01*
X75285570Y-70443082D01*
X75303355Y-70431721D01*
X75316374Y-70417197D01*
X75389658Y-70310166D01*
X75480738Y-70220974D01*
X75587395Y-70151180D01*
X75705589Y-70103426D01*
X75830807Y-70079539D01*
X75958272Y-70080430D01*
X76083139Y-70106061D01*
X76200652Y-70155459D01*
X76306332Y-70226741D01*
X76396154Y-70317192D01*
X76462021Y-70416330D01*
X76476057Y-70432090D01*
X76493928Y-70443316D01*
X76514219Y-70449118D01*
X76535324Y-70449038D01*
X76555570Y-70443082D01*
X76573355Y-70431721D01*
X76586374Y-70417197D01*
X76659658Y-70310166D01*
X76750738Y-70220974D01*
X76857395Y-70151180D01*
X76975589Y-70103426D01*
X77100807Y-70079539D01*
X77228272Y-70080430D01*
X77353139Y-70106061D01*
X77470652Y-70155459D01*
X77576332Y-70226741D01*
X77666154Y-70317192D01*
X77732021Y-70416330D01*
X77746057Y-70432090D01*
X77763928Y-70443316D01*
X77784219Y-70449118D01*
X77805324Y-70449038D01*
X77825570Y-70443082D01*
X77843355Y-70431721D01*
X77856374Y-70417197D01*
X77929658Y-70310166D01*
X78020738Y-70220974D01*
X78127395Y-70151180D01*
X78245589Y-70103426D01*
X78370807Y-70079539D01*
X78498272Y-70080430D01*
X78623139Y-70106061D01*
X78740652Y-70155459D01*
X78846332Y-70226741D01*
X78936154Y-70317192D01*
X79002021Y-70416330D01*
X79016057Y-70432090D01*
X79033928Y-70443316D01*
X79054219Y-70449118D01*
X79075324Y-70449038D01*
X79095570Y-70443082D01*
X79113355Y-70431721D01*
X79126374Y-70417197D01*
X79199658Y-70310166D01*
X79290738Y-70220974D01*
X79397395Y-70151180D01*
X79515589Y-70103426D01*
X79640807Y-70079539D01*
X79768272Y-70080430D01*
X79893139Y-70106061D01*
X80010652Y-70155459D01*
X80116332Y-70226741D01*
X80206154Y-70317192D01*
X80272021Y-70416330D01*
X80286057Y-70432090D01*
X80303928Y-70443316D01*
X80324219Y-70449118D01*
X80345324Y-70449038D01*
X80365570Y-70443082D01*
X80383355Y-70431721D01*
X80396374Y-70417197D01*
X80469658Y-70310166D01*
X80560738Y-70220974D01*
X80667395Y-70151180D01*
X80785589Y-70103426D01*
X80910807Y-70079539D01*
X81038272Y-70080430D01*
X81038272Y-70080430D01*
G37*
M02*
