M48
METRIC,TZ
T1C0.300
T2C0.500
T3C0.600
T4C1.016
%
G90
G05
T1
X71400Y-111550
X72350Y-113950
X73900Y-111400
X73900Y-110300
X73950Y-112300
X76400Y-101800
X77200Y-104300
X77500Y-107000
T2
X74100Y-108500
X75600Y-100200
X75800Y-90500
X85750Y-130000
X86750Y-129000
X89828Y-129928
X90100Y-81500
X90750Y-128900
X91100Y-78700
X93400Y-127700
T3
X67000Y-70730
X67000Y-72000
X67000Y-128000
X67000Y-129270
X68270Y-70730
X68270Y-72000
X68270Y-128000
X68270Y-129270
X69540Y-70730
X69540Y-72000
X69540Y-128000
X69540Y-129270
X70810Y-70730
X70810Y-72000
X70810Y-128000
X70810Y-129270
X72080Y-70730
X72080Y-72000
X72080Y-128000
X72080Y-129270
X73350Y-70730
X73350Y-72000
X73350Y-128000
X73350Y-129270
X74620Y-70730
X74620Y-72000
X74620Y-128000
X74620Y-129270
X75890Y-70730
X75890Y-72000
X75890Y-128000
X75890Y-129270
X77160Y-70730
X77160Y-72000
X77160Y-128000
X77160Y-129270
X78430Y-70730
X78430Y-72000
X78430Y-128000
X78430Y-129270
X79700Y-70730
X79700Y-72000
X79700Y-128000
X79700Y-129270
X80970Y-70730
X80970Y-72000
X80970Y-128000
X80970Y-129270
T4
X80960Y-89960
X80960Y-92500
X80960Y-95040
X80960Y-97580
X80960Y-100170
X80960Y-102710
X80960Y-105250
X80960Y-107790
X80960Y-110330
X83500Y-89960
X83500Y-92500
X83500Y-95040
X83500Y-97580
X83500Y-100170
X83500Y-102710
X83500Y-105250
X83500Y-107790
X83500Y-110330
X95710Y-82250
X98250Y-82250
X101750Y-82250
X104290Y-82250
T0
M30
