G04 #@! TF.FileFunction,Copper,L2,Bot,Signal*
%FSLAX46Y46*%
G04 Gerber Fmt 4.6, Leading zero omitted, Abs format (unit mm)*
G04 Created by KiCad (PCBNEW 4.0.6+dfsg1-1) date Mon Aug 28 12:32:08 2017*
%MOMM*%
%LPD*%
G01*
G04 APERTURE LIST*
%ADD10C,0.100000*%
%ADD11C,0.200000*%
%ADD12R,1.727200X1.727200*%
%ADD13O,1.727200X1.727200*%
%ADD14R,2.032000X2.032000*%
%ADD15O,2.032000X2.032000*%
%ADD16C,1.000000*%
%ADD17R,0.700000X1.300000*%
%ADD18C,0.600000*%
%ADD19C,0.500000*%
%ADD20C,1.000000*%
%ADD21C,0.300000*%
%ADD22C,0.254000*%
G04 APERTURE END LIST*
D10*
D11*
X120782143Y-92449999D02*
X121682143Y-92449999D01*
X120825000Y-92449999D02*
X120782143Y-92535713D01*
X120782143Y-92707142D01*
X120825000Y-92792856D01*
X120867857Y-92835713D01*
X120953571Y-92878570D01*
X121210714Y-92878570D01*
X121296429Y-92835713D01*
X121339286Y-92792856D01*
X121382143Y-92707142D01*
X121382143Y-92535713D01*
X121339286Y-92449999D01*
X121382143Y-93392856D02*
X121339286Y-93307142D01*
X121296429Y-93264285D01*
X121210714Y-93221428D01*
X120953571Y-93221428D01*
X120867857Y-93264285D01*
X120825000Y-93307142D01*
X120782143Y-93392856D01*
X120782143Y-93521428D01*
X120825000Y-93607142D01*
X120867857Y-93649999D01*
X120953571Y-93692856D01*
X121210714Y-93692856D01*
X121296429Y-93649999D01*
X121339286Y-93607142D01*
X121382143Y-93521428D01*
X121382143Y-93392856D01*
X120782143Y-93992856D02*
X121382143Y-94164285D01*
X120953571Y-94335714D01*
X121382143Y-94507142D01*
X120782143Y-94678571D01*
X121339286Y-95364285D02*
X121382143Y-95278571D01*
X121382143Y-95107142D01*
X121339286Y-95021428D01*
X121253571Y-94978571D01*
X120910714Y-94978571D01*
X120825000Y-95021428D01*
X120782143Y-95107142D01*
X120782143Y-95278571D01*
X120825000Y-95364285D01*
X120910714Y-95407142D01*
X120996429Y-95407142D01*
X121082143Y-94978571D01*
X121382143Y-95792857D02*
X120782143Y-95792857D01*
X120953571Y-95792857D02*
X120867857Y-95835714D01*
X120825000Y-95878571D01*
X120782143Y-95964285D01*
X120782143Y-96050000D01*
X120782143Y-96735714D02*
X121382143Y-96735714D01*
X120439286Y-96521428D02*
X121082143Y-96307143D01*
X121082143Y-96864285D01*
X120567857Y-97850000D02*
X120525000Y-97892857D01*
X120482143Y-97978571D01*
X120482143Y-98192857D01*
X120525000Y-98278571D01*
X120567857Y-98321428D01*
X120653571Y-98364285D01*
X120739286Y-98364285D01*
X120867857Y-98321428D01*
X121382143Y-97807142D01*
X121382143Y-98364285D01*
X120482143Y-98921428D02*
X120482143Y-99007143D01*
X120525000Y-99092857D01*
X120567857Y-99135714D01*
X120653571Y-99178571D01*
X120825000Y-99221428D01*
X121039286Y-99221428D01*
X121210714Y-99178571D01*
X121296429Y-99135714D01*
X121339286Y-99092857D01*
X121382143Y-99007143D01*
X121382143Y-98921428D01*
X121339286Y-98835714D01*
X121296429Y-98792857D01*
X121210714Y-98750000D01*
X121039286Y-98707143D01*
X120825000Y-98707143D01*
X120653571Y-98750000D01*
X120567857Y-98792857D01*
X120525000Y-98835714D01*
X120482143Y-98921428D01*
X121382143Y-100078571D02*
X121382143Y-99564286D01*
X121382143Y-99821428D02*
X120482143Y-99821428D01*
X120610714Y-99735714D01*
X120696429Y-99650000D01*
X120739286Y-99564286D01*
X120482143Y-100378571D02*
X120482143Y-100978571D01*
X121382143Y-100592857D01*
X121039286Y-101321429D02*
X121039286Y-102007143D01*
X120482143Y-102607143D02*
X120482143Y-102692858D01*
X120525000Y-102778572D01*
X120567857Y-102821429D01*
X120653571Y-102864286D01*
X120825000Y-102907143D01*
X121039286Y-102907143D01*
X121210714Y-102864286D01*
X121296429Y-102821429D01*
X121339286Y-102778572D01*
X121382143Y-102692858D01*
X121382143Y-102607143D01*
X121339286Y-102521429D01*
X121296429Y-102478572D01*
X121210714Y-102435715D01*
X121039286Y-102392858D01*
X120825000Y-102392858D01*
X120653571Y-102435715D01*
X120567857Y-102478572D01*
X120525000Y-102521429D01*
X120482143Y-102607143D01*
X120867857Y-103421429D02*
X120825000Y-103335715D01*
X120782143Y-103292858D01*
X120696429Y-103250001D01*
X120653571Y-103250001D01*
X120567857Y-103292858D01*
X120525000Y-103335715D01*
X120482143Y-103421429D01*
X120482143Y-103592858D01*
X120525000Y-103678572D01*
X120567857Y-103721429D01*
X120653571Y-103764286D01*
X120696429Y-103764286D01*
X120782143Y-103721429D01*
X120825000Y-103678572D01*
X120867857Y-103592858D01*
X120867857Y-103421429D01*
X120910714Y-103335715D01*
X120953571Y-103292858D01*
X121039286Y-103250001D01*
X121210714Y-103250001D01*
X121296429Y-103292858D01*
X121339286Y-103335715D01*
X121382143Y-103421429D01*
X121382143Y-103592858D01*
X121339286Y-103678572D01*
X121296429Y-103721429D01*
X121210714Y-103764286D01*
X121039286Y-103764286D01*
X120953571Y-103721429D01*
X120910714Y-103678572D01*
X120867857Y-103592858D01*
X121039286Y-104150001D02*
X121039286Y-104835715D01*
X120567857Y-105221430D02*
X120525000Y-105264287D01*
X120482143Y-105350001D01*
X120482143Y-105564287D01*
X120525000Y-105650001D01*
X120567857Y-105692858D01*
X120653571Y-105735715D01*
X120739286Y-105735715D01*
X120867857Y-105692858D01*
X121382143Y-105178572D01*
X121382143Y-105735715D01*
X120867857Y-106250001D02*
X120825000Y-106164287D01*
X120782143Y-106121430D01*
X120696429Y-106078573D01*
X120653571Y-106078573D01*
X120567857Y-106121430D01*
X120525000Y-106164287D01*
X120482143Y-106250001D01*
X120482143Y-106421430D01*
X120525000Y-106507144D01*
X120567857Y-106550001D01*
X120653571Y-106592858D01*
X120696429Y-106592858D01*
X120782143Y-106550001D01*
X120825000Y-106507144D01*
X120867857Y-106421430D01*
X120867857Y-106250001D01*
X120910714Y-106164287D01*
X120953571Y-106121430D01*
X121039286Y-106078573D01*
X121210714Y-106078573D01*
X121296429Y-106121430D01*
X121339286Y-106164287D01*
X121382143Y-106250001D01*
X121382143Y-106421430D01*
X121339286Y-106507144D01*
X121296429Y-106550001D01*
X121210714Y-106592858D01*
X121039286Y-106592858D01*
X120953571Y-106550001D01*
X120910714Y-106507144D01*
X120867857Y-106421430D01*
X122032143Y-88914286D02*
X122032143Y-89428572D01*
X122932143Y-89171429D02*
X122032143Y-89171429D01*
X122932143Y-89857143D02*
X122889286Y-89771429D01*
X122846429Y-89728572D01*
X122760714Y-89685715D01*
X122503571Y-89685715D01*
X122417857Y-89728572D01*
X122375000Y-89771429D01*
X122332143Y-89857143D01*
X122332143Y-89985715D01*
X122375000Y-90071429D01*
X122417857Y-90114286D01*
X122503571Y-90157143D01*
X122760714Y-90157143D01*
X122846429Y-90114286D01*
X122889286Y-90071429D01*
X122932143Y-89985715D01*
X122932143Y-89857143D01*
X122932143Y-90542858D02*
X122332143Y-90542858D01*
X122417857Y-90542858D02*
X122375000Y-90585715D01*
X122332143Y-90671429D01*
X122332143Y-90800001D01*
X122375000Y-90885715D01*
X122460714Y-90928572D01*
X122932143Y-90928572D01*
X122460714Y-90928572D02*
X122375000Y-90971429D01*
X122332143Y-91057143D01*
X122332143Y-91185715D01*
X122375000Y-91271429D01*
X122460714Y-91314286D01*
X122932143Y-91314286D01*
X122932143Y-92128572D02*
X122460714Y-92128572D01*
X122375000Y-92085715D01*
X122332143Y-92000001D01*
X122332143Y-91828572D01*
X122375000Y-91742858D01*
X122889286Y-92128572D02*
X122932143Y-92042858D01*
X122932143Y-91828572D01*
X122889286Y-91742858D01*
X122803571Y-91700001D01*
X122717857Y-91700001D01*
X122632143Y-91742858D01*
X122589286Y-91828572D01*
X122589286Y-92042858D01*
X122546429Y-92128572D01*
X122889286Y-92514287D02*
X122932143Y-92600001D01*
X122932143Y-92771429D01*
X122889286Y-92857144D01*
X122803571Y-92900001D01*
X122760714Y-92900001D01*
X122675000Y-92857144D01*
X122632143Y-92771429D01*
X122632143Y-92642858D01*
X122589286Y-92557144D01*
X122503571Y-92514287D01*
X122460714Y-92514287D01*
X122375000Y-92557144D01*
X122332143Y-92642858D01*
X122332143Y-92771429D01*
X122375000Y-92857144D01*
X122932143Y-93971429D02*
X122032143Y-93971429D01*
X122460714Y-93971429D02*
X122460714Y-94485714D01*
X122932143Y-94485714D02*
X122032143Y-94485714D01*
X122932143Y-95300000D02*
X122460714Y-95300000D01*
X122375000Y-95257143D01*
X122332143Y-95171429D01*
X122332143Y-95000000D01*
X122375000Y-94914286D01*
X122889286Y-95300000D02*
X122932143Y-95214286D01*
X122932143Y-95000000D01*
X122889286Y-94914286D01*
X122803571Y-94871429D01*
X122717857Y-94871429D01*
X122632143Y-94914286D01*
X122589286Y-95000000D01*
X122589286Y-95214286D01*
X122546429Y-95300000D01*
X122032143Y-94914286D02*
X122075000Y-94957143D01*
X122117857Y-94914286D01*
X122075000Y-94871429D01*
X122032143Y-94914286D01*
X122117857Y-94914286D01*
X122032143Y-95257143D02*
X122075000Y-95300000D01*
X122117857Y-95257143D01*
X122075000Y-95214286D01*
X122032143Y-95257143D01*
X122117857Y-95257143D01*
X122932143Y-95728572D02*
X122332143Y-95728572D01*
X122503571Y-95728572D02*
X122417857Y-95771429D01*
X122375000Y-95814286D01*
X122332143Y-95900000D01*
X122332143Y-95985715D01*
X122932143Y-96671429D02*
X122032143Y-96671429D01*
X122889286Y-96671429D02*
X122932143Y-96585715D01*
X122932143Y-96414286D01*
X122889286Y-96328572D01*
X122846429Y-96285715D01*
X122760714Y-96242858D01*
X122503571Y-96242858D01*
X122417857Y-96285715D01*
X122375000Y-96328572D01*
X122332143Y-96414286D01*
X122332143Y-96585715D01*
X122375000Y-96671429D01*
X122932143Y-97100001D02*
X122332143Y-97100001D01*
X122032143Y-97100001D02*
X122075000Y-97057144D01*
X122117857Y-97100001D01*
X122075000Y-97142858D01*
X122032143Y-97100001D01*
X122117857Y-97100001D01*
X122332143Y-97528572D02*
X122932143Y-97528572D01*
X122417857Y-97528572D02*
X122375000Y-97571429D01*
X122332143Y-97657143D01*
X122332143Y-97785715D01*
X122375000Y-97871429D01*
X122460714Y-97914286D01*
X122932143Y-97914286D01*
X122889286Y-98385715D02*
X122932143Y-98385715D01*
X123017857Y-98342858D01*
X123060714Y-98300001D01*
X122460714Y-99757143D02*
X122503571Y-99885714D01*
X122546429Y-99928571D01*
X122632143Y-99971428D01*
X122760714Y-99971428D01*
X122846429Y-99928571D01*
X122889286Y-99885714D01*
X122932143Y-99800000D01*
X122932143Y-99457143D01*
X122032143Y-99457143D01*
X122032143Y-99757143D01*
X122075000Y-99842857D01*
X122117857Y-99885714D01*
X122203571Y-99928571D01*
X122289286Y-99928571D01*
X122375000Y-99885714D01*
X122417857Y-99842857D01*
X122460714Y-99757143D01*
X122460714Y-99457143D01*
X122889286Y-100700000D02*
X122932143Y-100614286D01*
X122932143Y-100442857D01*
X122889286Y-100357143D01*
X122803571Y-100314286D01*
X122460714Y-100314286D01*
X122375000Y-100357143D01*
X122332143Y-100442857D01*
X122332143Y-100614286D01*
X122375000Y-100700000D01*
X122460714Y-100742857D01*
X122546429Y-100742857D01*
X122632143Y-100314286D01*
X122332143Y-101128572D02*
X122932143Y-101128572D01*
X122417857Y-101128572D02*
X122375000Y-101171429D01*
X122332143Y-101257143D01*
X122332143Y-101385715D01*
X122375000Y-101471429D01*
X122460714Y-101514286D01*
X122932143Y-101514286D01*
X122332143Y-101942858D02*
X123103571Y-101942858D01*
X123189286Y-101900001D01*
X123232143Y-101814286D01*
X123232143Y-101771429D01*
X122032143Y-101942858D02*
X122075000Y-101900001D01*
X122117857Y-101942858D01*
X122075000Y-101985715D01*
X122032143Y-101942858D01*
X122117857Y-101942858D01*
X122932143Y-102757143D02*
X122460714Y-102757143D01*
X122375000Y-102714286D01*
X122332143Y-102628572D01*
X122332143Y-102457143D01*
X122375000Y-102371429D01*
X122889286Y-102757143D02*
X122932143Y-102671429D01*
X122932143Y-102457143D01*
X122889286Y-102371429D01*
X122803571Y-102328572D01*
X122717857Y-102328572D01*
X122632143Y-102371429D01*
X122589286Y-102457143D01*
X122589286Y-102671429D01*
X122546429Y-102757143D01*
X122932143Y-103185715D02*
X122332143Y-103185715D01*
X122417857Y-103185715D02*
X122375000Y-103228572D01*
X122332143Y-103314286D01*
X122332143Y-103442858D01*
X122375000Y-103528572D01*
X122460714Y-103571429D01*
X122932143Y-103571429D01*
X122460714Y-103571429D02*
X122375000Y-103614286D01*
X122332143Y-103700000D01*
X122332143Y-103828572D01*
X122375000Y-103914286D01*
X122460714Y-103957143D01*
X122932143Y-103957143D01*
X122932143Y-104385715D02*
X122332143Y-104385715D01*
X122032143Y-104385715D02*
X122075000Y-104342858D01*
X122117857Y-104385715D01*
X122075000Y-104428572D01*
X122032143Y-104385715D01*
X122117857Y-104385715D01*
X122332143Y-104814286D02*
X122932143Y-104814286D01*
X122417857Y-104814286D02*
X122375000Y-104857143D01*
X122332143Y-104942857D01*
X122332143Y-105071429D01*
X122375000Y-105157143D01*
X122460714Y-105200000D01*
X122932143Y-105200000D01*
X122932143Y-106314286D02*
X122032143Y-106314286D01*
X122932143Y-106828571D01*
X122032143Y-106828571D01*
X122932143Y-107642857D02*
X122460714Y-107642857D01*
X122375000Y-107600000D01*
X122332143Y-107514286D01*
X122332143Y-107342857D01*
X122375000Y-107257143D01*
X122889286Y-107642857D02*
X122932143Y-107557143D01*
X122932143Y-107342857D01*
X122889286Y-107257143D01*
X122803571Y-107214286D01*
X122717857Y-107214286D01*
X122632143Y-107257143D01*
X122589286Y-107342857D01*
X122589286Y-107557143D01*
X122546429Y-107642857D01*
X122332143Y-108457143D02*
X122932143Y-108457143D01*
X122332143Y-108071429D02*
X122803571Y-108071429D01*
X122889286Y-108114286D01*
X122932143Y-108200000D01*
X122932143Y-108328572D01*
X122889286Y-108414286D01*
X122846429Y-108457143D01*
X122889286Y-109271429D02*
X122932143Y-109185715D01*
X122932143Y-109014286D01*
X122889286Y-108928572D01*
X122846429Y-108885715D01*
X122760714Y-108842858D01*
X122503571Y-108842858D01*
X122417857Y-108885715D01*
X122375000Y-108928572D01*
X122332143Y-109014286D01*
X122332143Y-109185715D01*
X122375000Y-109271429D01*
X122932143Y-109657144D02*
X122032143Y-109657144D01*
X122589286Y-109742858D02*
X122932143Y-110000001D01*
X122332143Y-110000001D02*
X122675000Y-109657144D01*
D12*
X80960000Y-89960000D03*
D13*
X83500000Y-89960000D03*
X80960000Y-92500000D03*
X83500000Y-92500000D03*
X80960000Y-95040000D03*
X83500000Y-95040000D03*
X80960000Y-97580000D03*
X83500000Y-97580000D03*
D12*
X83500000Y-110330000D03*
D13*
X80960000Y-110330000D03*
X83500000Y-107790000D03*
X80960000Y-107790000D03*
X83500000Y-105250000D03*
X80960000Y-105250000D03*
X83500000Y-102710000D03*
X80960000Y-102710000D03*
X83500000Y-100170000D03*
X80960000Y-100170000D03*
D14*
X104290000Y-82250000D03*
D15*
X101750000Y-82250000D03*
D14*
X95710000Y-82250000D03*
D15*
X98250000Y-82250000D03*
D16*
X67000000Y-72000000D03*
X67000000Y-70730000D03*
X68270000Y-72000000D03*
X68270000Y-70730000D03*
X69540000Y-72000000D03*
X69540000Y-70730000D03*
X70810000Y-72000000D03*
X70810000Y-70730000D03*
X72080000Y-72000000D03*
X72080000Y-70730000D03*
X73350000Y-72000000D03*
X73350000Y-70730000D03*
X74620000Y-72000000D03*
X74620000Y-70730000D03*
X75890000Y-72000000D03*
X75890000Y-70730000D03*
X77160000Y-72000000D03*
X77160000Y-70730000D03*
X78430000Y-72000000D03*
X78430000Y-70730000D03*
X79700000Y-72000000D03*
X79700000Y-70730000D03*
X80970000Y-72000000D03*
X80970000Y-70730000D03*
X80970000Y-128000000D03*
X80970000Y-129270000D03*
X79700000Y-128000000D03*
X79700000Y-129270000D03*
X78430000Y-128000000D03*
X78430000Y-129270000D03*
X77160000Y-128000000D03*
X77160000Y-129270000D03*
X75890000Y-128000000D03*
X75890000Y-129270000D03*
X74620000Y-128000000D03*
X74620000Y-129270000D03*
X73350000Y-128000000D03*
X73350000Y-129270000D03*
X72080000Y-128000000D03*
X72080000Y-129270000D03*
X70810000Y-128000000D03*
X70810000Y-129270000D03*
X69540000Y-128000000D03*
X69540000Y-129270000D03*
X68270000Y-128000000D03*
X68270000Y-129270000D03*
X67000000Y-128000000D03*
X67000000Y-129270000D03*
D17*
X88050000Y-78750000D03*
X89950000Y-78750000D03*
X87050000Y-81500000D03*
X88950000Y-81500000D03*
X65050000Y-74750000D03*
X66950000Y-74750000D03*
X66050000Y-77000000D03*
X67950000Y-77000000D03*
D16*
X85750002Y-130000000D03*
X86750000Y-129000000D03*
X89828246Y-129928236D03*
X90749990Y-128900000D03*
X91100000Y-78700000D03*
X90100000Y-81500000D03*
X75800000Y-90500000D03*
D18*
X73900011Y-110300000D03*
X76400000Y-101800000D03*
D16*
X93400000Y-127700000D03*
D18*
X72350000Y-113950000D03*
X73950002Y-112300000D03*
X77500000Y-107000000D03*
X71400000Y-111550000D03*
X73900000Y-111400004D03*
X77199998Y-104300000D03*
D16*
X74100011Y-108500000D03*
X75600000Y-100200000D03*
D19*
X85821766Y-129928236D02*
X85750002Y-130000000D01*
X89828246Y-129928236D02*
X85821766Y-129928236D01*
X86850000Y-128900000D02*
X86750000Y-129000000D01*
X90749990Y-128900000D02*
X86850000Y-128900000D01*
X89950000Y-78750000D02*
X91050000Y-78750000D01*
X91050000Y-78750000D02*
X91100000Y-78700000D01*
X88950000Y-81500000D02*
X90100000Y-81500000D01*
X75890000Y-129270000D02*
X77160000Y-129270000D01*
X74620000Y-129270000D02*
X75890000Y-129270000D01*
X74620000Y-128000000D02*
X74620000Y-129270000D01*
X75890000Y-70730000D02*
X77160000Y-70730000D01*
X74620000Y-70730000D02*
X75890000Y-70730000D01*
X74620000Y-72000000D02*
X74620000Y-70730000D01*
D20*
X80960000Y-97580000D02*
X75800000Y-92420000D01*
X75800000Y-92420000D02*
X75800000Y-90500000D01*
D19*
X75890000Y-128000000D02*
X75890000Y-126890000D01*
X75890000Y-126890000D02*
X72250000Y-123250000D01*
X72250000Y-123250000D02*
X72250000Y-115500000D01*
X72250000Y-115500000D02*
X75100000Y-112650000D01*
X75100000Y-112650000D02*
X75100000Y-111499989D01*
X75100000Y-111499989D02*
X74200010Y-110599999D01*
X74200010Y-110599999D02*
X73900011Y-110300000D01*
X72250000Y-108649989D02*
X73600012Y-110000001D01*
X75890000Y-72000000D02*
X75890000Y-72707106D01*
X75890000Y-72707106D02*
X72250000Y-76347106D01*
X72250000Y-76347106D02*
X72250000Y-108649989D01*
X73600012Y-110000001D02*
X73900011Y-110300000D01*
D21*
X80960000Y-105250000D02*
X77510000Y-101800000D01*
X77510000Y-101800000D02*
X76824264Y-101800000D01*
X76824264Y-101800000D02*
X76400000Y-101800000D01*
D19*
X93400000Y-127700000D02*
X86550000Y-127700000D01*
X86550000Y-127700000D02*
X82950000Y-131300000D01*
X82950000Y-131300000D02*
X70862894Y-131300000D01*
X70862894Y-131300000D02*
X69540000Y-129977106D01*
X69540000Y-129977106D02*
X69540000Y-129270000D01*
X93300000Y-127700000D02*
X93400000Y-127700000D01*
X73650003Y-112599999D02*
X73950002Y-112300000D01*
X71500000Y-126600000D02*
X71500000Y-114750002D01*
X72080000Y-128000000D02*
X72080000Y-127180000D01*
X72080000Y-127180000D02*
X71500000Y-126600000D01*
X71500000Y-114750002D02*
X73650003Y-112599999D01*
D21*
X80960000Y-110330000D02*
X77630000Y-107000000D01*
X77630000Y-107000000D02*
X77500000Y-107000000D01*
X71549996Y-111400004D02*
X71400000Y-111550000D01*
X73900000Y-111400004D02*
X71549996Y-111400004D01*
X80960000Y-107790000D02*
X77470000Y-104300000D01*
X77470000Y-104300000D02*
X77199998Y-104300000D01*
D19*
X77160000Y-128000000D02*
X77160000Y-126910000D01*
X77160000Y-126910000D02*
X73300000Y-123050000D01*
X76000000Y-110399989D02*
X74600010Y-108999999D01*
X73300000Y-123050000D02*
X73300000Y-115750000D01*
X73300000Y-115750000D02*
X76000000Y-113050000D01*
X76000000Y-113050000D02*
X76000000Y-110399989D01*
X74600010Y-108999999D02*
X74100011Y-108500000D01*
X73000000Y-76867106D02*
X73000000Y-107399989D01*
X73000000Y-107399989D02*
X73600012Y-108000001D01*
X77160000Y-72707106D02*
X73000000Y-76867106D01*
X77160000Y-72000000D02*
X77160000Y-72707106D01*
X73600012Y-108000001D02*
X74100011Y-108500000D01*
X80960000Y-100170000D02*
X75630000Y-100170000D01*
X75630000Y-100170000D02*
X75600000Y-100200000D01*
X70750000Y-112010002D02*
X70750000Y-120650000D01*
X67000000Y-127292894D02*
X67000000Y-128000000D01*
X70649999Y-111189999D02*
X70649999Y-111910001D01*
X70750000Y-78950000D02*
X70750000Y-111089998D01*
X70750000Y-111089998D02*
X70649999Y-111189999D01*
X68800000Y-77000000D02*
X70750000Y-78950000D01*
X67950000Y-77000000D02*
X68800000Y-77000000D01*
X70750000Y-120650000D02*
X67000000Y-124400000D01*
X67000000Y-124400000D02*
X67000000Y-127292894D01*
X70649999Y-111910001D02*
X70750000Y-112010002D01*
X67000000Y-72707106D02*
X67950000Y-73657106D01*
X67950000Y-73657106D02*
X67950000Y-77000000D01*
X67000000Y-72000000D02*
X67000000Y-72707106D01*
X87050000Y-81500000D02*
X87050000Y-82950000D01*
X83000000Y-87000000D02*
X76500000Y-87000000D01*
X87000000Y-117200000D02*
X87000000Y-122900000D01*
X87050000Y-82950000D02*
X83000000Y-87000000D01*
X76500000Y-87000000D02*
X73750000Y-89750000D01*
X73750000Y-89750000D02*
X73750000Y-106650000D01*
X80350000Y-113250000D02*
X83050000Y-113250000D01*
X73750000Y-106650000D02*
X80350000Y-113250000D01*
X83050000Y-113250000D02*
X87000000Y-117200000D01*
X87000000Y-122900000D02*
X81900000Y-128000000D01*
X81900000Y-128000000D02*
X80970000Y-128000000D01*
X80970000Y-72000000D02*
X81469999Y-72499999D01*
X81469999Y-72499999D02*
X82499999Y-72499999D01*
X82499999Y-72499999D02*
X87050000Y-77050000D01*
X87050000Y-77050000D02*
X87050000Y-81500000D01*
X66292894Y-129270000D02*
X67000000Y-129270000D01*
X69949988Y-110900045D02*
X69949988Y-112199955D01*
X65750000Y-128727106D02*
X66292894Y-129270000D01*
X65750000Y-124250000D02*
X65750000Y-128727106D01*
X70000000Y-120000000D02*
X65750000Y-124250000D01*
X70000000Y-79750000D02*
X70000000Y-110850033D01*
X70000000Y-112249967D02*
X70000000Y-120000000D01*
X69949988Y-112199955D02*
X70000000Y-112249967D01*
X69250000Y-79000000D02*
X70000000Y-79750000D01*
X68139998Y-79000000D02*
X69250000Y-79000000D01*
X66950000Y-74750000D02*
X66950000Y-77810002D01*
X70000000Y-110850033D02*
X69949988Y-110900045D01*
X66950000Y-77810002D02*
X68139998Y-79000000D01*
X67000000Y-70730000D02*
X66292894Y-70730000D01*
X65750000Y-73250000D02*
X66950000Y-74450000D01*
X66292894Y-70730000D02*
X65750000Y-71272894D01*
X65750000Y-71272894D02*
X65750000Y-73250000D01*
X66950000Y-74450000D02*
X66950000Y-74750000D01*
X88050000Y-78750000D02*
X88050000Y-83450000D01*
X81730000Y-129270000D02*
X81677106Y-129270000D01*
X88050000Y-83450000D02*
X83500000Y-88000000D01*
X74500000Y-106100000D02*
X80650000Y-112250000D01*
X80650000Y-112250000D02*
X83350000Y-112250000D01*
X83500000Y-88000000D02*
X76893996Y-88000000D01*
X76893996Y-88000000D02*
X74500000Y-90393996D01*
X74500000Y-90393996D02*
X74500000Y-106100000D01*
X83350000Y-112250000D02*
X88000000Y-116900000D01*
X81677106Y-129270000D02*
X80970000Y-129270000D01*
X88000000Y-116900000D02*
X88000000Y-123000000D01*
X88000000Y-123000000D02*
X81730000Y-129270000D01*
X80970000Y-70730000D02*
X82230000Y-70730000D01*
X82230000Y-70730000D02*
X88050000Y-76550000D01*
X88050000Y-76550000D02*
X88050000Y-78750000D01*
D22*
G36*
X95491460Y-67813510D02*
X95908100Y-68091900D01*
X96186490Y-68508541D01*
X96298000Y-69069139D01*
X96298000Y-72000000D01*
X96311489Y-72067813D01*
X96311489Y-72136953D01*
X96463730Y-72902320D01*
X96485496Y-72954867D01*
X96568549Y-73155377D01*
X97002094Y-73804224D01*
X97195776Y-73997906D01*
X97844623Y-74431451D01*
X98097680Y-74536270D01*
X98863046Y-74688511D01*
X98932187Y-74688511D01*
X99000000Y-74702000D01*
X119930861Y-74702000D01*
X122022194Y-75117992D01*
X123736527Y-76263473D01*
X124882008Y-77977806D01*
X125298000Y-80069139D01*
X125298000Y-119930861D01*
X124882008Y-122022194D01*
X123736527Y-123736527D01*
X122022194Y-124882008D01*
X119930861Y-125298000D01*
X99000000Y-125298000D01*
X98932187Y-125311489D01*
X98863046Y-125311489D01*
X98097680Y-125463730D01*
X97844623Y-125568549D01*
X97195776Y-126002094D01*
X97002094Y-126195776D01*
X96568549Y-126844623D01*
X96521885Y-126957281D01*
X96463730Y-127097680D01*
X96311489Y-127863047D01*
X96311489Y-127932187D01*
X96298000Y-128000000D01*
X96298000Y-130930861D01*
X96186490Y-131491459D01*
X95908100Y-131908100D01*
X95491460Y-132186490D01*
X94930861Y-132298000D01*
X68069139Y-132298000D01*
X66360490Y-131958129D01*
X64970580Y-131029420D01*
X64041871Y-129639509D01*
X63702000Y-127930861D01*
X63702000Y-122069139D01*
X63813510Y-121508540D01*
X64091900Y-121091900D01*
X64508541Y-120813510D01*
X65069139Y-120702000D01*
X67000000Y-120702000D01*
X67067813Y-120688511D01*
X67136953Y-120688511D01*
X67902320Y-120536270D01*
X67998601Y-120496389D01*
X68155377Y-120431451D01*
X68676459Y-120083275D01*
X65129867Y-123629867D01*
X64939758Y-123914387D01*
X64873000Y-124250000D01*
X64873000Y-128727106D01*
X64939758Y-129062719D01*
X65129867Y-129347239D01*
X65672761Y-129890133D01*
X65957281Y-130080242D01*
X66280600Y-130144555D01*
X66360772Y-130224867D01*
X66774842Y-130396804D01*
X67223191Y-130397195D01*
X67635502Y-130226831D01*
X68044842Y-130396804D01*
X68493191Y-130397195D01*
X68727319Y-130300455D01*
X68729758Y-130312719D01*
X68919867Y-130597239D01*
X70242759Y-131920130D01*
X70242761Y-131920133D01*
X70415731Y-132035707D01*
X70527281Y-132110242D01*
X70862894Y-132177001D01*
X70862899Y-132177000D01*
X82950000Y-132177000D01*
X83285613Y-132110242D01*
X83570133Y-131920133D01*
X84823338Y-130666928D01*
X85110774Y-130954867D01*
X85524844Y-131126804D01*
X85973193Y-131127195D01*
X86387562Y-130955981D01*
X86538571Y-130805236D01*
X89111287Y-130805236D01*
X89189018Y-130883103D01*
X89603088Y-131055040D01*
X90051437Y-131055431D01*
X90465806Y-130884217D01*
X90783113Y-130567464D01*
X90955050Y-130153394D01*
X90955160Y-130027179D01*
X90973181Y-130027195D01*
X91387550Y-129855981D01*
X91704857Y-129539228D01*
X91876794Y-129125158D01*
X91877185Y-128676809D01*
X91835945Y-128577000D01*
X92683041Y-128577000D01*
X92760772Y-128654867D01*
X93174842Y-128826804D01*
X93623191Y-128827195D01*
X94037560Y-128655981D01*
X94354867Y-128339228D01*
X94526804Y-127925158D01*
X94527195Y-127476809D01*
X94355981Y-127062440D01*
X94039228Y-126745133D01*
X93625158Y-126573196D01*
X93176809Y-126572805D01*
X92762440Y-126744019D01*
X92683321Y-126823000D01*
X86550005Y-126823000D01*
X86550000Y-126822999D01*
X86214387Y-126889758D01*
X85929867Y-127079867D01*
X82586734Y-130423000D01*
X71226159Y-130423000D01*
X70941255Y-130138096D01*
X71073899Y-130124353D01*
X71227513Y-130060723D01*
X71278660Y-129918265D01*
X71611340Y-129918265D01*
X71662487Y-130060723D01*
X71996864Y-130160308D01*
X72343899Y-130124353D01*
X72497513Y-130060723D01*
X72548660Y-129918265D01*
X72080000Y-129449605D01*
X71611340Y-129918265D01*
X71278660Y-129918265D01*
X70810000Y-129449605D01*
X70795858Y-129463748D01*
X70666944Y-129334834D01*
X70667057Y-129205053D01*
X70745166Y-129126944D01*
X70874947Y-129127057D01*
X71003748Y-129255858D01*
X70989605Y-129270000D01*
X71222427Y-129502822D01*
X71225647Y-129533899D01*
X71289277Y-129687513D01*
X71431735Y-129738660D01*
X71445000Y-129725395D01*
X71458265Y-129738660D01*
X71600723Y-129687513D01*
X71650704Y-129519691D01*
X71900395Y-129270000D01*
X71886253Y-129255858D01*
X72015166Y-129126944D01*
X72144947Y-129127057D01*
X72273748Y-129255858D01*
X72259605Y-129270000D01*
X72492427Y-129502822D01*
X72495647Y-129533899D01*
X72559277Y-129687513D01*
X72701735Y-129738660D01*
X72715000Y-129725395D01*
X72728265Y-129738660D01*
X72870723Y-129687513D01*
X72920704Y-129519691D01*
X73170395Y-129270000D01*
X73156253Y-129255858D01*
X73335858Y-129076253D01*
X73350000Y-129090395D01*
X73364143Y-129076253D01*
X73493056Y-129205166D01*
X73492943Y-129334947D01*
X73364143Y-129463748D01*
X73350000Y-129449605D01*
X72881340Y-129918265D01*
X72932487Y-130060723D01*
X73266864Y-130160308D01*
X73613899Y-130124353D01*
X73767513Y-130060723D01*
X73780581Y-130024326D01*
X73980772Y-130224867D01*
X74394842Y-130396804D01*
X74843191Y-130397195D01*
X75255502Y-130226831D01*
X75664842Y-130396804D01*
X76113191Y-130397195D01*
X76525502Y-130226831D01*
X76934842Y-130396804D01*
X77383191Y-130397195D01*
X77795502Y-130226831D01*
X78204842Y-130396804D01*
X78653191Y-130397195D01*
X79065502Y-130226831D01*
X79474842Y-130396804D01*
X79923191Y-130397195D01*
X80335502Y-130226831D01*
X80744842Y-130396804D01*
X81193191Y-130397195D01*
X81607560Y-130225981D01*
X81686679Y-130147000D01*
X81730000Y-130147000D01*
X82065613Y-130080242D01*
X82350133Y-129890133D01*
X88620133Y-123620133D01*
X88810242Y-123335613D01*
X88877000Y-123000000D01*
X88877000Y-120718290D01*
X116372372Y-120718290D01*
X116923386Y-122051846D01*
X117942787Y-123073028D01*
X119275380Y-123626369D01*
X120718290Y-123627628D01*
X122051846Y-123076614D01*
X123073028Y-122057213D01*
X123626369Y-120724620D01*
X123627628Y-119281710D01*
X123076614Y-117948154D01*
X122057213Y-116926972D01*
X120724620Y-116373631D01*
X119281710Y-116372372D01*
X117948154Y-116923386D01*
X116926972Y-117942787D01*
X116373631Y-119275380D01*
X116372372Y-120718290D01*
X88877000Y-120718290D01*
X88877000Y-116900000D01*
X88810242Y-116564387D01*
X88620133Y-116279867D01*
X84173149Y-111832883D01*
X84363600Y-111832883D01*
X84595952Y-111789163D01*
X84809353Y-111651843D01*
X84952517Y-111442317D01*
X85002883Y-111193600D01*
X85002883Y-109466400D01*
X84959163Y-109234048D01*
X84821843Y-109020647D01*
X84612317Y-108877483D01*
X84551543Y-108865176D01*
X84583216Y-108844013D01*
X84906338Y-108360428D01*
X85019803Y-107790000D01*
X84906338Y-107219572D01*
X84583216Y-106735987D01*
X84259969Y-106520000D01*
X84583216Y-106304013D01*
X84906338Y-105820428D01*
X84976617Y-105467109D01*
X85572694Y-108463787D01*
X85677513Y-108716844D01*
X87845240Y-111961079D01*
X87951161Y-112066999D01*
X88038922Y-112154760D01*
X91283156Y-114322487D01*
X91536213Y-114427306D01*
X95363046Y-115188511D01*
X95432187Y-115188511D01*
X95500000Y-115202000D01*
X104500000Y-115202000D01*
X104567813Y-115188511D01*
X104636953Y-115188511D01*
X108463787Y-114427306D01*
X108716844Y-114322487D01*
X111961079Y-112154760D01*
X112154760Y-111961078D01*
X114322487Y-108716844D01*
X114427306Y-108463787D01*
X115188511Y-104636954D01*
X115188511Y-104567813D01*
X115202000Y-104500000D01*
X115202000Y-95500000D01*
X115188511Y-95432187D01*
X115188511Y-95363046D01*
X114427306Y-91536213D01*
X114394073Y-91455981D01*
X114322487Y-91283156D01*
X112263439Y-88201571D01*
X119618000Y-88201571D01*
X119618000Y-110798428D01*
X123972000Y-110798428D01*
X123972000Y-88201571D01*
X119618000Y-88201571D01*
X112263439Y-88201571D01*
X112154760Y-88038922D01*
X112115838Y-88000000D01*
X111961079Y-87845240D01*
X108716844Y-85677513D01*
X108463787Y-85572694D01*
X104636953Y-84811489D01*
X104567813Y-84811489D01*
X104500000Y-84798000D01*
X95500000Y-84798000D01*
X95432187Y-84811489D01*
X95363046Y-84811489D01*
X91536213Y-85572694D01*
X91283156Y-85677513D01*
X88038922Y-87845240D01*
X87845240Y-88038921D01*
X85677513Y-91283156D01*
X85605927Y-91455981D01*
X85572694Y-91536213D01*
X84947775Y-94677891D01*
X84906338Y-94469572D01*
X84583216Y-93985987D01*
X84259969Y-93770000D01*
X84583216Y-93554013D01*
X84906338Y-93070428D01*
X85019803Y-92500000D01*
X84906338Y-91929572D01*
X84583216Y-91445987D01*
X84099631Y-91122865D01*
X83952079Y-91093515D01*
X84253097Y-90945881D01*
X84573051Y-90582638D01*
X84699021Y-90278489D01*
X84639293Y-90087000D01*
X83627000Y-90087000D01*
X83627000Y-90107000D01*
X83373000Y-90107000D01*
X83373000Y-90087000D01*
X82360707Y-90087000D01*
X82300979Y-90278489D01*
X82426949Y-90582638D01*
X82746903Y-90945881D01*
X83047921Y-91093515D01*
X82900369Y-91122865D01*
X82416784Y-91445987D01*
X82230000Y-91725528D01*
X82043216Y-91445987D01*
X81675969Y-91200600D01*
X81898590Y-91200600D01*
X82037153Y-91143205D01*
X82143205Y-91037153D01*
X82200600Y-90898590D01*
X82200600Y-90181250D01*
X82106350Y-90087000D01*
X81087000Y-90087000D01*
X81087000Y-90107000D01*
X80833000Y-90107000D01*
X80833000Y-90087000D01*
X79813650Y-90087000D01*
X79719400Y-90181250D01*
X79719400Y-90898590D01*
X79776795Y-91037153D01*
X79882847Y-91143205D01*
X80021410Y-91200600D01*
X80244031Y-91200600D01*
X79876784Y-91445987D01*
X79553662Y-91929572D01*
X79440197Y-92500000D01*
X79553662Y-93070428D01*
X79876784Y-93554013D01*
X80200031Y-93770000D01*
X79876784Y-93985987D01*
X79553662Y-94469572D01*
X79535367Y-94561549D01*
X76927000Y-91953182D01*
X76927000Y-90500000D01*
X76927195Y-90276809D01*
X76755981Y-89862440D01*
X76514113Y-89620149D01*
X77257261Y-88877000D01*
X79782642Y-88877000D01*
X79776795Y-88882847D01*
X79719400Y-89021410D01*
X79719400Y-89738750D01*
X79813650Y-89833000D01*
X80833000Y-89833000D01*
X80833000Y-89813000D01*
X81087000Y-89813000D01*
X81087000Y-89833000D01*
X82106350Y-89833000D01*
X82200600Y-89738750D01*
X82200600Y-89021410D01*
X82143205Y-88882847D01*
X82137358Y-88877000D01*
X82944924Y-88877000D01*
X82746903Y-88974119D01*
X82426949Y-89337362D01*
X82300979Y-89641511D01*
X82360707Y-89833000D01*
X83373000Y-89833000D01*
X83373000Y-89813000D01*
X83627000Y-89813000D01*
X83627000Y-89833000D01*
X84639293Y-89833000D01*
X84699021Y-89641511D01*
X84573051Y-89337362D01*
X84253097Y-88974119D01*
X83870894Y-88786668D01*
X84120133Y-88620133D01*
X84120134Y-88620132D01*
X88670130Y-84070135D01*
X88670133Y-84070133D01*
X88860242Y-83785613D01*
X88865289Y-83760242D01*
X88927001Y-83450000D01*
X88927000Y-83449995D01*
X88927000Y-82789283D01*
X89300000Y-82789283D01*
X89532352Y-82745563D01*
X89745753Y-82608243D01*
X89764404Y-82580946D01*
X89874842Y-82626804D01*
X90323191Y-82627195D01*
X90700606Y-82471250D01*
X94317000Y-82471250D01*
X94317000Y-83340990D01*
X94374395Y-83479553D01*
X94480447Y-83585605D01*
X94619010Y-83643000D01*
X95488750Y-83643000D01*
X95583000Y-83548750D01*
X95583000Y-82377000D01*
X94411250Y-82377000D01*
X94317000Y-82471250D01*
X90700606Y-82471250D01*
X90737560Y-82455981D01*
X91054867Y-82139228D01*
X91226804Y-81725158D01*
X91227195Y-81276809D01*
X91178522Y-81159010D01*
X94317000Y-81159010D01*
X94317000Y-82028750D01*
X94411250Y-82123000D01*
X95583000Y-82123000D01*
X95583000Y-80951250D01*
X95837000Y-80951250D01*
X95837000Y-82123000D01*
X95857000Y-82123000D01*
X95857000Y-82377000D01*
X95837000Y-82377000D01*
X95837000Y-83548750D01*
X95931250Y-83643000D01*
X96800990Y-83643000D01*
X96939553Y-83585605D01*
X97045605Y-83479553D01*
X97071015Y-83418209D01*
X97088224Y-83443964D01*
X97621251Y-83800122D01*
X98250000Y-83925188D01*
X98878749Y-83800122D01*
X99411776Y-83443964D01*
X99767934Y-82910937D01*
X99893000Y-82282188D01*
X99893000Y-82217812D01*
X100107000Y-82217812D01*
X100107000Y-82282188D01*
X100232066Y-82910937D01*
X100588224Y-83443964D01*
X101121251Y-83800122D01*
X101750000Y-83925188D01*
X102378749Y-83800122D01*
X102724123Y-83569350D01*
X102815757Y-83711753D01*
X103025283Y-83854917D01*
X103274000Y-83905283D01*
X105306000Y-83905283D01*
X105538352Y-83861563D01*
X105751753Y-83724243D01*
X105894917Y-83514717D01*
X105945283Y-83266000D01*
X105945283Y-81234000D01*
X105901563Y-81001648D01*
X105764243Y-80788247D01*
X105661859Y-80718290D01*
X116372372Y-80718290D01*
X116923386Y-82051846D01*
X117942787Y-83073028D01*
X119275380Y-83626369D01*
X120718290Y-83627628D01*
X122051846Y-83076614D01*
X123073028Y-82057213D01*
X123626369Y-80724620D01*
X123627628Y-79281710D01*
X123076614Y-77948154D01*
X122057213Y-76926972D01*
X120724620Y-76373631D01*
X119281710Y-76372372D01*
X117948154Y-76923386D01*
X116926972Y-77942787D01*
X116373631Y-79275380D01*
X116372372Y-80718290D01*
X105661859Y-80718290D01*
X105554717Y-80645083D01*
X105306000Y-80594717D01*
X103274000Y-80594717D01*
X103041648Y-80638437D01*
X102828247Y-80775757D01*
X102722949Y-80929865D01*
X102378749Y-80699878D01*
X101750000Y-80574812D01*
X101121251Y-80699878D01*
X100588224Y-81056036D01*
X100232066Y-81589063D01*
X100107000Y-82217812D01*
X99893000Y-82217812D01*
X99767934Y-81589063D01*
X99411776Y-81056036D01*
X98878749Y-80699878D01*
X98250000Y-80574812D01*
X97621251Y-80699878D01*
X97088224Y-81056036D01*
X97071015Y-81081791D01*
X97045605Y-81020447D01*
X96939553Y-80914395D01*
X96800990Y-80857000D01*
X95931250Y-80857000D01*
X95837000Y-80951250D01*
X95583000Y-80951250D01*
X95488750Y-80857000D01*
X94619010Y-80857000D01*
X94480447Y-80914395D01*
X94374395Y-81020447D01*
X94317000Y-81159010D01*
X91178522Y-81159010D01*
X91055981Y-80862440D01*
X90739228Y-80545133D01*
X90325158Y-80373196D01*
X89876809Y-80372805D01*
X89767163Y-80418110D01*
X89758243Y-80404247D01*
X89548717Y-80261083D01*
X89300000Y-80210717D01*
X88927000Y-80210717D01*
X88927000Y-79739335D01*
X88988917Y-79648717D01*
X88998558Y-79601108D01*
X89004437Y-79632352D01*
X89141757Y-79845753D01*
X89351283Y-79988917D01*
X89600000Y-80039283D01*
X90300000Y-80039283D01*
X90532352Y-79995563D01*
X90745753Y-79858243D01*
X90791017Y-79791997D01*
X90874842Y-79826804D01*
X91323191Y-79827195D01*
X91737560Y-79655981D01*
X92054867Y-79339228D01*
X92226804Y-78925158D01*
X92227195Y-78476809D01*
X92055981Y-78062440D01*
X91739228Y-77745133D01*
X91325158Y-77573196D01*
X90876809Y-77572805D01*
X90728647Y-77634025D01*
X90548717Y-77511083D01*
X90300000Y-77460717D01*
X89600000Y-77460717D01*
X89367648Y-77504437D01*
X89154247Y-77641757D01*
X89011083Y-77851283D01*
X89001442Y-77898892D01*
X88995563Y-77867648D01*
X88927000Y-77761098D01*
X88927000Y-76550005D01*
X88927001Y-76550000D01*
X88860242Y-76214387D01*
X88670133Y-75929867D01*
X82850133Y-70109867D01*
X82565613Y-69919758D01*
X82230000Y-69853000D01*
X81686959Y-69853000D01*
X81609228Y-69775133D01*
X81195158Y-69603196D01*
X80746809Y-69602805D01*
X80334498Y-69773169D01*
X79925158Y-69603196D01*
X79476809Y-69602805D01*
X79064498Y-69773169D01*
X78655158Y-69603196D01*
X78206809Y-69602805D01*
X77794498Y-69773169D01*
X77385158Y-69603196D01*
X76936809Y-69602805D01*
X76524498Y-69773169D01*
X76115158Y-69603196D01*
X75666809Y-69602805D01*
X75254498Y-69773169D01*
X74845158Y-69603196D01*
X74396809Y-69602805D01*
X73982440Y-69774019D01*
X73780542Y-69975565D01*
X73767513Y-69939277D01*
X73433136Y-69839692D01*
X73086101Y-69875647D01*
X72932487Y-69939277D01*
X72881340Y-70081735D01*
X73350000Y-70550395D01*
X73364143Y-70536253D01*
X73493056Y-70665166D01*
X73492943Y-70794947D01*
X73364143Y-70923748D01*
X73350000Y-70909605D01*
X73335858Y-70923748D01*
X73156253Y-70744143D01*
X73170395Y-70730000D01*
X72937573Y-70497178D01*
X72934353Y-70466101D01*
X72870723Y-70312487D01*
X72728265Y-70261340D01*
X72715000Y-70274605D01*
X72701735Y-70261340D01*
X72559277Y-70312487D01*
X72509296Y-70480309D01*
X72259605Y-70730000D01*
X72273748Y-70744143D01*
X72144834Y-70873056D01*
X72015053Y-70872943D01*
X71886253Y-70744143D01*
X71900395Y-70730000D01*
X71667573Y-70497178D01*
X71664353Y-70466101D01*
X71600723Y-70312487D01*
X71458265Y-70261340D01*
X71445000Y-70274605D01*
X71431735Y-70261340D01*
X71289277Y-70312487D01*
X71239296Y-70480309D01*
X70989605Y-70730000D01*
X71003748Y-70744143D01*
X70874834Y-70873056D01*
X70745053Y-70872943D01*
X70666944Y-70794834D01*
X70667057Y-70665053D01*
X70795858Y-70536253D01*
X70810000Y-70550395D01*
X71278660Y-70081735D01*
X71611340Y-70081735D01*
X72080000Y-70550395D01*
X72548660Y-70081735D01*
X72497513Y-69939277D01*
X72163136Y-69839692D01*
X71816101Y-69875647D01*
X71662487Y-69939277D01*
X71611340Y-70081735D01*
X71278660Y-70081735D01*
X71227513Y-69939277D01*
X70893136Y-69839692D01*
X70546101Y-69875647D01*
X70392487Y-69939277D01*
X70379419Y-69975674D01*
X70179228Y-69775133D01*
X69765158Y-69603196D01*
X69316809Y-69602805D01*
X68904498Y-69773169D01*
X68495158Y-69603196D01*
X68046809Y-69602805D01*
X67634498Y-69773169D01*
X67225158Y-69603196D01*
X66776809Y-69602805D01*
X66362440Y-69774019D01*
X66280939Y-69855378D01*
X65957281Y-69919758D01*
X65672761Y-70109867D01*
X65129867Y-70652761D01*
X64939758Y-70937281D01*
X64873000Y-71272894D01*
X64873000Y-73250000D01*
X64939758Y-73585613D01*
X65031556Y-73723000D01*
X64922998Y-73723000D01*
X64922998Y-73817248D01*
X64828750Y-73723000D01*
X64625010Y-73723000D01*
X64486447Y-73780395D01*
X64380395Y-73886447D01*
X64323000Y-74025010D01*
X64323000Y-74528750D01*
X64417250Y-74623000D01*
X64923000Y-74623000D01*
X64923000Y-74603000D01*
X65177000Y-74603000D01*
X65177000Y-74623000D01*
X65682750Y-74623000D01*
X65777000Y-74528750D01*
X65777000Y-74517265D01*
X65960717Y-74700982D01*
X65960717Y-75400000D01*
X66004437Y-75632352D01*
X66073000Y-75738902D01*
X66073000Y-77810002D01*
X66139758Y-78145615D01*
X66329867Y-78430135D01*
X67229663Y-79329930D01*
X67136953Y-79311489D01*
X67067813Y-79311489D01*
X67000000Y-79298000D01*
X65069139Y-79298000D01*
X64508541Y-79186490D01*
X64091900Y-78908100D01*
X63813510Y-78491460D01*
X63702000Y-77930861D01*
X63702000Y-77221250D01*
X65323000Y-77221250D01*
X65323000Y-77724990D01*
X65380395Y-77863553D01*
X65486447Y-77969605D01*
X65625010Y-78027000D01*
X65828750Y-78027000D01*
X65923000Y-77932750D01*
X65923000Y-77127000D01*
X65417250Y-77127000D01*
X65323000Y-77221250D01*
X63702000Y-77221250D01*
X63702000Y-76275010D01*
X65323000Y-76275010D01*
X65323000Y-76778750D01*
X65417250Y-76873000D01*
X65923000Y-76873000D01*
X65923000Y-76067250D01*
X65828750Y-75973000D01*
X65625010Y-75973000D01*
X65486447Y-76030395D01*
X65380395Y-76136447D01*
X65323000Y-76275010D01*
X63702000Y-76275010D01*
X63702000Y-74971250D01*
X64323000Y-74971250D01*
X64323000Y-75474990D01*
X64380395Y-75613553D01*
X64486447Y-75719605D01*
X64625010Y-75777000D01*
X64828750Y-75777000D01*
X64923000Y-75682750D01*
X64923000Y-74877000D01*
X65177000Y-74877000D01*
X65177000Y-75682750D01*
X65271250Y-75777000D01*
X65474990Y-75777000D01*
X65613553Y-75719605D01*
X65719605Y-75613553D01*
X65777000Y-75474990D01*
X65777000Y-74971250D01*
X65682750Y-74877000D01*
X65177000Y-74877000D01*
X64923000Y-74877000D01*
X64417250Y-74877000D01*
X64323000Y-74971250D01*
X63702000Y-74971250D01*
X63702000Y-72069139D01*
X64041871Y-70360491D01*
X64970580Y-68970580D01*
X66360490Y-68041871D01*
X68069139Y-67702000D01*
X94930861Y-67702000D01*
X95491460Y-67813510D01*
X95491460Y-67813510D01*
G37*
X95491460Y-67813510D02*
X95908100Y-68091900D01*
X96186490Y-68508541D01*
X96298000Y-69069139D01*
X96298000Y-72000000D01*
X96311489Y-72067813D01*
X96311489Y-72136953D01*
X96463730Y-72902320D01*
X96485496Y-72954867D01*
X96568549Y-73155377D01*
X97002094Y-73804224D01*
X97195776Y-73997906D01*
X97844623Y-74431451D01*
X98097680Y-74536270D01*
X98863046Y-74688511D01*
X98932187Y-74688511D01*
X99000000Y-74702000D01*
X119930861Y-74702000D01*
X122022194Y-75117992D01*
X123736527Y-76263473D01*
X124882008Y-77977806D01*
X125298000Y-80069139D01*
X125298000Y-119930861D01*
X124882008Y-122022194D01*
X123736527Y-123736527D01*
X122022194Y-124882008D01*
X119930861Y-125298000D01*
X99000000Y-125298000D01*
X98932187Y-125311489D01*
X98863046Y-125311489D01*
X98097680Y-125463730D01*
X97844623Y-125568549D01*
X97195776Y-126002094D01*
X97002094Y-126195776D01*
X96568549Y-126844623D01*
X96521885Y-126957281D01*
X96463730Y-127097680D01*
X96311489Y-127863047D01*
X96311489Y-127932187D01*
X96298000Y-128000000D01*
X96298000Y-130930861D01*
X96186490Y-131491459D01*
X95908100Y-131908100D01*
X95491460Y-132186490D01*
X94930861Y-132298000D01*
X68069139Y-132298000D01*
X66360490Y-131958129D01*
X64970580Y-131029420D01*
X64041871Y-129639509D01*
X63702000Y-127930861D01*
X63702000Y-122069139D01*
X63813510Y-121508540D01*
X64091900Y-121091900D01*
X64508541Y-120813510D01*
X65069139Y-120702000D01*
X67000000Y-120702000D01*
X67067813Y-120688511D01*
X67136953Y-120688511D01*
X67902320Y-120536270D01*
X67998601Y-120496389D01*
X68155377Y-120431451D01*
X68676459Y-120083275D01*
X65129867Y-123629867D01*
X64939758Y-123914387D01*
X64873000Y-124250000D01*
X64873000Y-128727106D01*
X64939758Y-129062719D01*
X65129867Y-129347239D01*
X65672761Y-129890133D01*
X65957281Y-130080242D01*
X66280600Y-130144555D01*
X66360772Y-130224867D01*
X66774842Y-130396804D01*
X67223191Y-130397195D01*
X67635502Y-130226831D01*
X68044842Y-130396804D01*
X68493191Y-130397195D01*
X68727319Y-130300455D01*
X68729758Y-130312719D01*
X68919867Y-130597239D01*
X70242759Y-131920130D01*
X70242761Y-131920133D01*
X70415731Y-132035707D01*
X70527281Y-132110242D01*
X70862894Y-132177001D01*
X70862899Y-132177000D01*
X82950000Y-132177000D01*
X83285613Y-132110242D01*
X83570133Y-131920133D01*
X84823338Y-130666928D01*
X85110774Y-130954867D01*
X85524844Y-131126804D01*
X85973193Y-131127195D01*
X86387562Y-130955981D01*
X86538571Y-130805236D01*
X89111287Y-130805236D01*
X89189018Y-130883103D01*
X89603088Y-131055040D01*
X90051437Y-131055431D01*
X90465806Y-130884217D01*
X90783113Y-130567464D01*
X90955050Y-130153394D01*
X90955160Y-130027179D01*
X90973181Y-130027195D01*
X91387550Y-129855981D01*
X91704857Y-129539228D01*
X91876794Y-129125158D01*
X91877185Y-128676809D01*
X91835945Y-128577000D01*
X92683041Y-128577000D01*
X92760772Y-128654867D01*
X93174842Y-128826804D01*
X93623191Y-128827195D01*
X94037560Y-128655981D01*
X94354867Y-128339228D01*
X94526804Y-127925158D01*
X94527195Y-127476809D01*
X94355981Y-127062440D01*
X94039228Y-126745133D01*
X93625158Y-126573196D01*
X93176809Y-126572805D01*
X92762440Y-126744019D01*
X92683321Y-126823000D01*
X86550005Y-126823000D01*
X86550000Y-126822999D01*
X86214387Y-126889758D01*
X85929867Y-127079867D01*
X82586734Y-130423000D01*
X71226159Y-130423000D01*
X70941255Y-130138096D01*
X71073899Y-130124353D01*
X71227513Y-130060723D01*
X71278660Y-129918265D01*
X71611340Y-129918265D01*
X71662487Y-130060723D01*
X71996864Y-130160308D01*
X72343899Y-130124353D01*
X72497513Y-130060723D01*
X72548660Y-129918265D01*
X72080000Y-129449605D01*
X71611340Y-129918265D01*
X71278660Y-129918265D01*
X70810000Y-129449605D01*
X70795858Y-129463748D01*
X70666944Y-129334834D01*
X70667057Y-129205053D01*
X70745166Y-129126944D01*
X70874947Y-129127057D01*
X71003748Y-129255858D01*
X70989605Y-129270000D01*
X71222427Y-129502822D01*
X71225647Y-129533899D01*
X71289277Y-129687513D01*
X71431735Y-129738660D01*
X71445000Y-129725395D01*
X71458265Y-129738660D01*
X71600723Y-129687513D01*
X71650704Y-129519691D01*
X71900395Y-129270000D01*
X71886253Y-129255858D01*
X72015166Y-129126944D01*
X72144947Y-129127057D01*
X72273748Y-129255858D01*
X72259605Y-129270000D01*
X72492427Y-129502822D01*
X72495647Y-129533899D01*
X72559277Y-129687513D01*
X72701735Y-129738660D01*
X72715000Y-129725395D01*
X72728265Y-129738660D01*
X72870723Y-129687513D01*
X72920704Y-129519691D01*
X73170395Y-129270000D01*
X73156253Y-129255858D01*
X73335858Y-129076253D01*
X73350000Y-129090395D01*
X73364143Y-129076253D01*
X73493056Y-129205166D01*
X73492943Y-129334947D01*
X73364143Y-129463748D01*
X73350000Y-129449605D01*
X72881340Y-129918265D01*
X72932487Y-130060723D01*
X73266864Y-130160308D01*
X73613899Y-130124353D01*
X73767513Y-130060723D01*
X73780581Y-130024326D01*
X73980772Y-130224867D01*
X74394842Y-130396804D01*
X74843191Y-130397195D01*
X75255502Y-130226831D01*
X75664842Y-130396804D01*
X76113191Y-130397195D01*
X76525502Y-130226831D01*
X76934842Y-130396804D01*
X77383191Y-130397195D01*
X77795502Y-130226831D01*
X78204842Y-130396804D01*
X78653191Y-130397195D01*
X79065502Y-130226831D01*
X79474842Y-130396804D01*
X79923191Y-130397195D01*
X80335502Y-130226831D01*
X80744842Y-130396804D01*
X81193191Y-130397195D01*
X81607560Y-130225981D01*
X81686679Y-130147000D01*
X81730000Y-130147000D01*
X82065613Y-130080242D01*
X82350133Y-129890133D01*
X88620133Y-123620133D01*
X88810242Y-123335613D01*
X88877000Y-123000000D01*
X88877000Y-120718290D01*
X116372372Y-120718290D01*
X116923386Y-122051846D01*
X117942787Y-123073028D01*
X119275380Y-123626369D01*
X120718290Y-123627628D01*
X122051846Y-123076614D01*
X123073028Y-122057213D01*
X123626369Y-120724620D01*
X123627628Y-119281710D01*
X123076614Y-117948154D01*
X122057213Y-116926972D01*
X120724620Y-116373631D01*
X119281710Y-116372372D01*
X117948154Y-116923386D01*
X116926972Y-117942787D01*
X116373631Y-119275380D01*
X116372372Y-120718290D01*
X88877000Y-120718290D01*
X88877000Y-116900000D01*
X88810242Y-116564387D01*
X88620133Y-116279867D01*
X84173149Y-111832883D01*
X84363600Y-111832883D01*
X84595952Y-111789163D01*
X84809353Y-111651843D01*
X84952517Y-111442317D01*
X85002883Y-111193600D01*
X85002883Y-109466400D01*
X84959163Y-109234048D01*
X84821843Y-109020647D01*
X84612317Y-108877483D01*
X84551543Y-108865176D01*
X84583216Y-108844013D01*
X84906338Y-108360428D01*
X85019803Y-107790000D01*
X84906338Y-107219572D01*
X84583216Y-106735987D01*
X84259969Y-106520000D01*
X84583216Y-106304013D01*
X84906338Y-105820428D01*
X84976617Y-105467109D01*
X85572694Y-108463787D01*
X85677513Y-108716844D01*
X87845240Y-111961079D01*
X87951161Y-112066999D01*
X88038922Y-112154760D01*
X91283156Y-114322487D01*
X91536213Y-114427306D01*
X95363046Y-115188511D01*
X95432187Y-115188511D01*
X95500000Y-115202000D01*
X104500000Y-115202000D01*
X104567813Y-115188511D01*
X104636953Y-115188511D01*
X108463787Y-114427306D01*
X108716844Y-114322487D01*
X111961079Y-112154760D01*
X112154760Y-111961078D01*
X114322487Y-108716844D01*
X114427306Y-108463787D01*
X115188511Y-104636954D01*
X115188511Y-104567813D01*
X115202000Y-104500000D01*
X115202000Y-95500000D01*
X115188511Y-95432187D01*
X115188511Y-95363046D01*
X114427306Y-91536213D01*
X114394073Y-91455981D01*
X114322487Y-91283156D01*
X112263439Y-88201571D01*
X119618000Y-88201571D01*
X119618000Y-110798428D01*
X123972000Y-110798428D01*
X123972000Y-88201571D01*
X119618000Y-88201571D01*
X112263439Y-88201571D01*
X112154760Y-88038922D01*
X112115838Y-88000000D01*
X111961079Y-87845240D01*
X108716844Y-85677513D01*
X108463787Y-85572694D01*
X104636953Y-84811489D01*
X104567813Y-84811489D01*
X104500000Y-84798000D01*
X95500000Y-84798000D01*
X95432187Y-84811489D01*
X95363046Y-84811489D01*
X91536213Y-85572694D01*
X91283156Y-85677513D01*
X88038922Y-87845240D01*
X87845240Y-88038921D01*
X85677513Y-91283156D01*
X85605927Y-91455981D01*
X85572694Y-91536213D01*
X84947775Y-94677891D01*
X84906338Y-94469572D01*
X84583216Y-93985987D01*
X84259969Y-93770000D01*
X84583216Y-93554013D01*
X84906338Y-93070428D01*
X85019803Y-92500000D01*
X84906338Y-91929572D01*
X84583216Y-91445987D01*
X84099631Y-91122865D01*
X83952079Y-91093515D01*
X84253097Y-90945881D01*
X84573051Y-90582638D01*
X84699021Y-90278489D01*
X84639293Y-90087000D01*
X83627000Y-90087000D01*
X83627000Y-90107000D01*
X83373000Y-90107000D01*
X83373000Y-90087000D01*
X82360707Y-90087000D01*
X82300979Y-90278489D01*
X82426949Y-90582638D01*
X82746903Y-90945881D01*
X83047921Y-91093515D01*
X82900369Y-91122865D01*
X82416784Y-91445987D01*
X82230000Y-91725528D01*
X82043216Y-91445987D01*
X81675969Y-91200600D01*
X81898590Y-91200600D01*
X82037153Y-91143205D01*
X82143205Y-91037153D01*
X82200600Y-90898590D01*
X82200600Y-90181250D01*
X82106350Y-90087000D01*
X81087000Y-90087000D01*
X81087000Y-90107000D01*
X80833000Y-90107000D01*
X80833000Y-90087000D01*
X79813650Y-90087000D01*
X79719400Y-90181250D01*
X79719400Y-90898590D01*
X79776795Y-91037153D01*
X79882847Y-91143205D01*
X80021410Y-91200600D01*
X80244031Y-91200600D01*
X79876784Y-91445987D01*
X79553662Y-91929572D01*
X79440197Y-92500000D01*
X79553662Y-93070428D01*
X79876784Y-93554013D01*
X80200031Y-93770000D01*
X79876784Y-93985987D01*
X79553662Y-94469572D01*
X79535367Y-94561549D01*
X76927000Y-91953182D01*
X76927000Y-90500000D01*
X76927195Y-90276809D01*
X76755981Y-89862440D01*
X76514113Y-89620149D01*
X77257261Y-88877000D01*
X79782642Y-88877000D01*
X79776795Y-88882847D01*
X79719400Y-89021410D01*
X79719400Y-89738750D01*
X79813650Y-89833000D01*
X80833000Y-89833000D01*
X80833000Y-89813000D01*
X81087000Y-89813000D01*
X81087000Y-89833000D01*
X82106350Y-89833000D01*
X82200600Y-89738750D01*
X82200600Y-89021410D01*
X82143205Y-88882847D01*
X82137358Y-88877000D01*
X82944924Y-88877000D01*
X82746903Y-88974119D01*
X82426949Y-89337362D01*
X82300979Y-89641511D01*
X82360707Y-89833000D01*
X83373000Y-89833000D01*
X83373000Y-89813000D01*
X83627000Y-89813000D01*
X83627000Y-89833000D01*
X84639293Y-89833000D01*
X84699021Y-89641511D01*
X84573051Y-89337362D01*
X84253097Y-88974119D01*
X83870894Y-88786668D01*
X84120133Y-88620133D01*
X84120134Y-88620132D01*
X88670130Y-84070135D01*
X88670133Y-84070133D01*
X88860242Y-83785613D01*
X88865289Y-83760242D01*
X88927001Y-83450000D01*
X88927000Y-83449995D01*
X88927000Y-82789283D01*
X89300000Y-82789283D01*
X89532352Y-82745563D01*
X89745753Y-82608243D01*
X89764404Y-82580946D01*
X89874842Y-82626804D01*
X90323191Y-82627195D01*
X90700606Y-82471250D01*
X94317000Y-82471250D01*
X94317000Y-83340990D01*
X94374395Y-83479553D01*
X94480447Y-83585605D01*
X94619010Y-83643000D01*
X95488750Y-83643000D01*
X95583000Y-83548750D01*
X95583000Y-82377000D01*
X94411250Y-82377000D01*
X94317000Y-82471250D01*
X90700606Y-82471250D01*
X90737560Y-82455981D01*
X91054867Y-82139228D01*
X91226804Y-81725158D01*
X91227195Y-81276809D01*
X91178522Y-81159010D01*
X94317000Y-81159010D01*
X94317000Y-82028750D01*
X94411250Y-82123000D01*
X95583000Y-82123000D01*
X95583000Y-80951250D01*
X95837000Y-80951250D01*
X95837000Y-82123000D01*
X95857000Y-82123000D01*
X95857000Y-82377000D01*
X95837000Y-82377000D01*
X95837000Y-83548750D01*
X95931250Y-83643000D01*
X96800990Y-83643000D01*
X96939553Y-83585605D01*
X97045605Y-83479553D01*
X97071015Y-83418209D01*
X97088224Y-83443964D01*
X97621251Y-83800122D01*
X98250000Y-83925188D01*
X98878749Y-83800122D01*
X99411776Y-83443964D01*
X99767934Y-82910937D01*
X99893000Y-82282188D01*
X99893000Y-82217812D01*
X100107000Y-82217812D01*
X100107000Y-82282188D01*
X100232066Y-82910937D01*
X100588224Y-83443964D01*
X101121251Y-83800122D01*
X101750000Y-83925188D01*
X102378749Y-83800122D01*
X102724123Y-83569350D01*
X102815757Y-83711753D01*
X103025283Y-83854917D01*
X103274000Y-83905283D01*
X105306000Y-83905283D01*
X105538352Y-83861563D01*
X105751753Y-83724243D01*
X105894917Y-83514717D01*
X105945283Y-83266000D01*
X105945283Y-81234000D01*
X105901563Y-81001648D01*
X105764243Y-80788247D01*
X105661859Y-80718290D01*
X116372372Y-80718290D01*
X116923386Y-82051846D01*
X117942787Y-83073028D01*
X119275380Y-83626369D01*
X120718290Y-83627628D01*
X122051846Y-83076614D01*
X123073028Y-82057213D01*
X123626369Y-80724620D01*
X123627628Y-79281710D01*
X123076614Y-77948154D01*
X122057213Y-76926972D01*
X120724620Y-76373631D01*
X119281710Y-76372372D01*
X117948154Y-76923386D01*
X116926972Y-77942787D01*
X116373631Y-79275380D01*
X116372372Y-80718290D01*
X105661859Y-80718290D01*
X105554717Y-80645083D01*
X105306000Y-80594717D01*
X103274000Y-80594717D01*
X103041648Y-80638437D01*
X102828247Y-80775757D01*
X102722949Y-80929865D01*
X102378749Y-80699878D01*
X101750000Y-80574812D01*
X101121251Y-80699878D01*
X100588224Y-81056036D01*
X100232066Y-81589063D01*
X100107000Y-82217812D01*
X99893000Y-82217812D01*
X99767934Y-81589063D01*
X99411776Y-81056036D01*
X98878749Y-80699878D01*
X98250000Y-80574812D01*
X97621251Y-80699878D01*
X97088224Y-81056036D01*
X97071015Y-81081791D01*
X97045605Y-81020447D01*
X96939553Y-80914395D01*
X96800990Y-80857000D01*
X95931250Y-80857000D01*
X95837000Y-80951250D01*
X95583000Y-80951250D01*
X95488750Y-80857000D01*
X94619010Y-80857000D01*
X94480447Y-80914395D01*
X94374395Y-81020447D01*
X94317000Y-81159010D01*
X91178522Y-81159010D01*
X91055981Y-80862440D01*
X90739228Y-80545133D01*
X90325158Y-80373196D01*
X89876809Y-80372805D01*
X89767163Y-80418110D01*
X89758243Y-80404247D01*
X89548717Y-80261083D01*
X89300000Y-80210717D01*
X88927000Y-80210717D01*
X88927000Y-79739335D01*
X88988917Y-79648717D01*
X88998558Y-79601108D01*
X89004437Y-79632352D01*
X89141757Y-79845753D01*
X89351283Y-79988917D01*
X89600000Y-80039283D01*
X90300000Y-80039283D01*
X90532352Y-79995563D01*
X90745753Y-79858243D01*
X90791017Y-79791997D01*
X90874842Y-79826804D01*
X91323191Y-79827195D01*
X91737560Y-79655981D01*
X92054867Y-79339228D01*
X92226804Y-78925158D01*
X92227195Y-78476809D01*
X92055981Y-78062440D01*
X91739228Y-77745133D01*
X91325158Y-77573196D01*
X90876809Y-77572805D01*
X90728647Y-77634025D01*
X90548717Y-77511083D01*
X90300000Y-77460717D01*
X89600000Y-77460717D01*
X89367648Y-77504437D01*
X89154247Y-77641757D01*
X89011083Y-77851283D01*
X89001442Y-77898892D01*
X88995563Y-77867648D01*
X88927000Y-77761098D01*
X88927000Y-76550005D01*
X88927001Y-76550000D01*
X88860242Y-76214387D01*
X88670133Y-75929867D01*
X82850133Y-70109867D01*
X82565613Y-69919758D01*
X82230000Y-69853000D01*
X81686959Y-69853000D01*
X81609228Y-69775133D01*
X81195158Y-69603196D01*
X80746809Y-69602805D01*
X80334498Y-69773169D01*
X79925158Y-69603196D01*
X79476809Y-69602805D01*
X79064498Y-69773169D01*
X78655158Y-69603196D01*
X78206809Y-69602805D01*
X77794498Y-69773169D01*
X77385158Y-69603196D01*
X76936809Y-69602805D01*
X76524498Y-69773169D01*
X76115158Y-69603196D01*
X75666809Y-69602805D01*
X75254498Y-69773169D01*
X74845158Y-69603196D01*
X74396809Y-69602805D01*
X73982440Y-69774019D01*
X73780542Y-69975565D01*
X73767513Y-69939277D01*
X73433136Y-69839692D01*
X73086101Y-69875647D01*
X72932487Y-69939277D01*
X72881340Y-70081735D01*
X73350000Y-70550395D01*
X73364143Y-70536253D01*
X73493056Y-70665166D01*
X73492943Y-70794947D01*
X73364143Y-70923748D01*
X73350000Y-70909605D01*
X73335858Y-70923748D01*
X73156253Y-70744143D01*
X73170395Y-70730000D01*
X72937573Y-70497178D01*
X72934353Y-70466101D01*
X72870723Y-70312487D01*
X72728265Y-70261340D01*
X72715000Y-70274605D01*
X72701735Y-70261340D01*
X72559277Y-70312487D01*
X72509296Y-70480309D01*
X72259605Y-70730000D01*
X72273748Y-70744143D01*
X72144834Y-70873056D01*
X72015053Y-70872943D01*
X71886253Y-70744143D01*
X71900395Y-70730000D01*
X71667573Y-70497178D01*
X71664353Y-70466101D01*
X71600723Y-70312487D01*
X71458265Y-70261340D01*
X71445000Y-70274605D01*
X71431735Y-70261340D01*
X71289277Y-70312487D01*
X71239296Y-70480309D01*
X70989605Y-70730000D01*
X71003748Y-70744143D01*
X70874834Y-70873056D01*
X70745053Y-70872943D01*
X70666944Y-70794834D01*
X70667057Y-70665053D01*
X70795858Y-70536253D01*
X70810000Y-70550395D01*
X71278660Y-70081735D01*
X71611340Y-70081735D01*
X72080000Y-70550395D01*
X72548660Y-70081735D01*
X72497513Y-69939277D01*
X72163136Y-69839692D01*
X71816101Y-69875647D01*
X71662487Y-69939277D01*
X71611340Y-70081735D01*
X71278660Y-70081735D01*
X71227513Y-69939277D01*
X70893136Y-69839692D01*
X70546101Y-69875647D01*
X70392487Y-69939277D01*
X70379419Y-69975674D01*
X70179228Y-69775133D01*
X69765158Y-69603196D01*
X69316809Y-69602805D01*
X68904498Y-69773169D01*
X68495158Y-69603196D01*
X68046809Y-69602805D01*
X67634498Y-69773169D01*
X67225158Y-69603196D01*
X66776809Y-69602805D01*
X66362440Y-69774019D01*
X66280939Y-69855378D01*
X65957281Y-69919758D01*
X65672761Y-70109867D01*
X65129867Y-70652761D01*
X64939758Y-70937281D01*
X64873000Y-71272894D01*
X64873000Y-73250000D01*
X64939758Y-73585613D01*
X65031556Y-73723000D01*
X64922998Y-73723000D01*
X64922998Y-73817248D01*
X64828750Y-73723000D01*
X64625010Y-73723000D01*
X64486447Y-73780395D01*
X64380395Y-73886447D01*
X64323000Y-74025010D01*
X64323000Y-74528750D01*
X64417250Y-74623000D01*
X64923000Y-74623000D01*
X64923000Y-74603000D01*
X65177000Y-74603000D01*
X65177000Y-74623000D01*
X65682750Y-74623000D01*
X65777000Y-74528750D01*
X65777000Y-74517265D01*
X65960717Y-74700982D01*
X65960717Y-75400000D01*
X66004437Y-75632352D01*
X66073000Y-75738902D01*
X66073000Y-77810002D01*
X66139758Y-78145615D01*
X66329867Y-78430135D01*
X67229663Y-79329930D01*
X67136953Y-79311489D01*
X67067813Y-79311489D01*
X67000000Y-79298000D01*
X65069139Y-79298000D01*
X64508541Y-79186490D01*
X64091900Y-78908100D01*
X63813510Y-78491460D01*
X63702000Y-77930861D01*
X63702000Y-77221250D01*
X65323000Y-77221250D01*
X65323000Y-77724990D01*
X65380395Y-77863553D01*
X65486447Y-77969605D01*
X65625010Y-78027000D01*
X65828750Y-78027000D01*
X65923000Y-77932750D01*
X65923000Y-77127000D01*
X65417250Y-77127000D01*
X65323000Y-77221250D01*
X63702000Y-77221250D01*
X63702000Y-76275010D01*
X65323000Y-76275010D01*
X65323000Y-76778750D01*
X65417250Y-76873000D01*
X65923000Y-76873000D01*
X65923000Y-76067250D01*
X65828750Y-75973000D01*
X65625010Y-75973000D01*
X65486447Y-76030395D01*
X65380395Y-76136447D01*
X65323000Y-76275010D01*
X63702000Y-76275010D01*
X63702000Y-74971250D01*
X64323000Y-74971250D01*
X64323000Y-75474990D01*
X64380395Y-75613553D01*
X64486447Y-75719605D01*
X64625010Y-75777000D01*
X64828750Y-75777000D01*
X64923000Y-75682750D01*
X64923000Y-74877000D01*
X65177000Y-74877000D01*
X65177000Y-75682750D01*
X65271250Y-75777000D01*
X65474990Y-75777000D01*
X65613553Y-75719605D01*
X65719605Y-75613553D01*
X65777000Y-75474990D01*
X65777000Y-74971250D01*
X65682750Y-74877000D01*
X65177000Y-74877000D01*
X64923000Y-74877000D01*
X64417250Y-74877000D01*
X64323000Y-74971250D01*
X63702000Y-74971250D01*
X63702000Y-72069139D01*
X64041871Y-70360491D01*
X64970580Y-68970580D01*
X66360490Y-68041871D01*
X68069139Y-67702000D01*
X94930861Y-67702000D01*
X95491460Y-67813510D01*
G36*
X73493056Y-127935166D02*
X73492943Y-128064947D01*
X73364143Y-128193748D01*
X73350000Y-128179605D01*
X73335858Y-128193748D01*
X73206944Y-128064834D01*
X73207057Y-127935053D01*
X73335858Y-127806253D01*
X73350000Y-127820395D01*
X73364143Y-127806253D01*
X73493056Y-127935166D01*
X73493056Y-127935166D01*
G37*
X73493056Y-127935166D02*
X73492943Y-128064947D01*
X73364143Y-128193748D01*
X73350000Y-128179605D01*
X73335858Y-128193748D01*
X73206944Y-128064834D01*
X73207057Y-127935053D01*
X73335858Y-127806253D01*
X73350000Y-127820395D01*
X73364143Y-127806253D01*
X73493056Y-127935166D01*
G36*
X73493056Y-71935166D02*
X73492943Y-72064947D01*
X73364143Y-72193748D01*
X73350000Y-72179605D01*
X73335858Y-72193748D01*
X73206944Y-72064834D01*
X73207057Y-71935053D01*
X73335858Y-71806253D01*
X73350000Y-71820395D01*
X73364143Y-71806253D01*
X73493056Y-71935166D01*
X73493056Y-71935166D01*
G37*
X73493056Y-71935166D02*
X73492943Y-72064947D01*
X73364143Y-72193748D01*
X73350000Y-72179605D01*
X73335858Y-72193748D01*
X73206944Y-72064834D01*
X73207057Y-71935053D01*
X73335858Y-71806253D01*
X73350000Y-71820395D01*
X73364143Y-71806253D01*
X73493056Y-71935166D01*
M02*
