G04 #@! TF.FileFunction,Copper,L1,Top,Signal*
%FSLAX46Y46*%
G04 Gerber Fmt 4.6, Leading zero omitted, Abs format (unit mm)*
G04 Created by KiCad (PCBNEW 4.0.6+dfsg1-1) date Mon Aug 28 12:32:08 2017*
%MOMM*%
%LPD*%
G01*
G04 APERTURE LIST*
%ADD10C,0.100000*%
%ADD11R,1.727200X1.727200*%
%ADD12O,1.727200X1.727200*%
%ADD13R,1.143000X0.508000*%
%ADD14R,1.000000X1.250000*%
%ADD15R,1.198880X1.198880*%
%ADD16R,2.032000X2.032000*%
%ADD17O,2.032000X2.032000*%
%ADD18R,0.700000X1.300000*%
%ADD19C,1.000000*%
%ADD20R,1.000000X2.500000*%
%ADD21R,1.400000X1.600000*%
%ADD22C,0.600000*%
%ADD23C,0.500000*%
%ADD24C,1.000000*%
%ADD25C,0.850000*%
%ADD26C,0.900000*%
%ADD27C,0.300000*%
%ADD28C,0.200000*%
%ADD29C,0.254000*%
G04 APERTURE END LIST*
D10*
D11*
X80960000Y-89960000D03*
D12*
X83500000Y-89960000D03*
X80960000Y-92500000D03*
X83500000Y-92500000D03*
X80960000Y-95040000D03*
X83500000Y-95040000D03*
X80960000Y-97580000D03*
X83500000Y-97580000D03*
D11*
X83500000Y-110330000D03*
D12*
X80960000Y-110330000D03*
X83500000Y-107790000D03*
X80960000Y-107790000D03*
X83500000Y-105250000D03*
X80960000Y-105250000D03*
X83500000Y-102710000D03*
X80960000Y-102710000D03*
X83500000Y-100170000D03*
X80960000Y-100170000D03*
D13*
X122675000Y-92345000D03*
X122675000Y-93615000D03*
X122675000Y-94885000D03*
X122675000Y-96155000D03*
X116325000Y-96155000D03*
X116325000Y-94885000D03*
X116325000Y-93615000D03*
X116325000Y-92345000D03*
D14*
X120500000Y-98250000D03*
X118500000Y-98250000D03*
D15*
X101950980Y-79000000D03*
X104049020Y-79000000D03*
X98049020Y-79000000D03*
X95950980Y-79000000D03*
D16*
X104290000Y-82250000D03*
D17*
X101750000Y-82250000D03*
D16*
X95710000Y-82250000D03*
D17*
X98250000Y-82250000D03*
D18*
X103950000Y-76750000D03*
X102050000Y-76750000D03*
X96050000Y-76750000D03*
X97950000Y-76750000D03*
D19*
X67000000Y-72000000D03*
X67000000Y-70730000D03*
X68270000Y-72000000D03*
X68270000Y-70730000D03*
X69540000Y-72000000D03*
X69540000Y-70730000D03*
X70810000Y-72000000D03*
X70810000Y-70730000D03*
X72080000Y-72000000D03*
X72080000Y-70730000D03*
X73350000Y-72000000D03*
X73350000Y-70730000D03*
X74620000Y-72000000D03*
X74620000Y-70730000D03*
X75890000Y-72000000D03*
X75890000Y-70730000D03*
X77160000Y-72000000D03*
X77160000Y-70730000D03*
X78430000Y-72000000D03*
X78430000Y-70730000D03*
X79700000Y-72000000D03*
X79700000Y-70730000D03*
X80970000Y-72000000D03*
X80970000Y-70730000D03*
X80970000Y-128000000D03*
X80970000Y-129270000D03*
X79700000Y-128000000D03*
X79700000Y-129270000D03*
X78430000Y-128000000D03*
X78430000Y-129270000D03*
X77160000Y-128000000D03*
X77160000Y-129270000D03*
X75890000Y-128000000D03*
X75890000Y-129270000D03*
X74620000Y-128000000D03*
X74620000Y-129270000D03*
X73350000Y-128000000D03*
X73350000Y-129270000D03*
X72080000Y-128000000D03*
X72080000Y-129270000D03*
X70810000Y-128000000D03*
X70810000Y-129270000D03*
X69540000Y-128000000D03*
X69540000Y-129270000D03*
X68270000Y-128000000D03*
X68270000Y-129270000D03*
X67000000Y-128000000D03*
X67000000Y-129270000D03*
D20*
X123400000Y-101000000D03*
X118500000Y-101000000D03*
D21*
X122650000Y-101000000D03*
X119250000Y-101000000D03*
D19*
X85750002Y-130000000D03*
X86750000Y-129000000D03*
X89828246Y-129928236D03*
X90749990Y-128900000D03*
X91100000Y-78700000D03*
X90100000Y-81500000D03*
X75800000Y-90500000D03*
D22*
X73900011Y-110300000D03*
X76400000Y-101800000D03*
D19*
X93400000Y-127700000D03*
D22*
X72350000Y-113950000D03*
X73950002Y-112300000D03*
X77500000Y-107000000D03*
X71400000Y-111550000D03*
X73900000Y-111400004D03*
X77199998Y-104300000D03*
D19*
X74100011Y-108500000D03*
X75600000Y-100200000D03*
D23*
X86250001Y-129500001D02*
X85750002Y-130000000D01*
X85042896Y-130000000D02*
X85750002Y-130000000D01*
X84692907Y-130349989D02*
X85042896Y-130000000D01*
X77160000Y-129977106D02*
X77532883Y-130349989D01*
X77160000Y-129270000D02*
X77160000Y-129977106D01*
X86750000Y-129000000D02*
X86250001Y-129500001D01*
X77532883Y-130349989D02*
X84692907Y-130349989D01*
X80960000Y-95040000D02*
X78446388Y-97553612D01*
X80242894Y-126750000D02*
X79700000Y-127292894D01*
X79700000Y-127292894D02*
X79700000Y-128000000D01*
X78446388Y-97553612D02*
X78446389Y-111474037D01*
X78446389Y-111474037D02*
X79815964Y-112843612D01*
X87000000Y-117300000D02*
X87000000Y-122900000D01*
X79815964Y-112843612D02*
X82543612Y-112843612D01*
X82543612Y-112843612D02*
X87000000Y-117300000D01*
X87000000Y-122900000D02*
X83150000Y-126750000D01*
X83150000Y-126750000D02*
X80242894Y-126750000D01*
D24*
X80960000Y-95040000D02*
X80096401Y-94176401D01*
D23*
X79700000Y-72707106D02*
X79700000Y-72000000D01*
D24*
X80096401Y-94176401D02*
X80082403Y-94176401D01*
X80082403Y-94176401D02*
X77800000Y-91893998D01*
X77800000Y-91893998D02*
X77800000Y-89906002D01*
X77800000Y-89906002D02*
X80706002Y-87000000D01*
X80706002Y-87000000D02*
X83000000Y-87000000D01*
X83000000Y-87000000D02*
X87000000Y-83000000D01*
X87000000Y-83000000D02*
X87000000Y-77000000D01*
X87000000Y-77000000D02*
X83250000Y-73250000D01*
D25*
X83250000Y-73250000D02*
X80242894Y-73250000D01*
D23*
X80242894Y-73250000D02*
X79700000Y-72707106D01*
X83500000Y-95040000D02*
X80960000Y-95040000D01*
X79700000Y-70730000D02*
X79700000Y-72000000D01*
X79700000Y-129270000D02*
X79700000Y-128000000D01*
D26*
X73300000Y-76450000D02*
X73200000Y-76550000D01*
X73200000Y-76550000D02*
X73200000Y-88600000D01*
X73200000Y-88600000D02*
X73300000Y-88700000D01*
D24*
X73300000Y-88700000D02*
X73400000Y-88800000D01*
X73400000Y-76350000D02*
X73300000Y-76450000D01*
X76500000Y-73250000D02*
X73400000Y-76350000D01*
D23*
X73400000Y-88800000D02*
X73150001Y-89049999D01*
X73150001Y-89049999D02*
X73150001Y-110939995D01*
X73150001Y-110939995D02*
X73149999Y-110939997D01*
X73149999Y-110939997D02*
X73149999Y-115060001D01*
X73149999Y-115060001D02*
X73150001Y-115060003D01*
X78430000Y-127292894D02*
X78430000Y-128000000D01*
X73150001Y-115060003D02*
X73150001Y-125350001D01*
X73150001Y-125350001D02*
X74550000Y-126750000D01*
X74550000Y-126750000D02*
X77887106Y-126750000D01*
X77887106Y-126750000D02*
X78430000Y-127292894D01*
D24*
X73400000Y-88800000D02*
X74100000Y-88800000D01*
X74100000Y-88800000D02*
X75800000Y-90500000D01*
D23*
X78430000Y-72000000D02*
X78430000Y-72707106D01*
X78430000Y-72707106D02*
X77887106Y-73250000D01*
D25*
X77887106Y-73250000D02*
X76500000Y-73250000D01*
D23*
X83500000Y-97580000D02*
X80960000Y-97580000D01*
X78430000Y-70730000D02*
X78430000Y-72000000D01*
X78430000Y-129270000D02*
X78430000Y-128000000D01*
D27*
X76400000Y-101800000D02*
X75000000Y-103200000D01*
X75000000Y-103200000D02*
X75000000Y-109200011D01*
X75000000Y-109200011D02*
X74200010Y-110000001D01*
X74200010Y-110000001D02*
X73900011Y-110300000D01*
D28*
X83500000Y-105250000D02*
X82278686Y-105250000D01*
X82278686Y-105250000D02*
X80960000Y-105250000D01*
D23*
X116325000Y-96155000D02*
X116325000Y-109875000D01*
X116325000Y-109875000D02*
X109250000Y-116950000D01*
X109250000Y-116950000D02*
X97050000Y-116950000D01*
X97050000Y-116950000D02*
X93500000Y-120500000D01*
X93500000Y-120500000D02*
X93500000Y-127600000D01*
X93500000Y-127600000D02*
X93400000Y-127700000D01*
X69540000Y-72000000D02*
X69540000Y-76540000D01*
X69540000Y-76540000D02*
X70600000Y-77600000D01*
X70600000Y-77600000D02*
X70600000Y-122150000D01*
X70600000Y-122150000D02*
X69540000Y-123210000D01*
X69540000Y-123210000D02*
X69540000Y-128000000D01*
X69540000Y-72000000D02*
X69540000Y-70730000D01*
X69540000Y-129270000D02*
X69540000Y-128000000D01*
D24*
X88100000Y-130900000D02*
X88500000Y-131300000D01*
X88500000Y-131300000D02*
X93700000Y-131300000D01*
X93700000Y-131300000D02*
X95750000Y-129250000D01*
X95750000Y-129250000D02*
X95750000Y-121250000D01*
X109750000Y-119750000D02*
X123400000Y-106100000D01*
X95750000Y-121250000D02*
X97250000Y-119750000D01*
X97250000Y-119750000D02*
X109750000Y-119750000D01*
X123400000Y-106100000D02*
X123400000Y-101000000D01*
X88100000Y-130900000D02*
X87500000Y-131500000D01*
X87500000Y-131500000D02*
X69792894Y-131500000D01*
X69792894Y-131500000D02*
X68270000Y-129977106D01*
X68270000Y-129977106D02*
X68270000Y-129270000D01*
D23*
X68270000Y-72000000D02*
X68270000Y-76520000D01*
X68270000Y-76520000D02*
X69800000Y-78050000D01*
X69800000Y-121700000D02*
X68270000Y-123230000D01*
X68270000Y-123230000D02*
X68270000Y-128000000D01*
X69800000Y-78050000D02*
X69800000Y-121700000D01*
D24*
X122650000Y-101000000D02*
X123400000Y-101000000D01*
X123400000Y-98750000D02*
X123400000Y-101000000D01*
X80960000Y-102710000D02*
X79396399Y-104273601D01*
X79396399Y-104273601D02*
X79396399Y-111080529D01*
X79396399Y-111080529D02*
X80209471Y-111893601D01*
X80209471Y-111893601D02*
X83437119Y-111893601D01*
X83437119Y-111893601D02*
X88100000Y-116556482D01*
X88100000Y-116556482D02*
X88100000Y-130900000D01*
X104290000Y-82250000D02*
X109150000Y-82250000D01*
X109150000Y-82250000D02*
X116500000Y-89600000D01*
X116500000Y-89600000D02*
X122015502Y-89600000D01*
X122015502Y-89600000D02*
X123946501Y-91530999D01*
X123946501Y-91530999D02*
X123946501Y-98203499D01*
X123946501Y-98203499D02*
X123400000Y-98750000D01*
X83500000Y-102710000D02*
X80960000Y-102710000D01*
D23*
X68270000Y-129270000D02*
X68270000Y-128000000D01*
X68270000Y-70730000D02*
X68270000Y-72000000D01*
D24*
X119250000Y-101000000D02*
X118500000Y-101000000D01*
D23*
X116325000Y-94885000D02*
X117285000Y-94885000D01*
X117285000Y-94885000D02*
X118500000Y-96100000D01*
X118500000Y-96100000D02*
X118500000Y-98250000D01*
X118500000Y-101000000D02*
X118500000Y-98250000D01*
X72250000Y-113850000D02*
X72350000Y-113950000D01*
X72250000Y-76750000D02*
X72250000Y-113850000D01*
X72080000Y-76580000D02*
X72250000Y-76750000D01*
X72080000Y-72000000D02*
X72080000Y-76580000D01*
X72350000Y-113950000D02*
X72350000Y-115800000D01*
D27*
X77500000Y-108750002D02*
X74250001Y-112000001D01*
X77500000Y-107000000D02*
X77500000Y-108750002D01*
X74250001Y-112000001D02*
X73950002Y-112300000D01*
D23*
X72350000Y-115800000D02*
X72350000Y-122900000D01*
X72080000Y-123170000D02*
X72080000Y-127292894D01*
X72350000Y-122900000D02*
X72080000Y-123170000D01*
X72080000Y-127292894D02*
X72080000Y-128000000D01*
D28*
X83500000Y-110330000D02*
X80960000Y-110330000D01*
D23*
X70810000Y-72000000D02*
X70810000Y-76560000D01*
X71400000Y-122600000D02*
X71400000Y-111974264D01*
X70810000Y-76560000D02*
X71400000Y-77150000D01*
X70810000Y-128000000D02*
X70810000Y-123190000D01*
X70810000Y-123190000D02*
X71400000Y-122600000D01*
X71400000Y-111974264D02*
X71400000Y-111550000D01*
X71400000Y-111125736D02*
X71400000Y-111550000D01*
X71400000Y-77150000D02*
X71400000Y-111125736D01*
D27*
X77199998Y-104300000D02*
X75750000Y-105749998D01*
X75750000Y-105749998D02*
X75750000Y-109550004D01*
X75750000Y-109550004D02*
X74199999Y-111100005D01*
X74199999Y-111100005D02*
X73900000Y-111400004D01*
D28*
X83500000Y-107790000D02*
X80960000Y-107790000D01*
D23*
X74100011Y-107792894D02*
X74100011Y-108500000D01*
X75600000Y-100200000D02*
X74100011Y-101699989D01*
X74100011Y-101699989D02*
X74100011Y-107792894D01*
X83500000Y-100170000D02*
X80960000Y-100170000D01*
X72080000Y-129270000D02*
X70810000Y-129270000D01*
X73350000Y-129270000D02*
X72080000Y-129270000D01*
X73350000Y-128000000D02*
X73350000Y-129270000D01*
X72080000Y-70730000D02*
X70810000Y-70730000D01*
X73350000Y-70730000D02*
X72080000Y-70730000D01*
X73350000Y-72000000D02*
X73350000Y-70730000D01*
X101950980Y-79000000D02*
X101950980Y-82049020D01*
X101950980Y-82049020D02*
X101750000Y-82250000D01*
X103950000Y-76750000D02*
X103950000Y-78900980D01*
X103950000Y-78900980D02*
X104049020Y-79000000D01*
X98049020Y-79000000D02*
X98049020Y-82049020D01*
X98049020Y-82049020D02*
X98250000Y-82250000D01*
X96050000Y-76750000D02*
X96050000Y-78900980D01*
X96050000Y-78900980D02*
X95950980Y-79000000D01*
D29*
G36*
X87123000Y-130495314D02*
X87095314Y-130523000D01*
X70197581Y-130523000D01*
X69866705Y-130192125D01*
X70092703Y-130098744D01*
X70174902Y-130016688D01*
X70255851Y-130097778D01*
X70614810Y-130246830D01*
X71003485Y-130247170D01*
X71362703Y-130098744D01*
X71444902Y-130016688D01*
X71525851Y-130097778D01*
X71884810Y-130246830D01*
X72273485Y-130247170D01*
X72632703Y-130098744D01*
X72714902Y-130016688D01*
X72795851Y-130097778D01*
X73154810Y-130246830D01*
X73543485Y-130247170D01*
X73902703Y-130098744D01*
X74045326Y-129956370D01*
X74079282Y-129990326D01*
X74151341Y-129918267D01*
X74202487Y-130060723D01*
X74536864Y-130160308D01*
X74883899Y-130124353D01*
X75037513Y-130060723D01*
X75088660Y-129918265D01*
X75421340Y-129918265D01*
X75472487Y-130060723D01*
X75806864Y-130160308D01*
X76153899Y-130124353D01*
X76307513Y-130060723D01*
X76358660Y-129918265D01*
X75890000Y-129449605D01*
X75421340Y-129918265D01*
X75088660Y-129918265D01*
X74620000Y-129449605D01*
X74605858Y-129463748D01*
X74426253Y-129284143D01*
X74440395Y-129270000D01*
X74426253Y-129255858D01*
X74605858Y-129076253D01*
X74620000Y-129090395D01*
X74634143Y-129076253D01*
X74813748Y-129255858D01*
X74799605Y-129270000D01*
X75032427Y-129502822D01*
X75035647Y-129533899D01*
X75099277Y-129687513D01*
X75241735Y-129738660D01*
X75255000Y-129725395D01*
X75268265Y-129738660D01*
X75410723Y-129687513D01*
X75460704Y-129519691D01*
X75710395Y-129270000D01*
X75696253Y-129255858D01*
X75875858Y-129076253D01*
X75890000Y-129090395D01*
X75904143Y-129076253D01*
X76083748Y-129255858D01*
X76069605Y-129270000D01*
X76302427Y-129502822D01*
X76305647Y-129533899D01*
X76369277Y-129687513D01*
X76511735Y-129738660D01*
X76525000Y-129725395D01*
X76538265Y-129738660D01*
X76680723Y-129687513D01*
X76730704Y-129519691D01*
X76980395Y-129270000D01*
X76966253Y-129255858D01*
X77145858Y-129076253D01*
X77160000Y-129090395D01*
X77174143Y-129076253D01*
X77353748Y-129255858D01*
X77339605Y-129270000D01*
X77353748Y-129284143D01*
X77174143Y-129463748D01*
X77160000Y-129449605D01*
X76691340Y-129918265D01*
X76742487Y-130060723D01*
X77076864Y-130160308D01*
X77423899Y-130124353D01*
X77577513Y-130060723D01*
X77628659Y-129918267D01*
X77700718Y-129990326D01*
X77734682Y-129956362D01*
X77875851Y-130097778D01*
X78234810Y-130246830D01*
X78623485Y-130247170D01*
X78982703Y-130098744D01*
X79064902Y-130016688D01*
X79145851Y-130097778D01*
X79504810Y-130246830D01*
X79893485Y-130247170D01*
X80252703Y-130098744D01*
X80334902Y-130016688D01*
X80415851Y-130097778D01*
X80774810Y-130246830D01*
X81163485Y-130247170D01*
X81522703Y-130098744D01*
X81797778Y-129824149D01*
X81946830Y-129465190D01*
X81947170Y-129076515D01*
X81798744Y-128717297D01*
X81716688Y-128635098D01*
X81797778Y-128554149D01*
X81946830Y-128195190D01*
X81947170Y-127806515D01*
X81811017Y-127477000D01*
X83149995Y-127477000D01*
X83150000Y-127477001D01*
X83382052Y-127430842D01*
X83428211Y-127421660D01*
X83664067Y-127264067D01*
X87123000Y-123805133D01*
X87123000Y-130495314D01*
X87123000Y-130495314D01*
G37*
X87123000Y-130495314D02*
X87095314Y-130523000D01*
X70197581Y-130523000D01*
X69866705Y-130192125D01*
X70092703Y-130098744D01*
X70174902Y-130016688D01*
X70255851Y-130097778D01*
X70614810Y-130246830D01*
X71003485Y-130247170D01*
X71362703Y-130098744D01*
X71444902Y-130016688D01*
X71525851Y-130097778D01*
X71884810Y-130246830D01*
X72273485Y-130247170D01*
X72632703Y-130098744D01*
X72714902Y-130016688D01*
X72795851Y-130097778D01*
X73154810Y-130246830D01*
X73543485Y-130247170D01*
X73902703Y-130098744D01*
X74045326Y-129956370D01*
X74079282Y-129990326D01*
X74151341Y-129918267D01*
X74202487Y-130060723D01*
X74536864Y-130160308D01*
X74883899Y-130124353D01*
X75037513Y-130060723D01*
X75088660Y-129918265D01*
X75421340Y-129918265D01*
X75472487Y-130060723D01*
X75806864Y-130160308D01*
X76153899Y-130124353D01*
X76307513Y-130060723D01*
X76358660Y-129918265D01*
X75890000Y-129449605D01*
X75421340Y-129918265D01*
X75088660Y-129918265D01*
X74620000Y-129449605D01*
X74605858Y-129463748D01*
X74426253Y-129284143D01*
X74440395Y-129270000D01*
X74426253Y-129255858D01*
X74605858Y-129076253D01*
X74620000Y-129090395D01*
X74634143Y-129076253D01*
X74813748Y-129255858D01*
X74799605Y-129270000D01*
X75032427Y-129502822D01*
X75035647Y-129533899D01*
X75099277Y-129687513D01*
X75241735Y-129738660D01*
X75255000Y-129725395D01*
X75268265Y-129738660D01*
X75410723Y-129687513D01*
X75460704Y-129519691D01*
X75710395Y-129270000D01*
X75696253Y-129255858D01*
X75875858Y-129076253D01*
X75890000Y-129090395D01*
X75904143Y-129076253D01*
X76083748Y-129255858D01*
X76069605Y-129270000D01*
X76302427Y-129502822D01*
X76305647Y-129533899D01*
X76369277Y-129687513D01*
X76511735Y-129738660D01*
X76525000Y-129725395D01*
X76538265Y-129738660D01*
X76680723Y-129687513D01*
X76730704Y-129519691D01*
X76980395Y-129270000D01*
X76966253Y-129255858D01*
X77145858Y-129076253D01*
X77160000Y-129090395D01*
X77174143Y-129076253D01*
X77353748Y-129255858D01*
X77339605Y-129270000D01*
X77353748Y-129284143D01*
X77174143Y-129463748D01*
X77160000Y-129449605D01*
X76691340Y-129918265D01*
X76742487Y-130060723D01*
X77076864Y-130160308D01*
X77423899Y-130124353D01*
X77577513Y-130060723D01*
X77628659Y-129918267D01*
X77700718Y-129990326D01*
X77734682Y-129956362D01*
X77875851Y-130097778D01*
X78234810Y-130246830D01*
X78623485Y-130247170D01*
X78982703Y-130098744D01*
X79064902Y-130016688D01*
X79145851Y-130097778D01*
X79504810Y-130246830D01*
X79893485Y-130247170D01*
X80252703Y-130098744D01*
X80334902Y-130016688D01*
X80415851Y-130097778D01*
X80774810Y-130246830D01*
X81163485Y-130247170D01*
X81522703Y-130098744D01*
X81797778Y-129824149D01*
X81946830Y-129465190D01*
X81947170Y-129076515D01*
X81798744Y-128717297D01*
X81716688Y-128635098D01*
X81797778Y-128554149D01*
X81946830Y-128195190D01*
X81947170Y-127806515D01*
X81811017Y-127477000D01*
X83149995Y-127477000D01*
X83150000Y-127477001D01*
X83382052Y-127430842D01*
X83428211Y-127421660D01*
X83664067Y-127264067D01*
X87123000Y-123805133D01*
X87123000Y-130495314D01*
G36*
X95549988Y-67672213D02*
X96016245Y-67983756D01*
X96327787Y-68450013D01*
X96448000Y-69054369D01*
X96448000Y-72000000D01*
X96458607Y-72053324D01*
X96458607Y-72107690D01*
X96610847Y-72873056D01*
X96610847Y-72873057D01*
X96617993Y-72890308D01*
X96693269Y-73072041D01*
X96693272Y-73072044D01*
X97126814Y-73720888D01*
X97126815Y-73720890D01*
X97169993Y-73764067D01*
X97279110Y-73873185D01*
X97279115Y-73873187D01*
X97927955Y-74306728D01*
X97927958Y-74306731D01*
X98027451Y-74347942D01*
X98126943Y-74389153D01*
X98126948Y-74389153D01*
X98892310Y-74541393D01*
X98946676Y-74541393D01*
X99000000Y-74552000D01*
X119945635Y-74552000D01*
X122080720Y-74976695D01*
X123844672Y-76155329D01*
X125023305Y-77919279D01*
X125448000Y-80054370D01*
X125448000Y-119945630D01*
X125023305Y-122080721D01*
X123844672Y-123844671D01*
X122080720Y-125023305D01*
X119945635Y-125448000D01*
X99000000Y-125448000D01*
X98946676Y-125458607D01*
X98892310Y-125458607D01*
X98126948Y-125610847D01*
X98030086Y-125650967D01*
X97927958Y-125693269D01*
X97927955Y-125693272D01*
X97279115Y-126126813D01*
X97279110Y-126126815D01*
X97194685Y-126211241D01*
X97126815Y-126279110D01*
X97126815Y-126279111D01*
X97126814Y-126279112D01*
X96727000Y-126877478D01*
X96727000Y-121654686D01*
X97654687Y-120727000D01*
X109750000Y-120727000D01*
X109943129Y-120688584D01*
X116522398Y-120688584D01*
X117050624Y-121966989D01*
X118027866Y-122945938D01*
X119305348Y-123476395D01*
X120688584Y-123477602D01*
X121966989Y-122949376D01*
X122945938Y-121972134D01*
X123476395Y-120694652D01*
X123477602Y-119311416D01*
X122949376Y-118033011D01*
X121972134Y-117054062D01*
X120694652Y-116523605D01*
X119311416Y-116522398D01*
X118033011Y-117050624D01*
X117054062Y-118027866D01*
X116523605Y-119305348D01*
X116522398Y-120688584D01*
X109943129Y-120688584D01*
X110123882Y-120652630D01*
X110440843Y-120440843D01*
X124090843Y-106790843D01*
X124224641Y-106590600D01*
X124302630Y-106473882D01*
X124377000Y-106100000D01*
X124377000Y-102296142D01*
X124386344Y-102250000D01*
X124386344Y-99750000D01*
X124377000Y-99700341D01*
X124377000Y-99154686D01*
X124637344Y-98894342D01*
X124733790Y-98750000D01*
X124849131Y-98577381D01*
X124923501Y-98203499D01*
X124923501Y-91530999D01*
X124849131Y-91157117D01*
X124637344Y-90840156D01*
X122706345Y-88909157D01*
X122542980Y-88800000D01*
X122389384Y-88697370D01*
X122015502Y-88623000D01*
X116904687Y-88623000D01*
X109840843Y-81559157D01*
X109674485Y-81448000D01*
X109523882Y-81347370D01*
X109150000Y-81273000D01*
X105792344Y-81273000D01*
X105792344Y-81234000D01*
X105759083Y-81057235D01*
X105654615Y-80894887D01*
X105495215Y-80785973D01*
X105306000Y-80747656D01*
X103274000Y-80747656D01*
X103097235Y-80780917D01*
X102934887Y-80885385D01*
X102825973Y-81044785D01*
X102802108Y-81162633D01*
X102677980Y-81079693D01*
X102677980Y-80688584D01*
X116522398Y-80688584D01*
X117050624Y-81966989D01*
X118027866Y-82945938D01*
X119305348Y-83476395D01*
X120688584Y-83477602D01*
X121966989Y-82949376D01*
X122945938Y-81972134D01*
X123476395Y-80694652D01*
X123477602Y-79311416D01*
X122949376Y-78033011D01*
X121972134Y-77054062D01*
X120694652Y-76523605D01*
X119311416Y-76522398D01*
X118033011Y-77050624D01*
X117054062Y-78027866D01*
X116523605Y-79305348D01*
X116522398Y-80688584D01*
X102677980Y-80688584D01*
X102677980Y-80061782D01*
X102727185Y-80052523D01*
X102889533Y-79948055D01*
X102998447Y-79788655D01*
X102999898Y-79781490D01*
X103100965Y-79938553D01*
X103260365Y-80047467D01*
X103449580Y-80085784D01*
X104648460Y-80085784D01*
X104825225Y-80052523D01*
X104987573Y-79948055D01*
X105096487Y-79788655D01*
X105134804Y-79599440D01*
X105134804Y-78400560D01*
X105101543Y-78223795D01*
X104997075Y-78061447D01*
X104837675Y-77952533D01*
X104677000Y-77919995D01*
X104677000Y-77693166D01*
X104748027Y-77589215D01*
X104786344Y-77400000D01*
X104786344Y-76100000D01*
X104753083Y-75923235D01*
X104648615Y-75760887D01*
X104489215Y-75651973D01*
X104300000Y-75613656D01*
X103600000Y-75613656D01*
X103423235Y-75646917D01*
X103260887Y-75751385D01*
X103151973Y-75910785D01*
X103113656Y-76100000D01*
X103113656Y-77400000D01*
X103146917Y-77576765D01*
X103223000Y-77695001D01*
X103223000Y-77979532D01*
X103110467Y-78051945D01*
X103001553Y-78211345D01*
X103000102Y-78218510D01*
X102899035Y-78061447D01*
X102739635Y-77952533D01*
X102550420Y-77914216D01*
X101351540Y-77914216D01*
X101174775Y-77947477D01*
X101012427Y-78051945D01*
X100903513Y-78211345D01*
X100865196Y-78400560D01*
X100865196Y-79599440D01*
X100898457Y-79776205D01*
X101002925Y-79938553D01*
X101162325Y-80047467D01*
X101223980Y-80059952D01*
X101223980Y-80832382D01*
X101178654Y-80841398D01*
X100694290Y-81165040D01*
X100370648Y-81649404D01*
X100257000Y-82220750D01*
X100257000Y-82279250D01*
X100370648Y-82850596D01*
X100694290Y-83334960D01*
X101178654Y-83658602D01*
X101750000Y-83772250D01*
X102321346Y-83658602D01*
X102801199Y-83337974D01*
X102820917Y-83442765D01*
X102925385Y-83605113D01*
X103084785Y-83714027D01*
X103274000Y-83752344D01*
X105306000Y-83752344D01*
X105482765Y-83719083D01*
X105645113Y-83614615D01*
X105754027Y-83455215D01*
X105792344Y-83266000D01*
X105792344Y-83227000D01*
X108745314Y-83227000D01*
X115809157Y-90290844D01*
X116126119Y-90502631D01*
X116500000Y-90577000D01*
X121610816Y-90577000D01*
X122638472Y-91604656D01*
X122103500Y-91604656D01*
X121926735Y-91637917D01*
X121764387Y-91742385D01*
X121655473Y-91901785D01*
X121617156Y-92091000D01*
X121617156Y-92599000D01*
X121650417Y-92775765D01*
X121754885Y-92938113D01*
X121815474Y-92979512D01*
X121764387Y-93012385D01*
X121655473Y-93171785D01*
X121617156Y-93361000D01*
X121617156Y-93869000D01*
X121650417Y-94045765D01*
X121754885Y-94208113D01*
X121815474Y-94249512D01*
X121764387Y-94282385D01*
X121655473Y-94441785D01*
X121617156Y-94631000D01*
X121617156Y-95139000D01*
X121650417Y-95315765D01*
X121754885Y-95478113D01*
X121899968Y-95577244D01*
X121889947Y-95581395D01*
X121783895Y-95687447D01*
X121726500Y-95826010D01*
X121726500Y-95933750D01*
X121820750Y-96028000D01*
X122548000Y-96028000D01*
X122548000Y-96008000D01*
X122802000Y-96008000D01*
X122802000Y-96028000D01*
X122822000Y-96028000D01*
X122822000Y-96282000D01*
X122802000Y-96282000D01*
X122802000Y-96691750D01*
X122896250Y-96786000D01*
X122969501Y-96786000D01*
X122969501Y-97798813D01*
X122709157Y-98059157D01*
X122497370Y-98376118D01*
X122423000Y-98750000D01*
X122423000Y-99703858D01*
X122421016Y-99713656D01*
X121950000Y-99713656D01*
X121773235Y-99746917D01*
X121610887Y-99851385D01*
X121501973Y-100010785D01*
X121463656Y-100200000D01*
X121463656Y-101800000D01*
X121496917Y-101976765D01*
X121601385Y-102139113D01*
X121760785Y-102248027D01*
X121950000Y-102286344D01*
X122420495Y-102286344D01*
X122423000Y-102299659D01*
X122423000Y-105695314D01*
X109345314Y-118773000D01*
X97250000Y-118773000D01*
X96876118Y-118847370D01*
X96559156Y-119059157D01*
X95059157Y-120559157D01*
X94847370Y-120876118D01*
X94773000Y-121250000D01*
X94773000Y-128845314D01*
X93295314Y-130323000D01*
X89077000Y-130323000D01*
X89077000Y-127893485D01*
X92422830Y-127893485D01*
X92571256Y-128252703D01*
X92845851Y-128527778D01*
X93204810Y-128676830D01*
X93593485Y-128677170D01*
X93952703Y-128528744D01*
X94227778Y-128254149D01*
X94376830Y-127895190D01*
X94377170Y-127506515D01*
X94228744Y-127147297D01*
X94227000Y-127145550D01*
X94227000Y-120801134D01*
X97351134Y-117677000D01*
X109249995Y-117677000D01*
X109250000Y-117677001D01*
X109482052Y-117630842D01*
X109528211Y-117621660D01*
X109764067Y-117464067D01*
X116839067Y-110389067D01*
X116898579Y-110300000D01*
X116996660Y-110153211D01*
X117006542Y-110103529D01*
X117052001Y-109875000D01*
X117052000Y-109874995D01*
X117052000Y-96866084D01*
X117073265Y-96862083D01*
X117235613Y-96757615D01*
X117344527Y-96598215D01*
X117382844Y-96409000D01*
X117382844Y-96010977D01*
X117773000Y-96401133D01*
X117773000Y-97204242D01*
X117660887Y-97276385D01*
X117551973Y-97435785D01*
X117513656Y-97625000D01*
X117513656Y-98875000D01*
X117546917Y-99051765D01*
X117651385Y-99214113D01*
X117773000Y-99297209D01*
X117773000Y-99329242D01*
X117660887Y-99401385D01*
X117551973Y-99560785D01*
X117513656Y-99750000D01*
X117513656Y-102250000D01*
X117546917Y-102426765D01*
X117651385Y-102589113D01*
X117810785Y-102698027D01*
X118000000Y-102736344D01*
X119000000Y-102736344D01*
X119176765Y-102703083D01*
X119339113Y-102598615D01*
X119448027Y-102439215D01*
X119478984Y-102286344D01*
X119950000Y-102286344D01*
X120126765Y-102253083D01*
X120289113Y-102148615D01*
X120398027Y-101989215D01*
X120436344Y-101800000D01*
X120436344Y-100200000D01*
X120403083Y-100023235D01*
X120298615Y-99860887D01*
X120139215Y-99751973D01*
X119950000Y-99713656D01*
X119479505Y-99713656D01*
X119453083Y-99573235D01*
X119348615Y-99410887D01*
X119227000Y-99327791D01*
X119227000Y-99295758D01*
X119339113Y-99223615D01*
X119448027Y-99064215D01*
X119486344Y-98875000D01*
X119486344Y-98471250D01*
X119623000Y-98471250D01*
X119623000Y-98949990D01*
X119680395Y-99088553D01*
X119786447Y-99194605D01*
X119925010Y-99252000D01*
X120278750Y-99252000D01*
X120373000Y-99157750D01*
X120373000Y-98377000D01*
X120627000Y-98377000D01*
X120627000Y-99157750D01*
X120721250Y-99252000D01*
X121074990Y-99252000D01*
X121213553Y-99194605D01*
X121319605Y-99088553D01*
X121377000Y-98949990D01*
X121377000Y-98471250D01*
X121282750Y-98377000D01*
X120627000Y-98377000D01*
X120373000Y-98377000D01*
X119717250Y-98377000D01*
X119623000Y-98471250D01*
X119486344Y-98471250D01*
X119486344Y-97625000D01*
X119472234Y-97550010D01*
X119623000Y-97550010D01*
X119623000Y-98028750D01*
X119717250Y-98123000D01*
X120373000Y-98123000D01*
X120373000Y-97342250D01*
X120627000Y-97342250D01*
X120627000Y-98123000D01*
X121282750Y-98123000D01*
X121377000Y-98028750D01*
X121377000Y-97550010D01*
X121319605Y-97411447D01*
X121213553Y-97305395D01*
X121074990Y-97248000D01*
X120721250Y-97248000D01*
X120627000Y-97342250D01*
X120373000Y-97342250D01*
X120278750Y-97248000D01*
X119925010Y-97248000D01*
X119786447Y-97305395D01*
X119680395Y-97411447D01*
X119623000Y-97550010D01*
X119472234Y-97550010D01*
X119453083Y-97448235D01*
X119348615Y-97285887D01*
X119227000Y-97202791D01*
X119227000Y-96376250D01*
X121726500Y-96376250D01*
X121726500Y-96483990D01*
X121783895Y-96622553D01*
X121889947Y-96728605D01*
X122028510Y-96786000D01*
X122453750Y-96786000D01*
X122548000Y-96691750D01*
X122548000Y-96282000D01*
X121820750Y-96282000D01*
X121726500Y-96376250D01*
X119227000Y-96376250D01*
X119227000Y-96100000D01*
X119171660Y-95821789D01*
X119014067Y-95585933D01*
X119014064Y-95585931D01*
X117799067Y-94370933D01*
X117718390Y-94317027D01*
X117563211Y-94213340D01*
X117517052Y-94204158D01*
X117285000Y-94157999D01*
X117284995Y-94158000D01*
X117276346Y-94158000D01*
X117344527Y-94058215D01*
X117382844Y-93869000D01*
X117382844Y-93361000D01*
X117349583Y-93184235D01*
X117245115Y-93021887D01*
X117184526Y-92980488D01*
X117235613Y-92947615D01*
X117344527Y-92788215D01*
X117382844Y-92599000D01*
X117382844Y-92091000D01*
X117349583Y-91914235D01*
X117245115Y-91751887D01*
X117085715Y-91642973D01*
X116896500Y-91604656D01*
X115753500Y-91604656D01*
X115576735Y-91637917D01*
X115414387Y-91742385D01*
X115305473Y-91901785D01*
X115267156Y-92091000D01*
X115267156Y-92599000D01*
X115300417Y-92775765D01*
X115404885Y-92938113D01*
X115465474Y-92979512D01*
X115414387Y-93012385D01*
X115305473Y-93171785D01*
X115267156Y-93361000D01*
X115267156Y-93869000D01*
X115300417Y-94045765D01*
X115404885Y-94208113D01*
X115465474Y-94249512D01*
X115414387Y-94282385D01*
X115305473Y-94441785D01*
X115267156Y-94631000D01*
X115267156Y-95139000D01*
X115300417Y-95315765D01*
X115404885Y-95478113D01*
X115465474Y-95519512D01*
X115414387Y-95552385D01*
X115305473Y-95711785D01*
X115267156Y-95901000D01*
X115267156Y-96409000D01*
X115300417Y-96585765D01*
X115404885Y-96748113D01*
X115564285Y-96857027D01*
X115598000Y-96863854D01*
X115598000Y-109573866D01*
X108948866Y-116223000D01*
X97050000Y-116223000D01*
X96771789Y-116278340D01*
X96535933Y-116435933D01*
X92985933Y-119985933D01*
X92828340Y-120221789D01*
X92828340Y-120221790D01*
X92772999Y-120500000D01*
X92773000Y-120500005D01*
X92773000Y-126945423D01*
X92572222Y-127145851D01*
X92423170Y-127504810D01*
X92422830Y-127893485D01*
X89077000Y-127893485D01*
X89077000Y-116556482D01*
X89053021Y-116435933D01*
X89002631Y-116182601D01*
X88790844Y-115865639D01*
X84559545Y-111634341D01*
X84702713Y-111542215D01*
X84811627Y-111382815D01*
X84849944Y-111193600D01*
X84849944Y-109466400D01*
X84816683Y-109289635D01*
X84712215Y-109127287D01*
X84552815Y-109018373D01*
X84363600Y-108980056D01*
X84111870Y-108980056D01*
X84474211Y-108737947D01*
X84764817Y-108303025D01*
X84866864Y-107790000D01*
X84764817Y-107276975D01*
X84474211Y-106842053D01*
X84039289Y-106551447D01*
X83881194Y-106520000D01*
X84039289Y-106488553D01*
X84474211Y-106197947D01*
X84764817Y-105763025D01*
X84866864Y-105250000D01*
X84764817Y-104736975D01*
X84474211Y-104302053D01*
X84039289Y-104011447D01*
X83881194Y-103980000D01*
X84039289Y-103948553D01*
X84474211Y-103657947D01*
X84764817Y-103223025D01*
X84866864Y-102710000D01*
X84764817Y-102196975D01*
X84474211Y-101762053D01*
X84039289Y-101471447D01*
X83881194Y-101440000D01*
X84039289Y-101408553D01*
X84474211Y-101117947D01*
X84764817Y-100683025D01*
X84866864Y-100170000D01*
X84764817Y-99656975D01*
X84474211Y-99222053D01*
X84039289Y-98931447D01*
X83755511Y-98875000D01*
X84039289Y-98818553D01*
X84474211Y-98527947D01*
X84764817Y-98093025D01*
X84866864Y-97580000D01*
X84764817Y-97066975D01*
X84474211Y-96632053D01*
X84039289Y-96341447D01*
X83881194Y-96310000D01*
X84039289Y-96278553D01*
X84474211Y-95987947D01*
X84764817Y-95553025D01*
X84775364Y-95500000D01*
X84948000Y-95500000D01*
X84948000Y-104500000D01*
X84958607Y-104553324D01*
X84958607Y-104607690D01*
X85719811Y-108434524D01*
X85802233Y-108633508D01*
X85802234Y-108633509D01*
X87969961Y-111877743D01*
X88122257Y-112030040D01*
X88122261Y-112030042D01*
X91366489Y-114197765D01*
X91366491Y-114197767D01*
X91424772Y-114221908D01*
X91565476Y-114280189D01*
X91565481Y-114280189D01*
X95392310Y-115041393D01*
X95446676Y-115041393D01*
X95500000Y-115052000D01*
X104500000Y-115052000D01*
X104553324Y-115041393D01*
X104607690Y-115041393D01*
X108434524Y-114280189D01*
X108633508Y-114197767D01*
X108633509Y-114197766D01*
X111877743Y-112030039D01*
X112030040Y-111877743D01*
X112030042Y-111877739D01*
X114197765Y-108633511D01*
X114197767Y-108633509D01*
X114222826Y-108573011D01*
X114280189Y-108434524D01*
X114280189Y-108434519D01*
X115041393Y-104607690D01*
X115041393Y-104553324D01*
X115052000Y-104500000D01*
X115052000Y-95500000D01*
X115041393Y-95446676D01*
X115041393Y-95392310D01*
X114280189Y-91565481D01*
X114280189Y-91565476D01*
X114197767Y-91366492D01*
X114197767Y-91366491D01*
X114197765Y-91366489D01*
X112030042Y-88122261D01*
X112030040Y-88122257D01*
X111877743Y-87969961D01*
X108633509Y-85802234D01*
X108633508Y-85802233D01*
X108434524Y-85719811D01*
X104607690Y-84958607D01*
X104553324Y-84958607D01*
X104500000Y-84948000D01*
X95500000Y-84948000D01*
X95446676Y-84958607D01*
X95392310Y-84958607D01*
X91565481Y-85719811D01*
X91565476Y-85719811D01*
X91424772Y-85778092D01*
X91366491Y-85802233D01*
X91366489Y-85802235D01*
X88122261Y-87969958D01*
X88122257Y-87969960D01*
X87969961Y-88122257D01*
X85802234Y-91366491D01*
X85802233Y-91366492D01*
X85719811Y-91565476D01*
X84958607Y-95392310D01*
X84958607Y-95446676D01*
X84948000Y-95500000D01*
X84775364Y-95500000D01*
X84866864Y-95040000D01*
X84764817Y-94526975D01*
X84474211Y-94092053D01*
X84039289Y-93801447D01*
X83627002Y-93719438D01*
X83627002Y-93639845D01*
X83818491Y-93699033D01*
X84253097Y-93485881D01*
X84573051Y-93122638D01*
X84699021Y-92818489D01*
X84639293Y-92627000D01*
X83627000Y-92627000D01*
X83627000Y-92647000D01*
X83373000Y-92647000D01*
X83373000Y-92627000D01*
X82360707Y-92627000D01*
X82300979Y-92818489D01*
X82426949Y-93122638D01*
X82746903Y-93485881D01*
X83181509Y-93699033D01*
X83372998Y-93639845D01*
X83372998Y-93719438D01*
X82960711Y-93801447D01*
X82525789Y-94092053D01*
X82378157Y-94313000D01*
X82081843Y-94313000D01*
X81934211Y-94092053D01*
X81499289Y-93801447D01*
X81087002Y-93719438D01*
X81087002Y-93639845D01*
X81278491Y-93699033D01*
X81713097Y-93485881D01*
X82033051Y-93122638D01*
X82159021Y-92818489D01*
X82099293Y-92627000D01*
X81087000Y-92627000D01*
X81087000Y-92647000D01*
X80833000Y-92647000D01*
X80833000Y-92627000D01*
X80813000Y-92627000D01*
X80813000Y-92373000D01*
X80833000Y-92373000D01*
X80833000Y-92353000D01*
X81087000Y-92353000D01*
X81087000Y-92373000D01*
X82099293Y-92373000D01*
X82159021Y-92181511D01*
X82033051Y-91877362D01*
X81713097Y-91514119D01*
X81296795Y-91309944D01*
X81823600Y-91309944D01*
X82000365Y-91276683D01*
X82162713Y-91172215D01*
X82271627Y-91012815D01*
X82309944Y-90823600D01*
X82309944Y-90584913D01*
X82525789Y-90907947D01*
X82960711Y-91198553D01*
X83372998Y-91280562D01*
X83372998Y-91360155D01*
X83181509Y-91300967D01*
X82746903Y-91514119D01*
X82426949Y-91877362D01*
X82300979Y-92181511D01*
X82360707Y-92373000D01*
X83373000Y-92373000D01*
X83373000Y-92353000D01*
X83627000Y-92353000D01*
X83627000Y-92373000D01*
X84639293Y-92373000D01*
X84699021Y-92181511D01*
X84573051Y-91877362D01*
X84253097Y-91514119D01*
X83818491Y-91300967D01*
X83627002Y-91360155D01*
X83627002Y-91280562D01*
X84039289Y-91198553D01*
X84474211Y-90907947D01*
X84764817Y-90473025D01*
X84866864Y-89960000D01*
X84764817Y-89446975D01*
X84474211Y-89012053D01*
X84039289Y-88721447D01*
X83526264Y-88619400D01*
X83473736Y-88619400D01*
X82960711Y-88721447D01*
X82525789Y-89012053D01*
X82309944Y-89335087D01*
X82309944Y-89096400D01*
X82276683Y-88919635D01*
X82172215Y-88757287D01*
X82012815Y-88648373D01*
X81823600Y-88610056D01*
X80477633Y-88610056D01*
X81110689Y-87977000D01*
X83000000Y-87977000D01*
X83373882Y-87902630D01*
X83690843Y-87690843D01*
X87690843Y-83690844D01*
X87848285Y-83455215D01*
X87902630Y-83373882D01*
X87977000Y-83000000D01*
X87977000Y-81234000D01*
X94207656Y-81234000D01*
X94207656Y-83266000D01*
X94240917Y-83442765D01*
X94345385Y-83605113D01*
X94504785Y-83714027D01*
X94694000Y-83752344D01*
X96726000Y-83752344D01*
X96902765Y-83719083D01*
X97065113Y-83614615D01*
X97174027Y-83455215D01*
X97197892Y-83337367D01*
X97678654Y-83658602D01*
X98250000Y-83772250D01*
X98821346Y-83658602D01*
X99305710Y-83334960D01*
X99629352Y-82850596D01*
X99743000Y-82279250D01*
X99743000Y-82220750D01*
X99629352Y-81649404D01*
X99305710Y-81165040D01*
X98821346Y-80841398D01*
X98776020Y-80832382D01*
X98776020Y-80061782D01*
X98825225Y-80052523D01*
X98987573Y-79948055D01*
X99096487Y-79788655D01*
X99134804Y-79599440D01*
X99134804Y-78400560D01*
X99101543Y-78223795D01*
X98997075Y-78061447D01*
X98837675Y-77952533D01*
X98648460Y-77914216D01*
X97449580Y-77914216D01*
X97272815Y-77947477D01*
X97110467Y-78051945D01*
X97001553Y-78211345D01*
X97000102Y-78218510D01*
X96899035Y-78061447D01*
X96777000Y-77978064D01*
X96777000Y-77693166D01*
X96848027Y-77589215D01*
X96886344Y-77400000D01*
X96886344Y-76971250D01*
X97223000Y-76971250D01*
X97223000Y-77474990D01*
X97280395Y-77613553D01*
X97386447Y-77719605D01*
X97525010Y-77777000D01*
X97728750Y-77777000D01*
X97823000Y-77682750D01*
X97823000Y-76877000D01*
X98077000Y-76877000D01*
X98077000Y-77682750D01*
X98171250Y-77777000D01*
X98374990Y-77777000D01*
X98513553Y-77719605D01*
X98619605Y-77613553D01*
X98677000Y-77474990D01*
X98677000Y-76971250D01*
X101323000Y-76971250D01*
X101323000Y-77474990D01*
X101380395Y-77613553D01*
X101486447Y-77719605D01*
X101625010Y-77777000D01*
X101828750Y-77777000D01*
X101923000Y-77682750D01*
X101923000Y-76877000D01*
X102177000Y-76877000D01*
X102177000Y-77682750D01*
X102271250Y-77777000D01*
X102474990Y-77777000D01*
X102613553Y-77719605D01*
X102719605Y-77613553D01*
X102777000Y-77474990D01*
X102777000Y-76971250D01*
X102682750Y-76877000D01*
X102177000Y-76877000D01*
X101923000Y-76877000D01*
X101417250Y-76877000D01*
X101323000Y-76971250D01*
X98677000Y-76971250D01*
X98582750Y-76877000D01*
X98077000Y-76877000D01*
X97823000Y-76877000D01*
X97317250Y-76877000D01*
X97223000Y-76971250D01*
X96886344Y-76971250D01*
X96886344Y-76100000D01*
X96872234Y-76025010D01*
X97223000Y-76025010D01*
X97223000Y-76528750D01*
X97317250Y-76623000D01*
X97823000Y-76623000D01*
X97823000Y-75817250D01*
X98077000Y-75817250D01*
X98077000Y-76623000D01*
X98582750Y-76623000D01*
X98677000Y-76528750D01*
X98677000Y-76025010D01*
X101323000Y-76025010D01*
X101323000Y-76528750D01*
X101417250Y-76623000D01*
X101923000Y-76623000D01*
X101923000Y-75817250D01*
X102177000Y-75817250D01*
X102177000Y-76623000D01*
X102682750Y-76623000D01*
X102777000Y-76528750D01*
X102777000Y-76025010D01*
X102719605Y-75886447D01*
X102613553Y-75780395D01*
X102474990Y-75723000D01*
X102271250Y-75723000D01*
X102177000Y-75817250D01*
X101923000Y-75817250D01*
X101828750Y-75723000D01*
X101625010Y-75723000D01*
X101486447Y-75780395D01*
X101380395Y-75886447D01*
X101323000Y-76025010D01*
X98677000Y-76025010D01*
X98619605Y-75886447D01*
X98513553Y-75780395D01*
X98374990Y-75723000D01*
X98171250Y-75723000D01*
X98077000Y-75817250D01*
X97823000Y-75817250D01*
X97728750Y-75723000D01*
X97525010Y-75723000D01*
X97386447Y-75780395D01*
X97280395Y-75886447D01*
X97223000Y-76025010D01*
X96872234Y-76025010D01*
X96853083Y-75923235D01*
X96748615Y-75760887D01*
X96589215Y-75651973D01*
X96400000Y-75613656D01*
X95700000Y-75613656D01*
X95523235Y-75646917D01*
X95360887Y-75751385D01*
X95251973Y-75910785D01*
X95213656Y-76100000D01*
X95213656Y-77400000D01*
X95246917Y-77576765D01*
X95323000Y-77695001D01*
X95323000Y-77919586D01*
X95174775Y-77947477D01*
X95012427Y-78051945D01*
X94903513Y-78211345D01*
X94865196Y-78400560D01*
X94865196Y-79599440D01*
X94898457Y-79776205D01*
X95002925Y-79938553D01*
X95162325Y-80047467D01*
X95351540Y-80085784D01*
X96550420Y-80085784D01*
X96727185Y-80052523D01*
X96889533Y-79948055D01*
X96998447Y-79788655D01*
X96999898Y-79781490D01*
X97100965Y-79938553D01*
X97260365Y-80047467D01*
X97322020Y-80059952D01*
X97322020Y-81079693D01*
X97198801Y-81162026D01*
X97179083Y-81057235D01*
X97074615Y-80894887D01*
X96915215Y-80785973D01*
X96726000Y-80747656D01*
X94694000Y-80747656D01*
X94517235Y-80780917D01*
X94354887Y-80885385D01*
X94245973Y-81044785D01*
X94207656Y-81234000D01*
X87977000Y-81234000D01*
X87977000Y-77000000D01*
X87902630Y-76626118D01*
X87690843Y-76309157D01*
X83940843Y-72559157D01*
X83623881Y-72347370D01*
X83250000Y-72273000D01*
X82876119Y-72347370D01*
X82875176Y-72348000D01*
X81883378Y-72348000D01*
X81946830Y-72195190D01*
X81947170Y-71806515D01*
X81798744Y-71447297D01*
X81716688Y-71365098D01*
X81797778Y-71284149D01*
X81946830Y-70925190D01*
X81947170Y-70536515D01*
X81798744Y-70177297D01*
X81524149Y-69902222D01*
X81165190Y-69753170D01*
X80776515Y-69752830D01*
X80417297Y-69901256D01*
X80335098Y-69983312D01*
X80254149Y-69902222D01*
X79895190Y-69753170D01*
X79506515Y-69752830D01*
X79147297Y-69901256D01*
X79065098Y-69983312D01*
X78984149Y-69902222D01*
X78625190Y-69753170D01*
X78236515Y-69752830D01*
X77877297Y-69901256D01*
X77734674Y-70043630D01*
X77700718Y-70009674D01*
X77628659Y-70081733D01*
X77577513Y-69939277D01*
X77243136Y-69839692D01*
X76896101Y-69875647D01*
X76742487Y-69939277D01*
X76691340Y-70081735D01*
X77160000Y-70550395D01*
X77174143Y-70536253D01*
X77353748Y-70715858D01*
X77339605Y-70730000D01*
X77353748Y-70744143D01*
X77174143Y-70923748D01*
X77160000Y-70909605D01*
X77145858Y-70923748D01*
X76966253Y-70744143D01*
X76980395Y-70730000D01*
X76747573Y-70497178D01*
X76744353Y-70466101D01*
X76680723Y-70312487D01*
X76538265Y-70261340D01*
X76525000Y-70274605D01*
X76511735Y-70261340D01*
X76369277Y-70312487D01*
X76319296Y-70480309D01*
X76069605Y-70730000D01*
X76083748Y-70744143D01*
X75904143Y-70923748D01*
X75890000Y-70909605D01*
X75875858Y-70923748D01*
X75696253Y-70744143D01*
X75710395Y-70730000D01*
X75477573Y-70497178D01*
X75474353Y-70466101D01*
X75410723Y-70312487D01*
X75268265Y-70261340D01*
X75255000Y-70274605D01*
X75241735Y-70261340D01*
X75099277Y-70312487D01*
X75049296Y-70480309D01*
X74799605Y-70730000D01*
X74813748Y-70744143D01*
X74634143Y-70923748D01*
X74620000Y-70909605D01*
X74605858Y-70923748D01*
X74426253Y-70744143D01*
X74440395Y-70730000D01*
X74426253Y-70715858D01*
X74605858Y-70536253D01*
X74620000Y-70550395D01*
X75088660Y-70081735D01*
X75421340Y-70081735D01*
X75890000Y-70550395D01*
X76358660Y-70081735D01*
X76307513Y-69939277D01*
X75973136Y-69839692D01*
X75626101Y-69875647D01*
X75472487Y-69939277D01*
X75421340Y-70081735D01*
X75088660Y-70081735D01*
X75037513Y-69939277D01*
X74703136Y-69839692D01*
X74356101Y-69875647D01*
X74202487Y-69939277D01*
X74151341Y-70081733D01*
X74079282Y-70009674D01*
X74045318Y-70043638D01*
X73904149Y-69902222D01*
X73545190Y-69753170D01*
X73156515Y-69752830D01*
X72797297Y-69901256D01*
X72715098Y-69983312D01*
X72634149Y-69902222D01*
X72275190Y-69753170D01*
X71886515Y-69752830D01*
X71527297Y-69901256D01*
X71445098Y-69983312D01*
X71364149Y-69902222D01*
X71005190Y-69753170D01*
X70616515Y-69752830D01*
X70257297Y-69901256D01*
X70175098Y-69983312D01*
X70094149Y-69902222D01*
X69735190Y-69753170D01*
X69346515Y-69752830D01*
X68987297Y-69901256D01*
X68905098Y-69983312D01*
X68824149Y-69902222D01*
X68465190Y-69753170D01*
X68076515Y-69752830D01*
X67717297Y-69901256D01*
X67635098Y-69983312D01*
X67554149Y-69902222D01*
X67195190Y-69753170D01*
X66806515Y-69752830D01*
X66447297Y-69901256D01*
X66172222Y-70175851D01*
X66023170Y-70534810D01*
X66022830Y-70923485D01*
X66171256Y-71282703D01*
X66253312Y-71364902D01*
X66172222Y-71445851D01*
X66023170Y-71804810D01*
X66022830Y-72193485D01*
X66171256Y-72552703D01*
X66445851Y-72827778D01*
X66804810Y-72976830D01*
X67193485Y-72977170D01*
X67543000Y-72832753D01*
X67543000Y-76519995D01*
X67542999Y-76520000D01*
X67583555Y-76723881D01*
X67598340Y-76798211D01*
X67650985Y-76877000D01*
X67755933Y-77034067D01*
X69073000Y-78351133D01*
X69073000Y-80578156D01*
X68873187Y-80279115D01*
X68873185Y-80279110D01*
X68720889Y-80126814D01*
X68072044Y-79693272D01*
X68072041Y-79693269D01*
X67914419Y-79627980D01*
X67873057Y-79610847D01*
X67873056Y-79610847D01*
X67107690Y-79458607D01*
X67053324Y-79458607D01*
X67000000Y-79448000D01*
X65054369Y-79448000D01*
X64450013Y-79327787D01*
X63983756Y-79016245D01*
X63672213Y-78549988D01*
X63552000Y-77945635D01*
X63552000Y-72054365D01*
X63900574Y-70301963D01*
X64862435Y-68862437D01*
X66301963Y-67900574D01*
X68054365Y-67552000D01*
X94945635Y-67552000D01*
X95549988Y-67672213D01*
X95549988Y-67672213D01*
G37*
X95549988Y-67672213D02*
X96016245Y-67983756D01*
X96327787Y-68450013D01*
X96448000Y-69054369D01*
X96448000Y-72000000D01*
X96458607Y-72053324D01*
X96458607Y-72107690D01*
X96610847Y-72873056D01*
X96610847Y-72873057D01*
X96617993Y-72890308D01*
X96693269Y-73072041D01*
X96693272Y-73072044D01*
X97126814Y-73720888D01*
X97126815Y-73720890D01*
X97169993Y-73764067D01*
X97279110Y-73873185D01*
X97279115Y-73873187D01*
X97927955Y-74306728D01*
X97927958Y-74306731D01*
X98027451Y-74347942D01*
X98126943Y-74389153D01*
X98126948Y-74389153D01*
X98892310Y-74541393D01*
X98946676Y-74541393D01*
X99000000Y-74552000D01*
X119945635Y-74552000D01*
X122080720Y-74976695D01*
X123844672Y-76155329D01*
X125023305Y-77919279D01*
X125448000Y-80054370D01*
X125448000Y-119945630D01*
X125023305Y-122080721D01*
X123844672Y-123844671D01*
X122080720Y-125023305D01*
X119945635Y-125448000D01*
X99000000Y-125448000D01*
X98946676Y-125458607D01*
X98892310Y-125458607D01*
X98126948Y-125610847D01*
X98030086Y-125650967D01*
X97927958Y-125693269D01*
X97927955Y-125693272D01*
X97279115Y-126126813D01*
X97279110Y-126126815D01*
X97194685Y-126211241D01*
X97126815Y-126279110D01*
X97126815Y-126279111D01*
X97126814Y-126279112D01*
X96727000Y-126877478D01*
X96727000Y-121654686D01*
X97654687Y-120727000D01*
X109750000Y-120727000D01*
X109943129Y-120688584D01*
X116522398Y-120688584D01*
X117050624Y-121966989D01*
X118027866Y-122945938D01*
X119305348Y-123476395D01*
X120688584Y-123477602D01*
X121966989Y-122949376D01*
X122945938Y-121972134D01*
X123476395Y-120694652D01*
X123477602Y-119311416D01*
X122949376Y-118033011D01*
X121972134Y-117054062D01*
X120694652Y-116523605D01*
X119311416Y-116522398D01*
X118033011Y-117050624D01*
X117054062Y-118027866D01*
X116523605Y-119305348D01*
X116522398Y-120688584D01*
X109943129Y-120688584D01*
X110123882Y-120652630D01*
X110440843Y-120440843D01*
X124090843Y-106790843D01*
X124224641Y-106590600D01*
X124302630Y-106473882D01*
X124377000Y-106100000D01*
X124377000Y-102296142D01*
X124386344Y-102250000D01*
X124386344Y-99750000D01*
X124377000Y-99700341D01*
X124377000Y-99154686D01*
X124637344Y-98894342D01*
X124733790Y-98750000D01*
X124849131Y-98577381D01*
X124923501Y-98203499D01*
X124923501Y-91530999D01*
X124849131Y-91157117D01*
X124637344Y-90840156D01*
X122706345Y-88909157D01*
X122542980Y-88800000D01*
X122389384Y-88697370D01*
X122015502Y-88623000D01*
X116904687Y-88623000D01*
X109840843Y-81559157D01*
X109674485Y-81448000D01*
X109523882Y-81347370D01*
X109150000Y-81273000D01*
X105792344Y-81273000D01*
X105792344Y-81234000D01*
X105759083Y-81057235D01*
X105654615Y-80894887D01*
X105495215Y-80785973D01*
X105306000Y-80747656D01*
X103274000Y-80747656D01*
X103097235Y-80780917D01*
X102934887Y-80885385D01*
X102825973Y-81044785D01*
X102802108Y-81162633D01*
X102677980Y-81079693D01*
X102677980Y-80688584D01*
X116522398Y-80688584D01*
X117050624Y-81966989D01*
X118027866Y-82945938D01*
X119305348Y-83476395D01*
X120688584Y-83477602D01*
X121966989Y-82949376D01*
X122945938Y-81972134D01*
X123476395Y-80694652D01*
X123477602Y-79311416D01*
X122949376Y-78033011D01*
X121972134Y-77054062D01*
X120694652Y-76523605D01*
X119311416Y-76522398D01*
X118033011Y-77050624D01*
X117054062Y-78027866D01*
X116523605Y-79305348D01*
X116522398Y-80688584D01*
X102677980Y-80688584D01*
X102677980Y-80061782D01*
X102727185Y-80052523D01*
X102889533Y-79948055D01*
X102998447Y-79788655D01*
X102999898Y-79781490D01*
X103100965Y-79938553D01*
X103260365Y-80047467D01*
X103449580Y-80085784D01*
X104648460Y-80085784D01*
X104825225Y-80052523D01*
X104987573Y-79948055D01*
X105096487Y-79788655D01*
X105134804Y-79599440D01*
X105134804Y-78400560D01*
X105101543Y-78223795D01*
X104997075Y-78061447D01*
X104837675Y-77952533D01*
X104677000Y-77919995D01*
X104677000Y-77693166D01*
X104748027Y-77589215D01*
X104786344Y-77400000D01*
X104786344Y-76100000D01*
X104753083Y-75923235D01*
X104648615Y-75760887D01*
X104489215Y-75651973D01*
X104300000Y-75613656D01*
X103600000Y-75613656D01*
X103423235Y-75646917D01*
X103260887Y-75751385D01*
X103151973Y-75910785D01*
X103113656Y-76100000D01*
X103113656Y-77400000D01*
X103146917Y-77576765D01*
X103223000Y-77695001D01*
X103223000Y-77979532D01*
X103110467Y-78051945D01*
X103001553Y-78211345D01*
X103000102Y-78218510D01*
X102899035Y-78061447D01*
X102739635Y-77952533D01*
X102550420Y-77914216D01*
X101351540Y-77914216D01*
X101174775Y-77947477D01*
X101012427Y-78051945D01*
X100903513Y-78211345D01*
X100865196Y-78400560D01*
X100865196Y-79599440D01*
X100898457Y-79776205D01*
X101002925Y-79938553D01*
X101162325Y-80047467D01*
X101223980Y-80059952D01*
X101223980Y-80832382D01*
X101178654Y-80841398D01*
X100694290Y-81165040D01*
X100370648Y-81649404D01*
X100257000Y-82220750D01*
X100257000Y-82279250D01*
X100370648Y-82850596D01*
X100694290Y-83334960D01*
X101178654Y-83658602D01*
X101750000Y-83772250D01*
X102321346Y-83658602D01*
X102801199Y-83337974D01*
X102820917Y-83442765D01*
X102925385Y-83605113D01*
X103084785Y-83714027D01*
X103274000Y-83752344D01*
X105306000Y-83752344D01*
X105482765Y-83719083D01*
X105645113Y-83614615D01*
X105754027Y-83455215D01*
X105792344Y-83266000D01*
X105792344Y-83227000D01*
X108745314Y-83227000D01*
X115809157Y-90290844D01*
X116126119Y-90502631D01*
X116500000Y-90577000D01*
X121610816Y-90577000D01*
X122638472Y-91604656D01*
X122103500Y-91604656D01*
X121926735Y-91637917D01*
X121764387Y-91742385D01*
X121655473Y-91901785D01*
X121617156Y-92091000D01*
X121617156Y-92599000D01*
X121650417Y-92775765D01*
X121754885Y-92938113D01*
X121815474Y-92979512D01*
X121764387Y-93012385D01*
X121655473Y-93171785D01*
X121617156Y-93361000D01*
X121617156Y-93869000D01*
X121650417Y-94045765D01*
X121754885Y-94208113D01*
X121815474Y-94249512D01*
X121764387Y-94282385D01*
X121655473Y-94441785D01*
X121617156Y-94631000D01*
X121617156Y-95139000D01*
X121650417Y-95315765D01*
X121754885Y-95478113D01*
X121899968Y-95577244D01*
X121889947Y-95581395D01*
X121783895Y-95687447D01*
X121726500Y-95826010D01*
X121726500Y-95933750D01*
X121820750Y-96028000D01*
X122548000Y-96028000D01*
X122548000Y-96008000D01*
X122802000Y-96008000D01*
X122802000Y-96028000D01*
X122822000Y-96028000D01*
X122822000Y-96282000D01*
X122802000Y-96282000D01*
X122802000Y-96691750D01*
X122896250Y-96786000D01*
X122969501Y-96786000D01*
X122969501Y-97798813D01*
X122709157Y-98059157D01*
X122497370Y-98376118D01*
X122423000Y-98750000D01*
X122423000Y-99703858D01*
X122421016Y-99713656D01*
X121950000Y-99713656D01*
X121773235Y-99746917D01*
X121610887Y-99851385D01*
X121501973Y-100010785D01*
X121463656Y-100200000D01*
X121463656Y-101800000D01*
X121496917Y-101976765D01*
X121601385Y-102139113D01*
X121760785Y-102248027D01*
X121950000Y-102286344D01*
X122420495Y-102286344D01*
X122423000Y-102299659D01*
X122423000Y-105695314D01*
X109345314Y-118773000D01*
X97250000Y-118773000D01*
X96876118Y-118847370D01*
X96559156Y-119059157D01*
X95059157Y-120559157D01*
X94847370Y-120876118D01*
X94773000Y-121250000D01*
X94773000Y-128845314D01*
X93295314Y-130323000D01*
X89077000Y-130323000D01*
X89077000Y-127893485D01*
X92422830Y-127893485D01*
X92571256Y-128252703D01*
X92845851Y-128527778D01*
X93204810Y-128676830D01*
X93593485Y-128677170D01*
X93952703Y-128528744D01*
X94227778Y-128254149D01*
X94376830Y-127895190D01*
X94377170Y-127506515D01*
X94228744Y-127147297D01*
X94227000Y-127145550D01*
X94227000Y-120801134D01*
X97351134Y-117677000D01*
X109249995Y-117677000D01*
X109250000Y-117677001D01*
X109482052Y-117630842D01*
X109528211Y-117621660D01*
X109764067Y-117464067D01*
X116839067Y-110389067D01*
X116898579Y-110300000D01*
X116996660Y-110153211D01*
X117006542Y-110103529D01*
X117052001Y-109875000D01*
X117052000Y-109874995D01*
X117052000Y-96866084D01*
X117073265Y-96862083D01*
X117235613Y-96757615D01*
X117344527Y-96598215D01*
X117382844Y-96409000D01*
X117382844Y-96010977D01*
X117773000Y-96401133D01*
X117773000Y-97204242D01*
X117660887Y-97276385D01*
X117551973Y-97435785D01*
X117513656Y-97625000D01*
X117513656Y-98875000D01*
X117546917Y-99051765D01*
X117651385Y-99214113D01*
X117773000Y-99297209D01*
X117773000Y-99329242D01*
X117660887Y-99401385D01*
X117551973Y-99560785D01*
X117513656Y-99750000D01*
X117513656Y-102250000D01*
X117546917Y-102426765D01*
X117651385Y-102589113D01*
X117810785Y-102698027D01*
X118000000Y-102736344D01*
X119000000Y-102736344D01*
X119176765Y-102703083D01*
X119339113Y-102598615D01*
X119448027Y-102439215D01*
X119478984Y-102286344D01*
X119950000Y-102286344D01*
X120126765Y-102253083D01*
X120289113Y-102148615D01*
X120398027Y-101989215D01*
X120436344Y-101800000D01*
X120436344Y-100200000D01*
X120403083Y-100023235D01*
X120298615Y-99860887D01*
X120139215Y-99751973D01*
X119950000Y-99713656D01*
X119479505Y-99713656D01*
X119453083Y-99573235D01*
X119348615Y-99410887D01*
X119227000Y-99327791D01*
X119227000Y-99295758D01*
X119339113Y-99223615D01*
X119448027Y-99064215D01*
X119486344Y-98875000D01*
X119486344Y-98471250D01*
X119623000Y-98471250D01*
X119623000Y-98949990D01*
X119680395Y-99088553D01*
X119786447Y-99194605D01*
X119925010Y-99252000D01*
X120278750Y-99252000D01*
X120373000Y-99157750D01*
X120373000Y-98377000D01*
X120627000Y-98377000D01*
X120627000Y-99157750D01*
X120721250Y-99252000D01*
X121074990Y-99252000D01*
X121213553Y-99194605D01*
X121319605Y-99088553D01*
X121377000Y-98949990D01*
X121377000Y-98471250D01*
X121282750Y-98377000D01*
X120627000Y-98377000D01*
X120373000Y-98377000D01*
X119717250Y-98377000D01*
X119623000Y-98471250D01*
X119486344Y-98471250D01*
X119486344Y-97625000D01*
X119472234Y-97550010D01*
X119623000Y-97550010D01*
X119623000Y-98028750D01*
X119717250Y-98123000D01*
X120373000Y-98123000D01*
X120373000Y-97342250D01*
X120627000Y-97342250D01*
X120627000Y-98123000D01*
X121282750Y-98123000D01*
X121377000Y-98028750D01*
X121377000Y-97550010D01*
X121319605Y-97411447D01*
X121213553Y-97305395D01*
X121074990Y-97248000D01*
X120721250Y-97248000D01*
X120627000Y-97342250D01*
X120373000Y-97342250D01*
X120278750Y-97248000D01*
X119925010Y-97248000D01*
X119786447Y-97305395D01*
X119680395Y-97411447D01*
X119623000Y-97550010D01*
X119472234Y-97550010D01*
X119453083Y-97448235D01*
X119348615Y-97285887D01*
X119227000Y-97202791D01*
X119227000Y-96376250D01*
X121726500Y-96376250D01*
X121726500Y-96483990D01*
X121783895Y-96622553D01*
X121889947Y-96728605D01*
X122028510Y-96786000D01*
X122453750Y-96786000D01*
X122548000Y-96691750D01*
X122548000Y-96282000D01*
X121820750Y-96282000D01*
X121726500Y-96376250D01*
X119227000Y-96376250D01*
X119227000Y-96100000D01*
X119171660Y-95821789D01*
X119014067Y-95585933D01*
X119014064Y-95585931D01*
X117799067Y-94370933D01*
X117718390Y-94317027D01*
X117563211Y-94213340D01*
X117517052Y-94204158D01*
X117285000Y-94157999D01*
X117284995Y-94158000D01*
X117276346Y-94158000D01*
X117344527Y-94058215D01*
X117382844Y-93869000D01*
X117382844Y-93361000D01*
X117349583Y-93184235D01*
X117245115Y-93021887D01*
X117184526Y-92980488D01*
X117235613Y-92947615D01*
X117344527Y-92788215D01*
X117382844Y-92599000D01*
X117382844Y-92091000D01*
X117349583Y-91914235D01*
X117245115Y-91751887D01*
X117085715Y-91642973D01*
X116896500Y-91604656D01*
X115753500Y-91604656D01*
X115576735Y-91637917D01*
X115414387Y-91742385D01*
X115305473Y-91901785D01*
X115267156Y-92091000D01*
X115267156Y-92599000D01*
X115300417Y-92775765D01*
X115404885Y-92938113D01*
X115465474Y-92979512D01*
X115414387Y-93012385D01*
X115305473Y-93171785D01*
X115267156Y-93361000D01*
X115267156Y-93869000D01*
X115300417Y-94045765D01*
X115404885Y-94208113D01*
X115465474Y-94249512D01*
X115414387Y-94282385D01*
X115305473Y-94441785D01*
X115267156Y-94631000D01*
X115267156Y-95139000D01*
X115300417Y-95315765D01*
X115404885Y-95478113D01*
X115465474Y-95519512D01*
X115414387Y-95552385D01*
X115305473Y-95711785D01*
X115267156Y-95901000D01*
X115267156Y-96409000D01*
X115300417Y-96585765D01*
X115404885Y-96748113D01*
X115564285Y-96857027D01*
X115598000Y-96863854D01*
X115598000Y-109573866D01*
X108948866Y-116223000D01*
X97050000Y-116223000D01*
X96771789Y-116278340D01*
X96535933Y-116435933D01*
X92985933Y-119985933D01*
X92828340Y-120221789D01*
X92828340Y-120221790D01*
X92772999Y-120500000D01*
X92773000Y-120500005D01*
X92773000Y-126945423D01*
X92572222Y-127145851D01*
X92423170Y-127504810D01*
X92422830Y-127893485D01*
X89077000Y-127893485D01*
X89077000Y-116556482D01*
X89053021Y-116435933D01*
X89002631Y-116182601D01*
X88790844Y-115865639D01*
X84559545Y-111634341D01*
X84702713Y-111542215D01*
X84811627Y-111382815D01*
X84849944Y-111193600D01*
X84849944Y-109466400D01*
X84816683Y-109289635D01*
X84712215Y-109127287D01*
X84552815Y-109018373D01*
X84363600Y-108980056D01*
X84111870Y-108980056D01*
X84474211Y-108737947D01*
X84764817Y-108303025D01*
X84866864Y-107790000D01*
X84764817Y-107276975D01*
X84474211Y-106842053D01*
X84039289Y-106551447D01*
X83881194Y-106520000D01*
X84039289Y-106488553D01*
X84474211Y-106197947D01*
X84764817Y-105763025D01*
X84866864Y-105250000D01*
X84764817Y-104736975D01*
X84474211Y-104302053D01*
X84039289Y-104011447D01*
X83881194Y-103980000D01*
X84039289Y-103948553D01*
X84474211Y-103657947D01*
X84764817Y-103223025D01*
X84866864Y-102710000D01*
X84764817Y-102196975D01*
X84474211Y-101762053D01*
X84039289Y-101471447D01*
X83881194Y-101440000D01*
X84039289Y-101408553D01*
X84474211Y-101117947D01*
X84764817Y-100683025D01*
X84866864Y-100170000D01*
X84764817Y-99656975D01*
X84474211Y-99222053D01*
X84039289Y-98931447D01*
X83755511Y-98875000D01*
X84039289Y-98818553D01*
X84474211Y-98527947D01*
X84764817Y-98093025D01*
X84866864Y-97580000D01*
X84764817Y-97066975D01*
X84474211Y-96632053D01*
X84039289Y-96341447D01*
X83881194Y-96310000D01*
X84039289Y-96278553D01*
X84474211Y-95987947D01*
X84764817Y-95553025D01*
X84775364Y-95500000D01*
X84948000Y-95500000D01*
X84948000Y-104500000D01*
X84958607Y-104553324D01*
X84958607Y-104607690D01*
X85719811Y-108434524D01*
X85802233Y-108633508D01*
X85802234Y-108633509D01*
X87969961Y-111877743D01*
X88122257Y-112030040D01*
X88122261Y-112030042D01*
X91366489Y-114197765D01*
X91366491Y-114197767D01*
X91424772Y-114221908D01*
X91565476Y-114280189D01*
X91565481Y-114280189D01*
X95392310Y-115041393D01*
X95446676Y-115041393D01*
X95500000Y-115052000D01*
X104500000Y-115052000D01*
X104553324Y-115041393D01*
X104607690Y-115041393D01*
X108434524Y-114280189D01*
X108633508Y-114197767D01*
X108633509Y-114197766D01*
X111877743Y-112030039D01*
X112030040Y-111877743D01*
X112030042Y-111877739D01*
X114197765Y-108633511D01*
X114197767Y-108633509D01*
X114222826Y-108573011D01*
X114280189Y-108434524D01*
X114280189Y-108434519D01*
X115041393Y-104607690D01*
X115041393Y-104553324D01*
X115052000Y-104500000D01*
X115052000Y-95500000D01*
X115041393Y-95446676D01*
X115041393Y-95392310D01*
X114280189Y-91565481D01*
X114280189Y-91565476D01*
X114197767Y-91366492D01*
X114197767Y-91366491D01*
X114197765Y-91366489D01*
X112030042Y-88122261D01*
X112030040Y-88122257D01*
X111877743Y-87969961D01*
X108633509Y-85802234D01*
X108633508Y-85802233D01*
X108434524Y-85719811D01*
X104607690Y-84958607D01*
X104553324Y-84958607D01*
X104500000Y-84948000D01*
X95500000Y-84948000D01*
X95446676Y-84958607D01*
X95392310Y-84958607D01*
X91565481Y-85719811D01*
X91565476Y-85719811D01*
X91424772Y-85778092D01*
X91366491Y-85802233D01*
X91366489Y-85802235D01*
X88122261Y-87969958D01*
X88122257Y-87969960D01*
X87969961Y-88122257D01*
X85802234Y-91366491D01*
X85802233Y-91366492D01*
X85719811Y-91565476D01*
X84958607Y-95392310D01*
X84958607Y-95446676D01*
X84948000Y-95500000D01*
X84775364Y-95500000D01*
X84866864Y-95040000D01*
X84764817Y-94526975D01*
X84474211Y-94092053D01*
X84039289Y-93801447D01*
X83627002Y-93719438D01*
X83627002Y-93639845D01*
X83818491Y-93699033D01*
X84253097Y-93485881D01*
X84573051Y-93122638D01*
X84699021Y-92818489D01*
X84639293Y-92627000D01*
X83627000Y-92627000D01*
X83627000Y-92647000D01*
X83373000Y-92647000D01*
X83373000Y-92627000D01*
X82360707Y-92627000D01*
X82300979Y-92818489D01*
X82426949Y-93122638D01*
X82746903Y-93485881D01*
X83181509Y-93699033D01*
X83372998Y-93639845D01*
X83372998Y-93719438D01*
X82960711Y-93801447D01*
X82525789Y-94092053D01*
X82378157Y-94313000D01*
X82081843Y-94313000D01*
X81934211Y-94092053D01*
X81499289Y-93801447D01*
X81087002Y-93719438D01*
X81087002Y-93639845D01*
X81278491Y-93699033D01*
X81713097Y-93485881D01*
X82033051Y-93122638D01*
X82159021Y-92818489D01*
X82099293Y-92627000D01*
X81087000Y-92627000D01*
X81087000Y-92647000D01*
X80833000Y-92647000D01*
X80833000Y-92627000D01*
X80813000Y-92627000D01*
X80813000Y-92373000D01*
X80833000Y-92373000D01*
X80833000Y-92353000D01*
X81087000Y-92353000D01*
X81087000Y-92373000D01*
X82099293Y-92373000D01*
X82159021Y-92181511D01*
X82033051Y-91877362D01*
X81713097Y-91514119D01*
X81296795Y-91309944D01*
X81823600Y-91309944D01*
X82000365Y-91276683D01*
X82162713Y-91172215D01*
X82271627Y-91012815D01*
X82309944Y-90823600D01*
X82309944Y-90584913D01*
X82525789Y-90907947D01*
X82960711Y-91198553D01*
X83372998Y-91280562D01*
X83372998Y-91360155D01*
X83181509Y-91300967D01*
X82746903Y-91514119D01*
X82426949Y-91877362D01*
X82300979Y-92181511D01*
X82360707Y-92373000D01*
X83373000Y-92373000D01*
X83373000Y-92353000D01*
X83627000Y-92353000D01*
X83627000Y-92373000D01*
X84639293Y-92373000D01*
X84699021Y-92181511D01*
X84573051Y-91877362D01*
X84253097Y-91514119D01*
X83818491Y-91300967D01*
X83627002Y-91360155D01*
X83627002Y-91280562D01*
X84039289Y-91198553D01*
X84474211Y-90907947D01*
X84764817Y-90473025D01*
X84866864Y-89960000D01*
X84764817Y-89446975D01*
X84474211Y-89012053D01*
X84039289Y-88721447D01*
X83526264Y-88619400D01*
X83473736Y-88619400D01*
X82960711Y-88721447D01*
X82525789Y-89012053D01*
X82309944Y-89335087D01*
X82309944Y-89096400D01*
X82276683Y-88919635D01*
X82172215Y-88757287D01*
X82012815Y-88648373D01*
X81823600Y-88610056D01*
X80477633Y-88610056D01*
X81110689Y-87977000D01*
X83000000Y-87977000D01*
X83373882Y-87902630D01*
X83690843Y-87690843D01*
X87690843Y-83690844D01*
X87848285Y-83455215D01*
X87902630Y-83373882D01*
X87977000Y-83000000D01*
X87977000Y-81234000D01*
X94207656Y-81234000D01*
X94207656Y-83266000D01*
X94240917Y-83442765D01*
X94345385Y-83605113D01*
X94504785Y-83714027D01*
X94694000Y-83752344D01*
X96726000Y-83752344D01*
X96902765Y-83719083D01*
X97065113Y-83614615D01*
X97174027Y-83455215D01*
X97197892Y-83337367D01*
X97678654Y-83658602D01*
X98250000Y-83772250D01*
X98821346Y-83658602D01*
X99305710Y-83334960D01*
X99629352Y-82850596D01*
X99743000Y-82279250D01*
X99743000Y-82220750D01*
X99629352Y-81649404D01*
X99305710Y-81165040D01*
X98821346Y-80841398D01*
X98776020Y-80832382D01*
X98776020Y-80061782D01*
X98825225Y-80052523D01*
X98987573Y-79948055D01*
X99096487Y-79788655D01*
X99134804Y-79599440D01*
X99134804Y-78400560D01*
X99101543Y-78223795D01*
X98997075Y-78061447D01*
X98837675Y-77952533D01*
X98648460Y-77914216D01*
X97449580Y-77914216D01*
X97272815Y-77947477D01*
X97110467Y-78051945D01*
X97001553Y-78211345D01*
X97000102Y-78218510D01*
X96899035Y-78061447D01*
X96777000Y-77978064D01*
X96777000Y-77693166D01*
X96848027Y-77589215D01*
X96886344Y-77400000D01*
X96886344Y-76971250D01*
X97223000Y-76971250D01*
X97223000Y-77474990D01*
X97280395Y-77613553D01*
X97386447Y-77719605D01*
X97525010Y-77777000D01*
X97728750Y-77777000D01*
X97823000Y-77682750D01*
X97823000Y-76877000D01*
X98077000Y-76877000D01*
X98077000Y-77682750D01*
X98171250Y-77777000D01*
X98374990Y-77777000D01*
X98513553Y-77719605D01*
X98619605Y-77613553D01*
X98677000Y-77474990D01*
X98677000Y-76971250D01*
X101323000Y-76971250D01*
X101323000Y-77474990D01*
X101380395Y-77613553D01*
X101486447Y-77719605D01*
X101625010Y-77777000D01*
X101828750Y-77777000D01*
X101923000Y-77682750D01*
X101923000Y-76877000D01*
X102177000Y-76877000D01*
X102177000Y-77682750D01*
X102271250Y-77777000D01*
X102474990Y-77777000D01*
X102613553Y-77719605D01*
X102719605Y-77613553D01*
X102777000Y-77474990D01*
X102777000Y-76971250D01*
X102682750Y-76877000D01*
X102177000Y-76877000D01*
X101923000Y-76877000D01*
X101417250Y-76877000D01*
X101323000Y-76971250D01*
X98677000Y-76971250D01*
X98582750Y-76877000D01*
X98077000Y-76877000D01*
X97823000Y-76877000D01*
X97317250Y-76877000D01*
X97223000Y-76971250D01*
X96886344Y-76971250D01*
X96886344Y-76100000D01*
X96872234Y-76025010D01*
X97223000Y-76025010D01*
X97223000Y-76528750D01*
X97317250Y-76623000D01*
X97823000Y-76623000D01*
X97823000Y-75817250D01*
X98077000Y-75817250D01*
X98077000Y-76623000D01*
X98582750Y-76623000D01*
X98677000Y-76528750D01*
X98677000Y-76025010D01*
X101323000Y-76025010D01*
X101323000Y-76528750D01*
X101417250Y-76623000D01*
X101923000Y-76623000D01*
X101923000Y-75817250D01*
X102177000Y-75817250D01*
X102177000Y-76623000D01*
X102682750Y-76623000D01*
X102777000Y-76528750D01*
X102777000Y-76025010D01*
X102719605Y-75886447D01*
X102613553Y-75780395D01*
X102474990Y-75723000D01*
X102271250Y-75723000D01*
X102177000Y-75817250D01*
X101923000Y-75817250D01*
X101828750Y-75723000D01*
X101625010Y-75723000D01*
X101486447Y-75780395D01*
X101380395Y-75886447D01*
X101323000Y-76025010D01*
X98677000Y-76025010D01*
X98619605Y-75886447D01*
X98513553Y-75780395D01*
X98374990Y-75723000D01*
X98171250Y-75723000D01*
X98077000Y-75817250D01*
X97823000Y-75817250D01*
X97728750Y-75723000D01*
X97525010Y-75723000D01*
X97386447Y-75780395D01*
X97280395Y-75886447D01*
X97223000Y-76025010D01*
X96872234Y-76025010D01*
X96853083Y-75923235D01*
X96748615Y-75760887D01*
X96589215Y-75651973D01*
X96400000Y-75613656D01*
X95700000Y-75613656D01*
X95523235Y-75646917D01*
X95360887Y-75751385D01*
X95251973Y-75910785D01*
X95213656Y-76100000D01*
X95213656Y-77400000D01*
X95246917Y-77576765D01*
X95323000Y-77695001D01*
X95323000Y-77919586D01*
X95174775Y-77947477D01*
X95012427Y-78051945D01*
X94903513Y-78211345D01*
X94865196Y-78400560D01*
X94865196Y-79599440D01*
X94898457Y-79776205D01*
X95002925Y-79938553D01*
X95162325Y-80047467D01*
X95351540Y-80085784D01*
X96550420Y-80085784D01*
X96727185Y-80052523D01*
X96889533Y-79948055D01*
X96998447Y-79788655D01*
X96999898Y-79781490D01*
X97100965Y-79938553D01*
X97260365Y-80047467D01*
X97322020Y-80059952D01*
X97322020Y-81079693D01*
X97198801Y-81162026D01*
X97179083Y-81057235D01*
X97074615Y-80894887D01*
X96915215Y-80785973D01*
X96726000Y-80747656D01*
X94694000Y-80747656D01*
X94517235Y-80780917D01*
X94354887Y-80885385D01*
X94245973Y-81044785D01*
X94207656Y-81234000D01*
X87977000Y-81234000D01*
X87977000Y-77000000D01*
X87902630Y-76626118D01*
X87690843Y-76309157D01*
X83940843Y-72559157D01*
X83623881Y-72347370D01*
X83250000Y-72273000D01*
X82876119Y-72347370D01*
X82875176Y-72348000D01*
X81883378Y-72348000D01*
X81946830Y-72195190D01*
X81947170Y-71806515D01*
X81798744Y-71447297D01*
X81716688Y-71365098D01*
X81797778Y-71284149D01*
X81946830Y-70925190D01*
X81947170Y-70536515D01*
X81798744Y-70177297D01*
X81524149Y-69902222D01*
X81165190Y-69753170D01*
X80776515Y-69752830D01*
X80417297Y-69901256D01*
X80335098Y-69983312D01*
X80254149Y-69902222D01*
X79895190Y-69753170D01*
X79506515Y-69752830D01*
X79147297Y-69901256D01*
X79065098Y-69983312D01*
X78984149Y-69902222D01*
X78625190Y-69753170D01*
X78236515Y-69752830D01*
X77877297Y-69901256D01*
X77734674Y-70043630D01*
X77700718Y-70009674D01*
X77628659Y-70081733D01*
X77577513Y-69939277D01*
X77243136Y-69839692D01*
X76896101Y-69875647D01*
X76742487Y-69939277D01*
X76691340Y-70081735D01*
X77160000Y-70550395D01*
X77174143Y-70536253D01*
X77353748Y-70715858D01*
X77339605Y-70730000D01*
X77353748Y-70744143D01*
X77174143Y-70923748D01*
X77160000Y-70909605D01*
X77145858Y-70923748D01*
X76966253Y-70744143D01*
X76980395Y-70730000D01*
X76747573Y-70497178D01*
X76744353Y-70466101D01*
X76680723Y-70312487D01*
X76538265Y-70261340D01*
X76525000Y-70274605D01*
X76511735Y-70261340D01*
X76369277Y-70312487D01*
X76319296Y-70480309D01*
X76069605Y-70730000D01*
X76083748Y-70744143D01*
X75904143Y-70923748D01*
X75890000Y-70909605D01*
X75875858Y-70923748D01*
X75696253Y-70744143D01*
X75710395Y-70730000D01*
X75477573Y-70497178D01*
X75474353Y-70466101D01*
X75410723Y-70312487D01*
X75268265Y-70261340D01*
X75255000Y-70274605D01*
X75241735Y-70261340D01*
X75099277Y-70312487D01*
X75049296Y-70480309D01*
X74799605Y-70730000D01*
X74813748Y-70744143D01*
X74634143Y-70923748D01*
X74620000Y-70909605D01*
X74605858Y-70923748D01*
X74426253Y-70744143D01*
X74440395Y-70730000D01*
X74426253Y-70715858D01*
X74605858Y-70536253D01*
X74620000Y-70550395D01*
X75088660Y-70081735D01*
X75421340Y-70081735D01*
X75890000Y-70550395D01*
X76358660Y-70081735D01*
X76307513Y-69939277D01*
X75973136Y-69839692D01*
X75626101Y-69875647D01*
X75472487Y-69939277D01*
X75421340Y-70081735D01*
X75088660Y-70081735D01*
X75037513Y-69939277D01*
X74703136Y-69839692D01*
X74356101Y-69875647D01*
X74202487Y-69939277D01*
X74151341Y-70081733D01*
X74079282Y-70009674D01*
X74045318Y-70043638D01*
X73904149Y-69902222D01*
X73545190Y-69753170D01*
X73156515Y-69752830D01*
X72797297Y-69901256D01*
X72715098Y-69983312D01*
X72634149Y-69902222D01*
X72275190Y-69753170D01*
X71886515Y-69752830D01*
X71527297Y-69901256D01*
X71445098Y-69983312D01*
X71364149Y-69902222D01*
X71005190Y-69753170D01*
X70616515Y-69752830D01*
X70257297Y-69901256D01*
X70175098Y-69983312D01*
X70094149Y-69902222D01*
X69735190Y-69753170D01*
X69346515Y-69752830D01*
X68987297Y-69901256D01*
X68905098Y-69983312D01*
X68824149Y-69902222D01*
X68465190Y-69753170D01*
X68076515Y-69752830D01*
X67717297Y-69901256D01*
X67635098Y-69983312D01*
X67554149Y-69902222D01*
X67195190Y-69753170D01*
X66806515Y-69752830D01*
X66447297Y-69901256D01*
X66172222Y-70175851D01*
X66023170Y-70534810D01*
X66022830Y-70923485D01*
X66171256Y-71282703D01*
X66253312Y-71364902D01*
X66172222Y-71445851D01*
X66023170Y-71804810D01*
X66022830Y-72193485D01*
X66171256Y-72552703D01*
X66445851Y-72827778D01*
X66804810Y-72976830D01*
X67193485Y-72977170D01*
X67543000Y-72832753D01*
X67543000Y-76519995D01*
X67542999Y-76520000D01*
X67583555Y-76723881D01*
X67598340Y-76798211D01*
X67650985Y-76877000D01*
X67755933Y-77034067D01*
X69073000Y-78351133D01*
X69073000Y-80578156D01*
X68873187Y-80279115D01*
X68873185Y-80279110D01*
X68720889Y-80126814D01*
X68072044Y-79693272D01*
X68072041Y-79693269D01*
X67914419Y-79627980D01*
X67873057Y-79610847D01*
X67873056Y-79610847D01*
X67107690Y-79458607D01*
X67053324Y-79458607D01*
X67000000Y-79448000D01*
X65054369Y-79448000D01*
X64450013Y-79327787D01*
X63983756Y-79016245D01*
X63672213Y-78549988D01*
X63552000Y-77945635D01*
X63552000Y-72054365D01*
X63900574Y-70301963D01*
X64862435Y-68862437D01*
X66301963Y-67900574D01*
X68054365Y-67552000D01*
X94945635Y-67552000D01*
X95549988Y-67672213D01*
G36*
X74813748Y-127985858D02*
X74799605Y-128000000D01*
X74813748Y-128014143D01*
X74634143Y-128193748D01*
X74620000Y-128179605D01*
X74605858Y-128193748D01*
X74426253Y-128014143D01*
X74440395Y-128000000D01*
X74426253Y-127985858D01*
X74605858Y-127806253D01*
X74620000Y-127820395D01*
X74634143Y-127806253D01*
X74813748Y-127985858D01*
X74813748Y-127985858D01*
G37*
X74813748Y-127985858D02*
X74799605Y-128000000D01*
X74813748Y-128014143D01*
X74634143Y-128193748D01*
X74620000Y-128179605D01*
X74605858Y-128193748D01*
X74426253Y-128014143D01*
X74440395Y-128000000D01*
X74426253Y-127985858D01*
X74605858Y-127806253D01*
X74620000Y-127820395D01*
X74634143Y-127806253D01*
X74813748Y-127985858D01*
G36*
X74813748Y-71985858D02*
X74799605Y-72000000D01*
X74813748Y-72014143D01*
X74634143Y-72193748D01*
X74620000Y-72179605D01*
X74605858Y-72193748D01*
X74426253Y-72014143D01*
X74440395Y-72000000D01*
X74426253Y-71985858D01*
X74605858Y-71806253D01*
X74620000Y-71820395D01*
X74634143Y-71806253D01*
X74813748Y-71985858D01*
X74813748Y-71985858D01*
G37*
X74813748Y-71985858D02*
X74799605Y-72000000D01*
X74813748Y-72014143D01*
X74634143Y-72193748D01*
X74620000Y-72179605D01*
X74605858Y-72193748D01*
X74426253Y-72014143D01*
X74440395Y-72000000D01*
X74426253Y-71985858D01*
X74605858Y-71806253D01*
X74620000Y-71820395D01*
X74634143Y-71806253D01*
X74813748Y-71985858D01*
M02*
