M48
;DRILL file {KiCad 4.0.5+dfsg1-4} date Fri May  4 15:45:58 2018
;FORMAT={3:3/ absolute / metric / suppress leading zeros}
FMAT,2
METRIC,TZ
T1C0.100
%
G90
G05
M71
T1
X76000Y-76250
X77050Y-77900
X77300Y-77050
X77700Y-122800
X77900Y-121950
X78000Y-76750
X78150Y-78700
X78250Y-80500
X78250Y-123450
X78750Y-121650
X78850Y-77250
X79100Y-79650
X79150Y-123350
X79600Y-78550
X79750Y-119750
X80150Y-80700
X80250Y-76750
X80300Y-122950
X80400Y-121350
X80500Y-124500
X80650Y-79600
X80750Y-122550
X81100Y-81650
X81350Y-120250
X81700Y-80650
X81900Y-123000
X82000Y-76000
X82100Y-79050
X82100Y-82650
X82150Y-121900
X82250Y-77700
X82250Y-123450
X82350Y-119300
X82550Y-78600
X82650Y-81600
X82850Y-76900
X83100Y-83650
X83250Y-116000
X83350Y-118350
X83350Y-121250
X83650Y-82600
X83700Y-76900
X83800Y-122650
X83950Y-79750
X84050Y-78250
X84150Y-77450
X84150Y-84700
X84300Y-117400
X84350Y-120250
X84650Y-83600
X84700Y-102350
X84700Y-103600
X84700Y-104900
X84700Y-106150
X84700Y-107400
X84700Y-108650
X84700Y-109850
X84700Y-111150
X84700Y-112400
X84700Y-113600
X84700Y-114900
X84700Y-116100
X84750Y-99000
X84750Y-101000
X84750Y-121500
X84850Y-80750
X85050Y-85600
X85250Y-102000
X85350Y-119250
X85400Y-101100
X85500Y-77250
X85500Y-100200
X85650Y-84600
X85700Y-100800
X85750Y-120500
X85800Y-103250
X85800Y-104450
X85800Y-105650
X85800Y-106900
X85800Y-108150
X85800Y-109350
X85800Y-110600
X85800Y-111850
X85800Y-113100
X85800Y-114350
X85800Y-115600
X85800Y-116900
X85850Y-101500
X85850Y-102000
X85900Y-81800
X86030Y-100470
X86050Y-86550
X86350Y-118250
X86450Y-99900
X86650Y-85600
X86700Y-119500
X86800Y-100100
X86800Y-116800
X86950Y-82850
X86950Y-100700
X87000Y-87500
X87250Y-105500
X87350Y-117300
X87500Y-114750
X87700Y-118500
X87750Y-86450
X87950Y-83900
X88100Y-87550
X88350Y-116250
X88700Y-117500
X89350Y-84450
X89350Y-86450
X89350Y-87550
X89350Y-115250
X89700Y-116500
X90350Y-114250
X90600Y-87550
X90650Y-84450
X90650Y-86450
X90700Y-115500
X90750Y-88750
X90800Y-87000
X91300Y-87000
X91300Y-113300
X91700Y-114500
X91850Y-87100
X91900Y-86500
X92000Y-84450
X92150Y-88250
X92200Y-113200
X92300Y-112250
X92400Y-86800
X92500Y-88950
X92500Y-112900
X92750Y-113450
X92800Y-88050
X92900Y-112500
X93000Y-89000
X93200Y-112200
X93300Y-87800
X93350Y-111450
X93450Y-88500
X93500Y-84450
X93500Y-85750
X93500Y-114250
X93900Y-111550
X93900Y-112500
X94150Y-111950
X94900Y-85600
X95350Y-84450
X96150Y-85600
X96850Y-84450
X97350Y-85600
X98150Y-84450
X98650Y-85600
X99400Y-84450
X99900Y-85600
X100600Y-84450
X101150Y-85600
X101850Y-84450
X102350Y-85600
X103100Y-84450
X103550Y-85600
X104250Y-85600
X104400Y-84450
X105150Y-84800
X105400Y-86700
X105500Y-113250
X105700Y-86200
X105850Y-87950
X106000Y-88400
X106100Y-86600
X106150Y-85800
X106500Y-87000
X106500Y-87600
X106650Y-111400
X106750Y-111850
X106800Y-88450
X107000Y-111050
X107100Y-86800
X107100Y-87750
X107150Y-112250
X107450Y-111000
X107600Y-111800
X107750Y-111250
X108400Y-112350
X108700Y-111800
X109100Y-111400
X109150Y-110500
X109250Y-112050
X109500Y-111000
X110150Y-111200
X110200Y-109550
X111150Y-108600
X111200Y-110150
X112150Y-107600
X112200Y-109150
X113100Y-99300
X113100Y-106650
X113100Y-108200
X113200Y-99900
X113200Y-104100
X113200Y-105350
X113364Y-102950
X113600Y-100100
X114050Y-107200
X114095Y-99530
X114200Y-98900
X114300Y-105150
X114300Y-106350
X114550Y-101850
X114650Y-103500
X114700Y-101400
X114900Y-100100
X114900Y-100950
X115100Y-99530
X115600Y-99530
X115800Y-98950
X116100Y-99530
X116100Y-100100
X116150Y-102950
X117100Y-98950
X117400Y-100100
X117450Y-102950
X118350Y-98950
X118600Y-100100
X118600Y-102950
X119600Y-98950
X119750Y-97750
X119900Y-100100
X119900Y-102950
X120000Y-104250
X121100Y-98500
X121100Y-100100
X121100Y-102950
X121450Y-100700
X121850Y-101100
X122000Y-99200
X122050Y-97550
X122400Y-101800
X122450Y-96650
X122450Y-103050
X122800Y-98400
X123250Y-96500
X123300Y-101450
X123550Y-103250
X123850Y-97050
X123850Y-97800
X124050Y-102000
X124100Y-102650
X124750Y-99250
X125000Y-100750
X125750Y-75000
X126100Y-73600
X126500Y-71500
X126600Y-70700
X126600Y-72800
X126930Y-72000
X127200Y-75100
X127500Y-74500
X127600Y-70300
X128200Y-72550
X128200Y-74000
X128300Y-70600
X128300Y-71800
X128500Y-71250
X128500Y-73250
T0
M30
