<?xml version="1.0" encoding="utf-8" ?>
<svg baseProfile="full" height="12cm" version="1.1" viewBox="0,0,95700001.1,95700001.1" width="10cm" xmlns="http://www.w3.org/2000/svg" xmlns:ev="http://www.w3.org/2001/xml-events" xmlns:xlink="http://www.w3.org/1999/xlink"><defs /><g id="bg" stroke="black" transform="translate(-51363636.363636,-51363636.363636)"><g id="bg" stroke="black" transform="scale(1.000000,1.000000)"><rect fill="white" height="87000001" stroke="none" stroke-width="300000.0" width="87000001" x="56500000" y="56500000" /><text fill="rgb(0,0,0)" style="font-size:2500000.000000;font-weight:bold" x="59000000.0" y="47750000.0">10u (23 pcs)</text><text fill="rgb(0,0,0)" style="font-size:2500000.000000;font-weight:bold" x="59000000.0" y="50250000.0">C14, C35, C22, C23, C24, C25, C26, C2, C4, C7</text><text fill="rgb(0,0,0)" style="font-size:2500000.000000;font-weight:bold" x="59000000.0" y="52750000.0">C8, C9, C18, C19, C28, C33, C39, C40, C43, C20</text><text fill="rgb(0,0,0)" style="font-size:2500000.000000;font-weight:bold" x="59000000.0" y="55250000.0">C29, C31, C37</text><rect fill="none" height="3650002" stroke="black" stroke-width="300000.0" width="2050002" x="112725000" y="132174999" /><text fill="rgb(0,0,0)" style="font-size:683334.000000;font-weight:bold" x="113025000.0" y="134341667.0">C14</text><rect fill="none" height="3650002" stroke="black" stroke-width="300000.0" width="2050002" x="64475000" y="119474999" /><text fill="rgb(0,0,0)" style="font-size:683334.000000;font-weight:bold" x="64775000.0" y="121641667.0">C35</text><rect fill="none" height="3650002" stroke="black" stroke-width="300000.0" width="2050002" x="130975000" y="86674999" /><text fill="rgb(0,0,0)" style="font-size:683334.000000;font-weight:bold" x="131275000.0" y="88841667.0">C22</text><rect fill="none" height="3650002" stroke="black" stroke-width="300000.0" width="2050002" x="130975000" y="90674999" /><text fill="rgb(0,0,0)" style="font-size:683334.000000;font-weight:bold" x="131275000.0" y="92841667.0">C23</text><rect fill="none" height="3650002" stroke="black" stroke-width="300000.0" width="2050002" x="119475000" y="60174999" /><text fill="rgb(0,0,0)" style="font-size:683334.000000;font-weight:bold" x="119775000.0" y="62341667.0">C24</text><rect fill="none" height="3650002" stroke="black" stroke-width="300000.0" width="2050002" x="112475000" y="60174999" /><text fill="rgb(0,0,0)" style="font-size:683334.000000;font-weight:bold" x="112775000.0" y="62341667.0">C25</text><rect fill="none" height="3650002" stroke="black" stroke-width="300000.0" width="2050002" x="119475000" y="64174999" /><text fill="rgb(0,0,0)" style="font-size:683334.000000;font-weight:bold" x="119775000.0" y="66341667.0">C26</text><rect fill="none" height="3650002" stroke="black" stroke-width="300000.0" width="2050002" x="131475000" y="123424999" /><text fill="rgb(0,0,0)" style="font-size:1025001.000000;font-weight:bold" x="131775000.0" y="125762500.5">C2</text><rect fill="none" height="2050002" stroke="black" stroke-width="300000.0" width="3650002" x="88925000" y="61724999" /><text fill="rgb(0,0,0)" style="font-size:1435001.400000;font-weight:bold" x="89225000.0" y="63467500.7">C4</text><rect fill="none" height="2050002" stroke="black" stroke-width="300000.0" width="3650002" x="81925000" y="75974999" /><text fill="rgb(0,0,0)" style="font-size:1435001.400000;font-weight:bold" x="82225000.0" y="77717500.7">C7</text><rect fill="none" height="3650002" stroke="black" stroke-width="300000.0" width="2050002" x="112725000" y="136174999" /><text fill="rgb(0,0,0)" style="font-size:1025001.000000;font-weight:bold" x="113025000.0" y="138512500.5">C8</text><rect fill="none" height="3650002" stroke="black" stroke-width="300000.0" width="2050002" x="119725000" y="136174999" /><text fill="rgb(0,0,0)" style="font-size:1025001.000000;font-weight:bold" x="120025000.0" y="138512500.5">C9</text><rect fill="none" height="2050002" stroke="black" stroke-width="300000.0" width="3650002" x="64175000" y="81974999" /><text fill="rgb(0,0,0)" style="font-size:1216667.000000;font-weight:bold" x="64475000.0" y="83608333.5">C18</text><rect fill="none" height="2050002" stroke="black" stroke-width="300000.0" width="3650002" x="64925000" y="77974999" /><text fill="rgb(0,0,0)" style="font-size:1216667.000000;font-weight:bold" x="65225000.0" y="79608333.5">C19</text><rect fill="none" height="3650002" stroke="black" stroke-width="300000.0" width="2050002" x="112475000" y="64174999" /><text fill="rgb(0,0,0)" style="font-size:683334.000000;font-weight:bold" x="112775000.0" y="66341667.0">C28</text><rect fill="none" height="3650002" stroke="black" stroke-width="300000.0" width="2050002" x="71475000" y="119474999" /><text fill="rgb(0,0,0)" style="font-size:683334.000000;font-weight:bold" x="71775000.0" y="121641667.0">C33</text><rect fill="none" height="3650002" stroke="black" stroke-width="300000.0" width="2050002" x="64475000" y="123224999" /><text fill="rgb(0,0,0)" style="font-size:683334.000000;font-weight:bold" x="64775000.0" y="125391667.0">C39</text><rect fill="none" height="3650002" stroke="black" stroke-width="300000.0" width="2050002" x="71475000" y="127224999" /><text fill="rgb(0,0,0)" style="font-size:683334.000000;font-weight:bold" x="71775000.0" y="129391667.0">C40</text><rect fill="none" height="3650002" stroke="black" stroke-width="300000.0" width="2050002" x="64475000" y="127224999" /><text fill="rgb(0,0,0)" style="font-size:683334.000000;font-weight:bold" x="64775000.0" y="129391667.0">C43</text><rect fill="none" height="3650002" stroke="black" stroke-width="300000.0" width="2050002" x="119725000" y="132174999" /><text fill="rgb(0,0,0)" style="font-size:683334.000000;font-weight:bold" x="120025000.0" y="134341667.0">C20</text><rect fill="none" height="3650002" stroke="black" stroke-width="300000.0" width="2050002" x="71475000" y="115474999" /><text fill="rgb(0,0,0)" style="font-size:683334.000000;font-weight:bold" x="71775000.0" y="117641667.0">C29</text><rect fill="none" height="3650002" stroke="black" stroke-width="300000.0" width="2050002" x="64475000" y="115474999" /><text fill="rgb(0,0,0)" style="font-size:683334.000000;font-weight:bold" x="64775000.0" y="117641667.0">C31</text><rect fill="none" height="3650002" stroke="black" stroke-width="300000.0" width="2050002" x="71475000" y="123224999" /><text fill="rgb(0,0,0)" style="font-size:683334.000000;font-weight:bold" x="71775000.0" y="125391667.0">C37</text></g><g id="bg" stroke="black" transform="translate(143500001.000000,0.000000) scale(-1.000000,1.000000) translate(-56500000.000000,0.000000)"><line stroke-width="300000.0" x1="64500000" x2="57500000" y1="142500000" y2="135500000" /><line stroke-width="300000.0" x1="142500000" x2="135500000" y1="135500000" y2="142500000" /><line stroke-width="300000.0" x1="135500000" x2="142500000" y1="57500000" y2="64500000" /><line stroke-width="300000.0" x1="57500000" x2="64500000" y1="64500000" y2="57500000" /><line stroke-width="300000.0" x1="91900000" x2="91900000" y1="72250000" y2="71250000" /><line stroke-width="300000.0" x1="132500000" x2="132500000" y1="91000000" y2="93600000" /><circle cx="133000000" cy="91000000" fill="none" r="500000" stroke-width="300000.0" /><line stroke-width="300000.0" x1="133500000" x2="133500000" y1="93600000" y2="91000000" /><line stroke-width="300000.0" x1="134500000" x2="133500000" y1="93600000" y2="93600000" /><line stroke-width="300000.0" x1="132500000" x2="131500000" y1="93600000" y2="93600000" /><line stroke-width="300000.0" x1="131500000" x2="131500000" y1="93600000" y2="97400000" /><line stroke-width="300000.0" x1="131500000" x2="134500000" y1="97400000" y2="97400000" /><line stroke-width="300000.0" x1="134500000" x2="134500000" y1="97400000" y2="93600000" /><line stroke-width="300000.0" x1="132500000" x2="132500000" y1="113500000" y2="110900000" /><circle cx="133000000" cy="113500000" fill="none" r="500000" stroke-width="300000.0" /><line stroke-width="300000.0" x1="133500000" x2="133500000" y1="110900000" y2="113500000" /><line stroke-width="300000.0" x1="134500000" x2="133500000" y1="110900000" y2="110900000" /><line stroke-width="300000.0" x1="132500000" x2="131500000" y1="110900000" y2="110900000" /><line stroke-width="300000.0" x1="131500000" x2="131500000" y1="110900000" y2="107100000" /><line stroke-width="300000.0" x1="131500000" x2="134500000" y1="107100000" y2="107100000" /><line stroke-width="300000.0" x1="134500000" x2="134500000" y1="107100000" y2="110900000" /><line stroke-width="300000.0" x1="74600000" x2="74600000" y1="70750000" y2="69750000" /><line stroke-width="300000.0" x1="78400000" x2="78400000" y1="69750000" y2="72750000" /><line stroke-width="300000.0" x1="78400000" x2="74600000" y1="72750000" y2="72750000" /><line stroke-width="300000.0" x1="74600000" x2="74600000" y1="72750000" y2="71750000" /><line stroke-width="300000.0" x1="74600000" x2="78400000" y1="69750000" y2="69750000" /><line stroke-width="300000.0" x1="72000000" x2="74600000" y1="70750000" y2="70750000" /><line stroke-width="300000.0" x1="74600000" x2="72000000" y1="71750000" y2="71750000" /><circle cx="72000000" cy="71250000" fill="none" r="500000" stroke-width="300000.0" /><line stroke-width="300000.0" x1="91900000" x2="91900000" y1="70250000" y2="69250000" /><line stroke-width="300000.0" x1="88100000" x2="88100000" y1="69250000" y2="72250000" /><line stroke-width="300000.0" x1="88100000" x2="91900000" y1="72250000" y2="72250000" /><line stroke-width="300000.0" x1="91900000" x2="88100000" y1="69250000" y2="69250000" /><line stroke-width="300000.0" x1="94500000" x2="91900000" y1="70250000" y2="70250000" /><line stroke-width="300000.0" x1="91900000" x2="94500000" y1="71250000" y2="71250000" /><circle cx="94500000" cy="70750000" fill="none" r="500000" stroke-width="300000.0" /><circle cx="94000000" cy="128750000" fill="none" r="500000" stroke-width="300000.0" /><circle cx="71500000" cy="128750000" fill="none" r="500000" stroke-width="300000.0" /><line stroke-width="300000.0" x1="77900000" x2="77900000" y1="130250000" y2="127250000" /><line stroke-width="300000.0" x1="74100000" x2="77900000" y1="130250000" y2="130250000" /><line stroke-width="300000.0" x1="74100000" x2="74100000" y1="129250000" y2="130250000" /><line stroke-width="300000.0" x1="71500000" x2="74100000" y1="129250000" y2="129250000" /><line stroke-width="300000.0" x1="74100000" x2="71500000" y1="128250000" y2="128250000" /><line stroke-width="300000.0" x1="74100000" x2="74100000" y1="127250000" y2="128250000" /><line stroke-width="300000.0" x1="77900000" x2="74100000" y1="127250000" y2="127250000" /><line stroke-width="300000.0" x1="87600000" x2="87600000" y1="130000000" y2="127250000" /><line stroke-width="300000.0" x1="91400000" x2="87600000" y1="130000000" y2="130000000" /><line stroke-width="300000.0" x1="91400000" x2="91400000" y1="129250000" y2="130000000" /><line stroke-width="300000.0" x1="94000000" x2="91400000" y1="129250000" y2="129250000" /><line stroke-width="300000.0" x1="91400000" x2="94000000" y1="128250000" y2="128250000" /><line stroke-width="300000.0" x1="91400000" x2="91400000" y1="127250000" y2="128250000" /><line stroke-width="300000.0" x1="87600000" x2="91400000" y1="127250000" y2="127250000" /><circle cx="100000000" cy="100000000" fill="none" r="11250000" stroke-width="300000.0" /><line stroke-width="300000.0" x1="57500000" x2="57500000" y1="135500000" y2="64500000" /><line stroke-width="300000.0" x1="135500000" x2="64500000" y1="142500000" y2="142500000" /><line stroke-width="300000.0" x1="142500000" x2="142500000" y1="64500000" y2="135500000" /><line stroke-width="300000.0" x1="64500000" x2="135500000" y1="57500000" y2="57500000" /></g></g></svg>