<?xml version="1.0" encoding="utf-8" ?>
<svg baseProfile="full" height="12cm" version="1.1" viewBox="0,0,95700001.1,95700001.1" width="10cm" xmlns="http://www.w3.org/2000/svg" xmlns:ev="http://www.w3.org/2001/xml-events" xmlns:xlink="http://www.w3.org/1999/xlink"><defs /><g id="bg" stroke="black" transform="translate(-51363636.363636,-51363636.363636)"><g id="bg" stroke="black" transform="scale(1.000000,1.000000)"><rect fill="white" height="87000001" stroke="none" stroke-width="300000.0" width="87000001" x="56500000" y="56500000" /><text fill="rgb(0,0,0)" style="font-size:2500000.000000;font-weight:bold" x="59000000.0" y="47750000.0">56n (12 pcs)</text><text fill="rgb(0,0,0)" style="font-size:2500000.000000;font-weight:bold" x="59000000.0" y="50250000.0">L1, L3, L5, L7, L9, L11, L12, L10, L8, L6</text><text fill="rgb(0,0,0)" style="font-size:2500000.000000;font-weight:bold" x="59000000.0" y="52750000.0">L4, L2</text><text fill="rgb(0,0,0)" style="font-size:2500000.000000;font-weight:bold" x="59000000.0" y="55250000.0" /><rect fill="none" height="2050002" stroke="black" stroke-width="300000.0" width="3650002" x="120175000" y="122474999" /><text fill="rgb(0,0,0)" style="font-size:1435001.400000;font-weight:bold" x="120475000.0" y="124217500.7">L1</text><rect fill="none" height="2050002" stroke="black" stroke-width="300000.0" width="3650002" x="111425000" y="122474999" /><text fill="rgb(0,0,0)" style="font-size:1435001.400000;font-weight:bold" x="111725000.0" y="124217500.7">L3</text><rect fill="none" height="2050002" stroke="black" stroke-width="300000.0" width="3650002" x="109675000" y="75224999" /><text fill="rgb(0,0,0)" style="font-size:1435001.400000;font-weight:bold" x="109975000.0" y="76967500.7">L5</text><rect fill="none" height="2050002" stroke="black" stroke-width="300000.0" width="3650002" x="118925000" y="75474999" /><text fill="rgb(0,0,0)" style="font-size:1435001.400000;font-weight:bold" x="119225000.0" y="77217500.7">L7</text><rect fill="none" height="3650002" stroke="black" stroke-width="300000.0" width="2050002" x="71225000" y="105424999" /><text fill="rgb(0,0,0)" style="font-size:1025001.000000;font-weight:bold" x="71525000.0" y="107762500.5">L9</text><rect fill="none" height="3650002" stroke="black" stroke-width="300000.0" width="2050002" x="71225000" y="96424999" /><text fill="rgb(0,0,0)" style="font-size:683334.000000;font-weight:bold" x="71525000.0" y="98591667.0">L11</text><rect fill="none" height="2600000" stroke="black" stroke-width="300000.0" width="2800002" x="73350000" y="95200000" /><text fill="rgb(0,0,0)" style="font-size:933334.000000;font-weight:bold" x="73650000.0" y="96966667.0">L12</text><rect fill="none" height="2600000" stroke="black" stroke-width="300000.0" width="2800002" x="73350000" y="104200000" /><text fill="rgb(0,0,0)" style="font-size:933334.000000;font-weight:bold" x="73650000.0" y="105966667.0">L10</text><rect fill="none" height="2800002" stroke="black" stroke-width="300000.0" width="2600000" x="122200001" y="77599999" /><text fill="rgb(0,0,0)" style="font-size:1300000.000000;font-weight:bold" x="122500001.0" y="79650000.0">L8</text><rect fill="none" height="2800002" stroke="black" stroke-width="300000.0" width="2600000" x="111700001" y="77349999" /><text fill="rgb(0,0,0)" style="font-size:1300000.000000;font-weight:bold" x="112000001.0" y="79400000.0">L6</text><rect fill="none" height="2800002" stroke="black" stroke-width="300000.0" width="2600000" x="110200001" y="119599999" /><text fill="rgb(0,0,0)" style="font-size:1300000.000000;font-weight:bold" x="110500001.0" y="121650000.0">L4</text><rect fill="none" height="2800002" stroke="black" stroke-width="300000.0" width="2600000" x="119700001" y="119349999" /><text fill="rgb(0,0,0)" style="font-size:1300000.000000;font-weight:bold" x="120000001.0" y="121400000.0">L2</text></g><g id="bg" stroke="black" transform="translate(143500001.000000,0.000000) scale(-1.000000,1.000000) translate(-56500000.000000,0.000000)"><line stroke-width="300000.0" x1="64500000" x2="57500000" y1="142500000" y2="135500000" /><line stroke-width="300000.0" x1="142500000" x2="135500000" y1="135500000" y2="142500000" /><line stroke-width="300000.0" x1="135500000" x2="142500000" y1="57500000" y2="64500000" /><line stroke-width="300000.0" x1="57500000" x2="64500000" y1="64500000" y2="57500000" /><line stroke-width="300000.0" x1="91900000" x2="91900000" y1="72250000" y2="71250000" /><line stroke-width="300000.0" x1="132500000" x2="132500000" y1="91000000" y2="93600000" /><circle cx="133000000" cy="91000000" fill="none" r="500000" stroke-width="300000.0" /><line stroke-width="300000.0" x1="133500000" x2="133500000" y1="93600000" y2="91000000" /><line stroke-width="300000.0" x1="134500000" x2="133500000" y1="93600000" y2="93600000" /><line stroke-width="300000.0" x1="132500000" x2="131500000" y1="93600000" y2="93600000" /><line stroke-width="300000.0" x1="131500000" x2="131500000" y1="93600000" y2="97400000" /><line stroke-width="300000.0" x1="131500000" x2="134500000" y1="97400000" y2="97400000" /><line stroke-width="300000.0" x1="134500000" x2="134500000" y1="97400000" y2="93600000" /><line stroke-width="300000.0" x1="132500000" x2="132500000" y1="113500000" y2="110900000" /><circle cx="133000000" cy="113500000" fill="none" r="500000" stroke-width="300000.0" /><line stroke-width="300000.0" x1="133500000" x2="133500000" y1="110900000" y2="113500000" /><line stroke-width="300000.0" x1="134500000" x2="133500000" y1="110900000" y2="110900000" /><line stroke-width="300000.0" x1="132500000" x2="131500000" y1="110900000" y2="110900000" /><line stroke-width="300000.0" x1="131500000" x2="131500000" y1="110900000" y2="107100000" /><line stroke-width="300000.0" x1="131500000" x2="134500000" y1="107100000" y2="107100000" /><line stroke-width="300000.0" x1="134500000" x2="134500000" y1="107100000" y2="110900000" /><line stroke-width="300000.0" x1="74600000" x2="74600000" y1="70750000" y2="69750000" /><line stroke-width="300000.0" x1="78400000" x2="78400000" y1="69750000" y2="72750000" /><line stroke-width="300000.0" x1="78400000" x2="74600000" y1="72750000" y2="72750000" /><line stroke-width="300000.0" x1="74600000" x2="74600000" y1="72750000" y2="71750000" /><line stroke-width="300000.0" x1="74600000" x2="78400000" y1="69750000" y2="69750000" /><line stroke-width="300000.0" x1="72000000" x2="74600000" y1="70750000" y2="70750000" /><line stroke-width="300000.0" x1="74600000" x2="72000000" y1="71750000" y2="71750000" /><circle cx="72000000" cy="71250000" fill="none" r="500000" stroke-width="300000.0" /><line stroke-width="300000.0" x1="91900000" x2="91900000" y1="70250000" y2="69250000" /><line stroke-width="300000.0" x1="88100000" x2="88100000" y1="69250000" y2="72250000" /><line stroke-width="300000.0" x1="88100000" x2="91900000" y1="72250000" y2="72250000" /><line stroke-width="300000.0" x1="91900000" x2="88100000" y1="69250000" y2="69250000" /><line stroke-width="300000.0" x1="94500000" x2="91900000" y1="70250000" y2="70250000" /><line stroke-width="300000.0" x1="91900000" x2="94500000" y1="71250000" y2="71250000" /><circle cx="94500000" cy="70750000" fill="none" r="500000" stroke-width="300000.0" /><circle cx="94000000" cy="128750000" fill="none" r="500000" stroke-width="300000.0" /><circle cx="71500000" cy="128750000" fill="none" r="500000" stroke-width="300000.0" /><line stroke-width="300000.0" x1="77900000" x2="77900000" y1="130250000" y2="127250000" /><line stroke-width="300000.0" x1="74100000" x2="77900000" y1="130250000" y2="130250000" /><line stroke-width="300000.0" x1="74100000" x2="74100000" y1="129250000" y2="130250000" /><line stroke-width="300000.0" x1="71500000" x2="74100000" y1="129250000" y2="129250000" /><line stroke-width="300000.0" x1="74100000" x2="71500000" y1="128250000" y2="128250000" /><line stroke-width="300000.0" x1="74100000" x2="74100000" y1="127250000" y2="128250000" /><line stroke-width="300000.0" x1="77900000" x2="74100000" y1="127250000" y2="127250000" /><line stroke-width="300000.0" x1="87600000" x2="87600000" y1="130000000" y2="127250000" /><line stroke-width="300000.0" x1="91400000" x2="87600000" y1="130000000" y2="130000000" /><line stroke-width="300000.0" x1="91400000" x2="91400000" y1="129250000" y2="130000000" /><line stroke-width="300000.0" x1="94000000" x2="91400000" y1="129250000" y2="129250000" /><line stroke-width="300000.0" x1="91400000" x2="94000000" y1="128250000" y2="128250000" /><line stroke-width="300000.0" x1="91400000" x2="91400000" y1="127250000" y2="128250000" /><line stroke-width="300000.0" x1="87600000" x2="91400000" y1="127250000" y2="127250000" /><circle cx="100000000" cy="100000000" fill="none" r="11250000" stroke-width="300000.0" /><line stroke-width="300000.0" x1="57500000" x2="57500000" y1="135500000" y2="64500000" /><line stroke-width="300000.0" x1="135500000" x2="64500000" y1="142500000" y2="142500000" /><line stroke-width="300000.0" x1="142500000" x2="142500000" y1="64500000" y2="135500000" /><line stroke-width="300000.0" x1="64500000" x2="135500000" y1="57500000" y2="57500000" /></g></g></svg>