<?xml version="1.0" encoding="utf-8" ?>
<svg baseProfile="full" height="12cm" version="1.1" viewBox="0,0,95700001.1,95700001.1" width="10cm" xmlns="http://www.w3.org/2000/svg" xmlns:ev="http://www.w3.org/2001/xml-events" xmlns:xlink="http://www.w3.org/1999/xlink"><defs /><g id="bg" stroke="black" transform="translate(-51363636.363636,-51363636.363636)"><g id="bg" stroke="black" transform="scale(1.000000,1.000000)"><rect fill="white" height="87000001" stroke="none" stroke-width="300000.0" width="87000001" x="56500000" y="56500000" /><text fill="rgb(0,0,0)" style="font-size:2500000.000000;font-weight:bold" x="59000000.0" y="47750000.0">NANOSMD (13 pcs)</text><text fill="rgb(0,0,0)" style="font-size:2500000.000000;font-weight:bold" x="59000000.0" y="50250000.0">R37, R34, R33, R32, R31, R25, R24, R23, R22, R21</text><text fill="rgb(0,0,0)" style="font-size:2500000.000000;font-weight:bold" x="59000000.0" y="52750000.0">R13, R12, R1</text><text fill="rgb(0,0,0)" style="font-size:2500000.000000;font-weight:bold" x="59000000.0" y="55250000.0" /><rect fill="none" height="3080002" stroke="black" stroke-width="300000.0" width="6450002" x="62025000" y="74709999" /><text fill="rgb(0,0,0)" style="font-size:2150000.000000;font-weight:bold" x="62325000.0" y="77325000.0">R37</text><rect fill="none" height="3080002" stroke="black" stroke-width="300000.0" width="6450002" x="65025000" y="84209999" /><text fill="rgb(0,0,0)" style="font-size:2150000.000000;font-weight:bold" x="65325000.0" y="86825000.0">R34</text><rect fill="none" height="3080002" stroke="black" stroke-width="300000.0" width="6450002" x="74275000" y="127509999" /><text fill="rgb(0,0,0)" style="font-size:2150000.000000;font-weight:bold" x="74575000.0" y="130125000.0">R33</text><rect fill="none" height="3080002" stroke="black" stroke-width="300000.0" width="6450002" x="74275000" y="123509999" /><text fill="rgb(0,0,0)" style="font-size:2150000.000000;font-weight:bold" x="74575000.0" y="126125000.0">R32</text><rect fill="none" height="3080002" stroke="black" stroke-width="300000.0" width="6450002" x="74275000" y="119759999" /><text fill="rgb(0,0,0)" style="font-size:2150000.000000;font-weight:bold" x="74575000.0" y="122375000.0">R31</text><rect fill="none" height="3080002" stroke="black" stroke-width="300000.0" width="6450002" x="74275000" y="115759999" /><text fill="rgb(0,0,0)" style="font-size:2150000.000000;font-weight:bold" x="74575000.0" y="118375000.0">R25</text><rect fill="none" height="3080002" stroke="black" stroke-width="300000.0" width="6450002" x="122275000" y="64459999" /><text fill="rgb(0,0,0)" style="font-size:2150000.000000;font-weight:bold" x="122575000.0" y="67075000.0">R24</text><rect fill="none" height="3080002" stroke="black" stroke-width="300000.0" width="6450002" x="122275000" y="60459999" /><text fill="rgb(0,0,0)" style="font-size:2150000.000000;font-weight:bold" x="122575000.0" y="63075000.0">R23</text><rect fill="none" height="3080002" stroke="black" stroke-width="300000.0" width="6450002" x="105525000" y="132459999" /><text fill="rgb(0,0,0)" style="font-size:2150000.000000;font-weight:bold" x="105825000.0" y="135075000.0">R22</text><rect fill="none" height="3080002" stroke="black" stroke-width="300000.0" width="6450002" x="105525000" y="136459999" /><text fill="rgb(0,0,0)" style="font-size:2150000.000000;font-weight:bold" x="105825000.0" y="139075000.0">R21</text><rect fill="none" height="6450002" stroke="black" stroke-width="300000.0" width="3080002" x="92710000" y="64524999" /><text fill="rgb(0,0,0)" style="font-size:1026667.000000;font-weight:bold" x="93010000.0" y="68263333.5">R13</text><rect fill="none" height="3080002" stroke="black" stroke-width="300000.0" width="6450002" x="133275000" y="117959999" /><text fill="rgb(0,0,0)" style="font-size:2150000.000000;font-weight:bold" x="133575000.0" y="120575000.0">R12</text><rect fill="none" height="6450002" stroke="black" stroke-width="300000.0" width="3080002" x="129710000" y="116774999" /><text fill="rgb(0,0,0)" style="font-size:1540001.000000;font-weight:bold" x="130010000.0" y="120770000.5">R1</text></g><g id="bg" stroke="black" transform="translate(143500001.000000,0.000000) scale(-1.000000,1.000000) translate(-56500000.000000,0.000000)"><line stroke-width="300000.0" x1="64500000" x2="57500000" y1="142500000" y2="135500000" /><line stroke-width="300000.0" x1="142500000" x2="135500000" y1="135500000" y2="142500000" /><line stroke-width="300000.0" x1="135500000" x2="142500000" y1="57500000" y2="64500000" /><line stroke-width="300000.0" x1="57500000" x2="64500000" y1="64500000" y2="57500000" /><line stroke-width="300000.0" x1="91900000" x2="91900000" y1="72250000" y2="71250000" /><line stroke-width="300000.0" x1="132500000" x2="132500000" y1="91000000" y2="93600000" /><circle cx="133000000" cy="91000000" fill="none" r="500000" stroke-width="300000.0" /><line stroke-width="300000.0" x1="133500000" x2="133500000" y1="93600000" y2="91000000" /><line stroke-width="300000.0" x1="134500000" x2="133500000" y1="93600000" y2="93600000" /><line stroke-width="300000.0" x1="132500000" x2="131500000" y1="93600000" y2="93600000" /><line stroke-width="300000.0" x1="131500000" x2="131500000" y1="93600000" y2="97400000" /><line stroke-width="300000.0" x1="131500000" x2="134500000" y1="97400000" y2="97400000" /><line stroke-width="300000.0" x1="134500000" x2="134500000" y1="97400000" y2="93600000" /><line stroke-width="300000.0" x1="132500000" x2="132500000" y1="113500000" y2="110900000" /><circle cx="133000000" cy="113500000" fill="none" r="500000" stroke-width="300000.0" /><line stroke-width="300000.0" x1="133500000" x2="133500000" y1="110900000" y2="113500000" /><line stroke-width="300000.0" x1="134500000" x2="133500000" y1="110900000" y2="110900000" /><line stroke-width="300000.0" x1="132500000" x2="131500000" y1="110900000" y2="110900000" /><line stroke-width="300000.0" x1="131500000" x2="131500000" y1="110900000" y2="107100000" /><line stroke-width="300000.0" x1="131500000" x2="134500000" y1="107100000" y2="107100000" /><line stroke-width="300000.0" x1="134500000" x2="134500000" y1="107100000" y2="110900000" /><line stroke-width="300000.0" x1="74600000" x2="74600000" y1="70750000" y2="69750000" /><line stroke-width="300000.0" x1="78400000" x2="78400000" y1="69750000" y2="72750000" /><line stroke-width="300000.0" x1="78400000" x2="74600000" y1="72750000" y2="72750000" /><line stroke-width="300000.0" x1="74600000" x2="74600000" y1="72750000" y2="71750000" /><line stroke-width="300000.0" x1="74600000" x2="78400000" y1="69750000" y2="69750000" /><line stroke-width="300000.0" x1="72000000" x2="74600000" y1="70750000" y2="70750000" /><line stroke-width="300000.0" x1="74600000" x2="72000000" y1="71750000" y2="71750000" /><circle cx="72000000" cy="71250000" fill="none" r="500000" stroke-width="300000.0" /><line stroke-width="300000.0" x1="91900000" x2="91900000" y1="70250000" y2="69250000" /><line stroke-width="300000.0" x1="88100000" x2="88100000" y1="69250000" y2="72250000" /><line stroke-width="300000.0" x1="88100000" x2="91900000" y1="72250000" y2="72250000" /><line stroke-width="300000.0" x1="91900000" x2="88100000" y1="69250000" y2="69250000" /><line stroke-width="300000.0" x1="94500000" x2="91900000" y1="70250000" y2="70250000" /><line stroke-width="300000.0" x1="91900000" x2="94500000" y1="71250000" y2="71250000" /><circle cx="94500000" cy="70750000" fill="none" r="500000" stroke-width="300000.0" /><circle cx="94000000" cy="128750000" fill="none" r="500000" stroke-width="300000.0" /><circle cx="71500000" cy="128750000" fill="none" r="500000" stroke-width="300000.0" /><line stroke-width="300000.0" x1="77900000" x2="77900000" y1="130250000" y2="127250000" /><line stroke-width="300000.0" x1="74100000" x2="77900000" y1="130250000" y2="130250000" /><line stroke-width="300000.0" x1="74100000" x2="74100000" y1="129250000" y2="130250000" /><line stroke-width="300000.0" x1="71500000" x2="74100000" y1="129250000" y2="129250000" /><line stroke-width="300000.0" x1="74100000" x2="71500000" y1="128250000" y2="128250000" /><line stroke-width="300000.0" x1="74100000" x2="74100000" y1="127250000" y2="128250000" /><line stroke-width="300000.0" x1="77900000" x2="74100000" y1="127250000" y2="127250000" /><line stroke-width="300000.0" x1="87600000" x2="87600000" y1="130000000" y2="127250000" /><line stroke-width="300000.0" x1="91400000" x2="87600000" y1="130000000" y2="130000000" /><line stroke-width="300000.0" x1="91400000" x2="91400000" y1="129250000" y2="130000000" /><line stroke-width="300000.0" x1="94000000" x2="91400000" y1="129250000" y2="129250000" /><line stroke-width="300000.0" x1="91400000" x2="94000000" y1="128250000" y2="128250000" /><line stroke-width="300000.0" x1="91400000" x2="91400000" y1="127250000" y2="128250000" /><line stroke-width="300000.0" x1="87600000" x2="91400000" y1="127250000" y2="127250000" /><circle cx="100000000" cy="100000000" fill="none" r="11250000" stroke-width="300000.0" /><line stroke-width="300000.0" x1="57500000" x2="57500000" y1="135500000" y2="64500000" /><line stroke-width="300000.0" x1="135500000" x2="64500000" y1="142500000" y2="142500000" /><line stroke-width="300000.0" x1="142500000" x2="142500000" y1="64500000" y2="135500000" /><line stroke-width="300000.0" x1="64500000" x2="135500000" y1="57500000" y2="57500000" /></g></g></svg>