G04 #@! TF.FileFunction,Soldermask,Top*
%FSLAX46Y46*%
G04 Gerber Fmt 4.6, Leading zero omitted, Abs format (unit mm)*
G04 Created by KiCad (PCBNEW 4.0.2-stable) date Mon 19 Sep 2016 06:41:33 PM CEST*
%MOMM*%
G01*
G04 APERTURE LIST*
%ADD10C,0.100000*%
G04 APERTURE END LIST*
D10*
G36*
X142500000Y-142500000D02*
X60040592Y-142500000D01*
X60023180Y-142502474D01*
X60006769Y-142509943D01*
X60000000Y-142514299D01*
X60000000Y-142515778D01*
X57500000Y-142515778D01*
X57500000Y-60062500D01*
X60000000Y-60062500D01*
X60000000Y-139937500D01*
X60002474Y-139954912D01*
X60009702Y-139970945D01*
X60021110Y-139984331D01*
X60035795Y-139994008D01*
X60052595Y-139999210D01*
X60062500Y-140000000D01*
X139937500Y-140000000D01*
X139954912Y-139997526D01*
X139970945Y-139990298D01*
X139984331Y-139978890D01*
X139994008Y-139964205D01*
X139999210Y-139947405D01*
X140000000Y-139937500D01*
X140000000Y-60062500D01*
X139997526Y-60045088D01*
X139990298Y-60029055D01*
X139978890Y-60015669D01*
X139964205Y-60005992D01*
X139947405Y-60000790D01*
X139937500Y-60000000D01*
X60062500Y-60000000D01*
X60045088Y-60002474D01*
X60029055Y-60009702D01*
X60015669Y-60021110D01*
X60005992Y-60035795D01*
X60000790Y-60052595D01*
X60000000Y-60062500D01*
X57500000Y-60062500D01*
X57500000Y-57500000D01*
X142500000Y-57500000D01*
X142500000Y-142500000D01*
X142500000Y-142500000D01*
G37*
G36*
X102500000Y-137500000D02*
X97500000Y-137500000D01*
X97500000Y-132500000D01*
X102500000Y-132500000D01*
X102500000Y-137500000D01*
X102500000Y-137500000D01*
G37*
G36*
X65220572Y-132901396D02*
X65623992Y-132984206D01*
X66003642Y-133143796D01*
X66345070Y-133374092D01*
X66635259Y-133666314D01*
X66863164Y-134009341D01*
X67020100Y-134390094D01*
X67100006Y-134793653D01*
X67100006Y-134793659D01*
X67100090Y-134794084D01*
X67093522Y-135264473D01*
X67093427Y-135264890D01*
X67093427Y-135264902D01*
X67002283Y-135666070D01*
X66834776Y-136042297D01*
X66597382Y-136378826D01*
X66299148Y-136662830D01*
X65951423Y-136883503D01*
X65567463Y-137032432D01*
X65161891Y-137103945D01*
X64750150Y-137095319D01*
X64347926Y-137006885D01*
X63970534Y-136842006D01*
X63632362Y-136606972D01*
X63346278Y-136310722D01*
X63123187Y-135964553D01*
X62971580Y-135581638D01*
X62897238Y-135176576D01*
X62902987Y-134764780D01*
X62988612Y-134361951D01*
X63150849Y-133983422D01*
X63383521Y-133643614D01*
X63677764Y-133355469D01*
X64022371Y-133129965D01*
X64404213Y-132975691D01*
X64808753Y-132898521D01*
X65220572Y-132901396D01*
X65220572Y-132901396D01*
G37*
G36*
X135220572Y-132901396D02*
X135623992Y-132984206D01*
X136003642Y-133143796D01*
X136345070Y-133374092D01*
X136635259Y-133666314D01*
X136863164Y-134009341D01*
X137020100Y-134390094D01*
X137100006Y-134793653D01*
X137100006Y-134793659D01*
X137100090Y-134794084D01*
X137093522Y-135264473D01*
X137093427Y-135264890D01*
X137093427Y-135264902D01*
X137002283Y-135666070D01*
X136834776Y-136042297D01*
X136597382Y-136378826D01*
X136299148Y-136662830D01*
X135951423Y-136883503D01*
X135567463Y-137032432D01*
X135161891Y-137103945D01*
X134750150Y-137095319D01*
X134347926Y-137006885D01*
X133970534Y-136842006D01*
X133632362Y-136606972D01*
X133346278Y-136310722D01*
X133123187Y-135964553D01*
X132971580Y-135581638D01*
X132897238Y-135176576D01*
X132902987Y-134764780D01*
X132988612Y-134361951D01*
X133150849Y-133983422D01*
X133383521Y-133643614D01*
X133677764Y-133355469D01*
X134022371Y-133129965D01*
X134404213Y-132975691D01*
X134808753Y-132898521D01*
X135220572Y-132901396D01*
X135220572Y-132901396D01*
G37*
G36*
X92478902Y-117463574D02*
X92882322Y-117546384D01*
X93261972Y-117705974D01*
X93603400Y-117936270D01*
X93893589Y-118228492D01*
X94121494Y-118571519D01*
X94278430Y-118952272D01*
X94358336Y-119355831D01*
X94358336Y-119355837D01*
X94358420Y-119356262D01*
X94351852Y-119826651D01*
X94351757Y-119827068D01*
X94351757Y-119827080D01*
X94260613Y-120228248D01*
X94093106Y-120604475D01*
X93855712Y-120941004D01*
X93557478Y-121225008D01*
X93209753Y-121445681D01*
X92825793Y-121594610D01*
X92420221Y-121666123D01*
X92008480Y-121657497D01*
X91606256Y-121569063D01*
X91228864Y-121404184D01*
X90890692Y-121169150D01*
X90604608Y-120872900D01*
X90381517Y-120526731D01*
X90229910Y-120143816D01*
X90155568Y-119738754D01*
X90161317Y-119326958D01*
X90246942Y-118924129D01*
X90409179Y-118545600D01*
X90641851Y-118205792D01*
X90936094Y-117917647D01*
X91280701Y-117692143D01*
X91662543Y-117537869D01*
X92067083Y-117460699D01*
X92478902Y-117463574D01*
X92478902Y-117463574D01*
G37*
G36*
X87282750Y-114463574D02*
X87686170Y-114546384D01*
X88065820Y-114705974D01*
X88407248Y-114936270D01*
X88697437Y-115228492D01*
X88925342Y-115571519D01*
X89082278Y-115952272D01*
X89162184Y-116355831D01*
X89162184Y-116355837D01*
X89162268Y-116356262D01*
X89155700Y-116826651D01*
X89155605Y-116827068D01*
X89155605Y-116827080D01*
X89064461Y-117228248D01*
X88896954Y-117604475D01*
X88659560Y-117941004D01*
X88361326Y-118225008D01*
X88013601Y-118445681D01*
X87629641Y-118594610D01*
X87224069Y-118666123D01*
X86812328Y-118657497D01*
X86410104Y-118569063D01*
X86032712Y-118404184D01*
X85694540Y-118169150D01*
X85408456Y-117872900D01*
X85185365Y-117526731D01*
X85033758Y-117143816D01*
X84959416Y-116738754D01*
X84965165Y-116326958D01*
X85050790Y-115924129D01*
X85213027Y-115545600D01*
X85445699Y-115205792D01*
X85739942Y-114917647D01*
X86084549Y-114692143D01*
X86466391Y-114537869D01*
X86870931Y-114460699D01*
X87282750Y-114463574D01*
X87282750Y-114463574D01*
G37*
G36*
X121220572Y-100901396D02*
X121623992Y-100984206D01*
X122003642Y-101143796D01*
X122345070Y-101374092D01*
X122635259Y-101666314D01*
X122863164Y-102009341D01*
X123020100Y-102390094D01*
X123100006Y-102793653D01*
X123100006Y-102793659D01*
X123100090Y-102794084D01*
X123093522Y-103264473D01*
X123093427Y-103264890D01*
X123093427Y-103264902D01*
X123002283Y-103666070D01*
X122834776Y-104042297D01*
X122597382Y-104378826D01*
X122299148Y-104662830D01*
X121951423Y-104883503D01*
X121567463Y-105032432D01*
X121161891Y-105103945D01*
X120750150Y-105095319D01*
X120347926Y-105006885D01*
X119970534Y-104842006D01*
X119632362Y-104606972D01*
X119346278Y-104310722D01*
X119123187Y-103964553D01*
X118971580Y-103581638D01*
X118897238Y-103176576D01*
X118902987Y-102764780D01*
X118988612Y-102361951D01*
X119150849Y-101983422D01*
X119383521Y-101643614D01*
X119677764Y-101355469D01*
X120022371Y-101129965D01*
X120404213Y-100975691D01*
X120808753Y-100898521D01*
X121220572Y-100901396D01*
X121220572Y-100901396D01*
G37*
G36*
X121220572Y-94901396D02*
X121623992Y-94984206D01*
X122003642Y-95143796D01*
X122345070Y-95374092D01*
X122635259Y-95666314D01*
X122863164Y-96009341D01*
X123020100Y-96390094D01*
X123100006Y-96793653D01*
X123100006Y-96793659D01*
X123100090Y-96794084D01*
X123093522Y-97264473D01*
X123093427Y-97264890D01*
X123093427Y-97264902D01*
X123002283Y-97666070D01*
X122834776Y-98042297D01*
X122597382Y-98378826D01*
X122299148Y-98662830D01*
X121951423Y-98883503D01*
X121567463Y-99032432D01*
X121161891Y-99103945D01*
X120750150Y-99095319D01*
X120347926Y-99006885D01*
X119970534Y-98842006D01*
X119632362Y-98606972D01*
X119346278Y-98310722D01*
X119123187Y-97964553D01*
X118971580Y-97581638D01*
X118897238Y-97176576D01*
X118902987Y-96764780D01*
X118988612Y-96361951D01*
X119150849Y-95983422D01*
X119383521Y-95643614D01*
X119677764Y-95355469D01*
X120022371Y-95129965D01*
X120404213Y-94975691D01*
X120808753Y-94898521D01*
X121220572Y-94901396D01*
X121220572Y-94901396D01*
G37*
G36*
X87078267Y-81272231D02*
X87481687Y-81355041D01*
X87861337Y-81514631D01*
X88202765Y-81744927D01*
X88492954Y-82037149D01*
X88720859Y-82380176D01*
X88877795Y-82760929D01*
X88957701Y-83164488D01*
X88957701Y-83164494D01*
X88957785Y-83164919D01*
X88951217Y-83635308D01*
X88951122Y-83635725D01*
X88951122Y-83635737D01*
X88859978Y-84036905D01*
X88692471Y-84413132D01*
X88455077Y-84749661D01*
X88156843Y-85033665D01*
X87809118Y-85254338D01*
X87425158Y-85403267D01*
X87019586Y-85474780D01*
X86607845Y-85466154D01*
X86205621Y-85377720D01*
X85828229Y-85212841D01*
X85490057Y-84977807D01*
X85203973Y-84681557D01*
X84980882Y-84335388D01*
X84829275Y-83952473D01*
X84754933Y-83547411D01*
X84760682Y-83135615D01*
X84846307Y-82732786D01*
X85008544Y-82354257D01*
X85241216Y-82014449D01*
X85535459Y-81726304D01*
X85880066Y-81500800D01*
X86261908Y-81346526D01*
X86666448Y-81269356D01*
X87078267Y-81272231D01*
X87078267Y-81272231D01*
G37*
G36*
X92274420Y-78272231D02*
X92677840Y-78355041D01*
X93057490Y-78514631D01*
X93398918Y-78744927D01*
X93689107Y-79037149D01*
X93917012Y-79380176D01*
X94073948Y-79760929D01*
X94153854Y-80164488D01*
X94153854Y-80164494D01*
X94153938Y-80164919D01*
X94147370Y-80635308D01*
X94147275Y-80635725D01*
X94147275Y-80635737D01*
X94056131Y-81036905D01*
X93888624Y-81413132D01*
X93651230Y-81749661D01*
X93352996Y-82033665D01*
X93005271Y-82254338D01*
X92621311Y-82403267D01*
X92215739Y-82474780D01*
X91803998Y-82466154D01*
X91401774Y-82377720D01*
X91024382Y-82212841D01*
X90686210Y-81977807D01*
X90400126Y-81681557D01*
X90177035Y-81335388D01*
X90025428Y-80952473D01*
X89951086Y-80547411D01*
X89956835Y-80135615D01*
X90042460Y-79732786D01*
X90204697Y-79354257D01*
X90437369Y-79014449D01*
X90731612Y-78726304D01*
X91076219Y-78500800D01*
X91458061Y-78346526D01*
X91862601Y-78269356D01*
X92274420Y-78272231D01*
X92274420Y-78272231D01*
G37*
G36*
X102500000Y-67500000D02*
X97500000Y-67500000D01*
X97500000Y-62500000D01*
X102500000Y-62500000D01*
X102500000Y-67500000D01*
X102500000Y-67500000D01*
G37*
G36*
X135220572Y-62901396D02*
X135623992Y-62984206D01*
X136003642Y-63143796D01*
X136345070Y-63374092D01*
X136635259Y-63666314D01*
X136863164Y-64009341D01*
X137020100Y-64390094D01*
X137100006Y-64793653D01*
X137100006Y-64793659D01*
X137100090Y-64794084D01*
X137093522Y-65264473D01*
X137093427Y-65264890D01*
X137093427Y-65264902D01*
X137002283Y-65666070D01*
X136834776Y-66042297D01*
X136597382Y-66378826D01*
X136299148Y-66662830D01*
X135951423Y-66883503D01*
X135567463Y-67032432D01*
X135161891Y-67103945D01*
X134750150Y-67095319D01*
X134347926Y-67006885D01*
X133970534Y-66842006D01*
X133632362Y-66606972D01*
X133346278Y-66310722D01*
X133123187Y-65964553D01*
X132971580Y-65581638D01*
X132897238Y-65176576D01*
X132902987Y-64764780D01*
X132988612Y-64361951D01*
X133150849Y-63983422D01*
X133383521Y-63643614D01*
X133677764Y-63355469D01*
X134022371Y-63129965D01*
X134404213Y-62975691D01*
X134808753Y-62898521D01*
X135220572Y-62901396D01*
X135220572Y-62901396D01*
G37*
G36*
X65220572Y-62901396D02*
X65623992Y-62984206D01*
X66003642Y-63143796D01*
X66345070Y-63374092D01*
X66635259Y-63666314D01*
X66863164Y-64009341D01*
X67020100Y-64390094D01*
X67100006Y-64793653D01*
X67100006Y-64793659D01*
X67100090Y-64794084D01*
X67093522Y-65264473D01*
X67093427Y-65264890D01*
X67093427Y-65264902D01*
X67002283Y-65666070D01*
X66834776Y-66042297D01*
X66597382Y-66378826D01*
X66299148Y-66662830D01*
X65951423Y-66883503D01*
X65567463Y-67032432D01*
X65161891Y-67103945D01*
X64750150Y-67095319D01*
X64347926Y-67006885D01*
X63970534Y-66842006D01*
X63632362Y-66606972D01*
X63346278Y-66310722D01*
X63123187Y-65964553D01*
X62971580Y-65581638D01*
X62897238Y-65176576D01*
X62902987Y-64764780D01*
X62988612Y-64361951D01*
X63150849Y-63983422D01*
X63383521Y-63643614D01*
X63677764Y-63355469D01*
X64022371Y-63129965D01*
X64404213Y-62975691D01*
X64808753Y-62898521D01*
X65220572Y-62901396D01*
X65220572Y-62901396D01*
G37*
M02*
