M48
;DRILL file {KiCad 4.0.5+dfsg1-4} date Fri May  4 15:45:58 2018
;FORMAT={3:3/ absolute / metric / suppress leading zeros}
FMAT,2
METRIC,TZ
T1C0.700
T2C3.200
%
G90
G05
M71
T1
X87750Y-100000
X87936Y-97873
X87936Y-102127
X88489Y-95810
X88489Y-104190
X89391Y-93875
X89391Y-106125
X90616Y-92126
X90616Y-107874
X92126Y-90616
X92126Y-109384
X93875Y-89391
X93875Y-110609
X95810Y-88489
X95810Y-111511
X97873Y-87936
X97873Y-112064
X100000Y-87750
X100000Y-112250
X102127Y-87936
X102127Y-112064
X104190Y-88489
X104190Y-111511
X106125Y-89391
X106125Y-110609
X107874Y-90616
X107874Y-109384
X109384Y-92126
X109384Y-107874
X110609Y-93875
X110609Y-106125
X111511Y-95810
X111511Y-104190
X112064Y-97873
X112064Y-102127
X112250Y-100000
T2
X65000Y-65000
X65000Y-135000
X135000Y-65000
X135000Y-135000
T0
M30
