M48
;DRILL file {KiCad 4.0.5+dfsg1-4} date Fri May  4 15:45:58 2018
;FORMAT={3:3/ absolute / metric / suppress leading zeros}
FMAT,2
METRIC,TZ
T1C0.100
%
G90
G05
M71
T1
X59900Y-89100
X59900Y-91800
X59905Y-89805
X59925Y-91075
X61800Y-82700
X61900Y-81500
X62300Y-82200
X62500Y-80500
X62500Y-81500
X62900Y-117100
X62900Y-118600
X63000Y-80300
X63400Y-118600
X63500Y-117100
X63500Y-119700
X64300Y-99900
X64900Y-100800
X65000Y-99900
X65075Y-101400
X65500Y-119700
X66000Y-75100
X66500Y-117750
X67000Y-86000
X67000Y-96100
X67100Y-89800
X67100Y-118100
X67100Y-91000
X67200Y-71000
X67300Y-99000
X67300Y-112200
X67400Y-71600
X67500Y-85900
X67500Y-95200
X67600Y-94700
X67650Y-89250
X67700Y-91000
X67700Y-96100
X67700Y-105300
X67700Y-106200
X67700Y-111800
X67800Y-99700
X67800Y-112300
X67900Y-98800
X68100Y-71500
X68200Y-105250
X68300Y-71000
X68300Y-99700
X68300Y-106000
X68700Y-111900
X68700Y-112600
X69000Y-70900
X69137Y-107508
X69300Y-70200
X69300Y-97600
X69500Y-107900
X69900Y-93300
X69900Y-94000
X69900Y-109400
X70000Y-109000
X70100Y-86100
X70295Y-107500
X70400Y-86400
X70500Y-102000
X70790Y-106496
X70800Y-106900
X70900Y-102000
X71100Y-107900
X71200Y-110700
X71250Y-71000
X71250Y-71750
X71250Y-129750
X71250Y-130500
X71300Y-109700
X71700Y-70600
X71750Y-72500
X71750Y-129000
X71750Y-131000
X71800Y-89200
X71800Y-110200
X71900Y-121500
X72050Y-70400
X72100Y-89500
X72200Y-110400
X72200Y-131050
X72450Y-70400
X72450Y-90800
X72450Y-91300
X72500Y-72500
X72500Y-102000
X72500Y-129000
X72650Y-131050
X72800Y-88650
X72800Y-89100
X72850Y-70400
X72900Y-89700
X72900Y-90250
X72900Y-90800
X72900Y-91300
X72900Y-102000
X73100Y-131050
X73250Y-70400
X73250Y-72500
X73250Y-73250
X73250Y-74000
X73250Y-74750
X73250Y-75500
X73250Y-76250
X73250Y-77000
X73250Y-122750
X73250Y-123500
X73250Y-124250
X73250Y-125000
X73250Y-125750
X73250Y-126500
X73250Y-127250
X73250Y-128000
X73250Y-128750
X73300Y-88650
X73300Y-89100
X73300Y-110300
X73302Y-109849
X73350Y-89700
X73350Y-90250
X73350Y-90800
X73350Y-91300
X73500Y-77750
X73500Y-130950
X73600Y-70550
X73800Y-88650
X73800Y-89100
X73800Y-130600
X73850Y-89700
X73850Y-90250
X73850Y-90800
X73850Y-91300
X73900Y-70850
X74000Y-122250
X74100Y-102000
X74250Y-77750
X74250Y-130550
X74300Y-70900
X74500Y-102000
X74600Y-112900
X74700Y-130550
X74750Y-70900
X74750Y-122250
X75000Y-77750
X75100Y-89750
X75100Y-90300
X75100Y-90800
X75100Y-91300
X75100Y-113400
X75100Y-136000
X75150Y-88700
X75150Y-89150
X75150Y-130550
X75200Y-70900
X75300Y-85100
X75310Y-111400
X75500Y-122250
X75590Y-113900
X75600Y-89750
X75600Y-90300
X75600Y-90800
X75600Y-91300
X75600Y-130550
X75600Y-77750
X75650Y-70900
X75700Y-88700
X75700Y-89150
X75700Y-97600
X75750Y-111500
X75800Y-135800
X75900Y-85100
X76050Y-77750
X76100Y-70900
X76100Y-130550
X76200Y-88700
X76200Y-89150
X76200Y-113900
X76250Y-122250
X76400Y-85100
X76400Y-91600
X76450Y-130800
X76500Y-70700
X76550Y-77800
X76600Y-131200
X76650Y-70250
X76800Y-91200
X76800Y-122250
X76850Y-78100
X76900Y-90600
X77000Y-96100
X77150Y-78450
X77200Y-122250
X77250Y-116500
X77300Y-77500
X77500Y-122000
X77550Y-78700
X77600Y-96700
X77750Y-116500
X77800Y-95200
X77800Y-121700
X77928Y-78949
X78000Y-64750
X78000Y-77750
X78000Y-95800
X78000Y-121250
X78200Y-123000
X78400Y-121100
X78426Y-79010
X78500Y-116500
X78550Y-78300
X78600Y-122600
X78700Y-92600
X78700Y-131150
X78800Y-70250
X78800Y-79250
X78800Y-128550
X78835Y-83500
X78850Y-72800
X78850Y-121100
X78850Y-129550
X78850Y-129950
X78850Y-130350
X78850Y-130750
X78900Y-129050
X78900Y-64900
X78950Y-70600
X78950Y-71100
X78950Y-71550
X78950Y-72000
X78950Y-72400
X79000Y-116500
X79200Y-92600
X79200Y-122600
X79200Y-134900
X79250Y-79250
X79250Y-121100
X79300Y-135500
X79400Y-82935
X79475Y-108703
X79500Y-102200
X79500Y-104300
X79500Y-104700
X79500Y-106700
X79500Y-107200
X79500Y-109300
X79500Y-110200
X79500Y-110800
X79500Y-112300
X79500Y-112700
X79541Y-102714
X79650Y-79250
X79650Y-121100
X79728Y-86126
X79800Y-82535
X80050Y-79250
X80100Y-121100
X80200Y-86100
X80450Y-79250
X80500Y-121100
X80700Y-94200
X80700Y-95800
X80700Y-96600
X80725Y-97300
X80745Y-95145
X80850Y-79250
X80900Y-93600
X80950Y-121100
X81250Y-79250
X81350Y-121100
X81650Y-79250
X81800Y-121100
X81800Y-127600
X81800Y-128000
X81800Y-128400
X81800Y-129200
X81800Y-129600
X81800Y-128800
X81900Y-69400
X81900Y-69850
X81900Y-70300
X81900Y-70750
X81900Y-71200
X81900Y-86100
X82000Y-79250
X82000Y-129950
X82050Y-69000
X82050Y-71600
X82250Y-121100
X82387Y-79280
X82600Y-86100
X82700Y-121100
X82818Y-79313
X83122Y-121055
X83200Y-77800
X83200Y-78400
X83200Y-122200
X83216Y-79312
X83400Y-123000
X83600Y-79250
X83600Y-77400
X83635Y-121030
X83800Y-123400
X84000Y-79150
X84000Y-121300
X84100Y-78750
X84100Y-129900
X84150Y-69000
X84300Y-121600
X84300Y-69500
X84350Y-78400
X84350Y-129450
X84550Y-121950
X84650Y-78100
X84750Y-69650
X84850Y-129300
X84850Y-122250
X85050Y-77800
X85200Y-69650
X85250Y-129300
X85250Y-137250
X85400Y-66000
X85500Y-122250
X85650Y-69650
X85650Y-129300
X85750Y-77750
X85800Y-116525
X85900Y-136800
X86050Y-129300
X86100Y-66000
X86100Y-69650
X86250Y-122250
X86450Y-129300
X86500Y-77750
X86500Y-116400
X86550Y-69650
X86850Y-129300
X86950Y-69600
X87000Y-122250
X87100Y-129600
X87200Y-69300
X87250Y-77750
X87400Y-129800
X87500Y-71750
X87500Y-72500
X87500Y-73250
X87500Y-74000
X87500Y-74750
X87500Y-75500
X87500Y-76250
X87500Y-77000
X87500Y-123000
X87500Y-123750
X87500Y-124500
X87500Y-125250
X87500Y-126000
X87500Y-126750
X87500Y-127500
X87500Y-136600
X87550Y-69150
X87800Y-129800
X88000Y-69150
X88000Y-71250
X88200Y-129800
X88250Y-127750
X88450Y-69150
X88500Y-137000
X88600Y-129800
X88700Y-78900
X88750Y-71250
X88900Y-69150
X89000Y-127750
X89000Y-129700
X89075Y-82225
X89100Y-81700
X89200Y-69450
X89426Y-128580
X89475Y-129250
X89500Y-70000
X89500Y-70750
X89600Y-81700
X89600Y-82200
X91434Y-81033
X91500Y-81900
X92198Y-82298
X92200Y-81600
X93000Y-81000
X93600Y-76100
X93600Y-81400
X93900Y-68300
X94000Y-63500
X94000Y-64000
X94000Y-70500
X94100Y-66000
X94100Y-66700
X94200Y-79500
X94250Y-78500
X94500Y-74300
X95300Y-122500
X95300Y-125000
X95300Y-127500
X95300Y-130000
X95300Y-132500
X95300Y-135000
X96000Y-68250
X96000Y-68800
X96800Y-79000
X97100Y-78700
X97700Y-78700
X98100Y-62300
X98300Y-116100
X98300Y-116800
X98400Y-62600
X99400Y-68000
X99400Y-68900
X99500Y-75250
X99700Y-116100
X99700Y-116800
X100000Y-75200
X100400Y-59900
X100400Y-60800
X101000Y-120750
X101400Y-120700
X101700Y-70500
X101700Y-71000
X105500Y-70500
X105500Y-80200
X105500Y-80700
X105900Y-70800
X107500Y-76500
X107500Y-77000
X108000Y-61000
X108000Y-74000
X108000Y-74500
X108100Y-86200
X108700Y-86200
X108800Y-61400
X109800Y-68700
X109900Y-68100
X110400Y-70700
X110400Y-71300
X110500Y-66900
X110500Y-67500
X110800Y-62300
X110800Y-62800
X113400Y-72500
X113900Y-72500
X116150Y-66200
X116270Y-66800
X121300Y-67700
X121675Y-102400
X121686Y-102008
X121742Y-98343
X121772Y-98904
X121800Y-67700
X121801Y-101458
X121850Y-97950
X121850Y-99300
X121850Y-99750
X121850Y-100200
X121850Y-100650
X121850Y-101100
X121850Y-102800
X121900Y-97500
X122000Y-108500
X122100Y-103150
X122150Y-97150
X122400Y-86400
X122400Y-103400
X122450Y-96850
X122500Y-97900
X122600Y-102550
X122700Y-85200
X122700Y-103700
X122750Y-96550
X122900Y-86400
X122950Y-96150
X122950Y-104050
X123000Y-93500
X123000Y-94250
X123000Y-95000
X123000Y-95650
X123000Y-104750
X123000Y-105500
X123000Y-106250
X123100Y-70600
X123200Y-101800
X123250Y-107000
X123300Y-97900
X123400Y-70300
X123400Y-85200
X123400Y-97000
X123500Y-64800
X123500Y-93000
X123550Y-102800
X124000Y-64800
X124000Y-107000
X124250Y-93000
X124400Y-130000
X124750Y-107000
X125000Y-93000
X125250Y-74150
X125500Y-107000
X125600Y-128700
X125700Y-74700
X125700Y-129200
X125750Y-93000
X126000Y-82250
X126000Y-86900
X126100Y-69000
X126100Y-69400
X126100Y-75000
X126250Y-107000
X126300Y-70700
X126500Y-76000
X126500Y-80750
X126500Y-81250
X126500Y-81750
X126500Y-82250
X126500Y-82750
X126500Y-83250
X126500Y-83750
X126500Y-93000
X126600Y-72500
X126800Y-70500
X126800Y-86100
X127000Y-75900
X127000Y-80750
X127000Y-81250
X127000Y-81750
X127000Y-82250
X127000Y-82750
X127000Y-83250
X127000Y-83750
X127000Y-107000
X127100Y-72400
X127250Y-93000
X127300Y-70300
X127500Y-80750
X127500Y-81250
X127500Y-81750
X127500Y-82250
X127500Y-82750
X127500Y-83250
X127500Y-83750
X127700Y-72300
X127750Y-107000
X127950Y-98400
X128000Y-80750
X128000Y-81250
X128000Y-81750
X128000Y-82250
X128000Y-82750
X128000Y-83250
X128000Y-83750
X128000Y-93000
X128250Y-91500
X128250Y-92250
X128350Y-98550
X128500Y-80750
X128500Y-81250
X128500Y-81750
X128500Y-82250
X128500Y-82750
X128500Y-83250
X128500Y-83750
X128500Y-107000
X128750Y-91000
X128750Y-98550
X129000Y-75800
X129000Y-80750
X129000Y-81250
X129000Y-81750
X129000Y-82250
X129000Y-82750
X129000Y-83250
X129000Y-83750
X129200Y-98550
X129250Y-107000
X129500Y-80750
X129500Y-82250
X129500Y-83750
X129500Y-91000
X129500Y-107750
X129500Y-108500
X129600Y-101500
X129650Y-98550
X129700Y-75800
X129850Y-95850
X129900Y-93750
X129900Y-94150
X129900Y-94550
X129900Y-94950
X129900Y-95350
X130000Y-109000
X130000Y-127750
X130050Y-93300
X130050Y-101500
X130100Y-91250
X130100Y-98550
X130150Y-96100
X130400Y-91600
X130400Y-92000
X130400Y-92400
X130400Y-92800
X130500Y-96300
X130500Y-101500
X130550Y-98400
X130750Y-109000
X130950Y-101500
X131100Y-104200
X131150Y-104650
X131150Y-105100
X131150Y-105550
X131150Y-106000
X131150Y-106450
X131300Y-108800
X131400Y-101500
X131400Y-103900
X131450Y-106750
X131600Y-86100
X131650Y-107150
X131650Y-107600
X131650Y-108050
X131650Y-108500
X131750Y-101700
X131800Y-103700
X132100Y-87500
X132500Y-127800
X133400Y-95700
X133500Y-87000
X133500Y-87500
X133800Y-94700
X134900Y-93100
X135000Y-127850
X135400Y-92600
X135400Y-107900
X135600Y-102900
X136000Y-108600
X136200Y-102900
X137500Y-127850
X139500Y-86200
X140000Y-78700
X140000Y-86200
X140000Y-127850
X140500Y-78700
T0
M30
