G04 #@! TF.FileFunction,Copper,L2,Bot,Signal*
%FSLAX46Y46*%
G04 Gerber Fmt 4.6, Leading zero omitted, Abs format (unit mm)*
G04 Created by KiCad (PCBNEW 4.0.2-stable) date Tue 04 Oct 2016 01:03:20 PM CEST*
%MOMM*%
G01*
G04 APERTURE LIST*
%ADD10C,0.100000*%
%ADD11R,1.727200X2.032000*%
%ADD12O,1.727200X2.032000*%
%ADD13R,2.032000X1.727200*%
%ADD14O,2.032000X1.727200*%
%ADD15C,1.727200*%
%ADD16R,1.250000X1.000000*%
%ADD17R,1.727200X1.727200*%
%ADD18O,1.727200X1.727200*%
%ADD19C,0.600000*%
%ADD20C,0.500000*%
%ADD21C,0.250000*%
%ADD22C,0.254000*%
G04 APERTURE END LIST*
D10*
D11*
X115420000Y-118250000D03*
D12*
X112880000Y-118250000D03*
X110340000Y-118250000D03*
X107800000Y-118250000D03*
X105260000Y-118250000D03*
X102720000Y-118250000D03*
X100180000Y-118250000D03*
X97640000Y-118250000D03*
X95100000Y-118250000D03*
D13*
X121100000Y-98340000D03*
D14*
X121100000Y-100880000D03*
X121100000Y-103420000D03*
X121100000Y-105960000D03*
X121100000Y-108500000D03*
X121100000Y-111040000D03*
X121100000Y-113580000D03*
X121100000Y-116120000D03*
X121100000Y-118660000D03*
D15*
X75870000Y-75870000D03*
X75870000Y-78410000D03*
X75870000Y-80950000D03*
X75870000Y-83490000D03*
X75870000Y-86030000D03*
X75870000Y-88570000D03*
X75870000Y-91110000D03*
X75870000Y-93650000D03*
X75870000Y-96190000D03*
X75870000Y-98730000D03*
X75870000Y-101270000D03*
X75870000Y-103810000D03*
X75870000Y-106350000D03*
X75870000Y-108890000D03*
X75870000Y-111430000D03*
X75870000Y-113970000D03*
X75870000Y-116510000D03*
X75870000Y-119050000D03*
X75870000Y-121590000D03*
X75870000Y-124130000D03*
X124130000Y-124130000D03*
X124130000Y-121590000D03*
X124130000Y-119050000D03*
X124130000Y-116510000D03*
X124130000Y-113970000D03*
X124130000Y-111430000D03*
X124130000Y-108890000D03*
X124130000Y-106350000D03*
X124130000Y-103810000D03*
X124130000Y-101270000D03*
X124130000Y-98730000D03*
X124130000Y-96190000D03*
X124130000Y-93650000D03*
X124130000Y-91110000D03*
X124130000Y-88570000D03*
X124130000Y-86030000D03*
X124130000Y-83490000D03*
X124130000Y-80950000D03*
X124130000Y-78410000D03*
X124130000Y-75870000D03*
D11*
X112990000Y-111500000D03*
D12*
X110450000Y-111500000D03*
X107910000Y-111500000D03*
X105370000Y-111500000D03*
X102830000Y-111500000D03*
X100290000Y-111500000D03*
X97750000Y-111500000D03*
X95210000Y-111500000D03*
X92670000Y-111500000D03*
X90130000Y-111500000D03*
X87590000Y-111500000D03*
X85050000Y-111500000D03*
D16*
X90250000Y-93000000D03*
X90250000Y-95000000D03*
X109750000Y-93000000D03*
X109750000Y-95000000D03*
X93750000Y-93500000D03*
X93750000Y-91500000D03*
X112250000Y-93500000D03*
X112250000Y-91500000D03*
X87500000Y-90000000D03*
X87500000Y-92000000D03*
X106500000Y-90000000D03*
X106500000Y-92000000D03*
D17*
X88570000Y-84320000D03*
D18*
X88570000Y-81780000D03*
X91110000Y-84320000D03*
X91110000Y-81780000D03*
X93650000Y-84320000D03*
X93650000Y-81780000D03*
X96190000Y-84320000D03*
X96190000Y-81780000D03*
X98730000Y-84320000D03*
X98730000Y-81780000D03*
X101270000Y-84320000D03*
X101270000Y-81780000D03*
X103810000Y-84320000D03*
X103810000Y-81780000D03*
X106350000Y-84320000D03*
X106350000Y-81780000D03*
X108890000Y-84320000D03*
X108890000Y-81780000D03*
X111430000Y-84320000D03*
X111430000Y-81780000D03*
X96190000Y-76700000D03*
X98730000Y-76700000D03*
X93650000Y-76700000D03*
X108890000Y-76700000D03*
X103810000Y-76700000D03*
X106350000Y-76700000D03*
X101270000Y-76700000D03*
X111430000Y-76700000D03*
X88570000Y-76700000D03*
X91110000Y-76700000D03*
D19*
X87250000Y-122750000D03*
X81885000Y-119750000D03*
X113250000Y-79000000D03*
X84250000Y-98999996D03*
X92779457Y-104279457D03*
X116750000Y-100750000D03*
X78750000Y-98750000D03*
X117250008Y-117000000D03*
X109000000Y-116750000D03*
X101500000Y-116750000D03*
X112099990Y-104150010D03*
X97250000Y-101750000D03*
X107750000Y-95750000D03*
X119750000Y-96750000D03*
X119750000Y-104750000D03*
X114250000Y-95750000D03*
X88500000Y-95750000D03*
X91500000Y-101750000D03*
X101500000Y-95750000D03*
X95000000Y-95750000D03*
X82250000Y-82250000D03*
X89250000Y-122750000D03*
X82000000Y-95750000D03*
X80000000Y-124000000D03*
X86250000Y-116750000D03*
X79250000Y-117500000D03*
X91250000Y-120750000D03*
X105750000Y-106750000D03*
X85250000Y-107250000D03*
X110750000Y-101250000D03*
X101250000Y-104500000D03*
X102500000Y-98750000D03*
X82000000Y-104500000D03*
X117500000Y-87500000D03*
X111000000Y-87500000D03*
X104500000Y-87500000D03*
X98250000Y-87500000D03*
X91750000Y-87500000D03*
X85250000Y-87500000D03*
X91250000Y-122750000D03*
X88250000Y-120750000D03*
X97362404Y-97249980D03*
X80750000Y-99750000D03*
X83000000Y-114500000D03*
X88719998Y-93000000D03*
X95218023Y-93049373D03*
X101500000Y-93000000D03*
X108000000Y-93000000D03*
X114500000Y-93000000D03*
X82250000Y-93000000D03*
X96249994Y-98000000D03*
X81750000Y-114500000D03*
X82250000Y-102000000D03*
X79750000Y-102000000D03*
X88750000Y-92000000D03*
X95250000Y-92000000D03*
X101500000Y-92000000D03*
X108000000Y-92000000D03*
X114500000Y-92000000D03*
X82250000Y-92000000D03*
X95250000Y-87750000D03*
X83750000Y-82250000D03*
X88000000Y-113750000D03*
X79250000Y-111500000D03*
X113243621Y-82500000D03*
X101500000Y-88000000D03*
X77434297Y-81684295D03*
X102500000Y-77750000D03*
X82750000Y-77750000D03*
X77999980Y-82250000D03*
X117750000Y-81500000D03*
X86250000Y-76750000D03*
X109976226Y-109365601D03*
X116250000Y-111000000D03*
X119500000Y-115500000D03*
X95500000Y-107500000D03*
X109750000Y-107750000D03*
X118750021Y-116000000D03*
X120250000Y-120000000D03*
X110118737Y-108578385D03*
X79000000Y-108250002D03*
X83500000Y-108500000D03*
X93000000Y-114750000D03*
X95500000Y-113000000D03*
X79000000Y-109300013D03*
X84125020Y-109500174D03*
X111500000Y-114250000D03*
X114353618Y-112250000D03*
X97000000Y-109000000D03*
X93750000Y-112750000D03*
X79250000Y-112500000D03*
X115499982Y-110250000D03*
X109124998Y-110132602D03*
X99000000Y-105000000D03*
X92750000Y-101250000D03*
X97006229Y-103766014D03*
X95250000Y-101875020D03*
X91499981Y-104249963D03*
X91550018Y-108500000D03*
X114499998Y-101750000D03*
X111750000Y-102500000D03*
X105750000Y-88500000D03*
X103250000Y-90250000D03*
X99500000Y-88500000D03*
X97000000Y-90250000D03*
X93000000Y-88500000D03*
X90500000Y-90250000D03*
X86500000Y-88500000D03*
X84000000Y-90250000D03*
X119000000Y-88500000D03*
X116250000Y-90250000D03*
X112500000Y-88500000D03*
X109750000Y-90250000D03*
X107250000Y-109999992D03*
D20*
X86950001Y-122450001D02*
X87250000Y-122750000D01*
X84250000Y-119750000D02*
X86950001Y-122450001D01*
X81885000Y-119750000D02*
X84250000Y-119750000D01*
X88250000Y-120750000D02*
X89250000Y-120750000D01*
X89250000Y-120750000D02*
X91250000Y-122750000D01*
X81500000Y-118750000D02*
X86250000Y-118750000D01*
X86250000Y-118750000D02*
X88250000Y-120750000D01*
X76983599Y-123266401D02*
X81500000Y-118750000D01*
X75870000Y-124130000D02*
X76733599Y-123266401D01*
X76733599Y-123266401D02*
X76983599Y-123266401D01*
X82250000Y-113750000D02*
X82250000Y-106500000D01*
X80750000Y-96750000D02*
X81000000Y-97000000D01*
X81000000Y-97000000D02*
X97000000Y-97000000D01*
X97000000Y-97000000D02*
X97250000Y-97250000D01*
X97250000Y-97250000D02*
X97362384Y-97250000D01*
X97362384Y-97250000D02*
X97362404Y-97249980D01*
X108000000Y-93000000D02*
X109000000Y-93000000D01*
X109000000Y-93000000D02*
X112250000Y-93000000D01*
X109750000Y-93000000D02*
X109000000Y-93000000D01*
X88719998Y-93000000D02*
X91750000Y-93000000D01*
X91750000Y-93000000D02*
X93750000Y-93000000D01*
X90250000Y-93000000D02*
X91375000Y-93000000D01*
X91375000Y-93000000D02*
X91750000Y-93000000D01*
X93750000Y-93000000D02*
X95168650Y-93000000D01*
X93750000Y-93500000D02*
X93750000Y-93000000D01*
X112250000Y-93000000D02*
X114500000Y-93000000D01*
X112250000Y-93500000D02*
X112250000Y-93000000D01*
X80750000Y-97500000D02*
X80750000Y-96750000D01*
X80750000Y-96750000D02*
X80750000Y-94500000D01*
X83000000Y-114500000D02*
X82250000Y-113750000D01*
X82250000Y-106500000D02*
X80750000Y-105000000D01*
X80750000Y-105000000D02*
X80750000Y-100174264D01*
X80750000Y-100174264D02*
X80750000Y-99750000D01*
X80750000Y-99750000D02*
X80750000Y-97500000D01*
X80750000Y-94500000D02*
X82250000Y-93000000D01*
X82250000Y-93000000D02*
X88719998Y-93000000D01*
X95168650Y-93000000D02*
X95218023Y-93049373D01*
X95267396Y-93000000D02*
X95218023Y-93049373D01*
X101500000Y-93000000D02*
X95267396Y-93000000D01*
X101500000Y-93000000D02*
X108000000Y-93000000D01*
X96249994Y-98000000D02*
X82500000Y-98000000D01*
X82500000Y-98000000D02*
X82250000Y-98250000D01*
X82250000Y-98250000D02*
X82250000Y-102000000D01*
X101500000Y-92000000D02*
X107250000Y-92000000D01*
X107250000Y-92000000D02*
X108000000Y-92000000D01*
X106500000Y-92000000D02*
X107250000Y-92000000D01*
X82250000Y-92000000D02*
X88250000Y-92000000D01*
X88250000Y-92000000D02*
X88750000Y-92000000D01*
X87500000Y-92000000D02*
X88250000Y-92000000D01*
X88750000Y-92000000D02*
X93750000Y-92000000D01*
X93750000Y-91500000D02*
X93750000Y-92000000D01*
X93750000Y-92000000D02*
X95250000Y-92000000D01*
X108000000Y-92000000D02*
X112250000Y-92000000D01*
X112250000Y-92000000D02*
X114500000Y-92000000D01*
X112250000Y-91500000D02*
X112250000Y-92000000D01*
X79750000Y-102000000D02*
X80049999Y-102299999D01*
X80049999Y-102299999D02*
X80049999Y-105549999D01*
X80049999Y-105549999D02*
X81450001Y-106950001D01*
X81450001Y-106950001D02*
X81450001Y-114200001D01*
X81450001Y-114200001D02*
X81750000Y-114500000D01*
X79750000Y-94075736D02*
X79750000Y-102000000D01*
X82250000Y-92000000D02*
X81825736Y-92000000D01*
X81825736Y-92000000D02*
X79750000Y-94075736D01*
X101500000Y-92000000D02*
X95250000Y-92000000D01*
D21*
X87750000Y-86250000D02*
X93750000Y-86250000D01*
X93750000Y-86250000D02*
X95250000Y-87750000D01*
X83750000Y-82250000D02*
X87750000Y-86250000D01*
D20*
X85050000Y-111500000D02*
X85050000Y-111652400D01*
X87575736Y-113750000D02*
X88000000Y-113750000D01*
X87147600Y-113750000D02*
X87575736Y-113750000D01*
X85050000Y-111652400D02*
X87147600Y-113750000D01*
X75870000Y-108890000D02*
X76640000Y-108890000D01*
X76640000Y-108890000D02*
X79250000Y-111500000D01*
D21*
X103250000Y-86250000D02*
X112136411Y-86250000D01*
X101500000Y-88000000D02*
X103250000Y-86250000D01*
X113243621Y-82924264D02*
X113243621Y-82500000D01*
X112136411Y-86250000D02*
X113243621Y-85142790D01*
X113243621Y-85142790D02*
X113243621Y-82924264D01*
D20*
X111430000Y-84320000D02*
X111430000Y-81780000D01*
X111430000Y-76700000D02*
X111430000Y-81780000D01*
X106350000Y-81780000D02*
X106350000Y-84320000D01*
X106350000Y-76700000D02*
X106350000Y-81780000D01*
D21*
X77434297Y-81684295D02*
X77434297Y-81684297D01*
X77434297Y-81684297D02*
X77500000Y-81750000D01*
X77500000Y-81750000D02*
X84188612Y-75061388D01*
X84188612Y-75061388D02*
X102171388Y-75061388D01*
X102171388Y-75061388D02*
X102946401Y-75836401D01*
X102946401Y-75836401D02*
X103810000Y-76700000D01*
X103810000Y-81780000D02*
X103810000Y-76700000D01*
X102500000Y-77750000D02*
X102500000Y-83010000D01*
X102500000Y-83010000D02*
X103810000Y-84320000D01*
X82750000Y-77750000D02*
X82499980Y-77750000D01*
X82499980Y-77750000D02*
X78299979Y-81950001D01*
X78299979Y-81950001D02*
X77999980Y-82250000D01*
X101270000Y-76700000D02*
X101270000Y-81780000D01*
X112618601Y-81881399D02*
X113000000Y-81500000D01*
X113000000Y-81500000D02*
X117750000Y-81500000D01*
X112618601Y-84890529D02*
X112618601Y-81881399D01*
X101270000Y-84320000D02*
X102458601Y-85508601D01*
X102458601Y-85508601D02*
X112000529Y-85508601D01*
X112000529Y-85508601D02*
X112618601Y-84890529D01*
X98730000Y-76700000D02*
X98730000Y-81780000D01*
X96190000Y-76700000D02*
X96190000Y-81780000D01*
X93650000Y-81780000D02*
X93650000Y-84320000D01*
X93650000Y-76700000D02*
X93650000Y-81780000D01*
X75870000Y-88570000D02*
X77500000Y-86940000D01*
X77500000Y-86940000D02*
X77500000Y-84250000D01*
X77500000Y-84250000D02*
X86238601Y-75511399D01*
X86238601Y-75511399D02*
X92461399Y-75511399D01*
X92461399Y-75511399D02*
X92786401Y-75836401D01*
X92786401Y-75836401D02*
X93650000Y-76700000D01*
X86250000Y-76750000D02*
X78250000Y-84750000D01*
X78250000Y-84750000D02*
X78250000Y-88730000D01*
X78250000Y-88730000D02*
X75870000Y-91110000D01*
X91110000Y-84320000D02*
X91110000Y-83098686D01*
X91110000Y-83098686D02*
X91110000Y-81780000D01*
X91110000Y-81780000D02*
X91110000Y-76700000D01*
X109436361Y-109250000D02*
X109551962Y-109365601D01*
X97750000Y-111500000D02*
X97750000Y-111347600D01*
X97750000Y-111347600D02*
X99847600Y-109250000D01*
X110400490Y-109365601D02*
X109976226Y-109365601D01*
X109551962Y-109365601D02*
X109976226Y-109365601D01*
X116250000Y-109750000D02*
X115865601Y-109365601D01*
X116250000Y-111000000D02*
X116250000Y-109750000D01*
X99847600Y-109250000D02*
X109436361Y-109250000D01*
X115865601Y-109365601D02*
X110400490Y-109365601D01*
X119500000Y-115075736D02*
X119500000Y-115500000D01*
X119500000Y-111363590D02*
X119500000Y-115075736D01*
X115886410Y-107750000D02*
X119500000Y-111363590D01*
X109750000Y-107750000D02*
X115886410Y-107750000D01*
X92670000Y-111500000D02*
X92670000Y-111347600D01*
X92670000Y-111347600D02*
X95500000Y-108517600D01*
X95500000Y-108517600D02*
X95500000Y-107924264D01*
X95500000Y-107924264D02*
X95500000Y-107500000D01*
X98250000Y-108250000D02*
X96250000Y-108250000D01*
X96250000Y-108250000D02*
X95500000Y-107500000D01*
X108825736Y-108250000D02*
X98250000Y-108250000D01*
X109750000Y-107750000D02*
X109325736Y-107750000D01*
X109325736Y-107750000D02*
X108825736Y-108250000D01*
X118750021Y-115575736D02*
X118750021Y-116000000D01*
X118750021Y-111500021D02*
X118750021Y-115575736D01*
X115828385Y-108578385D02*
X118750021Y-111500021D01*
X110118737Y-108578385D02*
X115828385Y-108578385D01*
X120250000Y-120000000D02*
X123180000Y-120000000D01*
X123180000Y-120000000D02*
X124130000Y-119050000D01*
X97800002Y-109625002D02*
X98675004Y-108750000D01*
X109690300Y-108578385D02*
X109694473Y-108578385D01*
X109694473Y-108578385D02*
X110118737Y-108578385D01*
X109518685Y-108750000D02*
X109690300Y-108578385D01*
X96932598Y-109625002D02*
X97800002Y-109625002D01*
X95210000Y-111347600D02*
X96932598Y-109625002D01*
X98675004Y-108750000D02*
X109518685Y-108750000D01*
X95210000Y-111500000D02*
X95210000Y-111347600D01*
X75870000Y-103810000D02*
X75870000Y-104370000D01*
X75870000Y-104370000D02*
X77250000Y-105750000D01*
X77250000Y-105750000D02*
X77250000Y-106750000D01*
X77250000Y-106750000D02*
X78750002Y-108250002D01*
X78750002Y-108250002D02*
X79000000Y-108250002D01*
X83841010Y-110158990D02*
X83500000Y-109817980D01*
X83500000Y-109817980D02*
X83500000Y-108500000D01*
X86401390Y-110598610D02*
X85961770Y-110158990D01*
X85961770Y-110158990D02*
X83841010Y-110158990D01*
X90500000Y-114750000D02*
X88591010Y-112841010D01*
X88591010Y-112841010D02*
X87097662Y-112841010D01*
X87097662Y-112841010D02*
X86401390Y-112144738D01*
X86401390Y-112144738D02*
X86401390Y-110598610D01*
X92575736Y-114750000D02*
X90500000Y-114750000D01*
X93000000Y-114750000D02*
X92575736Y-114750000D01*
X100290000Y-111500000D02*
X99583348Y-111500000D01*
X99583348Y-111500000D02*
X98242338Y-112841010D01*
X98242338Y-112841010D02*
X95658990Y-112841010D01*
X95658990Y-112841010D02*
X95500000Y-113000000D01*
X75870000Y-106350000D02*
X78820013Y-109300013D01*
X78820013Y-109300013D02*
X79000000Y-109300013D01*
X84549284Y-109500174D02*
X84125020Y-109500174D01*
X88941390Y-112144738D02*
X88941390Y-111018042D01*
X88941390Y-111018042D02*
X87423522Y-109500174D01*
X90921651Y-114124999D02*
X88941390Y-112144738D01*
X93300001Y-114124999D02*
X90921651Y-114124999D01*
X93725001Y-114549999D02*
X93300001Y-114124999D01*
X111500000Y-114250000D02*
X111200001Y-114549999D01*
X111200001Y-114549999D02*
X93725001Y-114549999D01*
X87423522Y-109500174D02*
X84549284Y-109500174D01*
X98094757Y-113625002D02*
X98669760Y-113049999D01*
X95199998Y-113625002D02*
X98094757Y-113625002D01*
X114353618Y-112674264D02*
X114353618Y-112250000D01*
X114353618Y-112820650D02*
X114353618Y-112674264D01*
X93750000Y-112750000D02*
X94324996Y-112750000D01*
X94324996Y-112750000D02*
X95199998Y-113625002D01*
X114124269Y-113049999D02*
X114353618Y-112820650D01*
X98669760Y-113049999D02*
X114124269Y-113049999D01*
X94717662Y-110158990D02*
X95416746Y-110158990D01*
X94021390Y-110855262D02*
X94717662Y-110158990D01*
X94021390Y-112054346D02*
X94021390Y-110855262D01*
X93750000Y-112325736D02*
X94021390Y-112054346D01*
X93750000Y-112750000D02*
X93750000Y-112325736D01*
X95416746Y-110158990D02*
X96575736Y-109000000D01*
X96575736Y-109000000D02*
X97000000Y-109000000D01*
X75870000Y-111430000D02*
X78180000Y-111430000D01*
X78180000Y-111430000D02*
X79250000Y-112500000D01*
X109124998Y-110132602D02*
X115382584Y-110132602D01*
X115382584Y-110132602D02*
X115499982Y-110250000D01*
X116500010Y-113500010D02*
X98856160Y-113500010D01*
X124130000Y-75870000D02*
X122941399Y-77058601D01*
X90130000Y-111652400D02*
X90130000Y-111500000D01*
X95013598Y-114075013D02*
X94438585Y-113500000D01*
X118125001Y-115125001D02*
X116500010Y-113500010D01*
X118125001Y-116300001D02*
X118125001Y-115125001D01*
X119133610Y-117308610D02*
X118125001Y-116300001D01*
X122441390Y-117308610D02*
X119133610Y-117308610D01*
X122941399Y-116808601D02*
X122441390Y-117308610D01*
X122941399Y-77058601D02*
X122941399Y-116808601D01*
X98281157Y-114075013D02*
X95013598Y-114075013D01*
X91977600Y-113500000D02*
X90130000Y-111652400D01*
X98856160Y-113500010D02*
X98281157Y-114075013D01*
X94438585Y-113500000D02*
X91977600Y-113500000D01*
X99000000Y-105000000D02*
X98750000Y-104750000D01*
X98750000Y-104750000D02*
X97000000Y-104750000D01*
X97000000Y-104750000D02*
X93500000Y-101250000D01*
X93500000Y-101250000D02*
X92750000Y-101250000D01*
X95250000Y-101875020D02*
X97006229Y-103631249D01*
X97006229Y-103631249D02*
X97006229Y-103766014D01*
X91550018Y-104300000D02*
X91499981Y-104249963D01*
X91550018Y-108500000D02*
X91550018Y-104300000D01*
X121100000Y-108500000D02*
X120947600Y-108500000D01*
X120947600Y-108500000D02*
X114500000Y-102052400D01*
X114500000Y-102052400D02*
X114500000Y-101750000D01*
X114500000Y-101750000D02*
X114499998Y-101750000D01*
X122101390Y-109851390D02*
X122441010Y-110191010D01*
X122441010Y-110191010D02*
X122441010Y-114931390D01*
X122441010Y-114931390D02*
X121252400Y-116120000D01*
X121252400Y-116120000D02*
X121100000Y-116120000D01*
X119250000Y-107500000D02*
X119250000Y-108483348D01*
X119250000Y-108483348D02*
X120618042Y-109851390D01*
X120618042Y-109851390D02*
X122101390Y-109851390D01*
X114250000Y-102500000D02*
X119250000Y-107500000D01*
X111750000Y-102500000D02*
X114250000Y-102500000D01*
X103250000Y-90250000D02*
X105000000Y-88500000D01*
X105000000Y-88500000D02*
X105750000Y-88500000D01*
X97000000Y-90250000D02*
X98750000Y-88500000D01*
X98750000Y-88500000D02*
X99500000Y-88500000D01*
X90500000Y-90250000D02*
X92250000Y-88500000D01*
X92250000Y-88500000D02*
X93000000Y-88500000D01*
X84000000Y-90250000D02*
X85750000Y-88500000D01*
X85750000Y-88500000D02*
X86500000Y-88500000D01*
X116250000Y-90250000D02*
X118000000Y-88500000D01*
X118000000Y-88500000D02*
X119000000Y-88500000D01*
X109750000Y-90250000D02*
X111500000Y-88500000D01*
X111500000Y-88500000D02*
X112500000Y-88500000D01*
X106717608Y-109999992D02*
X107250000Y-109999992D01*
X105370000Y-111347600D02*
X106717608Y-109999992D01*
X105370000Y-111500000D02*
X105370000Y-111347600D01*
D22*
G36*
X122631661Y-75570602D02*
X122631141Y-76166782D01*
X122668354Y-76256844D01*
X122403998Y-76521200D01*
X122239251Y-76767762D01*
X122181399Y-77058601D01*
X122181399Y-96842204D01*
X122116000Y-96828960D01*
X120084000Y-96828960D01*
X119848683Y-96873238D01*
X119632559Y-97012310D01*
X119487569Y-97224510D01*
X119436560Y-97476400D01*
X119436560Y-99203600D01*
X119480838Y-99438917D01*
X119619910Y-99655041D01*
X119832110Y-99800031D01*
X119873439Y-99808400D01*
X119855585Y-99820330D01*
X119530729Y-100306511D01*
X119416655Y-100880000D01*
X119530729Y-101453489D01*
X119855585Y-101939670D01*
X120170366Y-102150000D01*
X119855585Y-102360330D01*
X119530729Y-102846511D01*
X119416655Y-103420000D01*
X119530729Y-103993489D01*
X119855585Y-104479670D01*
X120170366Y-104690000D01*
X119855585Y-104900330D01*
X119530729Y-105386511D01*
X119427563Y-105905161D01*
X115434857Y-101912455D01*
X115435160Y-101564833D01*
X115293115Y-101221057D01*
X115030325Y-100957808D01*
X114686797Y-100815162D01*
X114314831Y-100814838D01*
X113971055Y-100956883D01*
X113707806Y-101219673D01*
X113565160Y-101563201D01*
X113565006Y-101740000D01*
X112312463Y-101740000D01*
X112280327Y-101707808D01*
X111936799Y-101565162D01*
X111564833Y-101564838D01*
X111221057Y-101706883D01*
X110957808Y-101969673D01*
X110815162Y-102313201D01*
X110814838Y-102685167D01*
X110956883Y-103028943D01*
X111219673Y-103292192D01*
X111563201Y-103434838D01*
X111935167Y-103435162D01*
X112278943Y-103293117D01*
X112312118Y-103260000D01*
X113935198Y-103260000D01*
X118490000Y-107814802D01*
X118490000Y-108483348D01*
X118547852Y-108774187D01*
X118712599Y-109020749D01*
X119782123Y-110090273D01*
X119589607Y-110378395D01*
X116423811Y-107212599D01*
X116177249Y-107047852D01*
X115886410Y-106990000D01*
X110312463Y-106990000D01*
X110280327Y-106957808D01*
X109936799Y-106815162D01*
X109564833Y-106814838D01*
X109221057Y-106956883D01*
X109153578Y-107024245D01*
X109034897Y-107047852D01*
X108788335Y-107212599D01*
X108510934Y-107490000D01*
X96564802Y-107490000D01*
X96435122Y-107360320D01*
X96435162Y-107314833D01*
X96293117Y-106971057D01*
X96030327Y-106707808D01*
X95686799Y-106565162D01*
X95314833Y-106564838D01*
X94971057Y-106706883D01*
X94707808Y-106969673D01*
X94565162Y-107313201D01*
X94564838Y-107685167D01*
X94706883Y-108028943D01*
X94740000Y-108062118D01*
X94740000Y-108202798D01*
X93050464Y-109892334D01*
X92670000Y-109816655D01*
X92096511Y-109930729D01*
X91610330Y-110255585D01*
X91400000Y-110570366D01*
X91189670Y-110255585D01*
X90703489Y-109930729D01*
X90130000Y-109816655D01*
X89556511Y-109930729D01*
X89180273Y-110182123D01*
X87960923Y-108962773D01*
X87714361Y-108798026D01*
X87423522Y-108740174D01*
X84687483Y-108740174D01*
X84655347Y-108707982D01*
X84434899Y-108616444D01*
X84435162Y-108314833D01*
X84293117Y-107971057D01*
X84030327Y-107707808D01*
X83686799Y-107565162D01*
X83314833Y-107564838D01*
X83135000Y-107639143D01*
X83135000Y-106500000D01*
X83067633Y-106161325D01*
X82875790Y-105874210D01*
X82875787Y-105874208D01*
X81635000Y-104633420D01*
X81635000Y-104435130D01*
X90564819Y-104435130D01*
X90706864Y-104778906D01*
X90790018Y-104862205D01*
X90790018Y-107937537D01*
X90757826Y-107969673D01*
X90615180Y-108313201D01*
X90614856Y-108685167D01*
X90756901Y-109028943D01*
X91019691Y-109292192D01*
X91363219Y-109434838D01*
X91735185Y-109435162D01*
X92078961Y-109293117D01*
X92342210Y-109030327D01*
X92484856Y-108686799D01*
X92485180Y-108314833D01*
X92343135Y-107971057D01*
X92310018Y-107937882D01*
X92310018Y-104737315D01*
X92434819Y-104436762D01*
X92435143Y-104064796D01*
X92293098Y-103721020D01*
X92030308Y-103457771D01*
X91686780Y-103315125D01*
X91314814Y-103314801D01*
X90971038Y-103456846D01*
X90707789Y-103719636D01*
X90565143Y-104063164D01*
X90564819Y-104435130D01*
X81635000Y-104435130D01*
X81635000Y-102707371D01*
X81719673Y-102792192D01*
X82063201Y-102934838D01*
X82435167Y-102935162D01*
X82778943Y-102793117D01*
X83042192Y-102530327D01*
X83184838Y-102186799D01*
X83185162Y-101814833D01*
X83135000Y-101693431D01*
X83135000Y-101435167D01*
X91814838Y-101435167D01*
X91956883Y-101778943D01*
X92219673Y-102042192D01*
X92563201Y-102184838D01*
X92935167Y-102185162D01*
X93236041Y-102060843D01*
X96462599Y-105287401D01*
X96709160Y-105452148D01*
X96744417Y-105459161D01*
X97000000Y-105510000D01*
X98199056Y-105510000D01*
X98206883Y-105528943D01*
X98469673Y-105792192D01*
X98813201Y-105934838D01*
X99185167Y-105935162D01*
X99528943Y-105793117D01*
X99792192Y-105530327D01*
X99934838Y-105186799D01*
X99935162Y-104814833D01*
X99793117Y-104471057D01*
X99530327Y-104207808D01*
X99186799Y-104065162D01*
X99066589Y-104065057D01*
X99040839Y-104047852D01*
X98750000Y-103990000D01*
X97925626Y-103990000D01*
X97941067Y-103952813D01*
X97941391Y-103580847D01*
X97799346Y-103237071D01*
X97536556Y-102973822D01*
X97343397Y-102893615D01*
X96185122Y-101735340D01*
X96185162Y-101689853D01*
X96043117Y-101346077D01*
X95780327Y-101082828D01*
X95436799Y-100940182D01*
X95064833Y-100939858D01*
X94721057Y-101081903D01*
X94563744Y-101238942D01*
X94037401Y-100712599D01*
X93790839Y-100547852D01*
X93500000Y-100490000D01*
X93312463Y-100490000D01*
X93280327Y-100457808D01*
X92936799Y-100315162D01*
X92564833Y-100314838D01*
X92221057Y-100456883D01*
X91957808Y-100719673D01*
X91815162Y-101063201D01*
X91814838Y-101435167D01*
X83135000Y-101435167D01*
X83135000Y-98885000D01*
X95943172Y-98885000D01*
X96063195Y-98934838D01*
X96435161Y-98935162D01*
X96778937Y-98793117D01*
X97042186Y-98530327D01*
X97184832Y-98186799D01*
X97184834Y-98184826D01*
X97547571Y-98185142D01*
X97891347Y-98043097D01*
X98154596Y-97780307D01*
X98297242Y-97436779D01*
X98297566Y-97064813D01*
X98155521Y-96721037D01*
X97892731Y-96457788D01*
X97549203Y-96315142D01*
X97537372Y-96315132D01*
X97536903Y-96314818D01*
X97338675Y-96182367D01*
X97282484Y-96171190D01*
X97000000Y-96114999D01*
X96999995Y-96115000D01*
X91049594Y-96115000D01*
X91234699Y-96038327D01*
X91413327Y-95859698D01*
X91510000Y-95626309D01*
X91510000Y-95285750D01*
X108490000Y-95285750D01*
X108490000Y-95626309D01*
X108586673Y-95859698D01*
X108765301Y-96038327D01*
X108998690Y-96135000D01*
X109464250Y-96135000D01*
X109623000Y-95976250D01*
X109623000Y-95127000D01*
X109877000Y-95127000D01*
X109877000Y-95976250D01*
X110035750Y-96135000D01*
X110501310Y-96135000D01*
X110734699Y-96038327D01*
X110913327Y-95859698D01*
X111010000Y-95626309D01*
X111010000Y-95285750D01*
X110851250Y-95127000D01*
X109877000Y-95127000D01*
X109623000Y-95127000D01*
X108648750Y-95127000D01*
X108490000Y-95285750D01*
X91510000Y-95285750D01*
X91351250Y-95127000D01*
X90377000Y-95127000D01*
X90377000Y-95147000D01*
X90123000Y-95147000D01*
X90123000Y-95127000D01*
X89148750Y-95127000D01*
X88990000Y-95285750D01*
X88990000Y-95626309D01*
X89086673Y-95859698D01*
X89265301Y-96038327D01*
X89450406Y-96115000D01*
X81635000Y-96115000D01*
X81635000Y-94866580D01*
X82616579Y-93885000D01*
X88413176Y-93885000D01*
X88533199Y-93934838D01*
X88905165Y-93935162D01*
X89026567Y-93885000D01*
X89118156Y-93885000D01*
X89160910Y-93951441D01*
X89229006Y-93997969D01*
X89086673Y-94140302D01*
X88990000Y-94373691D01*
X88990000Y-94714250D01*
X89148750Y-94873000D01*
X90123000Y-94873000D01*
X90123000Y-94853000D01*
X90377000Y-94853000D01*
X90377000Y-94873000D01*
X91351250Y-94873000D01*
X91510000Y-94714250D01*
X91510000Y-94373691D01*
X91413327Y-94140302D01*
X91272090Y-93999064D01*
X91326441Y-93964090D01*
X91380481Y-93885000D01*
X92477560Y-93885000D01*
X92477560Y-94000000D01*
X92521838Y-94235317D01*
X92660910Y-94451441D01*
X92873110Y-94596431D01*
X93125000Y-94647440D01*
X94375000Y-94647440D01*
X94610317Y-94603162D01*
X94826441Y-94464090D01*
X94971431Y-94251890D01*
X95022440Y-94000000D01*
X95022440Y-93980564D01*
X95031224Y-93984211D01*
X95403190Y-93984535D01*
X95644084Y-93885000D01*
X101193178Y-93885000D01*
X101313201Y-93934838D01*
X101685167Y-93935162D01*
X101806569Y-93885000D01*
X107693178Y-93885000D01*
X107813201Y-93934838D01*
X108185167Y-93935162D01*
X108306569Y-93885000D01*
X108618156Y-93885000D01*
X108660910Y-93951441D01*
X108729006Y-93997969D01*
X108586673Y-94140302D01*
X108490000Y-94373691D01*
X108490000Y-94714250D01*
X108648750Y-94873000D01*
X109623000Y-94873000D01*
X109623000Y-94853000D01*
X109877000Y-94853000D01*
X109877000Y-94873000D01*
X110851250Y-94873000D01*
X111010000Y-94714250D01*
X111010000Y-94373691D01*
X110913327Y-94140302D01*
X110772090Y-93999064D01*
X110826441Y-93964090D01*
X110880481Y-93885000D01*
X110977560Y-93885000D01*
X110977560Y-94000000D01*
X111021838Y-94235317D01*
X111160910Y-94451441D01*
X111373110Y-94596431D01*
X111625000Y-94647440D01*
X112875000Y-94647440D01*
X113110317Y-94603162D01*
X113326441Y-94464090D01*
X113471431Y-94251890D01*
X113522440Y-94000000D01*
X113522440Y-93885000D01*
X114193178Y-93885000D01*
X114313201Y-93934838D01*
X114685167Y-93935162D01*
X115028943Y-93793117D01*
X115292192Y-93530327D01*
X115434838Y-93186799D01*
X115435162Y-92814833D01*
X115304931Y-92499649D01*
X115434838Y-92186799D01*
X115435162Y-91814833D01*
X115293117Y-91471057D01*
X115030327Y-91207808D01*
X114686799Y-91065162D01*
X114314833Y-91064838D01*
X114193431Y-91115000D01*
X113522440Y-91115000D01*
X113522440Y-91000000D01*
X113478162Y-90764683D01*
X113339090Y-90548559D01*
X113173136Y-90435167D01*
X115314838Y-90435167D01*
X115456883Y-90778943D01*
X115719673Y-91042192D01*
X116063201Y-91184838D01*
X116435167Y-91185162D01*
X116778943Y-91043117D01*
X117042192Y-90780327D01*
X117184838Y-90436799D01*
X117184879Y-90389923D01*
X118314802Y-89260000D01*
X118437537Y-89260000D01*
X118469673Y-89292192D01*
X118813201Y-89434838D01*
X119185167Y-89435162D01*
X119528943Y-89293117D01*
X119792192Y-89030327D01*
X119934838Y-88686799D01*
X119935162Y-88314833D01*
X119793117Y-87971057D01*
X119530327Y-87707808D01*
X119186799Y-87565162D01*
X118814833Y-87564838D01*
X118471057Y-87706883D01*
X118437882Y-87740000D01*
X118000000Y-87740000D01*
X117709161Y-87797852D01*
X117462599Y-87962599D01*
X116110320Y-89314878D01*
X116064833Y-89314838D01*
X115721057Y-89456883D01*
X115457808Y-89719673D01*
X115315162Y-90063201D01*
X115314838Y-90435167D01*
X113173136Y-90435167D01*
X113126890Y-90403569D01*
X112875000Y-90352560D01*
X111625000Y-90352560D01*
X111389683Y-90396838D01*
X111173559Y-90535910D01*
X111028569Y-90748110D01*
X110977560Y-91000000D01*
X110977560Y-91115000D01*
X110104972Y-91115000D01*
X110278943Y-91043117D01*
X110542192Y-90780327D01*
X110684838Y-90436799D01*
X110684879Y-90389923D01*
X111814802Y-89260000D01*
X111937537Y-89260000D01*
X111969673Y-89292192D01*
X112313201Y-89434838D01*
X112685167Y-89435162D01*
X113028943Y-89293117D01*
X113292192Y-89030327D01*
X113434838Y-88686799D01*
X113435162Y-88314833D01*
X113293117Y-87971057D01*
X113030327Y-87707808D01*
X112686799Y-87565162D01*
X112314833Y-87564838D01*
X111971057Y-87706883D01*
X111937882Y-87740000D01*
X111500000Y-87740000D01*
X111209161Y-87797852D01*
X110962599Y-87962599D01*
X109610320Y-89314878D01*
X109564833Y-89314838D01*
X109221057Y-89456883D01*
X108957808Y-89719673D01*
X108815162Y-90063201D01*
X108814838Y-90435167D01*
X108956883Y-90778943D01*
X109219673Y-91042192D01*
X109395013Y-91115000D01*
X108306822Y-91115000D01*
X108186799Y-91065162D01*
X107814833Y-91064838D01*
X107693431Y-91115000D01*
X107631844Y-91115000D01*
X107589090Y-91048559D01*
X107520994Y-91002031D01*
X107663327Y-90859698D01*
X107760000Y-90626309D01*
X107760000Y-90285750D01*
X107601250Y-90127000D01*
X106627000Y-90127000D01*
X106627000Y-90147000D01*
X106373000Y-90147000D01*
X106373000Y-90127000D01*
X105398750Y-90127000D01*
X105240000Y-90285750D01*
X105240000Y-90626309D01*
X105336673Y-90859698D01*
X105477910Y-91000936D01*
X105423559Y-91035910D01*
X105369519Y-91115000D01*
X103604972Y-91115000D01*
X103778943Y-91043117D01*
X104042192Y-90780327D01*
X104184838Y-90436799D01*
X104184879Y-90389923D01*
X105264144Y-89310658D01*
X105265821Y-89311354D01*
X105240000Y-89373691D01*
X105240000Y-89714250D01*
X105398750Y-89873000D01*
X106373000Y-89873000D01*
X106373000Y-89853000D01*
X106627000Y-89853000D01*
X106627000Y-89873000D01*
X107601250Y-89873000D01*
X107760000Y-89714250D01*
X107760000Y-89373691D01*
X107663327Y-89140302D01*
X107484699Y-88961673D01*
X107251310Y-88865000D01*
X106785750Y-88865000D01*
X106627002Y-89023748D01*
X106627002Y-88865000D01*
X106610842Y-88865000D01*
X106684838Y-88686799D01*
X106685162Y-88314833D01*
X106543117Y-87971057D01*
X106280327Y-87707808D01*
X105936799Y-87565162D01*
X105564833Y-87564838D01*
X105221057Y-87706883D01*
X105187882Y-87740000D01*
X105000000Y-87740000D01*
X104709161Y-87797852D01*
X104462599Y-87962599D01*
X103110320Y-89314878D01*
X103064833Y-89314838D01*
X102721057Y-89456883D01*
X102457808Y-89719673D01*
X102315162Y-90063201D01*
X102314838Y-90435167D01*
X102456883Y-90778943D01*
X102719673Y-91042192D01*
X102895013Y-91115000D01*
X101806822Y-91115000D01*
X101686799Y-91065162D01*
X101314833Y-91064838D01*
X101193431Y-91115000D01*
X97354972Y-91115000D01*
X97528943Y-91043117D01*
X97792192Y-90780327D01*
X97934838Y-90436799D01*
X97934879Y-90389923D01*
X99014144Y-89310658D01*
X99313201Y-89434838D01*
X99685167Y-89435162D01*
X100028943Y-89293117D01*
X100292192Y-89030327D01*
X100434838Y-88686799D01*
X100435162Y-88314833D01*
X100293117Y-87971057D01*
X100030327Y-87707808D01*
X99686799Y-87565162D01*
X99314833Y-87564838D01*
X98971057Y-87706883D01*
X98937882Y-87740000D01*
X98750000Y-87740000D01*
X98459161Y-87797852D01*
X98212599Y-87962599D01*
X96860320Y-89314878D01*
X96814833Y-89314838D01*
X96471057Y-89456883D01*
X96207808Y-89719673D01*
X96065162Y-90063201D01*
X96064838Y-90435167D01*
X96206883Y-90778943D01*
X96469673Y-91042192D01*
X96645013Y-91115000D01*
X95556822Y-91115000D01*
X95436799Y-91065162D01*
X95064833Y-91064838D01*
X95022440Y-91082354D01*
X95022440Y-91000000D01*
X94978162Y-90764683D01*
X94839090Y-90548559D01*
X94626890Y-90403569D01*
X94375000Y-90352560D01*
X93125000Y-90352560D01*
X92889683Y-90396838D01*
X92673559Y-90535910D01*
X92528569Y-90748110D01*
X92477560Y-91000000D01*
X92477560Y-91115000D01*
X90854972Y-91115000D01*
X91028943Y-91043117D01*
X91292192Y-90780327D01*
X91434838Y-90436799D01*
X91434879Y-90389923D01*
X92514144Y-89310658D01*
X92813201Y-89434838D01*
X93185167Y-89435162D01*
X93528943Y-89293117D01*
X93792192Y-89030327D01*
X93934838Y-88686799D01*
X93935162Y-88314833D01*
X93793117Y-87971057D01*
X93530327Y-87707808D01*
X93186799Y-87565162D01*
X92814833Y-87564838D01*
X92471057Y-87706883D01*
X92437882Y-87740000D01*
X92250000Y-87740000D01*
X91959161Y-87797852D01*
X91712599Y-87962599D01*
X90360320Y-89314878D01*
X90314833Y-89314838D01*
X89971057Y-89456883D01*
X89707808Y-89719673D01*
X89565162Y-90063201D01*
X89564838Y-90435167D01*
X89706883Y-90778943D01*
X89969673Y-91042192D01*
X90145013Y-91115000D01*
X89056822Y-91115000D01*
X88936799Y-91065162D01*
X88599585Y-91064868D01*
X88589090Y-91048559D01*
X88520994Y-91002031D01*
X88663327Y-90859698D01*
X88760000Y-90626309D01*
X88760000Y-90285750D01*
X88601250Y-90127000D01*
X87627000Y-90127000D01*
X87627000Y-90147000D01*
X87373000Y-90147000D01*
X87373000Y-90127000D01*
X86398750Y-90127000D01*
X86240000Y-90285750D01*
X86240000Y-90626309D01*
X86336673Y-90859698D01*
X86477910Y-91000936D01*
X86423559Y-91035910D01*
X86369519Y-91115000D01*
X84354972Y-91115000D01*
X84528943Y-91043117D01*
X84792192Y-90780327D01*
X84934838Y-90436799D01*
X84934879Y-90389923D01*
X86014144Y-89310658D01*
X86240000Y-89404442D01*
X86240000Y-89714250D01*
X86398750Y-89873000D01*
X87373000Y-89873000D01*
X87373000Y-89023750D01*
X87627000Y-89023750D01*
X87627000Y-89873000D01*
X88601250Y-89873000D01*
X88760000Y-89714250D01*
X88760000Y-89373691D01*
X88663327Y-89140302D01*
X88484699Y-88961673D01*
X88251310Y-88865000D01*
X87785750Y-88865000D01*
X87627000Y-89023750D01*
X87373000Y-89023750D01*
X87317831Y-88968581D01*
X87434838Y-88686799D01*
X87435162Y-88314833D01*
X87293117Y-87971057D01*
X87030327Y-87707808D01*
X86686799Y-87565162D01*
X86314833Y-87564838D01*
X85971057Y-87706883D01*
X85937882Y-87740000D01*
X85750000Y-87740000D01*
X85459161Y-87797852D01*
X85212599Y-87962599D01*
X83860320Y-89314878D01*
X83814833Y-89314838D01*
X83471057Y-89456883D01*
X83207808Y-89719673D01*
X83065162Y-90063201D01*
X83064838Y-90435167D01*
X83206883Y-90778943D01*
X83469673Y-91042192D01*
X83645013Y-91115000D01*
X82556822Y-91115000D01*
X82436799Y-91065162D01*
X82064833Y-91064838D01*
X81943431Y-91115000D01*
X81825741Y-91115000D01*
X81825736Y-91114999D01*
X81543252Y-91171190D01*
X81487061Y-91182367D01*
X81199946Y-91374210D01*
X81199944Y-91374213D01*
X79124210Y-93449946D01*
X78932367Y-93737061D01*
X78932367Y-93737062D01*
X78864999Y-94075736D01*
X78865000Y-94075741D01*
X78865000Y-101693178D01*
X78815162Y-101813201D01*
X78814838Y-102185167D01*
X78956883Y-102528943D01*
X79164999Y-102737423D01*
X79164999Y-105549994D01*
X79164998Y-105549999D01*
X79195263Y-105702148D01*
X79232366Y-105888674D01*
X79395196Y-106132368D01*
X79424209Y-106175789D01*
X80565001Y-107316580D01*
X80565001Y-114199996D01*
X80565000Y-114200001D01*
X80601800Y-114385002D01*
X80632368Y-114538676D01*
X80791718Y-114777161D01*
X80824211Y-114825791D01*
X80907256Y-114908835D01*
X80956883Y-115028943D01*
X81219673Y-115292192D01*
X81563201Y-115434838D01*
X81935167Y-115435162D01*
X82278943Y-115293117D01*
X82374937Y-115197290D01*
X82469673Y-115292192D01*
X82813201Y-115434838D01*
X83185167Y-115435162D01*
X83528943Y-115293117D01*
X83792192Y-115030327D01*
X83934838Y-114686799D01*
X83935162Y-114314833D01*
X83793117Y-113971057D01*
X83530327Y-113707808D01*
X83409013Y-113657434D01*
X83135000Y-113383420D01*
X83135000Y-110527782D01*
X83303609Y-110696391D01*
X83550171Y-110861138D01*
X83638245Y-110878657D01*
X83551400Y-111315255D01*
X83551400Y-111684745D01*
X83665474Y-112258234D01*
X83990330Y-112744415D01*
X84476511Y-113069271D01*
X85050000Y-113183345D01*
X85283016Y-113136995D01*
X86521808Y-114375787D01*
X86521810Y-114375790D01*
X86804742Y-114564838D01*
X86808925Y-114567633D01*
X87147600Y-114635000D01*
X87693178Y-114635000D01*
X87813201Y-114684838D01*
X88185167Y-114685162D01*
X88528943Y-114543117D01*
X88792192Y-114280327D01*
X88840115Y-114164917D01*
X89962599Y-115287401D01*
X90209161Y-115452148D01*
X90500000Y-115510000D01*
X92437537Y-115510000D01*
X92469673Y-115542192D01*
X92813201Y-115684838D01*
X93185167Y-115685162D01*
X93528943Y-115543117D01*
X93762468Y-115309999D01*
X111200001Y-115309999D01*
X111490840Y-115252147D01*
X111591213Y-115185080D01*
X111685167Y-115185162D01*
X112028943Y-115043117D01*
X112292192Y-114780327D01*
X112434838Y-114436799D01*
X112434992Y-114260010D01*
X116185208Y-114260010D01*
X117365001Y-115439803D01*
X117365001Y-116300001D01*
X117422853Y-116590840D01*
X117587600Y-116837402D01*
X118596209Y-117846011D01*
X118842771Y-118010758D01*
X119133610Y-118068610D01*
X119542690Y-118068610D01*
X119530729Y-118086511D01*
X119416655Y-118660000D01*
X119530729Y-119233489D01*
X119596220Y-119331503D01*
X119457808Y-119469673D01*
X119315162Y-119813201D01*
X119314838Y-120185167D01*
X119456883Y-120528943D01*
X119719673Y-120792192D01*
X120063201Y-120934838D01*
X120435167Y-120935162D01*
X120778943Y-120793117D01*
X120812118Y-120760000D01*
X122851987Y-120760000D01*
X122631661Y-121290602D01*
X122631141Y-121886782D01*
X122858808Y-122437780D01*
X123280003Y-122859710D01*
X123280931Y-122860095D01*
X122860290Y-123280003D01*
X122631661Y-123830602D01*
X122631141Y-124426782D01*
X122739900Y-124690000D01*
X101345000Y-124690000D01*
X101345000Y-124130000D01*
X101290954Y-123858295D01*
X101137046Y-123627954D01*
X100906705Y-123474046D01*
X100635000Y-123420000D01*
X99365000Y-123420000D01*
X99093295Y-123474046D01*
X98862954Y-123627954D01*
X98709046Y-123858295D01*
X98655000Y-124130000D01*
X98655000Y-124690000D01*
X77260127Y-124690000D01*
X77368339Y-124429398D01*
X77368667Y-124053035D01*
X77609389Y-123892191D01*
X81157203Y-120344377D01*
X81354673Y-120542192D01*
X81698201Y-120684838D01*
X82070167Y-120685162D01*
X82191569Y-120635000D01*
X83883420Y-120635000D01*
X86324209Y-123075788D01*
X86324211Y-123075791D01*
X86407256Y-123158835D01*
X86456883Y-123278943D01*
X86719673Y-123542192D01*
X87063201Y-123684838D01*
X87435167Y-123685162D01*
X87778943Y-123543117D01*
X88042192Y-123280327D01*
X88184838Y-122936799D01*
X88185162Y-122564833D01*
X88043117Y-122221057D01*
X87780327Y-121957808D01*
X87659014Y-121907434D01*
X87575791Y-121824211D01*
X87575788Y-121824209D01*
X85386580Y-119635000D01*
X85883420Y-119635000D01*
X87407255Y-121158834D01*
X87456883Y-121278943D01*
X87719673Y-121542192D01*
X88063201Y-121684838D01*
X88435167Y-121685162D01*
X88556569Y-121635000D01*
X88883420Y-121635000D01*
X90407255Y-123158834D01*
X90456883Y-123278943D01*
X90719673Y-123542192D01*
X91063201Y-123684838D01*
X91435167Y-123685162D01*
X91778943Y-123543117D01*
X92042192Y-123280327D01*
X92184838Y-122936799D01*
X92185162Y-122564833D01*
X92043117Y-122221057D01*
X91780327Y-121957808D01*
X91659013Y-121907434D01*
X89875790Y-120124210D01*
X89822606Y-120088674D01*
X89588675Y-119932367D01*
X89532484Y-119921190D01*
X89250000Y-119864999D01*
X89249995Y-119865000D01*
X88616579Y-119865000D01*
X86875790Y-118124210D01*
X86787558Y-118065255D01*
X93601400Y-118065255D01*
X93601400Y-118434745D01*
X93715474Y-119008234D01*
X94040330Y-119494415D01*
X94526511Y-119819271D01*
X95100000Y-119933345D01*
X95673489Y-119819271D01*
X96159670Y-119494415D01*
X96370000Y-119179634D01*
X96580330Y-119494415D01*
X97066511Y-119819271D01*
X97640000Y-119933345D01*
X98213489Y-119819271D01*
X98699670Y-119494415D01*
X98910000Y-119179634D01*
X99120330Y-119494415D01*
X99606511Y-119819271D01*
X100180000Y-119933345D01*
X100753489Y-119819271D01*
X101239670Y-119494415D01*
X101450000Y-119179634D01*
X101660330Y-119494415D01*
X102146511Y-119819271D01*
X102720000Y-119933345D01*
X103293489Y-119819271D01*
X103779670Y-119494415D01*
X103990000Y-119179634D01*
X104200330Y-119494415D01*
X104686511Y-119819271D01*
X105260000Y-119933345D01*
X105833489Y-119819271D01*
X106319670Y-119494415D01*
X106530000Y-119179634D01*
X106740330Y-119494415D01*
X107226511Y-119819271D01*
X107800000Y-119933345D01*
X108373489Y-119819271D01*
X108859670Y-119494415D01*
X109070000Y-119179634D01*
X109280330Y-119494415D01*
X109766511Y-119819271D01*
X110340000Y-119933345D01*
X110913489Y-119819271D01*
X111399670Y-119494415D01*
X111610000Y-119179634D01*
X111820330Y-119494415D01*
X112306511Y-119819271D01*
X112880000Y-119933345D01*
X113453489Y-119819271D01*
X113939670Y-119494415D01*
X113949243Y-119480087D01*
X113953238Y-119501317D01*
X114092310Y-119717441D01*
X114304510Y-119862431D01*
X114556400Y-119913440D01*
X116283600Y-119913440D01*
X116518917Y-119869162D01*
X116735041Y-119730090D01*
X116880031Y-119517890D01*
X116931040Y-119266000D01*
X116931040Y-117234000D01*
X116886762Y-116998683D01*
X116747690Y-116782559D01*
X116535490Y-116637569D01*
X116283600Y-116586560D01*
X114556400Y-116586560D01*
X114321083Y-116630838D01*
X114104959Y-116769910D01*
X113959969Y-116982110D01*
X113951600Y-117023439D01*
X113939670Y-117005585D01*
X113453489Y-116680729D01*
X112880000Y-116566655D01*
X112306511Y-116680729D01*
X111820330Y-117005585D01*
X111610000Y-117320366D01*
X111399670Y-117005585D01*
X110913489Y-116680729D01*
X110340000Y-116566655D01*
X109766511Y-116680729D01*
X109280330Y-117005585D01*
X109070000Y-117320366D01*
X108859670Y-117005585D01*
X108373489Y-116680729D01*
X107800000Y-116566655D01*
X107226511Y-116680729D01*
X106740330Y-117005585D01*
X106530000Y-117320366D01*
X106319670Y-117005585D01*
X105833489Y-116680729D01*
X105260000Y-116566655D01*
X104686511Y-116680729D01*
X104200330Y-117005585D01*
X103990000Y-117320366D01*
X103779670Y-117005585D01*
X103293489Y-116680729D01*
X102720000Y-116566655D01*
X102146511Y-116680729D01*
X101660330Y-117005585D01*
X101450000Y-117320366D01*
X101239670Y-117005585D01*
X100753489Y-116680729D01*
X100180000Y-116566655D01*
X99606511Y-116680729D01*
X99120330Y-117005585D01*
X98910000Y-117320366D01*
X98699670Y-117005585D01*
X98213489Y-116680729D01*
X97640000Y-116566655D01*
X97066511Y-116680729D01*
X96580330Y-117005585D01*
X96370000Y-117320366D01*
X96159670Y-117005585D01*
X95673489Y-116680729D01*
X95100000Y-116566655D01*
X94526511Y-116680729D01*
X94040330Y-117005585D01*
X93715474Y-117491766D01*
X93601400Y-118065255D01*
X86787558Y-118065255D01*
X86705996Y-118010758D01*
X86588675Y-117932367D01*
X86532484Y-117921190D01*
X86250000Y-117864999D01*
X86249995Y-117865000D01*
X81500005Y-117865000D01*
X81500000Y-117864999D01*
X81161326Y-117932366D01*
X81161324Y-117932367D01*
X81161325Y-117932367D01*
X80874210Y-118124210D01*
X80874208Y-118124213D01*
X77368565Y-121629855D01*
X77368859Y-121293218D01*
X77141192Y-120742220D01*
X76719997Y-120320290D01*
X76719069Y-120319905D01*
X77139710Y-119899997D01*
X77368339Y-119349398D01*
X77368859Y-118753218D01*
X77141192Y-118202220D01*
X76719997Y-117780290D01*
X76719069Y-117779905D01*
X77139710Y-117359997D01*
X77368339Y-116809398D01*
X77368859Y-116213218D01*
X77141192Y-115662220D01*
X76719997Y-115240290D01*
X76719069Y-115239905D01*
X77139710Y-114819997D01*
X77368339Y-114269398D01*
X77368859Y-113673218D01*
X77141192Y-113122220D01*
X76719997Y-112700290D01*
X76719069Y-112699905D01*
X77139710Y-112279997D01*
X77177080Y-112190000D01*
X77865198Y-112190000D01*
X78314878Y-112639680D01*
X78314838Y-112685167D01*
X78456883Y-113028943D01*
X78719673Y-113292192D01*
X79063201Y-113434838D01*
X79435167Y-113435162D01*
X79778943Y-113293117D01*
X80042192Y-113030327D01*
X80184838Y-112686799D01*
X80185162Y-112314833D01*
X80054931Y-111999649D01*
X80184838Y-111686799D01*
X80185162Y-111314833D01*
X80043117Y-110971057D01*
X79780327Y-110707808D01*
X79659013Y-110657434D01*
X79221671Y-110220092D01*
X79528943Y-110093130D01*
X79792192Y-109830340D01*
X79934838Y-109486812D01*
X79935162Y-109114846D01*
X79794573Y-108774594D01*
X79934838Y-108436801D01*
X79935162Y-108064835D01*
X79793117Y-107721059D01*
X79530327Y-107457810D01*
X79186799Y-107315164D01*
X78889707Y-107314905D01*
X78010000Y-106435198D01*
X78010000Y-105750000D01*
X77952148Y-105459161D01*
X77787401Y-105212599D01*
X77167610Y-104592808D01*
X77368339Y-104109398D01*
X77368859Y-103513218D01*
X77141192Y-102962220D01*
X76719997Y-102540290D01*
X76719069Y-102539905D01*
X77139710Y-102119997D01*
X77368339Y-101569398D01*
X77368859Y-100973218D01*
X77141192Y-100422220D01*
X76719997Y-100000290D01*
X76679463Y-99983459D01*
X76744200Y-99783805D01*
X75870000Y-98909605D01*
X75855858Y-98923748D01*
X75676253Y-98744143D01*
X75690395Y-98730000D01*
X76049605Y-98730000D01*
X76923805Y-99604200D01*
X77176516Y-99522259D01*
X77380248Y-98961970D01*
X77354058Y-98366365D01*
X77176516Y-97937741D01*
X76923805Y-97855800D01*
X76049605Y-98730000D01*
X75690395Y-98730000D01*
X75676253Y-98715858D01*
X75855858Y-98536253D01*
X75870000Y-98550395D01*
X76744200Y-97676195D01*
X76679601Y-97476967D01*
X76717780Y-97461192D01*
X77139710Y-97039997D01*
X77368339Y-96489398D01*
X77368859Y-95893218D01*
X77141192Y-95342220D01*
X76719997Y-94920290D01*
X76719069Y-94919905D01*
X77139710Y-94499997D01*
X77368339Y-93949398D01*
X77368859Y-93353218D01*
X77141192Y-92802220D01*
X76719997Y-92380290D01*
X76719069Y-92379905D01*
X77139710Y-91959997D01*
X77368339Y-91409398D01*
X77368859Y-90813218D01*
X77331646Y-90723156D01*
X78787401Y-89267401D01*
X78952148Y-89020840D01*
X79010000Y-88730000D01*
X79010000Y-85064802D01*
X86389681Y-77685122D01*
X86435167Y-77685162D01*
X86778943Y-77543117D01*
X87042192Y-77280327D01*
X87125134Y-77080581D01*
X87363179Y-77588490D01*
X87795053Y-77982688D01*
X88210974Y-78154958D01*
X88443000Y-78033817D01*
X88443000Y-76827000D01*
X88423000Y-76827000D01*
X88423000Y-76573000D01*
X88443000Y-76573000D01*
X88443000Y-76553000D01*
X88697000Y-76553000D01*
X88697000Y-76573000D01*
X88717000Y-76573000D01*
X88717000Y-76827000D01*
X88697000Y-76827000D01*
X88697000Y-78033817D01*
X88929026Y-78154958D01*
X89344947Y-77982688D01*
X89776821Y-77588490D01*
X89834336Y-77465772D01*
X90050330Y-77789029D01*
X90350000Y-77989262D01*
X90350000Y-80490738D01*
X90050330Y-80690971D01*
X89834336Y-81014228D01*
X89776821Y-80891510D01*
X89344947Y-80497312D01*
X88929026Y-80325042D01*
X88697000Y-80446183D01*
X88697000Y-81653000D01*
X88717000Y-81653000D01*
X88717000Y-81907000D01*
X88697000Y-81907000D01*
X88697000Y-84193000D01*
X88717000Y-84193000D01*
X88717000Y-84447000D01*
X88697000Y-84447000D01*
X88697000Y-84467000D01*
X88443000Y-84467000D01*
X88443000Y-84447000D01*
X87230150Y-84447000D01*
X87125976Y-84551174D01*
X85904893Y-83330091D01*
X87071400Y-83330091D01*
X87071400Y-84034250D01*
X87230150Y-84193000D01*
X88443000Y-84193000D01*
X88443000Y-81907000D01*
X87235531Y-81907000D01*
X87115032Y-82139027D01*
X87363179Y-82668490D01*
X87546119Y-82835471D01*
X87346701Y-82918073D01*
X87168073Y-83096702D01*
X87071400Y-83330091D01*
X85904893Y-83330091D01*
X84685122Y-82110320D01*
X84685162Y-82064833D01*
X84543117Y-81721057D01*
X84280327Y-81457808D01*
X84191619Y-81420973D01*
X87115032Y-81420973D01*
X87235531Y-81653000D01*
X88443000Y-81653000D01*
X88443000Y-80446183D01*
X88210974Y-80325042D01*
X87795053Y-80497312D01*
X87363179Y-80891510D01*
X87115032Y-81420973D01*
X84191619Y-81420973D01*
X83936799Y-81315162D01*
X83564833Y-81314838D01*
X83221057Y-81456883D01*
X82957808Y-81719673D01*
X82815162Y-82063201D01*
X82814838Y-82435167D01*
X82956883Y-82778943D01*
X83219673Y-83042192D01*
X83563201Y-83184838D01*
X83610077Y-83184879D01*
X87212599Y-86787401D01*
X87459160Y-86952148D01*
X87750000Y-87010000D01*
X93435198Y-87010000D01*
X94314878Y-87889680D01*
X94314838Y-87935167D01*
X94456883Y-88278943D01*
X94719673Y-88542192D01*
X95063201Y-88684838D01*
X95435167Y-88685162D01*
X95778943Y-88543117D01*
X96042192Y-88280327D01*
X96184838Y-87936799D01*
X96185162Y-87564833D01*
X96043117Y-87221057D01*
X95780327Y-86957808D01*
X95436799Y-86815162D01*
X95389923Y-86815121D01*
X94287401Y-85712599D01*
X94271373Y-85701890D01*
X94709670Y-85409029D01*
X94920000Y-85094248D01*
X95130330Y-85409029D01*
X95616511Y-85733885D01*
X96190000Y-85847959D01*
X96763489Y-85733885D01*
X97249670Y-85409029D01*
X97460000Y-85094248D01*
X97670330Y-85409029D01*
X98156511Y-85733885D01*
X98730000Y-85847959D01*
X99303489Y-85733885D01*
X99789670Y-85409029D01*
X100000000Y-85094248D01*
X100210330Y-85409029D01*
X100696511Y-85733885D01*
X101270000Y-85847959D01*
X101647973Y-85772775D01*
X101921200Y-86046002D01*
X102167762Y-86210749D01*
X102206703Y-86218495D01*
X101360320Y-87064878D01*
X101314833Y-87064838D01*
X100971057Y-87206883D01*
X100707808Y-87469673D01*
X100565162Y-87813201D01*
X100564838Y-88185167D01*
X100706883Y-88528943D01*
X100969673Y-88792192D01*
X101313201Y-88934838D01*
X101685167Y-88935162D01*
X102028943Y-88793117D01*
X102292192Y-88530327D01*
X102434838Y-88186799D01*
X102434879Y-88139923D01*
X103564802Y-87010000D01*
X112136411Y-87010000D01*
X112427250Y-86952148D01*
X112673812Y-86787401D01*
X113781022Y-85680191D01*
X113945769Y-85433630D01*
X114003621Y-85142790D01*
X114003621Y-83062463D01*
X114035813Y-83030327D01*
X114178459Y-82686799D01*
X114178783Y-82314833D01*
X114156127Y-82260000D01*
X117187537Y-82260000D01*
X117219673Y-82292192D01*
X117563201Y-82434838D01*
X117935167Y-82435162D01*
X118278943Y-82293117D01*
X118542192Y-82030327D01*
X118684838Y-81686799D01*
X118685162Y-81314833D01*
X118543117Y-80971057D01*
X118280327Y-80707808D01*
X117936799Y-80565162D01*
X117564833Y-80564838D01*
X117221057Y-80706883D01*
X117187882Y-80740000D01*
X113000000Y-80740000D01*
X112709161Y-80797852D01*
X112606790Y-80866254D01*
X112489670Y-80690971D01*
X112315000Y-80574260D01*
X112315000Y-77905740D01*
X112489670Y-77789029D01*
X112814526Y-77302848D01*
X112928600Y-76729359D01*
X112928600Y-76670641D01*
X112814526Y-76097152D01*
X112489670Y-75610971D01*
X112039235Y-75310000D01*
X122739873Y-75310000D01*
X122631661Y-75570602D01*
X122631661Y-75570602D01*
G37*
X122631661Y-75570602D02*
X122631141Y-76166782D01*
X122668354Y-76256844D01*
X122403998Y-76521200D01*
X122239251Y-76767762D01*
X122181399Y-77058601D01*
X122181399Y-96842204D01*
X122116000Y-96828960D01*
X120084000Y-96828960D01*
X119848683Y-96873238D01*
X119632559Y-97012310D01*
X119487569Y-97224510D01*
X119436560Y-97476400D01*
X119436560Y-99203600D01*
X119480838Y-99438917D01*
X119619910Y-99655041D01*
X119832110Y-99800031D01*
X119873439Y-99808400D01*
X119855585Y-99820330D01*
X119530729Y-100306511D01*
X119416655Y-100880000D01*
X119530729Y-101453489D01*
X119855585Y-101939670D01*
X120170366Y-102150000D01*
X119855585Y-102360330D01*
X119530729Y-102846511D01*
X119416655Y-103420000D01*
X119530729Y-103993489D01*
X119855585Y-104479670D01*
X120170366Y-104690000D01*
X119855585Y-104900330D01*
X119530729Y-105386511D01*
X119427563Y-105905161D01*
X115434857Y-101912455D01*
X115435160Y-101564833D01*
X115293115Y-101221057D01*
X115030325Y-100957808D01*
X114686797Y-100815162D01*
X114314831Y-100814838D01*
X113971055Y-100956883D01*
X113707806Y-101219673D01*
X113565160Y-101563201D01*
X113565006Y-101740000D01*
X112312463Y-101740000D01*
X112280327Y-101707808D01*
X111936799Y-101565162D01*
X111564833Y-101564838D01*
X111221057Y-101706883D01*
X110957808Y-101969673D01*
X110815162Y-102313201D01*
X110814838Y-102685167D01*
X110956883Y-103028943D01*
X111219673Y-103292192D01*
X111563201Y-103434838D01*
X111935167Y-103435162D01*
X112278943Y-103293117D01*
X112312118Y-103260000D01*
X113935198Y-103260000D01*
X118490000Y-107814802D01*
X118490000Y-108483348D01*
X118547852Y-108774187D01*
X118712599Y-109020749D01*
X119782123Y-110090273D01*
X119589607Y-110378395D01*
X116423811Y-107212599D01*
X116177249Y-107047852D01*
X115886410Y-106990000D01*
X110312463Y-106990000D01*
X110280327Y-106957808D01*
X109936799Y-106815162D01*
X109564833Y-106814838D01*
X109221057Y-106956883D01*
X109153578Y-107024245D01*
X109034897Y-107047852D01*
X108788335Y-107212599D01*
X108510934Y-107490000D01*
X96564802Y-107490000D01*
X96435122Y-107360320D01*
X96435162Y-107314833D01*
X96293117Y-106971057D01*
X96030327Y-106707808D01*
X95686799Y-106565162D01*
X95314833Y-106564838D01*
X94971057Y-106706883D01*
X94707808Y-106969673D01*
X94565162Y-107313201D01*
X94564838Y-107685167D01*
X94706883Y-108028943D01*
X94740000Y-108062118D01*
X94740000Y-108202798D01*
X93050464Y-109892334D01*
X92670000Y-109816655D01*
X92096511Y-109930729D01*
X91610330Y-110255585D01*
X91400000Y-110570366D01*
X91189670Y-110255585D01*
X90703489Y-109930729D01*
X90130000Y-109816655D01*
X89556511Y-109930729D01*
X89180273Y-110182123D01*
X87960923Y-108962773D01*
X87714361Y-108798026D01*
X87423522Y-108740174D01*
X84687483Y-108740174D01*
X84655347Y-108707982D01*
X84434899Y-108616444D01*
X84435162Y-108314833D01*
X84293117Y-107971057D01*
X84030327Y-107707808D01*
X83686799Y-107565162D01*
X83314833Y-107564838D01*
X83135000Y-107639143D01*
X83135000Y-106500000D01*
X83067633Y-106161325D01*
X82875790Y-105874210D01*
X82875787Y-105874208D01*
X81635000Y-104633420D01*
X81635000Y-104435130D01*
X90564819Y-104435130D01*
X90706864Y-104778906D01*
X90790018Y-104862205D01*
X90790018Y-107937537D01*
X90757826Y-107969673D01*
X90615180Y-108313201D01*
X90614856Y-108685167D01*
X90756901Y-109028943D01*
X91019691Y-109292192D01*
X91363219Y-109434838D01*
X91735185Y-109435162D01*
X92078961Y-109293117D01*
X92342210Y-109030327D01*
X92484856Y-108686799D01*
X92485180Y-108314833D01*
X92343135Y-107971057D01*
X92310018Y-107937882D01*
X92310018Y-104737315D01*
X92434819Y-104436762D01*
X92435143Y-104064796D01*
X92293098Y-103721020D01*
X92030308Y-103457771D01*
X91686780Y-103315125D01*
X91314814Y-103314801D01*
X90971038Y-103456846D01*
X90707789Y-103719636D01*
X90565143Y-104063164D01*
X90564819Y-104435130D01*
X81635000Y-104435130D01*
X81635000Y-102707371D01*
X81719673Y-102792192D01*
X82063201Y-102934838D01*
X82435167Y-102935162D01*
X82778943Y-102793117D01*
X83042192Y-102530327D01*
X83184838Y-102186799D01*
X83185162Y-101814833D01*
X83135000Y-101693431D01*
X83135000Y-101435167D01*
X91814838Y-101435167D01*
X91956883Y-101778943D01*
X92219673Y-102042192D01*
X92563201Y-102184838D01*
X92935167Y-102185162D01*
X93236041Y-102060843D01*
X96462599Y-105287401D01*
X96709160Y-105452148D01*
X96744417Y-105459161D01*
X97000000Y-105510000D01*
X98199056Y-105510000D01*
X98206883Y-105528943D01*
X98469673Y-105792192D01*
X98813201Y-105934838D01*
X99185167Y-105935162D01*
X99528943Y-105793117D01*
X99792192Y-105530327D01*
X99934838Y-105186799D01*
X99935162Y-104814833D01*
X99793117Y-104471057D01*
X99530327Y-104207808D01*
X99186799Y-104065162D01*
X99066589Y-104065057D01*
X99040839Y-104047852D01*
X98750000Y-103990000D01*
X97925626Y-103990000D01*
X97941067Y-103952813D01*
X97941391Y-103580847D01*
X97799346Y-103237071D01*
X97536556Y-102973822D01*
X97343397Y-102893615D01*
X96185122Y-101735340D01*
X96185162Y-101689853D01*
X96043117Y-101346077D01*
X95780327Y-101082828D01*
X95436799Y-100940182D01*
X95064833Y-100939858D01*
X94721057Y-101081903D01*
X94563744Y-101238942D01*
X94037401Y-100712599D01*
X93790839Y-100547852D01*
X93500000Y-100490000D01*
X93312463Y-100490000D01*
X93280327Y-100457808D01*
X92936799Y-100315162D01*
X92564833Y-100314838D01*
X92221057Y-100456883D01*
X91957808Y-100719673D01*
X91815162Y-101063201D01*
X91814838Y-101435167D01*
X83135000Y-101435167D01*
X83135000Y-98885000D01*
X95943172Y-98885000D01*
X96063195Y-98934838D01*
X96435161Y-98935162D01*
X96778937Y-98793117D01*
X97042186Y-98530327D01*
X97184832Y-98186799D01*
X97184834Y-98184826D01*
X97547571Y-98185142D01*
X97891347Y-98043097D01*
X98154596Y-97780307D01*
X98297242Y-97436779D01*
X98297566Y-97064813D01*
X98155521Y-96721037D01*
X97892731Y-96457788D01*
X97549203Y-96315142D01*
X97537372Y-96315132D01*
X97536903Y-96314818D01*
X97338675Y-96182367D01*
X97282484Y-96171190D01*
X97000000Y-96114999D01*
X96999995Y-96115000D01*
X91049594Y-96115000D01*
X91234699Y-96038327D01*
X91413327Y-95859698D01*
X91510000Y-95626309D01*
X91510000Y-95285750D01*
X108490000Y-95285750D01*
X108490000Y-95626309D01*
X108586673Y-95859698D01*
X108765301Y-96038327D01*
X108998690Y-96135000D01*
X109464250Y-96135000D01*
X109623000Y-95976250D01*
X109623000Y-95127000D01*
X109877000Y-95127000D01*
X109877000Y-95976250D01*
X110035750Y-96135000D01*
X110501310Y-96135000D01*
X110734699Y-96038327D01*
X110913327Y-95859698D01*
X111010000Y-95626309D01*
X111010000Y-95285750D01*
X110851250Y-95127000D01*
X109877000Y-95127000D01*
X109623000Y-95127000D01*
X108648750Y-95127000D01*
X108490000Y-95285750D01*
X91510000Y-95285750D01*
X91351250Y-95127000D01*
X90377000Y-95127000D01*
X90377000Y-95147000D01*
X90123000Y-95147000D01*
X90123000Y-95127000D01*
X89148750Y-95127000D01*
X88990000Y-95285750D01*
X88990000Y-95626309D01*
X89086673Y-95859698D01*
X89265301Y-96038327D01*
X89450406Y-96115000D01*
X81635000Y-96115000D01*
X81635000Y-94866580D01*
X82616579Y-93885000D01*
X88413176Y-93885000D01*
X88533199Y-93934838D01*
X88905165Y-93935162D01*
X89026567Y-93885000D01*
X89118156Y-93885000D01*
X89160910Y-93951441D01*
X89229006Y-93997969D01*
X89086673Y-94140302D01*
X88990000Y-94373691D01*
X88990000Y-94714250D01*
X89148750Y-94873000D01*
X90123000Y-94873000D01*
X90123000Y-94853000D01*
X90377000Y-94853000D01*
X90377000Y-94873000D01*
X91351250Y-94873000D01*
X91510000Y-94714250D01*
X91510000Y-94373691D01*
X91413327Y-94140302D01*
X91272090Y-93999064D01*
X91326441Y-93964090D01*
X91380481Y-93885000D01*
X92477560Y-93885000D01*
X92477560Y-94000000D01*
X92521838Y-94235317D01*
X92660910Y-94451441D01*
X92873110Y-94596431D01*
X93125000Y-94647440D01*
X94375000Y-94647440D01*
X94610317Y-94603162D01*
X94826441Y-94464090D01*
X94971431Y-94251890D01*
X95022440Y-94000000D01*
X95022440Y-93980564D01*
X95031224Y-93984211D01*
X95403190Y-93984535D01*
X95644084Y-93885000D01*
X101193178Y-93885000D01*
X101313201Y-93934838D01*
X101685167Y-93935162D01*
X101806569Y-93885000D01*
X107693178Y-93885000D01*
X107813201Y-93934838D01*
X108185167Y-93935162D01*
X108306569Y-93885000D01*
X108618156Y-93885000D01*
X108660910Y-93951441D01*
X108729006Y-93997969D01*
X108586673Y-94140302D01*
X108490000Y-94373691D01*
X108490000Y-94714250D01*
X108648750Y-94873000D01*
X109623000Y-94873000D01*
X109623000Y-94853000D01*
X109877000Y-94853000D01*
X109877000Y-94873000D01*
X110851250Y-94873000D01*
X111010000Y-94714250D01*
X111010000Y-94373691D01*
X110913327Y-94140302D01*
X110772090Y-93999064D01*
X110826441Y-93964090D01*
X110880481Y-93885000D01*
X110977560Y-93885000D01*
X110977560Y-94000000D01*
X111021838Y-94235317D01*
X111160910Y-94451441D01*
X111373110Y-94596431D01*
X111625000Y-94647440D01*
X112875000Y-94647440D01*
X113110317Y-94603162D01*
X113326441Y-94464090D01*
X113471431Y-94251890D01*
X113522440Y-94000000D01*
X113522440Y-93885000D01*
X114193178Y-93885000D01*
X114313201Y-93934838D01*
X114685167Y-93935162D01*
X115028943Y-93793117D01*
X115292192Y-93530327D01*
X115434838Y-93186799D01*
X115435162Y-92814833D01*
X115304931Y-92499649D01*
X115434838Y-92186799D01*
X115435162Y-91814833D01*
X115293117Y-91471057D01*
X115030327Y-91207808D01*
X114686799Y-91065162D01*
X114314833Y-91064838D01*
X114193431Y-91115000D01*
X113522440Y-91115000D01*
X113522440Y-91000000D01*
X113478162Y-90764683D01*
X113339090Y-90548559D01*
X113173136Y-90435167D01*
X115314838Y-90435167D01*
X115456883Y-90778943D01*
X115719673Y-91042192D01*
X116063201Y-91184838D01*
X116435167Y-91185162D01*
X116778943Y-91043117D01*
X117042192Y-90780327D01*
X117184838Y-90436799D01*
X117184879Y-90389923D01*
X118314802Y-89260000D01*
X118437537Y-89260000D01*
X118469673Y-89292192D01*
X118813201Y-89434838D01*
X119185167Y-89435162D01*
X119528943Y-89293117D01*
X119792192Y-89030327D01*
X119934838Y-88686799D01*
X119935162Y-88314833D01*
X119793117Y-87971057D01*
X119530327Y-87707808D01*
X119186799Y-87565162D01*
X118814833Y-87564838D01*
X118471057Y-87706883D01*
X118437882Y-87740000D01*
X118000000Y-87740000D01*
X117709161Y-87797852D01*
X117462599Y-87962599D01*
X116110320Y-89314878D01*
X116064833Y-89314838D01*
X115721057Y-89456883D01*
X115457808Y-89719673D01*
X115315162Y-90063201D01*
X115314838Y-90435167D01*
X113173136Y-90435167D01*
X113126890Y-90403569D01*
X112875000Y-90352560D01*
X111625000Y-90352560D01*
X111389683Y-90396838D01*
X111173559Y-90535910D01*
X111028569Y-90748110D01*
X110977560Y-91000000D01*
X110977560Y-91115000D01*
X110104972Y-91115000D01*
X110278943Y-91043117D01*
X110542192Y-90780327D01*
X110684838Y-90436799D01*
X110684879Y-90389923D01*
X111814802Y-89260000D01*
X111937537Y-89260000D01*
X111969673Y-89292192D01*
X112313201Y-89434838D01*
X112685167Y-89435162D01*
X113028943Y-89293117D01*
X113292192Y-89030327D01*
X113434838Y-88686799D01*
X113435162Y-88314833D01*
X113293117Y-87971057D01*
X113030327Y-87707808D01*
X112686799Y-87565162D01*
X112314833Y-87564838D01*
X111971057Y-87706883D01*
X111937882Y-87740000D01*
X111500000Y-87740000D01*
X111209161Y-87797852D01*
X110962599Y-87962599D01*
X109610320Y-89314878D01*
X109564833Y-89314838D01*
X109221057Y-89456883D01*
X108957808Y-89719673D01*
X108815162Y-90063201D01*
X108814838Y-90435167D01*
X108956883Y-90778943D01*
X109219673Y-91042192D01*
X109395013Y-91115000D01*
X108306822Y-91115000D01*
X108186799Y-91065162D01*
X107814833Y-91064838D01*
X107693431Y-91115000D01*
X107631844Y-91115000D01*
X107589090Y-91048559D01*
X107520994Y-91002031D01*
X107663327Y-90859698D01*
X107760000Y-90626309D01*
X107760000Y-90285750D01*
X107601250Y-90127000D01*
X106627000Y-90127000D01*
X106627000Y-90147000D01*
X106373000Y-90147000D01*
X106373000Y-90127000D01*
X105398750Y-90127000D01*
X105240000Y-90285750D01*
X105240000Y-90626309D01*
X105336673Y-90859698D01*
X105477910Y-91000936D01*
X105423559Y-91035910D01*
X105369519Y-91115000D01*
X103604972Y-91115000D01*
X103778943Y-91043117D01*
X104042192Y-90780327D01*
X104184838Y-90436799D01*
X104184879Y-90389923D01*
X105264144Y-89310658D01*
X105265821Y-89311354D01*
X105240000Y-89373691D01*
X105240000Y-89714250D01*
X105398750Y-89873000D01*
X106373000Y-89873000D01*
X106373000Y-89853000D01*
X106627000Y-89853000D01*
X106627000Y-89873000D01*
X107601250Y-89873000D01*
X107760000Y-89714250D01*
X107760000Y-89373691D01*
X107663327Y-89140302D01*
X107484699Y-88961673D01*
X107251310Y-88865000D01*
X106785750Y-88865000D01*
X106627002Y-89023748D01*
X106627002Y-88865000D01*
X106610842Y-88865000D01*
X106684838Y-88686799D01*
X106685162Y-88314833D01*
X106543117Y-87971057D01*
X106280327Y-87707808D01*
X105936799Y-87565162D01*
X105564833Y-87564838D01*
X105221057Y-87706883D01*
X105187882Y-87740000D01*
X105000000Y-87740000D01*
X104709161Y-87797852D01*
X104462599Y-87962599D01*
X103110320Y-89314878D01*
X103064833Y-89314838D01*
X102721057Y-89456883D01*
X102457808Y-89719673D01*
X102315162Y-90063201D01*
X102314838Y-90435167D01*
X102456883Y-90778943D01*
X102719673Y-91042192D01*
X102895013Y-91115000D01*
X101806822Y-91115000D01*
X101686799Y-91065162D01*
X101314833Y-91064838D01*
X101193431Y-91115000D01*
X97354972Y-91115000D01*
X97528943Y-91043117D01*
X97792192Y-90780327D01*
X97934838Y-90436799D01*
X97934879Y-90389923D01*
X99014144Y-89310658D01*
X99313201Y-89434838D01*
X99685167Y-89435162D01*
X100028943Y-89293117D01*
X100292192Y-89030327D01*
X100434838Y-88686799D01*
X100435162Y-88314833D01*
X100293117Y-87971057D01*
X100030327Y-87707808D01*
X99686799Y-87565162D01*
X99314833Y-87564838D01*
X98971057Y-87706883D01*
X98937882Y-87740000D01*
X98750000Y-87740000D01*
X98459161Y-87797852D01*
X98212599Y-87962599D01*
X96860320Y-89314878D01*
X96814833Y-89314838D01*
X96471057Y-89456883D01*
X96207808Y-89719673D01*
X96065162Y-90063201D01*
X96064838Y-90435167D01*
X96206883Y-90778943D01*
X96469673Y-91042192D01*
X96645013Y-91115000D01*
X95556822Y-91115000D01*
X95436799Y-91065162D01*
X95064833Y-91064838D01*
X95022440Y-91082354D01*
X95022440Y-91000000D01*
X94978162Y-90764683D01*
X94839090Y-90548559D01*
X94626890Y-90403569D01*
X94375000Y-90352560D01*
X93125000Y-90352560D01*
X92889683Y-90396838D01*
X92673559Y-90535910D01*
X92528569Y-90748110D01*
X92477560Y-91000000D01*
X92477560Y-91115000D01*
X90854972Y-91115000D01*
X91028943Y-91043117D01*
X91292192Y-90780327D01*
X91434838Y-90436799D01*
X91434879Y-90389923D01*
X92514144Y-89310658D01*
X92813201Y-89434838D01*
X93185167Y-89435162D01*
X93528943Y-89293117D01*
X93792192Y-89030327D01*
X93934838Y-88686799D01*
X93935162Y-88314833D01*
X93793117Y-87971057D01*
X93530327Y-87707808D01*
X93186799Y-87565162D01*
X92814833Y-87564838D01*
X92471057Y-87706883D01*
X92437882Y-87740000D01*
X92250000Y-87740000D01*
X91959161Y-87797852D01*
X91712599Y-87962599D01*
X90360320Y-89314878D01*
X90314833Y-89314838D01*
X89971057Y-89456883D01*
X89707808Y-89719673D01*
X89565162Y-90063201D01*
X89564838Y-90435167D01*
X89706883Y-90778943D01*
X89969673Y-91042192D01*
X90145013Y-91115000D01*
X89056822Y-91115000D01*
X88936799Y-91065162D01*
X88599585Y-91064868D01*
X88589090Y-91048559D01*
X88520994Y-91002031D01*
X88663327Y-90859698D01*
X88760000Y-90626309D01*
X88760000Y-90285750D01*
X88601250Y-90127000D01*
X87627000Y-90127000D01*
X87627000Y-90147000D01*
X87373000Y-90147000D01*
X87373000Y-90127000D01*
X86398750Y-90127000D01*
X86240000Y-90285750D01*
X86240000Y-90626309D01*
X86336673Y-90859698D01*
X86477910Y-91000936D01*
X86423559Y-91035910D01*
X86369519Y-91115000D01*
X84354972Y-91115000D01*
X84528943Y-91043117D01*
X84792192Y-90780327D01*
X84934838Y-90436799D01*
X84934879Y-90389923D01*
X86014144Y-89310658D01*
X86240000Y-89404442D01*
X86240000Y-89714250D01*
X86398750Y-89873000D01*
X87373000Y-89873000D01*
X87373000Y-89023750D01*
X87627000Y-89023750D01*
X87627000Y-89873000D01*
X88601250Y-89873000D01*
X88760000Y-89714250D01*
X88760000Y-89373691D01*
X88663327Y-89140302D01*
X88484699Y-88961673D01*
X88251310Y-88865000D01*
X87785750Y-88865000D01*
X87627000Y-89023750D01*
X87373000Y-89023750D01*
X87317831Y-88968581D01*
X87434838Y-88686799D01*
X87435162Y-88314833D01*
X87293117Y-87971057D01*
X87030327Y-87707808D01*
X86686799Y-87565162D01*
X86314833Y-87564838D01*
X85971057Y-87706883D01*
X85937882Y-87740000D01*
X85750000Y-87740000D01*
X85459161Y-87797852D01*
X85212599Y-87962599D01*
X83860320Y-89314878D01*
X83814833Y-89314838D01*
X83471057Y-89456883D01*
X83207808Y-89719673D01*
X83065162Y-90063201D01*
X83064838Y-90435167D01*
X83206883Y-90778943D01*
X83469673Y-91042192D01*
X83645013Y-91115000D01*
X82556822Y-91115000D01*
X82436799Y-91065162D01*
X82064833Y-91064838D01*
X81943431Y-91115000D01*
X81825741Y-91115000D01*
X81825736Y-91114999D01*
X81543252Y-91171190D01*
X81487061Y-91182367D01*
X81199946Y-91374210D01*
X81199944Y-91374213D01*
X79124210Y-93449946D01*
X78932367Y-93737061D01*
X78932367Y-93737062D01*
X78864999Y-94075736D01*
X78865000Y-94075741D01*
X78865000Y-101693178D01*
X78815162Y-101813201D01*
X78814838Y-102185167D01*
X78956883Y-102528943D01*
X79164999Y-102737423D01*
X79164999Y-105549994D01*
X79164998Y-105549999D01*
X79195263Y-105702148D01*
X79232366Y-105888674D01*
X79395196Y-106132368D01*
X79424209Y-106175789D01*
X80565001Y-107316580D01*
X80565001Y-114199996D01*
X80565000Y-114200001D01*
X80601800Y-114385002D01*
X80632368Y-114538676D01*
X80791718Y-114777161D01*
X80824211Y-114825791D01*
X80907256Y-114908835D01*
X80956883Y-115028943D01*
X81219673Y-115292192D01*
X81563201Y-115434838D01*
X81935167Y-115435162D01*
X82278943Y-115293117D01*
X82374937Y-115197290D01*
X82469673Y-115292192D01*
X82813201Y-115434838D01*
X83185167Y-115435162D01*
X83528943Y-115293117D01*
X83792192Y-115030327D01*
X83934838Y-114686799D01*
X83935162Y-114314833D01*
X83793117Y-113971057D01*
X83530327Y-113707808D01*
X83409013Y-113657434D01*
X83135000Y-113383420D01*
X83135000Y-110527782D01*
X83303609Y-110696391D01*
X83550171Y-110861138D01*
X83638245Y-110878657D01*
X83551400Y-111315255D01*
X83551400Y-111684745D01*
X83665474Y-112258234D01*
X83990330Y-112744415D01*
X84476511Y-113069271D01*
X85050000Y-113183345D01*
X85283016Y-113136995D01*
X86521808Y-114375787D01*
X86521810Y-114375790D01*
X86804742Y-114564838D01*
X86808925Y-114567633D01*
X87147600Y-114635000D01*
X87693178Y-114635000D01*
X87813201Y-114684838D01*
X88185167Y-114685162D01*
X88528943Y-114543117D01*
X88792192Y-114280327D01*
X88840115Y-114164917D01*
X89962599Y-115287401D01*
X90209161Y-115452148D01*
X90500000Y-115510000D01*
X92437537Y-115510000D01*
X92469673Y-115542192D01*
X92813201Y-115684838D01*
X93185167Y-115685162D01*
X93528943Y-115543117D01*
X93762468Y-115309999D01*
X111200001Y-115309999D01*
X111490840Y-115252147D01*
X111591213Y-115185080D01*
X111685167Y-115185162D01*
X112028943Y-115043117D01*
X112292192Y-114780327D01*
X112434838Y-114436799D01*
X112434992Y-114260010D01*
X116185208Y-114260010D01*
X117365001Y-115439803D01*
X117365001Y-116300001D01*
X117422853Y-116590840D01*
X117587600Y-116837402D01*
X118596209Y-117846011D01*
X118842771Y-118010758D01*
X119133610Y-118068610D01*
X119542690Y-118068610D01*
X119530729Y-118086511D01*
X119416655Y-118660000D01*
X119530729Y-119233489D01*
X119596220Y-119331503D01*
X119457808Y-119469673D01*
X119315162Y-119813201D01*
X119314838Y-120185167D01*
X119456883Y-120528943D01*
X119719673Y-120792192D01*
X120063201Y-120934838D01*
X120435167Y-120935162D01*
X120778943Y-120793117D01*
X120812118Y-120760000D01*
X122851987Y-120760000D01*
X122631661Y-121290602D01*
X122631141Y-121886782D01*
X122858808Y-122437780D01*
X123280003Y-122859710D01*
X123280931Y-122860095D01*
X122860290Y-123280003D01*
X122631661Y-123830602D01*
X122631141Y-124426782D01*
X122739900Y-124690000D01*
X101345000Y-124690000D01*
X101345000Y-124130000D01*
X101290954Y-123858295D01*
X101137046Y-123627954D01*
X100906705Y-123474046D01*
X100635000Y-123420000D01*
X99365000Y-123420000D01*
X99093295Y-123474046D01*
X98862954Y-123627954D01*
X98709046Y-123858295D01*
X98655000Y-124130000D01*
X98655000Y-124690000D01*
X77260127Y-124690000D01*
X77368339Y-124429398D01*
X77368667Y-124053035D01*
X77609389Y-123892191D01*
X81157203Y-120344377D01*
X81354673Y-120542192D01*
X81698201Y-120684838D01*
X82070167Y-120685162D01*
X82191569Y-120635000D01*
X83883420Y-120635000D01*
X86324209Y-123075788D01*
X86324211Y-123075791D01*
X86407256Y-123158835D01*
X86456883Y-123278943D01*
X86719673Y-123542192D01*
X87063201Y-123684838D01*
X87435167Y-123685162D01*
X87778943Y-123543117D01*
X88042192Y-123280327D01*
X88184838Y-122936799D01*
X88185162Y-122564833D01*
X88043117Y-122221057D01*
X87780327Y-121957808D01*
X87659014Y-121907434D01*
X87575791Y-121824211D01*
X87575788Y-121824209D01*
X85386580Y-119635000D01*
X85883420Y-119635000D01*
X87407255Y-121158834D01*
X87456883Y-121278943D01*
X87719673Y-121542192D01*
X88063201Y-121684838D01*
X88435167Y-121685162D01*
X88556569Y-121635000D01*
X88883420Y-121635000D01*
X90407255Y-123158834D01*
X90456883Y-123278943D01*
X90719673Y-123542192D01*
X91063201Y-123684838D01*
X91435167Y-123685162D01*
X91778943Y-123543117D01*
X92042192Y-123280327D01*
X92184838Y-122936799D01*
X92185162Y-122564833D01*
X92043117Y-122221057D01*
X91780327Y-121957808D01*
X91659013Y-121907434D01*
X89875790Y-120124210D01*
X89822606Y-120088674D01*
X89588675Y-119932367D01*
X89532484Y-119921190D01*
X89250000Y-119864999D01*
X89249995Y-119865000D01*
X88616579Y-119865000D01*
X86875790Y-118124210D01*
X86787558Y-118065255D01*
X93601400Y-118065255D01*
X93601400Y-118434745D01*
X93715474Y-119008234D01*
X94040330Y-119494415D01*
X94526511Y-119819271D01*
X95100000Y-119933345D01*
X95673489Y-119819271D01*
X96159670Y-119494415D01*
X96370000Y-119179634D01*
X96580330Y-119494415D01*
X97066511Y-119819271D01*
X97640000Y-119933345D01*
X98213489Y-119819271D01*
X98699670Y-119494415D01*
X98910000Y-119179634D01*
X99120330Y-119494415D01*
X99606511Y-119819271D01*
X100180000Y-119933345D01*
X100753489Y-119819271D01*
X101239670Y-119494415D01*
X101450000Y-119179634D01*
X101660330Y-119494415D01*
X102146511Y-119819271D01*
X102720000Y-119933345D01*
X103293489Y-119819271D01*
X103779670Y-119494415D01*
X103990000Y-119179634D01*
X104200330Y-119494415D01*
X104686511Y-119819271D01*
X105260000Y-119933345D01*
X105833489Y-119819271D01*
X106319670Y-119494415D01*
X106530000Y-119179634D01*
X106740330Y-119494415D01*
X107226511Y-119819271D01*
X107800000Y-119933345D01*
X108373489Y-119819271D01*
X108859670Y-119494415D01*
X109070000Y-119179634D01*
X109280330Y-119494415D01*
X109766511Y-119819271D01*
X110340000Y-119933345D01*
X110913489Y-119819271D01*
X111399670Y-119494415D01*
X111610000Y-119179634D01*
X111820330Y-119494415D01*
X112306511Y-119819271D01*
X112880000Y-119933345D01*
X113453489Y-119819271D01*
X113939670Y-119494415D01*
X113949243Y-119480087D01*
X113953238Y-119501317D01*
X114092310Y-119717441D01*
X114304510Y-119862431D01*
X114556400Y-119913440D01*
X116283600Y-119913440D01*
X116518917Y-119869162D01*
X116735041Y-119730090D01*
X116880031Y-119517890D01*
X116931040Y-119266000D01*
X116931040Y-117234000D01*
X116886762Y-116998683D01*
X116747690Y-116782559D01*
X116535490Y-116637569D01*
X116283600Y-116586560D01*
X114556400Y-116586560D01*
X114321083Y-116630838D01*
X114104959Y-116769910D01*
X113959969Y-116982110D01*
X113951600Y-117023439D01*
X113939670Y-117005585D01*
X113453489Y-116680729D01*
X112880000Y-116566655D01*
X112306511Y-116680729D01*
X111820330Y-117005585D01*
X111610000Y-117320366D01*
X111399670Y-117005585D01*
X110913489Y-116680729D01*
X110340000Y-116566655D01*
X109766511Y-116680729D01*
X109280330Y-117005585D01*
X109070000Y-117320366D01*
X108859670Y-117005585D01*
X108373489Y-116680729D01*
X107800000Y-116566655D01*
X107226511Y-116680729D01*
X106740330Y-117005585D01*
X106530000Y-117320366D01*
X106319670Y-117005585D01*
X105833489Y-116680729D01*
X105260000Y-116566655D01*
X104686511Y-116680729D01*
X104200330Y-117005585D01*
X103990000Y-117320366D01*
X103779670Y-117005585D01*
X103293489Y-116680729D01*
X102720000Y-116566655D01*
X102146511Y-116680729D01*
X101660330Y-117005585D01*
X101450000Y-117320366D01*
X101239670Y-117005585D01*
X100753489Y-116680729D01*
X100180000Y-116566655D01*
X99606511Y-116680729D01*
X99120330Y-117005585D01*
X98910000Y-117320366D01*
X98699670Y-117005585D01*
X98213489Y-116680729D01*
X97640000Y-116566655D01*
X97066511Y-116680729D01*
X96580330Y-117005585D01*
X96370000Y-117320366D01*
X96159670Y-117005585D01*
X95673489Y-116680729D01*
X95100000Y-116566655D01*
X94526511Y-116680729D01*
X94040330Y-117005585D01*
X93715474Y-117491766D01*
X93601400Y-118065255D01*
X86787558Y-118065255D01*
X86705996Y-118010758D01*
X86588675Y-117932367D01*
X86532484Y-117921190D01*
X86250000Y-117864999D01*
X86249995Y-117865000D01*
X81500005Y-117865000D01*
X81500000Y-117864999D01*
X81161326Y-117932366D01*
X81161324Y-117932367D01*
X81161325Y-117932367D01*
X80874210Y-118124210D01*
X80874208Y-118124213D01*
X77368565Y-121629855D01*
X77368859Y-121293218D01*
X77141192Y-120742220D01*
X76719997Y-120320290D01*
X76719069Y-120319905D01*
X77139710Y-119899997D01*
X77368339Y-119349398D01*
X77368859Y-118753218D01*
X77141192Y-118202220D01*
X76719997Y-117780290D01*
X76719069Y-117779905D01*
X77139710Y-117359997D01*
X77368339Y-116809398D01*
X77368859Y-116213218D01*
X77141192Y-115662220D01*
X76719997Y-115240290D01*
X76719069Y-115239905D01*
X77139710Y-114819997D01*
X77368339Y-114269398D01*
X77368859Y-113673218D01*
X77141192Y-113122220D01*
X76719997Y-112700290D01*
X76719069Y-112699905D01*
X77139710Y-112279997D01*
X77177080Y-112190000D01*
X77865198Y-112190000D01*
X78314878Y-112639680D01*
X78314838Y-112685167D01*
X78456883Y-113028943D01*
X78719673Y-113292192D01*
X79063201Y-113434838D01*
X79435167Y-113435162D01*
X79778943Y-113293117D01*
X80042192Y-113030327D01*
X80184838Y-112686799D01*
X80185162Y-112314833D01*
X80054931Y-111999649D01*
X80184838Y-111686799D01*
X80185162Y-111314833D01*
X80043117Y-110971057D01*
X79780327Y-110707808D01*
X79659013Y-110657434D01*
X79221671Y-110220092D01*
X79528943Y-110093130D01*
X79792192Y-109830340D01*
X79934838Y-109486812D01*
X79935162Y-109114846D01*
X79794573Y-108774594D01*
X79934838Y-108436801D01*
X79935162Y-108064835D01*
X79793117Y-107721059D01*
X79530327Y-107457810D01*
X79186799Y-107315164D01*
X78889707Y-107314905D01*
X78010000Y-106435198D01*
X78010000Y-105750000D01*
X77952148Y-105459161D01*
X77787401Y-105212599D01*
X77167610Y-104592808D01*
X77368339Y-104109398D01*
X77368859Y-103513218D01*
X77141192Y-102962220D01*
X76719997Y-102540290D01*
X76719069Y-102539905D01*
X77139710Y-102119997D01*
X77368339Y-101569398D01*
X77368859Y-100973218D01*
X77141192Y-100422220D01*
X76719997Y-100000290D01*
X76679463Y-99983459D01*
X76744200Y-99783805D01*
X75870000Y-98909605D01*
X75855858Y-98923748D01*
X75676253Y-98744143D01*
X75690395Y-98730000D01*
X76049605Y-98730000D01*
X76923805Y-99604200D01*
X77176516Y-99522259D01*
X77380248Y-98961970D01*
X77354058Y-98366365D01*
X77176516Y-97937741D01*
X76923805Y-97855800D01*
X76049605Y-98730000D01*
X75690395Y-98730000D01*
X75676253Y-98715858D01*
X75855858Y-98536253D01*
X75870000Y-98550395D01*
X76744200Y-97676195D01*
X76679601Y-97476967D01*
X76717780Y-97461192D01*
X77139710Y-97039997D01*
X77368339Y-96489398D01*
X77368859Y-95893218D01*
X77141192Y-95342220D01*
X76719997Y-94920290D01*
X76719069Y-94919905D01*
X77139710Y-94499997D01*
X77368339Y-93949398D01*
X77368859Y-93353218D01*
X77141192Y-92802220D01*
X76719997Y-92380290D01*
X76719069Y-92379905D01*
X77139710Y-91959997D01*
X77368339Y-91409398D01*
X77368859Y-90813218D01*
X77331646Y-90723156D01*
X78787401Y-89267401D01*
X78952148Y-89020840D01*
X79010000Y-88730000D01*
X79010000Y-85064802D01*
X86389681Y-77685122D01*
X86435167Y-77685162D01*
X86778943Y-77543117D01*
X87042192Y-77280327D01*
X87125134Y-77080581D01*
X87363179Y-77588490D01*
X87795053Y-77982688D01*
X88210974Y-78154958D01*
X88443000Y-78033817D01*
X88443000Y-76827000D01*
X88423000Y-76827000D01*
X88423000Y-76573000D01*
X88443000Y-76573000D01*
X88443000Y-76553000D01*
X88697000Y-76553000D01*
X88697000Y-76573000D01*
X88717000Y-76573000D01*
X88717000Y-76827000D01*
X88697000Y-76827000D01*
X88697000Y-78033817D01*
X88929026Y-78154958D01*
X89344947Y-77982688D01*
X89776821Y-77588490D01*
X89834336Y-77465772D01*
X90050330Y-77789029D01*
X90350000Y-77989262D01*
X90350000Y-80490738D01*
X90050330Y-80690971D01*
X89834336Y-81014228D01*
X89776821Y-80891510D01*
X89344947Y-80497312D01*
X88929026Y-80325042D01*
X88697000Y-80446183D01*
X88697000Y-81653000D01*
X88717000Y-81653000D01*
X88717000Y-81907000D01*
X88697000Y-81907000D01*
X88697000Y-84193000D01*
X88717000Y-84193000D01*
X88717000Y-84447000D01*
X88697000Y-84447000D01*
X88697000Y-84467000D01*
X88443000Y-84467000D01*
X88443000Y-84447000D01*
X87230150Y-84447000D01*
X87125976Y-84551174D01*
X85904893Y-83330091D01*
X87071400Y-83330091D01*
X87071400Y-84034250D01*
X87230150Y-84193000D01*
X88443000Y-84193000D01*
X88443000Y-81907000D01*
X87235531Y-81907000D01*
X87115032Y-82139027D01*
X87363179Y-82668490D01*
X87546119Y-82835471D01*
X87346701Y-82918073D01*
X87168073Y-83096702D01*
X87071400Y-83330091D01*
X85904893Y-83330091D01*
X84685122Y-82110320D01*
X84685162Y-82064833D01*
X84543117Y-81721057D01*
X84280327Y-81457808D01*
X84191619Y-81420973D01*
X87115032Y-81420973D01*
X87235531Y-81653000D01*
X88443000Y-81653000D01*
X88443000Y-80446183D01*
X88210974Y-80325042D01*
X87795053Y-80497312D01*
X87363179Y-80891510D01*
X87115032Y-81420973D01*
X84191619Y-81420973D01*
X83936799Y-81315162D01*
X83564833Y-81314838D01*
X83221057Y-81456883D01*
X82957808Y-81719673D01*
X82815162Y-82063201D01*
X82814838Y-82435167D01*
X82956883Y-82778943D01*
X83219673Y-83042192D01*
X83563201Y-83184838D01*
X83610077Y-83184879D01*
X87212599Y-86787401D01*
X87459160Y-86952148D01*
X87750000Y-87010000D01*
X93435198Y-87010000D01*
X94314878Y-87889680D01*
X94314838Y-87935167D01*
X94456883Y-88278943D01*
X94719673Y-88542192D01*
X95063201Y-88684838D01*
X95435167Y-88685162D01*
X95778943Y-88543117D01*
X96042192Y-88280327D01*
X96184838Y-87936799D01*
X96185162Y-87564833D01*
X96043117Y-87221057D01*
X95780327Y-86957808D01*
X95436799Y-86815162D01*
X95389923Y-86815121D01*
X94287401Y-85712599D01*
X94271373Y-85701890D01*
X94709670Y-85409029D01*
X94920000Y-85094248D01*
X95130330Y-85409029D01*
X95616511Y-85733885D01*
X96190000Y-85847959D01*
X96763489Y-85733885D01*
X97249670Y-85409029D01*
X97460000Y-85094248D01*
X97670330Y-85409029D01*
X98156511Y-85733885D01*
X98730000Y-85847959D01*
X99303489Y-85733885D01*
X99789670Y-85409029D01*
X100000000Y-85094248D01*
X100210330Y-85409029D01*
X100696511Y-85733885D01*
X101270000Y-85847959D01*
X101647973Y-85772775D01*
X101921200Y-86046002D01*
X102167762Y-86210749D01*
X102206703Y-86218495D01*
X101360320Y-87064878D01*
X101314833Y-87064838D01*
X100971057Y-87206883D01*
X100707808Y-87469673D01*
X100565162Y-87813201D01*
X100564838Y-88185167D01*
X100706883Y-88528943D01*
X100969673Y-88792192D01*
X101313201Y-88934838D01*
X101685167Y-88935162D01*
X102028943Y-88793117D01*
X102292192Y-88530327D01*
X102434838Y-88186799D01*
X102434879Y-88139923D01*
X103564802Y-87010000D01*
X112136411Y-87010000D01*
X112427250Y-86952148D01*
X112673812Y-86787401D01*
X113781022Y-85680191D01*
X113945769Y-85433630D01*
X114003621Y-85142790D01*
X114003621Y-83062463D01*
X114035813Y-83030327D01*
X114178459Y-82686799D01*
X114178783Y-82314833D01*
X114156127Y-82260000D01*
X117187537Y-82260000D01*
X117219673Y-82292192D01*
X117563201Y-82434838D01*
X117935167Y-82435162D01*
X118278943Y-82293117D01*
X118542192Y-82030327D01*
X118684838Y-81686799D01*
X118685162Y-81314833D01*
X118543117Y-80971057D01*
X118280327Y-80707808D01*
X117936799Y-80565162D01*
X117564833Y-80564838D01*
X117221057Y-80706883D01*
X117187882Y-80740000D01*
X113000000Y-80740000D01*
X112709161Y-80797852D01*
X112606790Y-80866254D01*
X112489670Y-80690971D01*
X112315000Y-80574260D01*
X112315000Y-77905740D01*
X112489670Y-77789029D01*
X112814526Y-77302848D01*
X112928600Y-76729359D01*
X112928600Y-76670641D01*
X112814526Y-76097152D01*
X112489670Y-75610971D01*
X112039235Y-75310000D01*
X122739873Y-75310000D01*
X122631661Y-75570602D01*
G36*
X109017000Y-76573000D02*
X109037000Y-76573000D01*
X109037000Y-76827000D01*
X109017000Y-76827000D01*
X109017000Y-78033817D01*
X109249026Y-78154958D01*
X109664947Y-77982688D01*
X110096821Y-77588490D01*
X110154336Y-77465772D01*
X110370330Y-77789029D01*
X110545000Y-77905740D01*
X110545000Y-80574260D01*
X110370330Y-80690971D01*
X110154336Y-81014228D01*
X110096821Y-80891510D01*
X109664947Y-80497312D01*
X109249026Y-80325042D01*
X109017000Y-80446183D01*
X109017000Y-81653000D01*
X109037000Y-81653000D01*
X109037000Y-81907000D01*
X109017000Y-81907000D01*
X109017000Y-84193000D01*
X109037000Y-84193000D01*
X109037000Y-84447000D01*
X109017000Y-84447000D01*
X109017000Y-84467000D01*
X108763000Y-84467000D01*
X108763000Y-84447000D01*
X108743000Y-84447000D01*
X108743000Y-84193000D01*
X108763000Y-84193000D01*
X108763000Y-81907000D01*
X108743000Y-81907000D01*
X108743000Y-81653000D01*
X108763000Y-81653000D01*
X108763000Y-80446183D01*
X108530974Y-80325042D01*
X108115053Y-80497312D01*
X107683179Y-80891510D01*
X107625664Y-81014228D01*
X107409670Y-80690971D01*
X107235000Y-80574260D01*
X107235000Y-77905740D01*
X107409670Y-77789029D01*
X107625664Y-77465772D01*
X107683179Y-77588490D01*
X108115053Y-77982688D01*
X108530974Y-78154958D01*
X108763000Y-78033817D01*
X108763000Y-76827000D01*
X108743000Y-76827000D01*
X108743000Y-76573000D01*
X108763000Y-76573000D01*
X108763000Y-76553000D01*
X109017000Y-76553000D01*
X109017000Y-76573000D01*
X109017000Y-76573000D01*
G37*
X109017000Y-76573000D02*
X109037000Y-76573000D01*
X109037000Y-76827000D01*
X109017000Y-76827000D01*
X109017000Y-78033817D01*
X109249026Y-78154958D01*
X109664947Y-77982688D01*
X110096821Y-77588490D01*
X110154336Y-77465772D01*
X110370330Y-77789029D01*
X110545000Y-77905740D01*
X110545000Y-80574260D01*
X110370330Y-80690971D01*
X110154336Y-81014228D01*
X110096821Y-80891510D01*
X109664947Y-80497312D01*
X109249026Y-80325042D01*
X109017000Y-80446183D01*
X109017000Y-81653000D01*
X109037000Y-81653000D01*
X109037000Y-81907000D01*
X109017000Y-81907000D01*
X109017000Y-84193000D01*
X109037000Y-84193000D01*
X109037000Y-84447000D01*
X109017000Y-84447000D01*
X109017000Y-84467000D01*
X108763000Y-84467000D01*
X108763000Y-84447000D01*
X108743000Y-84447000D01*
X108743000Y-84193000D01*
X108763000Y-84193000D01*
X108763000Y-81907000D01*
X108743000Y-81907000D01*
X108743000Y-81653000D01*
X108763000Y-81653000D01*
X108763000Y-80446183D01*
X108530974Y-80325042D01*
X108115053Y-80497312D01*
X107683179Y-80891510D01*
X107625664Y-81014228D01*
X107409670Y-80690971D01*
X107235000Y-80574260D01*
X107235000Y-77905740D01*
X107409670Y-77789029D01*
X107625664Y-77465772D01*
X107683179Y-77588490D01*
X108115053Y-77982688D01*
X108530974Y-78154958D01*
X108763000Y-78033817D01*
X108763000Y-76827000D01*
X108743000Y-76827000D01*
X108743000Y-76573000D01*
X108763000Y-76573000D01*
X108763000Y-76553000D01*
X109017000Y-76553000D01*
X109017000Y-76573000D01*
M02*
