G04 #@! TF.FileFunction,Soldermask,Top*
%FSLAX46Y46*%
G04 Gerber Fmt 4.6, Leading zero omitted, Abs format (unit mm)*
G04 Created by KiCad (PCBNEW 4.0.2-stable) date Tue 04 Oct 2016 01:03:21 PM CEST*
%MOMM*%
G01*
G04 APERTURE LIST*
%ADD10C,0.100000*%
G04 APERTURE END LIST*
D10*
G36*
X75971211Y-123167040D02*
X76156325Y-123205039D01*
X76330528Y-123278267D01*
X76487194Y-123383939D01*
X76620352Y-123518031D01*
X76724929Y-123675430D01*
X76796937Y-123850137D01*
X76833575Y-124035170D01*
X76833575Y-124035180D01*
X76833641Y-124035514D01*
X76830627Y-124251355D01*
X76830551Y-124251689D01*
X76830551Y-124251701D01*
X76788764Y-124435630D01*
X76711901Y-124608266D01*
X76602969Y-124762685D01*
X76466123Y-124893003D01*
X76306570Y-124994258D01*
X76130385Y-125062597D01*
X75944287Y-125095410D01*
X75755356Y-125091453D01*
X75570786Y-125050873D01*
X75397623Y-124975220D01*
X75242449Y-124867371D01*
X75111176Y-124731433D01*
X75008811Y-124572594D01*
X74939245Y-124396892D01*
X74905131Y-124211019D01*
X74907770Y-124022067D01*
X74947058Y-123837228D01*
X75021504Y-123663535D01*
X75128267Y-123507612D01*
X75263284Y-123375393D01*
X75421407Y-123271920D01*
X75596619Y-123201130D01*
X75782240Y-123165721D01*
X75971211Y-123167040D01*
X75971211Y-123167040D01*
G37*
G36*
X124231211Y-123167040D02*
X124416325Y-123205039D01*
X124590528Y-123278267D01*
X124747194Y-123383939D01*
X124880352Y-123518031D01*
X124984929Y-123675430D01*
X125056937Y-123850137D01*
X125093575Y-124035170D01*
X125093575Y-124035180D01*
X125093641Y-124035514D01*
X125090627Y-124251355D01*
X125090551Y-124251689D01*
X125090551Y-124251701D01*
X125048764Y-124435630D01*
X124971901Y-124608266D01*
X124862969Y-124762685D01*
X124726123Y-124893003D01*
X124566570Y-124994258D01*
X124390385Y-125062597D01*
X124204287Y-125095410D01*
X124015356Y-125091453D01*
X123830786Y-125050873D01*
X123657623Y-124975220D01*
X123502449Y-124867371D01*
X123371176Y-124731433D01*
X123268811Y-124572594D01*
X123199245Y-124396892D01*
X123165131Y-124211019D01*
X123167770Y-124022067D01*
X123207058Y-123837228D01*
X123281504Y-123663535D01*
X123388267Y-123507612D01*
X123523284Y-123375393D01*
X123681407Y-123271920D01*
X123856619Y-123201130D01*
X124042240Y-123165721D01*
X124231211Y-123167040D01*
X124231211Y-123167040D01*
G37*
G36*
X83000000Y-124500000D02*
X82100000Y-124500000D01*
X82100000Y-123000000D01*
X83000000Y-123000000D01*
X83000000Y-124500000D01*
X83000000Y-124500000D01*
G37*
G36*
X84900000Y-124500000D02*
X84000000Y-124500000D01*
X84000000Y-123000000D01*
X84900000Y-123000000D01*
X84900000Y-124500000D01*
X84900000Y-124500000D01*
G37*
G36*
X79500000Y-124500000D02*
X78600000Y-124500000D01*
X78600000Y-123000000D01*
X79500000Y-123000000D01*
X79500000Y-124500000D01*
X79500000Y-124500000D01*
G37*
G36*
X81400000Y-124500000D02*
X80500000Y-124500000D01*
X80500000Y-123000000D01*
X81400000Y-123000000D01*
X81400000Y-124500000D01*
X81400000Y-124500000D01*
G37*
G36*
X86850000Y-124475000D02*
X85650000Y-124475000D01*
X85650000Y-123025000D01*
X86850000Y-123025000D01*
X86850000Y-124475000D01*
X86850000Y-124475000D01*
G37*
G36*
X88850000Y-124475000D02*
X87650000Y-124475000D01*
X87650000Y-123025000D01*
X88850000Y-123025000D01*
X88850000Y-124475000D01*
X88850000Y-124475000D01*
G37*
G36*
X90850000Y-124475000D02*
X89650000Y-124475000D01*
X89650000Y-123025000D01*
X90850000Y-123025000D01*
X90850000Y-124475000D01*
X90850000Y-124475000D01*
G37*
G36*
X92850000Y-124475000D02*
X91650000Y-124475000D01*
X91650000Y-123025000D01*
X92850000Y-123025000D01*
X92850000Y-124475000D01*
X92850000Y-124475000D01*
G37*
G36*
X75971211Y-120627040D02*
X76156325Y-120665039D01*
X76330528Y-120738267D01*
X76487194Y-120843939D01*
X76620352Y-120978031D01*
X76724929Y-121135430D01*
X76796937Y-121310137D01*
X76833575Y-121495170D01*
X76833575Y-121495180D01*
X76833641Y-121495514D01*
X76830627Y-121711355D01*
X76830551Y-121711689D01*
X76830551Y-121711701D01*
X76788764Y-121895630D01*
X76711901Y-122068266D01*
X76602969Y-122222685D01*
X76466123Y-122353003D01*
X76306570Y-122454258D01*
X76130385Y-122522597D01*
X75944287Y-122555410D01*
X75755356Y-122551453D01*
X75570786Y-122510873D01*
X75397623Y-122435220D01*
X75242449Y-122327371D01*
X75111176Y-122191433D01*
X75008811Y-122032594D01*
X74939245Y-121856892D01*
X74905131Y-121671019D01*
X74907770Y-121482067D01*
X74947058Y-121297228D01*
X75021504Y-121123535D01*
X75128267Y-120967612D01*
X75263284Y-120835393D01*
X75421407Y-120731920D01*
X75596619Y-120661130D01*
X75782240Y-120625721D01*
X75971211Y-120627040D01*
X75971211Y-120627040D01*
G37*
G36*
X124231211Y-120627040D02*
X124416325Y-120665039D01*
X124590528Y-120738267D01*
X124747194Y-120843939D01*
X124880352Y-120978031D01*
X124984929Y-121135430D01*
X125056937Y-121310137D01*
X125093575Y-121495170D01*
X125093575Y-121495180D01*
X125093641Y-121495514D01*
X125090627Y-121711355D01*
X125090551Y-121711689D01*
X125090551Y-121711701D01*
X125048764Y-121895630D01*
X124971901Y-122068266D01*
X124862969Y-122222685D01*
X124726123Y-122353003D01*
X124566570Y-122454258D01*
X124390385Y-122522597D01*
X124204287Y-122555410D01*
X124015356Y-122551453D01*
X123830786Y-122510873D01*
X123657623Y-122435220D01*
X123502449Y-122327371D01*
X123371176Y-122191433D01*
X123268811Y-122032594D01*
X123199245Y-121856892D01*
X123165131Y-121671019D01*
X123167770Y-121482067D01*
X123207058Y-121297228D01*
X123281504Y-121123535D01*
X123388267Y-120967612D01*
X123523284Y-120835393D01*
X123681407Y-120731920D01*
X123856619Y-120661130D01*
X124042240Y-120625721D01*
X124231211Y-120627040D01*
X124231211Y-120627040D01*
G37*
G36*
X83555000Y-122325000D02*
X82755000Y-122325000D01*
X82755000Y-120575000D01*
X83555000Y-120575000D01*
X83555000Y-122325000D01*
X83555000Y-122325000D01*
G37*
G36*
X82285000Y-122325000D02*
X81485000Y-122325000D01*
X81485000Y-120575000D01*
X82285000Y-120575000D01*
X82285000Y-122325000D01*
X82285000Y-122325000D01*
G37*
G36*
X81015000Y-122325000D02*
X80215000Y-122325000D01*
X80215000Y-120575000D01*
X81015000Y-120575000D01*
X81015000Y-122325000D01*
X81015000Y-122325000D01*
G37*
G36*
X79745000Y-122325000D02*
X78945000Y-122325000D01*
X78945000Y-120575000D01*
X79745000Y-120575000D01*
X79745000Y-122325000D01*
X79745000Y-122325000D01*
G37*
G36*
X92000000Y-122150000D02*
X90500000Y-122150000D01*
X90500000Y-121250000D01*
X92000000Y-121250000D01*
X92000000Y-122150000D01*
X92000000Y-122150000D01*
G37*
G36*
X86000000Y-122150000D02*
X84500000Y-122150000D01*
X84500000Y-121250000D01*
X86000000Y-121250000D01*
X86000000Y-122150000D01*
X86000000Y-122150000D01*
G37*
G36*
X87780000Y-122125000D02*
X86520000Y-122125000D01*
X86520000Y-121275000D01*
X87780000Y-121275000D01*
X87780000Y-122125000D01*
X87780000Y-122125000D01*
G37*
G36*
X89980000Y-122125000D02*
X88720000Y-122125000D01*
X88720000Y-119375000D01*
X89980000Y-119375000D01*
X89980000Y-122125000D01*
X89980000Y-122125000D01*
G37*
G36*
X92000000Y-120250000D02*
X90500000Y-120250000D01*
X90500000Y-119350000D01*
X92000000Y-119350000D01*
X92000000Y-120250000D01*
X92000000Y-120250000D01*
G37*
G36*
X86000000Y-120250000D02*
X84500000Y-120250000D01*
X84500000Y-119350000D01*
X86000000Y-119350000D01*
X86000000Y-120250000D01*
X86000000Y-120250000D01*
G37*
G36*
X87780000Y-120225000D02*
X86520000Y-120225000D01*
X86520000Y-119375000D01*
X87780000Y-119375000D01*
X87780000Y-120225000D01*
X87780000Y-120225000D01*
G37*
G36*
X119150000Y-120200000D02*
X117650000Y-120200000D01*
X117650000Y-119300000D01*
X119150000Y-119300000D01*
X119150000Y-120200000D01*
X119150000Y-120200000D01*
G37*
G36*
X124231211Y-118087040D02*
X124416325Y-118125039D01*
X124590528Y-118198267D01*
X124747194Y-118303939D01*
X124880352Y-118438031D01*
X124984929Y-118595430D01*
X125056937Y-118770137D01*
X125093575Y-118955170D01*
X125093575Y-118955180D01*
X125093641Y-118955514D01*
X125090627Y-119171355D01*
X125090551Y-119171689D01*
X125090551Y-119171701D01*
X125048764Y-119355630D01*
X124971901Y-119528266D01*
X124862969Y-119682685D01*
X124726123Y-119813003D01*
X124566570Y-119914258D01*
X124390385Y-119982597D01*
X124204287Y-120015410D01*
X124015356Y-120011453D01*
X123830786Y-119970873D01*
X123657623Y-119895220D01*
X123502449Y-119787371D01*
X123371176Y-119651433D01*
X123268811Y-119492594D01*
X123199245Y-119316892D01*
X123165131Y-119131019D01*
X123167770Y-118942067D01*
X123207058Y-118757228D01*
X123281504Y-118583535D01*
X123388267Y-118427612D01*
X123523284Y-118295393D01*
X123681407Y-118191920D01*
X123856619Y-118121130D01*
X124042240Y-118085721D01*
X124231211Y-118087040D01*
X124231211Y-118087040D01*
G37*
G36*
X75971211Y-118087040D02*
X76156325Y-118125039D01*
X76330528Y-118198267D01*
X76487194Y-118303939D01*
X76620352Y-118438031D01*
X76724929Y-118595430D01*
X76796937Y-118770137D01*
X76833575Y-118955170D01*
X76833575Y-118955180D01*
X76833641Y-118955514D01*
X76830627Y-119171355D01*
X76830551Y-119171689D01*
X76830551Y-119171701D01*
X76788764Y-119355630D01*
X76711901Y-119528266D01*
X76602969Y-119682685D01*
X76466123Y-119813003D01*
X76306570Y-119914258D01*
X76130385Y-119982597D01*
X75944287Y-120015410D01*
X75755356Y-120011453D01*
X75570786Y-119970873D01*
X75397623Y-119895220D01*
X75242449Y-119787371D01*
X75111176Y-119651433D01*
X75008811Y-119492594D01*
X74939245Y-119316892D01*
X74905131Y-119131019D01*
X74907770Y-118942067D01*
X74947058Y-118757228D01*
X75021504Y-118583535D01*
X75128267Y-118427612D01*
X75263284Y-118295393D01*
X75421407Y-118191920D01*
X75596619Y-118121130D01*
X75782240Y-118085721D01*
X75971211Y-118087040D01*
X75971211Y-118087040D01*
G37*
G36*
X121265058Y-117696451D02*
X121271254Y-117696494D01*
X121458144Y-117717457D01*
X121637402Y-117774321D01*
X121802202Y-117864921D01*
X121946266Y-117985804D01*
X122064106Y-118132368D01*
X122151234Y-118299029D01*
X122204332Y-118479439D01*
X122204336Y-118479478D01*
X122204338Y-118479486D01*
X122221379Y-118666725D01*
X122201726Y-118853710D01*
X122201723Y-118853719D01*
X122201719Y-118853759D01*
X122146107Y-119033410D01*
X122056661Y-119198838D01*
X121936786Y-119343742D01*
X121791048Y-119462603D01*
X121624999Y-119550893D01*
X121444964Y-119605248D01*
X121257800Y-119623600D01*
X120942165Y-119623600D01*
X120934942Y-119623549D01*
X120928746Y-119623506D01*
X120741856Y-119602543D01*
X120562598Y-119545679D01*
X120397798Y-119455079D01*
X120253734Y-119334196D01*
X120135894Y-119187632D01*
X120048766Y-119020971D01*
X119995668Y-118840561D01*
X119995664Y-118840522D01*
X119995662Y-118840514D01*
X119978621Y-118653275D01*
X119998274Y-118466290D01*
X119998277Y-118466281D01*
X119998281Y-118466241D01*
X120053893Y-118286590D01*
X120143339Y-118121162D01*
X120263214Y-117976258D01*
X120408952Y-117857397D01*
X120575001Y-117769107D01*
X120755036Y-117714752D01*
X120942200Y-117696400D01*
X121257835Y-117696400D01*
X121265058Y-117696451D01*
X121265058Y-117696451D01*
G37*
G36*
X97833710Y-117148274D02*
X97833719Y-117148277D01*
X97833759Y-117148281D01*
X98013410Y-117203893D01*
X98178838Y-117293339D01*
X98323742Y-117413214D01*
X98442603Y-117558952D01*
X98530893Y-117725001D01*
X98585248Y-117905036D01*
X98603600Y-118092200D01*
X98603600Y-118407800D01*
X98603506Y-118421254D01*
X98582543Y-118608144D01*
X98525679Y-118787402D01*
X98435079Y-118952202D01*
X98314196Y-119096266D01*
X98167632Y-119214106D01*
X98000971Y-119301234D01*
X97820561Y-119354332D01*
X97820522Y-119354336D01*
X97820514Y-119354338D01*
X97633275Y-119371379D01*
X97446290Y-119351726D01*
X97446281Y-119351723D01*
X97446241Y-119351719D01*
X97266590Y-119296107D01*
X97101162Y-119206661D01*
X96956258Y-119086786D01*
X96837397Y-118941048D01*
X96749107Y-118774999D01*
X96694752Y-118594964D01*
X96676400Y-118407800D01*
X96676400Y-118092200D01*
X96676494Y-118078746D01*
X96697457Y-117891856D01*
X96754321Y-117712598D01*
X96844921Y-117547798D01*
X96965804Y-117403734D01*
X97112368Y-117285894D01*
X97279029Y-117198766D01*
X97459439Y-117145668D01*
X97459478Y-117145664D01*
X97459486Y-117145662D01*
X97646725Y-117128621D01*
X97833710Y-117148274D01*
X97833710Y-117148274D01*
G37*
G36*
X110533710Y-117148274D02*
X110533719Y-117148277D01*
X110533759Y-117148281D01*
X110713410Y-117203893D01*
X110878838Y-117293339D01*
X111023742Y-117413214D01*
X111142603Y-117558952D01*
X111230893Y-117725001D01*
X111285248Y-117905036D01*
X111303600Y-118092200D01*
X111303600Y-118407800D01*
X111303506Y-118421254D01*
X111282543Y-118608144D01*
X111225679Y-118787402D01*
X111135079Y-118952202D01*
X111014196Y-119096266D01*
X110867632Y-119214106D01*
X110700971Y-119301234D01*
X110520561Y-119354332D01*
X110520522Y-119354336D01*
X110520514Y-119354338D01*
X110333275Y-119371379D01*
X110146290Y-119351726D01*
X110146281Y-119351723D01*
X110146241Y-119351719D01*
X109966590Y-119296107D01*
X109801162Y-119206661D01*
X109656258Y-119086786D01*
X109537397Y-118941048D01*
X109449107Y-118774999D01*
X109394752Y-118594964D01*
X109376400Y-118407800D01*
X109376400Y-118092200D01*
X109376494Y-118078746D01*
X109397457Y-117891856D01*
X109454321Y-117712598D01*
X109544921Y-117547798D01*
X109665804Y-117403734D01*
X109812368Y-117285894D01*
X109979029Y-117198766D01*
X110159439Y-117145668D01*
X110159478Y-117145664D01*
X110159486Y-117145662D01*
X110346725Y-117128621D01*
X110533710Y-117148274D01*
X110533710Y-117148274D01*
G37*
G36*
X107993710Y-117148274D02*
X107993719Y-117148277D01*
X107993759Y-117148281D01*
X108173410Y-117203893D01*
X108338838Y-117293339D01*
X108483742Y-117413214D01*
X108602603Y-117558952D01*
X108690893Y-117725001D01*
X108745248Y-117905036D01*
X108763600Y-118092200D01*
X108763600Y-118407800D01*
X108763506Y-118421254D01*
X108742543Y-118608144D01*
X108685679Y-118787402D01*
X108595079Y-118952202D01*
X108474196Y-119096266D01*
X108327632Y-119214106D01*
X108160971Y-119301234D01*
X107980561Y-119354332D01*
X107980522Y-119354336D01*
X107980514Y-119354338D01*
X107793275Y-119371379D01*
X107606290Y-119351726D01*
X107606281Y-119351723D01*
X107606241Y-119351719D01*
X107426590Y-119296107D01*
X107261162Y-119206661D01*
X107116258Y-119086786D01*
X106997397Y-118941048D01*
X106909107Y-118774999D01*
X106854752Y-118594964D01*
X106836400Y-118407800D01*
X106836400Y-118092200D01*
X106836494Y-118078746D01*
X106857457Y-117891856D01*
X106914321Y-117712598D01*
X107004921Y-117547798D01*
X107125804Y-117403734D01*
X107272368Y-117285894D01*
X107439029Y-117198766D01*
X107619439Y-117145668D01*
X107619478Y-117145664D01*
X107619486Y-117145662D01*
X107806725Y-117128621D01*
X107993710Y-117148274D01*
X107993710Y-117148274D01*
G37*
G36*
X105453710Y-117148274D02*
X105453719Y-117148277D01*
X105453759Y-117148281D01*
X105633410Y-117203893D01*
X105798838Y-117293339D01*
X105943742Y-117413214D01*
X106062603Y-117558952D01*
X106150893Y-117725001D01*
X106205248Y-117905036D01*
X106223600Y-118092200D01*
X106223600Y-118407800D01*
X106223506Y-118421254D01*
X106202543Y-118608144D01*
X106145679Y-118787402D01*
X106055079Y-118952202D01*
X105934196Y-119096266D01*
X105787632Y-119214106D01*
X105620971Y-119301234D01*
X105440561Y-119354332D01*
X105440522Y-119354336D01*
X105440514Y-119354338D01*
X105253275Y-119371379D01*
X105066290Y-119351726D01*
X105066281Y-119351723D01*
X105066241Y-119351719D01*
X104886590Y-119296107D01*
X104721162Y-119206661D01*
X104576258Y-119086786D01*
X104457397Y-118941048D01*
X104369107Y-118774999D01*
X104314752Y-118594964D01*
X104296400Y-118407800D01*
X104296400Y-118092200D01*
X104296494Y-118078746D01*
X104317457Y-117891856D01*
X104374321Y-117712598D01*
X104464921Y-117547798D01*
X104585804Y-117403734D01*
X104732368Y-117285894D01*
X104899029Y-117198766D01*
X105079439Y-117145668D01*
X105079478Y-117145664D01*
X105079486Y-117145662D01*
X105266725Y-117128621D01*
X105453710Y-117148274D01*
X105453710Y-117148274D01*
G37*
G36*
X113073710Y-117148274D02*
X113073719Y-117148277D01*
X113073759Y-117148281D01*
X113253410Y-117203893D01*
X113418838Y-117293339D01*
X113563742Y-117413214D01*
X113682603Y-117558952D01*
X113770893Y-117725001D01*
X113825248Y-117905036D01*
X113843600Y-118092200D01*
X113843600Y-118407800D01*
X113843506Y-118421254D01*
X113822543Y-118608144D01*
X113765679Y-118787402D01*
X113675079Y-118952202D01*
X113554196Y-119096266D01*
X113407632Y-119214106D01*
X113240971Y-119301234D01*
X113060561Y-119354332D01*
X113060522Y-119354336D01*
X113060514Y-119354338D01*
X112873275Y-119371379D01*
X112686290Y-119351726D01*
X112686281Y-119351723D01*
X112686241Y-119351719D01*
X112506590Y-119296107D01*
X112341162Y-119206661D01*
X112196258Y-119086786D01*
X112077397Y-118941048D01*
X111989107Y-118774999D01*
X111934752Y-118594964D01*
X111916400Y-118407800D01*
X111916400Y-118092200D01*
X111916494Y-118078746D01*
X111937457Y-117891856D01*
X111994321Y-117712598D01*
X112084921Y-117547798D01*
X112205804Y-117403734D01*
X112352368Y-117285894D01*
X112519029Y-117198766D01*
X112699439Y-117145668D01*
X112699478Y-117145664D01*
X112699486Y-117145662D01*
X112886725Y-117128621D01*
X113073710Y-117148274D01*
X113073710Y-117148274D01*
G37*
G36*
X102913710Y-117148274D02*
X102913719Y-117148277D01*
X102913759Y-117148281D01*
X103093410Y-117203893D01*
X103258838Y-117293339D01*
X103403742Y-117413214D01*
X103522603Y-117558952D01*
X103610893Y-117725001D01*
X103665248Y-117905036D01*
X103683600Y-118092200D01*
X103683600Y-118407800D01*
X103683506Y-118421254D01*
X103662543Y-118608144D01*
X103605679Y-118787402D01*
X103515079Y-118952202D01*
X103394196Y-119096266D01*
X103247632Y-119214106D01*
X103080971Y-119301234D01*
X102900561Y-119354332D01*
X102900522Y-119354336D01*
X102900514Y-119354338D01*
X102713275Y-119371379D01*
X102526290Y-119351726D01*
X102526281Y-119351723D01*
X102526241Y-119351719D01*
X102346590Y-119296107D01*
X102181162Y-119206661D01*
X102036258Y-119086786D01*
X101917397Y-118941048D01*
X101829107Y-118774999D01*
X101774752Y-118594964D01*
X101756400Y-118407800D01*
X101756400Y-118092200D01*
X101756494Y-118078746D01*
X101777457Y-117891856D01*
X101834321Y-117712598D01*
X101924921Y-117547798D01*
X102045804Y-117403734D01*
X102192368Y-117285894D01*
X102359029Y-117198766D01*
X102539439Y-117145668D01*
X102539478Y-117145664D01*
X102539486Y-117145662D01*
X102726725Y-117128621D01*
X102913710Y-117148274D01*
X102913710Y-117148274D01*
G37*
G36*
X100373710Y-117148274D02*
X100373719Y-117148277D01*
X100373759Y-117148281D01*
X100553410Y-117203893D01*
X100718838Y-117293339D01*
X100863742Y-117413214D01*
X100982603Y-117558952D01*
X101070893Y-117725001D01*
X101125248Y-117905036D01*
X101143600Y-118092200D01*
X101143600Y-118407800D01*
X101143506Y-118421254D01*
X101122543Y-118608144D01*
X101065679Y-118787402D01*
X100975079Y-118952202D01*
X100854196Y-119096266D01*
X100707632Y-119214106D01*
X100540971Y-119301234D01*
X100360561Y-119354332D01*
X100360522Y-119354336D01*
X100360514Y-119354338D01*
X100173275Y-119371379D01*
X99986290Y-119351726D01*
X99986281Y-119351723D01*
X99986241Y-119351719D01*
X99806590Y-119296107D01*
X99641162Y-119206661D01*
X99496258Y-119086786D01*
X99377397Y-118941048D01*
X99289107Y-118774999D01*
X99234752Y-118594964D01*
X99216400Y-118407800D01*
X99216400Y-118092200D01*
X99216494Y-118078746D01*
X99237457Y-117891856D01*
X99294321Y-117712598D01*
X99384921Y-117547798D01*
X99505804Y-117403734D01*
X99652368Y-117285894D01*
X99819029Y-117198766D01*
X99999439Y-117145668D01*
X99999478Y-117145664D01*
X99999486Y-117145662D01*
X100186725Y-117128621D01*
X100373710Y-117148274D01*
X100373710Y-117148274D01*
G37*
G36*
X95293710Y-117148274D02*
X95293719Y-117148277D01*
X95293759Y-117148281D01*
X95473410Y-117203893D01*
X95638838Y-117293339D01*
X95783742Y-117413214D01*
X95902603Y-117558952D01*
X95990893Y-117725001D01*
X96045248Y-117905036D01*
X96063600Y-118092200D01*
X96063600Y-118407800D01*
X96063506Y-118421254D01*
X96042543Y-118608144D01*
X95985679Y-118787402D01*
X95895079Y-118952202D01*
X95774196Y-119096266D01*
X95627632Y-119214106D01*
X95460971Y-119301234D01*
X95280561Y-119354332D01*
X95280522Y-119354336D01*
X95280514Y-119354338D01*
X95093275Y-119371379D01*
X94906290Y-119351726D01*
X94906281Y-119351723D01*
X94906241Y-119351719D01*
X94726590Y-119296107D01*
X94561162Y-119206661D01*
X94416258Y-119086786D01*
X94297397Y-118941048D01*
X94209107Y-118774999D01*
X94154752Y-118594964D01*
X94136400Y-118407800D01*
X94136400Y-118092200D01*
X94136494Y-118078746D01*
X94157457Y-117891856D01*
X94214321Y-117712598D01*
X94304921Y-117547798D01*
X94425804Y-117403734D01*
X94572368Y-117285894D01*
X94739029Y-117198766D01*
X94919439Y-117145668D01*
X94919478Y-117145664D01*
X94919486Y-117145662D01*
X95106725Y-117128621D01*
X95293710Y-117148274D01*
X95293710Y-117148274D01*
G37*
G36*
X116383600Y-119366000D02*
X114456400Y-119366000D01*
X114456400Y-117134000D01*
X116383600Y-117134000D01*
X116383600Y-119366000D01*
X116383600Y-119366000D01*
G37*
G36*
X90000000Y-118400000D02*
X88500000Y-118400000D01*
X88500000Y-117500000D01*
X90000000Y-117500000D01*
X90000000Y-118400000D01*
X90000000Y-118400000D01*
G37*
G36*
X92250000Y-118400000D02*
X90750000Y-118400000D01*
X90750000Y-117500000D01*
X92250000Y-117500000D01*
X92250000Y-118400000D01*
X92250000Y-118400000D01*
G37*
G36*
X87975000Y-118350000D02*
X86525000Y-118350000D01*
X86525000Y-117150000D01*
X87975000Y-117150000D01*
X87975000Y-118350000D01*
X87975000Y-118350000D01*
G37*
G36*
X85975000Y-118350000D02*
X84525000Y-118350000D01*
X84525000Y-117150000D01*
X85975000Y-117150000D01*
X85975000Y-118350000D01*
X85975000Y-118350000D01*
G37*
G36*
X119150000Y-118300000D02*
X117650000Y-118300000D01*
X117650000Y-117400000D01*
X119150000Y-117400000D01*
X119150000Y-118300000D01*
X119150000Y-118300000D01*
G37*
G36*
X75971211Y-115547040D02*
X76156325Y-115585039D01*
X76330528Y-115658267D01*
X76487194Y-115763939D01*
X76620352Y-115898031D01*
X76724929Y-116055430D01*
X76796937Y-116230137D01*
X76833575Y-116415170D01*
X76833575Y-116415180D01*
X76833641Y-116415514D01*
X76830627Y-116631355D01*
X76830551Y-116631689D01*
X76830551Y-116631701D01*
X76788764Y-116815630D01*
X76711901Y-116988266D01*
X76602969Y-117142685D01*
X76466123Y-117273003D01*
X76306570Y-117374258D01*
X76130385Y-117442597D01*
X75944287Y-117475410D01*
X75755356Y-117471453D01*
X75570786Y-117430873D01*
X75397623Y-117355220D01*
X75242449Y-117247371D01*
X75111176Y-117111433D01*
X75008811Y-116952594D01*
X74939245Y-116776892D01*
X74905131Y-116591019D01*
X74907770Y-116402067D01*
X74947058Y-116217228D01*
X75021504Y-116043535D01*
X75128267Y-115887612D01*
X75263284Y-115755393D01*
X75421407Y-115651920D01*
X75596619Y-115581130D01*
X75782240Y-115545721D01*
X75971211Y-115547040D01*
X75971211Y-115547040D01*
G37*
G36*
X124231211Y-115547040D02*
X124416325Y-115585039D01*
X124590528Y-115658267D01*
X124747194Y-115763939D01*
X124880352Y-115898031D01*
X124984929Y-116055430D01*
X125056937Y-116230137D01*
X125093575Y-116415170D01*
X125093575Y-116415180D01*
X125093641Y-116415514D01*
X125090627Y-116631355D01*
X125090551Y-116631689D01*
X125090551Y-116631701D01*
X125048764Y-116815630D01*
X124971901Y-116988266D01*
X124862969Y-117142685D01*
X124726123Y-117273003D01*
X124566570Y-117374258D01*
X124390385Y-117442597D01*
X124204287Y-117475410D01*
X124015356Y-117471453D01*
X123830786Y-117430873D01*
X123657623Y-117355220D01*
X123502449Y-117247371D01*
X123371176Y-117111433D01*
X123268811Y-116952594D01*
X123199245Y-116776892D01*
X123165131Y-116591019D01*
X123167770Y-116402067D01*
X123207058Y-116217228D01*
X123281504Y-116043535D01*
X123388267Y-115887612D01*
X123523284Y-115755393D01*
X123681407Y-115651920D01*
X123856619Y-115581130D01*
X124042240Y-115545721D01*
X124231211Y-115547040D01*
X124231211Y-115547040D01*
G37*
G36*
X121265058Y-115156451D02*
X121271254Y-115156494D01*
X121458144Y-115177457D01*
X121637402Y-115234321D01*
X121802202Y-115324921D01*
X121946266Y-115445804D01*
X122064106Y-115592368D01*
X122151234Y-115759029D01*
X122204332Y-115939439D01*
X122204336Y-115939478D01*
X122204338Y-115939486D01*
X122221379Y-116126725D01*
X122201726Y-116313710D01*
X122201723Y-116313719D01*
X122201719Y-116313759D01*
X122146107Y-116493410D01*
X122056661Y-116658838D01*
X121936786Y-116803742D01*
X121791048Y-116922603D01*
X121624999Y-117010893D01*
X121444964Y-117065248D01*
X121257800Y-117083600D01*
X120942165Y-117083600D01*
X120934942Y-117083549D01*
X120928746Y-117083506D01*
X120741856Y-117062543D01*
X120562598Y-117005679D01*
X120397798Y-116915079D01*
X120253734Y-116794196D01*
X120135894Y-116647632D01*
X120048766Y-116480971D01*
X119995668Y-116300561D01*
X119995664Y-116300522D01*
X119995662Y-116300514D01*
X119978621Y-116113275D01*
X119998274Y-115926290D01*
X119998277Y-115926281D01*
X119998281Y-115926241D01*
X120053893Y-115746590D01*
X120143339Y-115581162D01*
X120263214Y-115436258D01*
X120408952Y-115317397D01*
X120575001Y-115229107D01*
X120755036Y-115174752D01*
X120942200Y-115156400D01*
X121257835Y-115156400D01*
X121265058Y-115156451D01*
X121265058Y-115156451D01*
G37*
G36*
X82285000Y-116925000D02*
X81485000Y-116925000D01*
X81485000Y-115175000D01*
X82285000Y-115175000D01*
X82285000Y-116925000D01*
X82285000Y-116925000D01*
G37*
G36*
X81015000Y-116925000D02*
X80215000Y-116925000D01*
X80215000Y-115175000D01*
X81015000Y-115175000D01*
X81015000Y-116925000D01*
X81015000Y-116925000D01*
G37*
G36*
X79745000Y-116925000D02*
X78945000Y-116925000D01*
X78945000Y-115175000D01*
X79745000Y-115175000D01*
X79745000Y-116925000D01*
X79745000Y-116925000D01*
G37*
G36*
X83555000Y-116925000D02*
X82755000Y-116925000D01*
X82755000Y-115175000D01*
X83555000Y-115175000D01*
X83555000Y-116925000D01*
X83555000Y-116925000D01*
G37*
G36*
X90000000Y-116500000D02*
X88500000Y-116500000D01*
X88500000Y-115600000D01*
X90000000Y-115600000D01*
X90000000Y-116500000D01*
X90000000Y-116500000D01*
G37*
G36*
X92250000Y-116500000D02*
X90750000Y-116500000D01*
X90750000Y-115600000D01*
X92250000Y-115600000D01*
X92250000Y-116500000D01*
X92250000Y-116500000D01*
G37*
G36*
X87975000Y-116350000D02*
X86525000Y-116350000D01*
X86525000Y-115150000D01*
X87975000Y-115150000D01*
X87975000Y-116350000D01*
X87975000Y-116350000D01*
G37*
G36*
X85975000Y-116350000D02*
X84525000Y-116350000D01*
X84525000Y-115150000D01*
X85975000Y-115150000D01*
X85975000Y-116350000D01*
X85975000Y-116350000D01*
G37*
G36*
X101400000Y-116150000D02*
X100500000Y-116150000D01*
X100500000Y-114650000D01*
X101400000Y-114650000D01*
X101400000Y-116150000D01*
X101400000Y-116150000D01*
G37*
G36*
X107100000Y-116150000D02*
X106200000Y-116150000D01*
X106200000Y-114650000D01*
X107100000Y-114650000D01*
X107100000Y-116150000D01*
X107100000Y-116150000D01*
G37*
G36*
X109000000Y-116150000D02*
X108100000Y-116150000D01*
X108100000Y-114650000D01*
X109000000Y-114650000D01*
X109000000Y-116150000D01*
X109000000Y-116150000D01*
G37*
G36*
X112400000Y-116150000D02*
X111500000Y-116150000D01*
X111500000Y-114650000D01*
X112400000Y-114650000D01*
X112400000Y-116150000D01*
X112400000Y-116150000D01*
G37*
G36*
X110500000Y-116150000D02*
X109600000Y-116150000D01*
X109600000Y-114650000D01*
X110500000Y-114650000D01*
X110500000Y-116150000D01*
X110500000Y-116150000D01*
G37*
G36*
X117000000Y-116150000D02*
X116100000Y-116150000D01*
X116100000Y-114650000D01*
X117000000Y-114650000D01*
X117000000Y-116150000D01*
X117000000Y-116150000D01*
G37*
G36*
X94500000Y-116150000D02*
X93600000Y-116150000D01*
X93600000Y-114650000D01*
X94500000Y-114650000D01*
X94500000Y-116150000D01*
X94500000Y-116150000D01*
G37*
G36*
X96400000Y-116150000D02*
X95500000Y-116150000D01*
X95500000Y-114650000D01*
X96400000Y-114650000D01*
X96400000Y-116150000D01*
X96400000Y-116150000D01*
G37*
G36*
X99500000Y-116150000D02*
X98600000Y-116150000D01*
X98600000Y-114650000D01*
X99500000Y-114650000D01*
X99500000Y-116150000D01*
X99500000Y-116150000D01*
G37*
G36*
X102900000Y-116150000D02*
X102000000Y-116150000D01*
X102000000Y-114650000D01*
X102900000Y-114650000D01*
X102900000Y-116150000D01*
X102900000Y-116150000D01*
G37*
G36*
X104800000Y-116150000D02*
X103900000Y-116150000D01*
X103900000Y-114650000D01*
X104800000Y-114650000D01*
X104800000Y-116150000D01*
X104800000Y-116150000D01*
G37*
G36*
X115100000Y-116150000D02*
X114200000Y-116150000D01*
X114200000Y-114650000D01*
X115100000Y-114650000D01*
X115100000Y-116150000D01*
X115100000Y-116150000D01*
G37*
G36*
X119150000Y-115200000D02*
X117650000Y-115200000D01*
X117650000Y-114300000D01*
X119150000Y-114300000D01*
X119150000Y-115200000D01*
X119150000Y-115200000D01*
G37*
G36*
X124231211Y-113007040D02*
X124416325Y-113045039D01*
X124590528Y-113118267D01*
X124747194Y-113223939D01*
X124880352Y-113358031D01*
X124984929Y-113515430D01*
X125056937Y-113690137D01*
X125093575Y-113875170D01*
X125093575Y-113875180D01*
X125093641Y-113875514D01*
X125090627Y-114091355D01*
X125090551Y-114091689D01*
X125090551Y-114091701D01*
X125048764Y-114275630D01*
X124971901Y-114448266D01*
X124862969Y-114602685D01*
X124726123Y-114733003D01*
X124566570Y-114834258D01*
X124390385Y-114902597D01*
X124204287Y-114935410D01*
X124015356Y-114931453D01*
X123830786Y-114890873D01*
X123657623Y-114815220D01*
X123502449Y-114707371D01*
X123371176Y-114571433D01*
X123268811Y-114412594D01*
X123199245Y-114236892D01*
X123165131Y-114051019D01*
X123167770Y-113862067D01*
X123207058Y-113677228D01*
X123281504Y-113503535D01*
X123388267Y-113347612D01*
X123523284Y-113215393D01*
X123681407Y-113111920D01*
X123856619Y-113041130D01*
X124042240Y-113005721D01*
X124231211Y-113007040D01*
X124231211Y-113007040D01*
G37*
G36*
X75971211Y-113007040D02*
X76156325Y-113045039D01*
X76330528Y-113118267D01*
X76487194Y-113223939D01*
X76620352Y-113358031D01*
X76724929Y-113515430D01*
X76796937Y-113690137D01*
X76833575Y-113875170D01*
X76833575Y-113875180D01*
X76833641Y-113875514D01*
X76830627Y-114091355D01*
X76830551Y-114091689D01*
X76830551Y-114091701D01*
X76788764Y-114275630D01*
X76711901Y-114448266D01*
X76602969Y-114602685D01*
X76466123Y-114733003D01*
X76306570Y-114834258D01*
X76130385Y-114902597D01*
X75944287Y-114935410D01*
X75755356Y-114931453D01*
X75570786Y-114890873D01*
X75397623Y-114815220D01*
X75242449Y-114707371D01*
X75111176Y-114571433D01*
X75008811Y-114412594D01*
X74939245Y-114236892D01*
X74905131Y-114051019D01*
X74907770Y-113862067D01*
X74947058Y-113677228D01*
X75021504Y-113503535D01*
X75128267Y-113347612D01*
X75263284Y-113215393D01*
X75421407Y-113111920D01*
X75596619Y-113041130D01*
X75782240Y-113005721D01*
X75971211Y-113007040D01*
X75971211Y-113007040D01*
G37*
G36*
X121265058Y-112616451D02*
X121271254Y-112616494D01*
X121458144Y-112637457D01*
X121637402Y-112694321D01*
X121802202Y-112784921D01*
X121946266Y-112905804D01*
X122064106Y-113052368D01*
X122151234Y-113219029D01*
X122204332Y-113399439D01*
X122204336Y-113399478D01*
X122204338Y-113399486D01*
X122221379Y-113586725D01*
X122201726Y-113773710D01*
X122201723Y-113773719D01*
X122201719Y-113773759D01*
X122146107Y-113953410D01*
X122056661Y-114118838D01*
X121936786Y-114263742D01*
X121791048Y-114382603D01*
X121624999Y-114470893D01*
X121444964Y-114525248D01*
X121257800Y-114543600D01*
X120942165Y-114543600D01*
X120934942Y-114543549D01*
X120928746Y-114543506D01*
X120741856Y-114522543D01*
X120562598Y-114465679D01*
X120397798Y-114375079D01*
X120253734Y-114254196D01*
X120135894Y-114107632D01*
X120048766Y-113940971D01*
X119995668Y-113760561D01*
X119995664Y-113760522D01*
X119995662Y-113760514D01*
X119978621Y-113573275D01*
X119998274Y-113386290D01*
X119998277Y-113386281D01*
X119998281Y-113386241D01*
X120053893Y-113206590D01*
X120143339Y-113041162D01*
X120263214Y-112896258D01*
X120408952Y-112777397D01*
X120575001Y-112689107D01*
X120755036Y-112634752D01*
X120942200Y-112616400D01*
X121257835Y-112616400D01*
X121265058Y-112616451D01*
X121265058Y-112616451D01*
G37*
G36*
X119150000Y-113300000D02*
X117650000Y-113300000D01*
X117650000Y-112400000D01*
X119150000Y-112400000D01*
X119150000Y-113300000D01*
X119150000Y-113300000D01*
G37*
G36*
X100483710Y-110398274D02*
X100483719Y-110398277D01*
X100483759Y-110398281D01*
X100663410Y-110453893D01*
X100828838Y-110543339D01*
X100973742Y-110663214D01*
X101092603Y-110808952D01*
X101180893Y-110975001D01*
X101235248Y-111155036D01*
X101253600Y-111342200D01*
X101253600Y-111657800D01*
X101253506Y-111671254D01*
X101232543Y-111858144D01*
X101175679Y-112037402D01*
X101085079Y-112202202D01*
X100964196Y-112346266D01*
X100817632Y-112464106D01*
X100650971Y-112551234D01*
X100470561Y-112604332D01*
X100470522Y-112604336D01*
X100470514Y-112604338D01*
X100283275Y-112621379D01*
X100096290Y-112601726D01*
X100096281Y-112601723D01*
X100096241Y-112601719D01*
X99916590Y-112546107D01*
X99751162Y-112456661D01*
X99606258Y-112336786D01*
X99487397Y-112191048D01*
X99399107Y-112024999D01*
X99344752Y-111844964D01*
X99326400Y-111657800D01*
X99326400Y-111342200D01*
X99326494Y-111328746D01*
X99347457Y-111141856D01*
X99404321Y-110962598D01*
X99494921Y-110797798D01*
X99615804Y-110653734D01*
X99762368Y-110535894D01*
X99929029Y-110448766D01*
X100109439Y-110395668D01*
X100109478Y-110395664D01*
X100109486Y-110395662D01*
X100296725Y-110378621D01*
X100483710Y-110398274D01*
X100483710Y-110398274D01*
G37*
G36*
X92863710Y-110398274D02*
X92863719Y-110398277D01*
X92863759Y-110398281D01*
X93043410Y-110453893D01*
X93208838Y-110543339D01*
X93353742Y-110663214D01*
X93472603Y-110808952D01*
X93560893Y-110975001D01*
X93615248Y-111155036D01*
X93633600Y-111342200D01*
X93633600Y-111657800D01*
X93633506Y-111671254D01*
X93612543Y-111858144D01*
X93555679Y-112037402D01*
X93465079Y-112202202D01*
X93344196Y-112346266D01*
X93197632Y-112464106D01*
X93030971Y-112551234D01*
X92850561Y-112604332D01*
X92850522Y-112604336D01*
X92850514Y-112604338D01*
X92663275Y-112621379D01*
X92476290Y-112601726D01*
X92476281Y-112601723D01*
X92476241Y-112601719D01*
X92296590Y-112546107D01*
X92131162Y-112456661D01*
X91986258Y-112336786D01*
X91867397Y-112191048D01*
X91779107Y-112024999D01*
X91724752Y-111844964D01*
X91706400Y-111657800D01*
X91706400Y-111342200D01*
X91706494Y-111328746D01*
X91727457Y-111141856D01*
X91784321Y-110962598D01*
X91874921Y-110797798D01*
X91995804Y-110653734D01*
X92142368Y-110535894D01*
X92309029Y-110448766D01*
X92489439Y-110395668D01*
X92489478Y-110395664D01*
X92489486Y-110395662D01*
X92676725Y-110378621D01*
X92863710Y-110398274D01*
X92863710Y-110398274D01*
G37*
G36*
X97943710Y-110398274D02*
X97943719Y-110398277D01*
X97943759Y-110398281D01*
X98123410Y-110453893D01*
X98288838Y-110543339D01*
X98433742Y-110663214D01*
X98552603Y-110808952D01*
X98640893Y-110975001D01*
X98695248Y-111155036D01*
X98713600Y-111342200D01*
X98713600Y-111657800D01*
X98713506Y-111671254D01*
X98692543Y-111858144D01*
X98635679Y-112037402D01*
X98545079Y-112202202D01*
X98424196Y-112346266D01*
X98277632Y-112464106D01*
X98110971Y-112551234D01*
X97930561Y-112604332D01*
X97930522Y-112604336D01*
X97930514Y-112604338D01*
X97743275Y-112621379D01*
X97556290Y-112601726D01*
X97556281Y-112601723D01*
X97556241Y-112601719D01*
X97376590Y-112546107D01*
X97211162Y-112456661D01*
X97066258Y-112336786D01*
X96947397Y-112191048D01*
X96859107Y-112024999D01*
X96804752Y-111844964D01*
X96786400Y-111657800D01*
X96786400Y-111342200D01*
X96786494Y-111328746D01*
X96807457Y-111141856D01*
X96864321Y-110962598D01*
X96954921Y-110797798D01*
X97075804Y-110653734D01*
X97222368Y-110535894D01*
X97389029Y-110448766D01*
X97569439Y-110395668D01*
X97569478Y-110395664D01*
X97569486Y-110395662D01*
X97756725Y-110378621D01*
X97943710Y-110398274D01*
X97943710Y-110398274D01*
G37*
G36*
X87783710Y-110398274D02*
X87783719Y-110398277D01*
X87783759Y-110398281D01*
X87963410Y-110453893D01*
X88128838Y-110543339D01*
X88273742Y-110663214D01*
X88392603Y-110808952D01*
X88480893Y-110975001D01*
X88535248Y-111155036D01*
X88553600Y-111342200D01*
X88553600Y-111657800D01*
X88553506Y-111671254D01*
X88532543Y-111858144D01*
X88475679Y-112037402D01*
X88385079Y-112202202D01*
X88264196Y-112346266D01*
X88117632Y-112464106D01*
X87950971Y-112551234D01*
X87770561Y-112604332D01*
X87770522Y-112604336D01*
X87770514Y-112604338D01*
X87583275Y-112621379D01*
X87396290Y-112601726D01*
X87396281Y-112601723D01*
X87396241Y-112601719D01*
X87216590Y-112546107D01*
X87051162Y-112456661D01*
X86906258Y-112336786D01*
X86787397Y-112191048D01*
X86699107Y-112024999D01*
X86644752Y-111844964D01*
X86626400Y-111657800D01*
X86626400Y-111342200D01*
X86626494Y-111328746D01*
X86647457Y-111141856D01*
X86704321Y-110962598D01*
X86794921Y-110797798D01*
X86915804Y-110653734D01*
X87062368Y-110535894D01*
X87229029Y-110448766D01*
X87409439Y-110395668D01*
X87409478Y-110395664D01*
X87409486Y-110395662D01*
X87596725Y-110378621D01*
X87783710Y-110398274D01*
X87783710Y-110398274D01*
G37*
G36*
X103023710Y-110398274D02*
X103023719Y-110398277D01*
X103023759Y-110398281D01*
X103203410Y-110453893D01*
X103368838Y-110543339D01*
X103513742Y-110663214D01*
X103632603Y-110808952D01*
X103720893Y-110975001D01*
X103775248Y-111155036D01*
X103793600Y-111342200D01*
X103793600Y-111657800D01*
X103793506Y-111671254D01*
X103772543Y-111858144D01*
X103715679Y-112037402D01*
X103625079Y-112202202D01*
X103504196Y-112346266D01*
X103357632Y-112464106D01*
X103190971Y-112551234D01*
X103010561Y-112604332D01*
X103010522Y-112604336D01*
X103010514Y-112604338D01*
X102823275Y-112621379D01*
X102636290Y-112601726D01*
X102636281Y-112601723D01*
X102636241Y-112601719D01*
X102456590Y-112546107D01*
X102291162Y-112456661D01*
X102146258Y-112336786D01*
X102027397Y-112191048D01*
X101939107Y-112024999D01*
X101884752Y-111844964D01*
X101866400Y-111657800D01*
X101866400Y-111342200D01*
X101866494Y-111328746D01*
X101887457Y-111141856D01*
X101944321Y-110962598D01*
X102034921Y-110797798D01*
X102155804Y-110653734D01*
X102302368Y-110535894D01*
X102469029Y-110448766D01*
X102649439Y-110395668D01*
X102649478Y-110395664D01*
X102649486Y-110395662D01*
X102836725Y-110378621D01*
X103023710Y-110398274D01*
X103023710Y-110398274D01*
G37*
G36*
X105563710Y-110398274D02*
X105563719Y-110398277D01*
X105563759Y-110398281D01*
X105743410Y-110453893D01*
X105908838Y-110543339D01*
X106053742Y-110663214D01*
X106172603Y-110808952D01*
X106260893Y-110975001D01*
X106315248Y-111155036D01*
X106333600Y-111342200D01*
X106333600Y-111657800D01*
X106333506Y-111671254D01*
X106312543Y-111858144D01*
X106255679Y-112037402D01*
X106165079Y-112202202D01*
X106044196Y-112346266D01*
X105897632Y-112464106D01*
X105730971Y-112551234D01*
X105550561Y-112604332D01*
X105550522Y-112604336D01*
X105550514Y-112604338D01*
X105363275Y-112621379D01*
X105176290Y-112601726D01*
X105176281Y-112601723D01*
X105176241Y-112601719D01*
X104996590Y-112546107D01*
X104831162Y-112456661D01*
X104686258Y-112336786D01*
X104567397Y-112191048D01*
X104479107Y-112024999D01*
X104424752Y-111844964D01*
X104406400Y-111657800D01*
X104406400Y-111342200D01*
X104406494Y-111328746D01*
X104427457Y-111141856D01*
X104484321Y-110962598D01*
X104574921Y-110797798D01*
X104695804Y-110653734D01*
X104842368Y-110535894D01*
X105009029Y-110448766D01*
X105189439Y-110395668D01*
X105189478Y-110395664D01*
X105189486Y-110395662D01*
X105376725Y-110378621D01*
X105563710Y-110398274D01*
X105563710Y-110398274D01*
G37*
G36*
X90323710Y-110398274D02*
X90323719Y-110398277D01*
X90323759Y-110398281D01*
X90503410Y-110453893D01*
X90668838Y-110543339D01*
X90813742Y-110663214D01*
X90932603Y-110808952D01*
X91020893Y-110975001D01*
X91075248Y-111155036D01*
X91093600Y-111342200D01*
X91093600Y-111657800D01*
X91093506Y-111671254D01*
X91072543Y-111858144D01*
X91015679Y-112037402D01*
X90925079Y-112202202D01*
X90804196Y-112346266D01*
X90657632Y-112464106D01*
X90490971Y-112551234D01*
X90310561Y-112604332D01*
X90310522Y-112604336D01*
X90310514Y-112604338D01*
X90123275Y-112621379D01*
X89936290Y-112601726D01*
X89936281Y-112601723D01*
X89936241Y-112601719D01*
X89756590Y-112546107D01*
X89591162Y-112456661D01*
X89446258Y-112336786D01*
X89327397Y-112191048D01*
X89239107Y-112024999D01*
X89184752Y-111844964D01*
X89166400Y-111657800D01*
X89166400Y-111342200D01*
X89166494Y-111328746D01*
X89187457Y-111141856D01*
X89244321Y-110962598D01*
X89334921Y-110797798D01*
X89455804Y-110653734D01*
X89602368Y-110535894D01*
X89769029Y-110448766D01*
X89949439Y-110395668D01*
X89949478Y-110395664D01*
X89949486Y-110395662D01*
X90136725Y-110378621D01*
X90323710Y-110398274D01*
X90323710Y-110398274D01*
G37*
G36*
X85243710Y-110398274D02*
X85243719Y-110398277D01*
X85243759Y-110398281D01*
X85423410Y-110453893D01*
X85588838Y-110543339D01*
X85733742Y-110663214D01*
X85852603Y-110808952D01*
X85940893Y-110975001D01*
X85995248Y-111155036D01*
X86013600Y-111342200D01*
X86013600Y-111657800D01*
X86013506Y-111671254D01*
X85992543Y-111858144D01*
X85935679Y-112037402D01*
X85845079Y-112202202D01*
X85724196Y-112346266D01*
X85577632Y-112464106D01*
X85410971Y-112551234D01*
X85230561Y-112604332D01*
X85230522Y-112604336D01*
X85230514Y-112604338D01*
X85043275Y-112621379D01*
X84856290Y-112601726D01*
X84856281Y-112601723D01*
X84856241Y-112601719D01*
X84676590Y-112546107D01*
X84511162Y-112456661D01*
X84366258Y-112336786D01*
X84247397Y-112191048D01*
X84159107Y-112024999D01*
X84104752Y-111844964D01*
X84086400Y-111657800D01*
X84086400Y-111342200D01*
X84086494Y-111328746D01*
X84107457Y-111141856D01*
X84164321Y-110962598D01*
X84254921Y-110797798D01*
X84375804Y-110653734D01*
X84522368Y-110535894D01*
X84689029Y-110448766D01*
X84869439Y-110395668D01*
X84869478Y-110395664D01*
X84869486Y-110395662D01*
X85056725Y-110378621D01*
X85243710Y-110398274D01*
X85243710Y-110398274D01*
G37*
G36*
X110643710Y-110398274D02*
X110643719Y-110398277D01*
X110643759Y-110398281D01*
X110823410Y-110453893D01*
X110988838Y-110543339D01*
X111133742Y-110663214D01*
X111252603Y-110808952D01*
X111340893Y-110975001D01*
X111395248Y-111155036D01*
X111413600Y-111342200D01*
X111413600Y-111657800D01*
X111413506Y-111671254D01*
X111392543Y-111858144D01*
X111335679Y-112037402D01*
X111245079Y-112202202D01*
X111124196Y-112346266D01*
X110977632Y-112464106D01*
X110810971Y-112551234D01*
X110630561Y-112604332D01*
X110630522Y-112604336D01*
X110630514Y-112604338D01*
X110443275Y-112621379D01*
X110256290Y-112601726D01*
X110256281Y-112601723D01*
X110256241Y-112601719D01*
X110076590Y-112546107D01*
X109911162Y-112456661D01*
X109766258Y-112336786D01*
X109647397Y-112191048D01*
X109559107Y-112024999D01*
X109504752Y-111844964D01*
X109486400Y-111657800D01*
X109486400Y-111342200D01*
X109486494Y-111328746D01*
X109507457Y-111141856D01*
X109564321Y-110962598D01*
X109654921Y-110797798D01*
X109775804Y-110653734D01*
X109922368Y-110535894D01*
X110089029Y-110448766D01*
X110269439Y-110395668D01*
X110269478Y-110395664D01*
X110269486Y-110395662D01*
X110456725Y-110378621D01*
X110643710Y-110398274D01*
X110643710Y-110398274D01*
G37*
G36*
X108103710Y-110398274D02*
X108103719Y-110398277D01*
X108103759Y-110398281D01*
X108283410Y-110453893D01*
X108448838Y-110543339D01*
X108593742Y-110663214D01*
X108712603Y-110808952D01*
X108800893Y-110975001D01*
X108855248Y-111155036D01*
X108873600Y-111342200D01*
X108873600Y-111657800D01*
X108873506Y-111671254D01*
X108852543Y-111858144D01*
X108795679Y-112037402D01*
X108705079Y-112202202D01*
X108584196Y-112346266D01*
X108437632Y-112464106D01*
X108270971Y-112551234D01*
X108090561Y-112604332D01*
X108090522Y-112604336D01*
X108090514Y-112604338D01*
X107903275Y-112621379D01*
X107716290Y-112601726D01*
X107716281Y-112601723D01*
X107716241Y-112601719D01*
X107536590Y-112546107D01*
X107371162Y-112456661D01*
X107226258Y-112336786D01*
X107107397Y-112191048D01*
X107019107Y-112024999D01*
X106964752Y-111844964D01*
X106946400Y-111657800D01*
X106946400Y-111342200D01*
X106946494Y-111328746D01*
X106967457Y-111141856D01*
X107024321Y-110962598D01*
X107114921Y-110797798D01*
X107235804Y-110653734D01*
X107382368Y-110535894D01*
X107549029Y-110448766D01*
X107729439Y-110395668D01*
X107729478Y-110395664D01*
X107729486Y-110395662D01*
X107916725Y-110378621D01*
X108103710Y-110398274D01*
X108103710Y-110398274D01*
G37*
G36*
X95403710Y-110398274D02*
X95403719Y-110398277D01*
X95403759Y-110398281D01*
X95583410Y-110453893D01*
X95748838Y-110543339D01*
X95893742Y-110663214D01*
X96012603Y-110808952D01*
X96100893Y-110975001D01*
X96155248Y-111155036D01*
X96173600Y-111342200D01*
X96173600Y-111657800D01*
X96173506Y-111671254D01*
X96152543Y-111858144D01*
X96095679Y-112037402D01*
X96005079Y-112202202D01*
X95884196Y-112346266D01*
X95737632Y-112464106D01*
X95570971Y-112551234D01*
X95390561Y-112604332D01*
X95390522Y-112604336D01*
X95390514Y-112604338D01*
X95203275Y-112621379D01*
X95016290Y-112601726D01*
X95016281Y-112601723D01*
X95016241Y-112601719D01*
X94836590Y-112546107D01*
X94671162Y-112456661D01*
X94526258Y-112336786D01*
X94407397Y-112191048D01*
X94319107Y-112024999D01*
X94264752Y-111844964D01*
X94246400Y-111657800D01*
X94246400Y-111342200D01*
X94246494Y-111328746D01*
X94267457Y-111141856D01*
X94324321Y-110962598D01*
X94414921Y-110797798D01*
X94535804Y-110653734D01*
X94682368Y-110535894D01*
X94849029Y-110448766D01*
X95029439Y-110395668D01*
X95029478Y-110395664D01*
X95029486Y-110395662D01*
X95216725Y-110378621D01*
X95403710Y-110398274D01*
X95403710Y-110398274D01*
G37*
G36*
X113953600Y-112616000D02*
X112026400Y-112616000D01*
X112026400Y-110384000D01*
X113953600Y-110384000D01*
X113953600Y-112616000D01*
X113953600Y-112616000D01*
G37*
G36*
X124231211Y-110467040D02*
X124416325Y-110505039D01*
X124590528Y-110578267D01*
X124747194Y-110683939D01*
X124880352Y-110818031D01*
X124984929Y-110975430D01*
X125056937Y-111150137D01*
X125093575Y-111335170D01*
X125093575Y-111335180D01*
X125093641Y-111335514D01*
X125090627Y-111551355D01*
X125090551Y-111551689D01*
X125090551Y-111551701D01*
X125048764Y-111735630D01*
X124971901Y-111908266D01*
X124862969Y-112062685D01*
X124726123Y-112193003D01*
X124566570Y-112294258D01*
X124390385Y-112362597D01*
X124204287Y-112395410D01*
X124015356Y-112391453D01*
X123830786Y-112350873D01*
X123657623Y-112275220D01*
X123502449Y-112167371D01*
X123371176Y-112031433D01*
X123268811Y-111872594D01*
X123199245Y-111696892D01*
X123165131Y-111511019D01*
X123167770Y-111322067D01*
X123207058Y-111137228D01*
X123281504Y-110963535D01*
X123388267Y-110807612D01*
X123523284Y-110675393D01*
X123681407Y-110571920D01*
X123856619Y-110501130D01*
X124042240Y-110465721D01*
X124231211Y-110467040D01*
X124231211Y-110467040D01*
G37*
G36*
X75971211Y-110467040D02*
X76156325Y-110505039D01*
X76330528Y-110578267D01*
X76487194Y-110683939D01*
X76620352Y-110818031D01*
X76724929Y-110975430D01*
X76796937Y-111150137D01*
X76833575Y-111335170D01*
X76833575Y-111335180D01*
X76833641Y-111335514D01*
X76830627Y-111551355D01*
X76830551Y-111551689D01*
X76830551Y-111551701D01*
X76788764Y-111735630D01*
X76711901Y-111908266D01*
X76602969Y-112062685D01*
X76466123Y-112193003D01*
X76306570Y-112294258D01*
X76130385Y-112362597D01*
X75944287Y-112395410D01*
X75755356Y-112391453D01*
X75570786Y-112350873D01*
X75397623Y-112275220D01*
X75242449Y-112167371D01*
X75111176Y-112031433D01*
X75008811Y-111872594D01*
X74939245Y-111696892D01*
X74905131Y-111511019D01*
X74907770Y-111322067D01*
X74947058Y-111137228D01*
X75021504Y-110963535D01*
X75128267Y-110807612D01*
X75263284Y-110675393D01*
X75421407Y-110571920D01*
X75596619Y-110501130D01*
X75782240Y-110465721D01*
X75971211Y-110467040D01*
X75971211Y-110467040D01*
G37*
G36*
X121265058Y-110076451D02*
X121271254Y-110076494D01*
X121458144Y-110097457D01*
X121637402Y-110154321D01*
X121802202Y-110244921D01*
X121946266Y-110365804D01*
X122064106Y-110512368D01*
X122151234Y-110679029D01*
X122204332Y-110859439D01*
X122204336Y-110859478D01*
X122204338Y-110859486D01*
X122221379Y-111046725D01*
X122201726Y-111233710D01*
X122201723Y-111233719D01*
X122201719Y-111233759D01*
X122146107Y-111413410D01*
X122056661Y-111578838D01*
X121936786Y-111723742D01*
X121791048Y-111842603D01*
X121624999Y-111930893D01*
X121444964Y-111985248D01*
X121257800Y-112003600D01*
X120942165Y-112003600D01*
X120934942Y-112003549D01*
X120928746Y-112003506D01*
X120741856Y-111982543D01*
X120562598Y-111925679D01*
X120397798Y-111835079D01*
X120253734Y-111714196D01*
X120135894Y-111567632D01*
X120048766Y-111400971D01*
X119995668Y-111220561D01*
X119995664Y-111220522D01*
X119995662Y-111220514D01*
X119978621Y-111033275D01*
X119998274Y-110846290D01*
X119998277Y-110846281D01*
X119998281Y-110846241D01*
X120053893Y-110666590D01*
X120143339Y-110501162D01*
X120263214Y-110356258D01*
X120408952Y-110237397D01*
X120575001Y-110149107D01*
X120755036Y-110094752D01*
X120942200Y-110076400D01*
X121257835Y-110076400D01*
X121265058Y-110076451D01*
X121265058Y-110076451D01*
G37*
G36*
X119150000Y-111600000D02*
X117650000Y-111600000D01*
X117650000Y-110700000D01*
X119150000Y-110700000D01*
X119150000Y-111600000D01*
X119150000Y-111600000D01*
G37*
G36*
X124231211Y-107927040D02*
X124416325Y-107965039D01*
X124590528Y-108038267D01*
X124747194Y-108143939D01*
X124880352Y-108278031D01*
X124984929Y-108435430D01*
X125056937Y-108610137D01*
X125093575Y-108795170D01*
X125093575Y-108795180D01*
X125093641Y-108795514D01*
X125090627Y-109011355D01*
X125090551Y-109011689D01*
X125090551Y-109011701D01*
X125048764Y-109195630D01*
X124971901Y-109368266D01*
X124862969Y-109522685D01*
X124726123Y-109653003D01*
X124566570Y-109754258D01*
X124390385Y-109822597D01*
X124204287Y-109855410D01*
X124015356Y-109851453D01*
X123830786Y-109810873D01*
X123657623Y-109735220D01*
X123502449Y-109627371D01*
X123371176Y-109491433D01*
X123268811Y-109332594D01*
X123199245Y-109156892D01*
X123165131Y-108971019D01*
X123167770Y-108782067D01*
X123207058Y-108597228D01*
X123281504Y-108423535D01*
X123388267Y-108267612D01*
X123523284Y-108135393D01*
X123681407Y-108031920D01*
X123856619Y-107961130D01*
X124042240Y-107925721D01*
X124231211Y-107927040D01*
X124231211Y-107927040D01*
G37*
G36*
X75971211Y-107927040D02*
X76156325Y-107965039D01*
X76330528Y-108038267D01*
X76487194Y-108143939D01*
X76620352Y-108278031D01*
X76724929Y-108435430D01*
X76796937Y-108610137D01*
X76833575Y-108795170D01*
X76833575Y-108795180D01*
X76833641Y-108795514D01*
X76830627Y-109011355D01*
X76830551Y-109011689D01*
X76830551Y-109011701D01*
X76788764Y-109195630D01*
X76711901Y-109368266D01*
X76602969Y-109522685D01*
X76466123Y-109653003D01*
X76306570Y-109754258D01*
X76130385Y-109822597D01*
X75944287Y-109855410D01*
X75755356Y-109851453D01*
X75570786Y-109810873D01*
X75397623Y-109735220D01*
X75242449Y-109627371D01*
X75111176Y-109491433D01*
X75008811Y-109332594D01*
X74939245Y-109156892D01*
X74905131Y-108971019D01*
X74907770Y-108782067D01*
X74947058Y-108597228D01*
X75021504Y-108423535D01*
X75128267Y-108267612D01*
X75263284Y-108135393D01*
X75421407Y-108031920D01*
X75596619Y-107961130D01*
X75782240Y-107925721D01*
X75971211Y-107927040D01*
X75971211Y-107927040D01*
G37*
G36*
X119150000Y-109700000D02*
X117650000Y-109700000D01*
X117650000Y-108800000D01*
X119150000Y-108800000D01*
X119150000Y-109700000D01*
X119150000Y-109700000D01*
G37*
G36*
X121265058Y-107536451D02*
X121271254Y-107536494D01*
X121458144Y-107557457D01*
X121637402Y-107614321D01*
X121802202Y-107704921D01*
X121946266Y-107825804D01*
X122064106Y-107972368D01*
X122151234Y-108139029D01*
X122204332Y-108319439D01*
X122204336Y-108319478D01*
X122204338Y-108319486D01*
X122221379Y-108506725D01*
X122201726Y-108693710D01*
X122201723Y-108693719D01*
X122201719Y-108693759D01*
X122146107Y-108873410D01*
X122056661Y-109038838D01*
X121936786Y-109183742D01*
X121791048Y-109302603D01*
X121624999Y-109390893D01*
X121444964Y-109445248D01*
X121257800Y-109463600D01*
X120942165Y-109463600D01*
X120934942Y-109463549D01*
X120928746Y-109463506D01*
X120741856Y-109442543D01*
X120562598Y-109385679D01*
X120397798Y-109295079D01*
X120253734Y-109174196D01*
X120135894Y-109027632D01*
X120048766Y-108860971D01*
X119995668Y-108680561D01*
X119995664Y-108680522D01*
X119995662Y-108680514D01*
X119978621Y-108493275D01*
X119998274Y-108306290D01*
X119998277Y-108306281D01*
X119998281Y-108306241D01*
X120053893Y-108126590D01*
X120143339Y-107961162D01*
X120263214Y-107816258D01*
X120408952Y-107697397D01*
X120575001Y-107609107D01*
X120755036Y-107554752D01*
X120942200Y-107536400D01*
X121257835Y-107536400D01*
X121265058Y-107536451D01*
X121265058Y-107536451D01*
G37*
G36*
X91150000Y-109250000D02*
X90250000Y-109250000D01*
X90250000Y-107750000D01*
X91150000Y-107750000D01*
X91150000Y-109250000D01*
X91150000Y-109250000D01*
G37*
G36*
X89250000Y-109250000D02*
X88350000Y-109250000D01*
X88350000Y-107750000D01*
X89250000Y-107750000D01*
X89250000Y-109250000D01*
X89250000Y-109250000D01*
G37*
G36*
X87850000Y-109225000D02*
X86650000Y-109225000D01*
X86650000Y-107775000D01*
X87850000Y-107775000D01*
X87850000Y-109225000D01*
X87850000Y-109225000D01*
G37*
G36*
X85850000Y-109225000D02*
X84650000Y-109225000D01*
X84650000Y-107775000D01*
X85850000Y-107775000D01*
X85850000Y-109225000D01*
X85850000Y-109225000D01*
G37*
G36*
X108350000Y-108975000D02*
X107150000Y-108975000D01*
X107150000Y-107525000D01*
X108350000Y-107525000D01*
X108350000Y-108975000D01*
X108350000Y-108975000D01*
G37*
G36*
X106350000Y-108975000D02*
X105150000Y-108975000D01*
X105150000Y-107525000D01*
X106350000Y-107525000D01*
X106350000Y-108975000D01*
X106350000Y-108975000D01*
G37*
G36*
X119100000Y-107600000D02*
X117600000Y-107600000D01*
X117600000Y-106700000D01*
X119100000Y-106700000D01*
X119100000Y-107600000D01*
X119100000Y-107600000D01*
G37*
G36*
X75971211Y-105387040D02*
X76156325Y-105425039D01*
X76330528Y-105498267D01*
X76487194Y-105603939D01*
X76620352Y-105738031D01*
X76724929Y-105895430D01*
X76796937Y-106070137D01*
X76833575Y-106255170D01*
X76833575Y-106255180D01*
X76833641Y-106255514D01*
X76830627Y-106471355D01*
X76830551Y-106471689D01*
X76830551Y-106471701D01*
X76788764Y-106655630D01*
X76711901Y-106828266D01*
X76602969Y-106982685D01*
X76466123Y-107113003D01*
X76306570Y-107214258D01*
X76130385Y-107282597D01*
X75944287Y-107315410D01*
X75755356Y-107311453D01*
X75570786Y-107270873D01*
X75397623Y-107195220D01*
X75242449Y-107087371D01*
X75111176Y-106951433D01*
X75008811Y-106792594D01*
X74939245Y-106616892D01*
X74905131Y-106431019D01*
X74907770Y-106242067D01*
X74947058Y-106057228D01*
X75021504Y-105883535D01*
X75128267Y-105727612D01*
X75263284Y-105595393D01*
X75421407Y-105491920D01*
X75596619Y-105421130D01*
X75782240Y-105385721D01*
X75971211Y-105387040D01*
X75971211Y-105387040D01*
G37*
G36*
X124231211Y-105387040D02*
X124416325Y-105425039D01*
X124590528Y-105498267D01*
X124747194Y-105603939D01*
X124880352Y-105738031D01*
X124984929Y-105895430D01*
X125056937Y-106070137D01*
X125093575Y-106255170D01*
X125093575Y-106255180D01*
X125093641Y-106255514D01*
X125090627Y-106471355D01*
X125090551Y-106471689D01*
X125090551Y-106471701D01*
X125048764Y-106655630D01*
X124971901Y-106828266D01*
X124862969Y-106982685D01*
X124726123Y-107113003D01*
X124566570Y-107214258D01*
X124390385Y-107282597D01*
X124204287Y-107315410D01*
X124015356Y-107311453D01*
X123830786Y-107270873D01*
X123657623Y-107195220D01*
X123502449Y-107087371D01*
X123371176Y-106951433D01*
X123268811Y-106792594D01*
X123199245Y-106616892D01*
X123165131Y-106431019D01*
X123167770Y-106242067D01*
X123207058Y-106057228D01*
X123281504Y-105883535D01*
X123388267Y-105727612D01*
X123523284Y-105595393D01*
X123681407Y-105491920D01*
X123856619Y-105421130D01*
X124042240Y-105385721D01*
X124231211Y-105387040D01*
X124231211Y-105387040D01*
G37*
G36*
X96950000Y-107000000D02*
X95450000Y-107000000D01*
X95450000Y-106100000D01*
X96950000Y-106100000D01*
X96950000Y-107000000D01*
X96950000Y-107000000D01*
G37*
G36*
X116150000Y-107000000D02*
X114650000Y-107000000D01*
X114650000Y-106100000D01*
X116150000Y-106100000D01*
X116150000Y-107000000D01*
X116150000Y-107000000D01*
G37*
G36*
X111990000Y-106950000D02*
X108010000Y-106950000D01*
X108010000Y-105550000D01*
X111990000Y-105550000D01*
X111990000Y-106950000D01*
X111990000Y-106950000D01*
G37*
G36*
X92740000Y-106950000D02*
X88760000Y-106950000D01*
X88760000Y-105550000D01*
X92740000Y-105550000D01*
X92740000Y-106950000D01*
X92740000Y-106950000D01*
G37*
G36*
X121265058Y-104996451D02*
X121271254Y-104996494D01*
X121458144Y-105017457D01*
X121637402Y-105074321D01*
X121802202Y-105164921D01*
X121946266Y-105285804D01*
X122064106Y-105432368D01*
X122151234Y-105599029D01*
X122204332Y-105779439D01*
X122204336Y-105779478D01*
X122204338Y-105779486D01*
X122221379Y-105966725D01*
X122201726Y-106153710D01*
X122201723Y-106153719D01*
X122201719Y-106153759D01*
X122146107Y-106333410D01*
X122056661Y-106498838D01*
X121936786Y-106643742D01*
X121791048Y-106762603D01*
X121624999Y-106850893D01*
X121444964Y-106905248D01*
X121257800Y-106923600D01*
X120942165Y-106923600D01*
X120934942Y-106923549D01*
X120928746Y-106923506D01*
X120741856Y-106902543D01*
X120562598Y-106845679D01*
X120397798Y-106755079D01*
X120253734Y-106634196D01*
X120135894Y-106487632D01*
X120048766Y-106320971D01*
X119995668Y-106140561D01*
X119995664Y-106140522D01*
X119995662Y-106140514D01*
X119978621Y-105953275D01*
X119998274Y-105766290D01*
X119998277Y-105766281D01*
X119998281Y-105766241D01*
X120053893Y-105586590D01*
X120143339Y-105421162D01*
X120263214Y-105276258D01*
X120408952Y-105157397D01*
X120575001Y-105069107D01*
X120755036Y-105014752D01*
X120942200Y-104996400D01*
X121257835Y-104996400D01*
X121265058Y-104996451D01*
X121265058Y-104996451D01*
G37*
G36*
X85850000Y-106725000D02*
X84650000Y-106725000D01*
X84650000Y-105275000D01*
X85850000Y-105275000D01*
X85850000Y-106725000D01*
X85850000Y-106725000D01*
G37*
G36*
X83850000Y-106725000D02*
X82650000Y-106725000D01*
X82650000Y-105275000D01*
X83850000Y-105275000D01*
X83850000Y-106725000D01*
X83850000Y-106725000D01*
G37*
G36*
X105100000Y-106725000D02*
X103900000Y-106725000D01*
X103900000Y-105275000D01*
X105100000Y-105275000D01*
X105100000Y-106725000D01*
X105100000Y-106725000D01*
G37*
G36*
X103100000Y-106725000D02*
X101900000Y-106725000D01*
X101900000Y-105275000D01*
X103100000Y-105275000D01*
X103100000Y-106725000D01*
X103100000Y-106725000D01*
G37*
G36*
X119100000Y-105700000D02*
X117600000Y-105700000D01*
X117600000Y-104800000D01*
X119100000Y-104800000D01*
X119100000Y-105700000D01*
X119100000Y-105700000D01*
G37*
G36*
X96950000Y-105100000D02*
X95450000Y-105100000D01*
X95450000Y-104200000D01*
X96950000Y-104200000D01*
X96950000Y-105100000D01*
X96950000Y-105100000D01*
G37*
G36*
X116150000Y-105100000D02*
X114650000Y-105100000D01*
X114650000Y-104200000D01*
X116150000Y-104200000D01*
X116150000Y-105100000D01*
X116150000Y-105100000D01*
G37*
G36*
X107450000Y-104990000D02*
X106050000Y-104990000D01*
X106050000Y-101010000D01*
X107450000Y-101010000D01*
X107450000Y-104990000D01*
X107450000Y-104990000D01*
G37*
G36*
X113950000Y-104990000D02*
X112550000Y-104990000D01*
X112550000Y-101010000D01*
X113950000Y-101010000D01*
X113950000Y-104990000D01*
X113950000Y-104990000D01*
G37*
G36*
X88200000Y-104990000D02*
X86800000Y-104990000D01*
X86800000Y-101010000D01*
X88200000Y-101010000D01*
X88200000Y-104990000D01*
X88200000Y-104990000D01*
G37*
G36*
X94700000Y-104990000D02*
X93300000Y-104990000D01*
X93300000Y-101010000D01*
X94700000Y-101010000D01*
X94700000Y-104990000D01*
X94700000Y-104990000D01*
G37*
G36*
X75971211Y-102847040D02*
X76156325Y-102885039D01*
X76330528Y-102958267D01*
X76487194Y-103063939D01*
X76620352Y-103198031D01*
X76724929Y-103355430D01*
X76796937Y-103530137D01*
X76833575Y-103715170D01*
X76833575Y-103715180D01*
X76833641Y-103715514D01*
X76830627Y-103931355D01*
X76830551Y-103931689D01*
X76830551Y-103931701D01*
X76788764Y-104115630D01*
X76711901Y-104288266D01*
X76602969Y-104442685D01*
X76466123Y-104573003D01*
X76306570Y-104674258D01*
X76130385Y-104742597D01*
X75944287Y-104775410D01*
X75755356Y-104771453D01*
X75570786Y-104730873D01*
X75397623Y-104655220D01*
X75242449Y-104547371D01*
X75111176Y-104411433D01*
X75008811Y-104252594D01*
X74939245Y-104076892D01*
X74905131Y-103891019D01*
X74907770Y-103702067D01*
X74947058Y-103517228D01*
X75021504Y-103343535D01*
X75128267Y-103187612D01*
X75263284Y-103055393D01*
X75421407Y-102951920D01*
X75596619Y-102881130D01*
X75782240Y-102845721D01*
X75971211Y-102847040D01*
X75971211Y-102847040D01*
G37*
G36*
X124231211Y-102847040D02*
X124416325Y-102885039D01*
X124590528Y-102958267D01*
X124747194Y-103063939D01*
X124880352Y-103198031D01*
X124984929Y-103355430D01*
X125056937Y-103530137D01*
X125093575Y-103715170D01*
X125093575Y-103715180D01*
X125093641Y-103715514D01*
X125090627Y-103931355D01*
X125090551Y-103931689D01*
X125090551Y-103931701D01*
X125048764Y-104115630D01*
X124971901Y-104288266D01*
X124862969Y-104442685D01*
X124726123Y-104573003D01*
X124566570Y-104674258D01*
X124390385Y-104742597D01*
X124204287Y-104775410D01*
X124015356Y-104771453D01*
X123830786Y-104730873D01*
X123657623Y-104655220D01*
X123502449Y-104547371D01*
X123371176Y-104411433D01*
X123268811Y-104252594D01*
X123199245Y-104076892D01*
X123165131Y-103891019D01*
X123167770Y-103702067D01*
X123207058Y-103517228D01*
X123281504Y-103343535D01*
X123388267Y-103187612D01*
X123523284Y-103055393D01*
X123681407Y-102951920D01*
X123856619Y-102881130D01*
X124042240Y-102845721D01*
X124231211Y-102847040D01*
X124231211Y-102847040D01*
G37*
G36*
X105100000Y-104725000D02*
X103900000Y-104725000D01*
X103900000Y-103275000D01*
X105100000Y-103275000D01*
X105100000Y-104725000D01*
X105100000Y-104725000D01*
G37*
G36*
X103100000Y-104725000D02*
X101900000Y-104725000D01*
X101900000Y-103275000D01*
X103100000Y-103275000D01*
X103100000Y-104725000D01*
X103100000Y-104725000D01*
G37*
G36*
X83850000Y-104725000D02*
X82650000Y-104725000D01*
X82650000Y-103275000D01*
X83850000Y-103275000D01*
X83850000Y-104725000D01*
X83850000Y-104725000D01*
G37*
G36*
X85850000Y-104725000D02*
X84650000Y-104725000D01*
X84650000Y-103275000D01*
X85850000Y-103275000D01*
X85850000Y-104725000D01*
X85850000Y-104725000D01*
G37*
G36*
X121265058Y-102456451D02*
X121271254Y-102456494D01*
X121458144Y-102477457D01*
X121637402Y-102534321D01*
X121802202Y-102624921D01*
X121946266Y-102745804D01*
X122064106Y-102892368D01*
X122151234Y-103059029D01*
X122204332Y-103239439D01*
X122204336Y-103239478D01*
X122204338Y-103239486D01*
X122221379Y-103426725D01*
X122201726Y-103613710D01*
X122201723Y-103613719D01*
X122201719Y-103613759D01*
X122146107Y-103793410D01*
X122056661Y-103958838D01*
X121936786Y-104103742D01*
X121791048Y-104222603D01*
X121624999Y-104310893D01*
X121444964Y-104365248D01*
X121257800Y-104383600D01*
X120942165Y-104383600D01*
X120934942Y-104383549D01*
X120928746Y-104383506D01*
X120741856Y-104362543D01*
X120562598Y-104305679D01*
X120397798Y-104215079D01*
X120253734Y-104094196D01*
X120135894Y-103947632D01*
X120048766Y-103780971D01*
X119995668Y-103600561D01*
X119995664Y-103600522D01*
X119995662Y-103600514D01*
X119978621Y-103413275D01*
X119998274Y-103226290D01*
X119998277Y-103226281D01*
X119998281Y-103226241D01*
X120053893Y-103046590D01*
X120143339Y-102881162D01*
X120263214Y-102736258D01*
X120408952Y-102617397D01*
X120575001Y-102529107D01*
X120755036Y-102474752D01*
X120942200Y-102456400D01*
X121257835Y-102456400D01*
X121265058Y-102456451D01*
X121265058Y-102456451D01*
G37*
G36*
X119100000Y-104150000D02*
X117600000Y-104150000D01*
X117600000Y-103250000D01*
X119100000Y-103250000D01*
X119100000Y-104150000D01*
X119100000Y-104150000D01*
G37*
G36*
X81975000Y-103600000D02*
X80525000Y-103600000D01*
X80525000Y-102400000D01*
X81975000Y-102400000D01*
X81975000Y-103600000D01*
X81975000Y-103600000D01*
G37*
G36*
X101225000Y-103600000D02*
X99775000Y-103600000D01*
X99775000Y-102400000D01*
X101225000Y-102400000D01*
X101225000Y-103600000D01*
X101225000Y-103600000D01*
G37*
G36*
X96925000Y-103400000D02*
X95475000Y-103400000D01*
X95475000Y-102200000D01*
X96925000Y-102200000D01*
X96925000Y-103400000D01*
X96925000Y-103400000D01*
G37*
G36*
X116125000Y-103400000D02*
X114675000Y-103400000D01*
X114675000Y-102200000D01*
X116125000Y-102200000D01*
X116125000Y-103400000D01*
X116125000Y-103400000D01*
G37*
G36*
X85850000Y-102725000D02*
X84650000Y-102725000D01*
X84650000Y-101275000D01*
X85850000Y-101275000D01*
X85850000Y-102725000D01*
X85850000Y-102725000D01*
G37*
G36*
X105100000Y-102725000D02*
X103900000Y-102725000D01*
X103900000Y-101275000D01*
X105100000Y-101275000D01*
X105100000Y-102725000D01*
X105100000Y-102725000D01*
G37*
G36*
X103100000Y-102725000D02*
X101900000Y-102725000D01*
X101900000Y-101275000D01*
X103100000Y-101275000D01*
X103100000Y-102725000D01*
X103100000Y-102725000D01*
G37*
G36*
X83850000Y-102725000D02*
X82650000Y-102725000D01*
X82650000Y-101275000D01*
X83850000Y-101275000D01*
X83850000Y-102725000D01*
X83850000Y-102725000D01*
G37*
G36*
X119100000Y-102250000D02*
X117600000Y-102250000D01*
X117600000Y-101350000D01*
X119100000Y-101350000D01*
X119100000Y-102250000D01*
X119100000Y-102250000D01*
G37*
G36*
X124231211Y-100307040D02*
X124416325Y-100345039D01*
X124590528Y-100418267D01*
X124747194Y-100523939D01*
X124880352Y-100658031D01*
X124984929Y-100815430D01*
X125056937Y-100990137D01*
X125093575Y-101175170D01*
X125093575Y-101175180D01*
X125093641Y-101175514D01*
X125090627Y-101391355D01*
X125090551Y-101391689D01*
X125090551Y-101391701D01*
X125048764Y-101575630D01*
X124971901Y-101748266D01*
X124862969Y-101902685D01*
X124726123Y-102033003D01*
X124566570Y-102134258D01*
X124390385Y-102202597D01*
X124204287Y-102235410D01*
X124015356Y-102231453D01*
X123830786Y-102190873D01*
X123657623Y-102115220D01*
X123502449Y-102007371D01*
X123371176Y-101871433D01*
X123268811Y-101712594D01*
X123199245Y-101536892D01*
X123165131Y-101351019D01*
X123167770Y-101162067D01*
X123207058Y-100977228D01*
X123281504Y-100803535D01*
X123388267Y-100647612D01*
X123523284Y-100515393D01*
X123681407Y-100411920D01*
X123856619Y-100341130D01*
X124042240Y-100305721D01*
X124231211Y-100307040D01*
X124231211Y-100307040D01*
G37*
G36*
X75971211Y-100307040D02*
X76156325Y-100345039D01*
X76330528Y-100418267D01*
X76487194Y-100523939D01*
X76620352Y-100658031D01*
X76724929Y-100815430D01*
X76796937Y-100990137D01*
X76833575Y-101175170D01*
X76833575Y-101175180D01*
X76833641Y-101175514D01*
X76830627Y-101391355D01*
X76830551Y-101391689D01*
X76830551Y-101391701D01*
X76788764Y-101575630D01*
X76711901Y-101748266D01*
X76602969Y-101902685D01*
X76466123Y-102033003D01*
X76306570Y-102134258D01*
X76130385Y-102202597D01*
X75944287Y-102235410D01*
X75755356Y-102231453D01*
X75570786Y-102190873D01*
X75397623Y-102115220D01*
X75242449Y-102007371D01*
X75111176Y-101871433D01*
X75008811Y-101712594D01*
X74939245Y-101536892D01*
X74905131Y-101351019D01*
X74907770Y-101162067D01*
X74947058Y-100977228D01*
X75021504Y-100803535D01*
X75128267Y-100647612D01*
X75263284Y-100515393D01*
X75421407Y-100411920D01*
X75596619Y-100341130D01*
X75782240Y-100305721D01*
X75971211Y-100307040D01*
X75971211Y-100307040D01*
G37*
G36*
X121265058Y-99916451D02*
X121271254Y-99916494D01*
X121458144Y-99937457D01*
X121637402Y-99994321D01*
X121802202Y-100084921D01*
X121946266Y-100205804D01*
X122064106Y-100352368D01*
X122151234Y-100519029D01*
X122204332Y-100699439D01*
X122204336Y-100699478D01*
X122204338Y-100699486D01*
X122221379Y-100886725D01*
X122201726Y-101073710D01*
X122201723Y-101073719D01*
X122201719Y-101073759D01*
X122146107Y-101253410D01*
X122056661Y-101418838D01*
X121936786Y-101563742D01*
X121791048Y-101682603D01*
X121624999Y-101770893D01*
X121444964Y-101825248D01*
X121257800Y-101843600D01*
X120942165Y-101843600D01*
X120934942Y-101843549D01*
X120928746Y-101843506D01*
X120741856Y-101822543D01*
X120562598Y-101765679D01*
X120397798Y-101675079D01*
X120253734Y-101554196D01*
X120135894Y-101407632D01*
X120048766Y-101240971D01*
X119995668Y-101060561D01*
X119995664Y-101060522D01*
X119995662Y-101060514D01*
X119978621Y-100873275D01*
X119998274Y-100686290D01*
X119998277Y-100686281D01*
X119998281Y-100686241D01*
X120053893Y-100506590D01*
X120143339Y-100341162D01*
X120263214Y-100196258D01*
X120408952Y-100077397D01*
X120575001Y-99989107D01*
X120755036Y-99934752D01*
X120942200Y-99916400D01*
X121257835Y-99916400D01*
X121265058Y-99916451D01*
X121265058Y-99916451D01*
G37*
G36*
X81975000Y-101600000D02*
X80525000Y-101600000D01*
X80525000Y-100400000D01*
X81975000Y-100400000D01*
X81975000Y-101600000D01*
X81975000Y-101600000D01*
G37*
G36*
X101225000Y-101600000D02*
X99775000Y-101600000D01*
X99775000Y-100400000D01*
X101225000Y-100400000D01*
X101225000Y-101600000D01*
X101225000Y-101600000D01*
G37*
G36*
X116125000Y-101400000D02*
X114675000Y-101400000D01*
X114675000Y-100200000D01*
X116125000Y-100200000D01*
X116125000Y-101400000D01*
X116125000Y-101400000D01*
G37*
G36*
X96925000Y-101400000D02*
X95475000Y-101400000D01*
X95475000Y-100200000D01*
X96925000Y-100200000D01*
X96925000Y-101400000D01*
X96925000Y-101400000D01*
G37*
G36*
X105100000Y-100725000D02*
X103900000Y-100725000D01*
X103900000Y-99275000D01*
X105100000Y-99275000D01*
X105100000Y-100725000D01*
X105100000Y-100725000D01*
G37*
G36*
X103100000Y-100725000D02*
X101900000Y-100725000D01*
X101900000Y-99275000D01*
X103100000Y-99275000D01*
X103100000Y-100725000D01*
X103100000Y-100725000D01*
G37*
G36*
X85850000Y-100725000D02*
X84650000Y-100725000D01*
X84650000Y-99275000D01*
X85850000Y-99275000D01*
X85850000Y-100725000D01*
X85850000Y-100725000D01*
G37*
G36*
X83850000Y-100725000D02*
X82650000Y-100725000D01*
X82650000Y-99275000D01*
X83850000Y-99275000D01*
X83850000Y-100725000D01*
X83850000Y-100725000D01*
G37*
G36*
X111990000Y-100450000D02*
X108010000Y-100450000D01*
X108010000Y-99050000D01*
X111990000Y-99050000D01*
X111990000Y-100450000D01*
X111990000Y-100450000D01*
G37*
G36*
X92740000Y-100450000D02*
X88760000Y-100450000D01*
X88760000Y-99050000D01*
X92740000Y-99050000D01*
X92740000Y-100450000D01*
X92740000Y-100450000D01*
G37*
G36*
X75971211Y-97767040D02*
X76156325Y-97805039D01*
X76330528Y-97878267D01*
X76487194Y-97983939D01*
X76620352Y-98118031D01*
X76724929Y-98275430D01*
X76796937Y-98450137D01*
X76833575Y-98635170D01*
X76833575Y-98635180D01*
X76833641Y-98635514D01*
X76830627Y-98851355D01*
X76830551Y-98851689D01*
X76830551Y-98851701D01*
X76788764Y-99035630D01*
X76711901Y-99208266D01*
X76602969Y-99362685D01*
X76466123Y-99493003D01*
X76306570Y-99594258D01*
X76130385Y-99662597D01*
X75944287Y-99695410D01*
X75755356Y-99691453D01*
X75570786Y-99650873D01*
X75397623Y-99575220D01*
X75242449Y-99467371D01*
X75111176Y-99331433D01*
X75008811Y-99172594D01*
X74939245Y-98996892D01*
X74905131Y-98811019D01*
X74907770Y-98622067D01*
X74947058Y-98437228D01*
X75021504Y-98263535D01*
X75128267Y-98107612D01*
X75263284Y-97975393D01*
X75421407Y-97871920D01*
X75596619Y-97801130D01*
X75782240Y-97765721D01*
X75971211Y-97767040D01*
X75971211Y-97767040D01*
G37*
G36*
X124231211Y-97767040D02*
X124416325Y-97805039D01*
X124590528Y-97878267D01*
X124747194Y-97983939D01*
X124880352Y-98118031D01*
X124984929Y-98275430D01*
X125056937Y-98450137D01*
X125093575Y-98635170D01*
X125093575Y-98635180D01*
X125093641Y-98635514D01*
X125090627Y-98851355D01*
X125090551Y-98851689D01*
X125090551Y-98851701D01*
X125048764Y-99035630D01*
X124971901Y-99208266D01*
X124862969Y-99362685D01*
X124726123Y-99493003D01*
X124566570Y-99594258D01*
X124390385Y-99662597D01*
X124204287Y-99695410D01*
X124015356Y-99691453D01*
X123830786Y-99650873D01*
X123657623Y-99575220D01*
X123502449Y-99467371D01*
X123371176Y-99331433D01*
X123268811Y-99172594D01*
X123199245Y-98996892D01*
X123165131Y-98811019D01*
X123167770Y-98622067D01*
X123207058Y-98437228D01*
X123281504Y-98263535D01*
X123388267Y-98107612D01*
X123523284Y-97975393D01*
X123681407Y-97871920D01*
X123856619Y-97801130D01*
X124042240Y-97765721D01*
X124231211Y-97767040D01*
X124231211Y-97767040D01*
G37*
G36*
X119100000Y-99650000D02*
X117600000Y-99650000D01*
X117600000Y-98750000D01*
X119100000Y-98750000D01*
X119100000Y-99650000D01*
X119100000Y-99650000D01*
G37*
G36*
X122216000Y-99303600D02*
X119984000Y-99303600D01*
X119984000Y-97376400D01*
X122216000Y-97376400D01*
X122216000Y-99303600D01*
X122216000Y-99303600D01*
G37*
G36*
X119100000Y-97750000D02*
X117600000Y-97750000D01*
X117600000Y-96850000D01*
X119100000Y-96850000D01*
X119100000Y-97750000D01*
X119100000Y-97750000D01*
G37*
G36*
X81600000Y-97475000D02*
X80400000Y-97475000D01*
X80400000Y-96025000D01*
X81600000Y-96025000D01*
X81600000Y-97475000D01*
X81600000Y-97475000D01*
G37*
G36*
X115850000Y-97475000D02*
X114650000Y-97475000D01*
X114650000Y-96025000D01*
X115850000Y-96025000D01*
X115850000Y-97475000D01*
X115850000Y-97475000D01*
G37*
G36*
X113850000Y-97475000D02*
X112650000Y-97475000D01*
X112650000Y-96025000D01*
X113850000Y-96025000D01*
X113850000Y-97475000D01*
X113850000Y-97475000D01*
G37*
G36*
X109350000Y-97475000D02*
X108150000Y-97475000D01*
X108150000Y-96025000D01*
X109350000Y-96025000D01*
X109350000Y-97475000D01*
X109350000Y-97475000D01*
G37*
G36*
X107350000Y-97475000D02*
X106150000Y-97475000D01*
X106150000Y-96025000D01*
X107350000Y-96025000D01*
X107350000Y-97475000D01*
X107350000Y-97475000D01*
G37*
G36*
X103100000Y-97475000D02*
X101900000Y-97475000D01*
X101900000Y-96025000D01*
X103100000Y-96025000D01*
X103100000Y-97475000D01*
X103100000Y-97475000D01*
G37*
G36*
X96600000Y-97475000D02*
X95400000Y-97475000D01*
X95400000Y-96025000D01*
X96600000Y-96025000D01*
X96600000Y-97475000D01*
X96600000Y-97475000D01*
G37*
G36*
X101100000Y-97475000D02*
X99900000Y-97475000D01*
X99900000Y-96025000D01*
X101100000Y-96025000D01*
X101100000Y-97475000D01*
X101100000Y-97475000D01*
G37*
G36*
X83600000Y-97475000D02*
X82400000Y-97475000D01*
X82400000Y-96025000D01*
X83600000Y-96025000D01*
X83600000Y-97475000D01*
X83600000Y-97475000D01*
G37*
G36*
X88100000Y-97475000D02*
X86900000Y-97475000D01*
X86900000Y-96025000D01*
X88100000Y-96025000D01*
X88100000Y-97475000D01*
X88100000Y-97475000D01*
G37*
G36*
X94600000Y-97475000D02*
X93400000Y-97475000D01*
X93400000Y-96025000D01*
X94600000Y-96025000D01*
X94600000Y-97475000D01*
X94600000Y-97475000D01*
G37*
G36*
X90100000Y-97475000D02*
X88900000Y-97475000D01*
X88900000Y-96025000D01*
X90100000Y-96025000D01*
X90100000Y-97475000D01*
X90100000Y-97475000D01*
G37*
G36*
X75971211Y-95227040D02*
X76156325Y-95265039D01*
X76330528Y-95338267D01*
X76487194Y-95443939D01*
X76620352Y-95578031D01*
X76724929Y-95735430D01*
X76796937Y-95910137D01*
X76833575Y-96095170D01*
X76833575Y-96095180D01*
X76833641Y-96095514D01*
X76830627Y-96311355D01*
X76830551Y-96311689D01*
X76830551Y-96311701D01*
X76788764Y-96495630D01*
X76711901Y-96668266D01*
X76602969Y-96822685D01*
X76466123Y-96953003D01*
X76306570Y-97054258D01*
X76130385Y-97122597D01*
X75944287Y-97155410D01*
X75755356Y-97151453D01*
X75570786Y-97110873D01*
X75397623Y-97035220D01*
X75242449Y-96927371D01*
X75111176Y-96791433D01*
X75008811Y-96632594D01*
X74939245Y-96456892D01*
X74905131Y-96271019D01*
X74907770Y-96082067D01*
X74947058Y-95897228D01*
X75021504Y-95723535D01*
X75128267Y-95567612D01*
X75263284Y-95435393D01*
X75421407Y-95331920D01*
X75596619Y-95261130D01*
X75782240Y-95225721D01*
X75971211Y-95227040D01*
X75971211Y-95227040D01*
G37*
G36*
X124231211Y-95227040D02*
X124416325Y-95265039D01*
X124590528Y-95338267D01*
X124747194Y-95443939D01*
X124880352Y-95578031D01*
X124984929Y-95735430D01*
X125056937Y-95910137D01*
X125093575Y-96095170D01*
X125093575Y-96095180D01*
X125093641Y-96095514D01*
X125090627Y-96311355D01*
X125090551Y-96311689D01*
X125090551Y-96311701D01*
X125048764Y-96495630D01*
X124971901Y-96668266D01*
X124862969Y-96822685D01*
X124726123Y-96953003D01*
X124566570Y-97054258D01*
X124390385Y-97122597D01*
X124204287Y-97155410D01*
X124015356Y-97151453D01*
X123830786Y-97110873D01*
X123657623Y-97035220D01*
X123502449Y-96927371D01*
X123371176Y-96791433D01*
X123268811Y-96632594D01*
X123199245Y-96456892D01*
X123165131Y-96271019D01*
X123167770Y-96082067D01*
X123207058Y-95897228D01*
X123281504Y-95723535D01*
X123388267Y-95567612D01*
X123523284Y-95435393D01*
X123681407Y-95331920D01*
X123856619Y-95261130D01*
X124042240Y-95225721D01*
X124231211Y-95227040D01*
X124231211Y-95227040D01*
G37*
G36*
X86000000Y-96400000D02*
X84500000Y-96400000D01*
X84500000Y-95500000D01*
X86000000Y-95500000D01*
X86000000Y-96400000D01*
X86000000Y-96400000D01*
G37*
G36*
X92500000Y-96400000D02*
X91000000Y-96400000D01*
X91000000Y-95500000D01*
X92500000Y-95500000D01*
X92500000Y-96400000D01*
X92500000Y-96400000D01*
G37*
G36*
X99000000Y-96400000D02*
X97500000Y-96400000D01*
X97500000Y-95500000D01*
X99000000Y-95500000D01*
X99000000Y-96400000D01*
X99000000Y-96400000D01*
G37*
G36*
X111750000Y-96400000D02*
X110250000Y-96400000D01*
X110250000Y-95500000D01*
X111750000Y-95500000D01*
X111750000Y-96400000D01*
X111750000Y-96400000D01*
G37*
G36*
X118250000Y-96400000D02*
X116750000Y-96400000D01*
X116750000Y-95500000D01*
X118250000Y-95500000D01*
X118250000Y-96400000D01*
X118250000Y-96400000D01*
G37*
G36*
X105250000Y-96400000D02*
X103750000Y-96400000D01*
X103750000Y-95500000D01*
X105250000Y-95500000D01*
X105250000Y-96400000D01*
X105250000Y-96400000D01*
G37*
G36*
X88000000Y-95500000D02*
X87100000Y-95500000D01*
X87100000Y-94000000D01*
X88000000Y-94000000D01*
X88000000Y-95500000D01*
X88000000Y-95500000D01*
G37*
G36*
X96400000Y-95500000D02*
X95500000Y-95500000D01*
X95500000Y-94000000D01*
X96400000Y-94000000D01*
X96400000Y-95500000D01*
X96400000Y-95500000D01*
G37*
G36*
X94500000Y-95500000D02*
X93600000Y-95500000D01*
X93600000Y-94000000D01*
X94500000Y-94000000D01*
X94500000Y-95500000D01*
X94500000Y-95500000D01*
G37*
G36*
X89900000Y-95500000D02*
X89000000Y-95500000D01*
X89000000Y-94000000D01*
X89900000Y-94000000D01*
X89900000Y-95500000D01*
X89900000Y-95500000D01*
G37*
G36*
X83400000Y-95500000D02*
X82500000Y-95500000D01*
X82500000Y-94000000D01*
X83400000Y-94000000D01*
X83400000Y-95500000D01*
X83400000Y-95500000D01*
G37*
G36*
X81500000Y-95500000D02*
X80600000Y-95500000D01*
X80600000Y-94000000D01*
X81500000Y-94000000D01*
X81500000Y-95500000D01*
X81500000Y-95500000D01*
G37*
G36*
X102849999Y-95500000D02*
X101949999Y-95500000D01*
X101949999Y-94000000D01*
X102849999Y-94000000D01*
X102849999Y-95500000D01*
X102849999Y-95500000D01*
G37*
G36*
X113750000Y-95500000D02*
X112850000Y-95500000D01*
X112850000Y-94000000D01*
X113750000Y-94000000D01*
X113750000Y-95500000D01*
X113750000Y-95500000D01*
G37*
G36*
X115650000Y-95500000D02*
X114750000Y-95500000D01*
X114750000Y-94000000D01*
X115650000Y-94000000D01*
X115650000Y-95500000D01*
X115650000Y-95500000D01*
G37*
G36*
X100949999Y-95500000D02*
X100049999Y-95500000D01*
X100049999Y-94000000D01*
X100949999Y-94000000D01*
X100949999Y-95500000D01*
X100949999Y-95500000D01*
G37*
G36*
X107250000Y-95500000D02*
X106350000Y-95500000D01*
X106350000Y-94000000D01*
X107250000Y-94000000D01*
X107250000Y-95500000D01*
X107250000Y-95500000D01*
G37*
G36*
X109150000Y-95500000D02*
X108250000Y-95500000D01*
X108250000Y-94000000D01*
X109150000Y-94000000D01*
X109150000Y-95500000D01*
X109150000Y-95500000D01*
G37*
G36*
X75971211Y-92687040D02*
X76156325Y-92725039D01*
X76330528Y-92798267D01*
X76487194Y-92903939D01*
X76620352Y-93038031D01*
X76724929Y-93195430D01*
X76796937Y-93370137D01*
X76833575Y-93555170D01*
X76833575Y-93555180D01*
X76833641Y-93555514D01*
X76830627Y-93771355D01*
X76830551Y-93771689D01*
X76830551Y-93771701D01*
X76788764Y-93955630D01*
X76711901Y-94128266D01*
X76602969Y-94282685D01*
X76466123Y-94413003D01*
X76306570Y-94514258D01*
X76130385Y-94582597D01*
X75944287Y-94615410D01*
X75755356Y-94611453D01*
X75570786Y-94570873D01*
X75397623Y-94495220D01*
X75242449Y-94387371D01*
X75111176Y-94251433D01*
X75008811Y-94092594D01*
X74939245Y-93916892D01*
X74905131Y-93731019D01*
X74907770Y-93542067D01*
X74947058Y-93357228D01*
X75021504Y-93183535D01*
X75128267Y-93027612D01*
X75263284Y-92895393D01*
X75421407Y-92791920D01*
X75596619Y-92721130D01*
X75782240Y-92685721D01*
X75971211Y-92687040D01*
X75971211Y-92687040D01*
G37*
G36*
X124231211Y-92687040D02*
X124416325Y-92725039D01*
X124590528Y-92798267D01*
X124747194Y-92903939D01*
X124880352Y-93038031D01*
X124984929Y-93195430D01*
X125056937Y-93370137D01*
X125093575Y-93555170D01*
X125093575Y-93555180D01*
X125093641Y-93555514D01*
X125090627Y-93771355D01*
X125090551Y-93771689D01*
X125090551Y-93771701D01*
X125048764Y-93955630D01*
X124971901Y-94128266D01*
X124862969Y-94282685D01*
X124726123Y-94413003D01*
X124566570Y-94514258D01*
X124390385Y-94582597D01*
X124204287Y-94615410D01*
X124015356Y-94611453D01*
X123830786Y-94570873D01*
X123657623Y-94495220D01*
X123502449Y-94387371D01*
X123371176Y-94251433D01*
X123268811Y-94092594D01*
X123199245Y-93916892D01*
X123165131Y-93731019D01*
X123167770Y-93542067D01*
X123207058Y-93357228D01*
X123281504Y-93183535D01*
X123388267Y-93027612D01*
X123523284Y-92895393D01*
X123681407Y-92791920D01*
X123856619Y-92721130D01*
X124042240Y-92685721D01*
X124231211Y-92687040D01*
X124231211Y-92687040D01*
G37*
G36*
X86000000Y-94500000D02*
X84500000Y-94500000D01*
X84500000Y-93600000D01*
X86000000Y-93600000D01*
X86000000Y-94500000D01*
X86000000Y-94500000D01*
G37*
G36*
X105250000Y-94500000D02*
X103750000Y-94500000D01*
X103750000Y-93600000D01*
X105250000Y-93600000D01*
X105250000Y-94500000D01*
X105250000Y-94500000D01*
G37*
G36*
X99000000Y-94500000D02*
X97500000Y-94500000D01*
X97500000Y-93600000D01*
X99000000Y-93600000D01*
X99000000Y-94500000D01*
X99000000Y-94500000D01*
G37*
G36*
X92500000Y-94500000D02*
X91000000Y-94500000D01*
X91000000Y-93600000D01*
X92500000Y-93600000D01*
X92500000Y-94500000D01*
X92500000Y-94500000D01*
G37*
G36*
X118250000Y-94500000D02*
X116750000Y-94500000D01*
X116750000Y-93600000D01*
X118250000Y-93600000D01*
X118250000Y-94500000D01*
X118250000Y-94500000D01*
G37*
G36*
X111750000Y-94500000D02*
X110250000Y-94500000D01*
X110250000Y-93600000D01*
X111750000Y-93600000D01*
X111750000Y-94500000D01*
X111750000Y-94500000D01*
G37*
G36*
X114030000Y-93375000D02*
X112770000Y-93375000D01*
X112770000Y-92525000D01*
X114030000Y-92525000D01*
X114030000Y-93375000D01*
X114030000Y-93375000D01*
G37*
G36*
X101030000Y-93375000D02*
X99770000Y-93375000D01*
X99770000Y-92525000D01*
X101030000Y-92525000D01*
X101030000Y-93375000D01*
X101030000Y-93375000D01*
G37*
G36*
X83980000Y-93375000D02*
X82720000Y-93375000D01*
X82720000Y-90625000D01*
X83980000Y-90625000D01*
X83980000Y-93375000D01*
X83980000Y-93375000D01*
G37*
G36*
X88180000Y-93375000D02*
X86920000Y-93375000D01*
X86920000Y-92525000D01*
X88180000Y-92525000D01*
X88180000Y-93375000D01*
X88180000Y-93375000D01*
G37*
G36*
X109730000Y-93375000D02*
X108470000Y-93375000D01*
X108470000Y-90625000D01*
X109730000Y-90625000D01*
X109730000Y-93375000D01*
X109730000Y-93375000D01*
G37*
G36*
X90380000Y-93375000D02*
X89120000Y-93375000D01*
X89120000Y-90625000D01*
X90380000Y-90625000D01*
X90380000Y-93375000D01*
X90380000Y-93375000D01*
G37*
G36*
X107530000Y-93375000D02*
X106270000Y-93375000D01*
X106270000Y-92525000D01*
X107530000Y-92525000D01*
X107530000Y-93375000D01*
X107530000Y-93375000D01*
G37*
G36*
X94680000Y-93375000D02*
X93420000Y-93375000D01*
X93420000Y-92525000D01*
X94680000Y-92525000D01*
X94680000Y-93375000D01*
X94680000Y-93375000D01*
G37*
G36*
X81780000Y-93375000D02*
X80520000Y-93375000D01*
X80520000Y-92525000D01*
X81780000Y-92525000D01*
X81780000Y-93375000D01*
X81780000Y-93375000D01*
G37*
G36*
X103230000Y-93375000D02*
X101970000Y-93375000D01*
X101970000Y-90625000D01*
X103230000Y-90625000D01*
X103230000Y-93375000D01*
X103230000Y-93375000D01*
G37*
G36*
X116230000Y-93375000D02*
X114970000Y-93375000D01*
X114970000Y-90625000D01*
X116230000Y-90625000D01*
X116230000Y-93375000D01*
X116230000Y-93375000D01*
G37*
G36*
X96880000Y-93375000D02*
X95620000Y-93375000D01*
X95620000Y-90625000D01*
X96880000Y-90625000D01*
X96880000Y-93375000D01*
X96880000Y-93375000D01*
G37*
G36*
X98975000Y-93100000D02*
X97525000Y-93100000D01*
X97525000Y-91900000D01*
X98975000Y-91900000D01*
X98975000Y-93100000D01*
X98975000Y-93100000D01*
G37*
G36*
X118225000Y-93100000D02*
X116775000Y-93100000D01*
X116775000Y-91900000D01*
X118225000Y-91900000D01*
X118225000Y-93100000D01*
X118225000Y-93100000D01*
G37*
G36*
X111725000Y-93100000D02*
X110275000Y-93100000D01*
X110275000Y-91900000D01*
X111725000Y-91900000D01*
X111725000Y-93100000D01*
X111725000Y-93100000D01*
G37*
G36*
X105225000Y-93100000D02*
X103775000Y-93100000D01*
X103775000Y-91900000D01*
X105225000Y-91900000D01*
X105225000Y-93100000D01*
X105225000Y-93100000D01*
G37*
G36*
X92475000Y-93100000D02*
X91025000Y-93100000D01*
X91025000Y-91900000D01*
X92475000Y-91900000D01*
X92475000Y-93100000D01*
X92475000Y-93100000D01*
G37*
G36*
X85975000Y-93100000D02*
X84525000Y-93100000D01*
X84525000Y-91900000D01*
X85975000Y-91900000D01*
X85975000Y-93100000D01*
X85975000Y-93100000D01*
G37*
G36*
X75971211Y-90147040D02*
X76156325Y-90185039D01*
X76330528Y-90258267D01*
X76487194Y-90363939D01*
X76620352Y-90498031D01*
X76724929Y-90655430D01*
X76796937Y-90830137D01*
X76833575Y-91015170D01*
X76833575Y-91015180D01*
X76833641Y-91015514D01*
X76830627Y-91231355D01*
X76830551Y-91231689D01*
X76830551Y-91231701D01*
X76788764Y-91415630D01*
X76711901Y-91588266D01*
X76602969Y-91742685D01*
X76466123Y-91873003D01*
X76306570Y-91974258D01*
X76130385Y-92042597D01*
X75944287Y-92075410D01*
X75755356Y-92071453D01*
X75570786Y-92030873D01*
X75397623Y-91955220D01*
X75242449Y-91847371D01*
X75111176Y-91711433D01*
X75008811Y-91552594D01*
X74939245Y-91376892D01*
X74905131Y-91191019D01*
X74907770Y-91002067D01*
X74947058Y-90817228D01*
X75021504Y-90643535D01*
X75128267Y-90487612D01*
X75263284Y-90355393D01*
X75421407Y-90251920D01*
X75596619Y-90181130D01*
X75782240Y-90145721D01*
X75971211Y-90147040D01*
X75971211Y-90147040D01*
G37*
G36*
X124231211Y-90147040D02*
X124416325Y-90185039D01*
X124590528Y-90258267D01*
X124747194Y-90363939D01*
X124880352Y-90498031D01*
X124984929Y-90655430D01*
X125056937Y-90830137D01*
X125093575Y-91015170D01*
X125093575Y-91015180D01*
X125093641Y-91015514D01*
X125090627Y-91231355D01*
X125090551Y-91231689D01*
X125090551Y-91231701D01*
X125048764Y-91415630D01*
X124971901Y-91588266D01*
X124862969Y-91742685D01*
X124726123Y-91873003D01*
X124566570Y-91974258D01*
X124390385Y-92042597D01*
X124204287Y-92075410D01*
X124015356Y-92071453D01*
X123830786Y-92030873D01*
X123657623Y-91955220D01*
X123502449Y-91847371D01*
X123371176Y-91711433D01*
X123268811Y-91552594D01*
X123199245Y-91376892D01*
X123165131Y-91191019D01*
X123167770Y-91002067D01*
X123207058Y-90817228D01*
X123281504Y-90643535D01*
X123388267Y-90487612D01*
X123523284Y-90355393D01*
X123681407Y-90251920D01*
X123856619Y-90181130D01*
X124042240Y-90145721D01*
X124231211Y-90147040D01*
X124231211Y-90147040D01*
G37*
G36*
X94680000Y-91475000D02*
X93420000Y-91475000D01*
X93420000Y-90625000D01*
X94680000Y-90625000D01*
X94680000Y-91475000D01*
X94680000Y-91475000D01*
G37*
G36*
X88180000Y-91475000D02*
X86920000Y-91475000D01*
X86920000Y-90625000D01*
X88180000Y-90625000D01*
X88180000Y-91475000D01*
X88180000Y-91475000D01*
G37*
G36*
X101030000Y-91475000D02*
X99770000Y-91475000D01*
X99770000Y-90625000D01*
X101030000Y-90625000D01*
X101030000Y-91475000D01*
X101030000Y-91475000D01*
G37*
G36*
X81780000Y-91475000D02*
X80520000Y-91475000D01*
X80520000Y-90625000D01*
X81780000Y-90625000D01*
X81780000Y-91475000D01*
X81780000Y-91475000D01*
G37*
G36*
X107530000Y-91475000D02*
X106270000Y-91475000D01*
X106270000Y-90625000D01*
X107530000Y-90625000D01*
X107530000Y-91475000D01*
X107530000Y-91475000D01*
G37*
G36*
X114030000Y-91475000D02*
X112770000Y-91475000D01*
X112770000Y-90625000D01*
X114030000Y-90625000D01*
X114030000Y-91475000D01*
X114030000Y-91475000D01*
G37*
G36*
X118225000Y-91100000D02*
X116775000Y-91100000D01*
X116775000Y-89900000D01*
X118225000Y-89900000D01*
X118225000Y-91100000D01*
X118225000Y-91100000D01*
G37*
G36*
X111725000Y-91100000D02*
X110275000Y-91100000D01*
X110275000Y-89900000D01*
X111725000Y-89900000D01*
X111725000Y-91100000D01*
X111725000Y-91100000D01*
G37*
G36*
X105225000Y-91100000D02*
X103775000Y-91100000D01*
X103775000Y-89900000D01*
X105225000Y-89900000D01*
X105225000Y-91100000D01*
X105225000Y-91100000D01*
G37*
G36*
X98975000Y-91100000D02*
X97525000Y-91100000D01*
X97525000Y-89900000D01*
X98975000Y-89900000D01*
X98975000Y-91100000D01*
X98975000Y-91100000D01*
G37*
G36*
X92475000Y-91100000D02*
X91025000Y-91100000D01*
X91025000Y-89900000D01*
X92475000Y-89900000D01*
X92475000Y-91100000D01*
X92475000Y-91100000D01*
G37*
G36*
X85975000Y-91100000D02*
X84525000Y-91100000D01*
X84525000Y-89900000D01*
X85975000Y-89900000D01*
X85975000Y-91100000D01*
X85975000Y-91100000D01*
G37*
G36*
X102850000Y-90100000D02*
X100150000Y-90100000D01*
X100150000Y-88900000D01*
X102850000Y-88900000D01*
X102850000Y-90100000D01*
X102850000Y-90100000D01*
G37*
G36*
X96600000Y-90100000D02*
X93900000Y-90100000D01*
X93900000Y-88900000D01*
X96600000Y-88900000D01*
X96600000Y-90100000D01*
X96600000Y-90100000D01*
G37*
G36*
X109350000Y-90100000D02*
X106650000Y-90100000D01*
X106650000Y-88900000D01*
X109350000Y-88900000D01*
X109350000Y-90100000D01*
X109350000Y-90100000D01*
G37*
G36*
X115850000Y-90100000D02*
X113150000Y-90100000D01*
X113150000Y-88900000D01*
X115850000Y-88900000D01*
X115850000Y-90100000D01*
X115850000Y-90100000D01*
G37*
G36*
X83600000Y-90100000D02*
X80900000Y-90100000D01*
X80900000Y-88900000D01*
X83600000Y-88900000D01*
X83600000Y-90100000D01*
X83600000Y-90100000D01*
G37*
G36*
X90100000Y-90100000D02*
X87400000Y-90100000D01*
X87400000Y-88900000D01*
X90100000Y-88900000D01*
X90100000Y-90100000D01*
X90100000Y-90100000D01*
G37*
G36*
X124231211Y-87607040D02*
X124416325Y-87645039D01*
X124590528Y-87718267D01*
X124747194Y-87823939D01*
X124880352Y-87958031D01*
X124984929Y-88115430D01*
X125056937Y-88290137D01*
X125093575Y-88475170D01*
X125093575Y-88475180D01*
X125093641Y-88475514D01*
X125090627Y-88691355D01*
X125090551Y-88691689D01*
X125090551Y-88691701D01*
X125048764Y-88875630D01*
X124971901Y-89048266D01*
X124862969Y-89202685D01*
X124726123Y-89333003D01*
X124566570Y-89434258D01*
X124390385Y-89502597D01*
X124204287Y-89535410D01*
X124015356Y-89531453D01*
X123830786Y-89490873D01*
X123657623Y-89415220D01*
X123502449Y-89307371D01*
X123371176Y-89171433D01*
X123268811Y-89012594D01*
X123199245Y-88836892D01*
X123165131Y-88651019D01*
X123167770Y-88462067D01*
X123207058Y-88277228D01*
X123281504Y-88103535D01*
X123388267Y-87947612D01*
X123523284Y-87815393D01*
X123681407Y-87711920D01*
X123856619Y-87641130D01*
X124042240Y-87605721D01*
X124231211Y-87607040D01*
X124231211Y-87607040D01*
G37*
G36*
X75971211Y-87607040D02*
X76156325Y-87645039D01*
X76330528Y-87718267D01*
X76487194Y-87823939D01*
X76620352Y-87958031D01*
X76724929Y-88115430D01*
X76796937Y-88290137D01*
X76833575Y-88475170D01*
X76833575Y-88475180D01*
X76833641Y-88475514D01*
X76830627Y-88691355D01*
X76830551Y-88691689D01*
X76830551Y-88691701D01*
X76788764Y-88875630D01*
X76711901Y-89048266D01*
X76602969Y-89202685D01*
X76466123Y-89333003D01*
X76306570Y-89434258D01*
X76130385Y-89502597D01*
X75944287Y-89535410D01*
X75755356Y-89531453D01*
X75570786Y-89490873D01*
X75397623Y-89415220D01*
X75242449Y-89307371D01*
X75111176Y-89171433D01*
X75008811Y-89012594D01*
X74939245Y-88836892D01*
X74905131Y-88651019D01*
X74907770Y-88462067D01*
X74947058Y-88277228D01*
X75021504Y-88103535D01*
X75128267Y-87947612D01*
X75263284Y-87815393D01*
X75421407Y-87711920D01*
X75596619Y-87641130D01*
X75782240Y-87605721D01*
X75971211Y-87607040D01*
X75971211Y-87607040D01*
G37*
G36*
X105250000Y-88900000D02*
X103750000Y-88900000D01*
X103750000Y-88000000D01*
X105250000Y-88000000D01*
X105250000Y-88900000D01*
X105250000Y-88900000D01*
G37*
G36*
X99000000Y-88900000D02*
X97500000Y-88900000D01*
X97500000Y-88000000D01*
X99000000Y-88000000D01*
X99000000Y-88900000D01*
X99000000Y-88900000D01*
G37*
G36*
X92500000Y-88900000D02*
X91000000Y-88900000D01*
X91000000Y-88000000D01*
X92500000Y-88000000D01*
X92500000Y-88900000D01*
X92500000Y-88900000D01*
G37*
G36*
X118250000Y-88900000D02*
X116750000Y-88900000D01*
X116750000Y-88000000D01*
X118250000Y-88000000D01*
X118250000Y-88900000D01*
X118250000Y-88900000D01*
G37*
G36*
X111750000Y-88900000D02*
X110250000Y-88900000D01*
X110250000Y-88000000D01*
X111750000Y-88000000D01*
X111750000Y-88900000D01*
X111750000Y-88900000D01*
G37*
G36*
X86000000Y-88900000D02*
X84500000Y-88900000D01*
X84500000Y-88000000D01*
X86000000Y-88000000D01*
X86000000Y-88900000D01*
X86000000Y-88900000D01*
G37*
G36*
X109350000Y-87100000D02*
X106650000Y-87100000D01*
X106650000Y-85900000D01*
X109350000Y-85900000D01*
X109350000Y-87100000D01*
X109350000Y-87100000D01*
G37*
G36*
X83600000Y-87100000D02*
X80900000Y-87100000D01*
X80900000Y-85900000D01*
X83600000Y-85900000D01*
X83600000Y-87100000D01*
X83600000Y-87100000D01*
G37*
G36*
X90100000Y-87100000D02*
X87400000Y-87100000D01*
X87400000Y-85900000D01*
X90100000Y-85900000D01*
X90100000Y-87100000D01*
X90100000Y-87100000D01*
G37*
G36*
X96600000Y-87100000D02*
X93900000Y-87100000D01*
X93900000Y-85900000D01*
X96600000Y-85900000D01*
X96600000Y-87100000D01*
X96600000Y-87100000D01*
G37*
G36*
X102850000Y-87100000D02*
X100150000Y-87100000D01*
X100150000Y-85900000D01*
X102850000Y-85900000D01*
X102850000Y-87100000D01*
X102850000Y-87100000D01*
G37*
G36*
X115850000Y-87100000D02*
X113150000Y-87100000D01*
X113150000Y-85900000D01*
X115850000Y-85900000D01*
X115850000Y-87100000D01*
X115850000Y-87100000D01*
G37*
G36*
X92500000Y-87000000D02*
X91000000Y-87000000D01*
X91000000Y-86100000D01*
X92500000Y-86100000D01*
X92500000Y-87000000D01*
X92500000Y-87000000D01*
G37*
G36*
X99000000Y-87000000D02*
X97500000Y-87000000D01*
X97500000Y-86100000D01*
X99000000Y-86100000D01*
X99000000Y-87000000D01*
X99000000Y-87000000D01*
G37*
G36*
X111750000Y-87000000D02*
X110250000Y-87000000D01*
X110250000Y-86100000D01*
X111750000Y-86100000D01*
X111750000Y-87000000D01*
X111750000Y-87000000D01*
G37*
G36*
X86000000Y-87000000D02*
X84500000Y-87000000D01*
X84500000Y-86100000D01*
X86000000Y-86100000D01*
X86000000Y-87000000D01*
X86000000Y-87000000D01*
G37*
G36*
X105250000Y-87000000D02*
X103750000Y-87000000D01*
X103750000Y-86100000D01*
X105250000Y-86100000D01*
X105250000Y-87000000D01*
X105250000Y-87000000D01*
G37*
G36*
X118250000Y-87000000D02*
X116750000Y-87000000D01*
X116750000Y-86100000D01*
X118250000Y-86100000D01*
X118250000Y-87000000D01*
X118250000Y-87000000D01*
G37*
G36*
X124231211Y-85067040D02*
X124416325Y-85105039D01*
X124590528Y-85178267D01*
X124747194Y-85283939D01*
X124880352Y-85418031D01*
X124984929Y-85575430D01*
X125056937Y-85750137D01*
X125093575Y-85935170D01*
X125093575Y-85935180D01*
X125093641Y-85935514D01*
X125090627Y-86151355D01*
X125090551Y-86151689D01*
X125090551Y-86151701D01*
X125048764Y-86335630D01*
X124971901Y-86508266D01*
X124862969Y-86662685D01*
X124726123Y-86793003D01*
X124566570Y-86894258D01*
X124390385Y-86962597D01*
X124204287Y-86995410D01*
X124015356Y-86991453D01*
X123830786Y-86950873D01*
X123657623Y-86875220D01*
X123502449Y-86767371D01*
X123371176Y-86631433D01*
X123268811Y-86472594D01*
X123199245Y-86296892D01*
X123165131Y-86111019D01*
X123167770Y-85922067D01*
X123207058Y-85737228D01*
X123281504Y-85563535D01*
X123388267Y-85407612D01*
X123523284Y-85275393D01*
X123681407Y-85171920D01*
X123856619Y-85101130D01*
X124042240Y-85065721D01*
X124231211Y-85067040D01*
X124231211Y-85067040D01*
G37*
G36*
X75971211Y-85067040D02*
X76156325Y-85105039D01*
X76330528Y-85178267D01*
X76487194Y-85283939D01*
X76620352Y-85418031D01*
X76724929Y-85575430D01*
X76796937Y-85750137D01*
X76833575Y-85935170D01*
X76833575Y-85935180D01*
X76833641Y-85935514D01*
X76830627Y-86151355D01*
X76830551Y-86151689D01*
X76830551Y-86151701D01*
X76788764Y-86335630D01*
X76711901Y-86508266D01*
X76602969Y-86662685D01*
X76466123Y-86793003D01*
X76306570Y-86894258D01*
X76130385Y-86962597D01*
X75944287Y-86995410D01*
X75755356Y-86991453D01*
X75570786Y-86950873D01*
X75397623Y-86875220D01*
X75242449Y-86767371D01*
X75111176Y-86631433D01*
X75008811Y-86472594D01*
X74939245Y-86296892D01*
X74905131Y-86111019D01*
X74907770Y-85922067D01*
X74947058Y-85737228D01*
X75021504Y-85563535D01*
X75128267Y-85407612D01*
X75263284Y-85275393D01*
X75421407Y-85171920D01*
X75596619Y-85101130D01*
X75782240Y-85065721D01*
X75971211Y-85067040D01*
X75971211Y-85067040D01*
G37*
G36*
X86000000Y-85450000D02*
X84500000Y-85450000D01*
X84500000Y-84550000D01*
X86000000Y-84550000D01*
X86000000Y-85450000D01*
X86000000Y-85450000D01*
G37*
G36*
X111623710Y-83371412D02*
X111623719Y-83371415D01*
X111623759Y-83371419D01*
X111803410Y-83427031D01*
X111968838Y-83516477D01*
X112113742Y-83636352D01*
X112232603Y-83782090D01*
X112320893Y-83948139D01*
X112375248Y-84128174D01*
X112393600Y-84315338D01*
X112393600Y-84324662D01*
X112393506Y-84338116D01*
X112372543Y-84525006D01*
X112315679Y-84704264D01*
X112225079Y-84869064D01*
X112104196Y-85013128D01*
X111957632Y-85130968D01*
X111790971Y-85218096D01*
X111610561Y-85271194D01*
X111610522Y-85271198D01*
X111610514Y-85271200D01*
X111423275Y-85288241D01*
X111236290Y-85268588D01*
X111236281Y-85268585D01*
X111236241Y-85268581D01*
X111056590Y-85212969D01*
X110891162Y-85123523D01*
X110746258Y-85003648D01*
X110627397Y-84857910D01*
X110539107Y-84691861D01*
X110484752Y-84511826D01*
X110466400Y-84324662D01*
X110466400Y-84315338D01*
X110466494Y-84301884D01*
X110487457Y-84114994D01*
X110544321Y-83935736D01*
X110634921Y-83770936D01*
X110755804Y-83626872D01*
X110902368Y-83509032D01*
X111069029Y-83421904D01*
X111249439Y-83368806D01*
X111249478Y-83368802D01*
X111249486Y-83368800D01*
X111436725Y-83351759D01*
X111623710Y-83371412D01*
X111623710Y-83371412D01*
G37*
G36*
X101463710Y-83371412D02*
X101463719Y-83371415D01*
X101463759Y-83371419D01*
X101643410Y-83427031D01*
X101808838Y-83516477D01*
X101953742Y-83636352D01*
X102072603Y-83782090D01*
X102160893Y-83948139D01*
X102215248Y-84128174D01*
X102233600Y-84315338D01*
X102233600Y-84324662D01*
X102233506Y-84338116D01*
X102212543Y-84525006D01*
X102155679Y-84704264D01*
X102065079Y-84869064D01*
X101944196Y-85013128D01*
X101797632Y-85130968D01*
X101630971Y-85218096D01*
X101450561Y-85271194D01*
X101450522Y-85271198D01*
X101450514Y-85271200D01*
X101263275Y-85288241D01*
X101076290Y-85268588D01*
X101076281Y-85268585D01*
X101076241Y-85268581D01*
X100896590Y-85212969D01*
X100731162Y-85123523D01*
X100586258Y-85003648D01*
X100467397Y-84857910D01*
X100379107Y-84691861D01*
X100324752Y-84511826D01*
X100306400Y-84324662D01*
X100306400Y-84315338D01*
X100306494Y-84301884D01*
X100327457Y-84114994D01*
X100384321Y-83935736D01*
X100474921Y-83770936D01*
X100595804Y-83626872D01*
X100742368Y-83509032D01*
X100909029Y-83421904D01*
X101089439Y-83368806D01*
X101089478Y-83368802D01*
X101089486Y-83368800D01*
X101276725Y-83351759D01*
X101463710Y-83371412D01*
X101463710Y-83371412D01*
G37*
G36*
X104003710Y-83371412D02*
X104003719Y-83371415D01*
X104003759Y-83371419D01*
X104183410Y-83427031D01*
X104348838Y-83516477D01*
X104493742Y-83636352D01*
X104612603Y-83782090D01*
X104700893Y-83948139D01*
X104755248Y-84128174D01*
X104773600Y-84315338D01*
X104773600Y-84324662D01*
X104773506Y-84338116D01*
X104752543Y-84525006D01*
X104695679Y-84704264D01*
X104605079Y-84869064D01*
X104484196Y-85013128D01*
X104337632Y-85130968D01*
X104170971Y-85218096D01*
X103990561Y-85271194D01*
X103990522Y-85271198D01*
X103990514Y-85271200D01*
X103803275Y-85288241D01*
X103616290Y-85268588D01*
X103616281Y-85268585D01*
X103616241Y-85268581D01*
X103436590Y-85212969D01*
X103271162Y-85123523D01*
X103126258Y-85003648D01*
X103007397Y-84857910D01*
X102919107Y-84691861D01*
X102864752Y-84511826D01*
X102846400Y-84324662D01*
X102846400Y-84315338D01*
X102846494Y-84301884D01*
X102867457Y-84114994D01*
X102924321Y-83935736D01*
X103014921Y-83770936D01*
X103135804Y-83626872D01*
X103282368Y-83509032D01*
X103449029Y-83421904D01*
X103629439Y-83368806D01*
X103629478Y-83368802D01*
X103629486Y-83368800D01*
X103816725Y-83351759D01*
X104003710Y-83371412D01*
X104003710Y-83371412D01*
G37*
G36*
X106543710Y-83371412D02*
X106543719Y-83371415D01*
X106543759Y-83371419D01*
X106723410Y-83427031D01*
X106888838Y-83516477D01*
X107033742Y-83636352D01*
X107152603Y-83782090D01*
X107240893Y-83948139D01*
X107295248Y-84128174D01*
X107313600Y-84315338D01*
X107313600Y-84324662D01*
X107313506Y-84338116D01*
X107292543Y-84525006D01*
X107235679Y-84704264D01*
X107145079Y-84869064D01*
X107024196Y-85013128D01*
X106877632Y-85130968D01*
X106710971Y-85218096D01*
X106530561Y-85271194D01*
X106530522Y-85271198D01*
X106530514Y-85271200D01*
X106343275Y-85288241D01*
X106156290Y-85268588D01*
X106156281Y-85268585D01*
X106156241Y-85268581D01*
X105976590Y-85212969D01*
X105811162Y-85123523D01*
X105666258Y-85003648D01*
X105547397Y-84857910D01*
X105459107Y-84691861D01*
X105404752Y-84511826D01*
X105386400Y-84324662D01*
X105386400Y-84315338D01*
X105386494Y-84301884D01*
X105407457Y-84114994D01*
X105464321Y-83935736D01*
X105554921Y-83770936D01*
X105675804Y-83626872D01*
X105822368Y-83509032D01*
X105989029Y-83421904D01*
X106169439Y-83368806D01*
X106169478Y-83368802D01*
X106169486Y-83368800D01*
X106356725Y-83351759D01*
X106543710Y-83371412D01*
X106543710Y-83371412D01*
G37*
G36*
X109083710Y-83371412D02*
X109083719Y-83371415D01*
X109083759Y-83371419D01*
X109263410Y-83427031D01*
X109428838Y-83516477D01*
X109573742Y-83636352D01*
X109692603Y-83782090D01*
X109780893Y-83948139D01*
X109835248Y-84128174D01*
X109853600Y-84315338D01*
X109853600Y-84324662D01*
X109853506Y-84338116D01*
X109832543Y-84525006D01*
X109775679Y-84704264D01*
X109685079Y-84869064D01*
X109564196Y-85013128D01*
X109417632Y-85130968D01*
X109250971Y-85218096D01*
X109070561Y-85271194D01*
X109070522Y-85271198D01*
X109070514Y-85271200D01*
X108883275Y-85288241D01*
X108696290Y-85268588D01*
X108696281Y-85268585D01*
X108696241Y-85268581D01*
X108516590Y-85212969D01*
X108351162Y-85123523D01*
X108206258Y-85003648D01*
X108087397Y-84857910D01*
X107999107Y-84691861D01*
X107944752Y-84511826D01*
X107926400Y-84324662D01*
X107926400Y-84315338D01*
X107926494Y-84301884D01*
X107947457Y-84114994D01*
X108004321Y-83935736D01*
X108094921Y-83770936D01*
X108215804Y-83626872D01*
X108362368Y-83509032D01*
X108529029Y-83421904D01*
X108709439Y-83368806D01*
X108709478Y-83368802D01*
X108709486Y-83368800D01*
X108896725Y-83351759D01*
X109083710Y-83371412D01*
X109083710Y-83371412D01*
G37*
G36*
X98923710Y-83371412D02*
X98923719Y-83371415D01*
X98923759Y-83371419D01*
X99103410Y-83427031D01*
X99268838Y-83516477D01*
X99413742Y-83636352D01*
X99532603Y-83782090D01*
X99620893Y-83948139D01*
X99675248Y-84128174D01*
X99693600Y-84315338D01*
X99693600Y-84324662D01*
X99693506Y-84338116D01*
X99672543Y-84525006D01*
X99615679Y-84704264D01*
X99525079Y-84869064D01*
X99404196Y-85013128D01*
X99257632Y-85130968D01*
X99090971Y-85218096D01*
X98910561Y-85271194D01*
X98910522Y-85271198D01*
X98910514Y-85271200D01*
X98723275Y-85288241D01*
X98536290Y-85268588D01*
X98536281Y-85268585D01*
X98536241Y-85268581D01*
X98356590Y-85212969D01*
X98191162Y-85123523D01*
X98046258Y-85003648D01*
X97927397Y-84857910D01*
X97839107Y-84691861D01*
X97784752Y-84511826D01*
X97766400Y-84324662D01*
X97766400Y-84315338D01*
X97766494Y-84301884D01*
X97787457Y-84114994D01*
X97844321Y-83935736D01*
X97934921Y-83770936D01*
X98055804Y-83626872D01*
X98202368Y-83509032D01*
X98369029Y-83421904D01*
X98549439Y-83368806D01*
X98549478Y-83368802D01*
X98549486Y-83368800D01*
X98736725Y-83351759D01*
X98923710Y-83371412D01*
X98923710Y-83371412D01*
G37*
G36*
X96383710Y-83371412D02*
X96383719Y-83371415D01*
X96383759Y-83371419D01*
X96563410Y-83427031D01*
X96728838Y-83516477D01*
X96873742Y-83636352D01*
X96992603Y-83782090D01*
X97080893Y-83948139D01*
X97135248Y-84128174D01*
X97153600Y-84315338D01*
X97153600Y-84324662D01*
X97153506Y-84338116D01*
X97132543Y-84525006D01*
X97075679Y-84704264D01*
X96985079Y-84869064D01*
X96864196Y-85013128D01*
X96717632Y-85130968D01*
X96550971Y-85218096D01*
X96370561Y-85271194D01*
X96370522Y-85271198D01*
X96370514Y-85271200D01*
X96183275Y-85288241D01*
X95996290Y-85268588D01*
X95996281Y-85268585D01*
X95996241Y-85268581D01*
X95816590Y-85212969D01*
X95651162Y-85123523D01*
X95506258Y-85003648D01*
X95387397Y-84857910D01*
X95299107Y-84691861D01*
X95244752Y-84511826D01*
X95226400Y-84324662D01*
X95226400Y-84315338D01*
X95226494Y-84301884D01*
X95247457Y-84114994D01*
X95304321Y-83935736D01*
X95394921Y-83770936D01*
X95515804Y-83626872D01*
X95662368Y-83509032D01*
X95829029Y-83421904D01*
X96009439Y-83368806D01*
X96009478Y-83368802D01*
X96009486Y-83368800D01*
X96196725Y-83351759D01*
X96383710Y-83371412D01*
X96383710Y-83371412D01*
G37*
G36*
X93843710Y-83371412D02*
X93843719Y-83371415D01*
X93843759Y-83371419D01*
X94023410Y-83427031D01*
X94188838Y-83516477D01*
X94333742Y-83636352D01*
X94452603Y-83782090D01*
X94540893Y-83948139D01*
X94595248Y-84128174D01*
X94613600Y-84315338D01*
X94613600Y-84324662D01*
X94613506Y-84338116D01*
X94592543Y-84525006D01*
X94535679Y-84704264D01*
X94445079Y-84869064D01*
X94324196Y-85013128D01*
X94177632Y-85130968D01*
X94010971Y-85218096D01*
X93830561Y-85271194D01*
X93830522Y-85271198D01*
X93830514Y-85271200D01*
X93643275Y-85288241D01*
X93456290Y-85268588D01*
X93456281Y-85268585D01*
X93456241Y-85268581D01*
X93276590Y-85212969D01*
X93111162Y-85123523D01*
X92966258Y-85003648D01*
X92847397Y-84857910D01*
X92759107Y-84691861D01*
X92704752Y-84511826D01*
X92686400Y-84324662D01*
X92686400Y-84315338D01*
X92686494Y-84301884D01*
X92707457Y-84114994D01*
X92764321Y-83935736D01*
X92854921Y-83770936D01*
X92975804Y-83626872D01*
X93122368Y-83509032D01*
X93289029Y-83421904D01*
X93469439Y-83368806D01*
X93469478Y-83368802D01*
X93469486Y-83368800D01*
X93656725Y-83351759D01*
X93843710Y-83371412D01*
X93843710Y-83371412D01*
G37*
G36*
X91303710Y-83371412D02*
X91303719Y-83371415D01*
X91303759Y-83371419D01*
X91483410Y-83427031D01*
X91648838Y-83516477D01*
X91793742Y-83636352D01*
X91912603Y-83782090D01*
X92000893Y-83948139D01*
X92055248Y-84128174D01*
X92073600Y-84315338D01*
X92073600Y-84324662D01*
X92073506Y-84338116D01*
X92052543Y-84525006D01*
X91995679Y-84704264D01*
X91905079Y-84869064D01*
X91784196Y-85013128D01*
X91637632Y-85130968D01*
X91470971Y-85218096D01*
X91290561Y-85271194D01*
X91290522Y-85271198D01*
X91290514Y-85271200D01*
X91103275Y-85288241D01*
X90916290Y-85268588D01*
X90916281Y-85268585D01*
X90916241Y-85268581D01*
X90736590Y-85212969D01*
X90571162Y-85123523D01*
X90426258Y-85003648D01*
X90307397Y-84857910D01*
X90219107Y-84691861D01*
X90164752Y-84511826D01*
X90146400Y-84324662D01*
X90146400Y-84315338D01*
X90146494Y-84301884D01*
X90167457Y-84114994D01*
X90224321Y-83935736D01*
X90314921Y-83770936D01*
X90435804Y-83626872D01*
X90582368Y-83509032D01*
X90749029Y-83421904D01*
X90929439Y-83368806D01*
X90929478Y-83368802D01*
X90929486Y-83368800D01*
X91116725Y-83351759D01*
X91303710Y-83371412D01*
X91303710Y-83371412D01*
G37*
G36*
X89533600Y-85283600D02*
X87606400Y-85283600D01*
X87606400Y-83356400D01*
X89533600Y-83356400D01*
X89533600Y-85283600D01*
X89533600Y-85283600D01*
G37*
G36*
X81750000Y-85250000D02*
X80850000Y-85250000D01*
X80850000Y-83750000D01*
X81750000Y-83750000D01*
X81750000Y-85250000D01*
X81750000Y-85250000D01*
G37*
G36*
X83650000Y-85250000D02*
X82750000Y-85250000D01*
X82750000Y-83750000D01*
X83650000Y-83750000D01*
X83650000Y-85250000D01*
X83650000Y-85250000D01*
G37*
G36*
X118500000Y-85150000D02*
X117000000Y-85150000D01*
X117000000Y-84250000D01*
X118500000Y-84250000D01*
X118500000Y-85150000D01*
X118500000Y-85150000D01*
G37*
G36*
X116400000Y-85000000D02*
X115500000Y-85000000D01*
X115500000Y-83500000D01*
X116400000Y-83500000D01*
X116400000Y-85000000D01*
X116400000Y-85000000D01*
G37*
G36*
X114500000Y-85000000D02*
X113600000Y-85000000D01*
X113600000Y-83500000D01*
X114500000Y-83500000D01*
X114500000Y-85000000D01*
X114500000Y-85000000D01*
G37*
G36*
X75971211Y-82527040D02*
X76156325Y-82565039D01*
X76330528Y-82638267D01*
X76487194Y-82743939D01*
X76620352Y-82878031D01*
X76724929Y-83035430D01*
X76796937Y-83210137D01*
X76833575Y-83395170D01*
X76833575Y-83395180D01*
X76833641Y-83395514D01*
X76830627Y-83611355D01*
X76830551Y-83611689D01*
X76830551Y-83611701D01*
X76788764Y-83795630D01*
X76711901Y-83968266D01*
X76602969Y-84122685D01*
X76466123Y-84253003D01*
X76306570Y-84354258D01*
X76130385Y-84422597D01*
X75944287Y-84455410D01*
X75755356Y-84451453D01*
X75570786Y-84410873D01*
X75397623Y-84335220D01*
X75242449Y-84227371D01*
X75111176Y-84091433D01*
X75008811Y-83932594D01*
X74939245Y-83756892D01*
X74905131Y-83571019D01*
X74907770Y-83382067D01*
X74947058Y-83197228D01*
X75021504Y-83023535D01*
X75128267Y-82867612D01*
X75263284Y-82735393D01*
X75421407Y-82631920D01*
X75596619Y-82561130D01*
X75782240Y-82525721D01*
X75971211Y-82527040D01*
X75971211Y-82527040D01*
G37*
G36*
X124231211Y-82527040D02*
X124416325Y-82565039D01*
X124590528Y-82638267D01*
X124747194Y-82743939D01*
X124880352Y-82878031D01*
X124984929Y-83035430D01*
X125056937Y-83210137D01*
X125093575Y-83395170D01*
X125093575Y-83395180D01*
X125093641Y-83395514D01*
X125090627Y-83611355D01*
X125090551Y-83611689D01*
X125090551Y-83611701D01*
X125048764Y-83795630D01*
X124971901Y-83968266D01*
X124862969Y-84122685D01*
X124726123Y-84253003D01*
X124566570Y-84354258D01*
X124390385Y-84422597D01*
X124204287Y-84455410D01*
X124015356Y-84451453D01*
X123830786Y-84410873D01*
X123657623Y-84335220D01*
X123502449Y-84227371D01*
X123371176Y-84091433D01*
X123268811Y-83932594D01*
X123199245Y-83756892D01*
X123165131Y-83571019D01*
X123167770Y-83382067D01*
X123207058Y-83197228D01*
X123281504Y-83023535D01*
X123388267Y-82867612D01*
X123523284Y-82735393D01*
X123681407Y-82631920D01*
X123856619Y-82561130D01*
X124042240Y-82525721D01*
X124231211Y-82527040D01*
X124231211Y-82527040D01*
G37*
G36*
X86000000Y-83550000D02*
X84500000Y-83550000D01*
X84500000Y-82650000D01*
X86000000Y-82650000D01*
X86000000Y-83550000D01*
X86000000Y-83550000D01*
G37*
G36*
X118500000Y-83250000D02*
X117000000Y-83250000D01*
X117000000Y-82350000D01*
X118500000Y-82350000D01*
X118500000Y-83250000D01*
X118500000Y-83250000D01*
G37*
G36*
X116400000Y-82750000D02*
X115500000Y-82750000D01*
X115500000Y-81250000D01*
X116400000Y-81250000D01*
X116400000Y-82750000D01*
X116400000Y-82750000D01*
G37*
G36*
X114500000Y-82750000D02*
X113600000Y-82750000D01*
X113600000Y-81250000D01*
X114500000Y-81250000D01*
X114500000Y-82750000D01*
X114500000Y-82750000D01*
G37*
G36*
X96383710Y-80831412D02*
X96383719Y-80831415D01*
X96383759Y-80831419D01*
X96563410Y-80887031D01*
X96728838Y-80976477D01*
X96873742Y-81096352D01*
X96992603Y-81242090D01*
X97080893Y-81408139D01*
X97135248Y-81588174D01*
X97153600Y-81775338D01*
X97153600Y-81784662D01*
X97153506Y-81798116D01*
X97132543Y-81985006D01*
X97075679Y-82164264D01*
X96985079Y-82329064D01*
X96864196Y-82473128D01*
X96717632Y-82590968D01*
X96550971Y-82678096D01*
X96370561Y-82731194D01*
X96370522Y-82731198D01*
X96370514Y-82731200D01*
X96183275Y-82748241D01*
X95996290Y-82728588D01*
X95996281Y-82728585D01*
X95996241Y-82728581D01*
X95816590Y-82672969D01*
X95651162Y-82583523D01*
X95506258Y-82463648D01*
X95387397Y-82317910D01*
X95299107Y-82151861D01*
X95244752Y-81971826D01*
X95226400Y-81784662D01*
X95226400Y-81775338D01*
X95226494Y-81761884D01*
X95247457Y-81574994D01*
X95304321Y-81395736D01*
X95394921Y-81230936D01*
X95515804Y-81086872D01*
X95662368Y-80969032D01*
X95829029Y-80881904D01*
X96009439Y-80828806D01*
X96009478Y-80828802D01*
X96009486Y-80828800D01*
X96196725Y-80811759D01*
X96383710Y-80831412D01*
X96383710Y-80831412D01*
G37*
G36*
X111623710Y-80831412D02*
X111623719Y-80831415D01*
X111623759Y-80831419D01*
X111803410Y-80887031D01*
X111968838Y-80976477D01*
X112113742Y-81096352D01*
X112232603Y-81242090D01*
X112320893Y-81408139D01*
X112375248Y-81588174D01*
X112393600Y-81775338D01*
X112393600Y-81784662D01*
X112393506Y-81798116D01*
X112372543Y-81985006D01*
X112315679Y-82164264D01*
X112225079Y-82329064D01*
X112104196Y-82473128D01*
X111957632Y-82590968D01*
X111790971Y-82678096D01*
X111610561Y-82731194D01*
X111610522Y-82731198D01*
X111610514Y-82731200D01*
X111423275Y-82748241D01*
X111236290Y-82728588D01*
X111236281Y-82728585D01*
X111236241Y-82728581D01*
X111056590Y-82672969D01*
X110891162Y-82583523D01*
X110746258Y-82463648D01*
X110627397Y-82317910D01*
X110539107Y-82151861D01*
X110484752Y-81971826D01*
X110466400Y-81784662D01*
X110466400Y-81775338D01*
X110466494Y-81761884D01*
X110487457Y-81574994D01*
X110544321Y-81395736D01*
X110634921Y-81230936D01*
X110755804Y-81086872D01*
X110902368Y-80969032D01*
X111069029Y-80881904D01*
X111249439Y-80828806D01*
X111249478Y-80828802D01*
X111249486Y-80828800D01*
X111436725Y-80811759D01*
X111623710Y-80831412D01*
X111623710Y-80831412D01*
G37*
G36*
X106543710Y-80831412D02*
X106543719Y-80831415D01*
X106543759Y-80831419D01*
X106723410Y-80887031D01*
X106888838Y-80976477D01*
X107033742Y-81096352D01*
X107152603Y-81242090D01*
X107240893Y-81408139D01*
X107295248Y-81588174D01*
X107313600Y-81775338D01*
X107313600Y-81784662D01*
X107313506Y-81798116D01*
X107292543Y-81985006D01*
X107235679Y-82164264D01*
X107145079Y-82329064D01*
X107024196Y-82473128D01*
X106877632Y-82590968D01*
X106710971Y-82678096D01*
X106530561Y-82731194D01*
X106530522Y-82731198D01*
X106530514Y-82731200D01*
X106343275Y-82748241D01*
X106156290Y-82728588D01*
X106156281Y-82728585D01*
X106156241Y-82728581D01*
X105976590Y-82672969D01*
X105811162Y-82583523D01*
X105666258Y-82463648D01*
X105547397Y-82317910D01*
X105459107Y-82151861D01*
X105404752Y-81971826D01*
X105386400Y-81784662D01*
X105386400Y-81775338D01*
X105386494Y-81761884D01*
X105407457Y-81574994D01*
X105464321Y-81395736D01*
X105554921Y-81230936D01*
X105675804Y-81086872D01*
X105822368Y-80969032D01*
X105989029Y-80881904D01*
X106169439Y-80828806D01*
X106169478Y-80828802D01*
X106169486Y-80828800D01*
X106356725Y-80811759D01*
X106543710Y-80831412D01*
X106543710Y-80831412D01*
G37*
G36*
X88763710Y-80831412D02*
X88763719Y-80831415D01*
X88763759Y-80831419D01*
X88943410Y-80887031D01*
X89108838Y-80976477D01*
X89253742Y-81096352D01*
X89372603Y-81242090D01*
X89460893Y-81408139D01*
X89515248Y-81588174D01*
X89533600Y-81775338D01*
X89533600Y-81784662D01*
X89533506Y-81798116D01*
X89512543Y-81985006D01*
X89455679Y-82164264D01*
X89365079Y-82329064D01*
X89244196Y-82473128D01*
X89097632Y-82590968D01*
X88930971Y-82678096D01*
X88750561Y-82731194D01*
X88750522Y-82731198D01*
X88750514Y-82731200D01*
X88563275Y-82748241D01*
X88376290Y-82728588D01*
X88376281Y-82728585D01*
X88376241Y-82728581D01*
X88196590Y-82672969D01*
X88031162Y-82583523D01*
X87886258Y-82463648D01*
X87767397Y-82317910D01*
X87679107Y-82151861D01*
X87624752Y-81971826D01*
X87606400Y-81784662D01*
X87606400Y-81775338D01*
X87606494Y-81761884D01*
X87627457Y-81574994D01*
X87684321Y-81395736D01*
X87774921Y-81230936D01*
X87895804Y-81086872D01*
X88042368Y-80969032D01*
X88209029Y-80881904D01*
X88389439Y-80828806D01*
X88389478Y-80828802D01*
X88389486Y-80828800D01*
X88576725Y-80811759D01*
X88763710Y-80831412D01*
X88763710Y-80831412D01*
G37*
G36*
X91303710Y-80831412D02*
X91303719Y-80831415D01*
X91303759Y-80831419D01*
X91483410Y-80887031D01*
X91648838Y-80976477D01*
X91793742Y-81096352D01*
X91912603Y-81242090D01*
X92000893Y-81408139D01*
X92055248Y-81588174D01*
X92073600Y-81775338D01*
X92073600Y-81784662D01*
X92073506Y-81798116D01*
X92052543Y-81985006D01*
X91995679Y-82164264D01*
X91905079Y-82329064D01*
X91784196Y-82473128D01*
X91637632Y-82590968D01*
X91470971Y-82678096D01*
X91290561Y-82731194D01*
X91290522Y-82731198D01*
X91290514Y-82731200D01*
X91103275Y-82748241D01*
X90916290Y-82728588D01*
X90916281Y-82728585D01*
X90916241Y-82728581D01*
X90736590Y-82672969D01*
X90571162Y-82583523D01*
X90426258Y-82463648D01*
X90307397Y-82317910D01*
X90219107Y-82151861D01*
X90164752Y-81971826D01*
X90146400Y-81784662D01*
X90146400Y-81775338D01*
X90146494Y-81761884D01*
X90167457Y-81574994D01*
X90224321Y-81395736D01*
X90314921Y-81230936D01*
X90435804Y-81086872D01*
X90582368Y-80969032D01*
X90749029Y-80881904D01*
X90929439Y-80828806D01*
X90929478Y-80828802D01*
X90929486Y-80828800D01*
X91116725Y-80811759D01*
X91303710Y-80831412D01*
X91303710Y-80831412D01*
G37*
G36*
X93843710Y-80831412D02*
X93843719Y-80831415D01*
X93843759Y-80831419D01*
X94023410Y-80887031D01*
X94188838Y-80976477D01*
X94333742Y-81096352D01*
X94452603Y-81242090D01*
X94540893Y-81408139D01*
X94595248Y-81588174D01*
X94613600Y-81775338D01*
X94613600Y-81784662D01*
X94613506Y-81798116D01*
X94592543Y-81985006D01*
X94535679Y-82164264D01*
X94445079Y-82329064D01*
X94324196Y-82473128D01*
X94177632Y-82590968D01*
X94010971Y-82678096D01*
X93830561Y-82731194D01*
X93830522Y-82731198D01*
X93830514Y-82731200D01*
X93643275Y-82748241D01*
X93456290Y-82728588D01*
X93456281Y-82728585D01*
X93456241Y-82728581D01*
X93276590Y-82672969D01*
X93111162Y-82583523D01*
X92966258Y-82463648D01*
X92847397Y-82317910D01*
X92759107Y-82151861D01*
X92704752Y-81971826D01*
X92686400Y-81784662D01*
X92686400Y-81775338D01*
X92686494Y-81761884D01*
X92707457Y-81574994D01*
X92764321Y-81395736D01*
X92854921Y-81230936D01*
X92975804Y-81086872D01*
X93122368Y-80969032D01*
X93289029Y-80881904D01*
X93469439Y-80828806D01*
X93469478Y-80828802D01*
X93469486Y-80828800D01*
X93656725Y-80811759D01*
X93843710Y-80831412D01*
X93843710Y-80831412D01*
G37*
G36*
X98923710Y-80831412D02*
X98923719Y-80831415D01*
X98923759Y-80831419D01*
X99103410Y-80887031D01*
X99268838Y-80976477D01*
X99413742Y-81096352D01*
X99532603Y-81242090D01*
X99620893Y-81408139D01*
X99675248Y-81588174D01*
X99693600Y-81775338D01*
X99693600Y-81784662D01*
X99693506Y-81798116D01*
X99672543Y-81985006D01*
X99615679Y-82164264D01*
X99525079Y-82329064D01*
X99404196Y-82473128D01*
X99257632Y-82590968D01*
X99090971Y-82678096D01*
X98910561Y-82731194D01*
X98910522Y-82731198D01*
X98910514Y-82731200D01*
X98723275Y-82748241D01*
X98536290Y-82728588D01*
X98536281Y-82728585D01*
X98536241Y-82728581D01*
X98356590Y-82672969D01*
X98191162Y-82583523D01*
X98046258Y-82463648D01*
X97927397Y-82317910D01*
X97839107Y-82151861D01*
X97784752Y-81971826D01*
X97766400Y-81784662D01*
X97766400Y-81775338D01*
X97766494Y-81761884D01*
X97787457Y-81574994D01*
X97844321Y-81395736D01*
X97934921Y-81230936D01*
X98055804Y-81086872D01*
X98202368Y-80969032D01*
X98369029Y-80881904D01*
X98549439Y-80828806D01*
X98549478Y-80828802D01*
X98549486Y-80828800D01*
X98736725Y-80811759D01*
X98923710Y-80831412D01*
X98923710Y-80831412D01*
G37*
G36*
X101463710Y-80831412D02*
X101463719Y-80831415D01*
X101463759Y-80831419D01*
X101643410Y-80887031D01*
X101808838Y-80976477D01*
X101953742Y-81096352D01*
X102072603Y-81242090D01*
X102160893Y-81408139D01*
X102215248Y-81588174D01*
X102233600Y-81775338D01*
X102233600Y-81784662D01*
X102233506Y-81798116D01*
X102212543Y-81985006D01*
X102155679Y-82164264D01*
X102065079Y-82329064D01*
X101944196Y-82473128D01*
X101797632Y-82590968D01*
X101630971Y-82678096D01*
X101450561Y-82731194D01*
X101450522Y-82731198D01*
X101450514Y-82731200D01*
X101263275Y-82748241D01*
X101076290Y-82728588D01*
X101076281Y-82728585D01*
X101076241Y-82728581D01*
X100896590Y-82672969D01*
X100731162Y-82583523D01*
X100586258Y-82463648D01*
X100467397Y-82317910D01*
X100379107Y-82151861D01*
X100324752Y-81971826D01*
X100306400Y-81784662D01*
X100306400Y-81775338D01*
X100306494Y-81761884D01*
X100327457Y-81574994D01*
X100384321Y-81395736D01*
X100474921Y-81230936D01*
X100595804Y-81086872D01*
X100742368Y-80969032D01*
X100909029Y-80881904D01*
X101089439Y-80828806D01*
X101089478Y-80828802D01*
X101089486Y-80828800D01*
X101276725Y-80811759D01*
X101463710Y-80831412D01*
X101463710Y-80831412D01*
G37*
G36*
X104003710Y-80831412D02*
X104003719Y-80831415D01*
X104003759Y-80831419D01*
X104183410Y-80887031D01*
X104348838Y-80976477D01*
X104493742Y-81096352D01*
X104612603Y-81242090D01*
X104700893Y-81408139D01*
X104755248Y-81588174D01*
X104773600Y-81775338D01*
X104773600Y-81784662D01*
X104773506Y-81798116D01*
X104752543Y-81985006D01*
X104695679Y-82164264D01*
X104605079Y-82329064D01*
X104484196Y-82473128D01*
X104337632Y-82590968D01*
X104170971Y-82678096D01*
X103990561Y-82731194D01*
X103990522Y-82731198D01*
X103990514Y-82731200D01*
X103803275Y-82748241D01*
X103616290Y-82728588D01*
X103616281Y-82728585D01*
X103616241Y-82728581D01*
X103436590Y-82672969D01*
X103271162Y-82583523D01*
X103126258Y-82463648D01*
X103007397Y-82317910D01*
X102919107Y-82151861D01*
X102864752Y-81971826D01*
X102846400Y-81784662D01*
X102846400Y-81775338D01*
X102846494Y-81761884D01*
X102867457Y-81574994D01*
X102924321Y-81395736D01*
X103014921Y-81230936D01*
X103135804Y-81086872D01*
X103282368Y-80969032D01*
X103449029Y-80881904D01*
X103629439Y-80828806D01*
X103629478Y-80828802D01*
X103629486Y-80828800D01*
X103816725Y-80811759D01*
X104003710Y-80831412D01*
X104003710Y-80831412D01*
G37*
G36*
X109083710Y-80831412D02*
X109083719Y-80831415D01*
X109083759Y-80831419D01*
X109263410Y-80887031D01*
X109428838Y-80976477D01*
X109573742Y-81096352D01*
X109692603Y-81242090D01*
X109780893Y-81408139D01*
X109835248Y-81588174D01*
X109853600Y-81775338D01*
X109853600Y-81784662D01*
X109853506Y-81798116D01*
X109832543Y-81985006D01*
X109775679Y-82164264D01*
X109685079Y-82329064D01*
X109564196Y-82473128D01*
X109417632Y-82590968D01*
X109250971Y-82678096D01*
X109070561Y-82731194D01*
X109070522Y-82731198D01*
X109070514Y-82731200D01*
X108883275Y-82748241D01*
X108696290Y-82728588D01*
X108696281Y-82728585D01*
X108696241Y-82728581D01*
X108516590Y-82672969D01*
X108351162Y-82583523D01*
X108206258Y-82463648D01*
X108087397Y-82317910D01*
X107999107Y-82151861D01*
X107944752Y-81971826D01*
X107926400Y-81784662D01*
X107926400Y-81775338D01*
X107926494Y-81761884D01*
X107947457Y-81574994D01*
X108004321Y-81395736D01*
X108094921Y-81230936D01*
X108215804Y-81086872D01*
X108362368Y-80969032D01*
X108529029Y-80881904D01*
X108709439Y-80828806D01*
X108709478Y-80828802D01*
X108709486Y-80828800D01*
X108896725Y-80811759D01*
X109083710Y-80831412D01*
X109083710Y-80831412D01*
G37*
G36*
X86000000Y-81950000D02*
X84500000Y-81950000D01*
X84500000Y-81050000D01*
X86000000Y-81050000D01*
X86000000Y-81950000D01*
X86000000Y-81950000D01*
G37*
G36*
X75971211Y-79987040D02*
X76156325Y-80025039D01*
X76330528Y-80098267D01*
X76487194Y-80203939D01*
X76620352Y-80338031D01*
X76724929Y-80495430D01*
X76796937Y-80670137D01*
X76833575Y-80855170D01*
X76833575Y-80855180D01*
X76833641Y-80855514D01*
X76830627Y-81071355D01*
X76830551Y-81071689D01*
X76830551Y-81071701D01*
X76788764Y-81255630D01*
X76711901Y-81428266D01*
X76602969Y-81582685D01*
X76466123Y-81713003D01*
X76306570Y-81814258D01*
X76130385Y-81882597D01*
X75944287Y-81915410D01*
X75755356Y-81911453D01*
X75570786Y-81870873D01*
X75397623Y-81795220D01*
X75242449Y-81687371D01*
X75111176Y-81551433D01*
X75008811Y-81392594D01*
X74939245Y-81216892D01*
X74905131Y-81031019D01*
X74907770Y-80842067D01*
X74947058Y-80657228D01*
X75021504Y-80483535D01*
X75128267Y-80327612D01*
X75263284Y-80195393D01*
X75421407Y-80091920D01*
X75596619Y-80021130D01*
X75782240Y-79985721D01*
X75971211Y-79987040D01*
X75971211Y-79987040D01*
G37*
G36*
X124231211Y-79987040D02*
X124416325Y-80025039D01*
X124590528Y-80098267D01*
X124747194Y-80203939D01*
X124880352Y-80338031D01*
X124984929Y-80495430D01*
X125056937Y-80670137D01*
X125093575Y-80855170D01*
X125093575Y-80855180D01*
X125093641Y-80855514D01*
X125090627Y-81071355D01*
X125090551Y-81071689D01*
X125090551Y-81071701D01*
X125048764Y-81255630D01*
X124971901Y-81428266D01*
X124862969Y-81582685D01*
X124726123Y-81713003D01*
X124566570Y-81814258D01*
X124390385Y-81882597D01*
X124204287Y-81915410D01*
X124015356Y-81911453D01*
X123830786Y-81870873D01*
X123657623Y-81795220D01*
X123502449Y-81687371D01*
X123371176Y-81551433D01*
X123268811Y-81392594D01*
X123199245Y-81216892D01*
X123165131Y-81031019D01*
X123167770Y-80842067D01*
X123207058Y-80657228D01*
X123281504Y-80483535D01*
X123388267Y-80327612D01*
X123523284Y-80195393D01*
X123681407Y-80091920D01*
X123856619Y-80021130D01*
X124042240Y-79985721D01*
X124231211Y-79987040D01*
X124231211Y-79987040D01*
G37*
G36*
X86000000Y-80050000D02*
X84500000Y-80050000D01*
X84500000Y-79150000D01*
X86000000Y-79150000D01*
X86000000Y-80050000D01*
X86000000Y-80050000D01*
G37*
G36*
X124231211Y-77447040D02*
X124416325Y-77485039D01*
X124590528Y-77558267D01*
X124747194Y-77663939D01*
X124880352Y-77798031D01*
X124984929Y-77955430D01*
X125056937Y-78130137D01*
X125093575Y-78315170D01*
X125093575Y-78315180D01*
X125093641Y-78315514D01*
X125090627Y-78531355D01*
X125090551Y-78531689D01*
X125090551Y-78531701D01*
X125048764Y-78715630D01*
X124971901Y-78888266D01*
X124862969Y-79042685D01*
X124726123Y-79173003D01*
X124566570Y-79274258D01*
X124390385Y-79342597D01*
X124204287Y-79375410D01*
X124015356Y-79371453D01*
X123830786Y-79330873D01*
X123657623Y-79255220D01*
X123502449Y-79147371D01*
X123371176Y-79011433D01*
X123268811Y-78852594D01*
X123199245Y-78676892D01*
X123165131Y-78491019D01*
X123167770Y-78302067D01*
X123207058Y-78117228D01*
X123281504Y-77943535D01*
X123388267Y-77787612D01*
X123523284Y-77655393D01*
X123681407Y-77551920D01*
X123856619Y-77481130D01*
X124042240Y-77445721D01*
X124231211Y-77447040D01*
X124231211Y-77447040D01*
G37*
G36*
X75971211Y-77447040D02*
X76156325Y-77485039D01*
X76330528Y-77558267D01*
X76487194Y-77663939D01*
X76620352Y-77798031D01*
X76724929Y-77955430D01*
X76796937Y-78130137D01*
X76833575Y-78315170D01*
X76833575Y-78315180D01*
X76833641Y-78315514D01*
X76830627Y-78531355D01*
X76830551Y-78531689D01*
X76830551Y-78531701D01*
X76788764Y-78715630D01*
X76711901Y-78888266D01*
X76602969Y-79042685D01*
X76466123Y-79173003D01*
X76306570Y-79274258D01*
X76130385Y-79342597D01*
X75944287Y-79375410D01*
X75755356Y-79371453D01*
X75570786Y-79330873D01*
X75397623Y-79255220D01*
X75242449Y-79147371D01*
X75111176Y-79011433D01*
X75008811Y-78852594D01*
X74939245Y-78676892D01*
X74905131Y-78491019D01*
X74907770Y-78302067D01*
X74947058Y-78117228D01*
X75021504Y-77943535D01*
X75128267Y-77787612D01*
X75263284Y-77655393D01*
X75421407Y-77551920D01*
X75596619Y-77481130D01*
X75782240Y-77445721D01*
X75971211Y-77447040D01*
X75971211Y-77447040D01*
G37*
G36*
X106543710Y-75751412D02*
X106543719Y-75751415D01*
X106543759Y-75751419D01*
X106723410Y-75807031D01*
X106888838Y-75896477D01*
X107033742Y-76016352D01*
X107152603Y-76162090D01*
X107240893Y-76328139D01*
X107295248Y-76508174D01*
X107313600Y-76695338D01*
X107313600Y-76704662D01*
X107313506Y-76718116D01*
X107292543Y-76905006D01*
X107235679Y-77084264D01*
X107145079Y-77249064D01*
X107024196Y-77393128D01*
X106877632Y-77510968D01*
X106710971Y-77598096D01*
X106530561Y-77651194D01*
X106530522Y-77651198D01*
X106530514Y-77651200D01*
X106343275Y-77668241D01*
X106156290Y-77648588D01*
X106156281Y-77648585D01*
X106156241Y-77648581D01*
X105976590Y-77592969D01*
X105811162Y-77503523D01*
X105666258Y-77383648D01*
X105547397Y-77237910D01*
X105459107Y-77071861D01*
X105404752Y-76891826D01*
X105386400Y-76704662D01*
X105386400Y-76695338D01*
X105386494Y-76681884D01*
X105407457Y-76494994D01*
X105464321Y-76315736D01*
X105554921Y-76150936D01*
X105675804Y-76006872D01*
X105822368Y-75889032D01*
X105989029Y-75801904D01*
X106169439Y-75748806D01*
X106169478Y-75748802D01*
X106169486Y-75748800D01*
X106356725Y-75731759D01*
X106543710Y-75751412D01*
X106543710Y-75751412D01*
G37*
G36*
X104003710Y-75751412D02*
X104003719Y-75751415D01*
X104003759Y-75751419D01*
X104183410Y-75807031D01*
X104348838Y-75896477D01*
X104493742Y-76016352D01*
X104612603Y-76162090D01*
X104700893Y-76328139D01*
X104755248Y-76508174D01*
X104773600Y-76695338D01*
X104773600Y-76704662D01*
X104773506Y-76718116D01*
X104752543Y-76905006D01*
X104695679Y-77084264D01*
X104605079Y-77249064D01*
X104484196Y-77393128D01*
X104337632Y-77510968D01*
X104170971Y-77598096D01*
X103990561Y-77651194D01*
X103990522Y-77651198D01*
X103990514Y-77651200D01*
X103803275Y-77668241D01*
X103616290Y-77648588D01*
X103616281Y-77648585D01*
X103616241Y-77648581D01*
X103436590Y-77592969D01*
X103271162Y-77503523D01*
X103126258Y-77383648D01*
X103007397Y-77237910D01*
X102919107Y-77071861D01*
X102864752Y-76891826D01*
X102846400Y-76704662D01*
X102846400Y-76695338D01*
X102846494Y-76681884D01*
X102867457Y-76494994D01*
X102924321Y-76315736D01*
X103014921Y-76150936D01*
X103135804Y-76006872D01*
X103282368Y-75889032D01*
X103449029Y-75801904D01*
X103629439Y-75748806D01*
X103629478Y-75748802D01*
X103629486Y-75748800D01*
X103816725Y-75731759D01*
X104003710Y-75751412D01*
X104003710Y-75751412D01*
G37*
G36*
X98923710Y-75751412D02*
X98923719Y-75751415D01*
X98923759Y-75751419D01*
X99103410Y-75807031D01*
X99268838Y-75896477D01*
X99413742Y-76016352D01*
X99532603Y-76162090D01*
X99620893Y-76328139D01*
X99675248Y-76508174D01*
X99693600Y-76695338D01*
X99693600Y-76704662D01*
X99693506Y-76718116D01*
X99672543Y-76905006D01*
X99615679Y-77084264D01*
X99525079Y-77249064D01*
X99404196Y-77393128D01*
X99257632Y-77510968D01*
X99090971Y-77598096D01*
X98910561Y-77651194D01*
X98910522Y-77651198D01*
X98910514Y-77651200D01*
X98723275Y-77668241D01*
X98536290Y-77648588D01*
X98536281Y-77648585D01*
X98536241Y-77648581D01*
X98356590Y-77592969D01*
X98191162Y-77503523D01*
X98046258Y-77383648D01*
X97927397Y-77237910D01*
X97839107Y-77071861D01*
X97784752Y-76891826D01*
X97766400Y-76704662D01*
X97766400Y-76695338D01*
X97766494Y-76681884D01*
X97787457Y-76494994D01*
X97844321Y-76315736D01*
X97934921Y-76150936D01*
X98055804Y-76006872D01*
X98202368Y-75889032D01*
X98369029Y-75801904D01*
X98549439Y-75748806D01*
X98549478Y-75748802D01*
X98549486Y-75748800D01*
X98736725Y-75731759D01*
X98923710Y-75751412D01*
X98923710Y-75751412D01*
G37*
G36*
X96383710Y-75751412D02*
X96383719Y-75751415D01*
X96383759Y-75751419D01*
X96563410Y-75807031D01*
X96728838Y-75896477D01*
X96873742Y-76016352D01*
X96992603Y-76162090D01*
X97080893Y-76328139D01*
X97135248Y-76508174D01*
X97153600Y-76695338D01*
X97153600Y-76704662D01*
X97153506Y-76718116D01*
X97132543Y-76905006D01*
X97075679Y-77084264D01*
X96985079Y-77249064D01*
X96864196Y-77393128D01*
X96717632Y-77510968D01*
X96550971Y-77598096D01*
X96370561Y-77651194D01*
X96370522Y-77651198D01*
X96370514Y-77651200D01*
X96183275Y-77668241D01*
X95996290Y-77648588D01*
X95996281Y-77648585D01*
X95996241Y-77648581D01*
X95816590Y-77592969D01*
X95651162Y-77503523D01*
X95506258Y-77383648D01*
X95387397Y-77237910D01*
X95299107Y-77071861D01*
X95244752Y-76891826D01*
X95226400Y-76704662D01*
X95226400Y-76695338D01*
X95226494Y-76681884D01*
X95247457Y-76494994D01*
X95304321Y-76315736D01*
X95394921Y-76150936D01*
X95515804Y-76006872D01*
X95662368Y-75889032D01*
X95829029Y-75801904D01*
X96009439Y-75748806D01*
X96009478Y-75748802D01*
X96009486Y-75748800D01*
X96196725Y-75731759D01*
X96383710Y-75751412D01*
X96383710Y-75751412D01*
G37*
G36*
X93843710Y-75751412D02*
X93843719Y-75751415D01*
X93843759Y-75751419D01*
X94023410Y-75807031D01*
X94188838Y-75896477D01*
X94333742Y-76016352D01*
X94452603Y-76162090D01*
X94540893Y-76328139D01*
X94595248Y-76508174D01*
X94613600Y-76695338D01*
X94613600Y-76704662D01*
X94613506Y-76718116D01*
X94592543Y-76905006D01*
X94535679Y-77084264D01*
X94445079Y-77249064D01*
X94324196Y-77393128D01*
X94177632Y-77510968D01*
X94010971Y-77598096D01*
X93830561Y-77651194D01*
X93830522Y-77651198D01*
X93830514Y-77651200D01*
X93643275Y-77668241D01*
X93456290Y-77648588D01*
X93456281Y-77648585D01*
X93456241Y-77648581D01*
X93276590Y-77592969D01*
X93111162Y-77503523D01*
X92966258Y-77383648D01*
X92847397Y-77237910D01*
X92759107Y-77071861D01*
X92704752Y-76891826D01*
X92686400Y-76704662D01*
X92686400Y-76695338D01*
X92686494Y-76681884D01*
X92707457Y-76494994D01*
X92764321Y-76315736D01*
X92854921Y-76150936D01*
X92975804Y-76006872D01*
X93122368Y-75889032D01*
X93289029Y-75801904D01*
X93469439Y-75748806D01*
X93469478Y-75748802D01*
X93469486Y-75748800D01*
X93656725Y-75731759D01*
X93843710Y-75751412D01*
X93843710Y-75751412D01*
G37*
G36*
X91303710Y-75751412D02*
X91303719Y-75751415D01*
X91303759Y-75751419D01*
X91483410Y-75807031D01*
X91648838Y-75896477D01*
X91793742Y-76016352D01*
X91912603Y-76162090D01*
X92000893Y-76328139D01*
X92055248Y-76508174D01*
X92073600Y-76695338D01*
X92073600Y-76704662D01*
X92073506Y-76718116D01*
X92052543Y-76905006D01*
X91995679Y-77084264D01*
X91905079Y-77249064D01*
X91784196Y-77393128D01*
X91637632Y-77510968D01*
X91470971Y-77598096D01*
X91290561Y-77651194D01*
X91290522Y-77651198D01*
X91290514Y-77651200D01*
X91103275Y-77668241D01*
X90916290Y-77648588D01*
X90916281Y-77648585D01*
X90916241Y-77648581D01*
X90736590Y-77592969D01*
X90571162Y-77503523D01*
X90426258Y-77383648D01*
X90307397Y-77237910D01*
X90219107Y-77071861D01*
X90164752Y-76891826D01*
X90146400Y-76704662D01*
X90146400Y-76695338D01*
X90146494Y-76681884D01*
X90167457Y-76494994D01*
X90224321Y-76315736D01*
X90314921Y-76150936D01*
X90435804Y-76006872D01*
X90582368Y-75889032D01*
X90749029Y-75801904D01*
X90929439Y-75748806D01*
X90929478Y-75748802D01*
X90929486Y-75748800D01*
X91116725Y-75731759D01*
X91303710Y-75751412D01*
X91303710Y-75751412D01*
G37*
G36*
X88763710Y-75751412D02*
X88763719Y-75751415D01*
X88763759Y-75751419D01*
X88943410Y-75807031D01*
X89108838Y-75896477D01*
X89253742Y-76016352D01*
X89372603Y-76162090D01*
X89460893Y-76328139D01*
X89515248Y-76508174D01*
X89533600Y-76695338D01*
X89533600Y-76704662D01*
X89533506Y-76718116D01*
X89512543Y-76905006D01*
X89455679Y-77084264D01*
X89365079Y-77249064D01*
X89244196Y-77393128D01*
X89097632Y-77510968D01*
X88930971Y-77598096D01*
X88750561Y-77651194D01*
X88750522Y-77651198D01*
X88750514Y-77651200D01*
X88563275Y-77668241D01*
X88376290Y-77648588D01*
X88376281Y-77648585D01*
X88376241Y-77648581D01*
X88196590Y-77592969D01*
X88031162Y-77503523D01*
X87886258Y-77383648D01*
X87767397Y-77237910D01*
X87679107Y-77071861D01*
X87624752Y-76891826D01*
X87606400Y-76704662D01*
X87606400Y-76695338D01*
X87606494Y-76681884D01*
X87627457Y-76494994D01*
X87684321Y-76315736D01*
X87774921Y-76150936D01*
X87895804Y-76006872D01*
X88042368Y-75889032D01*
X88209029Y-75801904D01*
X88389439Y-75748806D01*
X88389478Y-75748802D01*
X88389486Y-75748800D01*
X88576725Y-75731759D01*
X88763710Y-75751412D01*
X88763710Y-75751412D01*
G37*
G36*
X109083710Y-75751412D02*
X109083719Y-75751415D01*
X109083759Y-75751419D01*
X109263410Y-75807031D01*
X109428838Y-75896477D01*
X109573742Y-76016352D01*
X109692603Y-76162090D01*
X109780893Y-76328139D01*
X109835248Y-76508174D01*
X109853600Y-76695338D01*
X109853600Y-76704662D01*
X109853506Y-76718116D01*
X109832543Y-76905006D01*
X109775679Y-77084264D01*
X109685079Y-77249064D01*
X109564196Y-77393128D01*
X109417632Y-77510968D01*
X109250971Y-77598096D01*
X109070561Y-77651194D01*
X109070522Y-77651198D01*
X109070514Y-77651200D01*
X108883275Y-77668241D01*
X108696290Y-77648588D01*
X108696281Y-77648585D01*
X108696241Y-77648581D01*
X108516590Y-77592969D01*
X108351162Y-77503523D01*
X108206258Y-77383648D01*
X108087397Y-77237910D01*
X107999107Y-77071861D01*
X107944752Y-76891826D01*
X107926400Y-76704662D01*
X107926400Y-76695338D01*
X107926494Y-76681884D01*
X107947457Y-76494994D01*
X108004321Y-76315736D01*
X108094921Y-76150936D01*
X108215804Y-76006872D01*
X108362368Y-75889032D01*
X108529029Y-75801904D01*
X108709439Y-75748806D01*
X108709478Y-75748802D01*
X108709486Y-75748800D01*
X108896725Y-75731759D01*
X109083710Y-75751412D01*
X109083710Y-75751412D01*
G37*
G36*
X111623710Y-75751412D02*
X111623719Y-75751415D01*
X111623759Y-75751419D01*
X111803410Y-75807031D01*
X111968838Y-75896477D01*
X112113742Y-76016352D01*
X112232603Y-76162090D01*
X112320893Y-76328139D01*
X112375248Y-76508174D01*
X112393600Y-76695338D01*
X112393600Y-76704662D01*
X112393506Y-76718116D01*
X112372543Y-76905006D01*
X112315679Y-77084264D01*
X112225079Y-77249064D01*
X112104196Y-77393128D01*
X111957632Y-77510968D01*
X111790971Y-77598096D01*
X111610561Y-77651194D01*
X111610522Y-77651198D01*
X111610514Y-77651200D01*
X111423275Y-77668241D01*
X111236290Y-77648588D01*
X111236281Y-77648585D01*
X111236241Y-77648581D01*
X111056590Y-77592969D01*
X110891162Y-77503523D01*
X110746258Y-77383648D01*
X110627397Y-77237910D01*
X110539107Y-77071861D01*
X110484752Y-76891826D01*
X110466400Y-76704662D01*
X110466400Y-76695338D01*
X110466494Y-76681884D01*
X110487457Y-76494994D01*
X110544321Y-76315736D01*
X110634921Y-76150936D01*
X110755804Y-76006872D01*
X110902368Y-75889032D01*
X111069029Y-75801904D01*
X111249439Y-75748806D01*
X111249478Y-75748802D01*
X111249486Y-75748800D01*
X111436725Y-75731759D01*
X111623710Y-75751412D01*
X111623710Y-75751412D01*
G37*
G36*
X101463710Y-75751412D02*
X101463719Y-75751415D01*
X101463759Y-75751419D01*
X101643410Y-75807031D01*
X101808838Y-75896477D01*
X101953742Y-76016352D01*
X102072603Y-76162090D01*
X102160893Y-76328139D01*
X102215248Y-76508174D01*
X102233600Y-76695338D01*
X102233600Y-76704662D01*
X102233506Y-76718116D01*
X102212543Y-76905006D01*
X102155679Y-77084264D01*
X102065079Y-77249064D01*
X101944196Y-77393128D01*
X101797632Y-77510968D01*
X101630971Y-77598096D01*
X101450561Y-77651194D01*
X101450522Y-77651198D01*
X101450514Y-77651200D01*
X101263275Y-77668241D01*
X101076290Y-77648588D01*
X101076281Y-77648585D01*
X101076241Y-77648581D01*
X100896590Y-77592969D01*
X100731162Y-77503523D01*
X100586258Y-77383648D01*
X100467397Y-77237910D01*
X100379107Y-77071861D01*
X100324752Y-76891826D01*
X100306400Y-76704662D01*
X100306400Y-76695338D01*
X100306494Y-76681884D01*
X100327457Y-76494994D01*
X100384321Y-76315736D01*
X100474921Y-76150936D01*
X100595804Y-76006872D01*
X100742368Y-75889032D01*
X100909029Y-75801904D01*
X101089439Y-75748806D01*
X101089478Y-75748802D01*
X101089486Y-75748800D01*
X101276725Y-75731759D01*
X101463710Y-75751412D01*
X101463710Y-75751412D01*
G37*
G36*
X75971211Y-74907040D02*
X76156325Y-74945039D01*
X76330528Y-75018267D01*
X76487194Y-75123939D01*
X76620352Y-75258031D01*
X76724929Y-75415430D01*
X76796937Y-75590137D01*
X76833575Y-75775170D01*
X76833575Y-75775180D01*
X76833641Y-75775514D01*
X76830627Y-75991355D01*
X76830551Y-75991689D01*
X76830551Y-75991701D01*
X76788764Y-76175630D01*
X76711901Y-76348266D01*
X76602969Y-76502685D01*
X76466123Y-76633003D01*
X76306570Y-76734258D01*
X76130385Y-76802597D01*
X75944287Y-76835410D01*
X75755356Y-76831453D01*
X75570786Y-76790873D01*
X75397623Y-76715220D01*
X75242449Y-76607371D01*
X75111176Y-76471433D01*
X75008811Y-76312594D01*
X74939245Y-76136892D01*
X74905131Y-75951019D01*
X74907770Y-75762067D01*
X74947058Y-75577228D01*
X75021504Y-75403535D01*
X75128267Y-75247612D01*
X75263284Y-75115393D01*
X75421407Y-75011920D01*
X75596619Y-74941130D01*
X75782240Y-74905721D01*
X75971211Y-74907040D01*
X75971211Y-74907040D01*
G37*
G36*
X124231211Y-74907040D02*
X124416325Y-74945039D01*
X124590528Y-75018267D01*
X124747194Y-75123939D01*
X124880352Y-75258031D01*
X124984929Y-75415430D01*
X125056937Y-75590137D01*
X125093575Y-75775170D01*
X125093575Y-75775180D01*
X125093641Y-75775514D01*
X125090627Y-75991355D01*
X125090551Y-75991689D01*
X125090551Y-75991701D01*
X125048764Y-76175630D01*
X124971901Y-76348266D01*
X124862969Y-76502685D01*
X124726123Y-76633003D01*
X124566570Y-76734258D01*
X124390385Y-76802597D01*
X124204287Y-76835410D01*
X124015356Y-76831453D01*
X123830786Y-76790873D01*
X123657623Y-76715220D01*
X123502449Y-76607371D01*
X123371176Y-76471433D01*
X123268811Y-76312594D01*
X123199245Y-76136892D01*
X123165131Y-75951019D01*
X123167770Y-75762067D01*
X123207058Y-75577228D01*
X123281504Y-75403535D01*
X123388267Y-75247612D01*
X123523284Y-75115393D01*
X123681407Y-75011920D01*
X123856619Y-74941130D01*
X124042240Y-74905721D01*
X124231211Y-74907040D01*
X124231211Y-74907040D01*
G37*
M02*
