M48
METRIC,TZ
T1C0.300
T2C1.016
%
G90
G05
T1
X77434Y-81684
X78000Y-82250
X78750Y-98750
X79000Y-108250
X79000Y-109300
X79250Y-111500
X79250Y-112500
X79250Y-117500
X79750Y-102000
X80000Y-124000
X80750Y-99750
X81750Y-114500
X81885Y-119750
X82000Y-95750
X82000Y-104500
X82250Y-82250
X82250Y-92000
X82250Y-93000
X82250Y-102000
X82750Y-77750
X83000Y-114500
X83500Y-108500
X83750Y-82250
X84000Y-90250
X84125Y-109500
X84250Y-99000
X85250Y-87500
X85250Y-107250
X86250Y-76750
X86250Y-116750
X86500Y-88500
X87250Y-122750
X88000Y-113750
X88250Y-120750
X88500Y-95750
X88720Y-93000
X88750Y-92000
X89250Y-122750
X90500Y-90250
X91250Y-120750
X91250Y-122750
X91500Y-104250
X91500Y-101750
X91550Y-108500
X91750Y-87500
X92750Y-101250
X92779Y-104279
X93000Y-88500
X93000Y-114750
X93750Y-112750
X95000Y-95750
X95218Y-93049
X95250Y-87750
X95250Y-92000
X95250Y-101875
X95500Y-107500
X95500Y-113000
X96250Y-98000
X97000Y-90250
X97000Y-109000
X97006Y-103766
X97250Y-101750
X97362Y-97250
X98250Y-87500
X99000Y-105000
X99500Y-88500
X101250Y-104500
X101500Y-88000
X101500Y-92000
X101500Y-93000
X101500Y-95750
X101500Y-116750
X102500Y-77750
X102500Y-98750
X103250Y-90250
X104500Y-87500
X105750Y-88500
X105750Y-106750
X107250Y-110000
X107750Y-95750
X108000Y-92000
X108000Y-93000
X109000Y-116750
X109125Y-110133
X109750Y-90250
X109750Y-107750
X109976Y-109366
X110119Y-108578
X110750Y-101250
X111000Y-87500
X111500Y-114250
X111750Y-102500
X112100Y-104150
X112500Y-88500
X113244Y-82500
X113250Y-79000
X114250Y-95750
X114354Y-112250
X114500Y-101750
X114500Y-92000
X114500Y-93000
X115500Y-110250
X116250Y-90250
X116250Y-111000
X116750Y-100750
X117250Y-117000
X117500Y-87500
X117750Y-81500
X118750Y-116000
X119000Y-88500
X119500Y-115500
X119750Y-96750
X119750Y-104750
X120250Y-120000
T2
X75870Y-75870
X75870Y-78410
X75870Y-80950
X75870Y-83490
X75870Y-86030
X75870Y-88570
X75870Y-91110
X75870Y-93650
X75870Y-96190
X75870Y-98730
X75870Y-101270
X75870Y-103810
X75870Y-106350
X75870Y-108890
X75870Y-111430
X75870Y-113970
X75870Y-116510
X75870Y-119050
X75870Y-121590
X75870Y-124130
X85050Y-111500
X87590Y-111500
X88570Y-76700
X88570Y-81780
X88570Y-84320
X90130Y-111500
X91110Y-76700
X91110Y-81780
X91110Y-84320
X92670Y-111500
X93650Y-76700
X93650Y-81780
X93650Y-84320
X95100Y-118250
X95210Y-111500
X96190Y-76700
X96190Y-81780
X96190Y-84320
X97640Y-118250
X97750Y-111500
X98730Y-76700
X98730Y-81780
X98730Y-84320
X100180Y-118250
X100290Y-111500
X101270Y-76700
X101270Y-81780
X101270Y-84320
X102720Y-118250
X102830Y-111500
X103810Y-76700
X103810Y-81780
X103810Y-84320
X105260Y-118250
X105370Y-111500
X106350Y-76700
X106350Y-81780
X106350Y-84320
X107800Y-118250
X107910Y-111500
X108890Y-76700
X108890Y-81780
X108890Y-84320
X110340Y-118250
X110450Y-111500
X111430Y-76700
X111430Y-81780
X111430Y-84320
X112880Y-118250
X112990Y-111500
X115420Y-118250
X121100Y-98340
X121100Y-100880
X121100Y-103420
X121100Y-105960
X121100Y-108500
X121100Y-111040
X121100Y-113580
X121100Y-116120
X121100Y-118660
X124130Y-75870
X124130Y-78410
X124130Y-80950
X124130Y-83490
X124130Y-86030
X124130Y-88570
X124130Y-91110
X124130Y-93650
X124130Y-96190
X124130Y-98730
X124130Y-101270
X124130Y-103810
X124130Y-106350
X124130Y-108890
X124130Y-111430
X124130Y-113970
X124130Y-116510
X124130Y-119050
X124130Y-121590
X124130Y-124130
T0
M30
