G04 #@! TF.FileFunction,Profile,NP*
%FSLAX46Y46*%
G04 Gerber Fmt 4.6, Leading zero omitted, Abs format (unit mm)*
G04 Created by KiCad (PCBNEW 4.0.5+dfsg1-4) date Mon May 29 14:43:21 2017*
%MOMM*%
%LPD*%
G01*
G04 APERTURE LIST*
%ADD10C,0.100000*%
G04 APERTURE END LIST*
D10*
X71069103Y-81929711D02*
X71069103Y-117929711D01*
X106069103Y-85379711D02*
X94069103Y-85379711D01*
X133313206Y-133034422D02*
X118069103Y-133034422D01*
X106069103Y-85379711D02*
G75*
G02X106069103Y-94379711I0J-4500000D01*
G01*
X66964392Y-117929711D02*
X71069103Y-117929711D01*
X94069103Y-114479711D02*
G75*
G02X94069103Y-105479711I0J4500000D01*
G01*
X133313206Y-117929711D02*
X129069103Y-117929711D01*
X66964392Y-133173814D02*
X66964392Y-117929711D01*
X66825000Y-81929711D02*
X66825000Y-66825000D01*
X94069103Y-114479711D02*
X106069103Y-114479711D01*
X82069103Y-70929711D02*
X118069103Y-70929711D01*
X94069103Y-94379711D02*
X106069103Y-94379711D01*
X133313206Y-117929711D02*
X133313206Y-133034422D01*
X94069103Y-94379711D02*
G75*
G02X94069103Y-85379711I0J4500000D01*
G01*
X82069103Y-66825000D02*
X82069103Y-70929711D01*
X118069103Y-133034422D02*
X118069103Y-128929711D01*
X82069103Y-128929711D02*
X118069103Y-128929711D01*
X106069103Y-105479711D02*
X94069103Y-105479711D01*
X82069103Y-133173814D02*
X66964392Y-133173814D01*
X129069103Y-81929711D02*
X129069103Y-117929711D01*
X106069103Y-105479711D02*
G75*
G02X106069103Y-114479711I0J-4500000D01*
G01*
X133173814Y-66685608D02*
X133173814Y-81929711D01*
X133173814Y-81929711D02*
X129069103Y-81929711D01*
X118069103Y-66685608D02*
X118069103Y-70929711D01*
X118069103Y-66685608D02*
X133173814Y-66685608D01*
X82069103Y-133173814D02*
X82069103Y-128929711D01*
X66825000Y-81929711D02*
X71069103Y-81929711D01*
X66825000Y-66825000D02*
X82069103Y-66825000D01*
M02*
