G04 #@! TF.FileFunction,Soldermask,Top*
%FSLAX46Y46*%
G04 Gerber Fmt 4.6, Leading zero omitted, Abs format (unit mm)*
G04 Created by KiCad (PCBNEW 4.0.5+dfsg1-4) date Mon May 29 14:43:21 2017*
%MOMM*%
%LPD*%
G01*
G04 APERTURE LIST*
%ADD10C,0.100000*%
G04 APERTURE END LIST*
D10*
G36*
X72033272Y-119215430D02*
X72158139Y-119241061D01*
X72275652Y-119290459D01*
X72381332Y-119361741D01*
X72471156Y-119452194D01*
X72541695Y-119558364D01*
X72590271Y-119676218D01*
X72614928Y-119800744D01*
X72614928Y-119800758D01*
X72615028Y-119801264D01*
X72612995Y-119946861D01*
X72612880Y-119947366D01*
X72612880Y-119947379D01*
X72584757Y-120071165D01*
X72532910Y-120187615D01*
X72459428Y-120291783D01*
X72367120Y-120379686D01*
X72278677Y-120435814D01*
X72262626Y-120449517D01*
X72251028Y-120467149D01*
X72244802Y-120487315D01*
X72244440Y-120508416D01*
X72249971Y-120528783D01*
X72260957Y-120546802D01*
X72276924Y-120561317D01*
X72381332Y-120631741D01*
X72471156Y-120722194D01*
X72541695Y-120828364D01*
X72590271Y-120946218D01*
X72614928Y-121070744D01*
X72614928Y-121070758D01*
X72615028Y-121071264D01*
X72612995Y-121216861D01*
X72612880Y-121217366D01*
X72612880Y-121217379D01*
X72584757Y-121341165D01*
X72532910Y-121457615D01*
X72459428Y-121561783D01*
X72367120Y-121649686D01*
X72278677Y-121705814D01*
X72262626Y-121719517D01*
X72251028Y-121737149D01*
X72244802Y-121757315D01*
X72244440Y-121778416D01*
X72249971Y-121798783D01*
X72260957Y-121816802D01*
X72276924Y-121831317D01*
X72381332Y-121901741D01*
X72471156Y-121992194D01*
X72541695Y-122098364D01*
X72590271Y-122216218D01*
X72614928Y-122340744D01*
X72614928Y-122340758D01*
X72615028Y-122341264D01*
X72612995Y-122486861D01*
X72612880Y-122487366D01*
X72612880Y-122487379D01*
X72584757Y-122611165D01*
X72532910Y-122727615D01*
X72459428Y-122831783D01*
X72367120Y-122919686D01*
X72278677Y-122975814D01*
X72262626Y-122989517D01*
X72251028Y-123007149D01*
X72244802Y-123027315D01*
X72244440Y-123048416D01*
X72249971Y-123068783D01*
X72260957Y-123086802D01*
X72276924Y-123101317D01*
X72381332Y-123171741D01*
X72471156Y-123262194D01*
X72541695Y-123368364D01*
X72590271Y-123486218D01*
X72614928Y-123610744D01*
X72614928Y-123610758D01*
X72615028Y-123611264D01*
X72612995Y-123756861D01*
X72612880Y-123757366D01*
X72612880Y-123757379D01*
X72584757Y-123881165D01*
X72532910Y-123997615D01*
X72459428Y-124101783D01*
X72367120Y-124189686D01*
X72278677Y-124245814D01*
X72262626Y-124259517D01*
X72251028Y-124277149D01*
X72244802Y-124297315D01*
X72244440Y-124318416D01*
X72249971Y-124338783D01*
X72260957Y-124356802D01*
X72276924Y-124371317D01*
X72381332Y-124441741D01*
X72471156Y-124532194D01*
X72541695Y-124638364D01*
X72590271Y-124756218D01*
X72614928Y-124880744D01*
X72614928Y-124880758D01*
X72615028Y-124881264D01*
X72612995Y-125026861D01*
X72612880Y-125027366D01*
X72612880Y-125027379D01*
X72584757Y-125151165D01*
X72532910Y-125267615D01*
X72459428Y-125371783D01*
X72367120Y-125459686D01*
X72278677Y-125515814D01*
X72262626Y-125529517D01*
X72251028Y-125547149D01*
X72244802Y-125567315D01*
X72244440Y-125588416D01*
X72249971Y-125608783D01*
X72260957Y-125626802D01*
X72276924Y-125641317D01*
X72381332Y-125711741D01*
X72471156Y-125802194D01*
X72541695Y-125908364D01*
X72590271Y-126026218D01*
X72614928Y-126150744D01*
X72614928Y-126150758D01*
X72615028Y-126151264D01*
X72612995Y-126296861D01*
X72612880Y-126297366D01*
X72612880Y-126297379D01*
X72584757Y-126421165D01*
X72532910Y-126537615D01*
X72459428Y-126641783D01*
X72367120Y-126729686D01*
X72278677Y-126785814D01*
X72262626Y-126799517D01*
X72251028Y-126817149D01*
X72244802Y-126837315D01*
X72244440Y-126858416D01*
X72249971Y-126878783D01*
X72260957Y-126896802D01*
X72276924Y-126911317D01*
X72381332Y-126981741D01*
X72471156Y-127072194D01*
X72541695Y-127178364D01*
X72590271Y-127296218D01*
X72614928Y-127420744D01*
X72614928Y-127420758D01*
X72615028Y-127421264D01*
X72612995Y-127566861D01*
X72612880Y-127567366D01*
X72612880Y-127567379D01*
X72584757Y-127691165D01*
X72532910Y-127807615D01*
X72459428Y-127911783D01*
X72367120Y-127999686D01*
X72278677Y-128055814D01*
X72262626Y-128069517D01*
X72251028Y-128087149D01*
X72244802Y-128107315D01*
X72244440Y-128128416D01*
X72249971Y-128148783D01*
X72260957Y-128166802D01*
X72276924Y-128181317D01*
X72381332Y-128251741D01*
X72471156Y-128342194D01*
X72541695Y-128448364D01*
X72590271Y-128566218D01*
X72614928Y-128690744D01*
X72614928Y-128690758D01*
X72615028Y-128691264D01*
X72612995Y-128836861D01*
X72612880Y-128837366D01*
X72612880Y-128837379D01*
X72584757Y-128961165D01*
X72532910Y-129077615D01*
X72459428Y-129181783D01*
X72367120Y-129269686D01*
X72278677Y-129325814D01*
X72262626Y-129339517D01*
X72251028Y-129357149D01*
X72244802Y-129377315D01*
X72244440Y-129398416D01*
X72249971Y-129418783D01*
X72260957Y-129436802D01*
X72276924Y-129451317D01*
X72381332Y-129521741D01*
X72471156Y-129612194D01*
X72541695Y-129718364D01*
X72590271Y-129836218D01*
X72614928Y-129960744D01*
X72614928Y-129960758D01*
X72615028Y-129961264D01*
X72612995Y-130106861D01*
X72612880Y-130107366D01*
X72612880Y-130107379D01*
X72584757Y-130231165D01*
X72532910Y-130347615D01*
X72459428Y-130451783D01*
X72367120Y-130539686D01*
X72278677Y-130595814D01*
X72262626Y-130609517D01*
X72251028Y-130627149D01*
X72244802Y-130647315D01*
X72244440Y-130668416D01*
X72249971Y-130688783D01*
X72260957Y-130706802D01*
X72276924Y-130721317D01*
X72381332Y-130791741D01*
X72471156Y-130882194D01*
X72541695Y-130988364D01*
X72590271Y-131106218D01*
X72614928Y-131230744D01*
X72614928Y-131230758D01*
X72615028Y-131231264D01*
X72612995Y-131376861D01*
X72612880Y-131377366D01*
X72612880Y-131377379D01*
X72584757Y-131501165D01*
X72532910Y-131617615D01*
X72459428Y-131721783D01*
X72367117Y-131809689D01*
X72259491Y-131877991D01*
X72140647Y-131924088D01*
X72015109Y-131946223D01*
X71887660Y-131943553D01*
X71763167Y-131916181D01*
X71646354Y-131865148D01*
X71541683Y-131792400D01*
X71453133Y-131700703D01*
X71393895Y-131608783D01*
X71380080Y-131592828D01*
X71362367Y-131581354D01*
X71342159Y-131575268D01*
X71321056Y-131575053D01*
X71300728Y-131580726D01*
X71282786Y-131591838D01*
X71268649Y-131607508D01*
X71263562Y-131616692D01*
X71189428Y-131721783D01*
X71097117Y-131809689D01*
X70989491Y-131877991D01*
X70870647Y-131924088D01*
X70745109Y-131946223D01*
X70617660Y-131943553D01*
X70493167Y-131916181D01*
X70376354Y-131865148D01*
X70271683Y-131792400D01*
X70183133Y-131700703D01*
X70114077Y-131593549D01*
X70067154Y-131475034D01*
X70044143Y-131349655D01*
X70045922Y-131222192D01*
X70072425Y-131097508D01*
X70122642Y-130980344D01*
X70194658Y-130875166D01*
X70285738Y-130785974D01*
X70380816Y-130723757D01*
X70396674Y-130709832D01*
X70408025Y-130692040D01*
X70413969Y-130671790D01*
X70413979Y-130668416D01*
X70974440Y-130668416D01*
X70979971Y-130688783D01*
X70990957Y-130706802D01*
X71006924Y-130721317D01*
X71111332Y-130791741D01*
X71201154Y-130882192D01*
X71267021Y-130981330D01*
X71281057Y-130997090D01*
X71298928Y-131008316D01*
X71319219Y-131014118D01*
X71340324Y-131014038D01*
X71360570Y-131008082D01*
X71378355Y-130996721D01*
X71391374Y-130982197D01*
X71464658Y-130875166D01*
X71555738Y-130785974D01*
X71650816Y-130723757D01*
X71666674Y-130709832D01*
X71678025Y-130692040D01*
X71683969Y-130671790D01*
X71684036Y-130650685D01*
X71678222Y-130630398D01*
X71666985Y-130612533D01*
X71652304Y-130599473D01*
X71652393Y-130599345D01*
X71651328Y-130598605D01*
X71651217Y-130598506D01*
X71651074Y-130598429D01*
X71541683Y-130522400D01*
X71453133Y-130430703D01*
X71393895Y-130338783D01*
X71380080Y-130322828D01*
X71362367Y-130311354D01*
X71342159Y-130305268D01*
X71321056Y-130305053D01*
X71300728Y-130310726D01*
X71282786Y-130321838D01*
X71268649Y-130337508D01*
X71263562Y-130346692D01*
X71189428Y-130451783D01*
X71097120Y-130539686D01*
X71008677Y-130595814D01*
X70992626Y-130609517D01*
X70981028Y-130627149D01*
X70974802Y-130647315D01*
X70974440Y-130668416D01*
X70413979Y-130668416D01*
X70414036Y-130650685D01*
X70408222Y-130630398D01*
X70396985Y-130612533D01*
X70382304Y-130599473D01*
X70382393Y-130599345D01*
X70381328Y-130598605D01*
X70381217Y-130598506D01*
X70381074Y-130598429D01*
X70271683Y-130522400D01*
X70183133Y-130430703D01*
X70114077Y-130323549D01*
X70067154Y-130205034D01*
X70044143Y-130079655D01*
X70045922Y-129952192D01*
X70072425Y-129827508D01*
X70122642Y-129710344D01*
X70194658Y-129605166D01*
X70285738Y-129515974D01*
X70380816Y-129453757D01*
X70396674Y-129439832D01*
X70408025Y-129422040D01*
X70413969Y-129401790D01*
X70413979Y-129398416D01*
X70974440Y-129398416D01*
X70979971Y-129418783D01*
X70990957Y-129436802D01*
X71006924Y-129451317D01*
X71111332Y-129521741D01*
X71201154Y-129612192D01*
X71267021Y-129711330D01*
X71281057Y-129727090D01*
X71298928Y-129738316D01*
X71319219Y-129744118D01*
X71340324Y-129744038D01*
X71360570Y-129738082D01*
X71378355Y-129726721D01*
X71391374Y-129712197D01*
X71464658Y-129605166D01*
X71555738Y-129515974D01*
X71650816Y-129453757D01*
X71666674Y-129439832D01*
X71678025Y-129422040D01*
X71683969Y-129401790D01*
X71684036Y-129380685D01*
X71678222Y-129360398D01*
X71666985Y-129342533D01*
X71652304Y-129329473D01*
X71652393Y-129329345D01*
X71651328Y-129328605D01*
X71651217Y-129328506D01*
X71651074Y-129328429D01*
X71541683Y-129252400D01*
X71453133Y-129160703D01*
X71393895Y-129068783D01*
X71380080Y-129052828D01*
X71362367Y-129041354D01*
X71342159Y-129035268D01*
X71321056Y-129035053D01*
X71300728Y-129040726D01*
X71282786Y-129051838D01*
X71268649Y-129067508D01*
X71263562Y-129076692D01*
X71189428Y-129181783D01*
X71097120Y-129269686D01*
X71008677Y-129325814D01*
X70992626Y-129339517D01*
X70981028Y-129357149D01*
X70974802Y-129377315D01*
X70974440Y-129398416D01*
X70413979Y-129398416D01*
X70414036Y-129380685D01*
X70408222Y-129360398D01*
X70396985Y-129342533D01*
X70382304Y-129329473D01*
X70382393Y-129329345D01*
X70381328Y-129328605D01*
X70381217Y-129328506D01*
X70381074Y-129328429D01*
X70271683Y-129252400D01*
X70183133Y-129160703D01*
X70114077Y-129053549D01*
X70067154Y-128935034D01*
X70044143Y-128809655D01*
X70045922Y-128682192D01*
X70072425Y-128557508D01*
X70122642Y-128440344D01*
X70194658Y-128335166D01*
X70285738Y-128245974D01*
X70380816Y-128183757D01*
X70396674Y-128169832D01*
X70408025Y-128152040D01*
X70413969Y-128131790D01*
X70413979Y-128128416D01*
X70974440Y-128128416D01*
X70979971Y-128148783D01*
X70990957Y-128166802D01*
X71006924Y-128181317D01*
X71111332Y-128251741D01*
X71201154Y-128342192D01*
X71267021Y-128441330D01*
X71281057Y-128457090D01*
X71298928Y-128468316D01*
X71319219Y-128474118D01*
X71340324Y-128474038D01*
X71360570Y-128468082D01*
X71378355Y-128456721D01*
X71391374Y-128442197D01*
X71464658Y-128335166D01*
X71555738Y-128245974D01*
X71650816Y-128183757D01*
X71666674Y-128169832D01*
X71678025Y-128152040D01*
X71683969Y-128131790D01*
X71684036Y-128110685D01*
X71678222Y-128090398D01*
X71666985Y-128072533D01*
X71652304Y-128059473D01*
X71652393Y-128059345D01*
X71651328Y-128058605D01*
X71651217Y-128058506D01*
X71651074Y-128058429D01*
X71541683Y-127982400D01*
X71453133Y-127890703D01*
X71393895Y-127798783D01*
X71380080Y-127782828D01*
X71362367Y-127771354D01*
X71342159Y-127765268D01*
X71321056Y-127765053D01*
X71300728Y-127770726D01*
X71282786Y-127781838D01*
X71268649Y-127797508D01*
X71263562Y-127806692D01*
X71189428Y-127911783D01*
X71097120Y-127999686D01*
X71008677Y-128055814D01*
X70992626Y-128069517D01*
X70981028Y-128087149D01*
X70974802Y-128107315D01*
X70974440Y-128128416D01*
X70413979Y-128128416D01*
X70414036Y-128110685D01*
X70408222Y-128090398D01*
X70396985Y-128072533D01*
X70382304Y-128059473D01*
X70382393Y-128059345D01*
X70381328Y-128058605D01*
X70381217Y-128058506D01*
X70381074Y-128058429D01*
X70271683Y-127982400D01*
X70183133Y-127890703D01*
X70114077Y-127783549D01*
X70067154Y-127665034D01*
X70044143Y-127539655D01*
X70045922Y-127412192D01*
X70072425Y-127287508D01*
X70122642Y-127170344D01*
X70194658Y-127065166D01*
X70285738Y-126975974D01*
X70380816Y-126913757D01*
X70396674Y-126899832D01*
X70408025Y-126882040D01*
X70413969Y-126861790D01*
X70413979Y-126858416D01*
X70974440Y-126858416D01*
X70979971Y-126878783D01*
X70990957Y-126896802D01*
X71006924Y-126911317D01*
X71111332Y-126981741D01*
X71201154Y-127072192D01*
X71267021Y-127171330D01*
X71281057Y-127187090D01*
X71298928Y-127198316D01*
X71319219Y-127204118D01*
X71340324Y-127204038D01*
X71360570Y-127198082D01*
X71378355Y-127186721D01*
X71391374Y-127172197D01*
X71464658Y-127065166D01*
X71555738Y-126975974D01*
X71650816Y-126913757D01*
X71666674Y-126899832D01*
X71678025Y-126882040D01*
X71683969Y-126861790D01*
X71684036Y-126840685D01*
X71678222Y-126820398D01*
X71666985Y-126802533D01*
X71652304Y-126789473D01*
X71652393Y-126789345D01*
X71651328Y-126788605D01*
X71651217Y-126788506D01*
X71651074Y-126788429D01*
X71541683Y-126712400D01*
X71453133Y-126620703D01*
X71393895Y-126528783D01*
X71380080Y-126512828D01*
X71362367Y-126501354D01*
X71342159Y-126495268D01*
X71321056Y-126495053D01*
X71300728Y-126500726D01*
X71282786Y-126511838D01*
X71268649Y-126527508D01*
X71263562Y-126536692D01*
X71189428Y-126641783D01*
X71097120Y-126729686D01*
X71008677Y-126785814D01*
X70992626Y-126799517D01*
X70981028Y-126817149D01*
X70974802Y-126837315D01*
X70974440Y-126858416D01*
X70413979Y-126858416D01*
X70414036Y-126840685D01*
X70408222Y-126820398D01*
X70396985Y-126802533D01*
X70382304Y-126789473D01*
X70382393Y-126789345D01*
X70381328Y-126788605D01*
X70381217Y-126788506D01*
X70381074Y-126788429D01*
X70271683Y-126712400D01*
X70183133Y-126620703D01*
X70114077Y-126513549D01*
X70067154Y-126395034D01*
X70044143Y-126269655D01*
X70045922Y-126142192D01*
X70072425Y-126017508D01*
X70122642Y-125900344D01*
X70194658Y-125795166D01*
X70285738Y-125705974D01*
X70380816Y-125643757D01*
X70396674Y-125629832D01*
X70408025Y-125612040D01*
X70413969Y-125591790D01*
X70413979Y-125588416D01*
X70974440Y-125588416D01*
X70979971Y-125608783D01*
X70990957Y-125626802D01*
X71006924Y-125641317D01*
X71111332Y-125711741D01*
X71201154Y-125802192D01*
X71267021Y-125901330D01*
X71281057Y-125917090D01*
X71298928Y-125928316D01*
X71319219Y-125934118D01*
X71340324Y-125934038D01*
X71360570Y-125928082D01*
X71378355Y-125916721D01*
X71391374Y-125902197D01*
X71464658Y-125795166D01*
X71555738Y-125705974D01*
X71650816Y-125643757D01*
X71666674Y-125629832D01*
X71678025Y-125612040D01*
X71683969Y-125591790D01*
X71684036Y-125570685D01*
X71678222Y-125550398D01*
X71666985Y-125532533D01*
X71652304Y-125519473D01*
X71652393Y-125519345D01*
X71651328Y-125518605D01*
X71651217Y-125518506D01*
X71651074Y-125518429D01*
X71541683Y-125442400D01*
X71453133Y-125350703D01*
X71393895Y-125258783D01*
X71380080Y-125242828D01*
X71362367Y-125231354D01*
X71342159Y-125225268D01*
X71321056Y-125225053D01*
X71300728Y-125230726D01*
X71282786Y-125241838D01*
X71268649Y-125257508D01*
X71263562Y-125266692D01*
X71189428Y-125371783D01*
X71097120Y-125459686D01*
X71008677Y-125515814D01*
X70992626Y-125529517D01*
X70981028Y-125547149D01*
X70974802Y-125567315D01*
X70974440Y-125588416D01*
X70413979Y-125588416D01*
X70414036Y-125570685D01*
X70408222Y-125550398D01*
X70396985Y-125532533D01*
X70382304Y-125519473D01*
X70382393Y-125519345D01*
X70381328Y-125518605D01*
X70381217Y-125518506D01*
X70381074Y-125518429D01*
X70271683Y-125442400D01*
X70183133Y-125350703D01*
X70114077Y-125243549D01*
X70067154Y-125125034D01*
X70044143Y-124999655D01*
X70045922Y-124872192D01*
X70072425Y-124747508D01*
X70122642Y-124630344D01*
X70194658Y-124525166D01*
X70285738Y-124435974D01*
X70380816Y-124373757D01*
X70396674Y-124359832D01*
X70408025Y-124342040D01*
X70413969Y-124321790D01*
X70413979Y-124318416D01*
X70974440Y-124318416D01*
X70979971Y-124338783D01*
X70990957Y-124356802D01*
X71006924Y-124371317D01*
X71111332Y-124441741D01*
X71201154Y-124532192D01*
X71267021Y-124631330D01*
X71281057Y-124647090D01*
X71298928Y-124658316D01*
X71319219Y-124664118D01*
X71340324Y-124664038D01*
X71360570Y-124658082D01*
X71378355Y-124646721D01*
X71391374Y-124632197D01*
X71464658Y-124525166D01*
X71555738Y-124435974D01*
X71650816Y-124373757D01*
X71666674Y-124359832D01*
X71678025Y-124342040D01*
X71683969Y-124321790D01*
X71684036Y-124300685D01*
X71678222Y-124280398D01*
X71666985Y-124262533D01*
X71652304Y-124249473D01*
X71652393Y-124249345D01*
X71651328Y-124248605D01*
X71651217Y-124248506D01*
X71651074Y-124248429D01*
X71541683Y-124172400D01*
X71453133Y-124080703D01*
X71393895Y-123988783D01*
X71380080Y-123972828D01*
X71362367Y-123961354D01*
X71342159Y-123955268D01*
X71321056Y-123955053D01*
X71300728Y-123960726D01*
X71282786Y-123971838D01*
X71268649Y-123987508D01*
X71263562Y-123996692D01*
X71189428Y-124101783D01*
X71097120Y-124189686D01*
X71008677Y-124245814D01*
X70992626Y-124259517D01*
X70981028Y-124277149D01*
X70974802Y-124297315D01*
X70974440Y-124318416D01*
X70413979Y-124318416D01*
X70414036Y-124300685D01*
X70408222Y-124280398D01*
X70396985Y-124262533D01*
X70382304Y-124249473D01*
X70382393Y-124249345D01*
X70381328Y-124248605D01*
X70381217Y-124248506D01*
X70381074Y-124248429D01*
X70271683Y-124172400D01*
X70183133Y-124080703D01*
X70114077Y-123973549D01*
X70067154Y-123855034D01*
X70044143Y-123729655D01*
X70045922Y-123602192D01*
X70072425Y-123477508D01*
X70122642Y-123360344D01*
X70194658Y-123255166D01*
X70285738Y-123165974D01*
X70380816Y-123103757D01*
X70396674Y-123089832D01*
X70408025Y-123072040D01*
X70413969Y-123051790D01*
X70413979Y-123048416D01*
X70974440Y-123048416D01*
X70979971Y-123068783D01*
X70990957Y-123086802D01*
X71006924Y-123101317D01*
X71111332Y-123171741D01*
X71201154Y-123262192D01*
X71267021Y-123361330D01*
X71281057Y-123377090D01*
X71298928Y-123388316D01*
X71319219Y-123394118D01*
X71340324Y-123394038D01*
X71360570Y-123388082D01*
X71378355Y-123376721D01*
X71391374Y-123362197D01*
X71464658Y-123255166D01*
X71555738Y-123165974D01*
X71650816Y-123103757D01*
X71666674Y-123089832D01*
X71678025Y-123072040D01*
X71683969Y-123051790D01*
X71684036Y-123030685D01*
X71678222Y-123010398D01*
X71666985Y-122992533D01*
X71652304Y-122979473D01*
X71652393Y-122979345D01*
X71651328Y-122978605D01*
X71651217Y-122978506D01*
X71651074Y-122978429D01*
X71541683Y-122902400D01*
X71453133Y-122810703D01*
X71393895Y-122718783D01*
X71380080Y-122702828D01*
X71362367Y-122691354D01*
X71342159Y-122685268D01*
X71321056Y-122685053D01*
X71300728Y-122690726D01*
X71282786Y-122701838D01*
X71268649Y-122717508D01*
X71263562Y-122726692D01*
X71189428Y-122831783D01*
X71097120Y-122919686D01*
X71008677Y-122975814D01*
X70992626Y-122989517D01*
X70981028Y-123007149D01*
X70974802Y-123027315D01*
X70974440Y-123048416D01*
X70413979Y-123048416D01*
X70414036Y-123030685D01*
X70408222Y-123010398D01*
X70396985Y-122992533D01*
X70382304Y-122979473D01*
X70382393Y-122979345D01*
X70381328Y-122978605D01*
X70381217Y-122978506D01*
X70381074Y-122978429D01*
X70271683Y-122902400D01*
X70183133Y-122810703D01*
X70114077Y-122703549D01*
X70067154Y-122585034D01*
X70044143Y-122459655D01*
X70045922Y-122332192D01*
X70072425Y-122207508D01*
X70122642Y-122090344D01*
X70194658Y-121985166D01*
X70285738Y-121895974D01*
X70380816Y-121833757D01*
X70396674Y-121819832D01*
X70408025Y-121802040D01*
X70413969Y-121781790D01*
X70413979Y-121778416D01*
X70974440Y-121778416D01*
X70979971Y-121798783D01*
X70990957Y-121816802D01*
X71006924Y-121831317D01*
X71111332Y-121901741D01*
X71201154Y-121992192D01*
X71267021Y-122091330D01*
X71281057Y-122107090D01*
X71298928Y-122118316D01*
X71319219Y-122124118D01*
X71340324Y-122124038D01*
X71360570Y-122118082D01*
X71378355Y-122106721D01*
X71391374Y-122092197D01*
X71464658Y-121985166D01*
X71555738Y-121895974D01*
X71650816Y-121833757D01*
X71666674Y-121819832D01*
X71678025Y-121802040D01*
X71683969Y-121781790D01*
X71684036Y-121760685D01*
X71678222Y-121740398D01*
X71666985Y-121722533D01*
X71652304Y-121709473D01*
X71652393Y-121709345D01*
X71651328Y-121708605D01*
X71651217Y-121708506D01*
X71651074Y-121708429D01*
X71541683Y-121632400D01*
X71453133Y-121540703D01*
X71393895Y-121448783D01*
X71380080Y-121432828D01*
X71362367Y-121421354D01*
X71342159Y-121415268D01*
X71321056Y-121415053D01*
X71300728Y-121420726D01*
X71282786Y-121431838D01*
X71268649Y-121447508D01*
X71263562Y-121456692D01*
X71189428Y-121561783D01*
X71097120Y-121649686D01*
X71008677Y-121705814D01*
X70992626Y-121719517D01*
X70981028Y-121737149D01*
X70974802Y-121757315D01*
X70974440Y-121778416D01*
X70413979Y-121778416D01*
X70414036Y-121760685D01*
X70408222Y-121740398D01*
X70396985Y-121722533D01*
X70382304Y-121709473D01*
X70382393Y-121709345D01*
X70381328Y-121708605D01*
X70381217Y-121708506D01*
X70381074Y-121708429D01*
X70271683Y-121632400D01*
X70183133Y-121540703D01*
X70114077Y-121433549D01*
X70067154Y-121315034D01*
X70044143Y-121189655D01*
X70045922Y-121062192D01*
X70072425Y-120937508D01*
X70122642Y-120820344D01*
X70194658Y-120715166D01*
X70285738Y-120625974D01*
X70380816Y-120563757D01*
X70396674Y-120549832D01*
X70408025Y-120532040D01*
X70413969Y-120511790D01*
X70413979Y-120508416D01*
X70974440Y-120508416D01*
X70979971Y-120528783D01*
X70990957Y-120546802D01*
X71006924Y-120561317D01*
X71111332Y-120631741D01*
X71201154Y-120722192D01*
X71267021Y-120821330D01*
X71281057Y-120837090D01*
X71298928Y-120848316D01*
X71319219Y-120854118D01*
X71340324Y-120854038D01*
X71360570Y-120848082D01*
X71378355Y-120836721D01*
X71391374Y-120822197D01*
X71464658Y-120715166D01*
X71555738Y-120625974D01*
X71650816Y-120563757D01*
X71666674Y-120549832D01*
X71678025Y-120532040D01*
X71683969Y-120511790D01*
X71684036Y-120490685D01*
X71678222Y-120470398D01*
X71666985Y-120452533D01*
X71652304Y-120439473D01*
X71652393Y-120439345D01*
X71651328Y-120438605D01*
X71651217Y-120438506D01*
X71651074Y-120438429D01*
X71541683Y-120362400D01*
X71453133Y-120270703D01*
X71393895Y-120178783D01*
X71380080Y-120162828D01*
X71362367Y-120151354D01*
X71342159Y-120145268D01*
X71321056Y-120145053D01*
X71300728Y-120150726D01*
X71282786Y-120161838D01*
X71268649Y-120177508D01*
X71263562Y-120186692D01*
X71189428Y-120291783D01*
X71097120Y-120379686D01*
X71008677Y-120435814D01*
X70992626Y-120449517D01*
X70981028Y-120467149D01*
X70974802Y-120487315D01*
X70974440Y-120508416D01*
X70413979Y-120508416D01*
X70414036Y-120490685D01*
X70408222Y-120470398D01*
X70396985Y-120452533D01*
X70382304Y-120439473D01*
X70382393Y-120439345D01*
X70381328Y-120438605D01*
X70381217Y-120438506D01*
X70381074Y-120438429D01*
X70271683Y-120362400D01*
X70183133Y-120270703D01*
X70114077Y-120163549D01*
X70067154Y-120045034D01*
X70044143Y-119919655D01*
X70045922Y-119792192D01*
X70072425Y-119667508D01*
X70122642Y-119550344D01*
X70194658Y-119445166D01*
X70285738Y-119355974D01*
X70392395Y-119286180D01*
X70510589Y-119238426D01*
X70635807Y-119214539D01*
X70763272Y-119215430D01*
X70888139Y-119241061D01*
X71005652Y-119290459D01*
X71111332Y-119361741D01*
X71201154Y-119452192D01*
X71267021Y-119551330D01*
X71281057Y-119567090D01*
X71298928Y-119578316D01*
X71319219Y-119584118D01*
X71340324Y-119584038D01*
X71360570Y-119578082D01*
X71378355Y-119566721D01*
X71391374Y-119552197D01*
X71464658Y-119445166D01*
X71555738Y-119355974D01*
X71662395Y-119286180D01*
X71780589Y-119238426D01*
X71905807Y-119214539D01*
X72033272Y-119215430D01*
X72033272Y-119215430D01*
G37*
G36*
X131363272Y-127385430D02*
X131488139Y-127411061D01*
X131605652Y-127460459D01*
X131711332Y-127531741D01*
X131801156Y-127622194D01*
X131871695Y-127728364D01*
X131920271Y-127846218D01*
X131944928Y-127970744D01*
X131944928Y-127970758D01*
X131945028Y-127971264D01*
X131942995Y-128116861D01*
X131942880Y-128117366D01*
X131942880Y-128117379D01*
X131914757Y-128241165D01*
X131862910Y-128357615D01*
X131789428Y-128461783D01*
X131697120Y-128549686D01*
X131608677Y-128605814D01*
X131592626Y-128619517D01*
X131581028Y-128637149D01*
X131574802Y-128657315D01*
X131574440Y-128678416D01*
X131579971Y-128698783D01*
X131590957Y-128716802D01*
X131606924Y-128731317D01*
X131711332Y-128801741D01*
X131801156Y-128892194D01*
X131871695Y-128998364D01*
X131920271Y-129116218D01*
X131944928Y-129240744D01*
X131944928Y-129240758D01*
X131945028Y-129241264D01*
X131942995Y-129386861D01*
X131942880Y-129387366D01*
X131942880Y-129387379D01*
X131914757Y-129511165D01*
X131862910Y-129627615D01*
X131789428Y-129731783D01*
X131697117Y-129819689D01*
X131589491Y-129887991D01*
X131470647Y-129934088D01*
X131345109Y-129956223D01*
X131217660Y-129953553D01*
X131093167Y-129926181D01*
X130976354Y-129875148D01*
X130871683Y-129802400D01*
X130783133Y-129710703D01*
X130723895Y-129618783D01*
X130710080Y-129602828D01*
X130692367Y-129591354D01*
X130672159Y-129585268D01*
X130651056Y-129585053D01*
X130630728Y-129590726D01*
X130612786Y-129601838D01*
X130598649Y-129617508D01*
X130593562Y-129626692D01*
X130519428Y-129731783D01*
X130427117Y-129819689D01*
X130319491Y-129887991D01*
X130200647Y-129934088D01*
X130075109Y-129956223D01*
X129947660Y-129953553D01*
X129823167Y-129926181D01*
X129706354Y-129875148D01*
X129601683Y-129802400D01*
X129513133Y-129710703D01*
X129453895Y-129618783D01*
X129440080Y-129602828D01*
X129422367Y-129591354D01*
X129402159Y-129585268D01*
X129381056Y-129585053D01*
X129360728Y-129590726D01*
X129342786Y-129601838D01*
X129328649Y-129617508D01*
X129323562Y-129626692D01*
X129249428Y-129731783D01*
X129157117Y-129819689D01*
X129049491Y-129887991D01*
X128930647Y-129934088D01*
X128805109Y-129956223D01*
X128677660Y-129953553D01*
X128553167Y-129926181D01*
X128436354Y-129875148D01*
X128331683Y-129802400D01*
X128243133Y-129710703D01*
X128183895Y-129618783D01*
X128170080Y-129602828D01*
X128152367Y-129591354D01*
X128132159Y-129585268D01*
X128111056Y-129585053D01*
X128090728Y-129590726D01*
X128072786Y-129601838D01*
X128058649Y-129617508D01*
X128053562Y-129626692D01*
X127979428Y-129731783D01*
X127887117Y-129819689D01*
X127779491Y-129887991D01*
X127660647Y-129934088D01*
X127535109Y-129956223D01*
X127407660Y-129953553D01*
X127283167Y-129926181D01*
X127166354Y-129875148D01*
X127061683Y-129802400D01*
X126973133Y-129710703D01*
X126913895Y-129618783D01*
X126900080Y-129602828D01*
X126882367Y-129591354D01*
X126862159Y-129585268D01*
X126841056Y-129585053D01*
X126820728Y-129590726D01*
X126802786Y-129601838D01*
X126788649Y-129617508D01*
X126783562Y-129626692D01*
X126709428Y-129731783D01*
X126617117Y-129819689D01*
X126509491Y-129887991D01*
X126390647Y-129934088D01*
X126265109Y-129956223D01*
X126137660Y-129953553D01*
X126013167Y-129926181D01*
X125896354Y-129875148D01*
X125791683Y-129802400D01*
X125703133Y-129710703D01*
X125643895Y-129618783D01*
X125630080Y-129602828D01*
X125612367Y-129591354D01*
X125592159Y-129585268D01*
X125571056Y-129585053D01*
X125550728Y-129590726D01*
X125532786Y-129601838D01*
X125518649Y-129617508D01*
X125513562Y-129626692D01*
X125439428Y-129731783D01*
X125347117Y-129819689D01*
X125239491Y-129887991D01*
X125120647Y-129934088D01*
X124995109Y-129956223D01*
X124867660Y-129953553D01*
X124743167Y-129926181D01*
X124626354Y-129875148D01*
X124521683Y-129802400D01*
X124433133Y-129710703D01*
X124373895Y-129618783D01*
X124360080Y-129602828D01*
X124342367Y-129591354D01*
X124322159Y-129585268D01*
X124301056Y-129585053D01*
X124280728Y-129590726D01*
X124262786Y-129601838D01*
X124248649Y-129617508D01*
X124243562Y-129626692D01*
X124169428Y-129731783D01*
X124077117Y-129819689D01*
X123969491Y-129887991D01*
X123850647Y-129934088D01*
X123725109Y-129956223D01*
X123597660Y-129953553D01*
X123473167Y-129926181D01*
X123356354Y-129875148D01*
X123251683Y-129802400D01*
X123163133Y-129710703D01*
X123103895Y-129618783D01*
X123090080Y-129602828D01*
X123072367Y-129591354D01*
X123052159Y-129585268D01*
X123031056Y-129585053D01*
X123010728Y-129590726D01*
X122992786Y-129601838D01*
X122978649Y-129617508D01*
X122973562Y-129626692D01*
X122899428Y-129731783D01*
X122807117Y-129819689D01*
X122699491Y-129887991D01*
X122580647Y-129934088D01*
X122455109Y-129956223D01*
X122327660Y-129953553D01*
X122203167Y-129926181D01*
X122086354Y-129875148D01*
X121981683Y-129802400D01*
X121893133Y-129710703D01*
X121833895Y-129618783D01*
X121820080Y-129602828D01*
X121802367Y-129591354D01*
X121782159Y-129585268D01*
X121761056Y-129585053D01*
X121740728Y-129590726D01*
X121722786Y-129601838D01*
X121708649Y-129617508D01*
X121703562Y-129626692D01*
X121629428Y-129731783D01*
X121537117Y-129819689D01*
X121429491Y-129887991D01*
X121310647Y-129934088D01*
X121185109Y-129956223D01*
X121057660Y-129953553D01*
X120933167Y-129926181D01*
X120816354Y-129875148D01*
X120711683Y-129802400D01*
X120623133Y-129710703D01*
X120563895Y-129618783D01*
X120550080Y-129602828D01*
X120532367Y-129591354D01*
X120512159Y-129585268D01*
X120491056Y-129585053D01*
X120470728Y-129590726D01*
X120452786Y-129601838D01*
X120438649Y-129617508D01*
X120433562Y-129626692D01*
X120359428Y-129731783D01*
X120267117Y-129819689D01*
X120159491Y-129887991D01*
X120040647Y-129934088D01*
X119915109Y-129956223D01*
X119787660Y-129953553D01*
X119663167Y-129926181D01*
X119546354Y-129875148D01*
X119441683Y-129802400D01*
X119353133Y-129710703D01*
X119284077Y-129603549D01*
X119237154Y-129485034D01*
X119214143Y-129359655D01*
X119215922Y-129232192D01*
X119242425Y-129107508D01*
X119292642Y-128990344D01*
X119364658Y-128885166D01*
X119455738Y-128795974D01*
X119550816Y-128733757D01*
X119566674Y-128719832D01*
X119578025Y-128702040D01*
X119583969Y-128681790D01*
X119583979Y-128678416D01*
X120144440Y-128678416D01*
X120149971Y-128698783D01*
X120160957Y-128716802D01*
X120176924Y-128731317D01*
X120281332Y-128801741D01*
X120371154Y-128892192D01*
X120437021Y-128991330D01*
X120451057Y-129007090D01*
X120468928Y-129018316D01*
X120489219Y-129024118D01*
X120510324Y-129024038D01*
X120530570Y-129018082D01*
X120548355Y-129006721D01*
X120561374Y-128992197D01*
X120634658Y-128885166D01*
X120725738Y-128795974D01*
X120820816Y-128733757D01*
X120836674Y-128719832D01*
X120848025Y-128702040D01*
X120853969Y-128681790D01*
X120853979Y-128678416D01*
X121414440Y-128678416D01*
X121419971Y-128698783D01*
X121430957Y-128716802D01*
X121446924Y-128731317D01*
X121551332Y-128801741D01*
X121641154Y-128892192D01*
X121707021Y-128991330D01*
X121721057Y-129007090D01*
X121738928Y-129018316D01*
X121759219Y-129024118D01*
X121780324Y-129024038D01*
X121800570Y-129018082D01*
X121818355Y-129006721D01*
X121831374Y-128992197D01*
X121904658Y-128885166D01*
X121995738Y-128795974D01*
X122090816Y-128733757D01*
X122106674Y-128719832D01*
X122118025Y-128702040D01*
X122123969Y-128681790D01*
X122123979Y-128678416D01*
X122684440Y-128678416D01*
X122689971Y-128698783D01*
X122700957Y-128716802D01*
X122716924Y-128731317D01*
X122821332Y-128801741D01*
X122911154Y-128892192D01*
X122977021Y-128991330D01*
X122991057Y-129007090D01*
X123008928Y-129018316D01*
X123029219Y-129024118D01*
X123050324Y-129024038D01*
X123070570Y-129018082D01*
X123088355Y-129006721D01*
X123101374Y-128992197D01*
X123174658Y-128885166D01*
X123265738Y-128795974D01*
X123360816Y-128733757D01*
X123376674Y-128719832D01*
X123388025Y-128702040D01*
X123393969Y-128681790D01*
X123393979Y-128678416D01*
X123954440Y-128678416D01*
X123959971Y-128698783D01*
X123970957Y-128716802D01*
X123986924Y-128731317D01*
X124091332Y-128801741D01*
X124181154Y-128892192D01*
X124247021Y-128991330D01*
X124261057Y-129007090D01*
X124278928Y-129018316D01*
X124299219Y-129024118D01*
X124320324Y-129024038D01*
X124340570Y-129018082D01*
X124358355Y-129006721D01*
X124371374Y-128992197D01*
X124444658Y-128885166D01*
X124535738Y-128795974D01*
X124630816Y-128733757D01*
X124646674Y-128719832D01*
X124658025Y-128702040D01*
X124663969Y-128681790D01*
X124663979Y-128678416D01*
X125224440Y-128678416D01*
X125229971Y-128698783D01*
X125240957Y-128716802D01*
X125256924Y-128731317D01*
X125361332Y-128801741D01*
X125451154Y-128892192D01*
X125517021Y-128991330D01*
X125531057Y-129007090D01*
X125548928Y-129018316D01*
X125569219Y-129024118D01*
X125590324Y-129024038D01*
X125610570Y-129018082D01*
X125628355Y-129006721D01*
X125641374Y-128992197D01*
X125714658Y-128885166D01*
X125805738Y-128795974D01*
X125900816Y-128733757D01*
X125916674Y-128719832D01*
X125928025Y-128702040D01*
X125933969Y-128681790D01*
X125933979Y-128678416D01*
X126494440Y-128678416D01*
X126499971Y-128698783D01*
X126510957Y-128716802D01*
X126526924Y-128731317D01*
X126631332Y-128801741D01*
X126721154Y-128892192D01*
X126787021Y-128991330D01*
X126801057Y-129007090D01*
X126818928Y-129018316D01*
X126839219Y-129024118D01*
X126860324Y-129024038D01*
X126880570Y-129018082D01*
X126898355Y-129006721D01*
X126911374Y-128992197D01*
X126984658Y-128885166D01*
X127075738Y-128795974D01*
X127170816Y-128733757D01*
X127186674Y-128719832D01*
X127198025Y-128702040D01*
X127203969Y-128681790D01*
X127203979Y-128678416D01*
X127764440Y-128678416D01*
X127769971Y-128698783D01*
X127780957Y-128716802D01*
X127796924Y-128731317D01*
X127901332Y-128801741D01*
X127991154Y-128892192D01*
X128057021Y-128991330D01*
X128071057Y-129007090D01*
X128088928Y-129018316D01*
X128109219Y-129024118D01*
X128130324Y-129024038D01*
X128150570Y-129018082D01*
X128168355Y-129006721D01*
X128181374Y-128992197D01*
X128254658Y-128885166D01*
X128345738Y-128795974D01*
X128440816Y-128733757D01*
X128456674Y-128719832D01*
X128468025Y-128702040D01*
X128473969Y-128681790D01*
X128473979Y-128678416D01*
X129034440Y-128678416D01*
X129039971Y-128698783D01*
X129050957Y-128716802D01*
X129066924Y-128731317D01*
X129171332Y-128801741D01*
X129261154Y-128892192D01*
X129327021Y-128991330D01*
X129341057Y-129007090D01*
X129358928Y-129018316D01*
X129379219Y-129024118D01*
X129400324Y-129024038D01*
X129420570Y-129018082D01*
X129438355Y-129006721D01*
X129451374Y-128992197D01*
X129524658Y-128885166D01*
X129615738Y-128795974D01*
X129710816Y-128733757D01*
X129726674Y-128719832D01*
X129738025Y-128702040D01*
X129743969Y-128681790D01*
X129743979Y-128678416D01*
X130304440Y-128678416D01*
X130309971Y-128698783D01*
X130320957Y-128716802D01*
X130336924Y-128731317D01*
X130441332Y-128801741D01*
X130531154Y-128892192D01*
X130597021Y-128991330D01*
X130611057Y-129007090D01*
X130628928Y-129018316D01*
X130649219Y-129024118D01*
X130670324Y-129024038D01*
X130690570Y-129018082D01*
X130708355Y-129006721D01*
X130721374Y-128992197D01*
X130794658Y-128885166D01*
X130885738Y-128795974D01*
X130980816Y-128733757D01*
X130996674Y-128719832D01*
X131008025Y-128702040D01*
X131013969Y-128681790D01*
X131014036Y-128660685D01*
X131008222Y-128640398D01*
X130996985Y-128622533D01*
X130982304Y-128609473D01*
X130982393Y-128609345D01*
X130981328Y-128608605D01*
X130981217Y-128608506D01*
X130981074Y-128608429D01*
X130871683Y-128532400D01*
X130783133Y-128440703D01*
X130723895Y-128348783D01*
X130710080Y-128332828D01*
X130692367Y-128321354D01*
X130672159Y-128315268D01*
X130651056Y-128315053D01*
X130630728Y-128320726D01*
X130612786Y-128331838D01*
X130598649Y-128347508D01*
X130593562Y-128356692D01*
X130519428Y-128461783D01*
X130427120Y-128549686D01*
X130338677Y-128605814D01*
X130322626Y-128619517D01*
X130311028Y-128637149D01*
X130304802Y-128657315D01*
X130304440Y-128678416D01*
X129743979Y-128678416D01*
X129744036Y-128660685D01*
X129738222Y-128640398D01*
X129726985Y-128622533D01*
X129712304Y-128609473D01*
X129712393Y-128609345D01*
X129711328Y-128608605D01*
X129711217Y-128608506D01*
X129711074Y-128608429D01*
X129601683Y-128532400D01*
X129513133Y-128440703D01*
X129453895Y-128348783D01*
X129440080Y-128332828D01*
X129422367Y-128321354D01*
X129402159Y-128315268D01*
X129381056Y-128315053D01*
X129360728Y-128320726D01*
X129342786Y-128331838D01*
X129328649Y-128347508D01*
X129323562Y-128356692D01*
X129249428Y-128461783D01*
X129157120Y-128549686D01*
X129068677Y-128605814D01*
X129052626Y-128619517D01*
X129041028Y-128637149D01*
X129034802Y-128657315D01*
X129034440Y-128678416D01*
X128473979Y-128678416D01*
X128474036Y-128660685D01*
X128468222Y-128640398D01*
X128456985Y-128622533D01*
X128442304Y-128609473D01*
X128442393Y-128609345D01*
X128441328Y-128608605D01*
X128441217Y-128608506D01*
X128441074Y-128608429D01*
X128331683Y-128532400D01*
X128243133Y-128440703D01*
X128183895Y-128348783D01*
X128170080Y-128332828D01*
X128152367Y-128321354D01*
X128132159Y-128315268D01*
X128111056Y-128315053D01*
X128090728Y-128320726D01*
X128072786Y-128331838D01*
X128058649Y-128347508D01*
X128053562Y-128356692D01*
X127979428Y-128461783D01*
X127887120Y-128549686D01*
X127798677Y-128605814D01*
X127782626Y-128619517D01*
X127771028Y-128637149D01*
X127764802Y-128657315D01*
X127764440Y-128678416D01*
X127203979Y-128678416D01*
X127204036Y-128660685D01*
X127198222Y-128640398D01*
X127186985Y-128622533D01*
X127172304Y-128609473D01*
X127172393Y-128609345D01*
X127171328Y-128608605D01*
X127171217Y-128608506D01*
X127171074Y-128608429D01*
X127061683Y-128532400D01*
X126973133Y-128440703D01*
X126913895Y-128348783D01*
X126900080Y-128332828D01*
X126882367Y-128321354D01*
X126862159Y-128315268D01*
X126841056Y-128315053D01*
X126820728Y-128320726D01*
X126802786Y-128331838D01*
X126788649Y-128347508D01*
X126783562Y-128356692D01*
X126709428Y-128461783D01*
X126617120Y-128549686D01*
X126528677Y-128605814D01*
X126512626Y-128619517D01*
X126501028Y-128637149D01*
X126494802Y-128657315D01*
X126494440Y-128678416D01*
X125933979Y-128678416D01*
X125934036Y-128660685D01*
X125928222Y-128640398D01*
X125916985Y-128622533D01*
X125902304Y-128609473D01*
X125902393Y-128609345D01*
X125901328Y-128608605D01*
X125901217Y-128608506D01*
X125901074Y-128608429D01*
X125791683Y-128532400D01*
X125703133Y-128440703D01*
X125643895Y-128348783D01*
X125630080Y-128332828D01*
X125612367Y-128321354D01*
X125592159Y-128315268D01*
X125571056Y-128315053D01*
X125550728Y-128320726D01*
X125532786Y-128331838D01*
X125518649Y-128347508D01*
X125513562Y-128356692D01*
X125439428Y-128461783D01*
X125347120Y-128549686D01*
X125258677Y-128605814D01*
X125242626Y-128619517D01*
X125231028Y-128637149D01*
X125224802Y-128657315D01*
X125224440Y-128678416D01*
X124663979Y-128678416D01*
X124664036Y-128660685D01*
X124658222Y-128640398D01*
X124646985Y-128622533D01*
X124632304Y-128609473D01*
X124632393Y-128609345D01*
X124631328Y-128608605D01*
X124631217Y-128608506D01*
X124631074Y-128608429D01*
X124521683Y-128532400D01*
X124433133Y-128440703D01*
X124373895Y-128348783D01*
X124360080Y-128332828D01*
X124342367Y-128321354D01*
X124322159Y-128315268D01*
X124301056Y-128315053D01*
X124280728Y-128320726D01*
X124262786Y-128331838D01*
X124248649Y-128347508D01*
X124243562Y-128356692D01*
X124169428Y-128461783D01*
X124077120Y-128549686D01*
X123988677Y-128605814D01*
X123972626Y-128619517D01*
X123961028Y-128637149D01*
X123954802Y-128657315D01*
X123954440Y-128678416D01*
X123393979Y-128678416D01*
X123394036Y-128660685D01*
X123388222Y-128640398D01*
X123376985Y-128622533D01*
X123362304Y-128609473D01*
X123362393Y-128609345D01*
X123361328Y-128608605D01*
X123361217Y-128608506D01*
X123361074Y-128608429D01*
X123251683Y-128532400D01*
X123163133Y-128440703D01*
X123103895Y-128348783D01*
X123090080Y-128332828D01*
X123072367Y-128321354D01*
X123052159Y-128315268D01*
X123031056Y-128315053D01*
X123010728Y-128320726D01*
X122992786Y-128331838D01*
X122978649Y-128347508D01*
X122973562Y-128356692D01*
X122899428Y-128461783D01*
X122807120Y-128549686D01*
X122718677Y-128605814D01*
X122702626Y-128619517D01*
X122691028Y-128637149D01*
X122684802Y-128657315D01*
X122684440Y-128678416D01*
X122123979Y-128678416D01*
X122124036Y-128660685D01*
X122118222Y-128640398D01*
X122106985Y-128622533D01*
X122092304Y-128609473D01*
X122092393Y-128609345D01*
X122091328Y-128608605D01*
X122091217Y-128608506D01*
X122091074Y-128608429D01*
X121981683Y-128532400D01*
X121893133Y-128440703D01*
X121833895Y-128348783D01*
X121820080Y-128332828D01*
X121802367Y-128321354D01*
X121782159Y-128315268D01*
X121761056Y-128315053D01*
X121740728Y-128320726D01*
X121722786Y-128331838D01*
X121708649Y-128347508D01*
X121703562Y-128356692D01*
X121629428Y-128461783D01*
X121537120Y-128549686D01*
X121448677Y-128605814D01*
X121432626Y-128619517D01*
X121421028Y-128637149D01*
X121414802Y-128657315D01*
X121414440Y-128678416D01*
X120853979Y-128678416D01*
X120854036Y-128660685D01*
X120848222Y-128640398D01*
X120836985Y-128622533D01*
X120822304Y-128609473D01*
X120822393Y-128609345D01*
X120821328Y-128608605D01*
X120821217Y-128608506D01*
X120821074Y-128608429D01*
X120711683Y-128532400D01*
X120623133Y-128440703D01*
X120563895Y-128348783D01*
X120550080Y-128332828D01*
X120532367Y-128321354D01*
X120512159Y-128315268D01*
X120491056Y-128315053D01*
X120470728Y-128320726D01*
X120452786Y-128331838D01*
X120438649Y-128347508D01*
X120433562Y-128356692D01*
X120359428Y-128461783D01*
X120267120Y-128549686D01*
X120178677Y-128605814D01*
X120162626Y-128619517D01*
X120151028Y-128637149D01*
X120144802Y-128657315D01*
X120144440Y-128678416D01*
X119583979Y-128678416D01*
X119584036Y-128660685D01*
X119578222Y-128640398D01*
X119566985Y-128622533D01*
X119552304Y-128609473D01*
X119552393Y-128609345D01*
X119551328Y-128608605D01*
X119551217Y-128608506D01*
X119551074Y-128608429D01*
X119441683Y-128532400D01*
X119353133Y-128440703D01*
X119284077Y-128333549D01*
X119237154Y-128215034D01*
X119214143Y-128089655D01*
X119215922Y-127962192D01*
X119242425Y-127837508D01*
X119292642Y-127720344D01*
X119364658Y-127615166D01*
X119455738Y-127525974D01*
X119562395Y-127456180D01*
X119680589Y-127408426D01*
X119805807Y-127384539D01*
X119933272Y-127385430D01*
X120058139Y-127411061D01*
X120175652Y-127460459D01*
X120281332Y-127531741D01*
X120371154Y-127622192D01*
X120437021Y-127721330D01*
X120451057Y-127737090D01*
X120468928Y-127748316D01*
X120489219Y-127754118D01*
X120510324Y-127754038D01*
X120530570Y-127748082D01*
X120548355Y-127736721D01*
X120561374Y-127722197D01*
X120634658Y-127615166D01*
X120725738Y-127525974D01*
X120832395Y-127456180D01*
X120950589Y-127408426D01*
X121075807Y-127384539D01*
X121203272Y-127385430D01*
X121328139Y-127411061D01*
X121445652Y-127460459D01*
X121551332Y-127531741D01*
X121641154Y-127622192D01*
X121707021Y-127721330D01*
X121721057Y-127737090D01*
X121738928Y-127748316D01*
X121759219Y-127754118D01*
X121780324Y-127754038D01*
X121800570Y-127748082D01*
X121818355Y-127736721D01*
X121831374Y-127722197D01*
X121904658Y-127615166D01*
X121995738Y-127525974D01*
X122102395Y-127456180D01*
X122220589Y-127408426D01*
X122345807Y-127384539D01*
X122473272Y-127385430D01*
X122598139Y-127411061D01*
X122715652Y-127460459D01*
X122821332Y-127531741D01*
X122911154Y-127622192D01*
X122977021Y-127721330D01*
X122991057Y-127737090D01*
X123008928Y-127748316D01*
X123029219Y-127754118D01*
X123050324Y-127754038D01*
X123070570Y-127748082D01*
X123088355Y-127736721D01*
X123101374Y-127722197D01*
X123174658Y-127615166D01*
X123265738Y-127525974D01*
X123372395Y-127456180D01*
X123490589Y-127408426D01*
X123615807Y-127384539D01*
X123743272Y-127385430D01*
X123868139Y-127411061D01*
X123985652Y-127460459D01*
X124091332Y-127531741D01*
X124181154Y-127622192D01*
X124247021Y-127721330D01*
X124261057Y-127737090D01*
X124278928Y-127748316D01*
X124299219Y-127754118D01*
X124320324Y-127754038D01*
X124340570Y-127748082D01*
X124358355Y-127736721D01*
X124371374Y-127722197D01*
X124444658Y-127615166D01*
X124535738Y-127525974D01*
X124642395Y-127456180D01*
X124760589Y-127408426D01*
X124885807Y-127384539D01*
X125013272Y-127385430D01*
X125138139Y-127411061D01*
X125255652Y-127460459D01*
X125361332Y-127531741D01*
X125451154Y-127622192D01*
X125517021Y-127721330D01*
X125531057Y-127737090D01*
X125548928Y-127748316D01*
X125569219Y-127754118D01*
X125590324Y-127754038D01*
X125610570Y-127748082D01*
X125628355Y-127736721D01*
X125641374Y-127722197D01*
X125714658Y-127615166D01*
X125805738Y-127525974D01*
X125912395Y-127456180D01*
X126030589Y-127408426D01*
X126155807Y-127384539D01*
X126283272Y-127385430D01*
X126408139Y-127411061D01*
X126525652Y-127460459D01*
X126631332Y-127531741D01*
X126721154Y-127622192D01*
X126787021Y-127721330D01*
X126801057Y-127737090D01*
X126818928Y-127748316D01*
X126839219Y-127754118D01*
X126860324Y-127754038D01*
X126880570Y-127748082D01*
X126898355Y-127736721D01*
X126911374Y-127722197D01*
X126984658Y-127615166D01*
X127075738Y-127525974D01*
X127182395Y-127456180D01*
X127300589Y-127408426D01*
X127425807Y-127384539D01*
X127553272Y-127385430D01*
X127678139Y-127411061D01*
X127795652Y-127460459D01*
X127901332Y-127531741D01*
X127991154Y-127622192D01*
X128057021Y-127721330D01*
X128071057Y-127737090D01*
X128088928Y-127748316D01*
X128109219Y-127754118D01*
X128130324Y-127754038D01*
X128150570Y-127748082D01*
X128168355Y-127736721D01*
X128181374Y-127722197D01*
X128254658Y-127615166D01*
X128345738Y-127525974D01*
X128452395Y-127456180D01*
X128570589Y-127408426D01*
X128695807Y-127384539D01*
X128823272Y-127385430D01*
X128948139Y-127411061D01*
X129065652Y-127460459D01*
X129171332Y-127531741D01*
X129261154Y-127622192D01*
X129327021Y-127721330D01*
X129341057Y-127737090D01*
X129358928Y-127748316D01*
X129379219Y-127754118D01*
X129400324Y-127754038D01*
X129420570Y-127748082D01*
X129438355Y-127736721D01*
X129451374Y-127722197D01*
X129524658Y-127615166D01*
X129615738Y-127525974D01*
X129722395Y-127456180D01*
X129840589Y-127408426D01*
X129965807Y-127384539D01*
X130093272Y-127385430D01*
X130218139Y-127411061D01*
X130335652Y-127460459D01*
X130441332Y-127531741D01*
X130531154Y-127622192D01*
X130597021Y-127721330D01*
X130611057Y-127737090D01*
X130628928Y-127748316D01*
X130649219Y-127754118D01*
X130670324Y-127754038D01*
X130690570Y-127748082D01*
X130708355Y-127736721D01*
X130721374Y-127722197D01*
X130794658Y-127615166D01*
X130885738Y-127525974D01*
X130992395Y-127456180D01*
X131110589Y-127408426D01*
X131235807Y-127384539D01*
X131363272Y-127385430D01*
X131363272Y-127385430D01*
G37*
G36*
X120399960Y-116781806D02*
X121005089Y-116906021D01*
X121574570Y-117145408D01*
X122086706Y-117490849D01*
X122521994Y-117929186D01*
X122863848Y-118443718D01*
X123099252Y-119014852D01*
X123219138Y-119620319D01*
X123219138Y-119620327D01*
X123219239Y-119620838D01*
X123209386Y-120326421D01*
X123209271Y-120326926D01*
X123209271Y-120326939D01*
X123072527Y-120928817D01*
X122821267Y-121493158D01*
X122465179Y-121997944D01*
X122017821Y-122423958D01*
X121496239Y-122754964D01*
X120920304Y-122978354D01*
X120311937Y-123085626D01*
X119694321Y-123072689D01*
X119090989Y-122940038D01*
X118524910Y-122692724D01*
X118017642Y-122340164D01*
X117588525Y-121895800D01*
X117253881Y-121376534D01*
X117026476Y-120802173D01*
X116914960Y-120194573D01*
X116923585Y-119576882D01*
X117052022Y-118972637D01*
X117295377Y-118404846D01*
X117644388Y-117895128D01*
X118085749Y-117462915D01*
X118602654Y-117124662D01*
X119175423Y-116893248D01*
X119782233Y-116777493D01*
X120399960Y-116781806D01*
X120399960Y-116781806D01*
G37*
G36*
X80399960Y-116781806D02*
X81005089Y-116906021D01*
X81574570Y-117145408D01*
X82086706Y-117490849D01*
X82521994Y-117929186D01*
X82863848Y-118443718D01*
X83099252Y-119014852D01*
X83219138Y-119620319D01*
X83219138Y-119620327D01*
X83219239Y-119620838D01*
X83209386Y-120326421D01*
X83209271Y-120326926D01*
X83209271Y-120326939D01*
X83072527Y-120928817D01*
X82821267Y-121493158D01*
X82465179Y-121997944D01*
X82017821Y-122423958D01*
X81496239Y-122754964D01*
X80920304Y-122978354D01*
X80311937Y-123085626D01*
X79694321Y-123072689D01*
X79090989Y-122940038D01*
X78524910Y-122692724D01*
X78017642Y-122340164D01*
X77588525Y-121895800D01*
X77253881Y-121376534D01*
X77026476Y-120802173D01*
X76914960Y-120194573D01*
X76923585Y-119576882D01*
X77052022Y-118972637D01*
X77295377Y-118404846D01*
X77644388Y-117895128D01*
X78085749Y-117462915D01*
X78602654Y-117124662D01*
X79175423Y-116893248D01*
X79782233Y-116777493D01*
X80399960Y-116781806D01*
X80399960Y-116781806D01*
G37*
G36*
X106623738Y-100792187D02*
X106623758Y-100792193D01*
X106623813Y-100792199D01*
X106812786Y-100850696D01*
X106986798Y-100944784D01*
X107139221Y-101070879D01*
X107264249Y-101224178D01*
X107357120Y-101398843D01*
X107414296Y-101588220D01*
X107433600Y-101785096D01*
X107433600Y-101795031D01*
X107433523Y-101806007D01*
X107433522Y-101806013D01*
X107433501Y-101809056D01*
X107411450Y-102005643D01*
X107351636Y-102194204D01*
X107256335Y-102367555D01*
X107129179Y-102519094D01*
X106975010Y-102643048D01*
X106799701Y-102734698D01*
X106609930Y-102790550D01*
X106609878Y-102790555D01*
X106609857Y-102790561D01*
X106412927Y-102808482D01*
X106216262Y-102787813D01*
X106216242Y-102787807D01*
X106216187Y-102787801D01*
X106027214Y-102729304D01*
X105853202Y-102635216D01*
X105700779Y-102509121D01*
X105575751Y-102355822D01*
X105482880Y-102181157D01*
X105425704Y-101991780D01*
X105406400Y-101794904D01*
X105406400Y-101784969D01*
X105406477Y-101773993D01*
X105406478Y-101773987D01*
X105406499Y-101770944D01*
X105428550Y-101574357D01*
X105488364Y-101385796D01*
X105583665Y-101212445D01*
X105710821Y-101060906D01*
X105864990Y-100936952D01*
X106040299Y-100845302D01*
X106230070Y-100789450D01*
X106230122Y-100789445D01*
X106230143Y-100789439D01*
X106427073Y-100771518D01*
X106623738Y-100792187D01*
X106623738Y-100792187D01*
G37*
G36*
X109163738Y-100792187D02*
X109163758Y-100792193D01*
X109163813Y-100792199D01*
X109352786Y-100850696D01*
X109526798Y-100944784D01*
X109679221Y-101070879D01*
X109804249Y-101224178D01*
X109897120Y-101398843D01*
X109954296Y-101588220D01*
X109973600Y-101785096D01*
X109973600Y-101795031D01*
X109973523Y-101806007D01*
X109973522Y-101806013D01*
X109973501Y-101809056D01*
X109951450Y-102005643D01*
X109891636Y-102194204D01*
X109796335Y-102367555D01*
X109669179Y-102519094D01*
X109515010Y-102643048D01*
X109339701Y-102734698D01*
X109149930Y-102790550D01*
X109149878Y-102790555D01*
X109149857Y-102790561D01*
X108952927Y-102808482D01*
X108756262Y-102787813D01*
X108756242Y-102787807D01*
X108756187Y-102787801D01*
X108567214Y-102729304D01*
X108393202Y-102635216D01*
X108240779Y-102509121D01*
X108115751Y-102355822D01*
X108022880Y-102181157D01*
X107965704Y-101991780D01*
X107946400Y-101794904D01*
X107946400Y-101784969D01*
X107946477Y-101773993D01*
X107946478Y-101773987D01*
X107946499Y-101770944D01*
X107968550Y-101574357D01*
X108028364Y-101385796D01*
X108123665Y-101212445D01*
X108250821Y-101060906D01*
X108404990Y-100936952D01*
X108580299Y-100845302D01*
X108770070Y-100789450D01*
X108770122Y-100789445D01*
X108770143Y-100789439D01*
X108967073Y-100771518D01*
X109163738Y-100792187D01*
X109163738Y-100792187D01*
G37*
G36*
X111703738Y-100792187D02*
X111703758Y-100792193D01*
X111703813Y-100792199D01*
X111892786Y-100850696D01*
X112066798Y-100944784D01*
X112219221Y-101070879D01*
X112344249Y-101224178D01*
X112437120Y-101398843D01*
X112494296Y-101588220D01*
X112513600Y-101785096D01*
X112513600Y-101795031D01*
X112513523Y-101806007D01*
X112513522Y-101806013D01*
X112513501Y-101809056D01*
X112491450Y-102005643D01*
X112431636Y-102194204D01*
X112336335Y-102367555D01*
X112209179Y-102519094D01*
X112055010Y-102643048D01*
X111879701Y-102734698D01*
X111689930Y-102790550D01*
X111689878Y-102790555D01*
X111689857Y-102790561D01*
X111492927Y-102808482D01*
X111296262Y-102787813D01*
X111296242Y-102787807D01*
X111296187Y-102787801D01*
X111107214Y-102729304D01*
X110933202Y-102635216D01*
X110780779Y-102509121D01*
X110655751Y-102355822D01*
X110562880Y-102181157D01*
X110505704Y-101991780D01*
X110486400Y-101794904D01*
X110486400Y-101784969D01*
X110486477Y-101773993D01*
X110486478Y-101773987D01*
X110486499Y-101770944D01*
X110508550Y-101574357D01*
X110568364Y-101385796D01*
X110663665Y-101212445D01*
X110790821Y-101060906D01*
X110944990Y-100936952D01*
X111120299Y-100845302D01*
X111310070Y-100789450D01*
X111310122Y-100789445D01*
X111310143Y-100789439D01*
X111507073Y-100771518D01*
X111703738Y-100792187D01*
X111703738Y-100792187D01*
G37*
G36*
X114243738Y-100792187D02*
X114243758Y-100792193D01*
X114243813Y-100792199D01*
X114432786Y-100850696D01*
X114606798Y-100944784D01*
X114759221Y-101070879D01*
X114884249Y-101224178D01*
X114977120Y-101398843D01*
X115034296Y-101588220D01*
X115053600Y-101785096D01*
X115053600Y-101795031D01*
X115053523Y-101806007D01*
X115053522Y-101806013D01*
X115053501Y-101809056D01*
X115031450Y-102005643D01*
X114971636Y-102194204D01*
X114876335Y-102367555D01*
X114749179Y-102519094D01*
X114595010Y-102643048D01*
X114419701Y-102734698D01*
X114229930Y-102790550D01*
X114229878Y-102790555D01*
X114229857Y-102790561D01*
X114032927Y-102808482D01*
X113836262Y-102787813D01*
X113836242Y-102787807D01*
X113836187Y-102787801D01*
X113647214Y-102729304D01*
X113473202Y-102635216D01*
X113320779Y-102509121D01*
X113195751Y-102355822D01*
X113102880Y-102181157D01*
X113045704Y-101991780D01*
X113026400Y-101794904D01*
X113026400Y-101784969D01*
X113026477Y-101773993D01*
X113026478Y-101773987D01*
X113026499Y-101770944D01*
X113048550Y-101574357D01*
X113108364Y-101385796D01*
X113203665Y-101212445D01*
X113330821Y-101060906D01*
X113484990Y-100936952D01*
X113660299Y-100845302D01*
X113850070Y-100789450D01*
X113850122Y-100789445D01*
X113850143Y-100789439D01*
X114047073Y-100771518D01*
X114243738Y-100792187D01*
X114243738Y-100792187D01*
G37*
G36*
X104893600Y-102803600D02*
X102866400Y-102803600D01*
X102866400Y-100776400D01*
X104893600Y-100776400D01*
X104893600Y-102803600D01*
X104893600Y-102803600D01*
G37*
G36*
X95533738Y-100752187D02*
X95533758Y-100752193D01*
X95533813Y-100752199D01*
X95722786Y-100810696D01*
X95896798Y-100904784D01*
X96049221Y-101030879D01*
X96174249Y-101184178D01*
X96267120Y-101358843D01*
X96324296Y-101548220D01*
X96343600Y-101745096D01*
X96343600Y-101755031D01*
X96343523Y-101766007D01*
X96343522Y-101766013D01*
X96343501Y-101769056D01*
X96321450Y-101965643D01*
X96261636Y-102154204D01*
X96166335Y-102327555D01*
X96039179Y-102479094D01*
X95885010Y-102603048D01*
X95709701Y-102694698D01*
X95519930Y-102750550D01*
X95519878Y-102750555D01*
X95519857Y-102750561D01*
X95322927Y-102768482D01*
X95126262Y-102747813D01*
X95126242Y-102747807D01*
X95126187Y-102747801D01*
X94937214Y-102689304D01*
X94763202Y-102595216D01*
X94610779Y-102469121D01*
X94485751Y-102315822D01*
X94392880Y-102141157D01*
X94335704Y-101951780D01*
X94316400Y-101754904D01*
X94316400Y-101744969D01*
X94316477Y-101733993D01*
X94316478Y-101733987D01*
X94316499Y-101730944D01*
X94338550Y-101534357D01*
X94398364Y-101345796D01*
X94493665Y-101172445D01*
X94620821Y-101020906D01*
X94774990Y-100896952D01*
X94950299Y-100805302D01*
X95140070Y-100749450D01*
X95140122Y-100749445D01*
X95140143Y-100749439D01*
X95337073Y-100731518D01*
X95533738Y-100752187D01*
X95533738Y-100752187D01*
G37*
G36*
X92993738Y-100752187D02*
X92993758Y-100752193D01*
X92993813Y-100752199D01*
X93182786Y-100810696D01*
X93356798Y-100904784D01*
X93509221Y-101030879D01*
X93634249Y-101184178D01*
X93727120Y-101358843D01*
X93784296Y-101548220D01*
X93803600Y-101745096D01*
X93803600Y-101755031D01*
X93803523Y-101766007D01*
X93803522Y-101766013D01*
X93803501Y-101769056D01*
X93781450Y-101965643D01*
X93721636Y-102154204D01*
X93626335Y-102327555D01*
X93499179Y-102479094D01*
X93345010Y-102603048D01*
X93169701Y-102694698D01*
X92979930Y-102750550D01*
X92979878Y-102750555D01*
X92979857Y-102750561D01*
X92782927Y-102768482D01*
X92586262Y-102747813D01*
X92586242Y-102747807D01*
X92586187Y-102747801D01*
X92397214Y-102689304D01*
X92223202Y-102595216D01*
X92070779Y-102469121D01*
X91945751Y-102315822D01*
X91852880Y-102141157D01*
X91795704Y-101951780D01*
X91776400Y-101754904D01*
X91776400Y-101744969D01*
X91776477Y-101733993D01*
X91776478Y-101733987D01*
X91776499Y-101730944D01*
X91798550Y-101534357D01*
X91858364Y-101345796D01*
X91953665Y-101172445D01*
X92080821Y-101020906D01*
X92234990Y-100896952D01*
X92410299Y-100805302D01*
X92600070Y-100749450D01*
X92600122Y-100749445D01*
X92600143Y-100749439D01*
X92797073Y-100731518D01*
X92993738Y-100752187D01*
X92993738Y-100752187D01*
G37*
G36*
X90453738Y-100752187D02*
X90453758Y-100752193D01*
X90453813Y-100752199D01*
X90642786Y-100810696D01*
X90816798Y-100904784D01*
X90969221Y-101030879D01*
X91094249Y-101184178D01*
X91187120Y-101358843D01*
X91244296Y-101548220D01*
X91263600Y-101745096D01*
X91263600Y-101755031D01*
X91263523Y-101766007D01*
X91263522Y-101766013D01*
X91263501Y-101769056D01*
X91241450Y-101965643D01*
X91181636Y-102154204D01*
X91086335Y-102327555D01*
X90959179Y-102479094D01*
X90805010Y-102603048D01*
X90629701Y-102694698D01*
X90439930Y-102750550D01*
X90439878Y-102750555D01*
X90439857Y-102750561D01*
X90242927Y-102768482D01*
X90046262Y-102747813D01*
X90046242Y-102747807D01*
X90046187Y-102747801D01*
X89857214Y-102689304D01*
X89683202Y-102595216D01*
X89530779Y-102469121D01*
X89405751Y-102315822D01*
X89312880Y-102141157D01*
X89255704Y-101951780D01*
X89236400Y-101754904D01*
X89236400Y-101744969D01*
X89236477Y-101733993D01*
X89236478Y-101733987D01*
X89236499Y-101730944D01*
X89258550Y-101534357D01*
X89318364Y-101345796D01*
X89413665Y-101172445D01*
X89540821Y-101020906D01*
X89694990Y-100896952D01*
X89870299Y-100805302D01*
X90060070Y-100749450D01*
X90060122Y-100749445D01*
X90060143Y-100749439D01*
X90257073Y-100731518D01*
X90453738Y-100752187D01*
X90453738Y-100752187D01*
G37*
G36*
X87913738Y-100752187D02*
X87913758Y-100752193D01*
X87913813Y-100752199D01*
X88102786Y-100810696D01*
X88276798Y-100904784D01*
X88429221Y-101030879D01*
X88554249Y-101184178D01*
X88647120Y-101358843D01*
X88704296Y-101548220D01*
X88723600Y-101745096D01*
X88723600Y-101755031D01*
X88723523Y-101766007D01*
X88723522Y-101766013D01*
X88723501Y-101769056D01*
X88701450Y-101965643D01*
X88641636Y-102154204D01*
X88546335Y-102327555D01*
X88419179Y-102479094D01*
X88265010Y-102603048D01*
X88089701Y-102694698D01*
X87899930Y-102750550D01*
X87899878Y-102750555D01*
X87899857Y-102750561D01*
X87702927Y-102768482D01*
X87506262Y-102747813D01*
X87506242Y-102747807D01*
X87506187Y-102747801D01*
X87317214Y-102689304D01*
X87143202Y-102595216D01*
X86990779Y-102469121D01*
X86865751Y-102315822D01*
X86772880Y-102141157D01*
X86715704Y-101951780D01*
X86696400Y-101754904D01*
X86696400Y-101744969D01*
X86696477Y-101733993D01*
X86696478Y-101733987D01*
X86696499Y-101730944D01*
X86718550Y-101534357D01*
X86778364Y-101345796D01*
X86873665Y-101172445D01*
X87000821Y-101020906D01*
X87154990Y-100896952D01*
X87330299Y-100805302D01*
X87520070Y-100749450D01*
X87520122Y-100749445D01*
X87520143Y-100749439D01*
X87717073Y-100731518D01*
X87913738Y-100752187D01*
X87913738Y-100752187D01*
G37*
G36*
X120150000Y-100400000D02*
X118850000Y-100400000D01*
X118850000Y-97600000D01*
X120150000Y-97600000D01*
X120150000Y-100400000D01*
X120150000Y-100400000D01*
G37*
G36*
X125050000Y-100400000D02*
X123750000Y-100400000D01*
X123750000Y-97600000D01*
X125050000Y-97600000D01*
X125050000Y-100400000D01*
X125050000Y-100400000D01*
G37*
G36*
X106623738Y-98252187D02*
X106623758Y-98252193D01*
X106623813Y-98252199D01*
X106812786Y-98310696D01*
X106986798Y-98404784D01*
X107139221Y-98530879D01*
X107264249Y-98684178D01*
X107357120Y-98858843D01*
X107414296Y-99048220D01*
X107433600Y-99245096D01*
X107433600Y-99255031D01*
X107433523Y-99266007D01*
X107433522Y-99266013D01*
X107433501Y-99269056D01*
X107411450Y-99465643D01*
X107351636Y-99654204D01*
X107256335Y-99827555D01*
X107129179Y-99979094D01*
X106975010Y-100103048D01*
X106799701Y-100194698D01*
X106609930Y-100250550D01*
X106609878Y-100250555D01*
X106609857Y-100250561D01*
X106412927Y-100268482D01*
X106216262Y-100247813D01*
X106216242Y-100247807D01*
X106216187Y-100247801D01*
X106027214Y-100189304D01*
X105853202Y-100095216D01*
X105700779Y-99969121D01*
X105575751Y-99815822D01*
X105482880Y-99641157D01*
X105425704Y-99451780D01*
X105406400Y-99254904D01*
X105406400Y-99244969D01*
X105406477Y-99233993D01*
X105406478Y-99233987D01*
X105406499Y-99230944D01*
X105428550Y-99034357D01*
X105488364Y-98845796D01*
X105583665Y-98672445D01*
X105710821Y-98520906D01*
X105864990Y-98396952D01*
X106040299Y-98305302D01*
X106230070Y-98249450D01*
X106230122Y-98249445D01*
X106230143Y-98249439D01*
X106427073Y-98231518D01*
X106623738Y-98252187D01*
X106623738Y-98252187D01*
G37*
G36*
X104083738Y-98252187D02*
X104083758Y-98252193D01*
X104083813Y-98252199D01*
X104272786Y-98310696D01*
X104446798Y-98404784D01*
X104599221Y-98530879D01*
X104724249Y-98684178D01*
X104817120Y-98858843D01*
X104874296Y-99048220D01*
X104893600Y-99245096D01*
X104893600Y-99255031D01*
X104893523Y-99266007D01*
X104893522Y-99266013D01*
X104893501Y-99269056D01*
X104871450Y-99465643D01*
X104811636Y-99654204D01*
X104716335Y-99827555D01*
X104589179Y-99979094D01*
X104435010Y-100103048D01*
X104259701Y-100194698D01*
X104069930Y-100250550D01*
X104069878Y-100250555D01*
X104069857Y-100250561D01*
X103872927Y-100268482D01*
X103676262Y-100247813D01*
X103676242Y-100247807D01*
X103676187Y-100247801D01*
X103487214Y-100189304D01*
X103313202Y-100095216D01*
X103160779Y-99969121D01*
X103035751Y-99815822D01*
X102942880Y-99641157D01*
X102885704Y-99451780D01*
X102866400Y-99254904D01*
X102866400Y-99244969D01*
X102866477Y-99233993D01*
X102866478Y-99233987D01*
X102866499Y-99230944D01*
X102888550Y-99034357D01*
X102948364Y-98845796D01*
X103043665Y-98672445D01*
X103170821Y-98520906D01*
X103324990Y-98396952D01*
X103500299Y-98305302D01*
X103690070Y-98249450D01*
X103690122Y-98249445D01*
X103690143Y-98249439D01*
X103887073Y-98231518D01*
X104083738Y-98252187D01*
X104083738Y-98252187D01*
G37*
G36*
X114243738Y-98252187D02*
X114243758Y-98252193D01*
X114243813Y-98252199D01*
X114432786Y-98310696D01*
X114606798Y-98404784D01*
X114759221Y-98530879D01*
X114884249Y-98684178D01*
X114977120Y-98858843D01*
X115034296Y-99048220D01*
X115053600Y-99245096D01*
X115053600Y-99255031D01*
X115053523Y-99266007D01*
X115053522Y-99266013D01*
X115053501Y-99269056D01*
X115031450Y-99465643D01*
X114971636Y-99654204D01*
X114876335Y-99827555D01*
X114749179Y-99979094D01*
X114595010Y-100103048D01*
X114419701Y-100194698D01*
X114229930Y-100250550D01*
X114229878Y-100250555D01*
X114229857Y-100250561D01*
X114032927Y-100268482D01*
X113836262Y-100247813D01*
X113836242Y-100247807D01*
X113836187Y-100247801D01*
X113647214Y-100189304D01*
X113473202Y-100095216D01*
X113320779Y-99969121D01*
X113195751Y-99815822D01*
X113102880Y-99641157D01*
X113045704Y-99451780D01*
X113026400Y-99254904D01*
X113026400Y-99244969D01*
X113026477Y-99233993D01*
X113026478Y-99233987D01*
X113026499Y-99230944D01*
X113048550Y-99034357D01*
X113108364Y-98845796D01*
X113203665Y-98672445D01*
X113330821Y-98520906D01*
X113484990Y-98396952D01*
X113660299Y-98305302D01*
X113850070Y-98249450D01*
X113850122Y-98249445D01*
X113850143Y-98249439D01*
X114047073Y-98231518D01*
X114243738Y-98252187D01*
X114243738Y-98252187D01*
G37*
G36*
X111703738Y-98252187D02*
X111703758Y-98252193D01*
X111703813Y-98252199D01*
X111892786Y-98310696D01*
X112066798Y-98404784D01*
X112219221Y-98530879D01*
X112344249Y-98684178D01*
X112437120Y-98858843D01*
X112494296Y-99048220D01*
X112513600Y-99245096D01*
X112513600Y-99255031D01*
X112513523Y-99266007D01*
X112513522Y-99266013D01*
X112513501Y-99269056D01*
X112491450Y-99465643D01*
X112431636Y-99654204D01*
X112336335Y-99827555D01*
X112209179Y-99979094D01*
X112055010Y-100103048D01*
X111879701Y-100194698D01*
X111689930Y-100250550D01*
X111689878Y-100250555D01*
X111689857Y-100250561D01*
X111492927Y-100268482D01*
X111296262Y-100247813D01*
X111296242Y-100247807D01*
X111296187Y-100247801D01*
X111107214Y-100189304D01*
X110933202Y-100095216D01*
X110780779Y-99969121D01*
X110655751Y-99815822D01*
X110562880Y-99641157D01*
X110505704Y-99451780D01*
X110486400Y-99254904D01*
X110486400Y-99244969D01*
X110486477Y-99233993D01*
X110486478Y-99233987D01*
X110486499Y-99230944D01*
X110508550Y-99034357D01*
X110568364Y-98845796D01*
X110663665Y-98672445D01*
X110790821Y-98520906D01*
X110944990Y-98396952D01*
X111120299Y-98305302D01*
X111310070Y-98249450D01*
X111310122Y-98249445D01*
X111310143Y-98249439D01*
X111507073Y-98231518D01*
X111703738Y-98252187D01*
X111703738Y-98252187D01*
G37*
G36*
X109163738Y-98252187D02*
X109163758Y-98252193D01*
X109163813Y-98252199D01*
X109352786Y-98310696D01*
X109526798Y-98404784D01*
X109679221Y-98530879D01*
X109804249Y-98684178D01*
X109897120Y-98858843D01*
X109954296Y-99048220D01*
X109973600Y-99245096D01*
X109973600Y-99255031D01*
X109973523Y-99266007D01*
X109973522Y-99266013D01*
X109973501Y-99269056D01*
X109951450Y-99465643D01*
X109891636Y-99654204D01*
X109796335Y-99827555D01*
X109669179Y-99979094D01*
X109515010Y-100103048D01*
X109339701Y-100194698D01*
X109149930Y-100250550D01*
X109149878Y-100250555D01*
X109149857Y-100250561D01*
X108952927Y-100268482D01*
X108756262Y-100247813D01*
X108756242Y-100247807D01*
X108756187Y-100247801D01*
X108567214Y-100189304D01*
X108393202Y-100095216D01*
X108240779Y-99969121D01*
X108115751Y-99815822D01*
X108022880Y-99641157D01*
X107965704Y-99451780D01*
X107946400Y-99254904D01*
X107946400Y-99244969D01*
X107946477Y-99233993D01*
X107946478Y-99233987D01*
X107946499Y-99230944D01*
X107968550Y-99034357D01*
X108028364Y-98845796D01*
X108123665Y-98672445D01*
X108250821Y-98520906D01*
X108404990Y-98396952D01*
X108580299Y-98305302D01*
X108770070Y-98249450D01*
X108770122Y-98249445D01*
X108770143Y-98249439D01*
X108967073Y-98231518D01*
X109163738Y-98252187D01*
X109163738Y-98252187D01*
G37*
G36*
X87913738Y-98212187D02*
X87913758Y-98212193D01*
X87913813Y-98212199D01*
X88102786Y-98270696D01*
X88276798Y-98364784D01*
X88429221Y-98490879D01*
X88554249Y-98644178D01*
X88647120Y-98818843D01*
X88704296Y-99008220D01*
X88723600Y-99205096D01*
X88723600Y-99215031D01*
X88723523Y-99226007D01*
X88723522Y-99226013D01*
X88723501Y-99229056D01*
X88701450Y-99425643D01*
X88641636Y-99614204D01*
X88546335Y-99787555D01*
X88419179Y-99939094D01*
X88265010Y-100063048D01*
X88089701Y-100154698D01*
X87899930Y-100210550D01*
X87899878Y-100210555D01*
X87899857Y-100210561D01*
X87702927Y-100228482D01*
X87506262Y-100207813D01*
X87506242Y-100207807D01*
X87506187Y-100207801D01*
X87317214Y-100149304D01*
X87143202Y-100055216D01*
X86990779Y-99929121D01*
X86865751Y-99775822D01*
X86772880Y-99601157D01*
X86715704Y-99411780D01*
X86696400Y-99214904D01*
X86696400Y-99204969D01*
X86696477Y-99193993D01*
X86696478Y-99193987D01*
X86696499Y-99190944D01*
X86718550Y-98994357D01*
X86778364Y-98805796D01*
X86873665Y-98632445D01*
X87000821Y-98480906D01*
X87154990Y-98356952D01*
X87330299Y-98265302D01*
X87520070Y-98209450D01*
X87520122Y-98209445D01*
X87520143Y-98209439D01*
X87717073Y-98191518D01*
X87913738Y-98212187D01*
X87913738Y-98212187D01*
G37*
G36*
X90453738Y-98212187D02*
X90453758Y-98212193D01*
X90453813Y-98212199D01*
X90642786Y-98270696D01*
X90816798Y-98364784D01*
X90969221Y-98490879D01*
X91094249Y-98644178D01*
X91187120Y-98818843D01*
X91244296Y-99008220D01*
X91263600Y-99205096D01*
X91263600Y-99215031D01*
X91263523Y-99226007D01*
X91263522Y-99226013D01*
X91263501Y-99229056D01*
X91241450Y-99425643D01*
X91181636Y-99614204D01*
X91086335Y-99787555D01*
X90959179Y-99939094D01*
X90805010Y-100063048D01*
X90629701Y-100154698D01*
X90439930Y-100210550D01*
X90439878Y-100210555D01*
X90439857Y-100210561D01*
X90242927Y-100228482D01*
X90046262Y-100207813D01*
X90046242Y-100207807D01*
X90046187Y-100207801D01*
X89857214Y-100149304D01*
X89683202Y-100055216D01*
X89530779Y-99929121D01*
X89405751Y-99775822D01*
X89312880Y-99601157D01*
X89255704Y-99411780D01*
X89236400Y-99214904D01*
X89236400Y-99204969D01*
X89236477Y-99193993D01*
X89236478Y-99193987D01*
X89236499Y-99190944D01*
X89258550Y-98994357D01*
X89318364Y-98805796D01*
X89413665Y-98632445D01*
X89540821Y-98480906D01*
X89694990Y-98356952D01*
X89870299Y-98265302D01*
X90060070Y-98209450D01*
X90060122Y-98209445D01*
X90060143Y-98209439D01*
X90257073Y-98191518D01*
X90453738Y-98212187D01*
X90453738Y-98212187D01*
G37*
G36*
X92993738Y-98212187D02*
X92993758Y-98212193D01*
X92993813Y-98212199D01*
X93182786Y-98270696D01*
X93356798Y-98364784D01*
X93509221Y-98490879D01*
X93634249Y-98644178D01*
X93727120Y-98818843D01*
X93784296Y-99008220D01*
X93803600Y-99205096D01*
X93803600Y-99215031D01*
X93803523Y-99226007D01*
X93803522Y-99226013D01*
X93803501Y-99229056D01*
X93781450Y-99425643D01*
X93721636Y-99614204D01*
X93626335Y-99787555D01*
X93499179Y-99939094D01*
X93345010Y-100063048D01*
X93169701Y-100154698D01*
X92979930Y-100210550D01*
X92979878Y-100210555D01*
X92979857Y-100210561D01*
X92782927Y-100228482D01*
X92586262Y-100207813D01*
X92586242Y-100207807D01*
X92586187Y-100207801D01*
X92397214Y-100149304D01*
X92223202Y-100055216D01*
X92070779Y-99929121D01*
X91945751Y-99775822D01*
X91852880Y-99601157D01*
X91795704Y-99411780D01*
X91776400Y-99214904D01*
X91776400Y-99204969D01*
X91776477Y-99193993D01*
X91776478Y-99193987D01*
X91776499Y-99190944D01*
X91798550Y-98994357D01*
X91858364Y-98805796D01*
X91953665Y-98632445D01*
X92080821Y-98480906D01*
X92234990Y-98356952D01*
X92410299Y-98265302D01*
X92600070Y-98209450D01*
X92600122Y-98209445D01*
X92600143Y-98209439D01*
X92797073Y-98191518D01*
X92993738Y-98212187D01*
X92993738Y-98212187D01*
G37*
G36*
X96343600Y-100223600D02*
X94316400Y-100223600D01*
X94316400Y-98196400D01*
X96343600Y-98196400D01*
X96343600Y-100223600D01*
X96343600Y-100223600D01*
G37*
G36*
X122150000Y-97025000D02*
X120850000Y-97025000D01*
X120850000Y-95475000D01*
X122150000Y-95475000D01*
X122150000Y-97025000D01*
X122150000Y-97025000D01*
G37*
G36*
X120150000Y-97025000D02*
X118850000Y-97025000D01*
X118850000Y-95475000D01*
X120150000Y-95475000D01*
X120150000Y-97025000D01*
X120150000Y-97025000D01*
G37*
G36*
X124396500Y-94559000D02*
X122953500Y-94559000D01*
X122953500Y-93751000D01*
X124396500Y-93751000D01*
X124396500Y-94559000D01*
X124396500Y-94559000D01*
G37*
G36*
X118046500Y-94559000D02*
X116603500Y-94559000D01*
X116603500Y-93751000D01*
X118046500Y-93751000D01*
X118046500Y-94559000D01*
X118046500Y-94559000D01*
G37*
G36*
X124396500Y-93289000D02*
X122953500Y-93289000D01*
X122953500Y-92481000D01*
X124396500Y-92481000D01*
X124396500Y-93289000D01*
X124396500Y-93289000D01*
G37*
G36*
X118046500Y-93289000D02*
X116603500Y-93289000D01*
X116603500Y-92481000D01*
X118046500Y-92481000D01*
X118046500Y-93289000D01*
X118046500Y-93289000D01*
G37*
G36*
X124396500Y-92019000D02*
X122953500Y-92019000D01*
X122953500Y-91211000D01*
X124396500Y-91211000D01*
X124396500Y-92019000D01*
X124396500Y-92019000D01*
G37*
G36*
X118046500Y-92019000D02*
X116603500Y-92019000D01*
X116603500Y-91211000D01*
X118046500Y-91211000D01*
X118046500Y-92019000D01*
X118046500Y-92019000D01*
G37*
G36*
X118046500Y-90749000D02*
X116603500Y-90749000D01*
X116603500Y-89941000D01*
X118046500Y-89941000D01*
X118046500Y-90749000D01*
X118046500Y-90749000D01*
G37*
G36*
X124396500Y-90749000D02*
X122953500Y-90749000D01*
X122953500Y-89941000D01*
X124396500Y-89941000D01*
X124396500Y-90749000D01*
X124396500Y-90749000D01*
G37*
G36*
X80399960Y-76781806D02*
X81005089Y-76906021D01*
X81574570Y-77145408D01*
X82086706Y-77490849D01*
X82521994Y-77929186D01*
X82863848Y-78443718D01*
X83099252Y-79014852D01*
X83219138Y-79620319D01*
X83219138Y-79620327D01*
X83219239Y-79620838D01*
X83209386Y-80326421D01*
X83209271Y-80326926D01*
X83209271Y-80326939D01*
X83072527Y-80928817D01*
X82821267Y-81493158D01*
X82465179Y-81997944D01*
X82017821Y-82423958D01*
X81496239Y-82754964D01*
X80920304Y-82978354D01*
X80311937Y-83085626D01*
X79694321Y-83072689D01*
X79090989Y-82940038D01*
X78524910Y-82692724D01*
X78017642Y-82340164D01*
X77588525Y-81895800D01*
X77253881Y-81376534D01*
X77026476Y-80802173D01*
X76914960Y-80194573D01*
X76923585Y-79576882D01*
X77052022Y-78972637D01*
X77295377Y-78404846D01*
X77644388Y-77895128D01*
X78085749Y-77462915D01*
X78602654Y-77124662D01*
X79175423Y-76893248D01*
X79782233Y-76777493D01*
X80399960Y-76781806D01*
X80399960Y-76781806D01*
G37*
G36*
X120399960Y-76781806D02*
X121005089Y-76906021D01*
X121574570Y-77145408D01*
X122086706Y-77490849D01*
X122521994Y-77929186D01*
X122863848Y-78443718D01*
X123099252Y-79014852D01*
X123219138Y-79620319D01*
X123219138Y-79620327D01*
X123219239Y-79620838D01*
X123209386Y-80326421D01*
X123209271Y-80326926D01*
X123209271Y-80326939D01*
X123072527Y-80928817D01*
X122821267Y-81493158D01*
X122465179Y-81997944D01*
X122017821Y-82423958D01*
X121496239Y-82754964D01*
X120920304Y-82978354D01*
X120311937Y-83085626D01*
X119694321Y-83072689D01*
X119090989Y-82940038D01*
X118524910Y-82692724D01*
X118017642Y-82340164D01*
X117588525Y-81895800D01*
X117253881Y-81376534D01*
X117026476Y-80802173D01*
X116914960Y-80194573D01*
X116923585Y-79576882D01*
X117052022Y-78972637D01*
X117295377Y-78404846D01*
X117644388Y-77895128D01*
X118085749Y-77462915D01*
X118602654Y-77124662D01*
X119175423Y-76893248D01*
X119782233Y-76777493D01*
X120399960Y-76781806D01*
X120399960Y-76781806D01*
G37*
G36*
X97800000Y-80950000D02*
X96200000Y-80950000D01*
X96200000Y-79950000D01*
X97800000Y-79950000D01*
X97800000Y-80950000D01*
X97800000Y-80950000D01*
G37*
G36*
X103300000Y-80950000D02*
X101700000Y-80950000D01*
X101700000Y-79950000D01*
X103300000Y-79950000D01*
X103300000Y-80950000D01*
X103300000Y-80950000D01*
G37*
G36*
X129373272Y-68055430D02*
X129498139Y-68081061D01*
X129615652Y-68130459D01*
X129721332Y-68201741D01*
X129811156Y-68292194D01*
X129881695Y-68398364D01*
X129930271Y-68516218D01*
X129954928Y-68640744D01*
X129954928Y-68640758D01*
X129955028Y-68641264D01*
X129952995Y-68786861D01*
X129952880Y-68787366D01*
X129952880Y-68787379D01*
X129924757Y-68911165D01*
X129872910Y-69027615D01*
X129799428Y-69131783D01*
X129707120Y-69219686D01*
X129618677Y-69275814D01*
X129602626Y-69289517D01*
X129591028Y-69307149D01*
X129584802Y-69327315D01*
X129584440Y-69348416D01*
X129589971Y-69368783D01*
X129600957Y-69386802D01*
X129616924Y-69401317D01*
X129721332Y-69471741D01*
X129811156Y-69562194D01*
X129881695Y-69668364D01*
X129930271Y-69786218D01*
X129954928Y-69910744D01*
X129954928Y-69910758D01*
X129955028Y-69911264D01*
X129952995Y-70056861D01*
X129952880Y-70057366D01*
X129952880Y-70057379D01*
X129924757Y-70181165D01*
X129872910Y-70297615D01*
X129799428Y-70401783D01*
X129707120Y-70489686D01*
X129618677Y-70545814D01*
X129602626Y-70559517D01*
X129591028Y-70577149D01*
X129584802Y-70597315D01*
X129584440Y-70618416D01*
X129589971Y-70638783D01*
X129600957Y-70656802D01*
X129616924Y-70671317D01*
X129721332Y-70741741D01*
X129811156Y-70832194D01*
X129881695Y-70938364D01*
X129930271Y-71056218D01*
X129954928Y-71180744D01*
X129954928Y-71180758D01*
X129955028Y-71181264D01*
X129952995Y-71326861D01*
X129952880Y-71327366D01*
X129952880Y-71327379D01*
X129924757Y-71451165D01*
X129872910Y-71567615D01*
X129799428Y-71671783D01*
X129707120Y-71759686D01*
X129618677Y-71815814D01*
X129602626Y-71829517D01*
X129591028Y-71847149D01*
X129584802Y-71867315D01*
X129584440Y-71888416D01*
X129589971Y-71908783D01*
X129600957Y-71926802D01*
X129616924Y-71941317D01*
X129721332Y-72011741D01*
X129811156Y-72102194D01*
X129881695Y-72208364D01*
X129930271Y-72326218D01*
X129954928Y-72450744D01*
X129954928Y-72450758D01*
X129955028Y-72451264D01*
X129952995Y-72596861D01*
X129952880Y-72597366D01*
X129952880Y-72597379D01*
X129924757Y-72721165D01*
X129872910Y-72837615D01*
X129799428Y-72941783D01*
X129707120Y-73029686D01*
X129618677Y-73085814D01*
X129602626Y-73099517D01*
X129591028Y-73117149D01*
X129584802Y-73137315D01*
X129584440Y-73158416D01*
X129589971Y-73178783D01*
X129600957Y-73196802D01*
X129616924Y-73211317D01*
X129721332Y-73281741D01*
X129811156Y-73372194D01*
X129881695Y-73478364D01*
X129930271Y-73596218D01*
X129954928Y-73720744D01*
X129954928Y-73720758D01*
X129955028Y-73721264D01*
X129952995Y-73866861D01*
X129952880Y-73867366D01*
X129952880Y-73867379D01*
X129924757Y-73991165D01*
X129872910Y-74107615D01*
X129799428Y-74211783D01*
X129707120Y-74299686D01*
X129618677Y-74355814D01*
X129602626Y-74369517D01*
X129591028Y-74387149D01*
X129584802Y-74407315D01*
X129584440Y-74428416D01*
X129589971Y-74448783D01*
X129600957Y-74466802D01*
X129616924Y-74481317D01*
X129721332Y-74551741D01*
X129811156Y-74642194D01*
X129881695Y-74748364D01*
X129930271Y-74866218D01*
X129954928Y-74990744D01*
X129954928Y-74990758D01*
X129955028Y-74991264D01*
X129952995Y-75136861D01*
X129952880Y-75137366D01*
X129952880Y-75137379D01*
X129924757Y-75261165D01*
X129872910Y-75377615D01*
X129799428Y-75481783D01*
X129707120Y-75569686D01*
X129618677Y-75625814D01*
X129602626Y-75639517D01*
X129591028Y-75657149D01*
X129584802Y-75677315D01*
X129584440Y-75698416D01*
X129589971Y-75718783D01*
X129600957Y-75736802D01*
X129616924Y-75751317D01*
X129721332Y-75821741D01*
X129811156Y-75912194D01*
X129881695Y-76018364D01*
X129930271Y-76136218D01*
X129954928Y-76260744D01*
X129954928Y-76260758D01*
X129955028Y-76261264D01*
X129952995Y-76406861D01*
X129952880Y-76407366D01*
X129952880Y-76407379D01*
X129924757Y-76531165D01*
X129872910Y-76647615D01*
X129799428Y-76751783D01*
X129707120Y-76839686D01*
X129618677Y-76895814D01*
X129602626Y-76909517D01*
X129591028Y-76927149D01*
X129584802Y-76947315D01*
X129584440Y-76968416D01*
X129589971Y-76988783D01*
X129600957Y-77006802D01*
X129616924Y-77021317D01*
X129721332Y-77091741D01*
X129811156Y-77182194D01*
X129881695Y-77288364D01*
X129930271Y-77406218D01*
X129954928Y-77530744D01*
X129954928Y-77530758D01*
X129955028Y-77531264D01*
X129952995Y-77676861D01*
X129952880Y-77677366D01*
X129952880Y-77677379D01*
X129924757Y-77801165D01*
X129872910Y-77917615D01*
X129799428Y-78021783D01*
X129707120Y-78109686D01*
X129618677Y-78165814D01*
X129602626Y-78179517D01*
X129591028Y-78197149D01*
X129584802Y-78217315D01*
X129584440Y-78238416D01*
X129589971Y-78258783D01*
X129600957Y-78276802D01*
X129616924Y-78291317D01*
X129721332Y-78361741D01*
X129811156Y-78452194D01*
X129881695Y-78558364D01*
X129930271Y-78676218D01*
X129954928Y-78800744D01*
X129954928Y-78800758D01*
X129955028Y-78801264D01*
X129952995Y-78946861D01*
X129952880Y-78947366D01*
X129952880Y-78947379D01*
X129924757Y-79071165D01*
X129872910Y-79187615D01*
X129799428Y-79291783D01*
X129707120Y-79379686D01*
X129618677Y-79435814D01*
X129602626Y-79449517D01*
X129591028Y-79467149D01*
X129584802Y-79487315D01*
X129584440Y-79508416D01*
X129589971Y-79528783D01*
X129600957Y-79546802D01*
X129616924Y-79561317D01*
X129721332Y-79631741D01*
X129811156Y-79722194D01*
X129881695Y-79828364D01*
X129930271Y-79946218D01*
X129954928Y-80070744D01*
X129954928Y-80070758D01*
X129955028Y-80071264D01*
X129952995Y-80216861D01*
X129952880Y-80217366D01*
X129952880Y-80217379D01*
X129924757Y-80341165D01*
X129872910Y-80457615D01*
X129799428Y-80561783D01*
X129707117Y-80649689D01*
X129599491Y-80717991D01*
X129480647Y-80764088D01*
X129355109Y-80786223D01*
X129227660Y-80783553D01*
X129103167Y-80756181D01*
X128986354Y-80705148D01*
X128881683Y-80632400D01*
X128793133Y-80540703D01*
X128733895Y-80448783D01*
X128720080Y-80432828D01*
X128702367Y-80421354D01*
X128682159Y-80415268D01*
X128661056Y-80415053D01*
X128640728Y-80420726D01*
X128622786Y-80431838D01*
X128608649Y-80447508D01*
X128603562Y-80456692D01*
X128529428Y-80561783D01*
X128437117Y-80649689D01*
X128329491Y-80717991D01*
X128210647Y-80764088D01*
X128085109Y-80786223D01*
X127957660Y-80783553D01*
X127833167Y-80756181D01*
X127716354Y-80705148D01*
X127611683Y-80632400D01*
X127523133Y-80540703D01*
X127454077Y-80433549D01*
X127407154Y-80315034D01*
X127384143Y-80189655D01*
X127385922Y-80062192D01*
X127412425Y-79937508D01*
X127462642Y-79820344D01*
X127534658Y-79715166D01*
X127625738Y-79625974D01*
X127720816Y-79563757D01*
X127736674Y-79549832D01*
X127748025Y-79532040D01*
X127753969Y-79511790D01*
X127753979Y-79508416D01*
X128314440Y-79508416D01*
X128319971Y-79528783D01*
X128330957Y-79546802D01*
X128346924Y-79561317D01*
X128451332Y-79631741D01*
X128541154Y-79722192D01*
X128607021Y-79821330D01*
X128621057Y-79837090D01*
X128638928Y-79848316D01*
X128659219Y-79854118D01*
X128680324Y-79854038D01*
X128700570Y-79848082D01*
X128718355Y-79836721D01*
X128731374Y-79822197D01*
X128804658Y-79715166D01*
X128895738Y-79625974D01*
X128990816Y-79563757D01*
X129006674Y-79549832D01*
X129018025Y-79532040D01*
X129023969Y-79511790D01*
X129024036Y-79490685D01*
X129018222Y-79470398D01*
X129006985Y-79452533D01*
X128992304Y-79439473D01*
X128992393Y-79439345D01*
X128991328Y-79438605D01*
X128991217Y-79438506D01*
X128991074Y-79438429D01*
X128881683Y-79362400D01*
X128793133Y-79270703D01*
X128733895Y-79178783D01*
X128720080Y-79162828D01*
X128702367Y-79151354D01*
X128682159Y-79145268D01*
X128661056Y-79145053D01*
X128640728Y-79150726D01*
X128622786Y-79161838D01*
X128608649Y-79177508D01*
X128603562Y-79186692D01*
X128529428Y-79291783D01*
X128437120Y-79379686D01*
X128348677Y-79435814D01*
X128332626Y-79449517D01*
X128321028Y-79467149D01*
X128314802Y-79487315D01*
X128314440Y-79508416D01*
X127753979Y-79508416D01*
X127754036Y-79490685D01*
X127748222Y-79470398D01*
X127736985Y-79452533D01*
X127722304Y-79439473D01*
X127722393Y-79439345D01*
X127721328Y-79438605D01*
X127721217Y-79438506D01*
X127721074Y-79438429D01*
X127611683Y-79362400D01*
X127523133Y-79270703D01*
X127454077Y-79163549D01*
X127407154Y-79045034D01*
X127384143Y-78919655D01*
X127385922Y-78792192D01*
X127412425Y-78667508D01*
X127462642Y-78550344D01*
X127534658Y-78445166D01*
X127625738Y-78355974D01*
X127720816Y-78293757D01*
X127736674Y-78279832D01*
X127748025Y-78262040D01*
X127753969Y-78241790D01*
X127753979Y-78238416D01*
X128314440Y-78238416D01*
X128319971Y-78258783D01*
X128330957Y-78276802D01*
X128346924Y-78291317D01*
X128451332Y-78361741D01*
X128541154Y-78452192D01*
X128607021Y-78551330D01*
X128621057Y-78567090D01*
X128638928Y-78578316D01*
X128659219Y-78584118D01*
X128680324Y-78584038D01*
X128700570Y-78578082D01*
X128718355Y-78566721D01*
X128731374Y-78552197D01*
X128804658Y-78445166D01*
X128895738Y-78355974D01*
X128990816Y-78293757D01*
X129006674Y-78279832D01*
X129018025Y-78262040D01*
X129023969Y-78241790D01*
X129024036Y-78220685D01*
X129018222Y-78200398D01*
X129006985Y-78182533D01*
X128992304Y-78169473D01*
X128992393Y-78169345D01*
X128991328Y-78168605D01*
X128991217Y-78168506D01*
X128991074Y-78168429D01*
X128881683Y-78092400D01*
X128793133Y-78000703D01*
X128733895Y-77908783D01*
X128720080Y-77892828D01*
X128702367Y-77881354D01*
X128682159Y-77875268D01*
X128661056Y-77875053D01*
X128640728Y-77880726D01*
X128622786Y-77891838D01*
X128608649Y-77907508D01*
X128603562Y-77916692D01*
X128529428Y-78021783D01*
X128437120Y-78109686D01*
X128348677Y-78165814D01*
X128332626Y-78179517D01*
X128321028Y-78197149D01*
X128314802Y-78217315D01*
X128314440Y-78238416D01*
X127753979Y-78238416D01*
X127754036Y-78220685D01*
X127748222Y-78200398D01*
X127736985Y-78182533D01*
X127722304Y-78169473D01*
X127722393Y-78169345D01*
X127721328Y-78168605D01*
X127721217Y-78168506D01*
X127721074Y-78168429D01*
X127611683Y-78092400D01*
X127523133Y-78000703D01*
X127454077Y-77893549D01*
X127407154Y-77775034D01*
X127384143Y-77649655D01*
X127385922Y-77522192D01*
X127412425Y-77397508D01*
X127462642Y-77280344D01*
X127534658Y-77175166D01*
X127625738Y-77085974D01*
X127720816Y-77023757D01*
X127736674Y-77009832D01*
X127748025Y-76992040D01*
X127753969Y-76971790D01*
X127753979Y-76968416D01*
X128314440Y-76968416D01*
X128319971Y-76988783D01*
X128330957Y-77006802D01*
X128346924Y-77021317D01*
X128451332Y-77091741D01*
X128541154Y-77182192D01*
X128607021Y-77281330D01*
X128621057Y-77297090D01*
X128638928Y-77308316D01*
X128659219Y-77314118D01*
X128680324Y-77314038D01*
X128700570Y-77308082D01*
X128718355Y-77296721D01*
X128731374Y-77282197D01*
X128804658Y-77175166D01*
X128895738Y-77085974D01*
X128990816Y-77023757D01*
X129006674Y-77009832D01*
X129018025Y-76992040D01*
X129023969Y-76971790D01*
X129024036Y-76950685D01*
X129018222Y-76930398D01*
X129006985Y-76912533D01*
X128992304Y-76899473D01*
X128992393Y-76899345D01*
X128991328Y-76898605D01*
X128991217Y-76898506D01*
X128991074Y-76898429D01*
X128881683Y-76822400D01*
X128793133Y-76730703D01*
X128733895Y-76638783D01*
X128720080Y-76622828D01*
X128702367Y-76611354D01*
X128682159Y-76605268D01*
X128661056Y-76605053D01*
X128640728Y-76610726D01*
X128622786Y-76621838D01*
X128608649Y-76637508D01*
X128603562Y-76646692D01*
X128529428Y-76751783D01*
X128437120Y-76839686D01*
X128348677Y-76895814D01*
X128332626Y-76909517D01*
X128321028Y-76927149D01*
X128314802Y-76947315D01*
X128314440Y-76968416D01*
X127753979Y-76968416D01*
X127754036Y-76950685D01*
X127748222Y-76930398D01*
X127736985Y-76912533D01*
X127722304Y-76899473D01*
X127722393Y-76899345D01*
X127721328Y-76898605D01*
X127721217Y-76898506D01*
X127721074Y-76898429D01*
X127611683Y-76822400D01*
X127523133Y-76730703D01*
X127454077Y-76623549D01*
X127407154Y-76505034D01*
X127384143Y-76379655D01*
X127385922Y-76252192D01*
X127412425Y-76127508D01*
X127462642Y-76010344D01*
X127534658Y-75905166D01*
X127625738Y-75815974D01*
X127720816Y-75753757D01*
X127736674Y-75739832D01*
X127748025Y-75722040D01*
X127753969Y-75701790D01*
X127753979Y-75698416D01*
X128314440Y-75698416D01*
X128319971Y-75718783D01*
X128330957Y-75736802D01*
X128346924Y-75751317D01*
X128451332Y-75821741D01*
X128541154Y-75912192D01*
X128607021Y-76011330D01*
X128621057Y-76027090D01*
X128638928Y-76038316D01*
X128659219Y-76044118D01*
X128680324Y-76044038D01*
X128700570Y-76038082D01*
X128718355Y-76026721D01*
X128731374Y-76012197D01*
X128804658Y-75905166D01*
X128895738Y-75815974D01*
X128990816Y-75753757D01*
X129006674Y-75739832D01*
X129018025Y-75722040D01*
X129023969Y-75701790D01*
X129024036Y-75680685D01*
X129018222Y-75660398D01*
X129006985Y-75642533D01*
X128992304Y-75629473D01*
X128992393Y-75629345D01*
X128991328Y-75628605D01*
X128991217Y-75628506D01*
X128991074Y-75628429D01*
X128881683Y-75552400D01*
X128793133Y-75460703D01*
X128733895Y-75368783D01*
X128720080Y-75352828D01*
X128702367Y-75341354D01*
X128682159Y-75335268D01*
X128661056Y-75335053D01*
X128640728Y-75340726D01*
X128622786Y-75351838D01*
X128608649Y-75367508D01*
X128603562Y-75376692D01*
X128529428Y-75481783D01*
X128437120Y-75569686D01*
X128348677Y-75625814D01*
X128332626Y-75639517D01*
X128321028Y-75657149D01*
X128314802Y-75677315D01*
X128314440Y-75698416D01*
X127753979Y-75698416D01*
X127754036Y-75680685D01*
X127748222Y-75660398D01*
X127736985Y-75642533D01*
X127722304Y-75629473D01*
X127722393Y-75629345D01*
X127721328Y-75628605D01*
X127721217Y-75628506D01*
X127721074Y-75628429D01*
X127611683Y-75552400D01*
X127523133Y-75460703D01*
X127454077Y-75353549D01*
X127407154Y-75235034D01*
X127384143Y-75109655D01*
X127385922Y-74982192D01*
X127412425Y-74857508D01*
X127462642Y-74740344D01*
X127534658Y-74635166D01*
X127625738Y-74545974D01*
X127720816Y-74483757D01*
X127736674Y-74469832D01*
X127748025Y-74452040D01*
X127753969Y-74431790D01*
X127753979Y-74428416D01*
X128314440Y-74428416D01*
X128319971Y-74448783D01*
X128330957Y-74466802D01*
X128346924Y-74481317D01*
X128451332Y-74551741D01*
X128541154Y-74642192D01*
X128607021Y-74741330D01*
X128621057Y-74757090D01*
X128638928Y-74768316D01*
X128659219Y-74774118D01*
X128680324Y-74774038D01*
X128700570Y-74768082D01*
X128718355Y-74756721D01*
X128731374Y-74742197D01*
X128804658Y-74635166D01*
X128895738Y-74545974D01*
X128990816Y-74483757D01*
X129006674Y-74469832D01*
X129018025Y-74452040D01*
X129023969Y-74431790D01*
X129024036Y-74410685D01*
X129018222Y-74390398D01*
X129006985Y-74372533D01*
X128992304Y-74359473D01*
X128992393Y-74359345D01*
X128991328Y-74358605D01*
X128991217Y-74358506D01*
X128991074Y-74358429D01*
X128881683Y-74282400D01*
X128793133Y-74190703D01*
X128733895Y-74098783D01*
X128720080Y-74082828D01*
X128702367Y-74071354D01*
X128682159Y-74065268D01*
X128661056Y-74065053D01*
X128640728Y-74070726D01*
X128622786Y-74081838D01*
X128608649Y-74097508D01*
X128603562Y-74106692D01*
X128529428Y-74211783D01*
X128437120Y-74299686D01*
X128348677Y-74355814D01*
X128332626Y-74369517D01*
X128321028Y-74387149D01*
X128314802Y-74407315D01*
X128314440Y-74428416D01*
X127753979Y-74428416D01*
X127754036Y-74410685D01*
X127748222Y-74390398D01*
X127736985Y-74372533D01*
X127722304Y-74359473D01*
X127722393Y-74359345D01*
X127721328Y-74358605D01*
X127721217Y-74358506D01*
X127721074Y-74358429D01*
X127611683Y-74282400D01*
X127523133Y-74190703D01*
X127454077Y-74083549D01*
X127407154Y-73965034D01*
X127384143Y-73839655D01*
X127385922Y-73712192D01*
X127412425Y-73587508D01*
X127462642Y-73470344D01*
X127534658Y-73365166D01*
X127625738Y-73275974D01*
X127720816Y-73213757D01*
X127736674Y-73199832D01*
X127748025Y-73182040D01*
X127753969Y-73161790D01*
X127753979Y-73158416D01*
X128314440Y-73158416D01*
X128319971Y-73178783D01*
X128330957Y-73196802D01*
X128346924Y-73211317D01*
X128451332Y-73281741D01*
X128541154Y-73372192D01*
X128607021Y-73471330D01*
X128621057Y-73487090D01*
X128638928Y-73498316D01*
X128659219Y-73504118D01*
X128680324Y-73504038D01*
X128700570Y-73498082D01*
X128718355Y-73486721D01*
X128731374Y-73472197D01*
X128804658Y-73365166D01*
X128895738Y-73275974D01*
X128990816Y-73213757D01*
X129006674Y-73199832D01*
X129018025Y-73182040D01*
X129023969Y-73161790D01*
X129024036Y-73140685D01*
X129018222Y-73120398D01*
X129006985Y-73102533D01*
X128992304Y-73089473D01*
X128992393Y-73089345D01*
X128991328Y-73088605D01*
X128991217Y-73088506D01*
X128991074Y-73088429D01*
X128881683Y-73012400D01*
X128793133Y-72920703D01*
X128733895Y-72828783D01*
X128720080Y-72812828D01*
X128702367Y-72801354D01*
X128682159Y-72795268D01*
X128661056Y-72795053D01*
X128640728Y-72800726D01*
X128622786Y-72811838D01*
X128608649Y-72827508D01*
X128603562Y-72836692D01*
X128529428Y-72941783D01*
X128437120Y-73029686D01*
X128348677Y-73085814D01*
X128332626Y-73099517D01*
X128321028Y-73117149D01*
X128314802Y-73137315D01*
X128314440Y-73158416D01*
X127753979Y-73158416D01*
X127754036Y-73140685D01*
X127748222Y-73120398D01*
X127736985Y-73102533D01*
X127722304Y-73089473D01*
X127722393Y-73089345D01*
X127721328Y-73088605D01*
X127721217Y-73088506D01*
X127721074Y-73088429D01*
X127611683Y-73012400D01*
X127523133Y-72920703D01*
X127454077Y-72813549D01*
X127407154Y-72695034D01*
X127384143Y-72569655D01*
X127385922Y-72442192D01*
X127412425Y-72317508D01*
X127462642Y-72200344D01*
X127534658Y-72095166D01*
X127625738Y-72005974D01*
X127720816Y-71943757D01*
X127736674Y-71929832D01*
X127748025Y-71912040D01*
X127753969Y-71891790D01*
X127753979Y-71888416D01*
X128314440Y-71888416D01*
X128319971Y-71908783D01*
X128330957Y-71926802D01*
X128346924Y-71941317D01*
X128451332Y-72011741D01*
X128541154Y-72102192D01*
X128607021Y-72201330D01*
X128621057Y-72217090D01*
X128638928Y-72228316D01*
X128659219Y-72234118D01*
X128680324Y-72234038D01*
X128700570Y-72228082D01*
X128718355Y-72216721D01*
X128731374Y-72202197D01*
X128804658Y-72095166D01*
X128895738Y-72005974D01*
X128990816Y-71943757D01*
X129006674Y-71929832D01*
X129018025Y-71912040D01*
X129023969Y-71891790D01*
X129024036Y-71870685D01*
X129018222Y-71850398D01*
X129006985Y-71832533D01*
X128992304Y-71819473D01*
X128992393Y-71819345D01*
X128991328Y-71818605D01*
X128991217Y-71818506D01*
X128991074Y-71818429D01*
X128881683Y-71742400D01*
X128793133Y-71650703D01*
X128733895Y-71558783D01*
X128720080Y-71542828D01*
X128702367Y-71531354D01*
X128682159Y-71525268D01*
X128661056Y-71525053D01*
X128640728Y-71530726D01*
X128622786Y-71541838D01*
X128608649Y-71557508D01*
X128603562Y-71566692D01*
X128529428Y-71671783D01*
X128437120Y-71759686D01*
X128348677Y-71815814D01*
X128332626Y-71829517D01*
X128321028Y-71847149D01*
X128314802Y-71867315D01*
X128314440Y-71888416D01*
X127753979Y-71888416D01*
X127754036Y-71870685D01*
X127748222Y-71850398D01*
X127736985Y-71832533D01*
X127722304Y-71819473D01*
X127722393Y-71819345D01*
X127721328Y-71818605D01*
X127721217Y-71818506D01*
X127721074Y-71818429D01*
X127611683Y-71742400D01*
X127523133Y-71650703D01*
X127454077Y-71543549D01*
X127407154Y-71425034D01*
X127384143Y-71299655D01*
X127385922Y-71172192D01*
X127412425Y-71047508D01*
X127462642Y-70930344D01*
X127534658Y-70825166D01*
X127625738Y-70735974D01*
X127720816Y-70673757D01*
X127736674Y-70659832D01*
X127748025Y-70642040D01*
X127753969Y-70621790D01*
X127753979Y-70618416D01*
X128314440Y-70618416D01*
X128319971Y-70638783D01*
X128330957Y-70656802D01*
X128346924Y-70671317D01*
X128451332Y-70741741D01*
X128541154Y-70832192D01*
X128607021Y-70931330D01*
X128621057Y-70947090D01*
X128638928Y-70958316D01*
X128659219Y-70964118D01*
X128680324Y-70964038D01*
X128700570Y-70958082D01*
X128718355Y-70946721D01*
X128731374Y-70932197D01*
X128804658Y-70825166D01*
X128895738Y-70735974D01*
X128990816Y-70673757D01*
X129006674Y-70659832D01*
X129018025Y-70642040D01*
X129023969Y-70621790D01*
X129024036Y-70600685D01*
X129018222Y-70580398D01*
X129006985Y-70562533D01*
X128992304Y-70549473D01*
X128992393Y-70549345D01*
X128991328Y-70548605D01*
X128991217Y-70548506D01*
X128991074Y-70548429D01*
X128881683Y-70472400D01*
X128793133Y-70380703D01*
X128733895Y-70288783D01*
X128720080Y-70272828D01*
X128702367Y-70261354D01*
X128682159Y-70255268D01*
X128661056Y-70255053D01*
X128640728Y-70260726D01*
X128622786Y-70271838D01*
X128608649Y-70287508D01*
X128603562Y-70296692D01*
X128529428Y-70401783D01*
X128437120Y-70489686D01*
X128348677Y-70545814D01*
X128332626Y-70559517D01*
X128321028Y-70577149D01*
X128314802Y-70597315D01*
X128314440Y-70618416D01*
X127753979Y-70618416D01*
X127754036Y-70600685D01*
X127748222Y-70580398D01*
X127736985Y-70562533D01*
X127722304Y-70549473D01*
X127722393Y-70549345D01*
X127721328Y-70548605D01*
X127721217Y-70548506D01*
X127721074Y-70548429D01*
X127611683Y-70472400D01*
X127523133Y-70380703D01*
X127454077Y-70273549D01*
X127407154Y-70155034D01*
X127384143Y-70029655D01*
X127385922Y-69902192D01*
X127412425Y-69777508D01*
X127462642Y-69660344D01*
X127534658Y-69555166D01*
X127625738Y-69465974D01*
X127720816Y-69403757D01*
X127736674Y-69389832D01*
X127748025Y-69372040D01*
X127753969Y-69351790D01*
X127753979Y-69348416D01*
X128314440Y-69348416D01*
X128319971Y-69368783D01*
X128330957Y-69386802D01*
X128346924Y-69401317D01*
X128451332Y-69471741D01*
X128541154Y-69562192D01*
X128607021Y-69661330D01*
X128621057Y-69677090D01*
X128638928Y-69688316D01*
X128659219Y-69694118D01*
X128680324Y-69694038D01*
X128700570Y-69688082D01*
X128718355Y-69676721D01*
X128731374Y-69662197D01*
X128804658Y-69555166D01*
X128895738Y-69465974D01*
X128990816Y-69403757D01*
X129006674Y-69389832D01*
X129018025Y-69372040D01*
X129023969Y-69351790D01*
X129024036Y-69330685D01*
X129018222Y-69310398D01*
X129006985Y-69292533D01*
X128992304Y-69279473D01*
X128992393Y-69279345D01*
X128991328Y-69278605D01*
X128991217Y-69278506D01*
X128991074Y-69278429D01*
X128881683Y-69202400D01*
X128793133Y-69110703D01*
X128733895Y-69018783D01*
X128720080Y-69002828D01*
X128702367Y-68991354D01*
X128682159Y-68985268D01*
X128661056Y-68985053D01*
X128640728Y-68990726D01*
X128622786Y-69001838D01*
X128608649Y-69017508D01*
X128603562Y-69026692D01*
X128529428Y-69131783D01*
X128437120Y-69219686D01*
X128348677Y-69275814D01*
X128332626Y-69289517D01*
X128321028Y-69307149D01*
X128314802Y-69327315D01*
X128314440Y-69348416D01*
X127753979Y-69348416D01*
X127754036Y-69330685D01*
X127748222Y-69310398D01*
X127736985Y-69292533D01*
X127722304Y-69279473D01*
X127722393Y-69279345D01*
X127721328Y-69278605D01*
X127721217Y-69278506D01*
X127721074Y-69278429D01*
X127611683Y-69202400D01*
X127523133Y-69110703D01*
X127454077Y-69003549D01*
X127407154Y-68885034D01*
X127384143Y-68759655D01*
X127385922Y-68632192D01*
X127412425Y-68507508D01*
X127462642Y-68390344D01*
X127534658Y-68285166D01*
X127625738Y-68195974D01*
X127732395Y-68126180D01*
X127850589Y-68078426D01*
X127975807Y-68054539D01*
X128103272Y-68055430D01*
X128228139Y-68081061D01*
X128345652Y-68130459D01*
X128451332Y-68201741D01*
X128541154Y-68292192D01*
X128607021Y-68391330D01*
X128621057Y-68407090D01*
X128638928Y-68418316D01*
X128659219Y-68424118D01*
X128680324Y-68424038D01*
X128700570Y-68418082D01*
X128718355Y-68406721D01*
X128731374Y-68392197D01*
X128804658Y-68285166D01*
X128895738Y-68195974D01*
X129002395Y-68126180D01*
X129120589Y-68078426D01*
X129245807Y-68054539D01*
X129373272Y-68055430D01*
X129373272Y-68055430D01*
G37*
G36*
X97800000Y-79050000D02*
X96200000Y-79050000D01*
X96200000Y-78050000D01*
X97800000Y-78050000D01*
X97800000Y-79050000D01*
X97800000Y-79050000D01*
G37*
G36*
X103300000Y-79050000D02*
X101700000Y-79050000D01*
X101700000Y-78050000D01*
X103300000Y-78050000D01*
X103300000Y-79050000D01*
X103300000Y-79050000D01*
G37*
G36*
X111666000Y-78166000D02*
X109334000Y-78166000D01*
X109334000Y-75834000D01*
X111666000Y-75834000D01*
X111666000Y-78166000D01*
X111666000Y-78166000D01*
G37*
G36*
X90666000Y-78166000D02*
X88334000Y-78166000D01*
X88334000Y-75834000D01*
X90666000Y-75834000D01*
X90666000Y-78166000D01*
X90666000Y-78166000D01*
G37*
G36*
X97749440Y-77298460D02*
X96250560Y-77298460D01*
X96250560Y-75799580D01*
X97749440Y-75799580D01*
X97749440Y-77298460D01*
X97749440Y-77298460D01*
G37*
G36*
X103249440Y-77298460D02*
X101750560Y-77298460D01*
X101750560Y-75799580D01*
X103249440Y-75799580D01*
X103249440Y-77298460D01*
X103249440Y-77298460D01*
G37*
G36*
X89518873Y-73294092D02*
X89518879Y-73294093D01*
X89521922Y-73294114D01*
X89748067Y-73319480D01*
X89964978Y-73388288D01*
X90164394Y-73497918D01*
X90338717Y-73644193D01*
X90481309Y-73821541D01*
X90586738Y-74023209D01*
X90650989Y-74241513D01*
X90650994Y-74241567D01*
X90650999Y-74241584D01*
X90671617Y-74468137D01*
X90647838Y-74694384D01*
X90647833Y-74694400D01*
X90647827Y-74694457D01*
X90580534Y-74911843D01*
X90472300Y-75112019D01*
X90327245Y-75287359D01*
X90150897Y-75431186D01*
X89949970Y-75538021D01*
X89732119Y-75603794D01*
X89505642Y-75626000D01*
X89494233Y-75626000D01*
X89481127Y-75625908D01*
X89481121Y-75625907D01*
X89478078Y-75625886D01*
X89251933Y-75600520D01*
X89035022Y-75531712D01*
X88835606Y-75422082D01*
X88661283Y-75275807D01*
X88518691Y-75098459D01*
X88413262Y-74896791D01*
X88349011Y-74678487D01*
X88349006Y-74678433D01*
X88349001Y-74678416D01*
X88328383Y-74451863D01*
X88352162Y-74225616D01*
X88352167Y-74225600D01*
X88352173Y-74225543D01*
X88419466Y-74008157D01*
X88527700Y-73807981D01*
X88672755Y-73632641D01*
X88849103Y-73488814D01*
X89050030Y-73381979D01*
X89267881Y-73316206D01*
X89494358Y-73294000D01*
X89505767Y-73294000D01*
X89518873Y-73294092D01*
X89518873Y-73294092D01*
G37*
G36*
X110518873Y-73294092D02*
X110518879Y-73294093D01*
X110521922Y-73294114D01*
X110748067Y-73319480D01*
X110964978Y-73388288D01*
X111164394Y-73497918D01*
X111338717Y-73644193D01*
X111481309Y-73821541D01*
X111586738Y-74023209D01*
X111650989Y-74241513D01*
X111650994Y-74241567D01*
X111650999Y-74241584D01*
X111671617Y-74468137D01*
X111647838Y-74694384D01*
X111647833Y-74694400D01*
X111647827Y-74694457D01*
X111580534Y-74911843D01*
X111472300Y-75112019D01*
X111327245Y-75287359D01*
X111150897Y-75431186D01*
X110949970Y-75538021D01*
X110732119Y-75603794D01*
X110505642Y-75626000D01*
X110494233Y-75626000D01*
X110481127Y-75625908D01*
X110481121Y-75625907D01*
X110478078Y-75625886D01*
X110251933Y-75600520D01*
X110035022Y-75531712D01*
X109835606Y-75422082D01*
X109661283Y-75275807D01*
X109518691Y-75098459D01*
X109413262Y-74896791D01*
X109349011Y-74678487D01*
X109349006Y-74678433D01*
X109349001Y-74678416D01*
X109328383Y-74451863D01*
X109352162Y-74225616D01*
X109352167Y-74225600D01*
X109352173Y-74225543D01*
X109419466Y-74008157D01*
X109527700Y-73807981D01*
X109672755Y-73632641D01*
X109849103Y-73488814D01*
X110050030Y-73381979D01*
X110267881Y-73316206D01*
X110494358Y-73294000D01*
X110505767Y-73294000D01*
X110518873Y-73294092D01*
X110518873Y-73294092D01*
G37*
G36*
X97749440Y-75200420D02*
X96250560Y-75200420D01*
X96250560Y-73701540D01*
X97749440Y-73701540D01*
X97749440Y-75200420D01*
X97749440Y-75200420D01*
G37*
G36*
X103249440Y-75200420D02*
X101750560Y-75200420D01*
X101750560Y-73701540D01*
X103249440Y-73701540D01*
X103249440Y-75200420D01*
X103249440Y-75200420D01*
G37*
G36*
X80203272Y-70045430D02*
X80328139Y-70071061D01*
X80445652Y-70120459D01*
X80551332Y-70191741D01*
X80641156Y-70282194D01*
X80711695Y-70388364D01*
X80760271Y-70506218D01*
X80784928Y-70630744D01*
X80784928Y-70630758D01*
X80785028Y-70631264D01*
X80782995Y-70776861D01*
X80782880Y-70777366D01*
X80782880Y-70777379D01*
X80754757Y-70901165D01*
X80702910Y-71017615D01*
X80629428Y-71121783D01*
X80537120Y-71209686D01*
X80448677Y-71265814D01*
X80432626Y-71279517D01*
X80421028Y-71297149D01*
X80414802Y-71317315D01*
X80414440Y-71338416D01*
X80419971Y-71358783D01*
X80430957Y-71376802D01*
X80446924Y-71391317D01*
X80551332Y-71461741D01*
X80641156Y-71552194D01*
X80711695Y-71658364D01*
X80760271Y-71776218D01*
X80784928Y-71900744D01*
X80784928Y-71900758D01*
X80785028Y-71901264D01*
X80782995Y-72046861D01*
X80782880Y-72047366D01*
X80782880Y-72047379D01*
X80754757Y-72171165D01*
X80702910Y-72287615D01*
X80629428Y-72391783D01*
X80537117Y-72479689D01*
X80429491Y-72547991D01*
X80310647Y-72594088D01*
X80185109Y-72616223D01*
X80057660Y-72613553D01*
X79933167Y-72586181D01*
X79816354Y-72535148D01*
X79711683Y-72462400D01*
X79623133Y-72370703D01*
X79563895Y-72278783D01*
X79550080Y-72262828D01*
X79532367Y-72251354D01*
X79512159Y-72245268D01*
X79491056Y-72245053D01*
X79470728Y-72250726D01*
X79452786Y-72261838D01*
X79438649Y-72277508D01*
X79433562Y-72286692D01*
X79359428Y-72391783D01*
X79267117Y-72479689D01*
X79159491Y-72547991D01*
X79040647Y-72594088D01*
X78915109Y-72616223D01*
X78787660Y-72613553D01*
X78663167Y-72586181D01*
X78546354Y-72535148D01*
X78441683Y-72462400D01*
X78353133Y-72370703D01*
X78293895Y-72278783D01*
X78280080Y-72262828D01*
X78262367Y-72251354D01*
X78242159Y-72245268D01*
X78221056Y-72245053D01*
X78200728Y-72250726D01*
X78182786Y-72261838D01*
X78168649Y-72277508D01*
X78163562Y-72286692D01*
X78089428Y-72391783D01*
X77997117Y-72479689D01*
X77889491Y-72547991D01*
X77770647Y-72594088D01*
X77645109Y-72616223D01*
X77517660Y-72613553D01*
X77393167Y-72586181D01*
X77276354Y-72535148D01*
X77171683Y-72462400D01*
X77083133Y-72370703D01*
X77023895Y-72278783D01*
X77010080Y-72262828D01*
X76992367Y-72251354D01*
X76972159Y-72245268D01*
X76951056Y-72245053D01*
X76930728Y-72250726D01*
X76912786Y-72261838D01*
X76898649Y-72277508D01*
X76893562Y-72286692D01*
X76819428Y-72391783D01*
X76727117Y-72479689D01*
X76619491Y-72547991D01*
X76500647Y-72594088D01*
X76375109Y-72616223D01*
X76247660Y-72613553D01*
X76123167Y-72586181D01*
X76006354Y-72535148D01*
X75901683Y-72462400D01*
X75813133Y-72370703D01*
X75753895Y-72278783D01*
X75740080Y-72262828D01*
X75722367Y-72251354D01*
X75702159Y-72245268D01*
X75681056Y-72245053D01*
X75660728Y-72250726D01*
X75642786Y-72261838D01*
X75628649Y-72277508D01*
X75623562Y-72286692D01*
X75549428Y-72391783D01*
X75457117Y-72479689D01*
X75349491Y-72547991D01*
X75230647Y-72594088D01*
X75105109Y-72616223D01*
X74977660Y-72613553D01*
X74853167Y-72586181D01*
X74736354Y-72535148D01*
X74631683Y-72462400D01*
X74543133Y-72370703D01*
X74483895Y-72278783D01*
X74470080Y-72262828D01*
X74452367Y-72251354D01*
X74432159Y-72245268D01*
X74411056Y-72245053D01*
X74390728Y-72250726D01*
X74372786Y-72261838D01*
X74358649Y-72277508D01*
X74353562Y-72286692D01*
X74279428Y-72391783D01*
X74187117Y-72479689D01*
X74079491Y-72547991D01*
X73960647Y-72594088D01*
X73835109Y-72616223D01*
X73707660Y-72613553D01*
X73583167Y-72586181D01*
X73466354Y-72535148D01*
X73361683Y-72462400D01*
X73273133Y-72370703D01*
X73213895Y-72278783D01*
X73200080Y-72262828D01*
X73182367Y-72251354D01*
X73162159Y-72245268D01*
X73141056Y-72245053D01*
X73120728Y-72250726D01*
X73102786Y-72261838D01*
X73088649Y-72277508D01*
X73083562Y-72286692D01*
X73009428Y-72391783D01*
X72917117Y-72479689D01*
X72809491Y-72547991D01*
X72690647Y-72594088D01*
X72565109Y-72616223D01*
X72437660Y-72613553D01*
X72313167Y-72586181D01*
X72196354Y-72535148D01*
X72091683Y-72462400D01*
X72003133Y-72370703D01*
X71943895Y-72278783D01*
X71930080Y-72262828D01*
X71912367Y-72251354D01*
X71892159Y-72245268D01*
X71871056Y-72245053D01*
X71850728Y-72250726D01*
X71832786Y-72261838D01*
X71818649Y-72277508D01*
X71813562Y-72286692D01*
X71739428Y-72391783D01*
X71647117Y-72479689D01*
X71539491Y-72547991D01*
X71420647Y-72594088D01*
X71295109Y-72616223D01*
X71167660Y-72613553D01*
X71043167Y-72586181D01*
X70926354Y-72535148D01*
X70821683Y-72462400D01*
X70733133Y-72370703D01*
X70673895Y-72278783D01*
X70660080Y-72262828D01*
X70642367Y-72251354D01*
X70622159Y-72245268D01*
X70601056Y-72245053D01*
X70580728Y-72250726D01*
X70562786Y-72261838D01*
X70548649Y-72277508D01*
X70543562Y-72286692D01*
X70469428Y-72391783D01*
X70377117Y-72479689D01*
X70269491Y-72547991D01*
X70150647Y-72594088D01*
X70025109Y-72616223D01*
X69897660Y-72613553D01*
X69773167Y-72586181D01*
X69656354Y-72535148D01*
X69551683Y-72462400D01*
X69463133Y-72370703D01*
X69403895Y-72278783D01*
X69390080Y-72262828D01*
X69372367Y-72251354D01*
X69352159Y-72245268D01*
X69331056Y-72245053D01*
X69310728Y-72250726D01*
X69292786Y-72261838D01*
X69278649Y-72277508D01*
X69273562Y-72286692D01*
X69199428Y-72391783D01*
X69107117Y-72479689D01*
X68999491Y-72547991D01*
X68880647Y-72594088D01*
X68755109Y-72616223D01*
X68627660Y-72613553D01*
X68503167Y-72586181D01*
X68386354Y-72535148D01*
X68281683Y-72462400D01*
X68193133Y-72370703D01*
X68124077Y-72263549D01*
X68077154Y-72145034D01*
X68054143Y-72019655D01*
X68055922Y-71892192D01*
X68082425Y-71767508D01*
X68132642Y-71650344D01*
X68204658Y-71545166D01*
X68295738Y-71455974D01*
X68390816Y-71393757D01*
X68406674Y-71379832D01*
X68418025Y-71362040D01*
X68423969Y-71341790D01*
X68423979Y-71338416D01*
X68984440Y-71338416D01*
X68989971Y-71358783D01*
X69000957Y-71376802D01*
X69016924Y-71391317D01*
X69121332Y-71461741D01*
X69211154Y-71552192D01*
X69277021Y-71651330D01*
X69291057Y-71667090D01*
X69308928Y-71678316D01*
X69329219Y-71684118D01*
X69350324Y-71684038D01*
X69370570Y-71678082D01*
X69388355Y-71666721D01*
X69401374Y-71652197D01*
X69474658Y-71545166D01*
X69565738Y-71455974D01*
X69660816Y-71393757D01*
X69676674Y-71379832D01*
X69688025Y-71362040D01*
X69693969Y-71341790D01*
X69693979Y-71338416D01*
X70254440Y-71338416D01*
X70259971Y-71358783D01*
X70270957Y-71376802D01*
X70286924Y-71391317D01*
X70391332Y-71461741D01*
X70481154Y-71552192D01*
X70547021Y-71651330D01*
X70561057Y-71667090D01*
X70578928Y-71678316D01*
X70599219Y-71684118D01*
X70620324Y-71684038D01*
X70640570Y-71678082D01*
X70658355Y-71666721D01*
X70671374Y-71652197D01*
X70744658Y-71545166D01*
X70835738Y-71455974D01*
X70930816Y-71393757D01*
X70946674Y-71379832D01*
X70958025Y-71362040D01*
X70963969Y-71341790D01*
X70963979Y-71338416D01*
X71524440Y-71338416D01*
X71529971Y-71358783D01*
X71540957Y-71376802D01*
X71556924Y-71391317D01*
X71661332Y-71461741D01*
X71751154Y-71552192D01*
X71817021Y-71651330D01*
X71831057Y-71667090D01*
X71848928Y-71678316D01*
X71869219Y-71684118D01*
X71890324Y-71684038D01*
X71910570Y-71678082D01*
X71928355Y-71666721D01*
X71941374Y-71652197D01*
X72014658Y-71545166D01*
X72105738Y-71455974D01*
X72200816Y-71393757D01*
X72216674Y-71379832D01*
X72228025Y-71362040D01*
X72233969Y-71341790D01*
X72233979Y-71338416D01*
X72794440Y-71338416D01*
X72799971Y-71358783D01*
X72810957Y-71376802D01*
X72826924Y-71391317D01*
X72931332Y-71461741D01*
X73021154Y-71552192D01*
X73087021Y-71651330D01*
X73101057Y-71667090D01*
X73118928Y-71678316D01*
X73139219Y-71684118D01*
X73160324Y-71684038D01*
X73180570Y-71678082D01*
X73198355Y-71666721D01*
X73211374Y-71652197D01*
X73284658Y-71545166D01*
X73375738Y-71455974D01*
X73470816Y-71393757D01*
X73486674Y-71379832D01*
X73498025Y-71362040D01*
X73503969Y-71341790D01*
X73503979Y-71338416D01*
X74064440Y-71338416D01*
X74069971Y-71358783D01*
X74080957Y-71376802D01*
X74096924Y-71391317D01*
X74201332Y-71461741D01*
X74291154Y-71552192D01*
X74357021Y-71651330D01*
X74371057Y-71667090D01*
X74388928Y-71678316D01*
X74409219Y-71684118D01*
X74430324Y-71684038D01*
X74450570Y-71678082D01*
X74468355Y-71666721D01*
X74481374Y-71652197D01*
X74554658Y-71545166D01*
X74645738Y-71455974D01*
X74740816Y-71393757D01*
X74756674Y-71379832D01*
X74768025Y-71362040D01*
X74773969Y-71341790D01*
X74773979Y-71338416D01*
X75334440Y-71338416D01*
X75339971Y-71358783D01*
X75350957Y-71376802D01*
X75366924Y-71391317D01*
X75471332Y-71461741D01*
X75561154Y-71552192D01*
X75627021Y-71651330D01*
X75641057Y-71667090D01*
X75658928Y-71678316D01*
X75679219Y-71684118D01*
X75700324Y-71684038D01*
X75720570Y-71678082D01*
X75738355Y-71666721D01*
X75751374Y-71652197D01*
X75824658Y-71545166D01*
X75915738Y-71455974D01*
X76010816Y-71393757D01*
X76026674Y-71379832D01*
X76038025Y-71362040D01*
X76043969Y-71341790D01*
X76043979Y-71338416D01*
X76604440Y-71338416D01*
X76609971Y-71358783D01*
X76620957Y-71376802D01*
X76636924Y-71391317D01*
X76741332Y-71461741D01*
X76831154Y-71552192D01*
X76897021Y-71651330D01*
X76911057Y-71667090D01*
X76928928Y-71678316D01*
X76949219Y-71684118D01*
X76970324Y-71684038D01*
X76990570Y-71678082D01*
X77008355Y-71666721D01*
X77021374Y-71652197D01*
X77094658Y-71545166D01*
X77185738Y-71455974D01*
X77280816Y-71393757D01*
X77296674Y-71379832D01*
X77308025Y-71362040D01*
X77313969Y-71341790D01*
X77313979Y-71338416D01*
X77874440Y-71338416D01*
X77879971Y-71358783D01*
X77890957Y-71376802D01*
X77906924Y-71391317D01*
X78011332Y-71461741D01*
X78101154Y-71552192D01*
X78167021Y-71651330D01*
X78181057Y-71667090D01*
X78198928Y-71678316D01*
X78219219Y-71684118D01*
X78240324Y-71684038D01*
X78260570Y-71678082D01*
X78278355Y-71666721D01*
X78291374Y-71652197D01*
X78364658Y-71545166D01*
X78455738Y-71455974D01*
X78550816Y-71393757D01*
X78566674Y-71379832D01*
X78578025Y-71362040D01*
X78583969Y-71341790D01*
X78583979Y-71338416D01*
X79144440Y-71338416D01*
X79149971Y-71358783D01*
X79160957Y-71376802D01*
X79176924Y-71391317D01*
X79281332Y-71461741D01*
X79371154Y-71552192D01*
X79437021Y-71651330D01*
X79451057Y-71667090D01*
X79468928Y-71678316D01*
X79489219Y-71684118D01*
X79510324Y-71684038D01*
X79530570Y-71678082D01*
X79548355Y-71666721D01*
X79561374Y-71652197D01*
X79634658Y-71545166D01*
X79725738Y-71455974D01*
X79820816Y-71393757D01*
X79836674Y-71379832D01*
X79848025Y-71362040D01*
X79853969Y-71341790D01*
X79854036Y-71320685D01*
X79848222Y-71300398D01*
X79836985Y-71282533D01*
X79822304Y-71269473D01*
X79822393Y-71269345D01*
X79821328Y-71268605D01*
X79821217Y-71268506D01*
X79821074Y-71268429D01*
X79711683Y-71192400D01*
X79623133Y-71100703D01*
X79563895Y-71008783D01*
X79550080Y-70992828D01*
X79532367Y-70981354D01*
X79512159Y-70975268D01*
X79491056Y-70975053D01*
X79470728Y-70980726D01*
X79452786Y-70991838D01*
X79438649Y-71007508D01*
X79433562Y-71016692D01*
X79359428Y-71121783D01*
X79267120Y-71209686D01*
X79178677Y-71265814D01*
X79162626Y-71279517D01*
X79151028Y-71297149D01*
X79144802Y-71317315D01*
X79144440Y-71338416D01*
X78583979Y-71338416D01*
X78584036Y-71320685D01*
X78578222Y-71300398D01*
X78566985Y-71282533D01*
X78552304Y-71269473D01*
X78552393Y-71269345D01*
X78551328Y-71268605D01*
X78551217Y-71268506D01*
X78551074Y-71268429D01*
X78441683Y-71192400D01*
X78353133Y-71100703D01*
X78293895Y-71008783D01*
X78280080Y-70992828D01*
X78262367Y-70981354D01*
X78242159Y-70975268D01*
X78221056Y-70975053D01*
X78200728Y-70980726D01*
X78182786Y-70991838D01*
X78168649Y-71007508D01*
X78163562Y-71016692D01*
X78089428Y-71121783D01*
X77997120Y-71209686D01*
X77908677Y-71265814D01*
X77892626Y-71279517D01*
X77881028Y-71297149D01*
X77874802Y-71317315D01*
X77874440Y-71338416D01*
X77313979Y-71338416D01*
X77314036Y-71320685D01*
X77308222Y-71300398D01*
X77296985Y-71282533D01*
X77282304Y-71269473D01*
X77282393Y-71269345D01*
X77281328Y-71268605D01*
X77281217Y-71268506D01*
X77281074Y-71268429D01*
X77171683Y-71192400D01*
X77083133Y-71100703D01*
X77023895Y-71008783D01*
X77010080Y-70992828D01*
X76992367Y-70981354D01*
X76972159Y-70975268D01*
X76951056Y-70975053D01*
X76930728Y-70980726D01*
X76912786Y-70991838D01*
X76898649Y-71007508D01*
X76893562Y-71016692D01*
X76819428Y-71121783D01*
X76727120Y-71209686D01*
X76638677Y-71265814D01*
X76622626Y-71279517D01*
X76611028Y-71297149D01*
X76604802Y-71317315D01*
X76604440Y-71338416D01*
X76043979Y-71338416D01*
X76044036Y-71320685D01*
X76038222Y-71300398D01*
X76026985Y-71282533D01*
X76012304Y-71269473D01*
X76012393Y-71269345D01*
X76011328Y-71268605D01*
X76011217Y-71268506D01*
X76011074Y-71268429D01*
X75901683Y-71192400D01*
X75813133Y-71100703D01*
X75753895Y-71008783D01*
X75740080Y-70992828D01*
X75722367Y-70981354D01*
X75702159Y-70975268D01*
X75681056Y-70975053D01*
X75660728Y-70980726D01*
X75642786Y-70991838D01*
X75628649Y-71007508D01*
X75623562Y-71016692D01*
X75549428Y-71121783D01*
X75457120Y-71209686D01*
X75368677Y-71265814D01*
X75352626Y-71279517D01*
X75341028Y-71297149D01*
X75334802Y-71317315D01*
X75334440Y-71338416D01*
X74773979Y-71338416D01*
X74774036Y-71320685D01*
X74768222Y-71300398D01*
X74756985Y-71282533D01*
X74742304Y-71269473D01*
X74742393Y-71269345D01*
X74741328Y-71268605D01*
X74741217Y-71268506D01*
X74741074Y-71268429D01*
X74631683Y-71192400D01*
X74543133Y-71100703D01*
X74483895Y-71008783D01*
X74470080Y-70992828D01*
X74452367Y-70981354D01*
X74432159Y-70975268D01*
X74411056Y-70975053D01*
X74390728Y-70980726D01*
X74372786Y-70991838D01*
X74358649Y-71007508D01*
X74353562Y-71016692D01*
X74279428Y-71121783D01*
X74187120Y-71209686D01*
X74098677Y-71265814D01*
X74082626Y-71279517D01*
X74071028Y-71297149D01*
X74064802Y-71317315D01*
X74064440Y-71338416D01*
X73503979Y-71338416D01*
X73504036Y-71320685D01*
X73498222Y-71300398D01*
X73486985Y-71282533D01*
X73472304Y-71269473D01*
X73472393Y-71269345D01*
X73471328Y-71268605D01*
X73471217Y-71268506D01*
X73471074Y-71268429D01*
X73361683Y-71192400D01*
X73273133Y-71100703D01*
X73213895Y-71008783D01*
X73200080Y-70992828D01*
X73182367Y-70981354D01*
X73162159Y-70975268D01*
X73141056Y-70975053D01*
X73120728Y-70980726D01*
X73102786Y-70991838D01*
X73088649Y-71007508D01*
X73083562Y-71016692D01*
X73009428Y-71121783D01*
X72917120Y-71209686D01*
X72828677Y-71265814D01*
X72812626Y-71279517D01*
X72801028Y-71297149D01*
X72794802Y-71317315D01*
X72794440Y-71338416D01*
X72233979Y-71338416D01*
X72234036Y-71320685D01*
X72228222Y-71300398D01*
X72216985Y-71282533D01*
X72202304Y-71269473D01*
X72202393Y-71269345D01*
X72201328Y-71268605D01*
X72201217Y-71268506D01*
X72201074Y-71268429D01*
X72091683Y-71192400D01*
X72003133Y-71100703D01*
X71943895Y-71008783D01*
X71930080Y-70992828D01*
X71912367Y-70981354D01*
X71892159Y-70975268D01*
X71871056Y-70975053D01*
X71850728Y-70980726D01*
X71832786Y-70991838D01*
X71818649Y-71007508D01*
X71813562Y-71016692D01*
X71739428Y-71121783D01*
X71647120Y-71209686D01*
X71558677Y-71265814D01*
X71542626Y-71279517D01*
X71531028Y-71297149D01*
X71524802Y-71317315D01*
X71524440Y-71338416D01*
X70963979Y-71338416D01*
X70964036Y-71320685D01*
X70958222Y-71300398D01*
X70946985Y-71282533D01*
X70932304Y-71269473D01*
X70932393Y-71269345D01*
X70931328Y-71268605D01*
X70931217Y-71268506D01*
X70931074Y-71268429D01*
X70821683Y-71192400D01*
X70733133Y-71100703D01*
X70673895Y-71008783D01*
X70660080Y-70992828D01*
X70642367Y-70981354D01*
X70622159Y-70975268D01*
X70601056Y-70975053D01*
X70580728Y-70980726D01*
X70562786Y-70991838D01*
X70548649Y-71007508D01*
X70543562Y-71016692D01*
X70469428Y-71121783D01*
X70377120Y-71209686D01*
X70288677Y-71265814D01*
X70272626Y-71279517D01*
X70261028Y-71297149D01*
X70254802Y-71317315D01*
X70254440Y-71338416D01*
X69693979Y-71338416D01*
X69694036Y-71320685D01*
X69688222Y-71300398D01*
X69676985Y-71282533D01*
X69662304Y-71269473D01*
X69662393Y-71269345D01*
X69661328Y-71268605D01*
X69661217Y-71268506D01*
X69661074Y-71268429D01*
X69551683Y-71192400D01*
X69463133Y-71100703D01*
X69403895Y-71008783D01*
X69390080Y-70992828D01*
X69372367Y-70981354D01*
X69352159Y-70975268D01*
X69331056Y-70975053D01*
X69310728Y-70980726D01*
X69292786Y-70991838D01*
X69278649Y-71007508D01*
X69273562Y-71016692D01*
X69199428Y-71121783D01*
X69107120Y-71209686D01*
X69018677Y-71265814D01*
X69002626Y-71279517D01*
X68991028Y-71297149D01*
X68984802Y-71317315D01*
X68984440Y-71338416D01*
X68423979Y-71338416D01*
X68424036Y-71320685D01*
X68418222Y-71300398D01*
X68406985Y-71282533D01*
X68392304Y-71269473D01*
X68392393Y-71269345D01*
X68391328Y-71268605D01*
X68391217Y-71268506D01*
X68391074Y-71268429D01*
X68281683Y-71192400D01*
X68193133Y-71100703D01*
X68124077Y-70993549D01*
X68077154Y-70875034D01*
X68054143Y-70749655D01*
X68055922Y-70622192D01*
X68082425Y-70497508D01*
X68132642Y-70380344D01*
X68204658Y-70275166D01*
X68295738Y-70185974D01*
X68402395Y-70116180D01*
X68520589Y-70068426D01*
X68645807Y-70044539D01*
X68773272Y-70045430D01*
X68898139Y-70071061D01*
X69015652Y-70120459D01*
X69121332Y-70191741D01*
X69211154Y-70282192D01*
X69277021Y-70381330D01*
X69291057Y-70397090D01*
X69308928Y-70408316D01*
X69329219Y-70414118D01*
X69350324Y-70414038D01*
X69370570Y-70408082D01*
X69388355Y-70396721D01*
X69401374Y-70382197D01*
X69474658Y-70275166D01*
X69565738Y-70185974D01*
X69672395Y-70116180D01*
X69790589Y-70068426D01*
X69915807Y-70044539D01*
X70043272Y-70045430D01*
X70168139Y-70071061D01*
X70285652Y-70120459D01*
X70391332Y-70191741D01*
X70481154Y-70282192D01*
X70547021Y-70381330D01*
X70561057Y-70397090D01*
X70578928Y-70408316D01*
X70599219Y-70414118D01*
X70620324Y-70414038D01*
X70640570Y-70408082D01*
X70658355Y-70396721D01*
X70671374Y-70382197D01*
X70744658Y-70275166D01*
X70835738Y-70185974D01*
X70942395Y-70116180D01*
X71060589Y-70068426D01*
X71185807Y-70044539D01*
X71313272Y-70045430D01*
X71438139Y-70071061D01*
X71555652Y-70120459D01*
X71661332Y-70191741D01*
X71751154Y-70282192D01*
X71817021Y-70381330D01*
X71831057Y-70397090D01*
X71848928Y-70408316D01*
X71869219Y-70414118D01*
X71890324Y-70414038D01*
X71910570Y-70408082D01*
X71928355Y-70396721D01*
X71941374Y-70382197D01*
X72014658Y-70275166D01*
X72105738Y-70185974D01*
X72212395Y-70116180D01*
X72330589Y-70068426D01*
X72455807Y-70044539D01*
X72583272Y-70045430D01*
X72708139Y-70071061D01*
X72825652Y-70120459D01*
X72931332Y-70191741D01*
X73021154Y-70282192D01*
X73087021Y-70381330D01*
X73101057Y-70397090D01*
X73118928Y-70408316D01*
X73139219Y-70414118D01*
X73160324Y-70414038D01*
X73180570Y-70408082D01*
X73198355Y-70396721D01*
X73211374Y-70382197D01*
X73284658Y-70275166D01*
X73375738Y-70185974D01*
X73482395Y-70116180D01*
X73600589Y-70068426D01*
X73725807Y-70044539D01*
X73853272Y-70045430D01*
X73978139Y-70071061D01*
X74095652Y-70120459D01*
X74201332Y-70191741D01*
X74291154Y-70282192D01*
X74357021Y-70381330D01*
X74371057Y-70397090D01*
X74388928Y-70408316D01*
X74409219Y-70414118D01*
X74430324Y-70414038D01*
X74450570Y-70408082D01*
X74468355Y-70396721D01*
X74481374Y-70382197D01*
X74554658Y-70275166D01*
X74645738Y-70185974D01*
X74752395Y-70116180D01*
X74870589Y-70068426D01*
X74995807Y-70044539D01*
X75123272Y-70045430D01*
X75248139Y-70071061D01*
X75365652Y-70120459D01*
X75471332Y-70191741D01*
X75561154Y-70282192D01*
X75627021Y-70381330D01*
X75641057Y-70397090D01*
X75658928Y-70408316D01*
X75679219Y-70414118D01*
X75700324Y-70414038D01*
X75720570Y-70408082D01*
X75738355Y-70396721D01*
X75751374Y-70382197D01*
X75824658Y-70275166D01*
X75915738Y-70185974D01*
X76022395Y-70116180D01*
X76140589Y-70068426D01*
X76265807Y-70044539D01*
X76393272Y-70045430D01*
X76518139Y-70071061D01*
X76635652Y-70120459D01*
X76741332Y-70191741D01*
X76831154Y-70282192D01*
X76897021Y-70381330D01*
X76911057Y-70397090D01*
X76928928Y-70408316D01*
X76949219Y-70414118D01*
X76970324Y-70414038D01*
X76990570Y-70408082D01*
X77008355Y-70396721D01*
X77021374Y-70382197D01*
X77094658Y-70275166D01*
X77185738Y-70185974D01*
X77292395Y-70116180D01*
X77410589Y-70068426D01*
X77535807Y-70044539D01*
X77663272Y-70045430D01*
X77788139Y-70071061D01*
X77905652Y-70120459D01*
X78011332Y-70191741D01*
X78101154Y-70282192D01*
X78167021Y-70381330D01*
X78181057Y-70397090D01*
X78198928Y-70408316D01*
X78219219Y-70414118D01*
X78240324Y-70414038D01*
X78260570Y-70408082D01*
X78278355Y-70396721D01*
X78291374Y-70382197D01*
X78364658Y-70275166D01*
X78455738Y-70185974D01*
X78562395Y-70116180D01*
X78680589Y-70068426D01*
X78805807Y-70044539D01*
X78933272Y-70045430D01*
X79058139Y-70071061D01*
X79175652Y-70120459D01*
X79281332Y-70191741D01*
X79371154Y-70282192D01*
X79437021Y-70381330D01*
X79451057Y-70397090D01*
X79468928Y-70408316D01*
X79489219Y-70414118D01*
X79510324Y-70414038D01*
X79530570Y-70408082D01*
X79548355Y-70396721D01*
X79561374Y-70382197D01*
X79634658Y-70275166D01*
X79725738Y-70185974D01*
X79832395Y-70116180D01*
X79950589Y-70068426D01*
X80075807Y-70044539D01*
X80203272Y-70045430D01*
X80203272Y-70045430D01*
G37*
M02*
