G04 #@! TF.FileFunction,Copper,L2,Bot,Signal*
%FSLAX46Y46*%
G04 Gerber Fmt 4.6, Leading zero omitted, Abs format (unit mm)*
G04 Created by KiCad (PCBNEW 4.0.5+dfsg1-4) date Mon May 29 14:43:21 2017*
%MOMM*%
%LPD*%
G01*
G04 APERTURE LIST*
%ADD10C,0.100000*%
%ADD11R,1.727200X1.727200*%
%ADD12O,1.727200X1.727200*%
%ADD13C,1.000000*%
%ADD14R,2.032000X2.032000*%
%ADD15O,2.032000X2.032000*%
%ADD16C,0.600000*%
%ADD17C,1.000000*%
%ADD18C,0.500000*%
%ADD19C,0.200000*%
%ADD20C,0.254000*%
G04 APERTURE END LIST*
D10*
D11*
X95330000Y-99210000D03*
D12*
X95330000Y-101750000D03*
X92790000Y-99210000D03*
X92790000Y-101750000D03*
X90250000Y-99210000D03*
X90250000Y-101750000D03*
X87710000Y-99210000D03*
X87710000Y-101750000D03*
D11*
X103880000Y-101790000D03*
D12*
X103880000Y-99250000D03*
X106420000Y-101790000D03*
X106420000Y-99250000D03*
X108960000Y-101790000D03*
X108960000Y-99250000D03*
X111500000Y-101790000D03*
X111500000Y-99250000D03*
X114040000Y-101790000D03*
X114040000Y-99250000D03*
D13*
X131295000Y-128035000D03*
X131295000Y-129305000D03*
X130025000Y-128035000D03*
X130025000Y-129305000D03*
X128755000Y-128035000D03*
X128755000Y-129305000D03*
X127485000Y-128035000D03*
X127485000Y-129305000D03*
X126215000Y-128035000D03*
X126215000Y-129305000D03*
X124945000Y-128035000D03*
X124945000Y-129305000D03*
X123675000Y-128035000D03*
X123675000Y-129305000D03*
X122405000Y-128035000D03*
X122405000Y-129305000D03*
X121135000Y-128035000D03*
X121135000Y-129305000D03*
X119865000Y-128035000D03*
X119865000Y-129305000D03*
X128035000Y-68705000D03*
X129305000Y-68705000D03*
X128035000Y-69975000D03*
X129305000Y-69975000D03*
X128035000Y-71245000D03*
X129305000Y-71245000D03*
X128035000Y-72515000D03*
X129305000Y-72515000D03*
X128035000Y-73785000D03*
X129305000Y-73785000D03*
X128035000Y-75055000D03*
X129305000Y-75055000D03*
X128035000Y-76325000D03*
X129305000Y-76325000D03*
X128035000Y-77595000D03*
X129305000Y-77595000D03*
X128035000Y-78865000D03*
X129305000Y-78865000D03*
X128035000Y-80135000D03*
X129305000Y-80135000D03*
X68705000Y-71965000D03*
X68705000Y-70695000D03*
X69975000Y-71965000D03*
X69975000Y-70695000D03*
X71245000Y-71965000D03*
X71245000Y-70695000D03*
X72515000Y-71965000D03*
X72515000Y-70695000D03*
X73785000Y-71965000D03*
X73785000Y-70695000D03*
X75055000Y-71965000D03*
X75055000Y-70695000D03*
X76325000Y-71965000D03*
X76325000Y-70695000D03*
X77595000Y-71965000D03*
X77595000Y-70695000D03*
X78865000Y-71965000D03*
X78865000Y-70695000D03*
X80135000Y-71965000D03*
X80135000Y-70695000D03*
X71965000Y-131295000D03*
X70695000Y-131295000D03*
X71965000Y-130025000D03*
X70695000Y-130025000D03*
X71965000Y-128755000D03*
X70695000Y-128755000D03*
X71965000Y-127485000D03*
X70695000Y-127485000D03*
X71965000Y-126215000D03*
X70695000Y-126215000D03*
X71965000Y-124945000D03*
X70695000Y-124945000D03*
X71965000Y-123675000D03*
X70695000Y-123675000D03*
X71965000Y-122405000D03*
X70695000Y-122405000D03*
X71965000Y-121135000D03*
X70695000Y-121135000D03*
X71965000Y-119865000D03*
X70695000Y-119865000D03*
D14*
X110500000Y-77000000D03*
D15*
X110500000Y-74460000D03*
D14*
X89500000Y-77000000D03*
D15*
X89500000Y-74460000D03*
D13*
X91249998Y-114750000D03*
X89250000Y-117000000D03*
X93000000Y-84750000D03*
X116300010Y-111747015D03*
X121400000Y-97800000D03*
X75203241Y-109953241D03*
X112250000Y-111750000D03*
X93000002Y-80500000D03*
X116250000Y-98250000D03*
X75250000Y-108000000D03*
X115000004Y-95500000D03*
X111250000Y-95500000D03*
X119750000Y-88000000D03*
X121500000Y-89750000D03*
X121500000Y-106750004D03*
X119750000Y-108500000D03*
X84949990Y-91000000D03*
X83000000Y-91000000D03*
X84000000Y-86750000D03*
X87750000Y-105750000D03*
X89518825Y-97731175D03*
D16*
X115749990Y-108500000D03*
X114000000Y-103250000D03*
D13*
X83500000Y-108000000D03*
D16*
X85000000Y-85750000D03*
D13*
X85750000Y-92250000D03*
X115999998Y-93500000D03*
X117000000Y-101250000D03*
X85434307Y-106684307D03*
X109500000Y-84000000D03*
X77750000Y-90000000D03*
D16*
X82750000Y-107250000D03*
D13*
X82250000Y-100500006D03*
X115046759Y-91453241D03*
X115250000Y-100500000D03*
X80046759Y-108046759D03*
D16*
X86750000Y-126250000D03*
X119250000Y-110750000D03*
X112832114Y-103917886D03*
D13*
X114046759Y-90453241D03*
X78750000Y-104250000D03*
D16*
X115116866Y-106580205D03*
D13*
X126000000Y-95750000D03*
X81250000Y-108000000D03*
X86002985Y-84758957D03*
X79250000Y-112500000D03*
X100750000Y-118250004D03*
X111500000Y-118250000D03*
X81250000Y-98250000D03*
X89500000Y-112750000D03*
X84750000Y-112000000D03*
X89250000Y-94500000D03*
X74000000Y-111000000D03*
X86049990Y-94500000D03*
X80250000Y-94500000D03*
X75000000Y-94500000D03*
X82250000Y-94500000D03*
X75000004Y-115000000D03*
X74000000Y-94500000D03*
D17*
X93000000Y-80500002D02*
X93000000Y-84750000D01*
X93000002Y-84749998D02*
X93000000Y-84750000D01*
X93000002Y-80500000D02*
X93000002Y-84749998D01*
X112250000Y-111750000D02*
X116297025Y-111750000D01*
X116297025Y-111750000D02*
X116300010Y-111747015D01*
X120950000Y-98250000D02*
X121400000Y-97800000D01*
X116250000Y-98250000D02*
X120950000Y-98250000D01*
X75250000Y-108000000D02*
X75250000Y-109906482D01*
X75250000Y-109906482D02*
X75203241Y-109953241D01*
X121500000Y-89750000D02*
X119750000Y-88000000D01*
X111250000Y-95500000D02*
X115000004Y-95500000D01*
X119750000Y-108500000D02*
X121499996Y-106750004D01*
D18*
X121499996Y-106750004D02*
X121500000Y-106750004D01*
D17*
X84449991Y-90500001D02*
X84949990Y-91000000D01*
X84000000Y-90050010D02*
X84449991Y-90500001D01*
X84000000Y-90000000D02*
X84000000Y-90050010D01*
X83000000Y-91000000D02*
X84949990Y-91000000D01*
X84000000Y-86750000D02*
X84000000Y-90000000D01*
X84000000Y-90000000D02*
X83000000Y-91000000D01*
X92790000Y-99210000D02*
X92790000Y-101750000D01*
D18*
X119865000Y-128035000D02*
X119080000Y-127250000D01*
X119080000Y-127250000D02*
X101250000Y-127250000D01*
X101250000Y-127250000D02*
X87750000Y-113750000D01*
X87750000Y-113750000D02*
X87750000Y-107250000D01*
X87750000Y-107250000D02*
X86250000Y-105750000D01*
X71965000Y-119865000D02*
X71965000Y-119965000D01*
X71965000Y-119965000D02*
X72000000Y-120000000D01*
X72000000Y-120000000D02*
X72450011Y-119549989D01*
X72450011Y-119549989D02*
X72450011Y-114049989D01*
X72450011Y-114049989D02*
X80765694Y-105734306D01*
X80765694Y-105734306D02*
X86234306Y-105734306D01*
X86234306Y-105734306D02*
X86250000Y-105750000D01*
X80135000Y-71965000D02*
X80670000Y-72500000D01*
X80670000Y-72500000D02*
X83489965Y-72500000D01*
X87750000Y-97305870D02*
X89654130Y-99210000D01*
X83489965Y-72500000D02*
X87750000Y-76760035D01*
X87750000Y-76760035D02*
X87750000Y-97305870D01*
X89654130Y-99210000D02*
X90250000Y-99210000D01*
X128035000Y-80135000D02*
X127750000Y-80420000D01*
X127750000Y-80420000D02*
X127750000Y-87489965D01*
X127750000Y-87489965D02*
X117989965Y-97250000D01*
X117989965Y-97250000D02*
X92210000Y-97250000D01*
X92210000Y-97250000D02*
X91113599Y-98346401D01*
X91113599Y-98346401D02*
X90250000Y-99210000D01*
X86250000Y-105750000D02*
X87500000Y-104500000D01*
X87500000Y-104500000D02*
X90250000Y-101750000D01*
X129305000Y-80135000D02*
X128035000Y-80135000D01*
X119865000Y-129305000D02*
X119865000Y-128035000D01*
X70695000Y-119865000D02*
X71965000Y-119865000D01*
X80135000Y-70695000D02*
X80135000Y-71965000D01*
X101500000Y-126500000D02*
X88499999Y-113499999D01*
X88499999Y-106499999D02*
X88249999Y-106249999D01*
X121135000Y-128035000D02*
X121135000Y-127327894D01*
X120307106Y-126500000D02*
X101500000Y-126500000D01*
X121135000Y-127327894D02*
X120307106Y-126500000D01*
X88249999Y-106249999D02*
X87750000Y-105750000D01*
X88499999Y-113499999D02*
X88499999Y-106499999D01*
X128035000Y-78865000D02*
X127327894Y-78865000D01*
X127327894Y-78865000D02*
X127000000Y-79192894D01*
X127000000Y-79192894D02*
X127000000Y-87250000D01*
X127000000Y-87250000D02*
X117750000Y-96500000D01*
X117750000Y-96500000D02*
X90750000Y-96500000D01*
X90750000Y-96500000D02*
X90018824Y-97231176D01*
X90018824Y-97231176D02*
X89518825Y-97731175D01*
X78865000Y-71965000D02*
X78865000Y-72672106D01*
X78865000Y-72672106D02*
X79442894Y-73250000D01*
X79442894Y-73250000D02*
X83250000Y-73250000D01*
X83250000Y-73250000D02*
X87000000Y-77000000D01*
X87000000Y-77000000D02*
X87000000Y-98500000D01*
X87000000Y-98500000D02*
X87710000Y-99210000D01*
X129305000Y-78865000D02*
X128035000Y-78865000D01*
X121135000Y-129305000D02*
X121135000Y-128035000D01*
X78865000Y-70695000D02*
X78865000Y-71965000D01*
D19*
X115749990Y-108075736D02*
X115749990Y-108500000D01*
X115749990Y-104999990D02*
X115749990Y-108075736D01*
X114000000Y-103250000D02*
X115749990Y-104999990D01*
X83500000Y-108707106D02*
X83500000Y-108000000D01*
X83500000Y-109457106D02*
X83500000Y-108707106D01*
X73700033Y-114799967D02*
X75199998Y-113300002D01*
X79657104Y-113300002D02*
X83500000Y-109457106D01*
X73700033Y-122647073D02*
X73700033Y-114799967D01*
X72672106Y-123675000D02*
X73700033Y-122647073D01*
X75199998Y-113300002D02*
X79657104Y-113300002D01*
X71965000Y-123675000D02*
X72672106Y-123675000D01*
X113575736Y-103250000D02*
X114000000Y-103250000D01*
X110420000Y-103250000D02*
X113575736Y-103250000D01*
X108960000Y-101790000D02*
X110420000Y-103250000D01*
X85000000Y-85750000D02*
X85750000Y-86500000D01*
X85750000Y-86500000D02*
X85750000Y-92250000D01*
D18*
X85934306Y-107184306D02*
X85434307Y-106684307D01*
X86899977Y-108149977D02*
X85934306Y-107184306D01*
X86899977Y-114149977D02*
X86899977Y-108149977D01*
X88000000Y-126500000D02*
X88000000Y-115250000D01*
X87000000Y-127500000D02*
X88000000Y-126500000D01*
X75843532Y-127500000D02*
X87000000Y-127500000D01*
X71965000Y-130025000D02*
X73318532Y-130025000D01*
X73318532Y-130025000D02*
X75843532Y-127500000D01*
X88000000Y-115250000D02*
X86899977Y-114149977D01*
X128035000Y-69975000D02*
X127715001Y-70294999D01*
X127715001Y-70294999D02*
X127578999Y-70294999D01*
X127578999Y-70294999D02*
X125623998Y-72250000D01*
X125623998Y-72250000D02*
X116250000Y-72250000D01*
X116250000Y-72250000D02*
X112500000Y-76000000D01*
X112500000Y-76000000D02*
X112500000Y-84000000D01*
X117499999Y-101749999D02*
X117000000Y-101250000D01*
X130025000Y-127775000D02*
X127750000Y-125500000D01*
X121750000Y-110250000D02*
X120000000Y-110250000D01*
X130025000Y-128035000D02*
X130025000Y-127775000D01*
X118500000Y-108750000D02*
X118500000Y-102750000D01*
X127750000Y-125500000D02*
X127750000Y-116250000D01*
X127750000Y-116250000D02*
X121750000Y-110250000D01*
X120000000Y-110250000D02*
X118500000Y-108750000D01*
X118500000Y-102750000D02*
X117499999Y-101749999D01*
X112500000Y-90707108D02*
X115292892Y-93500000D01*
X115292892Y-93500000D02*
X115999998Y-93500000D01*
X112500000Y-84000000D02*
X112500000Y-90707108D01*
X69975000Y-71965000D02*
X69975000Y-72975000D01*
X69975000Y-72975000D02*
X72500000Y-75500000D01*
X72500000Y-75500000D02*
X72500000Y-84750000D01*
X72500000Y-84750000D02*
X77750000Y-90000000D01*
X112500000Y-84000000D02*
X109500000Y-84000000D01*
X70695000Y-130025000D02*
X71965000Y-130025000D01*
X69975000Y-70695000D02*
X69975000Y-71965000D01*
X129305000Y-69975000D02*
X128035000Y-69975000D01*
X130025000Y-129305000D02*
X130025000Y-128035000D01*
D19*
X83049999Y-106950001D02*
X82750000Y-107250000D01*
X85750000Y-125500000D02*
X85750000Y-108815996D01*
X84900011Y-126349989D02*
X85750000Y-125500000D01*
X73100011Y-126349989D02*
X84900011Y-126349989D01*
X85750000Y-108815996D02*
X83884005Y-106950001D01*
X71965000Y-127485000D02*
X73100011Y-126349989D01*
X82750000Y-107000000D02*
X82750000Y-107250000D01*
X83884005Y-106950001D02*
X83049999Y-106950001D01*
X127485000Y-128035000D02*
X127500000Y-128020000D01*
X127500000Y-126722167D02*
X126799978Y-126022145D01*
X127500000Y-128020000D02*
X127500000Y-126722167D01*
X121500000Y-111500000D02*
X119000000Y-111500000D01*
X115250000Y-101207106D02*
X115250000Y-100500000D01*
X126799978Y-126022145D02*
X126799978Y-116799978D01*
X117949989Y-110449989D02*
X117949989Y-104449989D01*
X117949989Y-104449989D02*
X115250000Y-101750000D01*
X126799978Y-116799978D02*
X121500000Y-111500000D01*
X119000000Y-111500000D02*
X117949989Y-110449989D01*
X115250000Y-101750000D02*
X115250000Y-101207106D01*
X128035000Y-72515000D02*
X127349978Y-73200022D01*
X127349978Y-73200022D02*
X116799978Y-73200022D01*
X116799978Y-73200022D02*
X113500000Y-76500000D01*
X113500000Y-76500000D02*
X113500000Y-88500000D01*
X113500000Y-88500000D02*
X115046759Y-90046759D01*
X115046759Y-90046759D02*
X115046759Y-90746135D01*
X115046759Y-90746135D02*
X115046759Y-91453241D01*
X72515000Y-71965000D02*
X73500000Y-72950000D01*
X73500000Y-72950000D02*
X73500000Y-83250000D01*
X73500000Y-83250000D02*
X79449999Y-89199999D01*
X79449999Y-89199999D02*
X79449999Y-99449999D01*
X79449999Y-99449999D02*
X80500000Y-100500000D01*
X80500000Y-100500000D02*
X82249994Y-100500000D01*
X82249994Y-100500000D02*
X82250000Y-100500006D01*
X91626399Y-99555731D02*
X90682124Y-100500006D01*
X103880000Y-99250000D02*
X102676399Y-98046399D01*
X82957106Y-100500006D02*
X82250000Y-100500006D01*
X91626399Y-98651471D02*
X91626399Y-99555731D01*
X92231471Y-98046399D02*
X91626399Y-98651471D01*
X102676399Y-98046399D02*
X92231471Y-98046399D01*
X90682124Y-100500006D02*
X82957106Y-100500006D01*
X115250000Y-100500000D02*
X115163601Y-100413601D01*
X115163601Y-100413601D02*
X105043601Y-100413601D01*
X105043601Y-100413601D02*
X104743599Y-100113599D01*
X104743599Y-100113599D02*
X103880000Y-99250000D01*
X71965000Y-128755000D02*
X73810700Y-128755000D01*
X75815700Y-126750000D02*
X86250000Y-126750000D01*
X73810700Y-128755000D02*
X75815700Y-126750000D01*
X86250000Y-126750000D02*
X86450001Y-126549999D01*
X86450001Y-126549999D02*
X86750000Y-126250000D01*
X87299999Y-125700001D02*
X87299999Y-115549999D01*
X86750000Y-126250000D02*
X87299999Y-125700001D01*
X84015699Y-106449999D02*
X81643519Y-106449999D01*
X86250000Y-108684300D02*
X84015699Y-106449999D01*
X86250000Y-114500000D02*
X86250000Y-108684300D01*
X87299999Y-115549999D02*
X86250000Y-114500000D01*
X81643519Y-106449999D02*
X80546758Y-107546760D01*
X80546758Y-107546760D02*
X80046759Y-108046759D01*
X106420000Y-101790000D02*
X107040000Y-101790000D01*
X114409760Y-106580205D02*
X115116866Y-106580205D01*
X107040000Y-101790000D02*
X111830205Y-106580205D01*
X111830205Y-106580205D02*
X114409760Y-106580205D01*
X127199989Y-125772883D02*
X127199989Y-116634289D01*
X127199989Y-116634289D02*
X121615699Y-111049999D01*
X128755000Y-127327894D02*
X127199989Y-125772883D01*
X128755000Y-128035000D02*
X128755000Y-127327894D01*
X119549999Y-111049999D02*
X119250000Y-110750000D01*
X121615699Y-111049999D02*
X119549999Y-111049999D01*
X112832114Y-104295453D02*
X112832114Y-103917886D01*
X115116866Y-106580205D02*
X112832114Y-104295453D01*
X113050011Y-89456493D02*
X113546760Y-89953242D01*
X113546760Y-89953242D02*
X114046759Y-90453241D01*
X113050011Y-76384289D02*
X113050011Y-89456493D01*
X116634289Y-72800011D02*
X113050011Y-76384289D01*
X128035000Y-71245000D02*
X126479989Y-72800011D01*
X126479989Y-72800011D02*
X116634289Y-72800011D01*
X78750000Y-103542894D02*
X78750000Y-104250000D01*
X73050011Y-74550011D02*
X73050011Y-83365711D01*
X71245000Y-72745000D02*
X73050011Y-74550011D01*
X78750000Y-89065700D02*
X78750000Y-103542894D01*
X73050011Y-83365711D02*
X78750000Y-89065700D01*
X71245000Y-71965000D02*
X71245000Y-72745000D01*
D18*
X111999999Y-117750001D02*
X111500000Y-118250000D01*
X117250011Y-112499989D02*
X111999999Y-117750001D01*
X117250011Y-105000011D02*
X117250011Y-112499989D01*
X114040000Y-101790000D02*
X117250011Y-105000011D01*
X75000000Y-112500000D02*
X78542894Y-112500000D01*
X71965000Y-122405000D02*
X72672106Y-122405000D01*
X73150022Y-114349978D02*
X75000000Y-112500000D01*
X73150022Y-121927084D02*
X73150022Y-114349978D01*
X78542894Y-112500000D02*
X79250000Y-112500000D01*
X72672106Y-122405000D02*
X73150022Y-121927084D01*
X125500001Y-96249999D02*
X126000000Y-95750000D01*
X122500000Y-99250000D02*
X125500001Y-96249999D01*
X114040000Y-99250000D02*
X122500000Y-99250000D01*
X81250000Y-108707106D02*
X81250000Y-108000000D01*
X81250000Y-110500000D02*
X81250000Y-108707106D01*
X79250000Y-112500000D02*
X81250000Y-110500000D01*
X84585039Y-84758957D02*
X85295879Y-84758957D01*
X81250000Y-88093996D02*
X84585039Y-84758957D01*
X85295879Y-84758957D02*
X86002985Y-84758957D01*
X81250000Y-98250000D02*
X81250000Y-88093996D01*
X100750004Y-118250000D02*
X100750000Y-118250004D01*
X111500000Y-118250000D02*
X100750004Y-118250000D01*
X81750000Y-115000000D02*
X84250001Y-112499999D01*
X75000004Y-115000000D02*
X81750000Y-115000000D01*
X84250001Y-112499999D02*
X84750000Y-112000000D01*
X127485000Y-129305000D02*
X129180000Y-131000000D01*
X129180000Y-131000000D02*
X131006002Y-131000000D01*
X131006002Y-131000000D02*
X132250000Y-129756002D01*
X129250000Y-81250000D02*
X130000000Y-81250000D01*
X132250000Y-129756002D02*
X132250000Y-122000000D01*
X128500000Y-82000000D02*
X129250000Y-81250000D01*
X132250000Y-122000000D02*
X128500000Y-118250000D01*
X131250000Y-74460000D02*
X129305000Y-72515000D01*
X128500000Y-118250000D02*
X128500000Y-82000000D01*
X130000000Y-81250000D02*
X131250000Y-80000000D01*
X131250000Y-80000000D02*
X131250000Y-74460000D01*
X129305000Y-72515000D02*
X131250000Y-70570000D01*
X131250000Y-70570000D02*
X131250000Y-69000000D01*
X131250000Y-69000000D02*
X130004999Y-67754999D01*
X130004999Y-67754999D02*
X122245001Y-67754999D01*
X74460000Y-68750000D02*
X73014999Y-70195001D01*
X122245001Y-67754999D02*
X118500000Y-71500000D01*
X118500000Y-71500000D02*
X82000000Y-71500000D01*
X82000000Y-71500000D02*
X81250000Y-70750000D01*
X81250000Y-70750000D02*
X81250000Y-69750000D01*
X81250000Y-69750000D02*
X80250000Y-68750000D01*
X80250000Y-68750000D02*
X74460000Y-68750000D01*
X73014999Y-70195001D02*
X72515000Y-70695000D01*
X74000000Y-111000000D02*
X71750000Y-113250000D01*
X71750000Y-118000000D02*
X70835001Y-118914999D01*
X71750000Y-113250000D02*
X71750000Y-118000000D01*
X70835001Y-118914999D02*
X70238999Y-118914999D01*
X70238999Y-118914999D02*
X69000000Y-120153998D01*
X69000000Y-120153998D02*
X69000000Y-125790000D01*
X69000000Y-125790000D02*
X70195001Y-126985001D01*
X70195001Y-126985001D02*
X70695000Y-127485000D01*
X70695000Y-127485000D02*
X69000000Y-129180000D01*
X69000000Y-129180000D02*
X69000000Y-131000000D01*
X69000000Y-131000000D02*
X70500000Y-132500000D01*
X70500000Y-132500000D02*
X77000000Y-132500000D01*
X81250000Y-128250000D02*
X118250000Y-128250000D01*
X118750000Y-128750000D02*
X118750000Y-130000000D01*
X77000000Y-132500000D02*
X81250000Y-128250000D01*
X118250000Y-128250000D02*
X118750000Y-128750000D01*
X118750000Y-130000000D02*
X119750000Y-131000000D01*
X119750000Y-131000000D02*
X125790000Y-131000000D01*
X125790000Y-131000000D02*
X127485000Y-129305000D01*
X71750000Y-81250000D02*
X71750000Y-92250000D01*
X71750000Y-92250000D02*
X74000000Y-94500000D01*
X67754999Y-77254999D02*
X71750000Y-81250000D01*
X68500000Y-68750000D02*
X67754999Y-69495001D01*
X67754999Y-69495001D02*
X67754999Y-77254999D01*
X70570000Y-68750000D02*
X68500000Y-68750000D01*
X72515000Y-70695000D02*
X70570000Y-68750000D01*
X126215000Y-128035000D02*
X126215000Y-127965000D01*
X126215000Y-127965000D02*
X125895001Y-127645001D01*
X125895001Y-127645001D02*
X125895001Y-127578999D01*
X125401001Y-127084999D02*
X125334999Y-127084999D01*
X125895001Y-127578999D02*
X125401001Y-127084999D01*
X125334999Y-127084999D02*
X125250000Y-127000000D01*
X125250000Y-127000000D02*
X125000000Y-127000000D01*
X126215000Y-128035000D02*
X126215000Y-127785000D01*
X126215000Y-127785000D02*
X126750000Y-127250000D01*
X126750000Y-127250000D02*
X126750000Y-127000000D01*
D17*
X74000000Y-94500000D02*
X73500001Y-94999999D01*
X73500001Y-110500001D02*
X73799999Y-110799999D01*
X73500001Y-94999999D02*
X73500001Y-110500001D01*
X73799999Y-110799999D02*
X74000000Y-111000000D01*
X82250000Y-94500000D02*
X86049990Y-94500000D01*
D20*
G36*
X132746814Y-81502711D02*
X129069103Y-81502711D01*
X128905697Y-81535214D01*
X128767168Y-81627776D01*
X128674606Y-81766305D01*
X128642103Y-81929711D01*
X128642103Y-117929711D01*
X128674606Y-118093117D01*
X128767168Y-118231646D01*
X128905697Y-118324208D01*
X129069103Y-118356711D01*
X132886206Y-118356711D01*
X132886206Y-132607422D01*
X118496103Y-132607422D01*
X118496103Y-128929711D01*
X118463600Y-128766305D01*
X118371038Y-128627776D01*
X118232509Y-128535214D01*
X118069103Y-128502711D01*
X82069103Y-128502711D01*
X81905697Y-128535214D01*
X81767168Y-128627776D01*
X81674606Y-128766305D01*
X81642103Y-128929711D01*
X81642103Y-132746814D01*
X67391392Y-132746814D01*
X67391392Y-128671864D01*
X69804692Y-128671864D01*
X69840647Y-129018899D01*
X69904277Y-129172513D01*
X70046735Y-129223660D01*
X70515395Y-128755000D01*
X70046735Y-128286340D01*
X69904277Y-128337487D01*
X69804692Y-128671864D01*
X67391392Y-128671864D01*
X67391392Y-128106735D01*
X70226340Y-128106735D01*
X70239605Y-128120000D01*
X70226340Y-128133265D01*
X70277487Y-128275723D01*
X70445309Y-128325704D01*
X70695000Y-128575395D01*
X70927822Y-128342573D01*
X70958899Y-128339353D01*
X71112513Y-128275723D01*
X71163660Y-128133265D01*
X71150395Y-128120000D01*
X71163660Y-128106735D01*
X71112513Y-127964277D01*
X70944691Y-127914296D01*
X70695000Y-127664605D01*
X70462178Y-127897427D01*
X70431101Y-127900647D01*
X70277487Y-127964277D01*
X70226340Y-128106735D01*
X67391392Y-128106735D01*
X67391392Y-127401864D01*
X69804692Y-127401864D01*
X69840647Y-127748899D01*
X69904277Y-127902513D01*
X70046735Y-127953660D01*
X70515395Y-127485000D01*
X70046735Y-127016340D01*
X69904277Y-127067487D01*
X69804692Y-127401864D01*
X67391392Y-127401864D01*
X67391392Y-126836735D01*
X70226340Y-126836735D01*
X70239605Y-126850000D01*
X70226340Y-126863265D01*
X70277487Y-127005723D01*
X70445309Y-127055704D01*
X70695000Y-127305395D01*
X70927822Y-127072573D01*
X70958899Y-127069353D01*
X71112513Y-127005723D01*
X71163660Y-126863265D01*
X71150395Y-126850000D01*
X71163660Y-126836735D01*
X71112513Y-126694277D01*
X70944691Y-126644296D01*
X70695000Y-126394605D01*
X70462178Y-126627427D01*
X70431101Y-126630647D01*
X70277487Y-126694277D01*
X70226340Y-126836735D01*
X67391392Y-126836735D01*
X67391392Y-126131864D01*
X69804692Y-126131864D01*
X69840647Y-126478899D01*
X69904277Y-126632513D01*
X70046735Y-126683660D01*
X70515395Y-126215000D01*
X70874605Y-126215000D01*
X71107427Y-126447822D01*
X71110647Y-126478899D01*
X71174277Y-126632513D01*
X71316735Y-126683660D01*
X71330000Y-126670395D01*
X71343265Y-126683660D01*
X71485723Y-126632513D01*
X71535704Y-126464691D01*
X71785395Y-126215000D01*
X71552573Y-125982178D01*
X71549353Y-125951101D01*
X71485723Y-125797487D01*
X71343265Y-125746340D01*
X71330000Y-125759605D01*
X71316735Y-125746340D01*
X71174277Y-125797487D01*
X71124296Y-125965309D01*
X70874605Y-126215000D01*
X70515395Y-126215000D01*
X70046735Y-125746340D01*
X69904277Y-125797487D01*
X69804692Y-126131864D01*
X67391392Y-126131864D01*
X67391392Y-118356711D01*
X71069103Y-118356711D01*
X71232509Y-118324208D01*
X71371038Y-118231646D01*
X71463600Y-118093117D01*
X71496103Y-117929711D01*
X71496103Y-81929711D01*
X71463600Y-81766305D01*
X71371038Y-81627776D01*
X71232509Y-81535214D01*
X71069103Y-81502711D01*
X67252000Y-81502711D01*
X67252000Y-70868681D01*
X67827849Y-70868681D01*
X67961082Y-71191131D01*
X68099735Y-71330026D01*
X67961949Y-71467571D01*
X67828153Y-71789789D01*
X67827849Y-72138681D01*
X67961082Y-72461131D01*
X68207571Y-72708051D01*
X68529789Y-72841847D01*
X68878681Y-72842151D01*
X69201131Y-72708918D01*
X69340026Y-72570265D01*
X69348000Y-72578253D01*
X69348000Y-72975000D01*
X69395728Y-73214943D01*
X69498901Y-73369353D01*
X69531644Y-73418356D01*
X71873000Y-75759712D01*
X71873000Y-84750000D01*
X71920728Y-84989943D01*
X71984653Y-85085613D01*
X72056644Y-85193356D01*
X76872992Y-90009704D01*
X76872849Y-90173681D01*
X77006082Y-90496131D01*
X77252571Y-90743051D01*
X77574789Y-90876847D01*
X77923681Y-90877151D01*
X78246131Y-90743918D01*
X78273000Y-90717096D01*
X78273000Y-103498177D01*
X78253869Y-103506082D01*
X78006949Y-103752571D01*
X77873153Y-104074789D01*
X77872849Y-104423681D01*
X78006082Y-104746131D01*
X78252571Y-104993051D01*
X78574789Y-105126847D01*
X78923681Y-105127151D01*
X79246131Y-104993918D01*
X79493051Y-104747429D01*
X79626847Y-104425211D01*
X79627151Y-104076319D01*
X79493918Y-103753869D01*
X79247429Y-103506949D01*
X79227000Y-103498466D01*
X79227000Y-99901580D01*
X80162710Y-100837290D01*
X80317460Y-100940691D01*
X80500000Y-100977000D01*
X81498175Y-100977000D01*
X81506082Y-100996137D01*
X81752571Y-101243057D01*
X82074789Y-101376853D01*
X82423681Y-101377157D01*
X82746131Y-101243924D01*
X82993051Y-100997435D01*
X83001534Y-100977006D01*
X86746870Y-100977006D01*
X86563835Y-101250938D01*
X86469400Y-101725695D01*
X86469400Y-101774305D01*
X86563835Y-102249062D01*
X86832763Y-102651542D01*
X87235243Y-102920470D01*
X87710000Y-103014905D01*
X88184757Y-102920470D01*
X88209050Y-102904238D01*
X86005982Y-105107306D01*
X80765694Y-105107306D01*
X80525752Y-105155033D01*
X80322338Y-105290950D01*
X76127000Y-109486288D01*
X76127000Y-107999998D01*
X76127151Y-107826319D01*
X75993918Y-107503869D01*
X75870134Y-107379869D01*
X75870133Y-107379867D01*
X75870131Y-107379866D01*
X75747429Y-107256949D01*
X75425211Y-107123153D01*
X75250002Y-107123000D01*
X75249998Y-107123000D01*
X75076319Y-107122849D01*
X74753869Y-107256082D01*
X74629869Y-107379866D01*
X74629867Y-107379867D01*
X74629866Y-107379869D01*
X74506949Y-107502571D01*
X74373153Y-107824789D01*
X74372849Y-108173681D01*
X74373000Y-108174046D01*
X74373000Y-109665790D01*
X74326394Y-109778030D01*
X74326090Y-110126922D01*
X74459323Y-110449372D01*
X74583107Y-110573372D01*
X74583108Y-110573374D01*
X74583110Y-110573375D01*
X74705812Y-110696292D01*
X74855034Y-110758254D01*
X72006655Y-113606633D01*
X71870739Y-113810046D01*
X71823011Y-114049989D01*
X71823011Y-118987877D01*
X71791319Y-118987849D01*
X71468869Y-119121082D01*
X71351747Y-119238000D01*
X71308277Y-119238000D01*
X71192429Y-119121949D01*
X70870211Y-118988153D01*
X70521319Y-118987849D01*
X70198869Y-119121082D01*
X69951949Y-119367571D01*
X69818153Y-119689789D01*
X69817849Y-120038681D01*
X69951082Y-120361131D01*
X70089735Y-120500026D01*
X69951949Y-120637571D01*
X69818153Y-120959789D01*
X69817849Y-121308681D01*
X69951082Y-121631131D01*
X70089735Y-121770026D01*
X69951949Y-121907571D01*
X69818153Y-122229789D01*
X69817849Y-122578681D01*
X69951082Y-122901131D01*
X70089735Y-123040026D01*
X69951949Y-123177571D01*
X69818153Y-123499789D01*
X69817849Y-123848681D01*
X69951082Y-124171131D01*
X70089735Y-124310026D01*
X69951949Y-124447571D01*
X69818153Y-124769789D01*
X69817849Y-125118681D01*
X69951082Y-125441131D01*
X70197571Y-125688051D01*
X70454229Y-125794624D01*
X70695000Y-126035395D01*
X70936101Y-125794294D01*
X71191131Y-125688918D01*
X71330026Y-125550265D01*
X71467571Y-125688051D01*
X71724229Y-125794624D01*
X71965000Y-126035395D01*
X72206101Y-125794294D01*
X72461131Y-125688918D01*
X72708051Y-125442429D01*
X72841847Y-125120211D01*
X72842151Y-124771319D01*
X72708918Y-124448869D01*
X72570265Y-124309974D01*
X72708051Y-124172429D01*
X72720534Y-124142367D01*
X72854646Y-124115691D01*
X73009396Y-124012290D01*
X74037323Y-122984363D01*
X74140724Y-122829614D01*
X74177033Y-122647073D01*
X74177033Y-120598491D01*
X76691518Y-120598491D01*
X77204553Y-121840129D01*
X78153689Y-122790923D01*
X79394429Y-123306123D01*
X80737883Y-123307296D01*
X81979521Y-122794261D01*
X82930315Y-121845125D01*
X83445515Y-120604385D01*
X83446688Y-119260931D01*
X82933653Y-118019293D01*
X81984517Y-117068499D01*
X80743777Y-116553299D01*
X79400323Y-116552126D01*
X78158685Y-117065161D01*
X77207891Y-118014297D01*
X76692691Y-119255037D01*
X76691518Y-120598491D01*
X74177033Y-120598491D01*
X74177033Y-114997547D01*
X75397578Y-113777002D01*
X79657104Y-113777002D01*
X79839644Y-113740693D01*
X79994394Y-113637292D01*
X83837290Y-109794396D01*
X83940691Y-109639646D01*
X83977000Y-109457106D01*
X83977000Y-108751823D01*
X83996131Y-108743918D01*
X84243051Y-108497429D01*
X84376847Y-108175211D01*
X84376897Y-108117473D01*
X85273000Y-109013576D01*
X85273000Y-125302420D01*
X84702431Y-125872989D01*
X73100011Y-125872989D01*
X72917471Y-125909298D01*
X72821655Y-125973320D01*
X72819353Y-125951101D01*
X72755723Y-125797487D01*
X72613265Y-125746340D01*
X72144605Y-126215000D01*
X72158748Y-126229143D01*
X71979143Y-126408748D01*
X71965000Y-126394605D01*
X71723899Y-126635706D01*
X71468869Y-126741082D01*
X71221949Y-126987571D01*
X71115376Y-127244229D01*
X70874605Y-127485000D01*
X71115706Y-127726101D01*
X71221082Y-127981131D01*
X71359735Y-128120026D01*
X71221949Y-128257571D01*
X71115376Y-128514229D01*
X70874605Y-128755000D01*
X71115706Y-128996101D01*
X71221082Y-129251131D01*
X71359735Y-129390026D01*
X71351747Y-129398000D01*
X71308277Y-129398000D01*
X71192429Y-129281949D01*
X70935771Y-129175376D01*
X70695000Y-128934605D01*
X70453899Y-129175706D01*
X70198869Y-129281082D01*
X69951949Y-129527571D01*
X69818153Y-129849789D01*
X69817849Y-130198681D01*
X69951082Y-130521131D01*
X70089735Y-130660026D01*
X69951949Y-130797571D01*
X69818153Y-131119789D01*
X69817849Y-131468681D01*
X69951082Y-131791131D01*
X70197571Y-132038051D01*
X70519789Y-132171847D01*
X70868681Y-132172151D01*
X71191131Y-132038918D01*
X71330026Y-131900265D01*
X71467571Y-132038051D01*
X71789789Y-132171847D01*
X72138681Y-132172151D01*
X72461131Y-132038918D01*
X72708051Y-131792429D01*
X72841847Y-131470211D01*
X72842151Y-131121319D01*
X72708918Y-130798869D01*
X72570265Y-130659974D01*
X72578253Y-130652000D01*
X73318532Y-130652000D01*
X73558475Y-130604272D01*
X73761888Y-130468356D01*
X76103244Y-128127000D01*
X87000000Y-128127000D01*
X87239943Y-128079272D01*
X87443356Y-127943356D01*
X88443356Y-126943356D01*
X88579273Y-126739942D01*
X88627000Y-126500000D01*
X88627000Y-117617260D01*
X88752571Y-117743051D01*
X89074789Y-117876847D01*
X89423681Y-117877151D01*
X89746131Y-117743918D01*
X89993051Y-117497429D01*
X90126847Y-117175211D01*
X90126988Y-117013700D01*
X100806644Y-127693356D01*
X101010057Y-127829272D01*
X101250000Y-127877000D01*
X118820288Y-127877000D01*
X118987992Y-128044704D01*
X118987849Y-128208681D01*
X119121082Y-128531131D01*
X119238000Y-128648253D01*
X119238000Y-128691723D01*
X119121949Y-128807571D01*
X118988153Y-129129789D01*
X118987849Y-129478681D01*
X119121082Y-129801131D01*
X119367571Y-130048051D01*
X119689789Y-130181847D01*
X120038681Y-130182151D01*
X120361131Y-130048918D01*
X120500026Y-129910265D01*
X120637571Y-130048051D01*
X120959789Y-130181847D01*
X121308681Y-130182151D01*
X121631131Y-130048918D01*
X121770026Y-129910265D01*
X121907571Y-130048051D01*
X122229789Y-130181847D01*
X122578681Y-130182151D01*
X122901131Y-130048918D01*
X123040026Y-129910265D01*
X123177571Y-130048051D01*
X123499789Y-130181847D01*
X123848681Y-130182151D01*
X124171131Y-130048918D01*
X124310026Y-129910265D01*
X124447571Y-130048051D01*
X124769789Y-130181847D01*
X125118681Y-130182151D01*
X125441131Y-130048918D01*
X125536951Y-129953265D01*
X125746340Y-129953265D01*
X125797487Y-130095723D01*
X126131864Y-130195308D01*
X126478899Y-130159353D01*
X126632513Y-130095723D01*
X126683660Y-129953265D01*
X127016340Y-129953265D01*
X127067487Y-130095723D01*
X127401864Y-130195308D01*
X127748899Y-130159353D01*
X127902513Y-130095723D01*
X127953660Y-129953265D01*
X128286340Y-129953265D01*
X128337487Y-130095723D01*
X128671864Y-130195308D01*
X129018899Y-130159353D01*
X129172513Y-130095723D01*
X129223660Y-129953265D01*
X128755000Y-129484605D01*
X128286340Y-129953265D01*
X127953660Y-129953265D01*
X127485000Y-129484605D01*
X127016340Y-129953265D01*
X126683660Y-129953265D01*
X126215000Y-129484605D01*
X125746340Y-129953265D01*
X125536951Y-129953265D01*
X125688051Y-129802429D01*
X125794624Y-129545771D01*
X126035395Y-129305000D01*
X126394605Y-129305000D01*
X126627427Y-129537822D01*
X126630647Y-129568899D01*
X126694277Y-129722513D01*
X126836735Y-129773660D01*
X126850000Y-129760395D01*
X126863265Y-129773660D01*
X127005723Y-129722513D01*
X127055704Y-129554691D01*
X127305395Y-129305000D01*
X127664605Y-129305000D01*
X127897427Y-129537822D01*
X127900647Y-129568899D01*
X127964277Y-129722513D01*
X128106735Y-129773660D01*
X128120000Y-129760395D01*
X128133265Y-129773660D01*
X128275723Y-129722513D01*
X128325704Y-129554691D01*
X128575395Y-129305000D01*
X128342573Y-129072178D01*
X128339353Y-129041101D01*
X128275723Y-128887487D01*
X128133265Y-128836340D01*
X128120000Y-128849605D01*
X128106735Y-128836340D01*
X127964277Y-128887487D01*
X127914296Y-129055309D01*
X127664605Y-129305000D01*
X127305395Y-129305000D01*
X127072573Y-129072178D01*
X127069353Y-129041101D01*
X127005723Y-128887487D01*
X126863265Y-128836340D01*
X126850000Y-128849605D01*
X126836735Y-128836340D01*
X126694277Y-128887487D01*
X126644296Y-129055309D01*
X126394605Y-129305000D01*
X126035395Y-129305000D01*
X125794294Y-129063899D01*
X125688918Y-128808869D01*
X125550265Y-128669974D01*
X125563527Y-128656735D01*
X125746340Y-128656735D01*
X125759605Y-128670000D01*
X125746340Y-128683265D01*
X125797487Y-128825723D01*
X125965309Y-128875704D01*
X126215000Y-129125395D01*
X126447822Y-128892573D01*
X126478899Y-128889353D01*
X126632513Y-128825723D01*
X126683660Y-128683265D01*
X126670395Y-128670000D01*
X126683660Y-128656735D01*
X126632513Y-128514277D01*
X126464691Y-128464296D01*
X126215000Y-128214605D01*
X125982178Y-128447427D01*
X125951101Y-128450647D01*
X125797487Y-128514277D01*
X125746340Y-128656735D01*
X125563527Y-128656735D01*
X125688051Y-128532429D01*
X125794624Y-128275771D01*
X126035395Y-128035000D01*
X125794294Y-127793899D01*
X125688918Y-127538869D01*
X125537050Y-127386735D01*
X125746340Y-127386735D01*
X126215000Y-127855395D01*
X126683660Y-127386735D01*
X126632513Y-127244277D01*
X126298136Y-127144692D01*
X125951101Y-127180647D01*
X125797487Y-127244277D01*
X125746340Y-127386735D01*
X125537050Y-127386735D01*
X125442429Y-127291949D01*
X125120211Y-127158153D01*
X124771319Y-127157849D01*
X124448869Y-127291082D01*
X124309974Y-127429735D01*
X124172429Y-127291949D01*
X123850211Y-127158153D01*
X123501319Y-127157849D01*
X123178869Y-127291082D01*
X123039974Y-127429735D01*
X122902429Y-127291949D01*
X122580211Y-127158153D01*
X122231319Y-127157849D01*
X121908869Y-127291082D01*
X121769974Y-127429735D01*
X121762000Y-127421747D01*
X121762000Y-127327894D01*
X121754678Y-127291082D01*
X121714273Y-127087952D01*
X121578356Y-126884538D01*
X120750462Y-126056644D01*
X120721498Y-126037291D01*
X120547049Y-125920728D01*
X120307106Y-125873000D01*
X101759712Y-125873000D01*
X96485203Y-120598491D01*
X116691518Y-120598491D01*
X117204553Y-121840129D01*
X118153689Y-122790923D01*
X119394429Y-123306123D01*
X120737883Y-123307296D01*
X121979521Y-122794261D01*
X122930315Y-121845125D01*
X123445515Y-120604385D01*
X123446688Y-119260931D01*
X122933653Y-118019293D01*
X121984517Y-117068499D01*
X120743777Y-116553299D01*
X119400323Y-116552126D01*
X118158685Y-117065161D01*
X117207891Y-118014297D01*
X116692691Y-119255037D01*
X116691518Y-120598491D01*
X96485203Y-120598491D01*
X91487495Y-115600783D01*
X91746129Y-115493918D01*
X91993049Y-115247429D01*
X92126845Y-114925211D01*
X92127149Y-114576319D01*
X92085757Y-114476141D01*
X92109796Y-114492204D01*
X92109799Y-114492207D01*
X92186762Y-114524086D01*
X92263724Y-114555965D01*
X92263729Y-114555965D01*
X93985799Y-114898506D01*
X94027854Y-114898506D01*
X94069103Y-114906711D01*
X106069103Y-114906711D01*
X106110352Y-114898506D01*
X106152407Y-114898506D01*
X107874476Y-114555965D01*
X107874481Y-114555965D01*
X108028406Y-114492207D01*
X109488310Y-113516731D01*
X109488313Y-113516730D01*
X109606122Y-113398920D01*
X110581596Y-111939018D01*
X110581599Y-111939015D01*
X110613477Y-111862053D01*
X110645357Y-111785090D01*
X110645357Y-111785085D01*
X110987897Y-110063018D01*
X110987899Y-110063014D01*
X110987899Y-109896408D01*
X110987897Y-109896404D01*
X110645357Y-108174337D01*
X110645357Y-108174332D01*
X110606327Y-108080106D01*
X110581599Y-108020407D01*
X110581596Y-108020404D01*
X109606122Y-106560502D01*
X109488313Y-106442692D01*
X109488310Y-106442691D01*
X108028406Y-105467215D01*
X107874481Y-105403457D01*
X107874476Y-105403457D01*
X106152407Y-105060916D01*
X106110352Y-105060916D01*
X106069103Y-105052711D01*
X94069103Y-105052711D01*
X94027854Y-105060916D01*
X93985799Y-105060916D01*
X92263729Y-105403457D01*
X92263724Y-105403457D01*
X92186761Y-105435337D01*
X92109799Y-105467215D01*
X92109796Y-105467218D01*
X90649894Y-106442692D01*
X90532084Y-106560501D01*
X90532084Y-106560502D01*
X89556607Y-108020408D01*
X89492849Y-108174333D01*
X89492849Y-108174338D01*
X89150309Y-109896402D01*
X89150307Y-109896407D01*
X89150308Y-109979711D01*
X89150307Y-110063015D01*
X89150309Y-110063020D01*
X89492849Y-111785084D01*
X89492849Y-111785089D01*
X89556607Y-111939014D01*
X90532083Y-113398918D01*
X90532084Y-113398921D01*
X90649894Y-113516730D01*
X91183004Y-113872942D01*
X91076317Y-113872849D01*
X90753867Y-114006082D01*
X90506947Y-114252571D01*
X90399073Y-114512361D01*
X89126999Y-113240287D01*
X89126999Y-106499999D01*
X89079271Y-106260056D01*
X88943355Y-106056643D01*
X88627008Y-105740296D01*
X88627151Y-105576319D01*
X88493918Y-105253869D01*
X88247429Y-105006949D01*
X87987637Y-104899075D01*
X89934553Y-102952159D01*
X90250000Y-103014905D01*
X90724757Y-102920470D01*
X91127237Y-102651542D01*
X91396165Y-102249062D01*
X91490600Y-101774305D01*
X91490600Y-101725695D01*
X91396165Y-101250938D01*
X91127237Y-100848458D01*
X91055911Y-100800799D01*
X91845634Y-100011076D01*
X91912763Y-100111542D01*
X91913000Y-100111700D01*
X91913000Y-100848300D01*
X91912763Y-100848458D01*
X91643835Y-101250938D01*
X91549400Y-101725695D01*
X91549400Y-101774305D01*
X91643835Y-102249062D01*
X91912763Y-102651542D01*
X92315243Y-102920470D01*
X92790000Y-103014905D01*
X93264757Y-102920470D01*
X93667237Y-102651542D01*
X93936165Y-102249062D01*
X93972082Y-102068491D01*
X94130967Y-102068491D01*
X94344119Y-102503097D01*
X94707362Y-102823051D01*
X95011511Y-102949021D01*
X95203000Y-102889293D01*
X95203000Y-101877000D01*
X95457000Y-101877000D01*
X95457000Y-102889293D01*
X95648489Y-102949021D01*
X95952638Y-102823051D01*
X96315881Y-102503097D01*
X96529033Y-102068491D01*
X96469844Y-101877000D01*
X95457000Y-101877000D01*
X95203000Y-101877000D01*
X94190156Y-101877000D01*
X94130967Y-102068491D01*
X93972082Y-102068491D01*
X94030600Y-101774305D01*
X94030600Y-101725695D01*
X93972083Y-101431509D01*
X94130967Y-101431509D01*
X94190156Y-101623000D01*
X95203000Y-101623000D01*
X95203000Y-100610707D01*
X95457000Y-100610707D01*
X95457000Y-101623000D01*
X96469844Y-101623000D01*
X96529033Y-101431509D01*
X96315881Y-100996903D01*
X95952638Y-100676949D01*
X95648489Y-100550979D01*
X95457000Y-100610707D01*
X95203000Y-100610707D01*
X95011511Y-100550979D01*
X94707362Y-100676949D01*
X94344119Y-100996903D01*
X94130967Y-101431509D01*
X93972083Y-101431509D01*
X93936165Y-101250938D01*
X93667237Y-100848458D01*
X93667000Y-100848300D01*
X93667000Y-100111700D01*
X93667237Y-100111542D01*
X93936165Y-99709062D01*
X93991425Y-99431250D01*
X94089400Y-99431250D01*
X94089400Y-100148590D01*
X94146795Y-100287153D01*
X94252847Y-100393205D01*
X94391410Y-100450600D01*
X95108750Y-100450600D01*
X95203000Y-100356350D01*
X95203000Y-99337000D01*
X95457000Y-99337000D01*
X95457000Y-100356350D01*
X95551250Y-100450600D01*
X96268590Y-100450600D01*
X96407153Y-100393205D01*
X96513205Y-100287153D01*
X96570600Y-100148590D01*
X96570600Y-99431250D01*
X96476350Y-99337000D01*
X95457000Y-99337000D01*
X95203000Y-99337000D01*
X94183650Y-99337000D01*
X94089400Y-99431250D01*
X93991425Y-99431250D01*
X94030600Y-99234305D01*
X94030600Y-99185695D01*
X93936165Y-98710938D01*
X93810856Y-98523399D01*
X94089400Y-98523399D01*
X94089400Y-98988750D01*
X94183650Y-99083000D01*
X95203000Y-99083000D01*
X95203000Y-99063000D01*
X95457000Y-99063000D01*
X95457000Y-99083000D01*
X96476350Y-99083000D01*
X96570600Y-98988750D01*
X96570600Y-98523399D01*
X102478819Y-98523399D01*
X102729276Y-98773856D01*
X102639400Y-99225695D01*
X102639400Y-99274305D01*
X102733835Y-99749062D01*
X103002763Y-100151542D01*
X103405243Y-100420470D01*
X103880000Y-100514905D01*
X104354757Y-100420470D01*
X104367425Y-100412005D01*
X104497435Y-100542015D01*
X103016400Y-100542015D01*
X102876692Y-100568303D01*
X102748380Y-100650870D01*
X102662299Y-100776853D01*
X102632015Y-100926400D01*
X102632015Y-102653600D01*
X102658303Y-102793308D01*
X102740870Y-102921620D01*
X102866853Y-103007701D01*
X103016400Y-103037985D01*
X104743600Y-103037985D01*
X104883308Y-103011697D01*
X105011620Y-102929130D01*
X105097701Y-102803147D01*
X105127985Y-102653600D01*
X105127985Y-100926400D01*
X105121249Y-100890601D01*
X105541331Y-100890601D01*
X105273835Y-101290938D01*
X105179400Y-101765695D01*
X105179400Y-101814305D01*
X105273835Y-102289062D01*
X105542763Y-102691542D01*
X105945243Y-102960470D01*
X106420000Y-103054905D01*
X106894757Y-102960470D01*
X107279088Y-102703668D01*
X111492915Y-106917495D01*
X111647665Y-107020896D01*
X111830205Y-107057205D01*
X114636446Y-107057205D01*
X114732876Y-107153803D01*
X114981612Y-107257087D01*
X115250939Y-107257322D01*
X115272990Y-107248211D01*
X115272990Y-108019580D01*
X115176392Y-108116010D01*
X115073108Y-108364746D01*
X115072873Y-108634073D01*
X115175723Y-108882989D01*
X115366000Y-109073598D01*
X115614736Y-109176882D01*
X115884063Y-109177117D01*
X116132979Y-109074267D01*
X116323588Y-108883990D01*
X116426872Y-108635254D01*
X116427107Y-108365927D01*
X116324257Y-108117011D01*
X116226990Y-108019574D01*
X116226990Y-104999990D01*
X116193150Y-104829862D01*
X116623011Y-105259723D01*
X116623011Y-110931535D01*
X116475221Y-110870168D01*
X116300012Y-110870015D01*
X116300008Y-110870015D01*
X116126329Y-110869864D01*
X116118739Y-110873000D01*
X112249998Y-110873000D01*
X112076319Y-110872849D01*
X111753869Y-111006082D01*
X111629869Y-111129866D01*
X111629867Y-111129867D01*
X111629866Y-111129869D01*
X111506949Y-111252571D01*
X111373153Y-111574789D01*
X111372849Y-111923681D01*
X111506082Y-112246131D01*
X111629866Y-112370131D01*
X111629867Y-112370133D01*
X111629869Y-112370134D01*
X111752571Y-112493051D01*
X112074789Y-112626847D01*
X112249998Y-112627000D01*
X112250383Y-112627000D01*
X112423681Y-112627151D01*
X112424046Y-112627000D01*
X116236288Y-112627000D01*
X111490296Y-117372992D01*
X111326319Y-117372849D01*
X111003869Y-117506082D01*
X110886747Y-117623000D01*
X101363273Y-117623000D01*
X101247429Y-117506953D01*
X100925211Y-117373157D01*
X100576319Y-117372853D01*
X100253869Y-117506086D01*
X100006949Y-117752575D01*
X99873153Y-118074793D01*
X99872849Y-118423685D01*
X100006082Y-118746135D01*
X100252571Y-118993055D01*
X100574789Y-119126851D01*
X100923681Y-119127155D01*
X101246131Y-118993922D01*
X101363257Y-118877000D01*
X110886723Y-118877000D01*
X111002571Y-118993051D01*
X111324789Y-119126847D01*
X111673681Y-119127151D01*
X111996131Y-118993918D01*
X112243051Y-118747429D01*
X112376847Y-118425211D01*
X112376991Y-118259721D01*
X117693367Y-112943345D01*
X117705983Y-112924464D01*
X117829283Y-112739932D01*
X117877011Y-112499989D01*
X117877011Y-111051591D01*
X118662710Y-111837290D01*
X118817460Y-111940691D01*
X119000000Y-111977000D01*
X121302420Y-111977000D01*
X126322978Y-116997558D01*
X126322978Y-126022145D01*
X126359287Y-126204685D01*
X126462688Y-126359435D01*
X127023000Y-126919747D01*
X127023000Y-127276979D01*
X126988869Y-127291082D01*
X126741949Y-127537571D01*
X126635376Y-127794229D01*
X126394605Y-128035000D01*
X126635706Y-128276101D01*
X126741082Y-128531131D01*
X126987571Y-128778051D01*
X127244229Y-128884624D01*
X127485000Y-129125395D01*
X127726101Y-128884294D01*
X127981131Y-128778918D01*
X128120026Y-128640265D01*
X128257571Y-128778051D01*
X128514229Y-128884624D01*
X128755000Y-129125395D01*
X128996101Y-128884294D01*
X129251131Y-128778918D01*
X129390026Y-128640265D01*
X129398000Y-128648253D01*
X129398000Y-128691723D01*
X129281949Y-128807571D01*
X129175376Y-129064229D01*
X128934605Y-129305000D01*
X129175706Y-129546101D01*
X129281082Y-129801131D01*
X129527571Y-130048051D01*
X129849789Y-130181847D01*
X130198681Y-130182151D01*
X130521131Y-130048918D01*
X130660026Y-129910265D01*
X130797571Y-130048051D01*
X131119789Y-130181847D01*
X131468681Y-130182151D01*
X131791131Y-130048918D01*
X132038051Y-129802429D01*
X132171847Y-129480211D01*
X132172151Y-129131319D01*
X132038918Y-128808869D01*
X131900265Y-128669974D01*
X132038051Y-128532429D01*
X132171847Y-128210211D01*
X132172151Y-127861319D01*
X132038918Y-127538869D01*
X131792429Y-127291949D01*
X131470211Y-127158153D01*
X131121319Y-127157849D01*
X130798869Y-127291082D01*
X130659974Y-127429735D01*
X130522429Y-127291949D01*
X130362078Y-127225366D01*
X128377000Y-125240288D01*
X128377000Y-116250000D01*
X128329272Y-116010057D01*
X128193356Y-115806644D01*
X122193356Y-109806644D01*
X121989943Y-109670728D01*
X121750000Y-109623000D01*
X120259712Y-109623000D01*
X119987496Y-109350784D01*
X120246131Y-109243918D01*
X120370131Y-109120134D01*
X120370133Y-109120133D01*
X120370450Y-109119816D01*
X120493051Y-108997429D01*
X120493203Y-108997063D01*
X122118159Y-107372107D01*
X122243051Y-107247433D01*
X122376847Y-106925215D01*
X122377151Y-106576323D01*
X122243918Y-106253873D01*
X121997429Y-106006953D01*
X121675211Y-105873157D01*
X121499998Y-105873004D01*
X121499994Y-105873004D01*
X121326319Y-105872853D01*
X121164389Y-105939761D01*
X121164383Y-105939762D01*
X121164378Y-105939765D01*
X121003869Y-106006086D01*
X120879877Y-106129862D01*
X120879863Y-106129871D01*
X120877258Y-106132476D01*
X120756949Y-106252575D01*
X120756800Y-106252934D01*
X119129867Y-107879867D01*
X119129866Y-107879869D01*
X119127000Y-107882730D01*
X119127000Y-102750000D01*
X119079272Y-102510057D01*
X118943356Y-102306644D01*
X117877008Y-101240296D01*
X117877151Y-101076319D01*
X117743918Y-100753869D01*
X117497429Y-100506949D01*
X117175211Y-100373153D01*
X116826319Y-100372849D01*
X116503869Y-100506082D01*
X116256949Y-100752571D01*
X116123153Y-101074789D01*
X116122849Y-101423681D01*
X116256082Y-101746131D01*
X116502571Y-101993051D01*
X116824789Y-102126847D01*
X116990279Y-102126991D01*
X117873000Y-103009712D01*
X117873000Y-103698420D01*
X115727000Y-101552420D01*
X115727000Y-101251823D01*
X115746131Y-101243918D01*
X115993051Y-100997429D01*
X116126847Y-100675211D01*
X116127151Y-100326319D01*
X115993918Y-100003869D01*
X115867270Y-99877000D01*
X122500000Y-99877000D01*
X122739943Y-99829272D01*
X122943356Y-99693356D01*
X126009704Y-96627008D01*
X126173681Y-96627151D01*
X126496131Y-96493918D01*
X126743051Y-96247429D01*
X126876847Y-95925211D01*
X126877151Y-95576319D01*
X126743918Y-95253869D01*
X126497429Y-95006949D01*
X126175211Y-94873153D01*
X125826319Y-94872849D01*
X125503869Y-95006082D01*
X125256949Y-95252571D01*
X125123153Y-95574789D01*
X125123009Y-95740279D01*
X122240288Y-98623000D01*
X121817266Y-98623000D01*
X122020133Y-98420133D01*
X122020134Y-98420131D01*
X122143051Y-98297429D01*
X122276847Y-97975211D01*
X122277151Y-97626319D01*
X122143918Y-97303869D01*
X122020134Y-97179869D01*
X122020133Y-97179867D01*
X122020131Y-97179866D01*
X121897429Y-97056949D01*
X121575211Y-96923153D01*
X121400002Y-96923000D01*
X121399998Y-96923000D01*
X121226319Y-96922849D01*
X120903869Y-97056082D01*
X120779869Y-97179866D01*
X120779867Y-97179867D01*
X120779550Y-97180184D01*
X120656949Y-97302571D01*
X120656797Y-97302937D01*
X120586734Y-97373000D01*
X118753677Y-97373000D01*
X128193356Y-87933321D01*
X128329273Y-87729907D01*
X128377000Y-87489965D01*
X128377000Y-80942603D01*
X128531131Y-80878918D01*
X128648253Y-80762000D01*
X128691723Y-80762000D01*
X128807571Y-80878051D01*
X129129789Y-81011847D01*
X129478681Y-81012151D01*
X129801131Y-80878918D01*
X130048051Y-80632429D01*
X130181847Y-80310211D01*
X130182151Y-79961319D01*
X130048918Y-79638869D01*
X129910265Y-79499974D01*
X130048051Y-79362429D01*
X130181847Y-79040211D01*
X130182151Y-78691319D01*
X130048918Y-78368869D01*
X129910265Y-78229974D01*
X130048051Y-78092429D01*
X130181847Y-77770211D01*
X130182151Y-77421319D01*
X130048918Y-77098869D01*
X129910265Y-76959974D01*
X130048051Y-76822429D01*
X130181847Y-76500211D01*
X130182151Y-76151319D01*
X130048918Y-75828869D01*
X129910265Y-75689974D01*
X130048051Y-75552429D01*
X130181847Y-75230211D01*
X130182151Y-74881319D01*
X130048918Y-74558869D01*
X129802429Y-74311949D01*
X129545771Y-74205376D01*
X129305000Y-73964605D01*
X129063899Y-74205706D01*
X128808869Y-74311082D01*
X128669974Y-74449735D01*
X128532429Y-74311949D01*
X128275771Y-74205376D01*
X128035000Y-73964605D01*
X127793899Y-74205706D01*
X127538869Y-74311082D01*
X127291949Y-74557571D01*
X127158153Y-74879789D01*
X127157849Y-75228681D01*
X127291082Y-75551131D01*
X127429735Y-75690026D01*
X127291949Y-75827571D01*
X127158153Y-76149789D01*
X127157849Y-76498681D01*
X127291082Y-76821131D01*
X127429735Y-76960026D01*
X127291949Y-77097571D01*
X127158153Y-77419789D01*
X127157849Y-77768681D01*
X127291082Y-78091131D01*
X127429735Y-78230026D01*
X127421747Y-78238000D01*
X127327894Y-78238000D01*
X127087951Y-78285728D01*
X126884538Y-78421644D01*
X126556644Y-78749538D01*
X126420728Y-78952951D01*
X126373000Y-79192894D01*
X126373000Y-86990288D01*
X117490288Y-95873000D01*
X115794722Y-95873000D01*
X115876851Y-95675211D01*
X115877155Y-95326319D01*
X115743922Y-95003869D01*
X115620138Y-94879869D01*
X115620137Y-94879867D01*
X115620135Y-94879866D01*
X115497433Y-94756949D01*
X115175215Y-94623153D01*
X115000006Y-94623000D01*
X114999621Y-94623000D01*
X114826323Y-94622849D01*
X114825958Y-94623000D01*
X111249998Y-94623000D01*
X111076319Y-94622849D01*
X110753869Y-94756082D01*
X110629869Y-94879866D01*
X110629867Y-94879867D01*
X110629866Y-94879869D01*
X110506949Y-95002571D01*
X110373153Y-95324789D01*
X110372849Y-95673681D01*
X110455206Y-95873000D01*
X90750000Y-95873000D01*
X90510057Y-95920728D01*
X90306644Y-96056644D01*
X89509121Y-96854167D01*
X89345144Y-96854024D01*
X89022694Y-96987257D01*
X88775774Y-97233746D01*
X88713811Y-97382969D01*
X88377000Y-97046158D01*
X88377000Y-89796407D01*
X89150307Y-89796407D01*
X89150308Y-89879711D01*
X89150307Y-89963015D01*
X89150309Y-89963020D01*
X89492849Y-91685084D01*
X89492849Y-91685089D01*
X89556607Y-91839014D01*
X90532083Y-93298918D01*
X90532084Y-93298921D01*
X90649894Y-93416730D01*
X92109796Y-94392204D01*
X92109799Y-94392207D01*
X92186761Y-94424085D01*
X92263724Y-94455965D01*
X92263729Y-94455965D01*
X93985799Y-94798506D01*
X94027854Y-94798506D01*
X94069103Y-94806711D01*
X106069103Y-94806711D01*
X106110352Y-94798506D01*
X106152407Y-94798506D01*
X107874476Y-94455965D01*
X107874481Y-94455965D01*
X108028406Y-94392207D01*
X109488310Y-93416731D01*
X109488313Y-93416730D01*
X109606122Y-93298920D01*
X110581596Y-91839018D01*
X110581599Y-91839015D01*
X110621348Y-91743051D01*
X110645357Y-91685090D01*
X110645357Y-91685085D01*
X110987897Y-89963018D01*
X110987899Y-89963014D01*
X110987899Y-89796408D01*
X110987897Y-89796404D01*
X110645357Y-88074337D01*
X110645357Y-88074332D01*
X110613478Y-87997370D01*
X110581599Y-87920407D01*
X110581596Y-87920404D01*
X109606122Y-86460502D01*
X109488313Y-86342692D01*
X109488310Y-86342691D01*
X108028406Y-85367215D01*
X107874481Y-85303457D01*
X107874476Y-85303457D01*
X106152407Y-84960916D01*
X106110352Y-84960916D01*
X106069103Y-84952711D01*
X94069103Y-84952711D01*
X94027854Y-84960916D01*
X93985799Y-84960916D01*
X93850877Y-84987754D01*
X93876847Y-84925211D01*
X93877000Y-84750015D01*
X93877003Y-84749998D01*
X93877002Y-84749993D01*
X93877002Y-84747322D01*
X93877151Y-84576319D01*
X93877002Y-84575958D01*
X93877002Y-84173681D01*
X108622849Y-84173681D01*
X108756082Y-84496131D01*
X109002571Y-84743051D01*
X109324789Y-84876847D01*
X109673681Y-84877151D01*
X109996131Y-84743918D01*
X110113253Y-84627000D01*
X111873000Y-84627000D01*
X111873000Y-90707108D01*
X111920728Y-90947051D01*
X112011850Y-91083425D01*
X112056644Y-91150464D01*
X114849536Y-93943356D01*
X115052950Y-94079273D01*
X115292892Y-94127000D01*
X115386721Y-94127000D01*
X115502569Y-94243051D01*
X115824787Y-94376847D01*
X116173679Y-94377151D01*
X116496129Y-94243918D01*
X116743049Y-93997429D01*
X116876845Y-93675211D01*
X116877149Y-93326319D01*
X116743916Y-93003869D01*
X116497427Y-92756949D01*
X116175209Y-92623153D01*
X115826317Y-92622849D01*
X115503867Y-92756082D01*
X115469747Y-92790143D01*
X115009812Y-92330208D01*
X115220440Y-92330392D01*
X115542890Y-92197159D01*
X115789810Y-91950670D01*
X115923606Y-91628452D01*
X115923910Y-91279560D01*
X115790677Y-90957110D01*
X115544188Y-90710190D01*
X115523759Y-90701707D01*
X115523759Y-90046759D01*
X115487450Y-89864219D01*
X115384049Y-89709469D01*
X113977000Y-88302420D01*
X113977000Y-88173681D01*
X118872849Y-88173681D01*
X119006082Y-88496131D01*
X119129866Y-88620131D01*
X119129867Y-88620133D01*
X119130184Y-88620450D01*
X119252571Y-88743051D01*
X119252937Y-88743203D01*
X120879613Y-90369878D01*
X121002571Y-90493051D01*
X121324789Y-90626847D01*
X121499993Y-90627000D01*
X121500000Y-90627001D01*
X121500007Y-90627000D01*
X121673681Y-90627151D01*
X121996131Y-90493918D01*
X122120131Y-90370134D01*
X122120133Y-90370133D01*
X122120134Y-90370131D01*
X122243051Y-90247429D01*
X122376847Y-89925211D01*
X122377000Y-89750007D01*
X122377001Y-89750000D01*
X122377000Y-89749993D01*
X122377151Y-89576319D01*
X122243918Y-89253869D01*
X121997429Y-89006949D01*
X121997061Y-89006796D01*
X120370133Y-87379867D01*
X120370131Y-87379866D01*
X120247429Y-87256949D01*
X119925211Y-87123153D01*
X119750002Y-87123000D01*
X119749998Y-87123000D01*
X119576319Y-87122849D01*
X119253869Y-87256082D01*
X119129869Y-87379866D01*
X119129867Y-87379867D01*
X119129866Y-87379869D01*
X119006949Y-87502571D01*
X118873153Y-87824789D01*
X118872849Y-88173681D01*
X113977000Y-88173681D01*
X113977000Y-80598491D01*
X116691518Y-80598491D01*
X117204553Y-81840129D01*
X118153689Y-82790923D01*
X119394429Y-83306123D01*
X120737883Y-83307296D01*
X121979521Y-82794261D01*
X122930315Y-81845125D01*
X123445515Y-80604385D01*
X123446688Y-79260931D01*
X122933653Y-78019293D01*
X121984517Y-77068499D01*
X120743777Y-76553299D01*
X119400323Y-76552126D01*
X118158685Y-77065161D01*
X117207891Y-78014297D01*
X116692691Y-79255037D01*
X116691518Y-80598491D01*
X113977000Y-80598491D01*
X113977000Y-76697580D01*
X116997558Y-73677022D01*
X127152091Y-73677022D01*
X127144692Y-73701864D01*
X127180647Y-74048899D01*
X127244277Y-74202513D01*
X127386735Y-74253660D01*
X127855395Y-73785000D01*
X128214605Y-73785000D01*
X128447427Y-74017822D01*
X128450647Y-74048899D01*
X128514277Y-74202513D01*
X128656735Y-74253660D01*
X128670000Y-74240395D01*
X128683265Y-74253660D01*
X128825723Y-74202513D01*
X128875704Y-74034691D01*
X129125395Y-73785000D01*
X129484605Y-73785000D01*
X129953265Y-74253660D01*
X130095723Y-74202513D01*
X130195308Y-73868136D01*
X130159353Y-73521101D01*
X130095723Y-73367487D01*
X129953265Y-73316340D01*
X129484605Y-73785000D01*
X129125395Y-73785000D01*
X128892573Y-73552178D01*
X128889353Y-73521101D01*
X128825723Y-73367487D01*
X128683265Y-73316340D01*
X128670000Y-73329605D01*
X128656735Y-73316340D01*
X128514277Y-73367487D01*
X128464296Y-73535309D01*
X128214605Y-73785000D01*
X127855395Y-73785000D01*
X127841253Y-73770858D01*
X128020858Y-73591253D01*
X128035000Y-73605395D01*
X128276101Y-73364294D01*
X128531131Y-73258918D01*
X128653527Y-73136735D01*
X128836340Y-73136735D01*
X128849605Y-73150000D01*
X128836340Y-73163265D01*
X128887487Y-73305723D01*
X129055309Y-73355704D01*
X129305000Y-73605395D01*
X129537822Y-73372573D01*
X129568899Y-73369353D01*
X129722513Y-73305723D01*
X129773660Y-73163265D01*
X129760395Y-73150000D01*
X129773660Y-73136735D01*
X129722513Y-72994277D01*
X129554691Y-72944296D01*
X129305000Y-72694605D01*
X129072178Y-72927427D01*
X129041101Y-72930647D01*
X128887487Y-72994277D01*
X128836340Y-73136735D01*
X128653527Y-73136735D01*
X128778051Y-73012429D01*
X128884624Y-72755771D01*
X129125395Y-72515000D01*
X129484605Y-72515000D01*
X129953265Y-72983660D01*
X130095723Y-72932513D01*
X130195308Y-72598136D01*
X130159353Y-72251101D01*
X130095723Y-72097487D01*
X129953265Y-72046340D01*
X129484605Y-72515000D01*
X129125395Y-72515000D01*
X128884294Y-72273899D01*
X128778918Y-72018869D01*
X128640265Y-71879974D01*
X128653527Y-71866735D01*
X128836340Y-71866735D01*
X128849605Y-71880000D01*
X128836340Y-71893265D01*
X128887487Y-72035723D01*
X129055309Y-72085704D01*
X129305000Y-72335395D01*
X129537822Y-72102573D01*
X129568899Y-72099353D01*
X129722513Y-72035723D01*
X129773660Y-71893265D01*
X129760395Y-71880000D01*
X129773660Y-71866735D01*
X129722513Y-71724277D01*
X129554691Y-71674296D01*
X129305000Y-71424605D01*
X129072178Y-71657427D01*
X129041101Y-71660647D01*
X128887487Y-71724277D01*
X128836340Y-71866735D01*
X128653527Y-71866735D01*
X128778051Y-71742429D01*
X128884624Y-71485771D01*
X129125395Y-71245000D01*
X129484605Y-71245000D01*
X129953265Y-71713660D01*
X130095723Y-71662513D01*
X130195308Y-71328136D01*
X130159353Y-70981101D01*
X130095723Y-70827487D01*
X129953265Y-70776340D01*
X129484605Y-71245000D01*
X129125395Y-71245000D01*
X128884294Y-71003899D01*
X128778918Y-70748869D01*
X128640265Y-70609974D01*
X128648253Y-70602000D01*
X128691723Y-70602000D01*
X128807571Y-70718051D01*
X129064229Y-70824624D01*
X129305000Y-71065395D01*
X129546101Y-70824294D01*
X129801131Y-70718918D01*
X130048051Y-70472429D01*
X130181847Y-70150211D01*
X130182151Y-69801319D01*
X130048918Y-69478869D01*
X129910265Y-69339974D01*
X130048051Y-69202429D01*
X130181847Y-68880211D01*
X130182151Y-68531319D01*
X130048918Y-68208869D01*
X129802429Y-67961949D01*
X129480211Y-67828153D01*
X129131319Y-67827849D01*
X128808869Y-67961082D01*
X128669974Y-68099735D01*
X128532429Y-67961949D01*
X128210211Y-67828153D01*
X127861319Y-67827849D01*
X127538869Y-67961082D01*
X127291949Y-68207571D01*
X127158153Y-68529789D01*
X127157849Y-68878681D01*
X127291082Y-69201131D01*
X127429735Y-69340026D01*
X127291949Y-69477571D01*
X127158153Y-69799789D01*
X127158121Y-69836624D01*
X127135643Y-69851643D01*
X125364286Y-71623000D01*
X116250000Y-71623000D01*
X116010058Y-71670727D01*
X115806644Y-71806644D01*
X112056644Y-75556644D01*
X111920728Y-75760057D01*
X111888620Y-75921474D01*
X111874097Y-75844292D01*
X111791530Y-75715980D01*
X111665547Y-75629899D01*
X111516000Y-75599615D01*
X111280892Y-75599615D01*
X111512290Y-75445000D01*
X111814254Y-74993078D01*
X111920290Y-74460000D01*
X111814254Y-73926922D01*
X111512290Y-73475000D01*
X111060368Y-73173036D01*
X110527290Y-73067000D01*
X110472710Y-73067000D01*
X109939632Y-73173036D01*
X109487710Y-73475000D01*
X109185746Y-73926922D01*
X109079710Y-74460000D01*
X109185746Y-74993078D01*
X109487710Y-75445000D01*
X109719108Y-75599615D01*
X109484000Y-75599615D01*
X109344292Y-75625903D01*
X109215980Y-75708470D01*
X109129899Y-75834453D01*
X109099615Y-75984000D01*
X109099615Y-78016000D01*
X109125903Y-78155708D01*
X109208470Y-78284020D01*
X109334453Y-78370101D01*
X109484000Y-78400385D01*
X111516000Y-78400385D01*
X111655708Y-78374097D01*
X111784020Y-78291530D01*
X111870101Y-78165547D01*
X111873000Y-78151231D01*
X111873000Y-83373000D01*
X110113277Y-83373000D01*
X109997429Y-83256949D01*
X109675211Y-83123153D01*
X109326319Y-83122849D01*
X109003869Y-83256082D01*
X108756949Y-83502571D01*
X108623153Y-83824789D01*
X108622849Y-84173681D01*
X93877002Y-84173681D01*
X93877002Y-80499998D01*
X93877153Y-80326319D01*
X93743920Y-80003869D01*
X93620136Y-79879869D01*
X93620135Y-79879867D01*
X93620133Y-79879866D01*
X93497431Y-79756949D01*
X93175213Y-79623153D01*
X93000004Y-79623000D01*
X93000000Y-79623000D01*
X92826321Y-79622849D01*
X92503871Y-79756082D01*
X92379871Y-79879866D01*
X92379869Y-79879867D01*
X92379867Y-79879869D01*
X92379866Y-79879871D01*
X92256951Y-80002571D01*
X92189760Y-80164387D01*
X92189758Y-80164389D01*
X92189757Y-80164392D01*
X92123155Y-80324789D01*
X92123002Y-80499990D01*
X92123000Y-80500002D01*
X92123000Y-80502678D01*
X92122851Y-80673681D01*
X92123000Y-80674042D01*
X92123000Y-84749998D01*
X92122849Y-84923681D01*
X92256082Y-85246131D01*
X92305094Y-85295229D01*
X92263729Y-85303457D01*
X92263724Y-85303457D01*
X92186761Y-85335337D01*
X92109799Y-85367215D01*
X92109796Y-85367218D01*
X90649894Y-86342692D01*
X90532084Y-86460501D01*
X90532084Y-86460502D01*
X89556607Y-87920408D01*
X89492849Y-88074333D01*
X89492849Y-88074338D01*
X89150309Y-89796402D01*
X89150307Y-89796407D01*
X88377000Y-89796407D01*
X88377000Y-78379741D01*
X88409010Y-78393000D01*
X89278750Y-78393000D01*
X89373000Y-78298750D01*
X89373000Y-77127000D01*
X89627000Y-77127000D01*
X89627000Y-78298750D01*
X89721250Y-78393000D01*
X90590990Y-78393000D01*
X90729553Y-78335605D01*
X90835605Y-78229553D01*
X90893000Y-78090990D01*
X90893000Y-77221250D01*
X90798750Y-77127000D01*
X89627000Y-77127000D01*
X89373000Y-77127000D01*
X89353000Y-77127000D01*
X89353000Y-76873000D01*
X89373000Y-76873000D01*
X89373000Y-76853000D01*
X89627000Y-76853000D01*
X89627000Y-76873000D01*
X90798750Y-76873000D01*
X90893000Y-76778750D01*
X90893000Y-75909010D01*
X90835605Y-75770447D01*
X90729553Y-75664395D01*
X90590990Y-75607000D01*
X90269839Y-75607000D01*
X90512290Y-75445000D01*
X90814254Y-74993078D01*
X90920290Y-74460000D01*
X90814254Y-73926922D01*
X90512290Y-73475000D01*
X90060368Y-73173036D01*
X89527290Y-73067000D01*
X89472710Y-73067000D01*
X88939632Y-73173036D01*
X88487710Y-73475000D01*
X88185746Y-73926922D01*
X88079710Y-74460000D01*
X88185746Y-74993078D01*
X88487710Y-75445000D01*
X88730161Y-75607000D01*
X88409010Y-75607000D01*
X88270447Y-75664395D01*
X88164395Y-75770447D01*
X88107000Y-75909010D01*
X88107000Y-76230323D01*
X83933321Y-72056644D01*
X83902010Y-72035723D01*
X83729908Y-71920728D01*
X83489965Y-71873000D01*
X81012080Y-71873000D01*
X81012151Y-71791319D01*
X80878918Y-71468869D01*
X80762000Y-71351747D01*
X80762000Y-71308277D01*
X80878051Y-71192429D01*
X81011847Y-70870211D01*
X81012151Y-70521319D01*
X80878918Y-70198869D01*
X80632429Y-69951949D01*
X80310211Y-69818153D01*
X79961319Y-69817849D01*
X79638869Y-69951082D01*
X79499974Y-70089735D01*
X79362429Y-69951949D01*
X79040211Y-69818153D01*
X78691319Y-69817849D01*
X78368869Y-69951082D01*
X78229974Y-70089735D01*
X78092429Y-69951949D01*
X77770211Y-69818153D01*
X77421319Y-69817849D01*
X77098869Y-69951082D01*
X76959974Y-70089735D01*
X76822429Y-69951949D01*
X76500211Y-69818153D01*
X76151319Y-69817849D01*
X75828869Y-69951082D01*
X75689974Y-70089735D01*
X75552429Y-69951949D01*
X75230211Y-69818153D01*
X74881319Y-69817849D01*
X74558869Y-69951082D01*
X74311949Y-70197571D01*
X74205376Y-70454229D01*
X73964605Y-70695000D01*
X74205706Y-70936101D01*
X74311082Y-71191131D01*
X74449735Y-71330026D01*
X74311949Y-71467571D01*
X74205376Y-71724229D01*
X73964605Y-71965000D01*
X74205706Y-72206101D01*
X74311082Y-72461131D01*
X74557571Y-72708051D01*
X74879789Y-72841847D01*
X75228681Y-72842151D01*
X75551131Y-72708918D01*
X75690026Y-72570265D01*
X75827571Y-72708051D01*
X76149789Y-72841847D01*
X76498681Y-72842151D01*
X76821131Y-72708918D01*
X76960026Y-72570265D01*
X77097571Y-72708051D01*
X77419789Y-72841847D01*
X77768681Y-72842151D01*
X78091131Y-72708918D01*
X78230026Y-72570265D01*
X78238000Y-72578253D01*
X78238000Y-72672106D01*
X78285728Y-72912049D01*
X78356176Y-73017482D01*
X78421644Y-73115462D01*
X78999538Y-73693356D01*
X79202952Y-73829273D01*
X79442894Y-73877000D01*
X82990288Y-73877000D01*
X86373000Y-77259712D01*
X86373000Y-83962999D01*
X86178196Y-83882110D01*
X85829304Y-83881806D01*
X85506854Y-84015039D01*
X85389732Y-84131957D01*
X84585039Y-84131957D01*
X84345096Y-84179685D01*
X84155088Y-84306644D01*
X84141683Y-84315601D01*
X80806644Y-87650640D01*
X80670728Y-87854053D01*
X80623000Y-88093996D01*
X80623000Y-97636723D01*
X80506949Y-97752571D01*
X80373153Y-98074789D01*
X80372849Y-98423681D01*
X80506082Y-98746131D01*
X80752571Y-98993051D01*
X81074789Y-99126847D01*
X81423681Y-99127151D01*
X81746131Y-98993918D01*
X81993051Y-98747429D01*
X82126847Y-98425211D01*
X82127151Y-98076319D01*
X81993918Y-97753869D01*
X81877000Y-97636747D01*
X81877000Y-88353708D01*
X83123000Y-87107708D01*
X83123000Y-89636735D01*
X82379867Y-90379867D01*
X82379866Y-90379869D01*
X82256949Y-90502571D01*
X82123153Y-90824789D01*
X82122849Y-91173681D01*
X82256082Y-91496131D01*
X82379866Y-91620131D01*
X82379867Y-91620133D01*
X82379869Y-91620134D01*
X82502571Y-91743051D01*
X82824789Y-91876847D01*
X82999998Y-91877000D01*
X83000383Y-91877000D01*
X83173681Y-91877151D01*
X83174046Y-91877000D01*
X84949992Y-91877000D01*
X84955280Y-91877004D01*
X84873153Y-92074789D01*
X84872849Y-92423681D01*
X85006082Y-92746131D01*
X85252571Y-92993051D01*
X85574789Y-93126847D01*
X85923681Y-93127151D01*
X86246131Y-92993918D01*
X86373000Y-92867270D01*
X86373000Y-98500000D01*
X86420728Y-98739943D01*
X86526560Y-98898332D01*
X86469400Y-99185695D01*
X86469400Y-99234305D01*
X86563835Y-99709062D01*
X86773605Y-100023006D01*
X83001823Y-100023006D01*
X82993918Y-100003875D01*
X82747429Y-99756955D01*
X82425211Y-99623159D01*
X82076319Y-99622855D01*
X81753869Y-99756088D01*
X81506949Y-100002577D01*
X81498469Y-100023000D01*
X80697580Y-100023000D01*
X79926999Y-99252419D01*
X79926999Y-89199999D01*
X79890690Y-89017459D01*
X79890690Y-89017458D01*
X79787289Y-88862709D01*
X73977000Y-83052420D01*
X73977000Y-80598491D01*
X76691518Y-80598491D01*
X77204553Y-81840129D01*
X78153689Y-82790923D01*
X79394429Y-83306123D01*
X80737883Y-83307296D01*
X81979521Y-82794261D01*
X82930315Y-81845125D01*
X83445515Y-80604385D01*
X83446688Y-79260931D01*
X82933653Y-78019293D01*
X81984517Y-77068499D01*
X80743777Y-76553299D01*
X79400323Y-76552126D01*
X78158685Y-77065161D01*
X77207891Y-78014297D01*
X76692691Y-79255037D01*
X76691518Y-80598491D01*
X73977000Y-80598491D01*
X73977000Y-72950000D01*
X73973522Y-72932513D01*
X73952990Y-72829290D01*
X74048899Y-72819353D01*
X74202513Y-72755723D01*
X74253660Y-72613265D01*
X73785000Y-72144605D01*
X73770858Y-72158748D01*
X73591253Y-71979143D01*
X73605395Y-71965000D01*
X73364294Y-71723899D01*
X73258918Y-71468869D01*
X73107050Y-71316735D01*
X73316340Y-71316735D01*
X73329605Y-71330000D01*
X73316340Y-71343265D01*
X73367487Y-71485723D01*
X73535309Y-71535704D01*
X73785000Y-71785395D01*
X74017822Y-71552573D01*
X74048899Y-71549353D01*
X74202513Y-71485723D01*
X74253660Y-71343265D01*
X74240395Y-71330000D01*
X74253660Y-71316735D01*
X74202513Y-71174277D01*
X74034691Y-71124296D01*
X73785000Y-70874605D01*
X73552178Y-71107427D01*
X73521101Y-71110647D01*
X73367487Y-71174277D01*
X73316340Y-71316735D01*
X73107050Y-71316735D01*
X73012429Y-71221949D01*
X72755771Y-71115376D01*
X72515000Y-70874605D01*
X72273899Y-71115706D01*
X72018869Y-71221082D01*
X71879974Y-71359735D01*
X71742429Y-71221949D01*
X71485771Y-71115376D01*
X71245000Y-70874605D01*
X71003899Y-71115706D01*
X70748869Y-71221082D01*
X70609974Y-71359735D01*
X70602000Y-71351747D01*
X70602000Y-71308277D01*
X70718051Y-71192429D01*
X70824624Y-70935771D01*
X71065395Y-70695000D01*
X71424605Y-70695000D01*
X71657427Y-70927822D01*
X71660647Y-70958899D01*
X71724277Y-71112513D01*
X71866735Y-71163660D01*
X71880000Y-71150395D01*
X71893265Y-71163660D01*
X72035723Y-71112513D01*
X72085704Y-70944691D01*
X72335395Y-70695000D01*
X72694605Y-70695000D01*
X72927427Y-70927822D01*
X72930647Y-70958899D01*
X72994277Y-71112513D01*
X73136735Y-71163660D01*
X73150000Y-71150395D01*
X73163265Y-71163660D01*
X73305723Y-71112513D01*
X73355704Y-70944691D01*
X73605395Y-70695000D01*
X73372573Y-70462178D01*
X73369353Y-70431101D01*
X73305723Y-70277487D01*
X73163265Y-70226340D01*
X73150000Y-70239605D01*
X73136735Y-70226340D01*
X72994277Y-70277487D01*
X72944296Y-70445309D01*
X72694605Y-70695000D01*
X72335395Y-70695000D01*
X72102573Y-70462178D01*
X72099353Y-70431101D01*
X72035723Y-70277487D01*
X71893265Y-70226340D01*
X71880000Y-70239605D01*
X71866735Y-70226340D01*
X71724277Y-70277487D01*
X71674296Y-70445309D01*
X71424605Y-70695000D01*
X71065395Y-70695000D01*
X70824294Y-70453899D01*
X70718918Y-70198869D01*
X70567050Y-70046735D01*
X70776340Y-70046735D01*
X71245000Y-70515395D01*
X71713660Y-70046735D01*
X72046340Y-70046735D01*
X72515000Y-70515395D01*
X72983660Y-70046735D01*
X73316340Y-70046735D01*
X73785000Y-70515395D01*
X74253660Y-70046735D01*
X74202513Y-69904277D01*
X73868136Y-69804692D01*
X73521101Y-69840647D01*
X73367487Y-69904277D01*
X73316340Y-70046735D01*
X72983660Y-70046735D01*
X72932513Y-69904277D01*
X72598136Y-69804692D01*
X72251101Y-69840647D01*
X72097487Y-69904277D01*
X72046340Y-70046735D01*
X71713660Y-70046735D01*
X71662513Y-69904277D01*
X71328136Y-69804692D01*
X70981101Y-69840647D01*
X70827487Y-69904277D01*
X70776340Y-70046735D01*
X70567050Y-70046735D01*
X70472429Y-69951949D01*
X70150211Y-69818153D01*
X69801319Y-69817849D01*
X69478869Y-69951082D01*
X69339974Y-70089735D01*
X69202429Y-69951949D01*
X68880211Y-69818153D01*
X68531319Y-69817849D01*
X68208869Y-69951082D01*
X67961949Y-70197571D01*
X67828153Y-70519789D01*
X67827849Y-70868681D01*
X67252000Y-70868681D01*
X67252000Y-67252000D01*
X81642103Y-67252000D01*
X81642103Y-70929711D01*
X81674606Y-71093117D01*
X81767168Y-71231646D01*
X81905697Y-71324208D01*
X82069103Y-71356711D01*
X118069103Y-71356711D01*
X118232509Y-71324208D01*
X118371038Y-71231646D01*
X118463600Y-71093117D01*
X118496103Y-70929711D01*
X118496103Y-67112608D01*
X132746814Y-67112608D01*
X132746814Y-81502711D01*
X132746814Y-81502711D01*
G37*
X132746814Y-81502711D02*
X129069103Y-81502711D01*
X128905697Y-81535214D01*
X128767168Y-81627776D01*
X128674606Y-81766305D01*
X128642103Y-81929711D01*
X128642103Y-117929711D01*
X128674606Y-118093117D01*
X128767168Y-118231646D01*
X128905697Y-118324208D01*
X129069103Y-118356711D01*
X132886206Y-118356711D01*
X132886206Y-132607422D01*
X118496103Y-132607422D01*
X118496103Y-128929711D01*
X118463600Y-128766305D01*
X118371038Y-128627776D01*
X118232509Y-128535214D01*
X118069103Y-128502711D01*
X82069103Y-128502711D01*
X81905697Y-128535214D01*
X81767168Y-128627776D01*
X81674606Y-128766305D01*
X81642103Y-128929711D01*
X81642103Y-132746814D01*
X67391392Y-132746814D01*
X67391392Y-128671864D01*
X69804692Y-128671864D01*
X69840647Y-129018899D01*
X69904277Y-129172513D01*
X70046735Y-129223660D01*
X70515395Y-128755000D01*
X70046735Y-128286340D01*
X69904277Y-128337487D01*
X69804692Y-128671864D01*
X67391392Y-128671864D01*
X67391392Y-128106735D01*
X70226340Y-128106735D01*
X70239605Y-128120000D01*
X70226340Y-128133265D01*
X70277487Y-128275723D01*
X70445309Y-128325704D01*
X70695000Y-128575395D01*
X70927822Y-128342573D01*
X70958899Y-128339353D01*
X71112513Y-128275723D01*
X71163660Y-128133265D01*
X71150395Y-128120000D01*
X71163660Y-128106735D01*
X71112513Y-127964277D01*
X70944691Y-127914296D01*
X70695000Y-127664605D01*
X70462178Y-127897427D01*
X70431101Y-127900647D01*
X70277487Y-127964277D01*
X70226340Y-128106735D01*
X67391392Y-128106735D01*
X67391392Y-127401864D01*
X69804692Y-127401864D01*
X69840647Y-127748899D01*
X69904277Y-127902513D01*
X70046735Y-127953660D01*
X70515395Y-127485000D01*
X70046735Y-127016340D01*
X69904277Y-127067487D01*
X69804692Y-127401864D01*
X67391392Y-127401864D01*
X67391392Y-126836735D01*
X70226340Y-126836735D01*
X70239605Y-126850000D01*
X70226340Y-126863265D01*
X70277487Y-127005723D01*
X70445309Y-127055704D01*
X70695000Y-127305395D01*
X70927822Y-127072573D01*
X70958899Y-127069353D01*
X71112513Y-127005723D01*
X71163660Y-126863265D01*
X71150395Y-126850000D01*
X71163660Y-126836735D01*
X71112513Y-126694277D01*
X70944691Y-126644296D01*
X70695000Y-126394605D01*
X70462178Y-126627427D01*
X70431101Y-126630647D01*
X70277487Y-126694277D01*
X70226340Y-126836735D01*
X67391392Y-126836735D01*
X67391392Y-126131864D01*
X69804692Y-126131864D01*
X69840647Y-126478899D01*
X69904277Y-126632513D01*
X70046735Y-126683660D01*
X70515395Y-126215000D01*
X70874605Y-126215000D01*
X71107427Y-126447822D01*
X71110647Y-126478899D01*
X71174277Y-126632513D01*
X71316735Y-126683660D01*
X71330000Y-126670395D01*
X71343265Y-126683660D01*
X71485723Y-126632513D01*
X71535704Y-126464691D01*
X71785395Y-126215000D01*
X71552573Y-125982178D01*
X71549353Y-125951101D01*
X71485723Y-125797487D01*
X71343265Y-125746340D01*
X71330000Y-125759605D01*
X71316735Y-125746340D01*
X71174277Y-125797487D01*
X71124296Y-125965309D01*
X70874605Y-126215000D01*
X70515395Y-126215000D01*
X70046735Y-125746340D01*
X69904277Y-125797487D01*
X69804692Y-126131864D01*
X67391392Y-126131864D01*
X67391392Y-118356711D01*
X71069103Y-118356711D01*
X71232509Y-118324208D01*
X71371038Y-118231646D01*
X71463600Y-118093117D01*
X71496103Y-117929711D01*
X71496103Y-81929711D01*
X71463600Y-81766305D01*
X71371038Y-81627776D01*
X71232509Y-81535214D01*
X71069103Y-81502711D01*
X67252000Y-81502711D01*
X67252000Y-70868681D01*
X67827849Y-70868681D01*
X67961082Y-71191131D01*
X68099735Y-71330026D01*
X67961949Y-71467571D01*
X67828153Y-71789789D01*
X67827849Y-72138681D01*
X67961082Y-72461131D01*
X68207571Y-72708051D01*
X68529789Y-72841847D01*
X68878681Y-72842151D01*
X69201131Y-72708918D01*
X69340026Y-72570265D01*
X69348000Y-72578253D01*
X69348000Y-72975000D01*
X69395728Y-73214943D01*
X69498901Y-73369353D01*
X69531644Y-73418356D01*
X71873000Y-75759712D01*
X71873000Y-84750000D01*
X71920728Y-84989943D01*
X71984653Y-85085613D01*
X72056644Y-85193356D01*
X76872992Y-90009704D01*
X76872849Y-90173681D01*
X77006082Y-90496131D01*
X77252571Y-90743051D01*
X77574789Y-90876847D01*
X77923681Y-90877151D01*
X78246131Y-90743918D01*
X78273000Y-90717096D01*
X78273000Y-103498177D01*
X78253869Y-103506082D01*
X78006949Y-103752571D01*
X77873153Y-104074789D01*
X77872849Y-104423681D01*
X78006082Y-104746131D01*
X78252571Y-104993051D01*
X78574789Y-105126847D01*
X78923681Y-105127151D01*
X79246131Y-104993918D01*
X79493051Y-104747429D01*
X79626847Y-104425211D01*
X79627151Y-104076319D01*
X79493918Y-103753869D01*
X79247429Y-103506949D01*
X79227000Y-103498466D01*
X79227000Y-99901580D01*
X80162710Y-100837290D01*
X80317460Y-100940691D01*
X80500000Y-100977000D01*
X81498175Y-100977000D01*
X81506082Y-100996137D01*
X81752571Y-101243057D01*
X82074789Y-101376853D01*
X82423681Y-101377157D01*
X82746131Y-101243924D01*
X82993051Y-100997435D01*
X83001534Y-100977006D01*
X86746870Y-100977006D01*
X86563835Y-101250938D01*
X86469400Y-101725695D01*
X86469400Y-101774305D01*
X86563835Y-102249062D01*
X86832763Y-102651542D01*
X87235243Y-102920470D01*
X87710000Y-103014905D01*
X88184757Y-102920470D01*
X88209050Y-102904238D01*
X86005982Y-105107306D01*
X80765694Y-105107306D01*
X80525752Y-105155033D01*
X80322338Y-105290950D01*
X76127000Y-109486288D01*
X76127000Y-107999998D01*
X76127151Y-107826319D01*
X75993918Y-107503869D01*
X75870134Y-107379869D01*
X75870133Y-107379867D01*
X75870131Y-107379866D01*
X75747429Y-107256949D01*
X75425211Y-107123153D01*
X75250002Y-107123000D01*
X75249998Y-107123000D01*
X75076319Y-107122849D01*
X74753869Y-107256082D01*
X74629869Y-107379866D01*
X74629867Y-107379867D01*
X74629866Y-107379869D01*
X74506949Y-107502571D01*
X74373153Y-107824789D01*
X74372849Y-108173681D01*
X74373000Y-108174046D01*
X74373000Y-109665790D01*
X74326394Y-109778030D01*
X74326090Y-110126922D01*
X74459323Y-110449372D01*
X74583107Y-110573372D01*
X74583108Y-110573374D01*
X74583110Y-110573375D01*
X74705812Y-110696292D01*
X74855034Y-110758254D01*
X72006655Y-113606633D01*
X71870739Y-113810046D01*
X71823011Y-114049989D01*
X71823011Y-118987877D01*
X71791319Y-118987849D01*
X71468869Y-119121082D01*
X71351747Y-119238000D01*
X71308277Y-119238000D01*
X71192429Y-119121949D01*
X70870211Y-118988153D01*
X70521319Y-118987849D01*
X70198869Y-119121082D01*
X69951949Y-119367571D01*
X69818153Y-119689789D01*
X69817849Y-120038681D01*
X69951082Y-120361131D01*
X70089735Y-120500026D01*
X69951949Y-120637571D01*
X69818153Y-120959789D01*
X69817849Y-121308681D01*
X69951082Y-121631131D01*
X70089735Y-121770026D01*
X69951949Y-121907571D01*
X69818153Y-122229789D01*
X69817849Y-122578681D01*
X69951082Y-122901131D01*
X70089735Y-123040026D01*
X69951949Y-123177571D01*
X69818153Y-123499789D01*
X69817849Y-123848681D01*
X69951082Y-124171131D01*
X70089735Y-124310026D01*
X69951949Y-124447571D01*
X69818153Y-124769789D01*
X69817849Y-125118681D01*
X69951082Y-125441131D01*
X70197571Y-125688051D01*
X70454229Y-125794624D01*
X70695000Y-126035395D01*
X70936101Y-125794294D01*
X71191131Y-125688918D01*
X71330026Y-125550265D01*
X71467571Y-125688051D01*
X71724229Y-125794624D01*
X71965000Y-126035395D01*
X72206101Y-125794294D01*
X72461131Y-125688918D01*
X72708051Y-125442429D01*
X72841847Y-125120211D01*
X72842151Y-124771319D01*
X72708918Y-124448869D01*
X72570265Y-124309974D01*
X72708051Y-124172429D01*
X72720534Y-124142367D01*
X72854646Y-124115691D01*
X73009396Y-124012290D01*
X74037323Y-122984363D01*
X74140724Y-122829614D01*
X74177033Y-122647073D01*
X74177033Y-120598491D01*
X76691518Y-120598491D01*
X77204553Y-121840129D01*
X78153689Y-122790923D01*
X79394429Y-123306123D01*
X80737883Y-123307296D01*
X81979521Y-122794261D01*
X82930315Y-121845125D01*
X83445515Y-120604385D01*
X83446688Y-119260931D01*
X82933653Y-118019293D01*
X81984517Y-117068499D01*
X80743777Y-116553299D01*
X79400323Y-116552126D01*
X78158685Y-117065161D01*
X77207891Y-118014297D01*
X76692691Y-119255037D01*
X76691518Y-120598491D01*
X74177033Y-120598491D01*
X74177033Y-114997547D01*
X75397578Y-113777002D01*
X79657104Y-113777002D01*
X79839644Y-113740693D01*
X79994394Y-113637292D01*
X83837290Y-109794396D01*
X83940691Y-109639646D01*
X83977000Y-109457106D01*
X83977000Y-108751823D01*
X83996131Y-108743918D01*
X84243051Y-108497429D01*
X84376847Y-108175211D01*
X84376897Y-108117473D01*
X85273000Y-109013576D01*
X85273000Y-125302420D01*
X84702431Y-125872989D01*
X73100011Y-125872989D01*
X72917471Y-125909298D01*
X72821655Y-125973320D01*
X72819353Y-125951101D01*
X72755723Y-125797487D01*
X72613265Y-125746340D01*
X72144605Y-126215000D01*
X72158748Y-126229143D01*
X71979143Y-126408748D01*
X71965000Y-126394605D01*
X71723899Y-126635706D01*
X71468869Y-126741082D01*
X71221949Y-126987571D01*
X71115376Y-127244229D01*
X70874605Y-127485000D01*
X71115706Y-127726101D01*
X71221082Y-127981131D01*
X71359735Y-128120026D01*
X71221949Y-128257571D01*
X71115376Y-128514229D01*
X70874605Y-128755000D01*
X71115706Y-128996101D01*
X71221082Y-129251131D01*
X71359735Y-129390026D01*
X71351747Y-129398000D01*
X71308277Y-129398000D01*
X71192429Y-129281949D01*
X70935771Y-129175376D01*
X70695000Y-128934605D01*
X70453899Y-129175706D01*
X70198869Y-129281082D01*
X69951949Y-129527571D01*
X69818153Y-129849789D01*
X69817849Y-130198681D01*
X69951082Y-130521131D01*
X70089735Y-130660026D01*
X69951949Y-130797571D01*
X69818153Y-131119789D01*
X69817849Y-131468681D01*
X69951082Y-131791131D01*
X70197571Y-132038051D01*
X70519789Y-132171847D01*
X70868681Y-132172151D01*
X71191131Y-132038918D01*
X71330026Y-131900265D01*
X71467571Y-132038051D01*
X71789789Y-132171847D01*
X72138681Y-132172151D01*
X72461131Y-132038918D01*
X72708051Y-131792429D01*
X72841847Y-131470211D01*
X72842151Y-131121319D01*
X72708918Y-130798869D01*
X72570265Y-130659974D01*
X72578253Y-130652000D01*
X73318532Y-130652000D01*
X73558475Y-130604272D01*
X73761888Y-130468356D01*
X76103244Y-128127000D01*
X87000000Y-128127000D01*
X87239943Y-128079272D01*
X87443356Y-127943356D01*
X88443356Y-126943356D01*
X88579273Y-126739942D01*
X88627000Y-126500000D01*
X88627000Y-117617260D01*
X88752571Y-117743051D01*
X89074789Y-117876847D01*
X89423681Y-117877151D01*
X89746131Y-117743918D01*
X89993051Y-117497429D01*
X90126847Y-117175211D01*
X90126988Y-117013700D01*
X100806644Y-127693356D01*
X101010057Y-127829272D01*
X101250000Y-127877000D01*
X118820288Y-127877000D01*
X118987992Y-128044704D01*
X118987849Y-128208681D01*
X119121082Y-128531131D01*
X119238000Y-128648253D01*
X119238000Y-128691723D01*
X119121949Y-128807571D01*
X118988153Y-129129789D01*
X118987849Y-129478681D01*
X119121082Y-129801131D01*
X119367571Y-130048051D01*
X119689789Y-130181847D01*
X120038681Y-130182151D01*
X120361131Y-130048918D01*
X120500026Y-129910265D01*
X120637571Y-130048051D01*
X120959789Y-130181847D01*
X121308681Y-130182151D01*
X121631131Y-130048918D01*
X121770026Y-129910265D01*
X121907571Y-130048051D01*
X122229789Y-130181847D01*
X122578681Y-130182151D01*
X122901131Y-130048918D01*
X123040026Y-129910265D01*
X123177571Y-130048051D01*
X123499789Y-130181847D01*
X123848681Y-130182151D01*
X124171131Y-130048918D01*
X124310026Y-129910265D01*
X124447571Y-130048051D01*
X124769789Y-130181847D01*
X125118681Y-130182151D01*
X125441131Y-130048918D01*
X125536951Y-129953265D01*
X125746340Y-129953265D01*
X125797487Y-130095723D01*
X126131864Y-130195308D01*
X126478899Y-130159353D01*
X126632513Y-130095723D01*
X126683660Y-129953265D01*
X127016340Y-129953265D01*
X127067487Y-130095723D01*
X127401864Y-130195308D01*
X127748899Y-130159353D01*
X127902513Y-130095723D01*
X127953660Y-129953265D01*
X128286340Y-129953265D01*
X128337487Y-130095723D01*
X128671864Y-130195308D01*
X129018899Y-130159353D01*
X129172513Y-130095723D01*
X129223660Y-129953265D01*
X128755000Y-129484605D01*
X128286340Y-129953265D01*
X127953660Y-129953265D01*
X127485000Y-129484605D01*
X127016340Y-129953265D01*
X126683660Y-129953265D01*
X126215000Y-129484605D01*
X125746340Y-129953265D01*
X125536951Y-129953265D01*
X125688051Y-129802429D01*
X125794624Y-129545771D01*
X126035395Y-129305000D01*
X126394605Y-129305000D01*
X126627427Y-129537822D01*
X126630647Y-129568899D01*
X126694277Y-129722513D01*
X126836735Y-129773660D01*
X126850000Y-129760395D01*
X126863265Y-129773660D01*
X127005723Y-129722513D01*
X127055704Y-129554691D01*
X127305395Y-129305000D01*
X127664605Y-129305000D01*
X127897427Y-129537822D01*
X127900647Y-129568899D01*
X127964277Y-129722513D01*
X128106735Y-129773660D01*
X128120000Y-129760395D01*
X128133265Y-129773660D01*
X128275723Y-129722513D01*
X128325704Y-129554691D01*
X128575395Y-129305000D01*
X128342573Y-129072178D01*
X128339353Y-129041101D01*
X128275723Y-128887487D01*
X128133265Y-128836340D01*
X128120000Y-128849605D01*
X128106735Y-128836340D01*
X127964277Y-128887487D01*
X127914296Y-129055309D01*
X127664605Y-129305000D01*
X127305395Y-129305000D01*
X127072573Y-129072178D01*
X127069353Y-129041101D01*
X127005723Y-128887487D01*
X126863265Y-128836340D01*
X126850000Y-128849605D01*
X126836735Y-128836340D01*
X126694277Y-128887487D01*
X126644296Y-129055309D01*
X126394605Y-129305000D01*
X126035395Y-129305000D01*
X125794294Y-129063899D01*
X125688918Y-128808869D01*
X125550265Y-128669974D01*
X125563527Y-128656735D01*
X125746340Y-128656735D01*
X125759605Y-128670000D01*
X125746340Y-128683265D01*
X125797487Y-128825723D01*
X125965309Y-128875704D01*
X126215000Y-129125395D01*
X126447822Y-128892573D01*
X126478899Y-128889353D01*
X126632513Y-128825723D01*
X126683660Y-128683265D01*
X126670395Y-128670000D01*
X126683660Y-128656735D01*
X126632513Y-128514277D01*
X126464691Y-128464296D01*
X126215000Y-128214605D01*
X125982178Y-128447427D01*
X125951101Y-128450647D01*
X125797487Y-128514277D01*
X125746340Y-128656735D01*
X125563527Y-128656735D01*
X125688051Y-128532429D01*
X125794624Y-128275771D01*
X126035395Y-128035000D01*
X125794294Y-127793899D01*
X125688918Y-127538869D01*
X125537050Y-127386735D01*
X125746340Y-127386735D01*
X126215000Y-127855395D01*
X126683660Y-127386735D01*
X126632513Y-127244277D01*
X126298136Y-127144692D01*
X125951101Y-127180647D01*
X125797487Y-127244277D01*
X125746340Y-127386735D01*
X125537050Y-127386735D01*
X125442429Y-127291949D01*
X125120211Y-127158153D01*
X124771319Y-127157849D01*
X124448869Y-127291082D01*
X124309974Y-127429735D01*
X124172429Y-127291949D01*
X123850211Y-127158153D01*
X123501319Y-127157849D01*
X123178869Y-127291082D01*
X123039974Y-127429735D01*
X122902429Y-127291949D01*
X122580211Y-127158153D01*
X122231319Y-127157849D01*
X121908869Y-127291082D01*
X121769974Y-127429735D01*
X121762000Y-127421747D01*
X121762000Y-127327894D01*
X121754678Y-127291082D01*
X121714273Y-127087952D01*
X121578356Y-126884538D01*
X120750462Y-126056644D01*
X120721498Y-126037291D01*
X120547049Y-125920728D01*
X120307106Y-125873000D01*
X101759712Y-125873000D01*
X96485203Y-120598491D01*
X116691518Y-120598491D01*
X117204553Y-121840129D01*
X118153689Y-122790923D01*
X119394429Y-123306123D01*
X120737883Y-123307296D01*
X121979521Y-122794261D01*
X122930315Y-121845125D01*
X123445515Y-120604385D01*
X123446688Y-119260931D01*
X122933653Y-118019293D01*
X121984517Y-117068499D01*
X120743777Y-116553299D01*
X119400323Y-116552126D01*
X118158685Y-117065161D01*
X117207891Y-118014297D01*
X116692691Y-119255037D01*
X116691518Y-120598491D01*
X96485203Y-120598491D01*
X91487495Y-115600783D01*
X91746129Y-115493918D01*
X91993049Y-115247429D01*
X92126845Y-114925211D01*
X92127149Y-114576319D01*
X92085757Y-114476141D01*
X92109796Y-114492204D01*
X92109799Y-114492207D01*
X92186762Y-114524086D01*
X92263724Y-114555965D01*
X92263729Y-114555965D01*
X93985799Y-114898506D01*
X94027854Y-114898506D01*
X94069103Y-114906711D01*
X106069103Y-114906711D01*
X106110352Y-114898506D01*
X106152407Y-114898506D01*
X107874476Y-114555965D01*
X107874481Y-114555965D01*
X108028406Y-114492207D01*
X109488310Y-113516731D01*
X109488313Y-113516730D01*
X109606122Y-113398920D01*
X110581596Y-111939018D01*
X110581599Y-111939015D01*
X110613477Y-111862053D01*
X110645357Y-111785090D01*
X110645357Y-111785085D01*
X110987897Y-110063018D01*
X110987899Y-110063014D01*
X110987899Y-109896408D01*
X110987897Y-109896404D01*
X110645357Y-108174337D01*
X110645357Y-108174332D01*
X110606327Y-108080106D01*
X110581599Y-108020407D01*
X110581596Y-108020404D01*
X109606122Y-106560502D01*
X109488313Y-106442692D01*
X109488310Y-106442691D01*
X108028406Y-105467215D01*
X107874481Y-105403457D01*
X107874476Y-105403457D01*
X106152407Y-105060916D01*
X106110352Y-105060916D01*
X106069103Y-105052711D01*
X94069103Y-105052711D01*
X94027854Y-105060916D01*
X93985799Y-105060916D01*
X92263729Y-105403457D01*
X92263724Y-105403457D01*
X92186761Y-105435337D01*
X92109799Y-105467215D01*
X92109796Y-105467218D01*
X90649894Y-106442692D01*
X90532084Y-106560501D01*
X90532084Y-106560502D01*
X89556607Y-108020408D01*
X89492849Y-108174333D01*
X89492849Y-108174338D01*
X89150309Y-109896402D01*
X89150307Y-109896407D01*
X89150308Y-109979711D01*
X89150307Y-110063015D01*
X89150309Y-110063020D01*
X89492849Y-111785084D01*
X89492849Y-111785089D01*
X89556607Y-111939014D01*
X90532083Y-113398918D01*
X90532084Y-113398921D01*
X90649894Y-113516730D01*
X91183004Y-113872942D01*
X91076317Y-113872849D01*
X90753867Y-114006082D01*
X90506947Y-114252571D01*
X90399073Y-114512361D01*
X89126999Y-113240287D01*
X89126999Y-106499999D01*
X89079271Y-106260056D01*
X88943355Y-106056643D01*
X88627008Y-105740296D01*
X88627151Y-105576319D01*
X88493918Y-105253869D01*
X88247429Y-105006949D01*
X87987637Y-104899075D01*
X89934553Y-102952159D01*
X90250000Y-103014905D01*
X90724757Y-102920470D01*
X91127237Y-102651542D01*
X91396165Y-102249062D01*
X91490600Y-101774305D01*
X91490600Y-101725695D01*
X91396165Y-101250938D01*
X91127237Y-100848458D01*
X91055911Y-100800799D01*
X91845634Y-100011076D01*
X91912763Y-100111542D01*
X91913000Y-100111700D01*
X91913000Y-100848300D01*
X91912763Y-100848458D01*
X91643835Y-101250938D01*
X91549400Y-101725695D01*
X91549400Y-101774305D01*
X91643835Y-102249062D01*
X91912763Y-102651542D01*
X92315243Y-102920470D01*
X92790000Y-103014905D01*
X93264757Y-102920470D01*
X93667237Y-102651542D01*
X93936165Y-102249062D01*
X93972082Y-102068491D01*
X94130967Y-102068491D01*
X94344119Y-102503097D01*
X94707362Y-102823051D01*
X95011511Y-102949021D01*
X95203000Y-102889293D01*
X95203000Y-101877000D01*
X95457000Y-101877000D01*
X95457000Y-102889293D01*
X95648489Y-102949021D01*
X95952638Y-102823051D01*
X96315881Y-102503097D01*
X96529033Y-102068491D01*
X96469844Y-101877000D01*
X95457000Y-101877000D01*
X95203000Y-101877000D01*
X94190156Y-101877000D01*
X94130967Y-102068491D01*
X93972082Y-102068491D01*
X94030600Y-101774305D01*
X94030600Y-101725695D01*
X93972083Y-101431509D01*
X94130967Y-101431509D01*
X94190156Y-101623000D01*
X95203000Y-101623000D01*
X95203000Y-100610707D01*
X95457000Y-100610707D01*
X95457000Y-101623000D01*
X96469844Y-101623000D01*
X96529033Y-101431509D01*
X96315881Y-100996903D01*
X95952638Y-100676949D01*
X95648489Y-100550979D01*
X95457000Y-100610707D01*
X95203000Y-100610707D01*
X95011511Y-100550979D01*
X94707362Y-100676949D01*
X94344119Y-100996903D01*
X94130967Y-101431509D01*
X93972083Y-101431509D01*
X93936165Y-101250938D01*
X93667237Y-100848458D01*
X93667000Y-100848300D01*
X93667000Y-100111700D01*
X93667237Y-100111542D01*
X93936165Y-99709062D01*
X93991425Y-99431250D01*
X94089400Y-99431250D01*
X94089400Y-100148590D01*
X94146795Y-100287153D01*
X94252847Y-100393205D01*
X94391410Y-100450600D01*
X95108750Y-100450600D01*
X95203000Y-100356350D01*
X95203000Y-99337000D01*
X95457000Y-99337000D01*
X95457000Y-100356350D01*
X95551250Y-100450600D01*
X96268590Y-100450600D01*
X96407153Y-100393205D01*
X96513205Y-100287153D01*
X96570600Y-100148590D01*
X96570600Y-99431250D01*
X96476350Y-99337000D01*
X95457000Y-99337000D01*
X95203000Y-99337000D01*
X94183650Y-99337000D01*
X94089400Y-99431250D01*
X93991425Y-99431250D01*
X94030600Y-99234305D01*
X94030600Y-99185695D01*
X93936165Y-98710938D01*
X93810856Y-98523399D01*
X94089400Y-98523399D01*
X94089400Y-98988750D01*
X94183650Y-99083000D01*
X95203000Y-99083000D01*
X95203000Y-99063000D01*
X95457000Y-99063000D01*
X95457000Y-99083000D01*
X96476350Y-99083000D01*
X96570600Y-98988750D01*
X96570600Y-98523399D01*
X102478819Y-98523399D01*
X102729276Y-98773856D01*
X102639400Y-99225695D01*
X102639400Y-99274305D01*
X102733835Y-99749062D01*
X103002763Y-100151542D01*
X103405243Y-100420470D01*
X103880000Y-100514905D01*
X104354757Y-100420470D01*
X104367425Y-100412005D01*
X104497435Y-100542015D01*
X103016400Y-100542015D01*
X102876692Y-100568303D01*
X102748380Y-100650870D01*
X102662299Y-100776853D01*
X102632015Y-100926400D01*
X102632015Y-102653600D01*
X102658303Y-102793308D01*
X102740870Y-102921620D01*
X102866853Y-103007701D01*
X103016400Y-103037985D01*
X104743600Y-103037985D01*
X104883308Y-103011697D01*
X105011620Y-102929130D01*
X105097701Y-102803147D01*
X105127985Y-102653600D01*
X105127985Y-100926400D01*
X105121249Y-100890601D01*
X105541331Y-100890601D01*
X105273835Y-101290938D01*
X105179400Y-101765695D01*
X105179400Y-101814305D01*
X105273835Y-102289062D01*
X105542763Y-102691542D01*
X105945243Y-102960470D01*
X106420000Y-103054905D01*
X106894757Y-102960470D01*
X107279088Y-102703668D01*
X111492915Y-106917495D01*
X111647665Y-107020896D01*
X111830205Y-107057205D01*
X114636446Y-107057205D01*
X114732876Y-107153803D01*
X114981612Y-107257087D01*
X115250939Y-107257322D01*
X115272990Y-107248211D01*
X115272990Y-108019580D01*
X115176392Y-108116010D01*
X115073108Y-108364746D01*
X115072873Y-108634073D01*
X115175723Y-108882989D01*
X115366000Y-109073598D01*
X115614736Y-109176882D01*
X115884063Y-109177117D01*
X116132979Y-109074267D01*
X116323588Y-108883990D01*
X116426872Y-108635254D01*
X116427107Y-108365927D01*
X116324257Y-108117011D01*
X116226990Y-108019574D01*
X116226990Y-104999990D01*
X116193150Y-104829862D01*
X116623011Y-105259723D01*
X116623011Y-110931535D01*
X116475221Y-110870168D01*
X116300012Y-110870015D01*
X116300008Y-110870015D01*
X116126329Y-110869864D01*
X116118739Y-110873000D01*
X112249998Y-110873000D01*
X112076319Y-110872849D01*
X111753869Y-111006082D01*
X111629869Y-111129866D01*
X111629867Y-111129867D01*
X111629866Y-111129869D01*
X111506949Y-111252571D01*
X111373153Y-111574789D01*
X111372849Y-111923681D01*
X111506082Y-112246131D01*
X111629866Y-112370131D01*
X111629867Y-112370133D01*
X111629869Y-112370134D01*
X111752571Y-112493051D01*
X112074789Y-112626847D01*
X112249998Y-112627000D01*
X112250383Y-112627000D01*
X112423681Y-112627151D01*
X112424046Y-112627000D01*
X116236288Y-112627000D01*
X111490296Y-117372992D01*
X111326319Y-117372849D01*
X111003869Y-117506082D01*
X110886747Y-117623000D01*
X101363273Y-117623000D01*
X101247429Y-117506953D01*
X100925211Y-117373157D01*
X100576319Y-117372853D01*
X100253869Y-117506086D01*
X100006949Y-117752575D01*
X99873153Y-118074793D01*
X99872849Y-118423685D01*
X100006082Y-118746135D01*
X100252571Y-118993055D01*
X100574789Y-119126851D01*
X100923681Y-119127155D01*
X101246131Y-118993922D01*
X101363257Y-118877000D01*
X110886723Y-118877000D01*
X111002571Y-118993051D01*
X111324789Y-119126847D01*
X111673681Y-119127151D01*
X111996131Y-118993918D01*
X112243051Y-118747429D01*
X112376847Y-118425211D01*
X112376991Y-118259721D01*
X117693367Y-112943345D01*
X117705983Y-112924464D01*
X117829283Y-112739932D01*
X117877011Y-112499989D01*
X117877011Y-111051591D01*
X118662710Y-111837290D01*
X118817460Y-111940691D01*
X119000000Y-111977000D01*
X121302420Y-111977000D01*
X126322978Y-116997558D01*
X126322978Y-126022145D01*
X126359287Y-126204685D01*
X126462688Y-126359435D01*
X127023000Y-126919747D01*
X127023000Y-127276979D01*
X126988869Y-127291082D01*
X126741949Y-127537571D01*
X126635376Y-127794229D01*
X126394605Y-128035000D01*
X126635706Y-128276101D01*
X126741082Y-128531131D01*
X126987571Y-128778051D01*
X127244229Y-128884624D01*
X127485000Y-129125395D01*
X127726101Y-128884294D01*
X127981131Y-128778918D01*
X128120026Y-128640265D01*
X128257571Y-128778051D01*
X128514229Y-128884624D01*
X128755000Y-129125395D01*
X128996101Y-128884294D01*
X129251131Y-128778918D01*
X129390026Y-128640265D01*
X129398000Y-128648253D01*
X129398000Y-128691723D01*
X129281949Y-128807571D01*
X129175376Y-129064229D01*
X128934605Y-129305000D01*
X129175706Y-129546101D01*
X129281082Y-129801131D01*
X129527571Y-130048051D01*
X129849789Y-130181847D01*
X130198681Y-130182151D01*
X130521131Y-130048918D01*
X130660026Y-129910265D01*
X130797571Y-130048051D01*
X131119789Y-130181847D01*
X131468681Y-130182151D01*
X131791131Y-130048918D01*
X132038051Y-129802429D01*
X132171847Y-129480211D01*
X132172151Y-129131319D01*
X132038918Y-128808869D01*
X131900265Y-128669974D01*
X132038051Y-128532429D01*
X132171847Y-128210211D01*
X132172151Y-127861319D01*
X132038918Y-127538869D01*
X131792429Y-127291949D01*
X131470211Y-127158153D01*
X131121319Y-127157849D01*
X130798869Y-127291082D01*
X130659974Y-127429735D01*
X130522429Y-127291949D01*
X130362078Y-127225366D01*
X128377000Y-125240288D01*
X128377000Y-116250000D01*
X128329272Y-116010057D01*
X128193356Y-115806644D01*
X122193356Y-109806644D01*
X121989943Y-109670728D01*
X121750000Y-109623000D01*
X120259712Y-109623000D01*
X119987496Y-109350784D01*
X120246131Y-109243918D01*
X120370131Y-109120134D01*
X120370133Y-109120133D01*
X120370450Y-109119816D01*
X120493051Y-108997429D01*
X120493203Y-108997063D01*
X122118159Y-107372107D01*
X122243051Y-107247433D01*
X122376847Y-106925215D01*
X122377151Y-106576323D01*
X122243918Y-106253873D01*
X121997429Y-106006953D01*
X121675211Y-105873157D01*
X121499998Y-105873004D01*
X121499994Y-105873004D01*
X121326319Y-105872853D01*
X121164389Y-105939761D01*
X121164383Y-105939762D01*
X121164378Y-105939765D01*
X121003869Y-106006086D01*
X120879877Y-106129862D01*
X120879863Y-106129871D01*
X120877258Y-106132476D01*
X120756949Y-106252575D01*
X120756800Y-106252934D01*
X119129867Y-107879867D01*
X119129866Y-107879869D01*
X119127000Y-107882730D01*
X119127000Y-102750000D01*
X119079272Y-102510057D01*
X118943356Y-102306644D01*
X117877008Y-101240296D01*
X117877151Y-101076319D01*
X117743918Y-100753869D01*
X117497429Y-100506949D01*
X117175211Y-100373153D01*
X116826319Y-100372849D01*
X116503869Y-100506082D01*
X116256949Y-100752571D01*
X116123153Y-101074789D01*
X116122849Y-101423681D01*
X116256082Y-101746131D01*
X116502571Y-101993051D01*
X116824789Y-102126847D01*
X116990279Y-102126991D01*
X117873000Y-103009712D01*
X117873000Y-103698420D01*
X115727000Y-101552420D01*
X115727000Y-101251823D01*
X115746131Y-101243918D01*
X115993051Y-100997429D01*
X116126847Y-100675211D01*
X116127151Y-100326319D01*
X115993918Y-100003869D01*
X115867270Y-99877000D01*
X122500000Y-99877000D01*
X122739943Y-99829272D01*
X122943356Y-99693356D01*
X126009704Y-96627008D01*
X126173681Y-96627151D01*
X126496131Y-96493918D01*
X126743051Y-96247429D01*
X126876847Y-95925211D01*
X126877151Y-95576319D01*
X126743918Y-95253869D01*
X126497429Y-95006949D01*
X126175211Y-94873153D01*
X125826319Y-94872849D01*
X125503869Y-95006082D01*
X125256949Y-95252571D01*
X125123153Y-95574789D01*
X125123009Y-95740279D01*
X122240288Y-98623000D01*
X121817266Y-98623000D01*
X122020133Y-98420133D01*
X122020134Y-98420131D01*
X122143051Y-98297429D01*
X122276847Y-97975211D01*
X122277151Y-97626319D01*
X122143918Y-97303869D01*
X122020134Y-97179869D01*
X122020133Y-97179867D01*
X122020131Y-97179866D01*
X121897429Y-97056949D01*
X121575211Y-96923153D01*
X121400002Y-96923000D01*
X121399998Y-96923000D01*
X121226319Y-96922849D01*
X120903869Y-97056082D01*
X120779869Y-97179866D01*
X120779867Y-97179867D01*
X120779550Y-97180184D01*
X120656949Y-97302571D01*
X120656797Y-97302937D01*
X120586734Y-97373000D01*
X118753677Y-97373000D01*
X128193356Y-87933321D01*
X128329273Y-87729907D01*
X128377000Y-87489965D01*
X128377000Y-80942603D01*
X128531131Y-80878918D01*
X128648253Y-80762000D01*
X128691723Y-80762000D01*
X128807571Y-80878051D01*
X129129789Y-81011847D01*
X129478681Y-81012151D01*
X129801131Y-80878918D01*
X130048051Y-80632429D01*
X130181847Y-80310211D01*
X130182151Y-79961319D01*
X130048918Y-79638869D01*
X129910265Y-79499974D01*
X130048051Y-79362429D01*
X130181847Y-79040211D01*
X130182151Y-78691319D01*
X130048918Y-78368869D01*
X129910265Y-78229974D01*
X130048051Y-78092429D01*
X130181847Y-77770211D01*
X130182151Y-77421319D01*
X130048918Y-77098869D01*
X129910265Y-76959974D01*
X130048051Y-76822429D01*
X130181847Y-76500211D01*
X130182151Y-76151319D01*
X130048918Y-75828869D01*
X129910265Y-75689974D01*
X130048051Y-75552429D01*
X130181847Y-75230211D01*
X130182151Y-74881319D01*
X130048918Y-74558869D01*
X129802429Y-74311949D01*
X129545771Y-74205376D01*
X129305000Y-73964605D01*
X129063899Y-74205706D01*
X128808869Y-74311082D01*
X128669974Y-74449735D01*
X128532429Y-74311949D01*
X128275771Y-74205376D01*
X128035000Y-73964605D01*
X127793899Y-74205706D01*
X127538869Y-74311082D01*
X127291949Y-74557571D01*
X127158153Y-74879789D01*
X127157849Y-75228681D01*
X127291082Y-75551131D01*
X127429735Y-75690026D01*
X127291949Y-75827571D01*
X127158153Y-76149789D01*
X127157849Y-76498681D01*
X127291082Y-76821131D01*
X127429735Y-76960026D01*
X127291949Y-77097571D01*
X127158153Y-77419789D01*
X127157849Y-77768681D01*
X127291082Y-78091131D01*
X127429735Y-78230026D01*
X127421747Y-78238000D01*
X127327894Y-78238000D01*
X127087951Y-78285728D01*
X126884538Y-78421644D01*
X126556644Y-78749538D01*
X126420728Y-78952951D01*
X126373000Y-79192894D01*
X126373000Y-86990288D01*
X117490288Y-95873000D01*
X115794722Y-95873000D01*
X115876851Y-95675211D01*
X115877155Y-95326319D01*
X115743922Y-95003869D01*
X115620138Y-94879869D01*
X115620137Y-94879867D01*
X115620135Y-94879866D01*
X115497433Y-94756949D01*
X115175215Y-94623153D01*
X115000006Y-94623000D01*
X114999621Y-94623000D01*
X114826323Y-94622849D01*
X114825958Y-94623000D01*
X111249998Y-94623000D01*
X111076319Y-94622849D01*
X110753869Y-94756082D01*
X110629869Y-94879866D01*
X110629867Y-94879867D01*
X110629866Y-94879869D01*
X110506949Y-95002571D01*
X110373153Y-95324789D01*
X110372849Y-95673681D01*
X110455206Y-95873000D01*
X90750000Y-95873000D01*
X90510057Y-95920728D01*
X90306644Y-96056644D01*
X89509121Y-96854167D01*
X89345144Y-96854024D01*
X89022694Y-96987257D01*
X88775774Y-97233746D01*
X88713811Y-97382969D01*
X88377000Y-97046158D01*
X88377000Y-89796407D01*
X89150307Y-89796407D01*
X89150308Y-89879711D01*
X89150307Y-89963015D01*
X89150309Y-89963020D01*
X89492849Y-91685084D01*
X89492849Y-91685089D01*
X89556607Y-91839014D01*
X90532083Y-93298918D01*
X90532084Y-93298921D01*
X90649894Y-93416730D01*
X92109796Y-94392204D01*
X92109799Y-94392207D01*
X92186761Y-94424085D01*
X92263724Y-94455965D01*
X92263729Y-94455965D01*
X93985799Y-94798506D01*
X94027854Y-94798506D01*
X94069103Y-94806711D01*
X106069103Y-94806711D01*
X106110352Y-94798506D01*
X106152407Y-94798506D01*
X107874476Y-94455965D01*
X107874481Y-94455965D01*
X108028406Y-94392207D01*
X109488310Y-93416731D01*
X109488313Y-93416730D01*
X109606122Y-93298920D01*
X110581596Y-91839018D01*
X110581599Y-91839015D01*
X110621348Y-91743051D01*
X110645357Y-91685090D01*
X110645357Y-91685085D01*
X110987897Y-89963018D01*
X110987899Y-89963014D01*
X110987899Y-89796408D01*
X110987897Y-89796404D01*
X110645357Y-88074337D01*
X110645357Y-88074332D01*
X110613478Y-87997370D01*
X110581599Y-87920407D01*
X110581596Y-87920404D01*
X109606122Y-86460502D01*
X109488313Y-86342692D01*
X109488310Y-86342691D01*
X108028406Y-85367215D01*
X107874481Y-85303457D01*
X107874476Y-85303457D01*
X106152407Y-84960916D01*
X106110352Y-84960916D01*
X106069103Y-84952711D01*
X94069103Y-84952711D01*
X94027854Y-84960916D01*
X93985799Y-84960916D01*
X93850877Y-84987754D01*
X93876847Y-84925211D01*
X93877000Y-84750015D01*
X93877003Y-84749998D01*
X93877002Y-84749993D01*
X93877002Y-84747322D01*
X93877151Y-84576319D01*
X93877002Y-84575958D01*
X93877002Y-84173681D01*
X108622849Y-84173681D01*
X108756082Y-84496131D01*
X109002571Y-84743051D01*
X109324789Y-84876847D01*
X109673681Y-84877151D01*
X109996131Y-84743918D01*
X110113253Y-84627000D01*
X111873000Y-84627000D01*
X111873000Y-90707108D01*
X111920728Y-90947051D01*
X112011850Y-91083425D01*
X112056644Y-91150464D01*
X114849536Y-93943356D01*
X115052950Y-94079273D01*
X115292892Y-94127000D01*
X115386721Y-94127000D01*
X115502569Y-94243051D01*
X115824787Y-94376847D01*
X116173679Y-94377151D01*
X116496129Y-94243918D01*
X116743049Y-93997429D01*
X116876845Y-93675211D01*
X116877149Y-93326319D01*
X116743916Y-93003869D01*
X116497427Y-92756949D01*
X116175209Y-92623153D01*
X115826317Y-92622849D01*
X115503867Y-92756082D01*
X115469747Y-92790143D01*
X115009812Y-92330208D01*
X115220440Y-92330392D01*
X115542890Y-92197159D01*
X115789810Y-91950670D01*
X115923606Y-91628452D01*
X115923910Y-91279560D01*
X115790677Y-90957110D01*
X115544188Y-90710190D01*
X115523759Y-90701707D01*
X115523759Y-90046759D01*
X115487450Y-89864219D01*
X115384049Y-89709469D01*
X113977000Y-88302420D01*
X113977000Y-88173681D01*
X118872849Y-88173681D01*
X119006082Y-88496131D01*
X119129866Y-88620131D01*
X119129867Y-88620133D01*
X119130184Y-88620450D01*
X119252571Y-88743051D01*
X119252937Y-88743203D01*
X120879613Y-90369878D01*
X121002571Y-90493051D01*
X121324789Y-90626847D01*
X121499993Y-90627000D01*
X121500000Y-90627001D01*
X121500007Y-90627000D01*
X121673681Y-90627151D01*
X121996131Y-90493918D01*
X122120131Y-90370134D01*
X122120133Y-90370133D01*
X122120134Y-90370131D01*
X122243051Y-90247429D01*
X122376847Y-89925211D01*
X122377000Y-89750007D01*
X122377001Y-89750000D01*
X122377000Y-89749993D01*
X122377151Y-89576319D01*
X122243918Y-89253869D01*
X121997429Y-89006949D01*
X121997061Y-89006796D01*
X120370133Y-87379867D01*
X120370131Y-87379866D01*
X120247429Y-87256949D01*
X119925211Y-87123153D01*
X119750002Y-87123000D01*
X119749998Y-87123000D01*
X119576319Y-87122849D01*
X119253869Y-87256082D01*
X119129869Y-87379866D01*
X119129867Y-87379867D01*
X119129866Y-87379869D01*
X119006949Y-87502571D01*
X118873153Y-87824789D01*
X118872849Y-88173681D01*
X113977000Y-88173681D01*
X113977000Y-80598491D01*
X116691518Y-80598491D01*
X117204553Y-81840129D01*
X118153689Y-82790923D01*
X119394429Y-83306123D01*
X120737883Y-83307296D01*
X121979521Y-82794261D01*
X122930315Y-81845125D01*
X123445515Y-80604385D01*
X123446688Y-79260931D01*
X122933653Y-78019293D01*
X121984517Y-77068499D01*
X120743777Y-76553299D01*
X119400323Y-76552126D01*
X118158685Y-77065161D01*
X117207891Y-78014297D01*
X116692691Y-79255037D01*
X116691518Y-80598491D01*
X113977000Y-80598491D01*
X113977000Y-76697580D01*
X116997558Y-73677022D01*
X127152091Y-73677022D01*
X127144692Y-73701864D01*
X127180647Y-74048899D01*
X127244277Y-74202513D01*
X127386735Y-74253660D01*
X127855395Y-73785000D01*
X128214605Y-73785000D01*
X128447427Y-74017822D01*
X128450647Y-74048899D01*
X128514277Y-74202513D01*
X128656735Y-74253660D01*
X128670000Y-74240395D01*
X128683265Y-74253660D01*
X128825723Y-74202513D01*
X128875704Y-74034691D01*
X129125395Y-73785000D01*
X129484605Y-73785000D01*
X129953265Y-74253660D01*
X130095723Y-74202513D01*
X130195308Y-73868136D01*
X130159353Y-73521101D01*
X130095723Y-73367487D01*
X129953265Y-73316340D01*
X129484605Y-73785000D01*
X129125395Y-73785000D01*
X128892573Y-73552178D01*
X128889353Y-73521101D01*
X128825723Y-73367487D01*
X128683265Y-73316340D01*
X128670000Y-73329605D01*
X128656735Y-73316340D01*
X128514277Y-73367487D01*
X128464296Y-73535309D01*
X128214605Y-73785000D01*
X127855395Y-73785000D01*
X127841253Y-73770858D01*
X128020858Y-73591253D01*
X128035000Y-73605395D01*
X128276101Y-73364294D01*
X128531131Y-73258918D01*
X128653527Y-73136735D01*
X128836340Y-73136735D01*
X128849605Y-73150000D01*
X128836340Y-73163265D01*
X128887487Y-73305723D01*
X129055309Y-73355704D01*
X129305000Y-73605395D01*
X129537822Y-73372573D01*
X129568899Y-73369353D01*
X129722513Y-73305723D01*
X129773660Y-73163265D01*
X129760395Y-73150000D01*
X129773660Y-73136735D01*
X129722513Y-72994277D01*
X129554691Y-72944296D01*
X129305000Y-72694605D01*
X129072178Y-72927427D01*
X129041101Y-72930647D01*
X128887487Y-72994277D01*
X128836340Y-73136735D01*
X128653527Y-73136735D01*
X128778051Y-73012429D01*
X128884624Y-72755771D01*
X129125395Y-72515000D01*
X129484605Y-72515000D01*
X129953265Y-72983660D01*
X130095723Y-72932513D01*
X130195308Y-72598136D01*
X130159353Y-72251101D01*
X130095723Y-72097487D01*
X129953265Y-72046340D01*
X129484605Y-72515000D01*
X129125395Y-72515000D01*
X128884294Y-72273899D01*
X128778918Y-72018869D01*
X128640265Y-71879974D01*
X128653527Y-71866735D01*
X128836340Y-71866735D01*
X128849605Y-71880000D01*
X128836340Y-71893265D01*
X128887487Y-72035723D01*
X129055309Y-72085704D01*
X129305000Y-72335395D01*
X129537822Y-72102573D01*
X129568899Y-72099353D01*
X129722513Y-72035723D01*
X129773660Y-71893265D01*
X129760395Y-71880000D01*
X129773660Y-71866735D01*
X129722513Y-71724277D01*
X129554691Y-71674296D01*
X129305000Y-71424605D01*
X129072178Y-71657427D01*
X129041101Y-71660647D01*
X128887487Y-71724277D01*
X128836340Y-71866735D01*
X128653527Y-71866735D01*
X128778051Y-71742429D01*
X128884624Y-71485771D01*
X129125395Y-71245000D01*
X129484605Y-71245000D01*
X129953265Y-71713660D01*
X130095723Y-71662513D01*
X130195308Y-71328136D01*
X130159353Y-70981101D01*
X130095723Y-70827487D01*
X129953265Y-70776340D01*
X129484605Y-71245000D01*
X129125395Y-71245000D01*
X128884294Y-71003899D01*
X128778918Y-70748869D01*
X128640265Y-70609974D01*
X128648253Y-70602000D01*
X128691723Y-70602000D01*
X128807571Y-70718051D01*
X129064229Y-70824624D01*
X129305000Y-71065395D01*
X129546101Y-70824294D01*
X129801131Y-70718918D01*
X130048051Y-70472429D01*
X130181847Y-70150211D01*
X130182151Y-69801319D01*
X130048918Y-69478869D01*
X129910265Y-69339974D01*
X130048051Y-69202429D01*
X130181847Y-68880211D01*
X130182151Y-68531319D01*
X130048918Y-68208869D01*
X129802429Y-67961949D01*
X129480211Y-67828153D01*
X129131319Y-67827849D01*
X128808869Y-67961082D01*
X128669974Y-68099735D01*
X128532429Y-67961949D01*
X128210211Y-67828153D01*
X127861319Y-67827849D01*
X127538869Y-67961082D01*
X127291949Y-68207571D01*
X127158153Y-68529789D01*
X127157849Y-68878681D01*
X127291082Y-69201131D01*
X127429735Y-69340026D01*
X127291949Y-69477571D01*
X127158153Y-69799789D01*
X127158121Y-69836624D01*
X127135643Y-69851643D01*
X125364286Y-71623000D01*
X116250000Y-71623000D01*
X116010058Y-71670727D01*
X115806644Y-71806644D01*
X112056644Y-75556644D01*
X111920728Y-75760057D01*
X111888620Y-75921474D01*
X111874097Y-75844292D01*
X111791530Y-75715980D01*
X111665547Y-75629899D01*
X111516000Y-75599615D01*
X111280892Y-75599615D01*
X111512290Y-75445000D01*
X111814254Y-74993078D01*
X111920290Y-74460000D01*
X111814254Y-73926922D01*
X111512290Y-73475000D01*
X111060368Y-73173036D01*
X110527290Y-73067000D01*
X110472710Y-73067000D01*
X109939632Y-73173036D01*
X109487710Y-73475000D01*
X109185746Y-73926922D01*
X109079710Y-74460000D01*
X109185746Y-74993078D01*
X109487710Y-75445000D01*
X109719108Y-75599615D01*
X109484000Y-75599615D01*
X109344292Y-75625903D01*
X109215980Y-75708470D01*
X109129899Y-75834453D01*
X109099615Y-75984000D01*
X109099615Y-78016000D01*
X109125903Y-78155708D01*
X109208470Y-78284020D01*
X109334453Y-78370101D01*
X109484000Y-78400385D01*
X111516000Y-78400385D01*
X111655708Y-78374097D01*
X111784020Y-78291530D01*
X111870101Y-78165547D01*
X111873000Y-78151231D01*
X111873000Y-83373000D01*
X110113277Y-83373000D01*
X109997429Y-83256949D01*
X109675211Y-83123153D01*
X109326319Y-83122849D01*
X109003869Y-83256082D01*
X108756949Y-83502571D01*
X108623153Y-83824789D01*
X108622849Y-84173681D01*
X93877002Y-84173681D01*
X93877002Y-80499998D01*
X93877153Y-80326319D01*
X93743920Y-80003869D01*
X93620136Y-79879869D01*
X93620135Y-79879867D01*
X93620133Y-79879866D01*
X93497431Y-79756949D01*
X93175213Y-79623153D01*
X93000004Y-79623000D01*
X93000000Y-79623000D01*
X92826321Y-79622849D01*
X92503871Y-79756082D01*
X92379871Y-79879866D01*
X92379869Y-79879867D01*
X92379867Y-79879869D01*
X92379866Y-79879871D01*
X92256951Y-80002571D01*
X92189760Y-80164387D01*
X92189758Y-80164389D01*
X92189757Y-80164392D01*
X92123155Y-80324789D01*
X92123002Y-80499990D01*
X92123000Y-80500002D01*
X92123000Y-80502678D01*
X92122851Y-80673681D01*
X92123000Y-80674042D01*
X92123000Y-84749998D01*
X92122849Y-84923681D01*
X92256082Y-85246131D01*
X92305094Y-85295229D01*
X92263729Y-85303457D01*
X92263724Y-85303457D01*
X92186761Y-85335337D01*
X92109799Y-85367215D01*
X92109796Y-85367218D01*
X90649894Y-86342692D01*
X90532084Y-86460501D01*
X90532084Y-86460502D01*
X89556607Y-87920408D01*
X89492849Y-88074333D01*
X89492849Y-88074338D01*
X89150309Y-89796402D01*
X89150307Y-89796407D01*
X88377000Y-89796407D01*
X88377000Y-78379741D01*
X88409010Y-78393000D01*
X89278750Y-78393000D01*
X89373000Y-78298750D01*
X89373000Y-77127000D01*
X89627000Y-77127000D01*
X89627000Y-78298750D01*
X89721250Y-78393000D01*
X90590990Y-78393000D01*
X90729553Y-78335605D01*
X90835605Y-78229553D01*
X90893000Y-78090990D01*
X90893000Y-77221250D01*
X90798750Y-77127000D01*
X89627000Y-77127000D01*
X89373000Y-77127000D01*
X89353000Y-77127000D01*
X89353000Y-76873000D01*
X89373000Y-76873000D01*
X89373000Y-76853000D01*
X89627000Y-76853000D01*
X89627000Y-76873000D01*
X90798750Y-76873000D01*
X90893000Y-76778750D01*
X90893000Y-75909010D01*
X90835605Y-75770447D01*
X90729553Y-75664395D01*
X90590990Y-75607000D01*
X90269839Y-75607000D01*
X90512290Y-75445000D01*
X90814254Y-74993078D01*
X90920290Y-74460000D01*
X90814254Y-73926922D01*
X90512290Y-73475000D01*
X90060368Y-73173036D01*
X89527290Y-73067000D01*
X89472710Y-73067000D01*
X88939632Y-73173036D01*
X88487710Y-73475000D01*
X88185746Y-73926922D01*
X88079710Y-74460000D01*
X88185746Y-74993078D01*
X88487710Y-75445000D01*
X88730161Y-75607000D01*
X88409010Y-75607000D01*
X88270447Y-75664395D01*
X88164395Y-75770447D01*
X88107000Y-75909010D01*
X88107000Y-76230323D01*
X83933321Y-72056644D01*
X83902010Y-72035723D01*
X83729908Y-71920728D01*
X83489965Y-71873000D01*
X81012080Y-71873000D01*
X81012151Y-71791319D01*
X80878918Y-71468869D01*
X80762000Y-71351747D01*
X80762000Y-71308277D01*
X80878051Y-71192429D01*
X81011847Y-70870211D01*
X81012151Y-70521319D01*
X80878918Y-70198869D01*
X80632429Y-69951949D01*
X80310211Y-69818153D01*
X79961319Y-69817849D01*
X79638869Y-69951082D01*
X79499974Y-70089735D01*
X79362429Y-69951949D01*
X79040211Y-69818153D01*
X78691319Y-69817849D01*
X78368869Y-69951082D01*
X78229974Y-70089735D01*
X78092429Y-69951949D01*
X77770211Y-69818153D01*
X77421319Y-69817849D01*
X77098869Y-69951082D01*
X76959974Y-70089735D01*
X76822429Y-69951949D01*
X76500211Y-69818153D01*
X76151319Y-69817849D01*
X75828869Y-69951082D01*
X75689974Y-70089735D01*
X75552429Y-69951949D01*
X75230211Y-69818153D01*
X74881319Y-69817849D01*
X74558869Y-69951082D01*
X74311949Y-70197571D01*
X74205376Y-70454229D01*
X73964605Y-70695000D01*
X74205706Y-70936101D01*
X74311082Y-71191131D01*
X74449735Y-71330026D01*
X74311949Y-71467571D01*
X74205376Y-71724229D01*
X73964605Y-71965000D01*
X74205706Y-72206101D01*
X74311082Y-72461131D01*
X74557571Y-72708051D01*
X74879789Y-72841847D01*
X75228681Y-72842151D01*
X75551131Y-72708918D01*
X75690026Y-72570265D01*
X75827571Y-72708051D01*
X76149789Y-72841847D01*
X76498681Y-72842151D01*
X76821131Y-72708918D01*
X76960026Y-72570265D01*
X77097571Y-72708051D01*
X77419789Y-72841847D01*
X77768681Y-72842151D01*
X78091131Y-72708918D01*
X78230026Y-72570265D01*
X78238000Y-72578253D01*
X78238000Y-72672106D01*
X78285728Y-72912049D01*
X78356176Y-73017482D01*
X78421644Y-73115462D01*
X78999538Y-73693356D01*
X79202952Y-73829273D01*
X79442894Y-73877000D01*
X82990288Y-73877000D01*
X86373000Y-77259712D01*
X86373000Y-83962999D01*
X86178196Y-83882110D01*
X85829304Y-83881806D01*
X85506854Y-84015039D01*
X85389732Y-84131957D01*
X84585039Y-84131957D01*
X84345096Y-84179685D01*
X84155088Y-84306644D01*
X84141683Y-84315601D01*
X80806644Y-87650640D01*
X80670728Y-87854053D01*
X80623000Y-88093996D01*
X80623000Y-97636723D01*
X80506949Y-97752571D01*
X80373153Y-98074789D01*
X80372849Y-98423681D01*
X80506082Y-98746131D01*
X80752571Y-98993051D01*
X81074789Y-99126847D01*
X81423681Y-99127151D01*
X81746131Y-98993918D01*
X81993051Y-98747429D01*
X82126847Y-98425211D01*
X82127151Y-98076319D01*
X81993918Y-97753869D01*
X81877000Y-97636747D01*
X81877000Y-88353708D01*
X83123000Y-87107708D01*
X83123000Y-89636735D01*
X82379867Y-90379867D01*
X82379866Y-90379869D01*
X82256949Y-90502571D01*
X82123153Y-90824789D01*
X82122849Y-91173681D01*
X82256082Y-91496131D01*
X82379866Y-91620131D01*
X82379867Y-91620133D01*
X82379869Y-91620134D01*
X82502571Y-91743051D01*
X82824789Y-91876847D01*
X82999998Y-91877000D01*
X83000383Y-91877000D01*
X83173681Y-91877151D01*
X83174046Y-91877000D01*
X84949992Y-91877000D01*
X84955280Y-91877004D01*
X84873153Y-92074789D01*
X84872849Y-92423681D01*
X85006082Y-92746131D01*
X85252571Y-92993051D01*
X85574789Y-93126847D01*
X85923681Y-93127151D01*
X86246131Y-92993918D01*
X86373000Y-92867270D01*
X86373000Y-98500000D01*
X86420728Y-98739943D01*
X86526560Y-98898332D01*
X86469400Y-99185695D01*
X86469400Y-99234305D01*
X86563835Y-99709062D01*
X86773605Y-100023006D01*
X83001823Y-100023006D01*
X82993918Y-100003875D01*
X82747429Y-99756955D01*
X82425211Y-99623159D01*
X82076319Y-99622855D01*
X81753869Y-99756088D01*
X81506949Y-100002577D01*
X81498469Y-100023000D01*
X80697580Y-100023000D01*
X79926999Y-99252419D01*
X79926999Y-89199999D01*
X79890690Y-89017459D01*
X79890690Y-89017458D01*
X79787289Y-88862709D01*
X73977000Y-83052420D01*
X73977000Y-80598491D01*
X76691518Y-80598491D01*
X77204553Y-81840129D01*
X78153689Y-82790923D01*
X79394429Y-83306123D01*
X80737883Y-83307296D01*
X81979521Y-82794261D01*
X82930315Y-81845125D01*
X83445515Y-80604385D01*
X83446688Y-79260931D01*
X82933653Y-78019293D01*
X81984517Y-77068499D01*
X80743777Y-76553299D01*
X79400323Y-76552126D01*
X78158685Y-77065161D01*
X77207891Y-78014297D01*
X76692691Y-79255037D01*
X76691518Y-80598491D01*
X73977000Y-80598491D01*
X73977000Y-72950000D01*
X73973522Y-72932513D01*
X73952990Y-72829290D01*
X74048899Y-72819353D01*
X74202513Y-72755723D01*
X74253660Y-72613265D01*
X73785000Y-72144605D01*
X73770858Y-72158748D01*
X73591253Y-71979143D01*
X73605395Y-71965000D01*
X73364294Y-71723899D01*
X73258918Y-71468869D01*
X73107050Y-71316735D01*
X73316340Y-71316735D01*
X73329605Y-71330000D01*
X73316340Y-71343265D01*
X73367487Y-71485723D01*
X73535309Y-71535704D01*
X73785000Y-71785395D01*
X74017822Y-71552573D01*
X74048899Y-71549353D01*
X74202513Y-71485723D01*
X74253660Y-71343265D01*
X74240395Y-71330000D01*
X74253660Y-71316735D01*
X74202513Y-71174277D01*
X74034691Y-71124296D01*
X73785000Y-70874605D01*
X73552178Y-71107427D01*
X73521101Y-71110647D01*
X73367487Y-71174277D01*
X73316340Y-71316735D01*
X73107050Y-71316735D01*
X73012429Y-71221949D01*
X72755771Y-71115376D01*
X72515000Y-70874605D01*
X72273899Y-71115706D01*
X72018869Y-71221082D01*
X71879974Y-71359735D01*
X71742429Y-71221949D01*
X71485771Y-71115376D01*
X71245000Y-70874605D01*
X71003899Y-71115706D01*
X70748869Y-71221082D01*
X70609974Y-71359735D01*
X70602000Y-71351747D01*
X70602000Y-71308277D01*
X70718051Y-71192429D01*
X70824624Y-70935771D01*
X71065395Y-70695000D01*
X71424605Y-70695000D01*
X71657427Y-70927822D01*
X71660647Y-70958899D01*
X71724277Y-71112513D01*
X71866735Y-71163660D01*
X71880000Y-71150395D01*
X71893265Y-71163660D01*
X72035723Y-71112513D01*
X72085704Y-70944691D01*
X72335395Y-70695000D01*
X72694605Y-70695000D01*
X72927427Y-70927822D01*
X72930647Y-70958899D01*
X72994277Y-71112513D01*
X73136735Y-71163660D01*
X73150000Y-71150395D01*
X73163265Y-71163660D01*
X73305723Y-71112513D01*
X73355704Y-70944691D01*
X73605395Y-70695000D01*
X73372573Y-70462178D01*
X73369353Y-70431101D01*
X73305723Y-70277487D01*
X73163265Y-70226340D01*
X73150000Y-70239605D01*
X73136735Y-70226340D01*
X72994277Y-70277487D01*
X72944296Y-70445309D01*
X72694605Y-70695000D01*
X72335395Y-70695000D01*
X72102573Y-70462178D01*
X72099353Y-70431101D01*
X72035723Y-70277487D01*
X71893265Y-70226340D01*
X71880000Y-70239605D01*
X71866735Y-70226340D01*
X71724277Y-70277487D01*
X71674296Y-70445309D01*
X71424605Y-70695000D01*
X71065395Y-70695000D01*
X70824294Y-70453899D01*
X70718918Y-70198869D01*
X70567050Y-70046735D01*
X70776340Y-70046735D01*
X71245000Y-70515395D01*
X71713660Y-70046735D01*
X72046340Y-70046735D01*
X72515000Y-70515395D01*
X72983660Y-70046735D01*
X73316340Y-70046735D01*
X73785000Y-70515395D01*
X74253660Y-70046735D01*
X74202513Y-69904277D01*
X73868136Y-69804692D01*
X73521101Y-69840647D01*
X73367487Y-69904277D01*
X73316340Y-70046735D01*
X72983660Y-70046735D01*
X72932513Y-69904277D01*
X72598136Y-69804692D01*
X72251101Y-69840647D01*
X72097487Y-69904277D01*
X72046340Y-70046735D01*
X71713660Y-70046735D01*
X71662513Y-69904277D01*
X71328136Y-69804692D01*
X70981101Y-69840647D01*
X70827487Y-69904277D01*
X70776340Y-70046735D01*
X70567050Y-70046735D01*
X70472429Y-69951949D01*
X70150211Y-69818153D01*
X69801319Y-69817849D01*
X69478869Y-69951082D01*
X69339974Y-70089735D01*
X69202429Y-69951949D01*
X68880211Y-69818153D01*
X68531319Y-69817849D01*
X68208869Y-69951082D01*
X67961949Y-70197571D01*
X67828153Y-70519789D01*
X67827849Y-70868681D01*
X67252000Y-70868681D01*
X67252000Y-67252000D01*
X81642103Y-67252000D01*
X81642103Y-70929711D01*
X81674606Y-71093117D01*
X81767168Y-71231646D01*
X81905697Y-71324208D01*
X82069103Y-71356711D01*
X118069103Y-71356711D01*
X118232509Y-71324208D01*
X118371038Y-71231646D01*
X118463600Y-71093117D01*
X118496103Y-70929711D01*
X118496103Y-67112608D01*
X132746814Y-67112608D01*
X132746814Y-81502711D01*
M02*
