M48
METRIC,TZ
T1C0.300
T2C0.500
T3C0.600
T4C1.016
%
G90
G05
T1
X82750Y-107250
X85000Y-85750
X86750Y-126250
X112832Y-103918
X114000Y-103250
X115117Y-106580
X115750Y-108500
X119250Y-110750
T2
X74000Y-94500
X74000Y-111000
X75000Y-94500
X75000Y-115000
X75203Y-109953
X75250Y-108000
X77750Y-90000
X78750Y-104250
X79250Y-112500
X80047Y-108047
X80250Y-94500
X81250Y-98250
X81250Y-108000
X82250Y-94500
X82250Y-100500
X83000Y-91000
X83500Y-108000
X84000Y-86750
X84750Y-112000
X84950Y-91000
X85434Y-106684
X85750Y-92250
X86003Y-84759
X86050Y-94500
X87750Y-105750
X89250Y-94500
X89250Y-117000
X89500Y-112750
X89519Y-97731
X91250Y-114750
X93000Y-84750
X93000Y-80500
X100750Y-118250
X109500Y-84000
X111250Y-95500
X111500Y-118250
X112250Y-111750
X114047Y-90453
X115000Y-95500
X115047Y-91453
X115250Y-100500
X116000Y-93500
X116250Y-98250
X116300Y-111747
X117000Y-101250
X119750Y-88000
X119750Y-108500
X121400Y-97800
X121500Y-89750
X121500Y-106750
X126000Y-95750
T3
X68705Y-70695
X68705Y-71965
X69975Y-70695
X69975Y-71965
X70695Y-119865
X70695Y-121135
X70695Y-122405
X70695Y-123675
X70695Y-124945
X70695Y-126215
X70695Y-127485
X70695Y-128755
X70695Y-130025
X70695Y-131295
X71245Y-70695
X71245Y-71965
X71965Y-119865
X71965Y-121135
X71965Y-122405
X71965Y-123675
X71965Y-124945
X71965Y-126215
X71965Y-127485
X71965Y-128755
X71965Y-130025
X71965Y-131295
X72515Y-70695
X72515Y-71965
X73785Y-70695
X73785Y-71965
X75055Y-70695
X75055Y-71965
X76325Y-70695
X76325Y-71965
X77595Y-70695
X77595Y-71965
X78865Y-70695
X78865Y-71965
X80135Y-70695
X80135Y-71965
X119865Y-128035
X119865Y-129305
X121135Y-128035
X121135Y-129305
X122405Y-128035
X122405Y-129305
X123675Y-128035
X123675Y-129305
X124945Y-128035
X124945Y-129305
X126215Y-128035
X126215Y-129305
X127485Y-128035
X127485Y-129305
X128035Y-68705
X128035Y-69975
X128035Y-71245
X128035Y-72515
X128035Y-73785
X128035Y-75055
X128035Y-76325
X128035Y-77595
X128035Y-78865
X128035Y-80135
X128755Y-128035
X128755Y-129305
X129305Y-68705
X129305Y-69975
X129305Y-71245
X129305Y-72515
X129305Y-73785
X129305Y-75055
X129305Y-76325
X129305Y-77595
X129305Y-78865
X129305Y-80135
X130025Y-128035
X130025Y-129305
X131295Y-128035
X131295Y-129305
T4
X87710Y-99210
X87710Y-101750
X89500Y-74460
X89500Y-77000
X90250Y-99210
X90250Y-101750
X92790Y-99210
X92790Y-101750
X95330Y-99210
X95330Y-101750
X103880Y-99250
X103880Y-101790
X106420Y-99250
X106420Y-101790
X108960Y-99250
X108960Y-101790
X110500Y-74460
X110500Y-77000
X111500Y-99250
X111500Y-101790
X114040Y-99250
X114040Y-101790
T0
M30
