G04 #@! TF.FileFunction,Copper,L2,Bot,Signal*
%FSLAX46Y46*%
G04 Gerber Fmt 4.6, Leading zero omitted, Abs format (unit mm)*
G04 Created by KiCad (PCBNEW 4.0.2-stable) date Fri 25 Nov 2016 08:04:00 PM CET*
%MOMM*%
G01*
G04 APERTURE LIST*
%ADD10C,0.100000*%
%ADD11C,1.727200*%
%ADD12R,2.032000X1.727200*%
%ADD13O,2.032000X1.727200*%
%ADD14R,2.235200X2.235200*%
%ADD15C,4.000000*%
%ADD16C,1.524000*%
%ADD17R,1.727200X2.032000*%
%ADD18O,1.727200X2.032000*%
%ADD19R,2.032000X2.032000*%
%ADD20O,2.032000X2.032000*%
%ADD21C,2.032000*%
%ADD22C,0.600000*%
%ADD23C,2.000000*%
%ADD24C,1.500000*%
%ADD25C,0.500000*%
%ADD26C,2.000000*%
%ADD27C,1.500000*%
%ADD28C,0.254000*%
G04 APERTURE END LIST*
D10*
D11*
X124371100Y-80873600D03*
X124371100Y-83413600D03*
X124371100Y-85953600D03*
X124371100Y-88493600D03*
X124371100Y-91033600D03*
X124371100Y-93573600D03*
X124371100Y-96113600D03*
X124371100Y-98653600D03*
X124371100Y-101193600D03*
X124371100Y-103733600D03*
X124371100Y-106273600D03*
X124371100Y-108813600D03*
X124371100Y-111353600D03*
X124371100Y-113893600D03*
X124371100Y-116433600D03*
X124371100Y-118973600D03*
X124371100Y-121513600D03*
X124371100Y-124053600D03*
X124371100Y-126593600D03*
X124371100Y-129133600D03*
X172631100Y-129133600D03*
X172631100Y-126593600D03*
X172631100Y-124053600D03*
X172631100Y-121513600D03*
X172631100Y-118973600D03*
X172631100Y-116433600D03*
X172631100Y-113893600D03*
X172631100Y-111353600D03*
X172631100Y-108813600D03*
X172631100Y-106273600D03*
X172631100Y-103733600D03*
X172631100Y-101193600D03*
X172631100Y-98653600D03*
X172631100Y-96113600D03*
X172631100Y-93573600D03*
X172631100Y-91033600D03*
X172631100Y-88493600D03*
X172631100Y-85953600D03*
X172631100Y-83413600D03*
X172631100Y-80873600D03*
D12*
X140800000Y-123140000D03*
D13*
X140800000Y-120600000D03*
X140800000Y-118060000D03*
D12*
X165400000Y-110080000D03*
D13*
X165400000Y-107540000D03*
X165400000Y-105000000D03*
D14*
X156000000Y-118200000D03*
D15*
X136000000Y-117500000D03*
X161000000Y-117500000D03*
X136000000Y-92500000D03*
X161000000Y-92500000D03*
D16*
X152390000Y-86000000D03*
X149850000Y-86000000D03*
X147310000Y-86000000D03*
X142230000Y-86000000D03*
X139690000Y-86000000D03*
X137150000Y-86000000D03*
X134610000Y-86000000D03*
X132500000Y-96110000D03*
X132500000Y-98650000D03*
X132500000Y-101190000D03*
X132500000Y-106270000D03*
X132500000Y-108810000D03*
X132500000Y-111350000D03*
X132500000Y-113890000D03*
D17*
X156420000Y-81800000D03*
D18*
X158960000Y-81800000D03*
X161500000Y-81800000D03*
X164040000Y-81800000D03*
X166580000Y-81800000D03*
X169120000Y-81800000D03*
D19*
X169140000Y-89000000D03*
D20*
X166600000Y-89000000D03*
D12*
X169000000Y-93600000D03*
D13*
X169000000Y-96140000D03*
X169000000Y-98680000D03*
X169000000Y-101220000D03*
D12*
X169000000Y-108800000D03*
D13*
X169000000Y-111340000D03*
X169000000Y-113880000D03*
X169000000Y-116420000D03*
D19*
X168200000Y-128600000D03*
D20*
X165660000Y-128600000D03*
D19*
X154140000Y-128600000D03*
D20*
X151600000Y-128600000D03*
D19*
X145200000Y-128600000D03*
D20*
X142660000Y-128600000D03*
D21*
X140640000Y-112960000D03*
X140640000Y-102800000D03*
X140640000Y-92640000D03*
X160960000Y-112960000D03*
X160960000Y-105340000D03*
X160960000Y-100260000D03*
D22*
X134871116Y-127208708D03*
X129400000Y-121400000D03*
X158000000Y-83400000D03*
X149400000Y-121200000D03*
X163000000Y-87400000D03*
X156200000Y-87400000D03*
X157800000Y-90800000D03*
D23*
X128000000Y-101800002D03*
X128000000Y-108800000D03*
D22*
X161000000Y-88400000D03*
D24*
X138199998Y-124600000D03*
D22*
X145000000Y-115000000D03*
X155200000Y-109400000D03*
X149495000Y-114905000D03*
X154200000Y-115000000D03*
X128999996Y-117000000D03*
X134600000Y-121200000D03*
D25*
X161500000Y-81800000D02*
X159900000Y-83400000D01*
X159900000Y-83400000D02*
X158000000Y-83400000D01*
X140800000Y-123140000D02*
X142316000Y-123140000D01*
X142316000Y-123140000D02*
X143200000Y-122256000D01*
X143200000Y-122256000D02*
X143200000Y-102000000D01*
X143200000Y-102000000D02*
X140000000Y-98800000D01*
X140000000Y-98800000D02*
X139200000Y-98800000D01*
D26*
X139200000Y-98800000D02*
X134400000Y-103600000D01*
X134400000Y-103600000D02*
X130800000Y-103600000D01*
X130800000Y-103600000D02*
X128126400Y-106273600D01*
X128126400Y-106273600D02*
X124371100Y-106273600D01*
X163556000Y-85400000D02*
X160600000Y-85400000D01*
X160600000Y-85400000D02*
X156904000Y-85400000D01*
X153360000Y-92640000D02*
X160600000Y-85400000D01*
X164040000Y-84916000D02*
X163556000Y-85400000D01*
X156904000Y-85400000D02*
X156420000Y-84916000D01*
X140640000Y-97360000D02*
X139200000Y-98800000D01*
X140640000Y-92640000D02*
X140640000Y-97360000D01*
X140640000Y-92640000D02*
X153360000Y-92640000D01*
D25*
X163000000Y-87400000D02*
X164040000Y-86360000D01*
X164040000Y-86360000D02*
X164040000Y-84916000D01*
X156200000Y-87400000D02*
X156499999Y-87100001D01*
X156499999Y-87100001D02*
X156499999Y-84995999D01*
X156499999Y-84995999D02*
X156420000Y-84916000D01*
D26*
X156420000Y-84916000D02*
X156420000Y-81900000D01*
X164040000Y-81900000D02*
X164040000Y-84916000D01*
X139690000Y-86000000D02*
X139690000Y-87710000D01*
X132600000Y-88400000D02*
X128000000Y-93000000D01*
X128000000Y-100385789D02*
X128000000Y-101800002D01*
X139690000Y-87710000D02*
X139000000Y-88400000D01*
X139000000Y-88400000D02*
X132600000Y-88400000D01*
X128000000Y-93000000D02*
X128000000Y-100385789D01*
D25*
X160200000Y-88400000D02*
X158099999Y-90500001D01*
X158099999Y-90500001D02*
X157800000Y-90800000D01*
X161000000Y-88400000D02*
X160200000Y-88400000D01*
D26*
X128000000Y-108800000D02*
X127000001Y-109799999D01*
X127000001Y-109799999D02*
X127000001Y-112486013D01*
X127000001Y-112486013D02*
X125592414Y-113893600D01*
X125592414Y-113893600D02*
X124371100Y-113893600D01*
D27*
X132500000Y-108810000D02*
X130200000Y-111110000D01*
X130200000Y-111110000D02*
X130200000Y-113200000D01*
X130200000Y-113200000D02*
X126600000Y-116800000D01*
X126600000Y-116800000D02*
X126600000Y-125586014D01*
X126600000Y-125586014D02*
X125592414Y-126593600D01*
X125592414Y-126593600D02*
X124371100Y-126593600D01*
X124371100Y-129133600D02*
X135466400Y-129133600D01*
X135466400Y-129133600D02*
X137449999Y-127150001D01*
X137449999Y-127150001D02*
X137449999Y-125349999D01*
X137449999Y-125349999D02*
X138199998Y-124600000D01*
D25*
X145095000Y-114905000D02*
X145000000Y-115000000D01*
X149495000Y-114905000D02*
X145095000Y-114905000D01*
X172631100Y-106273600D02*
X169757500Y-103400000D01*
X169757500Y-103400000D02*
X159600000Y-103400000D01*
X159600000Y-103400000D02*
X155200000Y-107800000D01*
X155200000Y-107800000D02*
X155200000Y-109400000D01*
X172631100Y-103733600D02*
X171597489Y-102699989D01*
X154200000Y-114575736D02*
X154200000Y-115000000D01*
X171597489Y-102699989D02*
X158900011Y-102699989D01*
X158900011Y-102699989D02*
X154200000Y-107400000D01*
X154200000Y-107400000D02*
X154200000Y-114575736D01*
X140800000Y-120600000D02*
X140647600Y-120600000D01*
X140647600Y-120600000D02*
X138800000Y-118752400D01*
X138800000Y-104640000D02*
X139624001Y-103815999D01*
X138800000Y-118752400D02*
X138800000Y-104640000D01*
X139624001Y-103815999D02*
X140640000Y-102800000D01*
X165400000Y-107540000D02*
X163260000Y-107540000D01*
X163260000Y-107540000D02*
X160960000Y-109840000D01*
X160960000Y-109840000D02*
X160960000Y-112960000D01*
X129424260Y-117000000D02*
X128999996Y-117000000D01*
X130400000Y-117000000D02*
X129424260Y-117000000D01*
X134600000Y-121200000D02*
X130400000Y-117000000D01*
D28*
G36*
X171579984Y-80169939D02*
X171390716Y-80625747D01*
X171390285Y-81119288D01*
X171578757Y-81575425D01*
X171927439Y-81924716D01*
X172383247Y-82113984D01*
X172876788Y-82114415D01*
X173332925Y-81925943D01*
X173449100Y-81809971D01*
X173449100Y-82477023D01*
X173334761Y-82362484D01*
X172878953Y-82173216D01*
X172385412Y-82172785D01*
X171929275Y-82361257D01*
X171579984Y-82709939D01*
X171390716Y-83165747D01*
X171390285Y-83659288D01*
X171578757Y-84115425D01*
X171927439Y-84464716D01*
X172383247Y-84653984D01*
X172876788Y-84654415D01*
X173332925Y-84465943D01*
X173449100Y-84349971D01*
X173449100Y-85017023D01*
X173334761Y-84902484D01*
X172878953Y-84713216D01*
X172385412Y-84712785D01*
X171929275Y-84901257D01*
X171579984Y-85249939D01*
X171390716Y-85705747D01*
X171390285Y-86199288D01*
X171578757Y-86655425D01*
X171927439Y-87004716D01*
X172383247Y-87193984D01*
X172876788Y-87194415D01*
X173332925Y-87005943D01*
X173449100Y-86889971D01*
X173449100Y-87557023D01*
X173334761Y-87442484D01*
X172878953Y-87253216D01*
X172385412Y-87252785D01*
X171929275Y-87441257D01*
X171579984Y-87789939D01*
X171390716Y-88245747D01*
X171390285Y-88739288D01*
X171578757Y-89195425D01*
X171927439Y-89544716D01*
X172383247Y-89733984D01*
X172876788Y-89734415D01*
X173332925Y-89545943D01*
X173449100Y-89429971D01*
X173449100Y-90097023D01*
X173334761Y-89982484D01*
X172878953Y-89793216D01*
X172385412Y-89792785D01*
X171929275Y-89981257D01*
X171579984Y-90329939D01*
X171390716Y-90785747D01*
X171390285Y-91279288D01*
X171578757Y-91735425D01*
X171927439Y-92084716D01*
X172383247Y-92273984D01*
X172876788Y-92274415D01*
X173332925Y-92085943D01*
X173449100Y-91969971D01*
X173449100Y-92637023D01*
X173334761Y-92522484D01*
X172878953Y-92333216D01*
X172385412Y-92332785D01*
X171929275Y-92521257D01*
X171579984Y-92869939D01*
X171390716Y-93325747D01*
X171390285Y-93819288D01*
X171578757Y-94275425D01*
X171927439Y-94624716D01*
X172383247Y-94813984D01*
X172876788Y-94814415D01*
X173332925Y-94625943D01*
X173449100Y-94509971D01*
X173449100Y-95177023D01*
X173334761Y-95062484D01*
X172878953Y-94873216D01*
X172385412Y-94872785D01*
X171929275Y-95061257D01*
X171579984Y-95409939D01*
X171390716Y-95865747D01*
X171390285Y-96359288D01*
X171578757Y-96815425D01*
X171927439Y-97164716D01*
X172383247Y-97353984D01*
X172876788Y-97354415D01*
X173332925Y-97165943D01*
X173449100Y-97049971D01*
X173449100Y-97717023D01*
X173334761Y-97602484D01*
X172878953Y-97413216D01*
X172385412Y-97412785D01*
X171929275Y-97601257D01*
X171579984Y-97949939D01*
X171390716Y-98405747D01*
X171390285Y-98899288D01*
X171578757Y-99355425D01*
X171927439Y-99704716D01*
X172383247Y-99893984D01*
X172876788Y-99894415D01*
X173332925Y-99705943D01*
X173449100Y-99589971D01*
X173449100Y-100257023D01*
X173334761Y-100142484D01*
X172878953Y-99953216D01*
X172385412Y-99952785D01*
X171929275Y-100141257D01*
X171579984Y-100489939D01*
X171390716Y-100945747D01*
X171390285Y-101439288D01*
X171578757Y-101895425D01*
X171795288Y-102112334D01*
X171597489Y-102072989D01*
X170073129Y-102072989D01*
X170325855Y-101694757D01*
X170420290Y-101220000D01*
X170325855Y-100745243D01*
X170056927Y-100342763D01*
X169654447Y-100073835D01*
X169179690Y-99979400D01*
X168820310Y-99979400D01*
X168345553Y-100073835D01*
X167943073Y-100342763D01*
X167674145Y-100745243D01*
X167579710Y-101220000D01*
X167674145Y-101694757D01*
X167926871Y-102072989D01*
X158900011Y-102072989D01*
X158660068Y-102120717D01*
X158456655Y-102256633D01*
X153756644Y-106956644D01*
X153620728Y-107160057D01*
X153573000Y-107400000D01*
X153573000Y-114744617D01*
X153523118Y-114864746D01*
X153522883Y-115134073D01*
X153625733Y-115382989D01*
X153816010Y-115573598D01*
X154064746Y-115676882D01*
X154334073Y-115677117D01*
X154460259Y-115624978D01*
X159304584Y-115624978D01*
X161000000Y-117320395D01*
X162695416Y-115624978D01*
X162474647Y-115254257D01*
X161502988Y-114860881D01*
X160454753Y-114869287D01*
X159525353Y-115254257D01*
X159304584Y-115624978D01*
X154460259Y-115624978D01*
X154582989Y-115574267D01*
X154773598Y-115383990D01*
X154876882Y-115135254D01*
X154877117Y-114865927D01*
X154827000Y-114744635D01*
X154827000Y-113235869D01*
X159566759Y-113235869D01*
X159778384Y-113748040D01*
X160169899Y-114140239D01*
X160681700Y-114352757D01*
X161235869Y-114353241D01*
X161748040Y-114141616D01*
X162010113Y-113880000D01*
X167579710Y-113880000D01*
X167674145Y-114354757D01*
X167943073Y-114757237D01*
X168345553Y-115026165D01*
X168820310Y-115120600D01*
X169179690Y-115120600D01*
X169654447Y-115026165D01*
X170056927Y-114757237D01*
X170325855Y-114354757D01*
X170420290Y-113880000D01*
X170325855Y-113405243D01*
X170056927Y-113002763D01*
X169654447Y-112733835D01*
X169179690Y-112639400D01*
X168820310Y-112639400D01*
X168345553Y-112733835D01*
X167943073Y-113002763D01*
X167674145Y-113405243D01*
X167579710Y-113880000D01*
X162010113Y-113880000D01*
X162140239Y-113750101D01*
X162352757Y-113238300D01*
X162353241Y-112684131D01*
X162141616Y-112171960D01*
X161750101Y-111779761D01*
X161587000Y-111712036D01*
X161587000Y-110365750D01*
X163749000Y-110365750D01*
X163749000Y-111069910D01*
X163845673Y-111303299D01*
X164024302Y-111481927D01*
X164257691Y-111578600D01*
X165114250Y-111578600D01*
X165273000Y-111419850D01*
X165273000Y-110207000D01*
X165527000Y-110207000D01*
X165527000Y-111419850D01*
X165685750Y-111578600D01*
X166542309Y-111578600D01*
X166775698Y-111481927D01*
X166917625Y-111340000D01*
X167579710Y-111340000D01*
X167674145Y-111814757D01*
X167943073Y-112217237D01*
X168345553Y-112486165D01*
X168820310Y-112580600D01*
X169179690Y-112580600D01*
X169654447Y-112486165D01*
X170056927Y-112217237D01*
X170325855Y-111814757D01*
X170420290Y-111340000D01*
X170325855Y-110865243D01*
X170056927Y-110462763D01*
X169654447Y-110193835D01*
X169179690Y-110099400D01*
X168820310Y-110099400D01*
X168345553Y-110193835D01*
X167943073Y-110462763D01*
X167674145Y-110865243D01*
X167579710Y-111340000D01*
X166917625Y-111340000D01*
X166954327Y-111303299D01*
X167051000Y-111069910D01*
X167051000Y-110365750D01*
X166892250Y-110207000D01*
X165527000Y-110207000D01*
X165273000Y-110207000D01*
X163907750Y-110207000D01*
X163749000Y-110365750D01*
X161587000Y-110365750D01*
X161587000Y-110099712D01*
X163519712Y-108167000D01*
X164175870Y-108167000D01*
X164343073Y-108417237D01*
X164588761Y-108581400D01*
X164257691Y-108581400D01*
X164024302Y-108678073D01*
X163845673Y-108856701D01*
X163749000Y-109090090D01*
X163749000Y-109794250D01*
X163907750Y-109953000D01*
X165273000Y-109953000D01*
X165273000Y-109933000D01*
X165527000Y-109933000D01*
X165527000Y-109953000D01*
X166892250Y-109953000D01*
X167051000Y-109794250D01*
X167051000Y-109090090D01*
X166954327Y-108856701D01*
X166775698Y-108678073D01*
X166542309Y-108581400D01*
X166211239Y-108581400D01*
X166456927Y-108417237D01*
X166725855Y-108014757D01*
X166741441Y-107936400D01*
X167599615Y-107936400D01*
X167599615Y-109663600D01*
X167625903Y-109803308D01*
X167708470Y-109931620D01*
X167834453Y-110017701D01*
X167984000Y-110047985D01*
X170016000Y-110047985D01*
X170155708Y-110021697D01*
X170284020Y-109939130D01*
X170370101Y-109813147D01*
X170400385Y-109663600D01*
X170400385Y-107936400D01*
X170374097Y-107796692D01*
X170291530Y-107668380D01*
X170165547Y-107582299D01*
X170016000Y-107552015D01*
X167984000Y-107552015D01*
X167844292Y-107578303D01*
X167715980Y-107660870D01*
X167629899Y-107786853D01*
X167599615Y-107936400D01*
X166741441Y-107936400D01*
X166820290Y-107540000D01*
X166725855Y-107065243D01*
X166456927Y-106662763D01*
X166054447Y-106393835D01*
X165579690Y-106299400D01*
X165220310Y-106299400D01*
X164745553Y-106393835D01*
X164343073Y-106662763D01*
X164175870Y-106913000D01*
X163260000Y-106913000D01*
X163020057Y-106960728D01*
X162863639Y-107065243D01*
X162816644Y-107096644D01*
X160516644Y-109396644D01*
X160380728Y-109600057D01*
X160333000Y-109840000D01*
X160333000Y-111711844D01*
X160171960Y-111778384D01*
X159779761Y-112169899D01*
X159567243Y-112681700D01*
X159566759Y-113235869D01*
X154827000Y-113235869D01*
X154827000Y-109978161D01*
X155064746Y-110076882D01*
X155334073Y-110077117D01*
X155582989Y-109974267D01*
X155773598Y-109783990D01*
X155876882Y-109535254D01*
X155877117Y-109265927D01*
X155827000Y-109144635D01*
X155827000Y-108059712D01*
X157382605Y-106504107D01*
X159975498Y-106504107D01*
X160076120Y-106772622D01*
X160691642Y-107001816D01*
X161348019Y-106978014D01*
X161843880Y-106772622D01*
X161944502Y-106504107D01*
X160960000Y-105519605D01*
X159975498Y-106504107D01*
X157382605Y-106504107D01*
X158815070Y-105071642D01*
X159298184Y-105071642D01*
X159321986Y-105728019D01*
X159527378Y-106223880D01*
X159795893Y-106324502D01*
X160780395Y-105340000D01*
X161139605Y-105340000D01*
X162124107Y-106324502D01*
X162392622Y-106223880D01*
X162621816Y-105608358D01*
X162598014Y-104951981D01*
X162392622Y-104456120D01*
X162124107Y-104355498D01*
X161139605Y-105340000D01*
X160780395Y-105340000D01*
X159795893Y-104355498D01*
X159527378Y-104456120D01*
X159298184Y-105071642D01*
X158815070Y-105071642D01*
X159859712Y-104027000D01*
X160031293Y-104027000D01*
X159975498Y-104175893D01*
X160960000Y-105160395D01*
X161944502Y-104175893D01*
X161888707Y-104027000D01*
X164486393Y-104027000D01*
X164343073Y-104122763D01*
X164074145Y-104525243D01*
X163979710Y-105000000D01*
X164074145Y-105474757D01*
X164343073Y-105877237D01*
X164745553Y-106146165D01*
X165220310Y-106240600D01*
X165579690Y-106240600D01*
X166054447Y-106146165D01*
X166456927Y-105877237D01*
X166725855Y-105474757D01*
X166820290Y-105000000D01*
X166725855Y-104525243D01*
X166456927Y-104122763D01*
X166313607Y-104027000D01*
X169497788Y-104027000D01*
X171421764Y-105950976D01*
X171390716Y-106025747D01*
X171390285Y-106519288D01*
X171578757Y-106975425D01*
X171927439Y-107324716D01*
X172383247Y-107513984D01*
X172876788Y-107514415D01*
X173332925Y-107325943D01*
X173449100Y-107209971D01*
X173449100Y-107877023D01*
X173334761Y-107762484D01*
X172878953Y-107573216D01*
X172385412Y-107572785D01*
X171929275Y-107761257D01*
X171579984Y-108109939D01*
X171390716Y-108565747D01*
X171390285Y-109059288D01*
X171578757Y-109515425D01*
X171927439Y-109864716D01*
X172383247Y-110053984D01*
X172876788Y-110054415D01*
X173332925Y-109865943D01*
X173449100Y-109749971D01*
X173449100Y-110417023D01*
X173334761Y-110302484D01*
X172878953Y-110113216D01*
X172385412Y-110112785D01*
X171929275Y-110301257D01*
X171579984Y-110649939D01*
X171390716Y-111105747D01*
X171390285Y-111599288D01*
X171578757Y-112055425D01*
X171927439Y-112404716D01*
X172383247Y-112593984D01*
X172876788Y-112594415D01*
X173332925Y-112405943D01*
X173449100Y-112289971D01*
X173449100Y-112957023D01*
X173334761Y-112842484D01*
X172878953Y-112653216D01*
X172385412Y-112652785D01*
X171929275Y-112841257D01*
X171579984Y-113189939D01*
X171390716Y-113645747D01*
X171390285Y-114139288D01*
X171578757Y-114595425D01*
X171927439Y-114944716D01*
X172383247Y-115133984D01*
X172876788Y-115134415D01*
X173332925Y-114945943D01*
X173449100Y-114829971D01*
X173449100Y-115497023D01*
X173334761Y-115382484D01*
X172878953Y-115193216D01*
X172385412Y-115192785D01*
X171929275Y-115381257D01*
X171579984Y-115729939D01*
X171390716Y-116185747D01*
X171390285Y-116679288D01*
X171578757Y-117135425D01*
X171927439Y-117484716D01*
X172383247Y-117673984D01*
X172876788Y-117674415D01*
X173332925Y-117485943D01*
X173449100Y-117369971D01*
X173449100Y-118037023D01*
X173334761Y-117922484D01*
X172878953Y-117733216D01*
X172385412Y-117732785D01*
X171929275Y-117921257D01*
X171579984Y-118269939D01*
X171390716Y-118725747D01*
X171390285Y-119219288D01*
X171578757Y-119675425D01*
X171927439Y-120024716D01*
X172383247Y-120213984D01*
X172876788Y-120214415D01*
X173332925Y-120025943D01*
X173449100Y-119909971D01*
X173449100Y-120577023D01*
X173334761Y-120462484D01*
X172878953Y-120273216D01*
X172385412Y-120272785D01*
X171929275Y-120461257D01*
X171579984Y-120809939D01*
X171390716Y-121265747D01*
X171390285Y-121759288D01*
X171578757Y-122215425D01*
X171927439Y-122564716D01*
X172383247Y-122753984D01*
X172876788Y-122754415D01*
X173332925Y-122565943D01*
X173449100Y-122449971D01*
X173449100Y-123117023D01*
X173334761Y-123002484D01*
X172878953Y-122813216D01*
X172385412Y-122812785D01*
X171929275Y-123001257D01*
X171579984Y-123349939D01*
X171390716Y-123805747D01*
X171390285Y-124299288D01*
X171578757Y-124755425D01*
X171927439Y-125104716D01*
X172383247Y-125293984D01*
X172876788Y-125294415D01*
X173332925Y-125105943D01*
X173449100Y-124989971D01*
X173449100Y-125657023D01*
X173334761Y-125542484D01*
X172878953Y-125353216D01*
X172385412Y-125352785D01*
X171929275Y-125541257D01*
X171579984Y-125889939D01*
X171390716Y-126345747D01*
X171390285Y-126839288D01*
X171578757Y-127295425D01*
X171927439Y-127644716D01*
X172383247Y-127833984D01*
X172876788Y-127834415D01*
X173332925Y-127645943D01*
X173449100Y-127529971D01*
X173449100Y-128197023D01*
X173334761Y-128082484D01*
X172878953Y-127893216D01*
X172385412Y-127892785D01*
X171929275Y-128081257D01*
X171579984Y-128429939D01*
X171390716Y-128885747D01*
X171390285Y-129379288D01*
X171578757Y-129835425D01*
X171694729Y-129951600D01*
X169390669Y-129951600D01*
X169484020Y-129891530D01*
X169570101Y-129765547D01*
X169600385Y-129616000D01*
X169600385Y-127584000D01*
X169574097Y-127444292D01*
X169491530Y-127315980D01*
X169365547Y-127229899D01*
X169216000Y-127199615D01*
X167184000Y-127199615D01*
X167044292Y-127225903D01*
X166915980Y-127308470D01*
X166829899Y-127434453D01*
X166822730Y-127469855D01*
X166524818Y-127193615D01*
X166042944Y-126994025D01*
X165787000Y-127113164D01*
X165787000Y-128473000D01*
X165807000Y-128473000D01*
X165807000Y-128727000D01*
X165787000Y-128727000D01*
X165787000Y-128747000D01*
X165533000Y-128747000D01*
X165533000Y-128727000D01*
X164172633Y-128727000D01*
X164054017Y-128982946D01*
X164322812Y-129568379D01*
X164736099Y-129951600D01*
X155330669Y-129951600D01*
X155424020Y-129891530D01*
X155510101Y-129765547D01*
X155540385Y-129616000D01*
X155540385Y-128217054D01*
X164054017Y-128217054D01*
X164172633Y-128473000D01*
X165533000Y-128473000D01*
X165533000Y-127113164D01*
X165277056Y-126994025D01*
X164795182Y-127193615D01*
X164322812Y-127631621D01*
X164054017Y-128217054D01*
X155540385Y-128217054D01*
X155540385Y-127584000D01*
X155514097Y-127444292D01*
X155431530Y-127315980D01*
X155305547Y-127229899D01*
X155156000Y-127199615D01*
X153124000Y-127199615D01*
X152984292Y-127225903D01*
X152855980Y-127308470D01*
X152769899Y-127434453D01*
X152739615Y-127584000D01*
X152739615Y-127819108D01*
X152585000Y-127587710D01*
X152133078Y-127285746D01*
X151600000Y-127179710D01*
X151066922Y-127285746D01*
X150615000Y-127587710D01*
X150313036Y-128039632D01*
X150207000Y-128572710D01*
X150207000Y-128627290D01*
X150313036Y-129160368D01*
X150615000Y-129612290D01*
X151066922Y-129914254D01*
X151254673Y-129951600D01*
X149588100Y-129951600D01*
X149588100Y-129133600D01*
X149553694Y-128960627D01*
X149455712Y-128813988D01*
X149309073Y-128716006D01*
X149136100Y-128681600D01*
X147866100Y-128681600D01*
X147693127Y-128716006D01*
X147546488Y-128813988D01*
X147448506Y-128960627D01*
X147414100Y-129133600D01*
X147414100Y-129951600D01*
X146390669Y-129951600D01*
X146484020Y-129891530D01*
X146570101Y-129765547D01*
X146600385Y-129616000D01*
X146600385Y-127584000D01*
X146574097Y-127444292D01*
X146491530Y-127315980D01*
X146365547Y-127229899D01*
X146216000Y-127199615D01*
X144184000Y-127199615D01*
X144044292Y-127225903D01*
X143915980Y-127308470D01*
X143829899Y-127434453D01*
X143799615Y-127584000D01*
X143799615Y-127819108D01*
X143645000Y-127587710D01*
X143193078Y-127285746D01*
X142660000Y-127179710D01*
X142126922Y-127285746D01*
X141675000Y-127587710D01*
X141373036Y-128039632D01*
X141267000Y-128572710D01*
X141267000Y-128627290D01*
X141373036Y-129160368D01*
X141675000Y-129612290D01*
X142126922Y-129914254D01*
X142314673Y-129951600D01*
X136231744Y-129951600D01*
X136263309Y-129930509D01*
X138246909Y-127946910D01*
X138491211Y-127581285D01*
X138576999Y-127150001D01*
X138576999Y-125816817D01*
X138996908Y-125396909D01*
X139154865Y-125239228D01*
X139326802Y-124825158D01*
X139327193Y-124376809D01*
X139155979Y-123962440D01*
X138996910Y-123803092D01*
X138996906Y-123803088D01*
X138839226Y-123645133D01*
X138425156Y-123473196D01*
X137976807Y-123472805D01*
X137562438Y-123644019D01*
X137245131Y-123960772D01*
X137244935Y-123961244D01*
X136653090Y-124553090D01*
X136408787Y-124918715D01*
X136322999Y-125349999D01*
X136322999Y-126683182D01*
X134999582Y-128006600D01*
X124892012Y-128006600D01*
X124618953Y-127893216D01*
X124125412Y-127892785D01*
X123669275Y-128081257D01*
X123553100Y-128197229D01*
X123553100Y-127530177D01*
X123667439Y-127644716D01*
X124123247Y-127833984D01*
X124616788Y-127834415D01*
X124892241Y-127720600D01*
X125592414Y-127720600D01*
X126023698Y-127634812D01*
X126389323Y-127390509D01*
X127396909Y-126382923D01*
X127641212Y-126017298D01*
X127727000Y-125586014D01*
X127727000Y-117266818D01*
X127859745Y-117134073D01*
X128322879Y-117134073D01*
X128425729Y-117382989D01*
X128616006Y-117573598D01*
X128864742Y-117676882D01*
X129134069Y-117677117D01*
X129255361Y-117627000D01*
X130140288Y-117627000D01*
X133976061Y-121462773D01*
X134025733Y-121582989D01*
X134216010Y-121773598D01*
X134464746Y-121876882D01*
X134734073Y-121877117D01*
X134982989Y-121774267D01*
X135173598Y-121583990D01*
X135276882Y-121335254D01*
X135277117Y-121065927D01*
X135174267Y-120817011D01*
X134983990Y-120626402D01*
X134862786Y-120576074D01*
X133661734Y-119375022D01*
X134304584Y-119375022D01*
X134525353Y-119745743D01*
X135497012Y-120139119D01*
X136545247Y-120130713D01*
X137474647Y-119745743D01*
X137695416Y-119375022D01*
X136000000Y-117679605D01*
X134304584Y-119375022D01*
X133661734Y-119375022D01*
X131283724Y-116997012D01*
X133360881Y-116997012D01*
X133369287Y-118045247D01*
X133754257Y-118974647D01*
X134124978Y-119195416D01*
X135820395Y-117500000D01*
X136179605Y-117500000D01*
X137875022Y-119195416D01*
X138220230Y-118989840D01*
X138220728Y-118992343D01*
X138356417Y-119195416D01*
X138356644Y-119195756D01*
X139442951Y-120282063D01*
X139379710Y-120600000D01*
X139474145Y-121074757D01*
X139743073Y-121477237D01*
X140145553Y-121746165D01*
X140620310Y-121840600D01*
X140979690Y-121840600D01*
X141454447Y-121746165D01*
X141856927Y-121477237D01*
X142125855Y-121074757D01*
X142220290Y-120600000D01*
X142125855Y-120125243D01*
X141856927Y-119722763D01*
X141454447Y-119453835D01*
X141434439Y-119449855D01*
X141714320Y-119351954D01*
X142150732Y-118962036D01*
X142404709Y-118434791D01*
X142407358Y-118419026D01*
X142286217Y-118187000D01*
X140927000Y-118187000D01*
X140927000Y-118207000D01*
X140673000Y-118207000D01*
X140673000Y-118187000D01*
X140653000Y-118187000D01*
X140653000Y-117933000D01*
X140673000Y-117933000D01*
X140673000Y-116719076D01*
X140927000Y-116719076D01*
X140927000Y-117933000D01*
X142286217Y-117933000D01*
X142407358Y-117700974D01*
X142404709Y-117685209D01*
X142150732Y-117157964D01*
X141714320Y-116768046D01*
X141161913Y-116574816D01*
X140927000Y-116719076D01*
X140673000Y-116719076D01*
X140438087Y-116574816D01*
X139885680Y-116768046D01*
X139449268Y-117157964D01*
X139427000Y-117204191D01*
X139427000Y-114124107D01*
X139655498Y-114124107D01*
X139756120Y-114392622D01*
X140371642Y-114621816D01*
X141028019Y-114598014D01*
X141523880Y-114392622D01*
X141624502Y-114124107D01*
X140640000Y-113139605D01*
X139655498Y-114124107D01*
X139427000Y-114124107D01*
X139427000Y-113926180D01*
X139475893Y-113944502D01*
X140460395Y-112960000D01*
X140819605Y-112960000D01*
X141804107Y-113944502D01*
X142072622Y-113843880D01*
X142301816Y-113228358D01*
X142278014Y-112571981D01*
X142072622Y-112076120D01*
X141804107Y-111975498D01*
X140819605Y-112960000D01*
X140460395Y-112960000D01*
X139475893Y-111975498D01*
X139427000Y-111993820D01*
X139427000Y-111795893D01*
X139655498Y-111795893D01*
X140640000Y-112780395D01*
X141624502Y-111795893D01*
X141523880Y-111527378D01*
X140908358Y-111298184D01*
X140251981Y-111321986D01*
X139756120Y-111527378D01*
X139655498Y-111795893D01*
X139427000Y-111795893D01*
X139427000Y-104899712D01*
X140200776Y-104125936D01*
X140361700Y-104192757D01*
X140915869Y-104193241D01*
X141428040Y-103981616D01*
X141820239Y-103590101D01*
X142032757Y-103078300D01*
X142033241Y-102524131D01*
X141821616Y-102011960D01*
X141430101Y-101619761D01*
X140918300Y-101407243D01*
X140364131Y-101406759D01*
X139851960Y-101618384D01*
X139459761Y-102009899D01*
X139247243Y-102521700D01*
X139246759Y-103075869D01*
X139314200Y-103239088D01*
X138356644Y-104196644D01*
X138220728Y-104400057D01*
X138173000Y-104640000D01*
X138173000Y-115982034D01*
X137875022Y-115804584D01*
X136179605Y-117500000D01*
X135820395Y-117500000D01*
X134124978Y-115804584D01*
X133754257Y-116025353D01*
X133360881Y-116997012D01*
X131283724Y-116997012D01*
X130843356Y-116556644D01*
X130639943Y-116420728D01*
X130400000Y-116373000D01*
X129255379Y-116373000D01*
X129135250Y-116323118D01*
X128865923Y-116322883D01*
X128617007Y-116425733D01*
X128426398Y-116616010D01*
X128323114Y-116864746D01*
X128322879Y-117134073D01*
X127859745Y-117134073D01*
X129368840Y-115624978D01*
X134304584Y-115624978D01*
X136000000Y-117320395D01*
X137695416Y-115624978D01*
X137474647Y-115254257D01*
X136502988Y-114860881D01*
X135454753Y-114869287D01*
X134525353Y-115254257D01*
X134304584Y-115624978D01*
X129368840Y-115624978D01*
X130878251Y-114115567D01*
X131360803Y-114115567D01*
X131533840Y-114534349D01*
X131853966Y-114855034D01*
X132272445Y-115028802D01*
X132725567Y-115029197D01*
X133144349Y-114856160D01*
X133465034Y-114536034D01*
X133638802Y-114117555D01*
X133639197Y-113664433D01*
X133466160Y-113245651D01*
X133146034Y-112924966D01*
X132727555Y-112751198D01*
X132455791Y-112750961D01*
X132847368Y-112731362D01*
X133231143Y-112572397D01*
X133300608Y-112330213D01*
X132500000Y-111529605D01*
X131699392Y-112330213D01*
X131768857Y-112572397D01*
X132271880Y-112751858D01*
X131855651Y-112923840D01*
X131534966Y-113243966D01*
X131361198Y-113662445D01*
X131360803Y-114115567D01*
X130878251Y-114115567D01*
X130996909Y-113996909D01*
X131241212Y-113631284D01*
X131327000Y-113200000D01*
X131327000Y-112095311D01*
X131519787Y-112150608D01*
X132320395Y-111350000D01*
X132679605Y-111350000D01*
X133480213Y-112150608D01*
X133722397Y-112081143D01*
X133909144Y-111557698D01*
X133881362Y-111002632D01*
X133722397Y-110618857D01*
X133480213Y-110549392D01*
X132679605Y-111350000D01*
X132320395Y-111350000D01*
X132306253Y-111335858D01*
X132485858Y-111156253D01*
X132500000Y-111170395D01*
X133300608Y-110369787D01*
X133231143Y-110127603D01*
X132895840Y-110007978D01*
X133115905Y-109787913D01*
X133144349Y-109776160D01*
X133465034Y-109456034D01*
X133638802Y-109037555D01*
X133639197Y-108584433D01*
X133466160Y-108165651D01*
X133146034Y-107844966D01*
X132727555Y-107671198D01*
X132274433Y-107670803D01*
X131855651Y-107843840D01*
X131534966Y-108163966D01*
X131522717Y-108193465D01*
X129403091Y-110313091D01*
X129158788Y-110678716D01*
X129073000Y-111110000D01*
X129073000Y-112733182D01*
X125803091Y-116003091D01*
X125611826Y-116289338D01*
X125611915Y-116187912D01*
X125423443Y-115731775D01*
X125074761Y-115382484D01*
X124805314Y-115270600D01*
X125592414Y-115270600D01*
X126119369Y-115165782D01*
X126566100Y-114867286D01*
X127973687Y-113459699D01*
X128272183Y-113012968D01*
X128377001Y-112486013D01*
X128377001Y-110370371D01*
X128973686Y-109773686D01*
X129166683Y-109581026D01*
X129376760Y-109075104D01*
X129377238Y-108527299D01*
X129168044Y-108021011D01*
X128781026Y-107633317D01*
X128597145Y-107556963D01*
X128653355Y-107545782D01*
X129100086Y-107247286D01*
X129851805Y-106495567D01*
X131360803Y-106495567D01*
X131533840Y-106914349D01*
X131853966Y-107235034D01*
X132272445Y-107408802D01*
X132725567Y-107409197D01*
X133144349Y-107236160D01*
X133465034Y-106916034D01*
X133638802Y-106497555D01*
X133639197Y-106044433D01*
X133466160Y-105625651D01*
X133146034Y-105304966D01*
X132727555Y-105131198D01*
X132274433Y-105130803D01*
X131855651Y-105303840D01*
X131534966Y-105623966D01*
X131361198Y-106042445D01*
X131360803Y-106495567D01*
X129851805Y-106495567D01*
X131370372Y-104977000D01*
X134400000Y-104977000D01*
X134926955Y-104872182D01*
X135373686Y-104573686D01*
X140130330Y-99817042D01*
X142573000Y-102259712D01*
X142573000Y-121996288D01*
X142200385Y-122368903D01*
X142200385Y-122276400D01*
X142174097Y-122136692D01*
X142091530Y-122008380D01*
X141965547Y-121922299D01*
X141816000Y-121892015D01*
X139784000Y-121892015D01*
X139644292Y-121918303D01*
X139515980Y-122000870D01*
X139429899Y-122126853D01*
X139399615Y-122276400D01*
X139399615Y-124003600D01*
X139425903Y-124143308D01*
X139508470Y-124271620D01*
X139634453Y-124357701D01*
X139784000Y-124387985D01*
X141816000Y-124387985D01*
X141955708Y-124361697D01*
X142084020Y-124279130D01*
X142170101Y-124153147D01*
X142200385Y-124003600D01*
X142200385Y-123767000D01*
X142316000Y-123767000D01*
X142555943Y-123719272D01*
X142759356Y-123583356D01*
X143643356Y-122699356D01*
X143779273Y-122495942D01*
X143827000Y-122256000D01*
X143827000Y-117082400D01*
X154498015Y-117082400D01*
X154498015Y-119317600D01*
X154524303Y-119457308D01*
X154606870Y-119585620D01*
X154732853Y-119671701D01*
X154882400Y-119701985D01*
X157117600Y-119701985D01*
X157257308Y-119675697D01*
X157385620Y-119593130D01*
X157471701Y-119467147D01*
X157490356Y-119375022D01*
X159304584Y-119375022D01*
X159525353Y-119745743D01*
X160497012Y-120139119D01*
X161545247Y-120130713D01*
X162474647Y-119745743D01*
X162695416Y-119375022D01*
X161000000Y-117679605D01*
X159304584Y-119375022D01*
X157490356Y-119375022D01*
X157501985Y-119317600D01*
X157501985Y-117082400D01*
X157485919Y-116997012D01*
X158360881Y-116997012D01*
X158369287Y-118045247D01*
X158754257Y-118974647D01*
X159124978Y-119195416D01*
X160820395Y-117500000D01*
X161179605Y-117500000D01*
X162875022Y-119195416D01*
X163245743Y-118974647D01*
X163639119Y-118002988D01*
X163630713Y-116954753D01*
X163409212Y-116420000D01*
X167579710Y-116420000D01*
X167674145Y-116894757D01*
X167943073Y-117297237D01*
X168345553Y-117566165D01*
X168820310Y-117660600D01*
X169179690Y-117660600D01*
X169654447Y-117566165D01*
X170056927Y-117297237D01*
X170325855Y-116894757D01*
X170420290Y-116420000D01*
X170325855Y-115945243D01*
X170056927Y-115542763D01*
X169654447Y-115273835D01*
X169179690Y-115179400D01*
X168820310Y-115179400D01*
X168345553Y-115273835D01*
X167943073Y-115542763D01*
X167674145Y-115945243D01*
X167579710Y-116420000D01*
X163409212Y-116420000D01*
X163245743Y-116025353D01*
X162875022Y-115804584D01*
X161179605Y-117500000D01*
X160820395Y-117500000D01*
X159124978Y-115804584D01*
X158754257Y-116025353D01*
X158360881Y-116997012D01*
X157485919Y-116997012D01*
X157475697Y-116942692D01*
X157393130Y-116814380D01*
X157267147Y-116728299D01*
X157117600Y-116698015D01*
X154882400Y-116698015D01*
X154742692Y-116724303D01*
X154614380Y-116806870D01*
X154528299Y-116932853D01*
X154498015Y-117082400D01*
X143827000Y-117082400D01*
X143827000Y-115134073D01*
X144322883Y-115134073D01*
X144425733Y-115382989D01*
X144616010Y-115573598D01*
X144864746Y-115676882D01*
X145134073Y-115677117D01*
X145382989Y-115574267D01*
X145425330Y-115532000D01*
X149239617Y-115532000D01*
X149359746Y-115581882D01*
X149629073Y-115582117D01*
X149877989Y-115479267D01*
X150068598Y-115288990D01*
X150171882Y-115040254D01*
X150172117Y-114770927D01*
X150069267Y-114522011D01*
X149878990Y-114331402D01*
X149630254Y-114228118D01*
X149360927Y-114227883D01*
X149239635Y-114278000D01*
X145095000Y-114278000D01*
X144869345Y-114322886D01*
X144865927Y-114322883D01*
X144862740Y-114324200D01*
X144855057Y-114325728D01*
X144848600Y-114330042D01*
X144617011Y-114425733D01*
X144426402Y-114616010D01*
X144323118Y-114864746D01*
X144322883Y-115134073D01*
X143827000Y-115134073D01*
X143827000Y-102000000D01*
X143779272Y-101760057D01*
X143643356Y-101556644D01*
X142622581Y-100535869D01*
X159566759Y-100535869D01*
X159778384Y-101048040D01*
X160169899Y-101440239D01*
X160681700Y-101652757D01*
X161235869Y-101653241D01*
X161748040Y-101441616D01*
X162140239Y-101050101D01*
X162352757Y-100538300D01*
X162353241Y-99984131D01*
X162141616Y-99471960D01*
X161750101Y-99079761D01*
X161238300Y-98867243D01*
X160684131Y-98866759D01*
X160171960Y-99078384D01*
X159779761Y-99469899D01*
X159567243Y-99981700D01*
X159566759Y-100535869D01*
X142622581Y-100535869D01*
X141017042Y-98930330D01*
X141267372Y-98680000D01*
X167579710Y-98680000D01*
X167674145Y-99154757D01*
X167943073Y-99557237D01*
X168345553Y-99826165D01*
X168820310Y-99920600D01*
X169179690Y-99920600D01*
X169654447Y-99826165D01*
X170056927Y-99557237D01*
X170325855Y-99154757D01*
X170420290Y-98680000D01*
X170325855Y-98205243D01*
X170056927Y-97802763D01*
X169654447Y-97533835D01*
X169179690Y-97439400D01*
X168820310Y-97439400D01*
X168345553Y-97533835D01*
X167943073Y-97802763D01*
X167674145Y-98205243D01*
X167579710Y-98680000D01*
X141267372Y-98680000D01*
X141613686Y-98333686D01*
X141912182Y-97886955D01*
X142017000Y-97360000D01*
X142017000Y-96140000D01*
X167579710Y-96140000D01*
X167674145Y-96614757D01*
X167943073Y-97017237D01*
X168345553Y-97286165D01*
X168820310Y-97380600D01*
X169179690Y-97380600D01*
X169654447Y-97286165D01*
X170056927Y-97017237D01*
X170325855Y-96614757D01*
X170420290Y-96140000D01*
X170325855Y-95665243D01*
X170056927Y-95262763D01*
X169654447Y-94993835D01*
X169179690Y-94899400D01*
X168820310Y-94899400D01*
X168345553Y-94993835D01*
X167943073Y-95262763D01*
X167674145Y-95665243D01*
X167579710Y-96140000D01*
X142017000Y-96140000D01*
X142017000Y-94375022D01*
X159304584Y-94375022D01*
X159525353Y-94745743D01*
X160497012Y-95139119D01*
X161545247Y-95130713D01*
X162474647Y-94745743D01*
X162695416Y-94375022D01*
X161000000Y-92679605D01*
X159304584Y-94375022D01*
X142017000Y-94375022D01*
X142017000Y-94017000D01*
X153360000Y-94017000D01*
X153886955Y-93912182D01*
X154333686Y-93613686D01*
X155950360Y-91997012D01*
X158360881Y-91997012D01*
X158369287Y-93045247D01*
X158754257Y-93974647D01*
X159124978Y-94195416D01*
X160820395Y-92500000D01*
X161179605Y-92500000D01*
X162875022Y-94195416D01*
X163245743Y-93974647D01*
X163639119Y-93002988D01*
X163636982Y-92736400D01*
X167599615Y-92736400D01*
X167599615Y-94463600D01*
X167625903Y-94603308D01*
X167708470Y-94731620D01*
X167834453Y-94817701D01*
X167984000Y-94847985D01*
X170016000Y-94847985D01*
X170155708Y-94821697D01*
X170284020Y-94739130D01*
X170370101Y-94613147D01*
X170400385Y-94463600D01*
X170400385Y-92736400D01*
X170374097Y-92596692D01*
X170291530Y-92468380D01*
X170165547Y-92382299D01*
X170016000Y-92352015D01*
X167984000Y-92352015D01*
X167844292Y-92378303D01*
X167715980Y-92460870D01*
X167629899Y-92586853D01*
X167599615Y-92736400D01*
X163636982Y-92736400D01*
X163630713Y-91954753D01*
X163245743Y-91025353D01*
X162875022Y-90804584D01*
X161179605Y-92500000D01*
X160820395Y-92500000D01*
X159124978Y-90804584D01*
X158754257Y-91025353D01*
X158360881Y-91997012D01*
X155950360Y-91997012D01*
X157122979Y-90824393D01*
X157122883Y-90934073D01*
X157225733Y-91182989D01*
X157416010Y-91373598D01*
X157664746Y-91476882D01*
X157934073Y-91477117D01*
X158182989Y-91374267D01*
X158373598Y-91183990D01*
X158423926Y-91062786D01*
X158861734Y-90624978D01*
X159304584Y-90624978D01*
X161000000Y-92320395D01*
X162695416Y-90624978D01*
X162474647Y-90254257D01*
X161502988Y-89860881D01*
X160454753Y-89869287D01*
X159525353Y-90254257D01*
X159304584Y-90624978D01*
X158861734Y-90624978D01*
X160459712Y-89027000D01*
X160744617Y-89027000D01*
X160864746Y-89076882D01*
X161134073Y-89077117D01*
X161382989Y-88974267D01*
X161384548Y-88972710D01*
X165207000Y-88972710D01*
X165207000Y-89027290D01*
X165313036Y-89560368D01*
X165615000Y-90012290D01*
X166066922Y-90314254D01*
X166600000Y-90420290D01*
X167133078Y-90314254D01*
X167585000Y-90012290D01*
X167739615Y-89780892D01*
X167739615Y-90016000D01*
X167765903Y-90155708D01*
X167848470Y-90284020D01*
X167974453Y-90370101D01*
X168124000Y-90400385D01*
X170156000Y-90400385D01*
X170295708Y-90374097D01*
X170424020Y-90291530D01*
X170510101Y-90165547D01*
X170540385Y-90016000D01*
X170540385Y-87984000D01*
X170514097Y-87844292D01*
X170431530Y-87715980D01*
X170305547Y-87629899D01*
X170156000Y-87599615D01*
X168124000Y-87599615D01*
X167984292Y-87625903D01*
X167855980Y-87708470D01*
X167769899Y-87834453D01*
X167739615Y-87984000D01*
X167739615Y-88219108D01*
X167585000Y-87987710D01*
X167133078Y-87685746D01*
X166600000Y-87579710D01*
X166066922Y-87685746D01*
X165615000Y-87987710D01*
X165313036Y-88439632D01*
X165207000Y-88972710D01*
X161384548Y-88972710D01*
X161573598Y-88783990D01*
X161676882Y-88535254D01*
X161677117Y-88265927D01*
X161574267Y-88017011D01*
X161383990Y-87826402D01*
X161135254Y-87723118D01*
X160865927Y-87722883D01*
X160744635Y-87773000D01*
X160200000Y-87773000D01*
X160168009Y-87779363D01*
X161170372Y-86777000D01*
X162734954Y-86777000D01*
X162617011Y-86825733D01*
X162426402Y-87016010D01*
X162323118Y-87264746D01*
X162322883Y-87534073D01*
X162425733Y-87782989D01*
X162616010Y-87973598D01*
X162864746Y-88076882D01*
X163134073Y-88077117D01*
X163382989Y-87974267D01*
X163573598Y-87783990D01*
X163623926Y-87662786D01*
X164483356Y-86803356D01*
X164537126Y-86722883D01*
X164619272Y-86599943D01*
X164667000Y-86360000D01*
X164667000Y-86236372D01*
X165013686Y-85889686D01*
X165312182Y-85442955D01*
X165417000Y-84916000D01*
X165417000Y-82369812D01*
X165433835Y-82454447D01*
X165702763Y-82856927D01*
X166105243Y-83125855D01*
X166580000Y-83220290D01*
X167054757Y-83125855D01*
X167457237Y-82856927D01*
X167726165Y-82454447D01*
X167730145Y-82434439D01*
X167828046Y-82714320D01*
X168217964Y-83150732D01*
X168745209Y-83404709D01*
X168760974Y-83407358D01*
X168993000Y-83286217D01*
X168993000Y-81927000D01*
X169247000Y-81927000D01*
X169247000Y-83286217D01*
X169479026Y-83407358D01*
X169494791Y-83404709D01*
X170022036Y-83150732D01*
X170411954Y-82714320D01*
X170605184Y-82161913D01*
X170460924Y-81927000D01*
X169247000Y-81927000D01*
X168993000Y-81927000D01*
X168973000Y-81927000D01*
X168973000Y-81673000D01*
X168993000Y-81673000D01*
X168993000Y-80313783D01*
X169247000Y-80313783D01*
X169247000Y-81673000D01*
X170460924Y-81673000D01*
X170605184Y-81438087D01*
X170411954Y-80885680D01*
X170022036Y-80449268D01*
X169494791Y-80195291D01*
X169479026Y-80192642D01*
X169247000Y-80313783D01*
X168993000Y-80313783D01*
X168760974Y-80192642D01*
X168745209Y-80195291D01*
X168217964Y-80449268D01*
X167828046Y-80885680D01*
X167730145Y-81165561D01*
X167726165Y-81145553D01*
X167457237Y-80743073D01*
X167054757Y-80474145D01*
X166580000Y-80379710D01*
X166105243Y-80474145D01*
X165702763Y-80743073D01*
X165433835Y-81145553D01*
X165350383Y-81565094D01*
X165312182Y-81373045D01*
X165197181Y-81200934D01*
X165186165Y-81145553D01*
X164917237Y-80743073D01*
X164514757Y-80474145D01*
X164040000Y-80379710D01*
X163565243Y-80474145D01*
X163162763Y-80743073D01*
X162893835Y-81145553D01*
X162889855Y-81165561D01*
X162791954Y-80885680D01*
X162402036Y-80449268D01*
X161874791Y-80195291D01*
X161859026Y-80192642D01*
X161627000Y-80313783D01*
X161627000Y-81673000D01*
X161647000Y-81673000D01*
X161647000Y-81927000D01*
X161627000Y-81927000D01*
X161627000Y-83286217D01*
X161859026Y-83407358D01*
X161874791Y-83404709D01*
X162402036Y-83150732D01*
X162663000Y-82858651D01*
X162663000Y-84023000D01*
X157797000Y-84023000D01*
X157797000Y-82369812D01*
X157813835Y-82454447D01*
X158082763Y-82856927D01*
X158485243Y-83125855D01*
X158960000Y-83220290D01*
X159434757Y-83125855D01*
X159837237Y-82856927D01*
X160106165Y-82454447D01*
X160110145Y-82434439D01*
X160208046Y-82714320D01*
X160597964Y-83150732D01*
X161125209Y-83404709D01*
X161140974Y-83407358D01*
X161373000Y-83286217D01*
X161373000Y-81927000D01*
X161353000Y-81927000D01*
X161353000Y-81673000D01*
X161373000Y-81673000D01*
X161373000Y-80313783D01*
X161140974Y-80192642D01*
X161125209Y-80195291D01*
X160597964Y-80449268D01*
X160208046Y-80885680D01*
X160110145Y-81165561D01*
X160106165Y-81145553D01*
X159837237Y-80743073D01*
X159434757Y-80474145D01*
X158960000Y-80379710D01*
X158485243Y-80474145D01*
X158082763Y-80743073D01*
X157813835Y-81145553D01*
X157730383Y-81565094D01*
X157692182Y-81373045D01*
X157667985Y-81336832D01*
X157667985Y-80784000D01*
X157641697Y-80644292D01*
X157559130Y-80515980D01*
X157433147Y-80429899D01*
X157283600Y-80399615D01*
X155556400Y-80399615D01*
X155416692Y-80425903D01*
X155288380Y-80508470D01*
X155202299Y-80634453D01*
X155172015Y-80784000D01*
X155172015Y-81336832D01*
X155147818Y-81373045D01*
X155043000Y-81900000D01*
X155043000Y-84916000D01*
X155147818Y-85442955D01*
X155446314Y-85889686D01*
X155872999Y-86316371D01*
X155872999Y-86802599D01*
X155817011Y-86825733D01*
X155626402Y-87016010D01*
X155523118Y-87264746D01*
X155522883Y-87534073D01*
X155625733Y-87782989D01*
X155816010Y-87973598D01*
X156001859Y-88050769D01*
X152789628Y-91263000D01*
X140956247Y-91263000D01*
X140918300Y-91247243D01*
X140364131Y-91246759D01*
X139851960Y-91458384D01*
X139459761Y-91849899D01*
X139247243Y-92361700D01*
X139246759Y-92915869D01*
X139263000Y-92955175D01*
X139263000Y-96789628D01*
X133829628Y-102223000D01*
X132982584Y-102223000D01*
X133144349Y-102156160D01*
X133465034Y-101836034D01*
X133638802Y-101417555D01*
X133639197Y-100964433D01*
X133466160Y-100545651D01*
X133146034Y-100224966D01*
X132727555Y-100051198D01*
X132274433Y-100050803D01*
X131855651Y-100223840D01*
X131534966Y-100543966D01*
X131361198Y-100962445D01*
X131360803Y-101415567D01*
X131533840Y-101834349D01*
X131853966Y-102155034D01*
X132017646Y-102223000D01*
X130800000Y-102223000D01*
X130273045Y-102327818D01*
X129826314Y-102626314D01*
X127556028Y-104896600D01*
X125209894Y-104896600D01*
X125245300Y-104787405D01*
X124371100Y-103913205D01*
X124356958Y-103927348D01*
X124177353Y-103747743D01*
X124191495Y-103733600D01*
X124550705Y-103733600D01*
X125424905Y-104607800D01*
X125677616Y-104525859D01*
X125881348Y-103965570D01*
X125855158Y-103369965D01*
X125677616Y-102941341D01*
X125424905Y-102859400D01*
X124550705Y-103733600D01*
X124191495Y-103733600D01*
X124177353Y-103719458D01*
X124356958Y-103539853D01*
X124371100Y-103553995D01*
X125245300Y-102679795D01*
X125163359Y-102427084D01*
X124882071Y-102324802D01*
X125072925Y-102245943D01*
X125246467Y-102072703D01*
X126622762Y-102072703D01*
X126831956Y-102578991D01*
X127218974Y-102966685D01*
X127724896Y-103176762D01*
X128272701Y-103177240D01*
X128778989Y-102968046D01*
X129166683Y-102581028D01*
X129376760Y-102075106D01*
X129377238Y-101527301D01*
X129377000Y-101526725D01*
X129377000Y-98875567D01*
X131360803Y-98875567D01*
X131533840Y-99294349D01*
X131853966Y-99615034D01*
X132272445Y-99788802D01*
X132725567Y-99789197D01*
X133144349Y-99616160D01*
X133465034Y-99296034D01*
X133638802Y-98877555D01*
X133639197Y-98424433D01*
X133466160Y-98005651D01*
X133146034Y-97684966D01*
X132727555Y-97511198D01*
X132274433Y-97510803D01*
X131855651Y-97683840D01*
X131534966Y-98003966D01*
X131361198Y-98422445D01*
X131360803Y-98875567D01*
X129377000Y-98875567D01*
X129377000Y-96335567D01*
X131360803Y-96335567D01*
X131533840Y-96754349D01*
X131853966Y-97075034D01*
X132272445Y-97248802D01*
X132725567Y-97249197D01*
X133144349Y-97076160D01*
X133465034Y-96756034D01*
X133638802Y-96337555D01*
X133639197Y-95884433D01*
X133466160Y-95465651D01*
X133146034Y-95144966D01*
X132727555Y-94971198D01*
X132274433Y-94970803D01*
X131855651Y-95143840D01*
X131534966Y-95463966D01*
X131361198Y-95882445D01*
X131360803Y-96335567D01*
X129377000Y-96335567D01*
X129377000Y-94375022D01*
X134304584Y-94375022D01*
X134525353Y-94745743D01*
X135497012Y-95139119D01*
X136545247Y-95130713D01*
X137474647Y-94745743D01*
X137695416Y-94375022D01*
X136000000Y-92679605D01*
X134304584Y-94375022D01*
X129377000Y-94375022D01*
X129377000Y-93570372D01*
X130950360Y-91997012D01*
X133360881Y-91997012D01*
X133369287Y-93045247D01*
X133754257Y-93974647D01*
X134124978Y-94195416D01*
X135820395Y-92500000D01*
X136179605Y-92500000D01*
X137875022Y-94195416D01*
X138245743Y-93974647D01*
X138639119Y-93002988D01*
X138630713Y-91954753D01*
X138245743Y-91025353D01*
X137875022Y-90804584D01*
X136179605Y-92500000D01*
X135820395Y-92500000D01*
X134124978Y-90804584D01*
X133754257Y-91025353D01*
X133360881Y-91997012D01*
X130950360Y-91997012D01*
X132322394Y-90624978D01*
X134304584Y-90624978D01*
X136000000Y-92320395D01*
X137695416Y-90624978D01*
X137474647Y-90254257D01*
X136502988Y-89860881D01*
X135454753Y-89869287D01*
X134525353Y-90254257D01*
X134304584Y-90624978D01*
X132322394Y-90624978D01*
X133170372Y-89777000D01*
X139000000Y-89777000D01*
X139526955Y-89672182D01*
X139973686Y-89373686D01*
X140663686Y-88683686D01*
X140962182Y-88236955D01*
X141067000Y-87710000D01*
X141067000Y-86225567D01*
X141090803Y-86225567D01*
X141263840Y-86644349D01*
X141583966Y-86965034D01*
X142002445Y-87138802D01*
X142455567Y-87139197D01*
X142874349Y-86966160D01*
X143195034Y-86646034D01*
X143368802Y-86227555D01*
X143368803Y-86225567D01*
X146170803Y-86225567D01*
X146343840Y-86644349D01*
X146663966Y-86965034D01*
X147082445Y-87138802D01*
X147535567Y-87139197D01*
X147954349Y-86966160D01*
X148275034Y-86646034D01*
X148448802Y-86227555D01*
X148448803Y-86225567D01*
X148710803Y-86225567D01*
X148883840Y-86644349D01*
X149203966Y-86965034D01*
X149622445Y-87138802D01*
X150075567Y-87139197D01*
X150460338Y-86980213D01*
X151589392Y-86980213D01*
X151658857Y-87222397D01*
X152182302Y-87409144D01*
X152737368Y-87381362D01*
X153121143Y-87222397D01*
X153190608Y-86980213D01*
X152390000Y-86179605D01*
X151589392Y-86980213D01*
X150460338Y-86980213D01*
X150494349Y-86966160D01*
X150815034Y-86646034D01*
X150988802Y-86227555D01*
X150989039Y-85955791D01*
X151008638Y-86347368D01*
X151167603Y-86731143D01*
X151409787Y-86800608D01*
X152210395Y-86000000D01*
X152569605Y-86000000D01*
X153370213Y-86800608D01*
X153612397Y-86731143D01*
X153799144Y-86207698D01*
X153771362Y-85652632D01*
X153612397Y-85268857D01*
X153370213Y-85199392D01*
X152569605Y-86000000D01*
X152210395Y-86000000D01*
X151409787Y-85199392D01*
X151167603Y-85268857D01*
X150988142Y-85771880D01*
X150816160Y-85355651D01*
X150496034Y-85034966D01*
X150459479Y-85019787D01*
X151589392Y-85019787D01*
X152390000Y-85820395D01*
X153190608Y-85019787D01*
X153121143Y-84777603D01*
X152597698Y-84590856D01*
X152042632Y-84618638D01*
X151658857Y-84777603D01*
X151589392Y-85019787D01*
X150459479Y-85019787D01*
X150077555Y-84861198D01*
X149624433Y-84860803D01*
X149205651Y-85033840D01*
X148884966Y-85353966D01*
X148711198Y-85772445D01*
X148710803Y-86225567D01*
X148448803Y-86225567D01*
X148449197Y-85774433D01*
X148276160Y-85355651D01*
X147956034Y-85034966D01*
X147537555Y-84861198D01*
X147084433Y-84860803D01*
X146665651Y-85033840D01*
X146344966Y-85353966D01*
X146171198Y-85772445D01*
X146170803Y-86225567D01*
X143368803Y-86225567D01*
X143369197Y-85774433D01*
X143196160Y-85355651D01*
X142876034Y-85034966D01*
X142457555Y-84861198D01*
X142004433Y-84860803D01*
X141585651Y-85033840D01*
X141264966Y-85353966D01*
X141091198Y-85772445D01*
X141090803Y-86225567D01*
X141067000Y-86225567D01*
X141067000Y-86000000D01*
X140962182Y-85473045D01*
X140663686Y-85026314D01*
X140216955Y-84727818D01*
X139690000Y-84623000D01*
X139163045Y-84727818D01*
X138716314Y-85026314D01*
X138441990Y-85436869D01*
X138372397Y-85268857D01*
X138130213Y-85199392D01*
X137329605Y-86000000D01*
X138130213Y-86800608D01*
X138313000Y-86748180D01*
X138313000Y-87023000D01*
X137938336Y-87023000D01*
X137950608Y-86980213D01*
X137150000Y-86179605D01*
X136349392Y-86980213D01*
X136361664Y-87023000D01*
X135116786Y-87023000D01*
X135254349Y-86966160D01*
X135575034Y-86646034D01*
X135748802Y-86227555D01*
X135749039Y-85955791D01*
X135768638Y-86347368D01*
X135927603Y-86731143D01*
X136169787Y-86800608D01*
X136970395Y-86000000D01*
X136169787Y-85199392D01*
X135927603Y-85268857D01*
X135748142Y-85771880D01*
X135576160Y-85355651D01*
X135256034Y-85034966D01*
X135219479Y-85019787D01*
X136349392Y-85019787D01*
X137150000Y-85820395D01*
X137950608Y-85019787D01*
X137881143Y-84777603D01*
X137357698Y-84590856D01*
X136802632Y-84618638D01*
X136418857Y-84777603D01*
X136349392Y-85019787D01*
X135219479Y-85019787D01*
X134837555Y-84861198D01*
X134384433Y-84860803D01*
X133965651Y-85033840D01*
X133644966Y-85353966D01*
X133471198Y-85772445D01*
X133470803Y-86225567D01*
X133643840Y-86644349D01*
X133963966Y-86965034D01*
X134103563Y-87023000D01*
X132600000Y-87023000D01*
X132073045Y-87127818D01*
X131626314Y-87426314D01*
X127026314Y-92026314D01*
X126727818Y-92473045D01*
X126623000Y-93000000D01*
X126623000Y-101799947D01*
X126622762Y-102072703D01*
X125246467Y-102072703D01*
X125422216Y-101897261D01*
X125611484Y-101441453D01*
X125611915Y-100947912D01*
X125423443Y-100491775D01*
X125074761Y-100142484D01*
X124618953Y-99953216D01*
X124125412Y-99952785D01*
X123669275Y-100141257D01*
X123553100Y-100257229D01*
X123553100Y-99590177D01*
X123667439Y-99704716D01*
X124123247Y-99893984D01*
X124616788Y-99894415D01*
X125072925Y-99705943D01*
X125422216Y-99357261D01*
X125611484Y-98901453D01*
X125611915Y-98407912D01*
X125423443Y-97951775D01*
X125074761Y-97602484D01*
X124618953Y-97413216D01*
X124125412Y-97412785D01*
X123669275Y-97601257D01*
X123553100Y-97717229D01*
X123553100Y-97050177D01*
X123667439Y-97164716D01*
X124123247Y-97353984D01*
X124616788Y-97354415D01*
X125072925Y-97165943D01*
X125422216Y-96817261D01*
X125611484Y-96361453D01*
X125611915Y-95867912D01*
X125423443Y-95411775D01*
X125074761Y-95062484D01*
X124618953Y-94873216D01*
X124125412Y-94872785D01*
X123669275Y-95061257D01*
X123553100Y-95177229D01*
X123553100Y-94510177D01*
X123667439Y-94624716D01*
X124123247Y-94813984D01*
X124616788Y-94814415D01*
X125072925Y-94625943D01*
X125422216Y-94277261D01*
X125611484Y-93821453D01*
X125611915Y-93327912D01*
X125423443Y-92871775D01*
X125074761Y-92522484D01*
X124618953Y-92333216D01*
X124125412Y-92332785D01*
X123669275Y-92521257D01*
X123553100Y-92637229D01*
X123553100Y-91970177D01*
X123667439Y-92084716D01*
X124123247Y-92273984D01*
X124616788Y-92274415D01*
X125072925Y-92085943D01*
X125422216Y-91737261D01*
X125611484Y-91281453D01*
X125611915Y-90787912D01*
X125423443Y-90331775D01*
X125074761Y-89982484D01*
X124618953Y-89793216D01*
X124125412Y-89792785D01*
X123669275Y-89981257D01*
X123553100Y-90097229D01*
X123553100Y-89430177D01*
X123667439Y-89544716D01*
X124123247Y-89733984D01*
X124616788Y-89734415D01*
X125072925Y-89545943D01*
X125422216Y-89197261D01*
X125611484Y-88741453D01*
X125611915Y-88247912D01*
X125423443Y-87791775D01*
X125074761Y-87442484D01*
X124618953Y-87253216D01*
X124125412Y-87252785D01*
X123669275Y-87441257D01*
X123553100Y-87557229D01*
X123553100Y-86890177D01*
X123667439Y-87004716D01*
X124123247Y-87193984D01*
X124616788Y-87194415D01*
X125072925Y-87005943D01*
X125422216Y-86657261D01*
X125611484Y-86201453D01*
X125611915Y-85707912D01*
X125423443Y-85251775D01*
X125074761Y-84902484D01*
X124618953Y-84713216D01*
X124125412Y-84712785D01*
X123669275Y-84901257D01*
X123553100Y-85017229D01*
X123553100Y-84350177D01*
X123667439Y-84464716D01*
X124123247Y-84653984D01*
X124616788Y-84654415D01*
X125072925Y-84465943D01*
X125422216Y-84117261D01*
X125611484Y-83661453D01*
X125611915Y-83167912D01*
X125423443Y-82711775D01*
X125074761Y-82362484D01*
X124618953Y-82173216D01*
X124125412Y-82172785D01*
X123669275Y-82361257D01*
X123553100Y-82477229D01*
X123553100Y-81810177D01*
X123667439Y-81924716D01*
X124123247Y-82113984D01*
X124616788Y-82114415D01*
X125072925Y-81925943D01*
X125422216Y-81577261D01*
X125611484Y-81121453D01*
X125611915Y-80627912D01*
X125423443Y-80171775D01*
X125307471Y-80055600D01*
X171694523Y-80055600D01*
X171579984Y-80169939D01*
X171579984Y-80169939D01*
G37*
X171579984Y-80169939D02*
X171390716Y-80625747D01*
X171390285Y-81119288D01*
X171578757Y-81575425D01*
X171927439Y-81924716D01*
X172383247Y-82113984D01*
X172876788Y-82114415D01*
X173332925Y-81925943D01*
X173449100Y-81809971D01*
X173449100Y-82477023D01*
X173334761Y-82362484D01*
X172878953Y-82173216D01*
X172385412Y-82172785D01*
X171929275Y-82361257D01*
X171579984Y-82709939D01*
X171390716Y-83165747D01*
X171390285Y-83659288D01*
X171578757Y-84115425D01*
X171927439Y-84464716D01*
X172383247Y-84653984D01*
X172876788Y-84654415D01*
X173332925Y-84465943D01*
X173449100Y-84349971D01*
X173449100Y-85017023D01*
X173334761Y-84902484D01*
X172878953Y-84713216D01*
X172385412Y-84712785D01*
X171929275Y-84901257D01*
X171579984Y-85249939D01*
X171390716Y-85705747D01*
X171390285Y-86199288D01*
X171578757Y-86655425D01*
X171927439Y-87004716D01*
X172383247Y-87193984D01*
X172876788Y-87194415D01*
X173332925Y-87005943D01*
X173449100Y-86889971D01*
X173449100Y-87557023D01*
X173334761Y-87442484D01*
X172878953Y-87253216D01*
X172385412Y-87252785D01*
X171929275Y-87441257D01*
X171579984Y-87789939D01*
X171390716Y-88245747D01*
X171390285Y-88739288D01*
X171578757Y-89195425D01*
X171927439Y-89544716D01*
X172383247Y-89733984D01*
X172876788Y-89734415D01*
X173332925Y-89545943D01*
X173449100Y-89429971D01*
X173449100Y-90097023D01*
X173334761Y-89982484D01*
X172878953Y-89793216D01*
X172385412Y-89792785D01*
X171929275Y-89981257D01*
X171579984Y-90329939D01*
X171390716Y-90785747D01*
X171390285Y-91279288D01*
X171578757Y-91735425D01*
X171927439Y-92084716D01*
X172383247Y-92273984D01*
X172876788Y-92274415D01*
X173332925Y-92085943D01*
X173449100Y-91969971D01*
X173449100Y-92637023D01*
X173334761Y-92522484D01*
X172878953Y-92333216D01*
X172385412Y-92332785D01*
X171929275Y-92521257D01*
X171579984Y-92869939D01*
X171390716Y-93325747D01*
X171390285Y-93819288D01*
X171578757Y-94275425D01*
X171927439Y-94624716D01*
X172383247Y-94813984D01*
X172876788Y-94814415D01*
X173332925Y-94625943D01*
X173449100Y-94509971D01*
X173449100Y-95177023D01*
X173334761Y-95062484D01*
X172878953Y-94873216D01*
X172385412Y-94872785D01*
X171929275Y-95061257D01*
X171579984Y-95409939D01*
X171390716Y-95865747D01*
X171390285Y-96359288D01*
X171578757Y-96815425D01*
X171927439Y-97164716D01*
X172383247Y-97353984D01*
X172876788Y-97354415D01*
X173332925Y-97165943D01*
X173449100Y-97049971D01*
X173449100Y-97717023D01*
X173334761Y-97602484D01*
X172878953Y-97413216D01*
X172385412Y-97412785D01*
X171929275Y-97601257D01*
X171579984Y-97949939D01*
X171390716Y-98405747D01*
X171390285Y-98899288D01*
X171578757Y-99355425D01*
X171927439Y-99704716D01*
X172383247Y-99893984D01*
X172876788Y-99894415D01*
X173332925Y-99705943D01*
X173449100Y-99589971D01*
X173449100Y-100257023D01*
X173334761Y-100142484D01*
X172878953Y-99953216D01*
X172385412Y-99952785D01*
X171929275Y-100141257D01*
X171579984Y-100489939D01*
X171390716Y-100945747D01*
X171390285Y-101439288D01*
X171578757Y-101895425D01*
X171795288Y-102112334D01*
X171597489Y-102072989D01*
X170073129Y-102072989D01*
X170325855Y-101694757D01*
X170420290Y-101220000D01*
X170325855Y-100745243D01*
X170056927Y-100342763D01*
X169654447Y-100073835D01*
X169179690Y-99979400D01*
X168820310Y-99979400D01*
X168345553Y-100073835D01*
X167943073Y-100342763D01*
X167674145Y-100745243D01*
X167579710Y-101220000D01*
X167674145Y-101694757D01*
X167926871Y-102072989D01*
X158900011Y-102072989D01*
X158660068Y-102120717D01*
X158456655Y-102256633D01*
X153756644Y-106956644D01*
X153620728Y-107160057D01*
X153573000Y-107400000D01*
X153573000Y-114744617D01*
X153523118Y-114864746D01*
X153522883Y-115134073D01*
X153625733Y-115382989D01*
X153816010Y-115573598D01*
X154064746Y-115676882D01*
X154334073Y-115677117D01*
X154460259Y-115624978D01*
X159304584Y-115624978D01*
X161000000Y-117320395D01*
X162695416Y-115624978D01*
X162474647Y-115254257D01*
X161502988Y-114860881D01*
X160454753Y-114869287D01*
X159525353Y-115254257D01*
X159304584Y-115624978D01*
X154460259Y-115624978D01*
X154582989Y-115574267D01*
X154773598Y-115383990D01*
X154876882Y-115135254D01*
X154877117Y-114865927D01*
X154827000Y-114744635D01*
X154827000Y-113235869D01*
X159566759Y-113235869D01*
X159778384Y-113748040D01*
X160169899Y-114140239D01*
X160681700Y-114352757D01*
X161235869Y-114353241D01*
X161748040Y-114141616D01*
X162010113Y-113880000D01*
X167579710Y-113880000D01*
X167674145Y-114354757D01*
X167943073Y-114757237D01*
X168345553Y-115026165D01*
X168820310Y-115120600D01*
X169179690Y-115120600D01*
X169654447Y-115026165D01*
X170056927Y-114757237D01*
X170325855Y-114354757D01*
X170420290Y-113880000D01*
X170325855Y-113405243D01*
X170056927Y-113002763D01*
X169654447Y-112733835D01*
X169179690Y-112639400D01*
X168820310Y-112639400D01*
X168345553Y-112733835D01*
X167943073Y-113002763D01*
X167674145Y-113405243D01*
X167579710Y-113880000D01*
X162010113Y-113880000D01*
X162140239Y-113750101D01*
X162352757Y-113238300D01*
X162353241Y-112684131D01*
X162141616Y-112171960D01*
X161750101Y-111779761D01*
X161587000Y-111712036D01*
X161587000Y-110365750D01*
X163749000Y-110365750D01*
X163749000Y-111069910D01*
X163845673Y-111303299D01*
X164024302Y-111481927D01*
X164257691Y-111578600D01*
X165114250Y-111578600D01*
X165273000Y-111419850D01*
X165273000Y-110207000D01*
X165527000Y-110207000D01*
X165527000Y-111419850D01*
X165685750Y-111578600D01*
X166542309Y-111578600D01*
X166775698Y-111481927D01*
X166917625Y-111340000D01*
X167579710Y-111340000D01*
X167674145Y-111814757D01*
X167943073Y-112217237D01*
X168345553Y-112486165D01*
X168820310Y-112580600D01*
X169179690Y-112580600D01*
X169654447Y-112486165D01*
X170056927Y-112217237D01*
X170325855Y-111814757D01*
X170420290Y-111340000D01*
X170325855Y-110865243D01*
X170056927Y-110462763D01*
X169654447Y-110193835D01*
X169179690Y-110099400D01*
X168820310Y-110099400D01*
X168345553Y-110193835D01*
X167943073Y-110462763D01*
X167674145Y-110865243D01*
X167579710Y-111340000D01*
X166917625Y-111340000D01*
X166954327Y-111303299D01*
X167051000Y-111069910D01*
X167051000Y-110365750D01*
X166892250Y-110207000D01*
X165527000Y-110207000D01*
X165273000Y-110207000D01*
X163907750Y-110207000D01*
X163749000Y-110365750D01*
X161587000Y-110365750D01*
X161587000Y-110099712D01*
X163519712Y-108167000D01*
X164175870Y-108167000D01*
X164343073Y-108417237D01*
X164588761Y-108581400D01*
X164257691Y-108581400D01*
X164024302Y-108678073D01*
X163845673Y-108856701D01*
X163749000Y-109090090D01*
X163749000Y-109794250D01*
X163907750Y-109953000D01*
X165273000Y-109953000D01*
X165273000Y-109933000D01*
X165527000Y-109933000D01*
X165527000Y-109953000D01*
X166892250Y-109953000D01*
X167051000Y-109794250D01*
X167051000Y-109090090D01*
X166954327Y-108856701D01*
X166775698Y-108678073D01*
X166542309Y-108581400D01*
X166211239Y-108581400D01*
X166456927Y-108417237D01*
X166725855Y-108014757D01*
X166741441Y-107936400D01*
X167599615Y-107936400D01*
X167599615Y-109663600D01*
X167625903Y-109803308D01*
X167708470Y-109931620D01*
X167834453Y-110017701D01*
X167984000Y-110047985D01*
X170016000Y-110047985D01*
X170155708Y-110021697D01*
X170284020Y-109939130D01*
X170370101Y-109813147D01*
X170400385Y-109663600D01*
X170400385Y-107936400D01*
X170374097Y-107796692D01*
X170291530Y-107668380D01*
X170165547Y-107582299D01*
X170016000Y-107552015D01*
X167984000Y-107552015D01*
X167844292Y-107578303D01*
X167715980Y-107660870D01*
X167629899Y-107786853D01*
X167599615Y-107936400D01*
X166741441Y-107936400D01*
X166820290Y-107540000D01*
X166725855Y-107065243D01*
X166456927Y-106662763D01*
X166054447Y-106393835D01*
X165579690Y-106299400D01*
X165220310Y-106299400D01*
X164745553Y-106393835D01*
X164343073Y-106662763D01*
X164175870Y-106913000D01*
X163260000Y-106913000D01*
X163020057Y-106960728D01*
X162863639Y-107065243D01*
X162816644Y-107096644D01*
X160516644Y-109396644D01*
X160380728Y-109600057D01*
X160333000Y-109840000D01*
X160333000Y-111711844D01*
X160171960Y-111778384D01*
X159779761Y-112169899D01*
X159567243Y-112681700D01*
X159566759Y-113235869D01*
X154827000Y-113235869D01*
X154827000Y-109978161D01*
X155064746Y-110076882D01*
X155334073Y-110077117D01*
X155582989Y-109974267D01*
X155773598Y-109783990D01*
X155876882Y-109535254D01*
X155877117Y-109265927D01*
X155827000Y-109144635D01*
X155827000Y-108059712D01*
X157382605Y-106504107D01*
X159975498Y-106504107D01*
X160076120Y-106772622D01*
X160691642Y-107001816D01*
X161348019Y-106978014D01*
X161843880Y-106772622D01*
X161944502Y-106504107D01*
X160960000Y-105519605D01*
X159975498Y-106504107D01*
X157382605Y-106504107D01*
X158815070Y-105071642D01*
X159298184Y-105071642D01*
X159321986Y-105728019D01*
X159527378Y-106223880D01*
X159795893Y-106324502D01*
X160780395Y-105340000D01*
X161139605Y-105340000D01*
X162124107Y-106324502D01*
X162392622Y-106223880D01*
X162621816Y-105608358D01*
X162598014Y-104951981D01*
X162392622Y-104456120D01*
X162124107Y-104355498D01*
X161139605Y-105340000D01*
X160780395Y-105340000D01*
X159795893Y-104355498D01*
X159527378Y-104456120D01*
X159298184Y-105071642D01*
X158815070Y-105071642D01*
X159859712Y-104027000D01*
X160031293Y-104027000D01*
X159975498Y-104175893D01*
X160960000Y-105160395D01*
X161944502Y-104175893D01*
X161888707Y-104027000D01*
X164486393Y-104027000D01*
X164343073Y-104122763D01*
X164074145Y-104525243D01*
X163979710Y-105000000D01*
X164074145Y-105474757D01*
X164343073Y-105877237D01*
X164745553Y-106146165D01*
X165220310Y-106240600D01*
X165579690Y-106240600D01*
X166054447Y-106146165D01*
X166456927Y-105877237D01*
X166725855Y-105474757D01*
X166820290Y-105000000D01*
X166725855Y-104525243D01*
X166456927Y-104122763D01*
X166313607Y-104027000D01*
X169497788Y-104027000D01*
X171421764Y-105950976D01*
X171390716Y-106025747D01*
X171390285Y-106519288D01*
X171578757Y-106975425D01*
X171927439Y-107324716D01*
X172383247Y-107513984D01*
X172876788Y-107514415D01*
X173332925Y-107325943D01*
X173449100Y-107209971D01*
X173449100Y-107877023D01*
X173334761Y-107762484D01*
X172878953Y-107573216D01*
X172385412Y-107572785D01*
X171929275Y-107761257D01*
X171579984Y-108109939D01*
X171390716Y-108565747D01*
X171390285Y-109059288D01*
X171578757Y-109515425D01*
X171927439Y-109864716D01*
X172383247Y-110053984D01*
X172876788Y-110054415D01*
X173332925Y-109865943D01*
X173449100Y-109749971D01*
X173449100Y-110417023D01*
X173334761Y-110302484D01*
X172878953Y-110113216D01*
X172385412Y-110112785D01*
X171929275Y-110301257D01*
X171579984Y-110649939D01*
X171390716Y-111105747D01*
X171390285Y-111599288D01*
X171578757Y-112055425D01*
X171927439Y-112404716D01*
X172383247Y-112593984D01*
X172876788Y-112594415D01*
X173332925Y-112405943D01*
X173449100Y-112289971D01*
X173449100Y-112957023D01*
X173334761Y-112842484D01*
X172878953Y-112653216D01*
X172385412Y-112652785D01*
X171929275Y-112841257D01*
X171579984Y-113189939D01*
X171390716Y-113645747D01*
X171390285Y-114139288D01*
X171578757Y-114595425D01*
X171927439Y-114944716D01*
X172383247Y-115133984D01*
X172876788Y-115134415D01*
X173332925Y-114945943D01*
X173449100Y-114829971D01*
X173449100Y-115497023D01*
X173334761Y-115382484D01*
X172878953Y-115193216D01*
X172385412Y-115192785D01*
X171929275Y-115381257D01*
X171579984Y-115729939D01*
X171390716Y-116185747D01*
X171390285Y-116679288D01*
X171578757Y-117135425D01*
X171927439Y-117484716D01*
X172383247Y-117673984D01*
X172876788Y-117674415D01*
X173332925Y-117485943D01*
X173449100Y-117369971D01*
X173449100Y-118037023D01*
X173334761Y-117922484D01*
X172878953Y-117733216D01*
X172385412Y-117732785D01*
X171929275Y-117921257D01*
X171579984Y-118269939D01*
X171390716Y-118725747D01*
X171390285Y-119219288D01*
X171578757Y-119675425D01*
X171927439Y-120024716D01*
X172383247Y-120213984D01*
X172876788Y-120214415D01*
X173332925Y-120025943D01*
X173449100Y-119909971D01*
X173449100Y-120577023D01*
X173334761Y-120462484D01*
X172878953Y-120273216D01*
X172385412Y-120272785D01*
X171929275Y-120461257D01*
X171579984Y-120809939D01*
X171390716Y-121265747D01*
X171390285Y-121759288D01*
X171578757Y-122215425D01*
X171927439Y-122564716D01*
X172383247Y-122753984D01*
X172876788Y-122754415D01*
X173332925Y-122565943D01*
X173449100Y-122449971D01*
X173449100Y-123117023D01*
X173334761Y-123002484D01*
X172878953Y-122813216D01*
X172385412Y-122812785D01*
X171929275Y-123001257D01*
X171579984Y-123349939D01*
X171390716Y-123805747D01*
X171390285Y-124299288D01*
X171578757Y-124755425D01*
X171927439Y-125104716D01*
X172383247Y-125293984D01*
X172876788Y-125294415D01*
X173332925Y-125105943D01*
X173449100Y-124989971D01*
X173449100Y-125657023D01*
X173334761Y-125542484D01*
X172878953Y-125353216D01*
X172385412Y-125352785D01*
X171929275Y-125541257D01*
X171579984Y-125889939D01*
X171390716Y-126345747D01*
X171390285Y-126839288D01*
X171578757Y-127295425D01*
X171927439Y-127644716D01*
X172383247Y-127833984D01*
X172876788Y-127834415D01*
X173332925Y-127645943D01*
X173449100Y-127529971D01*
X173449100Y-128197023D01*
X173334761Y-128082484D01*
X172878953Y-127893216D01*
X172385412Y-127892785D01*
X171929275Y-128081257D01*
X171579984Y-128429939D01*
X171390716Y-128885747D01*
X171390285Y-129379288D01*
X171578757Y-129835425D01*
X171694729Y-129951600D01*
X169390669Y-129951600D01*
X169484020Y-129891530D01*
X169570101Y-129765547D01*
X169600385Y-129616000D01*
X169600385Y-127584000D01*
X169574097Y-127444292D01*
X169491530Y-127315980D01*
X169365547Y-127229899D01*
X169216000Y-127199615D01*
X167184000Y-127199615D01*
X167044292Y-127225903D01*
X166915980Y-127308470D01*
X166829899Y-127434453D01*
X166822730Y-127469855D01*
X166524818Y-127193615D01*
X166042944Y-126994025D01*
X165787000Y-127113164D01*
X165787000Y-128473000D01*
X165807000Y-128473000D01*
X165807000Y-128727000D01*
X165787000Y-128727000D01*
X165787000Y-128747000D01*
X165533000Y-128747000D01*
X165533000Y-128727000D01*
X164172633Y-128727000D01*
X164054017Y-128982946D01*
X164322812Y-129568379D01*
X164736099Y-129951600D01*
X155330669Y-129951600D01*
X155424020Y-129891530D01*
X155510101Y-129765547D01*
X155540385Y-129616000D01*
X155540385Y-128217054D01*
X164054017Y-128217054D01*
X164172633Y-128473000D01*
X165533000Y-128473000D01*
X165533000Y-127113164D01*
X165277056Y-126994025D01*
X164795182Y-127193615D01*
X164322812Y-127631621D01*
X164054017Y-128217054D01*
X155540385Y-128217054D01*
X155540385Y-127584000D01*
X155514097Y-127444292D01*
X155431530Y-127315980D01*
X155305547Y-127229899D01*
X155156000Y-127199615D01*
X153124000Y-127199615D01*
X152984292Y-127225903D01*
X152855980Y-127308470D01*
X152769899Y-127434453D01*
X152739615Y-127584000D01*
X152739615Y-127819108D01*
X152585000Y-127587710D01*
X152133078Y-127285746D01*
X151600000Y-127179710D01*
X151066922Y-127285746D01*
X150615000Y-127587710D01*
X150313036Y-128039632D01*
X150207000Y-128572710D01*
X150207000Y-128627290D01*
X150313036Y-129160368D01*
X150615000Y-129612290D01*
X151066922Y-129914254D01*
X151254673Y-129951600D01*
X149588100Y-129951600D01*
X149588100Y-129133600D01*
X149553694Y-128960627D01*
X149455712Y-128813988D01*
X149309073Y-128716006D01*
X149136100Y-128681600D01*
X147866100Y-128681600D01*
X147693127Y-128716006D01*
X147546488Y-128813988D01*
X147448506Y-128960627D01*
X147414100Y-129133600D01*
X147414100Y-129951600D01*
X146390669Y-129951600D01*
X146484020Y-129891530D01*
X146570101Y-129765547D01*
X146600385Y-129616000D01*
X146600385Y-127584000D01*
X146574097Y-127444292D01*
X146491530Y-127315980D01*
X146365547Y-127229899D01*
X146216000Y-127199615D01*
X144184000Y-127199615D01*
X144044292Y-127225903D01*
X143915980Y-127308470D01*
X143829899Y-127434453D01*
X143799615Y-127584000D01*
X143799615Y-127819108D01*
X143645000Y-127587710D01*
X143193078Y-127285746D01*
X142660000Y-127179710D01*
X142126922Y-127285746D01*
X141675000Y-127587710D01*
X141373036Y-128039632D01*
X141267000Y-128572710D01*
X141267000Y-128627290D01*
X141373036Y-129160368D01*
X141675000Y-129612290D01*
X142126922Y-129914254D01*
X142314673Y-129951600D01*
X136231744Y-129951600D01*
X136263309Y-129930509D01*
X138246909Y-127946910D01*
X138491211Y-127581285D01*
X138576999Y-127150001D01*
X138576999Y-125816817D01*
X138996908Y-125396909D01*
X139154865Y-125239228D01*
X139326802Y-124825158D01*
X139327193Y-124376809D01*
X139155979Y-123962440D01*
X138996910Y-123803092D01*
X138996906Y-123803088D01*
X138839226Y-123645133D01*
X138425156Y-123473196D01*
X137976807Y-123472805D01*
X137562438Y-123644019D01*
X137245131Y-123960772D01*
X137244935Y-123961244D01*
X136653090Y-124553090D01*
X136408787Y-124918715D01*
X136322999Y-125349999D01*
X136322999Y-126683182D01*
X134999582Y-128006600D01*
X124892012Y-128006600D01*
X124618953Y-127893216D01*
X124125412Y-127892785D01*
X123669275Y-128081257D01*
X123553100Y-128197229D01*
X123553100Y-127530177D01*
X123667439Y-127644716D01*
X124123247Y-127833984D01*
X124616788Y-127834415D01*
X124892241Y-127720600D01*
X125592414Y-127720600D01*
X126023698Y-127634812D01*
X126389323Y-127390509D01*
X127396909Y-126382923D01*
X127641212Y-126017298D01*
X127727000Y-125586014D01*
X127727000Y-117266818D01*
X127859745Y-117134073D01*
X128322879Y-117134073D01*
X128425729Y-117382989D01*
X128616006Y-117573598D01*
X128864742Y-117676882D01*
X129134069Y-117677117D01*
X129255361Y-117627000D01*
X130140288Y-117627000D01*
X133976061Y-121462773D01*
X134025733Y-121582989D01*
X134216010Y-121773598D01*
X134464746Y-121876882D01*
X134734073Y-121877117D01*
X134982989Y-121774267D01*
X135173598Y-121583990D01*
X135276882Y-121335254D01*
X135277117Y-121065927D01*
X135174267Y-120817011D01*
X134983990Y-120626402D01*
X134862786Y-120576074D01*
X133661734Y-119375022D01*
X134304584Y-119375022D01*
X134525353Y-119745743D01*
X135497012Y-120139119D01*
X136545247Y-120130713D01*
X137474647Y-119745743D01*
X137695416Y-119375022D01*
X136000000Y-117679605D01*
X134304584Y-119375022D01*
X133661734Y-119375022D01*
X131283724Y-116997012D01*
X133360881Y-116997012D01*
X133369287Y-118045247D01*
X133754257Y-118974647D01*
X134124978Y-119195416D01*
X135820395Y-117500000D01*
X136179605Y-117500000D01*
X137875022Y-119195416D01*
X138220230Y-118989840D01*
X138220728Y-118992343D01*
X138356417Y-119195416D01*
X138356644Y-119195756D01*
X139442951Y-120282063D01*
X139379710Y-120600000D01*
X139474145Y-121074757D01*
X139743073Y-121477237D01*
X140145553Y-121746165D01*
X140620310Y-121840600D01*
X140979690Y-121840600D01*
X141454447Y-121746165D01*
X141856927Y-121477237D01*
X142125855Y-121074757D01*
X142220290Y-120600000D01*
X142125855Y-120125243D01*
X141856927Y-119722763D01*
X141454447Y-119453835D01*
X141434439Y-119449855D01*
X141714320Y-119351954D01*
X142150732Y-118962036D01*
X142404709Y-118434791D01*
X142407358Y-118419026D01*
X142286217Y-118187000D01*
X140927000Y-118187000D01*
X140927000Y-118207000D01*
X140673000Y-118207000D01*
X140673000Y-118187000D01*
X140653000Y-118187000D01*
X140653000Y-117933000D01*
X140673000Y-117933000D01*
X140673000Y-116719076D01*
X140927000Y-116719076D01*
X140927000Y-117933000D01*
X142286217Y-117933000D01*
X142407358Y-117700974D01*
X142404709Y-117685209D01*
X142150732Y-117157964D01*
X141714320Y-116768046D01*
X141161913Y-116574816D01*
X140927000Y-116719076D01*
X140673000Y-116719076D01*
X140438087Y-116574816D01*
X139885680Y-116768046D01*
X139449268Y-117157964D01*
X139427000Y-117204191D01*
X139427000Y-114124107D01*
X139655498Y-114124107D01*
X139756120Y-114392622D01*
X140371642Y-114621816D01*
X141028019Y-114598014D01*
X141523880Y-114392622D01*
X141624502Y-114124107D01*
X140640000Y-113139605D01*
X139655498Y-114124107D01*
X139427000Y-114124107D01*
X139427000Y-113926180D01*
X139475893Y-113944502D01*
X140460395Y-112960000D01*
X140819605Y-112960000D01*
X141804107Y-113944502D01*
X142072622Y-113843880D01*
X142301816Y-113228358D01*
X142278014Y-112571981D01*
X142072622Y-112076120D01*
X141804107Y-111975498D01*
X140819605Y-112960000D01*
X140460395Y-112960000D01*
X139475893Y-111975498D01*
X139427000Y-111993820D01*
X139427000Y-111795893D01*
X139655498Y-111795893D01*
X140640000Y-112780395D01*
X141624502Y-111795893D01*
X141523880Y-111527378D01*
X140908358Y-111298184D01*
X140251981Y-111321986D01*
X139756120Y-111527378D01*
X139655498Y-111795893D01*
X139427000Y-111795893D01*
X139427000Y-104899712D01*
X140200776Y-104125936D01*
X140361700Y-104192757D01*
X140915869Y-104193241D01*
X141428040Y-103981616D01*
X141820239Y-103590101D01*
X142032757Y-103078300D01*
X142033241Y-102524131D01*
X141821616Y-102011960D01*
X141430101Y-101619761D01*
X140918300Y-101407243D01*
X140364131Y-101406759D01*
X139851960Y-101618384D01*
X139459761Y-102009899D01*
X139247243Y-102521700D01*
X139246759Y-103075869D01*
X139314200Y-103239088D01*
X138356644Y-104196644D01*
X138220728Y-104400057D01*
X138173000Y-104640000D01*
X138173000Y-115982034D01*
X137875022Y-115804584D01*
X136179605Y-117500000D01*
X135820395Y-117500000D01*
X134124978Y-115804584D01*
X133754257Y-116025353D01*
X133360881Y-116997012D01*
X131283724Y-116997012D01*
X130843356Y-116556644D01*
X130639943Y-116420728D01*
X130400000Y-116373000D01*
X129255379Y-116373000D01*
X129135250Y-116323118D01*
X128865923Y-116322883D01*
X128617007Y-116425733D01*
X128426398Y-116616010D01*
X128323114Y-116864746D01*
X128322879Y-117134073D01*
X127859745Y-117134073D01*
X129368840Y-115624978D01*
X134304584Y-115624978D01*
X136000000Y-117320395D01*
X137695416Y-115624978D01*
X137474647Y-115254257D01*
X136502988Y-114860881D01*
X135454753Y-114869287D01*
X134525353Y-115254257D01*
X134304584Y-115624978D01*
X129368840Y-115624978D01*
X130878251Y-114115567D01*
X131360803Y-114115567D01*
X131533840Y-114534349D01*
X131853966Y-114855034D01*
X132272445Y-115028802D01*
X132725567Y-115029197D01*
X133144349Y-114856160D01*
X133465034Y-114536034D01*
X133638802Y-114117555D01*
X133639197Y-113664433D01*
X133466160Y-113245651D01*
X133146034Y-112924966D01*
X132727555Y-112751198D01*
X132455791Y-112750961D01*
X132847368Y-112731362D01*
X133231143Y-112572397D01*
X133300608Y-112330213D01*
X132500000Y-111529605D01*
X131699392Y-112330213D01*
X131768857Y-112572397D01*
X132271880Y-112751858D01*
X131855651Y-112923840D01*
X131534966Y-113243966D01*
X131361198Y-113662445D01*
X131360803Y-114115567D01*
X130878251Y-114115567D01*
X130996909Y-113996909D01*
X131241212Y-113631284D01*
X131327000Y-113200000D01*
X131327000Y-112095311D01*
X131519787Y-112150608D01*
X132320395Y-111350000D01*
X132679605Y-111350000D01*
X133480213Y-112150608D01*
X133722397Y-112081143D01*
X133909144Y-111557698D01*
X133881362Y-111002632D01*
X133722397Y-110618857D01*
X133480213Y-110549392D01*
X132679605Y-111350000D01*
X132320395Y-111350000D01*
X132306253Y-111335858D01*
X132485858Y-111156253D01*
X132500000Y-111170395D01*
X133300608Y-110369787D01*
X133231143Y-110127603D01*
X132895840Y-110007978D01*
X133115905Y-109787913D01*
X133144349Y-109776160D01*
X133465034Y-109456034D01*
X133638802Y-109037555D01*
X133639197Y-108584433D01*
X133466160Y-108165651D01*
X133146034Y-107844966D01*
X132727555Y-107671198D01*
X132274433Y-107670803D01*
X131855651Y-107843840D01*
X131534966Y-108163966D01*
X131522717Y-108193465D01*
X129403091Y-110313091D01*
X129158788Y-110678716D01*
X129073000Y-111110000D01*
X129073000Y-112733182D01*
X125803091Y-116003091D01*
X125611826Y-116289338D01*
X125611915Y-116187912D01*
X125423443Y-115731775D01*
X125074761Y-115382484D01*
X124805314Y-115270600D01*
X125592414Y-115270600D01*
X126119369Y-115165782D01*
X126566100Y-114867286D01*
X127973687Y-113459699D01*
X128272183Y-113012968D01*
X128377001Y-112486013D01*
X128377001Y-110370371D01*
X128973686Y-109773686D01*
X129166683Y-109581026D01*
X129376760Y-109075104D01*
X129377238Y-108527299D01*
X129168044Y-108021011D01*
X128781026Y-107633317D01*
X128597145Y-107556963D01*
X128653355Y-107545782D01*
X129100086Y-107247286D01*
X129851805Y-106495567D01*
X131360803Y-106495567D01*
X131533840Y-106914349D01*
X131853966Y-107235034D01*
X132272445Y-107408802D01*
X132725567Y-107409197D01*
X133144349Y-107236160D01*
X133465034Y-106916034D01*
X133638802Y-106497555D01*
X133639197Y-106044433D01*
X133466160Y-105625651D01*
X133146034Y-105304966D01*
X132727555Y-105131198D01*
X132274433Y-105130803D01*
X131855651Y-105303840D01*
X131534966Y-105623966D01*
X131361198Y-106042445D01*
X131360803Y-106495567D01*
X129851805Y-106495567D01*
X131370372Y-104977000D01*
X134400000Y-104977000D01*
X134926955Y-104872182D01*
X135373686Y-104573686D01*
X140130330Y-99817042D01*
X142573000Y-102259712D01*
X142573000Y-121996288D01*
X142200385Y-122368903D01*
X142200385Y-122276400D01*
X142174097Y-122136692D01*
X142091530Y-122008380D01*
X141965547Y-121922299D01*
X141816000Y-121892015D01*
X139784000Y-121892015D01*
X139644292Y-121918303D01*
X139515980Y-122000870D01*
X139429899Y-122126853D01*
X139399615Y-122276400D01*
X139399615Y-124003600D01*
X139425903Y-124143308D01*
X139508470Y-124271620D01*
X139634453Y-124357701D01*
X139784000Y-124387985D01*
X141816000Y-124387985D01*
X141955708Y-124361697D01*
X142084020Y-124279130D01*
X142170101Y-124153147D01*
X142200385Y-124003600D01*
X142200385Y-123767000D01*
X142316000Y-123767000D01*
X142555943Y-123719272D01*
X142759356Y-123583356D01*
X143643356Y-122699356D01*
X143779273Y-122495942D01*
X143827000Y-122256000D01*
X143827000Y-117082400D01*
X154498015Y-117082400D01*
X154498015Y-119317600D01*
X154524303Y-119457308D01*
X154606870Y-119585620D01*
X154732853Y-119671701D01*
X154882400Y-119701985D01*
X157117600Y-119701985D01*
X157257308Y-119675697D01*
X157385620Y-119593130D01*
X157471701Y-119467147D01*
X157490356Y-119375022D01*
X159304584Y-119375022D01*
X159525353Y-119745743D01*
X160497012Y-120139119D01*
X161545247Y-120130713D01*
X162474647Y-119745743D01*
X162695416Y-119375022D01*
X161000000Y-117679605D01*
X159304584Y-119375022D01*
X157490356Y-119375022D01*
X157501985Y-119317600D01*
X157501985Y-117082400D01*
X157485919Y-116997012D01*
X158360881Y-116997012D01*
X158369287Y-118045247D01*
X158754257Y-118974647D01*
X159124978Y-119195416D01*
X160820395Y-117500000D01*
X161179605Y-117500000D01*
X162875022Y-119195416D01*
X163245743Y-118974647D01*
X163639119Y-118002988D01*
X163630713Y-116954753D01*
X163409212Y-116420000D01*
X167579710Y-116420000D01*
X167674145Y-116894757D01*
X167943073Y-117297237D01*
X168345553Y-117566165D01*
X168820310Y-117660600D01*
X169179690Y-117660600D01*
X169654447Y-117566165D01*
X170056927Y-117297237D01*
X170325855Y-116894757D01*
X170420290Y-116420000D01*
X170325855Y-115945243D01*
X170056927Y-115542763D01*
X169654447Y-115273835D01*
X169179690Y-115179400D01*
X168820310Y-115179400D01*
X168345553Y-115273835D01*
X167943073Y-115542763D01*
X167674145Y-115945243D01*
X167579710Y-116420000D01*
X163409212Y-116420000D01*
X163245743Y-116025353D01*
X162875022Y-115804584D01*
X161179605Y-117500000D01*
X160820395Y-117500000D01*
X159124978Y-115804584D01*
X158754257Y-116025353D01*
X158360881Y-116997012D01*
X157485919Y-116997012D01*
X157475697Y-116942692D01*
X157393130Y-116814380D01*
X157267147Y-116728299D01*
X157117600Y-116698015D01*
X154882400Y-116698015D01*
X154742692Y-116724303D01*
X154614380Y-116806870D01*
X154528299Y-116932853D01*
X154498015Y-117082400D01*
X143827000Y-117082400D01*
X143827000Y-115134073D01*
X144322883Y-115134073D01*
X144425733Y-115382989D01*
X144616010Y-115573598D01*
X144864746Y-115676882D01*
X145134073Y-115677117D01*
X145382989Y-115574267D01*
X145425330Y-115532000D01*
X149239617Y-115532000D01*
X149359746Y-115581882D01*
X149629073Y-115582117D01*
X149877989Y-115479267D01*
X150068598Y-115288990D01*
X150171882Y-115040254D01*
X150172117Y-114770927D01*
X150069267Y-114522011D01*
X149878990Y-114331402D01*
X149630254Y-114228118D01*
X149360927Y-114227883D01*
X149239635Y-114278000D01*
X145095000Y-114278000D01*
X144869345Y-114322886D01*
X144865927Y-114322883D01*
X144862740Y-114324200D01*
X144855057Y-114325728D01*
X144848600Y-114330042D01*
X144617011Y-114425733D01*
X144426402Y-114616010D01*
X144323118Y-114864746D01*
X144322883Y-115134073D01*
X143827000Y-115134073D01*
X143827000Y-102000000D01*
X143779272Y-101760057D01*
X143643356Y-101556644D01*
X142622581Y-100535869D01*
X159566759Y-100535869D01*
X159778384Y-101048040D01*
X160169899Y-101440239D01*
X160681700Y-101652757D01*
X161235869Y-101653241D01*
X161748040Y-101441616D01*
X162140239Y-101050101D01*
X162352757Y-100538300D01*
X162353241Y-99984131D01*
X162141616Y-99471960D01*
X161750101Y-99079761D01*
X161238300Y-98867243D01*
X160684131Y-98866759D01*
X160171960Y-99078384D01*
X159779761Y-99469899D01*
X159567243Y-99981700D01*
X159566759Y-100535869D01*
X142622581Y-100535869D01*
X141017042Y-98930330D01*
X141267372Y-98680000D01*
X167579710Y-98680000D01*
X167674145Y-99154757D01*
X167943073Y-99557237D01*
X168345553Y-99826165D01*
X168820310Y-99920600D01*
X169179690Y-99920600D01*
X169654447Y-99826165D01*
X170056927Y-99557237D01*
X170325855Y-99154757D01*
X170420290Y-98680000D01*
X170325855Y-98205243D01*
X170056927Y-97802763D01*
X169654447Y-97533835D01*
X169179690Y-97439400D01*
X168820310Y-97439400D01*
X168345553Y-97533835D01*
X167943073Y-97802763D01*
X167674145Y-98205243D01*
X167579710Y-98680000D01*
X141267372Y-98680000D01*
X141613686Y-98333686D01*
X141912182Y-97886955D01*
X142017000Y-97360000D01*
X142017000Y-96140000D01*
X167579710Y-96140000D01*
X167674145Y-96614757D01*
X167943073Y-97017237D01*
X168345553Y-97286165D01*
X168820310Y-97380600D01*
X169179690Y-97380600D01*
X169654447Y-97286165D01*
X170056927Y-97017237D01*
X170325855Y-96614757D01*
X170420290Y-96140000D01*
X170325855Y-95665243D01*
X170056927Y-95262763D01*
X169654447Y-94993835D01*
X169179690Y-94899400D01*
X168820310Y-94899400D01*
X168345553Y-94993835D01*
X167943073Y-95262763D01*
X167674145Y-95665243D01*
X167579710Y-96140000D01*
X142017000Y-96140000D01*
X142017000Y-94375022D01*
X159304584Y-94375022D01*
X159525353Y-94745743D01*
X160497012Y-95139119D01*
X161545247Y-95130713D01*
X162474647Y-94745743D01*
X162695416Y-94375022D01*
X161000000Y-92679605D01*
X159304584Y-94375022D01*
X142017000Y-94375022D01*
X142017000Y-94017000D01*
X153360000Y-94017000D01*
X153886955Y-93912182D01*
X154333686Y-93613686D01*
X155950360Y-91997012D01*
X158360881Y-91997012D01*
X158369287Y-93045247D01*
X158754257Y-93974647D01*
X159124978Y-94195416D01*
X160820395Y-92500000D01*
X161179605Y-92500000D01*
X162875022Y-94195416D01*
X163245743Y-93974647D01*
X163639119Y-93002988D01*
X163636982Y-92736400D01*
X167599615Y-92736400D01*
X167599615Y-94463600D01*
X167625903Y-94603308D01*
X167708470Y-94731620D01*
X167834453Y-94817701D01*
X167984000Y-94847985D01*
X170016000Y-94847985D01*
X170155708Y-94821697D01*
X170284020Y-94739130D01*
X170370101Y-94613147D01*
X170400385Y-94463600D01*
X170400385Y-92736400D01*
X170374097Y-92596692D01*
X170291530Y-92468380D01*
X170165547Y-92382299D01*
X170016000Y-92352015D01*
X167984000Y-92352015D01*
X167844292Y-92378303D01*
X167715980Y-92460870D01*
X167629899Y-92586853D01*
X167599615Y-92736400D01*
X163636982Y-92736400D01*
X163630713Y-91954753D01*
X163245743Y-91025353D01*
X162875022Y-90804584D01*
X161179605Y-92500000D01*
X160820395Y-92500000D01*
X159124978Y-90804584D01*
X158754257Y-91025353D01*
X158360881Y-91997012D01*
X155950360Y-91997012D01*
X157122979Y-90824393D01*
X157122883Y-90934073D01*
X157225733Y-91182989D01*
X157416010Y-91373598D01*
X157664746Y-91476882D01*
X157934073Y-91477117D01*
X158182989Y-91374267D01*
X158373598Y-91183990D01*
X158423926Y-91062786D01*
X158861734Y-90624978D01*
X159304584Y-90624978D01*
X161000000Y-92320395D01*
X162695416Y-90624978D01*
X162474647Y-90254257D01*
X161502988Y-89860881D01*
X160454753Y-89869287D01*
X159525353Y-90254257D01*
X159304584Y-90624978D01*
X158861734Y-90624978D01*
X160459712Y-89027000D01*
X160744617Y-89027000D01*
X160864746Y-89076882D01*
X161134073Y-89077117D01*
X161382989Y-88974267D01*
X161384548Y-88972710D01*
X165207000Y-88972710D01*
X165207000Y-89027290D01*
X165313036Y-89560368D01*
X165615000Y-90012290D01*
X166066922Y-90314254D01*
X166600000Y-90420290D01*
X167133078Y-90314254D01*
X167585000Y-90012290D01*
X167739615Y-89780892D01*
X167739615Y-90016000D01*
X167765903Y-90155708D01*
X167848470Y-90284020D01*
X167974453Y-90370101D01*
X168124000Y-90400385D01*
X170156000Y-90400385D01*
X170295708Y-90374097D01*
X170424020Y-90291530D01*
X170510101Y-90165547D01*
X170540385Y-90016000D01*
X170540385Y-87984000D01*
X170514097Y-87844292D01*
X170431530Y-87715980D01*
X170305547Y-87629899D01*
X170156000Y-87599615D01*
X168124000Y-87599615D01*
X167984292Y-87625903D01*
X167855980Y-87708470D01*
X167769899Y-87834453D01*
X167739615Y-87984000D01*
X167739615Y-88219108D01*
X167585000Y-87987710D01*
X167133078Y-87685746D01*
X166600000Y-87579710D01*
X166066922Y-87685746D01*
X165615000Y-87987710D01*
X165313036Y-88439632D01*
X165207000Y-88972710D01*
X161384548Y-88972710D01*
X161573598Y-88783990D01*
X161676882Y-88535254D01*
X161677117Y-88265927D01*
X161574267Y-88017011D01*
X161383990Y-87826402D01*
X161135254Y-87723118D01*
X160865927Y-87722883D01*
X160744635Y-87773000D01*
X160200000Y-87773000D01*
X160168009Y-87779363D01*
X161170372Y-86777000D01*
X162734954Y-86777000D01*
X162617011Y-86825733D01*
X162426402Y-87016010D01*
X162323118Y-87264746D01*
X162322883Y-87534073D01*
X162425733Y-87782989D01*
X162616010Y-87973598D01*
X162864746Y-88076882D01*
X163134073Y-88077117D01*
X163382989Y-87974267D01*
X163573598Y-87783990D01*
X163623926Y-87662786D01*
X164483356Y-86803356D01*
X164537126Y-86722883D01*
X164619272Y-86599943D01*
X164667000Y-86360000D01*
X164667000Y-86236372D01*
X165013686Y-85889686D01*
X165312182Y-85442955D01*
X165417000Y-84916000D01*
X165417000Y-82369812D01*
X165433835Y-82454447D01*
X165702763Y-82856927D01*
X166105243Y-83125855D01*
X166580000Y-83220290D01*
X167054757Y-83125855D01*
X167457237Y-82856927D01*
X167726165Y-82454447D01*
X167730145Y-82434439D01*
X167828046Y-82714320D01*
X168217964Y-83150732D01*
X168745209Y-83404709D01*
X168760974Y-83407358D01*
X168993000Y-83286217D01*
X168993000Y-81927000D01*
X169247000Y-81927000D01*
X169247000Y-83286217D01*
X169479026Y-83407358D01*
X169494791Y-83404709D01*
X170022036Y-83150732D01*
X170411954Y-82714320D01*
X170605184Y-82161913D01*
X170460924Y-81927000D01*
X169247000Y-81927000D01*
X168993000Y-81927000D01*
X168973000Y-81927000D01*
X168973000Y-81673000D01*
X168993000Y-81673000D01*
X168993000Y-80313783D01*
X169247000Y-80313783D01*
X169247000Y-81673000D01*
X170460924Y-81673000D01*
X170605184Y-81438087D01*
X170411954Y-80885680D01*
X170022036Y-80449268D01*
X169494791Y-80195291D01*
X169479026Y-80192642D01*
X169247000Y-80313783D01*
X168993000Y-80313783D01*
X168760974Y-80192642D01*
X168745209Y-80195291D01*
X168217964Y-80449268D01*
X167828046Y-80885680D01*
X167730145Y-81165561D01*
X167726165Y-81145553D01*
X167457237Y-80743073D01*
X167054757Y-80474145D01*
X166580000Y-80379710D01*
X166105243Y-80474145D01*
X165702763Y-80743073D01*
X165433835Y-81145553D01*
X165350383Y-81565094D01*
X165312182Y-81373045D01*
X165197181Y-81200934D01*
X165186165Y-81145553D01*
X164917237Y-80743073D01*
X164514757Y-80474145D01*
X164040000Y-80379710D01*
X163565243Y-80474145D01*
X163162763Y-80743073D01*
X162893835Y-81145553D01*
X162889855Y-81165561D01*
X162791954Y-80885680D01*
X162402036Y-80449268D01*
X161874791Y-80195291D01*
X161859026Y-80192642D01*
X161627000Y-80313783D01*
X161627000Y-81673000D01*
X161647000Y-81673000D01*
X161647000Y-81927000D01*
X161627000Y-81927000D01*
X161627000Y-83286217D01*
X161859026Y-83407358D01*
X161874791Y-83404709D01*
X162402036Y-83150732D01*
X162663000Y-82858651D01*
X162663000Y-84023000D01*
X157797000Y-84023000D01*
X157797000Y-82369812D01*
X157813835Y-82454447D01*
X158082763Y-82856927D01*
X158485243Y-83125855D01*
X158960000Y-83220290D01*
X159434757Y-83125855D01*
X159837237Y-82856927D01*
X160106165Y-82454447D01*
X160110145Y-82434439D01*
X160208046Y-82714320D01*
X160597964Y-83150732D01*
X161125209Y-83404709D01*
X161140974Y-83407358D01*
X161373000Y-83286217D01*
X161373000Y-81927000D01*
X161353000Y-81927000D01*
X161353000Y-81673000D01*
X161373000Y-81673000D01*
X161373000Y-80313783D01*
X161140974Y-80192642D01*
X161125209Y-80195291D01*
X160597964Y-80449268D01*
X160208046Y-80885680D01*
X160110145Y-81165561D01*
X160106165Y-81145553D01*
X159837237Y-80743073D01*
X159434757Y-80474145D01*
X158960000Y-80379710D01*
X158485243Y-80474145D01*
X158082763Y-80743073D01*
X157813835Y-81145553D01*
X157730383Y-81565094D01*
X157692182Y-81373045D01*
X157667985Y-81336832D01*
X157667985Y-80784000D01*
X157641697Y-80644292D01*
X157559130Y-80515980D01*
X157433147Y-80429899D01*
X157283600Y-80399615D01*
X155556400Y-80399615D01*
X155416692Y-80425903D01*
X155288380Y-80508470D01*
X155202299Y-80634453D01*
X155172015Y-80784000D01*
X155172015Y-81336832D01*
X155147818Y-81373045D01*
X155043000Y-81900000D01*
X155043000Y-84916000D01*
X155147818Y-85442955D01*
X155446314Y-85889686D01*
X155872999Y-86316371D01*
X155872999Y-86802599D01*
X155817011Y-86825733D01*
X155626402Y-87016010D01*
X155523118Y-87264746D01*
X155522883Y-87534073D01*
X155625733Y-87782989D01*
X155816010Y-87973598D01*
X156001859Y-88050769D01*
X152789628Y-91263000D01*
X140956247Y-91263000D01*
X140918300Y-91247243D01*
X140364131Y-91246759D01*
X139851960Y-91458384D01*
X139459761Y-91849899D01*
X139247243Y-92361700D01*
X139246759Y-92915869D01*
X139263000Y-92955175D01*
X139263000Y-96789628D01*
X133829628Y-102223000D01*
X132982584Y-102223000D01*
X133144349Y-102156160D01*
X133465034Y-101836034D01*
X133638802Y-101417555D01*
X133639197Y-100964433D01*
X133466160Y-100545651D01*
X133146034Y-100224966D01*
X132727555Y-100051198D01*
X132274433Y-100050803D01*
X131855651Y-100223840D01*
X131534966Y-100543966D01*
X131361198Y-100962445D01*
X131360803Y-101415567D01*
X131533840Y-101834349D01*
X131853966Y-102155034D01*
X132017646Y-102223000D01*
X130800000Y-102223000D01*
X130273045Y-102327818D01*
X129826314Y-102626314D01*
X127556028Y-104896600D01*
X125209894Y-104896600D01*
X125245300Y-104787405D01*
X124371100Y-103913205D01*
X124356958Y-103927348D01*
X124177353Y-103747743D01*
X124191495Y-103733600D01*
X124550705Y-103733600D01*
X125424905Y-104607800D01*
X125677616Y-104525859D01*
X125881348Y-103965570D01*
X125855158Y-103369965D01*
X125677616Y-102941341D01*
X125424905Y-102859400D01*
X124550705Y-103733600D01*
X124191495Y-103733600D01*
X124177353Y-103719458D01*
X124356958Y-103539853D01*
X124371100Y-103553995D01*
X125245300Y-102679795D01*
X125163359Y-102427084D01*
X124882071Y-102324802D01*
X125072925Y-102245943D01*
X125246467Y-102072703D01*
X126622762Y-102072703D01*
X126831956Y-102578991D01*
X127218974Y-102966685D01*
X127724896Y-103176762D01*
X128272701Y-103177240D01*
X128778989Y-102968046D01*
X129166683Y-102581028D01*
X129376760Y-102075106D01*
X129377238Y-101527301D01*
X129377000Y-101526725D01*
X129377000Y-98875567D01*
X131360803Y-98875567D01*
X131533840Y-99294349D01*
X131853966Y-99615034D01*
X132272445Y-99788802D01*
X132725567Y-99789197D01*
X133144349Y-99616160D01*
X133465034Y-99296034D01*
X133638802Y-98877555D01*
X133639197Y-98424433D01*
X133466160Y-98005651D01*
X133146034Y-97684966D01*
X132727555Y-97511198D01*
X132274433Y-97510803D01*
X131855651Y-97683840D01*
X131534966Y-98003966D01*
X131361198Y-98422445D01*
X131360803Y-98875567D01*
X129377000Y-98875567D01*
X129377000Y-96335567D01*
X131360803Y-96335567D01*
X131533840Y-96754349D01*
X131853966Y-97075034D01*
X132272445Y-97248802D01*
X132725567Y-97249197D01*
X133144349Y-97076160D01*
X133465034Y-96756034D01*
X133638802Y-96337555D01*
X133639197Y-95884433D01*
X133466160Y-95465651D01*
X133146034Y-95144966D01*
X132727555Y-94971198D01*
X132274433Y-94970803D01*
X131855651Y-95143840D01*
X131534966Y-95463966D01*
X131361198Y-95882445D01*
X131360803Y-96335567D01*
X129377000Y-96335567D01*
X129377000Y-94375022D01*
X134304584Y-94375022D01*
X134525353Y-94745743D01*
X135497012Y-95139119D01*
X136545247Y-95130713D01*
X137474647Y-94745743D01*
X137695416Y-94375022D01*
X136000000Y-92679605D01*
X134304584Y-94375022D01*
X129377000Y-94375022D01*
X129377000Y-93570372D01*
X130950360Y-91997012D01*
X133360881Y-91997012D01*
X133369287Y-93045247D01*
X133754257Y-93974647D01*
X134124978Y-94195416D01*
X135820395Y-92500000D01*
X136179605Y-92500000D01*
X137875022Y-94195416D01*
X138245743Y-93974647D01*
X138639119Y-93002988D01*
X138630713Y-91954753D01*
X138245743Y-91025353D01*
X137875022Y-90804584D01*
X136179605Y-92500000D01*
X135820395Y-92500000D01*
X134124978Y-90804584D01*
X133754257Y-91025353D01*
X133360881Y-91997012D01*
X130950360Y-91997012D01*
X132322394Y-90624978D01*
X134304584Y-90624978D01*
X136000000Y-92320395D01*
X137695416Y-90624978D01*
X137474647Y-90254257D01*
X136502988Y-89860881D01*
X135454753Y-89869287D01*
X134525353Y-90254257D01*
X134304584Y-90624978D01*
X132322394Y-90624978D01*
X133170372Y-89777000D01*
X139000000Y-89777000D01*
X139526955Y-89672182D01*
X139973686Y-89373686D01*
X140663686Y-88683686D01*
X140962182Y-88236955D01*
X141067000Y-87710000D01*
X141067000Y-86225567D01*
X141090803Y-86225567D01*
X141263840Y-86644349D01*
X141583966Y-86965034D01*
X142002445Y-87138802D01*
X142455567Y-87139197D01*
X142874349Y-86966160D01*
X143195034Y-86646034D01*
X143368802Y-86227555D01*
X143368803Y-86225567D01*
X146170803Y-86225567D01*
X146343840Y-86644349D01*
X146663966Y-86965034D01*
X147082445Y-87138802D01*
X147535567Y-87139197D01*
X147954349Y-86966160D01*
X148275034Y-86646034D01*
X148448802Y-86227555D01*
X148448803Y-86225567D01*
X148710803Y-86225567D01*
X148883840Y-86644349D01*
X149203966Y-86965034D01*
X149622445Y-87138802D01*
X150075567Y-87139197D01*
X150460338Y-86980213D01*
X151589392Y-86980213D01*
X151658857Y-87222397D01*
X152182302Y-87409144D01*
X152737368Y-87381362D01*
X153121143Y-87222397D01*
X153190608Y-86980213D01*
X152390000Y-86179605D01*
X151589392Y-86980213D01*
X150460338Y-86980213D01*
X150494349Y-86966160D01*
X150815034Y-86646034D01*
X150988802Y-86227555D01*
X150989039Y-85955791D01*
X151008638Y-86347368D01*
X151167603Y-86731143D01*
X151409787Y-86800608D01*
X152210395Y-86000000D01*
X152569605Y-86000000D01*
X153370213Y-86800608D01*
X153612397Y-86731143D01*
X153799144Y-86207698D01*
X153771362Y-85652632D01*
X153612397Y-85268857D01*
X153370213Y-85199392D01*
X152569605Y-86000000D01*
X152210395Y-86000000D01*
X151409787Y-85199392D01*
X151167603Y-85268857D01*
X150988142Y-85771880D01*
X150816160Y-85355651D01*
X150496034Y-85034966D01*
X150459479Y-85019787D01*
X151589392Y-85019787D01*
X152390000Y-85820395D01*
X153190608Y-85019787D01*
X153121143Y-84777603D01*
X152597698Y-84590856D01*
X152042632Y-84618638D01*
X151658857Y-84777603D01*
X151589392Y-85019787D01*
X150459479Y-85019787D01*
X150077555Y-84861198D01*
X149624433Y-84860803D01*
X149205651Y-85033840D01*
X148884966Y-85353966D01*
X148711198Y-85772445D01*
X148710803Y-86225567D01*
X148448803Y-86225567D01*
X148449197Y-85774433D01*
X148276160Y-85355651D01*
X147956034Y-85034966D01*
X147537555Y-84861198D01*
X147084433Y-84860803D01*
X146665651Y-85033840D01*
X146344966Y-85353966D01*
X146171198Y-85772445D01*
X146170803Y-86225567D01*
X143368803Y-86225567D01*
X143369197Y-85774433D01*
X143196160Y-85355651D01*
X142876034Y-85034966D01*
X142457555Y-84861198D01*
X142004433Y-84860803D01*
X141585651Y-85033840D01*
X141264966Y-85353966D01*
X141091198Y-85772445D01*
X141090803Y-86225567D01*
X141067000Y-86225567D01*
X141067000Y-86000000D01*
X140962182Y-85473045D01*
X140663686Y-85026314D01*
X140216955Y-84727818D01*
X139690000Y-84623000D01*
X139163045Y-84727818D01*
X138716314Y-85026314D01*
X138441990Y-85436869D01*
X138372397Y-85268857D01*
X138130213Y-85199392D01*
X137329605Y-86000000D01*
X138130213Y-86800608D01*
X138313000Y-86748180D01*
X138313000Y-87023000D01*
X137938336Y-87023000D01*
X137950608Y-86980213D01*
X137150000Y-86179605D01*
X136349392Y-86980213D01*
X136361664Y-87023000D01*
X135116786Y-87023000D01*
X135254349Y-86966160D01*
X135575034Y-86646034D01*
X135748802Y-86227555D01*
X135749039Y-85955791D01*
X135768638Y-86347368D01*
X135927603Y-86731143D01*
X136169787Y-86800608D01*
X136970395Y-86000000D01*
X136169787Y-85199392D01*
X135927603Y-85268857D01*
X135748142Y-85771880D01*
X135576160Y-85355651D01*
X135256034Y-85034966D01*
X135219479Y-85019787D01*
X136349392Y-85019787D01*
X137150000Y-85820395D01*
X137950608Y-85019787D01*
X137881143Y-84777603D01*
X137357698Y-84590856D01*
X136802632Y-84618638D01*
X136418857Y-84777603D01*
X136349392Y-85019787D01*
X135219479Y-85019787D01*
X134837555Y-84861198D01*
X134384433Y-84860803D01*
X133965651Y-85033840D01*
X133644966Y-85353966D01*
X133471198Y-85772445D01*
X133470803Y-86225567D01*
X133643840Y-86644349D01*
X133963966Y-86965034D01*
X134103563Y-87023000D01*
X132600000Y-87023000D01*
X132073045Y-87127818D01*
X131626314Y-87426314D01*
X127026314Y-92026314D01*
X126727818Y-92473045D01*
X126623000Y-93000000D01*
X126623000Y-101799947D01*
X126622762Y-102072703D01*
X125246467Y-102072703D01*
X125422216Y-101897261D01*
X125611484Y-101441453D01*
X125611915Y-100947912D01*
X125423443Y-100491775D01*
X125074761Y-100142484D01*
X124618953Y-99953216D01*
X124125412Y-99952785D01*
X123669275Y-100141257D01*
X123553100Y-100257229D01*
X123553100Y-99590177D01*
X123667439Y-99704716D01*
X124123247Y-99893984D01*
X124616788Y-99894415D01*
X125072925Y-99705943D01*
X125422216Y-99357261D01*
X125611484Y-98901453D01*
X125611915Y-98407912D01*
X125423443Y-97951775D01*
X125074761Y-97602484D01*
X124618953Y-97413216D01*
X124125412Y-97412785D01*
X123669275Y-97601257D01*
X123553100Y-97717229D01*
X123553100Y-97050177D01*
X123667439Y-97164716D01*
X124123247Y-97353984D01*
X124616788Y-97354415D01*
X125072925Y-97165943D01*
X125422216Y-96817261D01*
X125611484Y-96361453D01*
X125611915Y-95867912D01*
X125423443Y-95411775D01*
X125074761Y-95062484D01*
X124618953Y-94873216D01*
X124125412Y-94872785D01*
X123669275Y-95061257D01*
X123553100Y-95177229D01*
X123553100Y-94510177D01*
X123667439Y-94624716D01*
X124123247Y-94813984D01*
X124616788Y-94814415D01*
X125072925Y-94625943D01*
X125422216Y-94277261D01*
X125611484Y-93821453D01*
X125611915Y-93327912D01*
X125423443Y-92871775D01*
X125074761Y-92522484D01*
X124618953Y-92333216D01*
X124125412Y-92332785D01*
X123669275Y-92521257D01*
X123553100Y-92637229D01*
X123553100Y-91970177D01*
X123667439Y-92084716D01*
X124123247Y-92273984D01*
X124616788Y-92274415D01*
X125072925Y-92085943D01*
X125422216Y-91737261D01*
X125611484Y-91281453D01*
X125611915Y-90787912D01*
X125423443Y-90331775D01*
X125074761Y-89982484D01*
X124618953Y-89793216D01*
X124125412Y-89792785D01*
X123669275Y-89981257D01*
X123553100Y-90097229D01*
X123553100Y-89430177D01*
X123667439Y-89544716D01*
X124123247Y-89733984D01*
X124616788Y-89734415D01*
X125072925Y-89545943D01*
X125422216Y-89197261D01*
X125611484Y-88741453D01*
X125611915Y-88247912D01*
X125423443Y-87791775D01*
X125074761Y-87442484D01*
X124618953Y-87253216D01*
X124125412Y-87252785D01*
X123669275Y-87441257D01*
X123553100Y-87557229D01*
X123553100Y-86890177D01*
X123667439Y-87004716D01*
X124123247Y-87193984D01*
X124616788Y-87194415D01*
X125072925Y-87005943D01*
X125422216Y-86657261D01*
X125611484Y-86201453D01*
X125611915Y-85707912D01*
X125423443Y-85251775D01*
X125074761Y-84902484D01*
X124618953Y-84713216D01*
X124125412Y-84712785D01*
X123669275Y-84901257D01*
X123553100Y-85017229D01*
X123553100Y-84350177D01*
X123667439Y-84464716D01*
X124123247Y-84653984D01*
X124616788Y-84654415D01*
X125072925Y-84465943D01*
X125422216Y-84117261D01*
X125611484Y-83661453D01*
X125611915Y-83167912D01*
X125423443Y-82711775D01*
X125074761Y-82362484D01*
X124618953Y-82173216D01*
X124125412Y-82172785D01*
X123669275Y-82361257D01*
X123553100Y-82477229D01*
X123553100Y-81810177D01*
X123667439Y-81924716D01*
X124123247Y-82113984D01*
X124616788Y-82114415D01*
X125072925Y-81925943D01*
X125422216Y-81577261D01*
X125611484Y-81121453D01*
X125611915Y-80627912D01*
X125423443Y-80171775D01*
X125307471Y-80055600D01*
X171694523Y-80055600D01*
X171579984Y-80169939D01*
M02*
