M48
METRIC,TZ
T1C0.300
T2C0.762
T3C1.016
T4C1.100
T5C3.200
%
G90
G05
T1
X129000Y-117000
X129400Y-121400
X134600Y-121200
X134871Y-127209
X145000Y-115000
X149400Y-121200
X149495Y-114905
X154200Y-115000
X155200Y-109400
X156200Y-87400
X157800Y-90800
X158000Y-83400
X161000Y-88400
X163000Y-87400
T2
X132500Y-96110
X132500Y-98650
X132500Y-101190
X132500Y-106270
X132500Y-108810
X132500Y-111350
X132500Y-113890
X134610Y-86000
X137150Y-86000
X138200Y-124600
X139690Y-86000
X142230Y-86000
X147310Y-86000
X149850Y-86000
X152390Y-86000
T3
X124371Y-80874
X124371Y-83414
X124371Y-85954
X124371Y-88494
X124371Y-91034
X124371Y-93574
X124371Y-96114
X124371Y-98654
X124371Y-101194
X124371Y-103734
X124371Y-106274
X124371Y-108814
X124371Y-111354
X124371Y-113894
X124371Y-116434
X124371Y-118974
X124371Y-121514
X124371Y-124054
X124371Y-126594
X124371Y-129134
X140800Y-118060
X140800Y-120600
X140800Y-123140
X142660Y-128600
X145200Y-128600
X151600Y-128600
X154140Y-128600
X156000Y-118200
X156420Y-81800
X158960Y-81800
X161500Y-81800
X164040Y-81800
X165400Y-105000
X165400Y-107540
X165400Y-110080
X165660Y-128600
X166580Y-81800
X166600Y-89000
X168200Y-128600
X169000Y-93600
X169000Y-96140
X169000Y-98680
X169000Y-101220
X169000Y-108800
X169000Y-111340
X169000Y-113880
X169000Y-116420
X169120Y-81800
X169140Y-89000
X172631Y-80874
X172631Y-83414
X172631Y-85954
X172631Y-88494
X172631Y-91034
X172631Y-93574
X172631Y-96114
X172631Y-98654
X172631Y-101194
X172631Y-103734
X172631Y-106274
X172631Y-108814
X172631Y-111354
X172631Y-113894
X172631Y-116434
X172631Y-118974
X172631Y-121514
X172631Y-124054
X172631Y-126594
X172631Y-129134
T4
X128000Y-101800
X128000Y-108800
X140640Y-92640
X140640Y-102800
X140640Y-112960
X160960Y-100260
X160960Y-105340
X160960Y-112960
T5
X136000Y-92500
X136000Y-117500
X161000Y-92500
X161000Y-117500
T0
M30
