M48
METRIC,TZ
T1C0.300
T2C3.200
%
G90
G05
T1
X62500Y-79000
X67000Y-83000
X68500Y-74000
X70500Y-95500
X71250Y-106500
X71500Y-84500
X73500Y-85750
X75250Y-89750
X76000Y-84000
X76750Y-97250
X80000Y-92500
X82000Y-64000
X82750Y-87750
X83000Y-123500
X83250Y-76750
X84750Y-125500
X85000Y-66000
X85000Y-72000
X85000Y-132250
X85000Y-135500
X85500Y-133500
X86000Y-67000
X86500Y-68000
X87000Y-133500
X88750Y-76500
X89000Y-123500
X89500Y-64000
X90000Y-131000
X90000Y-133500
X96750Y-60750
X96750Y-71000
X102250Y-120500
X102750Y-122000
X103500Y-79250
X105500Y-67425
X108500Y-73500
X108500Y-77250
X109000Y-129000
X109000Y-131000
X110500Y-118500
X111500Y-119000
X112500Y-77000
X113000Y-62000
X115500Y-73000
X116500Y-81750
X118750Y-120750
X119250Y-93000
X120000Y-72750
X120500Y-77250
X120500Y-118500
X121000Y-69000
X121750Y-126750
X124000Y-97250
X124000Y-103250
X127250Y-78250
X127500Y-76250
X127500Y-117500
X128500Y-88000
X129000Y-78500
X129000Y-99250
X130250Y-63750
X130860Y-76500
X131250Y-97750
X132000Y-75000
X132000Y-81000
X132073Y-78992
X134750Y-75500
X136500Y-91500
X138750Y-114250
X139000Y-74000
T2
X65000Y-65000
X65000Y-135000
X86858Y-83371
X87062Y-116562
X92054Y-80371
X92258Y-119562
X100000Y-65000
X100000Y-135000
X121000Y-97000
X121000Y-103000
X135000Y-65000
X135000Y-135000
T0
M30
