G04 #@! TF.FileFunction,Copper,L2,Bot,Signal*
%FSLAX46Y46*%
G04 Gerber Fmt 4.6, Leading zero omitted, Abs format (unit mm)*
G04 Created by KiCad (PCBNEW 4.0.6+dfsg1-1) date Mon Aug 28 14:10:11 2017*
%MOMM*%
%LPD*%
G01*
G04 APERTURE LIST*
%ADD10C,0.100000*%
%ADD11C,0.300000*%
%ADD12C,4.000000*%
%ADD13C,0.600000*%
%ADD14C,1.600000*%
%ADD15C,0.254000*%
G04 APERTURE END LIST*
D10*
D11*
X71750000Y-62607143D02*
X71964286Y-62535714D01*
X72035714Y-62464286D01*
X72107143Y-62321429D01*
X72107143Y-62107143D01*
X72035714Y-61964286D01*
X71964286Y-61892857D01*
X71821428Y-61821429D01*
X71250000Y-61821429D01*
X71250000Y-63321429D01*
X71750000Y-63321429D01*
X71892857Y-63250000D01*
X71964286Y-63178571D01*
X72035714Y-63035714D01*
X72035714Y-62892857D01*
X71964286Y-62750000D01*
X71892857Y-62678571D01*
X71750000Y-62607143D01*
X71250000Y-62607143D01*
X73035714Y-63321429D02*
X73321428Y-63321429D01*
X73464286Y-63250000D01*
X73607143Y-63107143D01*
X73678571Y-62821429D01*
X73678571Y-62321429D01*
X73607143Y-62035714D01*
X73464286Y-61892857D01*
X73321428Y-61821429D01*
X73035714Y-61821429D01*
X72892857Y-61892857D01*
X72750000Y-62035714D01*
X72678571Y-62321429D01*
X72678571Y-62821429D01*
X72750000Y-63107143D01*
X72892857Y-63250000D01*
X73035714Y-63321429D01*
X74107143Y-63321429D02*
X74964286Y-63321429D01*
X74535715Y-61821429D02*
X74535715Y-63321429D01*
X128250000Y-137392857D02*
X128035714Y-137464286D01*
X127964286Y-137535714D01*
X127892857Y-137678571D01*
X127892857Y-137892857D01*
X127964286Y-138035714D01*
X128035714Y-138107143D01*
X128178572Y-138178571D01*
X128750000Y-138178571D01*
X128750000Y-136678571D01*
X128250000Y-136678571D01*
X128107143Y-136750000D01*
X128035714Y-136821429D01*
X127964286Y-136964286D01*
X127964286Y-137107143D01*
X128035714Y-137250000D01*
X128107143Y-137321429D01*
X128250000Y-137392857D01*
X128750000Y-137392857D01*
X126964286Y-136678571D02*
X126678572Y-136678571D01*
X126535714Y-136750000D01*
X126392857Y-136892857D01*
X126321429Y-137178571D01*
X126321429Y-137678571D01*
X126392857Y-137964286D01*
X126535714Y-138107143D01*
X126678572Y-138178571D01*
X126964286Y-138178571D01*
X127107143Y-138107143D01*
X127250000Y-137964286D01*
X127321429Y-137678571D01*
X127321429Y-137178571D01*
X127250000Y-136892857D01*
X127107143Y-136750000D01*
X126964286Y-136678571D01*
X125892857Y-136678571D02*
X125035714Y-136678571D01*
X125464285Y-138178571D02*
X125464285Y-136678571D01*
D12*
X92258330Y-119562178D03*
X87062178Y-116562178D03*
X86857695Y-83370835D03*
X92053848Y-80370835D03*
X121000000Y-97000000D03*
X121000000Y-103000000D03*
X65000000Y-135000000D03*
X135000000Y-135000000D03*
X65000000Y-65000000D03*
X135000000Y-65000000D03*
D13*
X112250000Y-100000000D03*
X112063895Y-102127190D03*
X111511235Y-104189747D03*
X110608811Y-106125000D03*
X109384044Y-107874148D03*
X107874148Y-109384044D03*
X106125000Y-110608811D03*
X104189747Y-111511235D03*
X102127190Y-112063895D03*
X100000000Y-112250000D03*
X97872810Y-112063895D03*
X95810253Y-111511235D03*
X93875000Y-110608811D03*
X92125852Y-109384044D03*
X90615956Y-107874148D03*
X89391189Y-106125000D03*
X88488765Y-104189747D03*
X87936105Y-102127190D03*
X87750000Y-100000000D03*
X87936105Y-97872810D03*
X88488765Y-95810253D03*
X89391189Y-93875000D03*
X90615956Y-92125852D03*
X92125852Y-90615956D03*
X93875000Y-89391189D03*
X95810253Y-88488765D03*
X97872810Y-87936105D03*
X100000000Y-87750000D03*
X102127190Y-87936105D03*
X104189747Y-88488765D03*
X106125000Y-89391189D03*
X107874148Y-90615956D03*
X109384044Y-92125852D03*
X110608811Y-93875000D03*
X111511235Y-95810253D03*
X112063895Y-97872810D03*
X93600000Y-111950000D03*
X86450000Y-100400000D03*
X92850000Y-88500000D03*
X106400000Y-88050000D03*
X113550000Y-99600000D03*
X107150000Y-111550000D03*
D11*
X111900000Y-100000000D02*
X111900000Y-100650000D01*
X111900000Y-100650000D02*
X112750000Y-101500000D01*
X112750000Y-101500000D02*
X117500000Y-101500000D01*
X117500000Y-101500000D02*
X118750000Y-100250000D01*
X118750000Y-100250000D02*
X123000000Y-100250000D01*
X123000000Y-100250000D02*
X135000000Y-112250000D01*
X135000000Y-112250000D02*
X135000000Y-135000000D01*
D14*
X112250000Y-100000000D02*
X112244818Y-100356288D01*
X112244818Y-100356288D02*
X112229275Y-100712274D01*
X112229275Y-100712274D02*
X112203385Y-101067658D01*
X112203385Y-101067658D02*
X112167170Y-101422138D01*
X112167170Y-101422138D02*
X112120660Y-101775415D01*
X112120660Y-101775415D02*
X112063895Y-102127190D01*
X112063895Y-102127190D02*
X111996923Y-102477165D01*
X111996923Y-102477165D02*
X111919800Y-102825044D01*
X111919800Y-102825044D02*
X111832591Y-103170533D01*
X111832591Y-103170533D02*
X111735372Y-103513340D01*
X111735372Y-103513340D02*
X111628222Y-103853173D01*
X111628222Y-103853173D02*
X111511235Y-104189747D01*
X111511235Y-104189747D02*
X111384507Y-104522775D01*
X111384507Y-104522775D02*
X111248147Y-104851977D01*
X111248147Y-104851977D02*
X111102270Y-105177074D01*
X111102270Y-105177074D02*
X110947000Y-105497790D01*
X110947000Y-105497790D02*
X110782467Y-105813855D01*
X110782467Y-105813855D02*
X110608811Y-106125000D01*
X110608811Y-106125000D02*
X110426179Y-106430963D01*
X110426179Y-106430963D02*
X110234726Y-106731485D01*
X110234726Y-106731485D02*
X110034613Y-107026311D01*
X110034613Y-107026311D02*
X109826009Y-107315193D01*
X109826009Y-107315193D02*
X109609092Y-107597885D01*
X109609092Y-107597885D02*
X109384044Y-107874148D01*
X109384044Y-107874148D02*
X109151057Y-108143749D01*
X109151057Y-108143749D02*
X108910327Y-108406460D01*
X108910327Y-108406460D02*
X108662058Y-108662058D01*
X108662058Y-108662058D02*
X108406460Y-108910327D01*
X108406460Y-108910327D02*
X108143749Y-109151057D01*
X108143749Y-109151057D02*
X107874148Y-109384044D01*
X107874148Y-109384044D02*
X107597885Y-109609092D01*
X107597885Y-109609092D02*
X107315193Y-109826009D01*
X107315193Y-109826009D02*
X107026311Y-110034613D01*
X107026311Y-110034613D02*
X106731485Y-110234726D01*
X106731485Y-110234726D02*
X106430963Y-110426179D01*
X106430963Y-110426179D02*
X106125000Y-110608811D01*
X106125000Y-110608811D02*
X105813855Y-110782467D01*
X105813855Y-110782467D02*
X105497790Y-110947000D01*
X105497790Y-110947000D02*
X105177074Y-111102270D01*
X105177074Y-111102270D02*
X104851977Y-111248147D01*
X104851977Y-111248147D02*
X104522775Y-111384507D01*
X104522775Y-111384507D02*
X104189747Y-111511235D01*
X104189747Y-111511235D02*
X103853173Y-111628222D01*
X103853173Y-111628222D02*
X103513340Y-111735372D01*
X103513340Y-111735372D02*
X103170533Y-111832591D01*
X103170533Y-111832591D02*
X102825044Y-111919800D01*
X102825044Y-111919800D02*
X102477165Y-111996923D01*
X102477165Y-111996923D02*
X102127190Y-112063895D01*
X102127190Y-112063895D02*
X101775415Y-112120660D01*
X101775415Y-112120660D02*
X101422138Y-112167170D01*
X101422138Y-112167170D02*
X101067658Y-112203385D01*
X101067658Y-112203385D02*
X100712274Y-112229275D01*
X100712274Y-112229275D02*
X100356288Y-112244818D01*
X100356288Y-112244818D02*
X100000000Y-112250000D01*
X100000000Y-112250000D02*
X99643712Y-112244818D01*
X99643712Y-112244818D02*
X99287726Y-112229275D01*
X99287726Y-112229275D02*
X98932342Y-112203385D01*
X98932342Y-112203385D02*
X98577862Y-112167170D01*
X98577862Y-112167170D02*
X98224585Y-112120660D01*
X98224585Y-112120660D02*
X97872810Y-112063895D01*
X97872810Y-112063895D02*
X97522835Y-111996923D01*
X97522835Y-111996923D02*
X97174956Y-111919800D01*
X97174956Y-111919800D02*
X96829467Y-111832591D01*
X96829467Y-111832591D02*
X96486660Y-111735372D01*
X96486660Y-111735372D02*
X96146827Y-111628222D01*
X96146827Y-111628222D02*
X95810253Y-111511235D01*
X95810253Y-111511235D02*
X95477225Y-111384507D01*
X95477225Y-111384507D02*
X95148023Y-111248147D01*
X95148023Y-111248147D02*
X94822926Y-111102270D01*
X94822926Y-111102270D02*
X94502210Y-110947000D01*
X94502210Y-110947000D02*
X94186145Y-110782467D01*
X94186145Y-110782467D02*
X93875000Y-110608811D01*
X93875000Y-110608811D02*
X93569037Y-110426179D01*
X93569037Y-110426179D02*
X93268515Y-110234726D01*
X93268515Y-110234726D02*
X92973689Y-110034613D01*
X92973689Y-110034613D02*
X92684807Y-109826009D01*
X92684807Y-109826009D02*
X92402115Y-109609092D01*
X92402115Y-109609092D02*
X92125852Y-109384044D01*
X92125852Y-109384044D02*
X91856251Y-109151057D01*
X91856251Y-109151057D02*
X91593540Y-108910327D01*
X91593540Y-108910327D02*
X91337942Y-108662058D01*
X91337942Y-108662058D02*
X91089673Y-108406460D01*
X91089673Y-108406460D02*
X90848943Y-108143749D01*
X90848943Y-108143749D02*
X90615956Y-107874148D01*
X90615956Y-107874148D02*
X90390908Y-107597885D01*
X90390908Y-107597885D02*
X90173991Y-107315193D01*
X90173991Y-107315193D02*
X89965387Y-107026311D01*
X89965387Y-107026311D02*
X89765274Y-106731485D01*
X89765274Y-106731485D02*
X89573821Y-106430963D01*
X89573821Y-106430963D02*
X89391189Y-106125000D01*
X89391189Y-106125000D02*
X89217533Y-105813855D01*
X89217533Y-105813855D02*
X89053000Y-105497790D01*
X89053000Y-105497790D02*
X88897730Y-105177074D01*
X88897730Y-105177074D02*
X88751853Y-104851977D01*
X88751853Y-104851977D02*
X88615493Y-104522775D01*
X88615493Y-104522775D02*
X88488765Y-104189747D01*
X88488765Y-104189747D02*
X88371778Y-103853173D01*
X88371778Y-103853173D02*
X88264628Y-103513340D01*
X88264628Y-103513340D02*
X88167409Y-103170533D01*
X88167409Y-103170533D02*
X88080200Y-102825044D01*
X88080200Y-102825044D02*
X88003077Y-102477165D01*
X88003077Y-102477165D02*
X87936105Y-102127190D01*
X87936105Y-102127190D02*
X87879340Y-101775415D01*
X87879340Y-101775415D02*
X87832830Y-101422138D01*
X87832830Y-101422138D02*
X87796615Y-101067658D01*
X87796615Y-101067658D02*
X87770725Y-100712274D01*
X87770725Y-100712274D02*
X87755182Y-100356288D01*
X87755182Y-100356288D02*
X87750000Y-100000000D01*
X87750000Y-100000000D02*
X87755182Y-99643712D01*
X87755182Y-99643712D02*
X87770725Y-99287726D01*
X87770725Y-99287726D02*
X87796615Y-98932342D01*
X87796615Y-98932342D02*
X87832830Y-98577862D01*
X87832830Y-98577862D02*
X87879340Y-98224585D01*
X87879340Y-98224585D02*
X87936105Y-97872810D01*
X87936105Y-97872810D02*
X88003077Y-97522835D01*
X88003077Y-97522835D02*
X88080200Y-97174956D01*
X88080200Y-97174956D02*
X88167409Y-96829467D01*
X88167409Y-96829467D02*
X88264628Y-96486660D01*
X88264628Y-96486660D02*
X88371778Y-96146827D01*
X88371778Y-96146827D02*
X88488765Y-95810253D01*
X88488765Y-95810253D02*
X88615493Y-95477225D01*
X88615493Y-95477225D02*
X88751853Y-95148023D01*
X88751853Y-95148023D02*
X88897730Y-94822926D01*
X88897730Y-94822926D02*
X89053000Y-94502210D01*
X89053000Y-94502210D02*
X89217533Y-94186145D01*
X89217533Y-94186145D02*
X89391189Y-93875000D01*
X89391189Y-93875000D02*
X89573821Y-93569037D01*
X89573821Y-93569037D02*
X89765274Y-93268515D01*
X89765274Y-93268515D02*
X89965387Y-92973689D01*
X89965387Y-92973689D02*
X90173991Y-92684807D01*
X90173991Y-92684807D02*
X90390908Y-92402115D01*
X90390908Y-92402115D02*
X90615956Y-92125852D01*
X90615956Y-92125852D02*
X90848943Y-91856251D01*
X90848943Y-91856251D02*
X91089673Y-91593540D01*
X91089673Y-91593540D02*
X91337942Y-91337942D01*
X91337942Y-91337942D02*
X91593540Y-91089673D01*
X91593540Y-91089673D02*
X91856251Y-90848943D01*
X91856251Y-90848943D02*
X92125852Y-90615956D01*
X92125852Y-90615956D02*
X92402115Y-90390908D01*
X92402115Y-90390908D02*
X92684807Y-90173991D01*
X92684807Y-90173991D02*
X92973689Y-89965387D01*
X92973689Y-89965387D02*
X93268515Y-89765274D01*
X93268515Y-89765274D02*
X93569037Y-89573821D01*
X93569037Y-89573821D02*
X93875000Y-89391189D01*
X93875000Y-89391189D02*
X94186145Y-89217533D01*
X94186145Y-89217533D02*
X94502210Y-89053000D01*
X94502210Y-89053000D02*
X94822926Y-88897730D01*
X94822926Y-88897730D02*
X95148023Y-88751853D01*
X95148023Y-88751853D02*
X95477225Y-88615493D01*
X95477225Y-88615493D02*
X95810253Y-88488765D01*
X95810253Y-88488765D02*
X96146827Y-88371778D01*
X96146827Y-88371778D02*
X96486660Y-88264628D01*
X96486660Y-88264628D02*
X96829467Y-88167409D01*
X96829467Y-88167409D02*
X97174956Y-88080200D01*
X97174956Y-88080200D02*
X97522835Y-88003077D01*
X97522835Y-88003077D02*
X97872810Y-87936105D01*
X97872810Y-87936105D02*
X98224585Y-87879340D01*
X98224585Y-87879340D02*
X98577862Y-87832830D01*
X98577862Y-87832830D02*
X98932342Y-87796615D01*
X98932342Y-87796615D02*
X99287726Y-87770725D01*
X99287726Y-87770725D02*
X99643712Y-87755182D01*
X99643712Y-87755182D02*
X100000000Y-87750000D01*
X100000000Y-87750000D02*
X100356288Y-87755182D01*
X100356288Y-87755182D02*
X100712274Y-87770725D01*
X100712274Y-87770725D02*
X101067658Y-87796615D01*
X101067658Y-87796615D02*
X101422138Y-87832830D01*
X101422138Y-87832830D02*
X101775415Y-87879340D01*
X101775415Y-87879340D02*
X102127190Y-87936105D01*
X102127190Y-87936105D02*
X102477165Y-88003077D01*
X102477165Y-88003077D02*
X102825044Y-88080200D01*
X102825044Y-88080200D02*
X103170533Y-88167409D01*
X103170533Y-88167409D02*
X103513340Y-88264628D01*
X103513340Y-88264628D02*
X103853173Y-88371778D01*
X103853173Y-88371778D02*
X104189747Y-88488765D01*
X104189747Y-88488765D02*
X104522775Y-88615493D01*
X104522775Y-88615493D02*
X104851977Y-88751853D01*
X104851977Y-88751853D02*
X105177074Y-88897730D01*
X105177074Y-88897730D02*
X105497790Y-89053000D01*
X105497790Y-89053000D02*
X105813855Y-89217533D01*
X105813855Y-89217533D02*
X106125000Y-89391189D01*
X106125000Y-89391189D02*
X106430963Y-89573821D01*
X106430963Y-89573821D02*
X106731485Y-89765274D01*
X106731485Y-89765274D02*
X107026311Y-89965387D01*
X107026311Y-89965387D02*
X107315193Y-90173991D01*
X107315193Y-90173991D02*
X107597885Y-90390908D01*
X107597885Y-90390908D02*
X107874148Y-90615956D01*
X107874148Y-90615956D02*
X108143749Y-90848943D01*
X108143749Y-90848943D02*
X108406460Y-91089673D01*
X108406460Y-91089673D02*
X108662058Y-91337942D01*
X108662058Y-91337942D02*
X108910327Y-91593540D01*
X108910327Y-91593540D02*
X109151057Y-91856251D01*
X109151057Y-91856251D02*
X109384044Y-92125852D01*
X109384044Y-92125852D02*
X109609092Y-92402115D01*
X109609092Y-92402115D02*
X109826009Y-92684807D01*
X109826009Y-92684807D02*
X110034613Y-92973689D01*
X110034613Y-92973689D02*
X110234726Y-93268515D01*
X110234726Y-93268515D02*
X110426179Y-93569037D01*
X110426179Y-93569037D02*
X110608811Y-93875000D01*
X110608811Y-93875000D02*
X110782467Y-94186145D01*
X110782467Y-94186145D02*
X110947000Y-94502210D01*
X110947000Y-94502210D02*
X111102270Y-94822926D01*
X111102270Y-94822926D02*
X111248147Y-95148023D01*
X111248147Y-95148023D02*
X111384507Y-95477225D01*
X111384507Y-95477225D02*
X111511235Y-95810253D01*
X111511235Y-95810253D02*
X111628222Y-96146827D01*
X111628222Y-96146827D02*
X111735372Y-96486660D01*
X111735372Y-96486660D02*
X111832591Y-96829467D01*
X111832591Y-96829467D02*
X111919800Y-97174956D01*
X111919800Y-97174956D02*
X111996923Y-97522835D01*
X111996923Y-97522835D02*
X112063895Y-97872810D01*
X112063895Y-97872810D02*
X112120660Y-98224585D01*
X112120660Y-98224585D02*
X112167170Y-98577862D01*
X112167170Y-98577862D02*
X112203385Y-98932342D01*
X112203385Y-98932342D02*
X112229275Y-99287726D01*
X112229275Y-99287726D02*
X112244818Y-99643712D01*
X112244818Y-99643712D02*
X112250000Y-100000000D01*
D11*
X92258330Y-119562178D02*
X93300000Y-118520508D01*
X93300000Y-118520508D02*
X93300001Y-112249999D01*
X93300001Y-112249999D02*
X93600000Y-111950000D01*
X86450000Y-113121573D02*
X86450000Y-100400000D01*
X87062178Y-113733751D02*
X86450000Y-113121573D01*
X87062178Y-116562178D02*
X87062178Y-113733751D01*
X92425736Y-88500000D02*
X92850000Y-88500000D01*
X91986860Y-88500000D02*
X92425736Y-88500000D01*
X86857695Y-83370835D02*
X91986860Y-88500000D01*
X98411440Y-83900000D02*
X102250000Y-83900000D01*
X102250000Y-83900000D02*
X106400000Y-88050000D01*
X92053848Y-80370835D02*
X94882275Y-80370835D01*
X94882275Y-80370835D02*
X98411440Y-83900000D01*
X113849999Y-99300001D02*
X113550000Y-99600000D01*
X116150000Y-97000000D02*
X113849999Y-99300001D01*
X121000000Y-97000000D02*
X116150000Y-97000000D01*
X107574264Y-111550000D02*
X107150000Y-111550000D01*
X112450000Y-111550000D02*
X107574264Y-111550000D01*
X121000000Y-103000000D02*
X112450000Y-111550000D01*
D15*
G36*
X142172500Y-142172500D02*
X57827500Y-142172500D01*
X57827500Y-135973000D01*
X124565857Y-135973000D01*
X124565857Y-139177000D01*
X129434143Y-139177000D01*
X129434143Y-135973000D01*
X124565857Y-135973000D01*
X57827500Y-135973000D01*
X57827500Y-119757838D01*
X89928272Y-119757838D01*
X90010651Y-120206690D01*
X90178644Y-120630991D01*
X90425852Y-121014582D01*
X90742858Y-121342852D01*
X91117588Y-121603296D01*
X91535768Y-121785994D01*
X91981471Y-121883989D01*
X92437719Y-121893546D01*
X92887134Y-121814302D01*
X93312598Y-121649275D01*
X93697906Y-121404751D01*
X94028381Y-121090045D01*
X94291434Y-120717142D01*
X94477048Y-120300247D01*
X94578151Y-119855240D01*
X94585429Y-119334004D01*
X94496791Y-118886347D01*
X94322890Y-118464432D01*
X94070351Y-118084330D01*
X93777000Y-117788924D01*
X93777001Y-112553888D01*
X93884068Y-112512359D01*
X93987888Y-112446474D01*
X94076933Y-112361677D01*
X94147811Y-112261200D01*
X94197824Y-112148870D01*
X94225066Y-112028964D01*
X94227027Y-111888519D01*
X94203144Y-111767900D01*
X94156287Y-111654217D01*
X94122073Y-111602720D01*
X106522176Y-111602720D01*
X106544372Y-111723661D01*
X106589637Y-111837987D01*
X106656246Y-111941344D01*
X106741662Y-112029795D01*
X106842632Y-112099971D01*
X106955309Y-112149198D01*
X107075401Y-112175602D01*
X107198336Y-112178177D01*
X107319429Y-112156825D01*
X107434068Y-112112359D01*
X107537888Y-112046474D01*
X107558338Y-112027000D01*
X112450000Y-112027000D01*
X112493914Y-112022694D01*
X112537745Y-112018860D01*
X112540151Y-112018161D01*
X112542650Y-112017916D01*
X112584823Y-112005183D01*
X112627143Y-111992888D01*
X112629373Y-111991732D01*
X112631771Y-111991008D01*
X112670647Y-111970337D01*
X112709792Y-111950046D01*
X112711752Y-111948481D01*
X112713968Y-111947303D01*
X112748098Y-111919467D01*
X112782548Y-111891967D01*
X112786040Y-111888523D01*
X112786111Y-111888465D01*
X112786166Y-111888399D01*
X112787290Y-111887290D01*
X119726046Y-104948534D01*
X119859258Y-105041118D01*
X120277438Y-105223816D01*
X120723141Y-105321811D01*
X121179389Y-105331368D01*
X121628804Y-105252124D01*
X122054268Y-105087097D01*
X122439576Y-104842573D01*
X122770051Y-104527867D01*
X123033104Y-104154964D01*
X123218718Y-103738069D01*
X123319821Y-103293062D01*
X123327099Y-102771826D01*
X123238461Y-102324169D01*
X123064560Y-101902254D01*
X122812021Y-101522152D01*
X122490462Y-101198340D01*
X122112133Y-100943154D01*
X121691442Y-100766312D01*
X121244415Y-100674550D01*
X120788078Y-100671364D01*
X120339813Y-100756875D01*
X119916694Y-100927827D01*
X119534838Y-101177706D01*
X119208790Y-101496996D01*
X118950968Y-101873535D01*
X118771193Y-102292981D01*
X118676313Y-102739357D01*
X118669942Y-103195660D01*
X118752321Y-103644512D01*
X118920314Y-104068813D01*
X119052106Y-104273314D01*
X112252420Y-111073000D01*
X107559990Y-111073000D01*
X107551599Y-111064550D01*
X107449659Y-110995791D01*
X107336306Y-110948142D01*
X107215856Y-110923417D01*
X107092898Y-110922559D01*
X106972115Y-110945600D01*
X106858108Y-110991662D01*
X106755218Y-111058991D01*
X106667366Y-111145022D01*
X106597897Y-111246479D01*
X106549457Y-111359497D01*
X106523892Y-111479771D01*
X106522176Y-111602720D01*
X94122073Y-111602720D01*
X94088241Y-111551800D01*
X94001599Y-111464550D01*
X93899659Y-111395791D01*
X93786306Y-111348142D01*
X93665856Y-111323417D01*
X93542898Y-111322559D01*
X93422115Y-111345600D01*
X93308108Y-111391662D01*
X93205218Y-111458991D01*
X93117366Y-111545022D01*
X93047897Y-111646479D01*
X92999457Y-111759497D01*
X92973892Y-111879771D01*
X92973584Y-111901836D01*
X92962711Y-111912709D01*
X92934706Y-111946803D01*
X92906422Y-111980510D01*
X92905215Y-111982705D01*
X92903621Y-111984646D01*
X92882806Y-112023466D01*
X92861573Y-112062089D01*
X92860813Y-112064484D01*
X92859630Y-112066691D01*
X92846761Y-112108782D01*
X92833425Y-112150825D01*
X92833145Y-112153319D01*
X92832412Y-112155717D01*
X92827962Y-112199520D01*
X92823047Y-112243339D01*
X92823013Y-112248244D01*
X92823004Y-112248334D01*
X92823012Y-112248418D01*
X92823001Y-112249999D01*
X92823000Y-117302467D01*
X92502745Y-117236728D01*
X92046408Y-117233542D01*
X91598143Y-117319053D01*
X91175024Y-117490005D01*
X90793168Y-117739884D01*
X90467120Y-118059174D01*
X90209298Y-118435713D01*
X90029523Y-118855159D01*
X89934643Y-119301535D01*
X89928272Y-119757838D01*
X57827500Y-119757838D01*
X57827500Y-116757838D01*
X84732120Y-116757838D01*
X84814499Y-117206690D01*
X84982492Y-117630991D01*
X85229700Y-118014582D01*
X85546706Y-118342852D01*
X85921436Y-118603296D01*
X86339616Y-118785994D01*
X86785319Y-118883989D01*
X87241567Y-118893546D01*
X87690982Y-118814302D01*
X88116446Y-118649275D01*
X88501754Y-118404751D01*
X88832229Y-118090045D01*
X89095282Y-117717142D01*
X89280896Y-117300247D01*
X89381999Y-116855240D01*
X89389277Y-116334004D01*
X89300639Y-115886347D01*
X89126738Y-115464432D01*
X88874199Y-115084330D01*
X88552640Y-114760518D01*
X88174311Y-114505332D01*
X87753620Y-114328490D01*
X87539178Y-114284471D01*
X87539178Y-113733751D01*
X87534872Y-113689837D01*
X87531038Y-113646006D01*
X87530339Y-113643600D01*
X87530094Y-113641101D01*
X87517361Y-113598928D01*
X87505066Y-113556608D01*
X87503910Y-113554378D01*
X87503186Y-113551980D01*
X87482505Y-113513085D01*
X87462223Y-113473958D01*
X87460659Y-113471999D01*
X87459481Y-113469783D01*
X87431616Y-113435617D01*
X87404144Y-113401203D01*
X87400702Y-113397713D01*
X87400643Y-113397640D01*
X87400576Y-113397584D01*
X87399468Y-113396461D01*
X86927000Y-112923993D01*
X86927000Y-100811582D01*
X86997811Y-100711200D01*
X87047824Y-100598870D01*
X87075066Y-100478964D01*
X87077027Y-100338519D01*
X87053144Y-100217900D01*
X87029959Y-100161647D01*
X88423629Y-100161647D01*
X88675496Y-102407098D01*
X89358711Y-104560862D01*
X90447248Y-106540905D01*
X91899648Y-108271807D01*
X93660587Y-109687639D01*
X95662992Y-110734471D01*
X97830593Y-111372431D01*
X100080826Y-111577218D01*
X102327980Y-111341032D01*
X104486462Y-110672871D01*
X106474056Y-109598182D01*
X108215055Y-108157903D01*
X109643146Y-106406891D01*
X110703932Y-104411842D01*
X111357008Y-102248748D01*
X111577500Y-100000000D01*
X111572986Y-99676737D01*
X111569952Y-99652720D01*
X112922176Y-99652720D01*
X112944372Y-99773661D01*
X112989637Y-99887987D01*
X113056246Y-99991344D01*
X113141662Y-100079795D01*
X113242632Y-100149971D01*
X113355309Y-100199198D01*
X113475401Y-100225602D01*
X113598336Y-100228177D01*
X113719429Y-100206825D01*
X113834068Y-100162359D01*
X113937888Y-100096474D01*
X114026933Y-100011677D01*
X114097811Y-99911200D01*
X114147824Y-99798870D01*
X114175066Y-99678964D01*
X114175483Y-99649097D01*
X116347580Y-97477000D01*
X118721577Y-97477000D01*
X118752321Y-97644512D01*
X118920314Y-98068813D01*
X119167522Y-98452404D01*
X119484528Y-98780674D01*
X119859258Y-99041118D01*
X120277438Y-99223816D01*
X120723141Y-99321811D01*
X121179389Y-99331368D01*
X121628804Y-99252124D01*
X122054268Y-99087097D01*
X122439576Y-98842573D01*
X122770051Y-98527867D01*
X123033104Y-98154964D01*
X123218718Y-97738069D01*
X123319821Y-97293062D01*
X123327099Y-96771826D01*
X123238461Y-96324169D01*
X123064560Y-95902254D01*
X122812021Y-95522152D01*
X122490462Y-95198340D01*
X122112133Y-94943154D01*
X121691442Y-94766312D01*
X121244415Y-94674550D01*
X120788078Y-94671364D01*
X120339813Y-94756875D01*
X119916694Y-94927827D01*
X119534838Y-95177706D01*
X119208790Y-95496996D01*
X118950968Y-95873535D01*
X118771193Y-96292981D01*
X118722301Y-96523000D01*
X116150000Y-96523000D01*
X116106086Y-96527306D01*
X116062255Y-96531140D01*
X116059849Y-96531839D01*
X116057350Y-96532084D01*
X116015177Y-96544817D01*
X115972857Y-96557112D01*
X115970627Y-96558268D01*
X115968229Y-96558992D01*
X115929353Y-96579663D01*
X115890208Y-96599954D01*
X115888248Y-96601519D01*
X115886032Y-96602697D01*
X115851902Y-96630533D01*
X115817452Y-96658033D01*
X115813960Y-96661477D01*
X115813889Y-96661535D01*
X115813834Y-96661601D01*
X115812710Y-96662710D01*
X113502792Y-98972628D01*
X113492898Y-98972559D01*
X113372115Y-98995600D01*
X113258108Y-99041662D01*
X113155218Y-99108991D01*
X113067366Y-99195022D01*
X112997897Y-99296479D01*
X112949457Y-99409497D01*
X112923892Y-99529771D01*
X112922176Y-99652720D01*
X111569952Y-99652720D01*
X111289792Y-97435022D01*
X110576573Y-95291007D01*
X109460495Y-93326355D01*
X107984070Y-91615900D01*
X106203535Y-90224793D01*
X104186708Y-89206021D01*
X102010412Y-88598388D01*
X99757539Y-88425039D01*
X97513902Y-88692577D01*
X95364959Y-89390810D01*
X93392564Y-90493145D01*
X91671843Y-91957593D01*
X90268340Y-93728373D01*
X89235513Y-95738038D01*
X88612701Y-97910040D01*
X88423629Y-100161647D01*
X87029959Y-100161647D01*
X87006287Y-100104217D01*
X86938241Y-100001800D01*
X86851599Y-99914550D01*
X86749659Y-99845791D01*
X86636306Y-99798142D01*
X86515856Y-99773417D01*
X86392898Y-99772559D01*
X86272115Y-99795600D01*
X86158108Y-99841662D01*
X86055218Y-99908991D01*
X85967366Y-99995022D01*
X85897897Y-100096479D01*
X85849457Y-100209497D01*
X85823892Y-100329771D01*
X85822176Y-100452720D01*
X85844372Y-100573661D01*
X85889637Y-100687987D01*
X85956246Y-100791344D01*
X85973000Y-100808693D01*
X85973000Y-113121573D01*
X85977306Y-113165487D01*
X85981140Y-113209318D01*
X85981839Y-113211724D01*
X85982084Y-113214223D01*
X85994817Y-113256396D01*
X86007112Y-113298716D01*
X86008268Y-113300946D01*
X86008992Y-113303344D01*
X86029663Y-113342220D01*
X86049954Y-113381365D01*
X86051519Y-113383325D01*
X86052697Y-113385541D01*
X86080533Y-113419671D01*
X86108033Y-113454121D01*
X86111477Y-113457613D01*
X86111535Y-113457684D01*
X86111601Y-113457739D01*
X86112710Y-113458863D01*
X86585178Y-113931331D01*
X86585178Y-114284108D01*
X86401991Y-114319053D01*
X85978872Y-114490005D01*
X85597016Y-114739884D01*
X85270968Y-115059174D01*
X85013146Y-115435713D01*
X84833371Y-115855159D01*
X84738491Y-116301535D01*
X84732120Y-116757838D01*
X57827500Y-116757838D01*
X57827500Y-83566495D01*
X84527637Y-83566495D01*
X84610016Y-84015347D01*
X84778009Y-84439648D01*
X85025217Y-84823239D01*
X85342223Y-85151509D01*
X85716953Y-85411953D01*
X86135133Y-85594651D01*
X86580836Y-85692646D01*
X87037084Y-85702203D01*
X87486499Y-85622959D01*
X87911963Y-85457932D01*
X88131127Y-85318847D01*
X91649570Y-88837290D01*
X91683664Y-88865295D01*
X91717371Y-88893579D01*
X91719566Y-88894786D01*
X91721507Y-88896380D01*
X91760327Y-88917195D01*
X91798950Y-88938428D01*
X91801345Y-88939188D01*
X91803552Y-88940371D01*
X91845643Y-88953240D01*
X91887686Y-88966576D01*
X91890180Y-88966856D01*
X91892578Y-88967589D01*
X91936377Y-88972038D01*
X91980200Y-88976954D01*
X91985106Y-88976988D01*
X91985196Y-88976997D01*
X91985280Y-88976989D01*
X91986860Y-88977000D01*
X92438963Y-88977000D01*
X92441662Y-88979795D01*
X92542632Y-89049971D01*
X92655309Y-89099198D01*
X92775401Y-89125602D01*
X92898336Y-89128177D01*
X93019429Y-89106825D01*
X93134068Y-89062359D01*
X93237888Y-88996474D01*
X93326933Y-88911677D01*
X93397811Y-88811200D01*
X93447824Y-88698870D01*
X93475066Y-88578964D01*
X93477027Y-88438519D01*
X93453144Y-88317900D01*
X93406287Y-88204217D01*
X93338241Y-88101800D01*
X93251599Y-88014550D01*
X93149659Y-87945791D01*
X93036306Y-87898142D01*
X92915856Y-87873417D01*
X92792898Y-87872559D01*
X92672115Y-87895600D01*
X92558108Y-87941662D01*
X92455218Y-88008991D01*
X92440912Y-88023000D01*
X92184440Y-88023000D01*
X88806600Y-84645160D01*
X88890799Y-84525799D01*
X89076413Y-84108904D01*
X89177516Y-83663897D01*
X89184794Y-83142661D01*
X89096156Y-82695004D01*
X88922255Y-82273089D01*
X88669716Y-81892987D01*
X88348157Y-81569175D01*
X87969828Y-81313989D01*
X87549137Y-81137147D01*
X87102110Y-81045385D01*
X86645773Y-81042199D01*
X86197508Y-81127710D01*
X85774389Y-81298662D01*
X85392533Y-81548541D01*
X85066485Y-81867831D01*
X84808663Y-82244370D01*
X84628888Y-82663816D01*
X84534008Y-83110192D01*
X84527637Y-83566495D01*
X57827500Y-83566495D01*
X57827500Y-80566495D01*
X89723790Y-80566495D01*
X89806169Y-81015347D01*
X89974162Y-81439648D01*
X90221370Y-81823239D01*
X90538376Y-82151509D01*
X90913106Y-82411953D01*
X91331286Y-82594651D01*
X91776989Y-82692646D01*
X92233237Y-82702203D01*
X92682652Y-82622959D01*
X93108116Y-82457932D01*
X93493424Y-82213408D01*
X93823899Y-81898702D01*
X94086952Y-81525799D01*
X94272566Y-81108904D01*
X94331879Y-80847835D01*
X94684695Y-80847835D01*
X98074150Y-84237290D01*
X98108244Y-84265295D01*
X98141951Y-84293579D01*
X98144146Y-84294786D01*
X98146087Y-84296380D01*
X98184907Y-84317195D01*
X98223530Y-84338428D01*
X98225925Y-84339188D01*
X98228132Y-84340371D01*
X98270223Y-84353240D01*
X98312266Y-84366576D01*
X98314760Y-84366856D01*
X98317158Y-84367589D01*
X98360961Y-84372039D01*
X98404780Y-84376954D01*
X98409685Y-84376988D01*
X98409775Y-84376997D01*
X98409859Y-84376989D01*
X98411440Y-84377000D01*
X102052420Y-84377000D01*
X105772258Y-88096838D01*
X105772176Y-88102720D01*
X105794372Y-88223661D01*
X105839637Y-88337987D01*
X105906246Y-88441344D01*
X105991662Y-88529795D01*
X106092632Y-88599971D01*
X106205309Y-88649198D01*
X106325401Y-88675602D01*
X106448336Y-88678177D01*
X106569429Y-88656825D01*
X106684068Y-88612359D01*
X106787888Y-88546474D01*
X106876933Y-88461677D01*
X106947811Y-88361200D01*
X106997824Y-88248870D01*
X107025066Y-88128964D01*
X107027027Y-87988519D01*
X107003144Y-87867900D01*
X106956287Y-87754217D01*
X106888241Y-87651800D01*
X106801599Y-87564550D01*
X106699659Y-87495791D01*
X106586306Y-87448142D01*
X106465856Y-87423417D01*
X106447872Y-87423292D01*
X102587290Y-83562710D01*
X102553196Y-83534705D01*
X102519489Y-83506421D01*
X102517294Y-83505214D01*
X102515353Y-83503620D01*
X102476533Y-83482805D01*
X102437910Y-83461572D01*
X102435515Y-83460812D01*
X102433308Y-83459629D01*
X102391217Y-83446760D01*
X102349174Y-83433424D01*
X102346680Y-83433144D01*
X102344282Y-83432411D01*
X102300479Y-83427961D01*
X102256660Y-83423046D01*
X102251755Y-83423012D01*
X102251665Y-83423003D01*
X102251581Y-83423011D01*
X102250000Y-83423000D01*
X98609020Y-83423000D01*
X95219565Y-80033545D01*
X95185471Y-80005540D01*
X95151764Y-79977256D01*
X95149569Y-79976049D01*
X95147628Y-79974455D01*
X95108808Y-79953640D01*
X95070185Y-79932407D01*
X95067790Y-79931647D01*
X95065583Y-79930464D01*
X95023492Y-79917595D01*
X94981449Y-79904259D01*
X94978955Y-79903979D01*
X94976557Y-79903246D01*
X94932754Y-79898796D01*
X94888935Y-79893881D01*
X94884030Y-79893847D01*
X94883940Y-79893838D01*
X94883856Y-79893846D01*
X94882275Y-79893835D01*
X94331678Y-79893835D01*
X94292309Y-79695004D01*
X94118408Y-79273089D01*
X93865869Y-78892987D01*
X93544310Y-78569175D01*
X93165981Y-78313989D01*
X92745290Y-78137147D01*
X92298263Y-78045385D01*
X91841926Y-78042199D01*
X91393661Y-78127710D01*
X90970542Y-78298662D01*
X90588686Y-78548541D01*
X90262638Y-78867831D01*
X90004816Y-79244370D01*
X89825041Y-79663816D01*
X89730161Y-80110192D01*
X89723790Y-80566495D01*
X57827500Y-80566495D01*
X57827500Y-60823000D01*
X70565857Y-60823000D01*
X70565857Y-64027000D01*
X75434143Y-64027000D01*
X75434143Y-60823000D01*
X70565857Y-60823000D01*
X57827500Y-60823000D01*
X57827500Y-57827500D01*
X142172500Y-57827500D01*
X142172500Y-142172500D01*
X142172500Y-142172500D01*
G37*
X142172500Y-142172500D02*
X57827500Y-142172500D01*
X57827500Y-135973000D01*
X124565857Y-135973000D01*
X124565857Y-139177000D01*
X129434143Y-139177000D01*
X129434143Y-135973000D01*
X124565857Y-135973000D01*
X57827500Y-135973000D01*
X57827500Y-119757838D01*
X89928272Y-119757838D01*
X90010651Y-120206690D01*
X90178644Y-120630991D01*
X90425852Y-121014582D01*
X90742858Y-121342852D01*
X91117588Y-121603296D01*
X91535768Y-121785994D01*
X91981471Y-121883989D01*
X92437719Y-121893546D01*
X92887134Y-121814302D01*
X93312598Y-121649275D01*
X93697906Y-121404751D01*
X94028381Y-121090045D01*
X94291434Y-120717142D01*
X94477048Y-120300247D01*
X94578151Y-119855240D01*
X94585429Y-119334004D01*
X94496791Y-118886347D01*
X94322890Y-118464432D01*
X94070351Y-118084330D01*
X93777000Y-117788924D01*
X93777001Y-112553888D01*
X93884068Y-112512359D01*
X93987888Y-112446474D01*
X94076933Y-112361677D01*
X94147811Y-112261200D01*
X94197824Y-112148870D01*
X94225066Y-112028964D01*
X94227027Y-111888519D01*
X94203144Y-111767900D01*
X94156287Y-111654217D01*
X94122073Y-111602720D01*
X106522176Y-111602720D01*
X106544372Y-111723661D01*
X106589637Y-111837987D01*
X106656246Y-111941344D01*
X106741662Y-112029795D01*
X106842632Y-112099971D01*
X106955309Y-112149198D01*
X107075401Y-112175602D01*
X107198336Y-112178177D01*
X107319429Y-112156825D01*
X107434068Y-112112359D01*
X107537888Y-112046474D01*
X107558338Y-112027000D01*
X112450000Y-112027000D01*
X112493914Y-112022694D01*
X112537745Y-112018860D01*
X112540151Y-112018161D01*
X112542650Y-112017916D01*
X112584823Y-112005183D01*
X112627143Y-111992888D01*
X112629373Y-111991732D01*
X112631771Y-111991008D01*
X112670647Y-111970337D01*
X112709792Y-111950046D01*
X112711752Y-111948481D01*
X112713968Y-111947303D01*
X112748098Y-111919467D01*
X112782548Y-111891967D01*
X112786040Y-111888523D01*
X112786111Y-111888465D01*
X112786166Y-111888399D01*
X112787290Y-111887290D01*
X119726046Y-104948534D01*
X119859258Y-105041118D01*
X120277438Y-105223816D01*
X120723141Y-105321811D01*
X121179389Y-105331368D01*
X121628804Y-105252124D01*
X122054268Y-105087097D01*
X122439576Y-104842573D01*
X122770051Y-104527867D01*
X123033104Y-104154964D01*
X123218718Y-103738069D01*
X123319821Y-103293062D01*
X123327099Y-102771826D01*
X123238461Y-102324169D01*
X123064560Y-101902254D01*
X122812021Y-101522152D01*
X122490462Y-101198340D01*
X122112133Y-100943154D01*
X121691442Y-100766312D01*
X121244415Y-100674550D01*
X120788078Y-100671364D01*
X120339813Y-100756875D01*
X119916694Y-100927827D01*
X119534838Y-101177706D01*
X119208790Y-101496996D01*
X118950968Y-101873535D01*
X118771193Y-102292981D01*
X118676313Y-102739357D01*
X118669942Y-103195660D01*
X118752321Y-103644512D01*
X118920314Y-104068813D01*
X119052106Y-104273314D01*
X112252420Y-111073000D01*
X107559990Y-111073000D01*
X107551599Y-111064550D01*
X107449659Y-110995791D01*
X107336306Y-110948142D01*
X107215856Y-110923417D01*
X107092898Y-110922559D01*
X106972115Y-110945600D01*
X106858108Y-110991662D01*
X106755218Y-111058991D01*
X106667366Y-111145022D01*
X106597897Y-111246479D01*
X106549457Y-111359497D01*
X106523892Y-111479771D01*
X106522176Y-111602720D01*
X94122073Y-111602720D01*
X94088241Y-111551800D01*
X94001599Y-111464550D01*
X93899659Y-111395791D01*
X93786306Y-111348142D01*
X93665856Y-111323417D01*
X93542898Y-111322559D01*
X93422115Y-111345600D01*
X93308108Y-111391662D01*
X93205218Y-111458991D01*
X93117366Y-111545022D01*
X93047897Y-111646479D01*
X92999457Y-111759497D01*
X92973892Y-111879771D01*
X92973584Y-111901836D01*
X92962711Y-111912709D01*
X92934706Y-111946803D01*
X92906422Y-111980510D01*
X92905215Y-111982705D01*
X92903621Y-111984646D01*
X92882806Y-112023466D01*
X92861573Y-112062089D01*
X92860813Y-112064484D01*
X92859630Y-112066691D01*
X92846761Y-112108782D01*
X92833425Y-112150825D01*
X92833145Y-112153319D01*
X92832412Y-112155717D01*
X92827962Y-112199520D01*
X92823047Y-112243339D01*
X92823013Y-112248244D01*
X92823004Y-112248334D01*
X92823012Y-112248418D01*
X92823001Y-112249999D01*
X92823000Y-117302467D01*
X92502745Y-117236728D01*
X92046408Y-117233542D01*
X91598143Y-117319053D01*
X91175024Y-117490005D01*
X90793168Y-117739884D01*
X90467120Y-118059174D01*
X90209298Y-118435713D01*
X90029523Y-118855159D01*
X89934643Y-119301535D01*
X89928272Y-119757838D01*
X57827500Y-119757838D01*
X57827500Y-116757838D01*
X84732120Y-116757838D01*
X84814499Y-117206690D01*
X84982492Y-117630991D01*
X85229700Y-118014582D01*
X85546706Y-118342852D01*
X85921436Y-118603296D01*
X86339616Y-118785994D01*
X86785319Y-118883989D01*
X87241567Y-118893546D01*
X87690982Y-118814302D01*
X88116446Y-118649275D01*
X88501754Y-118404751D01*
X88832229Y-118090045D01*
X89095282Y-117717142D01*
X89280896Y-117300247D01*
X89381999Y-116855240D01*
X89389277Y-116334004D01*
X89300639Y-115886347D01*
X89126738Y-115464432D01*
X88874199Y-115084330D01*
X88552640Y-114760518D01*
X88174311Y-114505332D01*
X87753620Y-114328490D01*
X87539178Y-114284471D01*
X87539178Y-113733751D01*
X87534872Y-113689837D01*
X87531038Y-113646006D01*
X87530339Y-113643600D01*
X87530094Y-113641101D01*
X87517361Y-113598928D01*
X87505066Y-113556608D01*
X87503910Y-113554378D01*
X87503186Y-113551980D01*
X87482505Y-113513085D01*
X87462223Y-113473958D01*
X87460659Y-113471999D01*
X87459481Y-113469783D01*
X87431616Y-113435617D01*
X87404144Y-113401203D01*
X87400702Y-113397713D01*
X87400643Y-113397640D01*
X87400576Y-113397584D01*
X87399468Y-113396461D01*
X86927000Y-112923993D01*
X86927000Y-100811582D01*
X86997811Y-100711200D01*
X87047824Y-100598870D01*
X87075066Y-100478964D01*
X87077027Y-100338519D01*
X87053144Y-100217900D01*
X87029959Y-100161647D01*
X88423629Y-100161647D01*
X88675496Y-102407098D01*
X89358711Y-104560862D01*
X90447248Y-106540905D01*
X91899648Y-108271807D01*
X93660587Y-109687639D01*
X95662992Y-110734471D01*
X97830593Y-111372431D01*
X100080826Y-111577218D01*
X102327980Y-111341032D01*
X104486462Y-110672871D01*
X106474056Y-109598182D01*
X108215055Y-108157903D01*
X109643146Y-106406891D01*
X110703932Y-104411842D01*
X111357008Y-102248748D01*
X111577500Y-100000000D01*
X111572986Y-99676737D01*
X111569952Y-99652720D01*
X112922176Y-99652720D01*
X112944372Y-99773661D01*
X112989637Y-99887987D01*
X113056246Y-99991344D01*
X113141662Y-100079795D01*
X113242632Y-100149971D01*
X113355309Y-100199198D01*
X113475401Y-100225602D01*
X113598336Y-100228177D01*
X113719429Y-100206825D01*
X113834068Y-100162359D01*
X113937888Y-100096474D01*
X114026933Y-100011677D01*
X114097811Y-99911200D01*
X114147824Y-99798870D01*
X114175066Y-99678964D01*
X114175483Y-99649097D01*
X116347580Y-97477000D01*
X118721577Y-97477000D01*
X118752321Y-97644512D01*
X118920314Y-98068813D01*
X119167522Y-98452404D01*
X119484528Y-98780674D01*
X119859258Y-99041118D01*
X120277438Y-99223816D01*
X120723141Y-99321811D01*
X121179389Y-99331368D01*
X121628804Y-99252124D01*
X122054268Y-99087097D01*
X122439576Y-98842573D01*
X122770051Y-98527867D01*
X123033104Y-98154964D01*
X123218718Y-97738069D01*
X123319821Y-97293062D01*
X123327099Y-96771826D01*
X123238461Y-96324169D01*
X123064560Y-95902254D01*
X122812021Y-95522152D01*
X122490462Y-95198340D01*
X122112133Y-94943154D01*
X121691442Y-94766312D01*
X121244415Y-94674550D01*
X120788078Y-94671364D01*
X120339813Y-94756875D01*
X119916694Y-94927827D01*
X119534838Y-95177706D01*
X119208790Y-95496996D01*
X118950968Y-95873535D01*
X118771193Y-96292981D01*
X118722301Y-96523000D01*
X116150000Y-96523000D01*
X116106086Y-96527306D01*
X116062255Y-96531140D01*
X116059849Y-96531839D01*
X116057350Y-96532084D01*
X116015177Y-96544817D01*
X115972857Y-96557112D01*
X115970627Y-96558268D01*
X115968229Y-96558992D01*
X115929353Y-96579663D01*
X115890208Y-96599954D01*
X115888248Y-96601519D01*
X115886032Y-96602697D01*
X115851902Y-96630533D01*
X115817452Y-96658033D01*
X115813960Y-96661477D01*
X115813889Y-96661535D01*
X115813834Y-96661601D01*
X115812710Y-96662710D01*
X113502792Y-98972628D01*
X113492898Y-98972559D01*
X113372115Y-98995600D01*
X113258108Y-99041662D01*
X113155218Y-99108991D01*
X113067366Y-99195022D01*
X112997897Y-99296479D01*
X112949457Y-99409497D01*
X112923892Y-99529771D01*
X112922176Y-99652720D01*
X111569952Y-99652720D01*
X111289792Y-97435022D01*
X110576573Y-95291007D01*
X109460495Y-93326355D01*
X107984070Y-91615900D01*
X106203535Y-90224793D01*
X104186708Y-89206021D01*
X102010412Y-88598388D01*
X99757539Y-88425039D01*
X97513902Y-88692577D01*
X95364959Y-89390810D01*
X93392564Y-90493145D01*
X91671843Y-91957593D01*
X90268340Y-93728373D01*
X89235513Y-95738038D01*
X88612701Y-97910040D01*
X88423629Y-100161647D01*
X87029959Y-100161647D01*
X87006287Y-100104217D01*
X86938241Y-100001800D01*
X86851599Y-99914550D01*
X86749659Y-99845791D01*
X86636306Y-99798142D01*
X86515856Y-99773417D01*
X86392898Y-99772559D01*
X86272115Y-99795600D01*
X86158108Y-99841662D01*
X86055218Y-99908991D01*
X85967366Y-99995022D01*
X85897897Y-100096479D01*
X85849457Y-100209497D01*
X85823892Y-100329771D01*
X85822176Y-100452720D01*
X85844372Y-100573661D01*
X85889637Y-100687987D01*
X85956246Y-100791344D01*
X85973000Y-100808693D01*
X85973000Y-113121573D01*
X85977306Y-113165487D01*
X85981140Y-113209318D01*
X85981839Y-113211724D01*
X85982084Y-113214223D01*
X85994817Y-113256396D01*
X86007112Y-113298716D01*
X86008268Y-113300946D01*
X86008992Y-113303344D01*
X86029663Y-113342220D01*
X86049954Y-113381365D01*
X86051519Y-113383325D01*
X86052697Y-113385541D01*
X86080533Y-113419671D01*
X86108033Y-113454121D01*
X86111477Y-113457613D01*
X86111535Y-113457684D01*
X86111601Y-113457739D01*
X86112710Y-113458863D01*
X86585178Y-113931331D01*
X86585178Y-114284108D01*
X86401991Y-114319053D01*
X85978872Y-114490005D01*
X85597016Y-114739884D01*
X85270968Y-115059174D01*
X85013146Y-115435713D01*
X84833371Y-115855159D01*
X84738491Y-116301535D01*
X84732120Y-116757838D01*
X57827500Y-116757838D01*
X57827500Y-83566495D01*
X84527637Y-83566495D01*
X84610016Y-84015347D01*
X84778009Y-84439648D01*
X85025217Y-84823239D01*
X85342223Y-85151509D01*
X85716953Y-85411953D01*
X86135133Y-85594651D01*
X86580836Y-85692646D01*
X87037084Y-85702203D01*
X87486499Y-85622959D01*
X87911963Y-85457932D01*
X88131127Y-85318847D01*
X91649570Y-88837290D01*
X91683664Y-88865295D01*
X91717371Y-88893579D01*
X91719566Y-88894786D01*
X91721507Y-88896380D01*
X91760327Y-88917195D01*
X91798950Y-88938428D01*
X91801345Y-88939188D01*
X91803552Y-88940371D01*
X91845643Y-88953240D01*
X91887686Y-88966576D01*
X91890180Y-88966856D01*
X91892578Y-88967589D01*
X91936377Y-88972038D01*
X91980200Y-88976954D01*
X91985106Y-88976988D01*
X91985196Y-88976997D01*
X91985280Y-88976989D01*
X91986860Y-88977000D01*
X92438963Y-88977000D01*
X92441662Y-88979795D01*
X92542632Y-89049971D01*
X92655309Y-89099198D01*
X92775401Y-89125602D01*
X92898336Y-89128177D01*
X93019429Y-89106825D01*
X93134068Y-89062359D01*
X93237888Y-88996474D01*
X93326933Y-88911677D01*
X93397811Y-88811200D01*
X93447824Y-88698870D01*
X93475066Y-88578964D01*
X93477027Y-88438519D01*
X93453144Y-88317900D01*
X93406287Y-88204217D01*
X93338241Y-88101800D01*
X93251599Y-88014550D01*
X93149659Y-87945791D01*
X93036306Y-87898142D01*
X92915856Y-87873417D01*
X92792898Y-87872559D01*
X92672115Y-87895600D01*
X92558108Y-87941662D01*
X92455218Y-88008991D01*
X92440912Y-88023000D01*
X92184440Y-88023000D01*
X88806600Y-84645160D01*
X88890799Y-84525799D01*
X89076413Y-84108904D01*
X89177516Y-83663897D01*
X89184794Y-83142661D01*
X89096156Y-82695004D01*
X88922255Y-82273089D01*
X88669716Y-81892987D01*
X88348157Y-81569175D01*
X87969828Y-81313989D01*
X87549137Y-81137147D01*
X87102110Y-81045385D01*
X86645773Y-81042199D01*
X86197508Y-81127710D01*
X85774389Y-81298662D01*
X85392533Y-81548541D01*
X85066485Y-81867831D01*
X84808663Y-82244370D01*
X84628888Y-82663816D01*
X84534008Y-83110192D01*
X84527637Y-83566495D01*
X57827500Y-83566495D01*
X57827500Y-80566495D01*
X89723790Y-80566495D01*
X89806169Y-81015347D01*
X89974162Y-81439648D01*
X90221370Y-81823239D01*
X90538376Y-82151509D01*
X90913106Y-82411953D01*
X91331286Y-82594651D01*
X91776989Y-82692646D01*
X92233237Y-82702203D01*
X92682652Y-82622959D01*
X93108116Y-82457932D01*
X93493424Y-82213408D01*
X93823899Y-81898702D01*
X94086952Y-81525799D01*
X94272566Y-81108904D01*
X94331879Y-80847835D01*
X94684695Y-80847835D01*
X98074150Y-84237290D01*
X98108244Y-84265295D01*
X98141951Y-84293579D01*
X98144146Y-84294786D01*
X98146087Y-84296380D01*
X98184907Y-84317195D01*
X98223530Y-84338428D01*
X98225925Y-84339188D01*
X98228132Y-84340371D01*
X98270223Y-84353240D01*
X98312266Y-84366576D01*
X98314760Y-84366856D01*
X98317158Y-84367589D01*
X98360961Y-84372039D01*
X98404780Y-84376954D01*
X98409685Y-84376988D01*
X98409775Y-84376997D01*
X98409859Y-84376989D01*
X98411440Y-84377000D01*
X102052420Y-84377000D01*
X105772258Y-88096838D01*
X105772176Y-88102720D01*
X105794372Y-88223661D01*
X105839637Y-88337987D01*
X105906246Y-88441344D01*
X105991662Y-88529795D01*
X106092632Y-88599971D01*
X106205309Y-88649198D01*
X106325401Y-88675602D01*
X106448336Y-88678177D01*
X106569429Y-88656825D01*
X106684068Y-88612359D01*
X106787888Y-88546474D01*
X106876933Y-88461677D01*
X106947811Y-88361200D01*
X106997824Y-88248870D01*
X107025066Y-88128964D01*
X107027027Y-87988519D01*
X107003144Y-87867900D01*
X106956287Y-87754217D01*
X106888241Y-87651800D01*
X106801599Y-87564550D01*
X106699659Y-87495791D01*
X106586306Y-87448142D01*
X106465856Y-87423417D01*
X106447872Y-87423292D01*
X102587290Y-83562710D01*
X102553196Y-83534705D01*
X102519489Y-83506421D01*
X102517294Y-83505214D01*
X102515353Y-83503620D01*
X102476533Y-83482805D01*
X102437910Y-83461572D01*
X102435515Y-83460812D01*
X102433308Y-83459629D01*
X102391217Y-83446760D01*
X102349174Y-83433424D01*
X102346680Y-83433144D01*
X102344282Y-83432411D01*
X102300479Y-83427961D01*
X102256660Y-83423046D01*
X102251755Y-83423012D01*
X102251665Y-83423003D01*
X102251581Y-83423011D01*
X102250000Y-83423000D01*
X98609020Y-83423000D01*
X95219565Y-80033545D01*
X95185471Y-80005540D01*
X95151764Y-79977256D01*
X95149569Y-79976049D01*
X95147628Y-79974455D01*
X95108808Y-79953640D01*
X95070185Y-79932407D01*
X95067790Y-79931647D01*
X95065583Y-79930464D01*
X95023492Y-79917595D01*
X94981449Y-79904259D01*
X94978955Y-79903979D01*
X94976557Y-79903246D01*
X94932754Y-79898796D01*
X94888935Y-79893881D01*
X94884030Y-79893847D01*
X94883940Y-79893838D01*
X94883856Y-79893846D01*
X94882275Y-79893835D01*
X94331678Y-79893835D01*
X94292309Y-79695004D01*
X94118408Y-79273089D01*
X93865869Y-78892987D01*
X93544310Y-78569175D01*
X93165981Y-78313989D01*
X92745290Y-78137147D01*
X92298263Y-78045385D01*
X91841926Y-78042199D01*
X91393661Y-78127710D01*
X90970542Y-78298662D01*
X90588686Y-78548541D01*
X90262638Y-78867831D01*
X90004816Y-79244370D01*
X89825041Y-79663816D01*
X89730161Y-80110192D01*
X89723790Y-80566495D01*
X57827500Y-80566495D01*
X57827500Y-60823000D01*
X70565857Y-60823000D01*
X70565857Y-64027000D01*
X75434143Y-64027000D01*
X75434143Y-60823000D01*
X70565857Y-60823000D01*
X57827500Y-60823000D01*
X57827500Y-57827500D01*
X142172500Y-57827500D01*
X142172500Y-142172500D01*
M02*
