G04 #@! TF.FileFunction,Copper,L1,Top,Signal*
%FSLAX46Y46*%
G04 Gerber Fmt 4.6, Leading zero omitted, Abs format (unit mm)*
G04 Created by KiCad (PCBNEW 4.0.6+dfsg1-1) date Mon Aug 28 14:10:11 2017*
%MOMM*%
%LPD*%
G01*
G04 APERTURE LIST*
%ADD10C,0.100000*%
%ADD11C,0.300000*%
%ADD12C,4.000000*%
%ADD13C,0.600000*%
%ADD14C,1.600000*%
%ADD15C,0.254000*%
G04 APERTURE END LIST*
D10*
D11*
X66964286Y-60821429D02*
X66107143Y-60821429D01*
X66535714Y-59321429D02*
X66535714Y-60821429D01*
X65321429Y-60821429D02*
X65035715Y-60821429D01*
X64892857Y-60750000D01*
X64750000Y-60607143D01*
X64678572Y-60321429D01*
X64678572Y-59821429D01*
X64750000Y-59535714D01*
X64892857Y-59392857D01*
X65035715Y-59321429D01*
X65321429Y-59321429D01*
X65464286Y-59392857D01*
X65607143Y-59535714D01*
X65678572Y-59821429D01*
X65678572Y-60321429D01*
X65607143Y-60607143D01*
X65464286Y-60750000D01*
X65321429Y-60821429D01*
X64035714Y-59321429D02*
X64035714Y-60821429D01*
X63464286Y-60821429D01*
X63321428Y-60750000D01*
X63250000Y-60678571D01*
X63178571Y-60535714D01*
X63178571Y-60321429D01*
X63250000Y-60178571D01*
X63321428Y-60107143D01*
X63464286Y-60035714D01*
X64035714Y-60035714D01*
X133035714Y-139178571D02*
X133892857Y-139178571D01*
X133464286Y-140678571D02*
X133464286Y-139178571D01*
X134678571Y-139178571D02*
X134964285Y-139178571D01*
X135107143Y-139250000D01*
X135250000Y-139392857D01*
X135321428Y-139678571D01*
X135321428Y-140178571D01*
X135250000Y-140464286D01*
X135107143Y-140607143D01*
X134964285Y-140678571D01*
X134678571Y-140678571D01*
X134535714Y-140607143D01*
X134392857Y-140464286D01*
X134321428Y-140178571D01*
X134321428Y-139678571D01*
X134392857Y-139392857D01*
X134535714Y-139250000D01*
X134678571Y-139178571D01*
X135964286Y-140678571D02*
X135964286Y-139178571D01*
X136535714Y-139178571D01*
X136678572Y-139250000D01*
X136750000Y-139321429D01*
X136821429Y-139464286D01*
X136821429Y-139678571D01*
X136750000Y-139821429D01*
X136678572Y-139892857D01*
X136535714Y-139964286D01*
X135964286Y-139964286D01*
D12*
X65000000Y-135000000D03*
X135000000Y-135000000D03*
X65000000Y-65000000D03*
X135000000Y-65000000D03*
D13*
X112250000Y-100000000D03*
X112063895Y-102127190D03*
X111511235Y-104189747D03*
X110608811Y-106125000D03*
X109384044Y-107874148D03*
X107874148Y-109384044D03*
X106125000Y-110608811D03*
X104189747Y-111511235D03*
X102127190Y-112063895D03*
X100000000Y-112250000D03*
X97872810Y-112063895D03*
X95810253Y-111511235D03*
X93875000Y-110608811D03*
X92125852Y-109384044D03*
X90615956Y-107874148D03*
X89391189Y-106125000D03*
X88488765Y-104189747D03*
X87936105Y-102127190D03*
X87750000Y-100000000D03*
X87936105Y-97872810D03*
X88488765Y-95810253D03*
X89391189Y-93875000D03*
X90615956Y-92125852D03*
X92125852Y-90615956D03*
X93875000Y-89391189D03*
X95810253Y-88488765D03*
X97872810Y-87936105D03*
X100000000Y-87750000D03*
X102127190Y-87936105D03*
X104189747Y-88488765D03*
X106125000Y-89391189D03*
X107874148Y-90615956D03*
X109384044Y-92125852D03*
X110608811Y-93875000D03*
X111511235Y-95810253D03*
X112063895Y-97872810D03*
X93600000Y-111950000D03*
X86450000Y-100400000D03*
X92850000Y-88500000D03*
X106400000Y-88050000D03*
X113550000Y-99600000D03*
X107150000Y-111550000D03*
D14*
X112250000Y-100000000D02*
X112244818Y-100356288D01*
X112244818Y-100356288D02*
X112229275Y-100712274D01*
X112229275Y-100712274D02*
X112203385Y-101067658D01*
X112203385Y-101067658D02*
X112167170Y-101422138D01*
X112167170Y-101422138D02*
X112120660Y-101775415D01*
X112120660Y-101775415D02*
X112063895Y-102127190D01*
X112063895Y-102127190D02*
X111996923Y-102477165D01*
X111996923Y-102477165D02*
X111919800Y-102825044D01*
X111919800Y-102825044D02*
X111832591Y-103170533D01*
X111832591Y-103170533D02*
X111735372Y-103513340D01*
X111735372Y-103513340D02*
X111628222Y-103853173D01*
X111628222Y-103853173D02*
X111511235Y-104189747D01*
X111511235Y-104189747D02*
X111384507Y-104522775D01*
X111384507Y-104522775D02*
X111248147Y-104851977D01*
X111248147Y-104851977D02*
X111102270Y-105177074D01*
X111102270Y-105177074D02*
X110947000Y-105497790D01*
X110947000Y-105497790D02*
X110782467Y-105813855D01*
X110782467Y-105813855D02*
X110608811Y-106125000D01*
X110608811Y-106125000D02*
X110426179Y-106430963D01*
X110426179Y-106430963D02*
X110234726Y-106731485D01*
X110234726Y-106731485D02*
X110034613Y-107026311D01*
X110034613Y-107026311D02*
X109826009Y-107315193D01*
X109826009Y-107315193D02*
X109609092Y-107597885D01*
X109609092Y-107597885D02*
X109384044Y-107874148D01*
X109384044Y-107874148D02*
X109151057Y-108143749D01*
X109151057Y-108143749D02*
X108910327Y-108406460D01*
X108910327Y-108406460D02*
X108662058Y-108662058D01*
X108662058Y-108662058D02*
X108406460Y-108910327D01*
X108406460Y-108910327D02*
X108143749Y-109151057D01*
X108143749Y-109151057D02*
X107874148Y-109384044D01*
X107874148Y-109384044D02*
X107597885Y-109609092D01*
X107597885Y-109609092D02*
X107315193Y-109826009D01*
X107315193Y-109826009D02*
X107026311Y-110034613D01*
X107026311Y-110034613D02*
X106731485Y-110234726D01*
X106731485Y-110234726D02*
X106430963Y-110426179D01*
X106430963Y-110426179D02*
X106125000Y-110608811D01*
X106125000Y-110608811D02*
X105813855Y-110782467D01*
X105813855Y-110782467D02*
X105497790Y-110947000D01*
X105497790Y-110947000D02*
X105177074Y-111102270D01*
X105177074Y-111102270D02*
X104851977Y-111248147D01*
X104851977Y-111248147D02*
X104522775Y-111384507D01*
X104522775Y-111384507D02*
X104189747Y-111511235D01*
X104189747Y-111511235D02*
X103853173Y-111628222D01*
X103853173Y-111628222D02*
X103513340Y-111735372D01*
X103513340Y-111735372D02*
X103170533Y-111832591D01*
X103170533Y-111832591D02*
X102825044Y-111919800D01*
X102825044Y-111919800D02*
X102477165Y-111996923D01*
X102477165Y-111996923D02*
X102127190Y-112063895D01*
X102127190Y-112063895D02*
X101775415Y-112120660D01*
X101775415Y-112120660D02*
X101422138Y-112167170D01*
X101422138Y-112167170D02*
X101067658Y-112203385D01*
X101067658Y-112203385D02*
X100712274Y-112229275D01*
X100712274Y-112229275D02*
X100356288Y-112244818D01*
X100356288Y-112244818D02*
X100000000Y-112250000D01*
X100000000Y-112250000D02*
X99643712Y-112244818D01*
X99643712Y-112244818D02*
X99287726Y-112229275D01*
X99287726Y-112229275D02*
X98932342Y-112203385D01*
X98932342Y-112203385D02*
X98577862Y-112167170D01*
X98577862Y-112167170D02*
X98224585Y-112120660D01*
X98224585Y-112120660D02*
X97872810Y-112063895D01*
X97872810Y-112063895D02*
X97522835Y-111996923D01*
X97522835Y-111996923D02*
X97174956Y-111919800D01*
X97174956Y-111919800D02*
X96829467Y-111832591D01*
X96829467Y-111832591D02*
X96486660Y-111735372D01*
X96486660Y-111735372D02*
X96146827Y-111628222D01*
X96146827Y-111628222D02*
X95810253Y-111511235D01*
X95810253Y-111511235D02*
X95477225Y-111384507D01*
X95477225Y-111384507D02*
X95148023Y-111248147D01*
X95148023Y-111248147D02*
X94822926Y-111102270D01*
X94822926Y-111102270D02*
X94502210Y-110947000D01*
X94502210Y-110947000D02*
X94186145Y-110782467D01*
X94186145Y-110782467D02*
X93875000Y-110608811D01*
X93875000Y-110608811D02*
X93569037Y-110426179D01*
X93569037Y-110426179D02*
X93268515Y-110234726D01*
X93268515Y-110234726D02*
X92973689Y-110034613D01*
X92973689Y-110034613D02*
X92684807Y-109826009D01*
X92684807Y-109826009D02*
X92402115Y-109609092D01*
X92402115Y-109609092D02*
X92125852Y-109384044D01*
X92125852Y-109384044D02*
X91856251Y-109151057D01*
X91856251Y-109151057D02*
X91593540Y-108910327D01*
X91593540Y-108910327D02*
X91337942Y-108662058D01*
X91337942Y-108662058D02*
X91089673Y-108406460D01*
X91089673Y-108406460D02*
X90848943Y-108143749D01*
X90848943Y-108143749D02*
X90615956Y-107874148D01*
X90615956Y-107874148D02*
X90390908Y-107597885D01*
X90390908Y-107597885D02*
X90173991Y-107315193D01*
X90173991Y-107315193D02*
X89965387Y-107026311D01*
X89965387Y-107026311D02*
X89765274Y-106731485D01*
X89765274Y-106731485D02*
X89573821Y-106430963D01*
X89573821Y-106430963D02*
X89391189Y-106125000D01*
X89391189Y-106125000D02*
X89217533Y-105813855D01*
X89217533Y-105813855D02*
X89053000Y-105497790D01*
X89053000Y-105497790D02*
X88897730Y-105177074D01*
X88897730Y-105177074D02*
X88751853Y-104851977D01*
X88751853Y-104851977D02*
X88615493Y-104522775D01*
X88615493Y-104522775D02*
X88488765Y-104189747D01*
X88488765Y-104189747D02*
X88371778Y-103853173D01*
X88371778Y-103853173D02*
X88264628Y-103513340D01*
X88264628Y-103513340D02*
X88167409Y-103170533D01*
X88167409Y-103170533D02*
X88080200Y-102825044D01*
X88080200Y-102825044D02*
X88003077Y-102477165D01*
X88003077Y-102477165D02*
X87936105Y-102127190D01*
X87936105Y-102127190D02*
X87879340Y-101775415D01*
X87879340Y-101775415D02*
X87832830Y-101422138D01*
X87832830Y-101422138D02*
X87796615Y-101067658D01*
X87796615Y-101067658D02*
X87770725Y-100712274D01*
X87770725Y-100712274D02*
X87755182Y-100356288D01*
X87755182Y-100356288D02*
X87750000Y-100000000D01*
X87750000Y-100000000D02*
X87755182Y-99643712D01*
X87755182Y-99643712D02*
X87770725Y-99287726D01*
X87770725Y-99287726D02*
X87796615Y-98932342D01*
X87796615Y-98932342D02*
X87832830Y-98577862D01*
X87832830Y-98577862D02*
X87879340Y-98224585D01*
X87879340Y-98224585D02*
X87936105Y-97872810D01*
X87936105Y-97872810D02*
X88003077Y-97522835D01*
X88003077Y-97522835D02*
X88080200Y-97174956D01*
X88080200Y-97174956D02*
X88167409Y-96829467D01*
X88167409Y-96829467D02*
X88264628Y-96486660D01*
X88264628Y-96486660D02*
X88371778Y-96146827D01*
X88371778Y-96146827D02*
X88488765Y-95810253D01*
X88488765Y-95810253D02*
X88615493Y-95477225D01*
X88615493Y-95477225D02*
X88751853Y-95148023D01*
X88751853Y-95148023D02*
X88897730Y-94822926D01*
X88897730Y-94822926D02*
X89053000Y-94502210D01*
X89053000Y-94502210D02*
X89217533Y-94186145D01*
X89217533Y-94186145D02*
X89391189Y-93875000D01*
X89391189Y-93875000D02*
X89573821Y-93569037D01*
X89573821Y-93569037D02*
X89765274Y-93268515D01*
X89765274Y-93268515D02*
X89965387Y-92973689D01*
X89965387Y-92973689D02*
X90173991Y-92684807D01*
X90173991Y-92684807D02*
X90390908Y-92402115D01*
X90390908Y-92402115D02*
X90615956Y-92125852D01*
X90615956Y-92125852D02*
X90848943Y-91856251D01*
X90848943Y-91856251D02*
X91089673Y-91593540D01*
X91089673Y-91593540D02*
X91337942Y-91337942D01*
X91337942Y-91337942D02*
X91593540Y-91089673D01*
X91593540Y-91089673D02*
X91856251Y-90848943D01*
X91856251Y-90848943D02*
X92125852Y-90615956D01*
X92125852Y-90615956D02*
X92402115Y-90390908D01*
X92402115Y-90390908D02*
X92684807Y-90173991D01*
X92684807Y-90173991D02*
X92973689Y-89965387D01*
X92973689Y-89965387D02*
X93268515Y-89765274D01*
X93268515Y-89765274D02*
X93569037Y-89573821D01*
X93569037Y-89573821D02*
X93875000Y-89391189D01*
X93875000Y-89391189D02*
X94186145Y-89217533D01*
X94186145Y-89217533D02*
X94502210Y-89053000D01*
X94502210Y-89053000D02*
X94822926Y-88897730D01*
X94822926Y-88897730D02*
X95148023Y-88751853D01*
X95148023Y-88751853D02*
X95477225Y-88615493D01*
X95477225Y-88615493D02*
X95810253Y-88488765D01*
X95810253Y-88488765D02*
X96146827Y-88371778D01*
X96146827Y-88371778D02*
X96486660Y-88264628D01*
X96486660Y-88264628D02*
X96829467Y-88167409D01*
X96829467Y-88167409D02*
X97174956Y-88080200D01*
X97174956Y-88080200D02*
X97522835Y-88003077D01*
X97522835Y-88003077D02*
X97872810Y-87936105D01*
X97872810Y-87936105D02*
X98224585Y-87879340D01*
X98224585Y-87879340D02*
X98577862Y-87832830D01*
X98577862Y-87832830D02*
X98932342Y-87796615D01*
X98932342Y-87796615D02*
X99287726Y-87770725D01*
X99287726Y-87770725D02*
X99643712Y-87755182D01*
X99643712Y-87755182D02*
X100000000Y-87750000D01*
X100000000Y-87750000D02*
X100356288Y-87755182D01*
X100356288Y-87755182D02*
X100712274Y-87770725D01*
X100712274Y-87770725D02*
X101067658Y-87796615D01*
X101067658Y-87796615D02*
X101422138Y-87832830D01*
X101422138Y-87832830D02*
X101775415Y-87879340D01*
X101775415Y-87879340D02*
X102127190Y-87936105D01*
X102127190Y-87936105D02*
X102477165Y-88003077D01*
X102477165Y-88003077D02*
X102825044Y-88080200D01*
X102825044Y-88080200D02*
X103170533Y-88167409D01*
X103170533Y-88167409D02*
X103513340Y-88264628D01*
X103513340Y-88264628D02*
X103853173Y-88371778D01*
X103853173Y-88371778D02*
X104189747Y-88488765D01*
X104189747Y-88488765D02*
X104522775Y-88615493D01*
X104522775Y-88615493D02*
X104851977Y-88751853D01*
X104851977Y-88751853D02*
X105177074Y-88897730D01*
X105177074Y-88897730D02*
X105497790Y-89053000D01*
X105497790Y-89053000D02*
X105813855Y-89217533D01*
X105813855Y-89217533D02*
X106125000Y-89391189D01*
X106125000Y-89391189D02*
X106430963Y-89573821D01*
X106430963Y-89573821D02*
X106731485Y-89765274D01*
X106731485Y-89765274D02*
X107026311Y-89965387D01*
X107026311Y-89965387D02*
X107315193Y-90173991D01*
X107315193Y-90173991D02*
X107597885Y-90390908D01*
X107597885Y-90390908D02*
X107874148Y-90615956D01*
X107874148Y-90615956D02*
X108143749Y-90848943D01*
X108143749Y-90848943D02*
X108406460Y-91089673D01*
X108406460Y-91089673D02*
X108662058Y-91337942D01*
X108662058Y-91337942D02*
X108910327Y-91593540D01*
X108910327Y-91593540D02*
X109151057Y-91856251D01*
X109151057Y-91856251D02*
X109384044Y-92125852D01*
X109384044Y-92125852D02*
X109609092Y-92402115D01*
X109609092Y-92402115D02*
X109826009Y-92684807D01*
X109826009Y-92684807D02*
X110034613Y-92973689D01*
X110034613Y-92973689D02*
X110234726Y-93268515D01*
X110234726Y-93268515D02*
X110426179Y-93569037D01*
X110426179Y-93569037D02*
X110608811Y-93875000D01*
X110608811Y-93875000D02*
X110782467Y-94186145D01*
X110782467Y-94186145D02*
X110947000Y-94502210D01*
X110947000Y-94502210D02*
X111102270Y-94822926D01*
X111102270Y-94822926D02*
X111248147Y-95148023D01*
X111248147Y-95148023D02*
X111384507Y-95477225D01*
X111384507Y-95477225D02*
X111511235Y-95810253D01*
X111511235Y-95810253D02*
X111628222Y-96146827D01*
X111628222Y-96146827D02*
X111735372Y-96486660D01*
X111735372Y-96486660D02*
X111832591Y-96829467D01*
X111832591Y-96829467D02*
X111919800Y-97174956D01*
X111919800Y-97174956D02*
X111996923Y-97522835D01*
X111996923Y-97522835D02*
X112063895Y-97872810D01*
X112063895Y-97872810D02*
X112120660Y-98224585D01*
X112120660Y-98224585D02*
X112167170Y-98577862D01*
X112167170Y-98577862D02*
X112203385Y-98932342D01*
X112203385Y-98932342D02*
X112229275Y-99287726D01*
X112229275Y-99287726D02*
X112244818Y-99643712D01*
X112244818Y-99643712D02*
X112250000Y-100000000D01*
D15*
G36*
X142222500Y-142222500D02*
X57777500Y-142222500D01*
X57777500Y-99890288D01*
X59723295Y-99890288D01*
X59741988Y-100000201D01*
X59741327Y-100001245D01*
X59723295Y-100109712D01*
X59814631Y-102713143D01*
X59815851Y-102731142D01*
X60076455Y-105323108D01*
X60078843Y-105340989D01*
X60507608Y-107910494D01*
X60511155Y-107928181D01*
X61106263Y-110464329D01*
X61110954Y-110481749D01*
X61869881Y-112973782D01*
X61875695Y-112990859D01*
X62795223Y-115428207D01*
X62802137Y-115444869D01*
X63878365Y-117817196D01*
X63886349Y-117833373D01*
X65114712Y-120130615D01*
X65123732Y-120146238D01*
X66499021Y-122358653D01*
X66509039Y-122373656D01*
X68025420Y-124491860D01*
X68036393Y-124506179D01*
X69687435Y-126521187D01*
X69699317Y-126534761D01*
X71478017Y-128438028D01*
X71490757Y-128450800D01*
X73389571Y-130234253D01*
X73403115Y-130246169D01*
X75413989Y-131902243D01*
X75428281Y-131913251D01*
X77542687Y-133434923D01*
X77557664Y-133444979D01*
X79766634Y-134825794D01*
X79871167Y-134864562D01*
X79871741Y-134865656D01*
X79956661Y-134935506D01*
X82256967Y-136158122D01*
X82273164Y-136166065D01*
X84648173Y-137236359D01*
X84664853Y-137243231D01*
X87104493Y-138156662D01*
X87121584Y-138162434D01*
X89615506Y-138915129D01*
X89632937Y-138919777D01*
X92170565Y-139508543D01*
X92188261Y-139512045D01*
X94758830Y-139934385D01*
X94776717Y-139936729D01*
X97369326Y-140190852D01*
X97387328Y-140192026D01*
X99990980Y-140276853D01*
X100009020Y-140276853D01*
X102612672Y-140192026D01*
X102630674Y-140190852D01*
X105223283Y-139936729D01*
X105241170Y-139934385D01*
X107811739Y-139512045D01*
X107829435Y-139508543D01*
X110367063Y-138919777D01*
X110384494Y-138915129D01*
X111683744Y-138523000D01*
X132615857Y-138523000D01*
X132615857Y-141627000D01*
X137384143Y-141627000D01*
X137384143Y-138523000D01*
X132615857Y-138523000D01*
X111683744Y-138523000D01*
X112878416Y-138162434D01*
X112895507Y-138156662D01*
X115335147Y-137243231D01*
X115351827Y-137236359D01*
X117726836Y-136166065D01*
X117743033Y-136158122D01*
X120043339Y-134935506D01*
X120129181Y-134864361D01*
X120130414Y-134864411D01*
X120233366Y-134825794D01*
X122442336Y-133444979D01*
X122457313Y-133434923D01*
X124571719Y-131913251D01*
X124586011Y-131902243D01*
X126596885Y-130246169D01*
X126610429Y-130234253D01*
X128509243Y-128450800D01*
X128521983Y-128438028D01*
X130300683Y-126534761D01*
X130312565Y-126521187D01*
X131963607Y-124506179D01*
X131974580Y-124491860D01*
X133490961Y-122373656D01*
X133500979Y-122358653D01*
X134876268Y-120146238D01*
X134885288Y-120130615D01*
X136113651Y-117833373D01*
X136121635Y-117817196D01*
X137197863Y-115444869D01*
X137204777Y-115428207D01*
X138124305Y-112990859D01*
X138130119Y-112973782D01*
X138889046Y-110481749D01*
X138893737Y-110464329D01*
X139488845Y-107928181D01*
X139492392Y-107910494D01*
X139921157Y-105340989D01*
X139923545Y-105323108D01*
X140184149Y-102731142D01*
X140185369Y-102713143D01*
X140276705Y-100109712D01*
X140258012Y-99999799D01*
X140258673Y-99998755D01*
X140276705Y-99890288D01*
X140185369Y-97286857D01*
X140184149Y-97268858D01*
X139923545Y-94676892D01*
X139921157Y-94659011D01*
X139492392Y-92089506D01*
X139488845Y-92071819D01*
X138893737Y-89535671D01*
X138889046Y-89518251D01*
X138130119Y-87026218D01*
X138124305Y-87009141D01*
X137204777Y-84571793D01*
X137197863Y-84555131D01*
X136121635Y-82182804D01*
X136113651Y-82166627D01*
X134885288Y-79869385D01*
X134876268Y-79853762D01*
X133500979Y-77641347D01*
X133490961Y-77626344D01*
X131974580Y-75508140D01*
X131963607Y-75493821D01*
X130312565Y-73478813D01*
X130300683Y-73465239D01*
X128521983Y-71561972D01*
X128509243Y-71549200D01*
X126610429Y-69765747D01*
X126596885Y-69753831D01*
X124586011Y-68097757D01*
X124571719Y-68086749D01*
X122457313Y-66565077D01*
X122442336Y-66555021D01*
X120233366Y-65174206D01*
X120128833Y-65135438D01*
X120128259Y-65134344D01*
X120043339Y-65064494D01*
X117743033Y-63841878D01*
X117726836Y-63833935D01*
X115351827Y-62763641D01*
X115335147Y-62756769D01*
X112895507Y-61843338D01*
X112878416Y-61837566D01*
X110384494Y-61084871D01*
X110367063Y-61080223D01*
X107829435Y-60491457D01*
X107811739Y-60487955D01*
X105241170Y-60065615D01*
X105223283Y-60063271D01*
X102630674Y-59809148D01*
X102612672Y-59807974D01*
X100009020Y-59723147D01*
X99990980Y-59723147D01*
X97387328Y-59807974D01*
X97369326Y-59809148D01*
X94776717Y-60063271D01*
X94758830Y-60065615D01*
X92188261Y-60487955D01*
X92170565Y-60491457D01*
X89632937Y-61080223D01*
X89615506Y-61084871D01*
X87121584Y-61837566D01*
X87104493Y-61843338D01*
X84664853Y-62756769D01*
X84648173Y-62763641D01*
X82273164Y-63833935D01*
X82256967Y-63841878D01*
X79956661Y-65064494D01*
X79870819Y-65135639D01*
X79869586Y-65135589D01*
X79766634Y-65174206D01*
X77557664Y-66555021D01*
X77542687Y-66565077D01*
X75428281Y-68086749D01*
X75413989Y-68097757D01*
X73403115Y-69753831D01*
X73389571Y-69765747D01*
X71490757Y-71549200D01*
X71478017Y-71561972D01*
X69699317Y-73465239D01*
X69687435Y-73478813D01*
X68036393Y-75493821D01*
X68025420Y-75508140D01*
X66509039Y-77626344D01*
X66499021Y-77641347D01*
X65123732Y-79853762D01*
X65114712Y-79869385D01*
X63886349Y-82166627D01*
X63878365Y-82182804D01*
X62802137Y-84555131D01*
X62795223Y-84571793D01*
X61875695Y-87009141D01*
X61869881Y-87026218D01*
X61110954Y-89518251D01*
X61106263Y-89535671D01*
X60511155Y-92071819D01*
X60507608Y-92089506D01*
X60078843Y-94659011D01*
X60076455Y-94676892D01*
X59815851Y-97268858D01*
X59814631Y-97286857D01*
X59723295Y-99890288D01*
X57777500Y-99890288D01*
X57777500Y-58373000D01*
X62615857Y-58373000D01*
X62615857Y-61477000D01*
X67384143Y-61477000D01*
X67384143Y-58373000D01*
X62615857Y-58373000D01*
X57777500Y-58373000D01*
X57777500Y-57777500D01*
X142222500Y-57777500D01*
X142222500Y-142222500D01*
X142222500Y-142222500D01*
G37*
X142222500Y-142222500D02*
X57777500Y-142222500D01*
X57777500Y-99890288D01*
X59723295Y-99890288D01*
X59741988Y-100000201D01*
X59741327Y-100001245D01*
X59723295Y-100109712D01*
X59814631Y-102713143D01*
X59815851Y-102731142D01*
X60076455Y-105323108D01*
X60078843Y-105340989D01*
X60507608Y-107910494D01*
X60511155Y-107928181D01*
X61106263Y-110464329D01*
X61110954Y-110481749D01*
X61869881Y-112973782D01*
X61875695Y-112990859D01*
X62795223Y-115428207D01*
X62802137Y-115444869D01*
X63878365Y-117817196D01*
X63886349Y-117833373D01*
X65114712Y-120130615D01*
X65123732Y-120146238D01*
X66499021Y-122358653D01*
X66509039Y-122373656D01*
X68025420Y-124491860D01*
X68036393Y-124506179D01*
X69687435Y-126521187D01*
X69699317Y-126534761D01*
X71478017Y-128438028D01*
X71490757Y-128450800D01*
X73389571Y-130234253D01*
X73403115Y-130246169D01*
X75413989Y-131902243D01*
X75428281Y-131913251D01*
X77542687Y-133434923D01*
X77557664Y-133444979D01*
X79766634Y-134825794D01*
X79871167Y-134864562D01*
X79871741Y-134865656D01*
X79956661Y-134935506D01*
X82256967Y-136158122D01*
X82273164Y-136166065D01*
X84648173Y-137236359D01*
X84664853Y-137243231D01*
X87104493Y-138156662D01*
X87121584Y-138162434D01*
X89615506Y-138915129D01*
X89632937Y-138919777D01*
X92170565Y-139508543D01*
X92188261Y-139512045D01*
X94758830Y-139934385D01*
X94776717Y-139936729D01*
X97369326Y-140190852D01*
X97387328Y-140192026D01*
X99990980Y-140276853D01*
X100009020Y-140276853D01*
X102612672Y-140192026D01*
X102630674Y-140190852D01*
X105223283Y-139936729D01*
X105241170Y-139934385D01*
X107811739Y-139512045D01*
X107829435Y-139508543D01*
X110367063Y-138919777D01*
X110384494Y-138915129D01*
X111683744Y-138523000D01*
X132615857Y-138523000D01*
X132615857Y-141627000D01*
X137384143Y-141627000D01*
X137384143Y-138523000D01*
X132615857Y-138523000D01*
X111683744Y-138523000D01*
X112878416Y-138162434D01*
X112895507Y-138156662D01*
X115335147Y-137243231D01*
X115351827Y-137236359D01*
X117726836Y-136166065D01*
X117743033Y-136158122D01*
X120043339Y-134935506D01*
X120129181Y-134864361D01*
X120130414Y-134864411D01*
X120233366Y-134825794D01*
X122442336Y-133444979D01*
X122457313Y-133434923D01*
X124571719Y-131913251D01*
X124586011Y-131902243D01*
X126596885Y-130246169D01*
X126610429Y-130234253D01*
X128509243Y-128450800D01*
X128521983Y-128438028D01*
X130300683Y-126534761D01*
X130312565Y-126521187D01*
X131963607Y-124506179D01*
X131974580Y-124491860D01*
X133490961Y-122373656D01*
X133500979Y-122358653D01*
X134876268Y-120146238D01*
X134885288Y-120130615D01*
X136113651Y-117833373D01*
X136121635Y-117817196D01*
X137197863Y-115444869D01*
X137204777Y-115428207D01*
X138124305Y-112990859D01*
X138130119Y-112973782D01*
X138889046Y-110481749D01*
X138893737Y-110464329D01*
X139488845Y-107928181D01*
X139492392Y-107910494D01*
X139921157Y-105340989D01*
X139923545Y-105323108D01*
X140184149Y-102731142D01*
X140185369Y-102713143D01*
X140276705Y-100109712D01*
X140258012Y-99999799D01*
X140258673Y-99998755D01*
X140276705Y-99890288D01*
X140185369Y-97286857D01*
X140184149Y-97268858D01*
X139923545Y-94676892D01*
X139921157Y-94659011D01*
X139492392Y-92089506D01*
X139488845Y-92071819D01*
X138893737Y-89535671D01*
X138889046Y-89518251D01*
X138130119Y-87026218D01*
X138124305Y-87009141D01*
X137204777Y-84571793D01*
X137197863Y-84555131D01*
X136121635Y-82182804D01*
X136113651Y-82166627D01*
X134885288Y-79869385D01*
X134876268Y-79853762D01*
X133500979Y-77641347D01*
X133490961Y-77626344D01*
X131974580Y-75508140D01*
X131963607Y-75493821D01*
X130312565Y-73478813D01*
X130300683Y-73465239D01*
X128521983Y-71561972D01*
X128509243Y-71549200D01*
X126610429Y-69765747D01*
X126596885Y-69753831D01*
X124586011Y-68097757D01*
X124571719Y-68086749D01*
X122457313Y-66565077D01*
X122442336Y-66555021D01*
X120233366Y-65174206D01*
X120128833Y-65135438D01*
X120128259Y-65134344D01*
X120043339Y-65064494D01*
X117743033Y-63841878D01*
X117726836Y-63833935D01*
X115351827Y-62763641D01*
X115335147Y-62756769D01*
X112895507Y-61843338D01*
X112878416Y-61837566D01*
X110384494Y-61084871D01*
X110367063Y-61080223D01*
X107829435Y-60491457D01*
X107811739Y-60487955D01*
X105241170Y-60065615D01*
X105223283Y-60063271D01*
X102630674Y-59809148D01*
X102612672Y-59807974D01*
X100009020Y-59723147D01*
X99990980Y-59723147D01*
X97387328Y-59807974D01*
X97369326Y-59809148D01*
X94776717Y-60063271D01*
X94758830Y-60065615D01*
X92188261Y-60487955D01*
X92170565Y-60491457D01*
X89632937Y-61080223D01*
X89615506Y-61084871D01*
X87121584Y-61837566D01*
X87104493Y-61843338D01*
X84664853Y-62756769D01*
X84648173Y-62763641D01*
X82273164Y-63833935D01*
X82256967Y-63841878D01*
X79956661Y-65064494D01*
X79870819Y-65135639D01*
X79869586Y-65135589D01*
X79766634Y-65174206D01*
X77557664Y-66555021D01*
X77542687Y-66565077D01*
X75428281Y-68086749D01*
X75413989Y-68097757D01*
X73403115Y-69753831D01*
X73389571Y-69765747D01*
X71490757Y-71549200D01*
X71478017Y-71561972D01*
X69699317Y-73465239D01*
X69687435Y-73478813D01*
X68036393Y-75493821D01*
X68025420Y-75508140D01*
X66509039Y-77626344D01*
X66499021Y-77641347D01*
X65123732Y-79853762D01*
X65114712Y-79869385D01*
X63886349Y-82166627D01*
X63878365Y-82182804D01*
X62802137Y-84555131D01*
X62795223Y-84571793D01*
X61875695Y-87009141D01*
X61869881Y-87026218D01*
X61110954Y-89518251D01*
X61106263Y-89535671D01*
X60511155Y-92071819D01*
X60507608Y-92089506D01*
X60078843Y-94659011D01*
X60076455Y-94676892D01*
X59815851Y-97268858D01*
X59814631Y-97286857D01*
X59723295Y-99890288D01*
X57777500Y-99890288D01*
X57777500Y-58373000D01*
X62615857Y-58373000D01*
X62615857Y-61477000D01*
X67384143Y-61477000D01*
X67384143Y-58373000D01*
X62615857Y-58373000D01*
X57777500Y-58373000D01*
X57777500Y-57777500D01*
X142222500Y-57777500D01*
X142222500Y-142222500D01*
G36*
X100836258Y-87054126D02*
X101669022Y-87134956D01*
X102494863Y-87269302D01*
X103310317Y-87456603D01*
X104111987Y-87696076D01*
X104896579Y-87986737D01*
X105660793Y-88327365D01*
X106409366Y-88720702D01*
X106496372Y-88749314D01*
X106500180Y-88749130D01*
X106563476Y-88809677D01*
X107278400Y-89261290D01*
X107955503Y-89752808D01*
X108599513Y-90286949D01*
X109207742Y-90861483D01*
X109777680Y-91474040D01*
X110306934Y-92122050D01*
X110793334Y-92802853D01*
X111234821Y-93513569D01*
X111629586Y-94251286D01*
X111975969Y-95012900D01*
X112272533Y-95795251D01*
X112518061Y-96595131D01*
X112711508Y-97409135D01*
X112852079Y-98233913D01*
X112939195Y-99066072D01*
X112972842Y-99911025D01*
X112991567Y-100000681D01*
X112993629Y-100003886D01*
X112972842Y-100088975D01*
X112939195Y-100933928D01*
X112852079Y-101766087D01*
X112711508Y-102590865D01*
X112518061Y-103404869D01*
X112272533Y-104204749D01*
X111975969Y-104987100D01*
X111629586Y-105748714D01*
X111234821Y-106486431D01*
X110793334Y-107197147D01*
X110306934Y-107877950D01*
X109777680Y-108525960D01*
X109207742Y-109138517D01*
X108599513Y-109713051D01*
X107955503Y-110247192D01*
X107278400Y-110738710D01*
X106563476Y-111190323D01*
X106495193Y-111251367D01*
X106493449Y-111254755D01*
X106409366Y-111279298D01*
X105660793Y-111672635D01*
X104896579Y-112013263D01*
X104111987Y-112303924D01*
X103310317Y-112543397D01*
X102494863Y-112730698D01*
X101669022Y-112865044D01*
X100836258Y-112945874D01*
X100000000Y-112972856D01*
X99163742Y-112945874D01*
X98330978Y-112865044D01*
X97505137Y-112730698D01*
X96689683Y-112543397D01*
X95888013Y-112303924D01*
X95103421Y-112013263D01*
X94339207Y-111672635D01*
X93590634Y-111279298D01*
X93503628Y-111250686D01*
X93499820Y-111250870D01*
X93436524Y-111190323D01*
X92721600Y-110738710D01*
X92044497Y-110247192D01*
X91400487Y-109713051D01*
X90792258Y-109138517D01*
X90222320Y-108525960D01*
X89693066Y-107877950D01*
X89206666Y-107197147D01*
X88765179Y-106486431D01*
X88370414Y-105748714D01*
X88024031Y-104987100D01*
X87727467Y-104204749D01*
X87481939Y-103404869D01*
X87288492Y-102590865D01*
X87147921Y-101766087D01*
X87060805Y-100933928D01*
X87030025Y-100160949D01*
X88473624Y-100160949D01*
X88724404Y-102396702D01*
X89404667Y-104541165D01*
X90488504Y-106512657D01*
X91934631Y-108236084D01*
X93687965Y-109645801D01*
X95681722Y-110688112D01*
X97839962Y-111323316D01*
X100080476Y-111527219D01*
X102317926Y-111292054D01*
X104467086Y-110626777D01*
X106446096Y-109556731D01*
X108179577Y-108122671D01*
X109601500Y-106379221D01*
X110657704Y-104392789D01*
X111307961Y-102239036D01*
X111527500Y-100000000D01*
X111523006Y-99678133D01*
X111241034Y-97446100D01*
X110530895Y-95311343D01*
X109419638Y-93355176D01*
X107949589Y-91652109D01*
X106176743Y-90267010D01*
X104168627Y-89252637D01*
X102001729Y-88647629D01*
X99758586Y-88475028D01*
X97524639Y-88741410D01*
X95384977Y-89436629D01*
X93421099Y-90534202D01*
X91707810Y-91992326D01*
X90310368Y-93755459D01*
X89282002Y-95756444D01*
X88661880Y-97919066D01*
X88473624Y-100160949D01*
X87030025Y-100160949D01*
X87027158Y-100088975D01*
X87008433Y-99999319D01*
X87006371Y-99996114D01*
X87027158Y-99911025D01*
X87060805Y-99066072D01*
X87147921Y-98233913D01*
X87288492Y-97409135D01*
X87481939Y-96595131D01*
X87727467Y-95795251D01*
X88024031Y-95012900D01*
X88370414Y-94251286D01*
X88765179Y-93513569D01*
X89206666Y-92802853D01*
X89693066Y-92122050D01*
X90222320Y-91474040D01*
X90792258Y-90861483D01*
X91400487Y-90286949D01*
X92044497Y-89752808D01*
X92721600Y-89261290D01*
X93101294Y-89021440D01*
X93111415Y-89017514D01*
X93206956Y-88956882D01*
X93213782Y-88950382D01*
X93436524Y-88809677D01*
X93504807Y-88748633D01*
X93506551Y-88745245D01*
X93590634Y-88720702D01*
X94339207Y-88327365D01*
X95103421Y-87986737D01*
X95888013Y-87696076D01*
X96689683Y-87456603D01*
X97505137Y-87269302D01*
X98330978Y-87134956D01*
X99163742Y-87054126D01*
X100000000Y-87027144D01*
X100836258Y-87054126D01*
X100836258Y-87054126D01*
G37*
X100836258Y-87054126D02*
X101669022Y-87134956D01*
X102494863Y-87269302D01*
X103310317Y-87456603D01*
X104111987Y-87696076D01*
X104896579Y-87986737D01*
X105660793Y-88327365D01*
X106409366Y-88720702D01*
X106496372Y-88749314D01*
X106500180Y-88749130D01*
X106563476Y-88809677D01*
X107278400Y-89261290D01*
X107955503Y-89752808D01*
X108599513Y-90286949D01*
X109207742Y-90861483D01*
X109777680Y-91474040D01*
X110306934Y-92122050D01*
X110793334Y-92802853D01*
X111234821Y-93513569D01*
X111629586Y-94251286D01*
X111975969Y-95012900D01*
X112272533Y-95795251D01*
X112518061Y-96595131D01*
X112711508Y-97409135D01*
X112852079Y-98233913D01*
X112939195Y-99066072D01*
X112972842Y-99911025D01*
X112991567Y-100000681D01*
X112993629Y-100003886D01*
X112972842Y-100088975D01*
X112939195Y-100933928D01*
X112852079Y-101766087D01*
X112711508Y-102590865D01*
X112518061Y-103404869D01*
X112272533Y-104204749D01*
X111975969Y-104987100D01*
X111629586Y-105748714D01*
X111234821Y-106486431D01*
X110793334Y-107197147D01*
X110306934Y-107877950D01*
X109777680Y-108525960D01*
X109207742Y-109138517D01*
X108599513Y-109713051D01*
X107955503Y-110247192D01*
X107278400Y-110738710D01*
X106563476Y-111190323D01*
X106495193Y-111251367D01*
X106493449Y-111254755D01*
X106409366Y-111279298D01*
X105660793Y-111672635D01*
X104896579Y-112013263D01*
X104111987Y-112303924D01*
X103310317Y-112543397D01*
X102494863Y-112730698D01*
X101669022Y-112865044D01*
X100836258Y-112945874D01*
X100000000Y-112972856D01*
X99163742Y-112945874D01*
X98330978Y-112865044D01*
X97505137Y-112730698D01*
X96689683Y-112543397D01*
X95888013Y-112303924D01*
X95103421Y-112013263D01*
X94339207Y-111672635D01*
X93590634Y-111279298D01*
X93503628Y-111250686D01*
X93499820Y-111250870D01*
X93436524Y-111190323D01*
X92721600Y-110738710D01*
X92044497Y-110247192D01*
X91400487Y-109713051D01*
X90792258Y-109138517D01*
X90222320Y-108525960D01*
X89693066Y-107877950D01*
X89206666Y-107197147D01*
X88765179Y-106486431D01*
X88370414Y-105748714D01*
X88024031Y-104987100D01*
X87727467Y-104204749D01*
X87481939Y-103404869D01*
X87288492Y-102590865D01*
X87147921Y-101766087D01*
X87060805Y-100933928D01*
X87030025Y-100160949D01*
X88473624Y-100160949D01*
X88724404Y-102396702D01*
X89404667Y-104541165D01*
X90488504Y-106512657D01*
X91934631Y-108236084D01*
X93687965Y-109645801D01*
X95681722Y-110688112D01*
X97839962Y-111323316D01*
X100080476Y-111527219D01*
X102317926Y-111292054D01*
X104467086Y-110626777D01*
X106446096Y-109556731D01*
X108179577Y-108122671D01*
X109601500Y-106379221D01*
X110657704Y-104392789D01*
X111307961Y-102239036D01*
X111527500Y-100000000D01*
X111523006Y-99678133D01*
X111241034Y-97446100D01*
X110530895Y-95311343D01*
X109419638Y-93355176D01*
X107949589Y-91652109D01*
X106176743Y-90267010D01*
X104168627Y-89252637D01*
X102001729Y-88647629D01*
X99758586Y-88475028D01*
X97524639Y-88741410D01*
X95384977Y-89436629D01*
X93421099Y-90534202D01*
X91707810Y-91992326D01*
X90310368Y-93755459D01*
X89282002Y-95756444D01*
X88661880Y-97919066D01*
X88473624Y-100160949D01*
X87030025Y-100160949D01*
X87027158Y-100088975D01*
X87008433Y-99999319D01*
X87006371Y-99996114D01*
X87027158Y-99911025D01*
X87060805Y-99066072D01*
X87147921Y-98233913D01*
X87288492Y-97409135D01*
X87481939Y-96595131D01*
X87727467Y-95795251D01*
X88024031Y-95012900D01*
X88370414Y-94251286D01*
X88765179Y-93513569D01*
X89206666Y-92802853D01*
X89693066Y-92122050D01*
X90222320Y-91474040D01*
X90792258Y-90861483D01*
X91400487Y-90286949D01*
X92044497Y-89752808D01*
X92721600Y-89261290D01*
X93101294Y-89021440D01*
X93111415Y-89017514D01*
X93206956Y-88956882D01*
X93213782Y-88950382D01*
X93436524Y-88809677D01*
X93504807Y-88748633D01*
X93506551Y-88745245D01*
X93590634Y-88720702D01*
X94339207Y-88327365D01*
X95103421Y-87986737D01*
X95888013Y-87696076D01*
X96689683Y-87456603D01*
X97505137Y-87269302D01*
X98330978Y-87134956D01*
X99163742Y-87054126D01*
X100000000Y-87027144D01*
X100836258Y-87054126D01*
G36*
X119737583Y-134640496D02*
X117557079Y-135799438D01*
X115189612Y-136866333D01*
X112757720Y-137776863D01*
X110271728Y-138527164D01*
X107742159Y-139114060D01*
X105179747Y-139535060D01*
X102595390Y-139788374D01*
X100000000Y-139872932D01*
X97404610Y-139788374D01*
X94820253Y-139535060D01*
X92257841Y-139114060D01*
X89728272Y-138527164D01*
X87242280Y-137776863D01*
X84810388Y-136866333D01*
X82442921Y-135799438D01*
X80262417Y-134640496D01*
X93510752Y-111693701D01*
X94159204Y-112034429D01*
X94166574Y-112038003D01*
X94947112Y-112385907D01*
X94954697Y-112388999D01*
X95756038Y-112685865D01*
X95763806Y-112688461D01*
X96582617Y-112933054D01*
X96590537Y-112935144D01*
X97423412Y-113126446D01*
X97431450Y-113128021D01*
X98274925Y-113265236D01*
X98283048Y-113266290D01*
X99133613Y-113348848D01*
X99141786Y-113349376D01*
X99995904Y-113376934D01*
X100004096Y-113376934D01*
X100858214Y-113349376D01*
X100866387Y-113348848D01*
X101716952Y-113266290D01*
X101725075Y-113265236D01*
X102568550Y-113128021D01*
X102576588Y-113126446D01*
X103409463Y-112935144D01*
X103417383Y-112933054D01*
X104236194Y-112688461D01*
X104243962Y-112685865D01*
X105045303Y-112388999D01*
X105052888Y-112385907D01*
X105833426Y-112038003D01*
X105840796Y-112034429D01*
X106489248Y-111693701D01*
X119737583Y-134640496D01*
X119737583Y-134640496D01*
G37*
X119737583Y-134640496D02*
X117557079Y-135799438D01*
X115189612Y-136866333D01*
X112757720Y-137776863D01*
X110271728Y-138527164D01*
X107742159Y-139114060D01*
X105179747Y-139535060D01*
X102595390Y-139788374D01*
X100000000Y-139872932D01*
X97404610Y-139788374D01*
X94820253Y-139535060D01*
X92257841Y-139114060D01*
X89728272Y-138527164D01*
X87242280Y-137776863D01*
X84810388Y-136866333D01*
X82442921Y-135799438D01*
X80262417Y-134640496D01*
X93510752Y-111693701D01*
X94159204Y-112034429D01*
X94166574Y-112038003D01*
X94947112Y-112385907D01*
X94954697Y-112388999D01*
X95756038Y-112685865D01*
X95763806Y-112688461D01*
X96582617Y-112933054D01*
X96590537Y-112935144D01*
X97423412Y-113126446D01*
X97431450Y-113128021D01*
X98274925Y-113265236D01*
X98283048Y-113266290D01*
X99133613Y-113348848D01*
X99141786Y-113349376D01*
X99995904Y-113376934D01*
X100004096Y-113376934D01*
X100858214Y-113349376D01*
X100866387Y-113348848D01*
X101716952Y-113266290D01*
X101725075Y-113265236D01*
X102568550Y-113128021D01*
X102576588Y-113126446D01*
X103409463Y-112935144D01*
X103417383Y-112933054D01*
X104236194Y-112688461D01*
X104243962Y-112685865D01*
X105045303Y-112388999D01*
X105052888Y-112385907D01*
X105833426Y-112038003D01*
X105840796Y-112034429D01*
X106489248Y-111693701D01*
X119737583Y-134640496D01*
G36*
X86657481Y-100958936D02*
X86658070Y-100967106D01*
X86747045Y-101817024D01*
X86748160Y-101825139D01*
X86891737Y-102667554D01*
X86893373Y-102675580D01*
X87090956Y-103506987D01*
X87093106Y-103514890D01*
X87343871Y-104331832D01*
X87346526Y-104339581D01*
X87649431Y-105138659D01*
X87652580Y-105146220D01*
X88006365Y-105924110D01*
X88009994Y-105931453D01*
X88413187Y-106684920D01*
X88417283Y-106692014D01*
X88868208Y-107417923D01*
X88872752Y-107424737D01*
X89369532Y-108120069D01*
X89374506Y-108126577D01*
X89915075Y-108788440D01*
X89920458Y-108794614D01*
X90502568Y-109420254D01*
X90508338Y-109426067D01*
X91129567Y-110012881D01*
X91135700Y-110018311D01*
X91793464Y-110563860D01*
X91799934Y-110568883D01*
X92491497Y-111070897D01*
X92498277Y-111075493D01*
X93117582Y-111466704D01*
X79869242Y-134413497D01*
X77775317Y-133104596D01*
X75667635Y-131587763D01*
X73663135Y-129936938D01*
X71770363Y-128159161D01*
X69997301Y-126261927D01*
X68351512Y-124253329D01*
X66839950Y-122141857D01*
X65469031Y-119936471D01*
X64244564Y-117646515D01*
X63171759Y-115281734D01*
X62255150Y-112852124D01*
X61498636Y-110368015D01*
X60905416Y-107839912D01*
X60478014Y-105278576D01*
X60218238Y-102694843D01*
X60131659Y-100227000D01*
X86628334Y-100226997D01*
X86657481Y-100958936D01*
X86657481Y-100958936D01*
G37*
X86657481Y-100958936D02*
X86658070Y-100967106D01*
X86747045Y-101817024D01*
X86748160Y-101825139D01*
X86891737Y-102667554D01*
X86893373Y-102675580D01*
X87090956Y-103506987D01*
X87093106Y-103514890D01*
X87343871Y-104331832D01*
X87346526Y-104339581D01*
X87649431Y-105138659D01*
X87652580Y-105146220D01*
X88006365Y-105924110D01*
X88009994Y-105931453D01*
X88413187Y-106684920D01*
X88417283Y-106692014D01*
X88868208Y-107417923D01*
X88872752Y-107424737D01*
X89369532Y-108120069D01*
X89374506Y-108126577D01*
X89915075Y-108788440D01*
X89920458Y-108794614D01*
X90502568Y-109420254D01*
X90508338Y-109426067D01*
X91129567Y-110012881D01*
X91135700Y-110018311D01*
X91793464Y-110563860D01*
X91799934Y-110568883D01*
X92491497Y-111070897D01*
X92498277Y-111075493D01*
X93117582Y-111466704D01*
X79869242Y-134413497D01*
X77775317Y-133104596D01*
X75667635Y-131587763D01*
X73663135Y-129936938D01*
X71770363Y-128159161D01*
X69997301Y-126261927D01*
X68351512Y-124253329D01*
X66839950Y-122141857D01*
X65469031Y-119936471D01*
X64244564Y-117646515D01*
X63171759Y-115281734D01*
X62255150Y-112852124D01*
X61498636Y-110368015D01*
X60905416Y-107839912D01*
X60478014Y-105278576D01*
X60218238Y-102694843D01*
X60131659Y-100227000D01*
X86628334Y-100226997D01*
X86657481Y-100958936D01*
G36*
X93117582Y-88533296D02*
X92498277Y-88924507D01*
X92491497Y-88929103D01*
X91799934Y-89431117D01*
X91793464Y-89436140D01*
X91135700Y-89981689D01*
X91129567Y-89987119D01*
X90508338Y-90573933D01*
X90502568Y-90579746D01*
X89920458Y-91205386D01*
X89915075Y-91211560D01*
X89374506Y-91873423D01*
X89369532Y-91879931D01*
X88872752Y-92575263D01*
X88868208Y-92582077D01*
X88417283Y-93307986D01*
X88413187Y-93315080D01*
X88009994Y-94068547D01*
X88006365Y-94075890D01*
X87652580Y-94853780D01*
X87649431Y-94861341D01*
X87346526Y-95660419D01*
X87343871Y-95668168D01*
X87093106Y-96485110D01*
X87090956Y-96493013D01*
X86893373Y-97324420D01*
X86891737Y-97332446D01*
X86748160Y-98174861D01*
X86747045Y-98182976D01*
X86658070Y-99032894D01*
X86657481Y-99041064D01*
X86628334Y-99773003D01*
X60131659Y-99773000D01*
X60218238Y-97305157D01*
X60478014Y-94721424D01*
X60905416Y-92160088D01*
X61498636Y-89631985D01*
X62255150Y-87147876D01*
X63171759Y-84718266D01*
X64244564Y-82353485D01*
X65469031Y-80063529D01*
X66839950Y-77858143D01*
X68351512Y-75746671D01*
X69997301Y-73738073D01*
X71770363Y-71840839D01*
X73663135Y-70063062D01*
X75667635Y-68412237D01*
X77775317Y-66895404D01*
X79869242Y-65586503D01*
X93117582Y-88533296D01*
X93117582Y-88533296D01*
G37*
X93117582Y-88533296D02*
X92498277Y-88924507D01*
X92491497Y-88929103D01*
X91799934Y-89431117D01*
X91793464Y-89436140D01*
X91135700Y-89981689D01*
X91129567Y-89987119D01*
X90508338Y-90573933D01*
X90502568Y-90579746D01*
X89920458Y-91205386D01*
X89915075Y-91211560D01*
X89374506Y-91873423D01*
X89369532Y-91879931D01*
X88872752Y-92575263D01*
X88868208Y-92582077D01*
X88417283Y-93307986D01*
X88413187Y-93315080D01*
X88009994Y-94068547D01*
X88006365Y-94075890D01*
X87652580Y-94853780D01*
X87649431Y-94861341D01*
X87346526Y-95660419D01*
X87343871Y-95668168D01*
X87093106Y-96485110D01*
X87090956Y-96493013D01*
X86893373Y-97324420D01*
X86891737Y-97332446D01*
X86748160Y-98174861D01*
X86747045Y-98182976D01*
X86658070Y-99032894D01*
X86657481Y-99041064D01*
X86628334Y-99773003D01*
X60131659Y-99773000D01*
X60218238Y-97305157D01*
X60478014Y-94721424D01*
X60905416Y-92160088D01*
X61498636Y-89631985D01*
X62255150Y-87147876D01*
X63171759Y-84718266D01*
X64244564Y-82353485D01*
X65469031Y-80063529D01*
X66839950Y-77858143D01*
X68351512Y-75746671D01*
X69997301Y-73738073D01*
X71770363Y-71840839D01*
X73663135Y-70063062D01*
X75667635Y-68412237D01*
X77775317Y-66895404D01*
X79869242Y-65586503D01*
X93117582Y-88533296D01*
G36*
X102595390Y-60211626D02*
X105179747Y-60464940D01*
X107742159Y-60885940D01*
X110271728Y-61472836D01*
X112757720Y-62223137D01*
X115189612Y-63133667D01*
X117557079Y-64200562D01*
X119737583Y-65359504D01*
X106489248Y-88306299D01*
X105840796Y-87965571D01*
X105833426Y-87961997D01*
X105052888Y-87614093D01*
X105045303Y-87611001D01*
X104243962Y-87314135D01*
X104236194Y-87311539D01*
X103417383Y-87066946D01*
X103409463Y-87064856D01*
X102576588Y-86873554D01*
X102568550Y-86871979D01*
X101725075Y-86734764D01*
X101716952Y-86733710D01*
X100866387Y-86651152D01*
X100858214Y-86650624D01*
X100004096Y-86623066D01*
X99995904Y-86623066D01*
X99141786Y-86650624D01*
X99133613Y-86651152D01*
X98283048Y-86733710D01*
X98274925Y-86734764D01*
X97431450Y-86871979D01*
X97423412Y-86873554D01*
X96590537Y-87064856D01*
X96582617Y-87066946D01*
X95763806Y-87311539D01*
X95756038Y-87314135D01*
X94954697Y-87611001D01*
X94947112Y-87614093D01*
X94166574Y-87961997D01*
X94159204Y-87965571D01*
X93510752Y-88306299D01*
X80262417Y-65359504D01*
X82442921Y-64200562D01*
X84810388Y-63133667D01*
X87242280Y-62223137D01*
X89728272Y-61472836D01*
X92257841Y-60885940D01*
X94820253Y-60464940D01*
X97404610Y-60211626D01*
X100000000Y-60127068D01*
X102595390Y-60211626D01*
X102595390Y-60211626D01*
G37*
X102595390Y-60211626D02*
X105179747Y-60464940D01*
X107742159Y-60885940D01*
X110271728Y-61472836D01*
X112757720Y-62223137D01*
X115189612Y-63133667D01*
X117557079Y-64200562D01*
X119737583Y-65359504D01*
X106489248Y-88306299D01*
X105840796Y-87965571D01*
X105833426Y-87961997D01*
X105052888Y-87614093D01*
X105045303Y-87611001D01*
X104243962Y-87314135D01*
X104236194Y-87311539D01*
X103417383Y-87066946D01*
X103409463Y-87064856D01*
X102576588Y-86873554D01*
X102568550Y-86871979D01*
X101725075Y-86734764D01*
X101716952Y-86733710D01*
X100866387Y-86651152D01*
X100858214Y-86650624D01*
X100004096Y-86623066D01*
X99995904Y-86623066D01*
X99141786Y-86650624D01*
X99133613Y-86651152D01*
X98283048Y-86733710D01*
X98274925Y-86734764D01*
X97431450Y-86871979D01*
X97423412Y-86873554D01*
X96590537Y-87064856D01*
X96582617Y-87066946D01*
X95763806Y-87311539D01*
X95756038Y-87314135D01*
X94954697Y-87611001D01*
X94947112Y-87614093D01*
X94166574Y-87961997D01*
X94159204Y-87965571D01*
X93510752Y-88306299D01*
X80262417Y-65359504D01*
X82442921Y-64200562D01*
X84810388Y-63133667D01*
X87242280Y-62223137D01*
X89728272Y-61472836D01*
X92257841Y-60885940D01*
X94820253Y-60464940D01*
X97404610Y-60211626D01*
X100000000Y-60127068D01*
X102595390Y-60211626D01*
G36*
X122224683Y-66895404D02*
X124332365Y-68412237D01*
X126336865Y-70063062D01*
X128229637Y-71840839D01*
X130002699Y-73738073D01*
X131648488Y-75746671D01*
X133160050Y-77858143D01*
X134530969Y-80063529D01*
X135755436Y-82353485D01*
X136828241Y-84718266D01*
X137744850Y-87147876D01*
X138501364Y-89631985D01*
X139094584Y-92160088D01*
X139521986Y-94721424D01*
X139781762Y-97305157D01*
X139868341Y-99773000D01*
X113371666Y-99773003D01*
X113342519Y-99041064D01*
X113341930Y-99032894D01*
X113252955Y-98182976D01*
X113251840Y-98174861D01*
X113108263Y-97332446D01*
X113106627Y-97324420D01*
X112909044Y-96493013D01*
X112906894Y-96485110D01*
X112656129Y-95668168D01*
X112653474Y-95660419D01*
X112350569Y-94861341D01*
X112347420Y-94853780D01*
X111993635Y-94075890D01*
X111990006Y-94068547D01*
X111586813Y-93315080D01*
X111582717Y-93307986D01*
X111131792Y-92582077D01*
X111127248Y-92575263D01*
X110630468Y-91879931D01*
X110625494Y-91873423D01*
X110084925Y-91211560D01*
X110079542Y-91205386D01*
X109497432Y-90579746D01*
X109491662Y-90573933D01*
X108870433Y-89987119D01*
X108864300Y-89981689D01*
X108206536Y-89436140D01*
X108200066Y-89431117D01*
X107508503Y-88929103D01*
X107501723Y-88924507D01*
X106882418Y-88533296D01*
X120130758Y-65586503D01*
X122224683Y-66895404D01*
X122224683Y-66895404D01*
G37*
X122224683Y-66895404D02*
X124332365Y-68412237D01*
X126336865Y-70063062D01*
X128229637Y-71840839D01*
X130002699Y-73738073D01*
X131648488Y-75746671D01*
X133160050Y-77858143D01*
X134530969Y-80063529D01*
X135755436Y-82353485D01*
X136828241Y-84718266D01*
X137744850Y-87147876D01*
X138501364Y-89631985D01*
X139094584Y-92160088D01*
X139521986Y-94721424D01*
X139781762Y-97305157D01*
X139868341Y-99773000D01*
X113371666Y-99773003D01*
X113342519Y-99041064D01*
X113341930Y-99032894D01*
X113252955Y-98182976D01*
X113251840Y-98174861D01*
X113108263Y-97332446D01*
X113106627Y-97324420D01*
X112909044Y-96493013D01*
X112906894Y-96485110D01*
X112656129Y-95668168D01*
X112653474Y-95660419D01*
X112350569Y-94861341D01*
X112347420Y-94853780D01*
X111993635Y-94075890D01*
X111990006Y-94068547D01*
X111586813Y-93315080D01*
X111582717Y-93307986D01*
X111131792Y-92582077D01*
X111127248Y-92575263D01*
X110630468Y-91879931D01*
X110625494Y-91873423D01*
X110084925Y-91211560D01*
X110079542Y-91205386D01*
X109497432Y-90579746D01*
X109491662Y-90573933D01*
X108870433Y-89987119D01*
X108864300Y-89981689D01*
X108206536Y-89436140D01*
X108200066Y-89431117D01*
X107508503Y-88929103D01*
X107501723Y-88924507D01*
X106882418Y-88533296D01*
X120130758Y-65586503D01*
X122224683Y-66895404D01*
G36*
X139868341Y-100227000D02*
X139781762Y-102694843D01*
X139521986Y-105278576D01*
X139094584Y-107839912D01*
X138501364Y-110368015D01*
X137744850Y-112852124D01*
X136828241Y-115281734D01*
X135755436Y-117646515D01*
X134530969Y-119936471D01*
X133160050Y-122141857D01*
X131648488Y-124253329D01*
X130002699Y-126261927D01*
X128229637Y-128159161D01*
X126336865Y-129936938D01*
X124332365Y-131587763D01*
X122224683Y-133104596D01*
X120130758Y-134413497D01*
X106882418Y-111466704D01*
X107501723Y-111075493D01*
X107508503Y-111070897D01*
X108200066Y-110568883D01*
X108206536Y-110563860D01*
X108864300Y-110018311D01*
X108870433Y-110012881D01*
X109491662Y-109426067D01*
X109497432Y-109420254D01*
X110079542Y-108794614D01*
X110084925Y-108788440D01*
X110625494Y-108126577D01*
X110630468Y-108120069D01*
X111127248Y-107424737D01*
X111131792Y-107417923D01*
X111582717Y-106692014D01*
X111586813Y-106684920D01*
X111990006Y-105931453D01*
X111993635Y-105924110D01*
X112347420Y-105146220D01*
X112350569Y-105138659D01*
X112653474Y-104339581D01*
X112656129Y-104331832D01*
X112906894Y-103514890D01*
X112909044Y-103506987D01*
X113106627Y-102675580D01*
X113108263Y-102667554D01*
X113251840Y-101825139D01*
X113252955Y-101817024D01*
X113341930Y-100967106D01*
X113342519Y-100958936D01*
X113371666Y-100226997D01*
X139868341Y-100227000D01*
X139868341Y-100227000D01*
G37*
X139868341Y-100227000D02*
X139781762Y-102694843D01*
X139521986Y-105278576D01*
X139094584Y-107839912D01*
X138501364Y-110368015D01*
X137744850Y-112852124D01*
X136828241Y-115281734D01*
X135755436Y-117646515D01*
X134530969Y-119936471D01*
X133160050Y-122141857D01*
X131648488Y-124253329D01*
X130002699Y-126261927D01*
X128229637Y-128159161D01*
X126336865Y-129936938D01*
X124332365Y-131587763D01*
X122224683Y-133104596D01*
X120130758Y-134413497D01*
X106882418Y-111466704D01*
X107501723Y-111075493D01*
X107508503Y-111070897D01*
X108200066Y-110568883D01*
X108206536Y-110563860D01*
X108864300Y-110018311D01*
X108870433Y-110012881D01*
X109491662Y-109426067D01*
X109497432Y-109420254D01*
X110079542Y-108794614D01*
X110084925Y-108788440D01*
X110625494Y-108126577D01*
X110630468Y-108120069D01*
X111127248Y-107424737D01*
X111131792Y-107417923D01*
X111582717Y-106692014D01*
X111586813Y-106684920D01*
X111990006Y-105931453D01*
X111993635Y-105924110D01*
X112347420Y-105146220D01*
X112350569Y-105138659D01*
X112653474Y-104339581D01*
X112656129Y-104331832D01*
X112906894Y-103514890D01*
X112909044Y-103506987D01*
X113106627Y-102675580D01*
X113108263Y-102667554D01*
X113251840Y-101825139D01*
X113252955Y-101817024D01*
X113341930Y-100967106D01*
X113342519Y-100958936D01*
X113371666Y-100226997D01*
X139868341Y-100227000D01*
M02*
