M48
METRIC,TZ
T1C0.300
T2C3.200
%
G90
G05
T1
X86450Y-100400
X87750Y-100000
X87936Y-97873
X87936Y-102127
X88489Y-95810
X88489Y-104190
X89391Y-93875
X89391Y-106125
X90616Y-92126
X90616Y-107874
X92126Y-90616
X92126Y-109384
X92850Y-88500
X93600Y-111950
X93875Y-89391
X93875Y-110609
X95810Y-88489
X95810Y-111511
X97873Y-87936
X97873Y-112064
X100000Y-87750
X100000Y-112250
X102127Y-87936
X102127Y-112064
X104190Y-88489
X104190Y-111511
X106125Y-89391
X106125Y-110609
X106400Y-88050
X107150Y-111550
X107874Y-90616
X107874Y-109384
X109384Y-92126
X109384Y-107874
X110609Y-93875
X110609Y-106125
X111511Y-95810
X111511Y-104190
X112064Y-97873
X112064Y-102127
X112250Y-100000
X113550Y-99600
T2
X65000Y-65000
X65000Y-135000
X135000Y-65000
X135000Y-135000
T0
M30
