G04 #@! TF.FileFunction,Copper,L1,Top,Signal*
%FSLAX46Y46*%
G04 Gerber Fmt 4.6, Leading zero omitted, Abs format (unit mm)*
G04 Created by KiCad (PCBNEW 4.0.2-stable) date Fri 12 Aug 2016 03:12:41 PM CEST*
%MOMM*%
G01*
G04 APERTURE LIST*
%ADD10C,0.100000*%
%ADD11C,0.300000*%
%ADD12C,5.000000*%
%ADD13C,4.000000*%
%ADD14C,0.254000*%
G04 APERTURE END LIST*
D10*
D11*
X66964286Y-60821429D02*
X66107143Y-60821429D01*
X66535714Y-59321429D02*
X66535714Y-60821429D01*
X65321429Y-60821429D02*
X65035715Y-60821429D01*
X64892857Y-60750000D01*
X64750000Y-60607143D01*
X64678572Y-60321429D01*
X64678572Y-59821429D01*
X64750000Y-59535714D01*
X64892857Y-59392857D01*
X65035715Y-59321429D01*
X65321429Y-59321429D01*
X65464286Y-59392857D01*
X65607143Y-59535714D01*
X65678572Y-59821429D01*
X65678572Y-60321429D01*
X65607143Y-60607143D01*
X65464286Y-60750000D01*
X65321429Y-60821429D01*
X64035714Y-59321429D02*
X64035714Y-60821429D01*
X63464286Y-60821429D01*
X63321428Y-60750000D01*
X63250000Y-60678571D01*
X63178571Y-60535714D01*
X63178571Y-60321429D01*
X63250000Y-60178571D01*
X63321428Y-60107143D01*
X63464286Y-60035714D01*
X64035714Y-60035714D01*
X133035714Y-139178571D02*
X133892857Y-139178571D01*
X133464286Y-140678571D02*
X133464286Y-139178571D01*
X134678571Y-139178571D02*
X134964285Y-139178571D01*
X135107143Y-139250000D01*
X135250000Y-139392857D01*
X135321428Y-139678571D01*
X135321428Y-140178571D01*
X135250000Y-140464286D01*
X135107143Y-140607143D01*
X134964285Y-140678571D01*
X134678571Y-140678571D01*
X134535714Y-140607143D01*
X134392857Y-140464286D01*
X134321428Y-140178571D01*
X134321428Y-139678571D01*
X134392857Y-139392857D01*
X134535714Y-139250000D01*
X134678571Y-139178571D01*
X135964286Y-140678571D02*
X135964286Y-139178571D01*
X136535714Y-139178571D01*
X136678572Y-139250000D01*
X136750000Y-139321429D01*
X136821429Y-139464286D01*
X136821429Y-139678571D01*
X136750000Y-139821429D01*
X136678572Y-139892857D01*
X136535714Y-139964286D01*
X135964286Y-139964286D01*
D12*
X92258330Y-119562178D03*
X87062178Y-116562178D03*
X86857695Y-83370835D03*
X92053848Y-80370835D03*
X121000000Y-97000000D03*
X121000000Y-103000000D03*
D13*
X65000000Y-135000000D03*
X135000000Y-135000000D03*
X65000000Y-65000000D03*
X135000000Y-65000000D03*
D14*
G36*
X120607160Y-136446639D02*
X118324090Y-137650634D01*
X115851212Y-138756698D01*
X113312011Y-139700540D01*
X110717095Y-140478222D01*
X108077315Y-141086489D01*
X105403725Y-141522793D01*
X102707543Y-141785306D01*
X100000000Y-141872933D01*
X97292457Y-141785306D01*
X94596275Y-141522793D01*
X91922685Y-141086489D01*
X89282905Y-140478222D01*
X86687989Y-139700540D01*
X84148788Y-138756698D01*
X81675910Y-137650634D01*
X79392840Y-136446639D01*
X91266679Y-115880508D01*
X92177161Y-116352033D01*
X92184460Y-116355523D01*
X93234180Y-116816941D01*
X93241686Y-116819959D01*
X94318655Y-117213603D01*
X94326338Y-117216137D01*
X95426186Y-117540412D01*
X95434015Y-117542451D01*
X96552277Y-117796039D01*
X96560220Y-117797576D01*
X97692360Y-117979449D01*
X97700385Y-117980477D01*
X98841808Y-118089897D01*
X98849882Y-118090413D01*
X99995955Y-118126936D01*
X100004045Y-118126936D01*
X101150118Y-118090413D01*
X101158192Y-118089897D01*
X102299615Y-117980477D01*
X102307640Y-117979449D01*
X103439780Y-117797576D01*
X103447723Y-117796039D01*
X104565985Y-117542451D01*
X104573814Y-117540412D01*
X105673662Y-117216137D01*
X105681345Y-117213603D01*
X106758314Y-116819959D01*
X106765820Y-116816941D01*
X107815540Y-116355523D01*
X107822839Y-116352033D01*
X108733321Y-115880508D01*
X120607160Y-136446639D01*
X120607160Y-136446639D01*
G37*
X120607160Y-136446639D02*
X118324090Y-137650634D01*
X115851212Y-138756698D01*
X113312011Y-139700540D01*
X110717095Y-140478222D01*
X108077315Y-141086489D01*
X105403725Y-141522793D01*
X102707543Y-141785306D01*
X100000000Y-141872933D01*
X97292457Y-141785306D01*
X94596275Y-141522793D01*
X91922685Y-141086489D01*
X89282905Y-140478222D01*
X86687989Y-139700540D01*
X84148788Y-138756698D01*
X81675910Y-137650634D01*
X79392840Y-136446639D01*
X91266679Y-115880508D01*
X92177161Y-116352033D01*
X92184460Y-116355523D01*
X93234180Y-116816941D01*
X93241686Y-116819959D01*
X94318655Y-117213603D01*
X94326338Y-117216137D01*
X95426186Y-117540412D01*
X95434015Y-117542451D01*
X96552277Y-117796039D01*
X96560220Y-117797576D01*
X97692360Y-117979449D01*
X97700385Y-117980477D01*
X98841808Y-118089897D01*
X98849882Y-118090413D01*
X99995955Y-118126936D01*
X100004045Y-118126936D01*
X101150118Y-118090413D01*
X101158192Y-118089897D01*
X102299615Y-117980477D01*
X102307640Y-117979449D01*
X103439780Y-117797576D01*
X103447723Y-117796039D01*
X104565985Y-117542451D01*
X104573814Y-117540412D01*
X105673662Y-117216137D01*
X105681345Y-117213603D01*
X106758314Y-116819959D01*
X106765820Y-116816941D01*
X107815540Y-116355523D01*
X107822839Y-116352033D01*
X108733321Y-115880508D01*
X120607160Y-136446639D01*
G36*
X81927304Y-101401240D02*
X81927931Y-101409306D01*
X82053192Y-102549099D01*
X82054332Y-102557108D01*
X82251911Y-103686612D01*
X82253558Y-103694533D01*
X82522651Y-104809166D01*
X82524799Y-104816966D01*
X82864317Y-105912205D01*
X82866957Y-105919852D01*
X83275520Y-106991250D01*
X83278642Y-106998714D01*
X83754593Y-108041925D01*
X83758184Y-108049175D01*
X84299591Y-109059965D01*
X84303636Y-109066971D01*
X84908302Y-110041238D01*
X84912785Y-110047973D01*
X85578257Y-110981764D01*
X85583160Y-110988199D01*
X86306737Y-111877725D01*
X86312040Y-111883835D01*
X87090785Y-112725484D01*
X87096465Y-112731245D01*
X87927218Y-113521604D01*
X87933254Y-113526991D01*
X88812645Y-114262851D01*
X88819012Y-114267842D01*
X89743471Y-114946218D01*
X89750143Y-114950794D01*
X90613737Y-115503531D01*
X78739864Y-136069644D01*
X76555634Y-134694441D01*
X74361323Y-133105903D01*
X72274331Y-131378812D01*
X70303373Y-129520381D01*
X68456713Y-127538403D01*
X66742071Y-125441164D01*
X65166637Y-123237455D01*
X63736973Y-120936462D01*
X62459096Y-118547858D01*
X61338345Y-116081634D01*
X60379398Y-113548080D01*
X59586285Y-110957836D01*
X58962318Y-108321729D01*
X58510109Y-105650795D01*
X58231550Y-102956201D01*
X58132705Y-100376996D01*
X81880417Y-100376976D01*
X81927304Y-101401240D01*
X81927304Y-101401240D01*
G37*
X81927304Y-101401240D02*
X81927931Y-101409306D01*
X82053192Y-102549099D01*
X82054332Y-102557108D01*
X82251911Y-103686612D01*
X82253558Y-103694533D01*
X82522651Y-104809166D01*
X82524799Y-104816966D01*
X82864317Y-105912205D01*
X82866957Y-105919852D01*
X83275520Y-106991250D01*
X83278642Y-106998714D01*
X83754593Y-108041925D01*
X83758184Y-108049175D01*
X84299591Y-109059965D01*
X84303636Y-109066971D01*
X84908302Y-110041238D01*
X84912785Y-110047973D01*
X85578257Y-110981764D01*
X85583160Y-110988199D01*
X86306737Y-111877725D01*
X86312040Y-111883835D01*
X87090785Y-112725484D01*
X87096465Y-112731245D01*
X87927218Y-113521604D01*
X87933254Y-113526991D01*
X88812645Y-114262851D01*
X88819012Y-114267842D01*
X89743471Y-114946218D01*
X89750143Y-114950794D01*
X90613737Y-115503531D01*
X78739864Y-136069644D01*
X76555634Y-134694441D01*
X74361323Y-133105903D01*
X72274331Y-131378812D01*
X70303373Y-129520381D01*
X68456713Y-127538403D01*
X66742071Y-125441164D01*
X65166637Y-123237455D01*
X63736973Y-120936462D01*
X62459096Y-118547858D01*
X61338345Y-116081634D01*
X60379398Y-113548080D01*
X59586285Y-110957836D01*
X58962318Y-108321729D01*
X58510109Y-105650795D01*
X58231550Y-102956201D01*
X58132705Y-100376996D01*
X81880417Y-100376976D01*
X81927304Y-101401240D01*
G36*
X90613737Y-84496469D02*
X89750143Y-85049206D01*
X89743471Y-85053782D01*
X88819012Y-85732158D01*
X88812645Y-85737149D01*
X87933254Y-86473009D01*
X87927218Y-86478396D01*
X87096465Y-87268755D01*
X87090785Y-87274516D01*
X86312040Y-88116165D01*
X86306737Y-88122275D01*
X85583160Y-89011801D01*
X85578257Y-89018236D01*
X84912785Y-89952027D01*
X84908302Y-89958762D01*
X84303636Y-90933029D01*
X84299591Y-90940035D01*
X83758184Y-91950825D01*
X83754593Y-91958075D01*
X83278642Y-93001286D01*
X83275520Y-93008750D01*
X82866957Y-94080148D01*
X82864317Y-94087795D01*
X82524799Y-95183034D01*
X82522651Y-95190834D01*
X82253558Y-96305467D01*
X82251911Y-96313388D01*
X82054332Y-97442892D01*
X82053192Y-97450901D01*
X81927931Y-98590694D01*
X81927304Y-98598760D01*
X81880417Y-99623024D01*
X58132705Y-99623004D01*
X58231550Y-97043799D01*
X58510109Y-94349205D01*
X58962318Y-91678271D01*
X59586285Y-89042164D01*
X60379398Y-86451920D01*
X61338345Y-83918366D01*
X62459096Y-81452142D01*
X63736973Y-79063538D01*
X65166637Y-76762545D01*
X66742071Y-74558836D01*
X68456713Y-72461597D01*
X70303373Y-70479619D01*
X72274331Y-68621188D01*
X74361323Y-66894097D01*
X76555634Y-65305559D01*
X78739864Y-63930356D01*
X90613737Y-84496469D01*
X90613737Y-84496469D01*
G37*
X90613737Y-84496469D02*
X89750143Y-85049206D01*
X89743471Y-85053782D01*
X88819012Y-85732158D01*
X88812645Y-85737149D01*
X87933254Y-86473009D01*
X87927218Y-86478396D01*
X87096465Y-87268755D01*
X87090785Y-87274516D01*
X86312040Y-88116165D01*
X86306737Y-88122275D01*
X85583160Y-89011801D01*
X85578257Y-89018236D01*
X84912785Y-89952027D01*
X84908302Y-89958762D01*
X84303636Y-90933029D01*
X84299591Y-90940035D01*
X83758184Y-91950825D01*
X83754593Y-91958075D01*
X83278642Y-93001286D01*
X83275520Y-93008750D01*
X82866957Y-94080148D01*
X82864317Y-94087795D01*
X82524799Y-95183034D01*
X82522651Y-95190834D01*
X82253558Y-96305467D01*
X82251911Y-96313388D01*
X82054332Y-97442892D01*
X82053192Y-97450901D01*
X81927931Y-98590694D01*
X81927304Y-98598760D01*
X81880417Y-99623024D01*
X58132705Y-99623004D01*
X58231550Y-97043799D01*
X58510109Y-94349205D01*
X58962318Y-91678271D01*
X59586285Y-89042164D01*
X60379398Y-86451920D01*
X61338345Y-83918366D01*
X62459096Y-81452142D01*
X63736973Y-79063538D01*
X65166637Y-76762545D01*
X66742071Y-74558836D01*
X68456713Y-72461597D01*
X70303373Y-70479619D01*
X72274331Y-68621188D01*
X74361323Y-66894097D01*
X76555634Y-65305559D01*
X78739864Y-63930356D01*
X90613737Y-84496469D01*
G36*
X102707543Y-58214694D02*
X105403725Y-58477207D01*
X108077315Y-58913511D01*
X110717095Y-59521778D01*
X113312011Y-60299460D01*
X115851212Y-61243302D01*
X118324090Y-62349366D01*
X120607160Y-63553361D01*
X108733321Y-84119492D01*
X107822839Y-83647967D01*
X107815540Y-83644477D01*
X106765820Y-83183059D01*
X106758314Y-83180041D01*
X105681345Y-82786397D01*
X105673662Y-82783863D01*
X104573814Y-82459588D01*
X104565985Y-82457549D01*
X103447723Y-82203961D01*
X103439780Y-82202424D01*
X102307640Y-82020551D01*
X102299615Y-82019523D01*
X101158192Y-81910103D01*
X101150118Y-81909587D01*
X100004045Y-81873064D01*
X99995955Y-81873064D01*
X98849882Y-81909587D01*
X98841808Y-81910103D01*
X97700385Y-82019523D01*
X97692360Y-82020551D01*
X96560220Y-82202424D01*
X96552277Y-82203961D01*
X95434015Y-82457549D01*
X95426186Y-82459588D01*
X94326338Y-82783863D01*
X94318655Y-82786397D01*
X93241686Y-83180041D01*
X93234180Y-83183059D01*
X92184460Y-83644477D01*
X92177161Y-83647967D01*
X91266679Y-84119492D01*
X79392840Y-63553361D01*
X81675910Y-62349366D01*
X84148788Y-61243302D01*
X86687989Y-60299460D01*
X89282905Y-59521778D01*
X91922685Y-58913511D01*
X94596275Y-58477207D01*
X97292457Y-58214694D01*
X100000000Y-58127067D01*
X102707543Y-58214694D01*
X102707543Y-58214694D01*
G37*
X102707543Y-58214694D02*
X105403725Y-58477207D01*
X108077315Y-58913511D01*
X110717095Y-59521778D01*
X113312011Y-60299460D01*
X115851212Y-61243302D01*
X118324090Y-62349366D01*
X120607160Y-63553361D01*
X108733321Y-84119492D01*
X107822839Y-83647967D01*
X107815540Y-83644477D01*
X106765820Y-83183059D01*
X106758314Y-83180041D01*
X105681345Y-82786397D01*
X105673662Y-82783863D01*
X104573814Y-82459588D01*
X104565985Y-82457549D01*
X103447723Y-82203961D01*
X103439780Y-82202424D01*
X102307640Y-82020551D01*
X102299615Y-82019523D01*
X101158192Y-81910103D01*
X101150118Y-81909587D01*
X100004045Y-81873064D01*
X99995955Y-81873064D01*
X98849882Y-81909587D01*
X98841808Y-81910103D01*
X97700385Y-82019523D01*
X97692360Y-82020551D01*
X96560220Y-82202424D01*
X96552277Y-82203961D01*
X95434015Y-82457549D01*
X95426186Y-82459588D01*
X94326338Y-82783863D01*
X94318655Y-82786397D01*
X93241686Y-83180041D01*
X93234180Y-83183059D01*
X92184460Y-83644477D01*
X92177161Y-83647967D01*
X91266679Y-84119492D01*
X79392840Y-63553361D01*
X81675910Y-62349366D01*
X84148788Y-61243302D01*
X86687989Y-60299460D01*
X89282905Y-59521778D01*
X91922685Y-58913511D01*
X94596275Y-58477207D01*
X97292457Y-58214694D01*
X100000000Y-58127067D01*
X102707543Y-58214694D01*
G36*
X123444366Y-65305559D02*
X125638677Y-66894097D01*
X127725669Y-68621188D01*
X129696627Y-70479619D01*
X131543287Y-72461597D01*
X133257929Y-74558836D01*
X134833363Y-76762545D01*
X136263027Y-79063538D01*
X137540904Y-81452142D01*
X138661655Y-83918366D01*
X139620602Y-86451920D01*
X140413715Y-89042164D01*
X141037682Y-91678271D01*
X141489891Y-94349205D01*
X141768450Y-97043799D01*
X141867295Y-99623004D01*
X118119583Y-99623024D01*
X118072696Y-98598760D01*
X118072069Y-98590694D01*
X117946808Y-97450901D01*
X117945668Y-97442892D01*
X117748089Y-96313388D01*
X117746442Y-96305467D01*
X117477349Y-95190834D01*
X117475201Y-95183034D01*
X117135683Y-94087795D01*
X117133043Y-94080148D01*
X116724480Y-93008750D01*
X116721358Y-93001286D01*
X116245407Y-91958075D01*
X116241816Y-91950825D01*
X115700409Y-90940035D01*
X115696364Y-90933029D01*
X115091698Y-89958762D01*
X115087215Y-89952027D01*
X114421743Y-89018236D01*
X114416840Y-89011801D01*
X113693263Y-88122275D01*
X113687960Y-88116165D01*
X112909215Y-87274516D01*
X112903535Y-87268755D01*
X112072782Y-86478396D01*
X112066746Y-86473009D01*
X111187355Y-85737149D01*
X111180988Y-85732158D01*
X110256529Y-85053782D01*
X110249857Y-85049206D01*
X109386263Y-84496469D01*
X121260136Y-63930356D01*
X123444366Y-65305559D01*
X123444366Y-65305559D01*
G37*
X123444366Y-65305559D02*
X125638677Y-66894097D01*
X127725669Y-68621188D01*
X129696627Y-70479619D01*
X131543287Y-72461597D01*
X133257929Y-74558836D01*
X134833363Y-76762545D01*
X136263027Y-79063538D01*
X137540904Y-81452142D01*
X138661655Y-83918366D01*
X139620602Y-86451920D01*
X140413715Y-89042164D01*
X141037682Y-91678271D01*
X141489891Y-94349205D01*
X141768450Y-97043799D01*
X141867295Y-99623004D01*
X118119583Y-99623024D01*
X118072696Y-98598760D01*
X118072069Y-98590694D01*
X117946808Y-97450901D01*
X117945668Y-97442892D01*
X117748089Y-96313388D01*
X117746442Y-96305467D01*
X117477349Y-95190834D01*
X117475201Y-95183034D01*
X117135683Y-94087795D01*
X117133043Y-94080148D01*
X116724480Y-93008750D01*
X116721358Y-93001286D01*
X116245407Y-91958075D01*
X116241816Y-91950825D01*
X115700409Y-90940035D01*
X115696364Y-90933029D01*
X115091698Y-89958762D01*
X115087215Y-89952027D01*
X114421743Y-89018236D01*
X114416840Y-89011801D01*
X113693263Y-88122275D01*
X113687960Y-88116165D01*
X112909215Y-87274516D01*
X112903535Y-87268755D01*
X112072782Y-86478396D01*
X112066746Y-86473009D01*
X111187355Y-85737149D01*
X111180988Y-85732158D01*
X110256529Y-85053782D01*
X110249857Y-85049206D01*
X109386263Y-84496469D01*
X121260136Y-63930356D01*
X123444366Y-65305559D01*
G36*
X141867295Y-100376996D02*
X141768450Y-102956201D01*
X141489891Y-105650795D01*
X141037682Y-108321729D01*
X140413715Y-110957836D01*
X139620602Y-113548080D01*
X138661655Y-116081634D01*
X137540904Y-118547858D01*
X136263027Y-120936462D01*
X134833363Y-123237455D01*
X133257929Y-125441164D01*
X131543287Y-127538403D01*
X129696627Y-129520381D01*
X127725669Y-131378812D01*
X125638677Y-133105903D01*
X123444366Y-134694441D01*
X121260136Y-136069644D01*
X109386263Y-115503531D01*
X110249857Y-114950794D01*
X110256529Y-114946218D01*
X111180988Y-114267842D01*
X111187355Y-114262851D01*
X112066746Y-113526991D01*
X112072782Y-113521604D01*
X112903535Y-112731245D01*
X112909215Y-112725484D01*
X113687960Y-111883835D01*
X113693263Y-111877725D01*
X114416840Y-110988199D01*
X114421743Y-110981764D01*
X115087215Y-110047973D01*
X115091698Y-110041238D01*
X115696364Y-109066971D01*
X115700409Y-109059965D01*
X116241816Y-108049175D01*
X116245407Y-108041925D01*
X116721358Y-106998714D01*
X116724480Y-106991250D01*
X117133043Y-105919852D01*
X117135683Y-105912205D01*
X117475201Y-104816966D01*
X117477349Y-104809166D01*
X117746442Y-103694533D01*
X117748089Y-103686612D01*
X117945668Y-102557108D01*
X117946808Y-102549099D01*
X118072069Y-101409306D01*
X118072696Y-101401240D01*
X118119583Y-100376976D01*
X141867295Y-100376996D01*
X141867295Y-100376996D01*
G37*
X141867295Y-100376996D02*
X141768450Y-102956201D01*
X141489891Y-105650795D01*
X141037682Y-108321729D01*
X140413715Y-110957836D01*
X139620602Y-113548080D01*
X138661655Y-116081634D01*
X137540904Y-118547858D01*
X136263027Y-120936462D01*
X134833363Y-123237455D01*
X133257929Y-125441164D01*
X131543287Y-127538403D01*
X129696627Y-129520381D01*
X127725669Y-131378812D01*
X125638677Y-133105903D01*
X123444366Y-134694441D01*
X121260136Y-136069644D01*
X109386263Y-115503531D01*
X110249857Y-114950794D01*
X110256529Y-114946218D01*
X111180988Y-114267842D01*
X111187355Y-114262851D01*
X112066746Y-113526991D01*
X112072782Y-113521604D01*
X112903535Y-112731245D01*
X112909215Y-112725484D01*
X113687960Y-111883835D01*
X113693263Y-111877725D01*
X114416840Y-110988199D01*
X114421743Y-110981764D01*
X115087215Y-110047973D01*
X115091698Y-110041238D01*
X115696364Y-109066971D01*
X115700409Y-109059965D01*
X116241816Y-108049175D01*
X116245407Y-108041925D01*
X116721358Y-106998714D01*
X116724480Y-106991250D01*
X117133043Y-105919852D01*
X117135683Y-105912205D01*
X117475201Y-104816966D01*
X117477349Y-104809166D01*
X117746442Y-103694533D01*
X117748089Y-103686612D01*
X117945668Y-102557108D01*
X117946808Y-102549099D01*
X118072069Y-101409306D01*
X118072696Y-101401240D01*
X118119583Y-100376976D01*
X141867295Y-100376996D01*
G36*
X141922500Y-141922500D02*
X107544813Y-141922500D01*
X108309974Y-141808999D01*
X108322197Y-141806568D01*
X112367957Y-140793158D01*
X112379884Y-140789540D01*
X116306831Y-139384456D01*
X116318345Y-139379687D01*
X119398251Y-137923000D01*
X132165857Y-137923000D01*
X132165857Y-141777000D01*
X137834143Y-141777000D01*
X137834143Y-137923000D01*
X132165857Y-137923000D01*
X119398251Y-137923000D01*
X120088660Y-137596461D01*
X120099652Y-137590586D01*
X123677026Y-135446391D01*
X123687389Y-135439466D01*
X127037369Y-132954951D01*
X127047003Y-132947045D01*
X130137326Y-130146139D01*
X130146139Y-130137326D01*
X132947045Y-127047003D01*
X132954951Y-127037369D01*
X135439466Y-123687389D01*
X135446391Y-123677026D01*
X137590586Y-120099652D01*
X137596461Y-120088660D01*
X139379687Y-116318345D01*
X139384456Y-116306831D01*
X140789540Y-112379884D01*
X140793158Y-112367957D01*
X141806568Y-108322197D01*
X141808999Y-108309974D01*
X141922500Y-107544813D01*
X141922500Y-141922500D01*
X141922500Y-141922500D01*
G37*
X141922500Y-141922500D02*
X107544813Y-141922500D01*
X108309974Y-141808999D01*
X108322197Y-141806568D01*
X112367957Y-140793158D01*
X112379884Y-140789540D01*
X116306831Y-139384456D01*
X116318345Y-139379687D01*
X119398251Y-137923000D01*
X132165857Y-137923000D01*
X132165857Y-141777000D01*
X137834143Y-141777000D01*
X137834143Y-137923000D01*
X132165857Y-137923000D01*
X119398251Y-137923000D01*
X120088660Y-137596461D01*
X120099652Y-137590586D01*
X123677026Y-135446391D01*
X123687389Y-135439466D01*
X127037369Y-132954951D01*
X127047003Y-132947045D01*
X130137326Y-130146139D01*
X130146139Y-130137326D01*
X132947045Y-127047003D01*
X132954951Y-127037369D01*
X135439466Y-123687389D01*
X135446391Y-123677026D01*
X137590586Y-120099652D01*
X137596461Y-120088660D01*
X139379687Y-116318345D01*
X139384456Y-116306831D01*
X140789540Y-112379884D01*
X140793158Y-112367957D01*
X141806568Y-108322197D01*
X141808999Y-108309974D01*
X141922500Y-107544813D01*
X141922500Y-141922500D01*
G36*
X58191001Y-108309974D02*
X58193432Y-108322197D01*
X59206842Y-112367957D01*
X59210460Y-112379884D01*
X60615544Y-116306831D01*
X60620313Y-116318345D01*
X62403539Y-120088660D01*
X62409414Y-120099652D01*
X64553609Y-123677026D01*
X64560534Y-123687389D01*
X67045049Y-127037369D01*
X67052955Y-127047003D01*
X69853861Y-130137326D01*
X69862674Y-130146139D01*
X72952997Y-132947045D01*
X72962631Y-132954951D01*
X76312611Y-135439466D01*
X76322974Y-135446391D01*
X79900348Y-137590586D01*
X79911340Y-137596461D01*
X83681655Y-139379687D01*
X83693169Y-139384456D01*
X87620116Y-140789540D01*
X87632043Y-140793158D01*
X91677803Y-141806568D01*
X91690026Y-141808999D01*
X92455187Y-141922500D01*
X58077500Y-141922500D01*
X58077500Y-107544813D01*
X58191001Y-108309974D01*
X58191001Y-108309974D01*
G37*
X58191001Y-108309974D02*
X58193432Y-108322197D01*
X59206842Y-112367957D01*
X59210460Y-112379884D01*
X60615544Y-116306831D01*
X60620313Y-116318345D01*
X62403539Y-120088660D01*
X62409414Y-120099652D01*
X64553609Y-123677026D01*
X64560534Y-123687389D01*
X67045049Y-127037369D01*
X67052955Y-127047003D01*
X69853861Y-130137326D01*
X69862674Y-130146139D01*
X72952997Y-132947045D01*
X72962631Y-132954951D01*
X76312611Y-135439466D01*
X76322974Y-135446391D01*
X79900348Y-137590586D01*
X79911340Y-137596461D01*
X83681655Y-139379687D01*
X83693169Y-139384456D01*
X87620116Y-140789540D01*
X87632043Y-140793158D01*
X91677803Y-141806568D01*
X91690026Y-141808999D01*
X92455187Y-141922500D01*
X58077500Y-141922500D01*
X58077500Y-107544813D01*
X58191001Y-108309974D01*
G36*
X91690026Y-58191001D02*
X91677803Y-58193432D01*
X87632043Y-59206842D01*
X87620116Y-59210460D01*
X83693169Y-60615544D01*
X83681655Y-60620313D01*
X79911340Y-62403539D01*
X79900348Y-62409414D01*
X76322974Y-64553609D01*
X76312611Y-64560534D01*
X72962631Y-67045049D01*
X72952997Y-67052955D01*
X69862674Y-69853861D01*
X69853861Y-69862674D01*
X67052955Y-72952997D01*
X67045049Y-72962631D01*
X64560534Y-76312611D01*
X64553609Y-76322974D01*
X62409414Y-79900348D01*
X62403539Y-79911340D01*
X60620313Y-83681655D01*
X60615544Y-83693169D01*
X59210460Y-87620116D01*
X59206842Y-87632043D01*
X58193432Y-91677803D01*
X58191001Y-91690026D01*
X58077500Y-92455187D01*
X58077500Y-58223000D01*
X62165857Y-58223000D01*
X62165857Y-62077000D01*
X67834143Y-62077000D01*
X67834143Y-58223000D01*
X62165857Y-58223000D01*
X58077500Y-58223000D01*
X58077500Y-58077500D01*
X92455187Y-58077500D01*
X91690026Y-58191001D01*
X91690026Y-58191001D01*
G37*
X91690026Y-58191001D02*
X91677803Y-58193432D01*
X87632043Y-59206842D01*
X87620116Y-59210460D01*
X83693169Y-60615544D01*
X83681655Y-60620313D01*
X79911340Y-62403539D01*
X79900348Y-62409414D01*
X76322974Y-64553609D01*
X76312611Y-64560534D01*
X72962631Y-67045049D01*
X72952997Y-67052955D01*
X69862674Y-69853861D01*
X69853861Y-69862674D01*
X67052955Y-72952997D01*
X67045049Y-72962631D01*
X64560534Y-76312611D01*
X64553609Y-76322974D01*
X62409414Y-79900348D01*
X62403539Y-79911340D01*
X60620313Y-83681655D01*
X60615544Y-83693169D01*
X59210460Y-87620116D01*
X59206842Y-87632043D01*
X58193432Y-91677803D01*
X58191001Y-91690026D01*
X58077500Y-92455187D01*
X58077500Y-58223000D01*
X62165857Y-58223000D01*
X62165857Y-62077000D01*
X67834143Y-62077000D01*
X67834143Y-58223000D01*
X62165857Y-58223000D01*
X58077500Y-58223000D01*
X58077500Y-58077500D01*
X92455187Y-58077500D01*
X91690026Y-58191001D01*
G36*
X141922500Y-92455187D02*
X141808999Y-91690026D01*
X141806568Y-91677803D01*
X140793158Y-87632043D01*
X140789540Y-87620116D01*
X139384456Y-83693169D01*
X139379687Y-83681655D01*
X137596461Y-79911340D01*
X137590586Y-79900348D01*
X135446391Y-76322974D01*
X135439466Y-76312611D01*
X132954951Y-72962631D01*
X132947045Y-72952997D01*
X130146139Y-69862674D01*
X130137326Y-69853861D01*
X127047003Y-67052955D01*
X127037369Y-67045049D01*
X123687389Y-64560534D01*
X123677026Y-64553609D01*
X120099652Y-62409414D01*
X120088660Y-62403539D01*
X116318345Y-60620313D01*
X116306831Y-60615544D01*
X112379884Y-59210460D01*
X112367957Y-59206842D01*
X108322197Y-58193432D01*
X108309974Y-58191001D01*
X107544813Y-58077500D01*
X141922500Y-58077500D01*
X141922500Y-92455187D01*
X141922500Y-92455187D01*
G37*
X141922500Y-92455187D02*
X141808999Y-91690026D01*
X141806568Y-91677803D01*
X140793158Y-87632043D01*
X140789540Y-87620116D01*
X139384456Y-83693169D01*
X139379687Y-83681655D01*
X137596461Y-79911340D01*
X137590586Y-79900348D01*
X135446391Y-76322974D01*
X135439466Y-76312611D01*
X132954951Y-72962631D01*
X132947045Y-72952997D01*
X130146139Y-69862674D01*
X130137326Y-69853861D01*
X127047003Y-67052955D01*
X127037369Y-67045049D01*
X123687389Y-64560534D01*
X123677026Y-64553609D01*
X120099652Y-62409414D01*
X120088660Y-62403539D01*
X116318345Y-60620313D01*
X116306831Y-60615544D01*
X112379884Y-59210460D01*
X112367957Y-59206842D01*
X108322197Y-58193432D01*
X108309974Y-58191001D01*
X107544813Y-58077500D01*
X141922500Y-58077500D01*
X141922500Y-92455187D01*
M02*
