M48
;DRILL file {KiCad 4.0.2+dfsg1-stable} date fre  9 dec 2016 10:59:32
;FORMAT={3:3/ absolute / metric / suppress leading zeros}
FMAT,2
METRIC,TZ
T1C0.300
T2C3.200
T3C4.300
%
G90
G05
M71
T1
X86858Y-83371
X87062Y-116562
X88150Y-100000
X88330Y-97942
X88330Y-102058
X88865Y-95947
X88865Y-104053
X89738Y-94075
X89738Y-105925
X90922Y-92383
X90922Y-107617
X92054Y-80371
X92258Y-119562
X92383Y-90922
X92383Y-109078
X94075Y-89738
X94075Y-110262
X95947Y-88865
X95947Y-111135
X97942Y-88330
X97942Y-111670
X100000Y-88150
X100000Y-111850
X102058Y-88330
X102058Y-111670
X104053Y-88865
X104053Y-111135
X105925Y-89738
X105925Y-110262
X107617Y-90922
X107617Y-109078
X109078Y-92383
X109078Y-107617
X110262Y-94075
X110262Y-105925
X111135Y-95947
X111135Y-104053
X111670Y-97942
X111670Y-102058
X111850Y-100000
X121000Y-97000
X121000Y-103000
T2
X65000Y-65000
X65000Y-135000
X135000Y-65000
X135000Y-135000
T3
X121500Y-62761
X137239Y-78500
T0
M30
