G04 #@! TF.FileFunction,Paste,Bot*
%FSLAX46Y46*%
G04 Gerber Fmt 4.6, Leading zero omitted, Abs format (unit mm)*
G04 Created by KiCad (PCBNEW 4.0.5+dfsg1-4) date Thu May  3 17:22:11 2018*
%MOMM*%
%LPD*%
G01*
G04 APERTURE LIST*
%ADD10C,0.100000*%
%ADD11R,2.350000X0.850000*%
%ADD12R,0.850000X2.350000*%
%ADD13R,0.610000X1.650000*%
%ADD14R,0.550000X1.150000*%
%ADD15R,1.050000X0.130000*%
%ADD16R,0.130000X1.050000*%
%ADD17R,0.450000X1.400000*%
%ADD18R,1.150000X0.550000*%
%ADD19R,0.850000X1.100000*%
%ADD20R,1.100000X0.850000*%
%ADD21R,1.400000X0.450000*%
%ADD22R,1.350000X0.450000*%
%ADD23R,2.349360X1.650860*%
%ADD24R,1.650860X2.349360*%
%ADD25R,0.600000X0.650000*%
%ADD26R,0.650000X0.600000*%
%ADD27R,1.550000X0.750000*%
%ADD28R,0.750000X1.550000*%
%ADD29R,1.850000X3.650000*%
%ADD30R,1.850000X1.350000*%
%ADD31R,3.650000X1.850000*%
%ADD32R,1.350000X1.850000*%
%ADD33R,1.650000X0.610000*%
G04 APERTURE END LIST*
D10*
D11*
X81200000Y-115000000D03*
X81200000Y-118000000D03*
D12*
X67900000Y-114200000D03*
X70900000Y-114200000D03*
D13*
X101270000Y-81100000D03*
X101270000Y-76900000D03*
X100000000Y-81100000D03*
X100000000Y-76900000D03*
X98730000Y-81100000D03*
X98730000Y-76900000D03*
D14*
X93050000Y-72750000D03*
X94950000Y-72750000D03*
D15*
X74500000Y-106750000D03*
X74500000Y-107250000D03*
X74500000Y-107750000D03*
X74500000Y-108250000D03*
X74500000Y-108750000D03*
X74500000Y-109250000D03*
X74500000Y-109750000D03*
X74500000Y-110250000D03*
D16*
X73000000Y-111750000D03*
X72500000Y-111750000D03*
X72000000Y-111750000D03*
X71500000Y-111750000D03*
X71000000Y-111750000D03*
X70500000Y-111750000D03*
X70000000Y-111750000D03*
X69500000Y-111750000D03*
D15*
X68000000Y-110250000D03*
X68000000Y-109750000D03*
X68000000Y-109250000D03*
X68000000Y-108750000D03*
X68000000Y-108250000D03*
X68000000Y-107750000D03*
X68000000Y-107250000D03*
X68000000Y-106750000D03*
D16*
X69500000Y-105250000D03*
X70000000Y-105250000D03*
X70500000Y-105250000D03*
X71000000Y-105250000D03*
X71500000Y-105250000D03*
X72000000Y-105250000D03*
X72500000Y-105250000D03*
X73000000Y-105250000D03*
D17*
X132405000Y-102700000D03*
X131135000Y-102700000D03*
X129865000Y-102700000D03*
X128595000Y-102700000D03*
X128595000Y-97300000D03*
X129865000Y-97300000D03*
X131135000Y-97300000D03*
X132405000Y-97300000D03*
D18*
X86000000Y-115550000D03*
X86000000Y-117450000D03*
D19*
X117500000Y-62750000D03*
X115500000Y-62750000D03*
D14*
X93050000Y-62000000D03*
X94950000Y-62000000D03*
D20*
X69250000Y-91250000D03*
X69250000Y-89250000D03*
D19*
X93000000Y-70500000D03*
X95000000Y-70500000D03*
D14*
X93500000Y-84500000D03*
X95400000Y-84500000D03*
X94900000Y-68250000D03*
X93000000Y-68250000D03*
D20*
X140000000Y-85200000D03*
X140000000Y-83200000D03*
D19*
X127000000Y-77250000D03*
X129000000Y-77250000D03*
X127000000Y-87250000D03*
X129000000Y-87250000D03*
D20*
X68250000Y-100750000D03*
X68250000Y-102750000D03*
X76750000Y-106750000D03*
X76750000Y-108750000D03*
X79250000Y-89000000D03*
X79250000Y-91000000D03*
D19*
X111750000Y-62750000D03*
X113750000Y-62750000D03*
D20*
X76750000Y-103000000D03*
X76750000Y-105000000D03*
X76750000Y-110500000D03*
X76750000Y-112500000D03*
D19*
X66900000Y-122300000D03*
X64900000Y-122300000D03*
X74500000Y-114600000D03*
X72500000Y-114600000D03*
X67900000Y-116900000D03*
X69900000Y-116900000D03*
X108500000Y-80250000D03*
X106500000Y-80250000D03*
X105000000Y-74000000D03*
X107000000Y-74000000D03*
X97000000Y-60000000D03*
X99000000Y-60000000D03*
D18*
X70500000Y-101050000D03*
X70500000Y-102950000D03*
X84000000Y-115550000D03*
X84000000Y-117450000D03*
X72500000Y-99450000D03*
X72500000Y-97550000D03*
D14*
X125250000Y-68800000D03*
X127150000Y-68800000D03*
D18*
X74500000Y-99450000D03*
X74500000Y-97550000D03*
X66200000Y-99050000D03*
X66200000Y-100950000D03*
D14*
X78550000Y-102750000D03*
X80450000Y-102750000D03*
X80450000Y-104750000D03*
X78550000Y-104750000D03*
X78550000Y-106750000D03*
X80450000Y-106750000D03*
X80450000Y-108750000D03*
X78550000Y-108750000D03*
X78550000Y-110750000D03*
X80450000Y-110750000D03*
X80450000Y-112750000D03*
X78550000Y-112750000D03*
D21*
X77650000Y-131805000D03*
X77650000Y-130535000D03*
X77650000Y-129265000D03*
X77650000Y-127995000D03*
X83050000Y-127995000D03*
X83050000Y-129265000D03*
X83050000Y-130535000D03*
X83050000Y-131805000D03*
X110200000Y-82345000D03*
X110200000Y-83615000D03*
X110200000Y-84885000D03*
X110200000Y-86155000D03*
X104800000Y-86155000D03*
X104800000Y-84885000D03*
X104800000Y-83615000D03*
X104800000Y-82345000D03*
X83100000Y-68395000D03*
X83100000Y-69665000D03*
X83100000Y-70935000D03*
X83100000Y-72205000D03*
X77700000Y-72205000D03*
X77700000Y-70935000D03*
X77700000Y-69665000D03*
X77700000Y-68395000D03*
D14*
X93350000Y-75000000D03*
X95250000Y-75000000D03*
D11*
X120150000Y-66700000D03*
X120150000Y-63700000D03*
D19*
X103500000Y-60000000D03*
X101500000Y-60000000D03*
D22*
X111950000Y-72510000D03*
X111950000Y-71240000D03*
X111950000Y-69970000D03*
X111950000Y-68700000D03*
X111950000Y-67430000D03*
X111950000Y-66160000D03*
X111950000Y-64890000D03*
X117350000Y-64890000D03*
X117350000Y-66160000D03*
X117350000Y-67430000D03*
X117350000Y-68700000D03*
X117350000Y-69970000D03*
X117350000Y-71240000D03*
X117350000Y-72510000D03*
D14*
X62950000Y-100100000D03*
X61050000Y-100100000D03*
X95250000Y-79500000D03*
X93350000Y-79500000D03*
X94950000Y-59750000D03*
X93050000Y-59750000D03*
X101300000Y-64500000D03*
X103200000Y-64500000D03*
X125250000Y-72500000D03*
X123350000Y-72500000D03*
D12*
X67400000Y-119700000D03*
X64400000Y-119700000D03*
D11*
X82600000Y-133900000D03*
X82600000Y-136900000D03*
D20*
X72600000Y-130150000D03*
X72600000Y-132150000D03*
D11*
X78150000Y-66300000D03*
X78150000Y-63300000D03*
D12*
X134500000Y-97750000D03*
X137500000Y-97750000D03*
X75500000Y-117200000D03*
X72500000Y-117200000D03*
D20*
X88100000Y-128900000D03*
X88100000Y-130900000D03*
X88150000Y-70050000D03*
X88150000Y-68050000D03*
X72650000Y-71300000D03*
X72650000Y-69300000D03*
D19*
X130750000Y-107750000D03*
X132750000Y-107750000D03*
X129500000Y-92250000D03*
X131500000Y-92250000D03*
D11*
X77900000Y-115000000D03*
X77900000Y-118000000D03*
X78350000Y-136900000D03*
X78350000Y-133900000D03*
X82400000Y-63300000D03*
X82400000Y-66300000D03*
D12*
X137500000Y-102000000D03*
X134500000Y-102000000D03*
X103500000Y-77000000D03*
X106500000Y-77000000D03*
D11*
X123500000Y-66700000D03*
X123500000Y-63700000D03*
D23*
X72251020Y-83500000D03*
X76248980Y-83500000D03*
D24*
X121000000Y-87248980D03*
X121000000Y-83251020D03*
X134500000Y-80251020D03*
X134500000Y-84248980D03*
X121000000Y-79998980D03*
X121000000Y-76001020D03*
D25*
X75100000Y-125150000D03*
X75100000Y-126650000D03*
D26*
X75850000Y-123400000D03*
X74350000Y-123400000D03*
D25*
X85600000Y-125150000D03*
X85600000Y-126650000D03*
D26*
X84850000Y-123400000D03*
X86350000Y-123400000D03*
D25*
X85650000Y-75050000D03*
X85650000Y-73550000D03*
D26*
X84900000Y-76800000D03*
X86400000Y-76800000D03*
D25*
X75150000Y-75050000D03*
X75150000Y-73550000D03*
D26*
X75900000Y-76800000D03*
X74400000Y-76800000D03*
X125750000Y-105250000D03*
X127250000Y-105250000D03*
D25*
X124000000Y-104500000D03*
X124000000Y-106000000D03*
D26*
X125750000Y-94750000D03*
X127250000Y-94750000D03*
D25*
X124000000Y-95500000D03*
X124000000Y-94000000D03*
D27*
X61500000Y-119150000D03*
X61500000Y-122050000D03*
D28*
X111050000Y-77500000D03*
X113950000Y-77500000D03*
D27*
X106800000Y-71700000D03*
X106800000Y-68800000D03*
D18*
X137750000Y-79550000D03*
X137750000Y-81450000D03*
X140000000Y-79550000D03*
X140000000Y-81450000D03*
X137750000Y-83050000D03*
X137750000Y-84950000D03*
D27*
X75100000Y-129700000D03*
X75100000Y-132600000D03*
D14*
X121450000Y-72500000D03*
X119550000Y-72500000D03*
D27*
X85600000Y-128450000D03*
X85600000Y-131350000D03*
X75150000Y-71750000D03*
X75150000Y-68850000D03*
D28*
X110800000Y-60250000D03*
X113700000Y-60250000D03*
X129050000Y-94750000D03*
X131950000Y-94750000D03*
D27*
X85650000Y-70500000D03*
X85650000Y-67600000D03*
D28*
X115550000Y-60250000D03*
X118450000Y-60250000D03*
X122450000Y-129250000D03*
X119550000Y-129250000D03*
X130300000Y-105250000D03*
X133200000Y-105250000D03*
D22*
X97550000Y-74310000D03*
X97550000Y-73040000D03*
X97550000Y-71770000D03*
X97550000Y-70500000D03*
X97550000Y-69230000D03*
X97550000Y-67960000D03*
X97550000Y-66690000D03*
X102950000Y-66690000D03*
X102950000Y-67960000D03*
X102950000Y-69230000D03*
X102950000Y-70500000D03*
X102950000Y-71770000D03*
X102950000Y-73040000D03*
X102950000Y-74310000D03*
D29*
X124600000Y-82250000D03*
D30*
X130900000Y-82250000D03*
X130900000Y-84550000D03*
X130900000Y-79950000D03*
D31*
X74250000Y-86850000D03*
D32*
X74250000Y-93150000D03*
X71950000Y-93150000D03*
X76550000Y-93150000D03*
D33*
X65620000Y-102575000D03*
X61420000Y-102575000D03*
X65620000Y-103845000D03*
X61420000Y-103845000D03*
X65620000Y-105115000D03*
X61420000Y-105115000D03*
X65620000Y-106385000D03*
X61420000Y-106385000D03*
X65620000Y-107655000D03*
X61420000Y-107655000D03*
X65620000Y-108925000D03*
X61420000Y-108925000D03*
X65620000Y-110195000D03*
X61420000Y-110195000D03*
X65620000Y-111465000D03*
X61420000Y-111465000D03*
X65620000Y-112735000D03*
X61420000Y-112735000D03*
X65620000Y-114005000D03*
X61420000Y-114005000D03*
X65620000Y-115275000D03*
X61420000Y-115275000D03*
X65620000Y-116545000D03*
X61420000Y-116545000D03*
X65620000Y-83455000D03*
X61420000Y-83455000D03*
X65620000Y-84725000D03*
X61420000Y-84725000D03*
X65620000Y-85995000D03*
X61420000Y-85995000D03*
X65620000Y-87265000D03*
X61420000Y-87265000D03*
X65620000Y-88535000D03*
X61420000Y-88535000D03*
X65620000Y-89805000D03*
X61420000Y-89805000D03*
X65620000Y-91075000D03*
X61420000Y-91075000D03*
X65620000Y-92345000D03*
X61420000Y-92345000D03*
X65620000Y-93615000D03*
X61420000Y-93615000D03*
X65620000Y-94885000D03*
X61420000Y-94885000D03*
X65620000Y-96155000D03*
X61420000Y-96155000D03*
X65620000Y-97425000D03*
X61420000Y-97425000D03*
M02*
