M48
;DRILL file {KiCad 4.0.5+dfsg1-4} date Thu May  3 17:22:13 2018
;FORMAT={3:3/ absolute / metric / suppress leading zeros}
FMAT,2
METRIC,TZ
T1C0.100
%
G90
G05
M71
T1
X85000Y-100500
X86390Y-100470
X86400Y-100900
X86400Y-101400
X92150Y-87400
X92500Y-87750
X92800Y-88450
X92900Y-112900
X93300Y-112700
X93600Y-112000
X94600Y-112600
X105400Y-87300
X105800Y-87400
X106400Y-88000
X106800Y-87300
X107200Y-111540
X107800Y-112400
X108100Y-112900
X108300Y-110900
X113600Y-98400
X113600Y-99000
X113600Y-99530
X114600Y-99530
T0
M30
