M48
;DRILL file {KiCad 4.0.5+dfsg1-4} date Thu May  3 17:22:13 2018
;FORMAT={3:3/ absolute / metric / suppress leading zeros}
FMAT,2
METRIC,TZ
T1C0.100
%
G90
G05
M71
T1
X59900Y-88600
X59900Y-92300
X61000Y-82500
X61000Y-83800
X61500Y-81400
X61500Y-82000
X62600Y-80900
X62900Y-117900
X62900Y-119000
X63000Y-119700
X63200Y-80700
X63400Y-119000
X64000Y-117100
X66000Y-75600
X66000Y-119700
X66800Y-112100
X67000Y-94300
X67100Y-85500
X67325Y-99800
X67500Y-90500
X67500Y-112600
X67700Y-85500
X67700Y-111300
X67800Y-90100
X68000Y-95100
X68100Y-88700
X68100Y-91000
X68300Y-99200
X68800Y-97500
X70300Y-93600
X70300Y-94100
X70700Y-110700
X70800Y-110200
X71300Y-106500
X71300Y-106900
X71900Y-109400
X72200Y-109700
X72700Y-121200
X73200Y-108800
X73200Y-109400
X75000Y-77250
X75000Y-78250
X75500Y-76750
X75500Y-78500
X76000Y-76250
X76000Y-78750
X76200Y-91200
X76200Y-97600
X76250Y-123000
X76400Y-90800
X76500Y-75750
X76500Y-79250
X76500Y-123500
X76600Y-90200
X76750Y-116500
X76750Y-121500
X77000Y-79500
X77000Y-124000
X77100Y-85700
X77250Y-75250
X77250Y-116000
X77250Y-121000
X77500Y-79750
X77500Y-85300
X77500Y-124500
X77750Y-120500
X77900Y-84900
X78000Y-75250
X78000Y-80250
X78000Y-125000
X78200Y-78500
X78250Y-120000
X78500Y-80250
X78700Y-134900
X78750Y-75250
X78750Y-119500
X78750Y-125000
X78800Y-135500
X78900Y-78650
X79000Y-79750
X79300Y-78700
X79500Y-75250
X79500Y-79750
X79500Y-119500
X79500Y-125000
X79600Y-122600
X80000Y-79750
X80100Y-122600
X80250Y-75250
X80250Y-119500
X80250Y-125000
X80500Y-79750
X80500Y-122000
X80750Y-119750
X81000Y-75250
X81000Y-125000
X81250Y-120250
X81750Y-75250
X81750Y-125000
X82000Y-120250
X82100Y-123200
X82250Y-80000
X82500Y-75250
X82500Y-120500
X82500Y-125000
X82600Y-78800
X82750Y-78400
X82750Y-79750
X83000Y-78800
X83250Y-75250
X83250Y-79750
X83250Y-125000
X83400Y-121500
X83500Y-121900
X83600Y-122500
X83750Y-79750
X83750Y-124750
X84000Y-75250
X84250Y-120500
X84250Y-124250
X84500Y-75250
X84750Y-123750
X85000Y-75750
X85000Y-79250
X85000Y-120500
X85250Y-78750
X85250Y-123250
X85500Y-66700
X85500Y-76250
X85750Y-77000
X85750Y-78250
X85750Y-120500
X85750Y-122750
X86100Y-66700
X86250Y-121500
X86500Y-121000
X88200Y-78900
X90000Y-81700
X90053Y-82225
X90500Y-81700
X90587Y-82101
X93900Y-68700
X94000Y-70000
X94000Y-75900
X94300Y-79100
X94500Y-74900
X94750Y-80000
X94900Y-122500
X94900Y-125000
X94900Y-127500
X94900Y-130000
X94900Y-132500
X94900Y-135000
X96600Y-77900
X97000Y-78100
X97600Y-78000
X97900Y-116100
X97900Y-116800
X98200Y-61800
X98500Y-61400
X100000Y-60900
X100100Y-116100
X100100Y-116800
X100200Y-60400
X101000Y-121200
X101300Y-70500
X101300Y-71000
X101800Y-120900
X105000Y-80300
X105000Y-80700
X107900Y-76500
X107900Y-77000
X108000Y-73500
X108000Y-74900
X108300Y-61500
X108500Y-61000
X110300Y-62600
X110600Y-63100
X120500Y-97750
X120750Y-97000
X121000Y-96250
X121000Y-99750
X121250Y-98500
X121250Y-99250
X121250Y-100750
X121250Y-101500
X121250Y-102000
X121250Y-102500
X121250Y-103000
X121250Y-104250
X121500Y-95750
X121750Y-104500
X122000Y-95250
X122000Y-107600
X122200Y-98600
X122200Y-101900
X122200Y-102400
X122300Y-67700
X122400Y-86800
X122500Y-84500
X122500Y-95250
X122500Y-98350
X122500Y-104500
X122600Y-102000
X122800Y-67700
X122900Y-86800
X122900Y-98300
X123100Y-84500
X123500Y-65300
X123500Y-104500
X123750Y-95250
X124000Y-65300
X124250Y-104500
X124500Y-95500
X124800Y-128700
X124800Y-129600
X125000Y-96000
X125000Y-104250
X125200Y-129200
X125400Y-75000
X125500Y-86600
X125500Y-96500
X125500Y-97250
X125500Y-98000
X125500Y-98750
X125500Y-99500
X125500Y-100500
X125500Y-101250
X125500Y-102000
X125500Y-102750
X125500Y-103500
X125750Y-74000
X126100Y-68500
X126100Y-69900
X126100Y-76000
X126500Y-71250
X126500Y-73000
X126500Y-75100
X126800Y-70000
X126930Y-72000
X127500Y-75900
X127800Y-70300
X128200Y-72300
X130000Y-127250
X131600Y-86600
X131900Y-87000
X132500Y-127250
X133000Y-87500
X133800Y-95200
X133800Y-95700
X135000Y-127250
X135700Y-102500
X136287Y-102500
X137500Y-127300
X139500Y-86700
X140000Y-78100
X140000Y-86700
X140000Y-127300
X140500Y-78100
T0
M30
