G04 #@! TF.FileFunction,Copper,L2,Inr,Signal*
%FSLAX46Y46*%
G04 Gerber Fmt 4.6, Leading zero omitted, Abs format (unit mm)*
G04 Created by KiCad (PCBNEW 4.0.6-e0-6349~53~ubuntu16.04.1) date Thu Aug 24 14:07:56 2017*
%MOMM*%
%LPD*%
G01*
G04 APERTURE LIST*
%ADD10C,0.100000*%
%ADD11C,0.250000*%
%ADD12C,0.300000*%
%ADD13R,1.727200X1.727200*%
%ADD14O,1.727200X1.727200*%
%ADD15C,11.000000*%
%ADD16R,2.032000X2.032000*%
%ADD17O,2.032000X2.032000*%
%ADD18C,2.032000*%
%ADD19C,1.524000*%
%ADD20C,1.000000*%
%ADD21C,0.600000*%
%ADD22C,0.500000*%
%ADD23C,1.000000*%
%ADD24C,0.400000*%
%ADD25C,0.254000*%
G04 APERTURE END LIST*
D10*
D11*
X74214286Y-61547619D02*
X74261905Y-61500000D01*
X74357143Y-61452381D01*
X74595239Y-61452381D01*
X74690477Y-61500000D01*
X74738096Y-61547619D01*
X74785715Y-61642857D01*
X74785715Y-61738095D01*
X74738096Y-61880952D01*
X74166667Y-62452381D01*
X74785715Y-62452381D01*
D12*
X111821429Y-138821429D02*
X111892858Y-138750000D01*
X112035715Y-138678571D01*
X112392858Y-138678571D01*
X112535715Y-138750000D01*
X112607144Y-138821429D01*
X112678572Y-138964286D01*
X112678572Y-139107143D01*
X112607144Y-139321429D01*
X111750001Y-140178571D01*
X112678572Y-140178571D01*
X79750000Y-107642857D02*
X79964286Y-107714286D01*
X80035714Y-107785714D01*
X80107143Y-107928571D01*
X80107143Y-108142857D01*
X80035714Y-108285714D01*
X79964286Y-108357143D01*
X79821428Y-108428571D01*
X79250000Y-108428571D01*
X79250000Y-106928571D01*
X79750000Y-106928571D01*
X79892857Y-107000000D01*
X79964286Y-107071429D01*
X80035714Y-107214286D01*
X80035714Y-107357143D01*
X79964286Y-107500000D01*
X79892857Y-107571429D01*
X79750000Y-107642857D01*
X79250000Y-107642857D01*
X81321428Y-108357143D02*
X81178571Y-108428571D01*
X80892857Y-108428571D01*
X80750000Y-108357143D01*
X80678571Y-108214286D01*
X80678571Y-107642857D01*
X80750000Y-107500000D01*
X80892857Y-107428571D01*
X81178571Y-107428571D01*
X81321428Y-107500000D01*
X81392857Y-107642857D01*
X81392857Y-107785714D01*
X80678571Y-107928571D01*
X82035714Y-107428571D02*
X82035714Y-108428571D01*
X82035714Y-107571429D02*
X82107142Y-107500000D01*
X82250000Y-107428571D01*
X82464285Y-107428571D01*
X82607142Y-107500000D01*
X82678571Y-107642857D01*
X82678571Y-108428571D01*
X83392857Y-107428571D02*
X83392857Y-108714286D01*
X83321428Y-108857143D01*
X83178571Y-108928571D01*
X83107143Y-108928571D01*
X83392857Y-106928571D02*
X83321428Y-107000000D01*
X83392857Y-107071429D01*
X83464285Y-107000000D01*
X83392857Y-106928571D01*
X83392857Y-107071429D01*
X84750000Y-108428571D02*
X84750000Y-107642857D01*
X84678571Y-107500000D01*
X84535714Y-107428571D01*
X84250000Y-107428571D01*
X84107143Y-107500000D01*
X84750000Y-108357143D02*
X84607143Y-108428571D01*
X84250000Y-108428571D01*
X84107143Y-108357143D01*
X84035714Y-108214286D01*
X84035714Y-108071429D01*
X84107143Y-107928571D01*
X84250000Y-107857143D01*
X84607143Y-107857143D01*
X84750000Y-107785714D01*
X85464286Y-108428571D02*
X85464286Y-107428571D01*
X85464286Y-107571429D02*
X85535714Y-107500000D01*
X85678572Y-107428571D01*
X85892857Y-107428571D01*
X86035714Y-107500000D01*
X86107143Y-107642857D01*
X86107143Y-108428571D01*
X86107143Y-107642857D02*
X86178572Y-107500000D01*
X86321429Y-107428571D01*
X86535714Y-107428571D01*
X86678572Y-107500000D01*
X86750000Y-107642857D01*
X86750000Y-108428571D01*
X87464286Y-108428571D02*
X87464286Y-107428571D01*
X87464286Y-106928571D02*
X87392857Y-107000000D01*
X87464286Y-107071429D01*
X87535714Y-107000000D01*
X87464286Y-106928571D01*
X87464286Y-107071429D01*
X88178572Y-107428571D02*
X88178572Y-108428571D01*
X88178572Y-107571429D02*
X88250000Y-107500000D01*
X88392858Y-107428571D01*
X88607143Y-107428571D01*
X88750000Y-107500000D01*
X88821429Y-107642857D01*
X88821429Y-108428571D01*
X90678572Y-108428571D02*
X90678572Y-106928571D01*
X91535715Y-108428571D01*
X91535715Y-106928571D01*
X92892858Y-108428571D02*
X92892858Y-107642857D01*
X92821429Y-107500000D01*
X92678572Y-107428571D01*
X92392858Y-107428571D01*
X92250001Y-107500000D01*
X92892858Y-108357143D02*
X92750001Y-108428571D01*
X92392858Y-108428571D01*
X92250001Y-108357143D01*
X92178572Y-108214286D01*
X92178572Y-108071429D01*
X92250001Y-107928571D01*
X92392858Y-107857143D01*
X92750001Y-107857143D01*
X92892858Y-107785714D01*
X94250001Y-107428571D02*
X94250001Y-108428571D01*
X93607144Y-107428571D02*
X93607144Y-108214286D01*
X93678572Y-108357143D01*
X93821430Y-108428571D01*
X94035715Y-108428571D01*
X94178572Y-108357143D01*
X94250001Y-108285714D01*
X95607144Y-108357143D02*
X95464287Y-108428571D01*
X95178573Y-108428571D01*
X95035715Y-108357143D01*
X94964287Y-108285714D01*
X94892858Y-108142857D01*
X94892858Y-107714286D01*
X94964287Y-107571429D01*
X95035715Y-107500000D01*
X95178573Y-107428571D01*
X95464287Y-107428571D01*
X95607144Y-107500000D01*
X96250001Y-108428571D02*
X96250001Y-106928571D01*
X96392858Y-107857143D02*
X96821429Y-108428571D01*
X96821429Y-107428571D02*
X96250001Y-108000000D01*
X98464287Y-107428571D02*
X98750001Y-108428571D01*
X99035715Y-107714286D01*
X99321430Y-108428571D01*
X99607144Y-107428571D01*
X100821430Y-108428571D02*
X100821430Y-107642857D01*
X100750001Y-107500000D01*
X100607144Y-107428571D01*
X100321430Y-107428571D01*
X100178573Y-107500000D01*
X100821430Y-108357143D02*
X100678573Y-108428571D01*
X100321430Y-108428571D01*
X100178573Y-108357143D01*
X100107144Y-108214286D01*
X100107144Y-108071429D01*
X100178573Y-107928571D01*
X100321430Y-107857143D01*
X100678573Y-107857143D01*
X100821430Y-107785714D01*
X101464287Y-108357143D02*
X101607144Y-108428571D01*
X101892859Y-108428571D01*
X102035716Y-108357143D01*
X102107144Y-108214286D01*
X102107144Y-108142857D01*
X102035716Y-108000000D01*
X101892859Y-107928571D01*
X101678573Y-107928571D01*
X101535716Y-107857143D01*
X101464287Y-107714286D01*
X101464287Y-107642857D01*
X101535716Y-107500000D01*
X101678573Y-107428571D01*
X101892859Y-107428571D01*
X102035716Y-107500000D01*
X103892859Y-108428571D02*
X103892859Y-106928571D01*
X104535716Y-108428571D02*
X104535716Y-107642857D01*
X104464287Y-107500000D01*
X104321430Y-107428571D01*
X104107145Y-107428571D01*
X103964287Y-107500000D01*
X103892859Y-107571429D01*
X105821430Y-108357143D02*
X105678573Y-108428571D01*
X105392859Y-108428571D01*
X105250002Y-108357143D01*
X105178573Y-108214286D01*
X105178573Y-107642857D01*
X105250002Y-107500000D01*
X105392859Y-107428571D01*
X105678573Y-107428571D01*
X105821430Y-107500000D01*
X105892859Y-107642857D01*
X105892859Y-107785714D01*
X105178573Y-107928571D01*
X106535716Y-108428571D02*
X106535716Y-107428571D01*
X106535716Y-107714286D02*
X106607144Y-107571429D01*
X106678573Y-107500000D01*
X106821430Y-107428571D01*
X106964287Y-107428571D01*
X108035715Y-108357143D02*
X107892858Y-108428571D01*
X107607144Y-108428571D01*
X107464287Y-108357143D01*
X107392858Y-108214286D01*
X107392858Y-107642857D01*
X107464287Y-107500000D01*
X107607144Y-107428571D01*
X107892858Y-107428571D01*
X108035715Y-107500000D01*
X108107144Y-107642857D01*
X108107144Y-107785714D01*
X107392858Y-107928571D01*
X108750001Y-108285714D02*
X108821429Y-108357143D01*
X108750001Y-108428571D01*
X108678572Y-108357143D01*
X108750001Y-108285714D01*
X108750001Y-108428571D01*
X108750001Y-107857143D02*
X108678572Y-107000000D01*
X108750001Y-106928571D01*
X108821429Y-107000000D01*
X108750001Y-107857143D01*
X108750001Y-106928571D01*
D13*
X78040000Y-66960000D03*
D14*
X78040000Y-69500000D03*
X75500000Y-66960000D03*
X75500000Y-69500000D03*
X72960000Y-66960000D03*
X72960000Y-69500000D03*
D15*
X65000000Y-125000000D03*
X65000000Y-65000000D03*
X135000000Y-65000000D03*
X135000000Y-135000000D03*
D16*
X136000000Y-74000000D03*
D17*
X138540000Y-74000000D03*
D18*
X125250000Y-117500000D03*
X125250000Y-127660000D03*
X125250000Y-137820000D03*
X104930000Y-117500000D03*
X104930000Y-125120000D03*
X104930000Y-130200000D03*
D19*
X99140000Y-120500000D03*
X96600000Y-120500000D03*
X94060000Y-120500000D03*
X88980000Y-120500000D03*
X86440000Y-120500000D03*
X83900000Y-120500000D03*
X81360000Y-120500000D03*
X120500000Y-93090000D03*
X120500000Y-95630000D03*
X120500000Y-98170000D03*
X120500000Y-103250000D03*
X120500000Y-105790000D03*
X120500000Y-108330000D03*
X120500000Y-110870000D03*
D20*
X64250000Y-116545000D03*
X62980000Y-116545000D03*
X64250000Y-115275000D03*
X62980000Y-115275000D03*
X64250000Y-114005000D03*
X62980000Y-114005000D03*
X64250000Y-112735000D03*
X62980000Y-112735000D03*
X64250000Y-111465000D03*
X62980000Y-111465000D03*
X64250000Y-110195000D03*
X62980000Y-110195000D03*
X64250000Y-108925000D03*
X62980000Y-108925000D03*
X64250000Y-107655000D03*
X62980000Y-107655000D03*
X64250000Y-106385000D03*
X62980000Y-106385000D03*
X64250000Y-105115000D03*
X62980000Y-105115000D03*
X64250000Y-103845000D03*
X62980000Y-103845000D03*
X64250000Y-102575000D03*
X62980000Y-102575000D03*
X83455000Y-64250000D03*
X83455000Y-62980000D03*
X84725000Y-64250000D03*
X84725000Y-62980000D03*
X85995000Y-64250000D03*
X85995000Y-62980000D03*
X87265000Y-64250000D03*
X87265000Y-62980000D03*
X88535000Y-64250000D03*
X88535000Y-62980000D03*
X89805000Y-64250000D03*
X89805000Y-62980000D03*
X91075000Y-64250000D03*
X91075000Y-62980000D03*
X92345000Y-64250000D03*
X92345000Y-62980000D03*
X93615000Y-64250000D03*
X93615000Y-62980000D03*
X94885000Y-64250000D03*
X94885000Y-62980000D03*
X96155000Y-64250000D03*
X96155000Y-62980000D03*
X97425000Y-64250000D03*
X97425000Y-62980000D03*
X135750000Y-83455000D03*
X137020000Y-83455000D03*
X135750000Y-84725000D03*
X137020000Y-84725000D03*
X135750000Y-85995000D03*
X137020000Y-85995000D03*
X135750000Y-87265000D03*
X137020000Y-87265000D03*
X135750000Y-88535000D03*
X137020000Y-88535000D03*
X135750000Y-89805000D03*
X137020000Y-89805000D03*
X135750000Y-91075000D03*
X137020000Y-91075000D03*
X135750000Y-92345000D03*
X137020000Y-92345000D03*
X135750000Y-93615000D03*
X137020000Y-93615000D03*
X135750000Y-94885000D03*
X137020000Y-94885000D03*
X135750000Y-96155000D03*
X137020000Y-96155000D03*
X135750000Y-97425000D03*
X137020000Y-97425000D03*
X64250000Y-97425000D03*
X62980000Y-97425000D03*
X64250000Y-96155000D03*
X62980000Y-96155000D03*
X64250000Y-94885000D03*
X62980000Y-94885000D03*
X64250000Y-93615000D03*
X62980000Y-93615000D03*
X64250000Y-92345000D03*
X62980000Y-92345000D03*
X64250000Y-91075000D03*
X62980000Y-91075000D03*
X64250000Y-89805000D03*
X62980000Y-89805000D03*
X64250000Y-88535000D03*
X62980000Y-88535000D03*
X64250000Y-87265000D03*
X62980000Y-87265000D03*
X64250000Y-85995000D03*
X62980000Y-85995000D03*
X64250000Y-84725000D03*
X62980000Y-84725000D03*
X64250000Y-83455000D03*
X62980000Y-83455000D03*
X102575000Y-64250000D03*
X102575000Y-62980000D03*
X103845000Y-64250000D03*
X103845000Y-62980000D03*
X105115000Y-64250000D03*
X105115000Y-62980000D03*
X106385000Y-64250000D03*
X106385000Y-62980000D03*
X107655000Y-64250000D03*
X107655000Y-62980000D03*
X108925000Y-64250000D03*
X108925000Y-62980000D03*
X110195000Y-64250000D03*
X110195000Y-62980000D03*
X111465000Y-64250000D03*
X111465000Y-62980000D03*
X112735000Y-64250000D03*
X112735000Y-62980000D03*
X114005000Y-64250000D03*
X114005000Y-62980000D03*
X115275000Y-64250000D03*
X115275000Y-62980000D03*
X116545000Y-64250000D03*
X116545000Y-62980000D03*
X135750000Y-102575000D03*
X137020000Y-102575000D03*
X135750000Y-103845000D03*
X137020000Y-103845000D03*
X135750000Y-105115000D03*
X137020000Y-105115000D03*
X135750000Y-106385000D03*
X137020000Y-106385000D03*
X135750000Y-107655000D03*
X137020000Y-107655000D03*
X135750000Y-108925000D03*
X137020000Y-108925000D03*
X135750000Y-110195000D03*
X137020000Y-110195000D03*
X135750000Y-111465000D03*
X137020000Y-111465000D03*
X135750000Y-112735000D03*
X137020000Y-112735000D03*
X135750000Y-114005000D03*
X137020000Y-114005000D03*
X135750000Y-115275000D03*
X137020000Y-115275000D03*
X135750000Y-116545000D03*
X137020000Y-116545000D03*
D19*
X97250000Y-117250000D03*
X94710000Y-117250000D03*
X92170000Y-117250000D03*
D21*
X84000000Y-82879984D03*
D20*
X106700000Y-60700000D03*
X112400000Y-60700000D03*
X73800000Y-107000000D03*
X73800000Y-108300000D03*
X85800000Y-67300000D03*
X84700000Y-68400000D03*
X82000000Y-65700000D03*
X132000000Y-78600000D03*
X130700000Y-78600000D03*
D21*
X107700000Y-65500000D03*
X80000000Y-115000000D03*
X87500000Y-115000000D03*
X128500000Y-102200000D03*
X68350000Y-108500000D03*
X68350000Y-106600000D03*
X131400000Y-93700000D03*
X94200000Y-68600000D03*
X92300000Y-68600000D03*
X74500000Y-132500000D03*
X82500000Y-128500000D03*
X74750000Y-140000000D03*
X81000000Y-140000000D03*
X82000000Y-133750000D03*
X99464408Y-88293269D03*
X100000000Y-88250019D03*
X129750000Y-97000000D03*
X99000000Y-63250000D03*
X99000000Y-64000000D03*
X99000000Y-64750000D03*
X100669988Y-67250242D03*
X100250000Y-67750000D03*
X109500000Y-79259990D03*
X72750000Y-122750000D03*
X98740009Y-100818589D03*
X104952821Y-89013496D03*
X114500000Y-76000000D03*
X75250000Y-88250000D03*
X104374529Y-78295019D03*
X77000000Y-140000000D03*
X75750000Y-140000000D03*
X68251624Y-139779990D03*
X68250000Y-132500000D03*
D20*
X126250000Y-102500000D03*
D21*
X108750000Y-68000000D03*
X117957991Y-81740010D03*
X68000000Y-91500000D03*
X71750000Y-127750000D03*
X78000000Y-120250000D03*
X103750002Y-85000000D03*
X84911886Y-96080943D03*
X78259990Y-101154990D03*
X90250000Y-91250000D03*
X82560857Y-101097724D03*
X89979697Y-105520303D03*
X86250000Y-110250000D03*
X85780011Y-101285846D03*
X74000010Y-111000000D03*
X89500000Y-101085969D03*
X75000000Y-111000000D03*
X90000000Y-100250000D03*
X76000000Y-111000000D03*
X91000000Y-100999970D03*
X77444209Y-111001412D03*
X78233968Y-110981416D03*
X92500000Y-100499996D03*
X93990010Y-100469018D03*
X89750000Y-110200076D03*
X94909047Y-100455906D03*
X90750000Y-110200076D03*
X91750000Y-110200076D03*
X95750000Y-100500002D03*
X96030681Y-101528016D03*
X92750000Y-110200076D03*
X99550006Y-100746853D03*
X86249996Y-111050011D03*
X100750000Y-100750000D03*
X88079994Y-111249990D03*
X81500000Y-111250000D03*
X102000000Y-100750004D03*
X79990010Y-111129428D03*
X103500006Y-100750000D03*
X89474147Y-91700000D03*
X81458094Y-100540083D03*
X91250000Y-90750000D03*
X84250000Y-101000000D03*
X92600000Y-90200000D03*
X88014136Y-100421767D03*
X61250000Y-78500000D03*
X62500000Y-78000000D03*
X100500000Y-79250000D03*
X68400000Y-86200000D03*
X89729968Y-79952549D03*
D20*
X96750000Y-79250000D03*
X138750000Y-82250000D03*
X94500000Y-79250000D03*
D21*
X99750000Y-75250000D03*
X97282252Y-95913357D03*
X69749996Y-132500000D03*
X84692009Y-80269709D03*
X79121073Y-98759990D03*
X70457305Y-98759990D03*
X79249996Y-74250000D03*
X85000000Y-85900012D03*
X84000000Y-100250000D03*
X79250000Y-88000000D03*
X92320757Y-74571093D03*
X94345672Y-85573317D03*
X78250000Y-100250000D03*
X119750000Y-87000000D03*
X91199523Y-79811136D03*
X118500000Y-85750000D03*
X92500000Y-104000000D03*
X89750000Y-67750000D03*
X93369568Y-81500000D03*
X93058623Y-104558623D03*
X128750000Y-84782106D03*
X62800000Y-76400000D03*
X108750000Y-65750000D03*
X89750000Y-66500000D03*
X100000000Y-70250000D03*
X96449824Y-86118813D03*
X88000000Y-86750000D03*
X64750000Y-72500000D03*
X125500000Y-94750000D03*
X97500000Y-88250000D03*
X133250000Y-79250000D03*
X65500000Y-78250000D03*
X133750000Y-77500000D03*
X97000000Y-74500000D03*
X110250000Y-87750000D03*
X131750000Y-73750000D03*
X66500000Y-73250000D03*
X129940011Y-101314854D03*
X96750000Y-102500000D03*
X97125000Y-67000000D03*
X67180000Y-102805000D03*
X119362738Y-78759990D03*
X119500000Y-68500000D03*
X121826551Y-78759990D03*
D20*
X126000000Y-98250000D03*
X97500000Y-122750000D03*
D21*
X98662263Y-95757459D03*
X98523965Y-90900010D03*
X93419567Y-80229786D03*
X117509990Y-103750000D03*
X115750000Y-82000000D03*
X79250000Y-89000000D03*
X72750000Y-114500000D03*
X79065746Y-90006865D03*
X73750000Y-115750000D03*
X79065746Y-91216260D03*
X73717542Y-99759990D03*
X104700416Y-84065009D03*
X100024490Y-84629968D03*
X97600000Y-82800000D03*
X94059579Y-83000000D03*
X93250000Y-69500000D03*
X89750000Y-84000000D03*
X89764790Y-88000000D03*
X129500000Y-95750000D03*
X69750000Y-104000000D03*
X73901140Y-86750000D03*
X79065746Y-92178802D03*
X75000000Y-115500000D03*
X89027084Y-82783591D03*
X111200000Y-108600004D03*
X82500000Y-114000000D03*
X89320289Y-106070283D03*
X82749990Y-110986276D03*
X94899087Y-74929078D03*
X117000000Y-77500000D03*
X93911089Y-75316745D03*
X60749990Y-76250000D03*
X88153053Y-74629968D03*
X123250000Y-86999969D03*
X114750000Y-70250000D03*
X87500000Y-70000000D03*
X69200000Y-81600000D03*
X78250000Y-85000000D03*
X85440001Y-80015491D03*
X86250000Y-104000000D03*
X77538898Y-129729350D03*
X78250000Y-132750000D03*
X79500000Y-132750000D03*
X74250000Y-128000000D03*
X77000000Y-132500000D03*
X87853161Y-81674205D03*
X72500000Y-132500000D03*
X75750000Y-132500000D03*
X71000000Y-132500000D03*
X120750000Y-86750010D03*
X95291057Y-75655820D03*
X95578916Y-95326641D03*
X129500000Y-98000000D03*
X67000000Y-94750000D03*
X98000000Y-70250000D03*
X103750000Y-70250000D03*
X98226733Y-86226733D03*
X92000000Y-87639024D03*
X91900598Y-101037367D03*
X92400000Y-70000000D03*
X69600000Y-101000000D03*
X121250000Y-70250000D03*
X94200000Y-70270011D03*
X109500000Y-87500000D03*
X93189085Y-87735619D03*
X102578469Y-70128770D03*
X127750000Y-69000000D03*
D20*
X114138692Y-100250000D03*
D22*
X109075736Y-79259990D02*
X109500000Y-79259990D01*
X105339500Y-79259990D02*
X109075736Y-79259990D01*
X104374529Y-78295019D02*
X105339500Y-79259990D01*
X137534999Y-86765001D02*
X137534999Y-86509999D01*
X137534999Y-86509999D02*
X137020000Y-85995000D01*
X137020000Y-87265000D02*
X137519999Y-86765001D01*
X137519999Y-86765001D02*
X137534999Y-86765001D01*
X137020000Y-87265000D02*
X137065000Y-87265000D01*
X137105000Y-85995000D02*
X137900000Y-85200000D01*
X137020000Y-85995000D02*
X137105000Y-85995000D01*
X78040000Y-69500000D02*
X76640000Y-68100000D01*
X76640000Y-68100000D02*
X76600000Y-68100000D01*
X87250000Y-62257894D02*
X87250000Y-61000000D01*
X87265000Y-62980000D02*
X87265000Y-62272894D01*
X87265000Y-62272894D02*
X87250000Y-62257894D01*
X62799999Y-77700001D02*
X62500000Y-78000000D01*
X89060559Y-76059989D02*
X64440010Y-76059990D01*
X92919033Y-76001105D02*
X89119443Y-76001105D01*
X100500000Y-79250000D02*
X99475822Y-79250000D01*
X99475822Y-79250000D02*
X96621643Y-76395821D01*
X89119443Y-76001105D02*
X89060559Y-76059989D01*
X96621643Y-76395821D02*
X93313749Y-76395821D01*
X93313749Y-76395821D02*
X92919033Y-76001105D01*
X64440010Y-76059990D02*
X62799999Y-77700001D01*
X68699999Y-85900001D02*
X68400000Y-86200000D01*
X72400001Y-82199999D02*
X68699999Y-85900001D01*
X78845601Y-82199999D02*
X72400001Y-82199999D01*
X87113160Y-82000000D02*
X79045600Y-82000000D01*
X87613160Y-82500000D02*
X87113160Y-82000000D01*
X88250000Y-82500000D02*
X87613160Y-82500000D01*
X89729968Y-81020032D02*
X88250000Y-82500000D01*
X79045600Y-82000000D02*
X78845601Y-82199999D01*
X89729968Y-79952549D02*
X89729968Y-81020032D01*
D23*
X96750000Y-79250000D02*
X95525843Y-78025843D01*
X95525843Y-78025843D02*
X92638573Y-78025843D01*
X92638573Y-78025843D02*
X92243857Y-77631127D01*
X92243857Y-77631127D02*
X89794619Y-77631127D01*
X89794619Y-77631127D02*
X89675746Y-77750000D01*
X89675746Y-77750000D02*
X69050000Y-77750000D01*
X69050000Y-77750000D02*
X66000000Y-80800000D01*
X66000000Y-80800000D02*
X66000000Y-86222106D01*
X66000000Y-86222106D02*
X64957106Y-87265000D01*
X64957106Y-87265000D02*
X64250000Y-87265000D01*
X64250000Y-92345000D02*
X64957106Y-92345000D01*
X89306871Y-79000000D02*
X89344324Y-78962547D01*
X64957106Y-92345000D02*
X67250000Y-90052106D01*
X67250000Y-90052106D02*
X67250000Y-81350000D01*
X93792894Y-79250000D02*
X94500000Y-79250000D01*
X67250000Y-81350000D02*
X69600000Y-79000000D01*
X69600000Y-79000000D02*
X89306871Y-79000000D01*
X89344324Y-78962547D02*
X90582910Y-78962547D01*
X90582910Y-78962547D02*
X90724322Y-78821135D01*
X90724322Y-78821135D02*
X91750936Y-78821135D01*
X91750936Y-78821135D02*
X92169586Y-79239785D01*
X92169586Y-79239785D02*
X93782679Y-79239785D01*
X93782679Y-79239785D02*
X93792894Y-79250000D01*
X116500000Y-80750000D02*
X137250000Y-80750000D01*
X137250000Y-80750000D02*
X138750000Y-82250000D01*
X116250000Y-81000000D02*
X116500000Y-80750000D01*
X96250000Y-81000000D02*
X116250000Y-81000000D01*
X94500000Y-79250000D02*
X96250000Y-81000000D01*
D22*
X83750000Y-97250000D02*
X95945609Y-97250000D01*
X95945609Y-97250000D02*
X97282252Y-95913357D01*
X82655000Y-96155000D02*
X83750000Y-97250000D01*
X64250000Y-96155000D02*
X82655000Y-96155000D01*
X135750000Y-97425000D02*
X132972999Y-100202001D01*
X79545337Y-98759990D02*
X79121073Y-98759990D01*
X116759990Y-98759990D02*
X79545337Y-98759990D01*
X132972999Y-100202001D02*
X118202001Y-100202001D01*
X118202001Y-100202001D02*
X116759990Y-98759990D01*
X70457305Y-98759990D02*
X79121073Y-98759990D01*
X64250000Y-102575000D02*
X64250000Y-101867894D01*
X67357904Y-98759990D02*
X70033041Y-98759990D01*
X70033041Y-98759990D02*
X70457305Y-98759990D01*
X64250000Y-101867894D02*
X67357904Y-98759990D01*
X83700001Y-99950001D02*
X84000000Y-100250000D01*
X83250000Y-99500000D02*
X83700001Y-99950001D01*
X76500000Y-100500000D02*
X77500000Y-99500000D01*
X72500000Y-100500000D02*
X76500000Y-100500000D01*
X71500000Y-99500000D02*
X72500000Y-100500000D01*
X67750000Y-99500000D02*
X71500000Y-99500000D01*
X65250000Y-104822106D02*
X65250000Y-102000000D01*
X64250000Y-105115000D02*
X64957106Y-105115000D01*
X77500000Y-99500000D02*
X83250000Y-99500000D01*
X65250000Y-102000000D02*
X67750000Y-99500000D01*
X64957106Y-105115000D02*
X65250000Y-104822106D01*
X82500000Y-84750000D02*
X79549999Y-87700001D01*
X94345672Y-85573317D02*
X93522355Y-84750000D01*
X79549999Y-87700001D02*
X79250000Y-88000000D01*
X93522355Y-84750000D02*
X82500000Y-84750000D01*
X94645671Y-85273318D02*
X94345672Y-85573317D01*
X98499140Y-85273318D02*
X94645671Y-85273318D01*
X99285811Y-86059989D02*
X98499140Y-85273318D01*
X101285811Y-86059989D02*
X99285811Y-86059989D01*
X101975822Y-86750000D02*
X101285811Y-86059989D01*
X64250000Y-106385000D02*
X64957106Y-106385000D01*
X77825736Y-100250000D02*
X78250000Y-100250000D01*
X64957106Y-106385000D02*
X66250000Y-105092106D01*
X68500000Y-100250000D02*
X70250000Y-100250000D01*
X66250000Y-102500000D02*
X68500000Y-100250000D01*
X70250000Y-100250000D02*
X71250000Y-101250000D01*
X66250000Y-105092106D02*
X66250000Y-102500000D01*
X71250000Y-101250000D02*
X76825736Y-101250000D01*
X76825736Y-101250000D02*
X77825736Y-100250000D01*
X133865000Y-93615000D02*
X135750000Y-93615000D01*
X128250000Y-88000000D02*
X133865000Y-93615000D01*
X120750000Y-88000000D02*
X128250000Y-88000000D01*
X119500000Y-86750000D02*
X120750000Y-88000000D01*
X119500000Y-86750000D02*
X101975822Y-86750000D01*
X119750000Y-87000000D02*
X119500000Y-86750000D01*
X94325736Y-84500000D02*
X91199523Y-81373787D01*
X99571622Y-85369978D02*
X98701644Y-84500000D01*
X101571622Y-85369978D02*
X99571622Y-85369978D01*
X118500000Y-85750000D02*
X101951644Y-85750000D01*
X91199523Y-81373787D02*
X91199523Y-80235400D01*
X91199523Y-80235400D02*
X91199523Y-79811136D01*
X98701644Y-84500000D02*
X94325736Y-84500000D01*
X101951644Y-85750000D02*
X101571622Y-85369978D01*
X118500000Y-85750000D02*
X127750000Y-85750000D01*
X134345000Y-92345000D02*
X135750000Y-92345000D01*
X127750000Y-85750000D02*
X134345000Y-92345000D01*
X92500000Y-104000000D02*
X87500000Y-104000000D01*
X86750000Y-104750000D02*
X69000000Y-104750000D01*
X69000000Y-104750000D02*
X66095000Y-107655000D01*
X87500000Y-104000000D02*
X86750000Y-104750000D01*
X66095000Y-107655000D02*
X64250000Y-107655000D01*
X93058623Y-104558623D02*
X93036579Y-104558623D01*
X73000000Y-105500000D02*
X69000000Y-109500000D01*
X69000000Y-109500000D02*
X65500000Y-109500000D01*
X93036579Y-104558623D02*
X92855201Y-104740001D01*
X92855201Y-104740001D02*
X91759999Y-104740001D01*
X88000000Y-104750000D02*
X87250000Y-105500000D01*
X65500000Y-109500000D02*
X65000000Y-109000000D01*
X64325000Y-109000000D02*
X64250000Y-108925000D01*
X91759999Y-104740001D02*
X91750000Y-104750000D01*
X91750000Y-104750000D02*
X88000000Y-104750000D01*
X87250000Y-105500000D02*
X73000000Y-105500000D01*
X65000000Y-109000000D02*
X64325000Y-109000000D01*
X127217894Y-83250000D02*
X103250000Y-83250000D01*
X102750000Y-83750000D02*
X96043832Y-83750000D01*
X93793832Y-81500000D02*
X93369568Y-81500000D01*
X96043832Y-83750000D02*
X93793832Y-81500000D01*
X103250000Y-83250000D02*
X102750000Y-83750000D01*
X128750000Y-84782106D02*
X127217894Y-83250000D01*
X128750000Y-84782106D02*
X135042894Y-91075000D01*
X135042894Y-91075000D02*
X135750000Y-91075000D01*
D24*
X108750000Y-65750000D02*
X108250000Y-66250000D01*
X108250000Y-66250000D02*
X90000000Y-66250000D01*
X90000000Y-66250000D02*
X89750000Y-66500000D01*
D22*
X94081419Y-86355597D02*
X95788776Y-86355597D01*
X88000000Y-86750000D02*
X88690011Y-86059989D01*
X88690011Y-86059989D02*
X93785811Y-86059989D01*
X93785811Y-86059989D02*
X94081419Y-86355597D01*
X96025560Y-86118813D02*
X96449824Y-86118813D01*
X95788776Y-86355597D02*
X96025560Y-86118813D01*
X64750000Y-72500000D02*
X65049999Y-72200001D01*
X65049999Y-72200001D02*
X82562105Y-72200001D01*
X82562105Y-72200001D02*
X89805000Y-64957106D01*
X89805000Y-64957106D02*
X89805000Y-64250000D01*
X98535811Y-87690011D02*
X99035811Y-87690011D01*
X99035811Y-87690011D02*
X99215823Y-87509999D01*
X97500000Y-88250000D02*
X97975822Y-88250000D01*
X107500000Y-88250000D02*
X108250000Y-89000000D01*
X97975822Y-88250000D02*
X98535811Y-87690011D01*
X101095183Y-88250000D02*
X107500000Y-88250000D01*
X99215823Y-87509999D02*
X100355182Y-87509999D01*
X119250000Y-89000000D02*
X125000000Y-94750000D01*
X108250000Y-89000000D02*
X119250000Y-89000000D01*
X125075736Y-94750000D02*
X125500000Y-94750000D01*
X125000000Y-94750000D02*
X125075736Y-94750000D01*
X100355182Y-87509999D02*
X101095183Y-88250000D01*
X89405254Y-76691116D02*
X92633222Y-76691116D01*
X89346370Y-76750000D02*
X89405254Y-76691116D01*
X115450001Y-79549999D02*
X132950001Y-79549999D01*
X65500000Y-78250000D02*
X67000000Y-76750000D01*
X92633222Y-76691116D02*
X93027938Y-77085832D01*
X99250000Y-80000000D02*
X115000000Y-80000000D01*
X132950001Y-79549999D02*
X133250000Y-79250000D01*
X67000000Y-76750000D02*
X89346370Y-76750000D01*
X93027938Y-77085832D02*
X96335832Y-77085832D01*
X96335832Y-77085832D02*
X99250000Y-80000000D01*
X115000000Y-80000000D02*
X115450001Y-79549999D01*
X130750000Y-74500000D02*
X133750000Y-77500000D01*
X125750000Y-74500000D02*
X130750000Y-74500000D01*
X97000000Y-74500000D02*
X125750000Y-74500000D01*
X110250000Y-87750000D02*
X119250000Y-87750000D01*
X119250000Y-87750000D02*
X125509998Y-94009998D01*
X125509998Y-94009998D02*
X125855202Y-94009998D01*
X125855202Y-94009998D02*
X126730204Y-94885000D01*
X126730204Y-94885000D02*
X135042894Y-94885000D01*
X135042894Y-94885000D02*
X135750000Y-94885000D01*
X131325736Y-73750000D02*
X131750000Y-73750000D01*
X66500000Y-73250000D02*
X130825736Y-73250000D01*
X130825736Y-73250000D02*
X131325736Y-73750000D01*
X129515747Y-101314854D02*
X129940011Y-101314854D01*
X96750000Y-103250000D02*
X104250000Y-103250000D01*
X106185146Y-101314854D02*
X129515747Y-101314854D01*
X104250000Y-103250000D02*
X106185146Y-101314854D01*
X96750000Y-102500000D02*
X96750000Y-103250000D01*
X96750000Y-103250000D02*
X67625000Y-103250000D01*
X67625000Y-103250000D02*
X67180000Y-102805000D01*
X126000000Y-98250000D02*
X125422001Y-97672001D01*
X125422001Y-97672001D02*
X123327999Y-97672001D01*
X123327999Y-97672001D02*
X121500000Y-99500000D01*
X121500000Y-99500000D02*
X119000000Y-99500000D01*
X119000000Y-99500000D02*
X117172001Y-97672001D01*
X117172001Y-97672001D02*
X100576805Y-97672001D01*
X100576805Y-97672001D02*
X98662263Y-95757459D01*
X115750000Y-82000000D02*
X95500000Y-82000000D01*
X95500000Y-82000000D02*
X94029785Y-80529785D01*
X94029785Y-80529785D02*
X93719566Y-80529785D01*
X93719566Y-80529785D02*
X93419567Y-80229786D01*
X129500000Y-95750000D02*
X125000000Y-95750000D01*
X125000000Y-95750000D02*
X119250000Y-90000000D01*
X119250000Y-90000000D02*
X98154798Y-90000000D01*
X98154798Y-90000000D02*
X96654798Y-88500000D01*
X96654798Y-88500000D02*
X90264790Y-88500000D01*
X90264790Y-88500000D02*
X90064789Y-88299999D01*
X90064789Y-88299999D02*
X89764790Y-88000000D01*
X95199086Y-74629079D02*
X94899087Y-74929078D01*
X95873339Y-74629079D02*
X95199086Y-74629079D01*
X117000000Y-77500000D02*
X98744260Y-77500000D01*
X98744260Y-77500000D02*
X95873339Y-74629079D01*
X88833632Y-75311094D02*
X93481174Y-75311094D01*
X93486825Y-75316745D02*
X93911089Y-75316745D01*
X88774748Y-75369978D02*
X88833632Y-75311094D01*
X60749990Y-76250000D02*
X61630012Y-75369978D01*
X61630012Y-75369978D02*
X88774748Y-75369978D01*
X93481174Y-75311094D02*
X93486825Y-75316745D01*
X96250000Y-67500000D02*
X97509999Y-68759999D01*
X97509999Y-68759999D02*
X104485821Y-68759999D01*
X91250000Y-67500000D02*
X96250000Y-67500000D01*
X89990001Y-68759999D02*
X91250000Y-67500000D01*
X88740001Y-68759999D02*
X89990001Y-68759999D01*
X114450001Y-69950001D02*
X114750000Y-70250000D01*
X113500000Y-69000000D02*
X114450001Y-69950001D01*
X104725822Y-69000000D02*
X113500000Y-69000000D01*
X104485821Y-68759999D02*
X104725822Y-69000000D01*
X87500000Y-70000000D02*
X88740001Y-68759999D01*
X129500000Y-98000000D02*
X128250000Y-96750000D01*
X128250000Y-96750000D02*
X124000000Y-96750000D01*
X124000000Y-96750000D02*
X121677999Y-94427999D01*
X121677999Y-94427999D02*
X118572001Y-94427999D01*
X96405557Y-94500000D02*
X95878915Y-95026642D01*
X118572001Y-94427999D02*
X118500000Y-94500000D01*
X118500000Y-94500000D02*
X96405557Y-94500000D01*
X95878915Y-95026642D02*
X95578916Y-95326641D01*
X95002275Y-94750000D02*
X95278917Y-95026642D01*
X95278917Y-95026642D02*
X95578916Y-95326641D01*
X67000000Y-94750000D02*
X95002275Y-94750000D01*
X103000000Y-71000000D02*
X98750000Y-71000000D01*
X98750000Y-71000000D02*
X98000000Y-70250000D01*
X103450001Y-70549999D02*
X103000000Y-71000000D01*
X103750000Y-70250000D02*
X103450001Y-70549999D01*
X97802469Y-86226733D02*
X98226733Y-86226733D01*
X93795608Y-87045608D02*
X96478570Y-87045608D01*
X97219213Y-86809989D02*
X97802469Y-86226733D01*
X96714189Y-86809989D02*
X97219213Y-86809989D01*
X93500000Y-86750000D02*
X93795608Y-87045608D01*
X92000000Y-87639024D02*
X92889024Y-86750000D01*
X92889024Y-86750000D02*
X93500000Y-86750000D01*
X96478570Y-87045608D02*
X96714189Y-86809989D01*
X121250000Y-70250000D02*
X119750000Y-71750000D01*
X119750000Y-71750000D02*
X94150000Y-71750000D01*
X94150000Y-71750000D02*
X92699999Y-70299999D01*
X92699999Y-70299999D02*
X92400000Y-70000000D01*
X91262230Y-102099999D02*
X91900598Y-101461631D01*
X91900598Y-101461631D02*
X91900598Y-101037367D01*
X70699999Y-102099999D02*
X91262230Y-102099999D01*
X69600000Y-101000000D02*
X70699999Y-102099999D01*
X94499999Y-69970012D02*
X94200000Y-70270011D01*
X102578469Y-70128770D02*
X101949699Y-69500000D01*
X94970011Y-69500000D02*
X94499999Y-69970012D01*
X101949699Y-69500000D02*
X94970011Y-69500000D01*
X101750000Y-87500000D02*
X109500000Y-87500000D01*
X101000000Y-86750000D02*
X101750000Y-87500000D01*
X98750000Y-86750000D02*
X101000000Y-86750000D01*
X98500000Y-87000000D02*
X98750000Y-86750000D01*
X98250000Y-87000000D02*
X98500000Y-87000000D01*
X97750000Y-87500000D02*
X98250000Y-87000000D01*
X97000000Y-87500000D02*
X97750000Y-87500000D01*
X96764381Y-87735619D02*
X97000000Y-87500000D01*
X93189085Y-87735619D02*
X96764381Y-87735619D01*
X121250000Y-69000000D02*
X119250000Y-71000000D01*
X102878468Y-69828771D02*
X102578469Y-70128770D01*
X119250000Y-71000000D02*
X114070710Y-71000000D01*
X127750000Y-69000000D02*
X121250000Y-69000000D01*
X104250000Y-69500000D02*
X103207239Y-69500000D01*
X114070710Y-71000000D02*
X113320710Y-70250000D01*
X105000000Y-70250000D02*
X104250000Y-69500000D01*
X113320710Y-70250000D02*
X105000000Y-70250000D01*
X103207239Y-69500000D02*
X102878468Y-69828771D01*
D25*
G36*
X79715743Y-59484257D02*
X79846161Y-59571400D01*
X80000000Y-59602000D01*
X120000000Y-59602000D01*
X120153839Y-59571400D01*
X120284257Y-59484257D01*
X120339220Y-59402000D01*
X133289357Y-59402000D01*
X131703582Y-60057229D01*
X130062990Y-61694960D01*
X129174013Y-63835853D01*
X129171990Y-66153977D01*
X130057229Y-68296418D01*
X131694960Y-69937010D01*
X133835853Y-70825987D01*
X136153977Y-70828010D01*
X138296418Y-69942771D01*
X139937010Y-68305040D01*
X140598000Y-66713200D01*
X140598000Y-79660780D01*
X140515743Y-79715743D01*
X140428600Y-79846161D01*
X140398000Y-80000000D01*
X140398000Y-120000000D01*
X140428600Y-120153839D01*
X140515743Y-120284257D01*
X140598000Y-120339220D01*
X140598000Y-133289357D01*
X139942771Y-131703582D01*
X138305040Y-130062990D01*
X136164147Y-129174013D01*
X133846023Y-129171990D01*
X131703582Y-130057229D01*
X130062990Y-131694960D01*
X129174013Y-133835853D01*
X129171990Y-136153977D01*
X130057229Y-138296418D01*
X131694960Y-139937010D01*
X133286800Y-140598000D01*
X113291286Y-140598000D01*
X113291286Y-138085967D01*
X123906767Y-138085967D01*
X124110796Y-138579755D01*
X124488258Y-138957876D01*
X124981689Y-139162766D01*
X125515967Y-139163233D01*
X126009755Y-138959204D01*
X126387876Y-138581742D01*
X126592766Y-138088311D01*
X126593233Y-137554033D01*
X126389204Y-137060245D01*
X126011742Y-136682124D01*
X125518311Y-136477234D01*
X124984033Y-136476767D01*
X124490245Y-136680796D01*
X124112124Y-137058258D01*
X123907234Y-137551689D01*
X123906767Y-138085967D01*
X113291286Y-138085967D01*
X113291286Y-137973000D01*
X111208715Y-137973000D01*
X111208715Y-140598000D01*
X81194620Y-140598000D01*
X81354703Y-140531855D01*
X81531235Y-140355631D01*
X81626891Y-140125265D01*
X81627109Y-139875829D01*
X81531855Y-139645297D01*
X81355631Y-139468765D01*
X81125265Y-139373109D01*
X80875829Y-139372891D01*
X80645297Y-139468145D01*
X80468765Y-139644369D01*
X80373109Y-139874735D01*
X80372891Y-140124171D01*
X80468145Y-140354703D01*
X80644369Y-140531235D01*
X80805158Y-140598000D01*
X77194620Y-140598000D01*
X77354703Y-140531855D01*
X77531235Y-140355631D01*
X77626891Y-140125265D01*
X77627109Y-139875829D01*
X77531855Y-139645297D01*
X77355631Y-139468765D01*
X77125265Y-139373109D01*
X76875829Y-139372891D01*
X76645297Y-139468145D01*
X76468765Y-139644369D01*
X76374887Y-139870452D01*
X76281855Y-139645297D01*
X76105631Y-139468765D01*
X75875265Y-139373109D01*
X75625829Y-139372891D01*
X75395297Y-139468145D01*
X75249901Y-139613287D01*
X75105631Y-139468765D01*
X74875265Y-139373109D01*
X74625829Y-139372891D01*
X74395297Y-139468145D01*
X74218765Y-139644369D01*
X74123109Y-139874735D01*
X74122891Y-140124171D01*
X74218145Y-140354703D01*
X74394369Y-140531235D01*
X74555158Y-140598000D01*
X62663537Y-140598000D01*
X59478774Y-137492954D01*
X59402000Y-137378054D01*
X59402000Y-132624171D01*
X69122887Y-132624171D01*
X69218141Y-132854703D01*
X69394365Y-133031235D01*
X69624731Y-133126891D01*
X69874167Y-133127109D01*
X70104699Y-133031855D01*
X70281231Y-132855631D01*
X70375111Y-132629543D01*
X70468145Y-132854703D01*
X70644369Y-133031235D01*
X70874735Y-133126891D01*
X71124171Y-133127109D01*
X71354703Y-133031855D01*
X71531235Y-132855631D01*
X71626891Y-132625265D01*
X71626891Y-132624171D01*
X71872891Y-132624171D01*
X71968145Y-132854703D01*
X72144369Y-133031235D01*
X72374735Y-133126891D01*
X72624171Y-133127109D01*
X72854703Y-133031855D01*
X73031235Y-132855631D01*
X73126891Y-132625265D01*
X73127109Y-132375829D01*
X73031855Y-132145297D01*
X72855631Y-131968765D01*
X72625265Y-131873109D01*
X72375829Y-131872891D01*
X72145297Y-131968145D01*
X71968765Y-132144369D01*
X71873109Y-132374735D01*
X71872891Y-132624171D01*
X71626891Y-132624171D01*
X71627109Y-132375829D01*
X71531855Y-132145297D01*
X71355631Y-131968765D01*
X71125265Y-131873109D01*
X70875829Y-131872891D01*
X70645297Y-131968145D01*
X70468765Y-132144369D01*
X70374885Y-132370457D01*
X70281851Y-132145297D01*
X70105627Y-131968765D01*
X69875261Y-131873109D01*
X69625825Y-131872891D01*
X69395293Y-131968145D01*
X69218761Y-132144369D01*
X69123105Y-132374735D01*
X69122887Y-132624171D01*
X59402000Y-132624171D01*
X59402000Y-126710643D01*
X60057229Y-128296418D01*
X61694960Y-129937010D01*
X63835853Y-130825987D01*
X66153977Y-130828010D01*
X68296418Y-129942771D01*
X69937010Y-128305040D01*
X70825987Y-126164147D01*
X70826561Y-125506167D01*
X77241958Y-131921564D01*
X77125265Y-131873109D01*
X76875829Y-131872891D01*
X76645297Y-131968145D01*
X76468765Y-132144369D01*
X76374887Y-132370452D01*
X76281855Y-132145297D01*
X76105631Y-131968765D01*
X75875265Y-131873109D01*
X75625829Y-131872891D01*
X75395297Y-131968145D01*
X75218765Y-132144369D01*
X75124887Y-132370452D01*
X75031855Y-132145297D01*
X74855631Y-131968765D01*
X74625265Y-131873109D01*
X74375829Y-131872891D01*
X74145297Y-131968145D01*
X73968765Y-132144369D01*
X73873109Y-132374735D01*
X73872891Y-132624171D01*
X73968145Y-132854703D01*
X74144369Y-133031235D01*
X74374735Y-133126891D01*
X74624171Y-133127109D01*
X74854703Y-133031855D01*
X75031235Y-132855631D01*
X75125113Y-132629548D01*
X75218145Y-132854703D01*
X75394369Y-133031235D01*
X75624735Y-133126891D01*
X75874171Y-133127109D01*
X76104703Y-133031855D01*
X76281235Y-132855631D01*
X76375113Y-132629548D01*
X76468145Y-132854703D01*
X76644369Y-133031235D01*
X76874735Y-133126891D01*
X77124171Y-133127109D01*
X77354703Y-133031855D01*
X77531235Y-132855631D01*
X77623101Y-132634393D01*
X77622891Y-132874171D01*
X77718145Y-133104703D01*
X77894369Y-133281235D01*
X78124735Y-133376891D01*
X78374171Y-133377109D01*
X78602967Y-133282573D01*
X80481477Y-135161083D01*
X80396402Y-135246010D01*
X80334977Y-135393939D01*
X80274267Y-135247011D01*
X80083990Y-135056402D01*
X79835254Y-134953118D01*
X79565927Y-134952883D01*
X79317011Y-135055733D01*
X79126402Y-135246010D01*
X79064977Y-135393939D01*
X79004267Y-135247011D01*
X78813990Y-135056402D01*
X78565254Y-134953118D01*
X78295927Y-134952883D01*
X78047011Y-135055733D01*
X77856402Y-135246010D01*
X77794977Y-135393939D01*
X77734267Y-135247011D01*
X77543990Y-135056402D01*
X77295254Y-134953118D01*
X77025927Y-134952883D01*
X76777011Y-135055733D01*
X76586402Y-135246010D01*
X76524977Y-135393939D01*
X76464267Y-135247011D01*
X76273990Y-135056402D01*
X76025254Y-134953118D01*
X75755927Y-134952883D01*
X75507011Y-135055733D01*
X75316402Y-135246010D01*
X75254977Y-135393939D01*
X75194267Y-135247011D01*
X75003990Y-135056402D01*
X74755254Y-134953118D01*
X74485927Y-134952883D01*
X74237011Y-135055733D01*
X74046402Y-135246010D01*
X73984977Y-135393939D01*
X73924267Y-135247011D01*
X73733990Y-135056402D01*
X73485254Y-134953118D01*
X73215927Y-134952883D01*
X72967011Y-135055733D01*
X72776402Y-135246010D01*
X72714977Y-135393939D01*
X72654267Y-135247011D01*
X72463990Y-135056402D01*
X72215254Y-134953118D01*
X71945927Y-134952883D01*
X71697011Y-135055733D01*
X71506402Y-135246010D01*
X71444977Y-135393939D01*
X71384267Y-135247011D01*
X71193990Y-135056402D01*
X70945254Y-134953118D01*
X70675927Y-134952883D01*
X70427011Y-135055733D01*
X70236402Y-135246010D01*
X70174977Y-135393939D01*
X70114267Y-135247011D01*
X69923990Y-135056402D01*
X69675254Y-134953118D01*
X69405927Y-134952883D01*
X69157011Y-135055733D01*
X68966402Y-135246010D01*
X68904977Y-135393939D01*
X68844267Y-135247011D01*
X68653990Y-135056402D01*
X68405254Y-134953118D01*
X68135927Y-134952883D01*
X67887011Y-135055733D01*
X67696402Y-135246010D01*
X67634977Y-135393939D01*
X67574267Y-135247011D01*
X67383990Y-135056402D01*
X67135254Y-134953118D01*
X66865927Y-134952883D01*
X66617011Y-135055733D01*
X66426402Y-135246010D01*
X66323118Y-135494746D01*
X66322883Y-135764073D01*
X66425733Y-136012989D01*
X66616010Y-136203598D01*
X66763939Y-136265023D01*
X66617011Y-136325733D01*
X66426402Y-136516010D01*
X66323118Y-136764746D01*
X66322883Y-137034073D01*
X66425733Y-137282989D01*
X66616010Y-137473598D01*
X66864746Y-137576882D01*
X67134073Y-137577117D01*
X67382989Y-137474267D01*
X67573598Y-137283990D01*
X67635023Y-137136061D01*
X67695733Y-137282989D01*
X67886010Y-137473598D01*
X68134746Y-137576882D01*
X68404073Y-137577117D01*
X68652989Y-137474267D01*
X68843598Y-137283990D01*
X68905023Y-137136061D01*
X68965733Y-137282989D01*
X69156010Y-137473598D01*
X69404746Y-137576882D01*
X69674073Y-137577117D01*
X69922989Y-137474267D01*
X70113598Y-137283990D01*
X70175023Y-137136061D01*
X70235733Y-137282989D01*
X70426010Y-137473598D01*
X70674746Y-137576882D01*
X70944073Y-137577117D01*
X71192989Y-137474267D01*
X71383598Y-137283990D01*
X71445023Y-137136061D01*
X71505733Y-137282989D01*
X71696010Y-137473598D01*
X71944746Y-137576882D01*
X72214073Y-137577117D01*
X72462989Y-137474267D01*
X72653598Y-137283990D01*
X72715023Y-137136061D01*
X72775733Y-137282989D01*
X72966010Y-137473598D01*
X73214746Y-137576882D01*
X73484073Y-137577117D01*
X73732989Y-137474267D01*
X73923598Y-137283990D01*
X73985023Y-137136061D01*
X74045733Y-137282989D01*
X74236010Y-137473598D01*
X74484746Y-137576882D01*
X74754073Y-137577117D01*
X75002989Y-137474267D01*
X75193598Y-137283990D01*
X75255023Y-137136061D01*
X75315733Y-137282989D01*
X75506010Y-137473598D01*
X75754746Y-137576882D01*
X76024073Y-137577117D01*
X76272989Y-137474267D01*
X76463598Y-137283990D01*
X76525023Y-137136061D01*
X76585733Y-137282989D01*
X76776010Y-137473598D01*
X77024746Y-137576882D01*
X77294073Y-137577117D01*
X77542989Y-137474267D01*
X77733598Y-137283990D01*
X77795023Y-137136061D01*
X77855733Y-137282989D01*
X78046010Y-137473598D01*
X78294746Y-137576882D01*
X78564073Y-137577117D01*
X78812989Y-137474267D01*
X79003598Y-137283990D01*
X79065023Y-137136061D01*
X79125733Y-137282989D01*
X79316010Y-137473598D01*
X79564746Y-137576882D01*
X79834073Y-137577117D01*
X80082989Y-137474267D01*
X80273598Y-137283990D01*
X80335023Y-137136061D01*
X80395733Y-137282989D01*
X80586010Y-137473598D01*
X80834746Y-137576882D01*
X81104073Y-137577117D01*
X81352989Y-137474267D01*
X81543598Y-137283990D01*
X81646882Y-137035254D01*
X81647117Y-136765927D01*
X81544267Y-136517011D01*
X81353990Y-136326402D01*
X81206061Y-136264977D01*
X81352989Y-136204267D01*
X81438900Y-136118506D01*
X82660197Y-137339803D01*
X82700590Y-137366994D01*
X82750000Y-137377000D01*
X117250000Y-137377000D01*
X117297789Y-137367666D01*
X117339803Y-137339803D01*
X125789320Y-128890286D01*
X126009755Y-128799204D01*
X126387876Y-128421742D01*
X126480196Y-128199410D01*
X137089803Y-117589803D01*
X137116638Y-117550245D01*
X137126997Y-117500907D01*
X137127917Y-117372094D01*
X137183779Y-117372143D01*
X137487846Y-117246505D01*
X137720688Y-117014070D01*
X137846856Y-116710222D01*
X137847143Y-116381221D01*
X137721505Y-116077154D01*
X137554555Y-115909912D01*
X137720688Y-115744070D01*
X137846856Y-115440222D01*
X137847143Y-115111221D01*
X137721505Y-114807154D01*
X137554555Y-114639912D01*
X137720688Y-114474070D01*
X137846856Y-114170222D01*
X137847143Y-113841221D01*
X137721505Y-113537154D01*
X137554555Y-113369912D01*
X137720688Y-113204070D01*
X137846856Y-112900222D01*
X137847143Y-112571221D01*
X137721505Y-112267154D01*
X137554555Y-112099912D01*
X137720688Y-111934070D01*
X137846856Y-111630222D01*
X137847143Y-111301221D01*
X137721505Y-110997154D01*
X137554555Y-110829912D01*
X137720688Y-110664070D01*
X137846856Y-110360222D01*
X137847143Y-110031221D01*
X137721505Y-109727154D01*
X137554555Y-109559912D01*
X137720688Y-109394070D01*
X137846856Y-109090222D01*
X137847143Y-108761221D01*
X137721505Y-108457154D01*
X137554555Y-108289912D01*
X137720688Y-108124070D01*
X137846856Y-107820222D01*
X137847143Y-107491221D01*
X137721505Y-107187154D01*
X137554555Y-107019912D01*
X137720688Y-106854070D01*
X137846856Y-106550222D01*
X137847143Y-106221221D01*
X137721505Y-105917154D01*
X137554555Y-105749912D01*
X137720688Y-105584070D01*
X137846856Y-105280222D01*
X137847143Y-104951221D01*
X137721505Y-104647154D01*
X137554555Y-104479912D01*
X137720688Y-104314070D01*
X137846856Y-104010222D01*
X137847143Y-103681221D01*
X137721505Y-103377154D01*
X137554555Y-103209912D01*
X137720688Y-103044070D01*
X137846856Y-102740222D01*
X137847143Y-102411221D01*
X137721505Y-102107154D01*
X137489070Y-101874312D01*
X137239356Y-101770622D01*
X137264727Y-98218696D01*
X137487846Y-98126505D01*
X137720688Y-97894070D01*
X137846856Y-97590222D01*
X137847143Y-97261221D01*
X137721505Y-96957154D01*
X137554555Y-96789912D01*
X137720688Y-96624070D01*
X137846856Y-96320222D01*
X137847143Y-95991221D01*
X137721505Y-95687154D01*
X137554555Y-95519912D01*
X137720688Y-95354070D01*
X137846856Y-95050222D01*
X137847143Y-94721221D01*
X137721505Y-94417154D01*
X137554555Y-94249912D01*
X137720688Y-94084070D01*
X137846856Y-93780222D01*
X137847143Y-93451221D01*
X137721505Y-93147154D01*
X137554555Y-92979912D01*
X137720688Y-92814070D01*
X137846856Y-92510222D01*
X137847143Y-92181221D01*
X137721505Y-91877154D01*
X137554555Y-91709912D01*
X137720688Y-91544070D01*
X137846856Y-91240222D01*
X137847143Y-90911221D01*
X137721505Y-90607154D01*
X137554555Y-90439912D01*
X137720688Y-90274070D01*
X137846856Y-89970222D01*
X137847143Y-89641221D01*
X137721505Y-89337154D01*
X137554555Y-89169912D01*
X137720688Y-89004070D01*
X137846856Y-88700222D01*
X137847143Y-88371221D01*
X137721505Y-88067154D01*
X137489070Y-87834312D01*
X137353352Y-87777957D01*
X137339403Y-87764008D01*
X137341951Y-87407346D01*
X137810104Y-87875499D01*
X138025217Y-87838352D01*
X138168112Y-87410028D01*
X138136217Y-86959625D01*
X138025217Y-86691648D01*
X137869338Y-86664730D01*
X137834608Y-86630000D01*
X137869338Y-86595270D01*
X138025217Y-86568352D01*
X138168112Y-86140028D01*
X138136217Y-85689625D01*
X138025217Y-85421648D01*
X137810104Y-85384501D01*
X137353136Y-85841469D01*
X137355710Y-85481103D01*
X137487846Y-85426505D01*
X137720688Y-85194070D01*
X137846856Y-84890222D01*
X137847143Y-84561221D01*
X137721505Y-84257154D01*
X137554555Y-84089912D01*
X137720688Y-83924070D01*
X137846856Y-83620222D01*
X137847143Y-83291221D01*
X137721505Y-82987154D01*
X137489070Y-82754312D01*
X137375524Y-82707164D01*
X137376997Y-82500907D01*
X137367359Y-82451462D01*
X137339229Y-82409627D01*
X136495927Y-81577000D01*
X136907446Y-81577000D01*
X138164998Y-82834553D01*
X138280930Y-82950688D01*
X138584778Y-83076856D01*
X138913779Y-83077143D01*
X139217846Y-82951505D01*
X139450688Y-82719070D01*
X139576856Y-82415222D01*
X139577143Y-82086221D01*
X139451505Y-81782154D01*
X139219070Y-81549312D01*
X139218723Y-81549168D01*
X137834777Y-80165223D01*
X137566479Y-79985952D01*
X137250000Y-79923000D01*
X134820722Y-79923000D01*
X133783241Y-78898652D01*
X133781855Y-78895297D01*
X133605631Y-78718765D01*
X133597722Y-78715481D01*
X129912594Y-75077000D01*
X130510998Y-75077000D01*
X133168463Y-77734464D01*
X133218145Y-77854703D01*
X133394369Y-78031235D01*
X133624735Y-78126891D01*
X133874171Y-78127109D01*
X134104703Y-78031855D01*
X134281235Y-77855631D01*
X134376891Y-77625265D01*
X134377109Y-77375829D01*
X134281855Y-77145297D01*
X134105631Y-76968765D01*
X133984446Y-76918445D01*
X131393002Y-74327000D01*
X131504584Y-74327000D01*
X131624735Y-74376891D01*
X131874171Y-74377109D01*
X132104703Y-74281855D01*
X132281235Y-74105631D01*
X132376891Y-73875265D01*
X132377109Y-73625829D01*
X132281855Y-73395297D01*
X132105631Y-73218765D01*
X131875265Y-73123109D01*
X131625829Y-73122891D01*
X131547141Y-73155404D01*
X131375738Y-72984000D01*
X134650594Y-72984000D01*
X134650594Y-75016000D01*
X134673395Y-75137179D01*
X134745012Y-75248474D01*
X134854286Y-75323138D01*
X134984000Y-75349406D01*
X137016000Y-75349406D01*
X137137179Y-75326605D01*
X137248474Y-75254988D01*
X137323138Y-75145714D01*
X137349406Y-75016000D01*
X137349406Y-74615349D01*
X137590356Y-74975955D01*
X138026056Y-75267081D01*
X138540000Y-75369311D01*
X139053944Y-75267081D01*
X139489644Y-74975955D01*
X139780770Y-74540255D01*
X139883000Y-74026311D01*
X139883000Y-73973689D01*
X139780770Y-73459745D01*
X139489644Y-73024045D01*
X139053944Y-72732919D01*
X138540000Y-72630689D01*
X138026056Y-72732919D01*
X137590356Y-73024045D01*
X137349406Y-73384651D01*
X137349406Y-72984000D01*
X137326605Y-72862821D01*
X137254988Y-72751526D01*
X137145714Y-72676862D01*
X137016000Y-72650594D01*
X134984000Y-72650594D01*
X134862821Y-72673395D01*
X134751526Y-72745012D01*
X134676862Y-72854286D01*
X134650594Y-72984000D01*
X131375738Y-72984000D01*
X131233737Y-72841999D01*
X131046544Y-72716922D01*
X130825736Y-72672999D01*
X130825731Y-72673000D01*
X127477773Y-72673000D01*
X124342081Y-69577000D01*
X127504584Y-69577000D01*
X127624735Y-69626891D01*
X127874171Y-69627109D01*
X128104703Y-69531855D01*
X128281235Y-69355631D01*
X128376891Y-69125265D01*
X128377109Y-68875829D01*
X128281855Y-68645297D01*
X128105631Y-68468765D01*
X127875265Y-68373109D01*
X127625829Y-68372891D01*
X127504556Y-68423000D01*
X123173286Y-68423000D01*
X117589229Y-62909627D01*
X117549410Y-62883006D01*
X117500000Y-62873000D01*
X117372093Y-62873000D01*
X117372143Y-62816221D01*
X117246505Y-62512154D01*
X117014070Y-62279312D01*
X116710222Y-62153144D01*
X116381221Y-62152857D01*
X116077154Y-62278495D01*
X115909912Y-62445445D01*
X115744070Y-62279312D01*
X115440222Y-62153144D01*
X115111221Y-62152857D01*
X114807154Y-62278495D01*
X114639912Y-62445445D01*
X114474070Y-62279312D01*
X114170222Y-62153144D01*
X113841221Y-62152857D01*
X113537154Y-62278495D01*
X113369912Y-62445445D01*
X113204070Y-62279312D01*
X112900222Y-62153144D01*
X112571221Y-62152857D01*
X112267154Y-62278495D01*
X112099912Y-62445445D01*
X111934070Y-62279312D01*
X111630222Y-62153144D01*
X111301221Y-62152857D01*
X110997154Y-62278495D01*
X110829912Y-62445445D01*
X110664070Y-62279312D01*
X110360222Y-62153144D01*
X110031221Y-62152857D01*
X109727154Y-62278495D01*
X109559912Y-62445445D01*
X109394070Y-62279312D01*
X109090222Y-62153144D01*
X108761221Y-62152857D01*
X108457154Y-62278495D01*
X108289912Y-62445445D01*
X108124070Y-62279312D01*
X107820222Y-62153144D01*
X107491221Y-62152857D01*
X107187154Y-62278495D01*
X107019912Y-62445445D01*
X106854070Y-62279312D01*
X106550222Y-62153144D01*
X106221221Y-62152857D01*
X105917154Y-62278495D01*
X105749912Y-62445445D01*
X105584070Y-62279312D01*
X105280222Y-62153144D01*
X104951221Y-62152857D01*
X104647154Y-62278495D01*
X104479912Y-62445445D01*
X104314070Y-62279312D01*
X104010222Y-62153144D01*
X103681221Y-62152857D01*
X103377154Y-62278495D01*
X103209912Y-62445445D01*
X103044070Y-62279312D01*
X102740222Y-62153144D01*
X102411221Y-62152857D01*
X102107154Y-62278495D01*
X101874312Y-62510930D01*
X101748144Y-62814778D01*
X101748093Y-62873000D01*
X99509597Y-62873000D01*
X99355631Y-62718765D01*
X99125265Y-62623109D01*
X98875829Y-62622891D01*
X98645297Y-62718145D01*
X98490171Y-62873000D01*
X98252093Y-62873000D01*
X98252143Y-62816221D01*
X98126505Y-62512154D01*
X97894070Y-62279312D01*
X97590222Y-62153144D01*
X97261221Y-62152857D01*
X96957154Y-62278495D01*
X96789912Y-62445445D01*
X96624070Y-62279312D01*
X96320222Y-62153144D01*
X95991221Y-62152857D01*
X95687154Y-62278495D01*
X95519912Y-62445445D01*
X95354070Y-62279312D01*
X95050222Y-62153144D01*
X94721221Y-62152857D01*
X94417154Y-62278495D01*
X94249912Y-62445445D01*
X94084070Y-62279312D01*
X93780222Y-62153144D01*
X93451221Y-62152857D01*
X93147154Y-62278495D01*
X92979912Y-62445445D01*
X92814070Y-62279312D01*
X92510222Y-62153144D01*
X92181221Y-62152857D01*
X91877154Y-62278495D01*
X91709912Y-62445445D01*
X91544070Y-62279312D01*
X91240222Y-62153144D01*
X90911221Y-62152857D01*
X90607154Y-62278495D01*
X90439912Y-62445445D01*
X90274070Y-62279312D01*
X89970222Y-62153144D01*
X89641221Y-62152857D01*
X89337154Y-62278495D01*
X89169912Y-62445445D01*
X89004070Y-62279312D01*
X88700222Y-62153144D01*
X88371221Y-62152857D01*
X88067154Y-62278495D01*
X87834312Y-62510930D01*
X87777957Y-62646648D01*
X87551605Y-62873000D01*
X87164110Y-62873000D01*
X87250858Y-62786253D01*
X87265000Y-62800395D01*
X87875499Y-62189896D01*
X87838352Y-61974783D01*
X87410028Y-61831888D01*
X86959625Y-61863783D01*
X86691648Y-61974783D01*
X86664730Y-62130662D01*
X86630000Y-62165392D01*
X86595270Y-62130662D01*
X86568352Y-61974783D01*
X86140028Y-61831888D01*
X85689625Y-61863783D01*
X85421648Y-61974783D01*
X85384501Y-62189896D01*
X85995000Y-62800395D01*
X86009143Y-62786253D01*
X86095890Y-62873000D01*
X85708395Y-62873000D01*
X85482101Y-62646706D01*
X85426505Y-62512154D01*
X85194070Y-62279312D01*
X84890222Y-62153144D01*
X84561221Y-62152857D01*
X84257154Y-62278495D01*
X84089912Y-62445445D01*
X83924070Y-62279312D01*
X83620222Y-62153144D01*
X83291221Y-62152857D01*
X82987154Y-62278495D01*
X82754312Y-62510930D01*
X82628144Y-62814778D01*
X82628093Y-62873000D01*
X82500000Y-62873000D01*
X82452211Y-62882334D01*
X82410197Y-62910197D01*
X79234945Y-66085449D01*
X79214205Y-65975221D01*
X79142588Y-65863926D01*
X79033314Y-65789262D01*
X78903600Y-65762994D01*
X77176400Y-65762994D01*
X77055221Y-65785795D01*
X76943926Y-65857412D01*
X76869262Y-65966686D01*
X76842994Y-66096400D01*
X76842994Y-67823600D01*
X76865795Y-67944779D01*
X76937412Y-68056074D01*
X77046686Y-68130738D01*
X77165579Y-68154815D01*
X76479556Y-68840838D01*
X76341881Y-68634794D01*
X75955623Y-68376704D01*
X75500000Y-68286075D01*
X75044377Y-68376704D01*
X74658119Y-68634794D01*
X74400029Y-69021052D01*
X74309400Y-69476675D01*
X74309400Y-69523325D01*
X74400029Y-69978948D01*
X74658119Y-70365206D01*
X74836199Y-70484195D01*
X73697393Y-71623001D01*
X65050004Y-71623001D01*
X65049999Y-71623000D01*
X64829191Y-71666923D01*
X64641998Y-71792000D01*
X64641996Y-71792003D01*
X64515535Y-71918464D01*
X64395297Y-71968145D01*
X64218765Y-72144369D01*
X64123109Y-72374735D01*
X64122891Y-72624171D01*
X64218145Y-72854703D01*
X64394369Y-73031235D01*
X64624735Y-73126891D01*
X64874171Y-73127109D01*
X65104703Y-73031855D01*
X65281235Y-72855631D01*
X65313885Y-72777001D01*
X66086338Y-72777001D01*
X65968765Y-72894369D01*
X65873109Y-73124735D01*
X65872891Y-73374171D01*
X65968145Y-73604703D01*
X66144369Y-73781235D01*
X66374735Y-73876891D01*
X66624171Y-73877109D01*
X66745444Y-73827000D01*
X71493394Y-73827000D01*
X70527416Y-74792978D01*
X61630017Y-74792978D01*
X61630012Y-74792977D01*
X61409204Y-74836900D01*
X61222011Y-74961977D01*
X60515524Y-75668464D01*
X60395287Y-75718145D01*
X60218755Y-75894369D01*
X60123099Y-76124735D01*
X60122881Y-76374171D01*
X60218135Y-76604703D01*
X60394359Y-76781235D01*
X60624725Y-76876891D01*
X60874161Y-76877109D01*
X61104693Y-76781855D01*
X61281225Y-76605631D01*
X61331545Y-76484447D01*
X61869014Y-75946978D01*
X62366326Y-75946978D01*
X62268765Y-76044369D01*
X62173109Y-76274735D01*
X62172891Y-76524171D01*
X62268145Y-76754703D01*
X62444369Y-76931235D01*
X62662279Y-77021719D01*
X62391998Y-77292000D01*
X62391996Y-77292003D01*
X62265535Y-77418464D01*
X62145297Y-77468145D01*
X61968765Y-77644369D01*
X61873109Y-77874735D01*
X61872891Y-78124171D01*
X61968145Y-78354703D01*
X62144369Y-78531235D01*
X62374735Y-78626891D01*
X62624171Y-78627109D01*
X62854703Y-78531855D01*
X63031235Y-78355631D01*
X63081555Y-78234446D01*
X63207997Y-78108004D01*
X63208000Y-78108002D01*
X64679011Y-76636990D01*
X66297009Y-76636990D01*
X65265534Y-77668464D01*
X65145297Y-77718145D01*
X64968765Y-77894369D01*
X64873109Y-78124735D01*
X64872891Y-78374171D01*
X64968145Y-78604703D01*
X65144369Y-78781235D01*
X65374735Y-78876891D01*
X65624171Y-78877109D01*
X65854703Y-78781855D01*
X66031235Y-78605631D01*
X66081555Y-78484447D01*
X67239001Y-77327000D01*
X67993394Y-77327000D01*
X62910197Y-82410197D01*
X62883006Y-82450590D01*
X62873000Y-82500000D01*
X62873000Y-82627907D01*
X62816221Y-82627857D01*
X62512154Y-82753495D01*
X62279312Y-82985930D01*
X62153144Y-83289778D01*
X62152857Y-83618779D01*
X62278495Y-83922846D01*
X62445445Y-84090088D01*
X62279312Y-84255930D01*
X62153144Y-84559778D01*
X62152857Y-84888779D01*
X62278495Y-85192846D01*
X62445445Y-85360088D01*
X62279312Y-85525930D01*
X62153144Y-85829778D01*
X62152857Y-86158779D01*
X62278495Y-86462846D01*
X62445445Y-86630088D01*
X62279312Y-86795930D01*
X62153144Y-87099778D01*
X62152857Y-87428779D01*
X62278495Y-87732846D01*
X62445445Y-87900088D01*
X62279312Y-88065930D01*
X62153144Y-88369778D01*
X62152857Y-88698779D01*
X62278495Y-89002846D01*
X62445445Y-89170088D01*
X62279312Y-89335930D01*
X62153144Y-89639778D01*
X62152857Y-89968779D01*
X62278495Y-90272846D01*
X62445445Y-90440088D01*
X62279312Y-90605930D01*
X62153144Y-90909778D01*
X62152857Y-91238779D01*
X62278495Y-91542846D01*
X62445445Y-91710088D01*
X62279312Y-91875930D01*
X62153144Y-92179778D01*
X62152857Y-92508779D01*
X62278495Y-92812846D01*
X62445445Y-92980088D01*
X62279312Y-93145930D01*
X62153144Y-93449778D01*
X62152857Y-93778779D01*
X62278495Y-94082846D01*
X62445445Y-94250088D01*
X62279312Y-94415930D01*
X62153144Y-94719778D01*
X62152857Y-95048779D01*
X62278495Y-95352846D01*
X62445445Y-95520088D01*
X62279312Y-95685930D01*
X62153144Y-95989778D01*
X62152857Y-96318779D01*
X62278495Y-96622846D01*
X62445445Y-96790088D01*
X62279312Y-96955930D01*
X62153144Y-97259778D01*
X62152857Y-97588779D01*
X62278495Y-97892846D01*
X62510930Y-98125688D01*
X62814778Y-98251856D01*
X62873000Y-98251907D01*
X62873000Y-101747907D01*
X62816221Y-101747857D01*
X62512154Y-101873495D01*
X62279312Y-102105930D01*
X62153144Y-102409778D01*
X62152857Y-102738779D01*
X62278495Y-103042846D01*
X62445445Y-103210088D01*
X62279312Y-103375930D01*
X62153144Y-103679778D01*
X62152857Y-104008779D01*
X62278495Y-104312846D01*
X62445445Y-104480088D01*
X62279312Y-104645930D01*
X62153144Y-104949778D01*
X62152857Y-105278779D01*
X62278495Y-105582846D01*
X62445445Y-105750088D01*
X62279312Y-105915930D01*
X62153144Y-106219778D01*
X62152857Y-106548779D01*
X62278495Y-106852846D01*
X62445445Y-107020088D01*
X62279312Y-107185930D01*
X62153144Y-107489778D01*
X62152857Y-107818779D01*
X62278495Y-108122846D01*
X62445445Y-108290088D01*
X62279312Y-108455930D01*
X62153144Y-108759778D01*
X62152857Y-109088779D01*
X62278495Y-109392846D01*
X62445445Y-109560088D01*
X62279312Y-109725930D01*
X62153144Y-110029778D01*
X62152857Y-110358779D01*
X62278495Y-110662846D01*
X62445445Y-110830088D01*
X62279312Y-110995930D01*
X62153144Y-111299778D01*
X62152857Y-111628779D01*
X62278495Y-111932846D01*
X62510930Y-112165688D01*
X62646648Y-112222043D01*
X62873000Y-112448395D01*
X62873000Y-112835890D01*
X62786253Y-112749143D01*
X62800395Y-112735000D01*
X62189896Y-112124501D01*
X61974783Y-112161648D01*
X61831888Y-112589972D01*
X61863783Y-113040375D01*
X61974783Y-113308352D01*
X62130662Y-113335270D01*
X62165392Y-113370000D01*
X62130662Y-113404730D01*
X61974783Y-113431648D01*
X61831888Y-113859972D01*
X61863783Y-114310375D01*
X61974783Y-114578352D01*
X62189896Y-114615499D01*
X62800395Y-114005000D01*
X62786253Y-113990858D01*
X62873000Y-113904110D01*
X62873000Y-114291605D01*
X62646706Y-114517899D01*
X62512154Y-114573495D01*
X62279312Y-114805930D01*
X62153144Y-115109778D01*
X62152857Y-115438779D01*
X62278495Y-115742846D01*
X62445445Y-115910088D01*
X62279312Y-116075930D01*
X62153144Y-116379778D01*
X62152857Y-116708779D01*
X62278495Y-117012846D01*
X62510930Y-117245688D01*
X62814778Y-117371856D01*
X62873000Y-117371907D01*
X62873000Y-117500000D01*
X62882334Y-117547789D01*
X62910197Y-117589803D01*
X64492949Y-119172555D01*
X63846023Y-119171990D01*
X61703582Y-120057229D01*
X60062990Y-121694960D01*
X59402000Y-123286800D01*
X59402000Y-120339220D01*
X59484257Y-120284257D01*
X59571400Y-120153839D01*
X59602000Y-120000000D01*
X59602000Y-80000000D01*
X59571400Y-79846161D01*
X59484257Y-79715743D01*
X59402000Y-79660780D01*
X59402000Y-78624171D01*
X60622891Y-78624171D01*
X60718145Y-78854703D01*
X60894369Y-79031235D01*
X61124735Y-79126891D01*
X61374171Y-79127109D01*
X61604703Y-79031855D01*
X61781235Y-78855631D01*
X61876891Y-78625265D01*
X61877109Y-78375829D01*
X61781855Y-78145297D01*
X61605631Y-77968765D01*
X61375265Y-77873109D01*
X61125829Y-77872891D01*
X60895297Y-77968145D01*
X60718765Y-78144369D01*
X60623109Y-78374735D01*
X60622891Y-78624171D01*
X59402000Y-78624171D01*
X59402000Y-66710643D01*
X60057229Y-68296418D01*
X61694960Y-69937010D01*
X63835853Y-70825987D01*
X66153977Y-70828010D01*
X68296418Y-69942771D01*
X68763328Y-69476675D01*
X71769400Y-69476675D01*
X71769400Y-69523325D01*
X71860029Y-69978948D01*
X72118119Y-70365206D01*
X72504377Y-70623296D01*
X72960000Y-70713925D01*
X73415623Y-70623296D01*
X73801881Y-70365206D01*
X74059971Y-69978948D01*
X74150600Y-69523325D01*
X74150600Y-69476675D01*
X74059971Y-69021052D01*
X73801881Y-68634794D01*
X73415623Y-68376704D01*
X72960000Y-68286075D01*
X72504377Y-68376704D01*
X72118119Y-68634794D01*
X71860029Y-69021052D01*
X71769400Y-69476675D01*
X68763328Y-69476675D01*
X69937010Y-68305040D01*
X70505205Y-66936675D01*
X71769400Y-66936675D01*
X71769400Y-66983325D01*
X71860029Y-67438948D01*
X72118119Y-67825206D01*
X72504377Y-68083296D01*
X72960000Y-68173925D01*
X73415623Y-68083296D01*
X73801881Y-67825206D01*
X74059971Y-67438948D01*
X74150600Y-66983325D01*
X74150600Y-66936675D01*
X74309400Y-66936675D01*
X74309400Y-66983325D01*
X74400029Y-67438948D01*
X74658119Y-67825206D01*
X75044377Y-68083296D01*
X75500000Y-68173925D01*
X75955623Y-68083296D01*
X76341881Y-67825206D01*
X76599971Y-67438948D01*
X76690600Y-66983325D01*
X76690600Y-66936675D01*
X76599971Y-66481052D01*
X76341881Y-66094794D01*
X75955623Y-65836704D01*
X75500000Y-65746075D01*
X75044377Y-65836704D01*
X74658119Y-66094794D01*
X74400029Y-66481052D01*
X74309400Y-66936675D01*
X74150600Y-66936675D01*
X74059971Y-66481052D01*
X73801881Y-66094794D01*
X73415623Y-65836704D01*
X72960000Y-65746075D01*
X72504377Y-65836704D01*
X72118119Y-66094794D01*
X71860029Y-66481052D01*
X71769400Y-66936675D01*
X70505205Y-66936675D01*
X70825987Y-66164147D01*
X70828010Y-63846023D01*
X69942771Y-61703582D01*
X69088682Y-60848000D01*
X73696810Y-60848000D01*
X73696810Y-63252000D01*
X75303191Y-63252000D01*
X75303191Y-60863779D01*
X105872857Y-60863779D01*
X105998495Y-61167846D01*
X106230930Y-61400688D01*
X106534778Y-61526856D01*
X106863779Y-61527143D01*
X107167846Y-61401505D01*
X107400688Y-61169070D01*
X107526856Y-60865222D01*
X107526857Y-60863779D01*
X111572857Y-60863779D01*
X111698495Y-61167846D01*
X111930930Y-61400688D01*
X112234778Y-61526856D01*
X112563779Y-61527143D01*
X112867846Y-61401505D01*
X113100688Y-61169070D01*
X113226856Y-60865222D01*
X113227143Y-60536221D01*
X113101505Y-60232154D01*
X112869070Y-59999312D01*
X112565222Y-59873144D01*
X112236221Y-59872857D01*
X111932154Y-59998495D01*
X111699312Y-60230930D01*
X111573144Y-60534778D01*
X111572857Y-60863779D01*
X107526857Y-60863779D01*
X107527143Y-60536221D01*
X107401505Y-60232154D01*
X107169070Y-59999312D01*
X106865222Y-59873144D01*
X106536221Y-59872857D01*
X106232154Y-59998495D01*
X105999312Y-60230930D01*
X105873144Y-60534778D01*
X105872857Y-60863779D01*
X75303191Y-60863779D01*
X75303191Y-60848000D01*
X73696810Y-60848000D01*
X69088682Y-60848000D01*
X68305040Y-60062990D01*
X66713200Y-59402000D01*
X79660780Y-59402000D01*
X79715743Y-59484257D01*
X79715743Y-59484257D01*
G37*
X79715743Y-59484257D02*
X79846161Y-59571400D01*
X80000000Y-59602000D01*
X120000000Y-59602000D01*
X120153839Y-59571400D01*
X120284257Y-59484257D01*
X120339220Y-59402000D01*
X133289357Y-59402000D01*
X131703582Y-60057229D01*
X130062990Y-61694960D01*
X129174013Y-63835853D01*
X129171990Y-66153977D01*
X130057229Y-68296418D01*
X131694960Y-69937010D01*
X133835853Y-70825987D01*
X136153977Y-70828010D01*
X138296418Y-69942771D01*
X139937010Y-68305040D01*
X140598000Y-66713200D01*
X140598000Y-79660780D01*
X140515743Y-79715743D01*
X140428600Y-79846161D01*
X140398000Y-80000000D01*
X140398000Y-120000000D01*
X140428600Y-120153839D01*
X140515743Y-120284257D01*
X140598000Y-120339220D01*
X140598000Y-133289357D01*
X139942771Y-131703582D01*
X138305040Y-130062990D01*
X136164147Y-129174013D01*
X133846023Y-129171990D01*
X131703582Y-130057229D01*
X130062990Y-131694960D01*
X129174013Y-133835853D01*
X129171990Y-136153977D01*
X130057229Y-138296418D01*
X131694960Y-139937010D01*
X133286800Y-140598000D01*
X113291286Y-140598000D01*
X113291286Y-138085967D01*
X123906767Y-138085967D01*
X124110796Y-138579755D01*
X124488258Y-138957876D01*
X124981689Y-139162766D01*
X125515967Y-139163233D01*
X126009755Y-138959204D01*
X126387876Y-138581742D01*
X126592766Y-138088311D01*
X126593233Y-137554033D01*
X126389204Y-137060245D01*
X126011742Y-136682124D01*
X125518311Y-136477234D01*
X124984033Y-136476767D01*
X124490245Y-136680796D01*
X124112124Y-137058258D01*
X123907234Y-137551689D01*
X123906767Y-138085967D01*
X113291286Y-138085967D01*
X113291286Y-137973000D01*
X111208715Y-137973000D01*
X111208715Y-140598000D01*
X81194620Y-140598000D01*
X81354703Y-140531855D01*
X81531235Y-140355631D01*
X81626891Y-140125265D01*
X81627109Y-139875829D01*
X81531855Y-139645297D01*
X81355631Y-139468765D01*
X81125265Y-139373109D01*
X80875829Y-139372891D01*
X80645297Y-139468145D01*
X80468765Y-139644369D01*
X80373109Y-139874735D01*
X80372891Y-140124171D01*
X80468145Y-140354703D01*
X80644369Y-140531235D01*
X80805158Y-140598000D01*
X77194620Y-140598000D01*
X77354703Y-140531855D01*
X77531235Y-140355631D01*
X77626891Y-140125265D01*
X77627109Y-139875829D01*
X77531855Y-139645297D01*
X77355631Y-139468765D01*
X77125265Y-139373109D01*
X76875829Y-139372891D01*
X76645297Y-139468145D01*
X76468765Y-139644369D01*
X76374887Y-139870452D01*
X76281855Y-139645297D01*
X76105631Y-139468765D01*
X75875265Y-139373109D01*
X75625829Y-139372891D01*
X75395297Y-139468145D01*
X75249901Y-139613287D01*
X75105631Y-139468765D01*
X74875265Y-139373109D01*
X74625829Y-139372891D01*
X74395297Y-139468145D01*
X74218765Y-139644369D01*
X74123109Y-139874735D01*
X74122891Y-140124171D01*
X74218145Y-140354703D01*
X74394369Y-140531235D01*
X74555158Y-140598000D01*
X62663537Y-140598000D01*
X59478774Y-137492954D01*
X59402000Y-137378054D01*
X59402000Y-132624171D01*
X69122887Y-132624171D01*
X69218141Y-132854703D01*
X69394365Y-133031235D01*
X69624731Y-133126891D01*
X69874167Y-133127109D01*
X70104699Y-133031855D01*
X70281231Y-132855631D01*
X70375111Y-132629543D01*
X70468145Y-132854703D01*
X70644369Y-133031235D01*
X70874735Y-133126891D01*
X71124171Y-133127109D01*
X71354703Y-133031855D01*
X71531235Y-132855631D01*
X71626891Y-132625265D01*
X71626891Y-132624171D01*
X71872891Y-132624171D01*
X71968145Y-132854703D01*
X72144369Y-133031235D01*
X72374735Y-133126891D01*
X72624171Y-133127109D01*
X72854703Y-133031855D01*
X73031235Y-132855631D01*
X73126891Y-132625265D01*
X73127109Y-132375829D01*
X73031855Y-132145297D01*
X72855631Y-131968765D01*
X72625265Y-131873109D01*
X72375829Y-131872891D01*
X72145297Y-131968145D01*
X71968765Y-132144369D01*
X71873109Y-132374735D01*
X71872891Y-132624171D01*
X71626891Y-132624171D01*
X71627109Y-132375829D01*
X71531855Y-132145297D01*
X71355631Y-131968765D01*
X71125265Y-131873109D01*
X70875829Y-131872891D01*
X70645297Y-131968145D01*
X70468765Y-132144369D01*
X70374885Y-132370457D01*
X70281851Y-132145297D01*
X70105627Y-131968765D01*
X69875261Y-131873109D01*
X69625825Y-131872891D01*
X69395293Y-131968145D01*
X69218761Y-132144369D01*
X69123105Y-132374735D01*
X69122887Y-132624171D01*
X59402000Y-132624171D01*
X59402000Y-126710643D01*
X60057229Y-128296418D01*
X61694960Y-129937010D01*
X63835853Y-130825987D01*
X66153977Y-130828010D01*
X68296418Y-129942771D01*
X69937010Y-128305040D01*
X70825987Y-126164147D01*
X70826561Y-125506167D01*
X77241958Y-131921564D01*
X77125265Y-131873109D01*
X76875829Y-131872891D01*
X76645297Y-131968145D01*
X76468765Y-132144369D01*
X76374887Y-132370452D01*
X76281855Y-132145297D01*
X76105631Y-131968765D01*
X75875265Y-131873109D01*
X75625829Y-131872891D01*
X75395297Y-131968145D01*
X75218765Y-132144369D01*
X75124887Y-132370452D01*
X75031855Y-132145297D01*
X74855631Y-131968765D01*
X74625265Y-131873109D01*
X74375829Y-131872891D01*
X74145297Y-131968145D01*
X73968765Y-132144369D01*
X73873109Y-132374735D01*
X73872891Y-132624171D01*
X73968145Y-132854703D01*
X74144369Y-133031235D01*
X74374735Y-133126891D01*
X74624171Y-133127109D01*
X74854703Y-133031855D01*
X75031235Y-132855631D01*
X75125113Y-132629548D01*
X75218145Y-132854703D01*
X75394369Y-133031235D01*
X75624735Y-133126891D01*
X75874171Y-133127109D01*
X76104703Y-133031855D01*
X76281235Y-132855631D01*
X76375113Y-132629548D01*
X76468145Y-132854703D01*
X76644369Y-133031235D01*
X76874735Y-133126891D01*
X77124171Y-133127109D01*
X77354703Y-133031855D01*
X77531235Y-132855631D01*
X77623101Y-132634393D01*
X77622891Y-132874171D01*
X77718145Y-133104703D01*
X77894369Y-133281235D01*
X78124735Y-133376891D01*
X78374171Y-133377109D01*
X78602967Y-133282573D01*
X80481477Y-135161083D01*
X80396402Y-135246010D01*
X80334977Y-135393939D01*
X80274267Y-135247011D01*
X80083990Y-135056402D01*
X79835254Y-134953118D01*
X79565927Y-134952883D01*
X79317011Y-135055733D01*
X79126402Y-135246010D01*
X79064977Y-135393939D01*
X79004267Y-135247011D01*
X78813990Y-135056402D01*
X78565254Y-134953118D01*
X78295927Y-134952883D01*
X78047011Y-135055733D01*
X77856402Y-135246010D01*
X77794977Y-135393939D01*
X77734267Y-135247011D01*
X77543990Y-135056402D01*
X77295254Y-134953118D01*
X77025927Y-134952883D01*
X76777011Y-135055733D01*
X76586402Y-135246010D01*
X76524977Y-135393939D01*
X76464267Y-135247011D01*
X76273990Y-135056402D01*
X76025254Y-134953118D01*
X75755927Y-134952883D01*
X75507011Y-135055733D01*
X75316402Y-135246010D01*
X75254977Y-135393939D01*
X75194267Y-135247011D01*
X75003990Y-135056402D01*
X74755254Y-134953118D01*
X74485927Y-134952883D01*
X74237011Y-135055733D01*
X74046402Y-135246010D01*
X73984977Y-135393939D01*
X73924267Y-135247011D01*
X73733990Y-135056402D01*
X73485254Y-134953118D01*
X73215927Y-134952883D01*
X72967011Y-135055733D01*
X72776402Y-135246010D01*
X72714977Y-135393939D01*
X72654267Y-135247011D01*
X72463990Y-135056402D01*
X72215254Y-134953118D01*
X71945927Y-134952883D01*
X71697011Y-135055733D01*
X71506402Y-135246010D01*
X71444977Y-135393939D01*
X71384267Y-135247011D01*
X71193990Y-135056402D01*
X70945254Y-134953118D01*
X70675927Y-134952883D01*
X70427011Y-135055733D01*
X70236402Y-135246010D01*
X70174977Y-135393939D01*
X70114267Y-135247011D01*
X69923990Y-135056402D01*
X69675254Y-134953118D01*
X69405927Y-134952883D01*
X69157011Y-135055733D01*
X68966402Y-135246010D01*
X68904977Y-135393939D01*
X68844267Y-135247011D01*
X68653990Y-135056402D01*
X68405254Y-134953118D01*
X68135927Y-134952883D01*
X67887011Y-135055733D01*
X67696402Y-135246010D01*
X67634977Y-135393939D01*
X67574267Y-135247011D01*
X67383990Y-135056402D01*
X67135254Y-134953118D01*
X66865927Y-134952883D01*
X66617011Y-135055733D01*
X66426402Y-135246010D01*
X66323118Y-135494746D01*
X66322883Y-135764073D01*
X66425733Y-136012989D01*
X66616010Y-136203598D01*
X66763939Y-136265023D01*
X66617011Y-136325733D01*
X66426402Y-136516010D01*
X66323118Y-136764746D01*
X66322883Y-137034073D01*
X66425733Y-137282989D01*
X66616010Y-137473598D01*
X66864746Y-137576882D01*
X67134073Y-137577117D01*
X67382989Y-137474267D01*
X67573598Y-137283990D01*
X67635023Y-137136061D01*
X67695733Y-137282989D01*
X67886010Y-137473598D01*
X68134746Y-137576882D01*
X68404073Y-137577117D01*
X68652989Y-137474267D01*
X68843598Y-137283990D01*
X68905023Y-137136061D01*
X68965733Y-137282989D01*
X69156010Y-137473598D01*
X69404746Y-137576882D01*
X69674073Y-137577117D01*
X69922989Y-137474267D01*
X70113598Y-137283990D01*
X70175023Y-137136061D01*
X70235733Y-137282989D01*
X70426010Y-137473598D01*
X70674746Y-137576882D01*
X70944073Y-137577117D01*
X71192989Y-137474267D01*
X71383598Y-137283990D01*
X71445023Y-137136061D01*
X71505733Y-137282989D01*
X71696010Y-137473598D01*
X71944746Y-137576882D01*
X72214073Y-137577117D01*
X72462989Y-137474267D01*
X72653598Y-137283990D01*
X72715023Y-137136061D01*
X72775733Y-137282989D01*
X72966010Y-137473598D01*
X73214746Y-137576882D01*
X73484073Y-137577117D01*
X73732989Y-137474267D01*
X73923598Y-137283990D01*
X73985023Y-137136061D01*
X74045733Y-137282989D01*
X74236010Y-137473598D01*
X74484746Y-137576882D01*
X74754073Y-137577117D01*
X75002989Y-137474267D01*
X75193598Y-137283990D01*
X75255023Y-137136061D01*
X75315733Y-137282989D01*
X75506010Y-137473598D01*
X75754746Y-137576882D01*
X76024073Y-137577117D01*
X76272989Y-137474267D01*
X76463598Y-137283990D01*
X76525023Y-137136061D01*
X76585733Y-137282989D01*
X76776010Y-137473598D01*
X77024746Y-137576882D01*
X77294073Y-137577117D01*
X77542989Y-137474267D01*
X77733598Y-137283990D01*
X77795023Y-137136061D01*
X77855733Y-137282989D01*
X78046010Y-137473598D01*
X78294746Y-137576882D01*
X78564073Y-137577117D01*
X78812989Y-137474267D01*
X79003598Y-137283990D01*
X79065023Y-137136061D01*
X79125733Y-137282989D01*
X79316010Y-137473598D01*
X79564746Y-137576882D01*
X79834073Y-137577117D01*
X80082989Y-137474267D01*
X80273598Y-137283990D01*
X80335023Y-137136061D01*
X80395733Y-137282989D01*
X80586010Y-137473598D01*
X80834746Y-137576882D01*
X81104073Y-137577117D01*
X81352989Y-137474267D01*
X81543598Y-137283990D01*
X81646882Y-137035254D01*
X81647117Y-136765927D01*
X81544267Y-136517011D01*
X81353990Y-136326402D01*
X81206061Y-136264977D01*
X81352989Y-136204267D01*
X81438900Y-136118506D01*
X82660197Y-137339803D01*
X82700590Y-137366994D01*
X82750000Y-137377000D01*
X117250000Y-137377000D01*
X117297789Y-137367666D01*
X117339803Y-137339803D01*
X125789320Y-128890286D01*
X126009755Y-128799204D01*
X126387876Y-128421742D01*
X126480196Y-128199410D01*
X137089803Y-117589803D01*
X137116638Y-117550245D01*
X137126997Y-117500907D01*
X137127917Y-117372094D01*
X137183779Y-117372143D01*
X137487846Y-117246505D01*
X137720688Y-117014070D01*
X137846856Y-116710222D01*
X137847143Y-116381221D01*
X137721505Y-116077154D01*
X137554555Y-115909912D01*
X137720688Y-115744070D01*
X137846856Y-115440222D01*
X137847143Y-115111221D01*
X137721505Y-114807154D01*
X137554555Y-114639912D01*
X137720688Y-114474070D01*
X137846856Y-114170222D01*
X137847143Y-113841221D01*
X137721505Y-113537154D01*
X137554555Y-113369912D01*
X137720688Y-113204070D01*
X137846856Y-112900222D01*
X137847143Y-112571221D01*
X137721505Y-112267154D01*
X137554555Y-112099912D01*
X137720688Y-111934070D01*
X137846856Y-111630222D01*
X137847143Y-111301221D01*
X137721505Y-110997154D01*
X137554555Y-110829912D01*
X137720688Y-110664070D01*
X137846856Y-110360222D01*
X137847143Y-110031221D01*
X137721505Y-109727154D01*
X137554555Y-109559912D01*
X137720688Y-109394070D01*
X137846856Y-109090222D01*
X137847143Y-108761221D01*
X137721505Y-108457154D01*
X137554555Y-108289912D01*
X137720688Y-108124070D01*
X137846856Y-107820222D01*
X137847143Y-107491221D01*
X137721505Y-107187154D01*
X137554555Y-107019912D01*
X137720688Y-106854070D01*
X137846856Y-106550222D01*
X137847143Y-106221221D01*
X137721505Y-105917154D01*
X137554555Y-105749912D01*
X137720688Y-105584070D01*
X137846856Y-105280222D01*
X137847143Y-104951221D01*
X137721505Y-104647154D01*
X137554555Y-104479912D01*
X137720688Y-104314070D01*
X137846856Y-104010222D01*
X137847143Y-103681221D01*
X137721505Y-103377154D01*
X137554555Y-103209912D01*
X137720688Y-103044070D01*
X137846856Y-102740222D01*
X137847143Y-102411221D01*
X137721505Y-102107154D01*
X137489070Y-101874312D01*
X137239356Y-101770622D01*
X137264727Y-98218696D01*
X137487846Y-98126505D01*
X137720688Y-97894070D01*
X137846856Y-97590222D01*
X137847143Y-97261221D01*
X137721505Y-96957154D01*
X137554555Y-96789912D01*
X137720688Y-96624070D01*
X137846856Y-96320222D01*
X137847143Y-95991221D01*
X137721505Y-95687154D01*
X137554555Y-95519912D01*
X137720688Y-95354070D01*
X137846856Y-95050222D01*
X137847143Y-94721221D01*
X137721505Y-94417154D01*
X137554555Y-94249912D01*
X137720688Y-94084070D01*
X137846856Y-93780222D01*
X137847143Y-93451221D01*
X137721505Y-93147154D01*
X137554555Y-92979912D01*
X137720688Y-92814070D01*
X137846856Y-92510222D01*
X137847143Y-92181221D01*
X137721505Y-91877154D01*
X137554555Y-91709912D01*
X137720688Y-91544070D01*
X137846856Y-91240222D01*
X137847143Y-90911221D01*
X137721505Y-90607154D01*
X137554555Y-90439912D01*
X137720688Y-90274070D01*
X137846856Y-89970222D01*
X137847143Y-89641221D01*
X137721505Y-89337154D01*
X137554555Y-89169912D01*
X137720688Y-89004070D01*
X137846856Y-88700222D01*
X137847143Y-88371221D01*
X137721505Y-88067154D01*
X137489070Y-87834312D01*
X137353352Y-87777957D01*
X137339403Y-87764008D01*
X137341951Y-87407346D01*
X137810104Y-87875499D01*
X138025217Y-87838352D01*
X138168112Y-87410028D01*
X138136217Y-86959625D01*
X138025217Y-86691648D01*
X137869338Y-86664730D01*
X137834608Y-86630000D01*
X137869338Y-86595270D01*
X138025217Y-86568352D01*
X138168112Y-86140028D01*
X138136217Y-85689625D01*
X138025217Y-85421648D01*
X137810104Y-85384501D01*
X137353136Y-85841469D01*
X137355710Y-85481103D01*
X137487846Y-85426505D01*
X137720688Y-85194070D01*
X137846856Y-84890222D01*
X137847143Y-84561221D01*
X137721505Y-84257154D01*
X137554555Y-84089912D01*
X137720688Y-83924070D01*
X137846856Y-83620222D01*
X137847143Y-83291221D01*
X137721505Y-82987154D01*
X137489070Y-82754312D01*
X137375524Y-82707164D01*
X137376997Y-82500907D01*
X137367359Y-82451462D01*
X137339229Y-82409627D01*
X136495927Y-81577000D01*
X136907446Y-81577000D01*
X138164998Y-82834553D01*
X138280930Y-82950688D01*
X138584778Y-83076856D01*
X138913779Y-83077143D01*
X139217846Y-82951505D01*
X139450688Y-82719070D01*
X139576856Y-82415222D01*
X139577143Y-82086221D01*
X139451505Y-81782154D01*
X139219070Y-81549312D01*
X139218723Y-81549168D01*
X137834777Y-80165223D01*
X137566479Y-79985952D01*
X137250000Y-79923000D01*
X134820722Y-79923000D01*
X133783241Y-78898652D01*
X133781855Y-78895297D01*
X133605631Y-78718765D01*
X133597722Y-78715481D01*
X129912594Y-75077000D01*
X130510998Y-75077000D01*
X133168463Y-77734464D01*
X133218145Y-77854703D01*
X133394369Y-78031235D01*
X133624735Y-78126891D01*
X133874171Y-78127109D01*
X134104703Y-78031855D01*
X134281235Y-77855631D01*
X134376891Y-77625265D01*
X134377109Y-77375829D01*
X134281855Y-77145297D01*
X134105631Y-76968765D01*
X133984446Y-76918445D01*
X131393002Y-74327000D01*
X131504584Y-74327000D01*
X131624735Y-74376891D01*
X131874171Y-74377109D01*
X132104703Y-74281855D01*
X132281235Y-74105631D01*
X132376891Y-73875265D01*
X132377109Y-73625829D01*
X132281855Y-73395297D01*
X132105631Y-73218765D01*
X131875265Y-73123109D01*
X131625829Y-73122891D01*
X131547141Y-73155404D01*
X131375738Y-72984000D01*
X134650594Y-72984000D01*
X134650594Y-75016000D01*
X134673395Y-75137179D01*
X134745012Y-75248474D01*
X134854286Y-75323138D01*
X134984000Y-75349406D01*
X137016000Y-75349406D01*
X137137179Y-75326605D01*
X137248474Y-75254988D01*
X137323138Y-75145714D01*
X137349406Y-75016000D01*
X137349406Y-74615349D01*
X137590356Y-74975955D01*
X138026056Y-75267081D01*
X138540000Y-75369311D01*
X139053944Y-75267081D01*
X139489644Y-74975955D01*
X139780770Y-74540255D01*
X139883000Y-74026311D01*
X139883000Y-73973689D01*
X139780770Y-73459745D01*
X139489644Y-73024045D01*
X139053944Y-72732919D01*
X138540000Y-72630689D01*
X138026056Y-72732919D01*
X137590356Y-73024045D01*
X137349406Y-73384651D01*
X137349406Y-72984000D01*
X137326605Y-72862821D01*
X137254988Y-72751526D01*
X137145714Y-72676862D01*
X137016000Y-72650594D01*
X134984000Y-72650594D01*
X134862821Y-72673395D01*
X134751526Y-72745012D01*
X134676862Y-72854286D01*
X134650594Y-72984000D01*
X131375738Y-72984000D01*
X131233737Y-72841999D01*
X131046544Y-72716922D01*
X130825736Y-72672999D01*
X130825731Y-72673000D01*
X127477773Y-72673000D01*
X124342081Y-69577000D01*
X127504584Y-69577000D01*
X127624735Y-69626891D01*
X127874171Y-69627109D01*
X128104703Y-69531855D01*
X128281235Y-69355631D01*
X128376891Y-69125265D01*
X128377109Y-68875829D01*
X128281855Y-68645297D01*
X128105631Y-68468765D01*
X127875265Y-68373109D01*
X127625829Y-68372891D01*
X127504556Y-68423000D01*
X123173286Y-68423000D01*
X117589229Y-62909627D01*
X117549410Y-62883006D01*
X117500000Y-62873000D01*
X117372093Y-62873000D01*
X117372143Y-62816221D01*
X117246505Y-62512154D01*
X117014070Y-62279312D01*
X116710222Y-62153144D01*
X116381221Y-62152857D01*
X116077154Y-62278495D01*
X115909912Y-62445445D01*
X115744070Y-62279312D01*
X115440222Y-62153144D01*
X115111221Y-62152857D01*
X114807154Y-62278495D01*
X114639912Y-62445445D01*
X114474070Y-62279312D01*
X114170222Y-62153144D01*
X113841221Y-62152857D01*
X113537154Y-62278495D01*
X113369912Y-62445445D01*
X113204070Y-62279312D01*
X112900222Y-62153144D01*
X112571221Y-62152857D01*
X112267154Y-62278495D01*
X112099912Y-62445445D01*
X111934070Y-62279312D01*
X111630222Y-62153144D01*
X111301221Y-62152857D01*
X110997154Y-62278495D01*
X110829912Y-62445445D01*
X110664070Y-62279312D01*
X110360222Y-62153144D01*
X110031221Y-62152857D01*
X109727154Y-62278495D01*
X109559912Y-62445445D01*
X109394070Y-62279312D01*
X109090222Y-62153144D01*
X108761221Y-62152857D01*
X108457154Y-62278495D01*
X108289912Y-62445445D01*
X108124070Y-62279312D01*
X107820222Y-62153144D01*
X107491221Y-62152857D01*
X107187154Y-62278495D01*
X107019912Y-62445445D01*
X106854070Y-62279312D01*
X106550222Y-62153144D01*
X106221221Y-62152857D01*
X105917154Y-62278495D01*
X105749912Y-62445445D01*
X105584070Y-62279312D01*
X105280222Y-62153144D01*
X104951221Y-62152857D01*
X104647154Y-62278495D01*
X104479912Y-62445445D01*
X104314070Y-62279312D01*
X104010222Y-62153144D01*
X103681221Y-62152857D01*
X103377154Y-62278495D01*
X103209912Y-62445445D01*
X103044070Y-62279312D01*
X102740222Y-62153144D01*
X102411221Y-62152857D01*
X102107154Y-62278495D01*
X101874312Y-62510930D01*
X101748144Y-62814778D01*
X101748093Y-62873000D01*
X99509597Y-62873000D01*
X99355631Y-62718765D01*
X99125265Y-62623109D01*
X98875829Y-62622891D01*
X98645297Y-62718145D01*
X98490171Y-62873000D01*
X98252093Y-62873000D01*
X98252143Y-62816221D01*
X98126505Y-62512154D01*
X97894070Y-62279312D01*
X97590222Y-62153144D01*
X97261221Y-62152857D01*
X96957154Y-62278495D01*
X96789912Y-62445445D01*
X96624070Y-62279312D01*
X96320222Y-62153144D01*
X95991221Y-62152857D01*
X95687154Y-62278495D01*
X95519912Y-62445445D01*
X95354070Y-62279312D01*
X95050222Y-62153144D01*
X94721221Y-62152857D01*
X94417154Y-62278495D01*
X94249912Y-62445445D01*
X94084070Y-62279312D01*
X93780222Y-62153144D01*
X93451221Y-62152857D01*
X93147154Y-62278495D01*
X92979912Y-62445445D01*
X92814070Y-62279312D01*
X92510222Y-62153144D01*
X92181221Y-62152857D01*
X91877154Y-62278495D01*
X91709912Y-62445445D01*
X91544070Y-62279312D01*
X91240222Y-62153144D01*
X90911221Y-62152857D01*
X90607154Y-62278495D01*
X90439912Y-62445445D01*
X90274070Y-62279312D01*
X89970222Y-62153144D01*
X89641221Y-62152857D01*
X89337154Y-62278495D01*
X89169912Y-62445445D01*
X89004070Y-62279312D01*
X88700222Y-62153144D01*
X88371221Y-62152857D01*
X88067154Y-62278495D01*
X87834312Y-62510930D01*
X87777957Y-62646648D01*
X87551605Y-62873000D01*
X87164110Y-62873000D01*
X87250858Y-62786253D01*
X87265000Y-62800395D01*
X87875499Y-62189896D01*
X87838352Y-61974783D01*
X87410028Y-61831888D01*
X86959625Y-61863783D01*
X86691648Y-61974783D01*
X86664730Y-62130662D01*
X86630000Y-62165392D01*
X86595270Y-62130662D01*
X86568352Y-61974783D01*
X86140028Y-61831888D01*
X85689625Y-61863783D01*
X85421648Y-61974783D01*
X85384501Y-62189896D01*
X85995000Y-62800395D01*
X86009143Y-62786253D01*
X86095890Y-62873000D01*
X85708395Y-62873000D01*
X85482101Y-62646706D01*
X85426505Y-62512154D01*
X85194070Y-62279312D01*
X84890222Y-62153144D01*
X84561221Y-62152857D01*
X84257154Y-62278495D01*
X84089912Y-62445445D01*
X83924070Y-62279312D01*
X83620222Y-62153144D01*
X83291221Y-62152857D01*
X82987154Y-62278495D01*
X82754312Y-62510930D01*
X82628144Y-62814778D01*
X82628093Y-62873000D01*
X82500000Y-62873000D01*
X82452211Y-62882334D01*
X82410197Y-62910197D01*
X79234945Y-66085449D01*
X79214205Y-65975221D01*
X79142588Y-65863926D01*
X79033314Y-65789262D01*
X78903600Y-65762994D01*
X77176400Y-65762994D01*
X77055221Y-65785795D01*
X76943926Y-65857412D01*
X76869262Y-65966686D01*
X76842994Y-66096400D01*
X76842994Y-67823600D01*
X76865795Y-67944779D01*
X76937412Y-68056074D01*
X77046686Y-68130738D01*
X77165579Y-68154815D01*
X76479556Y-68840838D01*
X76341881Y-68634794D01*
X75955623Y-68376704D01*
X75500000Y-68286075D01*
X75044377Y-68376704D01*
X74658119Y-68634794D01*
X74400029Y-69021052D01*
X74309400Y-69476675D01*
X74309400Y-69523325D01*
X74400029Y-69978948D01*
X74658119Y-70365206D01*
X74836199Y-70484195D01*
X73697393Y-71623001D01*
X65050004Y-71623001D01*
X65049999Y-71623000D01*
X64829191Y-71666923D01*
X64641998Y-71792000D01*
X64641996Y-71792003D01*
X64515535Y-71918464D01*
X64395297Y-71968145D01*
X64218765Y-72144369D01*
X64123109Y-72374735D01*
X64122891Y-72624171D01*
X64218145Y-72854703D01*
X64394369Y-73031235D01*
X64624735Y-73126891D01*
X64874171Y-73127109D01*
X65104703Y-73031855D01*
X65281235Y-72855631D01*
X65313885Y-72777001D01*
X66086338Y-72777001D01*
X65968765Y-72894369D01*
X65873109Y-73124735D01*
X65872891Y-73374171D01*
X65968145Y-73604703D01*
X66144369Y-73781235D01*
X66374735Y-73876891D01*
X66624171Y-73877109D01*
X66745444Y-73827000D01*
X71493394Y-73827000D01*
X70527416Y-74792978D01*
X61630017Y-74792978D01*
X61630012Y-74792977D01*
X61409204Y-74836900D01*
X61222011Y-74961977D01*
X60515524Y-75668464D01*
X60395287Y-75718145D01*
X60218755Y-75894369D01*
X60123099Y-76124735D01*
X60122881Y-76374171D01*
X60218135Y-76604703D01*
X60394359Y-76781235D01*
X60624725Y-76876891D01*
X60874161Y-76877109D01*
X61104693Y-76781855D01*
X61281225Y-76605631D01*
X61331545Y-76484447D01*
X61869014Y-75946978D01*
X62366326Y-75946978D01*
X62268765Y-76044369D01*
X62173109Y-76274735D01*
X62172891Y-76524171D01*
X62268145Y-76754703D01*
X62444369Y-76931235D01*
X62662279Y-77021719D01*
X62391998Y-77292000D01*
X62391996Y-77292003D01*
X62265535Y-77418464D01*
X62145297Y-77468145D01*
X61968765Y-77644369D01*
X61873109Y-77874735D01*
X61872891Y-78124171D01*
X61968145Y-78354703D01*
X62144369Y-78531235D01*
X62374735Y-78626891D01*
X62624171Y-78627109D01*
X62854703Y-78531855D01*
X63031235Y-78355631D01*
X63081555Y-78234446D01*
X63207997Y-78108004D01*
X63208000Y-78108002D01*
X64679011Y-76636990D01*
X66297009Y-76636990D01*
X65265534Y-77668464D01*
X65145297Y-77718145D01*
X64968765Y-77894369D01*
X64873109Y-78124735D01*
X64872891Y-78374171D01*
X64968145Y-78604703D01*
X65144369Y-78781235D01*
X65374735Y-78876891D01*
X65624171Y-78877109D01*
X65854703Y-78781855D01*
X66031235Y-78605631D01*
X66081555Y-78484447D01*
X67239001Y-77327000D01*
X67993394Y-77327000D01*
X62910197Y-82410197D01*
X62883006Y-82450590D01*
X62873000Y-82500000D01*
X62873000Y-82627907D01*
X62816221Y-82627857D01*
X62512154Y-82753495D01*
X62279312Y-82985930D01*
X62153144Y-83289778D01*
X62152857Y-83618779D01*
X62278495Y-83922846D01*
X62445445Y-84090088D01*
X62279312Y-84255930D01*
X62153144Y-84559778D01*
X62152857Y-84888779D01*
X62278495Y-85192846D01*
X62445445Y-85360088D01*
X62279312Y-85525930D01*
X62153144Y-85829778D01*
X62152857Y-86158779D01*
X62278495Y-86462846D01*
X62445445Y-86630088D01*
X62279312Y-86795930D01*
X62153144Y-87099778D01*
X62152857Y-87428779D01*
X62278495Y-87732846D01*
X62445445Y-87900088D01*
X62279312Y-88065930D01*
X62153144Y-88369778D01*
X62152857Y-88698779D01*
X62278495Y-89002846D01*
X62445445Y-89170088D01*
X62279312Y-89335930D01*
X62153144Y-89639778D01*
X62152857Y-89968779D01*
X62278495Y-90272846D01*
X62445445Y-90440088D01*
X62279312Y-90605930D01*
X62153144Y-90909778D01*
X62152857Y-91238779D01*
X62278495Y-91542846D01*
X62445445Y-91710088D01*
X62279312Y-91875930D01*
X62153144Y-92179778D01*
X62152857Y-92508779D01*
X62278495Y-92812846D01*
X62445445Y-92980088D01*
X62279312Y-93145930D01*
X62153144Y-93449778D01*
X62152857Y-93778779D01*
X62278495Y-94082846D01*
X62445445Y-94250088D01*
X62279312Y-94415930D01*
X62153144Y-94719778D01*
X62152857Y-95048779D01*
X62278495Y-95352846D01*
X62445445Y-95520088D01*
X62279312Y-95685930D01*
X62153144Y-95989778D01*
X62152857Y-96318779D01*
X62278495Y-96622846D01*
X62445445Y-96790088D01*
X62279312Y-96955930D01*
X62153144Y-97259778D01*
X62152857Y-97588779D01*
X62278495Y-97892846D01*
X62510930Y-98125688D01*
X62814778Y-98251856D01*
X62873000Y-98251907D01*
X62873000Y-101747907D01*
X62816221Y-101747857D01*
X62512154Y-101873495D01*
X62279312Y-102105930D01*
X62153144Y-102409778D01*
X62152857Y-102738779D01*
X62278495Y-103042846D01*
X62445445Y-103210088D01*
X62279312Y-103375930D01*
X62153144Y-103679778D01*
X62152857Y-104008779D01*
X62278495Y-104312846D01*
X62445445Y-104480088D01*
X62279312Y-104645930D01*
X62153144Y-104949778D01*
X62152857Y-105278779D01*
X62278495Y-105582846D01*
X62445445Y-105750088D01*
X62279312Y-105915930D01*
X62153144Y-106219778D01*
X62152857Y-106548779D01*
X62278495Y-106852846D01*
X62445445Y-107020088D01*
X62279312Y-107185930D01*
X62153144Y-107489778D01*
X62152857Y-107818779D01*
X62278495Y-108122846D01*
X62445445Y-108290088D01*
X62279312Y-108455930D01*
X62153144Y-108759778D01*
X62152857Y-109088779D01*
X62278495Y-109392846D01*
X62445445Y-109560088D01*
X62279312Y-109725930D01*
X62153144Y-110029778D01*
X62152857Y-110358779D01*
X62278495Y-110662846D01*
X62445445Y-110830088D01*
X62279312Y-110995930D01*
X62153144Y-111299778D01*
X62152857Y-111628779D01*
X62278495Y-111932846D01*
X62510930Y-112165688D01*
X62646648Y-112222043D01*
X62873000Y-112448395D01*
X62873000Y-112835890D01*
X62786253Y-112749143D01*
X62800395Y-112735000D01*
X62189896Y-112124501D01*
X61974783Y-112161648D01*
X61831888Y-112589972D01*
X61863783Y-113040375D01*
X61974783Y-113308352D01*
X62130662Y-113335270D01*
X62165392Y-113370000D01*
X62130662Y-113404730D01*
X61974783Y-113431648D01*
X61831888Y-113859972D01*
X61863783Y-114310375D01*
X61974783Y-114578352D01*
X62189896Y-114615499D01*
X62800395Y-114005000D01*
X62786253Y-113990858D01*
X62873000Y-113904110D01*
X62873000Y-114291605D01*
X62646706Y-114517899D01*
X62512154Y-114573495D01*
X62279312Y-114805930D01*
X62153144Y-115109778D01*
X62152857Y-115438779D01*
X62278495Y-115742846D01*
X62445445Y-115910088D01*
X62279312Y-116075930D01*
X62153144Y-116379778D01*
X62152857Y-116708779D01*
X62278495Y-117012846D01*
X62510930Y-117245688D01*
X62814778Y-117371856D01*
X62873000Y-117371907D01*
X62873000Y-117500000D01*
X62882334Y-117547789D01*
X62910197Y-117589803D01*
X64492949Y-119172555D01*
X63846023Y-119171990D01*
X61703582Y-120057229D01*
X60062990Y-121694960D01*
X59402000Y-123286800D01*
X59402000Y-120339220D01*
X59484257Y-120284257D01*
X59571400Y-120153839D01*
X59602000Y-120000000D01*
X59602000Y-80000000D01*
X59571400Y-79846161D01*
X59484257Y-79715743D01*
X59402000Y-79660780D01*
X59402000Y-78624171D01*
X60622891Y-78624171D01*
X60718145Y-78854703D01*
X60894369Y-79031235D01*
X61124735Y-79126891D01*
X61374171Y-79127109D01*
X61604703Y-79031855D01*
X61781235Y-78855631D01*
X61876891Y-78625265D01*
X61877109Y-78375829D01*
X61781855Y-78145297D01*
X61605631Y-77968765D01*
X61375265Y-77873109D01*
X61125829Y-77872891D01*
X60895297Y-77968145D01*
X60718765Y-78144369D01*
X60623109Y-78374735D01*
X60622891Y-78624171D01*
X59402000Y-78624171D01*
X59402000Y-66710643D01*
X60057229Y-68296418D01*
X61694960Y-69937010D01*
X63835853Y-70825987D01*
X66153977Y-70828010D01*
X68296418Y-69942771D01*
X68763328Y-69476675D01*
X71769400Y-69476675D01*
X71769400Y-69523325D01*
X71860029Y-69978948D01*
X72118119Y-70365206D01*
X72504377Y-70623296D01*
X72960000Y-70713925D01*
X73415623Y-70623296D01*
X73801881Y-70365206D01*
X74059971Y-69978948D01*
X74150600Y-69523325D01*
X74150600Y-69476675D01*
X74059971Y-69021052D01*
X73801881Y-68634794D01*
X73415623Y-68376704D01*
X72960000Y-68286075D01*
X72504377Y-68376704D01*
X72118119Y-68634794D01*
X71860029Y-69021052D01*
X71769400Y-69476675D01*
X68763328Y-69476675D01*
X69937010Y-68305040D01*
X70505205Y-66936675D01*
X71769400Y-66936675D01*
X71769400Y-66983325D01*
X71860029Y-67438948D01*
X72118119Y-67825206D01*
X72504377Y-68083296D01*
X72960000Y-68173925D01*
X73415623Y-68083296D01*
X73801881Y-67825206D01*
X74059971Y-67438948D01*
X74150600Y-66983325D01*
X74150600Y-66936675D01*
X74309400Y-66936675D01*
X74309400Y-66983325D01*
X74400029Y-67438948D01*
X74658119Y-67825206D01*
X75044377Y-68083296D01*
X75500000Y-68173925D01*
X75955623Y-68083296D01*
X76341881Y-67825206D01*
X76599971Y-67438948D01*
X76690600Y-66983325D01*
X76690600Y-66936675D01*
X76599971Y-66481052D01*
X76341881Y-66094794D01*
X75955623Y-65836704D01*
X75500000Y-65746075D01*
X75044377Y-65836704D01*
X74658119Y-66094794D01*
X74400029Y-66481052D01*
X74309400Y-66936675D01*
X74150600Y-66936675D01*
X74059971Y-66481052D01*
X73801881Y-66094794D01*
X73415623Y-65836704D01*
X72960000Y-65746075D01*
X72504377Y-65836704D01*
X72118119Y-66094794D01*
X71860029Y-66481052D01*
X71769400Y-66936675D01*
X70505205Y-66936675D01*
X70825987Y-66164147D01*
X70828010Y-63846023D01*
X69942771Y-61703582D01*
X69088682Y-60848000D01*
X73696810Y-60848000D01*
X73696810Y-63252000D01*
X75303191Y-63252000D01*
X75303191Y-60863779D01*
X105872857Y-60863779D01*
X105998495Y-61167846D01*
X106230930Y-61400688D01*
X106534778Y-61526856D01*
X106863779Y-61527143D01*
X107167846Y-61401505D01*
X107400688Y-61169070D01*
X107526856Y-60865222D01*
X107526857Y-60863779D01*
X111572857Y-60863779D01*
X111698495Y-61167846D01*
X111930930Y-61400688D01*
X112234778Y-61526856D01*
X112563779Y-61527143D01*
X112867846Y-61401505D01*
X113100688Y-61169070D01*
X113226856Y-60865222D01*
X113227143Y-60536221D01*
X113101505Y-60232154D01*
X112869070Y-59999312D01*
X112565222Y-59873144D01*
X112236221Y-59872857D01*
X111932154Y-59998495D01*
X111699312Y-60230930D01*
X111573144Y-60534778D01*
X111572857Y-60863779D01*
X107526857Y-60863779D01*
X107527143Y-60536221D01*
X107401505Y-60232154D01*
X107169070Y-59999312D01*
X106865222Y-59873144D01*
X106536221Y-59872857D01*
X106232154Y-59998495D01*
X105999312Y-60230930D01*
X105873144Y-60534778D01*
X105872857Y-60863779D01*
X75303191Y-60863779D01*
X75303191Y-60848000D01*
X73696810Y-60848000D01*
X69088682Y-60848000D01*
X68305040Y-60062990D01*
X66713200Y-59402000D01*
X79660780Y-59402000D01*
X79715743Y-59484257D01*
M02*
