G04 #@! TF.FileFunction,Copper,L3,Inr,Signal*
%FSLAX46Y46*%
G04 Gerber Fmt 4.6, Leading zero omitted, Abs format (unit mm)*
G04 Created by KiCad (PCBNEW 4.0.6-e0-6349~53~ubuntu16.04.1) date Thu Aug 24 14:07:56 2017*
%MOMM*%
%LPD*%
G01*
G04 APERTURE LIST*
%ADD10C,0.100000*%
%ADD11C,0.250000*%
%ADD12C,0.300000*%
%ADD13C,0.010000*%
%ADD14R,1.727200X1.727200*%
%ADD15O,1.727200X1.727200*%
%ADD16C,11.000000*%
%ADD17R,2.032000X2.032000*%
%ADD18O,2.032000X2.032000*%
%ADD19C,2.032000*%
%ADD20C,1.524000*%
%ADD21C,1.000000*%
%ADD22C,0.600000*%
%ADD23C,0.400000*%
%ADD24C,0.500000*%
%ADD25C,1.000000*%
%ADD26C,0.254000*%
G04 APERTURE END LIST*
D10*
D11*
X74166667Y-62952381D02*
X74785715Y-62952381D01*
X74452381Y-63333333D01*
X74595239Y-63333333D01*
X74690477Y-63380952D01*
X74738096Y-63428571D01*
X74785715Y-63523810D01*
X74785715Y-63761905D01*
X74738096Y-63857143D01*
X74690477Y-63904762D01*
X74595239Y-63952381D01*
X74309524Y-63952381D01*
X74214286Y-63904762D01*
X74166667Y-63857143D01*
D12*
X113750001Y-138678571D02*
X114678572Y-138678571D01*
X114178572Y-139250000D01*
X114392858Y-139250000D01*
X114535715Y-139321429D01*
X114607144Y-139392857D01*
X114678572Y-139535714D01*
X114678572Y-139892857D01*
X114607144Y-140035714D01*
X114535715Y-140107143D01*
X114392858Y-140178571D01*
X113964286Y-140178571D01*
X113821429Y-140107143D01*
X113750001Y-140035714D01*
X107285715Y-128428571D02*
X108285715Y-128428571D01*
X107642858Y-129928571D01*
X108714286Y-128428571D02*
X109642857Y-128428571D01*
X109142857Y-129000000D01*
X109357143Y-129000000D01*
X109500000Y-129071429D01*
X109571429Y-129142857D01*
X109642857Y-129285714D01*
X109642857Y-129642857D01*
X109571429Y-129785714D01*
X109500000Y-129857143D01*
X109357143Y-129928571D01*
X108928571Y-129928571D01*
X108785714Y-129857143D01*
X108714286Y-129785714D01*
X112071428Y-129928571D02*
X112071428Y-128428571D01*
X112071428Y-129857143D02*
X111928571Y-129928571D01*
X111642857Y-129928571D01*
X111499999Y-129857143D01*
X111428571Y-129785714D01*
X111357142Y-129642857D01*
X111357142Y-129214286D01*
X111428571Y-129071429D01*
X111499999Y-129000000D01*
X111642857Y-128928571D01*
X111928571Y-128928571D01*
X112071428Y-129000000D01*
X113357142Y-129857143D02*
X113214285Y-129928571D01*
X112928571Y-129928571D01*
X112785714Y-129857143D01*
X112714285Y-129714286D01*
X112714285Y-129142857D01*
X112785714Y-129000000D01*
X112928571Y-128928571D01*
X113214285Y-128928571D01*
X113357142Y-129000000D01*
X113428571Y-129142857D01*
X113428571Y-129285714D01*
X112714285Y-129428571D01*
X115142856Y-129857143D02*
X115285713Y-129928571D01*
X115571428Y-129928571D01*
X115714285Y-129857143D01*
X115785713Y-129714286D01*
X115785713Y-129642857D01*
X115714285Y-129500000D01*
X115571428Y-129428571D01*
X115357142Y-129428571D01*
X115214285Y-129357143D01*
X115142856Y-129214286D01*
X115142856Y-129142857D01*
X115214285Y-129000000D01*
X115357142Y-128928571D01*
X115571428Y-128928571D01*
X115714285Y-129000000D01*
X117071428Y-129928571D02*
X117071428Y-129142857D01*
X116999999Y-129000000D01*
X116857142Y-128928571D01*
X116571428Y-128928571D01*
X116428571Y-129000000D01*
X117071428Y-129857143D02*
X116928571Y-129928571D01*
X116571428Y-129928571D01*
X116428571Y-129857143D01*
X116357142Y-129714286D01*
X116357142Y-129571429D01*
X116428571Y-129428571D01*
X116571428Y-129357143D01*
X116928571Y-129357143D01*
X117071428Y-129285714D01*
X117714285Y-128571429D02*
X117785714Y-128500000D01*
X117928571Y-128428571D01*
X118285714Y-128428571D01*
X118428571Y-128500000D01*
X118500000Y-128571429D01*
X118571428Y-128714286D01*
X118571428Y-128857143D01*
X118500000Y-129071429D01*
X117642857Y-129928571D01*
X118571428Y-129928571D01*
X118999999Y-128928571D02*
X119571428Y-128928571D01*
X119214285Y-128428571D02*
X119214285Y-129714286D01*
X119285713Y-129857143D01*
X119428571Y-129928571D01*
X119571428Y-129928571D01*
X120071428Y-129928571D02*
X120071428Y-128928571D01*
X120071428Y-129071429D02*
X120142856Y-129000000D01*
X120285714Y-128928571D01*
X120499999Y-128928571D01*
X120642856Y-129000000D01*
X120714285Y-129142857D01*
X120714285Y-129928571D01*
X120714285Y-129142857D02*
X120785714Y-129000000D01*
X120928571Y-128928571D01*
X121142856Y-128928571D01*
X121285714Y-129000000D01*
X121357142Y-129142857D01*
X121357142Y-129928571D01*
X121999999Y-129857143D02*
X122142856Y-129928571D01*
X122428571Y-129928571D01*
X122571428Y-129857143D01*
X122642856Y-129714286D01*
X122642856Y-129642857D01*
X122571428Y-129500000D01*
X122428571Y-129428571D01*
X122214285Y-129428571D01*
X122071428Y-129357143D01*
X121999999Y-129214286D01*
X121999999Y-129142857D01*
X122071428Y-129000000D01*
X122214285Y-128928571D01*
X122428571Y-128928571D01*
X122571428Y-129000000D01*
D13*
G36*
X104039955Y-101579626D02*
X104240701Y-101589838D01*
X104419781Y-101607514D01*
X104556046Y-101632130D01*
X104613833Y-101652769D01*
X104715705Y-101700530D01*
X104790581Y-101722282D01*
X104793750Y-101722406D01*
X104842972Y-101746572D01*
X104846667Y-101760411D01*
X104882544Y-101797678D01*
X104952500Y-101824717D01*
X105031786Y-101858711D01*
X105058333Y-101892806D01*
X105092725Y-101929440D01*
X105123162Y-101934333D01*
X105194200Y-101968511D01*
X105211739Y-101996222D01*
X105268947Y-102059896D01*
X105317470Y-102084130D01*
X105387193Y-102126036D01*
X105492675Y-102211482D01*
X105611641Y-102322356D01*
X105616982Y-102327680D01*
X105735360Y-102453007D01*
X105804460Y-102550863D01*
X105839637Y-102648466D01*
X105853975Y-102747771D01*
X105872571Y-102865478D01*
X105898143Y-102938542D01*
X105912316Y-102950333D01*
X105930000Y-102990258D01*
X105940065Y-103101232D01*
X105943282Y-103270054D01*
X105940422Y-103483524D01*
X105932259Y-103728441D01*
X105919564Y-103991604D01*
X105903109Y-104259813D01*
X105883666Y-104519868D01*
X105862006Y-104758566D01*
X105838903Y-104962708D01*
X105815127Y-105119093D01*
X105791452Y-105214521D01*
X105778631Y-105236333D01*
X105757751Y-105285984D01*
X105730258Y-105395189D01*
X105703493Y-105532667D01*
X105654783Y-105809874D01*
X105616316Y-106013475D01*
X105585795Y-106153595D01*
X105560926Y-106240361D01*
X105539413Y-106283899D01*
X105531517Y-106291296D01*
X105499993Y-106345617D01*
X105469877Y-106448710D01*
X105464688Y-106474583D01*
X105437621Y-106576346D01*
X105406916Y-106630581D01*
X105399793Y-106633333D01*
X105369322Y-106670309D01*
X105340414Y-106761308D01*
X105336293Y-106781500D01*
X105308720Y-106879174D01*
X105276746Y-106928290D01*
X105271445Y-106929667D01*
X105237510Y-106966144D01*
X105207061Y-107054145D01*
X105206500Y-107056667D01*
X105176763Y-107145510D01*
X105143723Y-107183641D01*
X105143000Y-107183667D01*
X105110082Y-107220131D01*
X105080069Y-107308106D01*
X105079500Y-107310667D01*
X105050360Y-107399491D01*
X105018745Y-107437640D01*
X105018047Y-107437667D01*
X104991100Y-107475042D01*
X104964454Y-107568466D01*
X104957410Y-107607000D01*
X104931563Y-107712856D01*
X104899827Y-107771907D01*
X104889958Y-107776333D01*
X104861920Y-107814296D01*
X104834418Y-107911391D01*
X104821504Y-107988000D01*
X104799648Y-108108547D01*
X104774478Y-108185206D01*
X104760703Y-108199667D01*
X104739019Y-108238005D01*
X104715595Y-108337681D01*
X104698500Y-108453667D01*
X104677207Y-108587461D01*
X104651540Y-108679484D01*
X104630843Y-108707667D01*
X104608169Y-108745535D01*
X104594490Y-108841442D01*
X104592667Y-108900085D01*
X104592667Y-109092503D01*
X104751417Y-109063312D01*
X104862396Y-109032841D01*
X104933821Y-108994865D01*
X104940363Y-108987310D01*
X104992505Y-108969705D01*
X105112781Y-108956004D01*
X105284834Y-108946181D01*
X105492307Y-108940208D01*
X105718842Y-108938056D01*
X105948081Y-108939699D01*
X106163667Y-108945110D01*
X106349243Y-108954260D01*
X106488451Y-108967121D01*
X106564934Y-108983668D01*
X106573701Y-108990060D01*
X106634875Y-109036750D01*
X106717277Y-109067964D01*
X106809071Y-109109053D01*
X106853108Y-109155987D01*
X106901690Y-109209720D01*
X106925400Y-109215667D01*
X106985560Y-109244303D01*
X107065831Y-109314051D01*
X107073421Y-109322090D01*
X107172051Y-109428513D01*
X107406359Y-109190432D01*
X107516713Y-109073937D01*
X107599110Y-108978643D01*
X107639023Y-108921593D01*
X107640667Y-108915569D01*
X107668885Y-108870300D01*
X107743586Y-108783800D01*
X107849842Y-108673118D01*
X107873500Y-108649644D01*
X107984103Y-108537172D01*
X108066246Y-108446738D01*
X108105073Y-108394878D01*
X108106333Y-108390517D01*
X108135220Y-108346463D01*
X108212090Y-108259847D01*
X108322254Y-108145037D01*
X108451023Y-108016399D01*
X108583709Y-107888301D01*
X108705625Y-107775109D01*
X108802080Y-107691191D01*
X108858388Y-107650914D01*
X108864100Y-107649333D01*
X108908621Y-107624931D01*
X108910667Y-107614840D01*
X108949205Y-107563601D01*
X109050093Y-107513274D01*
X109191245Y-107470980D01*
X109350572Y-107443838D01*
X109460282Y-107437667D01*
X109603421Y-107441081D01*
X109692384Y-107460065D01*
X109757623Y-107507729D01*
X109829021Y-107596417D01*
X109905030Y-107695322D01*
X109961072Y-107762750D01*
X109974630Y-107776333D01*
X110011207Y-107841264D01*
X110047083Y-107963797D01*
X110076475Y-108117021D01*
X110093599Y-108274024D01*
X110095764Y-108340033D01*
X110089979Y-108471642D01*
X110065145Y-108579208D01*
X110010567Y-108681880D01*
X109915548Y-108798805D01*
X109769391Y-108949133D01*
X109738556Y-108979520D01*
X109603115Y-109117117D01*
X109478692Y-109251471D01*
X109387826Y-109358054D01*
X109373520Y-109376772D01*
X109286718Y-109491699D01*
X109206883Y-109592817D01*
X109196417Y-109605499D01*
X109141312Y-109684092D01*
X109122333Y-109731931D01*
X109097876Y-109794844D01*
X109079215Y-109820703D01*
X108967975Y-109955443D01*
X108902950Y-110042973D01*
X108873494Y-110098816D01*
X108868333Y-110128194D01*
X108901202Y-110177633D01*
X108986812Y-110253648D01*
X109090583Y-110328746D01*
X109268055Y-110454872D01*
X109383635Y-110561197D01*
X109451746Y-110664590D01*
X109486810Y-110781923D01*
X109489014Y-110794827D01*
X109495706Y-110896164D01*
X109466979Y-110977633D01*
X109389230Y-111072720D01*
X109366511Y-111096411D01*
X109272170Y-111184191D01*
X109196017Y-111238767D01*
X109170973Y-111247667D01*
X109124895Y-111273349D01*
X109122333Y-111285411D01*
X109086456Y-111322678D01*
X109016500Y-111349717D01*
X108942768Y-111383961D01*
X108908193Y-111427087D01*
X108926592Y-111456472D01*
X108949547Y-111459333D01*
X108994032Y-111492177D01*
X109058437Y-111574372D01*
X109081341Y-111609669D01*
X109135471Y-111716448D01*
X109159490Y-111829237D01*
X109159809Y-111982929D01*
X109157454Y-112023842D01*
X109133402Y-112196855D01*
X109080558Y-112331243D01*
X108990969Y-112429829D01*
X108856680Y-112495434D01*
X108669740Y-112530880D01*
X108422195Y-112538987D01*
X108106091Y-112522578D01*
X107825145Y-112496496D01*
X107709910Y-112491037D01*
X107649914Y-112513088D01*
X107617780Y-112572018D01*
X107580734Y-112676768D01*
X107560301Y-112731511D01*
X107512172Y-112798424D01*
X107415240Y-112897146D01*
X107286954Y-113013225D01*
X107144760Y-113132210D01*
X107006108Y-113239648D01*
X106888444Y-113321086D01*
X106809218Y-113362074D01*
X106796295Y-113364333D01*
X106730843Y-113383519D01*
X106626979Y-113430759D01*
X106513996Y-113490576D01*
X106421187Y-113547494D01*
X106378169Y-113585243D01*
X106331404Y-113612672D01*
X106234886Y-113639812D01*
X106219419Y-113642871D01*
X106122984Y-113669680D01*
X106075396Y-113700005D01*
X106074333Y-113704348D01*
X106037881Y-113736316D01*
X105949932Y-113765922D01*
X105947333Y-113766500D01*
X105858553Y-113794298D01*
X105820363Y-113822711D01*
X105820333Y-113823345D01*
X105780862Y-113855192D01*
X105673502Y-113889626D01*
X105514834Y-113923459D01*
X105321439Y-113953502D01*
X105109898Y-113976568D01*
X104973667Y-113986141D01*
X104762525Y-113993673D01*
X104614989Y-113988326D01*
X104510735Y-113968386D01*
X104446421Y-113941614D01*
X104358155Y-113901351D01*
X104305430Y-113912200D01*
X104250207Y-113983390D01*
X104245616Y-113990338D01*
X104191833Y-114093747D01*
X104169612Y-114179250D01*
X104150294Y-114242095D01*
X104128918Y-114253333D01*
X104095326Y-114290340D01*
X104064849Y-114381406D01*
X104060707Y-114401500D01*
X104034260Y-114499139D01*
X104005032Y-114548277D01*
X104000314Y-114549667D01*
X103971376Y-114586677D01*
X103936234Y-114680104D01*
X103921755Y-114732202D01*
X103865394Y-114890357D01*
X103785158Y-115046998D01*
X103768562Y-115072749D01*
X103703585Y-115176827D01*
X103665492Y-115253948D01*
X103661333Y-115271213D01*
X103630068Y-115310780D01*
X103621853Y-115311667D01*
X103579342Y-115346724D01*
X103554208Y-115400402D01*
X103504770Y-115487090D01*
X103415668Y-115592388D01*
X103308553Y-115695770D01*
X103205077Y-115776713D01*
X103126891Y-115814692D01*
X103116479Y-115815345D01*
X103029801Y-115799840D01*
X102913394Y-115768108D01*
X102905896Y-115765734D01*
X102739735Y-115677781D01*
X102587401Y-115537528D01*
X102490450Y-115392794D01*
X102312724Y-114998905D01*
X102180096Y-114653898D01*
X102093524Y-114361725D01*
X102053963Y-114126337D01*
X102062372Y-113951685D01*
X102115734Y-113845551D01*
X102234161Y-113780729D01*
X102404672Y-113757300D01*
X102604125Y-113777805D01*
X102645333Y-113787372D01*
X102782010Y-113821995D01*
X102897227Y-113850933D01*
X102925522Y-113857958D01*
X102997995Y-113855637D01*
X103037591Y-113789305D01*
X103042745Y-113770372D01*
X103076727Y-113689284D01*
X103111806Y-113660667D01*
X103146176Y-113625414D01*
X103153333Y-113580631D01*
X103124287Y-113515975D01*
X103027749Y-113480344D01*
X103015750Y-113478280D01*
X102624569Y-113409732D01*
X102291717Y-113340829D01*
X102024819Y-113273382D01*
X101831499Y-113209201D01*
X101773178Y-113183202D01*
X101597929Y-113098652D01*
X101482372Y-113054010D01*
X101412977Y-113046672D01*
X101376218Y-113074034D01*
X101364582Y-113104539D01*
X101319885Y-113169606D01*
X101224639Y-113258097D01*
X101115918Y-113339275D01*
X100876469Y-113503109D01*
X100703768Y-113626668D01*
X100592456Y-113714053D01*
X100537173Y-113769364D01*
X100528667Y-113788661D01*
X100497608Y-113829940D01*
X100414327Y-113909225D01*
X100293670Y-114012845D01*
X100221972Y-114071100D01*
X100058355Y-114206720D01*
X99896121Y-114349635D01*
X99764303Y-114474063D01*
X99737463Y-114501384D01*
X99633292Y-114604519D01*
X99558304Y-114656172D01*
X99486300Y-114668898D01*
X99409158Y-114658729D01*
X99307108Y-114624910D01*
X99259488Y-114578771D01*
X99258667Y-114572171D01*
X99230676Y-114507481D01*
X99160843Y-114417407D01*
X99133834Y-114389014D01*
X99046061Y-114281162D01*
X98987316Y-114172773D01*
X98981079Y-114152924D01*
X98949454Y-114071199D01*
X98918774Y-114041667D01*
X98886720Y-114005213D01*
X98857077Y-113917262D01*
X98856500Y-113914667D01*
X98826539Y-113825815D01*
X98792963Y-113787692D01*
X98792230Y-113787667D01*
X98765495Y-113749871D01*
X98738201Y-113653675D01*
X98726218Y-113586583D01*
X98701451Y-113463478D01*
X98672215Y-113379169D01*
X98658620Y-113360905D01*
X98639777Y-113309784D01*
X98623632Y-113196050D01*
X98613048Y-113041759D01*
X98611579Y-112998427D01*
X98611411Y-112976274D01*
X98988210Y-112976274D01*
X99011274Y-113065700D01*
X99049870Y-113184687D01*
X99096210Y-113308642D01*
X99129227Y-113385500D01*
X99168024Y-113472665D01*
X99223715Y-113601796D01*
X99257650Y-113681833D01*
X99343350Y-113884539D01*
X99403516Y-114019290D01*
X99445876Y-114095990D01*
X99478161Y-114124542D01*
X99508099Y-114114851D01*
X99543419Y-114076819D01*
X99555000Y-114062833D01*
X99615164Y-114009669D01*
X99642970Y-113999333D01*
X99702959Y-113973963D01*
X99809817Y-113906415D01*
X99946061Y-113809527D01*
X100094208Y-113696140D01*
X100236773Y-113579094D01*
X100337020Y-113489609D01*
X100567425Y-113272150D01*
X100742631Y-113104981D01*
X100869655Y-112980967D01*
X100955516Y-112892972D01*
X101007229Y-112833861D01*
X101031811Y-112796497D01*
X101036667Y-112778126D01*
X101002756Y-112734211D01*
X100976694Y-112729333D01*
X100913399Y-112710367D01*
X100902611Y-112697583D01*
X100859948Y-112653535D01*
X100784857Y-112598624D01*
X100709640Y-112558068D01*
X100655146Y-112568315D01*
X100583884Y-112636438D01*
X100583774Y-112636556D01*
X100517327Y-112718568D01*
X100486585Y-112776848D01*
X100486333Y-112779869D01*
X100458007Y-112832047D01*
X100388963Y-112908161D01*
X100380500Y-112916126D01*
X100308740Y-112991736D01*
X100275032Y-113045182D01*
X100274667Y-113048361D01*
X100246301Y-113093414D01*
X100172463Y-113176526D01*
X100084167Y-113265044D01*
X99984238Y-113367234D01*
X99915258Y-113450087D01*
X99893667Y-113490621D01*
X99859389Y-113528806D01*
X99830167Y-113533667D01*
X99773831Y-113556525D01*
X99766667Y-113576000D01*
X99732378Y-113613557D01*
X99703167Y-113618333D01*
X99646839Y-113594920D01*
X99639667Y-113574952D01*
X99604624Y-113529451D01*
X99533833Y-113491333D01*
X99455374Y-113450741D01*
X99427651Y-113418298D01*
X99400684Y-113374315D01*
X99332069Y-113290521D01*
X99239674Y-113186334D01*
X99141366Y-113081172D01*
X99055012Y-112994455D01*
X98998482Y-112945599D01*
X98988466Y-112941000D01*
X98988210Y-112976274D01*
X98611411Y-112976274D01*
X98610214Y-112819146D01*
X98620190Y-112702909D01*
X98645048Y-112628458D01*
X98680990Y-112581675D01*
X98753321Y-112529325D01*
X98822298Y-112542665D01*
X98839166Y-112552569D01*
X98933411Y-112585428D01*
X99062169Y-112601891D01*
X99084996Y-112602333D01*
X99187536Y-112612618D01*
X99274908Y-112652204D01*
X99363907Y-112734186D01*
X99471326Y-112871660D01*
X99521565Y-112942749D01*
X99593964Y-113046833D01*
X99795292Y-112814000D01*
X99923558Y-112670418D01*
X100056718Y-112528808D01*
X100152991Y-112432445D01*
X100244372Y-112337580D01*
X100278367Y-112274406D01*
X100264796Y-112223112D01*
X100260102Y-112216355D01*
X100182235Y-112151517D01*
X100105171Y-112115837D01*
X99941841Y-112033506D01*
X99799236Y-111908298D01*
X99741838Y-111828494D01*
X99662148Y-111679666D01*
X99585236Y-111525521D01*
X99521184Y-111387525D01*
X99480071Y-111287147D01*
X99470333Y-111250288D01*
X99443098Y-111207045D01*
X99432878Y-111205333D01*
X99407601Y-111167177D01*
X99381698Y-111068746D01*
X99366415Y-110973167D01*
X99344277Y-110841082D01*
X99318019Y-110747049D01*
X99301000Y-110718500D01*
X99276473Y-110667307D01*
X99250851Y-110558315D01*
X99234735Y-110453249D01*
X99210860Y-110316352D01*
X99180281Y-110215560D01*
X99157689Y-110180306D01*
X99145208Y-110131266D01*
X99134510Y-110008567D01*
X99125586Y-109823168D01*
X99118430Y-109586025D01*
X99113034Y-109308097D01*
X99109391Y-109000342D01*
X99107493Y-108673718D01*
X99107372Y-108422181D01*
X99429054Y-108422181D01*
X99430034Y-108690003D01*
X99437417Y-108937386D01*
X99451137Y-109142652D01*
X99470036Y-109279167D01*
X99488924Y-109390817D01*
X99511866Y-109561548D01*
X99535665Y-109766085D01*
X99553007Y-109935333D01*
X99581217Y-110159135D01*
X99621583Y-110387696D01*
X99669688Y-110603245D01*
X99721115Y-110788012D01*
X99771444Y-110924225D01*
X99816227Y-110994091D01*
X99846433Y-111047293D01*
X99873733Y-111131674D01*
X99905081Y-111215523D01*
X99936000Y-111247667D01*
X99969802Y-111283489D01*
X99995717Y-111353500D01*
X100029711Y-111432786D01*
X100063806Y-111459333D01*
X100102766Y-111492565D01*
X100105333Y-111510093D01*
X100135704Y-111566484D01*
X100213941Y-111656376D01*
X100320730Y-111761740D01*
X100436755Y-111864547D01*
X100542703Y-111946768D01*
X100619259Y-111990375D01*
X100620191Y-111990676D01*
X100699693Y-112035818D01*
X100805173Y-112119941D01*
X100861263Y-112172596D01*
X101038422Y-112319318D01*
X101271389Y-112468114D01*
X101533456Y-112602081D01*
X101555250Y-112611815D01*
X101637701Y-112657855D01*
X101671667Y-112695781D01*
X101709037Y-112722096D01*
X101802449Y-112748389D01*
X101841000Y-112755410D01*
X101946826Y-112780162D01*
X102005888Y-112809178D01*
X102010333Y-112817952D01*
X102048279Y-112843186D01*
X102145335Y-112868905D01*
X102222000Y-112881496D01*
X102342551Y-112903494D01*
X102419209Y-112929025D01*
X102433667Y-112943084D01*
X102472253Y-112963856D01*
X102573535Y-112986393D01*
X102715796Y-113005893D01*
X102719417Y-113006272D01*
X102870381Y-113025855D01*
X102988675Y-113048360D01*
X103047500Y-113068355D01*
X103113240Y-113095026D01*
X103226584Y-113122611D01*
X103269750Y-113130434D01*
X103379353Y-113155600D01*
X103443098Y-113183953D01*
X103449667Y-113194132D01*
X103485385Y-113228989D01*
X103550830Y-113253545D01*
X103639397Y-113298595D01*
X103677793Y-113346165D01*
X103688050Y-113429774D01*
X103674266Y-113526516D01*
X103644365Y-113600076D01*
X103618401Y-113618333D01*
X103585109Y-113653800D01*
X103529390Y-113747079D01*
X103462924Y-113878490D01*
X103458683Y-113887512D01*
X103362046Y-114057387D01*
X103246125Y-114206869D01*
X103127107Y-114318864D01*
X103021178Y-114376278D01*
X102992024Y-114380333D01*
X102921766Y-114363132D01*
X102822396Y-114321572D01*
X102724232Y-114270713D01*
X102657593Y-114225619D01*
X102645333Y-114208097D01*
X102610745Y-114172289D01*
X102536837Y-114153988D01*
X102468389Y-114160945D01*
X102451231Y-114174495D01*
X102451703Y-114238449D01*
X102467569Y-114265771D01*
X102499923Y-114337584D01*
X102530699Y-114454953D01*
X102538434Y-114496750D01*
X102563858Y-114606362D01*
X102592856Y-114670104D01*
X102603357Y-114676667D01*
X102636023Y-114713128D01*
X102665928Y-114801096D01*
X102666500Y-114803667D01*
X102695879Y-114892499D01*
X102728066Y-114930640D01*
X102728774Y-114930667D01*
X102763447Y-114966519D01*
X102789880Y-115037148D01*
X102830442Y-115135411D01*
X102893298Y-115232555D01*
X102957176Y-115298935D01*
X102986897Y-115311667D01*
X103028205Y-115283640D01*
X103108292Y-115210981D01*
X103187886Y-115131750D01*
X103298071Y-115020602D01*
X103396347Y-114925521D01*
X103442973Y-114883173D01*
X103495630Y-114809274D01*
X103556792Y-114681037D01*
X103613361Y-114525989D01*
X103614189Y-114523340D01*
X103665435Y-114379372D01*
X103738398Y-114200641D01*
X103824669Y-114004934D01*
X103915838Y-113810039D01*
X104003496Y-113633745D01*
X104079235Y-113493840D01*
X104134645Y-113408110D01*
X104148167Y-113393798D01*
X104206822Y-113380994D01*
X104325041Y-113376720D01*
X104481535Y-113379661D01*
X104655013Y-113388501D01*
X104824188Y-113401926D01*
X104967768Y-113418619D01*
X105064465Y-113437265D01*
X105093611Y-113452217D01*
X105139850Y-113472151D01*
X105247085Y-113486242D01*
X105385563Y-113491333D01*
X105551494Y-113485625D01*
X105672727Y-113460794D01*
X105788892Y-113405278D01*
X105881254Y-113346732D01*
X106029989Y-113261886D01*
X106181636Y-113196953D01*
X106266636Y-113173442D01*
X106409152Y-113133096D01*
X106536501Y-113072296D01*
X106548869Y-113064043D01*
X106634618Y-113008734D01*
X106687859Y-112983489D01*
X106689709Y-112983333D01*
X106733115Y-112956063D01*
X106810694Y-112887675D01*
X106842846Y-112856333D01*
X106932852Y-112776875D01*
X107004478Y-112731635D01*
X107019506Y-112727790D01*
X107087575Y-112690401D01*
X107166507Y-112599285D01*
X107239422Y-112480707D01*
X107289437Y-112360932D01*
X107301790Y-112288600D01*
X107316279Y-112169232D01*
X107353110Y-112019635D01*
X107373893Y-111956084D01*
X107416273Y-111814995D01*
X107422659Y-111700739D01*
X107395476Y-111564705D01*
X107393753Y-111558228D01*
X107340686Y-111410290D01*
X107271127Y-111276556D01*
X107247568Y-111242954D01*
X107170170Y-111140624D01*
X107071290Y-111004808D01*
X107005761Y-110912461D01*
X106861758Y-110742988D01*
X106682194Y-110604471D01*
X106447343Y-110483183D01*
X106307167Y-110426284D01*
X106207790Y-110394070D01*
X106095100Y-110371145D01*
X105952551Y-110355931D01*
X105763597Y-110346854D01*
X105511692Y-110342338D01*
X105418167Y-110341617D01*
X104740833Y-110337500D01*
X104740833Y-110213283D01*
X104749918Y-110136798D01*
X104754645Y-110130759D01*
X106963333Y-110130759D01*
X106997428Y-110182287D01*
X107028162Y-110189333D01*
X107099200Y-110223511D01*
X107116739Y-110251222D01*
X107173532Y-110313743D01*
X107227853Y-110340839D01*
X107319160Y-110392345D01*
X107414725Y-110477724D01*
X107488200Y-110569811D01*
X107513667Y-110635486D01*
X107547694Y-110695263D01*
X107577167Y-110712642D01*
X107633482Y-110769217D01*
X107640667Y-110801838D01*
X107661629Y-110859043D01*
X107680147Y-110866667D01*
X107721764Y-110901933D01*
X107749353Y-110961917D01*
X107791697Y-111049659D01*
X107826289Y-111087372D01*
X107849019Y-111145441D01*
X107864585Y-111282701D01*
X107872529Y-111493945D01*
X107873500Y-111621641D01*
X107874621Y-111837034D01*
X107879570Y-111983108D01*
X107890719Y-112075199D01*
X107910446Y-112128640D01*
X107941124Y-112158768D01*
X107958167Y-112168320D01*
X108084916Y-112202928D01*
X108257360Y-112214424D01*
X108439881Y-112203284D01*
X108596859Y-112169982D01*
X108625196Y-112159410D01*
X108729960Y-112100335D01*
X108796247Y-112034991D01*
X108801363Y-112024610D01*
X108792449Y-111951139D01*
X108739142Y-111834090D01*
X108653657Y-111692849D01*
X108548208Y-111546802D01*
X108435008Y-111415332D01*
X108388735Y-111369721D01*
X108302332Y-111264039D01*
X108281291Y-111155430D01*
X108282902Y-111136809D01*
X108296995Y-111064441D01*
X108333177Y-111028402D01*
X108414760Y-111016087D01*
X108508500Y-111014833D01*
X108644519Y-110999660D01*
X108792933Y-110960370D01*
X108930434Y-110906310D01*
X109033718Y-110846824D01*
X109079478Y-110791257D01*
X109080000Y-110785669D01*
X109042615Y-110738921D01*
X108950230Y-110705847D01*
X108864871Y-110697333D01*
X108797947Y-110681330D01*
X108783667Y-110660574D01*
X108746108Y-110632873D01*
X108651888Y-110607299D01*
X108608232Y-110600284D01*
X108492781Y-110576248D01*
X108417209Y-110544741D01*
X108406725Y-110534566D01*
X108349553Y-110493778D01*
X108266396Y-110463703D01*
X108133848Y-110402551D01*
X108073714Y-110300347D01*
X108071524Y-110205741D01*
X108109024Y-110108233D01*
X108206642Y-110051520D01*
X108212167Y-110049733D01*
X108370463Y-109967374D01*
X108538939Y-109815058D01*
X108723804Y-109587125D01*
X108732246Y-109575500D01*
X108805973Y-109480166D01*
X108915310Y-109346823D01*
X109047396Y-109190278D01*
X109189371Y-109025341D01*
X109328375Y-108866819D01*
X109451549Y-108729522D01*
X109546032Y-108628256D01*
X109598088Y-108578474D01*
X109622808Y-108526854D01*
X109652983Y-108419097D01*
X109672327Y-108328459D01*
X109693877Y-108187978D01*
X109687982Y-108088784D01*
X109648212Y-107990147D01*
X109607538Y-107917901D01*
X109523322Y-107800482D01*
X109445881Y-107739110D01*
X109422703Y-107734000D01*
X109329636Y-107766731D01*
X109197602Y-107857953D01*
X109036769Y-107997206D01*
X108857305Y-108174030D01*
X108669380Y-108377966D01*
X108483162Y-108598555D01*
X108308820Y-108825337D01*
X108178418Y-109013846D01*
X107999301Y-109259364D01*
X107809131Y-109451762D01*
X107580648Y-109615603D01*
X107393504Y-109721135D01*
X107288232Y-109789572D01*
X107172316Y-109884382D01*
X107066043Y-109986248D01*
X106989698Y-110075853D01*
X106963333Y-110130759D01*
X104754645Y-110130759D01*
X104790562Y-110084877D01*
X104882849Y-110038429D01*
X104952500Y-110012066D01*
X105044721Y-109983122D01*
X105146970Y-109962761D01*
X105274774Y-109949872D01*
X105443659Y-109943342D01*
X105669153Y-109942059D01*
X105901706Y-109944075D01*
X106639246Y-109953084D01*
X106718551Y-109846863D01*
X106767302Y-109753845D01*
X106773205Y-109679279D01*
X106773189Y-109679238D01*
X106725937Y-109634025D01*
X106620764Y-109565661D01*
X106476797Y-109486087D01*
X106409946Y-109452479D01*
X106071371Y-109287125D01*
X105673159Y-109336062D01*
X105476027Y-109358063D01*
X105290364Y-109374936D01*
X105146255Y-109384085D01*
X105106388Y-109385000D01*
X104928291Y-109417820D01*
X104812053Y-109490833D01*
X104713360Y-109559921D01*
X104630243Y-109595410D01*
X104618305Y-109596667D01*
X104559361Y-109628642D01*
X104550333Y-109660167D01*
X104513079Y-109710752D01*
X104433917Y-109723018D01*
X104341537Y-109718313D01*
X104276045Y-109697116D01*
X104232831Y-109647017D01*
X104207288Y-109555602D01*
X104194808Y-109410459D01*
X104190782Y-109199177D01*
X104190500Y-109067331D01*
X104193518Y-108803553D01*
X104202901Y-108618409D01*
X104219137Y-108506072D01*
X104241427Y-108461436D01*
X104279329Y-108402874D01*
X104312760Y-108294263D01*
X104320921Y-108251315D01*
X104345584Y-108142133D01*
X104373804Y-108078946D01*
X104383816Y-108072667D01*
X104409897Y-108035000D01*
X104436486Y-107939651D01*
X104446713Y-107882167D01*
X104470623Y-107768781D01*
X104498336Y-107700580D01*
X104510213Y-107691667D01*
X104536653Y-107653997D01*
X104563459Y-107558642D01*
X104573713Y-107501167D01*
X104597623Y-107387781D01*
X104625336Y-107319580D01*
X104637213Y-107310667D01*
X104663653Y-107272997D01*
X104690459Y-107177642D01*
X104700713Y-107120167D01*
X104724623Y-107006781D01*
X104752336Y-106938580D01*
X104764213Y-106929667D01*
X104790653Y-106891997D01*
X104817459Y-106796642D01*
X104827713Y-106739167D01*
X104851850Y-106625774D01*
X104880133Y-106557575D01*
X104892348Y-106548667D01*
X104917927Y-106510718D01*
X104943865Y-106413658D01*
X104956496Y-106337000D01*
X104978234Y-106216456D01*
X105003105Y-106139797D01*
X105016647Y-106125333D01*
X105041381Y-106087676D01*
X105067159Y-105992351D01*
X105077287Y-105934833D01*
X105101184Y-105821448D01*
X105128861Y-105753247D01*
X105140716Y-105744333D01*
X105164547Y-105706179D01*
X105189510Y-105607728D01*
X105204668Y-105511500D01*
X105226333Y-105384176D01*
X105251754Y-105299606D01*
X105268889Y-105278667D01*
X105291841Y-105240321D01*
X105316139Y-105140625D01*
X105333509Y-105024591D01*
X105354658Y-104886260D01*
X105379597Y-104785318D01*
X105398698Y-104748450D01*
X105420303Y-104698208D01*
X105443255Y-104587076D01*
X105462745Y-104438605D01*
X105463502Y-104431026D01*
X105482680Y-104285377D01*
X105505774Y-104179873D01*
X105528012Y-104135889D01*
X105529470Y-104135667D01*
X105547090Y-104096795D01*
X105560124Y-103993969D01*
X105566172Y-103847875D01*
X105566333Y-103818167D01*
X105561833Y-103666407D01*
X105549928Y-103554142D01*
X105533013Y-103502055D01*
X105529574Y-103500667D01*
X105501873Y-103463108D01*
X105476299Y-103368888D01*
X105469284Y-103325232D01*
X105445959Y-103209920D01*
X105416213Y-103134577D01*
X105406728Y-103124149D01*
X105368748Y-103067452D01*
X105339211Y-102982083D01*
X105305708Y-102897924D01*
X105269193Y-102865667D01*
X105232392Y-102831346D01*
X105227667Y-102801887D01*
X105197884Y-102731748D01*
X105125815Y-102649593D01*
X105121833Y-102646086D01*
X105048618Y-102570141D01*
X105015135Y-102511229D01*
X105014941Y-102508782D01*
X104983946Y-102446185D01*
X104905426Y-102350149D01*
X104798309Y-102239698D01*
X104681525Y-102133857D01*
X104573999Y-102051651D01*
X104538755Y-102030156D01*
X104449009Y-101993050D01*
X104331979Y-101970515D01*
X104167709Y-101960029D01*
X103973595Y-101958723D01*
X103742377Y-101965179D01*
X103562776Y-101986268D01*
X103406290Y-102030591D01*
X103244420Y-102106743D01*
X103048664Y-102223323D01*
X103005037Y-102250913D01*
X102866957Y-102330873D01*
X102737726Y-102392900D01*
X102673436Y-102415643D01*
X102569229Y-102454241D01*
X102447707Y-102516249D01*
X102333190Y-102586823D01*
X102249995Y-102651121D01*
X102222000Y-102691155D01*
X102245765Y-102747406D01*
X102300736Y-102828207D01*
X102366695Y-102945372D01*
X102406570Y-103066750D01*
X102442063Y-103247242D01*
X102468883Y-103360376D01*
X102497080Y-103421367D01*
X102536700Y-103445428D01*
X102597795Y-103447773D01*
X102656241Y-103444748D01*
X102768564Y-103446233D01*
X102826026Y-103474681D01*
X102857744Y-103546266D01*
X102861226Y-103558609D01*
X102865231Y-103676351D01*
X102825838Y-103788349D01*
X102757489Y-103864932D01*
X102703964Y-103881667D01*
X102650800Y-103904252D01*
X102645333Y-103920636D01*
X102608839Y-103955923D01*
X102520803Y-103986950D01*
X102518333Y-103987500D01*
X102429489Y-104017237D01*
X102391359Y-104050276D01*
X102391333Y-104051000D01*
X102354869Y-104083917D01*
X102266894Y-104113930D01*
X102264333Y-104114500D01*
X102175459Y-104145218D01*
X102137357Y-104180600D01*
X102137333Y-104181363D01*
X102103211Y-104216414D01*
X102076857Y-104220333D01*
X102002033Y-104246452D01*
X101934375Y-104305808D01*
X101901972Y-104369901D01*
X101906609Y-104393079D01*
X101961792Y-104417682D01*
X102067696Y-104430111D01*
X102191114Y-104429314D01*
X102298833Y-104414240D01*
X102324371Y-104406304D01*
X102382783Y-104352680D01*
X102391333Y-104319719D01*
X102411607Y-104281710D01*
X102484546Y-104276315D01*
X102550083Y-104285213D01*
X102668204Y-104306786D01*
X102753336Y-104325711D01*
X102761750Y-104328136D01*
X102798732Y-104378174D01*
X102813080Y-104474702D01*
X102804581Y-104582567D01*
X102773022Y-104666617D01*
X102763866Y-104677533D01*
X102698695Y-104700381D01*
X102568893Y-104716417D01*
X102394216Y-104725692D01*
X102194421Y-104728256D01*
X101989266Y-104724159D01*
X101798507Y-104713451D01*
X101641902Y-104696183D01*
X101544667Y-104674436D01*
X101404784Y-104618722D01*
X101328141Y-104564314D01*
X101296104Y-104490963D01*
X101290018Y-104397751D01*
X101280689Y-104267145D01*
X101241733Y-104189623D01*
X101154669Y-104147357D01*
X101005214Y-104122999D01*
X100875489Y-104110773D01*
X100805809Y-104118253D01*
X100772339Y-104153636D01*
X100755260Y-104208958D01*
X100712653Y-104335443D01*
X100670557Y-104429178D01*
X100617341Y-104567624D01*
X100629202Y-104653464D01*
X100705970Y-104685752D01*
X100716668Y-104686000D01*
X100806305Y-104701609D01*
X100846167Y-104728333D01*
X100903395Y-104758833D01*
X100996832Y-104770667D01*
X101084949Y-104780858D01*
X101121333Y-104805184D01*
X101161083Y-104830095D01*
X101270666Y-104859989D01*
X101435589Y-104892317D01*
X101641353Y-104924529D01*
X101873464Y-104954074D01*
X102095000Y-104976463D01*
X102316537Y-105006175D01*
X102528093Y-105052186D01*
X102678650Y-105101057D01*
X102823194Y-105153216D01*
X102953001Y-105186938D01*
X103011635Y-105194000D01*
X103116067Y-105207997D01*
X103266523Y-105243851D01*
X103430264Y-105292359D01*
X103574552Y-105344316D01*
X103623980Y-105366159D01*
X103706135Y-105397296D01*
X103830174Y-105435602D01*
X103877980Y-105448798D01*
X104008730Y-105493373D01*
X104112754Y-105545497D01*
X104135161Y-105562141D01*
X104181503Y-105614009D01*
X104170291Y-105661427D01*
X104126387Y-105712410D01*
X104068590Y-105761139D01*
X103996912Y-105781595D01*
X103883583Y-105778753D01*
X103803513Y-105770255D01*
X103662917Y-105748195D01*
X103554816Y-105721212D01*
X103513854Y-105702571D01*
X103445225Y-105672501D01*
X103328733Y-105643396D01*
X103278233Y-105634577D01*
X103154342Y-105610322D01*
X103065375Y-105583353D01*
X103047500Y-105573921D01*
X102986814Y-105554348D01*
X102866700Y-105532661D01*
X102712143Y-105513298D01*
X102698250Y-105511904D01*
X102549488Y-105493507D01*
X102440444Y-105472823D01*
X102392072Y-105453956D01*
X102391333Y-105451803D01*
X102352254Y-105434169D01*
X102247009Y-105410807D01*
X102093582Y-105385301D01*
X101978583Y-105369529D01*
X101674466Y-105330677D01*
X101443010Y-105300180D01*
X101272825Y-105276181D01*
X101152524Y-105256821D01*
X101070718Y-105240243D01*
X101016019Y-105224590D01*
X100977039Y-105208003D01*
X100971796Y-105205294D01*
X100862644Y-105167926D01*
X100709963Y-105138506D01*
X100548699Y-105121365D01*
X100413801Y-105120833D01*
X100361841Y-105129704D01*
X100291190Y-105186687D01*
X100250325Y-105310810D01*
X100248136Y-105323838D01*
X100223856Y-105428607D01*
X100195841Y-105486387D01*
X100187953Y-105490333D01*
X100156477Y-105526779D01*
X100127082Y-105614715D01*
X100126500Y-105617333D01*
X100096341Y-105706190D01*
X100062295Y-105744308D01*
X100061554Y-105744333D01*
X100030191Y-105781318D01*
X100000834Y-105872337D01*
X99996707Y-105892500D01*
X99969840Y-105990152D01*
X99939588Y-106039282D01*
X99934652Y-106040667D01*
X99902684Y-106077119D01*
X99873078Y-106165068D01*
X99872500Y-106167667D01*
X99841781Y-106256541D01*
X99806399Y-106294643D01*
X99805636Y-106294667D01*
X99773046Y-106329823D01*
X99766666Y-106372204D01*
X99755217Y-106451581D01*
X99725338Y-106582204D01*
X99687552Y-106721454D01*
X99613378Y-106981721D01*
X99559589Y-107186936D01*
X99520467Y-107362588D01*
X99490296Y-107534167D01*
X99465205Y-107712833D01*
X99446573Y-107911919D01*
X99434545Y-108155594D01*
X99429054Y-108422181D01*
X99107372Y-108422181D01*
X99107332Y-108339182D01*
X99108902Y-108007693D01*
X99112195Y-107690209D01*
X99117204Y-107397688D01*
X99123921Y-107141088D01*
X99132338Y-106931366D01*
X99142448Y-106779480D01*
X99154245Y-106696389D01*
X99160060Y-106684387D01*
X99206363Y-106623374D01*
X99238733Y-106537659D01*
X99271537Y-106453761D01*
X99305589Y-106421667D01*
X99341636Y-106388035D01*
X99344770Y-106368750D01*
X99363044Y-106300217D01*
X99407216Y-106191165D01*
X99428000Y-106146500D01*
X99478105Y-106036653D01*
X99507844Y-105959692D01*
X99511230Y-105944807D01*
X99529221Y-105895342D01*
X99576648Y-105787455D01*
X99645607Y-105638712D01*
X99703167Y-105518221D01*
X99782744Y-105348973D01*
X99846010Y-105205723D01*
X99885029Y-105106962D01*
X99893667Y-105074331D01*
X99915328Y-105027449D01*
X99925961Y-105024667D01*
X99969728Y-104992080D01*
X100000045Y-104946931D01*
X100044236Y-104859916D01*
X100111907Y-104721433D01*
X100190908Y-104556822D01*
X100269091Y-104391421D01*
X100334307Y-104250568D01*
X100341326Y-104235102D01*
X100369924Y-104135765D01*
X100388933Y-103980015D01*
X100399193Y-103757924D01*
X100399330Y-103744723D01*
X101402615Y-103744723D01*
X101402802Y-103776992D01*
X101461730Y-103822640D01*
X101576382Y-103838664D01*
X101723579Y-103826136D01*
X101880138Y-103786128D01*
X101965691Y-103750952D01*
X102148618Y-103662572D01*
X102121686Y-103404900D01*
X102098078Y-103255864D01*
X102064658Y-103135070D01*
X102036901Y-103080531D01*
X101977906Y-102994079D01*
X101957916Y-102950333D01*
X101940628Y-102950670D01*
X101918636Y-103019098D01*
X101903870Y-103097128D01*
X101875808Y-103229191D01*
X101841447Y-103328599D01*
X101824228Y-103356525D01*
X101763852Y-103429279D01*
X101715238Y-103495479D01*
X101652442Y-103563560D01*
X101608240Y-103585333D01*
X101525149Y-103611993D01*
X101447014Y-103674073D01*
X101402615Y-103744723D01*
X100399330Y-103744723D01*
X100401667Y-103521107D01*
X100401667Y-102940510D01*
X100553439Y-102733755D01*
X100634459Y-102624102D01*
X100692188Y-102547329D01*
X100712189Y-102522254D01*
X100754558Y-102518328D01*
X100865062Y-102511069D01*
X101027282Y-102501489D01*
X101224796Y-102490598D01*
X101239728Y-102489801D01*
X101473004Y-102473554D01*
X101649551Y-102453255D01*
X101759063Y-102430335D01*
X101790486Y-102413237D01*
X101851042Y-102367484D01*
X101936674Y-102335267D01*
X102020536Y-102303530D01*
X102052667Y-102271774D01*
X102089120Y-102239720D01*
X102177071Y-102210077D01*
X102179667Y-102209500D01*
X102268510Y-102179763D01*
X102306641Y-102146723D01*
X102306667Y-102146000D01*
X102343131Y-102113082D01*
X102431106Y-102083069D01*
X102433667Y-102082500D01*
X102522510Y-102052763D01*
X102560641Y-102019723D01*
X102560667Y-102019000D01*
X102597131Y-101986082D01*
X102685106Y-101956069D01*
X102687667Y-101955500D01*
X102776510Y-101925763D01*
X102814641Y-101892723D01*
X102814667Y-101892000D01*
X102851131Y-101859082D01*
X102939106Y-101829069D01*
X102941667Y-101828500D01*
X103030524Y-101798341D01*
X103068642Y-101764295D01*
X103068667Y-101763554D01*
X103105837Y-101733099D01*
X103198074Y-101703824D01*
X103227417Y-101697898D01*
X103347138Y-101667428D01*
X103434842Y-101629767D01*
X103443228Y-101623857D01*
X103519178Y-101598993D01*
X103658047Y-101583681D01*
X103838688Y-101577400D01*
X104039955Y-101579626D01*
X104039955Y-101579626D01*
G37*
X104039955Y-101579626D02*
X104240701Y-101589838D01*
X104419781Y-101607514D01*
X104556046Y-101632130D01*
X104613833Y-101652769D01*
X104715705Y-101700530D01*
X104790581Y-101722282D01*
X104793750Y-101722406D01*
X104842972Y-101746572D01*
X104846667Y-101760411D01*
X104882544Y-101797678D01*
X104952500Y-101824717D01*
X105031786Y-101858711D01*
X105058333Y-101892806D01*
X105092725Y-101929440D01*
X105123162Y-101934333D01*
X105194200Y-101968511D01*
X105211739Y-101996222D01*
X105268947Y-102059896D01*
X105317470Y-102084130D01*
X105387193Y-102126036D01*
X105492675Y-102211482D01*
X105611641Y-102322356D01*
X105616982Y-102327680D01*
X105735360Y-102453007D01*
X105804460Y-102550863D01*
X105839637Y-102648466D01*
X105853975Y-102747771D01*
X105872571Y-102865478D01*
X105898143Y-102938542D01*
X105912316Y-102950333D01*
X105930000Y-102990258D01*
X105940065Y-103101232D01*
X105943282Y-103270054D01*
X105940422Y-103483524D01*
X105932259Y-103728441D01*
X105919564Y-103991604D01*
X105903109Y-104259813D01*
X105883666Y-104519868D01*
X105862006Y-104758566D01*
X105838903Y-104962708D01*
X105815127Y-105119093D01*
X105791452Y-105214521D01*
X105778631Y-105236333D01*
X105757751Y-105285984D01*
X105730258Y-105395189D01*
X105703493Y-105532667D01*
X105654783Y-105809874D01*
X105616316Y-106013475D01*
X105585795Y-106153595D01*
X105560926Y-106240361D01*
X105539413Y-106283899D01*
X105531517Y-106291296D01*
X105499993Y-106345617D01*
X105469877Y-106448710D01*
X105464688Y-106474583D01*
X105437621Y-106576346D01*
X105406916Y-106630581D01*
X105399793Y-106633333D01*
X105369322Y-106670309D01*
X105340414Y-106761308D01*
X105336293Y-106781500D01*
X105308720Y-106879174D01*
X105276746Y-106928290D01*
X105271445Y-106929667D01*
X105237510Y-106966144D01*
X105207061Y-107054145D01*
X105206500Y-107056667D01*
X105176763Y-107145510D01*
X105143723Y-107183641D01*
X105143000Y-107183667D01*
X105110082Y-107220131D01*
X105080069Y-107308106D01*
X105079500Y-107310667D01*
X105050360Y-107399491D01*
X105018745Y-107437640D01*
X105018047Y-107437667D01*
X104991100Y-107475042D01*
X104964454Y-107568466D01*
X104957410Y-107607000D01*
X104931563Y-107712856D01*
X104899827Y-107771907D01*
X104889958Y-107776333D01*
X104861920Y-107814296D01*
X104834418Y-107911391D01*
X104821504Y-107988000D01*
X104799648Y-108108547D01*
X104774478Y-108185206D01*
X104760703Y-108199667D01*
X104739019Y-108238005D01*
X104715595Y-108337681D01*
X104698500Y-108453667D01*
X104677207Y-108587461D01*
X104651540Y-108679484D01*
X104630843Y-108707667D01*
X104608169Y-108745535D01*
X104594490Y-108841442D01*
X104592667Y-108900085D01*
X104592667Y-109092503D01*
X104751417Y-109063312D01*
X104862396Y-109032841D01*
X104933821Y-108994865D01*
X104940363Y-108987310D01*
X104992505Y-108969705D01*
X105112781Y-108956004D01*
X105284834Y-108946181D01*
X105492307Y-108940208D01*
X105718842Y-108938056D01*
X105948081Y-108939699D01*
X106163667Y-108945110D01*
X106349243Y-108954260D01*
X106488451Y-108967121D01*
X106564934Y-108983668D01*
X106573701Y-108990060D01*
X106634875Y-109036750D01*
X106717277Y-109067964D01*
X106809071Y-109109053D01*
X106853108Y-109155987D01*
X106901690Y-109209720D01*
X106925400Y-109215667D01*
X106985560Y-109244303D01*
X107065831Y-109314051D01*
X107073421Y-109322090D01*
X107172051Y-109428513D01*
X107406359Y-109190432D01*
X107516713Y-109073937D01*
X107599110Y-108978643D01*
X107639023Y-108921593D01*
X107640667Y-108915569D01*
X107668885Y-108870300D01*
X107743586Y-108783800D01*
X107849842Y-108673118D01*
X107873500Y-108649644D01*
X107984103Y-108537172D01*
X108066246Y-108446738D01*
X108105073Y-108394878D01*
X108106333Y-108390517D01*
X108135220Y-108346463D01*
X108212090Y-108259847D01*
X108322254Y-108145037D01*
X108451023Y-108016399D01*
X108583709Y-107888301D01*
X108705625Y-107775109D01*
X108802080Y-107691191D01*
X108858388Y-107650914D01*
X108864100Y-107649333D01*
X108908621Y-107624931D01*
X108910667Y-107614840D01*
X108949205Y-107563601D01*
X109050093Y-107513274D01*
X109191245Y-107470980D01*
X109350572Y-107443838D01*
X109460282Y-107437667D01*
X109603421Y-107441081D01*
X109692384Y-107460065D01*
X109757623Y-107507729D01*
X109829021Y-107596417D01*
X109905030Y-107695322D01*
X109961072Y-107762750D01*
X109974630Y-107776333D01*
X110011207Y-107841264D01*
X110047083Y-107963797D01*
X110076475Y-108117021D01*
X110093599Y-108274024D01*
X110095764Y-108340033D01*
X110089979Y-108471642D01*
X110065145Y-108579208D01*
X110010567Y-108681880D01*
X109915548Y-108798805D01*
X109769391Y-108949133D01*
X109738556Y-108979520D01*
X109603115Y-109117117D01*
X109478692Y-109251471D01*
X109387826Y-109358054D01*
X109373520Y-109376772D01*
X109286718Y-109491699D01*
X109206883Y-109592817D01*
X109196417Y-109605499D01*
X109141312Y-109684092D01*
X109122333Y-109731931D01*
X109097876Y-109794844D01*
X109079215Y-109820703D01*
X108967975Y-109955443D01*
X108902950Y-110042973D01*
X108873494Y-110098816D01*
X108868333Y-110128194D01*
X108901202Y-110177633D01*
X108986812Y-110253648D01*
X109090583Y-110328746D01*
X109268055Y-110454872D01*
X109383635Y-110561197D01*
X109451746Y-110664590D01*
X109486810Y-110781923D01*
X109489014Y-110794827D01*
X109495706Y-110896164D01*
X109466979Y-110977633D01*
X109389230Y-111072720D01*
X109366511Y-111096411D01*
X109272170Y-111184191D01*
X109196017Y-111238767D01*
X109170973Y-111247667D01*
X109124895Y-111273349D01*
X109122333Y-111285411D01*
X109086456Y-111322678D01*
X109016500Y-111349717D01*
X108942768Y-111383961D01*
X108908193Y-111427087D01*
X108926592Y-111456472D01*
X108949547Y-111459333D01*
X108994032Y-111492177D01*
X109058437Y-111574372D01*
X109081341Y-111609669D01*
X109135471Y-111716448D01*
X109159490Y-111829237D01*
X109159809Y-111982929D01*
X109157454Y-112023842D01*
X109133402Y-112196855D01*
X109080558Y-112331243D01*
X108990969Y-112429829D01*
X108856680Y-112495434D01*
X108669740Y-112530880D01*
X108422195Y-112538987D01*
X108106091Y-112522578D01*
X107825145Y-112496496D01*
X107709910Y-112491037D01*
X107649914Y-112513088D01*
X107617780Y-112572018D01*
X107580734Y-112676768D01*
X107560301Y-112731511D01*
X107512172Y-112798424D01*
X107415240Y-112897146D01*
X107286954Y-113013225D01*
X107144760Y-113132210D01*
X107006108Y-113239648D01*
X106888444Y-113321086D01*
X106809218Y-113362074D01*
X106796295Y-113364333D01*
X106730843Y-113383519D01*
X106626979Y-113430759D01*
X106513996Y-113490576D01*
X106421187Y-113547494D01*
X106378169Y-113585243D01*
X106331404Y-113612672D01*
X106234886Y-113639812D01*
X106219419Y-113642871D01*
X106122984Y-113669680D01*
X106075396Y-113700005D01*
X106074333Y-113704348D01*
X106037881Y-113736316D01*
X105949932Y-113765922D01*
X105947333Y-113766500D01*
X105858553Y-113794298D01*
X105820363Y-113822711D01*
X105820333Y-113823345D01*
X105780862Y-113855192D01*
X105673502Y-113889626D01*
X105514834Y-113923459D01*
X105321439Y-113953502D01*
X105109898Y-113976568D01*
X104973667Y-113986141D01*
X104762525Y-113993673D01*
X104614989Y-113988326D01*
X104510735Y-113968386D01*
X104446421Y-113941614D01*
X104358155Y-113901351D01*
X104305430Y-113912200D01*
X104250207Y-113983390D01*
X104245616Y-113990338D01*
X104191833Y-114093747D01*
X104169612Y-114179250D01*
X104150294Y-114242095D01*
X104128918Y-114253333D01*
X104095326Y-114290340D01*
X104064849Y-114381406D01*
X104060707Y-114401500D01*
X104034260Y-114499139D01*
X104005032Y-114548277D01*
X104000314Y-114549667D01*
X103971376Y-114586677D01*
X103936234Y-114680104D01*
X103921755Y-114732202D01*
X103865394Y-114890357D01*
X103785158Y-115046998D01*
X103768562Y-115072749D01*
X103703585Y-115176827D01*
X103665492Y-115253948D01*
X103661333Y-115271213D01*
X103630068Y-115310780D01*
X103621853Y-115311667D01*
X103579342Y-115346724D01*
X103554208Y-115400402D01*
X103504770Y-115487090D01*
X103415668Y-115592388D01*
X103308553Y-115695770D01*
X103205077Y-115776713D01*
X103126891Y-115814692D01*
X103116479Y-115815345D01*
X103029801Y-115799840D01*
X102913394Y-115768108D01*
X102905896Y-115765734D01*
X102739735Y-115677781D01*
X102587401Y-115537528D01*
X102490450Y-115392794D01*
X102312724Y-114998905D01*
X102180096Y-114653898D01*
X102093524Y-114361725D01*
X102053963Y-114126337D01*
X102062372Y-113951685D01*
X102115734Y-113845551D01*
X102234161Y-113780729D01*
X102404672Y-113757300D01*
X102604125Y-113777805D01*
X102645333Y-113787372D01*
X102782010Y-113821995D01*
X102897227Y-113850933D01*
X102925522Y-113857958D01*
X102997995Y-113855637D01*
X103037591Y-113789305D01*
X103042745Y-113770372D01*
X103076727Y-113689284D01*
X103111806Y-113660667D01*
X103146176Y-113625414D01*
X103153333Y-113580631D01*
X103124287Y-113515975D01*
X103027749Y-113480344D01*
X103015750Y-113478280D01*
X102624569Y-113409732D01*
X102291717Y-113340829D01*
X102024819Y-113273382D01*
X101831499Y-113209201D01*
X101773178Y-113183202D01*
X101597929Y-113098652D01*
X101482372Y-113054010D01*
X101412977Y-113046672D01*
X101376218Y-113074034D01*
X101364582Y-113104539D01*
X101319885Y-113169606D01*
X101224639Y-113258097D01*
X101115918Y-113339275D01*
X100876469Y-113503109D01*
X100703768Y-113626668D01*
X100592456Y-113714053D01*
X100537173Y-113769364D01*
X100528667Y-113788661D01*
X100497608Y-113829940D01*
X100414327Y-113909225D01*
X100293670Y-114012845D01*
X100221972Y-114071100D01*
X100058355Y-114206720D01*
X99896121Y-114349635D01*
X99764303Y-114474063D01*
X99737463Y-114501384D01*
X99633292Y-114604519D01*
X99558304Y-114656172D01*
X99486300Y-114668898D01*
X99409158Y-114658729D01*
X99307108Y-114624910D01*
X99259488Y-114578771D01*
X99258667Y-114572171D01*
X99230676Y-114507481D01*
X99160843Y-114417407D01*
X99133834Y-114389014D01*
X99046061Y-114281162D01*
X98987316Y-114172773D01*
X98981079Y-114152924D01*
X98949454Y-114071199D01*
X98918774Y-114041667D01*
X98886720Y-114005213D01*
X98857077Y-113917262D01*
X98856500Y-113914667D01*
X98826539Y-113825815D01*
X98792963Y-113787692D01*
X98792230Y-113787667D01*
X98765495Y-113749871D01*
X98738201Y-113653675D01*
X98726218Y-113586583D01*
X98701451Y-113463478D01*
X98672215Y-113379169D01*
X98658620Y-113360905D01*
X98639777Y-113309784D01*
X98623632Y-113196050D01*
X98613048Y-113041759D01*
X98611579Y-112998427D01*
X98611411Y-112976274D01*
X98988210Y-112976274D01*
X99011274Y-113065700D01*
X99049870Y-113184687D01*
X99096210Y-113308642D01*
X99129227Y-113385500D01*
X99168024Y-113472665D01*
X99223715Y-113601796D01*
X99257650Y-113681833D01*
X99343350Y-113884539D01*
X99403516Y-114019290D01*
X99445876Y-114095990D01*
X99478161Y-114124542D01*
X99508099Y-114114851D01*
X99543419Y-114076819D01*
X99555000Y-114062833D01*
X99615164Y-114009669D01*
X99642970Y-113999333D01*
X99702959Y-113973963D01*
X99809817Y-113906415D01*
X99946061Y-113809527D01*
X100094208Y-113696140D01*
X100236773Y-113579094D01*
X100337020Y-113489609D01*
X100567425Y-113272150D01*
X100742631Y-113104981D01*
X100869655Y-112980967D01*
X100955516Y-112892972D01*
X101007229Y-112833861D01*
X101031811Y-112796497D01*
X101036667Y-112778126D01*
X101002756Y-112734211D01*
X100976694Y-112729333D01*
X100913399Y-112710367D01*
X100902611Y-112697583D01*
X100859948Y-112653535D01*
X100784857Y-112598624D01*
X100709640Y-112558068D01*
X100655146Y-112568315D01*
X100583884Y-112636438D01*
X100583774Y-112636556D01*
X100517327Y-112718568D01*
X100486585Y-112776848D01*
X100486333Y-112779869D01*
X100458007Y-112832047D01*
X100388963Y-112908161D01*
X100380500Y-112916126D01*
X100308740Y-112991736D01*
X100275032Y-113045182D01*
X100274667Y-113048361D01*
X100246301Y-113093414D01*
X100172463Y-113176526D01*
X100084167Y-113265044D01*
X99984238Y-113367234D01*
X99915258Y-113450087D01*
X99893667Y-113490621D01*
X99859389Y-113528806D01*
X99830167Y-113533667D01*
X99773831Y-113556525D01*
X99766667Y-113576000D01*
X99732378Y-113613557D01*
X99703167Y-113618333D01*
X99646839Y-113594920D01*
X99639667Y-113574952D01*
X99604624Y-113529451D01*
X99533833Y-113491333D01*
X99455374Y-113450741D01*
X99427651Y-113418298D01*
X99400684Y-113374315D01*
X99332069Y-113290521D01*
X99239674Y-113186334D01*
X99141366Y-113081172D01*
X99055012Y-112994455D01*
X98998482Y-112945599D01*
X98988466Y-112941000D01*
X98988210Y-112976274D01*
X98611411Y-112976274D01*
X98610214Y-112819146D01*
X98620190Y-112702909D01*
X98645048Y-112628458D01*
X98680990Y-112581675D01*
X98753321Y-112529325D01*
X98822298Y-112542665D01*
X98839166Y-112552569D01*
X98933411Y-112585428D01*
X99062169Y-112601891D01*
X99084996Y-112602333D01*
X99187536Y-112612618D01*
X99274908Y-112652204D01*
X99363907Y-112734186D01*
X99471326Y-112871660D01*
X99521565Y-112942749D01*
X99593964Y-113046833D01*
X99795292Y-112814000D01*
X99923558Y-112670418D01*
X100056718Y-112528808D01*
X100152991Y-112432445D01*
X100244372Y-112337580D01*
X100278367Y-112274406D01*
X100264796Y-112223112D01*
X100260102Y-112216355D01*
X100182235Y-112151517D01*
X100105171Y-112115837D01*
X99941841Y-112033506D01*
X99799236Y-111908298D01*
X99741838Y-111828494D01*
X99662148Y-111679666D01*
X99585236Y-111525521D01*
X99521184Y-111387525D01*
X99480071Y-111287147D01*
X99470333Y-111250288D01*
X99443098Y-111207045D01*
X99432878Y-111205333D01*
X99407601Y-111167177D01*
X99381698Y-111068746D01*
X99366415Y-110973167D01*
X99344277Y-110841082D01*
X99318019Y-110747049D01*
X99301000Y-110718500D01*
X99276473Y-110667307D01*
X99250851Y-110558315D01*
X99234735Y-110453249D01*
X99210860Y-110316352D01*
X99180281Y-110215560D01*
X99157689Y-110180306D01*
X99145208Y-110131266D01*
X99134510Y-110008567D01*
X99125586Y-109823168D01*
X99118430Y-109586025D01*
X99113034Y-109308097D01*
X99109391Y-109000342D01*
X99107493Y-108673718D01*
X99107372Y-108422181D01*
X99429054Y-108422181D01*
X99430034Y-108690003D01*
X99437417Y-108937386D01*
X99451137Y-109142652D01*
X99470036Y-109279167D01*
X99488924Y-109390817D01*
X99511866Y-109561548D01*
X99535665Y-109766085D01*
X99553007Y-109935333D01*
X99581217Y-110159135D01*
X99621583Y-110387696D01*
X99669688Y-110603245D01*
X99721115Y-110788012D01*
X99771444Y-110924225D01*
X99816227Y-110994091D01*
X99846433Y-111047293D01*
X99873733Y-111131674D01*
X99905081Y-111215523D01*
X99936000Y-111247667D01*
X99969802Y-111283489D01*
X99995717Y-111353500D01*
X100029711Y-111432786D01*
X100063806Y-111459333D01*
X100102766Y-111492565D01*
X100105333Y-111510093D01*
X100135704Y-111566484D01*
X100213941Y-111656376D01*
X100320730Y-111761740D01*
X100436755Y-111864547D01*
X100542703Y-111946768D01*
X100619259Y-111990375D01*
X100620191Y-111990676D01*
X100699693Y-112035818D01*
X100805173Y-112119941D01*
X100861263Y-112172596D01*
X101038422Y-112319318D01*
X101271389Y-112468114D01*
X101533456Y-112602081D01*
X101555250Y-112611815D01*
X101637701Y-112657855D01*
X101671667Y-112695781D01*
X101709037Y-112722096D01*
X101802449Y-112748389D01*
X101841000Y-112755410D01*
X101946826Y-112780162D01*
X102005888Y-112809178D01*
X102010333Y-112817952D01*
X102048279Y-112843186D01*
X102145335Y-112868905D01*
X102222000Y-112881496D01*
X102342551Y-112903494D01*
X102419209Y-112929025D01*
X102433667Y-112943084D01*
X102472253Y-112963856D01*
X102573535Y-112986393D01*
X102715796Y-113005893D01*
X102719417Y-113006272D01*
X102870381Y-113025855D01*
X102988675Y-113048360D01*
X103047500Y-113068355D01*
X103113240Y-113095026D01*
X103226584Y-113122611D01*
X103269750Y-113130434D01*
X103379353Y-113155600D01*
X103443098Y-113183953D01*
X103449667Y-113194132D01*
X103485385Y-113228989D01*
X103550830Y-113253545D01*
X103639397Y-113298595D01*
X103677793Y-113346165D01*
X103688050Y-113429774D01*
X103674266Y-113526516D01*
X103644365Y-113600076D01*
X103618401Y-113618333D01*
X103585109Y-113653800D01*
X103529390Y-113747079D01*
X103462924Y-113878490D01*
X103458683Y-113887512D01*
X103362046Y-114057387D01*
X103246125Y-114206869D01*
X103127107Y-114318864D01*
X103021178Y-114376278D01*
X102992024Y-114380333D01*
X102921766Y-114363132D01*
X102822396Y-114321572D01*
X102724232Y-114270713D01*
X102657593Y-114225619D01*
X102645333Y-114208097D01*
X102610745Y-114172289D01*
X102536837Y-114153988D01*
X102468389Y-114160945D01*
X102451231Y-114174495D01*
X102451703Y-114238449D01*
X102467569Y-114265771D01*
X102499923Y-114337584D01*
X102530699Y-114454953D01*
X102538434Y-114496750D01*
X102563858Y-114606362D01*
X102592856Y-114670104D01*
X102603357Y-114676667D01*
X102636023Y-114713128D01*
X102665928Y-114801096D01*
X102666500Y-114803667D01*
X102695879Y-114892499D01*
X102728066Y-114930640D01*
X102728774Y-114930667D01*
X102763447Y-114966519D01*
X102789880Y-115037148D01*
X102830442Y-115135411D01*
X102893298Y-115232555D01*
X102957176Y-115298935D01*
X102986897Y-115311667D01*
X103028205Y-115283640D01*
X103108292Y-115210981D01*
X103187886Y-115131750D01*
X103298071Y-115020602D01*
X103396347Y-114925521D01*
X103442973Y-114883173D01*
X103495630Y-114809274D01*
X103556792Y-114681037D01*
X103613361Y-114525989D01*
X103614189Y-114523340D01*
X103665435Y-114379372D01*
X103738398Y-114200641D01*
X103824669Y-114004934D01*
X103915838Y-113810039D01*
X104003496Y-113633745D01*
X104079235Y-113493840D01*
X104134645Y-113408110D01*
X104148167Y-113393798D01*
X104206822Y-113380994D01*
X104325041Y-113376720D01*
X104481535Y-113379661D01*
X104655013Y-113388501D01*
X104824188Y-113401926D01*
X104967768Y-113418619D01*
X105064465Y-113437265D01*
X105093611Y-113452217D01*
X105139850Y-113472151D01*
X105247085Y-113486242D01*
X105385563Y-113491333D01*
X105551494Y-113485625D01*
X105672727Y-113460794D01*
X105788892Y-113405278D01*
X105881254Y-113346732D01*
X106029989Y-113261886D01*
X106181636Y-113196953D01*
X106266636Y-113173442D01*
X106409152Y-113133096D01*
X106536501Y-113072296D01*
X106548869Y-113064043D01*
X106634618Y-113008734D01*
X106687859Y-112983489D01*
X106689709Y-112983333D01*
X106733115Y-112956063D01*
X106810694Y-112887675D01*
X106842846Y-112856333D01*
X106932852Y-112776875D01*
X107004478Y-112731635D01*
X107019506Y-112727790D01*
X107087575Y-112690401D01*
X107166507Y-112599285D01*
X107239422Y-112480707D01*
X107289437Y-112360932D01*
X107301790Y-112288600D01*
X107316279Y-112169232D01*
X107353110Y-112019635D01*
X107373893Y-111956084D01*
X107416273Y-111814995D01*
X107422659Y-111700739D01*
X107395476Y-111564705D01*
X107393753Y-111558228D01*
X107340686Y-111410290D01*
X107271127Y-111276556D01*
X107247568Y-111242954D01*
X107170170Y-111140624D01*
X107071290Y-111004808D01*
X107005761Y-110912461D01*
X106861758Y-110742988D01*
X106682194Y-110604471D01*
X106447343Y-110483183D01*
X106307167Y-110426284D01*
X106207790Y-110394070D01*
X106095100Y-110371145D01*
X105952551Y-110355931D01*
X105763597Y-110346854D01*
X105511692Y-110342338D01*
X105418167Y-110341617D01*
X104740833Y-110337500D01*
X104740833Y-110213283D01*
X104749918Y-110136798D01*
X104754645Y-110130759D01*
X106963333Y-110130759D01*
X106997428Y-110182287D01*
X107028162Y-110189333D01*
X107099200Y-110223511D01*
X107116739Y-110251222D01*
X107173532Y-110313743D01*
X107227853Y-110340839D01*
X107319160Y-110392345D01*
X107414725Y-110477724D01*
X107488200Y-110569811D01*
X107513667Y-110635486D01*
X107547694Y-110695263D01*
X107577167Y-110712642D01*
X107633482Y-110769217D01*
X107640667Y-110801838D01*
X107661629Y-110859043D01*
X107680147Y-110866667D01*
X107721764Y-110901933D01*
X107749353Y-110961917D01*
X107791697Y-111049659D01*
X107826289Y-111087372D01*
X107849019Y-111145441D01*
X107864585Y-111282701D01*
X107872529Y-111493945D01*
X107873500Y-111621641D01*
X107874621Y-111837034D01*
X107879570Y-111983108D01*
X107890719Y-112075199D01*
X107910446Y-112128640D01*
X107941124Y-112158768D01*
X107958167Y-112168320D01*
X108084916Y-112202928D01*
X108257360Y-112214424D01*
X108439881Y-112203284D01*
X108596859Y-112169982D01*
X108625196Y-112159410D01*
X108729960Y-112100335D01*
X108796247Y-112034991D01*
X108801363Y-112024610D01*
X108792449Y-111951139D01*
X108739142Y-111834090D01*
X108653657Y-111692849D01*
X108548208Y-111546802D01*
X108435008Y-111415332D01*
X108388735Y-111369721D01*
X108302332Y-111264039D01*
X108281291Y-111155430D01*
X108282902Y-111136809D01*
X108296995Y-111064441D01*
X108333177Y-111028402D01*
X108414760Y-111016087D01*
X108508500Y-111014833D01*
X108644519Y-110999660D01*
X108792933Y-110960370D01*
X108930434Y-110906310D01*
X109033718Y-110846824D01*
X109079478Y-110791257D01*
X109080000Y-110785669D01*
X109042615Y-110738921D01*
X108950230Y-110705847D01*
X108864871Y-110697333D01*
X108797947Y-110681330D01*
X108783667Y-110660574D01*
X108746108Y-110632873D01*
X108651888Y-110607299D01*
X108608232Y-110600284D01*
X108492781Y-110576248D01*
X108417209Y-110544741D01*
X108406725Y-110534566D01*
X108349553Y-110493778D01*
X108266396Y-110463703D01*
X108133848Y-110402551D01*
X108073714Y-110300347D01*
X108071524Y-110205741D01*
X108109024Y-110108233D01*
X108206642Y-110051520D01*
X108212167Y-110049733D01*
X108370463Y-109967374D01*
X108538939Y-109815058D01*
X108723804Y-109587125D01*
X108732246Y-109575500D01*
X108805973Y-109480166D01*
X108915310Y-109346823D01*
X109047396Y-109190278D01*
X109189371Y-109025341D01*
X109328375Y-108866819D01*
X109451549Y-108729522D01*
X109546032Y-108628256D01*
X109598088Y-108578474D01*
X109622808Y-108526854D01*
X109652983Y-108419097D01*
X109672327Y-108328459D01*
X109693877Y-108187978D01*
X109687982Y-108088784D01*
X109648212Y-107990147D01*
X109607538Y-107917901D01*
X109523322Y-107800482D01*
X109445881Y-107739110D01*
X109422703Y-107734000D01*
X109329636Y-107766731D01*
X109197602Y-107857953D01*
X109036769Y-107997206D01*
X108857305Y-108174030D01*
X108669380Y-108377966D01*
X108483162Y-108598555D01*
X108308820Y-108825337D01*
X108178418Y-109013846D01*
X107999301Y-109259364D01*
X107809131Y-109451762D01*
X107580648Y-109615603D01*
X107393504Y-109721135D01*
X107288232Y-109789572D01*
X107172316Y-109884382D01*
X107066043Y-109986248D01*
X106989698Y-110075853D01*
X106963333Y-110130759D01*
X104754645Y-110130759D01*
X104790562Y-110084877D01*
X104882849Y-110038429D01*
X104952500Y-110012066D01*
X105044721Y-109983122D01*
X105146970Y-109962761D01*
X105274774Y-109949872D01*
X105443659Y-109943342D01*
X105669153Y-109942059D01*
X105901706Y-109944075D01*
X106639246Y-109953084D01*
X106718551Y-109846863D01*
X106767302Y-109753845D01*
X106773205Y-109679279D01*
X106773189Y-109679238D01*
X106725937Y-109634025D01*
X106620764Y-109565661D01*
X106476797Y-109486087D01*
X106409946Y-109452479D01*
X106071371Y-109287125D01*
X105673159Y-109336062D01*
X105476027Y-109358063D01*
X105290364Y-109374936D01*
X105146255Y-109384085D01*
X105106388Y-109385000D01*
X104928291Y-109417820D01*
X104812053Y-109490833D01*
X104713360Y-109559921D01*
X104630243Y-109595410D01*
X104618305Y-109596667D01*
X104559361Y-109628642D01*
X104550333Y-109660167D01*
X104513079Y-109710752D01*
X104433917Y-109723018D01*
X104341537Y-109718313D01*
X104276045Y-109697116D01*
X104232831Y-109647017D01*
X104207288Y-109555602D01*
X104194808Y-109410459D01*
X104190782Y-109199177D01*
X104190500Y-109067331D01*
X104193518Y-108803553D01*
X104202901Y-108618409D01*
X104219137Y-108506072D01*
X104241427Y-108461436D01*
X104279329Y-108402874D01*
X104312760Y-108294263D01*
X104320921Y-108251315D01*
X104345584Y-108142133D01*
X104373804Y-108078946D01*
X104383816Y-108072667D01*
X104409897Y-108035000D01*
X104436486Y-107939651D01*
X104446713Y-107882167D01*
X104470623Y-107768781D01*
X104498336Y-107700580D01*
X104510213Y-107691667D01*
X104536653Y-107653997D01*
X104563459Y-107558642D01*
X104573713Y-107501167D01*
X104597623Y-107387781D01*
X104625336Y-107319580D01*
X104637213Y-107310667D01*
X104663653Y-107272997D01*
X104690459Y-107177642D01*
X104700713Y-107120167D01*
X104724623Y-107006781D01*
X104752336Y-106938580D01*
X104764213Y-106929667D01*
X104790653Y-106891997D01*
X104817459Y-106796642D01*
X104827713Y-106739167D01*
X104851850Y-106625774D01*
X104880133Y-106557575D01*
X104892348Y-106548667D01*
X104917927Y-106510718D01*
X104943865Y-106413658D01*
X104956496Y-106337000D01*
X104978234Y-106216456D01*
X105003105Y-106139797D01*
X105016647Y-106125333D01*
X105041381Y-106087676D01*
X105067159Y-105992351D01*
X105077287Y-105934833D01*
X105101184Y-105821448D01*
X105128861Y-105753247D01*
X105140716Y-105744333D01*
X105164547Y-105706179D01*
X105189510Y-105607728D01*
X105204668Y-105511500D01*
X105226333Y-105384176D01*
X105251754Y-105299606D01*
X105268889Y-105278667D01*
X105291841Y-105240321D01*
X105316139Y-105140625D01*
X105333509Y-105024591D01*
X105354658Y-104886260D01*
X105379597Y-104785318D01*
X105398698Y-104748450D01*
X105420303Y-104698208D01*
X105443255Y-104587076D01*
X105462745Y-104438605D01*
X105463502Y-104431026D01*
X105482680Y-104285377D01*
X105505774Y-104179873D01*
X105528012Y-104135889D01*
X105529470Y-104135667D01*
X105547090Y-104096795D01*
X105560124Y-103993969D01*
X105566172Y-103847875D01*
X105566333Y-103818167D01*
X105561833Y-103666407D01*
X105549928Y-103554142D01*
X105533013Y-103502055D01*
X105529574Y-103500667D01*
X105501873Y-103463108D01*
X105476299Y-103368888D01*
X105469284Y-103325232D01*
X105445959Y-103209920D01*
X105416213Y-103134577D01*
X105406728Y-103124149D01*
X105368748Y-103067452D01*
X105339211Y-102982083D01*
X105305708Y-102897924D01*
X105269193Y-102865667D01*
X105232392Y-102831346D01*
X105227667Y-102801887D01*
X105197884Y-102731748D01*
X105125815Y-102649593D01*
X105121833Y-102646086D01*
X105048618Y-102570141D01*
X105015135Y-102511229D01*
X105014941Y-102508782D01*
X104983946Y-102446185D01*
X104905426Y-102350149D01*
X104798309Y-102239698D01*
X104681525Y-102133857D01*
X104573999Y-102051651D01*
X104538755Y-102030156D01*
X104449009Y-101993050D01*
X104331979Y-101970515D01*
X104167709Y-101960029D01*
X103973595Y-101958723D01*
X103742377Y-101965179D01*
X103562776Y-101986268D01*
X103406290Y-102030591D01*
X103244420Y-102106743D01*
X103048664Y-102223323D01*
X103005037Y-102250913D01*
X102866957Y-102330873D01*
X102737726Y-102392900D01*
X102673436Y-102415643D01*
X102569229Y-102454241D01*
X102447707Y-102516249D01*
X102333190Y-102586823D01*
X102249995Y-102651121D01*
X102222000Y-102691155D01*
X102245765Y-102747406D01*
X102300736Y-102828207D01*
X102366695Y-102945372D01*
X102406570Y-103066750D01*
X102442063Y-103247242D01*
X102468883Y-103360376D01*
X102497080Y-103421367D01*
X102536700Y-103445428D01*
X102597795Y-103447773D01*
X102656241Y-103444748D01*
X102768564Y-103446233D01*
X102826026Y-103474681D01*
X102857744Y-103546266D01*
X102861226Y-103558609D01*
X102865231Y-103676351D01*
X102825838Y-103788349D01*
X102757489Y-103864932D01*
X102703964Y-103881667D01*
X102650800Y-103904252D01*
X102645333Y-103920636D01*
X102608839Y-103955923D01*
X102520803Y-103986950D01*
X102518333Y-103987500D01*
X102429489Y-104017237D01*
X102391359Y-104050276D01*
X102391333Y-104051000D01*
X102354869Y-104083917D01*
X102266894Y-104113930D01*
X102264333Y-104114500D01*
X102175459Y-104145218D01*
X102137357Y-104180600D01*
X102137333Y-104181363D01*
X102103211Y-104216414D01*
X102076857Y-104220333D01*
X102002033Y-104246452D01*
X101934375Y-104305808D01*
X101901972Y-104369901D01*
X101906609Y-104393079D01*
X101961792Y-104417682D01*
X102067696Y-104430111D01*
X102191114Y-104429314D01*
X102298833Y-104414240D01*
X102324371Y-104406304D01*
X102382783Y-104352680D01*
X102391333Y-104319719D01*
X102411607Y-104281710D01*
X102484546Y-104276315D01*
X102550083Y-104285213D01*
X102668204Y-104306786D01*
X102753336Y-104325711D01*
X102761750Y-104328136D01*
X102798732Y-104378174D01*
X102813080Y-104474702D01*
X102804581Y-104582567D01*
X102773022Y-104666617D01*
X102763866Y-104677533D01*
X102698695Y-104700381D01*
X102568893Y-104716417D01*
X102394216Y-104725692D01*
X102194421Y-104728256D01*
X101989266Y-104724159D01*
X101798507Y-104713451D01*
X101641902Y-104696183D01*
X101544667Y-104674436D01*
X101404784Y-104618722D01*
X101328141Y-104564314D01*
X101296104Y-104490963D01*
X101290018Y-104397751D01*
X101280689Y-104267145D01*
X101241733Y-104189623D01*
X101154669Y-104147357D01*
X101005214Y-104122999D01*
X100875489Y-104110773D01*
X100805809Y-104118253D01*
X100772339Y-104153636D01*
X100755260Y-104208958D01*
X100712653Y-104335443D01*
X100670557Y-104429178D01*
X100617341Y-104567624D01*
X100629202Y-104653464D01*
X100705970Y-104685752D01*
X100716668Y-104686000D01*
X100806305Y-104701609D01*
X100846167Y-104728333D01*
X100903395Y-104758833D01*
X100996832Y-104770667D01*
X101084949Y-104780858D01*
X101121333Y-104805184D01*
X101161083Y-104830095D01*
X101270666Y-104859989D01*
X101435589Y-104892317D01*
X101641353Y-104924529D01*
X101873464Y-104954074D01*
X102095000Y-104976463D01*
X102316537Y-105006175D01*
X102528093Y-105052186D01*
X102678650Y-105101057D01*
X102823194Y-105153216D01*
X102953001Y-105186938D01*
X103011635Y-105194000D01*
X103116067Y-105207997D01*
X103266523Y-105243851D01*
X103430264Y-105292359D01*
X103574552Y-105344316D01*
X103623980Y-105366159D01*
X103706135Y-105397296D01*
X103830174Y-105435602D01*
X103877980Y-105448798D01*
X104008730Y-105493373D01*
X104112754Y-105545497D01*
X104135161Y-105562141D01*
X104181503Y-105614009D01*
X104170291Y-105661427D01*
X104126387Y-105712410D01*
X104068590Y-105761139D01*
X103996912Y-105781595D01*
X103883583Y-105778753D01*
X103803513Y-105770255D01*
X103662917Y-105748195D01*
X103554816Y-105721212D01*
X103513854Y-105702571D01*
X103445225Y-105672501D01*
X103328733Y-105643396D01*
X103278233Y-105634577D01*
X103154342Y-105610322D01*
X103065375Y-105583353D01*
X103047500Y-105573921D01*
X102986814Y-105554348D01*
X102866700Y-105532661D01*
X102712143Y-105513298D01*
X102698250Y-105511904D01*
X102549488Y-105493507D01*
X102440444Y-105472823D01*
X102392072Y-105453956D01*
X102391333Y-105451803D01*
X102352254Y-105434169D01*
X102247009Y-105410807D01*
X102093582Y-105385301D01*
X101978583Y-105369529D01*
X101674466Y-105330677D01*
X101443010Y-105300180D01*
X101272825Y-105276181D01*
X101152524Y-105256821D01*
X101070718Y-105240243D01*
X101016019Y-105224590D01*
X100977039Y-105208003D01*
X100971796Y-105205294D01*
X100862644Y-105167926D01*
X100709963Y-105138506D01*
X100548699Y-105121365D01*
X100413801Y-105120833D01*
X100361841Y-105129704D01*
X100291190Y-105186687D01*
X100250325Y-105310810D01*
X100248136Y-105323838D01*
X100223856Y-105428607D01*
X100195841Y-105486387D01*
X100187953Y-105490333D01*
X100156477Y-105526779D01*
X100127082Y-105614715D01*
X100126500Y-105617333D01*
X100096341Y-105706190D01*
X100062295Y-105744308D01*
X100061554Y-105744333D01*
X100030191Y-105781318D01*
X100000834Y-105872337D01*
X99996707Y-105892500D01*
X99969840Y-105990152D01*
X99939588Y-106039282D01*
X99934652Y-106040667D01*
X99902684Y-106077119D01*
X99873078Y-106165068D01*
X99872500Y-106167667D01*
X99841781Y-106256541D01*
X99806399Y-106294643D01*
X99805636Y-106294667D01*
X99773046Y-106329823D01*
X99766666Y-106372204D01*
X99755217Y-106451581D01*
X99725338Y-106582204D01*
X99687552Y-106721454D01*
X99613378Y-106981721D01*
X99559589Y-107186936D01*
X99520467Y-107362588D01*
X99490296Y-107534167D01*
X99465205Y-107712833D01*
X99446573Y-107911919D01*
X99434545Y-108155594D01*
X99429054Y-108422181D01*
X99107372Y-108422181D01*
X99107332Y-108339182D01*
X99108902Y-108007693D01*
X99112195Y-107690209D01*
X99117204Y-107397688D01*
X99123921Y-107141088D01*
X99132338Y-106931366D01*
X99142448Y-106779480D01*
X99154245Y-106696389D01*
X99160060Y-106684387D01*
X99206363Y-106623374D01*
X99238733Y-106537659D01*
X99271537Y-106453761D01*
X99305589Y-106421667D01*
X99341636Y-106388035D01*
X99344770Y-106368750D01*
X99363044Y-106300217D01*
X99407216Y-106191165D01*
X99428000Y-106146500D01*
X99478105Y-106036653D01*
X99507844Y-105959692D01*
X99511230Y-105944807D01*
X99529221Y-105895342D01*
X99576648Y-105787455D01*
X99645607Y-105638712D01*
X99703167Y-105518221D01*
X99782744Y-105348973D01*
X99846010Y-105205723D01*
X99885029Y-105106962D01*
X99893667Y-105074331D01*
X99915328Y-105027449D01*
X99925961Y-105024667D01*
X99969728Y-104992080D01*
X100000045Y-104946931D01*
X100044236Y-104859916D01*
X100111907Y-104721433D01*
X100190908Y-104556822D01*
X100269091Y-104391421D01*
X100334307Y-104250568D01*
X100341326Y-104235102D01*
X100369924Y-104135765D01*
X100388933Y-103980015D01*
X100399193Y-103757924D01*
X100399330Y-103744723D01*
X101402615Y-103744723D01*
X101402802Y-103776992D01*
X101461730Y-103822640D01*
X101576382Y-103838664D01*
X101723579Y-103826136D01*
X101880138Y-103786128D01*
X101965691Y-103750952D01*
X102148618Y-103662572D01*
X102121686Y-103404900D01*
X102098078Y-103255864D01*
X102064658Y-103135070D01*
X102036901Y-103080531D01*
X101977906Y-102994079D01*
X101957916Y-102950333D01*
X101940628Y-102950670D01*
X101918636Y-103019098D01*
X101903870Y-103097128D01*
X101875808Y-103229191D01*
X101841447Y-103328599D01*
X101824228Y-103356525D01*
X101763852Y-103429279D01*
X101715238Y-103495479D01*
X101652442Y-103563560D01*
X101608240Y-103585333D01*
X101525149Y-103611993D01*
X101447014Y-103674073D01*
X101402615Y-103744723D01*
X100399330Y-103744723D01*
X100401667Y-103521107D01*
X100401667Y-102940510D01*
X100553439Y-102733755D01*
X100634459Y-102624102D01*
X100692188Y-102547329D01*
X100712189Y-102522254D01*
X100754558Y-102518328D01*
X100865062Y-102511069D01*
X101027282Y-102501489D01*
X101224796Y-102490598D01*
X101239728Y-102489801D01*
X101473004Y-102473554D01*
X101649551Y-102453255D01*
X101759063Y-102430335D01*
X101790486Y-102413237D01*
X101851042Y-102367484D01*
X101936674Y-102335267D01*
X102020536Y-102303530D01*
X102052667Y-102271774D01*
X102089120Y-102239720D01*
X102177071Y-102210077D01*
X102179667Y-102209500D01*
X102268510Y-102179763D01*
X102306641Y-102146723D01*
X102306667Y-102146000D01*
X102343131Y-102113082D01*
X102431106Y-102083069D01*
X102433667Y-102082500D01*
X102522510Y-102052763D01*
X102560641Y-102019723D01*
X102560667Y-102019000D01*
X102597131Y-101986082D01*
X102685106Y-101956069D01*
X102687667Y-101955500D01*
X102776510Y-101925763D01*
X102814641Y-101892723D01*
X102814667Y-101892000D01*
X102851131Y-101859082D01*
X102939106Y-101829069D01*
X102941667Y-101828500D01*
X103030524Y-101798341D01*
X103068642Y-101764295D01*
X103068667Y-101763554D01*
X103105837Y-101733099D01*
X103198074Y-101703824D01*
X103227417Y-101697898D01*
X103347138Y-101667428D01*
X103434842Y-101629767D01*
X103443228Y-101623857D01*
X103519178Y-101598993D01*
X103658047Y-101583681D01*
X103838688Y-101577400D01*
X104039955Y-101579626D01*
G36*
X105506713Y-112952826D02*
X105576207Y-113031185D01*
X105601577Y-113133042D01*
X105600639Y-113144734D01*
X105573668Y-113229364D01*
X105501238Y-113265307D01*
X105458978Y-113271089D01*
X105358598Y-113271019D01*
X105300228Y-113253451D01*
X105271753Y-113176249D01*
X105276502Y-113067091D01*
X105309842Y-112969752D01*
X105333288Y-112941176D01*
X105417579Y-112916609D01*
X105506713Y-112952826D01*
X105506713Y-112952826D01*
G37*
X105506713Y-112952826D02*
X105576207Y-113031185D01*
X105601577Y-113133042D01*
X105600639Y-113144734D01*
X105573668Y-113229364D01*
X105501238Y-113265307D01*
X105458978Y-113271089D01*
X105358598Y-113271019D01*
X105300228Y-113253451D01*
X105271753Y-113176249D01*
X105276502Y-113067091D01*
X105309842Y-112969752D01*
X105333288Y-112941176D01*
X105417579Y-112916609D01*
X105506713Y-112952826D01*
G36*
X105154475Y-112359670D02*
X105217083Y-112375015D01*
X105296881Y-112430853D01*
X105312333Y-112496908D01*
X105277955Y-112590667D01*
X105188255Y-112637615D01*
X105063388Y-112629310D01*
X105026583Y-112616630D01*
X104988489Y-112563271D01*
X104973667Y-112471805D01*
X104988767Y-112384971D01*
X105044047Y-112349577D01*
X105154475Y-112359670D01*
X105154475Y-112359670D01*
G37*
X105154475Y-112359670D02*
X105217083Y-112375015D01*
X105296881Y-112430853D01*
X105312333Y-112496908D01*
X105277955Y-112590667D01*
X105188255Y-112637615D01*
X105063388Y-112629310D01*
X105026583Y-112616630D01*
X104988489Y-112563271D01*
X104973667Y-112471805D01*
X104988767Y-112384971D01*
X105044047Y-112349577D01*
X105154475Y-112359670D01*
G36*
X105188618Y-111673307D02*
X105201971Y-111695629D01*
X105225899Y-111855142D01*
X105171229Y-111989627D01*
X105042619Y-112089441D01*
X105003542Y-112106300D01*
X104942573Y-112106693D01*
X104931333Y-112071838D01*
X104905209Y-112016406D01*
X104883708Y-112009667D01*
X104858580Y-111975436D01*
X104860177Y-111892867D01*
X104883559Y-111792142D01*
X104923783Y-111703443D01*
X104936768Y-111685618D01*
X105016686Y-111637876D01*
X105113676Y-111634265D01*
X105188618Y-111673307D01*
X105188618Y-111673307D01*
G37*
X105188618Y-111673307D02*
X105201971Y-111695629D01*
X105225899Y-111855142D01*
X105171229Y-111989627D01*
X105042619Y-112089441D01*
X105003542Y-112106300D01*
X104942573Y-112106693D01*
X104931333Y-112071838D01*
X104905209Y-112016406D01*
X104883708Y-112009667D01*
X104858580Y-111975436D01*
X104860177Y-111892867D01*
X104883559Y-111792142D01*
X104923783Y-111703443D01*
X104936768Y-111685618D01*
X105016686Y-111637876D01*
X105113676Y-111634265D01*
X105188618Y-111673307D01*
G36*
X103260549Y-106968226D02*
X103275837Y-107068958D01*
X103280333Y-107183667D01*
X103274662Y-107317628D01*
X103259922Y-107409666D01*
X103242878Y-107437667D01*
X103217625Y-107475829D01*
X103191718Y-107574299D01*
X103176331Y-107670500D01*
X103153981Y-107797843D01*
X103126797Y-107882413D01*
X103107954Y-107903333D01*
X103077334Y-107939228D01*
X103068801Y-107998583D01*
X103056172Y-108093154D01*
X103022757Y-108242551D01*
X102975509Y-108421608D01*
X102921381Y-108605156D01*
X102867326Y-108768031D01*
X102829313Y-108865384D01*
X102793922Y-108980082D01*
X102762052Y-109141398D01*
X102743316Y-109288718D01*
X102705403Y-109517469D01*
X102640643Y-109719169D01*
X102618645Y-109766000D01*
X102549371Y-109902458D01*
X102488769Y-110026265D01*
X102470094Y-110066179D01*
X102393155Y-110166843D01*
X102310512Y-110223938D01*
X102161161Y-110295911D01*
X102027117Y-110371751D01*
X101928146Y-110439154D01*
X101884012Y-110485821D01*
X101883333Y-110489817D01*
X101920384Y-110515724D01*
X102010726Y-110527872D01*
X102022080Y-110528000D01*
X102195219Y-110563497D01*
X102321368Y-110664101D01*
X102381976Y-110791601D01*
X102426862Y-110902617D01*
X102477661Y-110938746D01*
X102523353Y-110897532D01*
X102545122Y-110827971D01*
X102572306Y-110737515D01*
X102602337Y-110697444D01*
X102603702Y-110697333D01*
X102636975Y-110661519D01*
X102662717Y-110591500D01*
X102712937Y-110501922D01*
X102791556Y-110483609D01*
X102885421Y-110534058D01*
X102981379Y-110650764D01*
X102982355Y-110652338D01*
X103062037Y-110760975D01*
X103115451Y-110791376D01*
X103138644Y-110744423D01*
X103127664Y-110620998D01*
X103127473Y-110619949D01*
X103094172Y-110502341D01*
X103037729Y-110359217D01*
X102970555Y-110216815D01*
X102905060Y-110101374D01*
X102853654Y-110039131D01*
X102852375Y-110038308D01*
X102824203Y-109978256D01*
X102817442Y-109862427D01*
X102828380Y-109712937D01*
X102853303Y-109551900D01*
X102888502Y-109401434D01*
X102930264Y-109283652D01*
X102974877Y-109220671D01*
X102990444Y-109215667D01*
X103018497Y-109178716D01*
X103046189Y-109087771D01*
X103050293Y-109067500D01*
X103077160Y-108969848D01*
X103107412Y-108920718D01*
X103112348Y-108919333D01*
X103144316Y-108882881D01*
X103173922Y-108794932D01*
X103174500Y-108792333D01*
X103203816Y-108703503D01*
X103235851Y-108665360D01*
X103236557Y-108665333D01*
X103262538Y-108627667D01*
X103289067Y-108532320D01*
X103299287Y-108474833D01*
X103323549Y-108361437D01*
X103352146Y-108293239D01*
X103364548Y-108284333D01*
X103389382Y-108246174D01*
X103415012Y-108147709D01*
X103430331Y-108051500D01*
X103451603Y-107924188D01*
X103476013Y-107839618D01*
X103492166Y-107818667D01*
X103519625Y-107781495D01*
X103546844Y-107689254D01*
X103552508Y-107659917D01*
X103604308Y-107454911D01*
X103675323Y-107305153D01*
X103758894Y-107218759D01*
X103848357Y-107203844D01*
X103902818Y-107233180D01*
X103937668Y-107281043D01*
X103952573Y-107362503D01*
X103949929Y-107497955D01*
X103943717Y-107581198D01*
X103926928Y-107730977D01*
X103906258Y-107844949D01*
X103886089Y-107899165D01*
X103885466Y-107899671D01*
X103854546Y-107950622D01*
X103809565Y-108056521D01*
X103773088Y-108157333D01*
X103712319Y-108325958D01*
X103645726Y-108494714D01*
X103614338Y-108567761D01*
X103566097Y-108683938D01*
X103537609Y-108770116D01*
X103534333Y-108790011D01*
X103503854Y-108832985D01*
X103492500Y-108834667D01*
X103460363Y-108872084D01*
X103430822Y-108965599D01*
X103423590Y-109004000D01*
X103398940Y-109109823D01*
X103370179Y-109168887D01*
X103361508Y-109173333D01*
X103331500Y-109210304D01*
X103302824Y-109301293D01*
X103298707Y-109321500D01*
X103271840Y-109419152D01*
X103241588Y-109468282D01*
X103236652Y-109469667D01*
X103204684Y-109506119D01*
X103175078Y-109594068D01*
X103174500Y-109596667D01*
X103143781Y-109685541D01*
X103108399Y-109723643D01*
X103107636Y-109723667D01*
X103072225Y-109757003D01*
X103072775Y-109841127D01*
X103105238Y-109952208D01*
X103165567Y-110066417D01*
X103165968Y-110067009D01*
X103235763Y-110177657D01*
X103285488Y-110270093D01*
X103291639Y-110284583D01*
X103334779Y-110346928D01*
X103361753Y-110358667D01*
X103401761Y-110395894D01*
X103427698Y-110488552D01*
X103436371Y-110608108D01*
X103424582Y-110726028D01*
X103408773Y-110778524D01*
X103311169Y-110943326D01*
X103187493Y-111042494D01*
X103049544Y-111067186D01*
X103028036Y-111063857D01*
X102955190Y-111057087D01*
X102888993Y-111077549D01*
X102809701Y-111136749D01*
X102697574Y-111246192D01*
X102674558Y-111269866D01*
X102533129Y-111404482D01*
X102425080Y-111478551D01*
X102336357Y-111501658D01*
X102334692Y-111501667D01*
X102244371Y-111484452D01*
X102202843Y-111448750D01*
X102189092Y-111376874D01*
X102173506Y-111256744D01*
X102167315Y-111197203D01*
X102134085Y-111028135D01*
X102064925Y-110922139D01*
X101946191Y-110860603D01*
X101914016Y-110851671D01*
X101763718Y-110786329D01*
X101662786Y-110686759D01*
X101629333Y-110579989D01*
X101663581Y-110421503D01*
X101752829Y-110283894D01*
X101876838Y-110197987D01*
X101881198Y-110196421D01*
X102025363Y-110115892D01*
X102172953Y-109985164D01*
X102301784Y-109829279D01*
X102389675Y-109673283D01*
X102412511Y-109596598D01*
X102437550Y-109490864D01*
X102465465Y-109431805D01*
X102473642Y-109427333D01*
X102493640Y-109388728D01*
X102515068Y-109287402D01*
X102533359Y-109145087D01*
X102533699Y-109141583D01*
X102557849Y-108963210D01*
X102592453Y-108791616D01*
X102622587Y-108686500D01*
X102662805Y-108548808D01*
X102684645Y-108422468D01*
X102685808Y-108400750D01*
X102697830Y-108316198D01*
X102721614Y-108284333D01*
X102743953Y-108245814D01*
X102771645Y-108144115D01*
X102799195Y-108000026D01*
X102802764Y-107977417D01*
X102855595Y-107655533D01*
X102904503Y-107409568D01*
X102952441Y-107231052D01*
X103002364Y-107111516D01*
X103057227Y-107042491D01*
X103119983Y-107015509D01*
X103138728Y-107014333D01*
X103190717Y-106989214D01*
X103195667Y-106972000D01*
X103227881Y-106930897D01*
X103238000Y-106929667D01*
X103260549Y-106968226D01*
X103260549Y-106968226D01*
G37*
X103260549Y-106968226D02*
X103275837Y-107068958D01*
X103280333Y-107183667D01*
X103274662Y-107317628D01*
X103259922Y-107409666D01*
X103242878Y-107437667D01*
X103217625Y-107475829D01*
X103191718Y-107574299D01*
X103176331Y-107670500D01*
X103153981Y-107797843D01*
X103126797Y-107882413D01*
X103107954Y-107903333D01*
X103077334Y-107939228D01*
X103068801Y-107998583D01*
X103056172Y-108093154D01*
X103022757Y-108242551D01*
X102975509Y-108421608D01*
X102921381Y-108605156D01*
X102867326Y-108768031D01*
X102829313Y-108865384D01*
X102793922Y-108980082D01*
X102762052Y-109141398D01*
X102743316Y-109288718D01*
X102705403Y-109517469D01*
X102640643Y-109719169D01*
X102618645Y-109766000D01*
X102549371Y-109902458D01*
X102488769Y-110026265D01*
X102470094Y-110066179D01*
X102393155Y-110166843D01*
X102310512Y-110223938D01*
X102161161Y-110295911D01*
X102027117Y-110371751D01*
X101928146Y-110439154D01*
X101884012Y-110485821D01*
X101883333Y-110489817D01*
X101920384Y-110515724D01*
X102010726Y-110527872D01*
X102022080Y-110528000D01*
X102195219Y-110563497D01*
X102321368Y-110664101D01*
X102381976Y-110791601D01*
X102426862Y-110902617D01*
X102477661Y-110938746D01*
X102523353Y-110897532D01*
X102545122Y-110827971D01*
X102572306Y-110737515D01*
X102602337Y-110697444D01*
X102603702Y-110697333D01*
X102636975Y-110661519D01*
X102662717Y-110591500D01*
X102712937Y-110501922D01*
X102791556Y-110483609D01*
X102885421Y-110534058D01*
X102981379Y-110650764D01*
X102982355Y-110652338D01*
X103062037Y-110760975D01*
X103115451Y-110791376D01*
X103138644Y-110744423D01*
X103127664Y-110620998D01*
X103127473Y-110619949D01*
X103094172Y-110502341D01*
X103037729Y-110359217D01*
X102970555Y-110216815D01*
X102905060Y-110101374D01*
X102853654Y-110039131D01*
X102852375Y-110038308D01*
X102824203Y-109978256D01*
X102817442Y-109862427D01*
X102828380Y-109712937D01*
X102853303Y-109551900D01*
X102888502Y-109401434D01*
X102930264Y-109283652D01*
X102974877Y-109220671D01*
X102990444Y-109215667D01*
X103018497Y-109178716D01*
X103046189Y-109087771D01*
X103050293Y-109067500D01*
X103077160Y-108969848D01*
X103107412Y-108920718D01*
X103112348Y-108919333D01*
X103144316Y-108882881D01*
X103173922Y-108794932D01*
X103174500Y-108792333D01*
X103203816Y-108703503D01*
X103235851Y-108665360D01*
X103236557Y-108665333D01*
X103262538Y-108627667D01*
X103289067Y-108532320D01*
X103299287Y-108474833D01*
X103323549Y-108361437D01*
X103352146Y-108293239D01*
X103364548Y-108284333D01*
X103389382Y-108246174D01*
X103415012Y-108147709D01*
X103430331Y-108051500D01*
X103451603Y-107924188D01*
X103476013Y-107839618D01*
X103492166Y-107818667D01*
X103519625Y-107781495D01*
X103546844Y-107689254D01*
X103552508Y-107659917D01*
X103604308Y-107454911D01*
X103675323Y-107305153D01*
X103758894Y-107218759D01*
X103848357Y-107203844D01*
X103902818Y-107233180D01*
X103937668Y-107281043D01*
X103952573Y-107362503D01*
X103949929Y-107497955D01*
X103943717Y-107581198D01*
X103926928Y-107730977D01*
X103906258Y-107844949D01*
X103886089Y-107899165D01*
X103885466Y-107899671D01*
X103854546Y-107950622D01*
X103809565Y-108056521D01*
X103773088Y-108157333D01*
X103712319Y-108325958D01*
X103645726Y-108494714D01*
X103614338Y-108567761D01*
X103566097Y-108683938D01*
X103537609Y-108770116D01*
X103534333Y-108790011D01*
X103503854Y-108832985D01*
X103492500Y-108834667D01*
X103460363Y-108872084D01*
X103430822Y-108965599D01*
X103423590Y-109004000D01*
X103398940Y-109109823D01*
X103370179Y-109168887D01*
X103361508Y-109173333D01*
X103331500Y-109210304D01*
X103302824Y-109301293D01*
X103298707Y-109321500D01*
X103271840Y-109419152D01*
X103241588Y-109468282D01*
X103236652Y-109469667D01*
X103204684Y-109506119D01*
X103175078Y-109594068D01*
X103174500Y-109596667D01*
X103143781Y-109685541D01*
X103108399Y-109723643D01*
X103107636Y-109723667D01*
X103072225Y-109757003D01*
X103072775Y-109841127D01*
X103105238Y-109952208D01*
X103165567Y-110066417D01*
X103165968Y-110067009D01*
X103235763Y-110177657D01*
X103285488Y-110270093D01*
X103291639Y-110284583D01*
X103334779Y-110346928D01*
X103361753Y-110358667D01*
X103401761Y-110395894D01*
X103427698Y-110488552D01*
X103436371Y-110608108D01*
X103424582Y-110726028D01*
X103408773Y-110778524D01*
X103311169Y-110943326D01*
X103187493Y-111042494D01*
X103049544Y-111067186D01*
X103028036Y-111063857D01*
X102955190Y-111057087D01*
X102888993Y-111077549D01*
X102809701Y-111136749D01*
X102697574Y-111246192D01*
X102674558Y-111269866D01*
X102533129Y-111404482D01*
X102425080Y-111478551D01*
X102336357Y-111501658D01*
X102334692Y-111501667D01*
X102244371Y-111484452D01*
X102202843Y-111448750D01*
X102189092Y-111376874D01*
X102173506Y-111256744D01*
X102167315Y-111197203D01*
X102134085Y-111028135D01*
X102064925Y-110922139D01*
X101946191Y-110860603D01*
X101914016Y-110851671D01*
X101763718Y-110786329D01*
X101662786Y-110686759D01*
X101629333Y-110579989D01*
X101663581Y-110421503D01*
X101752829Y-110283894D01*
X101876838Y-110197987D01*
X101881198Y-110196421D01*
X102025363Y-110115892D01*
X102172953Y-109985164D01*
X102301784Y-109829279D01*
X102389675Y-109673283D01*
X102412511Y-109596598D01*
X102437550Y-109490864D01*
X102465465Y-109431805D01*
X102473642Y-109427333D01*
X102493640Y-109388728D01*
X102515068Y-109287402D01*
X102533359Y-109145087D01*
X102533699Y-109141583D01*
X102557849Y-108963210D01*
X102592453Y-108791616D01*
X102622587Y-108686500D01*
X102662805Y-108548808D01*
X102684645Y-108422468D01*
X102685808Y-108400750D01*
X102697830Y-108316198D01*
X102721614Y-108284333D01*
X102743953Y-108245814D01*
X102771645Y-108144115D01*
X102799195Y-108000026D01*
X102802764Y-107977417D01*
X102855595Y-107655533D01*
X102904503Y-107409568D01*
X102952441Y-107231052D01*
X103002364Y-107111516D01*
X103057227Y-107042491D01*
X103119983Y-107015509D01*
X103138728Y-107014333D01*
X103190717Y-106989214D01*
X103195667Y-106972000D01*
X103227881Y-106930897D01*
X103238000Y-106929667D01*
X103260549Y-106968226D01*
G36*
X105826515Y-110899696D02*
X105862984Y-110951926D01*
X105887131Y-111046489D01*
X105883480Y-111160748D01*
X105857542Y-111264123D01*
X105814825Y-111326031D01*
X105794455Y-111332333D01*
X105741170Y-111310895D01*
X105735667Y-111295292D01*
X105699095Y-111262033D01*
X105610900Y-111233302D01*
X105608667Y-111232850D01*
X105526580Y-111202145D01*
X105481002Y-111160944D01*
X105486303Y-111128289D01*
X105524000Y-111120667D01*
X105563139Y-111087131D01*
X105566333Y-111066575D01*
X105597897Y-110999557D01*
X105669971Y-110924386D01*
X105748631Y-110873255D01*
X105776994Y-110866667D01*
X105826515Y-110899696D01*
X105826515Y-110899696D01*
G37*
X105826515Y-110899696D02*
X105862984Y-110951926D01*
X105887131Y-111046489D01*
X105883480Y-111160748D01*
X105857542Y-111264123D01*
X105814825Y-111326031D01*
X105794455Y-111332333D01*
X105741170Y-111310895D01*
X105735667Y-111295292D01*
X105699095Y-111262033D01*
X105610900Y-111233302D01*
X105608667Y-111232850D01*
X105526580Y-111202145D01*
X105481002Y-111160944D01*
X105486303Y-111128289D01*
X105524000Y-111120667D01*
X105563139Y-111087131D01*
X105566333Y-111066575D01*
X105597897Y-110999557D01*
X105669971Y-110924386D01*
X105748631Y-110873255D01*
X105776994Y-110866667D01*
X105826515Y-110899696D01*
G36*
X105568245Y-109495049D02*
X105663549Y-109559159D01*
X105720148Y-109643934D01*
X105731174Y-109731315D01*
X105689761Y-109803242D01*
X105589040Y-109841656D01*
X105582804Y-109842326D01*
X105489360Y-109839699D01*
X105429188Y-109794382D01*
X105381721Y-109708928D01*
X105327489Y-109579341D01*
X105321943Y-109506407D01*
X105368829Y-109475023D01*
X105441103Y-109469667D01*
X105568245Y-109495049D01*
X105568245Y-109495049D01*
G37*
X105568245Y-109495049D02*
X105663549Y-109559159D01*
X105720148Y-109643934D01*
X105731174Y-109731315D01*
X105689761Y-109803242D01*
X105589040Y-109841656D01*
X105582804Y-109842326D01*
X105489360Y-109839699D01*
X105429188Y-109794382D01*
X105381721Y-109708928D01*
X105327489Y-109579341D01*
X105321943Y-109506407D01*
X105368829Y-109475023D01*
X105441103Y-109469667D01*
X105568245Y-109495049D01*
G36*
X104358405Y-103484228D02*
X104513696Y-103494588D01*
X104624999Y-103511031D01*
X104669778Y-103530775D01*
X104730026Y-103576120D01*
X104812277Y-103606964D01*
X104904071Y-103648053D01*
X104948108Y-103694987D01*
X104995101Y-103748691D01*
X105017695Y-103754667D01*
X105099419Y-103792266D01*
X105172643Y-103888096D01*
X105208999Y-103982386D01*
X105241729Y-104064005D01*
X105274589Y-104093333D01*
X105297101Y-104131179D01*
X105310603Y-104226931D01*
X105312333Y-104283833D01*
X105304592Y-104397452D01*
X105285005Y-104465599D01*
X105273363Y-104474333D01*
X105238077Y-104510828D01*
X105207050Y-104598864D01*
X105206500Y-104601333D01*
X105177121Y-104690166D01*
X105144934Y-104728307D01*
X105144226Y-104728333D01*
X105109516Y-104764176D01*
X105083229Y-104834379D01*
X105035089Y-104917533D01*
X104939192Y-105019272D01*
X104856390Y-105087330D01*
X104751319Y-105160400D01*
X104663354Y-105204203D01*
X104564476Y-105226284D01*
X104426666Y-105234187D01*
X104306917Y-105235284D01*
X104146964Y-105231643D01*
X104025541Y-105221031D01*
X103962371Y-105205472D01*
X103957667Y-105199454D01*
X103919715Y-105173412D01*
X103822649Y-105147180D01*
X103746000Y-105134496D01*
X103625412Y-105111168D01*
X103548757Y-105082248D01*
X103534333Y-105065542D01*
X103498404Y-105033771D01*
X103437908Y-105024667D01*
X103323983Y-104985777D01*
X103225188Y-104882259D01*
X103191215Y-104815343D01*
X103788333Y-104815343D01*
X103826002Y-104841706D01*
X103921356Y-104868465D01*
X103978833Y-104878713D01*
X104092234Y-104903141D01*
X104160431Y-104932157D01*
X104169333Y-104944807D01*
X104205860Y-104975307D01*
X104298880Y-104984605D01*
X104423552Y-104975017D01*
X104555035Y-104948864D01*
X104668490Y-104908462D01*
X104691737Y-104896048D01*
X104806177Y-104801981D01*
X104882366Y-104665311D01*
X104901569Y-104610298D01*
X104933311Y-104469031D01*
X104943805Y-104328555D01*
X104933914Y-104212471D01*
X104904502Y-104144379D01*
X104884195Y-104135667D01*
X104850628Y-104101427D01*
X104846667Y-104073880D01*
X104818766Y-104013264D01*
X104752273Y-103928875D01*
X104673005Y-103848749D01*
X104606778Y-103800922D01*
X104591715Y-103797000D01*
X104582454Y-103835616D01*
X104579955Y-103937063D01*
X104584713Y-104079736D01*
X104585059Y-104085949D01*
X104589381Y-104256421D01*
X104576729Y-104364468D01*
X104544058Y-104431179D01*
X104533526Y-104442759D01*
X104479332Y-104513749D01*
X104465667Y-104552612D01*
X104429146Y-104590029D01*
X104341057Y-104621968D01*
X104338667Y-104622500D01*
X104249792Y-104653218D01*
X104211690Y-104688600D01*
X104211667Y-104689363D01*
X104175110Y-104717835D01*
X104095250Y-104728911D01*
X103958248Y-104740142D01*
X103848602Y-104767696D01*
X103791485Y-104804484D01*
X103788333Y-104815343D01*
X103191215Y-104815343D01*
X103183700Y-104800542D01*
X103139520Y-104739243D01*
X103112328Y-104728333D01*
X103084988Y-104690781D01*
X103069781Y-104596969D01*
X103068667Y-104559000D01*
X103077482Y-104452955D01*
X103099503Y-104393980D01*
X103108406Y-104389667D01*
X103137717Y-104351976D01*
X103166249Y-104256574D01*
X103176713Y-104199167D01*
X103201141Y-104085766D01*
X103230157Y-104017569D01*
X103242807Y-104008667D01*
X103275929Y-103974219D01*
X103280333Y-103943838D01*
X103313957Y-103872653D01*
X103340013Y-103856108D01*
X103396073Y-103800536D01*
X103424778Y-103733258D01*
X103481161Y-103643150D01*
X103545015Y-103603616D01*
X103632820Y-103561256D01*
X103670577Y-103526711D01*
X103725045Y-103505353D01*
X103842447Y-103490513D01*
X104001396Y-103482104D01*
X104180511Y-103480038D01*
X104358405Y-103484228D01*
X104358405Y-103484228D01*
G37*
X104358405Y-103484228D02*
X104513696Y-103494588D01*
X104624999Y-103511031D01*
X104669778Y-103530775D01*
X104730026Y-103576120D01*
X104812277Y-103606964D01*
X104904071Y-103648053D01*
X104948108Y-103694987D01*
X104995101Y-103748691D01*
X105017695Y-103754667D01*
X105099419Y-103792266D01*
X105172643Y-103888096D01*
X105208999Y-103982386D01*
X105241729Y-104064005D01*
X105274589Y-104093333D01*
X105297101Y-104131179D01*
X105310603Y-104226931D01*
X105312333Y-104283833D01*
X105304592Y-104397452D01*
X105285005Y-104465599D01*
X105273363Y-104474333D01*
X105238077Y-104510828D01*
X105207050Y-104598864D01*
X105206500Y-104601333D01*
X105177121Y-104690166D01*
X105144934Y-104728307D01*
X105144226Y-104728333D01*
X105109516Y-104764176D01*
X105083229Y-104834379D01*
X105035089Y-104917533D01*
X104939192Y-105019272D01*
X104856390Y-105087330D01*
X104751319Y-105160400D01*
X104663354Y-105204203D01*
X104564476Y-105226284D01*
X104426666Y-105234187D01*
X104306917Y-105235284D01*
X104146964Y-105231643D01*
X104025541Y-105221031D01*
X103962371Y-105205472D01*
X103957667Y-105199454D01*
X103919715Y-105173412D01*
X103822649Y-105147180D01*
X103746000Y-105134496D01*
X103625412Y-105111168D01*
X103548757Y-105082248D01*
X103534333Y-105065542D01*
X103498404Y-105033771D01*
X103437908Y-105024667D01*
X103323983Y-104985777D01*
X103225188Y-104882259D01*
X103191215Y-104815343D01*
X103788333Y-104815343D01*
X103826002Y-104841706D01*
X103921356Y-104868465D01*
X103978833Y-104878713D01*
X104092234Y-104903141D01*
X104160431Y-104932157D01*
X104169333Y-104944807D01*
X104205860Y-104975307D01*
X104298880Y-104984605D01*
X104423552Y-104975017D01*
X104555035Y-104948864D01*
X104668490Y-104908462D01*
X104691737Y-104896048D01*
X104806177Y-104801981D01*
X104882366Y-104665311D01*
X104901569Y-104610298D01*
X104933311Y-104469031D01*
X104943805Y-104328555D01*
X104933914Y-104212471D01*
X104904502Y-104144379D01*
X104884195Y-104135667D01*
X104850628Y-104101427D01*
X104846667Y-104073880D01*
X104818766Y-104013264D01*
X104752273Y-103928875D01*
X104673005Y-103848749D01*
X104606778Y-103800922D01*
X104591715Y-103797000D01*
X104582454Y-103835616D01*
X104579955Y-103937063D01*
X104584713Y-104079736D01*
X104585059Y-104085949D01*
X104589381Y-104256421D01*
X104576729Y-104364468D01*
X104544058Y-104431179D01*
X104533526Y-104442759D01*
X104479332Y-104513749D01*
X104465667Y-104552612D01*
X104429146Y-104590029D01*
X104341057Y-104621968D01*
X104338667Y-104622500D01*
X104249792Y-104653218D01*
X104211690Y-104688600D01*
X104211667Y-104689363D01*
X104175110Y-104717835D01*
X104095250Y-104728911D01*
X103958248Y-104740142D01*
X103848602Y-104767696D01*
X103791485Y-104804484D01*
X103788333Y-104815343D01*
X103191215Y-104815343D01*
X103183700Y-104800542D01*
X103139520Y-104739243D01*
X103112328Y-104728333D01*
X103084988Y-104690781D01*
X103069781Y-104596969D01*
X103068667Y-104559000D01*
X103077482Y-104452955D01*
X103099503Y-104393980D01*
X103108406Y-104389667D01*
X103137717Y-104351976D01*
X103166249Y-104256574D01*
X103176713Y-104199167D01*
X103201141Y-104085766D01*
X103230157Y-104017569D01*
X103242807Y-104008667D01*
X103275929Y-103974219D01*
X103280333Y-103943838D01*
X103313957Y-103872653D01*
X103340013Y-103856108D01*
X103396073Y-103800536D01*
X103424778Y-103733258D01*
X103481161Y-103643150D01*
X103545015Y-103603616D01*
X103632820Y-103561256D01*
X103670577Y-103526711D01*
X103725045Y-103505353D01*
X103842447Y-103490513D01*
X104001396Y-103482104D01*
X104180511Y-103480038D01*
X104358405Y-103484228D01*
D14*
X78040000Y-66960000D03*
D15*
X78040000Y-69500000D03*
X75500000Y-66960000D03*
X75500000Y-69500000D03*
X72960000Y-66960000D03*
X72960000Y-69500000D03*
D16*
X65000000Y-125000000D03*
X65000000Y-65000000D03*
X135000000Y-65000000D03*
X135000000Y-135000000D03*
D17*
X136000000Y-74000000D03*
D18*
X138540000Y-74000000D03*
D19*
X125250000Y-117500000D03*
X125250000Y-127660000D03*
X125250000Y-137820000D03*
X104930000Y-117500000D03*
X104930000Y-125120000D03*
X104930000Y-130200000D03*
D20*
X99140000Y-120500000D03*
X96600000Y-120500000D03*
X94060000Y-120500000D03*
X88980000Y-120500000D03*
X86440000Y-120500000D03*
X83900000Y-120500000D03*
X81360000Y-120500000D03*
X120500000Y-93090000D03*
X120500000Y-95630000D03*
X120500000Y-98170000D03*
X120500000Y-103250000D03*
X120500000Y-105790000D03*
X120500000Y-108330000D03*
X120500000Y-110870000D03*
D21*
X64250000Y-116545000D03*
X62980000Y-116545000D03*
X64250000Y-115275000D03*
X62980000Y-115275000D03*
X64250000Y-114005000D03*
X62980000Y-114005000D03*
X64250000Y-112735000D03*
X62980000Y-112735000D03*
X64250000Y-111465000D03*
X62980000Y-111465000D03*
X64250000Y-110195000D03*
X62980000Y-110195000D03*
X64250000Y-108925000D03*
X62980000Y-108925000D03*
X64250000Y-107655000D03*
X62980000Y-107655000D03*
X64250000Y-106385000D03*
X62980000Y-106385000D03*
X64250000Y-105115000D03*
X62980000Y-105115000D03*
X64250000Y-103845000D03*
X62980000Y-103845000D03*
X64250000Y-102575000D03*
X62980000Y-102575000D03*
X83455000Y-64250000D03*
X83455000Y-62980000D03*
X84725000Y-64250000D03*
X84725000Y-62980000D03*
X85995000Y-64250000D03*
X85995000Y-62980000D03*
X87265000Y-64250000D03*
X87265000Y-62980000D03*
X88535000Y-64250000D03*
X88535000Y-62980000D03*
X89805000Y-64250000D03*
X89805000Y-62980000D03*
X91075000Y-64250000D03*
X91075000Y-62980000D03*
X92345000Y-64250000D03*
X92345000Y-62980000D03*
X93615000Y-64250000D03*
X93615000Y-62980000D03*
X94885000Y-64250000D03*
X94885000Y-62980000D03*
X96155000Y-64250000D03*
X96155000Y-62980000D03*
X97425000Y-64250000D03*
X97425000Y-62980000D03*
X135750000Y-83455000D03*
X137020000Y-83455000D03*
X135750000Y-84725000D03*
X137020000Y-84725000D03*
X135750000Y-85995000D03*
X137020000Y-85995000D03*
X135750000Y-87265000D03*
X137020000Y-87265000D03*
X135750000Y-88535000D03*
X137020000Y-88535000D03*
X135750000Y-89805000D03*
X137020000Y-89805000D03*
X135750000Y-91075000D03*
X137020000Y-91075000D03*
X135750000Y-92345000D03*
X137020000Y-92345000D03*
X135750000Y-93615000D03*
X137020000Y-93615000D03*
X135750000Y-94885000D03*
X137020000Y-94885000D03*
X135750000Y-96155000D03*
X137020000Y-96155000D03*
X135750000Y-97425000D03*
X137020000Y-97425000D03*
X64250000Y-97425000D03*
X62980000Y-97425000D03*
X64250000Y-96155000D03*
X62980000Y-96155000D03*
X64250000Y-94885000D03*
X62980000Y-94885000D03*
X64250000Y-93615000D03*
X62980000Y-93615000D03*
X64250000Y-92345000D03*
X62980000Y-92345000D03*
X64250000Y-91075000D03*
X62980000Y-91075000D03*
X64250000Y-89805000D03*
X62980000Y-89805000D03*
X64250000Y-88535000D03*
X62980000Y-88535000D03*
X64250000Y-87265000D03*
X62980000Y-87265000D03*
X64250000Y-85995000D03*
X62980000Y-85995000D03*
X64250000Y-84725000D03*
X62980000Y-84725000D03*
X64250000Y-83455000D03*
X62980000Y-83455000D03*
X102575000Y-64250000D03*
X102575000Y-62980000D03*
X103845000Y-64250000D03*
X103845000Y-62980000D03*
X105115000Y-64250000D03*
X105115000Y-62980000D03*
X106385000Y-64250000D03*
X106385000Y-62980000D03*
X107655000Y-64250000D03*
X107655000Y-62980000D03*
X108925000Y-64250000D03*
X108925000Y-62980000D03*
X110195000Y-64250000D03*
X110195000Y-62980000D03*
X111465000Y-64250000D03*
X111465000Y-62980000D03*
X112735000Y-64250000D03*
X112735000Y-62980000D03*
X114005000Y-64250000D03*
X114005000Y-62980000D03*
X115275000Y-64250000D03*
X115275000Y-62980000D03*
X116545000Y-64250000D03*
X116545000Y-62980000D03*
X135750000Y-102575000D03*
X137020000Y-102575000D03*
X135750000Y-103845000D03*
X137020000Y-103845000D03*
X135750000Y-105115000D03*
X137020000Y-105115000D03*
X135750000Y-106385000D03*
X137020000Y-106385000D03*
X135750000Y-107655000D03*
X137020000Y-107655000D03*
X135750000Y-108925000D03*
X137020000Y-108925000D03*
X135750000Y-110195000D03*
X137020000Y-110195000D03*
X135750000Y-111465000D03*
X137020000Y-111465000D03*
X135750000Y-112735000D03*
X137020000Y-112735000D03*
X135750000Y-114005000D03*
X137020000Y-114005000D03*
X135750000Y-115275000D03*
X137020000Y-115275000D03*
X135750000Y-116545000D03*
X137020000Y-116545000D03*
D20*
X97250000Y-117250000D03*
X94710000Y-117250000D03*
X92170000Y-117250000D03*
D22*
X84000000Y-82879984D03*
D21*
X106700000Y-60700000D03*
X112400000Y-60700000D03*
X73800000Y-107000000D03*
X73800000Y-108300000D03*
X85800000Y-67300000D03*
X84700000Y-68400000D03*
X82000000Y-65700000D03*
X132000000Y-78600000D03*
X130700000Y-78600000D03*
D22*
X107700000Y-65500000D03*
X80000000Y-115000000D03*
X87500000Y-115000000D03*
X128500000Y-102200000D03*
X68350000Y-108500000D03*
X68350000Y-106600000D03*
X131400000Y-93700000D03*
X94200000Y-68600000D03*
X92300000Y-68600000D03*
X74500000Y-132500000D03*
X82500000Y-128500000D03*
X74750000Y-140000000D03*
X81000000Y-140000000D03*
X82000000Y-133750000D03*
X99464408Y-88293269D03*
X100000000Y-88250019D03*
X129750000Y-97000000D03*
X99000000Y-63250000D03*
X99000000Y-64000000D03*
X99000000Y-64750000D03*
X100669988Y-67250242D03*
X100250000Y-67750000D03*
X109500000Y-79259990D03*
X72750000Y-122750000D03*
X98740009Y-100818589D03*
X104952821Y-89013496D03*
X114500000Y-76000000D03*
X75250000Y-88250000D03*
X104374529Y-78295019D03*
X77000000Y-140000000D03*
X75750000Y-140000000D03*
X68251624Y-139779990D03*
X68250000Y-132500000D03*
D21*
X126250000Y-102500000D03*
D22*
X108750000Y-68000000D03*
X117957991Y-81740010D03*
X68000000Y-91500000D03*
X71750000Y-127750000D03*
X78000000Y-120250000D03*
X103750002Y-85000000D03*
X84911886Y-96080943D03*
X78259990Y-101154990D03*
X90250000Y-91250000D03*
X82560857Y-101097724D03*
X89979697Y-105520303D03*
X86250000Y-110250000D03*
X85780011Y-101285846D03*
X74000010Y-111000000D03*
X89500000Y-101085969D03*
X75000000Y-111000000D03*
X90000000Y-100250000D03*
X76000000Y-111000000D03*
X91000000Y-100999970D03*
X77444209Y-111001412D03*
X78233968Y-110981416D03*
X92500000Y-100499996D03*
X93990010Y-100469018D03*
X89750000Y-110200076D03*
X94909047Y-100455906D03*
X90750000Y-110200076D03*
X91750000Y-110200076D03*
X95750000Y-100500002D03*
X96030681Y-101528016D03*
X92750000Y-110200076D03*
X99550006Y-100746853D03*
X86249996Y-111050011D03*
X100750000Y-100750000D03*
X88079994Y-111249990D03*
X81500000Y-111250000D03*
X102000000Y-100750004D03*
X79990010Y-111129428D03*
X103500006Y-100750000D03*
X89474147Y-91700000D03*
X81458094Y-100540083D03*
X91250000Y-90750000D03*
X84250000Y-101000000D03*
X92600000Y-90200000D03*
X88014136Y-100421767D03*
X61250000Y-78500000D03*
X62500000Y-78000000D03*
X100500000Y-79250000D03*
X68400000Y-86200000D03*
X89729968Y-79952549D03*
D21*
X96750000Y-79250000D03*
X138750000Y-82250000D03*
X94500000Y-79250000D03*
D22*
X99750000Y-75250000D03*
X97282252Y-95913357D03*
X69749996Y-132500000D03*
X84692009Y-80269709D03*
X79121073Y-98759990D03*
X70457305Y-98759990D03*
X79249996Y-74250000D03*
X85000000Y-85900012D03*
X84000000Y-100250000D03*
X79250000Y-88000000D03*
X92320757Y-74571093D03*
X94345672Y-85573317D03*
X78250000Y-100250000D03*
X119750000Y-87000000D03*
X91199523Y-79811136D03*
X118500000Y-85750000D03*
X92500000Y-104000000D03*
X89750000Y-67750000D03*
X93369568Y-81500000D03*
X93058623Y-104558623D03*
X128750000Y-84782106D03*
X62800000Y-76400000D03*
X108750000Y-65750000D03*
X89750000Y-66500000D03*
X100000000Y-70250000D03*
X96449824Y-86118813D03*
X88000000Y-86750000D03*
X64750000Y-72500000D03*
X125500000Y-94750000D03*
X97500000Y-88250000D03*
X133250000Y-79250000D03*
X65500000Y-78250000D03*
X133750000Y-77500000D03*
X97000000Y-74500000D03*
X110250000Y-87750000D03*
X131750000Y-73750000D03*
X66500000Y-73250000D03*
X129940011Y-101314854D03*
X96750000Y-102500000D03*
X97125000Y-67000000D03*
X67180000Y-102805000D03*
X119362738Y-78759990D03*
X119500000Y-68500000D03*
X121826551Y-78759990D03*
D21*
X126000000Y-98250000D03*
X97500000Y-122750000D03*
D22*
X98662263Y-95757459D03*
X98523965Y-90900010D03*
X93419567Y-80229786D03*
X117509990Y-103750000D03*
X115750000Y-82000000D03*
X79250000Y-89000000D03*
X72750000Y-114500000D03*
X79065746Y-90006865D03*
X73750000Y-115750000D03*
X79065746Y-91216260D03*
X73717542Y-99759990D03*
X104700416Y-84065009D03*
X100024490Y-84629968D03*
X97600000Y-82800000D03*
X94059579Y-83000000D03*
X93250000Y-69500000D03*
X89750000Y-84000000D03*
X89764790Y-88000000D03*
X129500000Y-95750000D03*
X69750000Y-104000000D03*
X73901140Y-86750000D03*
X79065746Y-92178802D03*
X75000000Y-115500000D03*
X89027084Y-82783591D03*
X111200000Y-108600004D03*
X82500000Y-114000000D03*
X89320289Y-106070283D03*
X82749990Y-110986276D03*
X94899087Y-74929078D03*
X117000000Y-77500000D03*
X93911089Y-75316745D03*
X60749990Y-76250000D03*
X88153053Y-74629968D03*
X123250000Y-86999969D03*
X114750000Y-70250000D03*
X87500000Y-70000000D03*
X69200000Y-81600000D03*
X78250000Y-85000000D03*
X85440001Y-80015491D03*
X86250000Y-104000000D03*
X77538898Y-129729350D03*
X78250000Y-132750000D03*
X79500000Y-132750000D03*
X74250000Y-128000000D03*
X77000000Y-132500000D03*
X87853161Y-81674205D03*
X72500000Y-132500000D03*
X75750000Y-132500000D03*
X71000000Y-132500000D03*
X120750000Y-86750010D03*
X95291057Y-75655820D03*
X95578916Y-95326641D03*
X129500000Y-98000000D03*
X67000000Y-94750000D03*
X98000000Y-70250000D03*
X103750000Y-70250000D03*
X98226733Y-86226733D03*
X92000000Y-87639024D03*
X91900598Y-101037367D03*
X92400000Y-70000000D03*
X69600000Y-101000000D03*
X121250000Y-70250000D03*
X94200000Y-70270011D03*
X109500000Y-87500000D03*
X93189085Y-87735619D03*
X102578469Y-70128770D03*
X127750000Y-69000000D03*
D21*
X114138692Y-100250000D03*
D23*
X108750000Y-68000000D02*
X117957991Y-77207991D01*
X117957991Y-77207991D02*
X117957991Y-81740010D01*
D24*
X61549999Y-78799999D02*
X61250000Y-78500000D01*
X65750000Y-83000000D02*
X61549999Y-78799999D01*
X65750000Y-93774178D02*
X65750000Y-83000000D01*
X64250000Y-94885000D02*
X64639178Y-94885000D01*
X64639178Y-94885000D02*
X65750000Y-93774178D01*
X105115000Y-64250000D02*
X105115000Y-74635000D01*
X105115000Y-74635000D02*
X100500000Y-79250000D01*
X115250000Y-62247894D02*
X115250000Y-61000000D01*
X115275000Y-62980000D02*
X115275000Y-62272894D01*
X115275000Y-62272894D02*
X115250000Y-62247894D01*
X117044999Y-62455001D02*
X117750000Y-61750000D01*
X116545000Y-62980000D02*
X117044999Y-62480001D01*
X117044999Y-62480001D02*
X117044999Y-62455001D01*
X62980000Y-83455000D02*
X61775000Y-82250000D01*
X62980000Y-83455000D02*
X62480001Y-82955001D01*
X62480001Y-82955001D02*
X62455001Y-82955001D01*
X137020000Y-116545000D02*
X138500000Y-118025000D01*
X97250000Y-95456841D02*
X97250000Y-90750000D01*
X99750000Y-80250000D02*
X99750000Y-75674264D01*
X98966730Y-89033270D02*
X100311951Y-89033270D01*
X97282252Y-95489093D02*
X97250000Y-95456841D01*
X100766236Y-88578985D02*
X100766236Y-81266236D01*
X100766236Y-81266236D02*
X99750000Y-80250000D01*
X99750000Y-75674264D02*
X99750000Y-75250000D01*
X97282252Y-95913357D02*
X97282252Y-95489093D01*
X100311951Y-89033270D02*
X100766236Y-88578985D01*
X97250000Y-90750000D02*
X98966730Y-89033270D01*
X70049995Y-132200001D02*
X69749996Y-132500000D01*
X72920012Y-129329984D02*
X70049995Y-132200001D01*
X72920012Y-124829988D02*
X72920012Y-129329984D01*
X70757304Y-122667280D02*
X72920012Y-124829988D01*
X70757304Y-99059989D02*
X70757304Y-122667280D01*
X70457305Y-98759990D02*
X70757304Y-99059989D01*
X78821074Y-98459991D02*
X79121073Y-98759990D01*
X77250000Y-96888917D02*
X78821074Y-98459991D01*
X77250000Y-76249996D02*
X77250000Y-96888917D01*
X79249996Y-74250000D02*
X77250000Y-76249996D01*
X84700001Y-86200011D02*
X85000000Y-85900012D01*
X84000000Y-86900012D02*
X84700001Y-86200011D01*
X84000000Y-100250000D02*
X84000000Y-86900012D01*
X80000000Y-99000000D02*
X80000000Y-88325736D01*
X79674264Y-88000000D02*
X79250000Y-88000000D01*
X80000000Y-88325736D02*
X79674264Y-88000000D01*
X78750000Y-100250000D02*
X80000000Y-99000000D01*
X78250000Y-100250000D02*
X78750000Y-100250000D01*
X91059989Y-79950670D02*
X91199523Y-79811136D01*
X92500000Y-104000000D02*
X91000000Y-104000000D01*
X91059989Y-80695100D02*
X91059989Y-79950670D01*
X91000000Y-104000000D02*
X88700000Y-101700000D01*
X88700000Y-101700000D02*
X88700000Y-100831105D01*
X88700000Y-100831105D02*
X88754137Y-100776968D01*
X88754137Y-100776968D02*
X88754137Y-90745863D01*
X88754137Y-90745863D02*
X90710033Y-88789967D01*
X90710033Y-88789967D02*
X90710033Y-81045056D01*
X90710033Y-81045056D02*
X91059989Y-80695100D01*
X93058623Y-104558623D02*
X93250000Y-104367246D01*
X93250000Y-104367246D02*
X93250000Y-98750000D01*
X93250000Y-98750000D02*
X94000000Y-98000000D01*
X94000000Y-98000000D02*
X94000000Y-86312506D01*
X94000000Y-86312506D02*
X93319569Y-85632075D01*
X93319569Y-85632075D02*
X93319569Y-81974263D01*
X93319569Y-81974263D02*
X93369568Y-81924264D01*
X93369568Y-81924264D02*
X93369568Y-81500000D01*
X62800000Y-76400000D02*
X62800000Y-76824264D01*
X62800000Y-76824264D02*
X66500000Y-80524264D01*
X66500000Y-94000000D02*
X65500000Y-95000000D01*
X66500000Y-80524264D02*
X66500000Y-94000000D01*
X65500000Y-95000000D02*
X65500000Y-109652106D01*
X65500000Y-109652106D02*
X64957106Y-110195000D01*
X64957106Y-110195000D02*
X64250000Y-110195000D01*
X103845000Y-64250000D02*
X103845000Y-66405000D01*
X103845000Y-66405000D02*
X100000000Y-70250000D01*
X94885000Y-64250000D02*
X94885000Y-66885000D01*
X95750000Y-67750000D02*
X95750000Y-74345202D01*
X94885000Y-66885000D02*
X95750000Y-67750000D01*
X95750000Y-74345202D02*
X97750000Y-76345202D01*
X97750000Y-76345202D02*
X97750000Y-80500000D01*
X97750000Y-80500000D02*
X96449824Y-81800176D01*
X96449824Y-81800176D02*
X96449824Y-85694549D01*
X96449824Y-85694549D02*
X96449824Y-86118813D01*
X133250000Y-79250000D02*
X133250000Y-103322106D01*
X133250000Y-103322106D02*
X135042894Y-105115000D01*
X135042894Y-105115000D02*
X135750000Y-105115000D01*
X133750000Y-77500000D02*
X134000000Y-77750000D01*
X134000000Y-77750000D02*
X134000000Y-102802106D01*
X134000000Y-102802106D02*
X135042894Y-103845000D01*
X135042894Y-103845000D02*
X135750000Y-103845000D01*
X134690011Y-76690011D02*
X132049999Y-74049999D01*
X134690011Y-89452117D02*
X134690011Y-76690011D01*
X132049999Y-74049999D02*
X131750000Y-73750000D01*
X135042894Y-89805000D02*
X134690011Y-89452117D01*
X135750000Y-89805000D02*
X135042894Y-89805000D01*
X96559989Y-90440011D02*
X96559989Y-95344809D01*
X96770682Y-102055054D02*
X96750000Y-102075736D01*
X96770682Y-96847544D02*
X96770682Y-102055054D01*
X97125000Y-67000000D02*
X97125000Y-73570252D01*
X96259999Y-96336861D02*
X96770682Y-96847544D01*
X96750000Y-102075736D02*
X96750000Y-102500000D01*
X96259999Y-95644799D02*
X96259999Y-96336861D01*
X98509999Y-88490001D02*
X96559989Y-90440011D01*
X98509999Y-87894799D02*
X98509999Y-88490001D01*
X99000000Y-87404798D02*
X98509999Y-87894799D01*
X97125000Y-73570252D02*
X98449546Y-74894798D01*
X98449546Y-79925368D02*
X99000000Y-80475822D01*
X96559989Y-95344809D02*
X96259999Y-95644799D01*
X98449546Y-74894798D02*
X98449546Y-79925368D01*
X99000000Y-80475822D02*
X99000000Y-87404798D01*
X119362738Y-78759990D02*
X119362738Y-86292060D01*
X119362738Y-86292060D02*
X119009999Y-86644799D01*
X119009999Y-86644799D02*
X119009999Y-109759999D01*
X119009999Y-109759999D02*
X120120000Y-110870000D01*
X120120000Y-110870000D02*
X120500000Y-110870000D01*
X121826551Y-78759990D02*
X121826551Y-104673449D01*
X120710000Y-105790000D02*
X120500000Y-105790000D01*
X121826551Y-104673449D02*
X120710000Y-105790000D01*
D25*
X101250000Y-121500000D02*
X100000000Y-122750000D01*
X100000000Y-122750000D02*
X97500000Y-122750000D01*
X101250000Y-117750002D02*
X101250000Y-121500000D01*
X97749999Y-114250001D02*
X101250000Y-117750002D01*
X97749999Y-114250001D02*
X97749999Y-97093987D01*
X97749999Y-97093987D02*
X98662263Y-96181723D01*
X98662263Y-96181723D02*
X98662263Y-95757459D01*
X98523965Y-90900010D02*
X98523965Y-95619161D01*
X98523965Y-95619161D02*
X98662263Y-95757459D01*
D24*
X117209991Y-103450001D02*
X117509990Y-103750000D01*
X115750000Y-101990010D02*
X117209991Y-103450001D01*
X115750000Y-82000000D02*
X115750000Y-101990010D01*
X73901140Y-86750000D02*
X69000000Y-91651140D01*
X69000000Y-91651140D02*
X69000000Y-99000000D01*
X69000000Y-99000000D02*
X68750000Y-99250000D01*
X68750000Y-99250000D02*
X68750000Y-103000000D01*
X68750000Y-103000000D02*
X69750000Y-104000000D01*
D23*
X90419978Y-80429999D02*
X90419978Y-70828422D01*
X91978399Y-69270001D02*
X93020001Y-69270001D01*
X89750000Y-81099977D02*
X90419978Y-80429999D01*
X90419978Y-70828422D02*
X91978399Y-69270001D01*
X89750000Y-84000000D02*
X89750000Y-81099977D01*
X93020001Y-69270001D02*
X93250000Y-69500000D01*
D24*
X89764790Y-88000000D02*
X89764790Y-84014790D01*
X89764790Y-84014790D02*
X89750000Y-84000000D01*
X123249989Y-78749989D02*
X123249989Y-86575694D01*
X123249989Y-86575694D02*
X123250000Y-86575705D01*
X114750000Y-70250000D02*
X123249989Y-78749989D01*
X123250000Y-86575705D02*
X123250000Y-86999969D01*
D23*
X86549999Y-81595435D02*
X86549999Y-81125489D01*
X86549999Y-81125489D02*
X85440001Y-80015491D01*
D24*
X86549999Y-103700001D02*
X86549999Y-81595435D01*
X86549999Y-103700001D02*
X86250000Y-104000000D01*
X77000000Y-132500000D02*
X85237999Y-124262001D01*
X85237999Y-124262001D02*
X85237999Y-113166799D01*
X85237999Y-113166799D02*
X87249999Y-111154799D01*
X87553162Y-81974204D02*
X87853161Y-81674205D01*
X87249999Y-111154799D02*
X87249999Y-82277367D01*
X87249999Y-82277367D02*
X87553162Y-81974204D01*
X78040000Y-66960000D02*
X79403600Y-66960000D01*
X79403600Y-66960000D02*
X81380020Y-68936420D01*
X81380020Y-68936420D02*
X81380020Y-99571624D01*
X81380020Y-99571624D02*
X80730011Y-100221633D01*
X80730011Y-100221633D02*
X80730011Y-118519989D01*
X80730011Y-118519989D02*
X80157999Y-119092001D01*
X80157999Y-119092001D02*
X80157999Y-124842001D01*
X80157999Y-124842001D02*
X72799999Y-132200001D01*
X72799999Y-132200001D02*
X72500000Y-132500000D01*
X75500000Y-66960000D02*
X76960000Y-65500000D01*
X83500000Y-114241200D02*
X82697999Y-115043201D01*
X82697999Y-115043201D02*
X82697999Y-123552001D01*
X82697999Y-123552001D02*
X75750000Y-130500000D01*
X75750000Y-130500000D02*
X75750000Y-132075736D01*
X76960000Y-65500000D02*
X79500000Y-65500000D01*
X79500000Y-65500000D02*
X83259998Y-69259998D01*
X83259998Y-69259998D02*
X83259998Y-100855202D01*
X83259998Y-100855202D02*
X83500000Y-101095204D01*
X83500000Y-101095204D02*
X83500000Y-114241200D01*
X75750000Y-132075736D02*
X75750000Y-132500000D01*
X71250000Y-132500000D02*
X71000000Y-132500000D01*
X79250000Y-124500000D02*
X79250000Y-100725822D01*
X76363599Y-70363599D02*
X75500000Y-69500000D01*
X80690009Y-74594803D02*
X76458805Y-70363599D01*
X79250000Y-100725822D02*
X80690009Y-99285813D01*
X80690009Y-99285813D02*
X80690009Y-74594803D01*
X76458805Y-70363599D02*
X76363599Y-70363599D01*
X71250000Y-132500000D02*
X79250000Y-124500000D01*
X95578916Y-95326641D02*
X95578916Y-75943679D01*
X95578916Y-75943679D02*
X95291057Y-75655820D01*
X91750000Y-97500000D02*
X91750000Y-100886769D01*
X93320001Y-95929999D02*
X91750000Y-97500000D01*
X93320001Y-88959025D02*
X93320001Y-95929999D01*
X92000000Y-87639024D02*
X93320001Y-88959025D01*
X91750000Y-100886769D02*
X91900598Y-101037367D01*
X92000000Y-87639024D02*
X91750000Y-87389024D01*
X91750000Y-87389024D02*
X91750000Y-80305697D01*
X91750000Y-80305697D02*
X91939547Y-80116150D01*
X91939547Y-80116150D02*
X91939547Y-79453746D01*
X91580747Y-79094946D02*
X91580747Y-70819253D01*
X91580747Y-70819253D02*
X92100001Y-70299999D01*
X91939547Y-79453746D02*
X91580747Y-79094946D01*
X92100001Y-70299999D02*
X92400000Y-70000000D01*
X93171088Y-71298923D02*
X93900001Y-70570010D01*
X93171088Y-78626405D02*
X93171088Y-71298923D01*
X92629558Y-79167935D02*
X93171088Y-78626405D01*
X92629558Y-87176092D02*
X92629558Y-79167935D01*
X93189085Y-87735619D02*
X92629558Y-87176092D01*
X93900001Y-70570010D02*
X94200000Y-70270011D01*
D26*
G36*
X79715743Y-59484257D02*
X79846161Y-59571400D01*
X80000000Y-59602000D01*
X120000000Y-59602000D01*
X120153839Y-59571400D01*
X120284257Y-59484257D01*
X120339220Y-59402000D01*
X133289357Y-59402000D01*
X131703582Y-60057229D01*
X130062990Y-61694960D01*
X129174013Y-63835853D01*
X129171990Y-66153977D01*
X130057229Y-68296418D01*
X131694960Y-69937010D01*
X133835853Y-70825987D01*
X136153977Y-70828010D01*
X138296418Y-69942771D01*
X139937010Y-68305040D01*
X140598000Y-66713200D01*
X140598000Y-79660780D01*
X140515743Y-79715743D01*
X140428600Y-79846161D01*
X140398000Y-80000000D01*
X140398000Y-120000000D01*
X140428600Y-120153839D01*
X140515743Y-120284257D01*
X140598000Y-120339220D01*
X140598000Y-133289357D01*
X139942771Y-131703582D01*
X138305040Y-130062990D01*
X136164147Y-129174013D01*
X133846023Y-129171990D01*
X131703582Y-130057229D01*
X130062990Y-131694960D01*
X129174013Y-133835853D01*
X129171990Y-136153977D01*
X130057229Y-138296418D01*
X131694960Y-139937010D01*
X133286800Y-140598000D01*
X115291286Y-140598000D01*
X115291286Y-138984107D01*
X124265498Y-138984107D01*
X124366120Y-139252622D01*
X124981642Y-139481816D01*
X125638019Y-139458014D01*
X126133880Y-139252622D01*
X126234502Y-138984107D01*
X125250000Y-137999605D01*
X124265498Y-138984107D01*
X115291286Y-138984107D01*
X115291286Y-137973000D01*
X113208715Y-137973000D01*
X113208715Y-140598000D01*
X81194620Y-140598000D01*
X81354703Y-140531855D01*
X81531235Y-140355631D01*
X81626891Y-140125265D01*
X81627109Y-139875829D01*
X81531855Y-139645297D01*
X81355631Y-139468765D01*
X81125265Y-139373109D01*
X80875829Y-139372891D01*
X80645297Y-139468145D01*
X80468765Y-139644369D01*
X80373109Y-139874735D01*
X80372891Y-140124171D01*
X80468145Y-140354703D01*
X80644369Y-140531235D01*
X80805158Y-140598000D01*
X77194620Y-140598000D01*
X77354703Y-140531855D01*
X77531235Y-140355631D01*
X77626891Y-140125265D01*
X77627109Y-139875829D01*
X77531855Y-139645297D01*
X77355631Y-139468765D01*
X77125265Y-139373109D01*
X76875829Y-139372891D01*
X76645297Y-139468145D01*
X76468765Y-139644369D01*
X76374887Y-139870452D01*
X76281855Y-139645297D01*
X76105631Y-139468765D01*
X75875265Y-139373109D01*
X75625829Y-139372891D01*
X75395297Y-139468145D01*
X75249901Y-139613287D01*
X75105631Y-139468765D01*
X74875265Y-139373109D01*
X74625829Y-139372891D01*
X74395297Y-139468145D01*
X74218765Y-139644369D01*
X74123109Y-139874735D01*
X74122891Y-140124171D01*
X74218145Y-140354703D01*
X74394369Y-140531235D01*
X74555158Y-140598000D01*
X62663537Y-140598000D01*
X61951885Y-139904161D01*
X67624515Y-139904161D01*
X67719769Y-140134693D01*
X67895993Y-140311225D01*
X68126359Y-140406881D01*
X68375795Y-140407099D01*
X68606327Y-140311845D01*
X68782859Y-140135621D01*
X68878515Y-139905255D01*
X68878733Y-139655819D01*
X68783479Y-139425287D01*
X68607255Y-139248755D01*
X68376889Y-139153099D01*
X68127453Y-139152881D01*
X67896921Y-139248135D01*
X67720389Y-139424359D01*
X67624733Y-139654725D01*
X67624515Y-139904161D01*
X61951885Y-139904161D01*
X59478774Y-137492954D01*
X59402000Y-137378054D01*
X59402000Y-132624171D01*
X67622891Y-132624171D01*
X67718145Y-132854703D01*
X67894369Y-133031235D01*
X68124735Y-133126891D01*
X68374171Y-133127109D01*
X68604703Y-133031855D01*
X68781235Y-132855631D01*
X68876891Y-132625265D01*
X68877109Y-132375829D01*
X68781855Y-132145297D01*
X68605631Y-131968765D01*
X68375265Y-131873109D01*
X68125829Y-131872891D01*
X67895297Y-131968145D01*
X67718765Y-132144369D01*
X67623109Y-132374735D01*
X67622891Y-132624171D01*
X59402000Y-132624171D01*
X59402000Y-126710643D01*
X60057229Y-128296418D01*
X61694960Y-129937010D01*
X63835853Y-130825987D01*
X66153977Y-130828010D01*
X68296418Y-129942771D01*
X69937010Y-128305040D01*
X70825987Y-126164147D01*
X70826561Y-125506167D01*
X72343012Y-127022618D01*
X72343012Y-127543308D01*
X72281855Y-127395297D01*
X72105631Y-127218765D01*
X71875265Y-127123109D01*
X71625829Y-127122891D01*
X71395297Y-127218145D01*
X71218765Y-127394369D01*
X71123109Y-127624735D01*
X71122891Y-127874171D01*
X71218145Y-128104703D01*
X71394369Y-128281235D01*
X71624735Y-128376891D01*
X71874171Y-128377109D01*
X72104703Y-128281855D01*
X72281235Y-128105631D01*
X72343012Y-127956855D01*
X72343012Y-129090982D01*
X69641994Y-131792000D01*
X69641992Y-131792003D01*
X69515531Y-131918464D01*
X69395293Y-131968145D01*
X69218761Y-132144369D01*
X69123105Y-132374735D01*
X69122887Y-132624171D01*
X69218141Y-132854703D01*
X69394365Y-133031235D01*
X69624731Y-133126891D01*
X69874167Y-133127109D01*
X70104699Y-133031855D01*
X70281231Y-132855631D01*
X70331551Y-132734446D01*
X70393046Y-132672951D01*
X70468145Y-132854703D01*
X70644369Y-133031235D01*
X70874735Y-133126891D01*
X71124171Y-133127109D01*
X71245444Y-133077000D01*
X71249995Y-133077000D01*
X71250000Y-133077001D01*
X71470808Y-133033078D01*
X71658001Y-132908001D01*
X71893048Y-132672954D01*
X71968145Y-132854703D01*
X72144369Y-133031235D01*
X72374735Y-133126891D01*
X72624171Y-133127109D01*
X72854703Y-133031855D01*
X73031235Y-132855631D01*
X73081555Y-132734446D01*
X73207997Y-132608004D01*
X73208000Y-132608002D01*
X75173000Y-130643002D01*
X75173000Y-132254584D01*
X75124887Y-132370452D01*
X75031855Y-132145297D01*
X74855631Y-131968765D01*
X74625265Y-131873109D01*
X74375829Y-131872891D01*
X74145297Y-131968145D01*
X73968765Y-132144369D01*
X73873109Y-132374735D01*
X73872891Y-132624171D01*
X73968145Y-132854703D01*
X74144369Y-133031235D01*
X74374735Y-133126891D01*
X74624171Y-133127109D01*
X74854703Y-133031855D01*
X75031235Y-132855631D01*
X75125113Y-132629548D01*
X75218145Y-132854703D01*
X75394369Y-133031235D01*
X75624735Y-133126891D01*
X75874171Y-133127109D01*
X76104703Y-133031855D01*
X76281235Y-132855631D01*
X76375113Y-132629548D01*
X76468145Y-132854703D01*
X76644369Y-133031235D01*
X76874735Y-133126891D01*
X77124171Y-133127109D01*
X77354703Y-133031855D01*
X77531235Y-132855631D01*
X77581555Y-132734447D01*
X77623049Y-132692953D01*
X77622891Y-132874171D01*
X77718145Y-133104703D01*
X77894369Y-133281235D01*
X78124735Y-133376891D01*
X78374171Y-133377109D01*
X78602967Y-133282573D01*
X80481477Y-135161083D01*
X80396402Y-135246010D01*
X80334977Y-135393939D01*
X80274267Y-135247011D01*
X80083990Y-135056402D01*
X79835254Y-134953118D01*
X79565927Y-134952883D01*
X79317011Y-135055733D01*
X79126402Y-135246010D01*
X79064977Y-135393939D01*
X79004267Y-135247011D01*
X78813990Y-135056402D01*
X78565254Y-134953118D01*
X78295927Y-134952883D01*
X78047011Y-135055733D01*
X77856402Y-135246010D01*
X77794977Y-135393939D01*
X77734267Y-135247011D01*
X77543990Y-135056402D01*
X77295254Y-134953118D01*
X77025927Y-134952883D01*
X76777011Y-135055733D01*
X76586402Y-135246010D01*
X76524977Y-135393939D01*
X76464267Y-135247011D01*
X76273990Y-135056402D01*
X76025254Y-134953118D01*
X75755927Y-134952883D01*
X75507011Y-135055733D01*
X75316402Y-135246010D01*
X75254977Y-135393939D01*
X75194267Y-135247011D01*
X75003990Y-135056402D01*
X74755254Y-134953118D01*
X74485927Y-134952883D01*
X74237011Y-135055733D01*
X74046402Y-135246010D01*
X73984977Y-135393939D01*
X73924267Y-135247011D01*
X73733990Y-135056402D01*
X73485254Y-134953118D01*
X73215927Y-134952883D01*
X72967011Y-135055733D01*
X72776402Y-135246010D01*
X72714977Y-135393939D01*
X72654267Y-135247011D01*
X72463990Y-135056402D01*
X72215254Y-134953118D01*
X71945927Y-134952883D01*
X71697011Y-135055733D01*
X71506402Y-135246010D01*
X71444977Y-135393939D01*
X71384267Y-135247011D01*
X71193990Y-135056402D01*
X70945254Y-134953118D01*
X70675927Y-134952883D01*
X70427011Y-135055733D01*
X70236402Y-135246010D01*
X70174977Y-135393939D01*
X70114267Y-135247011D01*
X69923990Y-135056402D01*
X69675254Y-134953118D01*
X69405927Y-134952883D01*
X69157011Y-135055733D01*
X68966402Y-135246010D01*
X68904977Y-135393939D01*
X68844267Y-135247011D01*
X68653990Y-135056402D01*
X68405254Y-134953118D01*
X68135927Y-134952883D01*
X67887011Y-135055733D01*
X67696402Y-135246010D01*
X67634977Y-135393939D01*
X67574267Y-135247011D01*
X67383990Y-135056402D01*
X67135254Y-134953118D01*
X66865927Y-134952883D01*
X66617011Y-135055733D01*
X66426402Y-135246010D01*
X66323118Y-135494746D01*
X66322883Y-135764073D01*
X66425733Y-136012989D01*
X66616010Y-136203598D01*
X66763939Y-136265023D01*
X66617011Y-136325733D01*
X66426402Y-136516010D01*
X66323118Y-136764746D01*
X66322883Y-137034073D01*
X66425733Y-137282989D01*
X66616010Y-137473598D01*
X66864746Y-137576882D01*
X67134073Y-137577117D01*
X67382989Y-137474267D01*
X67573598Y-137283990D01*
X67635023Y-137136061D01*
X67695733Y-137282989D01*
X67886010Y-137473598D01*
X68134746Y-137576882D01*
X68404073Y-137577117D01*
X68652989Y-137474267D01*
X68843598Y-137283990D01*
X68905023Y-137136061D01*
X68965733Y-137282989D01*
X69156010Y-137473598D01*
X69404746Y-137576882D01*
X69674073Y-137577117D01*
X69922989Y-137474267D01*
X70113598Y-137283990D01*
X70175023Y-137136061D01*
X70235733Y-137282989D01*
X70426010Y-137473598D01*
X70674746Y-137576882D01*
X70944073Y-137577117D01*
X71192989Y-137474267D01*
X71383598Y-137283990D01*
X71445023Y-137136061D01*
X71505733Y-137282989D01*
X71696010Y-137473598D01*
X71944746Y-137576882D01*
X72214073Y-137577117D01*
X72462989Y-137474267D01*
X72653598Y-137283990D01*
X72715023Y-137136061D01*
X72775733Y-137282989D01*
X72966010Y-137473598D01*
X73214746Y-137576882D01*
X73484073Y-137577117D01*
X73732989Y-137474267D01*
X73923598Y-137283990D01*
X73985023Y-137136061D01*
X74045733Y-137282989D01*
X74236010Y-137473598D01*
X74484746Y-137576882D01*
X74754073Y-137577117D01*
X75002989Y-137474267D01*
X75193598Y-137283990D01*
X75255023Y-137136061D01*
X75315733Y-137282989D01*
X75506010Y-137473598D01*
X75754746Y-137576882D01*
X76024073Y-137577117D01*
X76272989Y-137474267D01*
X76463598Y-137283990D01*
X76525023Y-137136061D01*
X76585733Y-137282989D01*
X76776010Y-137473598D01*
X77024746Y-137576882D01*
X77294073Y-137577117D01*
X77542989Y-137474267D01*
X77733598Y-137283990D01*
X77795023Y-137136061D01*
X77855733Y-137282989D01*
X78046010Y-137473598D01*
X78294746Y-137576882D01*
X78564073Y-137577117D01*
X78812989Y-137474267D01*
X79003598Y-137283990D01*
X79065023Y-137136061D01*
X79125733Y-137282989D01*
X79316010Y-137473598D01*
X79564746Y-137576882D01*
X79834073Y-137577117D01*
X80082989Y-137474267D01*
X80273598Y-137283990D01*
X80335023Y-137136061D01*
X80395733Y-137282989D01*
X80586010Y-137473598D01*
X80834746Y-137576882D01*
X81104073Y-137577117D01*
X81165727Y-137551642D01*
X123588184Y-137551642D01*
X123611986Y-138208019D01*
X123817378Y-138703880D01*
X124085893Y-138804502D01*
X125070395Y-137820000D01*
X125429605Y-137820000D01*
X126414107Y-138804502D01*
X126682622Y-138703880D01*
X126911816Y-138088358D01*
X126888014Y-137431981D01*
X126682622Y-136936120D01*
X126414107Y-136835498D01*
X125429605Y-137820000D01*
X125070395Y-137820000D01*
X124085893Y-136835498D01*
X123817378Y-136936120D01*
X123588184Y-137551642D01*
X81165727Y-137551642D01*
X81352989Y-137474267D01*
X81543598Y-137283990D01*
X81646882Y-137035254D01*
X81647117Y-136765927D01*
X81544267Y-136517011D01*
X81353990Y-136326402D01*
X81206061Y-136264977D01*
X81352989Y-136204267D01*
X81438900Y-136118506D01*
X82660197Y-137339803D01*
X82700590Y-137366994D01*
X82750000Y-137377000D01*
X117250000Y-137377000D01*
X117297789Y-137367666D01*
X117339803Y-137339803D01*
X118023713Y-136655893D01*
X124265498Y-136655893D01*
X125250000Y-137640395D01*
X126234502Y-136655893D01*
X126133880Y-136387378D01*
X125518358Y-136158184D01*
X124861981Y-136181986D01*
X124366120Y-136387378D01*
X124265498Y-136655893D01*
X118023713Y-136655893D01*
X125789320Y-128890286D01*
X126009755Y-128799204D01*
X126387876Y-128421742D01*
X126480196Y-128199410D01*
X136994993Y-117684613D01*
X137325375Y-117661217D01*
X137593352Y-117550217D01*
X137630499Y-117335104D01*
X137131744Y-116836349D01*
X137134492Y-116451602D01*
X137213748Y-116530858D01*
X137199605Y-116545000D01*
X137810104Y-117155499D01*
X138025217Y-117118352D01*
X138168112Y-116690028D01*
X138136217Y-116239625D01*
X138025217Y-115971648D01*
X137869338Y-115944730D01*
X137834608Y-115910000D01*
X137869338Y-115875270D01*
X138025217Y-115848352D01*
X138168112Y-115420028D01*
X138136217Y-114969625D01*
X138025217Y-114701648D01*
X137810104Y-114664501D01*
X137199605Y-115275000D01*
X137213748Y-115289143D01*
X137142285Y-115360605D01*
X137145073Y-114970322D01*
X137353294Y-114762101D01*
X137487846Y-114706505D01*
X137720688Y-114474070D01*
X137846856Y-114170222D01*
X137847143Y-113841221D01*
X137721505Y-113537154D01*
X137554555Y-113369912D01*
X137720688Y-113204070D01*
X137846856Y-112900222D01*
X137847143Y-112571221D01*
X137721505Y-112267154D01*
X137554555Y-112099912D01*
X137720688Y-111934070D01*
X137846856Y-111630222D01*
X137847143Y-111301221D01*
X137721505Y-110997154D01*
X137554555Y-110829912D01*
X137720688Y-110664070D01*
X137846856Y-110360222D01*
X137847143Y-110031221D01*
X137721505Y-109727154D01*
X137554555Y-109559912D01*
X137720688Y-109394070D01*
X137846856Y-109090222D01*
X137847143Y-108761221D01*
X137721505Y-108457154D01*
X137554555Y-108289912D01*
X137720688Y-108124070D01*
X137846856Y-107820222D01*
X137847143Y-107491221D01*
X137721505Y-107187154D01*
X137554555Y-107019912D01*
X137720688Y-106854070D01*
X137846856Y-106550222D01*
X137847143Y-106221221D01*
X137721505Y-105917154D01*
X137554555Y-105749912D01*
X137720688Y-105584070D01*
X137846856Y-105280222D01*
X137847143Y-104951221D01*
X137721505Y-104647154D01*
X137554555Y-104479912D01*
X137720688Y-104314070D01*
X137846856Y-104010222D01*
X137847143Y-103681221D01*
X137721505Y-103377154D01*
X137554555Y-103209912D01*
X137720688Y-103044070D01*
X137846856Y-102740222D01*
X137847143Y-102411221D01*
X137721505Y-102107154D01*
X137489070Y-101874312D01*
X137239356Y-101770622D01*
X137264727Y-98218696D01*
X137487846Y-98126505D01*
X137720688Y-97894070D01*
X137846856Y-97590222D01*
X137847143Y-97261221D01*
X137721505Y-96957154D01*
X137554555Y-96789912D01*
X137720688Y-96624070D01*
X137846856Y-96320222D01*
X137847143Y-95991221D01*
X137721505Y-95687154D01*
X137554555Y-95519912D01*
X137720688Y-95354070D01*
X137846856Y-95050222D01*
X137847143Y-94721221D01*
X137721505Y-94417154D01*
X137554555Y-94249912D01*
X137720688Y-94084070D01*
X137846856Y-93780222D01*
X137847143Y-93451221D01*
X137721505Y-93147154D01*
X137554555Y-92979912D01*
X137720688Y-92814070D01*
X137846856Y-92510222D01*
X137847143Y-92181221D01*
X137721505Y-91877154D01*
X137554555Y-91709912D01*
X137720688Y-91544070D01*
X137846856Y-91240222D01*
X137847143Y-90911221D01*
X137721505Y-90607154D01*
X137554555Y-90439912D01*
X137720688Y-90274070D01*
X137846856Y-89970222D01*
X137847143Y-89641221D01*
X137721505Y-89337154D01*
X137554555Y-89169912D01*
X137720688Y-89004070D01*
X137846856Y-88700222D01*
X137847143Y-88371221D01*
X137721505Y-88067154D01*
X137554555Y-87899912D01*
X137720688Y-87734070D01*
X137846856Y-87430222D01*
X137847143Y-87101221D01*
X137721505Y-86797154D01*
X137554555Y-86629912D01*
X137720688Y-86464070D01*
X137846856Y-86160222D01*
X137847143Y-85831221D01*
X137721505Y-85527154D01*
X137554555Y-85359912D01*
X137720688Y-85194070D01*
X137846856Y-84890222D01*
X137847143Y-84561221D01*
X137721505Y-84257154D01*
X137554555Y-84089912D01*
X137720688Y-83924070D01*
X137846856Y-83620222D01*
X137847143Y-83291221D01*
X137721505Y-82987154D01*
X137489070Y-82754312D01*
X137375524Y-82707164D01*
X137376997Y-82500907D01*
X137367359Y-82451462D01*
X137342021Y-82413779D01*
X137922857Y-82413779D01*
X138048495Y-82717846D01*
X138280930Y-82950688D01*
X138584778Y-83076856D01*
X138913779Y-83077143D01*
X139217846Y-82951505D01*
X139450688Y-82719070D01*
X139576856Y-82415222D01*
X139577143Y-82086221D01*
X139451505Y-81782154D01*
X139219070Y-81549312D01*
X138915222Y-81423144D01*
X138586221Y-81422857D01*
X138282154Y-81548495D01*
X138049312Y-81780930D01*
X137923144Y-82084778D01*
X137922857Y-82413779D01*
X137342021Y-82413779D01*
X137339229Y-82409627D01*
X135267011Y-80363640D01*
X135267011Y-76690016D01*
X135267012Y-76690011D01*
X135223089Y-76469203D01*
X135187716Y-76416263D01*
X135098012Y-76282010D01*
X135098009Y-76282008D01*
X132458000Y-73641998D01*
X132457997Y-73641996D01*
X132331536Y-73515535D01*
X132281855Y-73395297D01*
X132105631Y-73218765D01*
X131875265Y-73123109D01*
X131625829Y-73122891D01*
X131395297Y-73218145D01*
X131218765Y-73394369D01*
X131123109Y-73624735D01*
X131122891Y-73874171D01*
X131218145Y-74104703D01*
X131394369Y-74281235D01*
X131515554Y-74331555D01*
X131641996Y-74457997D01*
X131641998Y-74458000D01*
X134113011Y-76929012D01*
X134113011Y-76976158D01*
X134105631Y-76968765D01*
X133875265Y-76873109D01*
X133625829Y-76872891D01*
X133395297Y-76968145D01*
X133218765Y-77144369D01*
X133123109Y-77374735D01*
X133122891Y-77624171D01*
X133218145Y-77854703D01*
X133394369Y-78031235D01*
X133423000Y-78043124D01*
X133423000Y-78542971D01*
X127792761Y-72984000D01*
X134650594Y-72984000D01*
X134650594Y-75016000D01*
X134673395Y-75137179D01*
X134745012Y-75248474D01*
X134854286Y-75323138D01*
X134984000Y-75349406D01*
X137016000Y-75349406D01*
X137137179Y-75326605D01*
X137248474Y-75254988D01*
X137323138Y-75145714D01*
X137349406Y-75016000D01*
X137349406Y-74615349D01*
X137590356Y-74975955D01*
X138026056Y-75267081D01*
X138540000Y-75369311D01*
X139053944Y-75267081D01*
X139489644Y-74975955D01*
X139780770Y-74540255D01*
X139883000Y-74026311D01*
X139883000Y-73973689D01*
X139780770Y-73459745D01*
X139489644Y-73024045D01*
X139053944Y-72732919D01*
X138540000Y-72630689D01*
X138026056Y-72732919D01*
X137590356Y-73024045D01*
X137349406Y-73384651D01*
X137349406Y-72984000D01*
X137326605Y-72862821D01*
X137254988Y-72751526D01*
X137145714Y-72676862D01*
X137016000Y-72650594D01*
X134984000Y-72650594D01*
X134862821Y-72673395D01*
X134751526Y-72745012D01*
X134676862Y-72854286D01*
X134650594Y-72984000D01*
X127792761Y-72984000D01*
X123883447Y-69124171D01*
X127122891Y-69124171D01*
X127218145Y-69354703D01*
X127394369Y-69531235D01*
X127624735Y-69626891D01*
X127874171Y-69627109D01*
X128104703Y-69531855D01*
X128281235Y-69355631D01*
X128376891Y-69125265D01*
X128377109Y-68875829D01*
X128281855Y-68645297D01*
X128105631Y-68468765D01*
X127875265Y-68373109D01*
X127625829Y-68372891D01*
X127395297Y-68468145D01*
X127218765Y-68644369D01*
X127123109Y-68874735D01*
X127122891Y-69124171D01*
X123883447Y-69124171D01*
X117684521Y-63003713D01*
X117661217Y-62674625D01*
X117550217Y-62406648D01*
X117335104Y-62369501D01*
X116831605Y-62873000D01*
X116444110Y-62873000D01*
X116530858Y-62786253D01*
X116545000Y-62800395D01*
X117155499Y-62189896D01*
X117118352Y-61974783D01*
X116690028Y-61831888D01*
X116239625Y-61863783D01*
X115971648Y-61974783D01*
X115944730Y-62130662D01*
X115910000Y-62165392D01*
X115875270Y-62130662D01*
X115848352Y-61974783D01*
X115420028Y-61831888D01*
X114969625Y-61863783D01*
X114701648Y-61974783D01*
X114664501Y-62189896D01*
X115275000Y-62800395D01*
X115289143Y-62786253D01*
X115375890Y-62873000D01*
X114988395Y-62873000D01*
X114762101Y-62646706D01*
X114706505Y-62512154D01*
X114474070Y-62279312D01*
X114170222Y-62153144D01*
X113841221Y-62152857D01*
X113537154Y-62278495D01*
X113369912Y-62445445D01*
X113204070Y-62279312D01*
X112900222Y-62153144D01*
X112571221Y-62152857D01*
X112267154Y-62278495D01*
X112099912Y-62445445D01*
X111934070Y-62279312D01*
X111630222Y-62153144D01*
X111301221Y-62152857D01*
X110997154Y-62278495D01*
X110829912Y-62445445D01*
X110664070Y-62279312D01*
X110360222Y-62153144D01*
X110031221Y-62152857D01*
X109727154Y-62278495D01*
X109559912Y-62445445D01*
X109394070Y-62279312D01*
X109090222Y-62153144D01*
X108761221Y-62152857D01*
X108457154Y-62278495D01*
X108289912Y-62445445D01*
X108124070Y-62279312D01*
X107820222Y-62153144D01*
X107491221Y-62152857D01*
X107187154Y-62278495D01*
X107019912Y-62445445D01*
X106854070Y-62279312D01*
X106550222Y-62153144D01*
X106221221Y-62152857D01*
X105917154Y-62278495D01*
X105749912Y-62445445D01*
X105584070Y-62279312D01*
X105280222Y-62153144D01*
X104951221Y-62152857D01*
X104647154Y-62278495D01*
X104479912Y-62445445D01*
X104314070Y-62279312D01*
X104010222Y-62153144D01*
X103681221Y-62152857D01*
X103377154Y-62278495D01*
X103209912Y-62445445D01*
X103044070Y-62279312D01*
X102740222Y-62153144D01*
X102411221Y-62152857D01*
X102107154Y-62278495D01*
X101874312Y-62510930D01*
X101748144Y-62814778D01*
X101748093Y-62873000D01*
X99509597Y-62873000D01*
X99355631Y-62718765D01*
X99125265Y-62623109D01*
X98875829Y-62622891D01*
X98645297Y-62718145D01*
X98490171Y-62873000D01*
X98252093Y-62873000D01*
X98252143Y-62816221D01*
X98126505Y-62512154D01*
X97894070Y-62279312D01*
X97590222Y-62153144D01*
X97261221Y-62152857D01*
X96957154Y-62278495D01*
X96789912Y-62445445D01*
X96624070Y-62279312D01*
X96320222Y-62153144D01*
X95991221Y-62152857D01*
X95687154Y-62278495D01*
X95519912Y-62445445D01*
X95354070Y-62279312D01*
X95050222Y-62153144D01*
X94721221Y-62152857D01*
X94417154Y-62278495D01*
X94249912Y-62445445D01*
X94084070Y-62279312D01*
X93780222Y-62153144D01*
X93451221Y-62152857D01*
X93147154Y-62278495D01*
X92979912Y-62445445D01*
X92814070Y-62279312D01*
X92510222Y-62153144D01*
X92181221Y-62152857D01*
X91877154Y-62278495D01*
X91709912Y-62445445D01*
X91544070Y-62279312D01*
X91240222Y-62153144D01*
X90911221Y-62152857D01*
X90607154Y-62278495D01*
X90439912Y-62445445D01*
X90274070Y-62279312D01*
X89970222Y-62153144D01*
X89641221Y-62152857D01*
X89337154Y-62278495D01*
X89169912Y-62445445D01*
X89004070Y-62279312D01*
X88700222Y-62153144D01*
X88371221Y-62152857D01*
X88067154Y-62278495D01*
X87899912Y-62445445D01*
X87734070Y-62279312D01*
X87430222Y-62153144D01*
X87101221Y-62152857D01*
X86797154Y-62278495D01*
X86629912Y-62445445D01*
X86464070Y-62279312D01*
X86160222Y-62153144D01*
X85831221Y-62152857D01*
X85527154Y-62278495D01*
X85359912Y-62445445D01*
X85194070Y-62279312D01*
X84890222Y-62153144D01*
X84561221Y-62152857D01*
X84257154Y-62278495D01*
X84089912Y-62445445D01*
X83924070Y-62279312D01*
X83620222Y-62153144D01*
X83291221Y-62152857D01*
X82987154Y-62278495D01*
X82754312Y-62510930D01*
X82628144Y-62814778D01*
X82628093Y-62873000D01*
X82500000Y-62873000D01*
X82452211Y-62882334D01*
X82410197Y-62910197D01*
X80068198Y-65252196D01*
X79908001Y-65091999D01*
X79720808Y-64966922D01*
X79500000Y-64922999D01*
X79499995Y-64923000D01*
X76960005Y-64923000D01*
X76960000Y-64922999D01*
X76739192Y-64966922D01*
X76551999Y-65091999D01*
X76551997Y-65092002D01*
X75831904Y-65812095D01*
X75500000Y-65746075D01*
X75044377Y-65836704D01*
X74658119Y-66094794D01*
X74400029Y-66481052D01*
X74309400Y-66936675D01*
X74309400Y-66983325D01*
X74400029Y-67438948D01*
X74658119Y-67825206D01*
X75044377Y-68083296D01*
X75500000Y-68173925D01*
X75955623Y-68083296D01*
X76341881Y-67825206D01*
X76599971Y-67438948D01*
X76690600Y-66983325D01*
X76690600Y-66936675D01*
X76632320Y-66643682D01*
X76842994Y-66433007D01*
X76842994Y-67823600D01*
X76865795Y-67944779D01*
X76937412Y-68056074D01*
X77046686Y-68130738D01*
X77165579Y-68154815D01*
X76479556Y-68840838D01*
X76341881Y-68634794D01*
X75955623Y-68376704D01*
X75500000Y-68286075D01*
X75044377Y-68376704D01*
X74658119Y-68634794D01*
X74400029Y-69021052D01*
X74309400Y-69476675D01*
X74309400Y-69523325D01*
X74400029Y-69978948D01*
X74658119Y-70365206D01*
X74836199Y-70484195D01*
X66056066Y-79264328D01*
X65655784Y-78864047D01*
X65854703Y-78781855D01*
X66031235Y-78605631D01*
X66126891Y-78375265D01*
X66127109Y-78125829D01*
X66031855Y-77895297D01*
X65855631Y-77718765D01*
X65625265Y-77623109D01*
X65375829Y-77622891D01*
X65145297Y-77718145D01*
X64968765Y-77894369D01*
X64885832Y-78094094D01*
X63394649Y-76602912D01*
X63426891Y-76525265D01*
X63427109Y-76275829D01*
X63331855Y-76045297D01*
X63155631Y-75868765D01*
X62925265Y-75773109D01*
X62675829Y-75772891D01*
X62445297Y-75868145D01*
X62268765Y-76044369D01*
X62173109Y-76274735D01*
X62172891Y-76524171D01*
X62223000Y-76645444D01*
X62223000Y-76824259D01*
X62222999Y-76824264D01*
X62266922Y-77045072D01*
X62391999Y-77232265D01*
X62532762Y-77373028D01*
X62375829Y-77372891D01*
X62145297Y-77468145D01*
X61968765Y-77644369D01*
X61873109Y-77874735D01*
X61872891Y-78124171D01*
X61968145Y-78354703D01*
X62144369Y-78531235D01*
X62374735Y-78626891D01*
X62624171Y-78627109D01*
X62854703Y-78531855D01*
X63031235Y-78355631D01*
X63126891Y-78125265D01*
X63127029Y-77967295D01*
X65240064Y-80080330D01*
X64443198Y-80877196D01*
X61958000Y-78391998D01*
X61957997Y-78391996D01*
X61831536Y-78265535D01*
X61781855Y-78145297D01*
X61605631Y-77968765D01*
X61375265Y-77873109D01*
X61125829Y-77872891D01*
X60895297Y-77968145D01*
X60718765Y-78144369D01*
X60623109Y-78374735D01*
X60622891Y-78624171D01*
X60718145Y-78854703D01*
X60894369Y-79031235D01*
X61015554Y-79081555D01*
X61141996Y-79207997D01*
X61141998Y-79208000D01*
X63627196Y-81693198D01*
X63005007Y-82315387D01*
X62674625Y-82338783D01*
X62406648Y-82449783D01*
X62369501Y-82664896D01*
X62873000Y-83168395D01*
X62873000Y-83555890D01*
X62786253Y-83469143D01*
X62800395Y-83455000D01*
X62189896Y-82844501D01*
X61974783Y-82881648D01*
X61831888Y-83309972D01*
X61863783Y-83760375D01*
X61974783Y-84028352D01*
X62130662Y-84055270D01*
X62165392Y-84090000D01*
X62130662Y-84124730D01*
X61974783Y-84151648D01*
X61831888Y-84579972D01*
X61863783Y-85030375D01*
X61974783Y-85298352D01*
X62189896Y-85335499D01*
X62800395Y-84725000D01*
X62786253Y-84710858D01*
X62873000Y-84624110D01*
X62873000Y-85011605D01*
X62646706Y-85237899D01*
X62512154Y-85293495D01*
X62279312Y-85525930D01*
X62153144Y-85829778D01*
X62152857Y-86158779D01*
X62278495Y-86462846D01*
X62445445Y-86630088D01*
X62279312Y-86795930D01*
X62153144Y-87099778D01*
X62152857Y-87428779D01*
X62278495Y-87732846D01*
X62445445Y-87900088D01*
X62279312Y-88065930D01*
X62153144Y-88369778D01*
X62152857Y-88698779D01*
X62278495Y-89002846D01*
X62445445Y-89170088D01*
X62279312Y-89335930D01*
X62153144Y-89639778D01*
X62152857Y-89968779D01*
X62278495Y-90272846D01*
X62445445Y-90440088D01*
X62279312Y-90605930D01*
X62153144Y-90909778D01*
X62152857Y-91238779D01*
X62278495Y-91542846D01*
X62445445Y-91710088D01*
X62279312Y-91875930D01*
X62153144Y-92179778D01*
X62152857Y-92508779D01*
X62278495Y-92812846D01*
X62445445Y-92980088D01*
X62279312Y-93145930D01*
X62153144Y-93449778D01*
X62152857Y-93778779D01*
X62278495Y-94082846D01*
X62445445Y-94250088D01*
X62279312Y-94415930D01*
X62153144Y-94719778D01*
X62152857Y-95048779D01*
X62278495Y-95352846D01*
X62445445Y-95520088D01*
X62279312Y-95685930D01*
X62153144Y-95989778D01*
X62152857Y-96318779D01*
X62278495Y-96622846D01*
X62445445Y-96790088D01*
X62279312Y-96955930D01*
X62153144Y-97259778D01*
X62152857Y-97588779D01*
X62278495Y-97892846D01*
X62510930Y-98125688D01*
X62814778Y-98251856D01*
X62873000Y-98251907D01*
X62873000Y-101747907D01*
X62816221Y-101747857D01*
X62512154Y-101873495D01*
X62279312Y-102105930D01*
X62153144Y-102409778D01*
X62152857Y-102738779D01*
X62278495Y-103042846D01*
X62445445Y-103210088D01*
X62279312Y-103375930D01*
X62153144Y-103679778D01*
X62152857Y-104008779D01*
X62278495Y-104312846D01*
X62445445Y-104480088D01*
X62279312Y-104645930D01*
X62153144Y-104949778D01*
X62152857Y-105278779D01*
X62278495Y-105582846D01*
X62445445Y-105750088D01*
X62279312Y-105915930D01*
X62153144Y-106219778D01*
X62152857Y-106548779D01*
X62278495Y-106852846D01*
X62445445Y-107020088D01*
X62279312Y-107185930D01*
X62153144Y-107489778D01*
X62152857Y-107818779D01*
X62278495Y-108122846D01*
X62445445Y-108290088D01*
X62279312Y-108455930D01*
X62153144Y-108759778D01*
X62152857Y-109088779D01*
X62278495Y-109392846D01*
X62445445Y-109560088D01*
X62279312Y-109725930D01*
X62153144Y-110029778D01*
X62152857Y-110358779D01*
X62278495Y-110662846D01*
X62445445Y-110830088D01*
X62279312Y-110995930D01*
X62153144Y-111299778D01*
X62152857Y-111628779D01*
X62278495Y-111932846D01*
X62445445Y-112100088D01*
X62279312Y-112265930D01*
X62153144Y-112569778D01*
X62152857Y-112898779D01*
X62278495Y-113202846D01*
X62445445Y-113370088D01*
X62279312Y-113535930D01*
X62153144Y-113839778D01*
X62152857Y-114168779D01*
X62278495Y-114472846D01*
X62445445Y-114640088D01*
X62279312Y-114805930D01*
X62153144Y-115109778D01*
X62152857Y-115438779D01*
X62278495Y-115742846D01*
X62445445Y-115910088D01*
X62279312Y-116075930D01*
X62153144Y-116379778D01*
X62152857Y-116708779D01*
X62278495Y-117012846D01*
X62510930Y-117245688D01*
X62814778Y-117371856D01*
X62873000Y-117371907D01*
X62873000Y-117500000D01*
X62882334Y-117547789D01*
X62910197Y-117589803D01*
X64492949Y-119172555D01*
X63846023Y-119171990D01*
X61703582Y-120057229D01*
X60062990Y-121694960D01*
X59402000Y-123286800D01*
X59402000Y-120339220D01*
X59484257Y-120284257D01*
X59571400Y-120153839D01*
X59602000Y-120000000D01*
X59602000Y-80000000D01*
X59571400Y-79846161D01*
X59484257Y-79715743D01*
X59402000Y-79660780D01*
X59402000Y-76374171D01*
X60122881Y-76374171D01*
X60218135Y-76604703D01*
X60394359Y-76781235D01*
X60624725Y-76876891D01*
X60874161Y-76877109D01*
X61104693Y-76781855D01*
X61281225Y-76605631D01*
X61376881Y-76375265D01*
X61377099Y-76125829D01*
X61281845Y-75895297D01*
X61105621Y-75718765D01*
X60875255Y-75623109D01*
X60625819Y-75622891D01*
X60395287Y-75718145D01*
X60218755Y-75894369D01*
X60123099Y-76124735D01*
X60122881Y-76374171D01*
X59402000Y-76374171D01*
X59402000Y-73374171D01*
X65872891Y-73374171D01*
X65968145Y-73604703D01*
X66144369Y-73781235D01*
X66374735Y-73876891D01*
X66624171Y-73877109D01*
X66854703Y-73781855D01*
X67031235Y-73605631D01*
X67126891Y-73375265D01*
X67127109Y-73125829D01*
X67031855Y-72895297D01*
X66855631Y-72718765D01*
X66625265Y-72623109D01*
X66375829Y-72622891D01*
X66145297Y-72718145D01*
X65968765Y-72894369D01*
X65873109Y-73124735D01*
X65872891Y-73374171D01*
X59402000Y-73374171D01*
X59402000Y-72624171D01*
X64122891Y-72624171D01*
X64218145Y-72854703D01*
X64394369Y-73031235D01*
X64624735Y-73126891D01*
X64874171Y-73127109D01*
X65104703Y-73031855D01*
X65281235Y-72855631D01*
X65376891Y-72625265D01*
X65377109Y-72375829D01*
X65281855Y-72145297D01*
X65105631Y-71968765D01*
X64875265Y-71873109D01*
X64625829Y-71872891D01*
X64395297Y-71968145D01*
X64218765Y-72144369D01*
X64123109Y-72374735D01*
X64122891Y-72624171D01*
X59402000Y-72624171D01*
X59402000Y-66710643D01*
X60057229Y-68296418D01*
X61694960Y-69937010D01*
X63835853Y-70825987D01*
X66153977Y-70828010D01*
X68296418Y-69942771D01*
X68763328Y-69476675D01*
X71769400Y-69476675D01*
X71769400Y-69523325D01*
X71860029Y-69978948D01*
X72118119Y-70365206D01*
X72504377Y-70623296D01*
X72960000Y-70713925D01*
X73415623Y-70623296D01*
X73801881Y-70365206D01*
X74059971Y-69978948D01*
X74150600Y-69523325D01*
X74150600Y-69476675D01*
X74059971Y-69021052D01*
X73801881Y-68634794D01*
X73415623Y-68376704D01*
X72960000Y-68286075D01*
X72504377Y-68376704D01*
X72118119Y-68634794D01*
X71860029Y-69021052D01*
X71769400Y-69476675D01*
X68763328Y-69476675D01*
X69937010Y-68305040D01*
X70505205Y-66936675D01*
X71769400Y-66936675D01*
X71769400Y-66983325D01*
X71860029Y-67438948D01*
X72118119Y-67825206D01*
X72504377Y-68083296D01*
X72960000Y-68173925D01*
X73415623Y-68083296D01*
X73801881Y-67825206D01*
X74059971Y-67438948D01*
X74150600Y-66983325D01*
X74150600Y-66936675D01*
X74059971Y-66481052D01*
X73801881Y-66094794D01*
X73415623Y-65836704D01*
X72960000Y-65746075D01*
X72504377Y-65836704D01*
X72118119Y-66094794D01*
X71860029Y-66481052D01*
X71769400Y-66936675D01*
X70505205Y-66936675D01*
X70825987Y-66164147D01*
X70828010Y-63846023D01*
X70209040Y-62348000D01*
X73696810Y-62348000D01*
X73696810Y-64752000D01*
X75303191Y-64752000D01*
X75303191Y-62348000D01*
X73696810Y-62348000D01*
X70209040Y-62348000D01*
X69942771Y-61703582D01*
X69104433Y-60863779D01*
X105872857Y-60863779D01*
X105998495Y-61167846D01*
X106230930Y-61400688D01*
X106534778Y-61526856D01*
X106863779Y-61527143D01*
X107167846Y-61401505D01*
X107400688Y-61169070D01*
X107526856Y-60865222D01*
X107526857Y-60863779D01*
X111572857Y-60863779D01*
X111698495Y-61167846D01*
X111930930Y-61400688D01*
X112234778Y-61526856D01*
X112563779Y-61527143D01*
X112867846Y-61401505D01*
X113100688Y-61169070D01*
X113226856Y-60865222D01*
X113227143Y-60536221D01*
X113101505Y-60232154D01*
X112869070Y-59999312D01*
X112565222Y-59873144D01*
X112236221Y-59872857D01*
X111932154Y-59998495D01*
X111699312Y-60230930D01*
X111573144Y-60534778D01*
X111572857Y-60863779D01*
X107526857Y-60863779D01*
X107527143Y-60536221D01*
X107401505Y-60232154D01*
X107169070Y-59999312D01*
X106865222Y-59873144D01*
X106536221Y-59872857D01*
X106232154Y-59998495D01*
X105999312Y-60230930D01*
X105873144Y-60534778D01*
X105872857Y-60863779D01*
X69104433Y-60863779D01*
X68305040Y-60062990D01*
X66713200Y-59402000D01*
X79660780Y-59402000D01*
X79715743Y-59484257D01*
X79715743Y-59484257D01*
G37*
X79715743Y-59484257D02*
X79846161Y-59571400D01*
X80000000Y-59602000D01*
X120000000Y-59602000D01*
X120153839Y-59571400D01*
X120284257Y-59484257D01*
X120339220Y-59402000D01*
X133289357Y-59402000D01*
X131703582Y-60057229D01*
X130062990Y-61694960D01*
X129174013Y-63835853D01*
X129171990Y-66153977D01*
X130057229Y-68296418D01*
X131694960Y-69937010D01*
X133835853Y-70825987D01*
X136153977Y-70828010D01*
X138296418Y-69942771D01*
X139937010Y-68305040D01*
X140598000Y-66713200D01*
X140598000Y-79660780D01*
X140515743Y-79715743D01*
X140428600Y-79846161D01*
X140398000Y-80000000D01*
X140398000Y-120000000D01*
X140428600Y-120153839D01*
X140515743Y-120284257D01*
X140598000Y-120339220D01*
X140598000Y-133289357D01*
X139942771Y-131703582D01*
X138305040Y-130062990D01*
X136164147Y-129174013D01*
X133846023Y-129171990D01*
X131703582Y-130057229D01*
X130062990Y-131694960D01*
X129174013Y-133835853D01*
X129171990Y-136153977D01*
X130057229Y-138296418D01*
X131694960Y-139937010D01*
X133286800Y-140598000D01*
X115291286Y-140598000D01*
X115291286Y-138984107D01*
X124265498Y-138984107D01*
X124366120Y-139252622D01*
X124981642Y-139481816D01*
X125638019Y-139458014D01*
X126133880Y-139252622D01*
X126234502Y-138984107D01*
X125250000Y-137999605D01*
X124265498Y-138984107D01*
X115291286Y-138984107D01*
X115291286Y-137973000D01*
X113208715Y-137973000D01*
X113208715Y-140598000D01*
X81194620Y-140598000D01*
X81354703Y-140531855D01*
X81531235Y-140355631D01*
X81626891Y-140125265D01*
X81627109Y-139875829D01*
X81531855Y-139645297D01*
X81355631Y-139468765D01*
X81125265Y-139373109D01*
X80875829Y-139372891D01*
X80645297Y-139468145D01*
X80468765Y-139644369D01*
X80373109Y-139874735D01*
X80372891Y-140124171D01*
X80468145Y-140354703D01*
X80644369Y-140531235D01*
X80805158Y-140598000D01*
X77194620Y-140598000D01*
X77354703Y-140531855D01*
X77531235Y-140355631D01*
X77626891Y-140125265D01*
X77627109Y-139875829D01*
X77531855Y-139645297D01*
X77355631Y-139468765D01*
X77125265Y-139373109D01*
X76875829Y-139372891D01*
X76645297Y-139468145D01*
X76468765Y-139644369D01*
X76374887Y-139870452D01*
X76281855Y-139645297D01*
X76105631Y-139468765D01*
X75875265Y-139373109D01*
X75625829Y-139372891D01*
X75395297Y-139468145D01*
X75249901Y-139613287D01*
X75105631Y-139468765D01*
X74875265Y-139373109D01*
X74625829Y-139372891D01*
X74395297Y-139468145D01*
X74218765Y-139644369D01*
X74123109Y-139874735D01*
X74122891Y-140124171D01*
X74218145Y-140354703D01*
X74394369Y-140531235D01*
X74555158Y-140598000D01*
X62663537Y-140598000D01*
X61951885Y-139904161D01*
X67624515Y-139904161D01*
X67719769Y-140134693D01*
X67895993Y-140311225D01*
X68126359Y-140406881D01*
X68375795Y-140407099D01*
X68606327Y-140311845D01*
X68782859Y-140135621D01*
X68878515Y-139905255D01*
X68878733Y-139655819D01*
X68783479Y-139425287D01*
X68607255Y-139248755D01*
X68376889Y-139153099D01*
X68127453Y-139152881D01*
X67896921Y-139248135D01*
X67720389Y-139424359D01*
X67624733Y-139654725D01*
X67624515Y-139904161D01*
X61951885Y-139904161D01*
X59478774Y-137492954D01*
X59402000Y-137378054D01*
X59402000Y-132624171D01*
X67622891Y-132624171D01*
X67718145Y-132854703D01*
X67894369Y-133031235D01*
X68124735Y-133126891D01*
X68374171Y-133127109D01*
X68604703Y-133031855D01*
X68781235Y-132855631D01*
X68876891Y-132625265D01*
X68877109Y-132375829D01*
X68781855Y-132145297D01*
X68605631Y-131968765D01*
X68375265Y-131873109D01*
X68125829Y-131872891D01*
X67895297Y-131968145D01*
X67718765Y-132144369D01*
X67623109Y-132374735D01*
X67622891Y-132624171D01*
X59402000Y-132624171D01*
X59402000Y-126710643D01*
X60057229Y-128296418D01*
X61694960Y-129937010D01*
X63835853Y-130825987D01*
X66153977Y-130828010D01*
X68296418Y-129942771D01*
X69937010Y-128305040D01*
X70825987Y-126164147D01*
X70826561Y-125506167D01*
X72343012Y-127022618D01*
X72343012Y-127543308D01*
X72281855Y-127395297D01*
X72105631Y-127218765D01*
X71875265Y-127123109D01*
X71625829Y-127122891D01*
X71395297Y-127218145D01*
X71218765Y-127394369D01*
X71123109Y-127624735D01*
X71122891Y-127874171D01*
X71218145Y-128104703D01*
X71394369Y-128281235D01*
X71624735Y-128376891D01*
X71874171Y-128377109D01*
X72104703Y-128281855D01*
X72281235Y-128105631D01*
X72343012Y-127956855D01*
X72343012Y-129090982D01*
X69641994Y-131792000D01*
X69641992Y-131792003D01*
X69515531Y-131918464D01*
X69395293Y-131968145D01*
X69218761Y-132144369D01*
X69123105Y-132374735D01*
X69122887Y-132624171D01*
X69218141Y-132854703D01*
X69394365Y-133031235D01*
X69624731Y-133126891D01*
X69874167Y-133127109D01*
X70104699Y-133031855D01*
X70281231Y-132855631D01*
X70331551Y-132734446D01*
X70393046Y-132672951D01*
X70468145Y-132854703D01*
X70644369Y-133031235D01*
X70874735Y-133126891D01*
X71124171Y-133127109D01*
X71245444Y-133077000D01*
X71249995Y-133077000D01*
X71250000Y-133077001D01*
X71470808Y-133033078D01*
X71658001Y-132908001D01*
X71893048Y-132672954D01*
X71968145Y-132854703D01*
X72144369Y-133031235D01*
X72374735Y-133126891D01*
X72624171Y-133127109D01*
X72854703Y-133031855D01*
X73031235Y-132855631D01*
X73081555Y-132734446D01*
X73207997Y-132608004D01*
X73208000Y-132608002D01*
X75173000Y-130643002D01*
X75173000Y-132254584D01*
X75124887Y-132370452D01*
X75031855Y-132145297D01*
X74855631Y-131968765D01*
X74625265Y-131873109D01*
X74375829Y-131872891D01*
X74145297Y-131968145D01*
X73968765Y-132144369D01*
X73873109Y-132374735D01*
X73872891Y-132624171D01*
X73968145Y-132854703D01*
X74144369Y-133031235D01*
X74374735Y-133126891D01*
X74624171Y-133127109D01*
X74854703Y-133031855D01*
X75031235Y-132855631D01*
X75125113Y-132629548D01*
X75218145Y-132854703D01*
X75394369Y-133031235D01*
X75624735Y-133126891D01*
X75874171Y-133127109D01*
X76104703Y-133031855D01*
X76281235Y-132855631D01*
X76375113Y-132629548D01*
X76468145Y-132854703D01*
X76644369Y-133031235D01*
X76874735Y-133126891D01*
X77124171Y-133127109D01*
X77354703Y-133031855D01*
X77531235Y-132855631D01*
X77581555Y-132734447D01*
X77623049Y-132692953D01*
X77622891Y-132874171D01*
X77718145Y-133104703D01*
X77894369Y-133281235D01*
X78124735Y-133376891D01*
X78374171Y-133377109D01*
X78602967Y-133282573D01*
X80481477Y-135161083D01*
X80396402Y-135246010D01*
X80334977Y-135393939D01*
X80274267Y-135247011D01*
X80083990Y-135056402D01*
X79835254Y-134953118D01*
X79565927Y-134952883D01*
X79317011Y-135055733D01*
X79126402Y-135246010D01*
X79064977Y-135393939D01*
X79004267Y-135247011D01*
X78813990Y-135056402D01*
X78565254Y-134953118D01*
X78295927Y-134952883D01*
X78047011Y-135055733D01*
X77856402Y-135246010D01*
X77794977Y-135393939D01*
X77734267Y-135247011D01*
X77543990Y-135056402D01*
X77295254Y-134953118D01*
X77025927Y-134952883D01*
X76777011Y-135055733D01*
X76586402Y-135246010D01*
X76524977Y-135393939D01*
X76464267Y-135247011D01*
X76273990Y-135056402D01*
X76025254Y-134953118D01*
X75755927Y-134952883D01*
X75507011Y-135055733D01*
X75316402Y-135246010D01*
X75254977Y-135393939D01*
X75194267Y-135247011D01*
X75003990Y-135056402D01*
X74755254Y-134953118D01*
X74485927Y-134952883D01*
X74237011Y-135055733D01*
X74046402Y-135246010D01*
X73984977Y-135393939D01*
X73924267Y-135247011D01*
X73733990Y-135056402D01*
X73485254Y-134953118D01*
X73215927Y-134952883D01*
X72967011Y-135055733D01*
X72776402Y-135246010D01*
X72714977Y-135393939D01*
X72654267Y-135247011D01*
X72463990Y-135056402D01*
X72215254Y-134953118D01*
X71945927Y-134952883D01*
X71697011Y-135055733D01*
X71506402Y-135246010D01*
X71444977Y-135393939D01*
X71384267Y-135247011D01*
X71193990Y-135056402D01*
X70945254Y-134953118D01*
X70675927Y-134952883D01*
X70427011Y-135055733D01*
X70236402Y-135246010D01*
X70174977Y-135393939D01*
X70114267Y-135247011D01*
X69923990Y-135056402D01*
X69675254Y-134953118D01*
X69405927Y-134952883D01*
X69157011Y-135055733D01*
X68966402Y-135246010D01*
X68904977Y-135393939D01*
X68844267Y-135247011D01*
X68653990Y-135056402D01*
X68405254Y-134953118D01*
X68135927Y-134952883D01*
X67887011Y-135055733D01*
X67696402Y-135246010D01*
X67634977Y-135393939D01*
X67574267Y-135247011D01*
X67383990Y-135056402D01*
X67135254Y-134953118D01*
X66865927Y-134952883D01*
X66617011Y-135055733D01*
X66426402Y-135246010D01*
X66323118Y-135494746D01*
X66322883Y-135764073D01*
X66425733Y-136012989D01*
X66616010Y-136203598D01*
X66763939Y-136265023D01*
X66617011Y-136325733D01*
X66426402Y-136516010D01*
X66323118Y-136764746D01*
X66322883Y-137034073D01*
X66425733Y-137282989D01*
X66616010Y-137473598D01*
X66864746Y-137576882D01*
X67134073Y-137577117D01*
X67382989Y-137474267D01*
X67573598Y-137283990D01*
X67635023Y-137136061D01*
X67695733Y-137282989D01*
X67886010Y-137473598D01*
X68134746Y-137576882D01*
X68404073Y-137577117D01*
X68652989Y-137474267D01*
X68843598Y-137283990D01*
X68905023Y-137136061D01*
X68965733Y-137282989D01*
X69156010Y-137473598D01*
X69404746Y-137576882D01*
X69674073Y-137577117D01*
X69922989Y-137474267D01*
X70113598Y-137283990D01*
X70175023Y-137136061D01*
X70235733Y-137282989D01*
X70426010Y-137473598D01*
X70674746Y-137576882D01*
X70944073Y-137577117D01*
X71192989Y-137474267D01*
X71383598Y-137283990D01*
X71445023Y-137136061D01*
X71505733Y-137282989D01*
X71696010Y-137473598D01*
X71944746Y-137576882D01*
X72214073Y-137577117D01*
X72462989Y-137474267D01*
X72653598Y-137283990D01*
X72715023Y-137136061D01*
X72775733Y-137282989D01*
X72966010Y-137473598D01*
X73214746Y-137576882D01*
X73484073Y-137577117D01*
X73732989Y-137474267D01*
X73923598Y-137283990D01*
X73985023Y-137136061D01*
X74045733Y-137282989D01*
X74236010Y-137473598D01*
X74484746Y-137576882D01*
X74754073Y-137577117D01*
X75002989Y-137474267D01*
X75193598Y-137283990D01*
X75255023Y-137136061D01*
X75315733Y-137282989D01*
X75506010Y-137473598D01*
X75754746Y-137576882D01*
X76024073Y-137577117D01*
X76272989Y-137474267D01*
X76463598Y-137283990D01*
X76525023Y-137136061D01*
X76585733Y-137282989D01*
X76776010Y-137473598D01*
X77024746Y-137576882D01*
X77294073Y-137577117D01*
X77542989Y-137474267D01*
X77733598Y-137283990D01*
X77795023Y-137136061D01*
X77855733Y-137282989D01*
X78046010Y-137473598D01*
X78294746Y-137576882D01*
X78564073Y-137577117D01*
X78812989Y-137474267D01*
X79003598Y-137283990D01*
X79065023Y-137136061D01*
X79125733Y-137282989D01*
X79316010Y-137473598D01*
X79564746Y-137576882D01*
X79834073Y-137577117D01*
X80082989Y-137474267D01*
X80273598Y-137283990D01*
X80335023Y-137136061D01*
X80395733Y-137282989D01*
X80586010Y-137473598D01*
X80834746Y-137576882D01*
X81104073Y-137577117D01*
X81165727Y-137551642D01*
X123588184Y-137551642D01*
X123611986Y-138208019D01*
X123817378Y-138703880D01*
X124085893Y-138804502D01*
X125070395Y-137820000D01*
X125429605Y-137820000D01*
X126414107Y-138804502D01*
X126682622Y-138703880D01*
X126911816Y-138088358D01*
X126888014Y-137431981D01*
X126682622Y-136936120D01*
X126414107Y-136835498D01*
X125429605Y-137820000D01*
X125070395Y-137820000D01*
X124085893Y-136835498D01*
X123817378Y-136936120D01*
X123588184Y-137551642D01*
X81165727Y-137551642D01*
X81352989Y-137474267D01*
X81543598Y-137283990D01*
X81646882Y-137035254D01*
X81647117Y-136765927D01*
X81544267Y-136517011D01*
X81353990Y-136326402D01*
X81206061Y-136264977D01*
X81352989Y-136204267D01*
X81438900Y-136118506D01*
X82660197Y-137339803D01*
X82700590Y-137366994D01*
X82750000Y-137377000D01*
X117250000Y-137377000D01*
X117297789Y-137367666D01*
X117339803Y-137339803D01*
X118023713Y-136655893D01*
X124265498Y-136655893D01*
X125250000Y-137640395D01*
X126234502Y-136655893D01*
X126133880Y-136387378D01*
X125518358Y-136158184D01*
X124861981Y-136181986D01*
X124366120Y-136387378D01*
X124265498Y-136655893D01*
X118023713Y-136655893D01*
X125789320Y-128890286D01*
X126009755Y-128799204D01*
X126387876Y-128421742D01*
X126480196Y-128199410D01*
X136994993Y-117684613D01*
X137325375Y-117661217D01*
X137593352Y-117550217D01*
X137630499Y-117335104D01*
X137131744Y-116836349D01*
X137134492Y-116451602D01*
X137213748Y-116530858D01*
X137199605Y-116545000D01*
X137810104Y-117155499D01*
X138025217Y-117118352D01*
X138168112Y-116690028D01*
X138136217Y-116239625D01*
X138025217Y-115971648D01*
X137869338Y-115944730D01*
X137834608Y-115910000D01*
X137869338Y-115875270D01*
X138025217Y-115848352D01*
X138168112Y-115420028D01*
X138136217Y-114969625D01*
X138025217Y-114701648D01*
X137810104Y-114664501D01*
X137199605Y-115275000D01*
X137213748Y-115289143D01*
X137142285Y-115360605D01*
X137145073Y-114970322D01*
X137353294Y-114762101D01*
X137487846Y-114706505D01*
X137720688Y-114474070D01*
X137846856Y-114170222D01*
X137847143Y-113841221D01*
X137721505Y-113537154D01*
X137554555Y-113369912D01*
X137720688Y-113204070D01*
X137846856Y-112900222D01*
X137847143Y-112571221D01*
X137721505Y-112267154D01*
X137554555Y-112099912D01*
X137720688Y-111934070D01*
X137846856Y-111630222D01*
X137847143Y-111301221D01*
X137721505Y-110997154D01*
X137554555Y-110829912D01*
X137720688Y-110664070D01*
X137846856Y-110360222D01*
X137847143Y-110031221D01*
X137721505Y-109727154D01*
X137554555Y-109559912D01*
X137720688Y-109394070D01*
X137846856Y-109090222D01*
X137847143Y-108761221D01*
X137721505Y-108457154D01*
X137554555Y-108289912D01*
X137720688Y-108124070D01*
X137846856Y-107820222D01*
X137847143Y-107491221D01*
X137721505Y-107187154D01*
X137554555Y-107019912D01*
X137720688Y-106854070D01*
X137846856Y-106550222D01*
X137847143Y-106221221D01*
X137721505Y-105917154D01*
X137554555Y-105749912D01*
X137720688Y-105584070D01*
X137846856Y-105280222D01*
X137847143Y-104951221D01*
X137721505Y-104647154D01*
X137554555Y-104479912D01*
X137720688Y-104314070D01*
X137846856Y-104010222D01*
X137847143Y-103681221D01*
X137721505Y-103377154D01*
X137554555Y-103209912D01*
X137720688Y-103044070D01*
X137846856Y-102740222D01*
X137847143Y-102411221D01*
X137721505Y-102107154D01*
X137489070Y-101874312D01*
X137239356Y-101770622D01*
X137264727Y-98218696D01*
X137487846Y-98126505D01*
X137720688Y-97894070D01*
X137846856Y-97590222D01*
X137847143Y-97261221D01*
X137721505Y-96957154D01*
X137554555Y-96789912D01*
X137720688Y-96624070D01*
X137846856Y-96320222D01*
X137847143Y-95991221D01*
X137721505Y-95687154D01*
X137554555Y-95519912D01*
X137720688Y-95354070D01*
X137846856Y-95050222D01*
X137847143Y-94721221D01*
X137721505Y-94417154D01*
X137554555Y-94249912D01*
X137720688Y-94084070D01*
X137846856Y-93780222D01*
X137847143Y-93451221D01*
X137721505Y-93147154D01*
X137554555Y-92979912D01*
X137720688Y-92814070D01*
X137846856Y-92510222D01*
X137847143Y-92181221D01*
X137721505Y-91877154D01*
X137554555Y-91709912D01*
X137720688Y-91544070D01*
X137846856Y-91240222D01*
X137847143Y-90911221D01*
X137721505Y-90607154D01*
X137554555Y-90439912D01*
X137720688Y-90274070D01*
X137846856Y-89970222D01*
X137847143Y-89641221D01*
X137721505Y-89337154D01*
X137554555Y-89169912D01*
X137720688Y-89004070D01*
X137846856Y-88700222D01*
X137847143Y-88371221D01*
X137721505Y-88067154D01*
X137554555Y-87899912D01*
X137720688Y-87734070D01*
X137846856Y-87430222D01*
X137847143Y-87101221D01*
X137721505Y-86797154D01*
X137554555Y-86629912D01*
X137720688Y-86464070D01*
X137846856Y-86160222D01*
X137847143Y-85831221D01*
X137721505Y-85527154D01*
X137554555Y-85359912D01*
X137720688Y-85194070D01*
X137846856Y-84890222D01*
X137847143Y-84561221D01*
X137721505Y-84257154D01*
X137554555Y-84089912D01*
X137720688Y-83924070D01*
X137846856Y-83620222D01*
X137847143Y-83291221D01*
X137721505Y-82987154D01*
X137489070Y-82754312D01*
X137375524Y-82707164D01*
X137376997Y-82500907D01*
X137367359Y-82451462D01*
X137342021Y-82413779D01*
X137922857Y-82413779D01*
X138048495Y-82717846D01*
X138280930Y-82950688D01*
X138584778Y-83076856D01*
X138913779Y-83077143D01*
X139217846Y-82951505D01*
X139450688Y-82719070D01*
X139576856Y-82415222D01*
X139577143Y-82086221D01*
X139451505Y-81782154D01*
X139219070Y-81549312D01*
X138915222Y-81423144D01*
X138586221Y-81422857D01*
X138282154Y-81548495D01*
X138049312Y-81780930D01*
X137923144Y-82084778D01*
X137922857Y-82413779D01*
X137342021Y-82413779D01*
X137339229Y-82409627D01*
X135267011Y-80363640D01*
X135267011Y-76690016D01*
X135267012Y-76690011D01*
X135223089Y-76469203D01*
X135187716Y-76416263D01*
X135098012Y-76282010D01*
X135098009Y-76282008D01*
X132458000Y-73641998D01*
X132457997Y-73641996D01*
X132331536Y-73515535D01*
X132281855Y-73395297D01*
X132105631Y-73218765D01*
X131875265Y-73123109D01*
X131625829Y-73122891D01*
X131395297Y-73218145D01*
X131218765Y-73394369D01*
X131123109Y-73624735D01*
X131122891Y-73874171D01*
X131218145Y-74104703D01*
X131394369Y-74281235D01*
X131515554Y-74331555D01*
X131641996Y-74457997D01*
X131641998Y-74458000D01*
X134113011Y-76929012D01*
X134113011Y-76976158D01*
X134105631Y-76968765D01*
X133875265Y-76873109D01*
X133625829Y-76872891D01*
X133395297Y-76968145D01*
X133218765Y-77144369D01*
X133123109Y-77374735D01*
X133122891Y-77624171D01*
X133218145Y-77854703D01*
X133394369Y-78031235D01*
X133423000Y-78043124D01*
X133423000Y-78542971D01*
X127792761Y-72984000D01*
X134650594Y-72984000D01*
X134650594Y-75016000D01*
X134673395Y-75137179D01*
X134745012Y-75248474D01*
X134854286Y-75323138D01*
X134984000Y-75349406D01*
X137016000Y-75349406D01*
X137137179Y-75326605D01*
X137248474Y-75254988D01*
X137323138Y-75145714D01*
X137349406Y-75016000D01*
X137349406Y-74615349D01*
X137590356Y-74975955D01*
X138026056Y-75267081D01*
X138540000Y-75369311D01*
X139053944Y-75267081D01*
X139489644Y-74975955D01*
X139780770Y-74540255D01*
X139883000Y-74026311D01*
X139883000Y-73973689D01*
X139780770Y-73459745D01*
X139489644Y-73024045D01*
X139053944Y-72732919D01*
X138540000Y-72630689D01*
X138026056Y-72732919D01*
X137590356Y-73024045D01*
X137349406Y-73384651D01*
X137349406Y-72984000D01*
X137326605Y-72862821D01*
X137254988Y-72751526D01*
X137145714Y-72676862D01*
X137016000Y-72650594D01*
X134984000Y-72650594D01*
X134862821Y-72673395D01*
X134751526Y-72745012D01*
X134676862Y-72854286D01*
X134650594Y-72984000D01*
X127792761Y-72984000D01*
X123883447Y-69124171D01*
X127122891Y-69124171D01*
X127218145Y-69354703D01*
X127394369Y-69531235D01*
X127624735Y-69626891D01*
X127874171Y-69627109D01*
X128104703Y-69531855D01*
X128281235Y-69355631D01*
X128376891Y-69125265D01*
X128377109Y-68875829D01*
X128281855Y-68645297D01*
X128105631Y-68468765D01*
X127875265Y-68373109D01*
X127625829Y-68372891D01*
X127395297Y-68468145D01*
X127218765Y-68644369D01*
X127123109Y-68874735D01*
X127122891Y-69124171D01*
X123883447Y-69124171D01*
X117684521Y-63003713D01*
X117661217Y-62674625D01*
X117550217Y-62406648D01*
X117335104Y-62369501D01*
X116831605Y-62873000D01*
X116444110Y-62873000D01*
X116530858Y-62786253D01*
X116545000Y-62800395D01*
X117155499Y-62189896D01*
X117118352Y-61974783D01*
X116690028Y-61831888D01*
X116239625Y-61863783D01*
X115971648Y-61974783D01*
X115944730Y-62130662D01*
X115910000Y-62165392D01*
X115875270Y-62130662D01*
X115848352Y-61974783D01*
X115420028Y-61831888D01*
X114969625Y-61863783D01*
X114701648Y-61974783D01*
X114664501Y-62189896D01*
X115275000Y-62800395D01*
X115289143Y-62786253D01*
X115375890Y-62873000D01*
X114988395Y-62873000D01*
X114762101Y-62646706D01*
X114706505Y-62512154D01*
X114474070Y-62279312D01*
X114170222Y-62153144D01*
X113841221Y-62152857D01*
X113537154Y-62278495D01*
X113369912Y-62445445D01*
X113204070Y-62279312D01*
X112900222Y-62153144D01*
X112571221Y-62152857D01*
X112267154Y-62278495D01*
X112099912Y-62445445D01*
X111934070Y-62279312D01*
X111630222Y-62153144D01*
X111301221Y-62152857D01*
X110997154Y-62278495D01*
X110829912Y-62445445D01*
X110664070Y-62279312D01*
X110360222Y-62153144D01*
X110031221Y-62152857D01*
X109727154Y-62278495D01*
X109559912Y-62445445D01*
X109394070Y-62279312D01*
X109090222Y-62153144D01*
X108761221Y-62152857D01*
X108457154Y-62278495D01*
X108289912Y-62445445D01*
X108124070Y-62279312D01*
X107820222Y-62153144D01*
X107491221Y-62152857D01*
X107187154Y-62278495D01*
X107019912Y-62445445D01*
X106854070Y-62279312D01*
X106550222Y-62153144D01*
X106221221Y-62152857D01*
X105917154Y-62278495D01*
X105749912Y-62445445D01*
X105584070Y-62279312D01*
X105280222Y-62153144D01*
X104951221Y-62152857D01*
X104647154Y-62278495D01*
X104479912Y-62445445D01*
X104314070Y-62279312D01*
X104010222Y-62153144D01*
X103681221Y-62152857D01*
X103377154Y-62278495D01*
X103209912Y-62445445D01*
X103044070Y-62279312D01*
X102740222Y-62153144D01*
X102411221Y-62152857D01*
X102107154Y-62278495D01*
X101874312Y-62510930D01*
X101748144Y-62814778D01*
X101748093Y-62873000D01*
X99509597Y-62873000D01*
X99355631Y-62718765D01*
X99125265Y-62623109D01*
X98875829Y-62622891D01*
X98645297Y-62718145D01*
X98490171Y-62873000D01*
X98252093Y-62873000D01*
X98252143Y-62816221D01*
X98126505Y-62512154D01*
X97894070Y-62279312D01*
X97590222Y-62153144D01*
X97261221Y-62152857D01*
X96957154Y-62278495D01*
X96789912Y-62445445D01*
X96624070Y-62279312D01*
X96320222Y-62153144D01*
X95991221Y-62152857D01*
X95687154Y-62278495D01*
X95519912Y-62445445D01*
X95354070Y-62279312D01*
X95050222Y-62153144D01*
X94721221Y-62152857D01*
X94417154Y-62278495D01*
X94249912Y-62445445D01*
X94084070Y-62279312D01*
X93780222Y-62153144D01*
X93451221Y-62152857D01*
X93147154Y-62278495D01*
X92979912Y-62445445D01*
X92814070Y-62279312D01*
X92510222Y-62153144D01*
X92181221Y-62152857D01*
X91877154Y-62278495D01*
X91709912Y-62445445D01*
X91544070Y-62279312D01*
X91240222Y-62153144D01*
X90911221Y-62152857D01*
X90607154Y-62278495D01*
X90439912Y-62445445D01*
X90274070Y-62279312D01*
X89970222Y-62153144D01*
X89641221Y-62152857D01*
X89337154Y-62278495D01*
X89169912Y-62445445D01*
X89004070Y-62279312D01*
X88700222Y-62153144D01*
X88371221Y-62152857D01*
X88067154Y-62278495D01*
X87899912Y-62445445D01*
X87734070Y-62279312D01*
X87430222Y-62153144D01*
X87101221Y-62152857D01*
X86797154Y-62278495D01*
X86629912Y-62445445D01*
X86464070Y-62279312D01*
X86160222Y-62153144D01*
X85831221Y-62152857D01*
X85527154Y-62278495D01*
X85359912Y-62445445D01*
X85194070Y-62279312D01*
X84890222Y-62153144D01*
X84561221Y-62152857D01*
X84257154Y-62278495D01*
X84089912Y-62445445D01*
X83924070Y-62279312D01*
X83620222Y-62153144D01*
X83291221Y-62152857D01*
X82987154Y-62278495D01*
X82754312Y-62510930D01*
X82628144Y-62814778D01*
X82628093Y-62873000D01*
X82500000Y-62873000D01*
X82452211Y-62882334D01*
X82410197Y-62910197D01*
X80068198Y-65252196D01*
X79908001Y-65091999D01*
X79720808Y-64966922D01*
X79500000Y-64922999D01*
X79499995Y-64923000D01*
X76960005Y-64923000D01*
X76960000Y-64922999D01*
X76739192Y-64966922D01*
X76551999Y-65091999D01*
X76551997Y-65092002D01*
X75831904Y-65812095D01*
X75500000Y-65746075D01*
X75044377Y-65836704D01*
X74658119Y-66094794D01*
X74400029Y-66481052D01*
X74309400Y-66936675D01*
X74309400Y-66983325D01*
X74400029Y-67438948D01*
X74658119Y-67825206D01*
X75044377Y-68083296D01*
X75500000Y-68173925D01*
X75955623Y-68083296D01*
X76341881Y-67825206D01*
X76599971Y-67438948D01*
X76690600Y-66983325D01*
X76690600Y-66936675D01*
X76632320Y-66643682D01*
X76842994Y-66433007D01*
X76842994Y-67823600D01*
X76865795Y-67944779D01*
X76937412Y-68056074D01*
X77046686Y-68130738D01*
X77165579Y-68154815D01*
X76479556Y-68840838D01*
X76341881Y-68634794D01*
X75955623Y-68376704D01*
X75500000Y-68286075D01*
X75044377Y-68376704D01*
X74658119Y-68634794D01*
X74400029Y-69021052D01*
X74309400Y-69476675D01*
X74309400Y-69523325D01*
X74400029Y-69978948D01*
X74658119Y-70365206D01*
X74836199Y-70484195D01*
X66056066Y-79264328D01*
X65655784Y-78864047D01*
X65854703Y-78781855D01*
X66031235Y-78605631D01*
X66126891Y-78375265D01*
X66127109Y-78125829D01*
X66031855Y-77895297D01*
X65855631Y-77718765D01*
X65625265Y-77623109D01*
X65375829Y-77622891D01*
X65145297Y-77718145D01*
X64968765Y-77894369D01*
X64885832Y-78094094D01*
X63394649Y-76602912D01*
X63426891Y-76525265D01*
X63427109Y-76275829D01*
X63331855Y-76045297D01*
X63155631Y-75868765D01*
X62925265Y-75773109D01*
X62675829Y-75772891D01*
X62445297Y-75868145D01*
X62268765Y-76044369D01*
X62173109Y-76274735D01*
X62172891Y-76524171D01*
X62223000Y-76645444D01*
X62223000Y-76824259D01*
X62222999Y-76824264D01*
X62266922Y-77045072D01*
X62391999Y-77232265D01*
X62532762Y-77373028D01*
X62375829Y-77372891D01*
X62145297Y-77468145D01*
X61968765Y-77644369D01*
X61873109Y-77874735D01*
X61872891Y-78124171D01*
X61968145Y-78354703D01*
X62144369Y-78531235D01*
X62374735Y-78626891D01*
X62624171Y-78627109D01*
X62854703Y-78531855D01*
X63031235Y-78355631D01*
X63126891Y-78125265D01*
X63127029Y-77967295D01*
X65240064Y-80080330D01*
X64443198Y-80877196D01*
X61958000Y-78391998D01*
X61957997Y-78391996D01*
X61831536Y-78265535D01*
X61781855Y-78145297D01*
X61605631Y-77968765D01*
X61375265Y-77873109D01*
X61125829Y-77872891D01*
X60895297Y-77968145D01*
X60718765Y-78144369D01*
X60623109Y-78374735D01*
X60622891Y-78624171D01*
X60718145Y-78854703D01*
X60894369Y-79031235D01*
X61015554Y-79081555D01*
X61141996Y-79207997D01*
X61141998Y-79208000D01*
X63627196Y-81693198D01*
X63005007Y-82315387D01*
X62674625Y-82338783D01*
X62406648Y-82449783D01*
X62369501Y-82664896D01*
X62873000Y-83168395D01*
X62873000Y-83555890D01*
X62786253Y-83469143D01*
X62800395Y-83455000D01*
X62189896Y-82844501D01*
X61974783Y-82881648D01*
X61831888Y-83309972D01*
X61863783Y-83760375D01*
X61974783Y-84028352D01*
X62130662Y-84055270D01*
X62165392Y-84090000D01*
X62130662Y-84124730D01*
X61974783Y-84151648D01*
X61831888Y-84579972D01*
X61863783Y-85030375D01*
X61974783Y-85298352D01*
X62189896Y-85335499D01*
X62800395Y-84725000D01*
X62786253Y-84710858D01*
X62873000Y-84624110D01*
X62873000Y-85011605D01*
X62646706Y-85237899D01*
X62512154Y-85293495D01*
X62279312Y-85525930D01*
X62153144Y-85829778D01*
X62152857Y-86158779D01*
X62278495Y-86462846D01*
X62445445Y-86630088D01*
X62279312Y-86795930D01*
X62153144Y-87099778D01*
X62152857Y-87428779D01*
X62278495Y-87732846D01*
X62445445Y-87900088D01*
X62279312Y-88065930D01*
X62153144Y-88369778D01*
X62152857Y-88698779D01*
X62278495Y-89002846D01*
X62445445Y-89170088D01*
X62279312Y-89335930D01*
X62153144Y-89639778D01*
X62152857Y-89968779D01*
X62278495Y-90272846D01*
X62445445Y-90440088D01*
X62279312Y-90605930D01*
X62153144Y-90909778D01*
X62152857Y-91238779D01*
X62278495Y-91542846D01*
X62445445Y-91710088D01*
X62279312Y-91875930D01*
X62153144Y-92179778D01*
X62152857Y-92508779D01*
X62278495Y-92812846D01*
X62445445Y-92980088D01*
X62279312Y-93145930D01*
X62153144Y-93449778D01*
X62152857Y-93778779D01*
X62278495Y-94082846D01*
X62445445Y-94250088D01*
X62279312Y-94415930D01*
X62153144Y-94719778D01*
X62152857Y-95048779D01*
X62278495Y-95352846D01*
X62445445Y-95520088D01*
X62279312Y-95685930D01*
X62153144Y-95989778D01*
X62152857Y-96318779D01*
X62278495Y-96622846D01*
X62445445Y-96790088D01*
X62279312Y-96955930D01*
X62153144Y-97259778D01*
X62152857Y-97588779D01*
X62278495Y-97892846D01*
X62510930Y-98125688D01*
X62814778Y-98251856D01*
X62873000Y-98251907D01*
X62873000Y-101747907D01*
X62816221Y-101747857D01*
X62512154Y-101873495D01*
X62279312Y-102105930D01*
X62153144Y-102409778D01*
X62152857Y-102738779D01*
X62278495Y-103042846D01*
X62445445Y-103210088D01*
X62279312Y-103375930D01*
X62153144Y-103679778D01*
X62152857Y-104008779D01*
X62278495Y-104312846D01*
X62445445Y-104480088D01*
X62279312Y-104645930D01*
X62153144Y-104949778D01*
X62152857Y-105278779D01*
X62278495Y-105582846D01*
X62445445Y-105750088D01*
X62279312Y-105915930D01*
X62153144Y-106219778D01*
X62152857Y-106548779D01*
X62278495Y-106852846D01*
X62445445Y-107020088D01*
X62279312Y-107185930D01*
X62153144Y-107489778D01*
X62152857Y-107818779D01*
X62278495Y-108122846D01*
X62445445Y-108290088D01*
X62279312Y-108455930D01*
X62153144Y-108759778D01*
X62152857Y-109088779D01*
X62278495Y-109392846D01*
X62445445Y-109560088D01*
X62279312Y-109725930D01*
X62153144Y-110029778D01*
X62152857Y-110358779D01*
X62278495Y-110662846D01*
X62445445Y-110830088D01*
X62279312Y-110995930D01*
X62153144Y-111299778D01*
X62152857Y-111628779D01*
X62278495Y-111932846D01*
X62445445Y-112100088D01*
X62279312Y-112265930D01*
X62153144Y-112569778D01*
X62152857Y-112898779D01*
X62278495Y-113202846D01*
X62445445Y-113370088D01*
X62279312Y-113535930D01*
X62153144Y-113839778D01*
X62152857Y-114168779D01*
X62278495Y-114472846D01*
X62445445Y-114640088D01*
X62279312Y-114805930D01*
X62153144Y-115109778D01*
X62152857Y-115438779D01*
X62278495Y-115742846D01*
X62445445Y-115910088D01*
X62279312Y-116075930D01*
X62153144Y-116379778D01*
X62152857Y-116708779D01*
X62278495Y-117012846D01*
X62510930Y-117245688D01*
X62814778Y-117371856D01*
X62873000Y-117371907D01*
X62873000Y-117500000D01*
X62882334Y-117547789D01*
X62910197Y-117589803D01*
X64492949Y-119172555D01*
X63846023Y-119171990D01*
X61703582Y-120057229D01*
X60062990Y-121694960D01*
X59402000Y-123286800D01*
X59402000Y-120339220D01*
X59484257Y-120284257D01*
X59571400Y-120153839D01*
X59602000Y-120000000D01*
X59602000Y-80000000D01*
X59571400Y-79846161D01*
X59484257Y-79715743D01*
X59402000Y-79660780D01*
X59402000Y-76374171D01*
X60122881Y-76374171D01*
X60218135Y-76604703D01*
X60394359Y-76781235D01*
X60624725Y-76876891D01*
X60874161Y-76877109D01*
X61104693Y-76781855D01*
X61281225Y-76605631D01*
X61376881Y-76375265D01*
X61377099Y-76125829D01*
X61281845Y-75895297D01*
X61105621Y-75718765D01*
X60875255Y-75623109D01*
X60625819Y-75622891D01*
X60395287Y-75718145D01*
X60218755Y-75894369D01*
X60123099Y-76124735D01*
X60122881Y-76374171D01*
X59402000Y-76374171D01*
X59402000Y-73374171D01*
X65872891Y-73374171D01*
X65968145Y-73604703D01*
X66144369Y-73781235D01*
X66374735Y-73876891D01*
X66624171Y-73877109D01*
X66854703Y-73781855D01*
X67031235Y-73605631D01*
X67126891Y-73375265D01*
X67127109Y-73125829D01*
X67031855Y-72895297D01*
X66855631Y-72718765D01*
X66625265Y-72623109D01*
X66375829Y-72622891D01*
X66145297Y-72718145D01*
X65968765Y-72894369D01*
X65873109Y-73124735D01*
X65872891Y-73374171D01*
X59402000Y-73374171D01*
X59402000Y-72624171D01*
X64122891Y-72624171D01*
X64218145Y-72854703D01*
X64394369Y-73031235D01*
X64624735Y-73126891D01*
X64874171Y-73127109D01*
X65104703Y-73031855D01*
X65281235Y-72855631D01*
X65376891Y-72625265D01*
X65377109Y-72375829D01*
X65281855Y-72145297D01*
X65105631Y-71968765D01*
X64875265Y-71873109D01*
X64625829Y-71872891D01*
X64395297Y-71968145D01*
X64218765Y-72144369D01*
X64123109Y-72374735D01*
X64122891Y-72624171D01*
X59402000Y-72624171D01*
X59402000Y-66710643D01*
X60057229Y-68296418D01*
X61694960Y-69937010D01*
X63835853Y-70825987D01*
X66153977Y-70828010D01*
X68296418Y-69942771D01*
X68763328Y-69476675D01*
X71769400Y-69476675D01*
X71769400Y-69523325D01*
X71860029Y-69978948D01*
X72118119Y-70365206D01*
X72504377Y-70623296D01*
X72960000Y-70713925D01*
X73415623Y-70623296D01*
X73801881Y-70365206D01*
X74059971Y-69978948D01*
X74150600Y-69523325D01*
X74150600Y-69476675D01*
X74059971Y-69021052D01*
X73801881Y-68634794D01*
X73415623Y-68376704D01*
X72960000Y-68286075D01*
X72504377Y-68376704D01*
X72118119Y-68634794D01*
X71860029Y-69021052D01*
X71769400Y-69476675D01*
X68763328Y-69476675D01*
X69937010Y-68305040D01*
X70505205Y-66936675D01*
X71769400Y-66936675D01*
X71769400Y-66983325D01*
X71860029Y-67438948D01*
X72118119Y-67825206D01*
X72504377Y-68083296D01*
X72960000Y-68173925D01*
X73415623Y-68083296D01*
X73801881Y-67825206D01*
X74059971Y-67438948D01*
X74150600Y-66983325D01*
X74150600Y-66936675D01*
X74059971Y-66481052D01*
X73801881Y-66094794D01*
X73415623Y-65836704D01*
X72960000Y-65746075D01*
X72504377Y-65836704D01*
X72118119Y-66094794D01*
X71860029Y-66481052D01*
X71769400Y-66936675D01*
X70505205Y-66936675D01*
X70825987Y-66164147D01*
X70828010Y-63846023D01*
X70209040Y-62348000D01*
X73696810Y-62348000D01*
X73696810Y-64752000D01*
X75303191Y-64752000D01*
X75303191Y-62348000D01*
X73696810Y-62348000D01*
X70209040Y-62348000D01*
X69942771Y-61703582D01*
X69104433Y-60863779D01*
X105872857Y-60863779D01*
X105998495Y-61167846D01*
X106230930Y-61400688D01*
X106534778Y-61526856D01*
X106863779Y-61527143D01*
X107167846Y-61401505D01*
X107400688Y-61169070D01*
X107526856Y-60865222D01*
X107526857Y-60863779D01*
X111572857Y-60863779D01*
X111698495Y-61167846D01*
X111930930Y-61400688D01*
X112234778Y-61526856D01*
X112563779Y-61527143D01*
X112867846Y-61401505D01*
X113100688Y-61169070D01*
X113226856Y-60865222D01*
X113227143Y-60536221D01*
X113101505Y-60232154D01*
X112869070Y-59999312D01*
X112565222Y-59873144D01*
X112236221Y-59872857D01*
X111932154Y-59998495D01*
X111699312Y-60230930D01*
X111573144Y-60534778D01*
X111572857Y-60863779D01*
X107526857Y-60863779D01*
X107527143Y-60536221D01*
X107401505Y-60232154D01*
X107169070Y-59999312D01*
X106865222Y-59873144D01*
X106536221Y-59872857D01*
X106232154Y-59998495D01*
X105999312Y-60230930D01*
X105873144Y-60534778D01*
X105872857Y-60863779D01*
X69104433Y-60863779D01*
X68305040Y-60062990D01*
X66713200Y-59402000D01*
X79660780Y-59402000D01*
X79715743Y-59484257D01*
M02*
