M48
;DRILL file {KiCad 4.0.6-e0-6349~53~ubuntu16.04.1} date Thu Aug 24 14:07:58 2017
;FORMAT={3:3/ absolute / metric / suppress leading zeros}
FMAT,2
METRIC,TZ
T1C0.700
T2C0.800
%
G90
G05
M71
T1
X67000Y-135630
X67000Y-136900
X68270Y-135630
X68270Y-136900
X69540Y-135630
X69540Y-136900
X70810Y-135630
X70810Y-136900
X72080Y-135630
X72080Y-136900
X73350Y-135630
X73350Y-136900
X74620Y-135630
X74620Y-136900
X75890Y-135630
X75890Y-136900
X77160Y-135630
X77160Y-136900
X78430Y-135630
X78430Y-136900
X79700Y-135630
X79700Y-136900
X80970Y-135630
X80970Y-136900
T2
X67635Y-136265
X80335Y-136265
T0
M30
