G04 #@! TF.FileFunction,Copper,L2,Bot,Signal*
%FSLAX46Y46*%
G04 Gerber Fmt 4.6, Leading zero omitted, Abs format (unit mm)*
G04 Created by KiCad (PCBNEW 4.0.2-stable) date Mon 10 Oct 2016 06:55:53 PM CEST*
%MOMM*%
G01*
G04 APERTURE LIST*
%ADD10C,0.100000*%
%ADD11C,1.727200*%
%ADD12R,1.727200X1.727200*%
%ADD13O,1.727200X1.727200*%
%ADD14R,2.032000X2.032000*%
%ADD15O,2.032000X2.032000*%
%ADD16R,2.235200X2.235200*%
%ADD17R,2.700020X1.501140*%
%ADD18C,0.600000*%
%ADD19C,0.400000*%
%ADD20C,0.500000*%
%ADD21C,0.250000*%
%ADD22C,0.254000*%
G04 APERTURE END LIST*
D10*
D11*
X124371100Y-80873600D03*
X124371100Y-83413600D03*
X124371100Y-85953600D03*
X124371100Y-88493600D03*
X124371100Y-91033600D03*
X124371100Y-93573600D03*
X124371100Y-96113600D03*
X124371100Y-98653600D03*
X124371100Y-101193600D03*
X124371100Y-103733600D03*
X124371100Y-106273600D03*
X124371100Y-108813600D03*
X124371100Y-111353600D03*
X124371100Y-113893600D03*
X124371100Y-116433600D03*
X124371100Y-118973600D03*
X124371100Y-121513600D03*
X124371100Y-124053600D03*
X124371100Y-126593600D03*
X124371100Y-129133600D03*
X172631100Y-129133600D03*
X172631100Y-126593600D03*
X172631100Y-124053600D03*
X172631100Y-121513600D03*
X172631100Y-118973600D03*
X172631100Y-116433600D03*
X172631100Y-113893600D03*
X172631100Y-111353600D03*
X172631100Y-108813600D03*
X172631100Y-106273600D03*
X172631100Y-103733600D03*
X172631100Y-101193600D03*
X172631100Y-98653600D03*
X172631100Y-96113600D03*
X172631100Y-93573600D03*
X172631100Y-91033600D03*
X172631100Y-88493600D03*
X172631100Y-85953600D03*
X172631100Y-83413600D03*
X172631100Y-80873600D03*
D12*
X160020000Y-83820000D03*
D13*
X160020000Y-81280000D03*
X162560000Y-83820000D03*
X162560000Y-81280000D03*
X165100000Y-83820000D03*
X165100000Y-81280000D03*
D12*
X132080000Y-83820000D03*
D13*
X132080000Y-81280000D03*
X134620000Y-83820000D03*
X134620000Y-81280000D03*
X137160000Y-83820000D03*
X137160000Y-81280000D03*
X139700000Y-83820000D03*
X139700000Y-81280000D03*
X142240000Y-83820000D03*
X142240000Y-81280000D03*
D14*
X149860000Y-81280000D03*
D15*
X152400000Y-81280000D03*
D16*
X129000000Y-87500000D03*
D17*
X155000000Y-88050600D03*
X155000000Y-83250000D03*
D18*
X157249980Y-82000000D03*
X156750000Y-85800031D03*
X160374529Y-93795019D03*
X133250000Y-114750000D03*
X132750000Y-95250000D03*
X128500000Y-91749992D03*
X136000000Y-88000000D03*
X160924510Y-104500000D03*
X134500000Y-99000000D03*
X128500000Y-105500000D03*
X127500000Y-112000000D03*
X153000000Y-118500000D03*
X143500000Y-120000000D03*
X165000000Y-123000000D03*
X136373224Y-117024832D03*
X150000000Y-125374980D03*
X140000000Y-126000000D03*
X126000000Y-105000000D03*
X146749916Y-84240026D03*
X149000000Y-95000000D03*
X152933045Y-98683043D03*
X145500000Y-96500000D03*
X139000000Y-86799980D03*
X144250000Y-81750000D03*
X145750000Y-81750000D03*
X131750000Y-88750000D03*
X158000001Y-84829015D03*
X140500000Y-121399945D03*
X166140000Y-125735000D03*
X138500000Y-129000000D03*
X138500000Y-125500000D03*
X150884945Y-85200020D03*
X148500032Y-84500000D03*
X132750000Y-105250000D03*
X126250000Y-102500000D03*
X132750000Y-106250004D03*
X126000000Y-103500000D03*
X152176232Y-95745951D03*
X146500000Y-85000000D03*
X143561655Y-83484342D03*
X150000000Y-94749945D03*
X149007541Y-85957824D03*
X129000000Y-112750000D03*
X130000000Y-110500000D03*
X134000000Y-110500000D03*
X134500000Y-117000000D03*
X140849529Y-111500019D03*
X145374980Y-106500000D03*
X135500000Y-119500000D03*
X156792643Y-99230213D03*
X156066955Y-99566955D03*
X150774529Y-90500000D03*
X149974529Y-91500000D03*
X129000000Y-85000000D03*
X148700020Y-90705509D03*
X154500000Y-103500000D03*
X153500000Y-103500000D03*
X152500000Y-103500000D03*
X134000000Y-109000000D03*
X150000000Y-103500000D03*
X150125074Y-104500000D03*
X146934306Y-102934306D03*
X142500000Y-121000000D03*
X143000000Y-125500000D03*
X142874980Y-115927901D03*
X129500000Y-126500000D03*
X144691956Y-116191956D03*
X131000000Y-126500000D03*
X132000000Y-126500000D03*
X146000000Y-116000000D03*
X147000000Y-116000000D03*
X133500000Y-126500000D03*
X148500000Y-116000000D03*
X134500000Y-126500000D03*
X145651612Y-125374980D03*
X150000000Y-116000000D03*
X146500000Y-125374980D03*
X151000000Y-116000000D03*
X148000000Y-125374980D03*
X152000000Y-116000000D03*
X153000000Y-117000000D03*
X151000000Y-124000000D03*
X142500000Y-126125020D03*
X156000000Y-120000000D03*
X144089980Y-126625020D03*
X157000000Y-120000000D03*
X137500000Y-126000000D03*
X158500000Y-120000000D03*
X136000000Y-126000000D03*
X159500000Y-120000000D03*
X144183024Y-106808044D03*
X135500000Y-117000000D03*
X146374980Y-106000000D03*
X141000000Y-116500000D03*
X147500000Y-105500000D03*
X143500000Y-116500000D03*
X161147818Y-99781729D03*
X165500000Y-97250000D03*
X165500000Y-96449987D03*
X165499874Y-95499770D03*
X144000000Y-90121234D03*
X150000000Y-97500000D03*
X151500000Y-102750000D03*
X169250000Y-108750000D03*
X147500002Y-103500000D03*
D19*
X156949981Y-81700001D02*
X157249980Y-82000000D01*
X156529980Y-81280000D02*
X156949981Y-81700001D01*
X152400000Y-81280000D02*
X156529980Y-81280000D01*
X136000000Y-117822320D02*
X133822320Y-117822320D01*
X136373224Y-117024832D02*
X136373224Y-117449096D01*
X136373224Y-117449096D02*
X136000000Y-117822320D01*
X149000000Y-95000000D02*
X147200001Y-93200001D01*
X147200001Y-93200001D02*
X147200001Y-84690111D01*
X147200001Y-84690111D02*
X147049915Y-84540025D01*
X147049915Y-84540025D02*
X146749916Y-84240026D01*
X152508781Y-98683043D02*
X152933045Y-98683043D01*
X147683043Y-98683043D02*
X152508781Y-98683043D01*
X145500000Y-96500000D02*
X147683043Y-98683043D01*
X138575736Y-86799980D02*
X139000000Y-86799980D01*
X137599980Y-86799980D02*
X138575736Y-86799980D01*
X134620000Y-83820000D02*
X137599980Y-86799980D01*
X156750011Y-84232192D02*
X156482203Y-84500000D01*
X150174270Y-84500000D02*
X147424270Y-81750000D01*
X163836399Y-82556399D02*
X158309054Y-82556399D01*
X147424270Y-81750000D02*
X146174264Y-81750000D01*
X156482203Y-84500000D02*
X150174270Y-84500000D01*
X156750011Y-84115442D02*
X156750011Y-84232192D01*
X158309054Y-82556399D02*
X156750011Y-84115442D01*
X146174264Y-81750000D02*
X145750000Y-81750000D01*
X165100000Y-83820000D02*
X163836399Y-82556399D01*
X143950001Y-82049999D02*
X144250000Y-81750000D01*
X143456399Y-82543601D02*
X143950001Y-82049999D01*
X138423601Y-82543601D02*
X143456399Y-82543601D01*
X137160000Y-81280000D02*
X138423601Y-82543601D01*
X137160000Y-81280000D02*
X135896399Y-82543601D01*
X135896399Y-82543601D02*
X130909197Y-82543601D01*
X130909197Y-82543601D02*
X130921995Y-82556399D01*
X130921995Y-82556399D02*
X130896399Y-82556399D01*
X130896399Y-82556399D02*
X130816399Y-82636399D01*
X130816399Y-82636399D02*
X130816399Y-85003601D01*
X130816399Y-85003601D02*
X131250000Y-85437202D01*
X131250000Y-85437202D02*
X131250000Y-88250000D01*
X131250000Y-88250000D02*
X131450001Y-88450001D01*
X131450001Y-88450001D02*
X131750000Y-88750000D01*
D20*
X158000000Y-86900610D02*
X158000000Y-84829016D01*
X158000000Y-84829016D02*
X158000001Y-84829015D01*
X155000000Y-88050600D02*
X156850010Y-88050600D01*
X156850010Y-88050600D02*
X158000000Y-86900610D01*
X140500000Y-123500000D02*
X140500000Y-121824209D01*
X138500000Y-125500000D02*
X140500000Y-123500000D01*
X140500000Y-121824209D02*
X140500000Y-121399945D01*
X138500000Y-129000000D02*
X147000000Y-129000000D01*
X147000000Y-129000000D02*
X147500000Y-128500000D01*
X147500000Y-128500000D02*
X163375000Y-128500000D01*
X163375000Y-128500000D02*
X166140000Y-125735000D01*
D19*
X124371100Y-101193600D02*
X124371100Y-100628900D01*
X147085918Y-83540024D02*
X147800012Y-84254118D01*
X146413914Y-83540024D02*
X147085918Y-83540024D01*
X145500000Y-84453938D02*
X146413914Y-83540024D01*
X125634701Y-98365299D02*
X126500000Y-97500000D01*
X145500000Y-91500000D02*
X145500000Y-84453938D01*
X139500000Y-97500000D02*
X145500000Y-91500000D01*
X126500000Y-97500000D02*
X139500000Y-97500000D01*
X124500000Y-100394830D02*
X125634701Y-99260129D01*
X124500000Y-100500000D02*
X124500000Y-100394830D01*
X147800012Y-84254118D02*
X147800012Y-84800012D01*
X124371100Y-100628900D02*
X124500000Y-100500000D01*
X147800012Y-84800012D02*
X148200020Y-85200020D01*
X125634701Y-99260129D02*
X125634701Y-98365299D01*
X148200020Y-85200020D02*
X150460681Y-85200020D01*
X150460681Y-85200020D02*
X150884945Y-85200020D01*
X147364309Y-82940013D02*
X148500032Y-84075736D01*
X144899989Y-84205406D02*
X146165382Y-82940013D01*
X144899989Y-91100011D02*
X144899989Y-84205406D01*
X148500032Y-84075736D02*
X148500032Y-84500000D01*
X126124711Y-96899989D02*
X139100011Y-96899989D01*
X124371100Y-98653600D02*
X126124711Y-96899989D01*
X139100011Y-96899989D02*
X144899989Y-91100011D01*
X146165382Y-82940013D02*
X147364309Y-82940013D01*
X132450001Y-104950001D02*
X132750000Y-105250000D01*
X126250000Y-102500000D02*
X130000000Y-102500000D01*
X130000000Y-102500000D02*
X132450001Y-104950001D01*
X126000000Y-103500000D02*
X129999996Y-103500000D01*
X132450001Y-105950005D02*
X132750000Y-106250004D01*
X129999996Y-103500000D02*
X132450001Y-105950005D01*
X151751968Y-95745951D02*
X152176232Y-95745951D01*
X146500000Y-85000000D02*
X146500000Y-94000000D01*
X146500000Y-94000000D02*
X148245951Y-95745951D01*
X148245951Y-95745951D02*
X151751968Y-95745951D01*
X143561655Y-83908606D02*
X143561655Y-83484342D01*
X132820000Y-83820000D02*
X136500000Y-87500000D01*
X143561655Y-84362609D02*
X143561655Y-83908606D01*
X132080000Y-83820000D02*
X132820000Y-83820000D01*
X140424264Y-87500000D02*
X143561655Y-84362609D01*
X136500000Y-87500000D02*
X140424264Y-87500000D01*
X149700001Y-94449946D02*
X150000000Y-94749945D01*
X148000000Y-92749945D02*
X149700001Y-94449946D01*
X148000000Y-86965365D02*
X148000000Y-92749945D01*
X149007541Y-85957824D02*
X148000000Y-86965365D01*
X129000000Y-111500000D02*
X129000000Y-112325736D01*
X130000000Y-110500000D02*
X129000000Y-111500000D01*
X129000000Y-112325736D02*
X129000000Y-112750000D01*
X124371100Y-111353600D02*
X126224700Y-109500000D01*
X126224700Y-109500000D02*
X133000000Y-109500000D01*
X133000000Y-109500000D02*
X134000000Y-110500000D01*
X140849529Y-111500019D02*
X139999981Y-111500019D01*
X139999981Y-111500019D02*
X134500000Y-117000000D01*
D21*
X135500000Y-119500000D02*
X145374980Y-109625020D01*
X145374980Y-109625020D02*
X145374980Y-106924264D01*
X145374980Y-106924264D02*
X145374980Y-106500000D01*
X157092642Y-99530212D02*
X156792643Y-99230213D01*
X172631100Y-110881100D02*
X172500000Y-110750000D01*
X162849978Y-100599978D02*
X158162408Y-100599978D01*
X172500000Y-110441630D02*
X171442499Y-109384129D01*
X172500000Y-110750000D02*
X172500000Y-110441630D01*
X171442499Y-109192499D02*
X162849978Y-100599978D01*
X171442499Y-109384129D02*
X171442499Y-109192499D01*
X172631100Y-111353600D02*
X172631100Y-110881100D01*
X158162408Y-100599978D02*
X157092642Y-99530212D01*
X172631100Y-113893600D02*
X172631100Y-113881100D01*
X162549989Y-101049989D02*
X157549989Y-101049989D01*
X172631100Y-113881100D02*
X172500000Y-113750000D01*
X156366954Y-99866954D02*
X156066955Y-99566955D01*
X157549989Y-101049989D02*
X156366954Y-99866954D01*
X172500000Y-113750000D02*
X172500000Y-113250000D01*
X172500000Y-113250000D02*
X170750000Y-111500000D01*
X170750000Y-111500000D02*
X170750000Y-109250000D01*
X170750000Y-109250000D02*
X162549989Y-101049989D01*
D19*
X150774529Y-90500000D02*
X163004700Y-90500000D01*
X163004700Y-90500000D02*
X172631100Y-80873600D01*
X149974529Y-91500000D02*
X163000000Y-91500000D01*
X163000000Y-91500000D02*
X171086400Y-83413600D01*
X171086400Y-83413600D02*
X172631100Y-83413600D01*
D20*
X128575736Y-85000000D02*
X129000000Y-85000000D01*
X124371100Y-88493600D02*
X127864700Y-85000000D01*
X127864700Y-85000000D02*
X128575736Y-85000000D01*
D19*
X158700002Y-84413998D02*
X158336002Y-84049998D01*
X156819114Y-85100011D02*
X154305518Y-85100011D01*
X158700002Y-85030748D02*
X158700002Y-84413998D01*
X157350022Y-84363974D02*
X157350022Y-84569103D01*
X149000019Y-90405510D02*
X148700020Y-90705509D01*
X157663998Y-84049998D02*
X157350022Y-84363974D01*
X158336002Y-84049998D02*
X157663998Y-84049998D01*
X161280011Y-85099989D02*
X158769243Y-85099989D01*
X162560000Y-83820000D02*
X161280011Y-85099989D01*
X154305518Y-85100011D02*
X149000019Y-90405510D01*
X157350022Y-84569103D02*
X156819114Y-85100011D01*
X158769243Y-85099989D02*
X158700002Y-85030748D01*
D21*
X154500000Y-103500000D02*
X169973600Y-118973600D01*
X169973600Y-118973600D02*
X172631100Y-118973600D01*
X153500000Y-103500000D02*
X171513600Y-121513600D01*
X171513600Y-121513600D02*
X172631100Y-121513600D01*
X152500000Y-103500000D02*
X172631100Y-123631100D01*
X172631100Y-123631100D02*
X172631100Y-124053600D01*
D19*
X124371100Y-108813600D02*
X133813600Y-108813600D01*
X133813600Y-108813600D02*
X134000000Y-109000000D01*
D21*
X149500000Y-105221630D02*
X171767501Y-127489131D01*
X171767501Y-128270001D02*
X172631100Y-129133600D01*
X149500000Y-104000000D02*
X149500000Y-105221630D01*
X171767501Y-127489131D02*
X171767501Y-128270001D01*
X150000000Y-103500000D02*
X149500000Y-104000000D01*
X172631100Y-126593600D02*
X171593600Y-126593600D01*
X171593600Y-126593600D02*
X150125074Y-105125074D01*
X150125074Y-105125074D02*
X150125074Y-104500000D01*
X172631100Y-103733600D02*
X167483600Y-103733600D01*
X167483600Y-103733600D02*
X162250000Y-98500000D01*
X162250000Y-98500000D02*
X156250000Y-98500000D01*
X156250000Y-98500000D02*
X153700011Y-101049989D01*
X153700011Y-101049989D02*
X148818623Y-101049989D01*
X148818623Y-101049989D02*
X147234305Y-102634307D01*
X147234305Y-102634307D02*
X146934306Y-102934306D01*
X172631100Y-106273600D02*
X172607500Y-106250000D01*
D19*
X143000000Y-125500000D02*
X143000000Y-121500000D01*
X143000000Y-121500000D02*
X142500000Y-121000000D01*
D21*
X142574981Y-116227900D02*
X142874980Y-115927901D01*
X132699956Y-123254400D02*
X138829354Y-117125002D01*
X129500000Y-126500000D02*
X132699956Y-123300044D01*
X132699956Y-123300044D02*
X132699956Y-123254400D01*
X141677879Y-117125002D02*
X142574981Y-116227900D01*
X138829354Y-117125002D02*
X141677879Y-117125002D01*
X144391957Y-116491955D02*
X144691956Y-116191956D01*
X143308899Y-117575013D02*
X144391957Y-116491955D01*
X139015754Y-117575013D02*
X143308899Y-117575013D01*
X133149967Y-123440800D02*
X139015754Y-117575013D01*
X133149967Y-124350033D02*
X133149967Y-123440800D01*
X131000000Y-126500000D02*
X133149967Y-124350033D01*
X133599978Y-124900022D02*
X133599978Y-123627200D01*
X145700001Y-116299999D02*
X146000000Y-116000000D01*
X139202154Y-118025024D02*
X143974976Y-118025024D01*
X133599978Y-123627200D02*
X139202154Y-118025024D01*
X132000000Y-126500000D02*
X133599978Y-124900022D01*
X143974976Y-118025024D02*
X145700001Y-116299999D01*
X146700001Y-116299999D02*
X147000000Y-116000000D01*
X144500000Y-118500000D02*
X146700001Y-116299999D01*
X139363589Y-118500000D02*
X144500000Y-118500000D01*
X134049989Y-123813600D02*
X139363589Y-118500000D01*
X134049989Y-125950011D02*
X134049989Y-123813600D01*
X133500000Y-126500000D02*
X134049989Y-125950011D01*
X134500000Y-126500000D02*
X134500000Y-124000000D01*
X139500000Y-119000000D02*
X145500000Y-119000000D01*
X145500000Y-119000000D02*
X148500000Y-116000000D01*
X134500000Y-124000000D02*
X139500000Y-119000000D01*
X147000000Y-123949978D02*
X145651612Y-125298366D01*
X150000000Y-116500000D02*
X147000000Y-119500000D01*
X147000000Y-119500000D02*
X147000000Y-123949978D01*
X145651612Y-125298366D02*
X145651612Y-125374980D01*
X150000000Y-116000000D02*
X150000000Y-116500000D01*
X147450011Y-124424969D02*
X146799999Y-125074981D01*
X147450011Y-120049989D02*
X147450011Y-124424969D01*
X146799999Y-125074981D02*
X146500000Y-125374980D01*
X151000000Y-116500000D02*
X147450011Y-120049989D01*
X151000000Y-116000000D02*
X151000000Y-116500000D01*
X152000000Y-116000000D02*
X152000000Y-116500000D01*
X152000000Y-116500000D02*
X148000000Y-120500000D01*
X148000000Y-120500000D02*
X148000000Y-125374980D01*
D19*
X151000000Y-124000000D02*
X151000000Y-119000000D01*
X151000000Y-119000000D02*
X153000000Y-117000000D01*
D21*
X143299982Y-126125020D02*
X143425002Y-126000000D01*
X142500000Y-126125020D02*
X143299982Y-126125020D01*
X150424264Y-126000000D02*
X156000000Y-120424264D01*
X156000000Y-120424264D02*
X156000000Y-120000000D01*
X143425002Y-126000000D02*
X150424264Y-126000000D01*
X144514244Y-126625020D02*
X144089980Y-126625020D01*
X150799244Y-126625020D02*
X144514244Y-126625020D01*
X157000000Y-120424264D02*
X150799244Y-126625020D01*
X157000000Y-120000000D02*
X157000000Y-120424264D01*
X137799999Y-126299999D02*
X137500000Y-126000000D01*
X158500000Y-120000000D02*
X151249978Y-127250022D01*
X143539956Y-127000000D02*
X138500000Y-127000000D01*
X138500000Y-127000000D02*
X137799999Y-126299999D01*
X151249978Y-127250022D02*
X143789978Y-127250022D01*
X143789978Y-127250022D02*
X143539956Y-127000000D01*
X143603578Y-127700033D02*
X143403545Y-127500000D01*
X136299999Y-126299999D02*
X136000000Y-126000000D01*
X143403545Y-127500000D02*
X137500000Y-127500000D01*
X159500000Y-120000000D02*
X151799967Y-127700033D01*
X151799967Y-127700033D02*
X143603578Y-127700033D01*
X137500000Y-127500000D02*
X136299999Y-126299999D01*
X144183024Y-107232308D02*
X144183024Y-106808044D01*
X144183024Y-109091526D02*
X144183024Y-107232308D01*
X141149530Y-112125020D02*
X144183024Y-109091526D01*
X140374980Y-112125020D02*
X141149530Y-112125020D01*
X135500000Y-117000000D02*
X140374980Y-112125020D01*
X146374980Y-109625020D02*
X146374980Y-106424264D01*
X146374980Y-106424264D02*
X146374980Y-106000000D01*
X141000000Y-115000000D02*
X146374980Y-109625020D01*
X141000000Y-116500000D02*
X141000000Y-115000000D01*
X147500000Y-105500000D02*
X147000000Y-106000000D01*
X147000000Y-110000000D02*
X143500000Y-113500000D01*
X147000000Y-106000000D02*
X147000000Y-110000000D01*
X143500000Y-113500000D02*
X143500000Y-116500000D01*
X172631100Y-108813600D02*
X172563600Y-108813600D01*
X172563600Y-108813600D02*
X172250000Y-108500000D01*
X172250000Y-108500000D02*
X171500000Y-108500000D01*
X161447817Y-100081728D02*
X161147818Y-99781729D01*
X171500000Y-108500000D02*
X163081728Y-100081728D01*
X163081728Y-100081728D02*
X161447817Y-100081728D01*
D19*
X165500000Y-97250000D02*
X171227500Y-97250000D01*
X171227500Y-97250000D02*
X172631100Y-98653600D01*
X172631100Y-96113600D02*
X171886400Y-96113600D01*
X171886400Y-96113600D02*
X171500000Y-96500000D01*
X171500000Y-96500000D02*
X165550013Y-96500000D01*
X165550013Y-96500000D02*
X165500000Y-96449987D01*
X172631100Y-93573600D02*
X172631100Y-93868900D01*
X172631100Y-93868900D02*
X171000000Y-95500000D01*
X171000000Y-95500000D02*
X165500104Y-95500000D01*
X165500104Y-95500000D02*
X165499874Y-95499770D01*
X125750000Y-92412500D02*
X124371100Y-91033600D01*
X138750000Y-96250000D02*
X126750000Y-96250000D01*
X144000000Y-91000000D02*
X138750000Y-96250000D01*
X125750000Y-95250000D02*
X125750000Y-92412500D01*
X126750000Y-96250000D02*
X125750000Y-95250000D01*
X144000000Y-90121234D02*
X144000000Y-91000000D01*
D21*
X171409786Y-101193600D02*
X172631100Y-101193600D01*
X150000000Y-97500000D02*
X163772820Y-97500000D01*
X167466420Y-101193600D02*
X171409786Y-101193600D01*
X163772820Y-97500000D02*
X167466420Y-101193600D01*
X151500000Y-102750000D02*
X154750000Y-102750000D01*
X154750000Y-102750000D02*
X168433600Y-116433600D01*
X168433600Y-116433600D02*
X172631100Y-116433600D01*
X162000000Y-101500000D02*
X169250000Y-108750000D01*
X151750000Y-101500000D02*
X162000000Y-101500000D01*
X149500002Y-101500000D02*
X147800001Y-103200001D01*
X151750000Y-101500000D02*
X149500002Y-101500000D01*
X147800001Y-103200001D02*
X147500002Y-103500000D01*
D20*
X149860000Y-81280000D02*
X149860000Y-82796000D01*
X149860000Y-82796000D02*
X150314000Y-83250000D01*
X150314000Y-83250000D02*
X153149990Y-83250000D01*
X153149990Y-83250000D02*
X155000000Y-83250000D01*
D22*
G36*
X171622347Y-80198299D02*
X171440707Y-80635736D01*
X171440294Y-81109386D01*
X171501615Y-81257794D01*
X162786410Y-89973000D01*
X151134388Y-89973000D01*
X151130160Y-89968765D01*
X150899794Y-89873109D01*
X150650358Y-89872891D01*
X150419826Y-89968145D01*
X150243294Y-90144369D01*
X150147638Y-90374735D01*
X150147420Y-90624171D01*
X150242674Y-90854703D01*
X150360765Y-90973000D01*
X150334388Y-90973000D01*
X150330160Y-90968765D01*
X150099794Y-90873109D01*
X149850358Y-90872891D01*
X149619826Y-90968145D01*
X149443294Y-91144369D01*
X149347638Y-91374735D01*
X149347420Y-91624171D01*
X149442674Y-91854703D01*
X149618898Y-92031235D01*
X149849264Y-92126891D01*
X150098700Y-92127109D01*
X150329232Y-92031855D01*
X150334095Y-92027000D01*
X163000000Y-92027000D01*
X163201675Y-91986885D01*
X163372645Y-91872645D01*
X171304691Y-83940600D01*
X171560621Y-83940600D01*
X171621170Y-84087140D01*
X171955799Y-84422353D01*
X172393236Y-84603993D01*
X172866886Y-84604406D01*
X173304640Y-84423530D01*
X173499100Y-84229409D01*
X173499100Y-85137882D01*
X173306401Y-84944847D01*
X172868964Y-84763207D01*
X172395314Y-84762794D01*
X171957560Y-84943670D01*
X171622347Y-85278299D01*
X171440707Y-85715736D01*
X171440294Y-86189386D01*
X171621170Y-86627140D01*
X171955799Y-86962353D01*
X172393236Y-87143993D01*
X172866886Y-87144406D01*
X173304640Y-86963530D01*
X173499100Y-86769409D01*
X173499100Y-87677882D01*
X173306401Y-87484847D01*
X172868964Y-87303207D01*
X172395314Y-87302794D01*
X171957560Y-87483670D01*
X171622347Y-87818299D01*
X171440707Y-88255736D01*
X171440294Y-88729386D01*
X171621170Y-89167140D01*
X171955799Y-89502353D01*
X172393236Y-89683993D01*
X172866886Y-89684406D01*
X173304640Y-89503530D01*
X173499100Y-89309409D01*
X173499100Y-90217882D01*
X173306401Y-90024847D01*
X172868964Y-89843207D01*
X172395314Y-89842794D01*
X171957560Y-90023670D01*
X171622347Y-90358299D01*
X171440707Y-90795736D01*
X171440294Y-91269386D01*
X171621170Y-91707140D01*
X171955799Y-92042353D01*
X172393236Y-92223993D01*
X172866886Y-92224406D01*
X173304640Y-92043530D01*
X173499100Y-91849409D01*
X173499100Y-92757882D01*
X173306401Y-92564847D01*
X172868964Y-92383207D01*
X172395314Y-92382794D01*
X171957560Y-92563670D01*
X171622347Y-92898299D01*
X171440707Y-93335736D01*
X171440294Y-93809386D01*
X171587955Y-94166755D01*
X170781710Y-94973000D01*
X165859962Y-94973000D01*
X165855505Y-94968535D01*
X165625139Y-94872879D01*
X165375703Y-94872661D01*
X165145171Y-94967915D01*
X164968639Y-95144139D01*
X164872983Y-95374505D01*
X164872765Y-95623941D01*
X164968019Y-95854473D01*
X165088333Y-95974997D01*
X164968765Y-96094356D01*
X164873109Y-96324722D01*
X164872891Y-96574158D01*
X164968145Y-96804690D01*
X165013294Y-96849918D01*
X164968765Y-96894369D01*
X164873109Y-97124735D01*
X164872891Y-97374171D01*
X164968145Y-97604703D01*
X165144369Y-97781235D01*
X165374735Y-97876891D01*
X165624171Y-97877109D01*
X165854703Y-97781855D01*
X165859566Y-97777000D01*
X171009210Y-97777000D01*
X171501512Y-98269302D01*
X171440707Y-98415736D01*
X171440294Y-98889386D01*
X171621170Y-99327140D01*
X171955799Y-99662353D01*
X172393236Y-99843993D01*
X172866886Y-99844406D01*
X173304640Y-99663530D01*
X173499100Y-99469409D01*
X173499100Y-100377882D01*
X173306401Y-100184847D01*
X172868964Y-100003207D01*
X172395314Y-100002794D01*
X171957560Y-100183670D01*
X171622347Y-100518299D01*
X171529624Y-100741600D01*
X167653644Y-100741600D01*
X164092432Y-97180388D01*
X163945793Y-97082406D01*
X163772820Y-97048000D01*
X150434728Y-97048000D01*
X150355631Y-96968765D01*
X150125265Y-96873109D01*
X149875829Y-96872891D01*
X149645297Y-96968145D01*
X149468765Y-97144369D01*
X149373109Y-97374735D01*
X149372891Y-97624171D01*
X149468145Y-97854703D01*
X149644369Y-98031235D01*
X149874735Y-98126891D01*
X150124171Y-98127109D01*
X150354703Y-98031855D01*
X150434698Y-97952000D01*
X163585596Y-97952000D01*
X167146808Y-101513212D01*
X167293447Y-101611194D01*
X167466420Y-101645600D01*
X171529632Y-101645600D01*
X171621170Y-101867140D01*
X171955799Y-102202353D01*
X172393236Y-102383993D01*
X172866886Y-102384406D01*
X173304640Y-102203530D01*
X173499100Y-102009409D01*
X173499100Y-102917882D01*
X173306401Y-102724847D01*
X172868964Y-102543207D01*
X172395314Y-102542794D01*
X171957560Y-102723670D01*
X171622347Y-103058299D01*
X171529624Y-103281600D01*
X167670824Y-103281600D01*
X162569612Y-98180388D01*
X162422973Y-98082406D01*
X162250000Y-98048000D01*
X156250000Y-98048000D01*
X156077027Y-98082406D01*
X155930388Y-98180388D01*
X153512787Y-100597989D01*
X148818623Y-100597989D01*
X148645650Y-100632395D01*
X148499011Y-100730377D01*
X146922093Y-102307295D01*
X146810135Y-102307197D01*
X146579603Y-102402451D01*
X146403071Y-102578675D01*
X146307415Y-102809041D01*
X146307197Y-103058477D01*
X146402451Y-103289009D01*
X146578675Y-103465541D01*
X146809041Y-103561197D01*
X146872948Y-103561253D01*
X146872893Y-103624171D01*
X146968147Y-103854703D01*
X147144371Y-104031235D01*
X147374737Y-104126891D01*
X147624173Y-104127109D01*
X147854705Y-104031855D01*
X148031237Y-103855631D01*
X148126893Y-103625265D01*
X148126992Y-103512234D01*
X149687227Y-101952000D01*
X161812776Y-101952000D01*
X168622989Y-108762213D01*
X168622891Y-108874171D01*
X168718145Y-109104703D01*
X168894369Y-109281235D01*
X169124735Y-109376891D01*
X169374171Y-109377109D01*
X169604703Y-109281855D01*
X169781235Y-109105631D01*
X169835565Y-108974789D01*
X170298000Y-109437224D01*
X170298000Y-111500000D01*
X170332406Y-111672973D01*
X170430388Y-111819612D01*
X171725801Y-113115025D01*
X171622347Y-113218299D01*
X171440707Y-113655736D01*
X171440294Y-114129386D01*
X171621170Y-114567140D01*
X171955799Y-114902353D01*
X172393236Y-115083993D01*
X172866886Y-115084406D01*
X173304640Y-114903530D01*
X173499100Y-114709409D01*
X173499100Y-115617882D01*
X173306401Y-115424847D01*
X172868964Y-115243207D01*
X172395314Y-115242794D01*
X171957560Y-115423670D01*
X171622347Y-115758299D01*
X171529624Y-115981600D01*
X168620824Y-115981600D01*
X155069612Y-102430388D01*
X154922973Y-102332406D01*
X154750000Y-102298000D01*
X151934728Y-102298000D01*
X151855631Y-102218765D01*
X151625265Y-102123109D01*
X151375829Y-102122891D01*
X151145297Y-102218145D01*
X150968765Y-102394369D01*
X150873109Y-102624735D01*
X150872891Y-102874171D01*
X150968145Y-103104703D01*
X151144369Y-103281235D01*
X151374735Y-103376891D01*
X151624171Y-103377109D01*
X151854703Y-103281855D01*
X151934698Y-103202000D01*
X151944835Y-103202000D01*
X151873109Y-103374735D01*
X151872891Y-103624171D01*
X151968145Y-103854703D01*
X152144369Y-104031235D01*
X152374735Y-104126891D01*
X152487766Y-104126990D01*
X171680761Y-123319986D01*
X171622347Y-123378299D01*
X171440707Y-123815736D01*
X171440294Y-124289386D01*
X171621170Y-124727140D01*
X171955799Y-125062353D01*
X172393236Y-125243993D01*
X172866886Y-125244406D01*
X173304640Y-125063530D01*
X173499100Y-124869409D01*
X173499100Y-125777882D01*
X173306401Y-125584847D01*
X172868964Y-125403207D01*
X172395314Y-125402794D01*
X171957560Y-125583670D01*
X171622347Y-125918299D01*
X171603328Y-125964103D01*
X150577074Y-104937850D01*
X150577074Y-104934728D01*
X150656309Y-104855631D01*
X150751965Y-104625265D01*
X150752183Y-104375829D01*
X150656929Y-104145297D01*
X150480705Y-103968765D01*
X150436352Y-103950348D01*
X150531235Y-103855631D01*
X150626891Y-103625265D01*
X150627109Y-103375829D01*
X150531855Y-103145297D01*
X150355631Y-102968765D01*
X150125265Y-102873109D01*
X149875829Y-102872891D01*
X149645297Y-102968145D01*
X149468765Y-103144369D01*
X149373109Y-103374735D01*
X149373010Y-103487766D01*
X149180388Y-103680388D01*
X149082406Y-103827027D01*
X149048000Y-104000000D01*
X149048000Y-105221630D01*
X149082406Y-105394603D01*
X149180388Y-105541242D01*
X171315501Y-127676355D01*
X171315501Y-128270001D01*
X171349907Y-128442974D01*
X171447889Y-128589613D01*
X171532632Y-128674356D01*
X171440707Y-128895736D01*
X171440294Y-129369386D01*
X171621170Y-129807140D01*
X171815291Y-130001600D01*
X149538100Y-130001600D01*
X149538100Y-129133600D01*
X149526842Y-129077000D01*
X163374995Y-129077000D01*
X163375000Y-129077001D01*
X163595808Y-129033078D01*
X163783001Y-128908001D01*
X166374464Y-126316537D01*
X166494703Y-126266855D01*
X166671235Y-126090631D01*
X166766891Y-125860265D01*
X166767109Y-125610829D01*
X166671855Y-125380297D01*
X166495631Y-125203765D01*
X166265265Y-125108109D01*
X166015829Y-125107891D01*
X165785297Y-125203145D01*
X165608765Y-125379369D01*
X165558445Y-125500554D01*
X163135998Y-127923000D01*
X152216224Y-127923000D01*
X159512213Y-120627011D01*
X159624171Y-120627109D01*
X159854703Y-120531855D01*
X160031235Y-120355631D01*
X160126891Y-120125265D01*
X160127109Y-119875829D01*
X160031855Y-119645297D01*
X159855631Y-119468765D01*
X159625265Y-119373109D01*
X159375829Y-119372891D01*
X159145297Y-119468145D01*
X158999901Y-119613287D01*
X158855631Y-119468765D01*
X158625265Y-119373109D01*
X158375829Y-119372891D01*
X158145297Y-119468145D01*
X157968765Y-119644369D01*
X157873109Y-119874735D01*
X157873010Y-119987765D01*
X157549762Y-120311013D01*
X157626891Y-120125265D01*
X157627109Y-119875829D01*
X157531855Y-119645297D01*
X157355631Y-119468765D01*
X157125265Y-119373109D01*
X156875829Y-119372891D01*
X156645297Y-119468145D01*
X156499901Y-119613287D01*
X156355631Y-119468765D01*
X156125265Y-119373109D01*
X155875829Y-119372891D01*
X155645297Y-119468145D01*
X155468765Y-119644369D01*
X155373109Y-119874735D01*
X155372891Y-120124171D01*
X155457090Y-120327949D01*
X151603541Y-124181499D01*
X151626891Y-124125265D01*
X151627109Y-123875829D01*
X151531855Y-123645297D01*
X151527000Y-123640434D01*
X151527000Y-119218290D01*
X153118186Y-117627104D01*
X153124171Y-117627109D01*
X153354703Y-117531855D01*
X153531235Y-117355631D01*
X153626891Y-117125265D01*
X153627109Y-116875829D01*
X153531855Y-116645297D01*
X153355631Y-116468765D01*
X153125265Y-116373109D01*
X152875829Y-116372891D01*
X152645297Y-116468145D01*
X152468765Y-116644369D01*
X152373109Y-116874735D01*
X152373103Y-116881607D01*
X150627355Y-118627355D01*
X150513115Y-118798325D01*
X150513115Y-118798326D01*
X150473000Y-119000000D01*
X150473000Y-123640141D01*
X150468765Y-123644369D01*
X150373109Y-123874735D01*
X150372891Y-124124171D01*
X150468145Y-124354703D01*
X150644369Y-124531235D01*
X150874735Y-124626891D01*
X151124171Y-124627109D01*
X151181702Y-124603338D01*
X150237040Y-125548000D01*
X148607061Y-125548000D01*
X148626891Y-125500245D01*
X148627109Y-125250809D01*
X148531855Y-125020277D01*
X148452000Y-124940282D01*
X148452000Y-120687224D01*
X152319612Y-116819612D01*
X152417594Y-116672973D01*
X152423099Y-116645297D01*
X152452000Y-116500000D01*
X152452000Y-116434728D01*
X152531235Y-116355631D01*
X152626891Y-116125265D01*
X152627109Y-115875829D01*
X152531855Y-115645297D01*
X152355631Y-115468765D01*
X152125265Y-115373109D01*
X151875829Y-115372891D01*
X151645297Y-115468145D01*
X151499901Y-115613287D01*
X151355631Y-115468765D01*
X151125265Y-115373109D01*
X150875829Y-115372891D01*
X150645297Y-115468145D01*
X150499901Y-115613287D01*
X150355631Y-115468765D01*
X150125265Y-115373109D01*
X149875829Y-115372891D01*
X149645297Y-115468145D01*
X149468765Y-115644369D01*
X149373109Y-115874735D01*
X149372891Y-116124171D01*
X149468145Y-116354703D01*
X149487092Y-116373684D01*
X146680388Y-119180388D01*
X146582406Y-119327027D01*
X146548000Y-119500000D01*
X146548000Y-123762753D01*
X145562852Y-124747902D01*
X145527441Y-124747871D01*
X145296909Y-124843125D01*
X145120377Y-125019349D01*
X145024721Y-125249715D01*
X145024503Y-125499151D01*
X145044687Y-125548000D01*
X143626959Y-125548000D01*
X143627109Y-125375829D01*
X143531855Y-125145297D01*
X143527000Y-125140434D01*
X143527000Y-121500000D01*
X143486885Y-121298326D01*
X143372645Y-121127355D01*
X143127104Y-120881814D01*
X143127109Y-120875829D01*
X143031855Y-120645297D01*
X142855631Y-120468765D01*
X142625265Y-120373109D01*
X142375829Y-120372891D01*
X142145297Y-120468145D01*
X141968765Y-120644369D01*
X141873109Y-120874735D01*
X141872891Y-121124171D01*
X141968145Y-121354703D01*
X142144369Y-121531235D01*
X142374735Y-121626891D01*
X142381607Y-121626897D01*
X142473000Y-121718290D01*
X142473000Y-125140141D01*
X142468765Y-125144369D01*
X142373109Y-125374735D01*
X142373000Y-125499080D01*
X142145297Y-125593165D01*
X141968765Y-125769389D01*
X141873109Y-125999755D01*
X141872891Y-126249191D01*
X141968145Y-126479723D01*
X142036303Y-126548000D01*
X138687224Y-126548000D01*
X138188985Y-126049761D01*
X138374735Y-126126891D01*
X138624171Y-126127109D01*
X138854703Y-126031855D01*
X139031235Y-125855631D01*
X139081555Y-125734447D01*
X140908001Y-123908001D01*
X141033078Y-123720808D01*
X141077000Y-123500000D01*
X141077000Y-121645361D01*
X141126891Y-121525210D01*
X141127109Y-121275774D01*
X141031855Y-121045242D01*
X140855631Y-120868710D01*
X140625265Y-120773054D01*
X140375829Y-120772836D01*
X140145297Y-120868090D01*
X139968765Y-121044314D01*
X139873109Y-121274680D01*
X139872891Y-121524116D01*
X139923000Y-121645389D01*
X139923000Y-123260998D01*
X138265534Y-124918464D01*
X138145297Y-124968145D01*
X137968765Y-125144369D01*
X137873109Y-125374735D01*
X137873012Y-125486176D01*
X137855631Y-125468765D01*
X137625265Y-125373109D01*
X137375829Y-125372891D01*
X137145297Y-125468145D01*
X136968765Y-125644369D01*
X136873109Y-125874735D01*
X136872891Y-126124171D01*
X136949991Y-126310767D01*
X136627011Y-125987787D01*
X136627109Y-125875829D01*
X136531855Y-125645297D01*
X136355631Y-125468765D01*
X136125265Y-125373109D01*
X135875829Y-125372891D01*
X135645297Y-125468145D01*
X135468765Y-125644369D01*
X135373109Y-125874735D01*
X135372891Y-126124171D01*
X135468145Y-126354703D01*
X135644369Y-126531235D01*
X135874735Y-126626891D01*
X135987766Y-126626990D01*
X137180388Y-127819612D01*
X137327027Y-127917594D01*
X137500000Y-127952000D01*
X143216320Y-127952000D01*
X143283965Y-128019645D01*
X143392250Y-128091999D01*
X143430605Y-128117627D01*
X143603578Y-128152033D01*
X147031966Y-128152033D01*
X146760998Y-128423000D01*
X138745416Y-128423000D01*
X138625265Y-128373109D01*
X138375829Y-128372891D01*
X138145297Y-128468145D01*
X137968765Y-128644369D01*
X137873109Y-128874735D01*
X137872891Y-129124171D01*
X137968145Y-129354703D01*
X138144369Y-129531235D01*
X138374735Y-129626891D01*
X138624171Y-129627109D01*
X138745444Y-129577000D01*
X146999995Y-129577000D01*
X147000000Y-129577001D01*
X147220808Y-129533078D01*
X147408001Y-129408001D01*
X147464100Y-129351902D01*
X147464100Y-130001600D01*
X125186818Y-130001600D01*
X125379853Y-129808901D01*
X125561493Y-129371464D01*
X125561906Y-128897814D01*
X125381030Y-128460060D01*
X125046401Y-128124847D01*
X124608964Y-127943207D01*
X124135314Y-127942794D01*
X123697560Y-128123670D01*
X123503100Y-128317791D01*
X123503100Y-127409318D01*
X123695799Y-127602353D01*
X124133236Y-127783993D01*
X124606886Y-127784406D01*
X125044640Y-127603530D01*
X125379853Y-127268901D01*
X125561493Y-126831464D01*
X125561673Y-126624171D01*
X128872891Y-126624171D01*
X128968145Y-126854703D01*
X129144369Y-127031235D01*
X129374735Y-127126891D01*
X129624171Y-127127109D01*
X129854703Y-127031855D01*
X130031235Y-126855631D01*
X130126891Y-126625265D01*
X130126990Y-126512234D01*
X130450239Y-126188985D01*
X130373109Y-126374735D01*
X130372891Y-126624171D01*
X130468145Y-126854703D01*
X130644369Y-127031235D01*
X130874735Y-127126891D01*
X131124171Y-127127109D01*
X131354703Y-127031855D01*
X131500099Y-126886713D01*
X131644369Y-127031235D01*
X131874735Y-127126891D01*
X132124171Y-127127109D01*
X132354703Y-127031855D01*
X132531235Y-126855631D01*
X132626891Y-126625265D01*
X132626990Y-126512234D01*
X132950239Y-126188986D01*
X132873109Y-126374735D01*
X132872891Y-126624171D01*
X132968145Y-126854703D01*
X133144369Y-127031235D01*
X133374735Y-127126891D01*
X133624171Y-127127109D01*
X133854703Y-127031855D01*
X134000099Y-126886713D01*
X134144369Y-127031235D01*
X134374735Y-127126891D01*
X134624171Y-127127109D01*
X134854703Y-127031855D01*
X135031235Y-126855631D01*
X135126891Y-126625265D01*
X135127109Y-126375829D01*
X135031855Y-126145297D01*
X134952000Y-126065302D01*
X134952000Y-124187224D01*
X139687224Y-119452000D01*
X145500000Y-119452000D01*
X145672973Y-119417594D01*
X145819612Y-119319612D01*
X148512213Y-116627011D01*
X148624171Y-116627109D01*
X148854703Y-116531855D01*
X149031235Y-116355631D01*
X149126891Y-116125265D01*
X149127109Y-115875829D01*
X149031855Y-115645297D01*
X148855631Y-115468765D01*
X148625265Y-115373109D01*
X148375829Y-115372891D01*
X148145297Y-115468145D01*
X147968765Y-115644369D01*
X147873109Y-115874735D01*
X147873010Y-115987766D01*
X147549761Y-116311015D01*
X147626891Y-116125265D01*
X147627109Y-115875829D01*
X147531855Y-115645297D01*
X147355631Y-115468765D01*
X147125265Y-115373109D01*
X146875829Y-115372891D01*
X146645297Y-115468145D01*
X146499901Y-115613287D01*
X146355631Y-115468765D01*
X146125265Y-115373109D01*
X145875829Y-115372891D01*
X145645297Y-115468145D01*
X145468765Y-115644369D01*
X145373109Y-115874735D01*
X145373010Y-115987766D01*
X145311441Y-116049335D01*
X145223811Y-115837253D01*
X145047587Y-115660721D01*
X144817221Y-115565065D01*
X144567785Y-115564847D01*
X144337253Y-115660101D01*
X144160721Y-115836325D01*
X144065065Y-116066691D01*
X144064966Y-116179722D01*
X144051601Y-116193087D01*
X144031855Y-116145297D01*
X143952000Y-116065302D01*
X143952000Y-113687224D01*
X147319612Y-110319613D01*
X147417594Y-110172973D01*
X147452000Y-110000000D01*
X147452000Y-106187224D01*
X147512213Y-106127011D01*
X147624171Y-106127109D01*
X147854703Y-106031855D01*
X148031235Y-105855631D01*
X148126891Y-105625265D01*
X148127109Y-105375829D01*
X148031855Y-105145297D01*
X147855631Y-104968765D01*
X147625265Y-104873109D01*
X147375829Y-104872891D01*
X147145297Y-104968145D01*
X146968765Y-105144369D01*
X146873109Y-105374735D01*
X146873010Y-105487766D01*
X146811241Y-105549535D01*
X146730611Y-105468765D01*
X146500245Y-105373109D01*
X146250809Y-105372891D01*
X146020277Y-105468145D01*
X145843745Y-105644369D01*
X145748089Y-105874735D01*
X145747992Y-105986176D01*
X145730611Y-105968765D01*
X145500245Y-105873109D01*
X145250809Y-105872891D01*
X145020277Y-105968145D01*
X144843745Y-106144369D01*
X144748089Y-106374735D01*
X144747950Y-106533380D01*
X144714879Y-106453341D01*
X144538655Y-106276809D01*
X144308289Y-106181153D01*
X144058853Y-106180935D01*
X143828321Y-106276189D01*
X143651789Y-106452413D01*
X143556133Y-106682779D01*
X143555915Y-106932215D01*
X143651169Y-107162747D01*
X143731024Y-107242742D01*
X143731024Y-108904301D01*
X141413144Y-111222182D01*
X141381384Y-111145316D01*
X141205160Y-110968784D01*
X140974794Y-110873128D01*
X140725358Y-110872910D01*
X140494826Y-110968164D01*
X140489963Y-110973019D01*
X139999981Y-110973019D01*
X139798307Y-111013134D01*
X139627336Y-111127374D01*
X134381814Y-116372896D01*
X134375829Y-116372891D01*
X134145297Y-116468145D01*
X133968765Y-116644369D01*
X133873109Y-116874735D01*
X133872891Y-117124171D01*
X133968145Y-117354703D01*
X134144369Y-117531235D01*
X134374735Y-117626891D01*
X134624171Y-117627109D01*
X134854703Y-117531855D01*
X135000099Y-117386713D01*
X135144369Y-117531235D01*
X135374735Y-117626891D01*
X135624171Y-117627109D01*
X135854703Y-117531855D01*
X136031235Y-117355631D01*
X136126891Y-117125265D01*
X136126990Y-117012234D01*
X140562204Y-112577020D01*
X141149530Y-112577020D01*
X141322503Y-112542614D01*
X141469142Y-112444632D01*
X144502636Y-109411139D01*
X144600618Y-109264499D01*
X144603502Y-109250000D01*
X144635024Y-109091526D01*
X144635024Y-107242772D01*
X144714259Y-107163675D01*
X144809915Y-106933309D01*
X144810054Y-106774664D01*
X144843125Y-106854703D01*
X144922980Y-106934698D01*
X144922980Y-109437795D01*
X135487787Y-118872989D01*
X135375829Y-118872891D01*
X135145297Y-118968145D01*
X134968765Y-119144369D01*
X134873109Y-119374735D01*
X134872891Y-119624171D01*
X134968145Y-119854703D01*
X135144369Y-120031235D01*
X135242959Y-120072173D01*
X132380344Y-122934788D01*
X132288429Y-123072347D01*
X129487787Y-125872989D01*
X129375829Y-125872891D01*
X129145297Y-125968145D01*
X128968765Y-126144369D01*
X128873109Y-126374735D01*
X128872891Y-126624171D01*
X125561673Y-126624171D01*
X125561906Y-126357814D01*
X125381030Y-125920060D01*
X125046401Y-125584847D01*
X124608964Y-125403207D01*
X124135314Y-125402794D01*
X123697560Y-125583670D01*
X123503100Y-125777791D01*
X123503100Y-124869318D01*
X123695799Y-125062353D01*
X124133236Y-125243993D01*
X124606886Y-125244406D01*
X125044640Y-125063530D01*
X125379853Y-124728901D01*
X125561493Y-124291464D01*
X125561906Y-123817814D01*
X125381030Y-123380060D01*
X125046401Y-123044847D01*
X124608964Y-122863207D01*
X124135314Y-122862794D01*
X123697560Y-123043670D01*
X123503100Y-123237791D01*
X123503100Y-122329318D01*
X123695799Y-122522353D01*
X124133236Y-122703993D01*
X124606886Y-122704406D01*
X125044640Y-122523530D01*
X125379853Y-122188901D01*
X125561493Y-121751464D01*
X125561906Y-121277814D01*
X125381030Y-120840060D01*
X125046401Y-120504847D01*
X124608964Y-120323207D01*
X124135314Y-120322794D01*
X123697560Y-120503670D01*
X123503100Y-120697791D01*
X123503100Y-119789318D01*
X123695799Y-119982353D01*
X124133236Y-120163993D01*
X124606886Y-120164406D01*
X125044640Y-119983530D01*
X125379853Y-119648901D01*
X125561493Y-119211464D01*
X125561906Y-118737814D01*
X125381030Y-118300060D01*
X125046401Y-117964847D01*
X124608964Y-117783207D01*
X124135314Y-117782794D01*
X123697560Y-117963670D01*
X123503100Y-118157791D01*
X123503100Y-117249318D01*
X123695799Y-117442353D01*
X124133236Y-117623993D01*
X124606886Y-117624406D01*
X125044640Y-117443530D01*
X125379853Y-117108901D01*
X125561493Y-116671464D01*
X125561906Y-116197814D01*
X125381030Y-115760060D01*
X125046401Y-115424847D01*
X124608964Y-115243207D01*
X124135314Y-115242794D01*
X123697560Y-115423670D01*
X123503100Y-115617791D01*
X123503100Y-114709318D01*
X123695799Y-114902353D01*
X124133236Y-115083993D01*
X124606886Y-115084406D01*
X125044640Y-114903530D01*
X125379853Y-114568901D01*
X125561493Y-114131464D01*
X125561906Y-113657814D01*
X125381030Y-113220060D01*
X125046401Y-112884847D01*
X124608964Y-112703207D01*
X124135314Y-112702794D01*
X123697560Y-112883670D01*
X123503100Y-113077791D01*
X123503100Y-112169318D01*
X123695799Y-112362353D01*
X124133236Y-112543993D01*
X124606886Y-112544406D01*
X125044640Y-112363530D01*
X125379853Y-112028901D01*
X125561493Y-111591464D01*
X125561906Y-111117814D01*
X125500585Y-110969405D01*
X126442990Y-110027000D01*
X129586339Y-110027000D01*
X129468765Y-110144369D01*
X129373109Y-110374735D01*
X129373103Y-110381606D01*
X128627355Y-111127355D01*
X128513115Y-111298325D01*
X128513115Y-111298326D01*
X128473000Y-111500000D01*
X128473000Y-112390141D01*
X128468765Y-112394369D01*
X128373109Y-112624735D01*
X128372891Y-112874171D01*
X128468145Y-113104703D01*
X128644369Y-113281235D01*
X128874735Y-113376891D01*
X129124171Y-113377109D01*
X129354703Y-113281855D01*
X129531235Y-113105631D01*
X129626891Y-112875265D01*
X129627109Y-112625829D01*
X129531855Y-112395297D01*
X129527000Y-112390434D01*
X129527000Y-111718290D01*
X130118187Y-111127104D01*
X130124171Y-111127109D01*
X130354703Y-111031855D01*
X130531235Y-110855631D01*
X130626891Y-110625265D01*
X130627109Y-110375829D01*
X130531855Y-110145297D01*
X130413764Y-110027000D01*
X132781710Y-110027000D01*
X133372896Y-110618187D01*
X133372891Y-110624171D01*
X133468145Y-110854703D01*
X133644369Y-111031235D01*
X133874735Y-111126891D01*
X134124171Y-111127109D01*
X134354703Y-111031855D01*
X134531235Y-110855631D01*
X134626891Y-110625265D01*
X134627109Y-110375829D01*
X134531855Y-110145297D01*
X134355631Y-109968765D01*
X134125265Y-109873109D01*
X134118394Y-109873103D01*
X133870368Y-109625078D01*
X133874735Y-109626891D01*
X134124171Y-109627109D01*
X134354703Y-109531855D01*
X134531235Y-109355631D01*
X134626891Y-109125265D01*
X134627109Y-108875829D01*
X134531855Y-108645297D01*
X134355631Y-108468765D01*
X134125265Y-108373109D01*
X134084654Y-108373074D01*
X134015275Y-108326715D01*
X133813600Y-108286600D01*
X125441579Y-108286600D01*
X125381030Y-108140060D01*
X125046401Y-107804847D01*
X124608964Y-107623207D01*
X124135314Y-107622794D01*
X123697560Y-107803670D01*
X123503100Y-107997791D01*
X123503100Y-107089318D01*
X123695799Y-107282353D01*
X124133236Y-107463993D01*
X124606886Y-107464406D01*
X125044640Y-107283530D01*
X125379853Y-106948901D01*
X125561493Y-106511464D01*
X125561906Y-106037814D01*
X125381030Y-105600060D01*
X125046401Y-105264847D01*
X124833868Y-105176596D01*
X125163359Y-105040116D01*
X125245300Y-104787405D01*
X124371100Y-103913205D01*
X124356958Y-103927348D01*
X124177353Y-103747743D01*
X124191495Y-103733600D01*
X124550705Y-103733600D01*
X125424905Y-104607800D01*
X125677616Y-104525859D01*
X125829516Y-104108115D01*
X125874735Y-104126891D01*
X126124171Y-104127109D01*
X126354703Y-104031855D01*
X126359566Y-104027000D01*
X129781706Y-104027000D01*
X132122896Y-106368190D01*
X132122891Y-106374175D01*
X132218145Y-106604707D01*
X132394369Y-106781239D01*
X132624735Y-106876895D01*
X132874171Y-106877113D01*
X133104703Y-106781859D01*
X133281235Y-106605635D01*
X133376891Y-106375269D01*
X133377109Y-106125833D01*
X133281855Y-105895301D01*
X133136711Y-105749903D01*
X133281235Y-105605631D01*
X133376891Y-105375265D01*
X133377109Y-105125829D01*
X133281855Y-104895297D01*
X133105631Y-104718765D01*
X132875265Y-104623109D01*
X132868393Y-104623103D01*
X132822649Y-104577359D01*
X132822647Y-104577356D01*
X130372645Y-102127355D01*
X130201675Y-102013115D01*
X130000000Y-101973000D01*
X126609859Y-101973000D01*
X126605631Y-101968765D01*
X126375265Y-101873109D01*
X126125829Y-101872891D01*
X125895297Y-101968145D01*
X125718765Y-102144369D01*
X125623109Y-102374735D01*
X125622891Y-102624171D01*
X125718145Y-102854703D01*
X125777046Y-102913707D01*
X125682373Y-102952825D01*
X125677616Y-102941341D01*
X125424905Y-102859400D01*
X124550705Y-103733600D01*
X124191495Y-103733600D01*
X124177353Y-103719458D01*
X124356958Y-103539853D01*
X124371100Y-103553995D01*
X125245300Y-102679795D01*
X125163359Y-102427084D01*
X124812427Y-102299478D01*
X125044640Y-102203530D01*
X125379853Y-101868901D01*
X125561493Y-101431464D01*
X125561906Y-100957814D01*
X125381030Y-100520060D01*
X125250659Y-100389461D01*
X126007347Y-99632774D01*
X126121586Y-99461803D01*
X126161701Y-99260129D01*
X126161701Y-98583589D01*
X126718291Y-98027000D01*
X139500000Y-98027000D01*
X139701675Y-97986885D01*
X139872645Y-97872645D01*
X141121119Y-96624171D01*
X144872891Y-96624171D01*
X144968145Y-96854703D01*
X145144369Y-97031235D01*
X145374735Y-97126891D01*
X145381607Y-97126897D01*
X147310398Y-99055688D01*
X147481368Y-99169928D01*
X147683043Y-99210043D01*
X152573186Y-99210043D01*
X152577414Y-99214278D01*
X152807780Y-99309934D01*
X153057216Y-99310152D01*
X153287748Y-99214898D01*
X153464280Y-99038674D01*
X153559936Y-98808308D01*
X153560154Y-98558872D01*
X153464900Y-98328340D01*
X153288676Y-98151808D01*
X153058310Y-98056152D01*
X152808874Y-98055934D01*
X152578342Y-98151188D01*
X152573479Y-98156043D01*
X147901333Y-98156043D01*
X146127104Y-96381814D01*
X146127109Y-96375829D01*
X146031855Y-96145297D01*
X145855631Y-95968765D01*
X145625265Y-95873109D01*
X145375829Y-95872891D01*
X145145297Y-95968145D01*
X144968765Y-96144369D01*
X144873109Y-96374735D01*
X144872891Y-96624171D01*
X141121119Y-96624171D01*
X145872645Y-91872646D01*
X145973000Y-91722454D01*
X145973000Y-94000000D01*
X146013115Y-94201675D01*
X146127355Y-94372645D01*
X147873306Y-96118597D01*
X148044277Y-96232836D01*
X148245951Y-96272951D01*
X151816373Y-96272951D01*
X151820601Y-96277186D01*
X152050967Y-96372842D01*
X152300403Y-96373060D01*
X152530935Y-96277806D01*
X152707467Y-96101582D01*
X152803123Y-95871216D01*
X152803341Y-95621780D01*
X152708087Y-95391248D01*
X152531863Y-95214716D01*
X152301497Y-95119060D01*
X152052061Y-95118842D01*
X151821529Y-95214096D01*
X151816666Y-95218951D01*
X150417662Y-95218951D01*
X150531235Y-95105576D01*
X150626891Y-94875210D01*
X150627109Y-94625774D01*
X150531855Y-94395242D01*
X150355631Y-94218710D01*
X150125265Y-94123054D01*
X150118393Y-94123048D01*
X150072648Y-94077303D01*
X150072646Y-94077300D01*
X148527000Y-92531655D01*
X148527000Y-91312570D01*
X148574755Y-91332400D01*
X148824191Y-91332618D01*
X149054723Y-91237364D01*
X149231255Y-91061140D01*
X149326911Y-90830774D01*
X149326917Y-90823903D01*
X149372665Y-90778155D01*
X149372667Y-90778152D01*
X154523809Y-85627011D01*
X156819114Y-85627011D01*
X157020789Y-85586896D01*
X157191759Y-85472656D01*
X157423000Y-85241415D01*
X157423000Y-86661609D01*
X156683416Y-87401192D01*
X156683416Y-87300030D01*
X156660615Y-87178851D01*
X156588998Y-87067556D01*
X156479724Y-86992892D01*
X156350010Y-86966624D01*
X153649990Y-86966624D01*
X153528811Y-86989425D01*
X153417516Y-87061042D01*
X153342852Y-87170316D01*
X153316584Y-87300030D01*
X153316584Y-88801170D01*
X153339385Y-88922349D01*
X153411002Y-89033644D01*
X153520276Y-89108308D01*
X153649990Y-89134576D01*
X156350010Y-89134576D01*
X156471189Y-89111775D01*
X156582484Y-89040158D01*
X156657148Y-88930884D01*
X156683416Y-88801170D01*
X156683416Y-88627600D01*
X156850005Y-88627600D01*
X156850010Y-88627601D01*
X157070818Y-88583678D01*
X157258011Y-88458601D01*
X158407998Y-87308613D01*
X158408001Y-87308611D01*
X158502595Y-87167040D01*
X158533078Y-87121419D01*
X158577000Y-86900610D01*
X158577000Y-85588750D01*
X158769243Y-85626989D01*
X161280011Y-85626989D01*
X161481686Y-85586874D01*
X161652656Y-85472634D01*
X162169117Y-84956173D01*
X162560000Y-85033925D01*
X163015623Y-84943296D01*
X163401881Y-84685206D01*
X163659971Y-84298948D01*
X163750600Y-83843325D01*
X163750600Y-83796675D01*
X163659971Y-83341052D01*
X163487812Y-83083399D01*
X163618109Y-83083399D01*
X163979412Y-83444702D01*
X163909400Y-83796675D01*
X163909400Y-83843325D01*
X164000029Y-84298948D01*
X164258119Y-84685206D01*
X164644377Y-84943296D01*
X165100000Y-85033925D01*
X165555623Y-84943296D01*
X165941881Y-84685206D01*
X166199971Y-84298948D01*
X166290600Y-83843325D01*
X166290600Y-83796675D01*
X166199971Y-83341052D01*
X165941881Y-82954794D01*
X165555623Y-82696704D01*
X165552760Y-82696134D01*
X165874947Y-82562688D01*
X166306821Y-82168490D01*
X166554968Y-81639027D01*
X166434469Y-81407000D01*
X165227000Y-81407000D01*
X165227000Y-81427000D01*
X164973000Y-81427000D01*
X164973000Y-81407000D01*
X164953000Y-81407000D01*
X164953000Y-81153000D01*
X164973000Y-81153000D01*
X164973000Y-81133000D01*
X165227000Y-81133000D01*
X165227000Y-81153000D01*
X166434469Y-81153000D01*
X166554968Y-80920973D01*
X166306821Y-80391510D01*
X165884027Y-80005600D01*
X171815382Y-80005600D01*
X171622347Y-80198299D01*
X171622347Y-80198299D01*
G37*
X171622347Y-80198299D02*
X171440707Y-80635736D01*
X171440294Y-81109386D01*
X171501615Y-81257794D01*
X162786410Y-89973000D01*
X151134388Y-89973000D01*
X151130160Y-89968765D01*
X150899794Y-89873109D01*
X150650358Y-89872891D01*
X150419826Y-89968145D01*
X150243294Y-90144369D01*
X150147638Y-90374735D01*
X150147420Y-90624171D01*
X150242674Y-90854703D01*
X150360765Y-90973000D01*
X150334388Y-90973000D01*
X150330160Y-90968765D01*
X150099794Y-90873109D01*
X149850358Y-90872891D01*
X149619826Y-90968145D01*
X149443294Y-91144369D01*
X149347638Y-91374735D01*
X149347420Y-91624171D01*
X149442674Y-91854703D01*
X149618898Y-92031235D01*
X149849264Y-92126891D01*
X150098700Y-92127109D01*
X150329232Y-92031855D01*
X150334095Y-92027000D01*
X163000000Y-92027000D01*
X163201675Y-91986885D01*
X163372645Y-91872645D01*
X171304691Y-83940600D01*
X171560621Y-83940600D01*
X171621170Y-84087140D01*
X171955799Y-84422353D01*
X172393236Y-84603993D01*
X172866886Y-84604406D01*
X173304640Y-84423530D01*
X173499100Y-84229409D01*
X173499100Y-85137882D01*
X173306401Y-84944847D01*
X172868964Y-84763207D01*
X172395314Y-84762794D01*
X171957560Y-84943670D01*
X171622347Y-85278299D01*
X171440707Y-85715736D01*
X171440294Y-86189386D01*
X171621170Y-86627140D01*
X171955799Y-86962353D01*
X172393236Y-87143993D01*
X172866886Y-87144406D01*
X173304640Y-86963530D01*
X173499100Y-86769409D01*
X173499100Y-87677882D01*
X173306401Y-87484847D01*
X172868964Y-87303207D01*
X172395314Y-87302794D01*
X171957560Y-87483670D01*
X171622347Y-87818299D01*
X171440707Y-88255736D01*
X171440294Y-88729386D01*
X171621170Y-89167140D01*
X171955799Y-89502353D01*
X172393236Y-89683993D01*
X172866886Y-89684406D01*
X173304640Y-89503530D01*
X173499100Y-89309409D01*
X173499100Y-90217882D01*
X173306401Y-90024847D01*
X172868964Y-89843207D01*
X172395314Y-89842794D01*
X171957560Y-90023670D01*
X171622347Y-90358299D01*
X171440707Y-90795736D01*
X171440294Y-91269386D01*
X171621170Y-91707140D01*
X171955799Y-92042353D01*
X172393236Y-92223993D01*
X172866886Y-92224406D01*
X173304640Y-92043530D01*
X173499100Y-91849409D01*
X173499100Y-92757882D01*
X173306401Y-92564847D01*
X172868964Y-92383207D01*
X172395314Y-92382794D01*
X171957560Y-92563670D01*
X171622347Y-92898299D01*
X171440707Y-93335736D01*
X171440294Y-93809386D01*
X171587955Y-94166755D01*
X170781710Y-94973000D01*
X165859962Y-94973000D01*
X165855505Y-94968535D01*
X165625139Y-94872879D01*
X165375703Y-94872661D01*
X165145171Y-94967915D01*
X164968639Y-95144139D01*
X164872983Y-95374505D01*
X164872765Y-95623941D01*
X164968019Y-95854473D01*
X165088333Y-95974997D01*
X164968765Y-96094356D01*
X164873109Y-96324722D01*
X164872891Y-96574158D01*
X164968145Y-96804690D01*
X165013294Y-96849918D01*
X164968765Y-96894369D01*
X164873109Y-97124735D01*
X164872891Y-97374171D01*
X164968145Y-97604703D01*
X165144369Y-97781235D01*
X165374735Y-97876891D01*
X165624171Y-97877109D01*
X165854703Y-97781855D01*
X165859566Y-97777000D01*
X171009210Y-97777000D01*
X171501512Y-98269302D01*
X171440707Y-98415736D01*
X171440294Y-98889386D01*
X171621170Y-99327140D01*
X171955799Y-99662353D01*
X172393236Y-99843993D01*
X172866886Y-99844406D01*
X173304640Y-99663530D01*
X173499100Y-99469409D01*
X173499100Y-100377882D01*
X173306401Y-100184847D01*
X172868964Y-100003207D01*
X172395314Y-100002794D01*
X171957560Y-100183670D01*
X171622347Y-100518299D01*
X171529624Y-100741600D01*
X167653644Y-100741600D01*
X164092432Y-97180388D01*
X163945793Y-97082406D01*
X163772820Y-97048000D01*
X150434728Y-97048000D01*
X150355631Y-96968765D01*
X150125265Y-96873109D01*
X149875829Y-96872891D01*
X149645297Y-96968145D01*
X149468765Y-97144369D01*
X149373109Y-97374735D01*
X149372891Y-97624171D01*
X149468145Y-97854703D01*
X149644369Y-98031235D01*
X149874735Y-98126891D01*
X150124171Y-98127109D01*
X150354703Y-98031855D01*
X150434698Y-97952000D01*
X163585596Y-97952000D01*
X167146808Y-101513212D01*
X167293447Y-101611194D01*
X167466420Y-101645600D01*
X171529632Y-101645600D01*
X171621170Y-101867140D01*
X171955799Y-102202353D01*
X172393236Y-102383993D01*
X172866886Y-102384406D01*
X173304640Y-102203530D01*
X173499100Y-102009409D01*
X173499100Y-102917882D01*
X173306401Y-102724847D01*
X172868964Y-102543207D01*
X172395314Y-102542794D01*
X171957560Y-102723670D01*
X171622347Y-103058299D01*
X171529624Y-103281600D01*
X167670824Y-103281600D01*
X162569612Y-98180388D01*
X162422973Y-98082406D01*
X162250000Y-98048000D01*
X156250000Y-98048000D01*
X156077027Y-98082406D01*
X155930388Y-98180388D01*
X153512787Y-100597989D01*
X148818623Y-100597989D01*
X148645650Y-100632395D01*
X148499011Y-100730377D01*
X146922093Y-102307295D01*
X146810135Y-102307197D01*
X146579603Y-102402451D01*
X146403071Y-102578675D01*
X146307415Y-102809041D01*
X146307197Y-103058477D01*
X146402451Y-103289009D01*
X146578675Y-103465541D01*
X146809041Y-103561197D01*
X146872948Y-103561253D01*
X146872893Y-103624171D01*
X146968147Y-103854703D01*
X147144371Y-104031235D01*
X147374737Y-104126891D01*
X147624173Y-104127109D01*
X147854705Y-104031855D01*
X148031237Y-103855631D01*
X148126893Y-103625265D01*
X148126992Y-103512234D01*
X149687227Y-101952000D01*
X161812776Y-101952000D01*
X168622989Y-108762213D01*
X168622891Y-108874171D01*
X168718145Y-109104703D01*
X168894369Y-109281235D01*
X169124735Y-109376891D01*
X169374171Y-109377109D01*
X169604703Y-109281855D01*
X169781235Y-109105631D01*
X169835565Y-108974789D01*
X170298000Y-109437224D01*
X170298000Y-111500000D01*
X170332406Y-111672973D01*
X170430388Y-111819612D01*
X171725801Y-113115025D01*
X171622347Y-113218299D01*
X171440707Y-113655736D01*
X171440294Y-114129386D01*
X171621170Y-114567140D01*
X171955799Y-114902353D01*
X172393236Y-115083993D01*
X172866886Y-115084406D01*
X173304640Y-114903530D01*
X173499100Y-114709409D01*
X173499100Y-115617882D01*
X173306401Y-115424847D01*
X172868964Y-115243207D01*
X172395314Y-115242794D01*
X171957560Y-115423670D01*
X171622347Y-115758299D01*
X171529624Y-115981600D01*
X168620824Y-115981600D01*
X155069612Y-102430388D01*
X154922973Y-102332406D01*
X154750000Y-102298000D01*
X151934728Y-102298000D01*
X151855631Y-102218765D01*
X151625265Y-102123109D01*
X151375829Y-102122891D01*
X151145297Y-102218145D01*
X150968765Y-102394369D01*
X150873109Y-102624735D01*
X150872891Y-102874171D01*
X150968145Y-103104703D01*
X151144369Y-103281235D01*
X151374735Y-103376891D01*
X151624171Y-103377109D01*
X151854703Y-103281855D01*
X151934698Y-103202000D01*
X151944835Y-103202000D01*
X151873109Y-103374735D01*
X151872891Y-103624171D01*
X151968145Y-103854703D01*
X152144369Y-104031235D01*
X152374735Y-104126891D01*
X152487766Y-104126990D01*
X171680761Y-123319986D01*
X171622347Y-123378299D01*
X171440707Y-123815736D01*
X171440294Y-124289386D01*
X171621170Y-124727140D01*
X171955799Y-125062353D01*
X172393236Y-125243993D01*
X172866886Y-125244406D01*
X173304640Y-125063530D01*
X173499100Y-124869409D01*
X173499100Y-125777882D01*
X173306401Y-125584847D01*
X172868964Y-125403207D01*
X172395314Y-125402794D01*
X171957560Y-125583670D01*
X171622347Y-125918299D01*
X171603328Y-125964103D01*
X150577074Y-104937850D01*
X150577074Y-104934728D01*
X150656309Y-104855631D01*
X150751965Y-104625265D01*
X150752183Y-104375829D01*
X150656929Y-104145297D01*
X150480705Y-103968765D01*
X150436352Y-103950348D01*
X150531235Y-103855631D01*
X150626891Y-103625265D01*
X150627109Y-103375829D01*
X150531855Y-103145297D01*
X150355631Y-102968765D01*
X150125265Y-102873109D01*
X149875829Y-102872891D01*
X149645297Y-102968145D01*
X149468765Y-103144369D01*
X149373109Y-103374735D01*
X149373010Y-103487766D01*
X149180388Y-103680388D01*
X149082406Y-103827027D01*
X149048000Y-104000000D01*
X149048000Y-105221630D01*
X149082406Y-105394603D01*
X149180388Y-105541242D01*
X171315501Y-127676355D01*
X171315501Y-128270001D01*
X171349907Y-128442974D01*
X171447889Y-128589613D01*
X171532632Y-128674356D01*
X171440707Y-128895736D01*
X171440294Y-129369386D01*
X171621170Y-129807140D01*
X171815291Y-130001600D01*
X149538100Y-130001600D01*
X149538100Y-129133600D01*
X149526842Y-129077000D01*
X163374995Y-129077000D01*
X163375000Y-129077001D01*
X163595808Y-129033078D01*
X163783001Y-128908001D01*
X166374464Y-126316537D01*
X166494703Y-126266855D01*
X166671235Y-126090631D01*
X166766891Y-125860265D01*
X166767109Y-125610829D01*
X166671855Y-125380297D01*
X166495631Y-125203765D01*
X166265265Y-125108109D01*
X166015829Y-125107891D01*
X165785297Y-125203145D01*
X165608765Y-125379369D01*
X165558445Y-125500554D01*
X163135998Y-127923000D01*
X152216224Y-127923000D01*
X159512213Y-120627011D01*
X159624171Y-120627109D01*
X159854703Y-120531855D01*
X160031235Y-120355631D01*
X160126891Y-120125265D01*
X160127109Y-119875829D01*
X160031855Y-119645297D01*
X159855631Y-119468765D01*
X159625265Y-119373109D01*
X159375829Y-119372891D01*
X159145297Y-119468145D01*
X158999901Y-119613287D01*
X158855631Y-119468765D01*
X158625265Y-119373109D01*
X158375829Y-119372891D01*
X158145297Y-119468145D01*
X157968765Y-119644369D01*
X157873109Y-119874735D01*
X157873010Y-119987765D01*
X157549762Y-120311013D01*
X157626891Y-120125265D01*
X157627109Y-119875829D01*
X157531855Y-119645297D01*
X157355631Y-119468765D01*
X157125265Y-119373109D01*
X156875829Y-119372891D01*
X156645297Y-119468145D01*
X156499901Y-119613287D01*
X156355631Y-119468765D01*
X156125265Y-119373109D01*
X155875829Y-119372891D01*
X155645297Y-119468145D01*
X155468765Y-119644369D01*
X155373109Y-119874735D01*
X155372891Y-120124171D01*
X155457090Y-120327949D01*
X151603541Y-124181499D01*
X151626891Y-124125265D01*
X151627109Y-123875829D01*
X151531855Y-123645297D01*
X151527000Y-123640434D01*
X151527000Y-119218290D01*
X153118186Y-117627104D01*
X153124171Y-117627109D01*
X153354703Y-117531855D01*
X153531235Y-117355631D01*
X153626891Y-117125265D01*
X153627109Y-116875829D01*
X153531855Y-116645297D01*
X153355631Y-116468765D01*
X153125265Y-116373109D01*
X152875829Y-116372891D01*
X152645297Y-116468145D01*
X152468765Y-116644369D01*
X152373109Y-116874735D01*
X152373103Y-116881607D01*
X150627355Y-118627355D01*
X150513115Y-118798325D01*
X150513115Y-118798326D01*
X150473000Y-119000000D01*
X150473000Y-123640141D01*
X150468765Y-123644369D01*
X150373109Y-123874735D01*
X150372891Y-124124171D01*
X150468145Y-124354703D01*
X150644369Y-124531235D01*
X150874735Y-124626891D01*
X151124171Y-124627109D01*
X151181702Y-124603338D01*
X150237040Y-125548000D01*
X148607061Y-125548000D01*
X148626891Y-125500245D01*
X148627109Y-125250809D01*
X148531855Y-125020277D01*
X148452000Y-124940282D01*
X148452000Y-120687224D01*
X152319612Y-116819612D01*
X152417594Y-116672973D01*
X152423099Y-116645297D01*
X152452000Y-116500000D01*
X152452000Y-116434728D01*
X152531235Y-116355631D01*
X152626891Y-116125265D01*
X152627109Y-115875829D01*
X152531855Y-115645297D01*
X152355631Y-115468765D01*
X152125265Y-115373109D01*
X151875829Y-115372891D01*
X151645297Y-115468145D01*
X151499901Y-115613287D01*
X151355631Y-115468765D01*
X151125265Y-115373109D01*
X150875829Y-115372891D01*
X150645297Y-115468145D01*
X150499901Y-115613287D01*
X150355631Y-115468765D01*
X150125265Y-115373109D01*
X149875829Y-115372891D01*
X149645297Y-115468145D01*
X149468765Y-115644369D01*
X149373109Y-115874735D01*
X149372891Y-116124171D01*
X149468145Y-116354703D01*
X149487092Y-116373684D01*
X146680388Y-119180388D01*
X146582406Y-119327027D01*
X146548000Y-119500000D01*
X146548000Y-123762753D01*
X145562852Y-124747902D01*
X145527441Y-124747871D01*
X145296909Y-124843125D01*
X145120377Y-125019349D01*
X145024721Y-125249715D01*
X145024503Y-125499151D01*
X145044687Y-125548000D01*
X143626959Y-125548000D01*
X143627109Y-125375829D01*
X143531855Y-125145297D01*
X143527000Y-125140434D01*
X143527000Y-121500000D01*
X143486885Y-121298326D01*
X143372645Y-121127355D01*
X143127104Y-120881814D01*
X143127109Y-120875829D01*
X143031855Y-120645297D01*
X142855631Y-120468765D01*
X142625265Y-120373109D01*
X142375829Y-120372891D01*
X142145297Y-120468145D01*
X141968765Y-120644369D01*
X141873109Y-120874735D01*
X141872891Y-121124171D01*
X141968145Y-121354703D01*
X142144369Y-121531235D01*
X142374735Y-121626891D01*
X142381607Y-121626897D01*
X142473000Y-121718290D01*
X142473000Y-125140141D01*
X142468765Y-125144369D01*
X142373109Y-125374735D01*
X142373000Y-125499080D01*
X142145297Y-125593165D01*
X141968765Y-125769389D01*
X141873109Y-125999755D01*
X141872891Y-126249191D01*
X141968145Y-126479723D01*
X142036303Y-126548000D01*
X138687224Y-126548000D01*
X138188985Y-126049761D01*
X138374735Y-126126891D01*
X138624171Y-126127109D01*
X138854703Y-126031855D01*
X139031235Y-125855631D01*
X139081555Y-125734447D01*
X140908001Y-123908001D01*
X141033078Y-123720808D01*
X141077000Y-123500000D01*
X141077000Y-121645361D01*
X141126891Y-121525210D01*
X141127109Y-121275774D01*
X141031855Y-121045242D01*
X140855631Y-120868710D01*
X140625265Y-120773054D01*
X140375829Y-120772836D01*
X140145297Y-120868090D01*
X139968765Y-121044314D01*
X139873109Y-121274680D01*
X139872891Y-121524116D01*
X139923000Y-121645389D01*
X139923000Y-123260998D01*
X138265534Y-124918464D01*
X138145297Y-124968145D01*
X137968765Y-125144369D01*
X137873109Y-125374735D01*
X137873012Y-125486176D01*
X137855631Y-125468765D01*
X137625265Y-125373109D01*
X137375829Y-125372891D01*
X137145297Y-125468145D01*
X136968765Y-125644369D01*
X136873109Y-125874735D01*
X136872891Y-126124171D01*
X136949991Y-126310767D01*
X136627011Y-125987787D01*
X136627109Y-125875829D01*
X136531855Y-125645297D01*
X136355631Y-125468765D01*
X136125265Y-125373109D01*
X135875829Y-125372891D01*
X135645297Y-125468145D01*
X135468765Y-125644369D01*
X135373109Y-125874735D01*
X135372891Y-126124171D01*
X135468145Y-126354703D01*
X135644369Y-126531235D01*
X135874735Y-126626891D01*
X135987766Y-126626990D01*
X137180388Y-127819612D01*
X137327027Y-127917594D01*
X137500000Y-127952000D01*
X143216320Y-127952000D01*
X143283965Y-128019645D01*
X143392250Y-128091999D01*
X143430605Y-128117627D01*
X143603578Y-128152033D01*
X147031966Y-128152033D01*
X146760998Y-128423000D01*
X138745416Y-128423000D01*
X138625265Y-128373109D01*
X138375829Y-128372891D01*
X138145297Y-128468145D01*
X137968765Y-128644369D01*
X137873109Y-128874735D01*
X137872891Y-129124171D01*
X137968145Y-129354703D01*
X138144369Y-129531235D01*
X138374735Y-129626891D01*
X138624171Y-129627109D01*
X138745444Y-129577000D01*
X146999995Y-129577000D01*
X147000000Y-129577001D01*
X147220808Y-129533078D01*
X147408001Y-129408001D01*
X147464100Y-129351902D01*
X147464100Y-130001600D01*
X125186818Y-130001600D01*
X125379853Y-129808901D01*
X125561493Y-129371464D01*
X125561906Y-128897814D01*
X125381030Y-128460060D01*
X125046401Y-128124847D01*
X124608964Y-127943207D01*
X124135314Y-127942794D01*
X123697560Y-128123670D01*
X123503100Y-128317791D01*
X123503100Y-127409318D01*
X123695799Y-127602353D01*
X124133236Y-127783993D01*
X124606886Y-127784406D01*
X125044640Y-127603530D01*
X125379853Y-127268901D01*
X125561493Y-126831464D01*
X125561673Y-126624171D01*
X128872891Y-126624171D01*
X128968145Y-126854703D01*
X129144369Y-127031235D01*
X129374735Y-127126891D01*
X129624171Y-127127109D01*
X129854703Y-127031855D01*
X130031235Y-126855631D01*
X130126891Y-126625265D01*
X130126990Y-126512234D01*
X130450239Y-126188985D01*
X130373109Y-126374735D01*
X130372891Y-126624171D01*
X130468145Y-126854703D01*
X130644369Y-127031235D01*
X130874735Y-127126891D01*
X131124171Y-127127109D01*
X131354703Y-127031855D01*
X131500099Y-126886713D01*
X131644369Y-127031235D01*
X131874735Y-127126891D01*
X132124171Y-127127109D01*
X132354703Y-127031855D01*
X132531235Y-126855631D01*
X132626891Y-126625265D01*
X132626990Y-126512234D01*
X132950239Y-126188986D01*
X132873109Y-126374735D01*
X132872891Y-126624171D01*
X132968145Y-126854703D01*
X133144369Y-127031235D01*
X133374735Y-127126891D01*
X133624171Y-127127109D01*
X133854703Y-127031855D01*
X134000099Y-126886713D01*
X134144369Y-127031235D01*
X134374735Y-127126891D01*
X134624171Y-127127109D01*
X134854703Y-127031855D01*
X135031235Y-126855631D01*
X135126891Y-126625265D01*
X135127109Y-126375829D01*
X135031855Y-126145297D01*
X134952000Y-126065302D01*
X134952000Y-124187224D01*
X139687224Y-119452000D01*
X145500000Y-119452000D01*
X145672973Y-119417594D01*
X145819612Y-119319612D01*
X148512213Y-116627011D01*
X148624171Y-116627109D01*
X148854703Y-116531855D01*
X149031235Y-116355631D01*
X149126891Y-116125265D01*
X149127109Y-115875829D01*
X149031855Y-115645297D01*
X148855631Y-115468765D01*
X148625265Y-115373109D01*
X148375829Y-115372891D01*
X148145297Y-115468145D01*
X147968765Y-115644369D01*
X147873109Y-115874735D01*
X147873010Y-115987766D01*
X147549761Y-116311015D01*
X147626891Y-116125265D01*
X147627109Y-115875829D01*
X147531855Y-115645297D01*
X147355631Y-115468765D01*
X147125265Y-115373109D01*
X146875829Y-115372891D01*
X146645297Y-115468145D01*
X146499901Y-115613287D01*
X146355631Y-115468765D01*
X146125265Y-115373109D01*
X145875829Y-115372891D01*
X145645297Y-115468145D01*
X145468765Y-115644369D01*
X145373109Y-115874735D01*
X145373010Y-115987766D01*
X145311441Y-116049335D01*
X145223811Y-115837253D01*
X145047587Y-115660721D01*
X144817221Y-115565065D01*
X144567785Y-115564847D01*
X144337253Y-115660101D01*
X144160721Y-115836325D01*
X144065065Y-116066691D01*
X144064966Y-116179722D01*
X144051601Y-116193087D01*
X144031855Y-116145297D01*
X143952000Y-116065302D01*
X143952000Y-113687224D01*
X147319612Y-110319613D01*
X147417594Y-110172973D01*
X147452000Y-110000000D01*
X147452000Y-106187224D01*
X147512213Y-106127011D01*
X147624171Y-106127109D01*
X147854703Y-106031855D01*
X148031235Y-105855631D01*
X148126891Y-105625265D01*
X148127109Y-105375829D01*
X148031855Y-105145297D01*
X147855631Y-104968765D01*
X147625265Y-104873109D01*
X147375829Y-104872891D01*
X147145297Y-104968145D01*
X146968765Y-105144369D01*
X146873109Y-105374735D01*
X146873010Y-105487766D01*
X146811241Y-105549535D01*
X146730611Y-105468765D01*
X146500245Y-105373109D01*
X146250809Y-105372891D01*
X146020277Y-105468145D01*
X145843745Y-105644369D01*
X145748089Y-105874735D01*
X145747992Y-105986176D01*
X145730611Y-105968765D01*
X145500245Y-105873109D01*
X145250809Y-105872891D01*
X145020277Y-105968145D01*
X144843745Y-106144369D01*
X144748089Y-106374735D01*
X144747950Y-106533380D01*
X144714879Y-106453341D01*
X144538655Y-106276809D01*
X144308289Y-106181153D01*
X144058853Y-106180935D01*
X143828321Y-106276189D01*
X143651789Y-106452413D01*
X143556133Y-106682779D01*
X143555915Y-106932215D01*
X143651169Y-107162747D01*
X143731024Y-107242742D01*
X143731024Y-108904301D01*
X141413144Y-111222182D01*
X141381384Y-111145316D01*
X141205160Y-110968784D01*
X140974794Y-110873128D01*
X140725358Y-110872910D01*
X140494826Y-110968164D01*
X140489963Y-110973019D01*
X139999981Y-110973019D01*
X139798307Y-111013134D01*
X139627336Y-111127374D01*
X134381814Y-116372896D01*
X134375829Y-116372891D01*
X134145297Y-116468145D01*
X133968765Y-116644369D01*
X133873109Y-116874735D01*
X133872891Y-117124171D01*
X133968145Y-117354703D01*
X134144369Y-117531235D01*
X134374735Y-117626891D01*
X134624171Y-117627109D01*
X134854703Y-117531855D01*
X135000099Y-117386713D01*
X135144369Y-117531235D01*
X135374735Y-117626891D01*
X135624171Y-117627109D01*
X135854703Y-117531855D01*
X136031235Y-117355631D01*
X136126891Y-117125265D01*
X136126990Y-117012234D01*
X140562204Y-112577020D01*
X141149530Y-112577020D01*
X141322503Y-112542614D01*
X141469142Y-112444632D01*
X144502636Y-109411139D01*
X144600618Y-109264499D01*
X144603502Y-109250000D01*
X144635024Y-109091526D01*
X144635024Y-107242772D01*
X144714259Y-107163675D01*
X144809915Y-106933309D01*
X144810054Y-106774664D01*
X144843125Y-106854703D01*
X144922980Y-106934698D01*
X144922980Y-109437795D01*
X135487787Y-118872989D01*
X135375829Y-118872891D01*
X135145297Y-118968145D01*
X134968765Y-119144369D01*
X134873109Y-119374735D01*
X134872891Y-119624171D01*
X134968145Y-119854703D01*
X135144369Y-120031235D01*
X135242959Y-120072173D01*
X132380344Y-122934788D01*
X132288429Y-123072347D01*
X129487787Y-125872989D01*
X129375829Y-125872891D01*
X129145297Y-125968145D01*
X128968765Y-126144369D01*
X128873109Y-126374735D01*
X128872891Y-126624171D01*
X125561673Y-126624171D01*
X125561906Y-126357814D01*
X125381030Y-125920060D01*
X125046401Y-125584847D01*
X124608964Y-125403207D01*
X124135314Y-125402794D01*
X123697560Y-125583670D01*
X123503100Y-125777791D01*
X123503100Y-124869318D01*
X123695799Y-125062353D01*
X124133236Y-125243993D01*
X124606886Y-125244406D01*
X125044640Y-125063530D01*
X125379853Y-124728901D01*
X125561493Y-124291464D01*
X125561906Y-123817814D01*
X125381030Y-123380060D01*
X125046401Y-123044847D01*
X124608964Y-122863207D01*
X124135314Y-122862794D01*
X123697560Y-123043670D01*
X123503100Y-123237791D01*
X123503100Y-122329318D01*
X123695799Y-122522353D01*
X124133236Y-122703993D01*
X124606886Y-122704406D01*
X125044640Y-122523530D01*
X125379853Y-122188901D01*
X125561493Y-121751464D01*
X125561906Y-121277814D01*
X125381030Y-120840060D01*
X125046401Y-120504847D01*
X124608964Y-120323207D01*
X124135314Y-120322794D01*
X123697560Y-120503670D01*
X123503100Y-120697791D01*
X123503100Y-119789318D01*
X123695799Y-119982353D01*
X124133236Y-120163993D01*
X124606886Y-120164406D01*
X125044640Y-119983530D01*
X125379853Y-119648901D01*
X125561493Y-119211464D01*
X125561906Y-118737814D01*
X125381030Y-118300060D01*
X125046401Y-117964847D01*
X124608964Y-117783207D01*
X124135314Y-117782794D01*
X123697560Y-117963670D01*
X123503100Y-118157791D01*
X123503100Y-117249318D01*
X123695799Y-117442353D01*
X124133236Y-117623993D01*
X124606886Y-117624406D01*
X125044640Y-117443530D01*
X125379853Y-117108901D01*
X125561493Y-116671464D01*
X125561906Y-116197814D01*
X125381030Y-115760060D01*
X125046401Y-115424847D01*
X124608964Y-115243207D01*
X124135314Y-115242794D01*
X123697560Y-115423670D01*
X123503100Y-115617791D01*
X123503100Y-114709318D01*
X123695799Y-114902353D01*
X124133236Y-115083993D01*
X124606886Y-115084406D01*
X125044640Y-114903530D01*
X125379853Y-114568901D01*
X125561493Y-114131464D01*
X125561906Y-113657814D01*
X125381030Y-113220060D01*
X125046401Y-112884847D01*
X124608964Y-112703207D01*
X124135314Y-112702794D01*
X123697560Y-112883670D01*
X123503100Y-113077791D01*
X123503100Y-112169318D01*
X123695799Y-112362353D01*
X124133236Y-112543993D01*
X124606886Y-112544406D01*
X125044640Y-112363530D01*
X125379853Y-112028901D01*
X125561493Y-111591464D01*
X125561906Y-111117814D01*
X125500585Y-110969405D01*
X126442990Y-110027000D01*
X129586339Y-110027000D01*
X129468765Y-110144369D01*
X129373109Y-110374735D01*
X129373103Y-110381606D01*
X128627355Y-111127355D01*
X128513115Y-111298325D01*
X128513115Y-111298326D01*
X128473000Y-111500000D01*
X128473000Y-112390141D01*
X128468765Y-112394369D01*
X128373109Y-112624735D01*
X128372891Y-112874171D01*
X128468145Y-113104703D01*
X128644369Y-113281235D01*
X128874735Y-113376891D01*
X129124171Y-113377109D01*
X129354703Y-113281855D01*
X129531235Y-113105631D01*
X129626891Y-112875265D01*
X129627109Y-112625829D01*
X129531855Y-112395297D01*
X129527000Y-112390434D01*
X129527000Y-111718290D01*
X130118187Y-111127104D01*
X130124171Y-111127109D01*
X130354703Y-111031855D01*
X130531235Y-110855631D01*
X130626891Y-110625265D01*
X130627109Y-110375829D01*
X130531855Y-110145297D01*
X130413764Y-110027000D01*
X132781710Y-110027000D01*
X133372896Y-110618187D01*
X133372891Y-110624171D01*
X133468145Y-110854703D01*
X133644369Y-111031235D01*
X133874735Y-111126891D01*
X134124171Y-111127109D01*
X134354703Y-111031855D01*
X134531235Y-110855631D01*
X134626891Y-110625265D01*
X134627109Y-110375829D01*
X134531855Y-110145297D01*
X134355631Y-109968765D01*
X134125265Y-109873109D01*
X134118394Y-109873103D01*
X133870368Y-109625078D01*
X133874735Y-109626891D01*
X134124171Y-109627109D01*
X134354703Y-109531855D01*
X134531235Y-109355631D01*
X134626891Y-109125265D01*
X134627109Y-108875829D01*
X134531855Y-108645297D01*
X134355631Y-108468765D01*
X134125265Y-108373109D01*
X134084654Y-108373074D01*
X134015275Y-108326715D01*
X133813600Y-108286600D01*
X125441579Y-108286600D01*
X125381030Y-108140060D01*
X125046401Y-107804847D01*
X124608964Y-107623207D01*
X124135314Y-107622794D01*
X123697560Y-107803670D01*
X123503100Y-107997791D01*
X123503100Y-107089318D01*
X123695799Y-107282353D01*
X124133236Y-107463993D01*
X124606886Y-107464406D01*
X125044640Y-107283530D01*
X125379853Y-106948901D01*
X125561493Y-106511464D01*
X125561906Y-106037814D01*
X125381030Y-105600060D01*
X125046401Y-105264847D01*
X124833868Y-105176596D01*
X125163359Y-105040116D01*
X125245300Y-104787405D01*
X124371100Y-103913205D01*
X124356958Y-103927348D01*
X124177353Y-103747743D01*
X124191495Y-103733600D01*
X124550705Y-103733600D01*
X125424905Y-104607800D01*
X125677616Y-104525859D01*
X125829516Y-104108115D01*
X125874735Y-104126891D01*
X126124171Y-104127109D01*
X126354703Y-104031855D01*
X126359566Y-104027000D01*
X129781706Y-104027000D01*
X132122896Y-106368190D01*
X132122891Y-106374175D01*
X132218145Y-106604707D01*
X132394369Y-106781239D01*
X132624735Y-106876895D01*
X132874171Y-106877113D01*
X133104703Y-106781859D01*
X133281235Y-106605635D01*
X133376891Y-106375269D01*
X133377109Y-106125833D01*
X133281855Y-105895301D01*
X133136711Y-105749903D01*
X133281235Y-105605631D01*
X133376891Y-105375265D01*
X133377109Y-105125829D01*
X133281855Y-104895297D01*
X133105631Y-104718765D01*
X132875265Y-104623109D01*
X132868393Y-104623103D01*
X132822649Y-104577359D01*
X132822647Y-104577356D01*
X130372645Y-102127355D01*
X130201675Y-102013115D01*
X130000000Y-101973000D01*
X126609859Y-101973000D01*
X126605631Y-101968765D01*
X126375265Y-101873109D01*
X126125829Y-101872891D01*
X125895297Y-101968145D01*
X125718765Y-102144369D01*
X125623109Y-102374735D01*
X125622891Y-102624171D01*
X125718145Y-102854703D01*
X125777046Y-102913707D01*
X125682373Y-102952825D01*
X125677616Y-102941341D01*
X125424905Y-102859400D01*
X124550705Y-103733600D01*
X124191495Y-103733600D01*
X124177353Y-103719458D01*
X124356958Y-103539853D01*
X124371100Y-103553995D01*
X125245300Y-102679795D01*
X125163359Y-102427084D01*
X124812427Y-102299478D01*
X125044640Y-102203530D01*
X125379853Y-101868901D01*
X125561493Y-101431464D01*
X125561906Y-100957814D01*
X125381030Y-100520060D01*
X125250659Y-100389461D01*
X126007347Y-99632774D01*
X126121586Y-99461803D01*
X126161701Y-99260129D01*
X126161701Y-98583589D01*
X126718291Y-98027000D01*
X139500000Y-98027000D01*
X139701675Y-97986885D01*
X139872645Y-97872645D01*
X141121119Y-96624171D01*
X144872891Y-96624171D01*
X144968145Y-96854703D01*
X145144369Y-97031235D01*
X145374735Y-97126891D01*
X145381607Y-97126897D01*
X147310398Y-99055688D01*
X147481368Y-99169928D01*
X147683043Y-99210043D01*
X152573186Y-99210043D01*
X152577414Y-99214278D01*
X152807780Y-99309934D01*
X153057216Y-99310152D01*
X153287748Y-99214898D01*
X153464280Y-99038674D01*
X153559936Y-98808308D01*
X153560154Y-98558872D01*
X153464900Y-98328340D01*
X153288676Y-98151808D01*
X153058310Y-98056152D01*
X152808874Y-98055934D01*
X152578342Y-98151188D01*
X152573479Y-98156043D01*
X147901333Y-98156043D01*
X146127104Y-96381814D01*
X146127109Y-96375829D01*
X146031855Y-96145297D01*
X145855631Y-95968765D01*
X145625265Y-95873109D01*
X145375829Y-95872891D01*
X145145297Y-95968145D01*
X144968765Y-96144369D01*
X144873109Y-96374735D01*
X144872891Y-96624171D01*
X141121119Y-96624171D01*
X145872645Y-91872646D01*
X145973000Y-91722454D01*
X145973000Y-94000000D01*
X146013115Y-94201675D01*
X146127355Y-94372645D01*
X147873306Y-96118597D01*
X148044277Y-96232836D01*
X148245951Y-96272951D01*
X151816373Y-96272951D01*
X151820601Y-96277186D01*
X152050967Y-96372842D01*
X152300403Y-96373060D01*
X152530935Y-96277806D01*
X152707467Y-96101582D01*
X152803123Y-95871216D01*
X152803341Y-95621780D01*
X152708087Y-95391248D01*
X152531863Y-95214716D01*
X152301497Y-95119060D01*
X152052061Y-95118842D01*
X151821529Y-95214096D01*
X151816666Y-95218951D01*
X150417662Y-95218951D01*
X150531235Y-95105576D01*
X150626891Y-94875210D01*
X150627109Y-94625774D01*
X150531855Y-94395242D01*
X150355631Y-94218710D01*
X150125265Y-94123054D01*
X150118393Y-94123048D01*
X150072648Y-94077303D01*
X150072646Y-94077300D01*
X148527000Y-92531655D01*
X148527000Y-91312570D01*
X148574755Y-91332400D01*
X148824191Y-91332618D01*
X149054723Y-91237364D01*
X149231255Y-91061140D01*
X149326911Y-90830774D01*
X149326917Y-90823903D01*
X149372665Y-90778155D01*
X149372667Y-90778152D01*
X154523809Y-85627011D01*
X156819114Y-85627011D01*
X157020789Y-85586896D01*
X157191759Y-85472656D01*
X157423000Y-85241415D01*
X157423000Y-86661609D01*
X156683416Y-87401192D01*
X156683416Y-87300030D01*
X156660615Y-87178851D01*
X156588998Y-87067556D01*
X156479724Y-86992892D01*
X156350010Y-86966624D01*
X153649990Y-86966624D01*
X153528811Y-86989425D01*
X153417516Y-87061042D01*
X153342852Y-87170316D01*
X153316584Y-87300030D01*
X153316584Y-88801170D01*
X153339385Y-88922349D01*
X153411002Y-89033644D01*
X153520276Y-89108308D01*
X153649990Y-89134576D01*
X156350010Y-89134576D01*
X156471189Y-89111775D01*
X156582484Y-89040158D01*
X156657148Y-88930884D01*
X156683416Y-88801170D01*
X156683416Y-88627600D01*
X156850005Y-88627600D01*
X156850010Y-88627601D01*
X157070818Y-88583678D01*
X157258011Y-88458601D01*
X158407998Y-87308613D01*
X158408001Y-87308611D01*
X158502595Y-87167040D01*
X158533078Y-87121419D01*
X158577000Y-86900610D01*
X158577000Y-85588750D01*
X158769243Y-85626989D01*
X161280011Y-85626989D01*
X161481686Y-85586874D01*
X161652656Y-85472634D01*
X162169117Y-84956173D01*
X162560000Y-85033925D01*
X163015623Y-84943296D01*
X163401881Y-84685206D01*
X163659971Y-84298948D01*
X163750600Y-83843325D01*
X163750600Y-83796675D01*
X163659971Y-83341052D01*
X163487812Y-83083399D01*
X163618109Y-83083399D01*
X163979412Y-83444702D01*
X163909400Y-83796675D01*
X163909400Y-83843325D01*
X164000029Y-84298948D01*
X164258119Y-84685206D01*
X164644377Y-84943296D01*
X165100000Y-85033925D01*
X165555623Y-84943296D01*
X165941881Y-84685206D01*
X166199971Y-84298948D01*
X166290600Y-83843325D01*
X166290600Y-83796675D01*
X166199971Y-83341052D01*
X165941881Y-82954794D01*
X165555623Y-82696704D01*
X165552760Y-82696134D01*
X165874947Y-82562688D01*
X166306821Y-82168490D01*
X166554968Y-81639027D01*
X166434469Y-81407000D01*
X165227000Y-81407000D01*
X165227000Y-81427000D01*
X164973000Y-81427000D01*
X164973000Y-81407000D01*
X164953000Y-81407000D01*
X164953000Y-81153000D01*
X164973000Y-81153000D01*
X164973000Y-81133000D01*
X165227000Y-81133000D01*
X165227000Y-81153000D01*
X166434469Y-81153000D01*
X166554968Y-80920973D01*
X166306821Y-80391510D01*
X165884027Y-80005600D01*
X171815382Y-80005600D01*
X171622347Y-80198299D01*
G36*
X130873179Y-80391510D02*
X130625032Y-80920973D01*
X130745531Y-81153000D01*
X131953000Y-81153000D01*
X131953000Y-81133000D01*
X132207000Y-81133000D01*
X132207000Y-81153000D01*
X132227000Y-81153000D01*
X132227000Y-81407000D01*
X132207000Y-81407000D01*
X132207000Y-81427000D01*
X131953000Y-81427000D01*
X131953000Y-81407000D01*
X130745531Y-81407000D01*
X130625032Y-81639027D01*
X130811134Y-82036107D01*
X130707522Y-82056716D01*
X130536552Y-82170956D01*
X130531426Y-82178628D01*
X130523754Y-82183754D01*
X130443754Y-82263754D01*
X130329514Y-82434724D01*
X130307857Y-82543601D01*
X130289399Y-82636399D01*
X130289399Y-85003601D01*
X130329514Y-85205276D01*
X130443754Y-85376246D01*
X130723000Y-85655493D01*
X130723000Y-88250000D01*
X130763115Y-88451675D01*
X130877355Y-88622645D01*
X131122896Y-88868186D01*
X131122891Y-88874171D01*
X131218145Y-89104703D01*
X131394369Y-89281235D01*
X131624735Y-89376891D01*
X131874171Y-89377109D01*
X132104703Y-89281855D01*
X132281235Y-89105631D01*
X132376891Y-88875265D01*
X132377109Y-88625829D01*
X132281855Y-88395297D01*
X132105631Y-88218765D01*
X131875265Y-88123109D01*
X131868393Y-88123103D01*
X131777000Y-88031710D01*
X131777000Y-85437202D01*
X131736885Y-85235528D01*
X131694876Y-85172657D01*
X131622645Y-85064556D01*
X131575095Y-85017006D01*
X132943600Y-85017006D01*
X133064779Y-84994205D01*
X133176074Y-84922588D01*
X133176571Y-84921861D01*
X136127355Y-87872645D01*
X136298325Y-87986885D01*
X136500000Y-88027000D01*
X140424264Y-88027000D01*
X140625939Y-87986885D01*
X140796909Y-87872645D01*
X143934300Y-84735254D01*
X144048540Y-84564284D01*
X144088655Y-84362609D01*
X144088655Y-83844201D01*
X144092890Y-83839973D01*
X144188546Y-83609607D01*
X144188764Y-83360171D01*
X144093510Y-83129639D01*
X143917286Y-82953107D01*
X143828841Y-82916382D01*
X143829044Y-82916246D01*
X144322647Y-82422644D01*
X144322649Y-82422641D01*
X144368186Y-82377104D01*
X144374171Y-82377109D01*
X144604703Y-82281855D01*
X144781235Y-82105631D01*
X144876891Y-81875265D01*
X144877109Y-81625829D01*
X144781855Y-81395297D01*
X144605631Y-81218765D01*
X144375265Y-81123109D01*
X144125829Y-81122891D01*
X143895297Y-81218145D01*
X143718765Y-81394369D01*
X143651739Y-81555787D01*
X143574469Y-81407000D01*
X142367000Y-81407000D01*
X142367000Y-81427000D01*
X142113000Y-81427000D01*
X142113000Y-81407000D01*
X142093000Y-81407000D01*
X142093000Y-81153000D01*
X142113000Y-81153000D01*
X142113000Y-81133000D01*
X142367000Y-81133000D01*
X142367000Y-81153000D01*
X143574469Y-81153000D01*
X143694968Y-80920973D01*
X143446821Y-80391510D01*
X143024027Y-80005600D01*
X148641693Y-80005600D01*
X148611526Y-80025012D01*
X148536862Y-80134286D01*
X148510594Y-80264000D01*
X148510594Y-82091034D01*
X147796915Y-81377355D01*
X147625945Y-81263115D01*
X147424270Y-81223000D01*
X146109859Y-81223000D01*
X146105631Y-81218765D01*
X145875265Y-81123109D01*
X145625829Y-81122891D01*
X145395297Y-81218145D01*
X145218765Y-81394369D01*
X145123109Y-81624735D01*
X145122891Y-81874171D01*
X145218145Y-82104703D01*
X145394369Y-82281235D01*
X145624735Y-82376891D01*
X145874171Y-82377109D01*
X146104703Y-82281855D01*
X146109566Y-82277000D01*
X147205980Y-82277000D01*
X147341993Y-82413013D01*
X146165382Y-82413013D01*
X145963707Y-82453128D01*
X145792737Y-82567368D01*
X144527344Y-83832761D01*
X144413104Y-84003731D01*
X144385130Y-84144369D01*
X144372989Y-84205406D01*
X144372989Y-89607387D01*
X144355631Y-89589999D01*
X144125265Y-89494343D01*
X143875829Y-89494125D01*
X143645297Y-89589379D01*
X143468765Y-89765603D01*
X143373109Y-89995969D01*
X143372891Y-90245405D01*
X143468145Y-90475937D01*
X143473000Y-90480800D01*
X143473000Y-90781710D01*
X138531710Y-95723000D01*
X126968291Y-95723000D01*
X126277000Y-95031710D01*
X126277000Y-92412500D01*
X126236885Y-92210826D01*
X126236885Y-92210825D01*
X126122645Y-92039855D01*
X125500688Y-91417898D01*
X125561493Y-91271464D01*
X125561906Y-90797814D01*
X125381030Y-90360060D01*
X125046401Y-90024847D01*
X124608964Y-89843207D01*
X124135314Y-89842794D01*
X123697560Y-90023670D01*
X123503100Y-90217791D01*
X123503100Y-89309318D01*
X123695799Y-89502353D01*
X124133236Y-89683993D01*
X124606886Y-89684406D01*
X125044640Y-89503530D01*
X125379853Y-89168901D01*
X125561493Y-88731464D01*
X125561906Y-88257814D01*
X125521260Y-88159442D01*
X127298301Y-86382400D01*
X127548994Y-86382400D01*
X127548994Y-88617600D01*
X127571795Y-88738779D01*
X127643412Y-88850074D01*
X127752686Y-88924738D01*
X127882400Y-88951006D01*
X130117600Y-88951006D01*
X130238779Y-88928205D01*
X130350074Y-88856588D01*
X130424738Y-88747314D01*
X130451006Y-88617600D01*
X130451006Y-86382400D01*
X130428205Y-86261221D01*
X130356588Y-86149926D01*
X130247314Y-86075262D01*
X130117600Y-86048994D01*
X127882400Y-86048994D01*
X127761221Y-86071795D01*
X127649926Y-86143412D01*
X127575262Y-86252686D01*
X127548994Y-86382400D01*
X127298301Y-86382400D01*
X128103701Y-85577000D01*
X128754584Y-85577000D01*
X128874735Y-85626891D01*
X129124171Y-85627109D01*
X129354703Y-85531855D01*
X129531235Y-85355631D01*
X129626891Y-85125265D01*
X129627109Y-84875829D01*
X129531855Y-84645297D01*
X129355631Y-84468765D01*
X129125265Y-84373109D01*
X128875829Y-84372891D01*
X128754556Y-84423000D01*
X127864705Y-84423000D01*
X127864700Y-84422999D01*
X127643892Y-84466922D01*
X127456699Y-84591999D01*
X127456697Y-84592002D01*
X124705434Y-87343265D01*
X124608964Y-87303207D01*
X124135314Y-87302794D01*
X123697560Y-87483670D01*
X123503100Y-87677791D01*
X123503100Y-86769318D01*
X123695799Y-86962353D01*
X124133236Y-87143993D01*
X124606886Y-87144406D01*
X125044640Y-86963530D01*
X125379853Y-86628901D01*
X125561493Y-86191464D01*
X125561906Y-85717814D01*
X125381030Y-85280060D01*
X125046401Y-84944847D01*
X124608964Y-84763207D01*
X124135314Y-84762794D01*
X123697560Y-84943670D01*
X123503100Y-85137791D01*
X123503100Y-84229318D01*
X123695799Y-84422353D01*
X124133236Y-84603993D01*
X124606886Y-84604406D01*
X125044640Y-84423530D01*
X125379853Y-84088901D01*
X125561493Y-83651464D01*
X125561906Y-83177814D01*
X125381030Y-82740060D01*
X125046401Y-82404847D01*
X124608964Y-82223207D01*
X124135314Y-82222794D01*
X123697560Y-82403670D01*
X123503100Y-82597791D01*
X123503100Y-81689318D01*
X123695799Y-81882353D01*
X124133236Y-82063993D01*
X124606886Y-82064406D01*
X125044640Y-81883530D01*
X125379853Y-81548901D01*
X125561493Y-81111464D01*
X125561906Y-80637814D01*
X125381030Y-80200060D01*
X125186909Y-80005600D01*
X131295973Y-80005600D01*
X130873179Y-80391510D01*
X130873179Y-80391510D01*
G37*
X130873179Y-80391510D02*
X130625032Y-80920973D01*
X130745531Y-81153000D01*
X131953000Y-81153000D01*
X131953000Y-81133000D01*
X132207000Y-81133000D01*
X132207000Y-81153000D01*
X132227000Y-81153000D01*
X132227000Y-81407000D01*
X132207000Y-81407000D01*
X132207000Y-81427000D01*
X131953000Y-81427000D01*
X131953000Y-81407000D01*
X130745531Y-81407000D01*
X130625032Y-81639027D01*
X130811134Y-82036107D01*
X130707522Y-82056716D01*
X130536552Y-82170956D01*
X130531426Y-82178628D01*
X130523754Y-82183754D01*
X130443754Y-82263754D01*
X130329514Y-82434724D01*
X130307857Y-82543601D01*
X130289399Y-82636399D01*
X130289399Y-85003601D01*
X130329514Y-85205276D01*
X130443754Y-85376246D01*
X130723000Y-85655493D01*
X130723000Y-88250000D01*
X130763115Y-88451675D01*
X130877355Y-88622645D01*
X131122896Y-88868186D01*
X131122891Y-88874171D01*
X131218145Y-89104703D01*
X131394369Y-89281235D01*
X131624735Y-89376891D01*
X131874171Y-89377109D01*
X132104703Y-89281855D01*
X132281235Y-89105631D01*
X132376891Y-88875265D01*
X132377109Y-88625829D01*
X132281855Y-88395297D01*
X132105631Y-88218765D01*
X131875265Y-88123109D01*
X131868393Y-88123103D01*
X131777000Y-88031710D01*
X131777000Y-85437202D01*
X131736885Y-85235528D01*
X131694876Y-85172657D01*
X131622645Y-85064556D01*
X131575095Y-85017006D01*
X132943600Y-85017006D01*
X133064779Y-84994205D01*
X133176074Y-84922588D01*
X133176571Y-84921861D01*
X136127355Y-87872645D01*
X136298325Y-87986885D01*
X136500000Y-88027000D01*
X140424264Y-88027000D01*
X140625939Y-87986885D01*
X140796909Y-87872645D01*
X143934300Y-84735254D01*
X144048540Y-84564284D01*
X144088655Y-84362609D01*
X144088655Y-83844201D01*
X144092890Y-83839973D01*
X144188546Y-83609607D01*
X144188764Y-83360171D01*
X144093510Y-83129639D01*
X143917286Y-82953107D01*
X143828841Y-82916382D01*
X143829044Y-82916246D01*
X144322647Y-82422644D01*
X144322649Y-82422641D01*
X144368186Y-82377104D01*
X144374171Y-82377109D01*
X144604703Y-82281855D01*
X144781235Y-82105631D01*
X144876891Y-81875265D01*
X144877109Y-81625829D01*
X144781855Y-81395297D01*
X144605631Y-81218765D01*
X144375265Y-81123109D01*
X144125829Y-81122891D01*
X143895297Y-81218145D01*
X143718765Y-81394369D01*
X143651739Y-81555787D01*
X143574469Y-81407000D01*
X142367000Y-81407000D01*
X142367000Y-81427000D01*
X142113000Y-81427000D01*
X142113000Y-81407000D01*
X142093000Y-81407000D01*
X142093000Y-81153000D01*
X142113000Y-81153000D01*
X142113000Y-81133000D01*
X142367000Y-81133000D01*
X142367000Y-81153000D01*
X143574469Y-81153000D01*
X143694968Y-80920973D01*
X143446821Y-80391510D01*
X143024027Y-80005600D01*
X148641693Y-80005600D01*
X148611526Y-80025012D01*
X148536862Y-80134286D01*
X148510594Y-80264000D01*
X148510594Y-82091034D01*
X147796915Y-81377355D01*
X147625945Y-81263115D01*
X147424270Y-81223000D01*
X146109859Y-81223000D01*
X146105631Y-81218765D01*
X145875265Y-81123109D01*
X145625829Y-81122891D01*
X145395297Y-81218145D01*
X145218765Y-81394369D01*
X145123109Y-81624735D01*
X145122891Y-81874171D01*
X145218145Y-82104703D01*
X145394369Y-82281235D01*
X145624735Y-82376891D01*
X145874171Y-82377109D01*
X146104703Y-82281855D01*
X146109566Y-82277000D01*
X147205980Y-82277000D01*
X147341993Y-82413013D01*
X146165382Y-82413013D01*
X145963707Y-82453128D01*
X145792737Y-82567368D01*
X144527344Y-83832761D01*
X144413104Y-84003731D01*
X144385130Y-84144369D01*
X144372989Y-84205406D01*
X144372989Y-89607387D01*
X144355631Y-89589999D01*
X144125265Y-89494343D01*
X143875829Y-89494125D01*
X143645297Y-89589379D01*
X143468765Y-89765603D01*
X143373109Y-89995969D01*
X143372891Y-90245405D01*
X143468145Y-90475937D01*
X143473000Y-90480800D01*
X143473000Y-90781710D01*
X138531710Y-95723000D01*
X126968291Y-95723000D01*
X126277000Y-95031710D01*
X126277000Y-92412500D01*
X126236885Y-92210826D01*
X126236885Y-92210825D01*
X126122645Y-92039855D01*
X125500688Y-91417898D01*
X125561493Y-91271464D01*
X125561906Y-90797814D01*
X125381030Y-90360060D01*
X125046401Y-90024847D01*
X124608964Y-89843207D01*
X124135314Y-89842794D01*
X123697560Y-90023670D01*
X123503100Y-90217791D01*
X123503100Y-89309318D01*
X123695799Y-89502353D01*
X124133236Y-89683993D01*
X124606886Y-89684406D01*
X125044640Y-89503530D01*
X125379853Y-89168901D01*
X125561493Y-88731464D01*
X125561906Y-88257814D01*
X125521260Y-88159442D01*
X127298301Y-86382400D01*
X127548994Y-86382400D01*
X127548994Y-88617600D01*
X127571795Y-88738779D01*
X127643412Y-88850074D01*
X127752686Y-88924738D01*
X127882400Y-88951006D01*
X130117600Y-88951006D01*
X130238779Y-88928205D01*
X130350074Y-88856588D01*
X130424738Y-88747314D01*
X130451006Y-88617600D01*
X130451006Y-86382400D01*
X130428205Y-86261221D01*
X130356588Y-86149926D01*
X130247314Y-86075262D01*
X130117600Y-86048994D01*
X127882400Y-86048994D01*
X127761221Y-86071795D01*
X127649926Y-86143412D01*
X127575262Y-86252686D01*
X127548994Y-86382400D01*
X127298301Y-86382400D01*
X128103701Y-85577000D01*
X128754584Y-85577000D01*
X128874735Y-85626891D01*
X129124171Y-85627109D01*
X129354703Y-85531855D01*
X129531235Y-85355631D01*
X129626891Y-85125265D01*
X129627109Y-84875829D01*
X129531855Y-84645297D01*
X129355631Y-84468765D01*
X129125265Y-84373109D01*
X128875829Y-84372891D01*
X128754556Y-84423000D01*
X127864705Y-84423000D01*
X127864700Y-84422999D01*
X127643892Y-84466922D01*
X127456699Y-84591999D01*
X127456697Y-84592002D01*
X124705434Y-87343265D01*
X124608964Y-87303207D01*
X124135314Y-87302794D01*
X123697560Y-87483670D01*
X123503100Y-87677791D01*
X123503100Y-86769318D01*
X123695799Y-86962353D01*
X124133236Y-87143993D01*
X124606886Y-87144406D01*
X125044640Y-86963530D01*
X125379853Y-86628901D01*
X125561493Y-86191464D01*
X125561906Y-85717814D01*
X125381030Y-85280060D01*
X125046401Y-84944847D01*
X124608964Y-84763207D01*
X124135314Y-84762794D01*
X123697560Y-84943670D01*
X123503100Y-85137791D01*
X123503100Y-84229318D01*
X123695799Y-84422353D01*
X124133236Y-84603993D01*
X124606886Y-84604406D01*
X125044640Y-84423530D01*
X125379853Y-84088901D01*
X125561493Y-83651464D01*
X125561906Y-83177814D01*
X125381030Y-82740060D01*
X125046401Y-82404847D01*
X124608964Y-82223207D01*
X124135314Y-82222794D01*
X123697560Y-82403670D01*
X123503100Y-82597791D01*
X123503100Y-81689318D01*
X123695799Y-81882353D01*
X124133236Y-82063993D01*
X124606886Y-82064406D01*
X125044640Y-81883530D01*
X125379853Y-81548901D01*
X125561493Y-81111464D01*
X125561906Y-80637814D01*
X125381030Y-80200060D01*
X125186909Y-80005600D01*
X131295973Y-80005600D01*
X130873179Y-80391510D01*
G36*
X163893179Y-80391510D02*
X163672266Y-80862864D01*
X163659971Y-80801052D01*
X163401881Y-80414794D01*
X163015623Y-80156704D01*
X162560000Y-80066075D01*
X162104377Y-80156704D01*
X161718119Y-80414794D01*
X161460029Y-80801052D01*
X161369400Y-81256675D01*
X161369400Y-81303325D01*
X161460029Y-81758948D01*
X161640739Y-82029399D01*
X160939261Y-82029399D01*
X161119971Y-81758948D01*
X161210600Y-81303325D01*
X161210600Y-81256675D01*
X161119971Y-80801052D01*
X160861881Y-80414794D01*
X160475623Y-80156704D01*
X160020000Y-80066075D01*
X159564377Y-80156704D01*
X159178119Y-80414794D01*
X158920029Y-80801052D01*
X158829400Y-81256675D01*
X158829400Y-81303325D01*
X158920029Y-81758948D01*
X159100739Y-82029399D01*
X158309054Y-82029399D01*
X158107380Y-82069514D01*
X157936409Y-82183754D01*
X156683416Y-83436747D01*
X156683416Y-82499430D01*
X156660615Y-82378251D01*
X156588998Y-82266956D01*
X156479724Y-82192292D01*
X156350010Y-82166024D01*
X153775000Y-82166024D01*
X154005983Y-81662946D01*
X153887367Y-81407000D01*
X152527000Y-81407000D01*
X152527000Y-81427000D01*
X152273000Y-81427000D01*
X152273000Y-81407000D01*
X152253000Y-81407000D01*
X152253000Y-81153000D01*
X152273000Y-81153000D01*
X152273000Y-81133000D01*
X152527000Y-81133000D01*
X152527000Y-81153000D01*
X153887367Y-81153000D01*
X154005983Y-80897054D01*
X153737188Y-80311621D01*
X153407158Y-80005600D01*
X164315973Y-80005600D01*
X163893179Y-80391510D01*
X163893179Y-80391510D01*
G37*
X163893179Y-80391510D02*
X163672266Y-80862864D01*
X163659971Y-80801052D01*
X163401881Y-80414794D01*
X163015623Y-80156704D01*
X162560000Y-80066075D01*
X162104377Y-80156704D01*
X161718119Y-80414794D01*
X161460029Y-80801052D01*
X161369400Y-81256675D01*
X161369400Y-81303325D01*
X161460029Y-81758948D01*
X161640739Y-82029399D01*
X160939261Y-82029399D01*
X161119971Y-81758948D01*
X161210600Y-81303325D01*
X161210600Y-81256675D01*
X161119971Y-80801052D01*
X160861881Y-80414794D01*
X160475623Y-80156704D01*
X160020000Y-80066075D01*
X159564377Y-80156704D01*
X159178119Y-80414794D01*
X158920029Y-80801052D01*
X158829400Y-81256675D01*
X158829400Y-81303325D01*
X158920029Y-81758948D01*
X159100739Y-82029399D01*
X158309054Y-82029399D01*
X158107380Y-82069514D01*
X157936409Y-82183754D01*
X156683416Y-83436747D01*
X156683416Y-82499430D01*
X156660615Y-82378251D01*
X156588998Y-82266956D01*
X156479724Y-82192292D01*
X156350010Y-82166024D01*
X153775000Y-82166024D01*
X154005983Y-81662946D01*
X153887367Y-81407000D01*
X152527000Y-81407000D01*
X152527000Y-81427000D01*
X152273000Y-81427000D01*
X152273000Y-81407000D01*
X152253000Y-81407000D01*
X152253000Y-81153000D01*
X152273000Y-81153000D01*
X152273000Y-81133000D01*
X152527000Y-81133000D01*
X152527000Y-81153000D01*
X153887367Y-81153000D01*
X154005983Y-80897054D01*
X153737188Y-80311621D01*
X153407158Y-80005600D01*
X164315973Y-80005600D01*
X163893179Y-80391510D01*
M02*
