G04 #@! TF.FileFunction,Paste,Bot*
%FSLAX46Y46*%
G04 Gerber Fmt 4.6, Leading zero omitted, Abs format (unit mm)*
G04 Created by KiCad (PCBNEW 4.0.6-e0-6349~53~ubuntu16.04.1) date Thu Aug 24 13:51:26 2017*
%MOMM*%
%LPD*%
G01*
G04 APERTURE LIST*
%ADD10C,0.100000*%
%ADD11R,0.610000X1.650000*%
%ADD12R,0.550000X1.150000*%
%ADD13R,1.050000X0.130000*%
%ADD14R,0.130000X1.050000*%
%ADD15R,0.450000X1.400000*%
%ADD16R,1.150000X0.550000*%
%ADD17R,1.100000X0.850000*%
%ADD18R,0.850000X1.100000*%
%ADD19R,3.030000X1.505000*%
%ADD20R,1.505000X3.030000*%
%ADD21R,1.400000X0.450000*%
%ADD22R,1.450000X0.850000*%
%ADD23R,0.850000X1.450000*%
%ADD24R,0.300000X0.440000*%
%ADD25R,0.910000X0.500000*%
%ADD26R,2.350000X0.850000*%
%ADD27R,1.350000X0.450000*%
%ADD28R,0.358000X0.993000*%
%ADD29R,0.850000X2.350000*%
%ADD30R,0.450000X1.350000*%
%ADD31R,1.048880X1.048880*%
%ADD32R,0.850000X2.850000*%
%ADD33R,1.650000X0.610000*%
%ADD34R,0.360000X2.450000*%
%ADD35R,0.750000X0.750000*%
%ADD36R,2.450000X0.360000*%
%ADD37R,1.250000X1.450000*%
%ADD38R,1.450000X1.250000*%
G04 APERTURE END LIST*
D10*
D11*
X101270000Y-81100000D03*
X101270000Y-76900000D03*
X100000000Y-81100000D03*
X100000000Y-76900000D03*
X98730000Y-81100000D03*
X98730000Y-76900000D03*
D12*
X114200000Y-65000000D03*
X112300000Y-65000000D03*
D13*
X74500000Y-106750000D03*
X74500000Y-107250000D03*
X74500000Y-107750000D03*
X74500000Y-108250000D03*
X74500000Y-108750000D03*
X74500000Y-109250000D03*
X74500000Y-109750000D03*
X74500000Y-110250000D03*
D14*
X73000000Y-111750000D03*
X72500000Y-111750000D03*
X72000000Y-111750000D03*
X71500000Y-111750000D03*
X71000000Y-111750000D03*
X70500000Y-111750000D03*
X70000000Y-111750000D03*
X69500000Y-111750000D03*
D13*
X68000000Y-110250000D03*
X68000000Y-109750000D03*
X68000000Y-109250000D03*
X68000000Y-108750000D03*
X68000000Y-108250000D03*
X68000000Y-107750000D03*
X68000000Y-107250000D03*
X68000000Y-106750000D03*
D14*
X69500000Y-105250000D03*
X70000000Y-105250000D03*
X70500000Y-105250000D03*
X71000000Y-105250000D03*
X71500000Y-105250000D03*
X72000000Y-105250000D03*
X72500000Y-105250000D03*
X73000000Y-105250000D03*
D15*
X133905000Y-104700000D03*
X132635000Y-104700000D03*
X131365000Y-104700000D03*
X130095000Y-104700000D03*
X130095000Y-99300000D03*
X131365000Y-99300000D03*
X132635000Y-99300000D03*
X133905000Y-99300000D03*
D16*
X76200000Y-116500000D03*
X76200000Y-114600000D03*
D17*
X86250000Y-135000000D03*
X86250000Y-133000000D03*
D18*
X81750000Y-123500000D03*
X83750000Y-123500000D03*
D17*
X134500000Y-120300000D03*
X134500000Y-122300000D03*
D12*
X117200000Y-75000000D03*
X115300000Y-75000000D03*
D17*
X68000000Y-87500000D03*
X68000000Y-89500000D03*
X68000000Y-91500000D03*
X68000000Y-93500000D03*
D12*
X101200000Y-74600000D03*
X99300000Y-74600000D03*
D16*
X121750000Y-69300000D03*
X121750000Y-71200000D03*
D17*
X79500000Y-63000000D03*
X79500000Y-61000000D03*
X86500000Y-63000000D03*
X86500000Y-61000000D03*
X79500000Y-65000000D03*
X79500000Y-67000000D03*
X67500000Y-124250000D03*
X67500000Y-126250000D03*
D18*
X112500000Y-62750000D03*
X114500000Y-62750000D03*
X110250000Y-62750000D03*
X108250000Y-62750000D03*
D17*
X68750000Y-97750000D03*
X68750000Y-99750000D03*
X119750000Y-71250000D03*
X119750000Y-69250000D03*
D18*
X117250000Y-77000000D03*
X115250000Y-77000000D03*
D17*
X86250000Y-137000000D03*
X86250000Y-139000000D03*
X79250000Y-137000000D03*
X79250000Y-139000000D03*
X76750000Y-103000000D03*
X76750000Y-105000000D03*
X76750000Y-106750000D03*
X76750000Y-108750000D03*
X76750000Y-110500000D03*
X76750000Y-112500000D03*
X73750000Y-116250000D03*
X73750000Y-114250000D03*
X71750000Y-114250000D03*
X71750000Y-116250000D03*
X69750000Y-114250000D03*
X69750000Y-116250000D03*
D18*
X133000000Y-83000000D03*
X135000000Y-83000000D03*
X132250000Y-79000000D03*
X134250000Y-79000000D03*
X83000000Y-121000000D03*
X85000000Y-121000000D03*
D17*
X86500000Y-65000000D03*
X86500000Y-67000000D03*
X127500000Y-120300000D03*
X127500000Y-122300000D03*
D18*
X84250000Y-76500000D03*
X82250000Y-76500000D03*
D17*
X134500000Y-126050000D03*
X134500000Y-124050000D03*
X127500000Y-128050000D03*
X127500000Y-130050000D03*
D16*
X70750000Y-101050000D03*
X70750000Y-102950000D03*
X72750000Y-101050000D03*
X72750000Y-102950000D03*
D12*
X73950000Y-118500000D03*
X72050000Y-118500000D03*
D16*
X74750000Y-101050000D03*
X74750000Y-102950000D03*
X70750000Y-99450000D03*
X70750000Y-97550000D03*
X72750000Y-99450000D03*
X72750000Y-97550000D03*
D12*
X136299990Y-80999990D03*
X138199990Y-80999990D03*
D16*
X74750000Y-99450000D03*
X74750000Y-97550000D03*
X68000000Y-101300000D03*
X68000000Y-103200000D03*
D12*
X78550000Y-103250000D03*
X80450000Y-103250000D03*
X80450000Y-105750000D03*
X78550000Y-105750000D03*
X78550000Y-107750000D03*
X80450000Y-107750000D03*
X80450000Y-109750000D03*
X78550000Y-109750000D03*
X78550000Y-111750000D03*
X80450000Y-111750000D03*
X80450000Y-113750000D03*
X78550000Y-113750000D03*
D19*
X76000000Y-125642500D03*
X76000000Y-131357500D03*
X89500000Y-125642500D03*
X89500000Y-131357500D03*
X90000000Y-73857500D03*
X90000000Y-68142500D03*
X76500000Y-74357500D03*
X76500000Y-68642500D03*
D20*
X129892500Y-109000000D03*
X135607500Y-109000000D03*
X129892500Y-95500000D03*
X135607500Y-95500000D03*
D21*
X80300000Y-130405000D03*
X80300000Y-129135000D03*
X80300000Y-127865000D03*
X80300000Y-126595000D03*
X85700000Y-126595000D03*
X85700000Y-127865000D03*
X85700000Y-129135000D03*
X85700000Y-130405000D03*
D15*
X61645000Y-122300000D03*
X62915000Y-122300000D03*
X64185000Y-122300000D03*
X65455000Y-122300000D03*
X65455000Y-127700000D03*
X64185000Y-127700000D03*
X62915000Y-127700000D03*
X61645000Y-127700000D03*
D21*
X85700000Y-69595000D03*
X85700000Y-70865000D03*
X85700000Y-72135000D03*
X85700000Y-73405000D03*
X80300000Y-73405000D03*
X80300000Y-72135000D03*
X80300000Y-70865000D03*
X80300000Y-69595000D03*
D22*
X72600000Y-127000000D03*
X72600000Y-130000000D03*
X92900000Y-127000000D03*
X92900000Y-130000000D03*
X93400000Y-72500000D03*
X93400000Y-69500000D03*
X73100000Y-73000000D03*
X73100000Y-70000000D03*
D23*
X131250000Y-112400000D03*
X134250000Y-112400000D03*
X131250000Y-92100000D03*
X134250000Y-92100000D03*
D12*
X110450000Y-65000000D03*
X108550000Y-65000000D03*
D17*
X134500000Y-128050000D03*
X134500000Y-130050000D03*
X127750000Y-103250000D03*
X127750000Y-101250000D03*
X125250000Y-101500000D03*
X125250000Y-99500000D03*
D24*
X137000000Y-125995000D03*
X137000000Y-128105000D03*
D18*
X79000000Y-123500000D03*
X77000000Y-123500000D03*
X87750000Y-123500000D03*
X85750000Y-123500000D03*
X87500000Y-76250000D03*
X89500000Y-76250000D03*
X78250000Y-76500000D03*
X80250000Y-76500000D03*
D17*
X127750000Y-106250000D03*
X127750000Y-108250000D03*
X127750000Y-97250000D03*
X127750000Y-99250000D03*
D25*
X81900000Y-62950000D03*
X81900000Y-62000000D03*
X81900000Y-61050000D03*
X84100000Y-61050000D03*
X84100000Y-62950000D03*
X81900000Y-66950000D03*
X81900000Y-66000000D03*
X81900000Y-65050000D03*
X84100000Y-65050000D03*
X84100000Y-66950000D03*
X129900000Y-118250000D03*
X129900000Y-117300000D03*
X129900000Y-116350000D03*
X132100000Y-116350000D03*
X132100000Y-118250000D03*
X129900000Y-122250000D03*
X129900000Y-121300000D03*
X129900000Y-120350000D03*
X132100000Y-120350000D03*
X132100000Y-122250000D03*
X129900000Y-126000000D03*
X129900000Y-125050000D03*
X129900000Y-124100000D03*
X132100000Y-124100000D03*
X132100000Y-126000000D03*
X129900000Y-130000000D03*
X129900000Y-129050000D03*
X129900000Y-128100000D03*
X132100000Y-128100000D03*
X132100000Y-130000000D03*
D26*
X129250000Y-79250000D03*
X129250000Y-76250000D03*
D17*
X79250000Y-135000000D03*
X79250000Y-133000000D03*
X127500000Y-118300000D03*
X127500000Y-116300000D03*
X134500000Y-118300000D03*
X134500000Y-116300000D03*
X127500000Y-126050000D03*
X127500000Y-124050000D03*
D18*
X82500000Y-79000000D03*
X80500000Y-79000000D03*
D24*
X77000000Y-137055000D03*
X77000000Y-134945000D03*
X89000000Y-62945000D03*
X89000000Y-65055000D03*
X137000000Y-118245000D03*
X137000000Y-120355000D03*
D25*
X128900000Y-82950000D03*
X128900000Y-82000000D03*
X128900000Y-81050000D03*
X131100000Y-81050000D03*
X131100000Y-82950000D03*
X131100000Y-82000000D03*
D27*
X121050000Y-84560000D03*
X121050000Y-83290000D03*
X121050000Y-82020000D03*
X121050000Y-80750000D03*
X121050000Y-79480000D03*
X121050000Y-78210000D03*
X121050000Y-76940000D03*
X126450000Y-76940000D03*
X126450000Y-78210000D03*
X126450000Y-79480000D03*
X126450000Y-80750000D03*
X126450000Y-82020000D03*
X126450000Y-83290000D03*
X126450000Y-84560000D03*
D28*
X109180000Y-66948000D03*
X110450000Y-66948000D03*
X111720000Y-66948000D03*
X112990000Y-66948000D03*
X114260000Y-66948000D03*
X115530000Y-66948000D03*
X116800000Y-66948000D03*
X116800000Y-73298000D03*
X115530000Y-73298000D03*
X112990000Y-73298000D03*
X111720000Y-73298000D03*
X110450000Y-73298000D03*
X109180000Y-73298000D03*
X114260000Y-73298000D03*
D25*
X83850000Y-137050000D03*
X83850000Y-138000000D03*
X83850000Y-138950000D03*
X81650000Y-138950000D03*
X81650000Y-137050000D03*
X83850000Y-133050000D03*
X83850000Y-134000000D03*
X83850000Y-134950000D03*
X81650000Y-134950000D03*
X81650000Y-133050000D03*
D17*
X104601790Y-83500000D03*
X104601790Y-85500000D03*
X123750000Y-69250000D03*
X123750000Y-67250000D03*
D29*
X108301790Y-84500000D03*
X111301790Y-84500000D03*
D17*
X106601790Y-83500000D03*
X106601790Y-85500000D03*
D16*
X67750000Y-113300000D03*
X67750000Y-115200000D03*
D12*
X119800000Y-67250000D03*
X121700000Y-67250000D03*
X123750000Y-71600000D03*
X125650000Y-71600000D03*
D30*
X104300000Y-76200000D03*
X105570000Y-76200000D03*
X106840000Y-76200000D03*
X108110000Y-76200000D03*
X109380000Y-76200000D03*
X110650000Y-76200000D03*
X111920000Y-76200000D03*
X111920000Y-81600000D03*
X110650000Y-81600000D03*
X109380000Y-81600000D03*
X108110000Y-81600000D03*
X106840000Y-81600000D03*
X105570000Y-81600000D03*
X104300000Y-81600000D03*
D29*
X97000000Y-122250000D03*
X100000000Y-122250000D03*
D31*
X103049020Y-70500000D03*
X100950980Y-70500000D03*
D32*
X105000000Y-118750000D03*
X103000000Y-118750000D03*
X101000000Y-118750000D03*
X99000000Y-118750000D03*
X97000000Y-118750000D03*
D12*
X99200000Y-70500000D03*
X97300000Y-70500000D03*
D33*
X65620000Y-83455000D03*
X61420000Y-83455000D03*
X65620000Y-84725000D03*
X61420000Y-84725000D03*
X65620000Y-85995000D03*
X61420000Y-85995000D03*
X65620000Y-87265000D03*
X61420000Y-87265000D03*
X65620000Y-88535000D03*
X61420000Y-88535000D03*
X65620000Y-89805000D03*
X61420000Y-89805000D03*
X65620000Y-91075000D03*
X61420000Y-91075000D03*
X65620000Y-92345000D03*
X61420000Y-92345000D03*
X65620000Y-93615000D03*
X61420000Y-93615000D03*
X65620000Y-94885000D03*
X61420000Y-94885000D03*
X65620000Y-96155000D03*
X61420000Y-96155000D03*
X65620000Y-97425000D03*
X61420000Y-97425000D03*
X65620000Y-102575000D03*
X61420000Y-102575000D03*
X65620000Y-103845000D03*
X61420000Y-103845000D03*
X65620000Y-105115000D03*
X61420000Y-105115000D03*
X65620000Y-106385000D03*
X61420000Y-106385000D03*
X65620000Y-107655000D03*
X61420000Y-107655000D03*
X65620000Y-108925000D03*
X61420000Y-108925000D03*
X65620000Y-110195000D03*
X61420000Y-110195000D03*
X65620000Y-111465000D03*
X61420000Y-111465000D03*
X65620000Y-112735000D03*
X61420000Y-112735000D03*
X65620000Y-114005000D03*
X61420000Y-114005000D03*
X65620000Y-115275000D03*
X61420000Y-115275000D03*
X65620000Y-116545000D03*
X61420000Y-116545000D03*
D17*
X121500000Y-75000000D03*
X121500000Y-73000000D03*
D16*
X119350000Y-75200000D03*
X119350000Y-73300000D03*
D12*
X118800000Y-63750000D03*
X120700000Y-63750000D03*
X118800000Y-61500000D03*
X120700000Y-61500000D03*
D17*
X125750000Y-91500000D03*
X125750000Y-89500000D03*
D18*
X94250000Y-76000000D03*
X96250000Y-76000000D03*
D17*
X98000000Y-126000000D03*
X98000000Y-128000000D03*
D16*
X137000000Y-86450000D03*
X137000000Y-84550000D03*
D34*
X124105000Y-96500000D03*
X126395000Y-96500000D03*
D35*
X124300000Y-96500000D03*
X126200000Y-96500000D03*
D34*
X124105000Y-105500000D03*
X126395000Y-105500000D03*
D35*
X124300000Y-105500000D03*
X126200000Y-105500000D03*
D36*
X76500000Y-80145000D03*
X76500000Y-77855000D03*
D35*
X76500000Y-79950000D03*
X76500000Y-78050000D03*
D36*
X87000000Y-79895000D03*
X87000000Y-77605000D03*
D35*
X87000000Y-79700000D03*
X87000000Y-77800000D03*
D36*
X88500000Y-119855000D03*
X88500000Y-122145000D03*
D35*
X88500000Y-120050000D03*
X88500000Y-121950000D03*
D36*
X79000000Y-119605000D03*
X79000000Y-121895000D03*
D35*
X79000000Y-119800000D03*
X79000000Y-121700000D03*
D29*
X113300000Y-81500000D03*
X118200000Y-81500000D03*
D37*
X114050000Y-81500000D03*
X117450000Y-81500000D03*
D29*
X118200000Y-84500000D03*
X113300000Y-84500000D03*
D37*
X117450000Y-84500000D03*
X114050000Y-84500000D03*
D29*
X132300000Y-76250000D03*
X137200000Y-76250000D03*
D37*
X133050000Y-76250000D03*
X136450000Y-76250000D03*
D29*
X129300000Y-85750000D03*
X134200000Y-85750000D03*
D37*
X130050000Y-85750000D03*
X133450000Y-85750000D03*
D29*
X124950000Y-129050000D03*
X120050000Y-129050000D03*
D37*
X124200000Y-129050000D03*
X120800000Y-129050000D03*
D29*
X124950000Y-125050000D03*
X120050000Y-125050000D03*
D37*
X124200000Y-125050000D03*
X120800000Y-125050000D03*
D29*
X124950000Y-121300000D03*
X120050000Y-121300000D03*
D37*
X124200000Y-121300000D03*
X120800000Y-121300000D03*
D29*
X124950000Y-117300000D03*
X120050000Y-117300000D03*
D37*
X124200000Y-117300000D03*
X120800000Y-117300000D03*
D29*
X76950000Y-66000000D03*
X72050000Y-66000000D03*
D37*
X76200000Y-66000000D03*
X72800000Y-66000000D03*
D29*
X76950000Y-62000000D03*
X72050000Y-62000000D03*
D37*
X76200000Y-62000000D03*
X72800000Y-62000000D03*
D29*
X88800000Y-134000000D03*
X93700000Y-134000000D03*
D37*
X89550000Y-134000000D03*
X92950000Y-134000000D03*
D29*
X88800000Y-138000000D03*
X93700000Y-138000000D03*
D37*
X89550000Y-138000000D03*
X92950000Y-138000000D03*
D26*
X105750000Y-65300000D03*
X105750000Y-70200000D03*
D38*
X105750000Y-66050000D03*
X105750000Y-69450000D03*
D29*
X61050000Y-119500000D03*
X65950000Y-119500000D03*
D37*
X61800000Y-119500000D03*
X65200000Y-119500000D03*
D26*
X68750000Y-122450000D03*
X68750000Y-117550000D03*
D38*
X68750000Y-121700000D03*
X68750000Y-118300000D03*
M02*
