G04 #@! TF.FileFunction,Soldermask,Top*
%FSLAX46Y46*%
G04 Gerber Fmt 4.6, Leading zero omitted, Abs format (unit mm)*
G04 Created by KiCad (PCBNEW 4.0.6-e0-6349~53~ubuntu16.04.1) date Thu Aug 24 13:51:26 2017*
%MOMM*%
%LPD*%
G01*
G04 APERTURE LIST*
%ADD10C,0.100000*%
G04 APERTURE END LIST*
D10*
G36*
X65000000Y-142000000D02*
X65000000Y-143500000D01*
X56500000Y-143500000D01*
X56500000Y-135000000D01*
X58000000Y-135000000D01*
X65000000Y-142000000D01*
X65000000Y-142000000D01*
G37*
G36*
X143500000Y-143500000D02*
X135000000Y-143500000D01*
X135000000Y-142000000D01*
X142000000Y-135000000D01*
X143500000Y-135000000D01*
X143500000Y-143500000D01*
X143500000Y-143500000D01*
G37*
G36*
X102500000Y-137500000D02*
X97500000Y-137500000D01*
X97500000Y-132500000D01*
X102500000Y-132500000D01*
X102500000Y-137500000D01*
X102500000Y-137500000D01*
G37*
G36*
X135220572Y-132901396D02*
X135623992Y-132984206D01*
X136003642Y-133143796D01*
X136345070Y-133374092D01*
X136635259Y-133666314D01*
X136863164Y-134009341D01*
X137020100Y-134390094D01*
X137100006Y-134793653D01*
X137100006Y-134793659D01*
X137100090Y-134794084D01*
X137093522Y-135264473D01*
X137093427Y-135264890D01*
X137093427Y-135264902D01*
X137002283Y-135666070D01*
X136834776Y-136042297D01*
X136597382Y-136378826D01*
X136299148Y-136662830D01*
X135951423Y-136883503D01*
X135567463Y-137032432D01*
X135161891Y-137103945D01*
X134750150Y-137095319D01*
X134347926Y-137006885D01*
X133970534Y-136842006D01*
X133632362Y-136606972D01*
X133346278Y-136310722D01*
X133123187Y-135964553D01*
X132971580Y-135581638D01*
X132897238Y-135176576D01*
X132902987Y-134764780D01*
X132988612Y-134361951D01*
X133150849Y-133983422D01*
X133383521Y-133643614D01*
X133677764Y-133355469D01*
X134022371Y-133129965D01*
X134404213Y-132975691D01*
X134808753Y-132898521D01*
X135220572Y-132901396D01*
X135220572Y-132901396D01*
G37*
G36*
X65220572Y-132901396D02*
X65623992Y-132984206D01*
X66003642Y-133143796D01*
X66345070Y-133374092D01*
X66635259Y-133666314D01*
X66863164Y-134009341D01*
X67020100Y-134390094D01*
X67100006Y-134793653D01*
X67100006Y-134793659D01*
X67100090Y-134794084D01*
X67093522Y-135264473D01*
X67093427Y-135264890D01*
X67093427Y-135264902D01*
X67002283Y-135666070D01*
X66834776Y-136042297D01*
X66597382Y-136378826D01*
X66299148Y-136662830D01*
X65951423Y-136883503D01*
X65567463Y-137032432D01*
X65161891Y-137103945D01*
X64750150Y-137095319D01*
X64347926Y-137006885D01*
X63970534Y-136842006D01*
X63632362Y-136606972D01*
X63346278Y-136310722D01*
X63123187Y-135964553D01*
X62971580Y-135581638D01*
X62897238Y-135176576D01*
X62902987Y-134764780D01*
X62988612Y-134361951D01*
X63150849Y-133983422D01*
X63383521Y-133643614D01*
X63677764Y-133355469D01*
X64022371Y-133129965D01*
X64404213Y-132975691D01*
X64808753Y-132898521D01*
X65220572Y-132901396D01*
X65220572Y-132901396D01*
G37*
G36*
X88805079Y-114007469D02*
X90484705Y-116477507D01*
X90496542Y-116490514D01*
X90511534Y-116499709D01*
X90526884Y-116504136D01*
X93743808Y-116999047D01*
X93743810Y-116999048D01*
X93750000Y-117000000D01*
X95150000Y-119100000D01*
X94400000Y-122000000D01*
X94393900Y-122000775D01*
X94393899Y-122000775D01*
X91256214Y-122399211D01*
X91250000Y-122400000D01*
X85200000Y-119100000D01*
X85195709Y-119091597D01*
X85195708Y-119091596D01*
X84201098Y-117143817D01*
X84000000Y-116750000D01*
X84966265Y-114705978D01*
X85297322Y-114005664D01*
X85297323Y-114005662D01*
X85300000Y-114000000D01*
X88800000Y-114000000D01*
X88805079Y-114007469D01*
X88805079Y-114007469D01*
G37*
G36*
X122501857Y-94403095D02*
X122501860Y-94403099D01*
X123995629Y-96892714D01*
X123995630Y-96892716D01*
X124000000Y-96900000D01*
X124000000Y-103100000D01*
X123995529Y-103107345D01*
X123995529Y-103107346D01*
X122634393Y-105343497D01*
X122600000Y-105400000D01*
X122596214Y-105399934D01*
X122596210Y-105399934D01*
X119756269Y-105350110D01*
X119750000Y-105350000D01*
X119567441Y-105103942D01*
X118603731Y-103805029D01*
X118603731Y-103805028D01*
X118600000Y-103800000D01*
X118600000Y-95500000D01*
X119700000Y-94400000D01*
X122500000Y-94400000D01*
X122501857Y-94403095D01*
X122501857Y-94403095D01*
G37*
G36*
X94700000Y-79300000D02*
X94700000Y-81200000D01*
X92700000Y-83200000D01*
X92696524Y-83202028D01*
X92696521Y-83202030D01*
X87907170Y-85995818D01*
X87907168Y-85995818D01*
X87900000Y-86000000D01*
X85200000Y-86000000D01*
X83900000Y-83300000D01*
X84485393Y-82212841D01*
X85295642Y-80708093D01*
X85300000Y-80700000D01*
X87805866Y-79354257D01*
X90693788Y-77803336D01*
X90700000Y-77800000D01*
X92079062Y-77740041D01*
X92993741Y-77700272D01*
X93000000Y-77700000D01*
X94700000Y-79300000D01*
X94700000Y-79300000D01*
G37*
G36*
X102500000Y-67500000D02*
X97500000Y-67500000D01*
X97500000Y-62500000D01*
X102500000Y-62500000D01*
X102500000Y-67500000D01*
X102500000Y-67500000D01*
G37*
G36*
X65220572Y-62901396D02*
X65623992Y-62984206D01*
X66003642Y-63143796D01*
X66345070Y-63374092D01*
X66635259Y-63666314D01*
X66863164Y-64009341D01*
X67020100Y-64390094D01*
X67100006Y-64793653D01*
X67100006Y-64793659D01*
X67100090Y-64794084D01*
X67093522Y-65264473D01*
X67093427Y-65264890D01*
X67093427Y-65264902D01*
X67002283Y-65666070D01*
X66834776Y-66042297D01*
X66597382Y-66378826D01*
X66299148Y-66662830D01*
X65951423Y-66883503D01*
X65567463Y-67032432D01*
X65161891Y-67103945D01*
X64750150Y-67095319D01*
X64347926Y-67006885D01*
X63970534Y-66842006D01*
X63632362Y-66606972D01*
X63346278Y-66310722D01*
X63123187Y-65964553D01*
X62971580Y-65581638D01*
X62897238Y-65176576D01*
X62902987Y-64764780D01*
X62988612Y-64361951D01*
X63150849Y-63983422D01*
X63383521Y-63643614D01*
X63677764Y-63355469D01*
X64022371Y-63129965D01*
X64404213Y-62975691D01*
X64808753Y-62898521D01*
X65220572Y-62901396D01*
X65220572Y-62901396D01*
G37*
G36*
X135220572Y-62901396D02*
X135623992Y-62984206D01*
X136003642Y-63143796D01*
X136345070Y-63374092D01*
X136635259Y-63666314D01*
X136863164Y-64009341D01*
X137020100Y-64390094D01*
X137100006Y-64793653D01*
X137100006Y-64793659D01*
X137100090Y-64794084D01*
X137093522Y-65264473D01*
X137093427Y-65264890D01*
X137093427Y-65264902D01*
X137002283Y-65666070D01*
X136834776Y-66042297D01*
X136597382Y-66378826D01*
X136299148Y-66662830D01*
X135951423Y-66883503D01*
X135567463Y-67032432D01*
X135161891Y-67103945D01*
X134750150Y-67095319D01*
X134347926Y-67006885D01*
X133970534Y-66842006D01*
X133632362Y-66606972D01*
X133346278Y-66310722D01*
X133123187Y-65964553D01*
X132971580Y-65581638D01*
X132897238Y-65176576D01*
X132902987Y-64764780D01*
X132988612Y-64361951D01*
X133150849Y-63983422D01*
X133383521Y-63643614D01*
X133677764Y-63355469D01*
X134022371Y-63129965D01*
X134404213Y-62975691D01*
X134808753Y-62898521D01*
X135220572Y-62901396D01*
X135220572Y-62901396D01*
G37*
G36*
X143500000Y-65000000D02*
X142000000Y-65000000D01*
X135000000Y-58000000D01*
X135000000Y-56500000D01*
X143500000Y-56500000D01*
X143500000Y-65000000D01*
X143500000Y-65000000D01*
G37*
G36*
X65000000Y-58000000D02*
X58000000Y-65000000D01*
X56500000Y-65000000D01*
X56500000Y-56500000D01*
X65000000Y-56500000D01*
X65000000Y-58000000D01*
X65000000Y-58000000D01*
G37*
M02*
