M48
METRIC,TZ
T1C0.300
T2C0.500
T3C3.200
%
G90
G05
T1
X61250Y-100000
X61420Y-84725
X61420Y-89805
X61420Y-91075
X61420Y-103845
X61420Y-114005
X63600Y-117600
X64500Y-119000
X65500Y-126000
X65620Y-84725
X65620Y-85995
X65620Y-89805
X65620Y-91075
X65620Y-103845
X65620Y-106385
X67000Y-95800
X67600Y-95150
X67750Y-114250
X68000Y-92500
X68250Y-82250
X68350Y-78750
X68750Y-98500
X68750Y-111000
X69250Y-79500
X69500Y-108750
X70000Y-124250
X70500Y-61250
X70500Y-62000
X70500Y-62750
X70500Y-65250
X70500Y-66000
X70500Y-66750
X70500Y-106250
X70500Y-108750
X70750Y-98250
X70750Y-102250
X70750Y-117250
X70750Y-131500
X70750Y-95750
X71250Y-61250
X71250Y-62000
X71250Y-62750
X71250Y-65250
X71250Y-66000
X71250Y-66750
X71500Y-69500
X72750Y-61250
X72750Y-62000
X72750Y-62750
X72750Y-65250
X72750Y-66000
X72750Y-66750
X72750Y-98250
X72750Y-102250
X73250Y-109750
X73500Y-61250
X73500Y-62000
X73500Y-62750
X73500Y-65250
X73500Y-66000
X73500Y-66750
X73750Y-111750
X74350Y-115250
X74701Y-102201
X74750Y-98250
X75500Y-61250
X75500Y-62000
X75500Y-62750
X75500Y-65250
X75500Y-66000
X75500Y-66750
X75500Y-112000
X75750Y-136000
X76250Y-61250
X76250Y-62000
X76250Y-62750
X76250Y-65250
X76250Y-66000
X76250Y-66750
X76500Y-95750
X77701Y-101701
X77750Y-61250
X77750Y-62000
X77750Y-62750
X77750Y-65250
X77750Y-66000
X77750Y-66750
X78000Y-115300
X78500Y-89500
X79500Y-111500
X79750Y-92250
X80250Y-133000
X80250Y-139000
X80500Y-101750
X80500Y-115000
X80750Y-66950
X81250Y-104500
X81250Y-108750
X81250Y-133000
X81250Y-134000
X81250Y-137000
X81250Y-138000
X81400Y-61000
X81400Y-62000
X81400Y-63000
X81400Y-65000
X81400Y-66000
X81500Y-113750
X82000Y-126500
X82000Y-130250
X82000Y-133000
X82000Y-134000
X82000Y-137000
X82000Y-138000
X82095Y-73405
X82200Y-61000
X82200Y-62000
X82200Y-65000
X82200Y-66000
X82200Y-63000
X82500Y-90250
X82500Y-88250
X83500Y-89250
X83500Y-133000
X83500Y-134000
X83500Y-135000
X83500Y-137000
X83500Y-138000
X83500Y-139000
X83750Y-63000
X83750Y-67000
X83905Y-126595
X84000Y-69500
X84000Y-73500
X84250Y-134000
X84250Y-133000
X84250Y-135000
X84250Y-137000
X84250Y-138000
X84250Y-139000
X84500Y-63000
X84500Y-67000
X85500Y-61000
X85500Y-67000
X87250Y-130750
X87550Y-68850
X88000Y-133250
X88000Y-134000
X88000Y-134800
X88000Y-137250
X88000Y-138000
X88000Y-138750
X89500Y-133250
X89500Y-134000
X89500Y-134750
X89500Y-137250
X89500Y-138000
X89500Y-138750
X90250Y-133250
X90250Y-134000
X90250Y-134750
X90250Y-137250
X90250Y-138000
X90250Y-138750
X92250Y-133250
X92250Y-134000
X92250Y-134750
X92250Y-137250
X92250Y-138000
X92250Y-138750
X93000Y-133250
X93000Y-134000
X93000Y-134750
X93000Y-137250
X93000Y-138000
X93000Y-138750
X94500Y-133250
X94500Y-134000
X94500Y-134750
X94500Y-137250
X94500Y-138000
X94500Y-138750
X95250Y-133250
X95250Y-134000
X95250Y-134750
X95250Y-137250
X95250Y-138000
X95250Y-138750
X96000Y-83750
X96004Y-86754
X96500Y-78750
X99500Y-115750
X100250Y-73500
X103000Y-83500
X104250Y-79750
X105250Y-71250
X106000Y-80000
X107000Y-62750
X107250Y-68000
X107500Y-80250
X108500Y-74850
X109500Y-80000
X109750Y-83500
X112250Y-83000
X112750Y-78000
X113000Y-72000
X113500Y-79000
X113500Y-129000
X113786Y-77000
X114250Y-76000
X114250Y-118000
X114500Y-118750
X114600Y-71900
X115000Y-70000
X115750Y-62750
X115750Y-79250
X115750Y-86000
X116000Y-71750
X116500Y-79750
X116750Y-68250
X116750Y-72000
X117000Y-83000
X117000Y-86000
X118500Y-65500
X118500Y-116500
X118500Y-117300
X118500Y-118050
X118500Y-120550
X118500Y-121300
X118500Y-122050
X118500Y-124300
X118500Y-125050
X118500Y-125800
X118500Y-128300
X118500Y-129050
X118500Y-129800
X119250Y-116550
X119250Y-117300
X119250Y-118050
X119250Y-120550
X119250Y-121300
X119250Y-124300
X119250Y-125050
X119250Y-125800
X119250Y-128300
X119250Y-129050
X119250Y-122050
X119250Y-129800
X119400Y-82600
X119500Y-80300
X120750Y-116550
X120750Y-117300
X120750Y-118050
X120750Y-120550
X120750Y-121300
X120750Y-122050
X120750Y-124300
X120750Y-125050
X120750Y-125800
X120750Y-128300
X120750Y-129050
X120750Y-129800
X121250Y-106250
X121500Y-116550
X121500Y-117300
X121500Y-118050
X121500Y-120550
X121500Y-121300
X121500Y-122050
X121500Y-124300
X121500Y-125050
X121500Y-125800
X121500Y-128300
X121500Y-129050
X121500Y-129800
X122000Y-62500
X122250Y-64750
X122250Y-87750
X122300Y-81250
X122500Y-84500
X122750Y-76940
X123000Y-113750
X123500Y-116550
X123500Y-117300
X123500Y-118050
X123500Y-120550
X123500Y-121300
X123500Y-122050
X123500Y-124300
X123500Y-125050
X123500Y-125800
X123500Y-128300
X123500Y-129050
X123500Y-129800
X124250Y-83750
X124250Y-116550
X124250Y-117300
X124250Y-118050
X124250Y-120550
X124250Y-121300
X124250Y-122050
X124250Y-124300
X124250Y-125050
X124250Y-125800
X124250Y-128300
X124250Y-129050
X124250Y-129800
X125750Y-116550
X125750Y-117300
X125750Y-118050
X125750Y-120550
X125750Y-121300
X125750Y-122050
X125750Y-124300
X125750Y-125050
X125750Y-125800
X125750Y-128300
X125750Y-129050
X125750Y-129800
X128750Y-116800
X128750Y-124550
X129250Y-71500
X129250Y-74500
X129250Y-77750
X129500Y-116250
X129500Y-117250
X129500Y-120250
X129500Y-121250
X129500Y-122250
X129500Y-124000
X129500Y-125000
X129500Y-126000
X129500Y-128000
X129500Y-129000
X129500Y-130000
X129500Y-118250
X130000Y-81000
X130000Y-83000
X130000Y-83750
X130250Y-103000
X130250Y-116250
X130250Y-117250
X130250Y-118250
X130250Y-120250
X130250Y-121250
X130250Y-122250
X130250Y-124000
X130250Y-125000
X130250Y-126000
X130250Y-128000
X130250Y-129000
X130250Y-130000
X131750Y-118300
X131750Y-122300
X131750Y-126050
X131750Y-130050
X132479Y-130031
X132500Y-118300
X132500Y-122300
X132500Y-126050
X132500Y-131000
X133500Y-116300
X133500Y-122300
X134000Y-83000
X134600Y-130000
X135250Y-79000
X135300Y-71800
X137000Y-125250
X137250Y-81000
X137750Y-128000
X138250Y-103000
X139500Y-128750
T2
X67250Y-84750
X80750Y-91250
X80750Y-100500
X82500Y-93500
X82750Y-104250
X83250Y-98250
X83250Y-100000
X83750Y-92000
X85750Y-90500
X102000Y-122250
X102250Y-115500
X107000Y-115500
X115750Y-88000
X116000Y-89250
X116750Y-89750
X117250Y-88750
T3
X65000Y-65000
X65000Y-135000
X86858Y-83371
X87062Y-116562
X92054Y-80371
X92258Y-119562
X100000Y-65000
X100000Y-135000
X121000Y-97000
X121000Y-103000
X135000Y-65000
X135000Y-135000
T0
M30
