M48
;DRILL file {KiCad 4.0.6-e0-6349~53~ubuntu16.04.1} date Thu Aug 24 13:51:27 2017
;FORMAT={3:3/ absolute / metric / suppress leading zeros}
FMAT,2
METRIC,TZ
T1C0.700
T2C0.800
%
G90
G05
M71
T1
X62885Y-83455
X62885Y-84725
X62885Y-85995
X62885Y-87265
X62885Y-88535
X62885Y-89805
X62885Y-91075
X62885Y-92345
X62885Y-93615
X62885Y-94885
X62885Y-96155
X62885Y-97425
X62885Y-102575
X62885Y-103845
X62885Y-105115
X62885Y-106385
X62885Y-107655
X62885Y-108925
X62885Y-110195
X62885Y-111465
X62885Y-112735
X62885Y-114005
X62885Y-115275
X62885Y-116545
X64155Y-83455
X64155Y-84725
X64155Y-85995
X64155Y-87265
X64155Y-88535
X64155Y-89805
X64155Y-91075
X64155Y-92345
X64155Y-93615
X64155Y-94885
X64155Y-96155
X64155Y-97425
X64155Y-102575
X64155Y-103845
X64155Y-105115
X64155Y-106385
X64155Y-107655
X64155Y-108925
X64155Y-110195
X64155Y-111465
X64155Y-112735
X64155Y-114005
X64155Y-115275
X64155Y-116545
T2
X63520Y-84090
X63520Y-96790
X63520Y-103210
X63520Y-115910
X99365Y-79000
X100635Y-79000
T0
M30
