G04 #@! TF.FileFunction,Legend,Bot*
%FSLAX46Y46*%
G04 Gerber Fmt 4.6, Leading zero omitted, Abs format (unit mm)*
G04 Created by KiCad (PCBNEW 4.0.7+dfsg1-1~bpo9+1) date Mon Jul 16 17:38:54 2018*
%MOMM*%
%LPD*%
G01*
G04 APERTURE LIST*
%ADD10C,0.100000*%
%ADD11C,0.200000*%
%ADD12C,0.150000*%
%ADD13R,1.000000X1.880000*%
%ADD14R,1.800000X1.700000*%
%ADD15R,1.900000X1.700000*%
%ADD16R,1.490000X1.500000*%
%ADD17R,1.490000X1.600000*%
%ADD18R,1.700000X1.900000*%
%ADD19R,1.927200X1.927200*%
%ADD20O,1.927200X1.927200*%
%ADD21C,11.200000*%
%ADD22C,1.200000*%
%ADD23C,2.232000*%
%ADD24C,1.724000*%
G04 APERTURE END LIST*
D10*
D11*
X70000000Y-74479350D02*
X70000000Y-91729350D01*
X85750000Y-91729350D02*
X85750000Y-74479350D01*
X85750000Y-74479350D02*
X70000000Y-74479350D01*
X70000000Y-91729350D02*
X85750000Y-91729350D01*
D12*
X78214285Y-93086493D02*
X78261904Y-93134112D01*
X78404761Y-93181731D01*
X78499999Y-93181731D01*
X78642857Y-93134112D01*
X78738095Y-93038874D01*
X78785714Y-92943636D01*
X78833333Y-92753160D01*
X78833333Y-92610302D01*
X78785714Y-92419826D01*
X78738095Y-92324588D01*
X78642857Y-92229350D01*
X78499999Y-92181731D01*
X78404761Y-92181731D01*
X78261904Y-92229350D01*
X78214285Y-92276969D01*
X77595238Y-92181731D02*
X77404761Y-92181731D01*
X77309523Y-92229350D01*
X77214285Y-92324588D01*
X77166666Y-92515064D01*
X77166666Y-92848398D01*
X77214285Y-93038874D01*
X77309523Y-93134112D01*
X77404761Y-93181731D01*
X77595238Y-93181731D01*
X77690476Y-93134112D01*
X77785714Y-93038874D01*
X77833333Y-92848398D01*
X77833333Y-92515064D01*
X77785714Y-92324588D01*
X77690476Y-92229350D01*
X77595238Y-92181731D01*
X76738095Y-93181731D02*
X76738095Y-92181731D01*
X76166666Y-93181731D01*
X76166666Y-92181731D01*
X75166666Y-93181731D02*
X75738095Y-93181731D01*
X75452381Y-93181731D02*
X75452381Y-92181731D01*
X75547619Y-92324588D01*
X75642857Y-92419826D01*
X75738095Y-92467445D01*
%LPC*%
D13*
X73100000Y-75729350D03*
X74200000Y-75729350D03*
X75300000Y-75729350D03*
X76400000Y-75729350D03*
X77500000Y-75729350D03*
X78600000Y-75729350D03*
X79700000Y-75729350D03*
X80800000Y-75729350D03*
D14*
X71700000Y-75639350D03*
D15*
X84350000Y-75639350D03*
D16*
X71055000Y-77289350D03*
D17*
X71055000Y-84689350D03*
D18*
X71160000Y-90489350D03*
X84660000Y-90489350D03*
D19*
X78040000Y-66960000D03*
D20*
X78040000Y-69500000D03*
X75500000Y-66960000D03*
X75500000Y-69500000D03*
X72960000Y-66960000D03*
X72960000Y-69500000D03*
D21*
X65000000Y-125000000D03*
X65000000Y-65000000D03*
X135000000Y-65000000D03*
X135000000Y-125000000D03*
D22*
X64000000Y-116545000D03*
X62730000Y-116545000D03*
X64000000Y-115275000D03*
X62730000Y-115275000D03*
X64000000Y-114005000D03*
X62730000Y-114005000D03*
X64000000Y-112735000D03*
X62730000Y-112735000D03*
X64000000Y-111465000D03*
X62730000Y-111465000D03*
X64000000Y-110195000D03*
X62730000Y-110195000D03*
X64000000Y-108925000D03*
X62730000Y-108925000D03*
X64000000Y-107655000D03*
X62730000Y-107655000D03*
X64000000Y-106385000D03*
X62730000Y-106385000D03*
X64000000Y-105115000D03*
X62730000Y-105115000D03*
X64000000Y-103845000D03*
X62730000Y-103845000D03*
X64000000Y-102575000D03*
X62730000Y-102575000D03*
X65270000Y-116545000D03*
X65270000Y-115275000D03*
X65270000Y-114005000D03*
X65270000Y-112735000D03*
X65270000Y-111465000D03*
X65270000Y-110195000D03*
X65270000Y-108925000D03*
X65270000Y-107655000D03*
X65270000Y-106385000D03*
X65270000Y-105115000D03*
X65270000Y-102575000D03*
X65270000Y-103845000D03*
X83455000Y-64000000D03*
X83455000Y-62730000D03*
X84725000Y-64000000D03*
X84725000Y-62730000D03*
X85995000Y-64000000D03*
X85995000Y-62730000D03*
X87265000Y-64000000D03*
X87265000Y-62730000D03*
X88535000Y-64000000D03*
X88535000Y-62730000D03*
X89805000Y-64000000D03*
X89805000Y-62730000D03*
X91075000Y-64000000D03*
X91075000Y-62730000D03*
X92345000Y-64000000D03*
X92345000Y-62730000D03*
X93615000Y-64000000D03*
X93615000Y-62730000D03*
X94885000Y-64000000D03*
X94885000Y-62730000D03*
X96155000Y-64000000D03*
X96155000Y-62730000D03*
X97425000Y-64000000D03*
X97425000Y-62730000D03*
X83455000Y-65270000D03*
X84725000Y-65270000D03*
X85995000Y-65270000D03*
X87265000Y-65270000D03*
X88535000Y-65270000D03*
X89805000Y-65270000D03*
X91075000Y-65270000D03*
X92345000Y-65270000D03*
X93615000Y-65270000D03*
X94885000Y-65270000D03*
X97425000Y-65270000D03*
X96155000Y-65270000D03*
X136000000Y-83455000D03*
X137270000Y-83455000D03*
X136000000Y-84725000D03*
X137270000Y-84725000D03*
X136000000Y-85995000D03*
X137270000Y-85995000D03*
X136000000Y-87265000D03*
X137270000Y-87265000D03*
X136000000Y-88535000D03*
X137270000Y-88535000D03*
X136000000Y-89805000D03*
X137270000Y-89805000D03*
X136000000Y-91075000D03*
X137270000Y-91075000D03*
X136000000Y-92345000D03*
X137270000Y-92345000D03*
X136000000Y-93615000D03*
X137270000Y-93615000D03*
X136000000Y-94885000D03*
X137270000Y-94885000D03*
X136000000Y-96155000D03*
X137270000Y-96155000D03*
X136000000Y-97425000D03*
X137270000Y-97425000D03*
X134730000Y-83455000D03*
X134730000Y-84725000D03*
X134730000Y-85995000D03*
X134730000Y-87265000D03*
X134730000Y-88535000D03*
X134730000Y-89805000D03*
X134730000Y-91075000D03*
X134730000Y-92345000D03*
X134730000Y-93615000D03*
X134730000Y-94885000D03*
X134730000Y-97425000D03*
X134730000Y-96155000D03*
X64000000Y-97425000D03*
X62730000Y-97425000D03*
X64000000Y-96155000D03*
X62730000Y-96155000D03*
X64000000Y-94885000D03*
X62730000Y-94885000D03*
X64000000Y-93615000D03*
X62730000Y-93615000D03*
X64000000Y-92345000D03*
X62730000Y-92345000D03*
X64000000Y-91075000D03*
X62730000Y-91075000D03*
X64000000Y-89805000D03*
X62730000Y-89805000D03*
X64000000Y-88535000D03*
X62730000Y-88535000D03*
X64000000Y-87265000D03*
X62730000Y-87265000D03*
X64000000Y-85995000D03*
X62730000Y-85995000D03*
X64000000Y-84725000D03*
X62730000Y-84725000D03*
X64000000Y-83455000D03*
X62730000Y-83455000D03*
X65270000Y-97425000D03*
X65270000Y-96155000D03*
X65270000Y-94885000D03*
X65270000Y-93615000D03*
X65270000Y-92345000D03*
X65270000Y-91075000D03*
X65270000Y-89805000D03*
X65270000Y-88535000D03*
X65270000Y-87265000D03*
X65270000Y-85995000D03*
X65270000Y-83455000D03*
X65270000Y-84725000D03*
X102575000Y-64000000D03*
X102575000Y-62730000D03*
X103845000Y-64000000D03*
X103845000Y-62730000D03*
X105115000Y-64000000D03*
X105115000Y-62730000D03*
X106385000Y-64000000D03*
X106385000Y-62730000D03*
X107655000Y-64000000D03*
X107655000Y-62730000D03*
X108925000Y-64000000D03*
X108925000Y-62730000D03*
X110195000Y-64000000D03*
X110195000Y-62730000D03*
X111465000Y-64000000D03*
X111465000Y-62730000D03*
X112735000Y-64000000D03*
X112735000Y-62730000D03*
X114005000Y-64000000D03*
X114005000Y-62730000D03*
X115275000Y-64000000D03*
X115275000Y-62730000D03*
X116545000Y-64000000D03*
X116545000Y-62730000D03*
X102575000Y-65270000D03*
X103845000Y-65270000D03*
X105115000Y-65270000D03*
X106385000Y-65270000D03*
X107655000Y-65270000D03*
X108925000Y-65270000D03*
X110195000Y-65270000D03*
X111465000Y-65270000D03*
X112735000Y-65270000D03*
X114005000Y-65270000D03*
X116545000Y-65270000D03*
X115275000Y-65270000D03*
X136000000Y-102575000D03*
X137270000Y-102575000D03*
X136000000Y-103845000D03*
X137270000Y-103845000D03*
X136000000Y-105115000D03*
X137270000Y-105115000D03*
X136000000Y-106385000D03*
X137270000Y-106385000D03*
X136000000Y-107655000D03*
X137270000Y-107655000D03*
X136000000Y-108925000D03*
X137270000Y-108925000D03*
X136000000Y-110195000D03*
X137270000Y-110195000D03*
X136000000Y-111465000D03*
X137270000Y-111465000D03*
X136000000Y-112735000D03*
X137270000Y-112735000D03*
X136000000Y-114005000D03*
X137270000Y-114005000D03*
X136000000Y-115275000D03*
X137270000Y-115275000D03*
X136000000Y-116545000D03*
X137270000Y-116545000D03*
X134730000Y-102575000D03*
X134730000Y-103845000D03*
X134730000Y-105115000D03*
X134730000Y-106385000D03*
X134730000Y-107655000D03*
X134730000Y-108925000D03*
X134730000Y-110195000D03*
X134730000Y-111465000D03*
X134730000Y-112735000D03*
X134730000Y-114005000D03*
X134730000Y-116545000D03*
X134730000Y-115275000D03*
D23*
X125660000Y-117090000D03*
X125660000Y-127250000D03*
X125660000Y-137410000D03*
X105340000Y-117090000D03*
X105340000Y-124710000D03*
X105340000Y-129790000D03*
D24*
X85540000Y-116500000D03*
X83000000Y-116500000D03*
X80460000Y-116500000D03*
X115250000Y-84110000D03*
X115250000Y-86650000D03*
X115250000Y-89190000D03*
X115250000Y-94270000D03*
X115250000Y-96810000D03*
X115250000Y-99350000D03*
X115250000Y-101890000D03*
M02*
