G04 #@! TF.FileFunction,Legend,Top*
%FSLAX46Y46*%
G04 Gerber Fmt 4.6, Leading zero omitted, Abs format (unit mm)*
G04 Created by KiCad (PCBNEW 4.0.7+dfsg1-1~bpo9+1) date Mon Jul 16 17:58:40 2018*
%MOMM*%
%LPD*%
G01*
G04 APERTURE LIST*
%ADD10C,0.100000*%
%ADD11C,0.200000*%
%ADD12C,0.150000*%
%ADD13C,0.410000*%
%ADD14R,1.500000X0.900000*%
%ADD15R,0.657200X1.470000*%
%ADD16R,2.300580X5.800700*%
%ADD17R,0.900000X1.500000*%
%ADD18R,1.450000X1.200000*%
%ADD19R,1.200000X1.450000*%
%ADD20R,0.708000X1.343000*%
%ADD21R,1.927200X1.927200*%
%ADD22O,1.927200X1.927200*%
%ADD23R,1.200000X2.700000*%
%ADD24R,2.700000X1.200000*%
%ADD25R,0.600000X1.200000*%
%ADD26R,3.857600X2.232000*%
%ADD27R,1.216000X2.232000*%
%ADD28R,1.260000X0.850000*%
%ADD29R,0.850000X1.260000*%
%ADD30R,0.800000X1.750000*%
%ADD31C,11.200000*%
%ADD32R,1.000100X1.000100*%
%ADD33R,1.700000X0.800000*%
%ADD34R,2.699360X2.000860*%
%ADD35R,2.000860X2.699360*%
%ADD36R,2.500000X5.800000*%
%ADD37C,1.200000*%
%ADD38R,0.960000X2.000000*%
%ADD39C,2.232000*%
%ADD40R,1.900000X1.100000*%
%ADD41R,1.100000X1.900000*%
%ADD42R,0.750000X1.700000*%
%ADD43R,1.700000X0.750000*%
%ADD44R,0.962000X2.150000*%
%ADD45C,1.724000*%
%ADD46R,1.000000X2.400000*%
%ADD47R,2.400000X1.000000*%
G04 APERTURE END LIST*
D10*
D11*
X104000000Y-77000000D02*
G75*
G03X104000000Y-77000000I-250000J0D01*
G01*
X120750000Y-110500000D02*
G75*
G03X120750000Y-110500000I-250000J0D01*
G01*
D12*
X63988096Y-118000000D02*
X63892858Y-117952381D01*
X63750001Y-117952381D01*
X63607143Y-118000000D01*
X63511905Y-118095238D01*
X63464286Y-118190476D01*
X63416667Y-118380952D01*
X63416667Y-118523810D01*
X63464286Y-118714286D01*
X63511905Y-118809524D01*
X63607143Y-118904762D01*
X63750001Y-118952381D01*
X63845239Y-118952381D01*
X63988096Y-118904762D01*
X64035715Y-118857143D01*
X64035715Y-118523810D01*
X63845239Y-118523810D01*
X64464286Y-118952381D02*
X64464286Y-117952381D01*
X65035715Y-118952381D01*
X65035715Y-117952381D01*
X65511905Y-118952381D02*
X65511905Y-117952381D01*
X65750000Y-117952381D01*
X65892858Y-118000000D01*
X65988096Y-118095238D01*
X66035715Y-118190476D01*
X66083334Y-118380952D01*
X66083334Y-118523810D01*
X66035715Y-118714286D01*
X65988096Y-118809524D01*
X65892858Y-118904762D01*
X65750000Y-118952381D01*
X65511905Y-118952381D01*
D11*
X75750000Y-118000000D02*
G75*
G03X75750000Y-118000000I-250000J0D01*
G01*
D12*
X61738095Y-82071429D02*
X62500000Y-82071429D01*
X62119048Y-82452381D02*
X62119048Y-81690476D01*
X62928571Y-81547619D02*
X62976190Y-81500000D01*
X63071428Y-81452381D01*
X63309524Y-81452381D01*
X63404762Y-81500000D01*
X63452381Y-81547619D01*
X63500000Y-81642857D01*
X63500000Y-81738095D01*
X63452381Y-81880952D01*
X62880952Y-82452381D01*
X63500000Y-82452381D01*
X64357143Y-81785714D02*
X64357143Y-82452381D01*
X64119047Y-81404762D02*
X63880952Y-82119048D01*
X64500000Y-82119048D01*
X64738095Y-81452381D02*
X65071428Y-82452381D01*
X65404762Y-81452381D01*
X134238095Y-118321429D02*
X135000000Y-118321429D01*
X134619048Y-118702381D02*
X134619048Y-117940476D01*
X135428571Y-117797619D02*
X135476190Y-117750000D01*
X135571428Y-117702381D01*
X135809524Y-117702381D01*
X135904762Y-117750000D01*
X135952381Y-117797619D01*
X136000000Y-117892857D01*
X136000000Y-117988095D01*
X135952381Y-118130952D01*
X135380952Y-118702381D01*
X136000000Y-118702381D01*
X136857143Y-118035714D02*
X136857143Y-118702381D01*
X136619047Y-117654762D02*
X136380952Y-118369048D01*
X137000000Y-118369048D01*
X137238095Y-117702381D02*
X137571428Y-118702381D01*
X137904762Y-117702381D01*
X132750000Y-84761904D02*
X132702381Y-84857142D01*
X132702381Y-84999999D01*
X132750000Y-85142857D01*
X132845238Y-85238095D01*
X132940476Y-85285714D01*
X133130952Y-85333333D01*
X133273810Y-85333333D01*
X133464286Y-85285714D01*
X133559524Y-85238095D01*
X133654762Y-85142857D01*
X133702381Y-84999999D01*
X133702381Y-84904761D01*
X133654762Y-84761904D01*
X133607143Y-84714285D01*
X133273810Y-84714285D01*
X133273810Y-84904761D01*
X133702381Y-84285714D02*
X132702381Y-84285714D01*
X133702381Y-83714285D01*
X132702381Y-83714285D01*
X133702381Y-83238095D02*
X132702381Y-83238095D01*
X132702381Y-83000000D01*
X132750000Y-82857142D01*
X132845238Y-82761904D01*
X132940476Y-82714285D01*
X133130952Y-82666666D01*
X133273810Y-82666666D01*
X133464286Y-82714285D01*
X133559524Y-82761904D01*
X133654762Y-82857142D01*
X133702381Y-83000000D01*
X133702381Y-83238095D01*
X83238096Y-66250000D02*
X83142858Y-66202381D01*
X83000001Y-66202381D01*
X82857143Y-66250000D01*
X82761905Y-66345238D01*
X82714286Y-66440476D01*
X82666667Y-66630952D01*
X82666667Y-66773810D01*
X82714286Y-66964286D01*
X82761905Y-67059524D01*
X82857143Y-67154762D01*
X83000001Y-67202381D01*
X83095239Y-67202381D01*
X83238096Y-67154762D01*
X83285715Y-67107143D01*
X83285715Y-66773810D01*
X83095239Y-66773810D01*
X83714286Y-67202381D02*
X83714286Y-66202381D01*
X84285715Y-67202381D01*
X84285715Y-66202381D01*
X84761905Y-67202381D02*
X84761905Y-66202381D01*
X85000000Y-66202381D01*
X85142858Y-66250000D01*
X85238096Y-66345238D01*
X85285715Y-66440476D01*
X85333334Y-66630952D01*
X85333334Y-66773810D01*
X85285715Y-66964286D01*
X85238096Y-67059524D01*
X85142858Y-67154762D01*
X85000000Y-67202381D01*
X84761905Y-67202381D01*
X118071429Y-65761905D02*
X118071429Y-65000000D01*
X118452381Y-65380952D02*
X117690476Y-65380952D01*
X117547619Y-64571429D02*
X117500000Y-64523810D01*
X117452381Y-64428572D01*
X117452381Y-64190476D01*
X117500000Y-64095238D01*
X117547619Y-64047619D01*
X117642857Y-64000000D01*
X117738095Y-64000000D01*
X117880952Y-64047619D01*
X118452381Y-64619048D01*
X118452381Y-64000000D01*
X117785714Y-63142857D02*
X118452381Y-63142857D01*
X117404762Y-63380953D02*
X118119048Y-63619048D01*
X118119048Y-63000000D01*
X117452381Y-62761905D02*
X118452381Y-62428572D01*
X117452381Y-62095238D01*
D11*
X76853553Y-91353553D02*
G75*
G03X76853553Y-91353553I-353553J0D01*
G01*
D12*
X77125000Y-64100000D02*
X77125000Y-62900000D01*
X78875000Y-62900000D02*
X78875000Y-64100000D01*
X91303026Y-99396000D02*
G75*
G03X91303026Y-99396000I-898026J0D01*
G01*
X91929000Y-97745000D02*
X91929000Y-104857000D01*
X91929000Y-104857000D02*
X71101000Y-104857000D01*
X71101000Y-104857000D02*
X71101000Y-97745000D01*
X71101000Y-97745000D02*
X91929000Y-97745000D01*
X82500640Y-76400380D02*
X82500640Y-88099620D01*
X87499360Y-88099620D02*
X87499360Y-76400380D01*
X82500640Y-88099620D02*
X83349000Y-88099620D01*
X87499360Y-88099620D02*
X86651000Y-88099620D01*
X82500640Y-76400380D02*
X83349000Y-76400380D01*
X87499360Y-76400380D02*
X86651000Y-76400380D01*
X87650000Y-69875000D02*
X88850000Y-69875000D01*
X88850000Y-71625000D02*
X87650000Y-71625000D01*
X106650000Y-84750000D02*
X106650000Y-85750000D01*
X108350000Y-85750000D02*
X108350000Y-84750000D01*
X85750000Y-73850000D02*
X86750000Y-73850000D01*
X86750000Y-72150000D02*
X85750000Y-72150000D01*
X106400000Y-100500000D02*
X106400000Y-101500000D01*
X108100000Y-101500000D02*
X108100000Y-100500000D01*
X90750000Y-72150000D02*
X89750000Y-72150000D01*
X89750000Y-73850000D02*
X90750000Y-73850000D01*
X80150000Y-77000000D02*
X80150000Y-78000000D01*
X81850000Y-78000000D02*
X81850000Y-77000000D01*
X81850000Y-82000000D02*
X81850000Y-81000000D01*
X80150000Y-81000000D02*
X80150000Y-82000000D01*
X70750000Y-73850000D02*
X71750000Y-73850000D01*
X71750000Y-72150000D02*
X70750000Y-72150000D01*
X119805000Y-106639000D02*
X124885000Y-106639000D01*
X124885000Y-106639000D02*
X124885000Y-111211000D01*
X124885000Y-111211000D02*
X119805000Y-111211000D01*
X119805000Y-111211000D02*
X119805000Y-106639000D01*
X119805000Y-108163000D02*
X120313000Y-108163000D01*
X120313000Y-108163000D02*
X120313000Y-109433000D01*
X120313000Y-109433000D02*
X119805000Y-109433000D01*
X76770000Y-65690000D02*
X71690000Y-65690000D01*
X79590000Y-65410000D02*
X79590000Y-66960000D01*
X79310000Y-68230000D02*
X76770000Y-68230000D01*
X76770000Y-68230000D02*
X76770000Y-65690000D01*
X71690000Y-65690000D02*
X71690000Y-70770000D01*
X71690000Y-70770000D02*
X76770000Y-70770000D01*
X79590000Y-65410000D02*
X78040000Y-65410000D01*
X79310000Y-70770000D02*
X79310000Y-68230000D01*
X76770000Y-70770000D02*
X79310000Y-70770000D01*
X125500000Y-103725000D02*
X127500000Y-103725000D01*
X127500000Y-100775000D02*
X125500000Y-100775000D01*
X125500000Y-99725000D02*
X127500000Y-99725000D01*
X127500000Y-96775000D02*
X125500000Y-96775000D01*
X82975000Y-110750000D02*
X82975000Y-108750000D01*
X80025000Y-108750000D02*
X80025000Y-110750000D01*
X125500000Y-86225000D02*
X127500000Y-86225000D01*
X127500000Y-83275000D02*
X125500000Y-83275000D01*
X86975000Y-110750000D02*
X86975000Y-108750000D01*
X84025000Y-108750000D02*
X84025000Y-110750000D01*
X125500000Y-90225000D02*
X127500000Y-90225000D01*
X127500000Y-87275000D02*
X125500000Y-87275000D01*
X128000000Y-72975000D02*
X130000000Y-72975000D01*
X130000000Y-70025000D02*
X128000000Y-70025000D01*
X128000000Y-76975000D02*
X130000000Y-76975000D01*
X130000000Y-74025000D02*
X128000000Y-74025000D01*
X120197226Y-99725000D02*
X122197226Y-99725000D01*
X122197226Y-96775000D02*
X120197226Y-96775000D01*
X120197226Y-103714318D02*
X122197226Y-103714318D01*
X122197226Y-100764318D02*
X120197226Y-100764318D01*
X120250000Y-86225000D02*
X122250000Y-86225000D01*
X122250000Y-83275000D02*
X120250000Y-83275000D01*
X120250000Y-90225000D02*
X122250000Y-90225000D01*
X122250000Y-87275000D02*
X120250000Y-87275000D01*
X122750000Y-72975000D02*
X124750000Y-72975000D01*
X124750000Y-70025000D02*
X122750000Y-70025000D01*
X122750000Y-76975000D02*
X124750000Y-76975000D01*
X124750000Y-74025000D02*
X122750000Y-74025000D01*
X96500000Y-131725000D02*
X98500000Y-131725000D01*
X98500000Y-128775000D02*
X96500000Y-128775000D01*
X93750000Y-128775000D02*
X91750000Y-128775000D01*
X91750000Y-131725000D02*
X93750000Y-131725000D01*
X130525000Y-135000000D02*
X130525000Y-137000000D01*
X133475000Y-137000000D02*
X133475000Y-135000000D01*
X103025000Y-110000000D02*
X103025000Y-112000000D01*
X105975000Y-112000000D02*
X105975000Y-110000000D01*
X107025000Y-110000000D02*
X107025000Y-112000000D01*
X109975000Y-112000000D02*
X109975000Y-110000000D01*
X125400000Y-108250000D02*
X125400000Y-109250000D01*
X127100000Y-109250000D02*
X127100000Y-108250000D01*
X72250000Y-114850000D02*
X73250000Y-114850000D01*
X73250000Y-113150000D02*
X72250000Y-113150000D01*
X94444000Y-121274000D02*
X94444000Y-124322000D01*
X94444000Y-124322000D02*
X101556000Y-124322000D01*
X101556000Y-124322000D02*
X101556000Y-121274000D01*
X94444000Y-118226000D02*
X94444000Y-117464000D01*
X94444000Y-117464000D02*
X95968000Y-115178000D01*
X95968000Y-115178000D02*
X100032000Y-115178000D01*
X100032000Y-115178000D02*
X101556000Y-117464000D01*
X101556000Y-117464000D02*
X101556000Y-118226000D01*
X98650000Y-111375000D02*
X99850000Y-111375000D01*
X99850000Y-113125000D02*
X98650000Y-113125000D01*
X99850000Y-110625000D02*
X98650000Y-110625000D01*
X98650000Y-108875000D02*
X99850000Y-108875000D01*
X68400000Y-108750000D02*
G75*
G03X68400000Y-108750000I-100000J0D01*
G01*
X67750000Y-108500000D02*
X68250000Y-108500000D01*
X67750000Y-105600000D02*
X67750000Y-108500000D01*
X68250000Y-105600000D02*
X67750000Y-105600000D01*
X68250000Y-108500000D02*
X68250000Y-105600000D01*
X91650000Y-68800000D02*
G75*
G03X91650000Y-68800000I-100000J0D01*
G01*
X91800000Y-68250000D02*
X91800000Y-68750000D01*
X94700000Y-68250000D02*
X91800000Y-68250000D01*
X94700000Y-68750000D02*
X94700000Y-68250000D01*
X91800000Y-68750000D02*
X94700000Y-68750000D01*
X131050000Y-91300000D02*
G75*
G03X131050000Y-91300000I-100000J0D01*
G01*
X131500000Y-91550000D02*
X131000000Y-91550000D01*
X131500000Y-94450000D02*
X131500000Y-91550000D01*
X131000000Y-94450000D02*
X131500000Y-94450000D01*
X131000000Y-91550000D02*
X131000000Y-94450000D01*
X76277876Y-117115452D02*
X76132876Y-117115452D01*
X76277876Y-121265452D02*
X76132876Y-121265452D01*
X71127876Y-121265452D02*
X71272876Y-121265452D01*
X71127876Y-117115452D02*
X71272876Y-117115452D01*
X76277876Y-117115452D02*
X76277876Y-121265452D01*
X71127876Y-117115452D02*
X71127876Y-121265452D01*
X76132876Y-117115452D02*
X76132876Y-115715452D01*
X74602876Y-128815452D02*
X75802876Y-128815452D01*
X75802876Y-130565452D02*
X74602876Y-130565452D01*
X74625000Y-64100000D02*
X74625000Y-62900000D01*
X76375000Y-62900000D02*
X76375000Y-64100000D01*
X76375000Y-72400000D02*
X76375000Y-73600000D01*
X74625000Y-73600000D02*
X74625000Y-72400000D01*
X78052876Y-128815452D02*
X79252876Y-128815452D01*
X79252876Y-130565452D02*
X78052876Y-130565452D01*
X71102876Y-128815452D02*
X72302876Y-128815452D01*
X72302876Y-130565452D02*
X71102876Y-130565452D01*
X69299160Y-90599760D02*
X69250900Y-90599760D01*
X66500180Y-91300800D02*
X66500180Y-90599760D01*
X66500180Y-90599760D02*
X66749100Y-90599760D01*
X69299160Y-90599760D02*
X69499820Y-90599760D01*
X69499820Y-90599760D02*
X69499820Y-91300800D01*
X113650240Y-69299160D02*
X113650240Y-69250900D01*
X112949200Y-66500180D02*
X113650240Y-66500180D01*
X113650240Y-66500180D02*
X113650240Y-66749100D01*
X113650240Y-69299160D02*
X113650240Y-69499820D01*
X113650240Y-69499820D02*
X112949200Y-69499820D01*
X130750840Y-113651000D02*
X130799100Y-113651000D01*
X133549820Y-112949960D02*
X133549820Y-113651000D01*
X133549820Y-113651000D02*
X133300900Y-113651000D01*
X130750840Y-113651000D02*
X130550180Y-113651000D01*
X130550180Y-113651000D02*
X130550180Y-112949960D01*
X115833272Y-71375000D02*
X117033272Y-71375000D01*
X117033272Y-73125000D02*
X115833272Y-73125000D01*
X115833272Y-73375000D02*
X117033272Y-73375000D01*
X117033272Y-75125000D02*
X115833272Y-75125000D01*
X115833272Y-77375000D02*
X117033272Y-77375000D01*
X117033272Y-79125000D02*
X115833272Y-79125000D01*
X115833272Y-79375000D02*
X117033272Y-79375000D01*
X117033272Y-81125000D02*
X115833272Y-81125000D01*
X112083272Y-71375000D02*
X113283272Y-71375000D01*
X113283272Y-73125000D02*
X112083272Y-73125000D01*
X112083272Y-73375000D02*
X113283272Y-73375000D01*
X113283272Y-75125000D02*
X112083272Y-75125000D01*
X112083272Y-77375000D02*
X113283272Y-77375000D01*
X113283272Y-79125000D02*
X112083272Y-79125000D01*
X112083272Y-79375000D02*
X113283272Y-79375000D01*
X113283272Y-81125000D02*
X112083272Y-81125000D01*
X67400000Y-87625000D02*
X68600000Y-87625000D01*
X68600000Y-89375000D02*
X67400000Y-89375000D01*
X115125000Y-68550000D02*
X115125000Y-67350000D01*
X116875000Y-67350000D02*
X116875000Y-68550000D01*
X131450000Y-115125000D02*
X132650000Y-115125000D01*
X132650000Y-116875000D02*
X131450000Y-116875000D01*
X67400000Y-93125000D02*
X68600000Y-93125000D01*
X68600000Y-94875000D02*
X67400000Y-94875000D01*
X111125000Y-67400000D02*
X111125000Y-68600000D01*
X109375000Y-68600000D02*
X109375000Y-67400000D01*
X132650000Y-110875000D02*
X131450000Y-110875000D01*
X131450000Y-109125000D02*
X132650000Y-109125000D01*
X77125000Y-73600000D02*
X77125000Y-72400000D01*
X78875000Y-72400000D02*
X78875000Y-73600000D01*
X115833272Y-75375000D02*
X117033272Y-75375000D01*
X117033272Y-77125000D02*
X115833272Y-77125000D01*
X112083272Y-75375000D02*
X113283272Y-75375000D01*
X113283272Y-77125000D02*
X112083272Y-77125000D01*
X77325000Y-92075000D02*
X77325000Y-91970000D01*
X73175000Y-92075000D02*
X73175000Y-91970000D01*
X73175000Y-81925000D02*
X73175000Y-82030000D01*
X77325000Y-81925000D02*
X77325000Y-82030000D01*
X77325000Y-92075000D02*
X73175000Y-92075000D01*
X77325000Y-81925000D02*
X73175000Y-81925000D01*
X77325000Y-91970000D02*
X78700000Y-91970000D01*
X91799140Y-124499940D02*
X91799140Y-124850460D01*
X91799140Y-128000060D02*
X91799140Y-127649540D01*
X87749560Y-124499940D02*
X87749560Y-124850460D01*
X92250440Y-124499940D02*
X92250440Y-124850460D01*
X92250440Y-128000060D02*
X92250440Y-127649540D01*
X87749560Y-128000060D02*
X87749560Y-127649540D01*
X92250440Y-124499940D02*
X87749560Y-124499940D01*
X92250440Y-128000060D02*
X87749560Y-128000060D01*
X80903736Y-127940512D02*
X80903736Y-127589992D01*
X80903736Y-124440392D02*
X80903736Y-124790912D01*
X84953316Y-127940512D02*
X84953316Y-127589992D01*
X80452436Y-127940512D02*
X80452436Y-127589992D01*
X80452436Y-124440392D02*
X80452436Y-124790912D01*
X84953316Y-124440392D02*
X84953316Y-124790912D01*
X80452436Y-127940512D02*
X84953316Y-127940512D01*
X80452436Y-124440392D02*
X84953316Y-124440392D01*
X73903736Y-127940512D02*
X73903736Y-127589992D01*
X73903736Y-124440392D02*
X73903736Y-124790912D01*
X77953316Y-127940512D02*
X77953316Y-127589992D01*
X73452436Y-127940512D02*
X73452436Y-127589992D01*
X73452436Y-124440392D02*
X73452436Y-124790912D01*
X77953316Y-124440392D02*
X77953316Y-124790912D01*
X73452436Y-127940512D02*
X77953316Y-127940512D01*
X73452436Y-124440392D02*
X77953316Y-124440392D01*
X70500060Y-117049140D02*
X70149540Y-117049140D01*
X66999940Y-117049140D02*
X67350460Y-117049140D01*
X70500060Y-112999560D02*
X70149540Y-112999560D01*
X70500060Y-117500440D02*
X70149540Y-117500440D01*
X66999940Y-117500440D02*
X67350460Y-117500440D01*
X66999940Y-112999560D02*
X67350460Y-112999560D01*
X70500060Y-117500440D02*
X70500060Y-112999560D01*
X66999940Y-117500440D02*
X66999940Y-112999560D01*
X99417752Y-139543248D02*
X92305752Y-139543248D01*
X99417752Y-133447248D02*
X92305752Y-133447248D01*
X87048120Y-128749940D02*
X87048120Y-129100460D01*
X87048120Y-132250060D02*
X87048120Y-131899540D01*
X82998540Y-128749940D02*
X82998540Y-129100460D01*
X87499420Y-128749940D02*
X87499420Y-129100460D01*
X87499420Y-132250060D02*
X87499420Y-131899540D01*
X82998540Y-132250060D02*
X82998540Y-131899540D01*
X87499420Y-128749940D02*
X82998540Y-128749940D01*
X87499420Y-132250060D02*
X82998540Y-132250060D01*
X72275000Y-108500000D02*
X72275000Y-110500000D01*
X75225000Y-110500000D02*
X75225000Y-108500000D01*
X117975000Y-110750000D02*
X117975000Y-108750000D01*
X115025000Y-108750000D02*
X115025000Y-110750000D01*
X90249940Y-116950860D02*
X90600460Y-116950860D01*
X93750060Y-116950860D02*
X93399540Y-116950860D01*
X90249940Y-121000440D02*
X90600460Y-121000440D01*
X90249940Y-116499560D02*
X90600460Y-116499560D01*
X93750060Y-116499560D02*
X93399540Y-116499560D01*
X93750060Y-121000440D02*
X93399540Y-121000440D01*
X90249940Y-116499560D02*
X90249940Y-121000440D01*
X93750060Y-116499560D02*
X93750060Y-121000440D01*
X88049140Y-137249940D02*
X88049140Y-137600460D01*
X88049140Y-140750060D02*
X88049140Y-140399540D01*
X83999560Y-137249940D02*
X83999560Y-137600460D01*
X88500440Y-137249940D02*
X88500440Y-137600460D01*
X88500440Y-140750060D02*
X88500440Y-140399540D01*
X83999560Y-140750060D02*
X83999560Y-140399540D01*
X88500440Y-137249940D02*
X83999560Y-137249940D01*
X88500440Y-140750060D02*
X83999560Y-140750060D01*
X88049140Y-133249940D02*
X88049140Y-133600460D01*
X88049140Y-136750060D02*
X88049140Y-136399540D01*
X83999560Y-133249940D02*
X83999560Y-133600460D01*
X88500440Y-133249940D02*
X88500440Y-133600460D01*
X88500440Y-136750060D02*
X88500440Y-136399540D01*
X83999560Y-136750060D02*
X83999560Y-136399540D01*
X88500440Y-133249940D02*
X83999560Y-133249940D01*
X88500440Y-136750060D02*
X83999560Y-136750060D01*
D13*
X102500000Y-114250000D02*
X128500000Y-114250000D01*
X102500000Y-140250000D02*
X102500000Y-114250000D01*
X128500000Y-140250000D02*
X102500000Y-140250000D01*
X128500000Y-114250000D02*
X128500000Y-140250000D01*
D12*
X94075000Y-108750000D02*
X94075000Y-110750000D01*
X91925000Y-110750000D02*
X91925000Y-108750000D01*
X76175000Y-110700000D02*
X76175000Y-108700000D01*
X78325000Y-108700000D02*
X78325000Y-110700000D01*
X88075000Y-92250000D02*
X88075000Y-94250000D01*
X85925000Y-94250000D02*
X85925000Y-92250000D01*
X94925000Y-110750000D02*
X94925000Y-108750000D01*
X97075000Y-108750000D02*
X97075000Y-110750000D01*
X103000000Y-66175000D02*
X105000000Y-66175000D01*
X105000000Y-68325000D02*
X103000000Y-68325000D01*
X74000000Y-78925000D02*
X76000000Y-78925000D01*
X76000000Y-81075000D02*
X74000000Y-81075000D01*
X81575000Y-84750000D02*
X81575000Y-86750000D01*
X79425000Y-86750000D02*
X79425000Y-84750000D01*
X70825000Y-83500000D02*
X70825000Y-85500000D01*
X68675000Y-85500000D02*
X68675000Y-83500000D01*
X69250000Y-104825000D02*
X67250000Y-104825000D01*
X67250000Y-102675000D02*
X69250000Y-102675000D01*
X95175000Y-69250000D02*
X95175000Y-67250000D01*
X97325000Y-67250000D02*
X97325000Y-69250000D01*
X130250000Y-95175000D02*
X132250000Y-95175000D01*
X132250000Y-97325000D02*
X130250000Y-97325000D01*
X82925000Y-94250000D02*
X82925000Y-92250000D01*
X85075000Y-92250000D02*
X85075000Y-94250000D01*
X104675000Y-76075000D02*
X104100000Y-76075000D01*
X104675000Y-90425000D02*
X104000000Y-90425000D01*
X90325000Y-90425000D02*
X91000000Y-90425000D01*
X90325000Y-76075000D02*
X91000000Y-76075000D01*
X104675000Y-76075000D02*
X104675000Y-76750000D01*
X90325000Y-76075000D02*
X90325000Y-76750000D01*
X90325000Y-90425000D02*
X90325000Y-89750000D01*
X104675000Y-90425000D02*
X104675000Y-89750000D01*
X104100000Y-76075000D02*
X104100000Y-74800000D01*
X103775000Y-71000000D02*
X103775000Y-73000000D01*
X106725000Y-73000000D02*
X106725000Y-71000000D01*
X106525000Y-76000000D02*
X106525000Y-78000000D01*
X109475000Y-78000000D02*
X109475000Y-76000000D01*
D11*
X105140000Y-98760000D02*
G75*
G03X105140000Y-98760000I-635000J0D01*
G01*
D13*
X88047214Y-115700000D02*
G75*
G03X88047214Y-115700000I-447214J0D01*
G01*
X89200000Y-122500000D02*
X89200000Y-114100000D01*
X76800000Y-122500000D02*
X89200000Y-122500000D01*
X76800000Y-114100000D02*
X76800000Y-122500000D01*
X89200000Y-114100000D02*
X76800000Y-114100000D01*
X118750000Y-81750000D02*
X118750000Y-104250000D01*
X109000000Y-81750000D02*
X118750000Y-81750000D01*
X109000000Y-104250000D02*
X109000000Y-81750000D01*
X118750000Y-104250000D02*
X109000000Y-104250000D01*
D12*
X80202381Y-64142857D02*
X79726190Y-64476191D01*
X80202381Y-64714286D02*
X79202381Y-64714286D01*
X79202381Y-64333333D01*
X79250000Y-64238095D01*
X79297619Y-64190476D01*
X79392857Y-64142857D01*
X79535714Y-64142857D01*
X79630952Y-64190476D01*
X79678571Y-64238095D01*
X79726190Y-64333333D01*
X79726190Y-64714286D01*
X80202381Y-63190476D02*
X80202381Y-63761905D01*
X80202381Y-63476191D02*
X79202381Y-63476191D01*
X79345238Y-63571429D01*
X79440476Y-63666667D01*
X79488095Y-63761905D01*
X79202381Y-62333333D02*
X79202381Y-62523810D01*
X79250000Y-62619048D01*
X79297619Y-62666667D01*
X79440476Y-62761905D01*
X79630952Y-62809524D01*
X80011905Y-62809524D01*
X80107143Y-62761905D01*
X80154762Y-62714286D01*
X80202381Y-62619048D01*
X80202381Y-62428571D01*
X80154762Y-62333333D01*
X80107143Y-62285714D01*
X80011905Y-62238095D01*
X79773810Y-62238095D01*
X79678571Y-62285714D01*
X79630952Y-62333333D01*
X79583333Y-62428571D01*
X79583333Y-62619048D01*
X79630952Y-62714286D01*
X79678571Y-62761905D01*
X79773810Y-62809524D01*
X90738095Y-94452381D02*
X90738095Y-95261905D01*
X90785714Y-95357143D01*
X90833333Y-95404762D01*
X90928571Y-95452381D01*
X91119048Y-95452381D01*
X91214286Y-95404762D01*
X91261905Y-95357143D01*
X91309524Y-95261905D01*
X91309524Y-94452381D01*
X91690476Y-94452381D02*
X92309524Y-94452381D01*
X91976190Y-94833333D01*
X92119048Y-94833333D01*
X92214286Y-94880952D01*
X92261905Y-94928571D01*
X92309524Y-95023810D01*
X92309524Y-95261905D01*
X92261905Y-95357143D01*
X92214286Y-95404762D01*
X92119048Y-95452381D01*
X91833333Y-95452381D01*
X91738095Y-95404762D01*
X91690476Y-95357143D01*
X84976190Y-82726191D02*
X85452381Y-82726191D01*
X84452381Y-83059524D02*
X84976190Y-82726191D01*
X84452381Y-82392857D01*
X85452381Y-81535714D02*
X85452381Y-82107143D01*
X85452381Y-81821429D02*
X84452381Y-81821429D01*
X84595238Y-81916667D01*
X84690476Y-82011905D01*
X84738095Y-82107143D01*
X87333334Y-69502381D02*
X87000000Y-69026190D01*
X86761905Y-69502381D02*
X86761905Y-68502381D01*
X87142858Y-68502381D01*
X87238096Y-68550000D01*
X87285715Y-68597619D01*
X87333334Y-68692857D01*
X87333334Y-68835714D01*
X87285715Y-68930952D01*
X87238096Y-68978571D01*
X87142858Y-69026190D01*
X86761905Y-69026190D01*
X88285715Y-69502381D02*
X87714286Y-69502381D01*
X88000000Y-69502381D02*
X88000000Y-68502381D01*
X87904762Y-68645238D01*
X87809524Y-68740476D01*
X87714286Y-68788095D01*
X107857143Y-88166666D02*
X107904762Y-88214285D01*
X107952381Y-88357142D01*
X107952381Y-88452380D01*
X107904762Y-88595238D01*
X107809524Y-88690476D01*
X107714286Y-88738095D01*
X107523810Y-88785714D01*
X107380952Y-88785714D01*
X107190476Y-88738095D01*
X107095238Y-88690476D01*
X107000000Y-88595238D01*
X106952381Y-88452380D01*
X106952381Y-88357142D01*
X107000000Y-88214285D01*
X107047619Y-88166666D01*
X107952381Y-87214285D02*
X107952381Y-87785714D01*
X107952381Y-87500000D02*
X106952381Y-87500000D01*
X107095238Y-87595238D01*
X107190476Y-87690476D01*
X107238095Y-87785714D01*
X83083334Y-73357143D02*
X83035715Y-73404762D01*
X82892858Y-73452381D01*
X82797620Y-73452381D01*
X82654762Y-73404762D01*
X82559524Y-73309524D01*
X82511905Y-73214286D01*
X82464286Y-73023810D01*
X82464286Y-72880952D01*
X82511905Y-72690476D01*
X82559524Y-72595238D01*
X82654762Y-72500000D01*
X82797620Y-72452381D01*
X82892858Y-72452381D01*
X83035715Y-72500000D01*
X83083334Y-72547619D01*
X83464286Y-72547619D02*
X83511905Y-72500000D01*
X83607143Y-72452381D01*
X83845239Y-72452381D01*
X83940477Y-72500000D01*
X83988096Y-72547619D01*
X84035715Y-72642857D01*
X84035715Y-72738095D01*
X83988096Y-72880952D01*
X83416667Y-73452381D01*
X84035715Y-73452381D01*
X107083334Y-104107143D02*
X107035715Y-104154762D01*
X106892858Y-104202381D01*
X106797620Y-104202381D01*
X106654762Y-104154762D01*
X106559524Y-104059524D01*
X106511905Y-103964286D01*
X106464286Y-103773810D01*
X106464286Y-103630952D01*
X106511905Y-103440476D01*
X106559524Y-103345238D01*
X106654762Y-103250000D01*
X106797620Y-103202381D01*
X106892858Y-103202381D01*
X107035715Y-103250000D01*
X107083334Y-103297619D01*
X107416667Y-103202381D02*
X108035715Y-103202381D01*
X107702381Y-103583333D01*
X107845239Y-103583333D01*
X107940477Y-103630952D01*
X107988096Y-103678571D01*
X108035715Y-103773810D01*
X108035715Y-104011905D01*
X107988096Y-104107143D01*
X107940477Y-104154762D01*
X107845239Y-104202381D01*
X107559524Y-104202381D01*
X107464286Y-104154762D01*
X107416667Y-104107143D01*
X93107143Y-72916666D02*
X93154762Y-72964285D01*
X93202381Y-73107142D01*
X93202381Y-73202380D01*
X93154762Y-73345238D01*
X93059524Y-73440476D01*
X92964286Y-73488095D01*
X92773810Y-73535714D01*
X92630952Y-73535714D01*
X92440476Y-73488095D01*
X92345238Y-73440476D01*
X92250000Y-73345238D01*
X92202381Y-73202380D01*
X92202381Y-73107142D01*
X92250000Y-72964285D01*
X92297619Y-72916666D01*
X92535714Y-72059523D02*
X93202381Y-72059523D01*
X92154762Y-72297619D02*
X92869048Y-72535714D01*
X92869048Y-71916666D01*
X79857143Y-77666666D02*
X79904762Y-77714285D01*
X79952381Y-77857142D01*
X79952381Y-77952380D01*
X79904762Y-78095238D01*
X79809524Y-78190476D01*
X79714286Y-78238095D01*
X79523810Y-78285714D01*
X79380952Y-78285714D01*
X79190476Y-78238095D01*
X79095238Y-78190476D01*
X79000000Y-78095238D01*
X78952381Y-77952380D01*
X78952381Y-77857142D01*
X79000000Y-77714285D01*
X79047619Y-77666666D01*
X78952381Y-76761904D02*
X78952381Y-77238095D01*
X79428571Y-77285714D01*
X79380952Y-77238095D01*
X79333333Y-77142857D01*
X79333333Y-76904761D01*
X79380952Y-76809523D01*
X79428571Y-76761904D01*
X79523810Y-76714285D01*
X79761905Y-76714285D01*
X79857143Y-76761904D01*
X79904762Y-76809523D01*
X79952381Y-76904761D01*
X79952381Y-77142857D01*
X79904762Y-77238095D01*
X79857143Y-77285714D01*
X79857143Y-81666666D02*
X79904762Y-81714285D01*
X79952381Y-81857142D01*
X79952381Y-81952380D01*
X79904762Y-82095238D01*
X79809524Y-82190476D01*
X79714286Y-82238095D01*
X79523810Y-82285714D01*
X79380952Y-82285714D01*
X79190476Y-82238095D01*
X79095238Y-82190476D01*
X79000000Y-82095238D01*
X78952381Y-81952380D01*
X78952381Y-81857142D01*
X79000000Y-81714285D01*
X79047619Y-81666666D01*
X78952381Y-80809523D02*
X78952381Y-81000000D01*
X79000000Y-81095238D01*
X79047619Y-81142857D01*
X79190476Y-81238095D01*
X79380952Y-81285714D01*
X79761905Y-81285714D01*
X79857143Y-81238095D01*
X79904762Y-81190476D01*
X79952381Y-81095238D01*
X79952381Y-80904761D01*
X79904762Y-80809523D01*
X79857143Y-80761904D01*
X79761905Y-80714285D01*
X79523810Y-80714285D01*
X79428571Y-80761904D01*
X79380952Y-80809523D01*
X79333333Y-80904761D01*
X79333333Y-81095238D01*
X79380952Y-81190476D01*
X79428571Y-81238095D01*
X79523810Y-81285714D01*
X67107143Y-73357143D02*
X67059524Y-73404762D01*
X66916667Y-73452381D01*
X66821429Y-73452381D01*
X66678571Y-73404762D01*
X66583333Y-73309524D01*
X66535714Y-73214286D01*
X66488095Y-73023810D01*
X66488095Y-72880952D01*
X66535714Y-72690476D01*
X66583333Y-72595238D01*
X66678571Y-72500000D01*
X66821429Y-72452381D01*
X66916667Y-72452381D01*
X67059524Y-72500000D01*
X67107143Y-72547619D01*
X68059524Y-73452381D02*
X67488095Y-73452381D01*
X67773809Y-73452381D02*
X67773809Y-72452381D01*
X67678571Y-72595238D01*
X67583333Y-72690476D01*
X67488095Y-72738095D01*
X69011905Y-73452381D02*
X68440476Y-73452381D01*
X68726190Y-73452381D02*
X68726190Y-72452381D01*
X68630952Y-72595238D01*
X68535714Y-72690476D01*
X68440476Y-72738095D01*
X118452381Y-109761905D02*
X119261905Y-109761905D01*
X119357143Y-109714286D01*
X119404762Y-109666667D01*
X119452381Y-109571429D01*
X119452381Y-109380952D01*
X119404762Y-109285714D01*
X119357143Y-109238095D01*
X119261905Y-109190476D01*
X118452381Y-109190476D01*
X118785714Y-108285714D02*
X119452381Y-108285714D01*
X118404762Y-108523810D02*
X119119048Y-108761905D01*
X119119048Y-108142857D01*
X81202381Y-68988095D02*
X80202381Y-68988095D01*
X80202381Y-68607142D01*
X80250000Y-68511904D01*
X80297619Y-68464285D01*
X80392857Y-68416666D01*
X80535714Y-68416666D01*
X80630952Y-68464285D01*
X80678571Y-68511904D01*
X80726190Y-68607142D01*
X80726190Y-68988095D01*
X80297619Y-68035714D02*
X80250000Y-67988095D01*
X80202381Y-67892857D01*
X80202381Y-67654761D01*
X80250000Y-67559523D01*
X80297619Y-67511904D01*
X80392857Y-67464285D01*
X80488095Y-67464285D01*
X80630952Y-67511904D01*
X81202381Y-68083333D01*
X81202381Y-67464285D01*
X125357143Y-105107143D02*
X125309524Y-105154762D01*
X125166667Y-105202381D01*
X125071429Y-105202381D01*
X124928571Y-105154762D01*
X124833333Y-105059524D01*
X124785714Y-104964286D01*
X124738095Y-104773810D01*
X124738095Y-104630952D01*
X124785714Y-104440476D01*
X124833333Y-104345238D01*
X124928571Y-104250000D01*
X125071429Y-104202381D01*
X125166667Y-104202381D01*
X125309524Y-104250000D01*
X125357143Y-104297619D01*
X126309524Y-105202381D02*
X125738095Y-105202381D01*
X126023809Y-105202381D02*
X126023809Y-104202381D01*
X125928571Y-104345238D01*
X125833333Y-104440476D01*
X125738095Y-104488095D01*
X127214286Y-104202381D02*
X126738095Y-104202381D01*
X126690476Y-104678571D01*
X126738095Y-104630952D01*
X126833333Y-104583333D01*
X127071429Y-104583333D01*
X127166667Y-104630952D01*
X127214286Y-104678571D01*
X127261905Y-104773810D01*
X127261905Y-105011905D01*
X127214286Y-105107143D01*
X127166667Y-105154762D01*
X127071429Y-105202381D01*
X126833333Y-105202381D01*
X126738095Y-105154762D01*
X126690476Y-105107143D01*
X125857143Y-96357143D02*
X125809524Y-96404762D01*
X125666667Y-96452381D01*
X125571429Y-96452381D01*
X125428571Y-96404762D01*
X125333333Y-96309524D01*
X125285714Y-96214286D01*
X125238095Y-96023810D01*
X125238095Y-95880952D01*
X125285714Y-95690476D01*
X125333333Y-95595238D01*
X125428571Y-95500000D01*
X125571429Y-95452381D01*
X125666667Y-95452381D01*
X125809524Y-95500000D01*
X125857143Y-95547619D01*
X126809524Y-96452381D02*
X126238095Y-96452381D01*
X126523809Y-96452381D02*
X126523809Y-95452381D01*
X126428571Y-95595238D01*
X126333333Y-95690476D01*
X126238095Y-95738095D01*
X127666667Y-95452381D02*
X127476190Y-95452381D01*
X127380952Y-95500000D01*
X127333333Y-95547619D01*
X127238095Y-95690476D01*
X127190476Y-95880952D01*
X127190476Y-96261905D01*
X127238095Y-96357143D01*
X127285714Y-96404762D01*
X127380952Y-96452381D01*
X127571429Y-96452381D01*
X127666667Y-96404762D01*
X127714286Y-96357143D01*
X127761905Y-96261905D01*
X127761905Y-96023810D01*
X127714286Y-95928571D01*
X127666667Y-95880952D01*
X127571429Y-95833333D01*
X127380952Y-95833333D01*
X127285714Y-95880952D01*
X127238095Y-95928571D01*
X127190476Y-96023810D01*
X80857143Y-113107143D02*
X80809524Y-113154762D01*
X80666667Y-113202381D01*
X80571429Y-113202381D01*
X80428571Y-113154762D01*
X80333333Y-113059524D01*
X80285714Y-112964286D01*
X80238095Y-112773810D01*
X80238095Y-112630952D01*
X80285714Y-112440476D01*
X80333333Y-112345238D01*
X80428571Y-112250000D01*
X80571429Y-112202381D01*
X80666667Y-112202381D01*
X80809524Y-112250000D01*
X80857143Y-112297619D01*
X81809524Y-113202381D02*
X81238095Y-113202381D01*
X81523809Y-113202381D02*
X81523809Y-112202381D01*
X81428571Y-112345238D01*
X81333333Y-112440476D01*
X81238095Y-112488095D01*
X82142857Y-112202381D02*
X82809524Y-112202381D01*
X82380952Y-113202381D01*
X125857143Y-82857143D02*
X125809524Y-82904762D01*
X125666667Y-82952381D01*
X125571429Y-82952381D01*
X125428571Y-82904762D01*
X125333333Y-82809524D01*
X125285714Y-82714286D01*
X125238095Y-82523810D01*
X125238095Y-82380952D01*
X125285714Y-82190476D01*
X125333333Y-82095238D01*
X125428571Y-82000000D01*
X125571429Y-81952381D01*
X125666667Y-81952381D01*
X125809524Y-82000000D01*
X125857143Y-82047619D01*
X126809524Y-82952381D02*
X126238095Y-82952381D01*
X126523809Y-82952381D02*
X126523809Y-81952381D01*
X126428571Y-82095238D01*
X126333333Y-82190476D01*
X126238095Y-82238095D01*
X127380952Y-82380952D02*
X127285714Y-82333333D01*
X127238095Y-82285714D01*
X127190476Y-82190476D01*
X127190476Y-82142857D01*
X127238095Y-82047619D01*
X127285714Y-82000000D01*
X127380952Y-81952381D01*
X127571429Y-81952381D01*
X127666667Y-82000000D01*
X127714286Y-82047619D01*
X127761905Y-82142857D01*
X127761905Y-82190476D01*
X127714286Y-82285714D01*
X127666667Y-82333333D01*
X127571429Y-82380952D01*
X127380952Y-82380952D01*
X127285714Y-82428571D01*
X127238095Y-82476190D01*
X127190476Y-82571429D01*
X127190476Y-82761905D01*
X127238095Y-82857143D01*
X127285714Y-82904762D01*
X127380952Y-82952381D01*
X127571429Y-82952381D01*
X127666667Y-82904762D01*
X127714286Y-82857143D01*
X127761905Y-82761905D01*
X127761905Y-82571429D01*
X127714286Y-82476190D01*
X127666667Y-82428571D01*
X127571429Y-82380952D01*
X84857143Y-113107143D02*
X84809524Y-113154762D01*
X84666667Y-113202381D01*
X84571429Y-113202381D01*
X84428571Y-113154762D01*
X84333333Y-113059524D01*
X84285714Y-112964286D01*
X84238095Y-112773810D01*
X84238095Y-112630952D01*
X84285714Y-112440476D01*
X84333333Y-112345238D01*
X84428571Y-112250000D01*
X84571429Y-112202381D01*
X84666667Y-112202381D01*
X84809524Y-112250000D01*
X84857143Y-112297619D01*
X85809524Y-113202381D02*
X85238095Y-113202381D01*
X85523809Y-113202381D02*
X85523809Y-112202381D01*
X85428571Y-112345238D01*
X85333333Y-112440476D01*
X85238095Y-112488095D01*
X86285714Y-113202381D02*
X86476190Y-113202381D01*
X86571429Y-113154762D01*
X86619048Y-113107143D01*
X86714286Y-112964286D01*
X86761905Y-112773810D01*
X86761905Y-112392857D01*
X86714286Y-112297619D01*
X86666667Y-112250000D01*
X86571429Y-112202381D01*
X86380952Y-112202381D01*
X86285714Y-112250000D01*
X86238095Y-112297619D01*
X86190476Y-112392857D01*
X86190476Y-112630952D01*
X86238095Y-112726190D01*
X86285714Y-112773810D01*
X86380952Y-112821429D01*
X86571429Y-112821429D01*
X86666667Y-112773810D01*
X86714286Y-112726190D01*
X86761905Y-112630952D01*
X125857143Y-91607143D02*
X125809524Y-91654762D01*
X125666667Y-91702381D01*
X125571429Y-91702381D01*
X125428571Y-91654762D01*
X125333333Y-91559524D01*
X125285714Y-91464286D01*
X125238095Y-91273810D01*
X125238095Y-91130952D01*
X125285714Y-90940476D01*
X125333333Y-90845238D01*
X125428571Y-90750000D01*
X125571429Y-90702381D01*
X125666667Y-90702381D01*
X125809524Y-90750000D01*
X125857143Y-90797619D01*
X126238095Y-90797619D02*
X126285714Y-90750000D01*
X126380952Y-90702381D01*
X126619048Y-90702381D01*
X126714286Y-90750000D01*
X126761905Y-90797619D01*
X126809524Y-90892857D01*
X126809524Y-90988095D01*
X126761905Y-91130952D01*
X126190476Y-91702381D01*
X126809524Y-91702381D01*
X127428571Y-90702381D02*
X127523810Y-90702381D01*
X127619048Y-90750000D01*
X127666667Y-90797619D01*
X127714286Y-90892857D01*
X127761905Y-91083333D01*
X127761905Y-91321429D01*
X127714286Y-91511905D01*
X127666667Y-91607143D01*
X127619048Y-91654762D01*
X127523810Y-91702381D01*
X127428571Y-91702381D01*
X127333333Y-91654762D01*
X127285714Y-91607143D01*
X127238095Y-91511905D01*
X127190476Y-91321429D01*
X127190476Y-91083333D01*
X127238095Y-90892857D01*
X127285714Y-90797619D01*
X127333333Y-90750000D01*
X127428571Y-90702381D01*
X128357143Y-69607143D02*
X128309524Y-69654762D01*
X128166667Y-69702381D01*
X128071429Y-69702381D01*
X127928571Y-69654762D01*
X127833333Y-69559524D01*
X127785714Y-69464286D01*
X127738095Y-69273810D01*
X127738095Y-69130952D01*
X127785714Y-68940476D01*
X127833333Y-68845238D01*
X127928571Y-68750000D01*
X128071429Y-68702381D01*
X128166667Y-68702381D01*
X128309524Y-68750000D01*
X128357143Y-68797619D01*
X128738095Y-68797619D02*
X128785714Y-68750000D01*
X128880952Y-68702381D01*
X129119048Y-68702381D01*
X129214286Y-68750000D01*
X129261905Y-68797619D01*
X129309524Y-68892857D01*
X129309524Y-68988095D01*
X129261905Y-69130952D01*
X128690476Y-69702381D01*
X129309524Y-69702381D01*
X130261905Y-69702381D02*
X129690476Y-69702381D01*
X129976190Y-69702381D02*
X129976190Y-68702381D01*
X129880952Y-68845238D01*
X129785714Y-68940476D01*
X129690476Y-68988095D01*
X128357143Y-78107143D02*
X128309524Y-78154762D01*
X128166667Y-78202381D01*
X128071429Y-78202381D01*
X127928571Y-78154762D01*
X127833333Y-78059524D01*
X127785714Y-77964286D01*
X127738095Y-77773810D01*
X127738095Y-77630952D01*
X127785714Y-77440476D01*
X127833333Y-77345238D01*
X127928571Y-77250000D01*
X128071429Y-77202381D01*
X128166667Y-77202381D01*
X128309524Y-77250000D01*
X128357143Y-77297619D01*
X128738095Y-77297619D02*
X128785714Y-77250000D01*
X128880952Y-77202381D01*
X129119048Y-77202381D01*
X129214286Y-77250000D01*
X129261905Y-77297619D01*
X129309524Y-77392857D01*
X129309524Y-77488095D01*
X129261905Y-77630952D01*
X128690476Y-78202381D01*
X129309524Y-78202381D01*
X129690476Y-77297619D02*
X129738095Y-77250000D01*
X129833333Y-77202381D01*
X130071429Y-77202381D01*
X130166667Y-77250000D01*
X130214286Y-77297619D01*
X130261905Y-77392857D01*
X130261905Y-77488095D01*
X130214286Y-77630952D01*
X129642857Y-78202381D01*
X130261905Y-78202381D01*
X120857143Y-96357143D02*
X120809524Y-96404762D01*
X120666667Y-96452381D01*
X120571429Y-96452381D01*
X120428571Y-96404762D01*
X120333333Y-96309524D01*
X120285714Y-96214286D01*
X120238095Y-96023810D01*
X120238095Y-95880952D01*
X120285714Y-95690476D01*
X120333333Y-95595238D01*
X120428571Y-95500000D01*
X120571429Y-95452381D01*
X120666667Y-95452381D01*
X120809524Y-95500000D01*
X120857143Y-95547619D01*
X121238095Y-95547619D02*
X121285714Y-95500000D01*
X121380952Y-95452381D01*
X121619048Y-95452381D01*
X121714286Y-95500000D01*
X121761905Y-95547619D01*
X121809524Y-95642857D01*
X121809524Y-95738095D01*
X121761905Y-95880952D01*
X121190476Y-96452381D01*
X121809524Y-96452381D01*
X122142857Y-95452381D02*
X122761905Y-95452381D01*
X122428571Y-95833333D01*
X122571429Y-95833333D01*
X122666667Y-95880952D01*
X122714286Y-95928571D01*
X122761905Y-96023810D01*
X122761905Y-96261905D01*
X122714286Y-96357143D01*
X122666667Y-96404762D01*
X122571429Y-96452381D01*
X122285714Y-96452381D01*
X122190476Y-96404762D01*
X122142857Y-96357143D01*
X120735714Y-104785714D02*
X120697619Y-104823810D01*
X120583333Y-104861905D01*
X120507143Y-104861905D01*
X120392857Y-104823810D01*
X120316666Y-104747619D01*
X120278571Y-104671429D01*
X120240476Y-104519048D01*
X120240476Y-104404762D01*
X120278571Y-104252381D01*
X120316666Y-104176190D01*
X120392857Y-104100000D01*
X120507143Y-104061905D01*
X120583333Y-104061905D01*
X120697619Y-104100000D01*
X120735714Y-104138095D01*
X121040476Y-104138095D02*
X121078571Y-104100000D01*
X121154762Y-104061905D01*
X121345238Y-104061905D01*
X121421428Y-104100000D01*
X121459524Y-104138095D01*
X121497619Y-104214286D01*
X121497619Y-104290476D01*
X121459524Y-104404762D01*
X121002381Y-104861905D01*
X121497619Y-104861905D01*
X122183333Y-104328571D02*
X122183333Y-104861905D01*
X121992857Y-104023810D02*
X121802381Y-104595238D01*
X122297619Y-104595238D01*
X120680781Y-82857143D02*
X120633162Y-82904762D01*
X120490305Y-82952381D01*
X120395067Y-82952381D01*
X120252209Y-82904762D01*
X120156971Y-82809524D01*
X120109352Y-82714286D01*
X120061733Y-82523810D01*
X120061733Y-82380952D01*
X120109352Y-82190476D01*
X120156971Y-82095238D01*
X120252209Y-82000000D01*
X120395067Y-81952381D01*
X120490305Y-81952381D01*
X120633162Y-82000000D01*
X120680781Y-82047619D01*
X121061733Y-82047619D02*
X121109352Y-82000000D01*
X121204590Y-81952381D01*
X121442686Y-81952381D01*
X121537924Y-82000000D01*
X121585543Y-82047619D01*
X121633162Y-82142857D01*
X121633162Y-82238095D01*
X121585543Y-82380952D01*
X121014114Y-82952381D01*
X121633162Y-82952381D01*
X122537924Y-81952381D02*
X122061733Y-81952381D01*
X122014114Y-82428571D01*
X122061733Y-82380952D01*
X122156971Y-82333333D01*
X122395067Y-82333333D01*
X122490305Y-82380952D01*
X122537924Y-82428571D01*
X122585543Y-82523810D01*
X122585543Y-82761905D01*
X122537924Y-82857143D01*
X122490305Y-82904762D01*
X122395067Y-82952381D01*
X122156971Y-82952381D01*
X122061733Y-82904762D01*
X122014114Y-82857143D01*
X120607143Y-91607143D02*
X120559524Y-91654762D01*
X120416667Y-91702381D01*
X120321429Y-91702381D01*
X120178571Y-91654762D01*
X120083333Y-91559524D01*
X120035714Y-91464286D01*
X119988095Y-91273810D01*
X119988095Y-91130952D01*
X120035714Y-90940476D01*
X120083333Y-90845238D01*
X120178571Y-90750000D01*
X120321429Y-90702381D01*
X120416667Y-90702381D01*
X120559524Y-90750000D01*
X120607143Y-90797619D01*
X120988095Y-90797619D02*
X121035714Y-90750000D01*
X121130952Y-90702381D01*
X121369048Y-90702381D01*
X121464286Y-90750000D01*
X121511905Y-90797619D01*
X121559524Y-90892857D01*
X121559524Y-90988095D01*
X121511905Y-91130952D01*
X120940476Y-91702381D01*
X121559524Y-91702381D01*
X122416667Y-90702381D02*
X122226190Y-90702381D01*
X122130952Y-90750000D01*
X122083333Y-90797619D01*
X121988095Y-90940476D01*
X121940476Y-91130952D01*
X121940476Y-91511905D01*
X121988095Y-91607143D01*
X122035714Y-91654762D01*
X122130952Y-91702381D01*
X122321429Y-91702381D01*
X122416667Y-91654762D01*
X122464286Y-91607143D01*
X122511905Y-91511905D01*
X122511905Y-91273810D01*
X122464286Y-91178571D01*
X122416667Y-91130952D01*
X122321429Y-91083333D01*
X122130952Y-91083333D01*
X122035714Y-91130952D01*
X121988095Y-91178571D01*
X121940476Y-91273810D01*
X123107143Y-69607143D02*
X123059524Y-69654762D01*
X122916667Y-69702381D01*
X122821429Y-69702381D01*
X122678571Y-69654762D01*
X122583333Y-69559524D01*
X122535714Y-69464286D01*
X122488095Y-69273810D01*
X122488095Y-69130952D01*
X122535714Y-68940476D01*
X122583333Y-68845238D01*
X122678571Y-68750000D01*
X122821429Y-68702381D01*
X122916667Y-68702381D01*
X123059524Y-68750000D01*
X123107143Y-68797619D01*
X123488095Y-68797619D02*
X123535714Y-68750000D01*
X123630952Y-68702381D01*
X123869048Y-68702381D01*
X123964286Y-68750000D01*
X124011905Y-68797619D01*
X124059524Y-68892857D01*
X124059524Y-68988095D01*
X124011905Y-69130952D01*
X123440476Y-69702381D01*
X124059524Y-69702381D01*
X124392857Y-68702381D02*
X125059524Y-68702381D01*
X124630952Y-69702381D01*
X123107143Y-78107143D02*
X123059524Y-78154762D01*
X122916667Y-78202381D01*
X122821429Y-78202381D01*
X122678571Y-78154762D01*
X122583333Y-78059524D01*
X122535714Y-77964286D01*
X122488095Y-77773810D01*
X122488095Y-77630952D01*
X122535714Y-77440476D01*
X122583333Y-77345238D01*
X122678571Y-77250000D01*
X122821429Y-77202381D01*
X122916667Y-77202381D01*
X123059524Y-77250000D01*
X123107143Y-77297619D01*
X123488095Y-77297619D02*
X123535714Y-77250000D01*
X123630952Y-77202381D01*
X123869048Y-77202381D01*
X123964286Y-77250000D01*
X124011905Y-77297619D01*
X124059524Y-77392857D01*
X124059524Y-77488095D01*
X124011905Y-77630952D01*
X123440476Y-78202381D01*
X124059524Y-78202381D01*
X124630952Y-77630952D02*
X124535714Y-77583333D01*
X124488095Y-77535714D01*
X124440476Y-77440476D01*
X124440476Y-77392857D01*
X124488095Y-77297619D01*
X124535714Y-77250000D01*
X124630952Y-77202381D01*
X124821429Y-77202381D01*
X124916667Y-77250000D01*
X124964286Y-77297619D01*
X125011905Y-77392857D01*
X125011905Y-77440476D01*
X124964286Y-77535714D01*
X124916667Y-77583333D01*
X124821429Y-77630952D01*
X124630952Y-77630952D01*
X124535714Y-77678571D01*
X124488095Y-77726190D01*
X124440476Y-77821429D01*
X124440476Y-78011905D01*
X124488095Y-78107143D01*
X124535714Y-78154762D01*
X124630952Y-78202381D01*
X124821429Y-78202381D01*
X124916667Y-78154762D01*
X124964286Y-78107143D01*
X125011905Y-78011905D01*
X125011905Y-77821429D01*
X124964286Y-77726190D01*
X124916667Y-77678571D01*
X124821429Y-77630952D01*
X101107143Y-130892857D02*
X101154762Y-130940476D01*
X101202381Y-131083333D01*
X101202381Y-131178571D01*
X101154762Y-131321429D01*
X101059524Y-131416667D01*
X100964286Y-131464286D01*
X100773810Y-131511905D01*
X100630952Y-131511905D01*
X100440476Y-131464286D01*
X100345238Y-131416667D01*
X100250000Y-131321429D01*
X100202381Y-131178571D01*
X100202381Y-131083333D01*
X100250000Y-130940476D01*
X100297619Y-130892857D01*
X100297619Y-130511905D02*
X100250000Y-130464286D01*
X100202381Y-130369048D01*
X100202381Y-130130952D01*
X100250000Y-130035714D01*
X100297619Y-129988095D01*
X100392857Y-129940476D01*
X100488095Y-129940476D01*
X100630952Y-129988095D01*
X101202381Y-130559524D01*
X101202381Y-129940476D01*
X101202381Y-129464286D02*
X101202381Y-129273810D01*
X101154762Y-129178571D01*
X101107143Y-129130952D01*
X100964286Y-129035714D01*
X100773810Y-128988095D01*
X100392857Y-128988095D01*
X100297619Y-129035714D01*
X100250000Y-129083333D01*
X100202381Y-129178571D01*
X100202381Y-129369048D01*
X100250000Y-129464286D01*
X100297619Y-129511905D01*
X100392857Y-129559524D01*
X100630952Y-129559524D01*
X100726190Y-129511905D01*
X100773810Y-129464286D01*
X100821429Y-129369048D01*
X100821429Y-129178571D01*
X100773810Y-129083333D01*
X100726190Y-129035714D01*
X100630952Y-128988095D01*
X90107143Y-130892857D02*
X90154762Y-130940476D01*
X90202381Y-131083333D01*
X90202381Y-131178571D01*
X90154762Y-131321429D01*
X90059524Y-131416667D01*
X89964286Y-131464286D01*
X89773810Y-131511905D01*
X89630952Y-131511905D01*
X89440476Y-131464286D01*
X89345238Y-131416667D01*
X89250000Y-131321429D01*
X89202381Y-131178571D01*
X89202381Y-131083333D01*
X89250000Y-130940476D01*
X89297619Y-130892857D01*
X89202381Y-130559524D02*
X89202381Y-129940476D01*
X89583333Y-130273810D01*
X89583333Y-130130952D01*
X89630952Y-130035714D01*
X89678571Y-129988095D01*
X89773810Y-129940476D01*
X90011905Y-129940476D01*
X90107143Y-129988095D01*
X90154762Y-130035714D01*
X90202381Y-130130952D01*
X90202381Y-130416667D01*
X90154762Y-130511905D01*
X90107143Y-130559524D01*
X89202381Y-129321429D02*
X89202381Y-129226190D01*
X89250000Y-129130952D01*
X89297619Y-129083333D01*
X89392857Y-129035714D01*
X89583333Y-128988095D01*
X89821429Y-128988095D01*
X90011905Y-129035714D01*
X90107143Y-129083333D01*
X90154762Y-129130952D01*
X90202381Y-129226190D01*
X90202381Y-129321429D01*
X90154762Y-129416667D01*
X90107143Y-129464286D01*
X90011905Y-129511905D01*
X89821429Y-129559524D01*
X89583333Y-129559524D01*
X89392857Y-129511905D01*
X89297619Y-129464286D01*
X89250000Y-129416667D01*
X89202381Y-129321429D01*
X135107143Y-136642857D02*
X135154762Y-136690476D01*
X135202381Y-136833333D01*
X135202381Y-136928571D01*
X135154762Y-137071429D01*
X135059524Y-137166667D01*
X134964286Y-137214286D01*
X134773810Y-137261905D01*
X134630952Y-137261905D01*
X134440476Y-137214286D01*
X134345238Y-137166667D01*
X134250000Y-137071429D01*
X134202381Y-136928571D01*
X134202381Y-136833333D01*
X134250000Y-136690476D01*
X134297619Y-136642857D01*
X134202381Y-136309524D02*
X134202381Y-135690476D01*
X134583333Y-136023810D01*
X134583333Y-135880952D01*
X134630952Y-135785714D01*
X134678571Y-135738095D01*
X134773810Y-135690476D01*
X135011905Y-135690476D01*
X135107143Y-135738095D01*
X135154762Y-135785714D01*
X135202381Y-135880952D01*
X135202381Y-136166667D01*
X135154762Y-136261905D01*
X135107143Y-136309524D01*
X135202381Y-134738095D02*
X135202381Y-135309524D01*
X135202381Y-135023810D02*
X134202381Y-135023810D01*
X134345238Y-135119048D01*
X134440476Y-135214286D01*
X134488095Y-135309524D01*
X103857143Y-108357143D02*
X103809524Y-108404762D01*
X103666667Y-108452381D01*
X103571429Y-108452381D01*
X103428571Y-108404762D01*
X103333333Y-108309524D01*
X103285714Y-108214286D01*
X103238095Y-108023810D01*
X103238095Y-107880952D01*
X103285714Y-107690476D01*
X103333333Y-107595238D01*
X103428571Y-107500000D01*
X103571429Y-107452381D01*
X103666667Y-107452381D01*
X103809524Y-107500000D01*
X103857143Y-107547619D01*
X104190476Y-107452381D02*
X104809524Y-107452381D01*
X104476190Y-107833333D01*
X104619048Y-107833333D01*
X104714286Y-107880952D01*
X104761905Y-107928571D01*
X104809524Y-108023810D01*
X104809524Y-108261905D01*
X104761905Y-108357143D01*
X104714286Y-108404762D01*
X104619048Y-108452381D01*
X104333333Y-108452381D01*
X104238095Y-108404762D01*
X104190476Y-108357143D01*
X105190476Y-107547619D02*
X105238095Y-107500000D01*
X105333333Y-107452381D01*
X105571429Y-107452381D01*
X105666667Y-107500000D01*
X105714286Y-107547619D01*
X105761905Y-107642857D01*
X105761905Y-107738095D01*
X105714286Y-107880952D01*
X105142857Y-108452381D01*
X105761905Y-108452381D01*
X107857143Y-108357143D02*
X107809524Y-108404762D01*
X107666667Y-108452381D01*
X107571429Y-108452381D01*
X107428571Y-108404762D01*
X107333333Y-108309524D01*
X107285714Y-108214286D01*
X107238095Y-108023810D01*
X107238095Y-107880952D01*
X107285714Y-107690476D01*
X107333333Y-107595238D01*
X107428571Y-107500000D01*
X107571429Y-107452381D01*
X107666667Y-107452381D01*
X107809524Y-107500000D01*
X107857143Y-107547619D01*
X108190476Y-107452381D02*
X108809524Y-107452381D01*
X108476190Y-107833333D01*
X108619048Y-107833333D01*
X108714286Y-107880952D01*
X108761905Y-107928571D01*
X108809524Y-108023810D01*
X108809524Y-108261905D01*
X108761905Y-108357143D01*
X108714286Y-108404762D01*
X108619048Y-108452381D01*
X108333333Y-108452381D01*
X108238095Y-108404762D01*
X108190476Y-108357143D01*
X109142857Y-107452381D02*
X109761905Y-107452381D01*
X109428571Y-107833333D01*
X109571429Y-107833333D01*
X109666667Y-107880952D01*
X109714286Y-107928571D01*
X109761905Y-108023810D01*
X109761905Y-108261905D01*
X109714286Y-108357143D01*
X109666667Y-108404762D01*
X109571429Y-108452381D01*
X109285714Y-108452381D01*
X109190476Y-108404762D01*
X109142857Y-108357143D01*
X126607143Y-112892857D02*
X126654762Y-112940476D01*
X126702381Y-113083333D01*
X126702381Y-113178571D01*
X126654762Y-113321429D01*
X126559524Y-113416667D01*
X126464286Y-113464286D01*
X126273810Y-113511905D01*
X126130952Y-113511905D01*
X125940476Y-113464286D01*
X125845238Y-113416667D01*
X125750000Y-113321429D01*
X125702381Y-113178571D01*
X125702381Y-113083333D01*
X125750000Y-112940476D01*
X125797619Y-112892857D01*
X125702381Y-112559524D02*
X125702381Y-111940476D01*
X126083333Y-112273810D01*
X126083333Y-112130952D01*
X126130952Y-112035714D01*
X126178571Y-111988095D01*
X126273810Y-111940476D01*
X126511905Y-111940476D01*
X126607143Y-111988095D01*
X126654762Y-112035714D01*
X126702381Y-112130952D01*
X126702381Y-112416667D01*
X126654762Y-112511905D01*
X126607143Y-112559524D01*
X126035714Y-111083333D02*
X126702381Y-111083333D01*
X125654762Y-111321429D02*
X126369048Y-111559524D01*
X126369048Y-110940476D01*
X75535714Y-114514286D02*
X75573810Y-114552381D01*
X75611905Y-114666667D01*
X75611905Y-114742857D01*
X75573810Y-114857143D01*
X75497619Y-114933334D01*
X75421429Y-114971429D01*
X75269048Y-115009524D01*
X75154762Y-115009524D01*
X75002381Y-114971429D01*
X74926190Y-114933334D01*
X74850000Y-114857143D01*
X74811905Y-114742857D01*
X74811905Y-114666667D01*
X74850000Y-114552381D01*
X74888095Y-114514286D01*
X74811905Y-114247619D02*
X74811905Y-113752381D01*
X75116667Y-114019048D01*
X75116667Y-113904762D01*
X75154762Y-113828572D01*
X75192857Y-113790476D01*
X75269048Y-113752381D01*
X75459524Y-113752381D01*
X75535714Y-113790476D01*
X75573810Y-113828572D01*
X75611905Y-113904762D01*
X75611905Y-114133334D01*
X75573810Y-114209524D01*
X75535714Y-114247619D01*
X74811905Y-113028571D02*
X74811905Y-113409524D01*
X75192857Y-113447619D01*
X75154762Y-113409524D01*
X75116667Y-113333333D01*
X75116667Y-113142857D01*
X75154762Y-113066667D01*
X75192857Y-113028571D01*
X75269048Y-112990476D01*
X75459524Y-112990476D01*
X75535714Y-113028571D01*
X75573810Y-113066667D01*
X75611905Y-113142857D01*
X75611905Y-113333333D01*
X75573810Y-113409524D01*
X75535714Y-113447619D01*
X97793454Y-114813223D02*
X97698216Y-114765604D01*
X97602978Y-114670366D01*
X97460121Y-114527509D01*
X97364882Y-114479890D01*
X97269644Y-114479890D01*
X97317263Y-114717985D02*
X97222025Y-114670366D01*
X97126787Y-114575128D01*
X97079168Y-114384652D01*
X97079168Y-114051318D01*
X97126787Y-113860842D01*
X97222025Y-113765604D01*
X97317263Y-113717985D01*
X97507740Y-113717985D01*
X97602978Y-113765604D01*
X97698216Y-113860842D01*
X97745835Y-114051318D01*
X97745835Y-114384652D01*
X97698216Y-114575128D01*
X97602978Y-114670366D01*
X97507740Y-114717985D01*
X97317263Y-114717985D01*
X98698216Y-114717985D02*
X98126787Y-114717985D01*
X98412501Y-114717985D02*
X98412501Y-113717985D01*
X98317263Y-113860842D01*
X98222025Y-113956080D01*
X98126787Y-114003699D01*
X102202381Y-112416666D02*
X101726190Y-112750000D01*
X102202381Y-112988095D02*
X101202381Y-112988095D01*
X101202381Y-112607142D01*
X101250000Y-112511904D01*
X101297619Y-112464285D01*
X101392857Y-112416666D01*
X101535714Y-112416666D01*
X101630952Y-112464285D01*
X101678571Y-112511904D01*
X101726190Y-112607142D01*
X101726190Y-112988095D01*
X101202381Y-111511904D02*
X101202381Y-111988095D01*
X101678571Y-112035714D01*
X101630952Y-111988095D01*
X101583333Y-111892857D01*
X101583333Y-111654761D01*
X101630952Y-111559523D01*
X101678571Y-111511904D01*
X101773810Y-111464285D01*
X102011905Y-111464285D01*
X102107143Y-111511904D01*
X102154762Y-111559523D01*
X102202381Y-111654761D01*
X102202381Y-111892857D01*
X102154762Y-111988095D01*
X102107143Y-112035714D01*
X102202381Y-109916666D02*
X101726190Y-110250000D01*
X102202381Y-110488095D02*
X101202381Y-110488095D01*
X101202381Y-110107142D01*
X101250000Y-110011904D01*
X101297619Y-109964285D01*
X101392857Y-109916666D01*
X101535714Y-109916666D01*
X101630952Y-109964285D01*
X101678571Y-110011904D01*
X101726190Y-110107142D01*
X101726190Y-110488095D01*
X101202381Y-109059523D02*
X101202381Y-109250000D01*
X101250000Y-109345238D01*
X101297619Y-109392857D01*
X101440476Y-109488095D01*
X101630952Y-109535714D01*
X102011905Y-109535714D01*
X102107143Y-109488095D01*
X102154762Y-109440476D01*
X102202381Y-109345238D01*
X102202381Y-109154761D01*
X102154762Y-109059523D01*
X102107143Y-109011904D01*
X102011905Y-108964285D01*
X101773810Y-108964285D01*
X101678571Y-109011904D01*
X101630952Y-109059523D01*
X101583333Y-109154761D01*
X101583333Y-109345238D01*
X101630952Y-109440476D01*
X101678571Y-109488095D01*
X101773810Y-109535714D01*
X67288095Y-109052381D02*
X67288095Y-109861905D01*
X67335714Y-109957143D01*
X67383333Y-110004762D01*
X67478571Y-110052381D01*
X67669048Y-110052381D01*
X67764286Y-110004762D01*
X67811905Y-109957143D01*
X67859524Y-109861905D01*
X67859524Y-109052381D01*
X68811905Y-109052381D02*
X68335714Y-109052381D01*
X68288095Y-109528571D01*
X68335714Y-109480952D01*
X68430952Y-109433333D01*
X68669048Y-109433333D01*
X68764286Y-109480952D01*
X68811905Y-109528571D01*
X68859524Y-109623810D01*
X68859524Y-109861905D01*
X68811905Y-109957143D01*
X68764286Y-110004762D01*
X68669048Y-110052381D01*
X68430952Y-110052381D01*
X68335714Y-110004762D01*
X68288095Y-109957143D01*
X90202381Y-69761905D02*
X91011905Y-69761905D01*
X91107143Y-69714286D01*
X91154762Y-69666667D01*
X91202381Y-69571429D01*
X91202381Y-69380952D01*
X91154762Y-69285714D01*
X91107143Y-69238095D01*
X91011905Y-69190476D01*
X90202381Y-69190476D01*
X90202381Y-68285714D02*
X90202381Y-68476191D01*
X90250000Y-68571429D01*
X90297619Y-68619048D01*
X90440476Y-68714286D01*
X90630952Y-68761905D01*
X91011905Y-68761905D01*
X91107143Y-68714286D01*
X91154762Y-68666667D01*
X91202381Y-68571429D01*
X91202381Y-68380952D01*
X91154762Y-68285714D01*
X91107143Y-68238095D01*
X91011905Y-68190476D01*
X90773810Y-68190476D01*
X90678571Y-68238095D01*
X90630952Y-68285714D01*
X90583333Y-68380952D01*
X90583333Y-68571429D01*
X90630952Y-68666667D01*
X90678571Y-68714286D01*
X90773810Y-68761905D01*
X130438095Y-89902381D02*
X130438095Y-90711905D01*
X130485714Y-90807143D01*
X130533333Y-90854762D01*
X130628571Y-90902381D01*
X130819048Y-90902381D01*
X130914286Y-90854762D01*
X130961905Y-90807143D01*
X131009524Y-90711905D01*
X131009524Y-89902381D01*
X131390476Y-89902381D02*
X132057143Y-89902381D01*
X131628571Y-90902381D01*
X69702381Y-120988095D02*
X70511905Y-120988095D01*
X70607143Y-120940476D01*
X70654762Y-120892857D01*
X70702381Y-120797619D01*
X70702381Y-120607142D01*
X70654762Y-120511904D01*
X70607143Y-120464285D01*
X70511905Y-120416666D01*
X69702381Y-120416666D01*
X70702381Y-119416666D02*
X70702381Y-119988095D01*
X70702381Y-119702381D02*
X69702381Y-119702381D01*
X69845238Y-119797619D01*
X69940476Y-119892857D01*
X69988095Y-119988095D01*
X70702381Y-118464285D02*
X70702381Y-119035714D01*
X70702381Y-118750000D02*
X69702381Y-118750000D01*
X69845238Y-118845238D01*
X69940476Y-118940476D01*
X69988095Y-119035714D01*
X75083334Y-132242833D02*
X74750000Y-131766642D01*
X74511905Y-132242833D02*
X74511905Y-131242833D01*
X74892858Y-131242833D01*
X74988096Y-131290452D01*
X75035715Y-131338071D01*
X75083334Y-131433309D01*
X75083334Y-131576166D01*
X75035715Y-131671404D01*
X74988096Y-131719023D01*
X74892858Y-131766642D01*
X74511905Y-131766642D01*
X75654762Y-131671404D02*
X75559524Y-131623785D01*
X75511905Y-131576166D01*
X75464286Y-131480928D01*
X75464286Y-131433309D01*
X75511905Y-131338071D01*
X75559524Y-131290452D01*
X75654762Y-131242833D01*
X75845239Y-131242833D01*
X75940477Y-131290452D01*
X75988096Y-131338071D01*
X76035715Y-131433309D01*
X76035715Y-131480928D01*
X75988096Y-131576166D01*
X75940477Y-131623785D01*
X75845239Y-131671404D01*
X75654762Y-131671404D01*
X75559524Y-131719023D01*
X75511905Y-131766642D01*
X75464286Y-131861881D01*
X75464286Y-132052357D01*
X75511905Y-132147595D01*
X75559524Y-132195214D01*
X75654762Y-132242833D01*
X75845239Y-132242833D01*
X75940477Y-132195214D01*
X75988096Y-132147595D01*
X76035715Y-132052357D01*
X76035715Y-131861881D01*
X75988096Y-131766642D01*
X75940477Y-131719023D01*
X75845239Y-131671404D01*
X74202381Y-64142857D02*
X73726190Y-64476191D01*
X74202381Y-64714286D02*
X73202381Y-64714286D01*
X73202381Y-64333333D01*
X73250000Y-64238095D01*
X73297619Y-64190476D01*
X73392857Y-64142857D01*
X73535714Y-64142857D01*
X73630952Y-64190476D01*
X73678571Y-64238095D01*
X73726190Y-64333333D01*
X73726190Y-64714286D01*
X74202381Y-63190476D02*
X74202381Y-63761905D01*
X74202381Y-63476191D02*
X73202381Y-63476191D01*
X73345238Y-63571429D01*
X73440476Y-63666667D01*
X73488095Y-63761905D01*
X73202381Y-62857143D02*
X73202381Y-62238095D01*
X73583333Y-62571429D01*
X73583333Y-62428571D01*
X73630952Y-62333333D01*
X73678571Y-62285714D01*
X73773810Y-62238095D01*
X74011905Y-62238095D01*
X74107143Y-62285714D01*
X74154762Y-62333333D01*
X74202381Y-62428571D01*
X74202381Y-62714286D01*
X74154762Y-62809524D01*
X74107143Y-62857143D01*
X74357143Y-75952381D02*
X74023809Y-75476190D01*
X73785714Y-75952381D02*
X73785714Y-74952381D01*
X74166667Y-74952381D01*
X74261905Y-75000000D01*
X74309524Y-75047619D01*
X74357143Y-75142857D01*
X74357143Y-75285714D01*
X74309524Y-75380952D01*
X74261905Y-75428571D01*
X74166667Y-75476190D01*
X73785714Y-75476190D01*
X75309524Y-75952381D02*
X74738095Y-75952381D01*
X75023809Y-75952381D02*
X75023809Y-74952381D01*
X74928571Y-75095238D01*
X74833333Y-75190476D01*
X74738095Y-75238095D01*
X75642857Y-74952381D02*
X76309524Y-74952381D01*
X75880952Y-75952381D01*
X78107143Y-132202381D02*
X77773809Y-131726190D01*
X77535714Y-132202381D02*
X77535714Y-131202381D01*
X77916667Y-131202381D01*
X78011905Y-131250000D01*
X78059524Y-131297619D01*
X78107143Y-131392857D01*
X78107143Y-131535714D01*
X78059524Y-131630952D01*
X78011905Y-131678571D01*
X77916667Y-131726190D01*
X77535714Y-131726190D01*
X78440476Y-131202381D02*
X79059524Y-131202381D01*
X78726190Y-131583333D01*
X78869048Y-131583333D01*
X78964286Y-131630952D01*
X79011905Y-131678571D01*
X79059524Y-131773810D01*
X79059524Y-132011905D01*
X79011905Y-132107143D01*
X78964286Y-132154762D01*
X78869048Y-132202381D01*
X78583333Y-132202381D01*
X78488095Y-132154762D01*
X78440476Y-132107143D01*
X79916667Y-131535714D02*
X79916667Y-132202381D01*
X79678571Y-131154762D02*
X79440476Y-131869048D01*
X80059524Y-131869048D01*
X71060019Y-132242833D02*
X70726685Y-131766642D01*
X70488590Y-132242833D02*
X70488590Y-131242833D01*
X70869543Y-131242833D01*
X70964781Y-131290452D01*
X71012400Y-131338071D01*
X71060019Y-131433309D01*
X71060019Y-131576166D01*
X71012400Y-131671404D01*
X70964781Y-131719023D01*
X70869543Y-131766642D01*
X70488590Y-131766642D01*
X71393352Y-131242833D02*
X72012400Y-131242833D01*
X71679066Y-131623785D01*
X71821924Y-131623785D01*
X71917162Y-131671404D01*
X71964781Y-131719023D01*
X72012400Y-131814262D01*
X72012400Y-132052357D01*
X71964781Y-132147595D01*
X71917162Y-132195214D01*
X71821924Y-132242833D01*
X71536209Y-132242833D01*
X71440971Y-132195214D01*
X71393352Y-132147595D01*
X72917162Y-131242833D02*
X72440971Y-131242833D01*
X72393352Y-131719023D01*
X72440971Y-131671404D01*
X72536209Y-131623785D01*
X72774305Y-131623785D01*
X72869543Y-131671404D01*
X72917162Y-131719023D01*
X72964781Y-131814262D01*
X72964781Y-132052357D01*
X72917162Y-132147595D01*
X72869543Y-132195214D01*
X72774305Y-132242833D01*
X72536209Y-132242833D01*
X72440971Y-132195214D01*
X72393352Y-132147595D01*
X71047619Y-91345238D02*
X71000000Y-91440476D01*
X70904762Y-91535714D01*
X70761905Y-91678571D01*
X70714286Y-91773810D01*
X70714286Y-91869048D01*
X70952381Y-91821429D02*
X70904762Y-91916667D01*
X70809524Y-92011905D01*
X70619048Y-92059524D01*
X70285714Y-92059524D01*
X70095238Y-92011905D01*
X70000000Y-91916667D01*
X69952381Y-91821429D01*
X69952381Y-91630952D01*
X70000000Y-91535714D01*
X70095238Y-91440476D01*
X70285714Y-91392857D01*
X70619048Y-91392857D01*
X70809524Y-91440476D01*
X70904762Y-91535714D01*
X70952381Y-91630952D01*
X70952381Y-91821429D01*
X70047619Y-91011905D02*
X70000000Y-90964286D01*
X69952381Y-90869048D01*
X69952381Y-90630952D01*
X70000000Y-90535714D01*
X70047619Y-90488095D01*
X70142857Y-90440476D01*
X70238095Y-90440476D01*
X70380952Y-90488095D01*
X70952381Y-91059524D01*
X70952381Y-90440476D01*
X112904762Y-71047619D02*
X112809524Y-71000000D01*
X112714286Y-70904762D01*
X112571429Y-70761905D01*
X112476190Y-70714286D01*
X112380952Y-70714286D01*
X112428571Y-70952381D02*
X112333333Y-70904762D01*
X112238095Y-70809524D01*
X112190476Y-70619048D01*
X112190476Y-70285714D01*
X112238095Y-70095238D01*
X112333333Y-70000000D01*
X112428571Y-69952381D01*
X112619048Y-69952381D01*
X112714286Y-70000000D01*
X112809524Y-70095238D01*
X112857143Y-70285714D01*
X112857143Y-70619048D01*
X112809524Y-70809524D01*
X112714286Y-70904762D01*
X112619048Y-70952381D01*
X112428571Y-70952381D01*
X113190476Y-69952381D02*
X113809524Y-69952381D01*
X113476190Y-70333333D01*
X113619048Y-70333333D01*
X113714286Y-70380952D01*
X113761905Y-70428571D01*
X113809524Y-70523810D01*
X113809524Y-70761905D01*
X113761905Y-70857143D01*
X113714286Y-70904762D01*
X113619048Y-70952381D01*
X113333333Y-70952381D01*
X113238095Y-70904762D01*
X113190476Y-70857143D01*
X128704762Y-113548379D02*
X128609524Y-113500760D01*
X128514286Y-113405522D01*
X128371429Y-113262665D01*
X128276190Y-113215046D01*
X128180952Y-113215046D01*
X128228571Y-113453141D02*
X128133333Y-113405522D01*
X128038095Y-113310284D01*
X127990476Y-113119808D01*
X127990476Y-112786474D01*
X128038095Y-112595998D01*
X128133333Y-112500760D01*
X128228571Y-112453141D01*
X128419048Y-112453141D01*
X128514286Y-112500760D01*
X128609524Y-112595998D01*
X128657143Y-112786474D01*
X128657143Y-113119808D01*
X128609524Y-113310284D01*
X128514286Y-113405522D01*
X128419048Y-113453141D01*
X128228571Y-113453141D01*
X129514286Y-112786474D02*
X129514286Y-113453141D01*
X129276190Y-112405522D02*
X129038095Y-113119808D01*
X129657143Y-113119808D01*
X118790415Y-72702381D02*
X118457081Y-72226190D01*
X118218986Y-72702381D02*
X118218986Y-71702381D01*
X118599939Y-71702381D01*
X118695177Y-71750000D01*
X118742796Y-71797619D01*
X118790415Y-71892857D01*
X118790415Y-72035714D01*
X118742796Y-72130952D01*
X118695177Y-72178571D01*
X118599939Y-72226190D01*
X118218986Y-72226190D01*
X119171367Y-71797619D02*
X119218986Y-71750000D01*
X119314224Y-71702381D01*
X119552320Y-71702381D01*
X119647558Y-71750000D01*
X119695177Y-71797619D01*
X119742796Y-71892857D01*
X119742796Y-71988095D01*
X119695177Y-72130952D01*
X119123748Y-72702381D01*
X119742796Y-72702381D01*
X120361843Y-71702381D02*
X120457082Y-71702381D01*
X120552320Y-71750000D01*
X120599939Y-71797619D01*
X120647558Y-71892857D01*
X120695177Y-72083333D01*
X120695177Y-72321429D01*
X120647558Y-72511905D01*
X120599939Y-72607143D01*
X120552320Y-72654762D01*
X120457082Y-72702381D01*
X120361843Y-72702381D01*
X120266605Y-72654762D01*
X120218986Y-72607143D01*
X120171367Y-72511905D01*
X120123748Y-72321429D01*
X120123748Y-72083333D01*
X120171367Y-71892857D01*
X120218986Y-71797619D01*
X120266605Y-71750000D01*
X120361843Y-71702381D01*
X118790415Y-74702381D02*
X118457081Y-74226190D01*
X118218986Y-74702381D02*
X118218986Y-73702381D01*
X118599939Y-73702381D01*
X118695177Y-73750000D01*
X118742796Y-73797619D01*
X118790415Y-73892857D01*
X118790415Y-74035714D01*
X118742796Y-74130952D01*
X118695177Y-74178571D01*
X118599939Y-74226190D01*
X118218986Y-74226190D01*
X119171367Y-73797619D02*
X119218986Y-73750000D01*
X119314224Y-73702381D01*
X119552320Y-73702381D01*
X119647558Y-73750000D01*
X119695177Y-73797619D01*
X119742796Y-73892857D01*
X119742796Y-73988095D01*
X119695177Y-74130952D01*
X119123748Y-74702381D01*
X119742796Y-74702381D01*
X120695177Y-74702381D02*
X120123748Y-74702381D01*
X120409462Y-74702381D02*
X120409462Y-73702381D01*
X120314224Y-73845238D01*
X120218986Y-73940476D01*
X120123748Y-73988095D01*
X118790415Y-78702381D02*
X118457081Y-78226190D01*
X118218986Y-78702381D02*
X118218986Y-77702381D01*
X118599939Y-77702381D01*
X118695177Y-77750000D01*
X118742796Y-77797619D01*
X118790415Y-77892857D01*
X118790415Y-78035714D01*
X118742796Y-78130952D01*
X118695177Y-78178571D01*
X118599939Y-78226190D01*
X118218986Y-78226190D01*
X119171367Y-77797619D02*
X119218986Y-77750000D01*
X119314224Y-77702381D01*
X119552320Y-77702381D01*
X119647558Y-77750000D01*
X119695177Y-77797619D01*
X119742796Y-77892857D01*
X119742796Y-77988095D01*
X119695177Y-78130952D01*
X119123748Y-78702381D01*
X119742796Y-78702381D01*
X120123748Y-77797619D02*
X120171367Y-77750000D01*
X120266605Y-77702381D01*
X120504701Y-77702381D01*
X120599939Y-77750000D01*
X120647558Y-77797619D01*
X120695177Y-77892857D01*
X120695177Y-77988095D01*
X120647558Y-78130952D01*
X120076129Y-78702381D01*
X120695177Y-78702381D01*
X118790415Y-80702381D02*
X118457081Y-80226190D01*
X118218986Y-80702381D02*
X118218986Y-79702381D01*
X118599939Y-79702381D01*
X118695177Y-79750000D01*
X118742796Y-79797619D01*
X118790415Y-79892857D01*
X118790415Y-80035714D01*
X118742796Y-80130952D01*
X118695177Y-80178571D01*
X118599939Y-80226190D01*
X118218986Y-80226190D01*
X119171367Y-79797619D02*
X119218986Y-79750000D01*
X119314224Y-79702381D01*
X119552320Y-79702381D01*
X119647558Y-79750000D01*
X119695177Y-79797619D01*
X119742796Y-79892857D01*
X119742796Y-79988095D01*
X119695177Y-80130952D01*
X119123748Y-80702381D01*
X119742796Y-80702381D01*
X120076129Y-79702381D02*
X120695177Y-79702381D01*
X120361843Y-80083333D01*
X120504701Y-80083333D01*
X120599939Y-80130952D01*
X120647558Y-80178571D01*
X120695177Y-80273810D01*
X120695177Y-80511905D01*
X120647558Y-80607143D01*
X120599939Y-80654762D01*
X120504701Y-80702381D01*
X120218986Y-80702381D01*
X120123748Y-80654762D01*
X120076129Y-80607143D01*
X109040415Y-72702381D02*
X108707081Y-72226190D01*
X108468986Y-72702381D02*
X108468986Y-71702381D01*
X108849939Y-71702381D01*
X108945177Y-71750000D01*
X108992796Y-71797619D01*
X109040415Y-71892857D01*
X109040415Y-72035714D01*
X108992796Y-72130952D01*
X108945177Y-72178571D01*
X108849939Y-72226190D01*
X108468986Y-72226190D01*
X109421367Y-71797619D02*
X109468986Y-71750000D01*
X109564224Y-71702381D01*
X109802320Y-71702381D01*
X109897558Y-71750000D01*
X109945177Y-71797619D01*
X109992796Y-71892857D01*
X109992796Y-71988095D01*
X109945177Y-72130952D01*
X109373748Y-72702381D01*
X109992796Y-72702381D01*
X110849939Y-72035714D02*
X110849939Y-72702381D01*
X110611843Y-71654762D02*
X110373748Y-72369048D01*
X110992796Y-72369048D01*
X109040415Y-74702381D02*
X108707081Y-74226190D01*
X108468986Y-74702381D02*
X108468986Y-73702381D01*
X108849939Y-73702381D01*
X108945177Y-73750000D01*
X108992796Y-73797619D01*
X109040415Y-73892857D01*
X109040415Y-74035714D01*
X108992796Y-74130952D01*
X108945177Y-74178571D01*
X108849939Y-74226190D01*
X108468986Y-74226190D01*
X109421367Y-73797619D02*
X109468986Y-73750000D01*
X109564224Y-73702381D01*
X109802320Y-73702381D01*
X109897558Y-73750000D01*
X109945177Y-73797619D01*
X109992796Y-73892857D01*
X109992796Y-73988095D01*
X109945177Y-74130952D01*
X109373748Y-74702381D01*
X109992796Y-74702381D01*
X110897558Y-73702381D02*
X110421367Y-73702381D01*
X110373748Y-74178571D01*
X110421367Y-74130952D01*
X110516605Y-74083333D01*
X110754701Y-74083333D01*
X110849939Y-74130952D01*
X110897558Y-74178571D01*
X110945177Y-74273810D01*
X110945177Y-74511905D01*
X110897558Y-74607143D01*
X110849939Y-74654762D01*
X110754701Y-74702381D01*
X110516605Y-74702381D01*
X110421367Y-74654762D01*
X110373748Y-74607143D01*
X110861905Y-79264286D02*
X110480952Y-79530953D01*
X110861905Y-79721429D02*
X110061905Y-79721429D01*
X110061905Y-79416667D01*
X110100000Y-79340476D01*
X110138095Y-79302381D01*
X110214286Y-79264286D01*
X110328571Y-79264286D01*
X110404762Y-79302381D01*
X110442857Y-79340476D01*
X110480952Y-79416667D01*
X110480952Y-79721429D01*
X110138095Y-78959524D02*
X110100000Y-78921429D01*
X110061905Y-78845238D01*
X110061905Y-78654762D01*
X110100000Y-78578572D01*
X110138095Y-78540476D01*
X110214286Y-78502381D01*
X110290476Y-78502381D01*
X110404762Y-78540476D01*
X110861905Y-78997619D01*
X110861905Y-78502381D01*
X110061905Y-77816667D02*
X110061905Y-77969048D01*
X110100000Y-78045238D01*
X110138095Y-78083333D01*
X110252381Y-78159524D01*
X110404762Y-78197619D01*
X110709524Y-78197619D01*
X110785714Y-78159524D01*
X110823810Y-78121429D01*
X110861905Y-78045238D01*
X110861905Y-77892857D01*
X110823810Y-77816667D01*
X110785714Y-77778571D01*
X110709524Y-77740476D01*
X110519048Y-77740476D01*
X110442857Y-77778571D01*
X110404762Y-77816667D01*
X110366667Y-77892857D01*
X110366667Y-78045238D01*
X110404762Y-78121429D01*
X110442857Y-78159524D01*
X110519048Y-78197619D01*
X109040415Y-81202381D02*
X108707081Y-80726190D01*
X108468986Y-81202381D02*
X108468986Y-80202381D01*
X108849939Y-80202381D01*
X108945177Y-80250000D01*
X108992796Y-80297619D01*
X109040415Y-80392857D01*
X109040415Y-80535714D01*
X108992796Y-80630952D01*
X108945177Y-80678571D01*
X108849939Y-80726190D01*
X108468986Y-80726190D01*
X109421367Y-80297619D02*
X109468986Y-80250000D01*
X109564224Y-80202381D01*
X109802320Y-80202381D01*
X109897558Y-80250000D01*
X109945177Y-80297619D01*
X109992796Y-80392857D01*
X109992796Y-80488095D01*
X109945177Y-80630952D01*
X109373748Y-81202381D01*
X109992796Y-81202381D01*
X110326129Y-80202381D02*
X110992796Y-80202381D01*
X110564224Y-81202381D01*
X70952381Y-89142857D02*
X70476190Y-89476191D01*
X70952381Y-89714286D02*
X69952381Y-89714286D01*
X69952381Y-89333333D01*
X70000000Y-89238095D01*
X70047619Y-89190476D01*
X70142857Y-89142857D01*
X70285714Y-89142857D01*
X70380952Y-89190476D01*
X70428571Y-89238095D01*
X70476190Y-89333333D01*
X70476190Y-89714286D01*
X70047619Y-88761905D02*
X70000000Y-88714286D01*
X69952381Y-88619048D01*
X69952381Y-88380952D01*
X70000000Y-88285714D01*
X70047619Y-88238095D01*
X70142857Y-88190476D01*
X70238095Y-88190476D01*
X70380952Y-88238095D01*
X70952381Y-88809524D01*
X70952381Y-88190476D01*
X70380952Y-87619048D02*
X70333333Y-87714286D01*
X70285714Y-87761905D01*
X70190476Y-87809524D01*
X70142857Y-87809524D01*
X70047619Y-87761905D01*
X70000000Y-87714286D01*
X69952381Y-87619048D01*
X69952381Y-87428571D01*
X70000000Y-87333333D01*
X70047619Y-87285714D01*
X70142857Y-87238095D01*
X70190476Y-87238095D01*
X70285714Y-87285714D01*
X70333333Y-87333333D01*
X70380952Y-87428571D01*
X70380952Y-87619048D01*
X70428571Y-87714286D01*
X70476190Y-87761905D01*
X70571429Y-87809524D01*
X70761905Y-87809524D01*
X70857143Y-87761905D01*
X70904762Y-87714286D01*
X70952381Y-87619048D01*
X70952381Y-87428571D01*
X70904762Y-87333333D01*
X70857143Y-87285714D01*
X70761905Y-87238095D01*
X70571429Y-87238095D01*
X70476190Y-87285714D01*
X70428571Y-87333333D01*
X70380952Y-87428571D01*
X115357143Y-70902381D02*
X115023809Y-70426190D01*
X114785714Y-70902381D02*
X114785714Y-69902381D01*
X115166667Y-69902381D01*
X115261905Y-69950000D01*
X115309524Y-69997619D01*
X115357143Y-70092857D01*
X115357143Y-70235714D01*
X115309524Y-70330952D01*
X115261905Y-70378571D01*
X115166667Y-70426190D01*
X114785714Y-70426190D01*
X115738095Y-69997619D02*
X115785714Y-69950000D01*
X115880952Y-69902381D01*
X116119048Y-69902381D01*
X116214286Y-69950000D01*
X116261905Y-69997619D01*
X116309524Y-70092857D01*
X116309524Y-70188095D01*
X116261905Y-70330952D01*
X115690476Y-70902381D01*
X116309524Y-70902381D01*
X116785714Y-70902381D02*
X116976190Y-70902381D01*
X117071429Y-70854762D01*
X117119048Y-70807143D01*
X117214286Y-70664286D01*
X117261905Y-70473810D01*
X117261905Y-70092857D01*
X117214286Y-69997619D01*
X117166667Y-69950000D01*
X117071429Y-69902381D01*
X116880952Y-69902381D01*
X116785714Y-69950000D01*
X116738095Y-69997619D01*
X116690476Y-70092857D01*
X116690476Y-70330952D01*
X116738095Y-70426190D01*
X116785714Y-70473810D01*
X116880952Y-70521429D01*
X117071429Y-70521429D01*
X117166667Y-70473810D01*
X117214286Y-70426190D01*
X117261905Y-70330952D01*
X131357143Y-118452381D02*
X131023809Y-117976190D01*
X130785714Y-118452381D02*
X130785714Y-117452381D01*
X131166667Y-117452381D01*
X131261905Y-117500000D01*
X131309524Y-117547619D01*
X131357143Y-117642857D01*
X131357143Y-117785714D01*
X131309524Y-117880952D01*
X131261905Y-117928571D01*
X131166667Y-117976190D01*
X130785714Y-117976190D01*
X131690476Y-117452381D02*
X132309524Y-117452381D01*
X131976190Y-117833333D01*
X132119048Y-117833333D01*
X132214286Y-117880952D01*
X132261905Y-117928571D01*
X132309524Y-118023810D01*
X132309524Y-118261905D01*
X132261905Y-118357143D01*
X132214286Y-118404762D01*
X132119048Y-118452381D01*
X131833333Y-118452381D01*
X131738095Y-118404762D01*
X131690476Y-118357143D01*
X132928571Y-117452381D02*
X133023810Y-117452381D01*
X133119048Y-117500000D01*
X133166667Y-117547619D01*
X133214286Y-117642857D01*
X133261905Y-117833333D01*
X133261905Y-118071429D01*
X133214286Y-118261905D01*
X133166667Y-118357143D01*
X133119048Y-118404762D01*
X133023810Y-118452381D01*
X132928571Y-118452381D01*
X132833333Y-118404762D01*
X132785714Y-118357143D01*
X132738095Y-118261905D01*
X132690476Y-118071429D01*
X132690476Y-117833333D01*
X132738095Y-117642857D01*
X132785714Y-117547619D01*
X132833333Y-117500000D01*
X132928571Y-117452381D01*
X70952381Y-94642857D02*
X70476190Y-94976191D01*
X70952381Y-95214286D02*
X69952381Y-95214286D01*
X69952381Y-94833333D01*
X70000000Y-94738095D01*
X70047619Y-94690476D01*
X70142857Y-94642857D01*
X70285714Y-94642857D01*
X70380952Y-94690476D01*
X70428571Y-94738095D01*
X70476190Y-94833333D01*
X70476190Y-95214286D01*
X69952381Y-94309524D02*
X69952381Y-93690476D01*
X70333333Y-94023810D01*
X70333333Y-93880952D01*
X70380952Y-93785714D01*
X70428571Y-93738095D01*
X70523810Y-93690476D01*
X70761905Y-93690476D01*
X70857143Y-93738095D01*
X70904762Y-93785714D01*
X70952381Y-93880952D01*
X70952381Y-94166667D01*
X70904762Y-94261905D01*
X70857143Y-94309524D01*
X70952381Y-92738095D02*
X70952381Y-93309524D01*
X70952381Y-93023810D02*
X69952381Y-93023810D01*
X70095238Y-93119048D01*
X70190476Y-93214286D01*
X70238095Y-93309524D01*
X109357143Y-70702381D02*
X109023809Y-70226190D01*
X108785714Y-70702381D02*
X108785714Y-69702381D01*
X109166667Y-69702381D01*
X109261905Y-69750000D01*
X109309524Y-69797619D01*
X109357143Y-69892857D01*
X109357143Y-70035714D01*
X109309524Y-70130952D01*
X109261905Y-70178571D01*
X109166667Y-70226190D01*
X108785714Y-70226190D01*
X109690476Y-69702381D02*
X110309524Y-69702381D01*
X109976190Y-70083333D01*
X110119048Y-70083333D01*
X110214286Y-70130952D01*
X110261905Y-70178571D01*
X110309524Y-70273810D01*
X110309524Y-70511905D01*
X110261905Y-70607143D01*
X110214286Y-70654762D01*
X110119048Y-70702381D01*
X109833333Y-70702381D01*
X109738095Y-70654762D01*
X109690476Y-70607143D01*
X110690476Y-69797619D02*
X110738095Y-69750000D01*
X110833333Y-69702381D01*
X111071429Y-69702381D01*
X111166667Y-69750000D01*
X111214286Y-69797619D01*
X111261905Y-69892857D01*
X111261905Y-69988095D01*
X111214286Y-70130952D01*
X110642857Y-70702381D01*
X111261905Y-70702381D01*
X131357143Y-108702381D02*
X131023809Y-108226190D01*
X130785714Y-108702381D02*
X130785714Y-107702381D01*
X131166667Y-107702381D01*
X131261905Y-107750000D01*
X131309524Y-107797619D01*
X131357143Y-107892857D01*
X131357143Y-108035714D01*
X131309524Y-108130952D01*
X131261905Y-108178571D01*
X131166667Y-108226190D01*
X130785714Y-108226190D01*
X131690476Y-107702381D02*
X132309524Y-107702381D01*
X131976190Y-108083333D01*
X132119048Y-108083333D01*
X132214286Y-108130952D01*
X132261905Y-108178571D01*
X132309524Y-108273810D01*
X132309524Y-108511905D01*
X132261905Y-108607143D01*
X132214286Y-108654762D01*
X132119048Y-108702381D01*
X131833333Y-108702381D01*
X131738095Y-108654762D01*
X131690476Y-108607143D01*
X132642857Y-107702381D02*
X133261905Y-107702381D01*
X132928571Y-108083333D01*
X133071429Y-108083333D01*
X133166667Y-108130952D01*
X133214286Y-108178571D01*
X133261905Y-108273810D01*
X133261905Y-108511905D01*
X133214286Y-108607143D01*
X133166667Y-108654762D01*
X133071429Y-108702381D01*
X132785714Y-108702381D01*
X132690476Y-108654762D01*
X132642857Y-108607143D01*
X77357143Y-75952381D02*
X77023809Y-75476190D01*
X76785714Y-75952381D02*
X76785714Y-74952381D01*
X77166667Y-74952381D01*
X77261905Y-75000000D01*
X77309524Y-75047619D01*
X77357143Y-75142857D01*
X77357143Y-75285714D01*
X77309524Y-75380952D01*
X77261905Y-75428571D01*
X77166667Y-75476190D01*
X76785714Y-75476190D01*
X77690476Y-74952381D02*
X78309524Y-74952381D01*
X77976190Y-75333333D01*
X78119048Y-75333333D01*
X78214286Y-75380952D01*
X78261905Y-75428571D01*
X78309524Y-75523810D01*
X78309524Y-75761905D01*
X78261905Y-75857143D01*
X78214286Y-75904762D01*
X78119048Y-75952381D01*
X77833333Y-75952381D01*
X77738095Y-75904762D01*
X77690476Y-75857143D01*
X79166667Y-74952381D02*
X78976190Y-74952381D01*
X78880952Y-75000000D01*
X78833333Y-75047619D01*
X78738095Y-75190476D01*
X78690476Y-75380952D01*
X78690476Y-75761905D01*
X78738095Y-75857143D01*
X78785714Y-75904762D01*
X78880952Y-75952381D01*
X79071429Y-75952381D01*
X79166667Y-75904762D01*
X79214286Y-75857143D01*
X79261905Y-75761905D01*
X79261905Y-75523810D01*
X79214286Y-75428571D01*
X79166667Y-75380952D01*
X79071429Y-75333333D01*
X78880952Y-75333333D01*
X78785714Y-75380952D01*
X78738095Y-75428571D01*
X78690476Y-75523810D01*
X118790415Y-76702381D02*
X118457081Y-76226190D01*
X118218986Y-76702381D02*
X118218986Y-75702381D01*
X118599939Y-75702381D01*
X118695177Y-75750000D01*
X118742796Y-75797619D01*
X118790415Y-75892857D01*
X118790415Y-76035714D01*
X118742796Y-76130952D01*
X118695177Y-76178571D01*
X118599939Y-76226190D01*
X118218986Y-76226190D01*
X119123748Y-75702381D02*
X119742796Y-75702381D01*
X119409462Y-76083333D01*
X119552320Y-76083333D01*
X119647558Y-76130952D01*
X119695177Y-76178571D01*
X119742796Y-76273810D01*
X119742796Y-76511905D01*
X119695177Y-76607143D01*
X119647558Y-76654762D01*
X119552320Y-76702381D01*
X119266605Y-76702381D01*
X119171367Y-76654762D01*
X119123748Y-76607143D01*
X120076129Y-75702381D02*
X120742796Y-75702381D01*
X120314224Y-76702381D01*
X110861905Y-76764286D02*
X110480952Y-77030953D01*
X110861905Y-77221429D02*
X110061905Y-77221429D01*
X110061905Y-76916667D01*
X110100000Y-76840476D01*
X110138095Y-76802381D01*
X110214286Y-76764286D01*
X110328571Y-76764286D01*
X110404762Y-76802381D01*
X110442857Y-76840476D01*
X110480952Y-76916667D01*
X110480952Y-77221429D01*
X110061905Y-76497619D02*
X110061905Y-76002381D01*
X110366667Y-76269048D01*
X110366667Y-76154762D01*
X110404762Y-76078572D01*
X110442857Y-76040476D01*
X110519048Y-76002381D01*
X110709524Y-76002381D01*
X110785714Y-76040476D01*
X110823810Y-76078572D01*
X110861905Y-76154762D01*
X110861905Y-76383334D01*
X110823810Y-76459524D01*
X110785714Y-76497619D01*
X110404762Y-75545238D02*
X110366667Y-75621429D01*
X110328571Y-75659524D01*
X110252381Y-75697619D01*
X110214286Y-75697619D01*
X110138095Y-75659524D01*
X110100000Y-75621429D01*
X110061905Y-75545238D01*
X110061905Y-75392857D01*
X110100000Y-75316667D01*
X110138095Y-75278571D01*
X110214286Y-75240476D01*
X110252381Y-75240476D01*
X110328571Y-75278571D01*
X110366667Y-75316667D01*
X110404762Y-75392857D01*
X110404762Y-75545238D01*
X110442857Y-75621429D01*
X110480952Y-75659524D01*
X110557143Y-75697619D01*
X110709524Y-75697619D01*
X110785714Y-75659524D01*
X110823810Y-75621429D01*
X110861905Y-75545238D01*
X110861905Y-75392857D01*
X110823810Y-75316667D01*
X110785714Y-75278571D01*
X110709524Y-75240476D01*
X110557143Y-75240476D01*
X110480952Y-75278571D01*
X110442857Y-75316667D01*
X110404762Y-75392857D01*
X74488095Y-92452381D02*
X74488095Y-93261905D01*
X74535714Y-93357143D01*
X74583333Y-93404762D01*
X74678571Y-93452381D01*
X74869048Y-93452381D01*
X74964286Y-93404762D01*
X75011905Y-93357143D01*
X75059524Y-93261905D01*
X75059524Y-92452381D01*
X76059524Y-93452381D02*
X75488095Y-93452381D01*
X75773809Y-93452381D02*
X75773809Y-92452381D01*
X75678571Y-92595238D01*
X75583333Y-92690476D01*
X75488095Y-92738095D01*
X90761905Y-123952381D02*
X90761905Y-122952381D01*
X91000000Y-122952381D01*
X91142858Y-123000000D01*
X91238096Y-123095238D01*
X91285715Y-123190476D01*
X91333334Y-123380952D01*
X91333334Y-123523810D01*
X91285715Y-123714286D01*
X91238096Y-123809524D01*
X91142858Y-123904762D01*
X91000000Y-123952381D01*
X90761905Y-123952381D01*
X91666667Y-122952381D02*
X92285715Y-122952381D01*
X91952381Y-123333333D01*
X92095239Y-123333333D01*
X92190477Y-123380952D01*
X92238096Y-123428571D01*
X92285715Y-123523810D01*
X92285715Y-123761905D01*
X92238096Y-123857143D01*
X92190477Y-123904762D01*
X92095239Y-123952381D01*
X91809524Y-123952381D01*
X91714286Y-123904762D01*
X91666667Y-123857143D01*
X92738095Y-124952381D02*
X92738095Y-123952381D01*
X93309524Y-124952381D02*
X92880952Y-124380952D01*
X93309524Y-123952381D02*
X92738095Y-124523810D01*
X86761905Y-124666667D02*
X87238096Y-124666667D01*
X86666667Y-124952381D02*
X87000000Y-123952381D01*
X87333334Y-124952381D01*
X83761905Y-123952381D02*
X83761905Y-122952381D01*
X84000000Y-122952381D01*
X84142858Y-123000000D01*
X84238096Y-123095238D01*
X84285715Y-123190476D01*
X84333334Y-123380952D01*
X84333334Y-123523810D01*
X84285715Y-123714286D01*
X84238096Y-123809524D01*
X84142858Y-123904762D01*
X84000000Y-123952381D01*
X83761905Y-123952381D01*
X85190477Y-123285714D02*
X85190477Y-123952381D01*
X84952381Y-122904762D02*
X84714286Y-123619048D01*
X85333334Y-123619048D01*
X79488095Y-124952381D02*
X79488095Y-123952381D01*
X80059524Y-124952381D02*
X79630952Y-124380952D01*
X80059524Y-123952381D02*
X79488095Y-124523810D01*
X85364781Y-124666667D02*
X85840972Y-124666667D01*
X85269543Y-124952381D02*
X85602876Y-123952381D01*
X85936210Y-124952381D01*
X76511905Y-123952381D02*
X76511905Y-122952381D01*
X76750000Y-122952381D01*
X76892858Y-123000000D01*
X76988096Y-123095238D01*
X77035715Y-123190476D01*
X77083334Y-123380952D01*
X77083334Y-123523810D01*
X77035715Y-123714286D01*
X76988096Y-123809524D01*
X76892858Y-123904762D01*
X76750000Y-123952381D01*
X76511905Y-123952381D01*
X77988096Y-122952381D02*
X77511905Y-122952381D01*
X77464286Y-123428571D01*
X77511905Y-123380952D01*
X77607143Y-123333333D01*
X77845239Y-123333333D01*
X77940477Y-123380952D01*
X77988096Y-123428571D01*
X78035715Y-123523810D01*
X78035715Y-123761905D01*
X77988096Y-123857143D01*
X77940477Y-123904762D01*
X77845239Y-123952381D01*
X77607143Y-123952381D01*
X77511905Y-123904762D01*
X77464286Y-123857143D01*
X72488095Y-124952381D02*
X72488095Y-123952381D01*
X73059524Y-124952381D02*
X72630952Y-124380952D01*
X73059524Y-123952381D02*
X72488095Y-124523810D01*
X78364781Y-124666667D02*
X78840972Y-124666667D01*
X78269543Y-124952381D02*
X78602876Y-123952381D01*
X78936210Y-124952381D01*
X68011905Y-111452381D02*
X68011905Y-110452381D01*
X68250000Y-110452381D01*
X68392858Y-110500000D01*
X68488096Y-110595238D01*
X68535715Y-110690476D01*
X68583334Y-110880952D01*
X68583334Y-111023810D01*
X68535715Y-111214286D01*
X68488096Y-111309524D01*
X68392858Y-111404762D01*
X68250000Y-111452381D01*
X68011905Y-111452381D01*
X69440477Y-110452381D02*
X69250000Y-110452381D01*
X69154762Y-110500000D01*
X69107143Y-110547619D01*
X69011905Y-110690476D01*
X68964286Y-110880952D01*
X68964286Y-111261905D01*
X69011905Y-111357143D01*
X69059524Y-111404762D01*
X69154762Y-111452381D01*
X69345239Y-111452381D01*
X69440477Y-111404762D01*
X69488096Y-111357143D01*
X69535715Y-111261905D01*
X69535715Y-111023810D01*
X69488096Y-110928571D01*
X69440477Y-110880952D01*
X69345239Y-110833333D01*
X69154762Y-110833333D01*
X69059524Y-110880952D01*
X69011905Y-110928571D01*
X68964286Y-111023810D01*
X67452381Y-118411905D02*
X66452381Y-118411905D01*
X67452381Y-117840476D02*
X66880952Y-118269048D01*
X66452381Y-117840476D02*
X67023810Y-118411905D01*
X67166667Y-112588095D02*
X67166667Y-112111904D01*
X67452381Y-112683333D02*
X66452381Y-112350000D01*
X67452381Y-112016666D01*
X95528419Y-138423819D02*
X95195085Y-138423819D01*
X95195085Y-138947629D02*
X95195085Y-137947629D01*
X95671276Y-137947629D01*
X96576038Y-138947629D02*
X96004609Y-138947629D01*
X96290323Y-138947629D02*
X96290323Y-137947629D01*
X96195085Y-138090486D01*
X96099847Y-138185724D01*
X96004609Y-138233343D01*
X81452381Y-131238095D02*
X80452381Y-131238095D01*
X80452381Y-131000000D01*
X80500000Y-130857142D01*
X80595238Y-130761904D01*
X80690476Y-130714285D01*
X80880952Y-130666666D01*
X81023810Y-130666666D01*
X81214286Y-130714285D01*
X81309524Y-130761904D01*
X81404762Y-130857142D01*
X81452381Y-131000000D01*
X81452381Y-131238095D01*
X81452381Y-130190476D02*
X81452381Y-130000000D01*
X81404762Y-129904761D01*
X81357143Y-129857142D01*
X81214286Y-129761904D01*
X81023810Y-129714285D01*
X80642857Y-129714285D01*
X80547619Y-129761904D01*
X80500000Y-129809523D01*
X80452381Y-129904761D01*
X80452381Y-130095238D01*
X80500000Y-130190476D01*
X80547619Y-130238095D01*
X80642857Y-130285714D01*
X80880952Y-130285714D01*
X80976190Y-130238095D01*
X81023810Y-130190476D01*
X81071429Y-130095238D01*
X81071429Y-129904761D01*
X81023810Y-129809523D01*
X80976190Y-129761904D01*
X80880952Y-129714285D01*
X87988095Y-129202381D02*
X87988095Y-128202381D01*
X88559524Y-129202381D02*
X88130952Y-128630952D01*
X88559524Y-128202381D02*
X87988095Y-128773810D01*
X82011905Y-128916667D02*
X82488096Y-128916667D01*
X81916667Y-129202381D02*
X82250000Y-128202381D01*
X82583334Y-129202381D01*
X72857143Y-112607143D02*
X72809524Y-112654762D01*
X72666667Y-112702381D01*
X72571429Y-112702381D01*
X72428571Y-112654762D01*
X72333333Y-112559524D01*
X72285714Y-112464286D01*
X72238095Y-112273810D01*
X72238095Y-112130952D01*
X72285714Y-111940476D01*
X72333333Y-111845238D01*
X72428571Y-111750000D01*
X72571429Y-111702381D01*
X72666667Y-111702381D01*
X72809524Y-111750000D01*
X72857143Y-111797619D01*
X73190476Y-111702381D02*
X73809524Y-111702381D01*
X73476190Y-112083333D01*
X73619048Y-112083333D01*
X73714286Y-112130952D01*
X73761905Y-112178571D01*
X73809524Y-112273810D01*
X73809524Y-112511905D01*
X73761905Y-112607143D01*
X73714286Y-112654762D01*
X73619048Y-112702381D01*
X73333333Y-112702381D01*
X73238095Y-112654762D01*
X73190476Y-112607143D01*
X74380952Y-112130952D02*
X74285714Y-112083333D01*
X74238095Y-112035714D01*
X74190476Y-111940476D01*
X74190476Y-111892857D01*
X74238095Y-111797619D01*
X74285714Y-111750000D01*
X74380952Y-111702381D01*
X74571429Y-111702381D01*
X74666667Y-111750000D01*
X74714286Y-111797619D01*
X74761905Y-111892857D01*
X74761905Y-111940476D01*
X74714286Y-112035714D01*
X74666667Y-112083333D01*
X74571429Y-112130952D01*
X74380952Y-112130952D01*
X74285714Y-112178571D01*
X74238095Y-112226190D01*
X74190476Y-112321429D01*
X74190476Y-112511905D01*
X74238095Y-112607143D01*
X74285714Y-112654762D01*
X74380952Y-112702381D01*
X74571429Y-112702381D01*
X74666667Y-112654762D01*
X74714286Y-112607143D01*
X74761905Y-112511905D01*
X74761905Y-112321429D01*
X74714286Y-112226190D01*
X74666667Y-112178571D01*
X74571429Y-112130952D01*
X115857143Y-113107143D02*
X115809524Y-113154762D01*
X115666667Y-113202381D01*
X115571429Y-113202381D01*
X115428571Y-113154762D01*
X115333333Y-113059524D01*
X115285714Y-112964286D01*
X115238095Y-112773810D01*
X115238095Y-112630952D01*
X115285714Y-112440476D01*
X115333333Y-112345238D01*
X115428571Y-112250000D01*
X115571429Y-112202381D01*
X115666667Y-112202381D01*
X115809524Y-112250000D01*
X115857143Y-112297619D01*
X116190476Y-112202381D02*
X116809524Y-112202381D01*
X116476190Y-112583333D01*
X116619048Y-112583333D01*
X116714286Y-112630952D01*
X116761905Y-112678571D01*
X116809524Y-112773810D01*
X116809524Y-113011905D01*
X116761905Y-113107143D01*
X116714286Y-113154762D01*
X116619048Y-113202381D01*
X116333333Y-113202381D01*
X116238095Y-113154762D01*
X116190476Y-113107143D01*
X117285714Y-113202381D02*
X117476190Y-113202381D01*
X117571429Y-113154762D01*
X117619048Y-113107143D01*
X117714286Y-112964286D01*
X117761905Y-112773810D01*
X117761905Y-112392857D01*
X117714286Y-112297619D01*
X117666667Y-112250000D01*
X117571429Y-112202381D01*
X117380952Y-112202381D01*
X117285714Y-112250000D01*
X117238095Y-112297619D01*
X117190476Y-112392857D01*
X117190476Y-112630952D01*
X117238095Y-112726190D01*
X117285714Y-112773810D01*
X117380952Y-112821429D01*
X117571429Y-112821429D01*
X117666667Y-112773810D01*
X117714286Y-112726190D01*
X117761905Y-112630952D01*
X92285714Y-114702381D02*
X92285714Y-113702381D01*
X92523809Y-113702381D01*
X92666667Y-113750000D01*
X92761905Y-113845238D01*
X92809524Y-113940476D01*
X92857143Y-114130952D01*
X92857143Y-114273810D01*
X92809524Y-114464286D01*
X92761905Y-114559524D01*
X92666667Y-114654762D01*
X92523809Y-114702381D01*
X92285714Y-114702381D01*
X93809524Y-114702381D02*
X93238095Y-114702381D01*
X93523809Y-114702381D02*
X93523809Y-113702381D01*
X93428571Y-113845238D01*
X93333333Y-113940476D01*
X93238095Y-113988095D01*
X94428571Y-113702381D02*
X94523810Y-113702381D01*
X94619048Y-113750000D01*
X94666667Y-113797619D01*
X94714286Y-113892857D01*
X94761905Y-114083333D01*
X94761905Y-114321429D01*
X94714286Y-114511905D01*
X94666667Y-114607143D01*
X94619048Y-114654762D01*
X94523810Y-114702381D01*
X94428571Y-114702381D01*
X94333333Y-114654762D01*
X94285714Y-114607143D01*
X94238095Y-114511905D01*
X94190476Y-114321429D01*
X94190476Y-114083333D01*
X94238095Y-113892857D01*
X94285714Y-113797619D01*
X94333333Y-113750000D01*
X94428571Y-113702381D01*
X90702381Y-116011905D02*
X89702381Y-116011905D01*
X90702381Y-115440476D02*
X90130952Y-115869048D01*
X89702381Y-115440476D02*
X90273810Y-116011905D01*
X90416667Y-121988095D02*
X90416667Y-121511904D01*
X90702381Y-122083333D02*
X89702381Y-121750000D01*
X90702381Y-121416666D01*
X61511905Y-118902381D02*
X61511905Y-117902381D01*
X61892858Y-117902381D01*
X61988096Y-117950000D01*
X62035715Y-117997619D01*
X62083334Y-118092857D01*
X62083334Y-118235714D01*
X62035715Y-118330952D01*
X61988096Y-118378571D01*
X61892858Y-118426190D01*
X61511905Y-118426190D01*
X63035715Y-118902381D02*
X62464286Y-118902381D01*
X62750000Y-118902381D02*
X62750000Y-117902381D01*
X62654762Y-118045238D01*
X62559524Y-118140476D01*
X62464286Y-118188095D01*
X82002381Y-64103095D02*
X81002381Y-64103095D01*
X81002381Y-63722142D01*
X81050000Y-63626904D01*
X81097619Y-63579285D01*
X81192857Y-63531666D01*
X81335714Y-63531666D01*
X81430952Y-63579285D01*
X81478571Y-63626904D01*
X81526190Y-63722142D01*
X81526190Y-64103095D01*
X81002381Y-62626904D02*
X81002381Y-63103095D01*
X81478571Y-63150714D01*
X81430952Y-63103095D01*
X81383333Y-63007857D01*
X81383333Y-62769761D01*
X81430952Y-62674523D01*
X81478571Y-62626904D01*
X81573810Y-62579285D01*
X81811905Y-62579285D01*
X81907143Y-62626904D01*
X81954762Y-62674523D01*
X82002381Y-62769761D01*
X82002381Y-63007857D01*
X81954762Y-63103095D01*
X81907143Y-63150714D01*
X135896905Y-82002381D02*
X135896905Y-81002381D01*
X136277858Y-81002381D01*
X136373096Y-81050000D01*
X136420715Y-81097619D01*
X136468334Y-81192857D01*
X136468334Y-81335714D01*
X136420715Y-81430952D01*
X136373096Y-81478571D01*
X136277858Y-81526190D01*
X135896905Y-81526190D01*
X137325477Y-81002381D02*
X137135000Y-81002381D01*
X137039762Y-81050000D01*
X136992143Y-81097619D01*
X136896905Y-81240476D01*
X136849286Y-81430952D01*
X136849286Y-81811905D01*
X136896905Y-81907143D01*
X136944524Y-81954762D01*
X137039762Y-82002381D01*
X137230239Y-82002381D01*
X137325477Y-81954762D01*
X137373096Y-81907143D01*
X137420715Y-81811905D01*
X137420715Y-81573810D01*
X137373096Y-81478571D01*
X137325477Y-81430952D01*
X137230239Y-81383333D01*
X137039762Y-81383333D01*
X136944524Y-81430952D01*
X136896905Y-81478571D01*
X136849286Y-81573810D01*
X62626905Y-99782381D02*
X62626905Y-98782381D01*
X63007858Y-98782381D01*
X63103096Y-98830000D01*
X63150715Y-98877619D01*
X63198334Y-98972857D01*
X63198334Y-99115714D01*
X63150715Y-99210952D01*
X63103096Y-99258571D01*
X63007858Y-99306190D01*
X62626905Y-99306190D01*
X63531667Y-98782381D02*
X64198334Y-98782381D01*
X63769762Y-99782381D01*
X101122381Y-64579286D02*
X100122381Y-64579286D01*
X100122381Y-64198333D01*
X100170000Y-64103095D01*
X100217619Y-64055476D01*
X100312857Y-64007857D01*
X100455714Y-64007857D01*
X100550952Y-64055476D01*
X100598571Y-64103095D01*
X100646190Y-64198333D01*
X100646190Y-64579286D01*
X101122381Y-63055476D02*
X101122381Y-63626905D01*
X101122381Y-63341191D02*
X100122381Y-63341191D01*
X100265238Y-63436429D01*
X100360476Y-63531667D01*
X100408095Y-63626905D01*
X100217619Y-62674524D02*
X100170000Y-62626905D01*
X100122381Y-62531667D01*
X100122381Y-62293571D01*
X100170000Y-62198333D01*
X100217619Y-62150714D01*
X100312857Y-62103095D01*
X100408095Y-62103095D01*
X100550952Y-62150714D01*
X101122381Y-62722143D01*
X101122381Y-62103095D01*
X135420714Y-101122381D02*
X135420714Y-100122381D01*
X135801667Y-100122381D01*
X135896905Y-100170000D01*
X135944524Y-100217619D01*
X135992143Y-100312857D01*
X135992143Y-100455714D01*
X135944524Y-100550952D01*
X135896905Y-100598571D01*
X135801667Y-100646190D01*
X135420714Y-100646190D01*
X136944524Y-101122381D02*
X136373095Y-101122381D01*
X136658809Y-101122381D02*
X136658809Y-100122381D01*
X136563571Y-100265238D01*
X136468333Y-100360476D01*
X136373095Y-100408095D01*
X137277857Y-100122381D02*
X137896905Y-100122381D01*
X137563571Y-100503333D01*
X137706429Y-100503333D01*
X137801667Y-100550952D01*
X137849286Y-100598571D01*
X137896905Y-100693810D01*
X137896905Y-100931905D01*
X137849286Y-101027143D01*
X137801667Y-101074762D01*
X137706429Y-101122381D01*
X137420714Y-101122381D01*
X137325476Y-101074762D01*
X137277857Y-101027143D01*
X65702381Y-136988095D02*
X64702381Y-136988095D01*
X64702381Y-136607142D01*
X64750000Y-136511904D01*
X64797619Y-136464285D01*
X64892857Y-136416666D01*
X65035714Y-136416666D01*
X65130952Y-136464285D01*
X65178571Y-136511904D01*
X65226190Y-136607142D01*
X65226190Y-136988095D01*
X65035714Y-135559523D02*
X65702381Y-135559523D01*
X64654762Y-135797619D02*
X65369048Y-136035714D01*
X65369048Y-135416666D01*
X82702381Y-139738095D02*
X81702381Y-139738095D01*
X81702381Y-139500000D01*
X81750000Y-139357142D01*
X81845238Y-139261904D01*
X81940476Y-139214285D01*
X82130952Y-139166666D01*
X82273810Y-139166666D01*
X82464286Y-139214285D01*
X82559524Y-139261904D01*
X82654762Y-139357142D01*
X82702381Y-139500000D01*
X82702381Y-139738095D01*
X81797619Y-138785714D02*
X81750000Y-138738095D01*
X81702381Y-138642857D01*
X81702381Y-138404761D01*
X81750000Y-138309523D01*
X81797619Y-138261904D01*
X81892857Y-138214285D01*
X81988095Y-138214285D01*
X82130952Y-138261904D01*
X82702381Y-138833333D01*
X82702381Y-138214285D01*
X88888095Y-137702381D02*
X88888095Y-136702381D01*
X89459524Y-137702381D02*
X89030952Y-137130952D01*
X89459524Y-136702381D02*
X88888095Y-137273810D01*
X83111905Y-137416667D02*
X83588096Y-137416667D01*
X83016667Y-137702381D02*
X83350000Y-136702381D01*
X83683334Y-137702381D01*
X82702381Y-135738095D02*
X81702381Y-135738095D01*
X81702381Y-135500000D01*
X81750000Y-135357142D01*
X81845238Y-135261904D01*
X81940476Y-135214285D01*
X82130952Y-135166666D01*
X82273810Y-135166666D01*
X82464286Y-135214285D01*
X82559524Y-135261904D01*
X82654762Y-135357142D01*
X82702381Y-135500000D01*
X82702381Y-135738095D01*
X82130952Y-134595238D02*
X82083333Y-134690476D01*
X82035714Y-134738095D01*
X81940476Y-134785714D01*
X81892857Y-134785714D01*
X81797619Y-134738095D01*
X81750000Y-134690476D01*
X81702381Y-134595238D01*
X81702381Y-134404761D01*
X81750000Y-134309523D01*
X81797619Y-134261904D01*
X81892857Y-134214285D01*
X81940476Y-134214285D01*
X82035714Y-134261904D01*
X82083333Y-134309523D01*
X82130952Y-134404761D01*
X82130952Y-134595238D01*
X82178571Y-134690476D01*
X82226190Y-134738095D01*
X82321429Y-134785714D01*
X82511905Y-134785714D01*
X82607143Y-134738095D01*
X82654762Y-134690476D01*
X82702381Y-134595238D01*
X82702381Y-134404761D01*
X82654762Y-134309523D01*
X82607143Y-134261904D01*
X82511905Y-134214285D01*
X82321429Y-134214285D01*
X82226190Y-134261904D01*
X82178571Y-134309523D01*
X82130952Y-134404761D01*
X88988095Y-133702381D02*
X88988095Y-132702381D01*
X89559524Y-133702381D02*
X89130952Y-133130952D01*
X89559524Y-132702381D02*
X88988095Y-133273810D01*
X83011905Y-133416667D02*
X83488096Y-133416667D01*
X82916667Y-133702381D02*
X83250000Y-132702381D01*
X83583334Y-133702381D01*
X129202381Y-131988095D02*
X130011905Y-131988095D01*
X130107143Y-131940476D01*
X130154762Y-131892857D01*
X130202381Y-131797619D01*
X130202381Y-131607142D01*
X130154762Y-131511904D01*
X130107143Y-131464285D01*
X130011905Y-131416666D01*
X129202381Y-131416666D01*
X130202381Y-130416666D02*
X130202381Y-130988095D01*
X130202381Y-130702381D02*
X129202381Y-130702381D01*
X129345238Y-130797619D01*
X129440476Y-130892857D01*
X129488095Y-130988095D01*
X129202381Y-129797619D02*
X129202381Y-129702380D01*
X129250000Y-129607142D01*
X129297619Y-129559523D01*
X129392857Y-129511904D01*
X129583333Y-129464285D01*
X129821429Y-129464285D01*
X130011905Y-129511904D01*
X130107143Y-129559523D01*
X130154762Y-129607142D01*
X130202381Y-129702380D01*
X130202381Y-129797619D01*
X130154762Y-129892857D01*
X130107143Y-129940476D01*
X130011905Y-129988095D01*
X129821429Y-130035714D01*
X129583333Y-130035714D01*
X129392857Y-129988095D01*
X129297619Y-129940476D01*
X129250000Y-129892857D01*
X129202381Y-129797619D01*
X92357143Y-113202381D02*
X92023809Y-112726190D01*
X91785714Y-113202381D02*
X91785714Y-112202381D01*
X92166667Y-112202381D01*
X92261905Y-112250000D01*
X92309524Y-112297619D01*
X92357143Y-112392857D01*
X92357143Y-112535714D01*
X92309524Y-112630952D01*
X92261905Y-112678571D01*
X92166667Y-112726190D01*
X91785714Y-112726190D01*
X93309524Y-113202381D02*
X92738095Y-113202381D01*
X93023809Y-113202381D02*
X93023809Y-112202381D01*
X92928571Y-112345238D01*
X92833333Y-112440476D01*
X92738095Y-112488095D01*
X93880952Y-112630952D02*
X93785714Y-112583333D01*
X93738095Y-112535714D01*
X93690476Y-112440476D01*
X93690476Y-112392857D01*
X93738095Y-112297619D01*
X93785714Y-112250000D01*
X93880952Y-112202381D01*
X94071429Y-112202381D01*
X94166667Y-112250000D01*
X94214286Y-112297619D01*
X94261905Y-112392857D01*
X94261905Y-112440476D01*
X94214286Y-112535714D01*
X94166667Y-112583333D01*
X94071429Y-112630952D01*
X93880952Y-112630952D01*
X93785714Y-112678571D01*
X93738095Y-112726190D01*
X93690476Y-112821429D01*
X93690476Y-113011905D01*
X93738095Y-113107143D01*
X93785714Y-113154762D01*
X93880952Y-113202381D01*
X94071429Y-113202381D01*
X94166667Y-113154762D01*
X94214286Y-113107143D01*
X94261905Y-113011905D01*
X94261905Y-112821429D01*
X94214286Y-112726190D01*
X94166667Y-112678571D01*
X94071429Y-112630952D01*
X76607143Y-113102381D02*
X76273809Y-112626190D01*
X76035714Y-113102381D02*
X76035714Y-112102381D01*
X76416667Y-112102381D01*
X76511905Y-112150000D01*
X76559524Y-112197619D01*
X76607143Y-112292857D01*
X76607143Y-112435714D01*
X76559524Y-112530952D01*
X76511905Y-112578571D01*
X76416667Y-112626190D01*
X76035714Y-112626190D01*
X77559524Y-113102381D02*
X76988095Y-113102381D01*
X77273809Y-113102381D02*
X77273809Y-112102381D01*
X77178571Y-112245238D01*
X77083333Y-112340476D01*
X76988095Y-112388095D01*
X78035714Y-113102381D02*
X78226190Y-113102381D01*
X78321429Y-113054762D01*
X78369048Y-113007143D01*
X78464286Y-112864286D01*
X78511905Y-112673810D01*
X78511905Y-112292857D01*
X78464286Y-112197619D01*
X78416667Y-112150000D01*
X78321429Y-112102381D01*
X78130952Y-112102381D01*
X78035714Y-112150000D01*
X77988095Y-112197619D01*
X77940476Y-112292857D01*
X77940476Y-112530952D01*
X77988095Y-112626190D01*
X78035714Y-112673810D01*
X78130952Y-112721429D01*
X78321429Y-112721429D01*
X78416667Y-112673810D01*
X78464286Y-112626190D01*
X78511905Y-112530952D01*
X89452381Y-93416666D02*
X88976190Y-93750000D01*
X89452381Y-93988095D02*
X88452381Y-93988095D01*
X88452381Y-93607142D01*
X88500000Y-93511904D01*
X88547619Y-93464285D01*
X88642857Y-93416666D01*
X88785714Y-93416666D01*
X88880952Y-93464285D01*
X88928571Y-93511904D01*
X88976190Y-93607142D01*
X88976190Y-93988095D01*
X89452381Y-92940476D02*
X89452381Y-92750000D01*
X89404762Y-92654761D01*
X89357143Y-92607142D01*
X89214286Y-92511904D01*
X89023810Y-92464285D01*
X88642857Y-92464285D01*
X88547619Y-92511904D01*
X88500000Y-92559523D01*
X88452381Y-92654761D01*
X88452381Y-92845238D01*
X88500000Y-92940476D01*
X88547619Y-92988095D01*
X88642857Y-93035714D01*
X88880952Y-93035714D01*
X88976190Y-92988095D01*
X89023810Y-92940476D01*
X89071429Y-92845238D01*
X89071429Y-92654761D01*
X89023810Y-92559523D01*
X88976190Y-92511904D01*
X88880952Y-92464285D01*
X96452381Y-114142857D02*
X95976190Y-114476191D01*
X96452381Y-114714286D02*
X95452381Y-114714286D01*
X95452381Y-114333333D01*
X95500000Y-114238095D01*
X95547619Y-114190476D01*
X95642857Y-114142857D01*
X95785714Y-114142857D01*
X95880952Y-114190476D01*
X95928571Y-114238095D01*
X95976190Y-114333333D01*
X95976190Y-114714286D01*
X96452381Y-113190476D02*
X96452381Y-113761905D01*
X96452381Y-113476191D02*
X95452381Y-113476191D01*
X95595238Y-113571429D01*
X95690476Y-113666667D01*
X95738095Y-113761905D01*
X96452381Y-112238095D02*
X96452381Y-112809524D01*
X96452381Y-112523810D02*
X95452381Y-112523810D01*
X95595238Y-112619048D01*
X95690476Y-112714286D01*
X95738095Y-112809524D01*
X107452381Y-67416666D02*
X106976190Y-67750000D01*
X107452381Y-67988095D02*
X106452381Y-67988095D01*
X106452381Y-67607142D01*
X106500000Y-67511904D01*
X106547619Y-67464285D01*
X106642857Y-67416666D01*
X106785714Y-67416666D01*
X106880952Y-67464285D01*
X106928571Y-67511904D01*
X106976190Y-67607142D01*
X106976190Y-67988095D01*
X106452381Y-67083333D02*
X106452381Y-66464285D01*
X106833333Y-66797619D01*
X106833333Y-66654761D01*
X106880952Y-66559523D01*
X106928571Y-66511904D01*
X107023810Y-66464285D01*
X107261905Y-66464285D01*
X107357143Y-66511904D01*
X107404762Y-66559523D01*
X107452381Y-66654761D01*
X107452381Y-66940476D01*
X107404762Y-67035714D01*
X107357143Y-67083333D01*
X78452381Y-80166666D02*
X77976190Y-80500000D01*
X78452381Y-80738095D02*
X77452381Y-80738095D01*
X77452381Y-80357142D01*
X77500000Y-80261904D01*
X77547619Y-80214285D01*
X77642857Y-80166666D01*
X77785714Y-80166666D01*
X77880952Y-80214285D01*
X77928571Y-80261904D01*
X77976190Y-80357142D01*
X77976190Y-80738095D01*
X77785714Y-79309523D02*
X78452381Y-79309523D01*
X77404762Y-79547619D02*
X78119048Y-79785714D01*
X78119048Y-79166666D01*
X80952381Y-90142857D02*
X80476190Y-90476191D01*
X80952381Y-90714286D02*
X79952381Y-90714286D01*
X79952381Y-90333333D01*
X80000000Y-90238095D01*
X80047619Y-90190476D01*
X80142857Y-90142857D01*
X80285714Y-90142857D01*
X80380952Y-90190476D01*
X80428571Y-90238095D01*
X80476190Y-90333333D01*
X80476190Y-90714286D01*
X80952381Y-89190476D02*
X80952381Y-89761905D01*
X80952381Y-89476191D02*
X79952381Y-89476191D01*
X80095238Y-89571429D01*
X80190476Y-89666667D01*
X80238095Y-89761905D01*
X80285714Y-88333333D02*
X80952381Y-88333333D01*
X79904762Y-88571429D02*
X80619048Y-88809524D01*
X80619048Y-88190476D01*
X67902381Y-85142857D02*
X67426190Y-85476191D01*
X67902381Y-85714286D02*
X66902381Y-85714286D01*
X66902381Y-85333333D01*
X66950000Y-85238095D01*
X66997619Y-85190476D01*
X67092857Y-85142857D01*
X67235714Y-85142857D01*
X67330952Y-85190476D01*
X67378571Y-85238095D01*
X67426190Y-85333333D01*
X67426190Y-85714286D01*
X67902381Y-84190476D02*
X67902381Y-84761905D01*
X67902381Y-84476191D02*
X66902381Y-84476191D01*
X67045238Y-84571429D01*
X67140476Y-84666667D01*
X67188095Y-84761905D01*
X66902381Y-83285714D02*
X66902381Y-83761905D01*
X67378571Y-83809524D01*
X67330952Y-83761905D01*
X67283333Y-83666667D01*
X67283333Y-83428571D01*
X67330952Y-83333333D01*
X67378571Y-83285714D01*
X67473810Y-83238095D01*
X67711905Y-83238095D01*
X67807143Y-83285714D01*
X67854762Y-83333333D01*
X67902381Y-83428571D01*
X67902381Y-83666667D01*
X67854762Y-83761905D01*
X67807143Y-83809524D01*
X67607143Y-101902381D02*
X67273809Y-101426190D01*
X67035714Y-101902381D02*
X67035714Y-100902381D01*
X67416667Y-100902381D01*
X67511905Y-100950000D01*
X67559524Y-100997619D01*
X67607143Y-101092857D01*
X67607143Y-101235714D01*
X67559524Y-101330952D01*
X67511905Y-101378571D01*
X67416667Y-101426190D01*
X67035714Y-101426190D01*
X68464286Y-101235714D02*
X68464286Y-101902381D01*
X68226190Y-100854762D02*
X67988095Y-101569048D01*
X68607143Y-101569048D01*
X69511905Y-101902381D02*
X68940476Y-101902381D01*
X69226190Y-101902381D02*
X69226190Y-100902381D01*
X69130952Y-101045238D01*
X69035714Y-101140476D01*
X68940476Y-101188095D01*
X99002381Y-68892857D02*
X98526190Y-69226191D01*
X99002381Y-69464286D02*
X98002381Y-69464286D01*
X98002381Y-69083333D01*
X98050000Y-68988095D01*
X98097619Y-68940476D01*
X98192857Y-68892857D01*
X98335714Y-68892857D01*
X98430952Y-68940476D01*
X98478571Y-68988095D01*
X98526190Y-69083333D01*
X98526190Y-69464286D01*
X98335714Y-68035714D02*
X99002381Y-68035714D01*
X97954762Y-68273810D02*
X98669048Y-68511905D01*
X98669048Y-67892857D01*
X98097619Y-67559524D02*
X98050000Y-67511905D01*
X98002381Y-67416667D01*
X98002381Y-67178571D01*
X98050000Y-67083333D01*
X98097619Y-67035714D01*
X98192857Y-66988095D01*
X98288095Y-66988095D01*
X98430952Y-67035714D01*
X99002381Y-67607143D01*
X99002381Y-66988095D01*
X131357143Y-98702381D02*
X131023809Y-98226190D01*
X130785714Y-98702381D02*
X130785714Y-97702381D01*
X131166667Y-97702381D01*
X131261905Y-97750000D01*
X131309524Y-97797619D01*
X131357143Y-97892857D01*
X131357143Y-98035714D01*
X131309524Y-98130952D01*
X131261905Y-98178571D01*
X131166667Y-98226190D01*
X130785714Y-98226190D01*
X132214286Y-98035714D02*
X132214286Y-98702381D01*
X131976190Y-97654762D02*
X131738095Y-98369048D01*
X132357143Y-98369048D01*
X132642857Y-97702381D02*
X133261905Y-97702381D01*
X132928571Y-98083333D01*
X133071429Y-98083333D01*
X133166667Y-98130952D01*
X133214286Y-98178571D01*
X133261905Y-98273810D01*
X133261905Y-98511905D01*
X133214286Y-98607143D01*
X133166667Y-98654762D01*
X133071429Y-98702381D01*
X132785714Y-98702381D01*
X132690476Y-98654762D01*
X132642857Y-98607143D01*
X82452381Y-93892857D02*
X81976190Y-94226191D01*
X82452381Y-94464286D02*
X81452381Y-94464286D01*
X81452381Y-94083333D01*
X81500000Y-93988095D01*
X81547619Y-93940476D01*
X81642857Y-93892857D01*
X81785714Y-93892857D01*
X81880952Y-93940476D01*
X81928571Y-93988095D01*
X81976190Y-94083333D01*
X81976190Y-94464286D01*
X81452381Y-92988095D02*
X81452381Y-93464286D01*
X81928571Y-93511905D01*
X81880952Y-93464286D01*
X81833333Y-93369048D01*
X81833333Y-93130952D01*
X81880952Y-93035714D01*
X81928571Y-92988095D01*
X82023810Y-92940476D01*
X82261905Y-92940476D01*
X82357143Y-92988095D01*
X82404762Y-93035714D01*
X82452381Y-93130952D01*
X82452381Y-93369048D01*
X82404762Y-93464286D01*
X82357143Y-93511905D01*
X81785714Y-92083333D02*
X82452381Y-92083333D01*
X81404762Y-92321429D02*
X82119048Y-92559524D01*
X82119048Y-91940476D01*
X96273810Y-73952381D02*
X96273810Y-72952381D01*
X97321429Y-73857143D02*
X97273810Y-73904762D01*
X97130953Y-73952381D01*
X97035715Y-73952381D01*
X96892857Y-73904762D01*
X96797619Y-73809524D01*
X96750000Y-73714286D01*
X96702381Y-73523810D01*
X96702381Y-73380952D01*
X96750000Y-73190476D01*
X96797619Y-73095238D01*
X96892857Y-73000000D01*
X97035715Y-72952381D01*
X97130953Y-72952381D01*
X97273810Y-73000000D01*
X97321429Y-73047619D01*
X98273810Y-73952381D02*
X97702381Y-73952381D01*
X97988095Y-73952381D02*
X97988095Y-72952381D01*
X97892857Y-73095238D01*
X97797619Y-73190476D01*
X97702381Y-73238095D01*
X108107143Y-72166666D02*
X108154762Y-72214285D01*
X108202381Y-72357142D01*
X108202381Y-72452380D01*
X108154762Y-72595238D01*
X108059524Y-72690476D01*
X107964286Y-72738095D01*
X107773810Y-72785714D01*
X107630952Y-72785714D01*
X107440476Y-72738095D01*
X107345238Y-72690476D01*
X107250000Y-72595238D01*
X107202381Y-72452380D01*
X107202381Y-72357142D01*
X107250000Y-72214285D01*
X107297619Y-72166666D01*
X107202381Y-71833333D02*
X107202381Y-71166666D01*
X108202381Y-71595238D01*
X107607143Y-80416666D02*
X107654762Y-80464285D01*
X107702381Y-80607142D01*
X107702381Y-80702380D01*
X107654762Y-80845238D01*
X107559524Y-80940476D01*
X107464286Y-80988095D01*
X107273810Y-81035714D01*
X107130952Y-81035714D01*
X106940476Y-80988095D01*
X106845238Y-80940476D01*
X106750000Y-80845238D01*
X106702381Y-80702380D01*
X106702381Y-80607142D01*
X106750000Y-80464285D01*
X106797619Y-80416666D01*
X107130952Y-79845238D02*
X107083333Y-79940476D01*
X107035714Y-79988095D01*
X106940476Y-80035714D01*
X106892857Y-80035714D01*
X106797619Y-79988095D01*
X106750000Y-79940476D01*
X106702381Y-79845238D01*
X106702381Y-79654761D01*
X106750000Y-79559523D01*
X106797619Y-79511904D01*
X106892857Y-79464285D01*
X106940476Y-79464285D01*
X107035714Y-79511904D01*
X107083333Y-79559523D01*
X107130952Y-79654761D01*
X107130952Y-79845238D01*
X107178571Y-79940476D01*
X107226190Y-79988095D01*
X107321429Y-80035714D01*
X107511905Y-80035714D01*
X107607143Y-79988095D01*
X107654762Y-79940476D01*
X107702381Y-79845238D01*
X107702381Y-79654761D01*
X107654762Y-79559523D01*
X107607143Y-79511904D01*
X107511905Y-79464285D01*
X107321429Y-79464285D01*
X107226190Y-79511904D01*
X107178571Y-79559523D01*
X107130952Y-79654761D01*
X103488095Y-94202381D02*
X103488095Y-95011905D01*
X103535714Y-95107143D01*
X103583333Y-95154762D01*
X103678571Y-95202381D01*
X103869048Y-95202381D01*
X103964286Y-95154762D01*
X104011905Y-95107143D01*
X104059524Y-95011905D01*
X104059524Y-94202381D01*
X104488095Y-94297619D02*
X104535714Y-94250000D01*
X104630952Y-94202381D01*
X104869048Y-94202381D01*
X104964286Y-94250000D01*
X105011905Y-94297619D01*
X105059524Y-94392857D01*
X105059524Y-94488095D01*
X105011905Y-94630952D01*
X104440476Y-95202381D01*
X105059524Y-95202381D01*
X80261905Y-122952381D02*
X80261905Y-123761905D01*
X80309524Y-123857143D01*
X80357143Y-123904762D01*
X80452381Y-123952381D01*
X80642858Y-123952381D01*
X80738096Y-123904762D01*
X80785715Y-123857143D01*
X80833334Y-123761905D01*
X80833334Y-122952381D01*
X81833334Y-123952381D02*
X81261905Y-123952381D01*
X81547619Y-123952381D02*
X81547619Y-122952381D01*
X81452381Y-123095238D01*
X81357143Y-123190476D01*
X81261905Y-123238095D01*
X82214286Y-123047619D02*
X82261905Y-123000000D01*
X82357143Y-122952381D01*
X82595239Y-122952381D01*
X82690477Y-123000000D01*
X82738096Y-123047619D01*
X82785715Y-123142857D01*
X82785715Y-123238095D01*
X82738096Y-123380952D01*
X82166667Y-123952381D01*
X82785715Y-123952381D01*
X100833334Y-70702381D02*
X100357143Y-70702381D01*
X100357143Y-69702381D01*
X101690477Y-70702381D02*
X101119048Y-70702381D01*
X101404762Y-70702381D02*
X101404762Y-69702381D01*
X101309524Y-69845238D01*
X101214286Y-69940476D01*
X101119048Y-69988095D01*
X89333334Y-112702381D02*
X88857143Y-112702381D01*
X88857143Y-111702381D01*
X89619048Y-111797619D02*
X89666667Y-111750000D01*
X89761905Y-111702381D01*
X90000001Y-111702381D01*
X90095239Y-111750000D01*
X90142858Y-111797619D01*
X90190477Y-111892857D01*
X90190477Y-111988095D01*
X90142858Y-112130952D01*
X89571429Y-112702381D01*
X90190477Y-112702381D01*
X100202381Y-126916666D02*
X100202381Y-127392857D01*
X99202381Y-127392857D01*
X99202381Y-126678571D02*
X99202381Y-126059523D01*
X99583333Y-126392857D01*
X99583333Y-126249999D01*
X99630952Y-126154761D01*
X99678571Y-126107142D01*
X99773810Y-126059523D01*
X100011905Y-126059523D01*
X100107143Y-126107142D01*
X100154762Y-126154761D01*
X100202381Y-126249999D01*
X100202381Y-126535714D01*
X100154762Y-126630952D01*
X100107143Y-126678571D01*
X129202381Y-93666666D02*
X129202381Y-94142857D01*
X128202381Y-94142857D01*
X128535714Y-92904761D02*
X129202381Y-92904761D01*
X128154762Y-93142857D02*
X128869048Y-93380952D01*
X128869048Y-92761904D01*
X131452381Y-80416666D02*
X131452381Y-80892857D01*
X130452381Y-80892857D01*
X130452381Y-79607142D02*
X130452381Y-80083333D01*
X130928571Y-80130952D01*
X130880952Y-80083333D01*
X130833333Y-79988095D01*
X130833333Y-79749999D01*
X130880952Y-79654761D01*
X130928571Y-79607142D01*
X131023810Y-79559523D01*
X131261905Y-79559523D01*
X131357143Y-79607142D01*
X131404762Y-79654761D01*
X131452381Y-79749999D01*
X131452381Y-79988095D01*
X131404762Y-80083333D01*
X131357143Y-80130952D01*
X112583334Y-112702381D02*
X112107143Y-112702381D01*
X112107143Y-111702381D01*
X113345239Y-111702381D02*
X113154762Y-111702381D01*
X113059524Y-111750000D01*
X113011905Y-111797619D01*
X112916667Y-111940476D01*
X112869048Y-112130952D01*
X112869048Y-112511905D01*
X112916667Y-112607143D01*
X112964286Y-112654762D01*
X113059524Y-112702381D01*
X113250001Y-112702381D01*
X113345239Y-112654762D01*
X113392858Y-112607143D01*
X113440477Y-112511905D01*
X113440477Y-112273810D01*
X113392858Y-112178571D01*
X113345239Y-112130952D01*
X113250001Y-112083333D01*
X113059524Y-112083333D01*
X112964286Y-112130952D01*
X112916667Y-112178571D01*
X112869048Y-112273810D01*
X123952381Y-93666666D02*
X123952381Y-94142857D01*
X122952381Y-94142857D01*
X122952381Y-93428571D02*
X122952381Y-92761904D01*
X123952381Y-93190476D01*
X126452381Y-80416666D02*
X126452381Y-80892857D01*
X125452381Y-80892857D01*
X125880952Y-79940476D02*
X125833333Y-80035714D01*
X125785714Y-80083333D01*
X125690476Y-80130952D01*
X125642857Y-80130952D01*
X125547619Y-80083333D01*
X125500000Y-80035714D01*
X125452381Y-79940476D01*
X125452381Y-79749999D01*
X125500000Y-79654761D01*
X125547619Y-79607142D01*
X125642857Y-79559523D01*
X125690476Y-79559523D01*
X125785714Y-79607142D01*
X125833333Y-79654761D01*
X125880952Y-79749999D01*
X125880952Y-79940476D01*
X125928571Y-80035714D01*
X125976190Y-80083333D01*
X126071429Y-80130952D01*
X126261905Y-80130952D01*
X126357143Y-80083333D01*
X126404762Y-80035714D01*
X126452381Y-79940476D01*
X126452381Y-79749999D01*
X126404762Y-79654761D01*
X126357143Y-79607142D01*
X126261905Y-79559523D01*
X126071429Y-79559523D01*
X125976190Y-79607142D01*
X125928571Y-79654761D01*
X125880952Y-79749999D01*
X107452381Y-93761905D02*
X108261905Y-93761905D01*
X108357143Y-93714286D01*
X108404762Y-93666667D01*
X108452381Y-93571429D01*
X108452381Y-93380952D01*
X108404762Y-93285714D01*
X108357143Y-93238095D01*
X108261905Y-93190476D01*
X107452381Y-93190476D01*
X108452381Y-92666667D02*
X108452381Y-92476191D01*
X108404762Y-92380952D01*
X108357143Y-92333333D01*
X108214286Y-92238095D01*
X108023810Y-92190476D01*
X107642857Y-92190476D01*
X107547619Y-92238095D01*
X107500000Y-92285714D01*
X107452381Y-92380952D01*
X107452381Y-92571429D01*
X107500000Y-92666667D01*
X107547619Y-92714286D01*
X107642857Y-92761905D01*
X107880952Y-92761905D01*
X107976190Y-92714286D01*
X108023810Y-92666667D01*
X108071429Y-92571429D01*
X108071429Y-92380952D01*
X108023810Y-92285714D01*
X107976190Y-92238095D01*
X107880952Y-92190476D01*
%LPC*%
D11*
X95861752Y-135995248D02*
X95861752Y-136995248D01*
D14*
X78000000Y-62550000D03*
X78000000Y-64450000D03*
D15*
X75800000Y-106000000D03*
X77070000Y-106000000D03*
X78340000Y-106000000D03*
X79610000Y-106000000D03*
X80880000Y-106000000D03*
X85960000Y-106000000D03*
X87230000Y-106000000D03*
X88500000Y-106000000D03*
X89770000Y-106000000D03*
X91040000Y-106000000D03*
X91040000Y-96602000D03*
X89770000Y-96602000D03*
X88500000Y-96602000D03*
X87230000Y-96602000D03*
X85960000Y-96602000D03*
X80880000Y-96602000D03*
X79610000Y-96602000D03*
X78340000Y-96602000D03*
X77070000Y-96602000D03*
X75800000Y-96602000D03*
X74530000Y-96602000D03*
X73260000Y-96602000D03*
X71990000Y-96602000D03*
X84690000Y-96602000D03*
X83420000Y-96602000D03*
X82150000Y-96602000D03*
X84690000Y-106000000D03*
X83420000Y-106000000D03*
X82150000Y-106000000D03*
X74530000Y-106000000D03*
X73260000Y-106000000D03*
X71990000Y-106000000D03*
D16*
X85000000Y-77401140D03*
X85000000Y-87098860D03*
D17*
X89200000Y-70750000D03*
X87300000Y-70750000D03*
D18*
X107500000Y-86250000D03*
X107500000Y-84250000D03*
D19*
X87250000Y-73000000D03*
X85250000Y-73000000D03*
D18*
X107250000Y-102000000D03*
X107250000Y-100000000D03*
D19*
X89250000Y-73000000D03*
X91250000Y-73000000D03*
D18*
X81000000Y-78500000D03*
X81000000Y-76500000D03*
X81000000Y-80500000D03*
X81000000Y-82500000D03*
D19*
X72250000Y-73000000D03*
X70250000Y-73000000D03*
D20*
X120440000Y-105750000D03*
X121710000Y-105750000D03*
X122980000Y-105750000D03*
X124250000Y-105750000D03*
X124250000Y-112100000D03*
X122980000Y-112100000D03*
X121710000Y-112100000D03*
X120440000Y-112100000D03*
D21*
X78040000Y-66960000D03*
D22*
X78040000Y-69500000D03*
X75500000Y-66960000D03*
X75500000Y-69500000D03*
X72960000Y-66960000D03*
X72960000Y-69500000D03*
D23*
X128000000Y-102250000D03*
X125000000Y-102250000D03*
X128000000Y-98250000D03*
X125000000Y-98250000D03*
D24*
X81500000Y-108250000D03*
X81500000Y-111250000D03*
D23*
X128000000Y-84750000D03*
X125000000Y-84750000D03*
D24*
X85500000Y-108250000D03*
X85500000Y-111250000D03*
D23*
X128000000Y-88750000D03*
X125000000Y-88750000D03*
X130500000Y-71500000D03*
X127500000Y-71500000D03*
X130500000Y-75500000D03*
X127500000Y-75500000D03*
X122697226Y-98250000D03*
X119697226Y-98250000D03*
X122697226Y-102239318D03*
X119697226Y-102239318D03*
X122750000Y-84750000D03*
X119750000Y-84750000D03*
X122750000Y-88750000D03*
X119750000Y-88750000D03*
X125250000Y-71500000D03*
X122250000Y-71500000D03*
X125250000Y-75500000D03*
X122250000Y-75500000D03*
X99000000Y-130250000D03*
X96000000Y-130250000D03*
X91250000Y-130250000D03*
X94250000Y-130250000D03*
D24*
X132000000Y-137500000D03*
X132000000Y-134500000D03*
X104500000Y-112500000D03*
X104500000Y-109500000D03*
X108500000Y-112500000D03*
X108500000Y-109500000D03*
D18*
X126250000Y-109750000D03*
X126250000Y-107750000D03*
D19*
X73750000Y-114000000D03*
X71750000Y-114000000D03*
D25*
X95561752Y-136495248D03*
X96161752Y-136495248D03*
D26*
X98000000Y-116448000D03*
D27*
X98000000Y-123052000D03*
X100286000Y-123052000D03*
X95714000Y-123052000D03*
D17*
X100200000Y-112250000D03*
X98300000Y-112250000D03*
X98300000Y-109750000D03*
X100200000Y-109750000D03*
D28*
X69100000Y-108000000D03*
X69100000Y-107050000D03*
X69100000Y-106100000D03*
X66900000Y-106100000D03*
X66900000Y-108000000D03*
D29*
X92300000Y-69600000D03*
X93250000Y-69600000D03*
X94200000Y-69600000D03*
X94200000Y-67400000D03*
X92300000Y-67400000D03*
D28*
X130150000Y-92050000D03*
X130150000Y-93000000D03*
X130150000Y-93950000D03*
X132350000Y-93950000D03*
X132350000Y-92050000D03*
D30*
X75607876Y-116490452D03*
X74337876Y-116490452D03*
X73067876Y-116490452D03*
X71797876Y-116490452D03*
X71797876Y-121890452D03*
X73067876Y-121890452D03*
X74337876Y-121890452D03*
X75607876Y-121890452D03*
D31*
X65000000Y-125000000D03*
X65000000Y-65000000D03*
X135000000Y-65000000D03*
X135000000Y-125000000D03*
D17*
X76152876Y-129690452D03*
X74252876Y-129690452D03*
D14*
X75500000Y-62550000D03*
X75500000Y-64450000D03*
X75500000Y-73950000D03*
X75500000Y-72050000D03*
D17*
X79602876Y-129690452D03*
X77702876Y-129690452D03*
X72652876Y-129690452D03*
X70752876Y-129690452D03*
D32*
X67050000Y-92250760D03*
X68950000Y-92250760D03*
X68000000Y-90251780D03*
X111999240Y-67050000D03*
X111999240Y-68950000D03*
X113998220Y-68000000D03*
X133000000Y-112000000D03*
X131100000Y-112000000D03*
X132050000Y-113998980D03*
D17*
X117383272Y-72250000D03*
X115483272Y-72250000D03*
X117383272Y-74250000D03*
X115483272Y-74250000D03*
X117383272Y-78250000D03*
X115483272Y-78250000D03*
X117383272Y-80250000D03*
X115483272Y-80250000D03*
X113633272Y-72250000D03*
X111733272Y-72250000D03*
X113633272Y-74250000D03*
X111733272Y-74250000D03*
X113633272Y-78250000D03*
X111733272Y-78250000D03*
X113633272Y-80250000D03*
X111733272Y-80250000D03*
X68950000Y-88500000D03*
X67050000Y-88500000D03*
D14*
X116000000Y-67000000D03*
X116000000Y-68900000D03*
D17*
X133000000Y-116000000D03*
X131100000Y-116000000D03*
X68950000Y-94000000D03*
X67050000Y-94000000D03*
D14*
X110250000Y-68950000D03*
X110250000Y-67050000D03*
D17*
X131100000Y-110000000D03*
X133000000Y-110000000D03*
D14*
X78000000Y-72050000D03*
X78000000Y-73950000D03*
D17*
X117383272Y-76250000D03*
X115483272Y-76250000D03*
X113633272Y-76250000D03*
X111733272Y-76250000D03*
D33*
X77950000Y-91445000D03*
X77950000Y-90175000D03*
X77950000Y-88905000D03*
X77950000Y-87635000D03*
X77950000Y-86365000D03*
X77950000Y-85095000D03*
X77950000Y-83825000D03*
X77950000Y-82555000D03*
X72550000Y-82555000D03*
X72550000Y-83825000D03*
X72550000Y-85095000D03*
X72550000Y-86365000D03*
X72550000Y-87635000D03*
X72550000Y-88905000D03*
X72550000Y-90175000D03*
X72550000Y-91445000D03*
D34*
X91998980Y-126250000D03*
X88001020Y-126250000D03*
X80703896Y-126190452D03*
X84701856Y-126190452D03*
X73703896Y-126190452D03*
X77701856Y-126190452D03*
D35*
X68750000Y-117248980D03*
X68750000Y-113251020D03*
D36*
X99561752Y-136495248D03*
X92161752Y-136495248D03*
D34*
X87247960Y-130500000D03*
X83250000Y-130500000D03*
D24*
X73750000Y-111000000D03*
X73750000Y-108000000D03*
X116500000Y-108250000D03*
X116500000Y-111250000D03*
D35*
X92000000Y-116751020D03*
X92000000Y-120748980D03*
D37*
X64000000Y-116545000D03*
X62730000Y-116545000D03*
X64000000Y-115275000D03*
X62730000Y-115275000D03*
X64000000Y-114005000D03*
X62730000Y-114005000D03*
X64000000Y-112735000D03*
X62730000Y-112735000D03*
X64000000Y-111465000D03*
X62730000Y-111465000D03*
X64000000Y-110195000D03*
X62730000Y-110195000D03*
X64000000Y-108925000D03*
X62730000Y-108925000D03*
X64000000Y-107655000D03*
X62730000Y-107655000D03*
X64000000Y-106385000D03*
X62730000Y-106385000D03*
X64000000Y-105115000D03*
X62730000Y-105115000D03*
X64000000Y-103845000D03*
X62730000Y-103845000D03*
X64000000Y-102575000D03*
X62730000Y-102575000D03*
X65270000Y-116545000D03*
X65270000Y-115275000D03*
X65270000Y-114005000D03*
X65270000Y-112735000D03*
X65270000Y-111465000D03*
X65270000Y-110195000D03*
X65270000Y-108925000D03*
X65270000Y-107655000D03*
X65270000Y-106385000D03*
X65270000Y-105115000D03*
X65270000Y-102575000D03*
X65270000Y-103845000D03*
X83455000Y-64000000D03*
X83455000Y-62730000D03*
X84725000Y-64000000D03*
X84725000Y-62730000D03*
X85995000Y-64000000D03*
X85995000Y-62730000D03*
X87265000Y-64000000D03*
X87265000Y-62730000D03*
X88535000Y-64000000D03*
X88535000Y-62730000D03*
X89805000Y-64000000D03*
X89805000Y-62730000D03*
X91075000Y-64000000D03*
X91075000Y-62730000D03*
X92345000Y-64000000D03*
X92345000Y-62730000D03*
X93615000Y-64000000D03*
X93615000Y-62730000D03*
X94885000Y-64000000D03*
X94885000Y-62730000D03*
X96155000Y-64000000D03*
X96155000Y-62730000D03*
X97425000Y-64000000D03*
X97425000Y-62730000D03*
X83455000Y-65270000D03*
X84725000Y-65270000D03*
X85995000Y-65270000D03*
X87265000Y-65270000D03*
X88535000Y-65270000D03*
X89805000Y-65270000D03*
X91075000Y-65270000D03*
X92345000Y-65270000D03*
X93615000Y-65270000D03*
X94885000Y-65270000D03*
X97425000Y-65270000D03*
X96155000Y-65270000D03*
X136000000Y-83455000D03*
X137270000Y-83455000D03*
X136000000Y-84725000D03*
X137270000Y-84725000D03*
X136000000Y-85995000D03*
X137270000Y-85995000D03*
X136000000Y-87265000D03*
X137270000Y-87265000D03*
X136000000Y-88535000D03*
X137270000Y-88535000D03*
X136000000Y-89805000D03*
X137270000Y-89805000D03*
X136000000Y-91075000D03*
X137270000Y-91075000D03*
X136000000Y-92345000D03*
X137270000Y-92345000D03*
X136000000Y-93615000D03*
X137270000Y-93615000D03*
X136000000Y-94885000D03*
X137270000Y-94885000D03*
X136000000Y-96155000D03*
X137270000Y-96155000D03*
X136000000Y-97425000D03*
X137270000Y-97425000D03*
X134730000Y-83455000D03*
X134730000Y-84725000D03*
X134730000Y-85995000D03*
X134730000Y-87265000D03*
X134730000Y-88535000D03*
X134730000Y-89805000D03*
X134730000Y-91075000D03*
X134730000Y-92345000D03*
X134730000Y-93615000D03*
X134730000Y-94885000D03*
X134730000Y-97425000D03*
X134730000Y-96155000D03*
X64000000Y-97425000D03*
X62730000Y-97425000D03*
X64000000Y-96155000D03*
X62730000Y-96155000D03*
X64000000Y-94885000D03*
X62730000Y-94885000D03*
X64000000Y-93615000D03*
X62730000Y-93615000D03*
X64000000Y-92345000D03*
X62730000Y-92345000D03*
X64000000Y-91075000D03*
X62730000Y-91075000D03*
X64000000Y-89805000D03*
X62730000Y-89805000D03*
X64000000Y-88535000D03*
X62730000Y-88535000D03*
X64000000Y-87265000D03*
X62730000Y-87265000D03*
X64000000Y-85995000D03*
X62730000Y-85995000D03*
X64000000Y-84725000D03*
X62730000Y-84725000D03*
X64000000Y-83455000D03*
X62730000Y-83455000D03*
X65270000Y-97425000D03*
X65270000Y-96155000D03*
X65270000Y-94885000D03*
X65270000Y-93615000D03*
X65270000Y-92345000D03*
X65270000Y-91075000D03*
X65270000Y-89805000D03*
X65270000Y-88535000D03*
X65270000Y-87265000D03*
X65270000Y-85995000D03*
X65270000Y-83455000D03*
X65270000Y-84725000D03*
X102575000Y-64000000D03*
X102575000Y-62730000D03*
X103845000Y-64000000D03*
X103845000Y-62730000D03*
X105115000Y-64000000D03*
X105115000Y-62730000D03*
X106385000Y-64000000D03*
X106385000Y-62730000D03*
X107655000Y-64000000D03*
X107655000Y-62730000D03*
X108925000Y-64000000D03*
X108925000Y-62730000D03*
X110195000Y-64000000D03*
X110195000Y-62730000D03*
X111465000Y-64000000D03*
X111465000Y-62730000D03*
X112735000Y-64000000D03*
X112735000Y-62730000D03*
X114005000Y-64000000D03*
X114005000Y-62730000D03*
X115275000Y-64000000D03*
X115275000Y-62730000D03*
X116545000Y-64000000D03*
X116545000Y-62730000D03*
X102575000Y-65270000D03*
X103845000Y-65270000D03*
X105115000Y-65270000D03*
X106385000Y-65270000D03*
X107655000Y-65270000D03*
X108925000Y-65270000D03*
X110195000Y-65270000D03*
X111465000Y-65270000D03*
X112735000Y-65270000D03*
X114005000Y-65270000D03*
X116545000Y-65270000D03*
X115275000Y-65270000D03*
X136000000Y-102575000D03*
X137270000Y-102575000D03*
X136000000Y-103845000D03*
X137270000Y-103845000D03*
X136000000Y-105115000D03*
X137270000Y-105115000D03*
X136000000Y-106385000D03*
X137270000Y-106385000D03*
X136000000Y-107655000D03*
X137270000Y-107655000D03*
X136000000Y-108925000D03*
X137270000Y-108925000D03*
X136000000Y-110195000D03*
X137270000Y-110195000D03*
X136000000Y-111465000D03*
X137270000Y-111465000D03*
X136000000Y-112735000D03*
X137270000Y-112735000D03*
X136000000Y-114005000D03*
X137270000Y-114005000D03*
X136000000Y-115275000D03*
X137270000Y-115275000D03*
X136000000Y-116545000D03*
X137270000Y-116545000D03*
X134730000Y-102575000D03*
X134730000Y-103845000D03*
X134730000Y-105115000D03*
X134730000Y-106385000D03*
X134730000Y-107655000D03*
X134730000Y-108925000D03*
X134730000Y-110195000D03*
X134730000Y-111465000D03*
X134730000Y-112735000D03*
X134730000Y-114005000D03*
X134730000Y-116545000D03*
X134730000Y-115275000D03*
D38*
X67000000Y-138365000D03*
X67000000Y-134165000D03*
X68270000Y-138365000D03*
X68270000Y-134165000D03*
X69540000Y-138365000D03*
X69540000Y-134165000D03*
X70810000Y-138365000D03*
X70810000Y-134165000D03*
X72080000Y-138365000D03*
X72080000Y-134165000D03*
X73350000Y-138365000D03*
X73350000Y-134165000D03*
X74620000Y-138365000D03*
X74620000Y-134165000D03*
X75890000Y-138365000D03*
X75890000Y-134165000D03*
X77160000Y-138365000D03*
X77160000Y-134165000D03*
X78430000Y-138365000D03*
X78430000Y-134165000D03*
X79700000Y-138365000D03*
X79700000Y-134165000D03*
X80970000Y-138365000D03*
X80970000Y-134165000D03*
D34*
X88248980Y-139000000D03*
X84251020Y-139000000D03*
X88248980Y-135000000D03*
X84251020Y-135000000D03*
D39*
X125660000Y-117090000D03*
X125660000Y-127250000D03*
X125660000Y-137410000D03*
X105340000Y-117090000D03*
X105340000Y-124710000D03*
X105340000Y-129790000D03*
D40*
X93000000Y-111200000D03*
X93000000Y-108300000D03*
X77250000Y-108250000D03*
X77250000Y-111150000D03*
X87000000Y-94700000D03*
X87000000Y-91800000D03*
X96000000Y-108300000D03*
X96000000Y-111200000D03*
D41*
X105450000Y-67250000D03*
X102550000Y-67250000D03*
X76450000Y-80000000D03*
X73550000Y-80000000D03*
D40*
X80500000Y-87200000D03*
X80500000Y-84300000D03*
X69750000Y-85950000D03*
X69750000Y-83050000D03*
D41*
X66800000Y-103750000D03*
X69700000Y-103750000D03*
D40*
X96250000Y-66800000D03*
X96250000Y-69700000D03*
D41*
X132700000Y-96250000D03*
X129800000Y-96250000D03*
D40*
X84000000Y-91800000D03*
X84000000Y-94700000D03*
D42*
X103500000Y-75550000D03*
X102700000Y-75550000D03*
X101900000Y-75550000D03*
X101100000Y-75550000D03*
X100300000Y-75550000D03*
X99500000Y-75550000D03*
X98700000Y-75550000D03*
X97900000Y-75550000D03*
X97100000Y-75550000D03*
X96300000Y-75550000D03*
X95500000Y-75550000D03*
X94700000Y-75550000D03*
X93900000Y-75550000D03*
X93100000Y-75550000D03*
X92300000Y-75550000D03*
X91500000Y-75550000D03*
D43*
X89800000Y-77250000D03*
X89800000Y-78050000D03*
X89800000Y-78850000D03*
X89800000Y-79650000D03*
X89800000Y-80450000D03*
X89800000Y-81250000D03*
X89800000Y-82050000D03*
X89800000Y-82850000D03*
X89800000Y-83650000D03*
X89800000Y-84450000D03*
X89800000Y-85250000D03*
X89800000Y-86050000D03*
X89800000Y-86850000D03*
X89800000Y-87650000D03*
X89800000Y-88450000D03*
X89800000Y-89250000D03*
D42*
X91500000Y-90950000D03*
X92300000Y-90950000D03*
X93100000Y-90950000D03*
X93900000Y-90950000D03*
X94700000Y-90950000D03*
X95500000Y-90950000D03*
X96300000Y-90950000D03*
X97100000Y-90950000D03*
X97900000Y-90950000D03*
X98700000Y-90950000D03*
X99500000Y-90950000D03*
X100300000Y-90950000D03*
X101100000Y-90950000D03*
X101900000Y-90950000D03*
X102700000Y-90950000D03*
X103500000Y-90950000D03*
D43*
X105200000Y-89250000D03*
X105200000Y-88450000D03*
X105200000Y-87650000D03*
X105200000Y-86850000D03*
X105200000Y-86050000D03*
X105200000Y-85250000D03*
X105200000Y-84450000D03*
X105200000Y-83650000D03*
X105200000Y-82850000D03*
X105200000Y-82050000D03*
X105200000Y-81250000D03*
X105200000Y-80450000D03*
X105200000Y-79650000D03*
X105200000Y-78850000D03*
X105200000Y-78050000D03*
X105200000Y-77250000D03*
D24*
X105250000Y-73500000D03*
X105250000Y-70500000D03*
X108000000Y-78500000D03*
X108000000Y-75500000D03*
D44*
X105140000Y-96600000D03*
X103870000Y-96600000D03*
X102600000Y-96600000D03*
X101330000Y-96600000D03*
X100060000Y-96600000D03*
X98790000Y-96600000D03*
X97520000Y-96600000D03*
X96250000Y-96600000D03*
X94980000Y-96600000D03*
X93710000Y-96600000D03*
X93710000Y-106000000D03*
X94980000Y-106000000D03*
X96250000Y-106000000D03*
X97520000Y-106000000D03*
X98790000Y-106000000D03*
X100060000Y-106000000D03*
X101330000Y-106000000D03*
X102600000Y-106000000D03*
X103870000Y-106000000D03*
X105140000Y-106000000D03*
D45*
X85540000Y-116500000D03*
X83000000Y-116500000D03*
X80460000Y-116500000D03*
D46*
X100000000Y-72250000D03*
X102000000Y-72250000D03*
D47*
X89500000Y-108750000D03*
X89500000Y-110750000D03*
D46*
X96000000Y-126750000D03*
X98000000Y-126750000D03*
D47*
X126500000Y-94500000D03*
X126500000Y-92500000D03*
X129000000Y-81250000D03*
X129000000Y-79250000D03*
X112750000Y-110750000D03*
X112750000Y-108750000D03*
X121250000Y-92500000D03*
X121250000Y-94500000D03*
X123750000Y-79250000D03*
X123750000Y-81250000D03*
D45*
X115250000Y-84110000D03*
X115250000Y-86650000D03*
X115250000Y-89190000D03*
X115250000Y-94270000D03*
X115250000Y-96810000D03*
X115250000Y-99350000D03*
X115250000Y-101890000D03*
M02*
